<?xml version="1.0" encoding="utf-8"?>
<!-- Generator: Adobe Illustrator 21.0.0, SVG Export Plug-In . SVG Version: 6.00 Build 0)  -->
<svg version="1.1" id="Layer_1" xmlns="http://www.w3.org/2000/svg" xmlns:xlink="http://www.w3.org/1999/xlink" x="0px" y="0px"
	 viewBox="0 0 210 210" style="enable-background:new 0 0 210 210;" xml:space="preserve">
<style type="text/css">
	.st0{fill:#986698;}
	.st1{fill:#EE4036;}
	.st2{fill:#BE1E2D;}
	.st3{opacity:0.58;fill:#986698;enable-background:new    ;}
	.st4{fill:#FFFFFF;}
	.st5{opacity:0.53;}
	.st6{fill:#404041;}
	.st7{opacity:0.27;}
	.st8{opacity:0.41;}
	.st9{fill:url(#SVGID_1_);}
	.st10{fill:url(#SVGID_2_);}
	.st11{fill:#2F190D;}
	.st12{fill:#231F20;}
</style>
<g>
	<g>
		<path class="st0" d="M37.3,110.6c-4-3.5-13.6-2.3-18.1,0.7c-3.8,2.3-4.6,7.7-8.4,10c-3.4,2-10.4,1.5-10.3-3.6
			c-0.5,3.7,4.7,6.6,8.4,5.9c3.7-0.6,5.7-5,7.9-7.3c5.3-5,13.9-9.6,20-3.7"/>
	</g>
	<g>
		<path class="st0" d="M34.8,123.1c-4.5,2-4.9,6-11.2,5.6c-2.9-0.4-9.9-4.3-3.6-5.2c-7,1.2,0.6,7.1,4.6,7.2c5.9,0.1,6.4-5,10.2-8"/>
	</g>
	<g>
		<path class="st0" d="M32.2,140.7c-4.1,2.3-2,8.5-6.5,10.8s-11.8-0.2-13.2-4.7c-1.7-5.1,5.8-10.1,9-4.9c3.6,5.5-8.3,8-5.2,1.9
			c-6.4,5,13.9,6.7,7.8-2.9c-3.6-5.8-14-2-12.7,4.9c0.6,5.1,7.9,9,13.5,8.1c8.5-1.2,2.8-7.4,6.2-12.1"/>
	</g>
	<g>
		<path class="st0" d="M158.6,161.2c1.9-4.4,7.1-2.2,9.6,0.2c4,3.5,3.2,7.5,9.8,7.7c5.2,0.1,8.6-2.6,10.5-6.9c1.2-3,1-11.2-5-7.2
			c4.9-4.7,8.1,2.9,7.6,6.6c-0.5,5.1-5,8.7-10.6,10c-6,1.6-9.2-0.5-12.5-5c-3.2-4.1-6.4-9.3-12.1-3.6"/>
	</g>
	<g>
		<path class="st0" d="M177.7,147.3c5-7.7,11.7,7,17.7,0.7c8-8.7-10.5-10.4-6.2-5.2c-4.7-3.8,3.1-5.4,6.7-3.3c3.7,1.8,5,5.9,2,8.9
			c-6.4,6.7-14-4.3-21.8-0.8"/>
	</g>
	<g>
		<path class="st0" d="M170.9,154.3c17,2,3,15.4,6.5,21.9c2.5,4.1,8.8,5.3,12.5,3.3c8.2-4.6-0.9-9.9-2.9-4.5c0.8-0.7,0.8-1,1.5-1.7
			c5.1,2.8-0.9,5.8-4.5,4.7c-5.5-1.8-4.7-4.8-3.9-8.9c2.4-10.2,0.2-10.9-9.3-15.8"/>
	</g>
	<g>
		<path class="st0" d="M184.2,114.5c1-9.5,11.8,0.6,15.1,1.7c5.1,1.8,12.7-5.2,8.4-10c0.6,4.1,0.1,12.9-6.6,13.1
			c-5.6,0.2-10.5-11.8-16.6-3"/>
	</g>
	<g>
		<path class="st0" d="M34.2,101.7c-4.6,6.4-20.4,5-19.9-3.8c0.1-3.4,4.6-8.4,8.6-4.9c6.5,6.2-11.5,3.9-2.6,1.3
			c-8.9,0.8,4.2,9.3,4.8,1.1c0.1-6.1-10.3-3.9-11.8,0.4C8.6,108,28.5,109,34.6,102.7"/>
	</g>
	<g>
		<path class="st0" d="M63.9,162.8c0.5,12.3-14.1,17.4-24.7,12.4c-5.1-2.1-14.2-7.8-10.8-13.8c7.3-11.8,13.1,11.1,4,4.2
			c10.6,5.3,8.4-13.1-2-7.5c-7.5,3.6-2.9,14.6,2.2,18.1c13.5,9.8,36.9,1.4,32.5-15.4"/>
	</g>
	<g>
		<path class="st0" d="M187,130.8c6.1-9.1,14.1,11.8,16.6,1c-1.4,10.5-9.9-3.6-16.2-1"/>
	</g>
	<path class="st1" d="M193.9,117.5c0.1-3.7-2.5-6.9-6.1-8.2c0.9-0.7,1.5-1.7,1.5-2.8c0-2.1-1.7-3.8-4-3.8c-0.2,0-0.3,0-0.5,0
		c-0.1-0.8-0.2-1.5-0.4-2.2c2.4-0.5,4.3-2.5,4.3-4.9c0.1-2.5-1.8-4.6-4.3-5.1c-0.1-1.4-1.3-2.5-2.9-2.5c-0.3,0-0.5,0-0.8,0.1
		c-0.8-1.9-1.6-3.7-2.6-5.5c1.4-0.7,2.4-2.1,2.4-3.6c0.1-2.3-2-4.3-4.5-4.3c-0.9,0-1.7,0.2-2.4,0.6c-1-1.4-2-2.8-3.1-4.1
		c2.2-1.9,3.6-4.6,3.6-7.6c0.1-6-5-11-11.6-11.1c-3.6-0.1-6.9,1.4-9.1,3.7c-3.7-2.4-7.8-4.5-12-6.3c0.2-0.4,0.3-0.8,0.3-1.2
		c0-2-1.7-3.6-3.8-3.6c-1.7,0-3.1,0.9-3.7,2.2c-2.6-0.8-5.3-1.5-8.1-2.1c-2.1-4.5-6.8-7.6-12.5-7.7c-5.2-0.1-9.9,2.5-12.3,6.4
		c-3.9,0.4-7.7,1-11.4,1.8c0-0.1,0-0.1,0-0.2c0-1.9-1.6-3.4-3.6-3.5c-2,0-3.7,1.4-3.8,3.3c0,0.8,0.3,1.5,0.8,2.1
		c-0.3,0.1-0.7,0.2-1,0.3c-1.5-0.9-3.2-1.5-5.2-1.5c-5.1-0.1-9.3,3.6-9.6,8.2c-0.8,0.5-1.7,1-2.5,1.5c-0.4-0.3-0.9-0.5-1.4-0.5
		c-1.3,0-2.4,0.9-2.5,2.2c0,0.3,0,0.6,0.1,0.8c-1.1,0.8-2.2,1.7-3.3,2.5c-0.7-0.1-1.4-0.2-2.1-0.2c-6.1-0.1-11.2,4.4-11.3,10
		c0,1.3,0.2,2.5,0.6,3.6c-0.9,1.2-1.7,2.4-2.4,3.6c-0.2,0-0.5-0.1-0.8-0.1c-2.3,0-4.3,1.7-4.3,3.8c0,0.4,0.1,0.8,0.2,1.2
		c-6.1,0.3-11,4.9-11.2,10.6c-0.1,4.4,2.7,8.3,6.8,10c-0.3,2.1-0.4,4.2-0.5,6.4c-0.1,5,0.4,10,1.5,14.7c-4.8,1.6-8.2,5.7-8.3,10.6
		c-0.1,6.4,5.4,11.7,12.3,11.8c1.3,0,2.5-0.1,3.7-0.4c0.1,1.8,1.6,3.3,3.6,3.3c0.2,0,0.4,0,0.7,0c4.8,6.2,10.7,11.7,17.5,16.1
		c0,0.1,0,0.2,0,0.2c-0.1,3.9,3.3,7.2,7.6,7.3c1.6,0,3-0.4,4.3-1.1c0.5,0.2,1.1,0.5,1.6,0.7c-0.1,2.7,2.3,5,5.2,5
		c1.7,0,3.2-0.7,4.2-1.8c6.6,1.8,13.5,2.8,20.7,3c7.3,0.1,14.4-0.6,21.1-2.2c1.3,1.2,3.1,2,5.1,2.1c3.9,0.1,7.1-2.6,7.5-6.1
		c0.6-0.3,1.3-0.5,1.9-0.8c0.8,0.9,2,1.4,3.3,1.4c2.4,0,4.5-1.7,4.5-4c0.9,0.4,1.9,0.7,2.9,0.7c3.7,0.1,6.7-2.6,6.8-6
		c0-0.9-0.2-1.8-0.6-2.6c1.7-1.4,3.3-2.8,4.9-4.3c0.9,0.6,1.9,0.9,3,0.9c3,0.1,5.4-2.1,5.5-4.8c0-0.3,0-0.6-0.1-0.8
		c0.8,0.2,1.6,0.4,2.5,0.4c4.8,0.1,8.8-3.4,8.9-7.8c0.1-3.4-2.2-6.4-5.5-7.6c0.5-1.1,1-2.1,1.4-3.2c0.8,0.5,1.8,0.7,2.9,0.7
		c3.3,0.1,6-2.3,6-5.3c0-1.9-1-3.6-2.5-4.6C191.1,124.3,193.8,121.2,193.9,117.5z"/>
	<path class="st2" d="M78.7,144.3c-0.1,2.8-2.6,5.1-5.7,5s-5.5-2.4-5.4-5.2s2.6-5,5.7-5C76.3,139.2,78.8,141.5,78.7,144.3z"/>
	<path class="st2" d="M89.3,151.7c0,1.3-1.2,2.4-2.6,2.3c-1.4,0-2.6-1.1-2.5-2.4c0-1.3,1.2-2.4,2.6-2.3
		C88.2,149.3,89.3,150.4,89.3,151.7z"/>
	<path class="st2" d="M98.6,147.6c0,1.2-1.1,2.2-2.4,2.2s-2.4-1-2.4-2.2s1.1-2.2,2.5-2.2C97.6,145.4,98.6,146.4,98.6,147.6z"/>
	<path class="st2" d="M108.2,162.9c-0.1,2.8-2.6,5-5.7,5c-3.1-0.1-5.5-2.4-5.4-5.2s2.6-5.1,5.7-5
		C105.9,157.8,108.3,160.1,108.2,162.9z"/>
	<path class="st3" d="M112.3,162.5c0,0.8-0.8,1.5-1.7,1.5c-0.9,0-1.6-0.7-1.6-1.6c0-0.8,0.8-1.5,1.7-1.5
		C111.6,161,112.3,161.7,112.3,162.5z"/>
	<path class="st2" d="M121.3,155.2c0,0.8-0.8,1.5-1.7,1.5c-0.9,0-1.6-0.7-1.6-1.6c0-0.8,0.8-1.5,1.7-1.5
		C120.6,153.7,121.4,154.4,121.3,155.2z"/>
	<path class="st2" d="M130.1,143.8c0,1.2-1.1,2.2-2.5,2.2c-1.3,0-2.4-1-2.3-2.3c0-1.2,1.1-2.2,2.5-2.2
		C129.1,141.6,130.1,142.6,130.1,143.8z"/>
	<path class="st2" d="M154.7,153c-0.1,2.8-2.6,5-5.7,5c-3.1-0.1-5.5-2.4-5.4-5.2s2.6-5.1,5.7-5C152.3,147.8,154.7,150.1,154.7,153z"
		/>
	<path class="st2" d="M162.3,140.9c0,1.5-1.4,2.7-3,2.7s-2.9-1.3-2.9-2.8s1.4-2.7,3-2.7C161.1,138.1,162.4,139.4,162.3,140.9z"/>
	<path class="st2" d="M163.3,130.3c0,1.3-1.2,2.4-2.6,2.3c-1.4,0-2.6-1.1-2.5-2.4c0-1.3,1.2-2.4,2.6-2.3
		C162.2,127.9,163.3,129,163.3,130.3z"/>
	<path class="st2" d="M170.1,122.8c0,1-1,1.9-2.1,1.8c-1.1,0-2-0.9-2-1.9s1-1.9,2.1-1.8C169.3,120.9,170.2,121.8,170.1,122.8z"/>
	<path class="st3" d="M93.2,139.9c0,0.4-0.3,0.7-0.8,0.7c-0.4,0-0.7-0.3-0.7-0.7s0.3-0.7,0.8-0.7C92.9,139.2,93.2,139.5,93.2,139.9z
		"/>
	
		<ellipse transform="matrix(1.983652e-02 -0.9998 0.9998 1.983652e-02 -34.2297 248.9091)" class="st3" cx="109.8" cy="141.9" rx="1.7" ry="1.8"/>
	
		<ellipse transform="matrix(1.852795e-02 -0.9998 0.9998 1.852795e-02 -72.4668 187.3644)" class="st3" cx="59.2" cy="130.6" rx="1.2" ry="1.3"/>
	<path class="st2" d="M55.6,136.9c-0.1,2.2-2,3.9-4.3,3.8c-2.4,0-4.2-1.8-4.2-4s2-3.9,4.3-3.8C53.8,133,55.6,134.8,55.6,136.9z"/>
	<g>
		<ellipse class="st4" cx="75.5" cy="95.9" rx="24.5" ry="22.6"/>
		<circle cx="83" cy="85.4" r="8.4"/>
		<ellipse class="st4" cx="146.4" cy="93.3" rx="24.5" ry="22.6"/>
		<circle cx="138.9" cy="82.8" r="8.4"/>
	</g>
	<g>
		<path class="st0" d="M177.2,87.1c-1.3-6.8,9.9-14.1,16.9-11.9c3.3,1.1,7.6,5.2,6.1,8.6c-2.3,5.1-10.7,0.8-7-2.2
			c-4.1,3.7,5.4,6.9,8.8,2.9c3.8-4.3-0.1-9.9-4.9-11.7c-8.1-3.6-20.8,5.4-21.4,13.2"/>
	</g>
	<g>
		<path class="st0" d="M46.2,76.4c3.2-8.8-7.4-13.7-15.2-12.2c-4.1,0.6-8.6,3.6-7.2,7.7c1.7,4.5,11.3,5.7,9.2-0.2
			c-2.8,7.4-11.7-5.3,1.3-6.4c9.3-0.5,10.9,6.7,9.7,13.8"/>
	</g>
	<g>
		<path class="st0" d="M52.2,154.4c-4.1,3-0.7,12.6-6.9,12.8c9.6,1.5,4-11.1,8.5-14.1"/>
	</g>
	<g>
		<path class="st0" d="M57.7,60.6c-4.1,0.3-9.5-3.2-8.7-8c0.8-3.7,9-6.6,10-1.8c-9.1-6.6-10.6,9.3,1.2,10.2"/>
	</g>
	<g>
		<path class="st0" d="M168.9,63.1c-1.6-9.2,8.2-0.9,10.7-0.5c5.5,0.8,9.4-7,4.3-10.1c1.8,3.4,3.8,11.3-2.9,11.8
			c-4.4,0.3-9.8-8.3-11.8,0.5"/>
	</g>
	<g>
		<path class="st0" d="M51.3,63.6c-5.5-3.8-8.3-9.7-15.2-12.2c-5.1-2.1-12.2-1.9-11.6,5.2c0.2-6.8,9-5.6,13.8-3.1
			C43.8,56,47,61.1,51,65.6"/>
	</g>
	<g>
		<path class="st0" d="M79.1,48.1C74,46.6,63.4,37.3,72,33.3c3-1,8.1,1.2,6.2,4.2c-1.9,3.4-8.2,1.5-4-1.4c-4.5,2.3,1.3,6.5,4.4,2.5
			c3.8-4.7-2.4-6.8-6.5-4.9c-9,3.9-1.4,14.2,5.6,15.7"/>
	</g>
	<g>
		<path class="st0" d="M141.5,50c6-1.9,10.6-10.3,6.6-15.2c-1.8-2.4-8.4-4.6-8.5-0.8c0,1.7,3.9,5.2,5.5,1.5
			c-5.4,9.4-9.3-11.7,2.3-4.4c7.3,4.6,1.8,17-4.2,20.3"/>
	</g>
	<g>
		<path class="st2" d="M59.3,135.8c5.3-3.6,6.8-5,13.4-2.1c5.9,2.5,8.4,5.3,15.1,3.3c5.2-1.9,9-6.3,14.5-4.1
			c5.5,1.8,6.5,6.6,12.8,4.7c5.6-1.6,8.7-7.3,15-7.5c5.2-0.2,10.2,5.3,14.3,4c6.7-2.2,5.4-9.4,13.9-8.2c3.7,0.4,10.3,2.6,13.2,5
			c-3.7-0.7-8.4-2.5-12.5-2.6c-5.9-0.1-6.3,1.9-9.4,6.3c-7.2,9.4-14-1.6-24,0.9c-9.7,2.2-10.6,11.7-20.8,5.7
			c-5.5-2.8-5.1-3.8-11-1.9c-4.5,1.3-2.6,1.3-8.6,2.6c-5.9,1.2-13.1-10.4-26.5-5.6"/>
	</g>
	<g class="st5">
		<path class="st2" d="M105,79.5c-4.6-3.7-36.5-13.6-63.4-5.3C39,75,38.7,86.1,44.3,86.7l-0.1,2.8c-1.5,31.3,29.3,38,40.9,34.1
			c16.2-5.5,18.7-15.8,22.4-27.4C109.2,91.7,109.9,83.5,105,79.5z M104.1,96.4c-3.1,12.5-8.9,22.1-21.1,25
			c-10.3,2.4-23.4-2.4-29.5-11.2c-6.5-9.4-5.9-21-4.6-32.2l-0.1,0.4c0.3-7.8,47.1-1,51.4,2.3C105,84,105.3,91.5,104.1,96.4z"/>
	</g>
	<g class="st5">
		<path class="st2" d="M118.5,97.7c4.7,11.2,8.2,21.2,24.8,25.2c11.9,2.8,42.1-6.5,37.8-37.5l-0.1-3.3c4.3-0.9,4.8-11.9,1.3-12.5
			c-27.7-4.9-58.4,7.1-62.7,11.2C115.1,85.2,116.5,93.3,118.5,97.7z M124.5,81.5c3.9-3.6,50-14.9,50.9-7.1l-0.1-0.4
			c2.3,10.9,3.9,22.4-1.7,32.4c-5.2,9.3-17.9,15.3-28.3,13.9c-12.5-1.7-19.1-10.7-23.3-22.9C120.4,92.7,120,85.3,124.5,81.5z"/>
	</g>
	<g class="st5">
		<path class="st0" d="M105.6,80.5c3.7,4.8,11,4.2,15.4,0.8c-3.3,2.2-2.9,8.6-3.5,12.2c-1.7-4.2-6.9-2.6-9.3,0c0-3.8,0-9.2-2.1-12.4
			"/>
	</g>
	<path class="st2" d="M58.9,67.8c0,0,5-11.3,21.8-9.1c16.8,2.1,19.5,12.2,19.5,12.2s-1.8-15.4-18.6-17.2
		C63.5,51.7,58.9,67.8,58.9,67.8z"/>
	<path class="st2" d="M158.4,66.4c0,0-5.9-10.9-22.5-7.6c-16.5,3.3-18.5,13.6-18.5,13.6S118,56.9,134.5,54
		C152.5,50.7,158.4,66.4,158.4,66.4z"/>
	<g>
		<path class="st6" d="M101.9,77.2c-4.5-3.6-35.6-13.3-61.9-5.1c-2.6,0.8-2.8,11.6,2.7,12.2L42.5,87c-1.5,30.5,28.6,37.1,40,33.3
			c15.8-5.4,18.3-15.5,21.9-26.8C106,89,106.6,81,101.9,77.2z M101,93.6c-3,12.2-8.7,21.6-20.7,24.4c-10.1,2.3-22.9-2.4-28.8-10.9
			c-6.4-9.2-5.8-20.6-4.5-31.4l0,0.3c0.3-7.6,46-0.9,50.2,2.2C101.9,81.5,102.1,88.9,101,93.6z"/>
	</g>
	<g class="st7">
		<path class="st4" d="M102.1,91.1c-3.5,11.3-5.8,21.4-20.2,27c-5.7,2.2-16.6,1.3-24.9-5.1c8.3,6.7,19.4,7.1,25.4,5.4
			C100.3,113.4,102.8,88.9,102.1,91.1z"/>
	</g>
	<g class="st8">
		
			<radialGradient id="SVGID_1_" cx="-88.8062" cy="214.1382" r="9.2694" gradientTransform="matrix(2.4306 0.3563 0.3439 -2.5177 211.5621 663.9036)" gradientUnits="userSpaceOnUse">
			<stop  offset="0.7388" style="stop-color:#000000"/>
			<stop  offset="0.8873" style="stop-color:#000000"/>
			<stop  offset="1" style="stop-color:#000000"/>
		</radialGradient>
		<path class="st9" d="M51.5,106.8c-6.4-9.2-5.8-20.6-4.5-31.4l-0.1,0.4c0.3-7.5,44.4-1.2,49.9,2.1c-0.1-0.1-0.2-0.1-0.2-0.2
			c-4.1-3.2-49.9-9.9-50.2-2.2l0.1-0.4C45.2,86,44.6,97.3,51,106.5c1.6,2.3,3.6,4.3,6,6C54.8,110.8,52.9,108.9,51.5,106.8z"/>
	</g>
	<g>
		<path class="st6" d="M115,95c4.6,10.9,8,20.7,24.2,24.6c11.7,2.8,41.1-6.3,36.9-36.6l-0.1-3.2c4.2-0.9,4.7-11.6,1.3-12.2
			c-27.1-4.8-57.1,6.9-61.2,11C111.7,82.7,113.1,90.6,115,95z M120.9,79.1c3.8-3.5,48.8-14.5,49.8-7l-0.1-0.4
			c2.2,10.7,3.8,21.9-1.7,31.7c-5.1,9.1-17.5,15-27.7,13.6c-12.2-1.6-18.7-10.5-22.7-22.3C116.9,90.1,116.5,82.8,120.9,79.1z"/>
	</g>
	<g class="st8">
		
			<radialGradient id="SVGID_2_" cx="-63.8149" cy="451.4403" r="9.7925" gradientTransform="matrix(2.3891 -0.5845 -0.5641 -2.4746 551.7471 1172.7523)" gradientUnits="userSpaceOnUse">
			<stop  offset="0.7388" style="stop-color:#000000"/>
			<stop  offset="0.8873" style="stop-color:#000000"/>
			<stop  offset="1" style="stop-color:#000000"/>
		</radialGradient>
		<path class="st10" d="M118.5,94.7c-1.6-4.6-2-12,2.4-15.7c3.2-3,35.6-11.2,46.3-9.3c-9.2-3-44.2,5.9-47.6,9
			c-4.4,3.7-4,11-2.4,15.6c3.8,11.1,9.7,19.6,20.5,21.9C127.8,113.7,122.1,105.4,118.5,94.7z"/>
	</g>
	<g>
		<path class="st6" d="M102.4,78.1c3.6,4.7,10.7,4.1,15.1,0.8c-3.2,2.2-2.8,8.4-3.4,11.9c-1.7-4.1-6.8-2.5-9,0c0-3.7,0-9-2.1-12.1"
			/>
	</g>
	<g>
		<path class="st4" d="M114.4,87c-0.1-3.4,1.3-5.9,2.9-7.4c1.3-1.4,2.2-2,3.8-2.9c3.6-2.1,8.2-3.2,12-4.3
			C126.7,74.3,113.5,76.4,114.4,87"/>
	</g>
	<g>
		<path class="st4" d="M44.9,75.8c0.4-3.8,1-4.9,4.4-5.4c3-0.5,7.6-0.8,10.6-0.6c-3.6,0.3-7.9,0.4-10.8,1c-3.8,0.9-3.3,2.3-4.4,5.3"
			/>
	</g>
	<path class="st11" d="M178.4,71.9c0.3,1.4-0.4,2.8-1.6,3.1c-1.2,0.3-2.4-0.6-2.8-2c-0.3-1.4,0.4-2.8,1.6-3.1
		C176.8,69.6,178.1,70.5,178.4,71.9z"/>
	<path class="st12" d="M178,72c0.3,1.1-0.3,2.3-1.3,2.5s-2-0.5-2.3-1.6s0.3-2.3,1.3-2.5C176.7,70.1,177.7,70.9,178,72z"/>
	<g class="st7">
		<path class="st4" d="M172.9,78.3c0.6,11.9,1.9,22.2-10.6,33.1c-5,4.3-16.2,7.8-26.9,5.1c10.8,2.9,22.1-1,27.5-5
			C179.1,99.7,172.8,75.9,172.9,78.3z"/>
	</g>
</g>
</svg>
