<?xml version="1.0" encoding="utf-8"?>
<!-- Generator: Adobe Illustrator 21.0.0, SVG Export Plug-In . SVG Version: 6.00 Build 0)  -->
<svg version="1.1" id="Layer_1" xmlns="http://www.w3.org/2000/svg" xmlns:xlink="http://www.w3.org/1999/xlink" x="0px" y="0px"
	 viewBox="0 0 210 210" style="enable-background:new 0 0 210 210;" xml:space="preserve">
<style type="text/css">
	.st0{fill:#8ACEB6;}
	.st1{fill:#336766;}
	.st2{fill:#FFFFFF;}
</style>
<g>
	<path class="st0" d="M172,123.9c0,35.4-29.8,64.1-66.6,64.1c-36.8,0-66.6-28.7-66.6-64.1c0-35.4,29.8-64.1,66.6-64.1
		C142.2,59.8,172,88.5,172,123.9z"/>
	<path class="st1" d="M104.3,128.8c0,15.8-12.8,28.7-28.7,28.7c-15.8,0-28.7-12.8-28.7-28.7c0-15.8,12.8-28.7,28.7-28.7
		C91.4,100.1,104.3,112.9,104.3,128.8z"/>
	<path class="st0" d="M142.4,91.7c-0.1,0-0.2,0-0.3,0l-17.5-3.8c-0.9-0.2-1.5-1.1-1.3-2c0.2-0.9,1.1-1.5,2-1.3l11.2,2.4l-9.1-7.9
		c-0.6-0.5-0.7-1.4-0.4-2.1c0.4-0.7,1.2-1,2-0.7l12.3,4.2l-8.5-10.4c-0.5-0.6-0.5-1.5,0-2.1c0.5-0.6,1.3-0.8,2-0.5l13.3,6.2
		l-10.5-15.4c-0.5-0.7-0.4-1.6,0.2-2.2c0.6-0.6,1.5-0.6,2.2-0.1c6.2,5.1,12.9,10.4,17.2,13.6c-3.6-7.2-8.9-18.7-9.2-19.4
		c-0.3-0.7-0.1-1.6,0.5-2c0.6-0.5,1.5-0.4,2.1,0.1l13.6,13L162.4,50c-0.1-0.8,0.3-1.5,1.1-1.8c0.7-0.3,1.6,0,2,0.7l7.4,11.7
		l3.6-11.3c0.2-0.7,1-1.2,1.7-1.2c0.8,0.1,1.4,0.6,1.5,1.4l2.3,14.7l7-15.2c0.4-0.8,1.4-1.2,2.2-0.8c0.8,0.4,1.2,1.4,0.8,2.2
		l-9.3,20.2c-0.3,0.7-1,1.1-1.7,0.9c-0.7-0.1-1.3-0.7-1.4-1.4l-2-13.1l-2.5,8c-0.2,0.6-0.7,1.1-1.4,1.1c-0.6,0.1-1.3-0.2-1.6-0.8
		l-5.2-8.2l1.2,8.6c0.1,0.7-0.3,1.4-0.9,1.7c-0.6,0.3-1.4,0.2-1.9-0.3L154.6,57c2.9,6.1,6.5,13.7,7.8,15.9c0.9,1.5,0,2.4-0.2,2.6
		c-1.1,0.9-1.8,1.5-15.6-9.5l7.5,11c0.4,0.6,0.4,1.4-0.1,2c-0.5,0.6-1.3,0.7-2,0.4l-12.1-5.7l7.6,9.2c0.5,0.6,0.5,1.4,0.1,2
		c-0.4,0.6-1.2,0.9-1.9,0.6l-9.9-3.4l7.6,6.6c0.6,0.5,0.7,1.3,0.4,2C143.6,91.4,143,91.7,142.4,91.7z"/>
	<circle class="st0" cx="196.8" cy="56.8" r="13.1"/>
	<path class="st0" d="M68.4,93.4c-0.6,0-1.2-0.3-1.5-0.9c-0.3-0.7-0.2-1.5,0.4-2l7.6-6.6L65,87.2c-0.7,0.2-1.5,0-1.9-0.6
		c-0.4-0.6-0.4-1.4,0.1-2l7.6-9.2l-12.1,5.7c-0.7,0.3-1.5,0.1-2-0.4c-0.5-0.6-0.5-1.4-0.1-2l7.5-11c-13.8,11.1-14.5,10.4-15.6,9.5
		c-0.2-0.2-1.1-1.1-0.2-2.6c1.3-2.2,5-9.9,7.8-15.9L45.5,68.9c-0.5,0.5-1.3,0.6-1.9,0.3c-0.6-0.3-1-1-0.9-1.7l1.2-8.6L38.7,67
		c-0.3,0.5-1,0.8-1.6,0.8c-0.6-0.1-1.2-0.5-1.4-1.1l-2.5-8l-2,13.1c-0.1,0.7-0.7,1.3-1.4,1.4c-0.7,0.1-1.4-0.3-1.7-0.9l-9.3-20.2
		c-0.4-0.8,0-1.8,0.8-2.2c0.8-0.4,1.8,0,2.2,0.8l7,15.2L31,51.1c0.1-0.8,0.7-1.3,1.5-1.4c0.7,0,1.5,0.4,1.7,1.2l3.6,11.4l7.4-11.7
		c0.4-0.7,1.3-0.9,2-0.7c0.7,0.3,1.2,1,1.1,1.8l-1.7,11.6l13.6-13c0.6-0.6,1.5-0.6,2.1-0.1c0.6,0.5,0.9,1.3,0.5,2
		c-0.3,0.6-5.6,12.2-9.2,19.4c4.3-3.2,11-8.5,17.2-13.6c0.6-0.5,1.6-0.5,2.2,0.1c0.6,0.6,0.7,1.5,0.2,2.2L62.8,75.5l13.3-6.2
		c0.7-0.3,1.5-0.1,2,0.5c0.5,0.6,0.5,1.5,0,2.1l-8.5,10.4L81.8,78c0.8-0.3,1.6,0.1,2,0.7c0.4,0.7,0.3,1.6-0.3,2.1l-9.1,7.9l11.2-2.4
		c0.9-0.2,1.8,0.4,2,1.3c0.2,0.9-0.4,1.8-1.3,2l-17.5,3.8C68.6,93.4,68.5,93.4,68.4,93.4z"/>
	<path class="st0" d="M27.1,58.4c0-7.3-5.9-13.1-13.1-13.1c-7.3,0-13.1,5.9-13.1,13.1c0,7.3,5.9,13.1,13.1,13.1
		C21.2,71.6,27.1,65.7,27.1,58.4z"/>
	<ellipse class="st2" cx="75.6" cy="127.1" rx="19.8" ry="19.9"/>
	<path d="M91.1,135.8c0,4-3.3,7.3-7.3,7.3c-4,0-7.3-3.3-7.3-7.3c0-4,3.3-7.3,7.3-7.3C87.8,128.5,91.1,131.8,91.1,135.8z"/>
	<path class="st1" d="M124.7,169.1c0,2.2-1.8,4-4,4l-15.2,7.4l-15.2-7.4c-2.2,0-4-1.8-4-4l0,0c0-2.2,1.8-4,4-4l15.2,7.4l15.2-7.4
		C122.9,165.1,124.7,166.9,124.7,169.1L124.7,169.1z"/>
	<path class="st1" d="M165.5,128.8c0,15.8-12.8,28.7-28.7,28.7c-15.8,0-28.7-12.8-28.7-28.7c0-15.8,12.8-28.7,28.7-28.7
		C152.7,100.1,165.5,112.9,165.5,128.8z"/>
	<path class="st2" d="M156.7,127.5c0,11-8.9,19.8-19.9,19.8c-11,0-19.8-8.9-19.8-19.8c0-11,8.9-19.8,19.8-19.8
		C147.8,107.7,156.7,116.5,156.7,127.5z"/>
	<ellipse cx="127.1" cy="135.9" rx="7.3" ry="7.3"/>
</g>
</svg>
