<?xml version="1.0" encoding="utf-8"?>
<!-- Generator: Adobe Illustrator 21.0.0, SVG Export Plug-In . SVG Version: 6.00 Build 0)  -->
<svg version="1.1" id="Layer_1" xmlns="http://www.w3.org/2000/svg" xmlns:xlink="http://www.w3.org/1999/xlink" x="0px" y="0px"
	 viewBox="0 0 210 210" style="enable-background:new 0 0 210 210;" xml:space="preserve">
<style type="text/css">
	.st0{fill:#F79838;}
	.st1{opacity:0.58;fill:#CB6828;}
	.st2{fill:#FAF39A;}
	.st3{fill:#2F1010;}
	.st4{opacity:0.43;}
	.st5{opacity:0.4;fill:#FFFFFF;}
	.st6{fill:#4B0F31;}
	.st7{fill:#1F0D16;}
	.st8{fill:#981B1E;}
	.st9{fill:#F06667;}
	.st10{fill:#FFFFFF;}
	.st11{fill:#C5434B;}
	.st12{opacity:0.68;}
</style>
<g>
	<path class="st0" d="M183.5,114.7c0.1-3.9-2.3-7.2-5.8-8.4c0.8-0.7,1.4-1.7,1.4-2.9c0-2.1-1.6-3.9-3.8-3.9c-0.2,0-0.3,0-0.5,0
		c-0.1-0.8-0.2-1.5-0.3-2.3c2.3-0.5,4.1-2.5,4.1-5c0.1-2.6-1.7-4.7-4.1-5.3c-0.1-1.4-1.3-2.6-2.7-2.6c-0.3,0-0.5,0-0.7,0.1
		c-0.7-1.9-1.5-3.8-2.4-5.7c1.3-0.7,2.3-2.1,2.3-3.8c0.1-2.4-1.9-4.4-4.3-4.5c-0.8,0-1.6,0.2-2.3,0.6c-0.9-1.4-1.9-2.9-3-4.2
		c2.1-2,3.4-4.8,3.5-7.9c0.1-6.2-4.8-11.4-11-11.5c-3.4-0.1-6.6,1.4-8.7,3.8c-3.6-2.5-7.4-4.6-11.4-6.5c0.1-0.4,0.2-0.8,0.3-1.2
		c0-2-1.6-3.7-3.6-3.8c-1.6,0-2.9,0.9-3.5,2.3c-2.5-0.8-5.1-1.6-7.7-2.2c-2-4.6-6.5-7.9-11.8-8c-5-0.1-9.4,2.6-11.7,6.6
		c-3.7,0.4-7.3,1-10.8,1.9c0-0.1,0-0.1,0-0.2c0-1.9-1.5-3.5-3.4-3.6c-1.9,0-3.5,1.5-3.6,3.4c0,0.8,0.3,1.6,0.7,2.2
		c-0.3,0.1-0.6,0.2-0.9,0.3c-1.4-1-3.1-1.6-4.9-1.6c-4.9-0.1-8.9,3.7-9.1,8.5c-0.8,0.5-1.6,1-2.4,1.6c-0.4-0.3-0.8-0.5-1.3-0.5
		c-1.3,0-2.3,1-2.3,2.2c0,0.3,0.1,0.6,0.1,0.8c-1.1,0.8-2.1,1.7-3.2,2.6c-0.6-0.1-1.3-0.2-2-0.2c-5.8-0.1-10.6,4.5-10.8,10.3
		c0,1.3,0.2,2.6,0.6,3.7c-0.8,1.2-1.6,2.4-2.3,3.7c-0.2-0.1-0.5-0.1-0.7-0.1c-2.2,0-4.1,1.7-4.1,4c0,0.4,0.1,0.9,0.2,1.3
		c-5.8,0.3-10.5,5.1-10.6,11c-0.1,4.6,2.6,8.6,6.4,10.4c-0.3,2.2-0.4,4.4-0.5,6.6c-0.1,5.2,0.4,10.3,1.4,15.2
		c-4.5,1.6-7.8,5.9-7.9,11c-0.1,6.6,5.1,12.1,11.7,12.2c1.2,0,2.4-0.1,3.5-0.5c0.1,1.9,1.5,3.4,3.4,3.4c0.2,0,0.4,0,0.6,0
		c4.6,6.4,10.2,12.1,16.6,16.7c0,0.1,0,0.2,0,0.3c-0.1,4.1,3.1,7.4,7.2,7.5c1.5,0,2.9-0.4,4.1-1.1c0.5,0.2,1,0.5,1.6,0.7
		c-0.1,2.8,2.2,5.1,5,5.2c1.6,0,3.1-0.7,4-1.9c6.2,1.9,12.8,2.9,19.7,3.1c7,0.1,13.7-0.7,20.1-2.3c1.2,1.3,3,2.1,4.9,2.1
		c3.7,0.1,6.8-2.7,7.1-6.4c0.6-0.3,1.2-0.6,1.8-0.9c0.7,0.9,1.9,1.5,3.1,1.5c2.3,0.1,4.2-1.8,4.3-4.1c0.8,0.4,1.8,0.7,2.8,0.7
		c3.5,0.1,6.4-2.7,6.5-6.2c0-0.9-0.2-1.8-0.5-2.7c1.6-1.4,3.2-2.9,4.7-4.5c0.8,0.6,1.8,0.9,2.9,1c2.8,0.1,5.1-2.2,5.2-5
		c0-0.3,0-0.6-0.1-0.9c0.7,0.2,1.5,0.4,2.4,0.4c4.6,0.1,8.3-3.5,8.4-8.1c0.1-3.6-2.1-6.6-5.2-7.9c0.5-1.1,0.9-2.2,1.3-3.3
		c0.8,0.5,1.7,0.7,2.7,0.8c3.1,0.1,5.7-2.4,5.7-5.5c0-1.9-0.9-3.7-2.4-4.7C180.8,121.9,183.4,118.6,183.5,114.7z"/>
	
		<ellipse transform="matrix(2.110299e-02 -0.9998 0.9998 2.110299e-02 -75.2419 208.0519)" class="st1" cx="68.6" cy="142.4" rx="5.3" ry="5.3"/>
	
		<ellipse transform="matrix(2.091384e-02 -0.9998 0.9998 2.091384e-02 -70.3006 228.4218)" class="st1" cx="81.5" cy="150.1" rx="2.5" ry="2.5"/>
	<path class="st1" d="M92.8,145.9c0,1.3-1.1,2.3-2.3,2.2c-1.3,0-2.3-1.1-2.2-2.3c0-1.3,1.1-2.3,2.3-2.2
		C91.8,143.6,92.8,144.7,92.8,145.9z"/>
	
		<ellipse transform="matrix(2.110299e-02 -0.9998 0.9998 2.110299e-02 -66.9768 254.9487)" class="st1" cx="96.7" cy="161.7" rx="5.3" ry="5.3"/>
	
		<ellipse transform="matrix(2.156123e-02 -0.9998 0.9998 2.156123e-02 -59.2466 262.0779)" class="st1" cx="104.3" cy="161.3" rx="1.6" ry="1.6"/>
	
		<ellipse transform="matrix(2.116481e-02 -0.9998 0.9998 2.116481e-02 -43.2314 263.344)" class="st1" cx="112.9" cy="153.8" rx="1.6" ry="1.6"/>
	<path class="st1" d="M122.8,142c0,1.3-1.1,2.3-2.3,2.2c-1.3,0-2.3-1.1-2.2-2.3c0-1.3,1.1-2.3,2.3-2.2
		C121.8,139.7,122.8,140.7,122.8,142z"/>
	<path class="st1" d="M146.2,151.5c-0.1,2.9-2.5,5.2-5.4,5.2c-2.9-0.1-5.2-2.5-5.2-5.4c0.1-2.9,2.5-5.2,5.4-5.2
		C143.9,146.1,146.2,148.5,146.2,151.5z"/>
	<path class="st1" d="M153.5,139c0,1.6-1.3,2.8-2.9,2.8c-1.6,0-2.8-1.3-2.8-2.9c0-1.6,1.3-2.8,2.9-2.8
		C152.3,136.1,153.5,137.4,153.5,139z"/>
	<path class="st1" d="M154.4,128.1c0,1.4-1.2,2.4-2.5,2.4c-1.4,0-2.4-1.2-2.4-2.5c0-1.4,1.2-2.4,2.5-2.4
		C153.3,125.6,154.4,126.7,154.4,128.1z"/>
	<path class="st1" d="M160.9,120.3c0,1.1-0.9,1.9-2,1.9c-1.1,0-1.9-0.9-1.9-2c0-1.1,0.9-1.9,2-1.9
		C160,118.3,160.9,119.2,160.9,120.3z"/>
	<path class="st1" d="M87.7,137.9c0,0.4-0.3,0.7-0.7,0.7c-0.4,0-0.7-0.3-0.7-0.7c0-0.4,0.3-0.7,0.7-0.7
		C87.4,137.2,87.7,137.5,87.7,137.9z"/>
	<path class="st1" d="M105.3,140.1c0,1-0.8,1.7-1.8,1.7c-1,0-1.7-0.8-1.7-1.8c0-1,0.8-1.7,1.8-1.7
		C104.5,138.3,105.3,139.1,105.3,140.1z"/>
	
		<ellipse transform="matrix(2.141157e-02 -0.9998 0.9998 2.141157e-02 -74.0556 180.9026)" class="st1" cx="55.4" cy="128.3" rx="1.2" ry="1.2"/>
	<path class="st1" d="M51.9,134.9c0,2.2-1.9,4-4.1,4c-2.2,0-4-1.9-4-4.1c0-2.2,1.9-4,4.1-4C50.2,130.8,52,132.7,51.9,134.9z"/>
	<g>
		<path class="st1" d="M133.8,95.9c-6,16.7-24.4,25.5-41.2,19.5c-16.7-6-25.5-24.4-19.4-41.2c6-16.7,24.4-25.4,41.2-19.5
			C131,60.7,139.8,79.1,133.8,95.9z"/>
		
			<ellipse transform="matrix(0.3373 -0.9414 0.9414 0.3373 -11.6638 153.0596)" class="st2" cx="102.9" cy="84.8" rx="28.7" ry="28.7"/>
		<path class="st3" d="M116.5,98.5c-3.3,9.3-13.6,14.2-22.9,10.8c-9.3-3.3-14.2-13.6-10.8-22.9c3.3-9.3,13.6-14.2,22.9-10.8
			C115,79,119.8,89.2,116.5,98.5z"/>
		<path class="st4" d="M95.1,105.2c-8.6-3.1-13.4-12.1-11.4-20.8c-0.3,0.7-0.6,1.3-0.9,2c-3.3,9.3,1.5,19.6,10.8,22.9
			c9.3,3.3,19.6-1.5,22.9-10.8c0.3-0.7,0.5-1.4,0.6-2.1C113.1,104.4,103.7,108.3,95.1,105.2z"/>
		<ellipse transform="matrix(0.3372 -0.9414 0.9414 0.3372 -26.1856 156.5407)" cx="98.1" cy="96.9" rx="11.9" ry="11.9"/>
	</g>
	<path class="st5" d="M80.4,149.1c0.6-2.6,3.1-4.2,5.5-3.6c2.4,0.6,3.8,3.2,3.1,5.8c-0.6,2.6-3.1,4.2-5.5,3.6
		C81.1,154.3,79.7,151.7,80.4,149.1z"/>
	<g>
		<path class="st6" d="M66.1,113.8c5.4,7.3,17.3,7,25.1,7.6c32.6,2.4,46.7-5,48.4-8.4c1,8.4-5.7,34.8-9.3,39
			c-4,4.7-9.5,7.5-14.8,9.2c-6.8,2-29.9,0.1-33.1-1.2c-17.8-7.1-17.7-41.5-16.6-46.8"/>
	</g>
	<g>
		<path class="st7" d="M90.5,124.5c-7.4,1.3-6.2,11.5-2.3,15.7c3.6,4,12.1,5,16.8,4c5.4-1.1,8.7-7,10.3-13c0.6-2,0.3-4.9-1.3-6.2
			c-1.7-1.2-4.9-0.8-6.8-0.7c-1.1,0.2-3.1,0.1-3.8,1.3c-0.5,0.8-0.3,3-0.4,4.1c-0.1,1.9,0.3,4.8-0.7,6.6c-1,1.6-2.9,1.7-4.2,0.7
			c-2-1.3-0.6-2.4-0.1-4.4c0.6-2.7,0.3-7.5-2.6-8.1c-1.3-0.2-2.6,0.1-4,0.5"/>
	</g>
	<g>
		<path class="st8" d="M74.8,153.3c2.8-1.9,8.9-6.3,11.1-7c3.9-1.5,14.4-1.5,15.7,5.1c0.4-6.2,10.3-7.8,12.6-7.2
			c2.3,0.6,4.4,1.4,6.3,2.8c1.4,0.9,2.8,2.2,4,3.3c0.4,0.5,3.5,3.4,3.5,3.9c0,0.1,0.1,0.1,0.1,0.1c-2,2.4-6.4,2.8-9.1,3.8
			c-2.7,0.7-5,1.2-7.7,1.5c-4.8,0.5-9.8,1.1-14.7,0.6c-3.6-0.4-7.2-1-10.7-1.7c-1.7-0.3-3.6-0.5-5.2-1.1c-2.3-0.7-4.1-1.8-5.9-3.2"
			/>
	</g>
	<g>
		<path class="st9" d="M65.9,113.7c2.2,4.5,5.7,8.2,10.3,9.5c7.8,2.3,24.3,1.1,30.7,1.3c18.3,0.8,32.9-5.2,32.5-11.5
			c-2,3.4-19.5,7.4-24.2,7.5c-6.4,0.2-13.5,0.8-20,0.3c-4.6-0.4-9.5-0.5-14.3-1C78.4,119.6,70.3,118.2,65.9,113.7"/>
	</g>
	<g>
		<path class="st10" d="M68.3,117.1c0.1,2.2-2,4-1,6.1c0.6,1.1,4.8,3.4,6,3.1c2.1-0.4,4.1-5.8,2.4-5.8
			C74.8,120.6,70,119.4,68.3,117.1"/>
	</g>
	<g>
		<path class="st10" d="M78,121.1c-1.6,4.7,0.7,11.6,4.5,14.1c-1-5.1-1.7-8.2,0.9-12.9c-1.6-0.6-3.5-0.3-5-1.2"/>
	</g>
	<g>
		<path class="st10" d="M85.7,122.9c0,3.4,1.4,6.8,4.6,7.6c-0.2-2.4-0.5-4.7,0.8-6.9c-1.5-0.7-3.5-0.7-5.3-0.9"/>
	</g>
	<g>
		<path class="st11" d="M77.3,122.2c-1.2-2.5,3.2-1.5,4.3-1.3c0.6,0.2,2.1,0.4,2.5,0.9c0.6,0.9,0.4,2-0.9,2.1
			c1.7-2.8-6.2-3.4-5.3-1.5"/>
	</g>
	<g>
		<path class="st11" d="M85.4,123.8c-2.3-2.3,2.3-2.2,3.7-2c0.7,0.1,1.6,0.1,2.2,0.5c0.9,0.8,1.4,2.8-0.3,2.6
			c1.4-3.3-5.3-3.1-5.3-0.9"/>
	</g>
	<g>
		<path class="st10" d="M134.9,117.9c-0.3,2.2,1.6,4,0.4,6.1c-0.7,1-5.1,3.2-6.2,2.9c-2-0.4-3.5-6-1.9-5.9
			C128.1,121.1,133,120,134.9,117.9"/>
	</g>
	<g>
		<path class="st10" d="M124.8,121.6c1.2,4.8-1.7,11.6-5.8,14c1.4-5,2.4-8.1,0.3-13c1.6-0.6,3.5-0.2,5.1-1"/>
	</g>
	<g>
		<path class="st10" d="M117,123.1c-0.3,3.4-1.9,6.7-5.3,7.4c0.4-2.3,0.9-4.7-0.2-6.9c1.6-0.7,3.6-0.6,5.3-0.8"/>
	</g>
	<g>
		<path class="st11" d="M135,117.8c0.2-2.2-11.5,2.9-9,4.8c1.7-3,7-1.9,9-4.9"/>
	</g>
	<g>
		<path class="st11" d="M125.5,122.6c1.4-2.4-3.1-1.6-4.2-1.4c-0.6,0.2-2.1,0.3-2.6,0.8c-0.7,0.9-0.5,2,0.7,2.1
			c-1.5-2.9,6.5-3.2,5.4-1.3"/>
	</g>
	<g>
		<path class="st11" d="M117.2,124c2.5-2.3-2.1-2.3-3.5-2.1c-0.7,0.1-1.6,0-2.2,0.5c-1,0.8-1.6,2.7,0.1,2.6c-1.1-3.3,5.6-3,5.3-0.8"
			/>
	</g>
	<g>
		<path class="st9" d="M72.8,151.1c1.4,2.7,5.6,5.3,8.2,6c18.4,4.9,37,1.3,39.5,0.6c2.3-0.6,5.5-1,7.6-2.5c-1.5,0.4-2.9,2-4.2,2.8
			c-1.5,1.1-3.1,1.7-4.9,2.1c-3.2,0.9-6.3,1.6-9.6,1.9c-4.8,0.4-9.4-0.1-14.2,0c-4.3-0.1-8.6-0.3-12.7-1.8c-2-0.8-3.1-1.6-4.8-2.9
			c-1.3-1.1-4.6-3.4-4.6-5.5"/>
	</g>
	<g>
		<path class="st10" d="M124.9,156.4c-1.5-1.8-0.8-4.9-3-5.9c-1.2-0.5-6.5,0.9-7.4,2c-1.6,1.9,0.1,8.1,1.6,6.8
			C116.9,158.5,122,155.8,124.9,156.4"/>
	</g>
	<g>
		<path class="st10" d="M112.7,159.8c1.1-4.9-2.1-11.4-6.1-13.3c1.5,4.9,2.6,7.8,0.7,12.9c1.6,0.4,3.5-0.2,5.1,0.4"/>
	</g>
	<g>
		<path class="st11" d="M125.1,156.3c1.4,1.9-12.2,5.9-11,2.4c3.3,1.5,7.5-3.5,11-2.3"/>
	</g>
	<g>
		<path class="st11" d="M113.5,159.2c1.5,2.3-3,2-4.1,1.9c-0.6-0.1-2.1-0.1-2.6-0.5c-0.7-0.8-0.6-1.9,0.7-2.2
			c-1.4,3,6.6,2.5,5.5,0.7"/>
	</g>
	<g>
		<path class="st10" d="M78.1,155.6c1.7-1.7,1.4-4.8,3.8-5.6c1.3-0.3,6.4,1.4,7.1,2.6c1.3,2-1.2,8-2.5,6.6
			C85.8,158.4,81.1,155.3,78.1,155.6"/>
	</g>
	<g>
		<path class="st11" d="M77.9,155.5c-1.6,1.8,11.3,6.9,10.6,3.3c-3.5,1.2-7-4.2-10.7-3.2"/>
	</g>
	<g>
		<path class="st10" d="M90.3,159.6c-0.4-5,3.6-11.1,7.9-12.7c-2.2,4.7-3.7,7.6-2.4,12.8c-1.7,0.2-3.4-0.5-5.1,0"/>
	</g>
	<g>
		<path class="st11" d="M89.6,158.9c-1.8,2.1,2.7,2.2,3.8,2.2c0.6-0.1,2.1,0.1,2.7-0.3c0.8-0.7,0.8-1.8-0.4-2.2
			c1,3.1-6.8,1.9-5.5,0.2"/>
	</g>
	<g class="st12">
		<path class="st10" d="M109.1,130.3"/>
	</g>
</g>
</svg>
