<?xml version="1.0" encoding="utf-8"?>
<!-- Generator: Adobe Illustrator 21.0.0, SVG Export Plug-In . SVG Version: 6.00 Build 0)  -->
<svg version="1.1" id="Layer_1" xmlns="http://www.w3.org/2000/svg" xmlns:xlink="http://www.w3.org/1999/xlink" x="0px" y="0px"
	 viewBox="0 0 210 210" style="enable-background:new 0 0 210 210;" xml:space="preserve">
<style type="text/css">
	.st0{fill:#A6CE38;}
	.st1{fill:#FFFFFF;}
	.st2{fill:#976828;}
	.st3{fill:#006838;}
</style>
<g>
	<g>
		<path class="st0" d="M174.7,43.6c-4.6,4.9-9.8,14.4-15.7,17.4c-1.6-3.9,1.6-8.2,1-12.4c-3.3,1.6-5.6,5.6-7.9,8.5
			c-1-5.6,3-11.5,2.3-16.7c-4.9,2.6-8.8,8.2-12.1,12.8c-2-9.2,1.6-19.3,0.3-28.5c-4.6,7.9-7.9,18.3-13.1,25.2
			c-2-1.6-2.9-3.9-3.6-5.9c-2.3,4.9-3.9-1.6-4.2-4.3c-1.3,2.3-2,5.6-3.6,7.5c-2.9-2.6-1.6-7.5-2.3-11.1c-4.3,2.6-8.5,9.8-9.5,14.7
			c-4.9-9.5-8.5-21.3-9.5-31.8c0,10.8-5.9,21.3-6.2,32.1c-2.6-1.3-4.3-3.9-5.9-6.5c-1.6,2-2.6,7.9-4.6,8.2c-2.3,0.3-5.6-6.2-6.2-7.9
			c-2,2.6-2.3,6.2-3.6,9.2c-2.6-2-4.2-5.6-6.5-8.2c-2.6,2.6-3.6,7.5-3.6,11.5c-4.6-10.2-12.1-20.3-13.4-31.8c1,5.6,0.3,11.5,0.7,17
			c0.3,5.6,2.3,12.4,1,18.3c-2-2-3.9-4.3-5.6-6.6c-1.3,2.3-1,5.6-1,8.2c-3.3-4.9-5.9-11.1-8.8-16.7c4,11.7-1.3,24,1.7,41.6
			c0,1,0.1,2.1,0.2,3.1l-1.5-1c0.5,0.4,1,0.7,1.5,1c0.1,1.2,0.3,2.5,0.5,3.7c3.3,20,11.3,53.4,20.7,71.4c2,3.3,15.9,26.1,21.5,18
			c3.9-5.6-1.7-17-4.3-20.3c12.4-0.7,57.3,1.4,65.1,0c-3.3,3.9-8.4,17.2-1.2,21.2c6.5,3.9,16.5-18,18.1-22.2
			c8.3-21.6,17.6-53.3,16-75.2C170.5,72.7,169.6,57.4,174.7,43.6z"/>
	</g>
	<g>
		<path class="st1" d="M163.4,94c0,10.8-8.7,19.5-19.5,19.5c-10.8,0-19.5-8.7-19.5-19.5c0-10.8,8.7-19.5,19.5-19.5
			C154.7,74.4,163.4,83.2,163.4,94z"/>
		<g>
			<ellipse class="st2" cx="143.5" cy="93.3" rx="10.8" ry="10.8"/>
			<path d="M149.6,93.3c0,3.3-2.7,6-6,6c-3.3,0-6-2.7-6-6c0-3.3,2.7-6,6-6C146.9,87.3,149.6,90,149.6,93.3z"/>
		</g>
	</g>
	<g>
		<path class="st1" d="M86.8,94.6c0,10.8-8.7,19.5-19.5,19.5c-10.8,0-19.5-8.7-19.5-19.5c0-10.8,8.7-19.5,19.5-19.5
			C78,75.1,86.8,83.9,86.8,94.6z"/>
		<g>
			<path class="st2" d="M77.7,94c0,6-4.8,10.8-10.8,10.8c-6,0-10.8-4.8-10.8-10.8c0-6,4.8-10.8,10.8-10.8C72.9,83.1,77.7,88,77.7,94
				z"/>
			<path d="M72.9,94c0,3.3-2.7,6-6,6c-3.3,0-6-2.7-6-6c0-3.3,2.7-6,6-6C70.2,87.9,72.9,90.6,72.9,94z"/>
		</g>
	</g>
	<g>
		<path class="st1" d="M145.1,141.9c-2.6-2.1-7.8-11-11.5-15.2c-2.1,6.3-2.6,13.6-4.2,20.4c-2.6-3.1-4.2-6.8-6.3-9.9
			c-1,3.7-2.6,7.3-3.7,11c7.3-0.5,22,1,26.7-5.8"/>
	</g>
	<g>
		<path class="st1" d="M66.6,140.1c2.6-2.1,7.8-11,11.5-15.2c2.1,6.3,2.6,13.6,4.2,20.4c2.6-3.1,4.2-6.8,6.3-9.9
			c1,3.7,2.6,7.3,3.7,11c-7.3-0.5-22,1-26.7-5.7"/>
	</g>
	<g>
		<g>
			<path class="st3" d="M151.7,137c-2.1,6.4-12.4,8.1-18.1,9.1c-10,1.8-20.2,2-30.3,1.6c-10.1-0.4-20.3-1.4-30.1-3.7
				c-4.6-1.1-15-3-16.4-8.7c-0.2-0.8-1.5-0.4-1.3,0.4c1,4.1,6.2,6,9.6,7.3c7.3,2.7,15.3,3.9,23,4.8c16.9,1.9,35.4,2.7,52-1.9
				c4.8-1.3,11.2-3.5,12.9-8.7C153.4,136.5,152,136.2,151.7,137L151.7,137z"/>
		</g>
	</g>
</g>
</svg>
