<?xml version="1.0" encoding="utf-8"?>
<!-- Generator: Adobe Illustrator 21.0.0, SVG Export Plug-In . SVG Version: 6.00 Build 0)  -->
<svg version="1.1" id="Layer_1" xmlns="http://www.w3.org/2000/svg" xmlns:xlink="http://www.w3.org/1999/xlink" x="0px" y="0px"
	 viewBox="0 0 210 210" style="enable-background:new 0 0 210 210;" xml:space="preserve">
<style type="text/css">
	.st0{fill:#2E67B1;}
	.st1{fill:#558FCB;}
	.st2{fill:#243E8F;}
	.st3{fill:#98CB66;}
	.st4{fill:#9EC8EA;}
	.st5{fill:#FAF39A;}
	.st6{fill:#2F1010;}
	.st7{opacity:0.43;}
	.st8{fill:#993333;}
	.st9{fill:#FFFFFF;}
	.st10{opacity:0.51;}
</style>
<g>
	<g>
		<path class="st0" d="M54.3,105.8c-7-9-14.7-13.6-25.7-16c5-2.1,10.5-1.4,15.5-0.8c-3.2-7.8-17.9-17-25-22.1
			c8.2,2.9,15.9,7.5,24.1,10.5C43.4,71.2,43,64,44.8,58c2.1,3.4,3.2,7.8,4.7,11.7c2.9-5.5,3.6-12.7,8.6-16.4c0.5,1.7,2.1,3.4,2.7,5
			c1.3-7.2-5.2-17.3-10.6-21.8c7.7,4.6,16.4,10.3,21.8,17.1c1.3-7.2,2-15.5,6-22c2.1,5,4.2,10.6,6.9,15.1c2.9-8.2,9.7-12.5,17-16.8
			c-0.7,5-1.9,11-0.3,15.5c2.9-6,9.6-11.4,9.8-18.1c1,6.7,6.4,11.8,7.9,18.4c2.8-2.7,5.7-5.4,9.6-7c0,1.7,0.5,4.4,0.4,5.5
			c1.7-1.6,4.5-1.6,6.1-2.6c-0.6,1.1-0.1,3.3-0.1,5c6.2-4.3,12.9-9.1,21.2-9.5c-3.4,5.5-6.9,10.9-8.1,17.5
			c5.6-2.6,11.8-7.5,18.4-5.1c-2.8,3.3-5.7,7.6-6.9,12c5,0.7,9.9,1.3,13.8,4.2c-2.8,2.2-6.7,4.8-8.5,8.1c7.3-4.3,15.1-6.3,23.3-1.7
			c-7.3,3.7-14.5,5.8-20.7,11.7c3.9,0.1,7.7,0.7,10.5,3c-7.8,0.9-11.2,5.3-17.4,9.6c-6.8,5.4-8.4,3.7-17.2,3.5
			c-10-0.2-19.9,0.7-29.9,1c-11.1,0.3-22.2,2.3-33.3,2.6c-8.9,0.4-18.8-2.6-27.1,0.5"/>
	</g>
	<g>
		<path class="st1" d="M115.6,36.1c-1.3-2.5-2.5-5-2.9-7.8c-0.1,6.6-6.9,12-9.8,18.1c-1.6-4.5-0.3-10.5,0.3-15.5
			c-3.5,2.1-6.9,4.1-9.8,6.6c2,4.9,4.1,10.2,6.6,14.5C102.8,44.3,108.9,40.1,115.6,36.1z"/>
	</g>
	<g>
		<path class="st1" d="M87.2,59c1.2-6.6,1.9-14.2,5.1-20.4c-2.6,2.5-4.7,5.4-6.1,9.2c-2.7-4.5-4.8-10.1-6.9-15.1
			c-2.8,4.5-4,9.9-4.9,15.1C79.3,51.1,83.9,54.8,87.2,59z"/>
	</g>
	<g>
		<path class="st1" d="M59.4,94.4C57,88.6,48.3,82.1,41.1,77c-6.9-2.9-13.5-6.6-20.6-9.1c7.1,5.1,21.8,14.3,25,22.1
			c-5-0.7-10.5-1.3-15.5,0.8c11,2.4,18.7,7,25.7,16l-1.1-1.7c2.5-0.9,5.1-1.3,7.7-1.4c-5.2-4.3-11.1-6.9-18.5-8.6
			C48.9,93,54.4,93.7,59.4,94.4z"/>
	</g>
	<g>
		<path class="st1" d="M60,63.4c2.1,3.4,3.2,7.8,4.7,11.7c2.9-5.5,3.6-12.7,8.7-16.4c0.5,1.7,2.1,3.4,2.7,5c0.6-3.3-0.5-7.3-2.3-11
			c-0.1,0.6-0.2,1.3-0.3,1.9C68,47.9,59.3,42.1,51.6,37.5c5.4,4.5,11.9,14.6,10.6,21.8c-0.5-1.7-2.1-3.4-2.7-5
			c-5.1,3.8-5.8,11-8.6,16.4c-1.6-3.9-2.6-8.4-4.7-11.7c-1.6,5.5-1.4,11.9-1.5,17.6c4.5,2.1,9.1,4.4,13.8,6
			C58.6,76.6,58.2,69.4,60,63.4z"/>
	</g>
	<g>
		<path class="st2" d="M188.1,72.8c-8.2-4.6-16-2.5-23.3,1.7c0.5-0.9,1.1-1.7,1.8-2.5c-4.6,2.1-9,4.3-13.1,8.2
			c3.9,0.1,7.7,0.7,10.5,3c-7.8,0.9-11.2,5.3-17.4,9.6c-6.8,5.4-8.4,3.7-17.2,3.5c-10-0.2-19.9,0.7-29.9,1
			c-11.1,0.3-22.2,2.3-33.3,2.6c-6.2,0.3-13-1.1-19.4-0.9c2.5,2.1,4.9,4.5,7.1,7.5l-1.1-1.7c8.4-3.1,18.3-0.2,27.1-0.5
			c11.1-0.3,22.2-2.3,33.3-2.6c10-0.3,20-1.2,29.9-1c8.8,0.2,10.5,1.9,17.2-3.5c6.2-4.3,9.6-8.7,17.4-9.6c-2.7-2.3-6.6-2.9-10.5-3
			C173.6,78.6,180.8,76.5,188.1,72.8z"/>
	</g>
	<g>
		<path class="st2" d="M159.5,62c-2.8,2.2-6.7,4.8-8.5,8.1c6.6-3.9,13.7-5.9,21-2.8c0.4-0.3,0.8-0.6,1.2-0.9
			c-3.8-2.8-8.8-3.5-13.8-4.2c1.2-4.4,4.1-8.8,6.9-12c-6.6-2.4-12.8,2.5-18.4,5.2c0.4-2,1-4,1.7-5.8c-1.7,2.6-3.3,5.4-4,8.3
			C150.7,58.5,155.7,59.2,159.5,62z"/>
	</g>
	<g>
		<path class="st2" d="M151.6,45.5c1.4-2.7,3-5.2,4.6-7.7c-8.2,0.4-14.8,5.1-20.9,9.3c-0.4,1.3-0.8,2.6-1,3.9
			C139.6,48.5,145.4,44,151.6,45.5z"/>
	</g>
	<path class="st3" d="M108.6,54.1c-0.2-0.2-0.5-0.3-0.7-0.5c0,0.2,0.1,0.3,0.1,0.5C108.1,54.1,108.4,54.1,108.6,54.1z"/>
	<path class="st4" d="M161,124.9c-0.7,32-25.7,57.5-55.8,56.9c-30.2-0.6-54.1-27.1-53.4-59.2c0.7-32.1-1.8-57.4,55.8-56.9
		C162.3,66.2,161.7,92.8,161,124.9z"/>
	<g>
		
			<ellipse transform="matrix(0.3374 -0.9414 0.9414 0.3374 -19.1761 161.1227)" class="st1" cx="104.9" cy="94.2" rx="30.6" ry="30.6"/>
		<path class="st5" d="M130,103.2c-5.1,14.2-20.7,21.5-34.8,16.5C81,114.6,73.6,99,78.7,84.8c5.1-14.2,20.7-21.5,34.8-16.5
			C127.7,73.4,135,89,130,103.2z"/>
		<path class="st6" d="M117.3,107c-3.2,8.8-12.9,13.4-21.7,10.3c-8.8-3.2-13.4-12.9-10.3-21.7c3.2-8.8,12.9-13.4,21.7-10.3
			C115.8,88.5,120.4,98.2,117.3,107z"/>
		<path class="st7" d="M96.9,113.4c-8.2-2.9-12.7-11.5-10.9-19.7c-0.3,0.6-0.6,1.3-0.8,1.9c-3.2,8.8,1.4,18.6,10.3,21.7
			c8.8,3.2,18.6-1.4,21.7-10.3c0.2-0.7,0.4-1.3,0.6-2C114,112.6,105.1,116.3,96.9,113.4z"/>
		<ellipse transform="matrix(0.3374 -0.9414 0.9414 0.3374 -33.1432 163.779)" cx="99.8" cy="105.4" rx="11.3" ry="11.3"/>
	</g>
	<path class="st2" d="M140.4,136c-0.1,4.6-15.7,19-34.4,18.6c-18.7-0.4-33.4-15.5-33.3-20c0.1-4.6,15.3-7.9,34-7.5
		C125.4,127.5,140.5,131.5,140.4,136z"/>
	<g>
		<path class="st8" d="M121.9,151.5c-0.1-4.1-4.9-8.1-8.5-8.8c-3-0.6-9.2-0.5-10.4,2.8c-2.2-7.3-14.4,0-16.9,3.4
			c5.5,3.2,12.3,5.7,19.7,5.8C111.6,154.8,117.1,153.5,121.9,151.5z"/>
	</g>
	<g>
		<path class="st9" d="M86.4,128.3c0.6,3.8,6.1,17.8,8.5,7.2c0.4-0.8,1.3-7,0.7-7.8c-0.7-0.8-7.7,0.2-9.2,0.5"/>
	</g>
	<g>
		<path class="st9" d="M110.8,127.3c0.6,2.8,3.6,16.9,8.2,8.3c1-2,2.9-6.2,1.4-7.5c0,0-7.2-1.3-9.4-0.8"/>
	</g>
	<g>
		<path class="st9" d="M96.7,153.3c0.1-2.8-0.1-9.2,4.1-10.6c4-1.2,3.4,9.3,3.9,11.9C102.4,154.9,99.2,154.2,96.7,153.3"/>
	</g>
	<g>
		<path class="st9" d="M113.2,154.1c0.1-2.8-0.9-10.7-4.4-11.4c-3-0.7-3.6,9.4-4.1,12C107,155,110.7,154.9,113.2,154.1"/>
	</g>
	<g class="st10">
		<path class="st2" d="M77.8,145.9c11.9,16.9,47.1,15.4,59-1c-10.1,22-46,20.2-58.3,1.7"/>
	</g>
</g>
</svg>
