<?xml version="1.0" encoding="utf-8"?>
<!-- Generator: Adobe Illustrator 21.0.0, SVG Export Plug-In . SVG Version: 6.00 Build 0)  -->
<svg version="1.1" id="Layer_1" xmlns="http://www.w3.org/2000/svg" xmlns:xlink="http://www.w3.org/1999/xlink" x="0px" y="0px"
	 viewBox="0 0 210 210" style="enable-background:new 0 0 210 210;" xml:space="preserve">
<style type="text/css">
	.st0{fill:#009345;}
	.st1{fill:#FFFFFF;}
	.st2{fill:#976828;}
	.st3{fill:#006838;}
</style>
<g>
	<g>
		<path class="st0" d="M68,43.6c1.5-8.8,16.8,5.3,3.8,8c-11,2.3-13.3-12.6-5.7-17.9c11.4-8.4,22.5,3.4,23.6,14.5
			c1.5,13.7-11.4,20.2-23.6,17.1C42.9,60,37.2,25.7,57,12c24.8-17.1,50.7,20.6,55.2,40.4c6.5,28.2-12.9,51.8-31.2,70.5
			c-17.9,18.3-30.1,36.2-30.1,62.1c0,7.2,0.8,14.5,5.3,20.6c6.5,8.8,12.6,3.4,13-5.7c0.8-13.3,6.9-8,11,1.1
			c5.3,12.2,13.3,6.5,15.2-3.8c1.5-8.8,6.8-18.3,12.2-5.3c1.9,5,6.1,22.1,14.5,12.6c3-3.4,1.1-22.9,10.7-20.6
			c7.6,1.9,1.9,19.4,9.9,23.2c18.3,8.8,26.3-38.5,26.3-48.8c0.4-19.8-3.4-41.1-7.6-60.6c-5-22.1-14.5-42.3-26.3-61.3
			c-6.5-10.7-24.4-36.2-56-36.2c-19.1,0-41.2,15.6-40,38.5C39.8,57,49.7,75.1,74.1,73c26.3-2.3,27-39.2,9.5-46.1
			c-9.8-3.8-19.8-2.7-24,7.6c-3,8-3,21.3,7.2,24c7.2,1.9,16.4-4.2,15.2-11.8c-0.8-7.2-12.9-11.4-14.5-4.2"/>
	</g>
	<circle class="st1" cx="99" cy="131.9" r="17.5"/>
	<g>
		<ellipse class="st2" cx="98.7" cy="131.3" rx="9.7" ry="9.7"/>
		<path d="M104.1,131.3c0,3-2.4,5.4-5.4,5.4c-3,0-5.4-2.4-5.4-5.4c0-3,2.4-5.4,5.4-5.4C101.7,125.9,104.1,128.3,104.1,131.3z"/>
	</g>
	<circle class="st1" cx="142.2" cy="130" r="21.5"/>
	<g>
		<path class="st2" d="M153.7,129.3c0,6.6-5.3,11.9-11.9,11.9c-6.6,0-11.9-5.3-11.9-11.9c0-6.6,5.3-11.9,11.9-11.9
			C148.4,117.4,153.7,122.7,153.7,129.3z"/>
		<path d="M148.5,129.3c0,3.7-3,6.6-6.6,6.6c-3.7,0-6.6-3-6.6-6.6c0-3.7,3-6.6,6.6-6.6C145.5,122.6,148.5,125.6,148.5,129.3z"/>
	</g>
	<g>
		<path class="st3" d="M119.1,169.7c-6.4,3.1-15.7-1.4-17.6-8.2C98.1,174,113.4,179.5,119.1,169.7"/>
	</g>
</g>
</svg>
