<?xml version="1.0" encoding="utf-8"?>
<!-- Generator: Adobe Illustrator 21.0.0, SVG Export Plug-In . SVG Version: 6.00 Build 0)  -->
<svg version="1.1" id="Layer_1" xmlns="http://www.w3.org/2000/svg" xmlns:xlink="http://www.w3.org/1999/xlink" x="0px" y="0px"
	 viewBox="0 0 210 210" style="enable-background:new 0 0 210 210;" xml:space="preserve">
<style type="text/css">
	.st0{fill:#754C28;}
	.st1{opacity:0.5;}
	.st2{fill:#C3996B;}
	.st3{fill:#603813;}
	.st4{fill:#FAF39A;}
	.st5{fill:#2F1010;}
	.st6{opacity:0.43;}
	.st7{fill:#2F111F;}
	.st8{fill:#CA2026;}
	.st9{fill:#FFFFFF;}
</style>
<g>
	<g>
		<path class="st0" d="M165.8,66.8c19.3-15.6,41.3,3.6,37.7,27.1c-1.5,8.8-7.8,17.6-17.4,18c-12.8,1-18-14.6-20.9-25.4
			c-2.4-6.7-2.7-13.9-0.7-21.1"/>
	</g>
	<g class="st1">
		<path class="st2" d="M179.6,104c16.6,7.2,20-24.2,6.1-30.6c-22.8-9.9-14.7,21.2-6.5,30.5"/>
	</g>
	<g>
		<g>
			<path class="st0" d="M58.3,51.2c-15.7-18.7-40.5-4.3-41.3,19c-0.2,8.8,4.2,18.5,13.3,20.6c12.2,3.3,20.1-10.7,24.9-20.5
				c3.6-6,5.2-12.9,4.6-20.2"/>
		</g>
		<g class="st1">
			<path class="st2" d="M38,84.4c-17.3,3.8-14.7-27.1-0.1-30.6c23.8-5.2,10.2,23.2,0.5,30.6"/>
		</g>
		<path class="st3" d="M179.5,170.9c-10.4,56.3-173.6,23.5-163.7-30.1C30.6,60.1,110.3,7.2,124.5,9.8
			C144.4,13.5,194.4,90.2,179.5,170.9z"/>
		<g>
			<path class="st0" d="M107.4,64C102.2,78.5,86.3,86,71.9,80.8c-14.4-5.2-21.9-21-16.8-35.5c5.2-14.4,21-21.9,35.5-16.8
				C105,33.7,112.5,49.6,107.4,64z"/>
			<path class="st4" d="M104,62.8c-4.6,12.8-18.7,19.5-31.6,14.9C59.6,73.2,52.9,59,57.5,46.2c4.6-12.8,18.8-19.5,31.6-14.9
				C101.9,35.8,108.6,50,104,62.8z"/>
			<path class="st5" d="M92.5,66.3c-2.9,8-11.7,12.2-19.7,9.3c-8-2.9-12.2-11.7-9.3-19.7c2.9-8,11.7-12.2,19.7-9.3
				C91.2,49.5,95.4,58.3,92.5,66.3z"/>
			<path class="st6" d="M74,72.1c-7.4-2.7-11.5-10.4-9.8-17.9c-0.3,0.6-0.5,1.1-0.8,1.7c-2.9,8,1.3,16.9,9.3,19.7
				c8,2.9,16.8-1.3,19.7-9.3c0.2-0.6,0.4-1.2,0.5-1.8C89.6,71.4,81.5,74.7,74,72.1z"/>
			<path d="M86.2,68.3c-1.9,5.3-7.8,8.1-13.1,6.2c-5.3-1.9-8.1-7.7-6.2-13.1c1.9-5.3,7.8-8.1,13.1-6.2C85.4,57.2,88.1,63,86.2,68.3z
				"/>
		</g>
		<g>
			
				<ellipse transform="matrix(0.3374 -0.9414 0.9414 0.3374 29.5738 159.8787)" class="st0" cx="128.4" cy="58.9" rx="27.7" ry="27.7"/>
			<path class="st4" d="M151.1,67.1c-4.6,12.8-18.7,19.5-31.6,14.9c-12.8-4.6-19.5-18.8-14.9-31.6c4.6-12.8,18.8-19.5,31.6-14.9
				C149.1,40.1,155.7,54.2,151.1,67.1z"/>
			<path class="st5" d="M139.6,70.6c-2.9,8-11.7,12.2-19.7,9.3c-8-2.9-12.2-11.7-9.3-19.7c2.9-8,11.7-12.2,19.7-9.3
				C138.3,53.7,142.5,62.6,139.6,70.6z"/>
			<path class="st6" d="M121.2,76.3c-7.4-2.7-11.5-10.4-9.8-17.9c-0.3,0.6-0.5,1.1-0.8,1.7c-2.9,8,1.3,16.9,9.3,19.7
				c8,2.9,16.8-1.3,19.7-9.3c0.2-0.6,0.4-1.2,0.5-1.8C136.7,75.6,128.6,79,121.2,76.3z"/>
			<path d="M133.4,72.6c-1.9,5.3-7.8,8.1-13.1,6.2c-5.3-1.9-8.1-7.7-6.2-13.1c1.9-5.3,7.8-8.1,13.1-6.2
				C132.5,61.4,135.3,67.3,133.4,72.6z"/>
		</g>
		<g>
			<path class="st2" d="M59.4,84.2c-3.7,8.7-0.1,21.9,3.3,29.8c5.2,11.2,17.5,19.1,28.1,22.7c21.2,7.2,49.5-2.9,57.2-24.5
				c2.9-8.8,7.6-19-4.3-21.7c-11.6-2.6-16.2,6.8-33.6,7.5c-8.4,0.3-18-0.9-25-5.5c-5.2-3.5-18.2-19.1-25.2-9c-0.4,0.3-0.5,0.7-0.9,1
				"/>
		</g>
		<g>
			<path class="st7" d="M86.1,117.6c-4.3-5.3-5.1-14.5-3.3-20.8c1.4-4.8,3.5-4.4,7.5-2.2c3.1,1.7,6.1,4,9.4,5.7
				c-1.2,1.6-1.2,3.6-0.6,5.3c-3.5,0.4-2.9,4.7-0.4,6.1c3.1,1.7,6.2-0.4,6.2-3.8c-0.1-0.8-1-1-1.2-1.4c-0.1-0.8,0.4-1.3,0.3-2.1
				c-0.2-2.2-0.2-2.6,1.5-3.3c2.1-0.9,5.8-0.3,8.3-1.1c2.5-0.6,5.1-2.2,7.4-0.4c1.9,1.7,2.2,5.9,2.3,8.3c0.1,4.4-1.6,8.7-4.5,12.2
				c-4.6,5.4-12.4,6.6-19.3,5.9c-2-0.1-4.1-0.6-6.2-1.4c-3.5-1.6-4.8-4.8-7.8-7"/>
		</g>
		<g>
			<path class="st8" d="M98.6,121c-3.8-3.6-8.5-5.1-13.7-4.2c-5,1.2-8.5,6-11,10.2l-0.4,0.1c5.5,4.5,12,7.9,17.9,9.9
				c11.2,3.8,24.3,2.8,35.4-2.2c0.7-1.4,0-2.4-1.1-4.5C120.4,120.7,109.7,113.8,98.6,121z"/>
		</g>
		<g>
			<g>
				<path class="st9" d="M100.1,97.3c2.2,3.4,3.6,7.1,6.2,10c0.9-2.9,1.8-6.6,4.2-8.9c1.2,1.1,2.6,2.8,4.1,3.6
					c1.7-1.6,3.6-3.7,5.3-5.3c3.3,2.6,7.8,6,11.5,7.7c0.9-3.7,0.8-8.1,0.5-12.1c2.3,0.9,3.9,2.8,5.8,4.1c0.7-2.1,1.3-4.4,1-6.4
					c-0.2,0-0.3,0-0.5,0c-7.5,1.2-13.3,7.2-27.1,7.8C107.5,98,103.7,97.8,100.1,97.3z"/>
			</g>
			<g>
				<path class="st9" d="M86,92.3c-2.9-2-8.2-7.6-13.5-10.6c-1.5-0.1-3.1-0.3-4.5-0.9l-0.2-0.6c0.8,3.8-0.6,8.5,0.8,12.1
					c3-1.8,5.1-4.9,7.9-6.9c1,2.5,0.9,5.6,2.1,8.2c1.3-1,2.5-2,4-2.4c1.8,3.4,1.3,8.6,2,12.4c2.8-1.8,4.9-5.7,7.5-8
					c0.8,0.9,2,4.8,3.2,5.3c1.8,0.6,3.5-2.5,4.6-3.6C94.9,96.5,90,95,86,92.3z"/>
			</g>
		</g>
		<g>
			<g>
				<path class="st9" d="M64.9,109.4c-1.2,0.5-2.3,1.5-3.4,2.4c0.3,0.9,0.7,1.7,1,2.5c2.2,4.8,5.7,8.9,9.8,12.4
					c0.6-3.5,2.1-7,2.3-10.6c-1.9,0.2-3.8,1-5.5,2c0.3-3.8,1.2-7.5,1.9-11C69.1,107.8,66.8,108.4,64.9,109.4z"/>
			</g>
			<g>
				<path class="st9" d="M105,139.3c14.2,0,28.9-6.1,37.4-17.1c-2.8-1.5-5.6-2.9-8.5-3.8c-0.1,3.5,0.3,7.5-0.4,10.8
					c-4.1-2.8-8-4.8-10.9-9c-0.3,3.7,1.3,8,0.2,11.5c-1.6-1.3-5.1-4.7-7.2-4.1c-2.3,0.6-1.7,3.3-2.2,5.6c-2.1-1.1-3.9-2.8-6-3.9
					C106.3,132.6,105.8,136,105,139.3z"/>
			</g>
			<g>
				<path class="st9" d="M104.8,139.3c-3-4-5.8-8.5-9.4-11.9c-1.5,1.8-2.4,4.3-4.3,6c-0.4-2.1-1.2-4.6-2.4-6.3
					c-1.7,1-3.2,2.4-4.9,3.4c0.1-3.1,0-7.5-0.6-10.7c-2.9,3.4-6.1,5.5-9.4,8.2c5.2,4.1,11.2,7.1,16.8,9
					C95.1,138.5,99.9,139.3,104.8,139.3z"/>
			</g>
		</g>
	</g>
</g>
</svg>
