<?xml version="1.0" encoding="utf-8"?>
<!-- Generator: Adobe Illustrator 21.0.0, SVG Export Plug-In . SVG Version: 6.00 Build 0)  -->
<svg version="1.1" id="Layer_1" xmlns="http://www.w3.org/2000/svg" xmlns:xlink="http://www.w3.org/1999/xlink" x="0px" y="0px"
	 viewBox="0 0 210 210" style="enable-background:new 0 0 210 210;" xml:space="preserve">
<style type="text/css">
	.st0{fill:#8BC53F;}
	.st1{opacity:0.47;fill:#006838;}
	.st2{fill:#650A34;}
	.st3{fill:#2F111F;}
	.st4{fill:#FAF39A;}
	.st5{fill:#2F1010;}
	.st6{opacity:0.43;}
	.st7{fill:#FFFFFF;}
	.st8{fill:#EC1C24;}
	.st9{fill:#BE1E2D;}
</style>
<g>
	<g>
		<path class="st0" d="M128.9,61.2c7.8-2.2,7.9-7.2,10.2-11.9c2.8,1.2,6,2.9,9.3,3.7c-4.6,6.9-9.2,15.4-5.5,23.6
			c-2.1-5.9-5.9-11.4-11.9-15.8"/>
	</g>
	<g>
		<path class="st0" d="M82.4,74.7c5.4-9.8,1.1-18.3-3.7-27.5c1.3-0.9,4.4-3.3,5.6-3.6c2.4,9.9,7,16.7,15.8,21.4
			c-6.8,0.7-11.8,3.8-16,9.4"/>
	</g>
	<g>
		<path class="st0" d="M81.7,69.2c127.6-46.9,102.5,111.6,52.5,128.1c-10.2,3.4-19.7,6.4-30.4,4.9c-9.9-1.4-18.6-2.6-29-5.8
			c-9.4-2.9-6.9-6-16.5-6.9c-10.8-1-17.2,0.8-27.8,4.1c-14.9,4.6,10.9-24.5,28.9-19.2c3.8,1.1,6-8.5,17.1-7.1
			C68.6,165.2,33.1,87.1,81.7,69.2z"/>
	</g>
	
		<ellipse transform="matrix(2.094959e-02 -0.9998 0.9998 2.094959e-02 12.7785 298.6959)" class="st1" cx="158.9" cy="142.8" rx="8.7" ry="8.7"/>
	
		<ellipse transform="matrix(2.081914e-02 -0.9998 0.9998 2.081914e-02 -20.4933 310.8515)" class="st1" cx="148.4" cy="165.9" rx="5.2" ry="5.2"/>
	<path class="st1" d="M124.3,182.8c-0.1,4.7,3.6,8.6,8.3,8.7c4.7,0.1,8.6-3.6,8.7-8.3c0.1-4.7-3.6-8.6-8.3-8.7
		C128.3,174.3,124.4,178.1,124.3,182.8z"/>
	<path class="st1" d="M129,153.8c0,2.1,1.6,3.8,3.7,3.9c2.1,0,3.8-1.6,3.9-3.7c0-2.1-1.6-3.8-3.7-3.9
		C130.8,150.1,129.1,151.7,129,153.8z"/>
	<path class="st1" d="M104.6,190.9c0,2.3,1.8,4.3,4.2,4.4c2.4,0,4.3-1.8,4.3-4.2c0-2.4-1.8-4.3-4.2-4.4
		C106.6,186.7,104.6,188.5,104.6,190.9z"/>
	<path class="st1" d="M79,185.5c-0.1,4.4,3.4,8,7.8,8.1c4.4,0.1,8-3.4,8.1-7.8c0.1-4.4-3.4-8-7.8-8.1
		C82.7,177.6,79.1,181.1,79,185.5z"/>
	<g>
		<path class="st2" d="M72.8,85.2c-2,6,2.7,14.3,6.6,19.1c5.8,6.8,17.3,10.7,26.8,12.1c18.9,2.6,41.5-6.7,45.2-21.5
			c1.3-6,4-13.1-6.5-13.7c-10.1-0.6-12.8,6-27.5,8.2c-7.1,1-15.4,1.1-21.9-1.2c-4.9-1.8-17.9-10.7-22.5-3.4
			c-0.3,0.2-0.3,0.5-0.7,0.7"/>
	</g>
	<g>
		<path class="st3" d="M99.7,104.4c-4.4-3-6.2-9-5.5-13.3c0.5-3.2,2.4-3.2,6.1-2.2c2.9,0.8,5.7,2,8.7,2.8c-0.8,1.2-0.5,2.5,0.1,3.5
			c-2.9,0.6-1.9,3.4,0.5,4c2.9,0.8,5.2-0.9,4.7-3.1c-0.2-0.5-1-0.5-1.2-0.8c-0.2-0.5,0.2-0.9,0-1.4c-0.5-1.4-0.5-1.7,0.9-2.3
			c1.7-0.8,4.9-0.7,6.9-1.5c2-0.6,4.1-1.9,6.2-1c1.8,0.9,2.7,3.6,3,5.2c0.6,2.9-0.2,5.8-2.3,8.4c-3.2,4-9.6,5.5-15.5,5.7
			c-1.7,0.1-3.5,0-5.4-0.3c-3.2-0.7-4.7-2.6-7.6-3.8"/>
	</g>
	<g>
		<path class="st0" d="M103.2,48.5c-6,11.7-20.3,16.3-32,10.4c-11.7-6-16.3-20.3-10.4-32c6-11.7,20.3-16.3,32-10.4
			C104.5,22.5,109.1,36.9,103.2,48.5z"/>
		<path class="st4" d="M100.5,47.2C95.1,57.6,82.4,61.7,72,56.4c-10.4-5.3-14.5-18.1-9.2-28.5c5.3-10.4,18.1-14.5,28.5-9.2
			C101.6,24,105.8,36.8,100.5,47.2z"/>
		<path class="st5" d="M90.3,48.9C87,55.4,79,58,72.5,54.6c-6.5-3.3-9.1-11.3-5.8-17.8c3.3-6.5,11.3-9.1,17.8-5.8
			C91,34.4,93.6,42.4,90.3,48.9z"/>
		<path class="st6" d="M74,51.7c-6-3.1-8.7-10.1-6.4-16.3c-0.3,0.4-0.6,0.9-0.8,1.4c-3.3,6.5-0.7,14.5,5.8,17.8
			C79,58,87,55.4,90.3,48.9c0.2-0.5,0.5-1,0.6-1.5C87.2,52.8,80,54.8,74,51.7z"/>
		<path d="M84.7,49.9c-2.2,4.3-7.5,6-11.8,3.8c-4.3-2.2-6-7.5-3.8-11.8c2.2-4.3,7.5-6,11.8-3.8C85.2,40.3,86.9,45.6,84.7,49.9z"/>
	</g>
	<g>
		<path class="st0" d="M171.2,44c-4.4,12.4-18,18.8-30.4,14.4C128.4,54,122,40.4,126.4,28c4.4-12.3,18-18.8,30.4-14.3
			C169.2,18.1,175.6,31.7,171.2,44z"/>
		<path class="st4" d="M168.3,43c-3.9,11-16.1,16.7-27.1,12.8c-11-3.9-16.7-16.1-12.8-27.1c3.9-11,16.1-16.7,27.1-12.8
			C166.5,19.9,172.3,32,168.3,43z"/>
		<path class="st5" d="M158.4,46c-2.5,6.9-10,10.4-16.9,8c-6.9-2.5-10.4-10-8-16.9c2.5-6.9,10-10.4,16.9-8
			C157.3,31.6,160.9,39.1,158.4,46z"/>
		<path class="st6" d="M142.6,50.9c-6.4-2.3-9.9-8.9-8.4-15.3c-0.2,0.5-0.5,1-0.6,1.5c-2.5,6.9,1.1,14.4,8,16.9
			c6.9,2.5,14.4-1.1,16.9-8c0.2-0.5,0.3-1,0.5-1.6C155.9,50.3,149,53.2,142.6,50.9z"/>
		<path d="M153.1,47.7c-1.6,4.5-6.6,6.9-11.2,5.3c-4.5-1.6-6.9-6.6-5.3-11.2c1.6-4.5,6.6-6.9,11.2-5.3
			C152.4,38.2,154.7,43.2,153.1,47.7z"/>
	</g>
	<g>
		<path class="st7" d="M86.9,84.7c2.1,2.7,4.2,20.3,9.2,15.5c2-1.9,0.7-9.5,5.5-7.4c1.2,0.5,1.1,2.9,2.4,3.5c2.4,1,2.9-1.2,4.4-2.1
			c1.7-1.7,0.8-2.7,3.7-1.9c1.7,0.5,2.1,3.7,4.3,3.2c4.1-0.9,1.4-6.8,6.6-4c2.4,1.5,4.5,6.9,7.4,7.2c4.4,0.6,5-5.5,5-8.4
			c0.1-2.4,0.1-5.1-0.6-7.5c-3.7,0.7-7.1,4-11.5,4.9c-4.1,0.6-8.3,1.3-12.4,1.4c-7.5,0.3-17.5-0.4-23.9-4.9"/>
	</g>
	<g>
		<path class="st8" d="M91,112c1.8-4.1,6.4-6.2,10.6-6.8c3.7-0.6,7.7,2.1,10.9,1.7c1.7-0.2,3.2-2.6,5.2-3c2.2-0.4,4.9,0.1,7.3,0.6
			c4.1,0.8,8.2,4.1,11.3,7.3c-8.5,5.2-20.3,5.3-27.6,4.9c-5.1-0.3-16.7-2.3-17.4-4.4"/>
	</g>
	<g>
		<path class="st9" d="M98.1,106.5c5.4-3,10.4,4.3,12.5,8c1.3-4.6,5-8.4,9-10.7c-3.4-1.5-5.4,3-8.6,3.5c-2.9,0.2-6.3-2.1-9.7-1.4"/>
	</g>
</g>
</svg>
