<?xml version="1.0" encoding="utf-8"?>
<!-- Generator: Adobe Illustrator 21.0.0, SVG Export Plug-In . SVG Version: 6.00 Build 0)  -->
<svg version="1.1" id="Layer_1" xmlns="http://www.w3.org/2000/svg" xmlns:xlink="http://www.w3.org/1999/xlink" x="0px" y="0px"
	 viewBox="0 0 210 210" style="enable-background:new 0 0 210 210;" xml:space="preserve">
<style type="text/css">
	.st0{fill:#FFFFFF;}
	.st1{fill:#22205F;}
	.st2{fill:#333366;}
</style>
<g>
	<circle class="st0" cx="103.1" cy="99.5" r="45.2"/>
	<path class="st1" d="M104.1,48C75.7,48,52.6,71,52.6,99.5c0,28.5,23.1,51.5,51.5,51.5c28.5,0,51.5-23.1,51.5-51.5
		C155.7,71,132.6,48,104.1,48z M104.1,106.1c-22.4,0-40.5-6.5-40.5-14.4c0-8,18.1-14.4,40.5-14.4c22.3,0,40.5,6.5,40.5,14.4
		C144.6,99.6,126.5,106.1,104.1,106.1z"/>
	<ellipse cx="86.6" cy="92.9" rx="7.8" ry="7.8"/>
	<circle cx="121" cy="92.4" r="7.8"/>
	<rect x="101.7" y="15.5" class="st2" width="2.7" height="41.1"/>
	<circle class="st2" cx="103.1" cy="11.2" r="10.4"/>
	<path class="st1" d="M179.9,139.9l-28.8-19.6c2.8-6.3,4.3-13.3,4.3-20.6c0-2.6-0.2-5.1-0.6-7.6c-16.8,19-44.8,31.4-76.6,31.4
		c-5.8,0-11.4-0.4-16.8-1.2l-3-3.2l-31.9,21.7l0,0l-0.2,0.2l42.7,57.6l-0.4-1.1l0.7,0.9L46,141.8l22.1-5.1c4.2,4.1,9.1,7.5,14.5,9.9
		c-7.8,5.2-17.9,12.2-17.9,12.2l0,0c-0.1,0.1-0.2,0.2-0.2,0.2l33,51l-0.3-1l0.5,0.8l-15.2-50l11.7-9.5c3.1,0.6,6.3,0.9,9.6,0.9
		c3.1,0,6.2-0.3,9.2-0.8l10.7,8.6l-15.2,50l0.3-0.4l-0.1,0.3l33-51c0,0-8.9-6.2-16.5-11.3c5.6-2.6,10.7-6.1,15-10.3l20.1,4.7
		L137,197.7l0.3-0.4l-0.1,0.2L179.9,139.9z"/>
</g>
</svg>
