<?xml version="1.0" encoding="utf-8"?>
<!-- Generator: Adobe Illustrator 21.0.0, SVG Export Plug-In . SVG Version: 6.00 Build 0)  -->
<svg version="1.1" id="Layer_1" xmlns="http://www.w3.org/2000/svg" xmlns:xlink="http://www.w3.org/1999/xlink" x="0px" y="0px"
	 viewBox="0 0 210 210" style="enable-background:new 0 0 210 210;" xml:space="preserve">
<style type="text/css">
	.st0{fill:#2E67B1;}
	.st1{fill:#FFFFFF;}
	.st2{fill:#976828;}
	.st3{fill:#1C3664;}
</style>
<g>
	<g>
		<path class="st0" d="M183.8,98.3c-3.1-15.2-18.3-62.3-41.4-54.5c-12,3.7-8.4,16.8-5.8,25.7c3.2,10,3.3,14.6-2,16.7
			c-9.5-2.3-19.9-3.5-30.8-3.5c-13.3,0-25.8,1.9-36.8,5.2c-0.8-1.4-0.8-3.6-1.1-7.4c-0.5-10,7.3-30.3-3.7-35
			c-13.1-5.8-29.9,14-33,23.5c-4.9,13.8-7.4,39.4-5.1,55.2c-0.3,1.6-0.4,3.2-0.4,4.8c0,11.9,7.8,22.7,20.5,30.9
			c9.5,13.4,30.1,44.2,35.8,22.6c0.8-3-0.4-6.6-1.7-9.6c8,1.6,16.6,2.4,25.5,2.4c8.6,0,17-0.8,24.8-2.3c-1.3,2.9-2.5,6.5-1.6,9.4
			c5.6,21.2,25.6-8.1,35.3-21.8c13.5-8.3,21.7-19.4,21.7-31.7c0-0.5,0-1-0.1-1.5C185.9,118,185.4,107.5,183.8,98.3z"/>
	</g>
	<ellipse class="st0" cx="144.1" cy="39.5" rx="31" ry="30.6"/>
	<ellipse class="st0" cx="53.8" cy="42.1" rx="31" ry="30.6"/>
	<ellipse class="st1" cx="53.8" cy="39.5" rx="23.1" ry="23.1"/>
	<g>
		<circle class="st2" cx="53.4" cy="38.7" r="12.8"/>
		<ellipse cx="53.4" cy="38.7" rx="7.1" ry="7.1"/>
	</g>
	<ellipse class="st1" cx="144.1" cy="39.5" rx="23.1" ry="23.1"/>
	<g>
		<ellipse class="st2" cx="143.7" cy="38.7" rx="12.8" ry="12.8"/>
		<circle cx="143.7" cy="38.7" r="7.1"/>
	</g>
	<ellipse class="st3" cx="103.1" cy="114.5" rx="57.8" ry="10.2"/>
	<g>
		<path class="st1" d="M58.7,108.9c0.4,12.1,7.1,22.6,18,28c-0.8-9.4-3.5-23.4,3.2-31.3C72.7,106.2,64.7,105.2,58.7,108.9"/>
	</g>
	<g>
		<path class="st1" d="M144.2,108.9c-0.5,12.1-7.1,22.6-18,28c0.8-9.4,3.5-23.4-3.2-31.3C130.2,106.2,138.1,105.2,144.2,108.9"/>
	</g>
</g>
</svg>
