<?xml version="1.0" encoding="utf-8"?>
<!-- Generator: Adobe Illustrator 21.0.0, SVG Export Plug-In . SVG Version: 6.00 Build 0)  -->
<svg version="1.1" id="Layer_1" xmlns="http://www.w3.org/2000/svg" xmlns:xlink="http://www.w3.org/1999/xlink" x="0px" y="0px"
	 viewBox="0 0 210 210" style="enable-background:new 0 0 210 210;" xml:space="preserve">
<style type="text/css">
	.st0{fill:#EB008B;}
	.st1{fill:#FFFFFF;}
	.st2{fill:#8BC53F;}
</style>
<g>
	<path class="st0" d="M146.5,50c0-9.7-3.5-17.5-7.9-17.5H69.4c-4.4,0-7.9,7.8-7.9,17.5v28.1h85V50z"/>
	<path class="st0" d="M30.5,160.5c0,9.7,6.1,17.5,13.6,17.5h119.3c7.5,0,13.6-7.8,13.6-17.5V83.8H30.5V160.5z"/>
	<ellipse class="st0" cx="121.7" cy="55.8" rx="14.1" ry="14.1"/>
	<ellipse class="st1" cx="121.7" cy="55" rx="9.8" ry="9.8"/>
	<path d="M129.3,59.3c0,2-1.6,3.6-3.6,3.6c-2,0-3.6-1.6-3.6-3.6c0-2,1.6-3.6,3.6-3.6C127.7,55.7,129.3,57.3,129.3,59.3z"/>
	<ellipse class="st0" cx="85" cy="55" rx="14.1" ry="14.1"/>
	<ellipse class="st1" cx="85" cy="54.2" rx="9.8" ry="9.8"/>
	<path d="M92.7,58.5c0,2-1.6,3.6-3.6,3.6c-2,0-3.6-1.6-3.6-3.6c0-2,1.6-3.6,3.6-3.6C91,54.9,92.7,56.5,92.7,58.5z"/>
	<path class="st0" d="M23.5,135.8V92.3c0-7.5,6.1-13.6,13.6-13.6h19c0.1,0,0.3,0,0.4,0C55.7,72,50,66.8,43,66.8H24
		c-7.5,0-13.6,6.1-13.6,13.6V124c0,7.4,5.9,13.4,13.2,13.6C23.6,137,23.5,136.4,23.5,135.8z"/>
	<path class="st0" d="M183.7,135.8V91.1c0-7.5-6.1-13.6-13.6-13.6h-19c-0.1,0-0.3,0-0.4,0c0.9-6.7,6.6-11.9,13.5-11.9h19
		c7.5,0,13.6,6.1,13.6,13.6V124c0,7.4-5.9,13.4-13.2,13.6C183.6,137,183.7,136.4,183.7,135.8z"/>
	<path class="st1" d="M155.1,142.7c0,7.5-6.1,13.6-13.6,13.6H66c-7.5,0-13.6-6.1-13.6-13.6v-23.7c0-7.5,6.1-13.6,13.6-13.6h75.5
		c7.5,0,13.6,6.1,13.6,13.6V142.7z"/>
	<path class="st2" d="M86.7,129.5c0.5-1,0.7-1.6,0.6-2.7c0-3.6-3-6.5-6.7-6.5c-3.3,0-6,2.3-6.6,5.3c-0.1,0,0,0-0.1,0
		c-0.6-3-3.5-5.3-6.8-5.3c-3.7,0-6.7,2.9-6.7,6.5c0,0.3,0,0.5,0.1,0.8c0.1,0.9-0.4,4.2,13.3,13.7c0,0,8.7-5.7,12.2-10.6
		C86.3,130.3,86.5,129.9,86.7,129.5z"/>
	<path class="st2" d="M144.9,129.5c0.5-1,0.7-1.6,0.6-2.7c0-3.6-3-6.5-6.7-6.5c-3.3,0-6,2.3-6.6,5.3c-0.1,0,0,0-0.1,0
		c-0.6-3-3.5-5.3-6.8-5.3c-3.7,0-6.7,2.9-6.7,6.5c0,0.3,0,0.5,0.1,0.8c0.1,0.9-0.4,4.2,13.3,13.7c0,0,8.7-5.7,12.2-10.6
		C144.4,130.3,144.7,129.9,144.9,129.5z"/>
	<path class="st2" d="M115.8,129.5c0.5-1,0.7-1.6,0.6-2.7c0-3.6-3-6.5-6.7-6.5c-3.3,0-6,2.3-6.6,5.3c-0.1,0,0,0-0.1,0
		c-0.6-3-3.5-5.3-6.8-5.3c-3.7,0-6.7,2.9-6.7,6.5c0,0.3,0,0.5,0.1,0.8c0.1,0.9-0.4,4.2,13.3,13.7c0,0,8.7-5.7,12.2-10.6
		C115.3,130.3,115.6,129.9,115.8,129.5z"/>
</g>
</svg>
