<?xml version="1.0" encoding="utf-8"?>
<!-- Generator: Adobe Illustrator 21.0.0, SVG Export Plug-In . SVG Version: 6.00 Build 0)  -->
<svg version="1.1" id="Layer_1" xmlns="http://www.w3.org/2000/svg" xmlns:xlink="http://www.w3.org/1999/xlink" x="0px" y="0px"
	 viewBox="0 0 525 750" style="enable-background:new 0 0 525 750;" xml:space="preserve">
<style type="text/css">
	.st0{fill:#ED1C24;}
	.st1{fill:#C1272D;}
	.st2{fill:#4A2C0E;}
	.st3{fill:#95BB00;}
</style>
<g>
	<g>
		<g>
			<g>
				<path class="st0" d="M411.8,296.4c-63.9-61.3-119.9-21.5-135.3-11.5c-15.3-10-71.2-49.8-135.3,11.5
					c-111.9,107.4,53.1,287.7,89.7,284c9.6-0.9,17.3-3.5,23.4-6.9c6.6,5.9,14,9.2,22,9.2c8.1,0,15.6-3.4,22.2-9.3
					c6.1,3.4,13.9,6.1,23.7,7C358.8,584.1,523.8,403.8,411.8,296.4z"/>
			</g>
		</g>
		<path class="st1" d="M391.2,315.7c-7-6.6-13.9-12-20.5-15.9c57.1,82.3,2,198.3-43.7,253.7C371.2,530.6,477,397.9,391.2,315.7z"/>
		<g>
			<path class="st2" d="M277.1,284c-12,8.5,17.9-93.5,23.9-101.8c5.9-8.5,38.3-13.1,40.7-2.4C344.3,190.6,289.1,275.6,277.1,284z"/>
			<g>
				<g>
					<path class="st3" d="M277.1,268.3c0,0-52,5.3-68.1-36.1s-8.8-65-8.8-65s56.5,9.5,74,31.3C291.6,220.3,277.1,268.3,277.1,268.3z
						"/>
				</g>
			</g>
		</g>
	</g>
</g>
</svg>
