<?xml version="1.0" encoding="utf-8"?>
<!-- Generator: Adobe Illustrator 21.0.0, SVG Export Plug-In . SVG Version: 6.00 Build 0)  -->
<svg version="1.1" id="Layer_1" xmlns="http://www.w3.org/2000/svg" xmlns:xlink="http://www.w3.org/1999/xlink" x="0px" y="0px"
	 viewBox="0 0 283 335" style="enable-background:new 0 0 283 335;" xml:space="preserve">
<style type="text/css">
	.st0{fill:#ED1C24;}
	.st1{fill:#C1272D;}
	.st2{fill:#4A2C0E;}
	.st3{fill:#95BB00;}
</style>
<g>
	<g>
		<g>
			<g>
				<path class="st0" d="M244.4,108.5c-49.2-47.2-92.3-16.6-104.1-8.9c-11.8-7.7-54.8-38.3-104.1,8.9
					c-86.2,82.6,40.8,221.4,69,218.6c7.4-0.7,13.3-2.7,18-5.3c5.1,4.5,10.8,7.1,16.9,7.1c6.2,0,12-2.6,17.1-7.2
					c4.7,2.6,10.7,4.7,18.3,5.4C203.6,329.9,330.6,191.1,244.4,108.5z"/>
			</g>
		</g>
		<path class="st1" d="M228.6,123.3c-5.4-5.1-10.7-9.2-15.8-12.3c43.9,63.3,1.5,152.6-33.6,195.2
			C213.2,288.7,294.6,186.6,228.6,123.3z"/>
		<g>
			<path class="st2" d="M140.7,98.9c-9.2,6.5,13.8-71.9,18.4-78.3c4.6-6.5,29.5-10.1,31.3-1.8C192.4,27,149.9,92.5,140.7,98.9z"/>
			<g>
				<g>
					<path class="st3" d="M140.7,86.8c0,0-40,4.1-52.4-27.8C75.9,27.1,81.5,9,81.5,9s43.5,7.3,56.9,24.1S140.7,86.8,140.7,86.8z"/>
				</g>
			</g>
		</g>
	</g>
</g>
</svg>
