<?xml version="1.0" encoding="utf-8"?>
<!-- Generator: Adobe Illustrator 21.0.0, SVG Export Plug-In . SVG Version: 6.00 Build 0)  -->
<svg version="1.1" id="Layer_1" xmlns="http://www.w3.org/2000/svg" xmlns:xlink="http://www.w3.org/1999/xlink" x="0px" y="0px"
	 viewBox="0 0 525 750" style="enable-background:new 0 0 525 750;" xml:space="preserve">
<style type="text/css">
	.st0{fill:#CEB0E2;}
	.st1{fill:#E0C7F2;}
	.st2{fill:#BAA6C9;}
	.st3{fill:#BA79E0;}
	.st4{opacity:0.2;fill:#FFFFFF;enable-background:new    ;}
	.st5{fill:#FFFFFF;}
</style>
<g>
	<path class="st0" d="M382.1,401.4c-0.4-11.4-0.6-21.8-0.6-31c0,0,27.1,34.9,73.5,2.9s-1-62-1-62s34.9,10.6,25.1,56.1
		c-9.6,45.5-76.5,46.5-93.9,36.9L382.1,401.4z"/>
	<path class="st1" d="M455,373.3c5.9-4.1,10.2-8,13.5-12c-2.5,10.4-14.5,33.1-68.6,47.1c-6.1-0.8-11.2-2.4-14.5-4.1l-3.1-2.9
		c-0.4-11.4-0.6-21.8-0.6-31C381.5,370.2,408.5,405.3,455,373.3z"/>
	<path class="st2" d="M454,311.2c0,0,47.4,30,1,62c0,0,10.2-35.3-32.9-53.7c-43.1-18.4-57.1-28.6-50.4-65.9c0,0,1,19.4,20.8,29.6
		C412.4,293.3,454,311.2,454,311.2z"/>
	<path class="st3" d="M457.9,332.2c-17.1-12.7-58.2-33.7-70-51.8c1.4,1,2.9,2,4.5,2.7c19.8,10.2,61.6,28,61.6,28
		s37.4,23.7,13.1,51.6C467.1,349.4,464.8,337.5,457.9,332.2z"/>
	<path class="st3" d="M371.7,252.8c0,0,0.6,12.5,11.4,22.7c0,0-17.1-28.6,76.7-30l-18.6-15.9l11.6-11.6
		C452.6,217.9,390.1,211.2,371.7,252.8z"/>
	<path class="st1" d="M439.3,238.3l-6.3-9l8.2-10.8c6.9-0.2,11.4,0.4,11.4,0.4l-11.6,11.6l18.6,15.9c-48,0.8-66.9,8.6-73.9,16.1
		C378.7,244.3,439.3,238.3,439.3,238.3z"/>
	<path class="st3" d="M170.9,204.3l158.4-8.6c0,0-11.6,92.9,62.5,142.3c0,0,7.3,280.4,37.8,348.6c0,0-161.2,59.6-316.6,5.9
		c0,0,24.7-332.7,14.5-354.5C127.2,337.9,189.7,319,170.9,204.3z"/>
	<path class="st4" d="M355.8,303c-15.5-22.4-22.4-46.5-25.3-66.5l8,471.7c8.4-1.4,16.7-2.7,24.1-4.1L355.8,303z"/>
	<path class="st4" d="M289.9,713.5c8.2-0.6,16.5-1.4,24.1-2.2l-8.8-514.7l-24.1,1.4L289.9,713.5z"/>
	<path class="st4" d="M264.8,714.7L256,199.6l-24.1,1.4l8.8,513.7C248.9,714.9,257,714.9,264.8,714.7z"/>
	<path class="st4" d="M209.7,202.2l-24.1,1.4l8.6,507.6c8.2,1,16.3,1.8,24.3,2.4L209.7,202.2z"/>
	<path class="st4" d="M168.7,286.9c-5.9,19.6-15.1,32-23.5,39.6l6.5,377c8,2,16.3,3.5,24.3,4.9L168.7,286.9z"/>
	<path class="st4" d="M377.7,327.3l6.3,372.3c9.4-2.2,17.4-4.3,24.1-6.3L406,564.9c-11.2-103.1-14.3-227-14.3-227
		C386.6,334.5,381.9,331,377.7,327.3z"/>
	<path class="st0" d="M394.4,409.8c-0.6-11.4-1-22-1.4-31.2c-145.3,34.7-229.6,15.5-263.5,3.3c0,9.4-0.4,19.8-0.6,31
		C241.9,455.5,363.8,420,394.4,409.8z"/>
	<path class="st1" d="M279.7,28.5C208.5,6.7,166.4,59,163.4,98.3l7.3,106.1l158.4-8.6C329.1,195.5,350.9,50.2,279.7,28.5z
		 M305,196.9L195.6,203c0,0-5.9-14.7-10.8-75.7s32-85.3,58-85.3s46.5,14.5,57.1,43.5C310.7,114.7,305,196.9,305,196.9z"/>
	<path class="st1" d="M394,401c-187.4,42.5-230.8,7.8-240.8-12.2c-9.6-2.4-17.4-4.9-23.7-7.1c0,9.4-0.4,19.8-0.6,31
		c112.9,42.5,234.9,7.1,265.5-3.1C394.4,406.9,394.2,403.9,394,401z"/>
	<path class="st0" d="M185.8,137.3c-0.2-3.1-0.6-6.7-0.8-10c-4.9-61,32-85.3,58-85.3s46.5,14.5,57.1,43.5c2.2,5.9,3.5,13.9,4.7,22.9
		c12.4-78.6-81.6-89.2-110.2-52.9C174.6,80.8,180.3,117.1,185.8,137.3z"/>
	<path class="st0" d="M187.2,492.7l169.4-2.5c0,0,32.7,105.3-84.1,104.1S187.2,492.7,187.2,492.7z"/>
	<path class="st5" d="M261.3,354.9c0,0-26.1-17.8-31.8-20.4c-5.5-2.5-35.3-21.6-28.6-41c6.7-19.4,34.5-30.4,58.2-7.8
		c0,0,15.1-17.1,37.6-13.3s35.7,31.6,2,55.3C264.8,351.4,261.3,354.9,261.3,354.9z"/>
	<g>
		<g>
			<path class="st3" d="M260.3,347.7l2.7-2.2l2.2,2.7l-2.7,2.2L260.3,347.7L260.3,347.7z M254.6,347.3l1.8-2.7
				c1.2,0.6,2.2,1.4,2.7,1.8l0,0l-1.8,2.7C256.8,348.6,255.8,348,254.6,347.3L254.6,347.3z M265.8,343.3l2.7-2.2l2.2,2.7l-2.7,2.2
				L265.8,343.3L265.8,343.3z M248.7,343.5l1.8-2.7c1,0.6,2,1.4,2.7,1.8l0,0l-1.6,2.9C250.9,344.9,249.9,344.3,248.7,343.5
				L248.7,343.5z M271.1,339.2l2.7-2.2l2.2,2.7l-2.7,2.2L271.1,339.2L271.1,339.2z M243.2,340l1.8-2.7c1,0.6,2,1.4,2.7,1.8l0,0
				l-1.8,2.7C245,341.4,244.2,340.8,243.2,340L243.2,340z M243.2,340L243.2,340L243.2,340L243.2,340L243.2,340L243.2,340z
				 M276.6,335.1l2.7-2.2l2.2,2.7l-2.7,2.2L276.6,335.1L276.6,335.1z M237.4,336.3l1.8-2.7c1,0.6,2,1.4,2.7,1.8l0,0l-1.8,2.7
				C239.3,337.7,238.3,337.1,237.4,336.3L237.4,336.3z M281.9,331l2.7-2.2l2.2,2.7l-2.7,2.2L281.9,331L281.9,331z M231.9,332.6
				l2-2.7c1,0.6,2,1.4,2.7,2l0,0l-2,2.7C233.6,333.9,232.7,333.3,231.9,332.6L231.9,332.6z M287,326.7l2.7-2.2l2.2,2.7l-2.7,2.2
				L287,326.7L287,326.7z M226.2,328.6l2-2.7c1,0.6,2,1.4,2.7,2l0,0l-2,2.7C228.1,330,227.2,329.2,226.2,328.6L226.2,328.6z
				 M292.5,322.8l2.7-2.2l2.2,2.7l-2.7,2.2L292.5,322.8L292.5,322.8z M220.5,324.7l2-2.7c1,0.6,2,1.4,2.7,2l0,0l-2,2.7
				C222.5,326.1,221.5,325.3,220.5,324.7L220.5,324.7z M297.7,318.4l2.7-2.2l2.2,2.7l-2.7,2.2L297.7,318.4L297.7,318.4z
				 M215.2,320.4l2.2-2.5c0.8,0.6,1.6,1.4,2.5,2.2l0,0l-2.2,2.5C216.8,321.8,216.2,321.2,215.2,320.4L215.2,320.4z M303,314.1
				c0.6-0.8,1.6-1.4,2.2-2.4l0,0l2.5,2.2c-1,1-1.8,2-2.4,2.5l0,0L303,314.1L303,314.1z M210.5,314.9L210.5,314.9l2.9-1.8
				c0.4,1,1.2,1.8,2,2.5l0,0l-2.7,2.2C211.9,316.9,211.1,315.7,210.5,314.9L210.5,314.9z M307.4,309.4c0.6-1,1.4-1.6,1.8-2.5l0,0
				l2.7,1.8c-0.6,1-1.4,2.2-2,2.7l0,0L307.4,309.4L307.4,309.4z M207.8,308.1l3.1-0.8c0.2,1,0.6,2,1,2.9l0,0l-3.1,1.2
				C208.3,310.4,207.9,309.2,207.8,308.1L207.8,308.1z M310.7,303.9c0.4-1,0.8-1.8,1-2.9l0,0l3.1,1c-0.4,1.2-0.8,2.4-1.4,3.5l0,0
				L310.7,303.9L310.7,303.9z M207,302c0-0.2,0-0.8,0-1l0,0h3.5c0,0.2,0,0.4,0,1l0,0c0,0.8,0,1.6,0,2.4l0,0l-3.3,0.4
				C207,303.7,207,302.8,207,302L207,302z M312.6,298.1c0-0.8,0.2-1.4,0.2-2.2l0,0c0-0.2,0-0.8,0-1l0,0l3.3-0.4c0,0.4,0,1,0,1.4l0,0
				c0,1,0,1.6-0.2,2.5l0,0L312.6,298.1L312.6,298.1z M207,297.3c0.2-1.2,0.4-2.4,0.6-3.5l0,0l3.1,0.8c-0.2,1-0.4,2.2-0.6,3.1l0,0
				L207,297.3L207,297.3z M258.1,293c0,0-1-0.6-2.7-2l0,0l2-2.7c0.8,0.4,1.2,1,1.6,1.2l0,0c0.2-0.2,0.6-0.4,1-0.8l0,0l0,0l2.2,2.7
				c-0.6,0.4-1.2,1-1.8,1.6l0,0l-1.2,1L258.1,293L258.1,293z M310.7,289.4l2.9-2c0.8,1.2,1.2,2.4,1.8,3.3l0,0l-3.1,1.2
				C311.7,291.2,311.3,290.4,310.7,289.4L310.7,289.4z M208.9,290.4c0.4-1.2,0.8-2.4,1.6-3.3l0,0l0,0l2.9,1.6
				c-0.4,1-0.8,1.8-1.4,2.7l0,0L208.9,290.4L208.9,290.4z M262.7,286.5c1-0.8,1.8-1.4,2.9-2l0,0l2,2.9c-1,0.4-1.8,1.2-2.7,2l0,0
				L262.7,286.5L262.7,286.5z M249.7,287.5l1.8-2.9c1.2,0.6,2.2,1.2,2.9,1.8l0,0l-1.8,2.7C251.7,288.6,250.7,288.1,249.7,287.5
				L249.7,287.5z M306.6,284.7l2.2-2.5c1,0.6,2,1.6,2.5,2.4l0,0l-2.5,2.4C308.1,286.1,307.2,285.5,306.6,284.7L306.6,284.7z
				 M268.3,282.6c1.2-0.4,2-1.2,3.1-1.8l0,0l1.4,2.9c-1,0.4-2,1-2.9,1.4l0,0L268.3,282.6L268.3,282.6z M243.8,284.5l1.6-2.9
				c1.2,0.4,2.2,1.2,2.9,1.6l0,0l0,0l-1.6,2.9C245.8,285.3,245,284.9,243.8,284.5L243.8,284.5z M212.1,284.1c0.6-1,1.6-2,2.4-2.7
				l0,0l0,0l2.4,2.5c-0.6,0.8-1.4,1.4-2,2.4l0,0L212.1,284.1L212.1,284.1z M301.1,281.6l1.4-2.9c1.2,0.4,2.2,1.2,3.3,1.8l0,0
				l-1.8,2.7C303,282.4,302.1,282,301.1,281.6L301.1,281.6z M274.8,279.4c1.2-0.4,2.4-0.8,3.3-1.2l0,0l1,3.1c-1.2,0.2-2,0.8-3.1,1.2
				l0,0L274.8,279.4L274.8,279.4z M237.7,282l1-3.1c1.2,0.4,2.4,0.8,3.3,1.4l0,0l0,0l-1.4,3.3C239.9,282.8,238.7,282.4,237.7,282
				L237.7,282z M295.2,279.8l0.6-3.5c1.2,0.2,2.4,0.4,3.5,0.8l0,0l-0.8,3.1C297.2,280.2,296,280,295.2,279.8L295.2,279.8z
				 M281.3,277.5c1.2-0.2,2.4-0.6,3.3-0.8l0,0l0.6,3.3c-1.2,0.2-2,0.2-3.1,0.6l0,0L281.3,277.5L281.3,277.5z M217.8,279
				c1.2-0.8,2.4-1.2,3.3-1.8l0,0l0,0l1,3.1c-1,0.2-1.8,0.8-2.7,1.2l0,0L217.8,279L217.8,279z M290.1,279.4c-0.4,0-1,0-1.4,0l0,0
				l-0.4-3.3c0.4,0,1,0,1.4,0l0,0c0.8,0,1.4,0,2.2,0l0,0l-0.2,3.5C291.3,279.4,290.5,279.4,290.1,279.4L290.1,279.4z M231.5,280.4
				l0.6-3.5c1.2,0.2,2.4,0.4,3.5,0.8l0,0l-0.8,3.1C233.6,280.8,232.5,280.6,231.5,280.4L231.5,280.4z M226.4,280c-0.4,0-1,0-1.4,0
				l0,0l-0.4-3.3c0.4,0,1.2,0,1.6,0l0,0c0.8,0,1.4,0,2.2,0l0,0l-0.2,3.5C227.6,280,227,280,226.4,280L226.4,280z M235.4,277.9
				L235.4,277.9L235.4,277.9L235.4,277.9L235.4,277.9z"/>
		</g>
	</g>
	<path class="st0" d="M128.9,412.9c0.4-11.4,0.6-21.8,0.6-31c0,0-27.1,34.9-73.5,2.9s1-62,1-62S22.1,333.5,31.9,379
		c9.6,45.5,76.5,46.5,93.9,36.9L128.9,412.9z"/>
	<path class="st1" d="M56,384.9c-5.9-4.1-10.2-8-13.5-12C45,383.3,57,406.1,111.1,420c6.1-0.8,11.2-2.4,14.5-4.1l3.1-2.9
		c0.4-11.4,0.6-21.8,0.6-31C129.7,382,102.5,416.9,56,384.9z"/>
	<path class="st3" d="M57,323c0,0-47.4,30-1,62c0,0-10.2-35.3,32.9-53.7s57.1-28.6,50.4-65.9c0,0-1,19.4-20.8,29.6
		C98.7,304.9,57,323,57,323z"/>
	<path class="st2" d="M53.1,343.7c17.1-12.7,58.2-33.7,70-51.8c-1.4,1-2.9,2-4.5,2.7c-19.8,10.2-61.6,28-61.6,28
		s-37.4,23.7-13.1,51.6C43.8,361,46.2,349,53.1,343.7z"/>
	<path class="st3" d="M139.3,265.3c0,0-0.6,12.5-11.4,22.7c0,0,17.1-28.6-76.7-30L69.9,242l-11.6-11.6
		C58.5,230.4,120.9,223.9,139.3,265.3z"/>
	<path class="st1" d="M71.9,249.8l6.3-9L69.9,230c-6.9-0.2-11.4,0.4-11.4,0.4L70.1,242l-18.6,16.1c48,0.8,66.9,8.6,73.9,16.1
		C132.5,256.1,71.9,249.8,71.9,249.8z"/>
	<g>
		<path class="st5" d="M271.9,590.4c-1.6,0-2.9,0-4.3,0l0,0l0.2-3.5c1.4,0,2.7,0,4.3,0l0,0c0.6,0,1.2,0,1.6,0l0,0c0.4,0,0.8,0,1.2,0
			l0,0v3.5c-0.4,0-0.8,0-1.2,0l0,0C273,590.4,272.5,590.4,271.9,590.4L271.9,590.4z M281.9,586.7c2.4-0.2,4.7-0.4,7.1-0.6l0,0
			l0.4,3.5c-2.4,0.2-4.7,0.4-7.3,0.6l0,0L281.9,586.7L281.9,586.7z M253.2,589.2l0.4-3.5c2.2,0.2,4.5,0.6,7.1,0.8l0,0l-0.2,3.5
			C257.9,589.8,255.4,589.4,253.2,589.2L253.2,589.2z M295.8,585.3c2.4-0.4,4.7-0.8,6.9-1.4l0,0l0.8,3.3c-2.4,0.6-4.7,1-7.1,1.4l0,0
			L295.8,585.3L295.8,585.3z M238.9,586.5l1-3.3c2.2,0.6,4.5,1,6.9,1.6l0,0l-0.6,3.5C243.6,587.6,241.1,587.1,238.9,586.5
			L238.9,586.5z M288.9,586.1L288.9,586.1L288.9,586.1L288.9,586.1L288.9,586.1L288.9,586.1z M309.5,582.2c2.4-0.8,4.5-1.6,6.5-2.4
			l0,0l1.4,3.3c-2.2,1-4.5,1.8-6.9,2.5l0,0L309.5,582.2L309.5,582.2z M246.6,584.7L246.6,584.7L246.6,584.7L246.6,584.7L246.6,584.7
			z M225.2,581.8l1.4-3.1c2,1,4.1,1.8,6.5,2.5l0,0l-1.2,3.3C229.5,583.7,227.4,582.7,225.2,581.8L225.2,581.8z M302.6,583.9
			L302.6,583.9L302.6,583.9L302.6,583.9L302.6,583.9L302.6,583.9z M322.3,576.7c2.2-1.2,4.1-2.4,5.9-3.7l0,0l2.2,2.9
			c-2,1.4-3.9,2.7-6.3,3.9l0,0L322.3,576.7L322.3,576.7z M212.5,574.5l2.2-2.7c1.8,1.4,3.7,2.5,5.9,3.7l0,0l-1.8,3.1
			C216.4,577.2,214.4,575.9,212.5,574.5L212.5,574.5z M333.4,568.6c1.8-1.6,3.3-3.3,4.7-4.9l0,0l2.7,2.2c-1.6,1.8-3.1,3.7-5.1,5.3
			l0,0L333.4,568.6L333.4,568.6z M201.9,564.5l2.7-2.2c1.4,1.8,2.9,3.3,4.7,5.1l0,0l0,0l-2.5,2.5C205,568.2,203.4,566.3,201.9,564.5
			L201.9,564.5z M342.1,558c1.2-2,2.4-3.9,3.1-6.1l0,0l3.3,1.4c-1,2.2-2.2,4.3-3.3,6.5l0,0L342.1,558L342.1,558z M194.4,552.2
			l3.3-1.4c1,2,2,4.1,3.1,6.1l0,0l-3.1,1.8C196.4,556.5,195.4,554.3,194.4,552.2L194.4,552.2z M347.5,545.7c0.8-2.2,1.2-4.5,1.8-6.7
			l0,0l3.5,0.8c-0.4,2.4-1,4.7-1.8,7.1l0,0L347.5,545.7L347.5,545.7z M190.1,538.2l3.5-0.6c0.4,2.2,1,4.5,1.6,6.7l0,0l-3.3,1
			C191.1,542.9,190.5,540.6,190.1,538.2L190.1,538.2z M350.5,532.2c0.2-2.4,0.4-4.7,0.4-6.9l0,0l0,0h3.5c0,2.4-0.2,4.7-0.4,7.3l0,0
			L350.5,532.2L350.5,532.2z M188.7,523.9h3.5c0,2.2,0.2,4.5,0.4,6.9l0,0l0,0l-3.5,0.4C188.9,528.6,188.7,526.3,188.7,523.9
			L188.7,523.9z M350.3,511.4l3.5-0.4c0.2,2.2,0.4,4.7,0.6,7.1l0,0l-3.5,0.2C350.7,515.9,350.5,513.5,350.3,511.4L350.3,511.4z
			 M188.9,516.7c0.2-2.5,0.4-4.9,0.8-7.1l0,0l3.5,0.4c-0.4,2.2-0.6,4.5-0.8,6.9l0,0L188.9,516.7L188.9,516.7z M347.7,497.8l3.5-0.8
			c0.4,1.6,1,4.1,1.6,7.1l0,0l-3.5,0.6C348.7,501.8,348.1,499.4,347.7,497.8L347.7,497.8z M190.9,502.5c0.8-3.5,1.4-5.7,1.4-5.7l0,0
			l0.4-1.2l8.4-0.2v3.5h-5.9c-0.2,1-0.6,2.4-1,4.3l0,0L190.9,502.5L190.9,502.5z M208.3,495.3l7.1-0.2v3.5l-7.1,0.2V495.3
			L208.3,495.3z M222.7,495.1l7.1-0.2v3.5l-7.1,0.2V495.1L222.7,495.1z M237,494.9l7.1-0.2v3.5l-7.1,0.2V494.9L237,494.9z
			 M251.3,494.7l7.1-0.2v3.5l-7.1,0.2V494.7L251.3,494.7z M265.6,494.5l7.1-0.2v3.5l-7.1,0.2V494.5L265.6,494.5z M279.9,494.3
			l7.1-0.2v3.5l-7.1,0.2V494.3L279.9,494.3z M294.2,494.1l7.1-0.2v3.5l-7.1,0.2V494.1L294.2,494.1z M308.3,493.9l7.1-0.2v3.5
			l-7.1,0.2V493.9L308.3,493.9z M322.6,493.5l7.1-0.2v3.5l-7.1,0.2V493.5L322.6,493.5z M337,493.3l7.1-0.2v3.5l-7.1,0.2V493.3
			L337,493.3z"/>
	</g>
</g>
</svg>
