<?xml version="1.0" encoding="utf-8"?>
<!-- Generator: Adobe Illustrator 21.0.0, SVG Export Plug-In . SVG Version: 6.00 Build 0)  -->
<svg version="1.1" id="Layer_1" xmlns="http://www.w3.org/2000/svg" xmlns:xlink="http://www.w3.org/1999/xlink" x="0px" y="0px"
	 viewBox="0 0 309 432" style="enable-background:new 0 0 309 432;" xml:space="preserve">
<style type="text/css">
	.st0{fill:#FFCCD3;}
	.st1{fill:#FFE3E8;}
	.st2{fill:#FFABB9;}
	.st3{fill:#FF9FB4;}
	.st4{fill:#FF7885;}
	.st5{opacity:0.2;fill:#FFFFFF;enable-background:new    ;}
	.st6{fill:#FF5F76;}
	.st7{fill:#FFFFFF;}
	.st8{fill:#FF273C;}
	.st9{fill:#FF4560;}
</style>
<g>
	<path class="st0" d="M230.6,237.4c-0.2-6.8-0.4-13.1-0.4-18.7c0,0,16.3,21.1,44.4,1.8c28-19.3-0.6-37.4-0.6-37.4s21,6.4,15.2,33.9
		s-46.2,28-56.7,22.2L230.6,237.4z"/>
	<path class="st1" d="M274.5,220.4c3.6-2.5,6.2-4.9,8.1-7.3c-1.6,6.3-8.8,20-41.4,28.4c-3.7-0.5-6.8-1.4-8.7-2.5l-1.9-1.8
		c-0.2-6.8-0.4-13.1-0.4-18.7C230.2,218.6,246.5,239.7,274.5,220.4z"/>
	<path class="st2" d="M274,183c0,0,28.6,18.1,0.6,37.4c0,0,6.1-21.3-19.9-32.4c-26-11.1-34.5-17.2-30.4-39.7c0,0,0.6,11.7,12.6,17.8
		C248.8,172.2,274,183,274,183z"/>
	<path class="st3" d="M276.3,195.6c-10.2-7.7-35.2-20.4-42.2-31.2c0.9,0.6,1.8,1.2,2.8,1.7c12,6.1,37.1,16.9,37.1,16.9
		s22.6,14.3,7.9,31.1C281.9,206,280.5,198.8,276.3,195.6z"/>
	<path class="st0" d="M224.3,148.3c0,0,0.4,7.6,6.8,13.8c0,0-10.3-17.3,46.2-18.2l-11.2-9.6l7-7
		C273.1,127.2,235.4,123.3,224.3,148.3z"/>
	<path class="st1" d="M265.1,138.9l-3.8-5.4l5-6.5c4.2-0.1,6.9,0.2,6.9,0.2l-7,7l11.2,9.6c-29,0.4-40.4,5.2-44.6,9.7
		C228.5,142.7,265.1,138.9,265.1,138.9z"/>
	<path class="st4" d="M103.1,118.5l95.5-5.3c0,0-7,56.1,37.7,85.9c0,0,4.4,169.1,22.8,210.3c0,0-97.3,35.9-191,3.5
		c0,0,14.9-200.7,8.8-213.8C76.8,199.1,114.5,187.7,103.1,118.5z"/>
	<path class="st5" d="M214.7,178c-9.3-13.4-13.5-28.1-15.3-40l4.9,284.6c5.1-0.8,10-1.6,14.6-2.5L214.7,178z"/>
	<path class="st5" d="M175,425.7c5-0.3,9.9-0.8,14.6-1.3L184.3,114l-14.6,0.8L175,425.7z"/>
	<path class="st5" d="M159.9,426.4l-5.3-310.8l-14.6,0.8l5.3,309.9C150.2,426.5,155.1,426.5,159.9,426.4z"/>
	<path class="st5" d="M126.7,117.2l-14.6,0.8l5.2,306.3c4.9,0.6,9.8,1.1,14.6,1.5L126.7,117.2z"/>
	<path class="st5" d="M101.9,168.3c-3.5,11.8-9.1,19.3-14.2,23.9l3.9,227.4c4.9,1.1,9.8,2.1,14.7,2.9L101.9,168.3z"/>
	<path class="st5" d="M227.9,192.6l3.8,224.6c5.6-1.3,10.5-2.6,14.5-3.8L245,336c-6.7-62.2-8.6-136.9-8.6-136.9
		C233.3,197.1,230.5,194.9,227.9,192.6z"/>
	<path class="st6" d="M78.1,237.8c52.9-2.3,135.5,12.7,159.8,1.6c0,0,0,0,0-0.1c-0.1-1.3-0.1-2.5-0.2-3.8c0-0.4,0-0.8-0.1-1.1
		c0-0.9-0.1-1.7-0.1-2.6c0-0.5,0-0.9-0.1-1.4c0-0.8-0.1-1.6-0.1-2.3c0-0.4,0-0.7,0-1.1c0-0.9-0.1-1.9-0.1-2.8c0-0.1,0-0.3,0-0.4
		c-18-6.7-54.9-6.4-66-1.1c-14.6,7-45,6.4-56.7,4.1c-11.7-2.3-24.5-20.4-8.2-36.2c16.4-15.8,15.2-42.1,15.8-57.3
		c0.2-6.2,3.1-11.8,6.4-16.3l-25.4,1.4c11.4,69.2-26.3,80.6-26.3,80.6C78.4,202.4,78.6,217.3,78.1,237.8z"/>
	<path class="st6" d="M229.4,417.8c-3.7-6-15.6-12-50.9-7.5c-62.2,7.9-96.4-19.3-93.8-43.8C87.3,342,93.5,257,104,242.9
		c5.2-6.9-9.6-8.1-25.9-7.5c-1.4,61.4-10,177.5-10,177.5C130,434.3,193.4,425.9,229.4,417.8z"/>
	<path class="st0" d="M238,242.4c-0.3-6.9-0.6-13.2-0.8-18.8c-87.7,21-138.5,9.4-158.9,2c-0.1,5.6-0.2,11.9-0.4,18.7
		C146,270.1,219.5,248.6,238,242.4z"/>
	<path class="st1" d="M168.9,12.4C126-0.7,100.5,30.8,98.8,54.5l4.4,64l95.5-5.3C198.6,113.2,211.8,25.6,168.9,12.4z M184.1,114
		l-66,3.6c0,0-3.5-8.8-6.5-45.6c-2.9-36.8,19.3-51.4,35.1-51.4s28,8.8,34.5,26.3C187.5,64.4,184.1,114,184.1,114z"/>
	<path class="st1" d="M237.8,237.2c-113.1,25.7-139.2,4.8-145.2-7.3c-5.8-1.4-10.6-2.9-14.3-4.3c-0.1,5.6-0.2,11.9-0.4,18.7
		c68.1,25.7,141.7,4.3,160.2-1.9C238,240.6,237.9,238.9,237.8,237.2z"/>
	<path class="st0" d="M112.1,78.1c-0.2-1.9-0.3-4-0.5-6.1c-2.9-36.8,19.3-51.4,35.1-51.4s28,8.8,34.5,26.3c1.3,3.5,2.2,8.4,2.8,13.8
		c7.5-47.4-49.2-53.8-66.5-32C105.4,44,108.8,65.9,112.1,78.1z"/>
	<path class="st0" d="M113,292.5l102.2-1.6c0,0,19.8,63.5-50.8,62.8C93.9,353.1,113,292.5,113,292.5z"/>
	<g>
		<path class="st7" d="M164.3,298.6v10.1H163v-10.1H164.3z"/>
	</g>
	<g>
		<path class="st7" d="M152.1,337.7c-0.7,0.3-2,0.7-3.7,0.7c-4,0-7-2.5-7-7.2c0-4.4,3-7.4,7.4-7.4c1.8,0,2.9,0.4,3.4,0.6l-0.4,1.5
			c-0.7-0.3-1.7-0.6-2.9-0.6c-3.3,0-5.5,2.1-5.5,5.8c0,3.5,2,5.7,5.4,5.7c1.1,0,2.3-0.2,3-0.6L152.1,337.7z"/>
		<path class="st7" d="M163.3,333c0,3.8-2.6,5.4-5.1,5.4c-2.8,0-4.9-2-4.9-5.2c0-3.4,2.2-5.4,5-5.4
			C161.3,327.8,163.3,329.9,163.3,333z M155.2,333.1c0,2.2,1.3,3.9,3.1,3.9s3.1-1.7,3.1-4c0-1.7-0.9-3.9-3-3.9
			C156.2,329.2,155.2,331.2,155.2,333.1z"/>
		<path class="st7" d="M174.8,333c0,3.8-2.6,5.4-5.1,5.4c-2.8,0-4.9-2-4.9-5.2c0-3.4,2.2-5.4,5-5.4
			C172.9,327.8,174.8,329.9,174.8,333z M166.8,333.1c0,2.2,1.3,3.9,3.1,3.9s3.1-1.7,3.1-4c0-1.7-0.9-3.9-3-3.9
			C167.7,329.2,166.8,331.2,166.8,333.1z"/>
		<path class="st7" d="M179,332.7L179,332.7c0.3-0.4,0.7-0.8,0.9-1.2l3-3.5h2.2l-3.9,4.2l4.5,6h-2.3l-3.5-4.9l-0.9,1.1v3.8h-1.8
			v-14.9h1.8V332.7z"/>
	</g>
	<path class="st8" d="M157,205.8c0,0-13.2-9.6-16.1-11c-2.9-1.4-18-11.6-14.2-21.5c3.7-9.9,18.2-15.2,30.1-3.1c0,0,8-8.6,19.6-6.4
		c11.6,2.2,17.9,16.8,0.2,28.6C158.9,204.1,157,205.8,157,205.8z"/>
	<g>
		<g>
			<path class="st9" d="M156.6,202l1.4-1l1,1.4l-1.4,1L156.6,202L156.6,202z M153.7,201.8l0.9-1.5c0.6,0.4,1.1,0.7,1.5,0.9l0,0
				l-0.9,1.5C154.8,202.4,154.3,202.1,153.7,201.8L153.7,201.8z M159.5,199.9l1.4-1l1,1.4l-1.4,1L159.5,199.9L159.5,199.9z
				 M150.8,199.8l1-1.5c0.5,0.3,1,0.7,1.5,1l0,0l-1,1.5C151.8,200.5,151.3,200.2,150.8,199.8L150.8,199.8z M162.3,197.9l1.4-1l1,1.4
				l-1.4,1L162.3,197.9L162.3,197.9z M147.9,197.9l1-1.5c0.5,0.3,1,0.7,1.5,1l0,0l-1,1.5C148.8,198.5,148.3,198.2,147.9,197.9
				L147.9,197.9z M147.9,197.9L147.9,197.9L147.9,197.9L147.9,197.9L147.9,197.9L147.9,197.9z M165.1,195.8l1.4-1l1,1.4l-1.4,1
				L165.1,195.8L165.1,195.8z M144.9,195.9l1-1.4c0.5,0.3,1,0.7,1.4,1l0,0l-1,1.4C145.9,196.6,145.4,196.2,144.9,195.9L144.9,195.9z
				 M167.9,193.7l1.4-1l1,1.4l-1.4,1L167.9,193.7L167.9,193.7z M142.1,193.9l1-1.4c0.5,0.3,0.9,0.7,1.4,1l0,0l-1,1.4
				C143,194.5,142.5,194.2,142.1,193.9L142.1,193.9z M170.8,191.6l1.4-1l1,1.4l-1.4,1L170.8,191.6L170.8,191.6z M139.2,191.8l1-1.4
				c0.5,0.3,0.9,0.7,1.4,1l0,0l-1,1.4C140.2,192.5,139.7,192.1,139.2,191.8L139.2,191.8z M173.6,189.6l1.4-1l1,1.4l-1.4,1
				L173.6,189.6L173.6,189.6z M136.4,189.6l1.1-1.4c0.4,0.4,0.9,0.7,1.4,1.1l0,0l-1.1,1.4C137.3,190.3,136.9,190,136.4,189.6
				L136.4,189.6z M176.4,187.5l1.4-1l1,1.4l-1.4,1L176.4,187.5L176.4,187.5z M133.7,187.3l1.2-1.3c0.4,0.4,0.8,0.7,1.3,1.1l0,0
				l-1.1,1.3C134.6,188.1,134.1,187.7,133.7,187.3L133.7,187.3z M179.1,185.4c0.4-0.3,0.8-0.7,1.2-1.2l0,0l1.3,1.2
				c-0.5,0.5-0.9,0.9-1.3,1.3l0,0L179.1,185.4L179.1,185.4z M131.3,184.4L131.3,184.4l1.5-0.9c0.3,0.5,0.6,0.9,0.9,1.3l0,0l-1.4,1.1
				C132,185.4,131.6,184.9,131.3,184.4L131.3,184.4z M181.5,182.9c0.3-0.4,0.7-0.9,1-1.3l0,0l1.5,1c-0.4,0.5-0.7,1-1.1,1.5l0,0
				L181.5,182.9L181.5,182.9z M130,180.9l1.7-0.4c0.1,0.5,0.3,1.1,0.5,1.6l0,0l-1.6,0.6C130.3,182.1,130.1,181.5,130,180.9
				L130,180.9z M183.3,180.2c0.3-0.5,0.5-1,0.6-1.5l0,0l1.7,0.6c-0.2,0.6-0.5,1.2-0.7,1.7l0,0L183.3,180.2L183.3,180.2z
				 M129.6,177.6c0-0.2,0-0.3,0-0.5l0,0l1.8,0.1c0,0.1,0,0.3,0,0.4l0,0c0,0.4,0,0.8,0.1,1.2l0,0l-1.7,0.2
				C129.7,178.6,129.6,178.1,129.6,177.6L129.6,177.6z M184.3,177.2c0-0.3,0.1-0.7,0.1-1l0,0c0-0.2,0-0.4,0-0.5l0,0l1.7-0.1
				c0,0.2,0,0.4,0,0.7l0,0c0,0.4,0,0.9-0.1,1.3l0,0L184.3,177.2L184.3,177.2z M129.8,175.3c0.1-0.6,0.2-1.2,0.4-1.8l0,0l1.7,0.5
				c-0.1,0.5-0.3,1.1-0.3,1.6l0,0L129.8,175.3L129.8,175.3z M156.3,173.7c0,0-0.5-0.4-1.4-1l0,0l1-1.4c0.4,0.2,0.6,0.5,0.9,0.6l0,0
				c0.2-0.1,0.3-0.3,0.5-0.4l0,0l0,0l1.1,1.4c-0.3,0.3-0.6,0.5-1,0.8l0,0l-0.6,0.5L156.3,173.7L156.3,173.7z M183.4,172.7l1.5-0.9
				c0.3,0.6,0.6,1.2,0.8,1.8l0,0l-1.7,0.5C183.9,173.6,183.7,173.2,183.4,172.7L183.4,172.7z M130.8,171.7c0.2-0.6,0.5-1.1,0.8-1.7
				l0,0l0,0l1.5,0.9c-0.3,0.5-0.5,1-0.7,1.5l0,0L130.8,171.7L130.8,171.7z M158.7,170.4c0.5-0.3,1-0.7,1.5-1l0,0l0.9,1.5
				c-0.5,0.3-0.9,0.6-1.4,0.9l0,0L158.7,170.4L158.7,170.4z M152,170.8l0.9-1.5c0.5,0.3,1,0.6,1.5,1l0,0l-1,1.5
				C153,171.4,152.5,171.1,152,170.8L152,170.8z M181.4,170.2l1.2-1.3c0.5,0.4,0.9,0.9,1.3,1.3l0,0l-1.3,1.1
				C182.1,171,181.8,170.6,181.4,170.2L181.4,170.2z M161.8,168.5c0.5-0.3,1.1-0.6,1.6-0.8l0,0l0.7,1.6c-0.5,0.2-1,0.5-1.5,0.8l0,0
				L161.8,168.5L161.8,168.5z M149,169.1l0.8-1.6c0.6,0.3,1.1,0.6,1.6,0.8l0,0l0,0l-0.8,1.5C150,169.7,149.5,169.4,149,169.1
				L149,169.1z M132.7,168.5c0.4-0.5,0.8-1,1.3-1.4l0,0l0,0l1.2,1.3c-0.4,0.3-0.8,0.7-1.1,1.2l0,0L132.7,168.5L132.7,168.5z
				 M178.6,168.4l0.7-1.6c0.6,0.3,1.1,0.6,1.6,0.9l0,0l-1,1.5C179.6,168.9,179.1,168.7,178.6,168.4L178.6,168.4z M165,167
				c0.6-0.2,1.1-0.4,1.7-0.6l0,0l0.5,1.7c-0.5,0.2-1.1,0.3-1.6,0.5l0,0L165,167L165,167z M145.9,167.8l0.6-1.6
				c0.6,0.2,1.1,0.4,1.7,0.7l0,0l0,0l-0.7,1.6C146.9,168.2,146.4,168,145.9,167.8L145.9,167.8z M175.5,167.5l0.3-1.7
				c0.6,0.1,1.2,0.3,1.8,0.4l0,0l-0.5,1.7C176.6,167.7,176.1,167.6,175.5,167.5L175.5,167.5z M168.5,166c0.6-0.1,1.2-0.2,1.8-0.3
				l0,0l0.2,1.7c-0.5,0.1-1.1,0.2-1.6,0.3l0,0L168.5,166L168.5,166z M135.5,166c0.6-0.3,1.2-0.6,1.8-0.8l0,0l0,0l0.5,1.7
				c-0.5,0.1-1,0.4-1.4,0.6l0,0L135.5,166L135.5,166z M172.9,167.3c-0.2,0-0.5,0-0.7,0l0,0l-0.1-1.8c0.3,0,0.5,0,0.8,0l0,0
				c0.4,0,0.7,0,1.1,0l0,0l-0.1,1.7C173.6,167.3,173.2,167.3,172.9,167.3L172.9,167.3z M142.6,166.9l0.3-1.7
				c0.6,0.1,1.2,0.3,1.8,0.4l0,0l-0.5,1.7C143.7,167.1,143.2,167,142.6,166.9L142.6,166.9z M140.1,166.6c-0.2,0-0.5,0-0.7,0l0,0
				l-0.1-1.7c0.3,0,0.5,0,0.8,0l0,0c0.4,0,0.7,0,1.1,0l0,0l-0.1,1.7C140.7,166.6,140.4,166.6,140.1,166.6L140.1,166.6z M144.7,165.6
				L144.7,165.6L144.7,165.6L144.7,165.6L144.7,165.6z"/>
		</g>
	</g>
	<path class="st0" d="M77.9,244.4c0.2-6.8,0.4-13.1,0.4-18.7c0,0-16.3,21.1-44.4,1.8c-28-19.3,0.6-37.4,0.6-37.4s-21,6.4-15.2,33.9
		s46.2,28,56.7,22.2L77.9,244.4z"/>
	<path class="st1" d="M33.9,227.4c-3.6-2.5-6.2-4.9-8.1-7.3c1.6,6.3,8.8,20,41.4,28.4c3.7-0.5,6.8-1.4,8.7-2.5l1.9-1.8
		c0.2-6.8,0.4-13.1,0.4-18.7C78.3,225.6,61.9,246.7,33.9,227.4z"/>
	<path class="st3" d="M34.5,190c0,0-28.6,18.1-0.6,37.4c0,0-6.1-21.3,19.9-32.4c26-11.1,34.5-17.2,30.4-39.7c0,0-0.6,11.7-12.6,17.8
		C59.6,179.2,34.5,190,34.5,190z"/>
	<path class="st2" d="M32.1,202.6c10.2-7.7,35.2-20.4,42.2-31.2c-0.9,0.6-1.8,1.2-2.8,1.7c-12,6.1-37.1,16.9-37.1,16.9
		s-22.6,14.3-7.9,31.1C26.6,213.1,27.9,205.8,32.1,202.6z"/>
	<path class="st0" d="M84.1,155.3c0,0-0.4,7.6-6.8,13.8c0,0,10.3-17.3-46.2-18.1l11.2-9.6l-7-7C35.4,134.2,73,130.3,84.1,155.3z"/>
	<path class="st1" d="M43.4,145.9l3.8-5.4l-5-6.5c-4.2-0.1-6.9,0.2-6.9,0.2l7,7l-11.2,9.6c29,0.4,40.4,5.2,44.6,9.7
		C79.9,149.7,43.4,145.9,43.4,145.9z"/>
	<path class="st8" d="M163.7,323.7c0,0-3.3-3.2-4.1-3.6c-0.7-0.5-4.5-3.9-3.6-7.1c0.9-3.3,4.6-5.1,7.6-1c0,0,2-2.9,4.9-2.1
		c2.9,0.7,4.5,5.6,0.1,9.5C164.2,323.1,163.7,323.7,163.7,323.7z"/>
	<g>
		<path class="st7" d="M164.1,351.4c-0.9,0-1.8,0-2.6-0.1l0,0l0.1-2.1c0.8,0,1.7,0,2.6,0.1l0,0c0.3,0,0.7,0,1,0l0,0
			c0.2,0,0.5,0,0.7,0l0,0v2.1c-0.2,0-0.5,0-0.7,0l0,0C164.8,351.4,164.5,351.4,164.1,351.4L164.1,351.4z M170.1,349.2
			c1.5-0.1,2.9-0.2,4.2-0.3l0,0l0.2,2.1c-1.4,0.1-2.9,0.3-4.3,0.3l0,0L170.1,349.2L170.1,349.2z M152.8,350.7l0.3-2.1
			c1.4,0.2,2.8,0.3,4.2,0.4l0,0l-0.2,2.1C155.6,351,154.2,350.9,152.8,350.7L152.8,350.7z M178.5,348.3c1.4-0.2,2.8-0.5,4.2-0.8l0,0
			l0.5,2.1c-1.4,0.3-2.8,0.6-4.3,0.8l0,0L178.5,348.3L178.5,348.3z M144.2,349.1l0.5-2.1c1.3,0.3,2.7,0.6,4.1,0.9l0,0l-0.4,2.1
			C147,349.7,145.6,349.4,144.2,349.1L144.2,349.1z M174.3,348.9L174.3,348.9L174.3,348.9L174.3,348.9L174.3,348.9L174.3,348.9z
			 M186.8,346.4c1.4-0.4,2.7-0.9,3.9-1.4l0,0l0.9,2c-1.3,0.5-2.7,1.1-4.1,1.5l0,0L186.8,346.4L186.8,346.4z M148.9,347.9
			L148.9,347.9L148.9,347.9L148.9,347.9L148.9,347.9z M135.9,346.2l0.9-1.9c1.2,0.5,2.5,1.1,3.9,1.5l0,0l-0.7,2
			C138.6,347.3,137.2,346.8,135.9,346.2L135.9,346.2z M182.7,347.5L182.7,347.5L182.7,347.5L182.7,347.5L182.7,347.5L182.7,347.5z
			 M194.5,343.1c1.3-0.7,2.4-1.4,3.5-2.2l0,0l1.3,1.7c-1.2,0.8-2.4,1.6-3.7,2.4l0,0L194.5,343.1L194.5,343.1z M128.3,341.9l1.3-1.7
			c1.1,0.8,2.2,1.5,3.5,2.3l0,0l-1.1,1.8C130.7,343.5,129.4,342.7,128.3,341.9L128.3,341.9z M201.2,338.3c1-1,2-2,2.8-3l0,0l1.7,1.3
			c-0.9,1.1-1.9,2.2-3,3.2l0,0L201.2,338.3L201.2,338.3z M121.9,335.8l1.7-1.3c0.8,1,1.8,2.1,2.8,3l0,0l0,0l-1.5,1.5
			C123.8,338,122.8,336.9,121.9,335.8L121.9,335.8z M206.4,331.9c0.7-1.2,1.4-2.4,1.9-3.6l0,0l2,0.9c-0.6,1.3-1.3,2.6-2.1,3.9l0,0
			L206.4,331.9L206.4,331.9z M117.3,328.3l2-0.8c0.5,1.2,1.2,2.5,1.9,3.7l0,0l-1.9,1.1C118.6,330.9,117.9,329.6,117.3,328.3
			L117.3,328.3z M209.8,324.4c0.4-1.3,0.8-2.7,1-4l0,0l2.1,0.4c-0.3,1.4-0.6,2.8-1.1,4.2l0,0L209.8,324.4L209.8,324.4z M114.8,319.9
			l2.1-0.4c0.3,1.3,0.6,2.7,1,4l0,0l-2.1,0.6C115.4,322.8,115,321.3,114.8,319.9L114.8,319.9z M211.5,316.3c0.2-1.4,0.2-2.8,0.3-4.2
			l0,0l0,0l2.2,0.1c0,1.4-0.1,2.9-0.3,4.3l0,0L211.5,316.3L211.5,316.3z M113.9,311.3h2.2c0,1.3,0.1,2.7,0.2,4.2l0,0l0,0l-2.1,0.2
			C114,314.2,113.9,312.7,113.9,311.3L113.9,311.3z M211.4,303.8l2.1-0.2c0.2,1.3,0.3,2.8,0.3,4.3l0,0l-2.2,0.1
			C211.6,306.5,211.5,305.1,211.4,303.8L211.4,303.8z M114,307c0.1-1.5,0.3-3,0.4-4.3l0,0l2.1,0.3c-0.2,1.3-0.3,2.7-0.4,4.2l0,0
			L114,307L114,307z M209.9,295.6l2.1-0.5c0.3,1,0.6,2.4,0.9,4.2l0,0l-2.1,0.4C210.5,297.9,210.1,296.5,209.9,295.6L209.9,295.6z
			 M115.2,298.4c0.5-2.2,0.9-3.5,0.9-3.5l0,0l0.2-0.7l5.1-0.1v2.1l-3.5,0.1c-0.2,0.6-0.4,1.4-0.6,2.6l0,0L115.2,298.4L115.2,298.4z
			 M125.8,294.1l4.3-0.1v2.1l-4.3,0.1V294.1L125.8,294.1z M134.4,293.9l4.3-0.1v2.1l-4.3,0.1V293.9L134.4,293.9z M143,293.8l4.3-0.1
			v2.1l-4.3,0.1V293.8L143,293.8z M151.6,293.7l4.3-0.1v2.1l-4.3,0.1V293.7L151.6,293.7z M160.3,293.5l4.3-0.1v2.1l-4.3,0.1V293.5
			L160.3,293.5z M168.9,293.4l4.3-0.1v2.1l-4.3,0.1V293.4L168.9,293.4z M177.5,293.3l4.3-0.1v2.1l-4.3,0.1V293.3L177.5,293.3z
			 M186.1,293.2l4.3-0.1v2.1l-4.3,0.1V293.2L186.1,293.2z M194.8,293l4.3-0.1v2.1l-4.3,0.1V293L194.8,293z M203.4,292.9l4.3-0.1v2.1
			l-4.3,0.1V292.9L203.4,292.9z"/>
	</g>
</g>
</svg>
