<?xml version="1.0" encoding="utf-8"?>
<!-- Generator: Adobe Illustrator 21.0.0, SVG Export Plug-In . SVG Version: 6.00 Build 0)  -->
<svg version="1.1" id="Layer_1" xmlns="http://www.w3.org/2000/svg" xmlns:xlink="http://www.w3.org/1999/xlink" x="0px" y="0px"
	 viewBox="0 0 525 750" style="enable-background:new 0 0 525 750;" xml:space="preserve">
<style type="text/css">
	.st0{fill:#FFCCD3;}
	.st1{fill:#FFE3E8;}
	.st2{fill:#FFABB9;}
	.st3{fill:#FF9FB4;}
	.st4{fill:#FF7885;}
	.st5{opacity:0.2;fill:#FFFFFF;enable-background:new    ;}
	.st6{fill:#FF5F76;}
	.st7{fill:#FFFFFF;}
	.st8{fill:#FF273C;}
	.st9{fill:#FF4560;}
</style>
<g>
	<path class="st0" d="M381.7,407.4c-0.3-10.6-0.6-20.5-0.6-29.3c0,0,25.5,33,69.5,2.8c43.8-30.2-0.9-58.5-0.9-58.5s32.9,10,23.8,53
		s-72.3,43.8-88.7,34.7L381.7,407.4z"/>
	<path class="st1" d="M450.4,380.8c5.6-3.9,9.7-7.7,12.7-11.4c-2.5,9.9-13.8,31.3-64.8,44.4c-5.8-0.8-10.6-2.2-13.6-3.9l-3-2.8
		c-0.3-10.6-0.6-20.5-0.6-29.3C381.1,378,406.6,411,450.4,380.8z"/>
	<path class="st2" d="M449.6,322.3c0,0,44.8,28.3,0.9,58.5c0,0,9.5-33.3-31.1-50.7c-40.7-17.4-54-26.9-47.6-62.1
		c0,0,0.9,18.3,19.7,27.9C410.2,305.4,449.6,322.3,449.6,322.3z"/>
	<path class="st3" d="M453.2,342c-16-12-55.1-31.9-66-48.8c1.4,0.9,2.8,1.9,4.4,2.7c18.8,9.5,58.1,26.4,58.1,26.4S485,344.7,462,371
		C462,358.3,459.8,347,453.2,342z"/>
	<path class="st0" d="M371.9,268c0,0,0.6,11.9,10.6,21.6c0,0-16.1-27.1,72.3-28.5l-17.5-15l11-11C448.2,235,389.2,228.9,371.9,268z"
		/>
	<path class="st1" d="M435.7,253.3l-5.9-8.4l7.8-10.2c6.6-0.2,10.8,0.3,10.8,0.3l-11,11l17.5,15c-45.4,0.6-63.2,8.1-69.8,15.2
		C378.4,259.2,435.7,253.3,435.7,253.3z"/>
	<path class="st4" d="M182.2,221.4l149.4-8.3c0,0-11,87.8,59,134.4c0,0,6.9,264.6,35.7,329.1c0,0-152.3,56.2-298.9,5.5
		c0,0,23.3-314,13.8-334.5C141.1,347.5,200.1,329.6,182.2,221.4z"/>
	<path class="st5" d="M356.8,314.5c-14.6-21-21.1-44-23.9-62.6l7.7,445.3c8-1.3,15.6-2.5,22.8-3.9L356.8,314.5z"/>
	<path class="st5" d="M294.7,702.1c7.8-0.5,15.5-1.3,22.8-2l-8.3-485.7l-22.8,1.3L294.7,702.1z"/>
	<path class="st5" d="M271.1,703.2l-8.3-486.3l-22.8,1.3l8.3,484.9C255.9,703.3,263.6,703.3,271.1,703.2z"/>
	<path class="st5" d="M219.1,219.3l-22.8,1.3l8.1,479.3c7.7,0.9,15.3,1.7,22.8,2.3L219.1,219.3z"/>
	<path class="st5" d="M180.3,299.3c-5.5,18.5-14.2,30.2-22.2,37.4l6.1,355.8c7.7,1.7,15.3,3.3,23,4.5L180.3,299.3z"/>
	<path class="st5" d="M377.5,337.3l5.9,351.4c8.8-2,16.4-4.1,22.7-5.9l-1.9-121.1c-10.5-97.3-13.5-214.2-13.5-214.2
		C385.9,344.4,381.6,340.9,377.5,337.3z"/>
	<path class="st6" d="M143.1,408c82.8-3.6,212,19.9,250,2.5c0,0,0,0,0-0.2c-0.2-2-0.2-3.9-0.3-5.9c0-0.6,0-1.3-0.2-1.7
		c0-1.4-0.2-2.7-0.2-4.1c0-0.8,0-1.4-0.2-2.2c0-1.3-0.2-2.5-0.2-3.6c0-0.6,0-1.1,0-1.7c0-1.4-0.2-3-0.2-4.4c0-0.2,0-0.5,0-0.6
		c-28.2-10.5-85.9-10-103.3-1.7c-22.8,11-70.4,10-88.7,6.4s-38.3-31.9-12.8-56.6c25.7-24.7,23.8-65.9,24.7-89.7
		c0.3-9.7,4.9-18.5,10-25.5l-39.7,2.2c17.8,108.3-41.2,126.1-41.2,126.1C143.6,352.6,143.9,376,143.1,408z"/>
	<path class="st6" d="M379.8,689.7c-5.8-9.4-24.4-18.8-79.6-11.7c-97.3,12.4-150.8-30.2-146.8-68.5c4.1-38.3,13.8-171.3,30.2-193.4
		c8.1-10.8-15-12.7-40.5-11.7c-2.2,96.1-15.6,277.7-15.6,277.7C224.3,715.5,323.5,702.4,379.8,689.7z"/>
	<path class="st0" d="M393.3,415.2c-0.5-10.8-0.9-20.7-1.3-29.4c-137.2,32.9-216.7,14.7-248.6,3.1c-0.2,8.8-0.3,18.6-0.6,29.3
		C249.3,458.6,364.4,424.9,393.3,415.2z"/>
	<path class="st1" d="M285.2,55.3c-67.1-20.5-107,28.8-109.7,65.9l6.9,100.1l149.4-8.3C331.6,213.1,352.3,76,285.2,55.3z M309,214.3
		L205.7,220c0,0-5.5-13.8-10.2-71.4C191,91,225.7,68.2,250.4,68.2s43.8,13.8,54,41.2C314.3,136.7,309,214.3,309,214.3z"/>
	<path class="st1" d="M393,407.1c-177,40.2-217.8,7.5-227.2-11.4c-9.1-2.2-16.6-4.5-22.4-6.7c-0.2,8.8-0.3,18.6-0.6,29.3
		c106.6,40.2,221.7,6.7,250.7-3C393.3,412.4,393.1,409.8,393,407.1z"/>
	<path class="st0" d="M196.3,158.1c-0.3-3-0.5-6.3-0.8-9.5C191,91,225.7,68.2,250.4,68.2s43.8,13.8,54,41.2c2,5.5,3.4,13.1,4.4,21.6
		c11.7-74.2-77-84.2-104.1-50.1C185.8,104.8,191.1,139.1,196.3,158.1z"/>
	<path class="st0" d="M197.7,493.6l159.9-2.5c0,0,31,99.4-79.5,98.3C167.8,588.5,197.7,493.6,197.7,493.6z"/>
	<g>
		<path class="st7" d="M278,503.2V519h-2v-15.8H278z"/>
	</g>
	<g>
		<path class="st7" d="M258.9,564.4c-1.1,0.5-3.1,1.1-5.8,1.1c-6.3,0-11-3.9-11-11.3c0-6.9,4.7-11.6,11.6-11.6
			c2.8,0,4.5,0.6,5.3,0.9l-0.6,2.3c-1.1-0.5-2.7-0.9-4.5-0.9c-5.2,0-8.6,3.3-8.6,9.1c0,5.5,3.1,8.9,8.4,8.9c1.7,0,3.6-0.3,4.7-0.9
			L258.9,564.4z"/>
		<path class="st7" d="M276.4,557c0,5.9-4.1,8.4-8,8.4c-4.4,0-7.7-3.1-7.7-8.1c0-5.3,3.4-8.4,7.8-8.4
			C273.3,548.9,276.4,552.2,276.4,557z M263.7,557.2c0,3.4,2,6.1,4.9,6.1c2.8,0,4.9-2.7,4.9-6.3c0-2.7-1.4-6.1-4.7-6.1
			C265.3,551.1,263.7,554.2,263.7,557.2z"/>
		<path class="st7" d="M294.4,557c0,5.9-4.1,8.4-8,8.4c-4.4,0-7.7-3.1-7.7-8.1c0-5.3,3.4-8.4,7.8-8.4
			C291.4,548.9,294.4,552.2,294.4,557z M281.9,557.2c0,3.4,2,6.1,4.9,6.1c2.8,0,4.9-2.7,4.9-6.3c0-2.7-1.4-6.1-4.7-6.1
			C283.3,551.1,281.9,554.2,281.9,557.2z"/>
		<path class="st7" d="M301,556.5L301,556.5c0.5-0.6,1.1-1.3,1.4-1.9l4.7-5.5h3.4l-6.1,6.6l7,9.4h-3.6l-5.5-7.7l-1.4,1.7v5.9h-2.8
			v-23.3h2.8V556.5z"/>
	</g>
	<path class="st8" d="M266.6,358c0,0-20.7-15-25.2-17.2c-4.5-2.2-28.2-18.2-22.2-33.6c5.8-15.5,28.5-23.8,47.1-4.9
		c0,0,12.5-13.5,30.7-10c18.2,3.4,28,26.3,0.3,44.8C269.5,355.3,266.6,358,266.6,358z"/>
	<g>
		<g>
			<path class="st9" d="M265.9,352l2.2-1.6l1.6,2.2l-2.2,1.6L265.9,352L265.9,352z M261.4,351.7l1.4-2.3c0.9,0.6,1.7,1.1,2.3,1.4
				l0,0l-1.4,2.3C263.1,352.6,262.3,352.2,261.4,351.7L261.4,351.7z M270.5,348.7l2.2-1.6l1.6,2.2l-2.2,1.6L270.5,348.7L270.5,348.7
				z M256.9,348.6l1.6-2.3c0.8,0.5,1.6,1.1,2.3,1.6l0,0l-1.6,2.3C258.4,349.7,257.6,349.2,256.9,348.6L256.9,348.6z M274.8,345.6
				l2.2-1.6l1.6,2.2l-2.2,1.6L274.8,345.6L274.8,345.6z M252.3,345.6l1.6-2.3c0.8,0.5,1.6,1.1,2.3,1.6l0,0l-1.6,2.3
				C253.7,346.5,252.9,346.1,252.3,345.6L252.3,345.6z M252.3,345.6L252.3,345.6L252.3,345.6L252.3,345.6L252.3,345.6L252.3,345.6z
				 M279.2,342.3l2.2-1.6l1.6,2.2l-2.2,1.6L279.2,342.3L279.2,342.3z M247.6,342.5l1.6-2.2c0.8,0.5,1.6,1.1,2.2,1.6l0,0l-1.6,2.2
				C249.2,343.6,248.4,342.9,247.6,342.5L247.6,342.5z M283.6,339l2.2-1.6l1.6,2.2l-2.2,1.6L283.6,339L283.6,339z M243.2,339.3
				l1.6-2.2c0.8,0.5,1.4,1.1,2.2,1.6l0,0l-1.6,2.2C244.6,340.3,243.9,339.8,243.2,339.3L243.2,339.3z M288.1,335.8l2.2-1.6l1.6,2.2
				l-2.2,1.6L288.1,335.8L288.1,335.8z M238.7,336.1l1.6-2.2c0.8,0.5,1.4,1.1,2.2,1.6l0,0l-1.6,2.2
				C240.3,337.2,239.5,336.5,238.7,336.1L238.7,336.1z M292.5,332.6l2.2-1.6l1.6,2.2l-2.2,1.6L292.5,332.6L292.5,332.6z
				 M234.3,332.6l1.7-2.2c0.6,0.6,1.4,1.1,2.2,1.7l0,0l-1.7,2.2C235.7,333.7,235.1,333.2,234.3,332.6L234.3,332.6z M296.9,329.3
				l2.2-1.6l1.6,2.2l-2.2,1.6L296.9,329.3L296.9,329.3z M230.1,329l1.9-2c0.6,0.6,1.3,1.1,2,1.7l0,0l-1.7,2
				C231.5,330.3,230.7,329.6,230.1,329L230.1,329z M301.1,326c0.6-0.5,1.3-1.1,1.9-1.9l0,0l2,1.9c-0.8,0.8-1.4,1.4-2,2l0,0
				L301.1,326L301.1,326z M226.3,324.5L226.3,324.5l2.3-1.4c0.5,0.8,0.9,1.4,1.4,2l0,0l-2.2,1.7C227.4,326,226.8,325.3,226.3,324.5
				L226.3,324.5z M304.9,322.1c0.5-0.6,1.1-1.4,1.6-2l0,0l2.3,1.6c-0.6,0.8-1.1,1.6-1.7,2.3l0,0L304.9,322.1L304.9,322.1z
				 M224.3,319l2.7-0.6c0.2,0.8,0.5,1.7,0.8,2.5l0,0l-2.5,0.9C224.8,320.9,224.5,319.9,224.3,319L224.3,319z M307.7,317.9
				c0.5-0.8,0.8-1.6,0.9-2.3l0,0l2.7,0.9c-0.3,0.9-0.8,1.9-1.1,2.7l0,0L307.7,317.9L307.7,317.9z M223.7,313.8c0-0.3,0-0.5,0-0.8
				l0,0l2.8,0.2c0,0.2,0,0.5,0,0.6l0,0c0,0.6,0,1.3,0.2,1.9l0,0L224,316C223.8,315.4,223.7,314.6,223.7,313.8L223.7,313.8z
				 M309.3,313.2c0-0.5,0.2-1.1,0.2-1.6l0,0c0-0.3,0-0.6,0-0.8l0,0l2.7-0.2c0,0.3,0,0.6,0,1.1l0,0c0,0.6,0,1.4-0.2,2l0,0
				L309.3,313.2L309.3,313.2z M224,310.2c0.2-0.9,0.3-1.9,0.6-2.8l0,0l2.7,0.8c-0.2,0.8-0.5,1.7-0.5,2.5l0,0L224,310.2L224,310.2z
				 M265.5,307.7c0,0-0.8-0.6-2.2-1.6l0,0l1.6-2.2c0.6,0.3,0.9,0.8,1.4,0.9l0,0c0.3-0.2,0.5-0.5,0.8-0.6l0,0l0,0l1.7,2.2
				c-0.5,0.5-0.9,0.8-1.6,1.3l0,0l-0.9,0.8L265.5,307.7L265.5,307.7z M307.9,306.2l2.3-1.4c0.5,0.9,0.9,1.9,1.3,2.8l0,0l-2.7,0.8
				C308.6,307.6,308.3,307,307.9,306.2L307.9,306.2z M225.6,304.6c0.3-0.9,0.8-1.7,1.3-2.7l0,0l0,0l2.3,1.4
				c-0.5,0.8-0.8,1.6-1.1,2.3l0,0L225.6,304.6L225.6,304.6z M269.2,302.6c0.8-0.5,1.6-1.1,2.3-1.6l0,0l1.4,2.3
				c-0.8,0.5-1.4,0.9-2.2,1.4l0,0L269.2,302.6L269.2,302.6z M258.7,303.2l1.4-2.3c0.8,0.5,1.6,0.9,2.3,1.6l0,0l-1.6,2.3
				C260.3,304.1,259.5,303.7,258.7,303.2L258.7,303.2z M304.7,302.3l1.9-2c0.8,0.6,1.4,1.4,2,2l0,0l-2,1.7
				C305.8,303.5,305.4,302.9,304.7,302.3L304.7,302.3z M274.1,299.6c0.8-0.5,1.7-0.9,2.5-1.3l0,0l1.1,2.5c-0.8,0.3-1.6,0.8-2.3,1.3
				l0,0L274.1,299.6L274.1,299.6z M254,300.5l1.3-2.5c0.9,0.5,1.7,0.9,2.5,1.3l0,0l0,0l-1.3,2.3C255.6,301.5,254.8,301,254,300.5
				L254,300.5z M228.5,299.6c0.6-0.8,1.3-1.6,2-2.2l0,0l0,0l1.9,2c-0.6,0.5-1.3,1.1-1.7,1.9l0,0L228.5,299.6L228.5,299.6z
				 M300.4,299.4l1.1-2.5c0.9,0.5,1.7,0.9,2.5,1.4l0,0l-1.6,2.3C301.9,300.2,301.1,299.9,300.4,299.4L300.4,299.4z M279.1,297.3
				c0.9-0.3,1.7-0.6,2.7-0.9l0,0l0.8,2.7c-0.8,0.3-1.7,0.5-2.5,0.8l0,0L279.1,297.3L279.1,297.3z M249.2,298.5l0.9-2.5
				c0.9,0.3,1.7,0.6,2.7,1.1l0,0l0,0l-1.1,2.5C250.7,299.1,250,298.8,249.2,298.5L249.2,298.5z M295.5,298l0.5-2.7
				c0.9,0.2,1.9,0.5,2.8,0.6l0,0l-0.8,2.7C297.2,298.4,296.4,298.2,295.5,298L295.5,298z M284.5,295.7c0.9-0.2,1.9-0.3,2.8-0.5l0,0
				l0.3,2.7c-0.8,0.2-1.7,0.3-2.5,0.5l0,0L284.5,295.7L284.5,295.7z M232.9,295.7c0.9-0.5,1.9-0.9,2.8-1.3l0,0l0,0l0.8,2.7
				c-0.8,0.2-1.6,0.6-2.2,0.9l0,0L232.9,295.7L232.9,295.7z M291.4,297.7c-0.3,0-0.8,0-1.1,0l0,0l-0.2-2.8c0.5,0,0.8,0,1.3,0l0,0
				c0.6,0,1.1,0,1.7,0l0,0l-0.2,2.7C292.5,297.7,291.9,297.7,291.4,297.7L291.4,297.7z M244,297.1l0.5-2.7c0.9,0.2,1.9,0.5,2.8,0.6
				l0,0l-0.8,2.7C245.7,297.4,245,297.3,244,297.1L244,297.1z M240.1,296.6c-0.3,0-0.8,0-1.1,0l0,0l-0.2-2.7c0.5,0,0.8,0,1.3,0l0,0
				c0.6,0,1.1,0,1.7,0l0,0l-0.2,2.7C241,296.6,240.6,296.6,240.1,296.6L240.1,296.6z M247.3,295.1L247.3,295.1L247.3,295.1
				L247.3,295.1L247.3,295.1z"/>
		</g>
	</g>
	<path class="st0" d="M142.8,418.4c0.3-10.6,0.6-20.5,0.6-29.3c0,0-25.5,33-69.5,2.8c-43.8-30.2,0.9-58.5,0.9-58.5s-32.9,10-23.8,53
		s72.3,43.8,88.7,34.7L142.8,418.4z"/>
	<path class="st1" d="M73.9,391.8c-5.6-3.9-9.7-7.7-12.7-11.4c2.5,9.9,13.8,31.3,64.8,44.4c5.8-0.8,10.6-2.2,13.6-3.9l3-2.8
		c0.3-10.6,0.6-20.5,0.6-29.3C143.4,389,117.7,422,73.9,391.8z"/>
	<path class="st3" d="M74.9,333.2c0,0-44.8,28.3-0.9,58.5c0,0-9.5-33.3,31.1-50.7c40.7-17.4,54-26.9,47.6-62.1
		c0,0-0.9,18.3-19.7,27.9C114.1,316.3,74.9,333.2,74.9,333.2z"/>
	<path class="st2" d="M71.1,353c16-12,55.1-31.9,66-48.8c-1.4,0.9-2.8,1.9-4.4,2.7c-18.8,9.5-58.1,26.4-58.1,26.4
		s-35.4,22.4-12.4,48.7C62.5,369.4,64.5,358,71.1,353z"/>
	<path class="st0" d="M152.5,278.9c0,0-0.6,11.9-10.6,21.6c0,0,16.1-27.1-72.3-28.3l17.5-15l-11-11
		C76.3,245.9,135.1,239.8,152.5,278.9z"/>
	<path class="st1" d="M88.8,264.2l5.9-8.4l-7.8-10.2c-6.6-0.2-10.8,0.3-10.8,0.3l11,11l-17.5,15c45.4,0.6,63.2,8.1,69.8,15.2
		C145.9,270.2,88.8,264.2,88.8,264.2z"/>
	<path class="st8" d="M277,542.5c0,0-5.2-5-6.4-5.6c-1.1-0.8-7-6.1-5.6-11.1c1.4-5.2,7.2-8,11.9-1.6c0,0,3.1-4.5,7.7-3.3
		c4.5,1.1,7,8.8,0.2,14.9C277.8,541.5,277,542.5,277,542.5z"/>
	<g>
		<path class="st7" d="M277.7,585.8c-1.4,0-2.8,0-4.1-0.2l0,0l0.2-3.3c1.3,0,2.7,0,4.1,0.2l0,0c0.5,0,1.1,0,1.6,0l0,0
			c0.3,0,0.8,0,1.1,0l0,0v3.3c-0.3,0-0.8,0-1.1,0l0,0C278.8,585.8,278.3,585.8,277.7,585.8L277.7,585.8z M287.1,582.4
			c2.3-0.2,4.5-0.3,6.6-0.5l0,0l0.3,3.3c-2.2,0.2-4.5,0.5-6.7,0.5l0,0L287.1,582.4L287.1,582.4z M260,584.7l0.5-3.3
			c2.2,0.3,4.4,0.5,6.6,0.6l0,0l-0.3,3.3C264.4,585.2,262.2,585,260,584.7L260,584.7z M300.2,580.9c2.2-0.3,4.4-0.8,6.6-1.3l0,0
			l0.8,3.3c-2.2,0.5-4.4,0.9-6.7,1.3l0,0L300.2,580.9L300.2,580.9z M246.5,582.2l0.8-3.3c2,0.5,4.2,0.9,6.4,1.4l0,0l-0.6,3.3
			C250.9,583.1,248.7,582.7,246.5,582.2L246.5,582.2z M293.6,581.9L293.6,581.9L293.6,581.9L293.6,581.9L293.6,581.9L293.6,581.9z
			 M313.2,578c2.2-0.6,4.2-1.4,6.1-2.2l0,0l1.4,3.1c-2,0.8-4.2,1.7-6.4,2.3l0,0L313.2,578L313.2,578z M253.9,580.3L253.9,580.3
			L253.9,580.3L253.9,580.3L253.9,580.3z M233.5,577.7l1.4-3c1.9,0.8,3.9,1.7,6.1,2.3l0,0l-1.1,3.1
			C237.8,579.4,235.6,578.6,233.5,577.7L233.5,577.7z M306.8,579.7L306.8,579.7L306.8,579.7L306.8,579.7L306.8,579.7L306.8,579.7z
			 M325.2,572.8c2-1.1,3.8-2.2,5.5-3.4l0,0l2,2.7c-1.9,1.3-3.8,2.5-5.8,3.8l0,0L325.2,572.8L325.2,572.8z M221.6,570.9l2-2.7
			c1.7,1.3,3.4,2.3,5.5,3.6l0,0l-1.7,2.8C225.4,573.4,223.4,572.2,221.6,570.9L221.6,570.9z M335.7,565.3c1.6-1.6,3.1-3.1,4.4-4.7
			l0,0l2.7,2c-1.4,1.7-3,3.4-4.7,5l0,0L335.7,565.3L335.7,565.3z M211.6,561.4l2.7-2c1.3,1.6,2.8,3.3,4.4,4.7l0,0l0,0l-2.3,2.3
			C214.6,564.8,213,563.1,211.6,561.4L211.6,561.4z M343.9,555.3c1.1-1.9,2.2-3.8,3-5.6l0,0l3.1,1.4c-0.9,2-2,4.1-3.3,6.1l0,0
			L343.9,555.3L343.9,555.3z M204.4,549.7l3.1-1.3c0.8,1.9,1.9,3.9,3,5.8l0,0l-3,1.7C206.5,553.7,205.4,551.7,204.4,549.7
			L204.4,549.7z M349.2,543.6c0.6-2,1.3-4.2,1.6-6.3l0,0l3.3,0.6c-0.5,2.2-0.9,4.4-1.7,6.6l0,0L349.2,543.6L349.2,543.6z
			 M200.5,536.5l3.3-0.6c0.5,2,0.9,4.2,1.6,6.3l0,0l-3.3,0.9C201.5,541,200.8,538.7,200.5,536.5L200.5,536.5z M351.8,530.9
			c0.3-2.2,0.3-4.4,0.5-6.6l0,0l0,0l3.4,0.2c0,2.2-0.2,4.5-0.5,6.7l0,0L351.8,530.9L351.8,530.9z M199.1,523.1h3.4
			c0,2,0.2,4.2,0.3,6.6l0,0l0,0l-3.3,0.3C199.3,527.6,199.1,525.2,199.1,523.1L199.1,523.1z M351.7,511.3l3.3-0.3
			c0.3,2,0.5,4.4,0.5,6.7l0,0l-3.4,0.2C352,515.5,351.8,513.4,351.7,511.3L351.7,511.3z M199.3,516.3c0.2-2.3,0.5-4.7,0.6-6.7l0,0
			l3.3,0.5c-0.3,2-0.5,4.2-0.6,6.6l0,0L199.3,516.3L199.3,516.3z M349.3,498.5l3.3-0.8c0.5,1.6,0.9,3.8,1.4,6.6l0,0l-3.3,0.6
			C350.3,502.1,349.6,499.9,349.3,498.5L349.3,498.5z M201.1,502.9c0.8-3.4,1.4-5.5,1.4-5.5l0,0l0.3-1.1l8-0.2v3.3l-5.5,0.2
			c-0.3,0.9-0.6,2.2-0.9,4.1l0,0L201.1,502.9L201.1,502.9z M217.7,496.1l6.7-0.2v3.3l-6.7,0.2V496.1L217.7,496.1z M231.2,495.8
			l6.7-0.2v3.3l-6.7,0.2V495.8L231.2,495.8z M244.6,495.7l6.7-0.2v3.3l-6.7,0.2V495.7L244.6,495.7z M258.1,495.5l6.7-0.2v3.3
			l-6.7,0.2V495.5L258.1,495.5z M271.7,495.2l6.7-0.2v3.3l-6.7,0.2V495.2L271.7,495.2z M285.2,495l6.7-0.2v3.3l-6.7,0.2V495
			L285.2,495z M298.6,494.9l6.7-0.2v3.3l-6.7,0.2V494.9L298.6,494.9z M312.1,494.7l6.7-0.2v3.3l-6.7,0.2V494.7L312.1,494.7z
			 M325.7,494.4l6.7-0.2v3.3l-6.7,0.2V494.4L325.7,494.4z M339.2,494.3l6.7-0.2v3.3l-6.7,0.2V494.3L339.2,494.3z"/>
	</g>
</g>
</svg>
