<?xml version="1.0" encoding="utf-8"?>
<!-- Generator: Adobe Illustrator 21.0.0, SVG Export Plug-In . SVG Version: 6.00 Build 0)  -->
<svg version="1.1" id="Layer_1" xmlns="http://www.w3.org/2000/svg" xmlns:xlink="http://www.w3.org/1999/xlink" x="0px" y="0px"
	 viewBox="0 0 525 750" style="enable-background:new 0 0 525 750;" xml:space="preserve">
<style type="text/css">
	.st0{fill:#D85F3F;}
	.st1{fill:#BC371D;}
	.st2{fill:#EAAE96;}
</style>
<g>
	<g>
		<g>
			<path class="st0" d="M198,601.7c3.4-17.9,27.9-62.4,47.9-79.3c20-16.9,83.6-40,103.1-54.6c19.4-14.6,28.2-45.2,55.6-75.6
				c18.3-20.3,56.9-41.9,63.7-44.4c6.9-2.4-1-15.6-7.4-28.7c-11.8-23.8-32.6-53-40.3-54.1c-12-1.6-57.3,19.3-84.7,49.7
				c-27.4,30.4-36.2,60.9-55.6,75.6c-19.4,14.6-83,37.7-103.1,54.6c-20,16.9-44.5,61.4-47.9,79.3c-2.2,11.7,20,43.9,40.7,65.5
				C189.2,609.5,197.5,604.2,198,601.7z"/>
			<path class="st1" d="M405.1,384c-28.4,31.3-37.9,62.5-57.9,77.6c-20.1,15.2-85.2,39.7-105.9,57.1c-20.7,17.5-46.4,63-50.2,81.3
				c-0.2,1-1.6,2.4-4.3,2.7c7.4,3.3,10.9,0.6,11.2-1c3.4-17.9,27.9-62.4,47.9-79.3c20-16.9,83.6-40,103.1-54.6
				c19.4-14.6,28.2-45.2,55.6-75.6c18.3-20.3,56.9-41.9,63.7-44.4c3.3-1.2,3.2-4.8,1.5-9.6C460.9,342.1,423.4,363.8,405.1,384z"/>
			<g>
				<path class="st2" d="M349.9,328.8c-28.4,31.4-37.7,62.9-57.8,78.1c-20.1,15.2-85.8,39.4-106.5,56.9
					c-20.4,17.2-45.3,61.6-49.7,80.7c2.4,4.4,5.4,9.1,8.7,13.9c5.3-19.8,29.5-62.5,49.4-79.2c20.8-17.5,86.4-41.7,106.5-56.9
					c20.1-15.2,29.4-46.6,57.8-78.1c28.1-31.1,74.4-52.9,87.2-51.7c-3.8-5.7-7.6-11-11.2-15.3C418.5,278.8,376.3,299.7,349.9,328.8z
					"/>
				<path class="st2" d="M465.3,328c-1.4-2.9-3-5.8-4.4-8.8c-1.1-2.2-2.2-4.4-3.5-6.7c-17.4,3.3-56.8,23.6-81.8,51.3
					c-28.4,31.4-37.7,62.9-57.8,78.1c-20.1,15.2-85.8,39.4-106.5,56.9c-20.6,17.4-46,62.7-49.9,81.4c2.9,3.3,5.7,6.5,8.6,9.5
					c0.3,0.4,0.7,0.7,1,1c6.6-20.8,29.6-60.5,48.6-76.5c20.8-17.5,86.4-41.7,106.5-56.9c20.1-15.2,29.4-46.6,57.8-78.1
					C408.8,351.7,447.7,331.6,465.3,328z"/>
			</g>
		</g>
	</g>
	<g>
		<g>
			<path class="st0" d="M131.4,506.6c0.9-18.2,18.9-65.7,36.3-85.2c17.5-19.5,77.2-51.3,94.4-68.5c17.2-17.2,21.6-48.7,44.5-82.6
				c15.3-22.7,50.4-49.5,56.9-52.9c6.5-3.4-3.2-15.3-11.4-27.4c-15-21.9-39.8-47.9-47.5-47.9c-12.1,0-54.1,27.1-76.9,61.1
				c-22.8,33.9-27.3,65.4-44.5,82.6c-17.2,17.2-76.9,49-94.4,68.5c-17.5,19.5-35.5,67-36.3,85.2c-0.6,11.9,25.9,40.7,49.5,59.1
				C123.8,515.6,131.3,509.3,131.4,506.6z"/>
			<path class="st1" d="M305.9,262c-23.7,35-28.7,67.2-46.5,85c-17.7,17.8-78.8,51.2-96.9,71.4c-18.1,20.2-37.1,68.9-38.3,87.5
				c-0.1,1-1.2,2.6-3.8,3.3c7.8,2.3,10.9-0.9,11-2.6c0.9-18.2,18.9-65.7,36.3-85.2c17.5-19.5,77.2-51.3,94.4-68.5
				c17.2-17.2,21.6-48.7,44.5-82.6c15.3-22.7,50.4-49.5,56.9-52.9c3.1-1.6,2.5-5.2,0.2-9.7C355.3,212.7,321.2,239.5,305.9,262z"/>
			<g>
				<path class="st2" d="M243.6,215.2c-23.7,35.1-28.5,67.6-46.3,85.4c-17.8,17.8-79.4,51-97.5,71.3c-17.8,19.9-36.2,67.4-37.9,86.9
					c3,4,6.6,8.2,10.5,12.5c2.4-20.4,20.4-66,37.8-85.3c18.1-20.3,79.7-53.5,97.5-71.3c17.8-17.8,22.6-50.3,46.3-85.4
					c23.5-34.8,66.2-62.8,79.1-63.4c-4.5-5.1-9.1-9.8-13.2-13.6C304.4,156,265.6,182.6,243.6,215.2z"/>
				<path class="st2" d="M357.7,198.2c-1.8-2.6-3.8-5.4-5.6-8.1c-1.4-2-2.8-4.1-4.4-6.1c-16.8,5.7-52.9,31.3-73.8,62.3
					c-23.7,35.1-28.5,67.6-46.3,85.4c-17.8,17.8-79.4,51-97.5,71.3c-18,20.1-36.7,68.6-38,87.6c3.3,2.9,6.6,5.6,9.9,8.2
					c0.4,0.3,0.8,0.6,1.2,0.9c3.6-21.5,20.8-64,37.4-82.6c18.1-20.3,79.7-53.5,97.5-71.3c17.8-17.8,22.6-50.3,46.3-85.4
					C305.1,229.6,340.8,204.2,357.7,198.2z"/>
			</g>
		</g>
	</g>
</g>
</svg>
