<?xml version="1.0" encoding="utf-8"?>
<!-- Generator: Adobe Illustrator 21.0.0, SVG Export Plug-In . SVG Version: 6.00 Build 0)  -->
<svg version="1.1" id="Layer_1" xmlns="http://www.w3.org/2000/svg" xmlns:xlink="http://www.w3.org/1999/xlink" x="0px" y="0px"
	 viewBox="0 0 525 750" style="enable-background:new 0 0 525 750;" xml:space="preserve">
<style type="text/css">
	.st0{fill:#282618;}
	.st1{fill:#808080;}
	.st2{fill:#A2C2CC;}
	.st3{opacity:0.2;fill:#FFFFFF;}
	.st4{fill:#B3B3B3;}
	.st5{fill:#999999;}
	.st6{fill:#CEE9F4;}
	.st7{fill:#F3FDFF;}
	.st8{fill:#CECECE;}
	.st9{fill:#A5A5A5;}
	.st10{fill:#B7B7B7;}
	.st11{fill:#020202;}
	.st12{fill:#E3F6FC;}
	.st13{fill:#FFFFFF;}
	.st14{fill:#FF9D00;}
	.st15{fill:#B1D3DD;}
</style>
<g>
	<path class="st0" d="M186.6,684.9c-0.2,5.2-4.6,9.3-9.8,9.1l-14.1-0.5c-5.2-0.2-9.3-4.6-9.1-9.8l0.4-9.4c0.2-5.2,4.6-9.3,9.8-9.1
		l14.1,0.5c5.2,0.2,9.3,4.6,9.1,9.8L186.6,684.9z"/>
	<path class="st0" d="M384.5,681.8c-0.2,5.2-4.6,9.3-9.8,9.1l-14.1-0.5c-5.2-0.2-9.3-4.6-9.1-9.8l0.4-9.4c0.2-5.2,4.6-9.3,9.8-9.1
		l14.1,0.5c5.2,0.2,9.3,4.6,9.1,9.8L384.5,681.8z"/>
	<path class="st1" d="M125.8,563.6c0,0,14.4-150.8,129.6-157.5c115.2-6.7,139.4,123.5,140.1,169.3c0.6,45.7-1.9,91.4-1.9,91.4
		s-142,49.8-269.2-3.9C124.4,662.9,123.5,602.9,125.8,563.6z"/>
	<path class="st2" d="M359.2,154.1c0,0,60.5-10.7,68.1,68.6c7.6,79.3,6,122.8-3.8,133c-9.8,10.2-68.2,26.9-103.2,18.5l10.2-19.6
		c0,0,47.1,1.8,62.9-10.6c15.8-12.4,11.5-117.4,2.7-134.3c-8.8-16.8-17.7-30.1-49-12.5C315.6,214.9,324.1,146.9,359.2,154.1z"/>
	<path class="st3" d="M393.6,666.7c0,0,0.3-5.7,0.7-15c-244.6,28.8-222.5-15.2-226.5-94.4c-2.6-52.8,30.9-110.8,54.3-144.5
		c-84.8,30.3-96.3,150.8-96.3,150.8c-2.3,39.3-1.4,99.3-1.4,99.3C251.5,716.6,393.6,666.7,393.6,666.7z"/>
	<path class="st4" d="M331.2,554.9c1.5-39.6-29.4-73-68.9-74.5c-39.6-1.5-72.9,29.4-74.4,69c-1.5,39.6,29.4,73,68.9,74.4
		C296.4,625.4,329.7,594.5,331.2,554.9z"/>
	<path class="st5" d="M304.2,553.9c0.9-24.7-18.3-45.5-43-46.4c-24.7-0.9-45.4,18.3-46.4,43c-0.9,24.7,18.3,45.5,43,46.4
		C282.5,597.8,303.2,578.6,304.2,553.9z"/>
	<path class="st4" d="M297,544.3c-0.6,16.1-14.9,28.6-31.9,27.9c-17-0.6-30.3-14.2-29.7-30.2c0.6-16.1,14.9-28.6,31.9-27.9
		C284.3,514.7,297.6,528.2,297,544.3z"/>
	<polygon class="st5" points="265.2,564.4 251.7,558.5 266.8,524.1 280.3,530.1 	"/>
	<path class="st6" d="M364.5,107.7c-6.5,32.2-188.5,44.7-260.8-6.3c0,0,31.1,25.7,26,56.2c-5.1,30.4-1.1,132.7,7.3,160.6
		c8.4,27.8,43.1,87.3,68.4,102.4c0,0,77.5,7.6,109.3-2.9c0,0,45.9-72.1,52.3-158.3c6.4-86.2,15-165.1-2.7-155.5L364.5,107.7z"/>
	<path class="st7" d="M268.7,403.4c-35.1-15.8-68.5-54.8-81.1-96.7c-14.9-49.7-10.1-137.9-6.9-177c-16.2-2.9-31.6-6.9-45.5-12.1
		c6.3,14,12.4,33.4,11.2,54.8c-2.4,42.3-13.5,170,50.6,219.6C222.5,411.6,247.4,412.4,268.7,403.4z"/>
	<path class="st8" d="M103.6,101.4c0,0,36.7-5.1,55.5-17.3c18.7-12.3,211.9-8.5,205.4,23.7C357.9,139.9,176,152.5,103.6,101.4z"/>
	<path class="st9" d="M164.9,85.4c0,0,63.3,39.7,160.3,8.8c0,0-12.5-23.3-22.5-27.2c0,0-35.7-11.2-109-6.1
		C193.8,61,181,65.6,164.9,85.4z"/>
	
		<ellipse transform="matrix(3.776879e-02 -0.9993 0.9993 3.776879e-02 185.8897 292.4829)" class="st8" cx="244.8" cy="49.7" rx="8.4" ry="35.5"/>
	<path class="st10" d="M231.8,48.5c-1.5-1.7-0.2-4.6,1.5-7.1c-13.8,0.6-23.7,3.4-23.9,7c-0.2,4.6,15.6,9,35.1,9.7
		c19,0.7,34.5-2.2,35.7-6.6C254.8,57.5,234.5,51.7,231.8,48.5z"/>
	<path class="st8" d="M280.3,51.1c-0.2,4.6-16.2,7.8-35.8,7s-35.3-5.1-35.1-9.7l-0.5,29.3c0,0,36.9,12.9,71.6,0.1L280.3,51.1z"/>
	<path class="st10" d="M280.4,77.7l0-5.7c-21.1,2.5-48.1,2.9-51.6-0.9c-1.8-1.9-2.9-8.1-3.6-15.1c-9.6-1.9-16-4.7-15.8-7.6
		l-0.5,29.3C208.8,77.7,245.8,90.6,280.4,77.7z"/>
	<path class="st11" d="M281.6,180c-84.7,1.2-113.3-34.7-122.7-55c-8.3-2.1-16.3-4.6-23.8-7.4c6,13.4,11.7,31.7,11.2,51.8
		C176.8,179.1,223.9,188.1,281.6,180z"/>
	<path class="st12" d="M331.4,327.9c8.9-37.5,17.5-161.2,26.9-211.7c-28.8,22-148.6,29.5-223.1,1.4c6.3,14,12.4,33.4,11.2,54.8
		c-2.4,42.3-13.5,170,50.6,219.6C261.1,441.5,321.1,371.5,331.4,327.9z"/>
	<path class="st13" d="M333.7,190.5c0,0,15.4,81.9-18.4,101.8c0,0-4.9-6.5-4.4-38.3c0.4-31.8-5.7-56.4,1.1-60.8
		C318.9,188.8,329.2,184.5,333.7,190.5z"/>
	<path class="st14" d="M331.4,327.9c4.1-17.3,8.1-53,12.2-91.4c-92.4,29.6-173.4,6.6-199.5-2.6c0.4,54.5,9.2,124.4,52.8,158.1
		C261.1,441.5,321.1,371.5,331.4,327.9z"/>
	
		<rect x="284.9" y="175.8" transform="matrix(3.776879e-02 -0.9993 0.9993 3.776879e-02 80.2831 478.1036)" class="st15" width="7.1" height="43.2"/>
	
		<rect x="283.2" y="220.1" transform="matrix(3.776879e-02 -0.9993 0.9993 3.776879e-02 34.3718 519.0857)" class="st15" width="7.1" height="43.2"/>
	
		<rect x="281.6" y="261.3" transform="matrix(3.776879e-02 -0.9993 0.9993 3.776879e-02 -8.2864 557.1639)" class="st15" width="7.1" height="43.2"/>
	
		<rect x="280.2" y="300.1" transform="matrix(3.776879e-02 -0.9993 0.9993 3.776879e-02 -48.5069 593.0662)" class="st15" width="7.1" height="43.2"/>
	<path class="st9" d="M135.2,117.6c6,13.4,11.7,31.7,11.2,51.8c42,13.4,115.8,25.7,205.3-7c2.2-18.1,4.3-34.2,6.6-46.2
		C329.4,138.2,209.6,145.7,135.2,117.6z"/>
</g>
</svg>
