<?xml version="1.0" encoding="utf-8"?>
<!-- Generator: Adobe Illustrator 21.0.0, SVG Export Plug-In . SVG Version: 6.00 Build 0)  -->
<svg version="1.1" id="Layer_1" xmlns="http://www.w3.org/2000/svg" xmlns:xlink="http://www.w3.org/1999/xlink" x="0px" y="0px"
	 viewBox="0 0 525 750" style="enable-background:new 0 0 525 750;" xml:space="preserve">
<style type="text/css">
	.st0{fill:#E19947;}
	.st1{fill:url(#SVGID_1_);}
	.st2{fill:url(#SVGID_2_);}
	.st3{fill:#B90000;}
	.st4{fill:url(#SVGID_3_);}
	.st5{fill:url(#SVGID_4_);}
	.st6{fill:url(#SVGID_5_);}
	.st7{fill:url(#SVGID_6_);}
</style>
<g>
	<g>
		<path class="st0" d="M487,428.2c0,0,0,17.9,0,30.9c0,32.4-100.4,58.6-224.2,58.6c-123.8,0-224.2-26.2-224.2-58.6
			c0-12.1,0-30.9,0-30.9H487z"/>
		<radialGradient id="SVGID_1_" cx="383.8898" cy="459.7036" r="492.851" gradientUnits="userSpaceOnUse">
			<stop  offset="2.234640e-02" style="stop-color:#EAC36A"/>
			<stop  offset="0.801" style="stop-color:#ECB56A"/>
			<stop  offset="1" style="stop-color:#ECB06A"/>
		</radialGradient>
		<ellipse class="st1" cx="262.8" cy="428.2" rx="224.2" ry="58.6"/>
	</g>
	<g>
		<g>
			<g>
				
					<linearGradient id="SVGID_2_" gradientUnits="userSpaceOnUse" x1="331.8379" y1="408.9004" x2="-160.9907" y2="405.4778" gradientTransform="matrix(0.9922 -0.1249 0.1249 0.9922 11.4451 -19.9392)">
					<stop  offset="0" style="stop-color:#F7BA14"/>
					<stop  offset="1" style="stop-color:#F4D01A"/>
				</linearGradient>
				<path class="st2" d="M368.1,418.6l-2.5-67.3c-2.3-0.5-4.2-2.4-4.5-4.9c-0.4-2.8,1.4-5.4,4.1-6.2l-1.9-50.9l-57.4-58.2l-1.5,0.1
					c-0.4,0-40.7,2.7-86.7,12.6c-48.4,10.4-72.1,19.3-81.8,30.8c-10.8,12.9-12.3,47.4-4.1,99.9c8.5,54.8,24.6,80,25.3,81l0.9,1.4
					L370,470.8l-1-27.8c-3.4-1.4-6-6.3-6.1-12.3C362.9,425.2,365,420.4,368.1,418.6z"/>
				<path class="st3" d="M159.8,453.9c0,0-16.3-25-24.8-79.8c-8.5-54.7-5.9-86.3,3.4-97.3c8.4-10,192.1,10.5,225,14.2l-0.1-1.7
					l-57.4-58.2l-1.5,0.1c-0.4,0-40.7,2.7-86.7,12.6c-48.4,10.4-72.1,19.3-81.8,30.8c-10.8,12.9-12.3,47.4-4.1,99.9
					c8.5,54.8,24.6,80,25.3,81l0.9,1.4L370,470.8l-0.1-3.4L159.8,453.9z"/>
			</g>
			<g>
				<linearGradient id="SVGID_3_" gradientUnits="userSpaceOnUse" x1="147.6797" y1="331.5205" x2="160.7137" y2="331.5205">
					<stop  offset="0" style="stop-color:#E69C0C"/>
					<stop  offset="1" style="stop-color:#F5C000"/>
				</linearGradient>
				<circle class="st4" cx="154.2" cy="331.5" r="6.5"/>
				<linearGradient id="SVGID_4_" gradientUnits="userSpaceOnUse" x1="180.6781" y1="420.5326" x2="193.708" y2="420.5326">
					<stop  offset="0" style="stop-color:#E69C0C"/>
					<stop  offset="1" style="stop-color:#F5C000"/>
				</linearGradient>
				<circle class="st5" cx="187.2" cy="420.5" r="6.5"/>
				<linearGradient id="SVGID_5_" gradientUnits="userSpaceOnUse" x1="232.2662" y1="326.8926" x2="259.9576" y2="326.8926">
					<stop  offset="0" style="stop-color:#E69C0C"/>
					<stop  offset="1" style="stop-color:#F5C000"/>
				</linearGradient>
				<circle class="st6" cx="246.1" cy="326.9" r="13.8"/>
				<linearGradient id="SVGID_6_" gradientUnits="userSpaceOnUse" x1="268.8401" y1="411.9648" x2="296.5313" y2="411.9648">
					<stop  offset="0" style="stop-color:#E69C0C"/>
					<stop  offset="1" style="stop-color:#F5C000"/>
				</linearGradient>
				<circle class="st7" cx="282.7" cy="412" r="13.8"/>
			</g>
		</g>
	</g>
</g>
</svg>
