<?xml version="1.0" encoding="utf-8"?>
<!-- Generator: Adobe Illustrator 21.0.0, SVG Export Plug-In . SVG Version: 6.00 Build 0)  -->
<svg version="1.1" id="Layer_1" xmlns="http://www.w3.org/2000/svg" xmlns:xlink="http://www.w3.org/1999/xlink" x="0px" y="0px"
	 viewBox="0 0 525 750" style="enable-background:new 0 0 525 750;" xml:space="preserve">
<style type="text/css">
	.st0{fill:#FFDCE7;}
	.st1{fill:#EDA4BF;}
	.st2{fill:#EDC7BA;}
	.st3{fill:#FCAECE;}
	.st4{fill:#F9C0D5;}
	.st5{fill:#ACA7A3;}
</style>
<g>
	<path class="st0" d="M186.3,258.1l-38.6,21.7c0,0,4.4,20.3,5.6,44.7c1.2,24.4-1.6,67.1,4.7,79c6.4,11.9,11.5,20.8,11.5,20.8
		s-67.3,44.1-73.6,73.8c-6.3,29.6-19.6,78.8-13.2,90.7C89,600.6,154,635,198.2,636.5c44.2,1.5,191.9,18.6,208.7,2.5
		c16.8-16,7-125.4-5.8-149.2c-12.7-23.7-25.6-44.6-25.6-44.6s13.2-26.3,14.3-63.4c1.1-37.1,18.6-86,18.6-86s-40.8-31.3-63.5-34.3
		C322.2,258.6,186.3,258.1,186.3,258.1z"/>
	<path class="st0" d="M186.3,258.1l-38.6,21.7c0,0,4.4,20.3,5.6,44.7c1.2,24.4-1.6,67.1,4.7,79c6.4,11.9,11.5,20.8,11.5,20.8
		s-67.3,44.1-73.6,73.8c-6.3,29.6-19.6,78.8-13.2,90.7C89,600.6,154,635,198.2,636.5c44.2,1.5,191.9,18.6,208.7,2.5
		c16.8-16,7-125.4-5.8-149.2c-12.7-23.7-25.6-44.6-25.6-44.6s13.2-26.3,14.3-63.4c1.1-37.1,18.6-86,18.6-86s-40.8-31.3-63.5-34.3
		C322.2,258.6,186.3,258.1,186.3,258.1z"/>
	<path class="st0" d="M186.3,258.1l-38.6,21.7c0,0,4.4,20.3,5.6,44.7c1.2,24.4-1.6,67.1,4.7,79c6.4,11.9,11.5,20.8,11.5,20.8
		s-67.3,44.1-73.6,73.8c-6.3,29.6-19.6,78.8-13.2,90.7C89,600.6,154,635,198.2,636.5c44.2,1.5,191.9,18.6,208.7,2.5
		c16.8-16,7-125.4-5.8-149.2c-12.7-23.7-25.6-44.6-25.6-44.6s13.2-26.3,14.3-63.4c1.1-37.1,18.6-86,18.6-86s-40.8-31.3-63.5-34.3
		C322.2,258.6,186.3,258.1,186.3,258.1z"/>
	<path class="st1" d="M416.5,555.2c-5.2-0.5-74.3-7-74.3-7c-23.4-2.3-60.5,0.8-62.1,0.9c0,0-33.6-0.9-34.3-0.9
		c-6.1-1.7-109.1-30.3-149.8-42c-0.4,1.8-0.8,3.7-1.3,5.6c41.9,12,148.7,41.7,149.8,42l0.3,0.1l35.3,0.9c0.7,0,38.4-3.1,61.4-0.9
		l75.3,7.1C416.8,559.1,416.7,557.2,416.5,555.2z M292.4,448.9c3-0.4,45.3-5.3,59.8-2.4c12.9,2.6,24.9,4.3,28.7,4.7
		c3.3,4.7,6.7,9.9,10.2,15.1c-6-10.4-10.8-18.3-12.5-21.2c-5.3-0.7-15-2.2-25.2-4.3c-15.8-3.2-60,2.1-61.9,2.3l-0.3,0l-0.3,0.1
		c-0.2,0.1-16.5,6-30-3.3c-14.6-10-80.2-17.5-89.8-18.5c0.5,0.9,0.8,1.4,0.8,1.4s-0.8,0.6-2.3,1.5l-0.3,2.6
		c20.5,2.2,76.5,9.6,88.3,17.7C272.9,455.4,290.3,449.7,292.4,448.9z"/>
	<path class="st2" d="M399.8,484.3c0,0-21.3,40.1-25,53.4c-3.8,13.3-1.8,27.1,17.1,32.6c18.9,5.6,30.9-2.2,30.9-2.2l-7.5-69.9
		L399.8,484.3z"/>
	<path class="st2" d="M142.1,444.9l-5.7,21.1c0,0,37.4,50.4,28.8,71.3c-8.5,20.9-31.5,43-76.1,25.7c-44.6-17.3,13.4-93.5,13.4-93.5
		L142.1,444.9z"/>
	<path class="st3" d="M290.6,367.4c-21.4-22.2-43.1-28.6-43.1-28.6s12.9,30.9,8.6,64.2c-3.8,29.1-25.4,193.9-30.9,235.2
		c15.9,1.2,35.1,2.7,55.1,4.1c1.1-30.1,4.1-95.9,9.3-142.7C296.6,437.2,312,389.5,290.6,367.4z"/>
	<path class="st0" d="M200.1,276.9c0,0-30.5-25.6-42.2-42.9c-11.7-17.2-16-39-0.8-63c15.2-24,85.5-91.5,159.7-56.5
		c74.2,35,102.7,101.3,96.4,119.5c-6.2,18.2-49.9,72.5-66.7,77.1c-16.8,4.6-63.3,5.1-63.3,5.1s-51.7,3-53.8,2.1
		C227.4,317.4,200.1,276.9,200.1,276.9z"/>
	<path class="st2" d="M211,284.8c0,0-49.6-49.8-50.3-72c-0.7-22.2,14.9-72.7,55.2-87.1c40.3-14.5,97.1-8.5,122.7,4.6
		c25.6,13.2,56.3,78.1,52.4,92.9c-3.8,14.8-36.9,28.3-46.2,28.4c-9.3,0.1-73.1,1.5-73.1,1.5l-2.8,62.8l-29.8-4.1L211,284.8z"/>
	<path class="st1" d="M339.3,301.3c0,0,30.1-23,43-22.9L339.3,301.3z"/>
	<path class="st0" d="M147.7,279.9c0,0-56,45.6-66.2,59.2c-10.2,13.6-4.5,24-4.5,24s-20.5,7.2-26.4,41.1
		c-5.8,33.9,3.5,54.6,3.5,54.6s-11.5,12.1-8.2,25.9c3.4,13.8,8.5,75.7,36.3,78.2c27.7,2.6,70.8-0.3,75.8-20.7
		c4.9-20.4-5.6-33.3-11.9-46.6c-6.3-13.3-18.7-31.3-18.7-31.3s5.7,0.4,12.1-20.6c6.4-21,7.3-45.3,7.3-45.3s5.4,0.3,8.4-4.8
		c-2.7-17.7-1-49.4-2-69.2C152,300.2,147.7,279.9,147.7,279.9z"/>
	<path class="st0" d="M475.2,472.7c0,0,7.5-5.9,10.4-16.5c2.8-10.5,0.6-41.4-3.6-53.9c-4.2-12.4-16.3-24-16.3-24
		s-0.9-29.4-14.1-45.3s-43.3-37.2-43.3-37.2s-17.6,48.9-18.6,86c-0.2,8.2-1.1,15.8-2.2,22.7c0.3,1.5,0.7,2.6,1.2,2.9
		c4.1,3.1,11,6.5,11,6.5s-5.9,13.2,0.9,28.7c6.8,15.5,11.2,25.8,11.2,25.8s-4.7,6.8-10.3,14.3c-5.5,7.5-21.4,52.9-22.6,60
		c-1.2,7.1-0.2,14.3,12.8,22.3c13.1,8,47.4,8.2,60.5,4c13.1-4.1,26.3-61.9,30.4-70.2C486.9,490.6,475.2,472.7,475.2,472.7z"/>
	<path class="st1" d="M150.7,397.7c-0.8-0.6-1.4-1-1.8-1.3c-2.1-3.2-18.5-27.7-42.8-33.5c-16.5-4-25.8-4.4-30.4-4.1
		c0.5,2.7,1.3,4.2,1.3,4.2s-3.7,1.3-8.3,5.3c1.7-1.2,3.5-2.4,5.2-3.7c1.7-0.3,10.2-1.3,30.8,3.7c23.2,5.6,39.5,31.3,39.7,31.6
		l0.4,0.6l0.7,0.4c0,0,0.5,0.3,1.2,0.8c0.1-2.1,0.2-3.3,0.2-3.3S148.7,398.6,150.7,397.7z M129.9,463.2c-5.9-3.3-17.1-8.5-33.4-11.5
		c-19.9-3.7-37.3,1.2-43.7,3.4c0.8,2.5,1.4,3.8,1.4,3.8s-0.8,0.8-1.8,2.2l0.1,0.2c0.2-0.1,20.2-8.2,43-4c23,4.3,35.7,13.3,35.8,13.4
		l0.7,0.5c-2.6-4.1-4.5-6.8-4.5-6.8S128.4,464.5,129.9,463.2z"/>
	<path class="st1" d="M402.6,412.6c0.2-3.6,1.8-13.9,11.5-22.9c9.9-9.2,40.5-9.3,51.4-8.5l0.3,0l0.3,0c0.5-0.1,1.3-0.2,2.1-0.3
		c-1.5-1.6-2.5-2.6-2.5-2.6s0-1.1-0.2-2.9c-3.8-0.2-42-2.3-55.3,10.1c-11.2,10.4-13.1,22.3-13.4,26.8c0,0.1,0,0.2,0,0.3
		c1.7,0.9,2.8,1.4,2.8,1.4s-3,6.7-2.2,16.1c1.3-4.5,3.1-10.1,4.9-15.1l0.2-0.5l0-0.5C402.6,413.8,402.6,413.4,402.6,412.6z
		 M478.4,469.6c-7.4-1.9-16.6-3.1-27.3-2.8c-18.9,0.5-34.9-0.3-39.6-0.5c-0.3-0.5-1.1-2.1-2.3-4.2c1.7,4,2.7,6.3,2.7,6.3
		s-0.9,1.3-2.4,3.4l0,0c0.2,0,18.9,1.2,41.7,0.6c10.3-0.3,18.9,0.8,25.4,2.5c-0.8-1.4-1.4-2.3-1.4-2.3S476.6,471.6,478.4,469.6z"/>
	<polygon class="st3" points="255.2,318.5 268.7,234.3 320.1,247 291,371 	"/>
	<path class="st4" d="M196.2,270.2c0,0,0.5,35.1-2.1,42.1c-2.6,7,7.5,16.2,22.7,23.7c15.2,7.5,70.9,31.2,74.2,35
		c3.3,3.8-7.8-22.7-22.8-43.7C253.2,306.2,196.2,270.2,196.2,270.2z"/>
	
		<ellipse transform="matrix(6.631124e-02 -0.9978 0.9978 6.631124e-02 -112.0331 503.0571)" class="st5" cx="212.8" cy="311.4" rx="6.7" ry="5.7"/>
	<path class="st5" d="M248.7,330c-0.2,3.7-3,6.5-6.1,6.3c-3.1-0.2-5.5-3.4-5.2-7c0.2-3.7,3-6.5,6.1-6.3
		C246.6,323.2,249,326.3,248.7,330z"/>
	
		<ellipse transform="matrix(6.638460e-02 -0.9978 0.9978 6.638460e-02 11.5261 551.4658)" class="st5" cx="300.5" cy="269.6" rx="6.7" ry="5.7"/>
	
		<ellipse transform="matrix(6.693253e-02 -0.9978 0.9978 6.693253e-02 -32.729 585.6634)" class="st5" cx="296.8" cy="310.3" rx="6.7" ry="5.7"/>
</g>
</svg>
