<?xml version="1.0" encoding="utf-8"?>
<!-- Generator: Adobe Illustrator 21.0.0, SVG Export Plug-In . SVG Version: 6.00 Build 0)  -->
<svg version="1.1" id="Layer_1" xmlns="http://www.w3.org/2000/svg" xmlns:xlink="http://www.w3.org/1999/xlink" x="0px" y="0px"
	 viewBox="0 0 525 750" style="enable-background:new 0 0 525 750;" xml:space="preserve">
<style type="text/css">
	.st0{fill:#C6B899;}
	.st1{fill:url(#SVGID_1_);}
	.st2{fill:url(#SVGID_2_);}
	.st3{fill:#FADCC0;}
	.st4{fill:#FFFFFF;}
	.st5{fill:url(#SVGID_3_);}
</style>
<g>
	<g>
		<g>
			<g>
				<g>
					<g>
						<g>
							<path class="st0" d="M406.4,370.4c10.2-6.6,24.7-13.6,36.9-11.2c7.5,1.5,10.9,11.3,12,18.9c1.1,8-0.7,14.2-4.6,19
								c-14,17.1-43.8,21.5-65.8,22c-15.1,0.4-14.2,23.8,0.9,23.4c30.6-0.7,72.8-9.2,88.3-38.8c11.6-22.1,2.6-58.6-22.7-66.6
								c-18.9-6-41.5,3.1-57.4,13.3C381.3,358.7,393.7,378.6,406.4,370.4z"/>
						</g>
						<g>
							<linearGradient id="SVGID_1_" gradientUnits="userSpaceOnUse" x1="-111.8135" y1="436.0978" x2="-635.0352" y2="432.4641">
								<stop  offset="1.117320e-02" style="stop-color:#D4CDBB"/>
								<stop  offset="0.5196" style="stop-color:#F5F4F0"/>
								<stop  offset="1" style="stop-color:#D4CDBB"/>
							</linearGradient>
							<path class="st1" d="M360.5,390.7c-11.3,4.2-32.3,9.6-67.8,14.3c-2.7,0.4-21.1,2.5-51.3,3c-30.1,0.5-51-2.9-54.9-3.5
								c-33.9-4.6-45.9-7.4-68.5-15.5c-15.7-5.6-33.2-16.3-42.2-26.8c-0.2,5.7-0.2,11.9-0.2,18.8c0,74.6,74.2,135,165.7,135
								c91.5,0,165.7-60.5,165.7-135c0-6.9-0.1-13.1-0.3-18.7C396.8,373.1,376,384.8,360.5,390.7z"/>
						</g>
						<g>
							<linearGradient id="SVGID_2_" gradientUnits="userSpaceOnUse" x1="-111.0893" y1="331.9233" x2="-634.3056" y2="328.2896">
								<stop  offset="1.117320e-02" style="stop-color:#C6B899"/>
								<stop  offset="0.1848" style="stop-color:#C8BB9D"/>
								<stop  offset="0.3681" style="stop-color:#CDC2AA"/>
								<stop  offset="0.5251" style="stop-color:#D4CDBB"/>
								<stop  offset="0.6744" style="stop-color:#CCC2A8"/>
								<stop  offset="0.8315" style="stop-color:#C8BA9D"/>
								<stop  offset="0.9944" style="stop-color:#C6B899"/>
							</linearGradient>
							<path class="st2" d="M419.2,308.2c0-31.1-79.6-56.2-177.7-56.2c-98.2,0-177.7,25.2-177.7,56.2c0,1.2,0.1,2.4,0.3,3.6
								c0.3,8.6,2.1,43.3,8.1,53.8c6.8,12.1,27.7,25.4,45.9,32c22.7,8.1,34.6,10.9,68.5,15.5c3.9,0.5,24.7,4,54.9,3.5
								c30.1-0.5,48.5-2.6,51.3-3c35.4-4.7,56.5-10,67.8-14.3c18.2-6.8,43.4-21.7,50.2-33.7c5.8-10.3,7.6-43.8,8-53.3
								C419,311,419.2,309.6,419.2,308.2z"/>
							<path class="st3" d="M419.2,308.2c0,31.1-80.9,64.4-179,64.4c-98.2,0-176.4-33.3-176.4-64.4c0-31.1,79.6-56.2,177.7-56.2
								C339.6,252,419.2,277.2,419.2,308.2z"/>
							<path class="st4" d="M407.7,308.2c0,28.7-74.4,51.9-166.3,51.9c-91.8,0-166.3-23.2-166.3-51.9c0-28.6,74.5-51.9,166.3-51.9
								C333.3,256.4,407.7,279.6,407.7,308.2z"/>
						</g>
					</g>
					<g>
						<linearGradient id="SVGID_3_" gradientUnits="userSpaceOnUse" x1="-110.9707" y1="315.3954" x2="-634.1862" y2="311.7617">
							<stop  offset="1.117320e-02" style="stop-color:#3F1C00"/>
							<stop  offset="7.984370e-02" style="stop-color:#451F02"/>
							<stop  offset="0.3885" style="stop-color:#592B07"/>
							<stop  offset="0.6963" style="stop-color:#65320B"/>
							<stop  offset="1" style="stop-color:#69340C"/>
						</linearGradient>
						<path class="st5" d="M82.5,323.5c20.9,21.2,84.2,36.6,158.9,36.6c75.7,0,139.5-15.8,159.7-37.3
							c-5.4-26.4-74.6-47.2-159.2-47.2C156.5,275.6,86.7,296.8,82.5,323.5z"/>
					</g>
				</g>
			</g>
		</g>
	</g>
</g>
</svg>
