<?xml version="1.0" encoding="utf-8"?>
<!-- Generator: Adobe Illustrator 21.0.0, SVG Export Plug-In . SVG Version: 6.00 Build 0)  -->
<svg version="1.1" id="Layer_1" xmlns="http://www.w3.org/2000/svg" xmlns:xlink="http://www.w3.org/1999/xlink" x="0px" y="0px"
	 viewBox="0 0 525 750" style="enable-background:new 0 0 525 750;" xml:space="preserve">
<style type="text/css">
	.st0{fill:#55586B;}
	.st1{fill:#659BEA;}
	.st2{fill:#FF1F78;}
	.st3{fill:#7FAEFF;}
</style>
<g>
	<path class="st0" d="M112.4,435.5c0,0-51,62.6-53.7,94.9c0,0,71.7,44.8,289.2,25.2c78.5-7.1,119.1-28.3,119.1-28.3
		s-23.6-73.7-65.4-91.8c-41.9-18.2-255.2-8.1-255.2-8.1L112.4,435.5z"/>
	<path class="st1" d="M185.7,178.2c0,0,15.7,29,56.7,29.3c58.5,0.3,72.9-28.3,72.9-28.3s15.7,14.5,10.5,24.2
		c-5.2,9.8-25.3,48.8-37.1,51.1c-11.8,2.4-78.5,6.1-87.7,2c-9.2-4-24.4-14.5-27.5-21.2c-3.1-6.7,6.1-43.1,6.5-44.4
		C180.4,189.6,185.7,178.2,185.7,178.2z"/>
	<path class="st2" d="M320,184.4c-2.5-3.1-4.8-5.2-4.8-5.2s-14.4,28.6-72.9,28.3c-41-0.2-56.7-29.3-56.7-29.3s-3.5,7.7-5,11.2
		c8.7,8,36.8,30.4,77,26.5C290.7,212.7,310.6,195.3,320,184.4z"/>
	<path class="st2" d="M342.7,185.2c0,0,91.8,117.7,107,168.9c15.2,51.2,15.2,51.2,15.2,51.2l-45.5,26.6l-54.1-54.1L294.1,246
		L342.7,185.2z"/>
	<path class="st3" d="M185.7,178.2l-31.4,9.1c0,0,23.6,41.4,7.8,66.6c-15.7,25.2-39.2,31.3-39.2,31.3s2.6,62.6-1.3,90.8
		c-3.9,28.3,3.9,48.4-9.2,59.5c0,0,64.1,9.1,113.8,11.1c49.7,2,137.4,1,180.6-10.1c0,0-17-34.3-20.9-64.6
		c-3.9-30.3-6.6-85.8-6.6-85.8s-43.2,7.1-43.2-34.3c0-41.4,6.5-66.6,6.5-66.6l-27.5-6.1c0,0,10.5,62.6-55,63.6
		C194.8,243.8,189.6,206.4,185.7,178.2z"/>
	<path class="st2" d="M154.3,187.3c0,0-85.9,121.4-85.9,140.4c0,19,78,99.8,78,99.8l45.3-42.9l-68.9-99.4c0,0,66.3-0.1,36.3-99.3"/>
	<polygon class="st2" points="270.7,286.2 328.3,279.1 338.8,327.5 306.1,343.7 272,330.6 	"/>
	<path class="st2" d="M154.3,187.3c0,0,23.6,41.4,7.8,66.6c-15.7,25.2-39.2,31.3-39.2,31.3s0.1,1.9,0.2,5.2
		c8.5-3.3,37.7-15.9,45.2-34.8c7.9-20.1,1.9-52.9-9.1-69.7L154.3,187.3z M315.2,179.2c0,0,10.5,62.6-55,63.6
		c-65.4,1-70.7-36.3-74.6-64.6l-7.1,2.1c0.5,19.6,7.9,70.8,70.8,68.9c66.5-2,77-44.3,74-68.2L315.2,179.2z M379.3,286.2
		c0,0-43.2,7.1-43.2-34.3c0-41.4,6.5-66.6,6.5-66.6l-8.2-1.8c-2.2,17.9-8,68.9-4.4,80.5c3.5,11.4,26,30.4,49.7,29.5
		C379.5,288.9,379.3,286.2,379.3,286.2z"/>
</g>
</svg>
