<?xml version="1.0" encoding="utf-8"?>
<!-- Generator: Adobe Illustrator 21.0.0, SVG Export Plug-In . SVG Version: 6.00 Build 0)  -->
<svg version="1.1" id="Layer_1" xmlns="http://www.w3.org/2000/svg" xmlns:xlink="http://www.w3.org/1999/xlink" x="0px" y="0px"
	 viewBox="0 0 525 750" style="enable-background:new 0 0 525 750;" xml:space="preserve">
<style type="text/css">
	.st0{fill:#ED8EDB;}
	.st1{fill:#F4A4E9;}
	.st2{fill:#E56AD4;}
	.st3{fill:#F7F7F7;}
	.st4{fill:#EBEBEB;}
	.st5{fill:url(#SVGID_1_);}
	.st6{fill:#F7D33C;}
	.st7{fill:#D2D2D2;}
	.st8{fill:url(#SVGID_2_);}
</style>
<g>
	<g>
		<circle class="st0" cx="280.8" cy="370.9" r="216.1"/>
		<circle class="st1" cx="280.8" cy="370.9" r="164.3"/>
		<circle class="st0" cx="280.8" cy="370.9" r="154.6"/>
		<path class="st2" d="M425.5,316.1c4,13.7,6.1,28.2,6.1,43.2c0,85.4-69.2,154.6-154.6,154.6c-66.1,0-122.5-41.5-144.6-99.8
			c18.7,64.4,78.1,111.4,148.5,111.4c85.4,0,154.6-69.2,154.6-154.6C435.5,351.6,432,333.1,425.5,316.1z"/>
	</g>
	<g>
		<g>
			<g>
				
					<ellipse transform="matrix(0.9854 -0.1705 0.1705 0.9854 -48.6027 41.8656)" class="st3" cx="219.5" cy="303.9" rx="96.4" ry="96.4"/>
				<path class="st4" d="M298.5,248.6c4.8,8.9,8.3,18.7,10.1,29.3c9,52.4-26.1,102.3-78.6,111.4c-38,6.6-74.6-10-95.4-39.6
					c19.2,35.5,59.3,56.5,101.3,49.3c52.4-9,87.6-59,78.5-111.4C311.8,273,306.2,259.9,298.5,248.6z"/>
				<g>
					<g>
						
							<linearGradient id="SVGID_1_" gradientUnits="userSpaceOnUse" x1="191.7573" y1="232.5942" x2="286.3261" y2="232.5942" gradientTransform="matrix(0.9605 0.2784 -0.2784 0.9605 35.1743 -8.5987)">
							<stop  offset="0" style="stop-color:#F7BA14"/>
							<stop  offset="1" style="stop-color:#F4D01A"/>
						</linearGradient>
						<path class="st5" d="M238.4,309c-15.3,21.2-44.8,25.9-66,10.7c-21.2-15.3-25.9-44.8-10.7-66s44.8-25.9,66-10.7
							C248.8,258.4,253.7,287.9,238.4,309z"/>
						<path class="st6" d="M223.2,246.5c-0.6-0.4-1.3-0.9-1.9-1.3c17.4,14.1,21.1,39.6,7.9,58c-13.4,18.4-38.7,23-57.5,10.9
							c0.6,0.5,1.2,1,1.8,1.5c19.1,13.8,45.8,9.5,59.5-9.7C246.7,286.9,242.4,260.3,223.2,246.5z"/>
					</g>
				</g>
			</g>
			
				<ellipse transform="matrix(0.9853 -0.1706 0.1706 0.9853 -60.1319 35.8191)" class="st7" cx="178.3" cy="367.8" rx="5.6" ry="5.6"/>
			
				<ellipse transform="matrix(0.9854 -0.1704 0.1704 0.9854 -37.4603 48.7308)" class="st7" cx="265.2" cy="242.6" rx="5.6" ry="5.6"/>
			
				<ellipse transform="matrix(0.9854 -0.1705 0.1705 0.9854 -52.5062 29.4045)" class="st7" cx="145" cy="320.4" rx="5.6" ry="5.6"/>
		</g>
		<g>
			<g>
				<path class="st3" d="M431.8,469.7c3.2-45.5,6.5-171.4-56.3-171.1c-67,0.3-63.7,84.2-63.7,84.2s-83-3.6-72.9,72.5
					c8.3,62.3,133.1,41.8,177.6,32.5c5.7-1.2,14.3-4.6,14.3-4.6C430.8,480.5,431.2,475.9,431.8,469.7z"/>
				<g>
					<g>
						<path class="st4" d="M375.3,298.7c-11.1,0-20.2,2.4-27.8,6.2c5.7-1.8,12.2-2.8,19.5-2.9c62.8-0.3,59.5,125.5,56.3,171.1
							c-0.4,5.7-0.9,10.2-1.1,12.9c4.3-1.4,8.3-2.9,8.3-2.9c0.3-2.7,0.8-7.4,1.2-13.5C435,424.2,438,298.4,375.3,298.7z"/>
					</g>
				</g>
				
					<ellipse transform="matrix(0.6574 -0.7535 0.7535 0.6574 -238.5051 353.3251)" class="st7" cx="269.3" cy="439" rx="5.7" ry="5.7"/>
				<path class="st7" d="M383.8,334.3c2.4,2,2.6,5.6,0.5,8c-2.1,2.4-5.6,2.6-8,0.5c-2.4-2-2.6-5.6-0.5-8
					C377.8,332.5,381.5,332.2,383.8,334.3z"/>
				<path class="st7" d="M332.3,474.2c2.4,2,2.6,5.6,0.5,8c-2,2.4-5.6,2.6-8,0.5c-2.4-2-2.6-5.6-0.5-8
					C326.2,472.3,330,472.1,332.3,474.2z"/>
			</g>
			<g>
				<g>
					
						<linearGradient id="SVGID_2_" gradientUnits="userSpaceOnUse" x1="319.4353" y1="543.8455" x2="411.1522" y2="543.8455" gradientTransform="matrix(0.9996 2.650000e-02 -2.650000e-02 0.9996 6.6841 -138.1577)">
						<stop  offset="0" style="stop-color:#F7BA14"/>
						<stop  offset="1" style="stop-color:#F4D01A"/>
					</linearGradient>
					<path class="st8" d="M400.2,431.7c-9.2,23.6-35.6,35.3-59.3,26.2c-23.6-9.2-35.3-35.6-26.2-59.3c9.2-23.6,35.6-35.3,59.3-26.2
						C397.5,381.6,409.3,408,400.2,431.7z"/>
					<path class="st6" d="M370.7,376.8c-0.8-0.3-1.4-0.4-2.2-0.8c19.9,8.9,29.5,32,21.5,52.5s-30.6,31.1-51.4,24.3
						c0.6,0.3,1.4,0.6,2,1c21.3,8.2,45.2-2.4,53.4-23.6C402.5,408.9,392,385,370.7,376.8z"/>
				</g>
			</g>
		</g>
	</g>
</g>
</svg>
