<?xml version="1.0" encoding="utf-8"?>
<!-- Generator: Adobe Illustrator 21.0.0, SVG Export Plug-In . SVG Version: 6.00 Build 0)  -->
<svg version="1.1" id="Layer_1" xmlns="http://www.w3.org/2000/svg" xmlns:xlink="http://www.w3.org/1999/xlink" x="0px" y="0px"
	 viewBox="0 0 430 432" style="enable-background:new 0 0 430 432;" xml:space="preserve">
<style type="text/css">
	.st0{fill:#ED8EDB;}
	.st1{fill:#F4A4E9;}
	.st2{fill:#E56AD4;}
	.st3{fill:#F7F7F7;}
	.st4{fill:#EBEBEB;}
	.st5{fill:url(#SVGID_1_);}
	.st6{fill:#F7D33C;}
	.st7{fill:#D2D2D2;}
	.st8{fill:url(#SVGID_2_);}
</style>
<g>
	<g>
		<circle class="st0" cx="216.3" cy="211.9" r="200.7"/>
		<circle class="st1" cx="216.3" cy="211.9" r="152.6"/>
		<circle class="st0" cx="216.3" cy="211.9" r="143.6"/>
		<path class="st2" d="M350.6,161c3.7,12.7,5.7,26.2,5.7,40.1c0,79.3-64.3,143.6-143.6,143.6c-61.4,0-113.8-38.5-134.3-92.7
			c17.4,59.8,72.5,103.5,137.9,103.5c79.3,0,143.6-64.3,143.6-143.6C359.9,194,356.6,176.8,350.6,161z"/>
	</g>
	<g>
		<g>
			<g>
				
					<ellipse transform="matrix(0.9854 -0.1705 0.1705 0.9854 -23.1868 29.34)" class="st3" cx="159.3" cy="149.7" rx="89.5" ry="89.5"/>
				<path class="st4" d="M232.6,98.3c4.5,8.3,7.7,17.4,9.4,27.2c8.4,48.7-24.2,95-73,103.5c-35.3,6.1-69.3-9.3-88.6-36.8
					c17.8,33,55.1,52.5,94.1,45.8c48.7-8.4,81.4-54.8,72.9-103.5C245.1,121,239.9,108.8,232.6,98.3z"/>
				<g>
					<g>
						
							<linearGradient id="SVGID_1_" gradientUnits="userSpaceOnUse" x1="91.0862" y1="214.5847" x2="178.8997" y2="214.5847" gradientTransform="matrix(0.9605 0.2784 -0.2784 0.9605 71.2576 -114.9171)">
							<stop  offset="0" style="stop-color:#F7BA14"/>
							<stop  offset="1" style="stop-color:#F4D01A"/>
						</linearGradient>
						<path class="st5" d="M176.8,154.4c-14.2,19.7-41.6,24.1-61.3,9.9c-19.7-14.2-24.1-41.6-9.9-61.3c14.2-19.7,41.6-24.1,61.3-9.9
							C186.5,107.4,191,134.8,176.8,154.4z"/>
						<path class="st6" d="M162.7,96.4c-0.6-0.4-1.2-0.8-1.8-1.2c16.2,13.1,19.6,36.8,7.3,53.9c-12.4,17.1-35.9,21.4-53.4,10.1
							c0.6,0.5,1.1,0.9,1.7,1.4c17.7,12.8,42.5,8.8,55.3-9C184.5,133.9,180.5,109.2,162.7,96.4z"/>
					</g>
				</g>
			</g>
			
				<ellipse transform="matrix(0.9853 -0.1706 0.1706 0.9853 -33.8783 23.7255)" class="st7" cx="121.1" cy="209" rx="5.2" ry="5.2"/>
			
				<ellipse transform="matrix(0.9854 -0.1704 0.1704 0.9854 -12.851 35.7233)" class="st7" cx="201.7" cy="92.7" rx="5.2" ry="5.2"/>
			<ellipse transform="matrix(0.9853 -0.1705 0.1705 0.9853 -26.8271 17.79)" class="st7" cx="90.1" cy="165" rx="5.2" ry="5.2"/>
		</g>
		<g>
			<g>
				<path class="st3" d="M356.4,303.7c3-42.3,6-159.2-52.3-158.9c-62.2,0.3-59.2,78.2-59.2,78.2s-77.1-3.3-67.7,67.3
					c7.7,57.9,123.6,38.8,164.9,30.2c5.3-1.1,13.3-4.3,13.3-4.3C355.6,313.7,356,309.4,356.4,303.7z"/>
				<g>
					<g>
						<path class="st4" d="M304.1,144.8c-10.3,0-18.8,2.2-25.8,5.8c5.3-1.7,11.3-2.6,18.1-2.7c58.3-0.3,55.3,116.6,52.3,158.9
							c-0.4,5.3-0.8,9.5-1,12c4-1.3,7.7-2.7,7.7-2.7c0.3-2.5,0.7-6.9,1.1-12.5C359.4,261.4,362.3,144.6,304.1,144.8z"/>
					</g>
				</g>
				
					<ellipse transform="matrix(0.6574 -0.7535 0.7535 0.6574 -136.8648 249.2085)" class="st7" cx="205.6" cy="275.1" rx="5.3" ry="5.3"/>
				<path class="st7" d="M311.9,177.9c2.2,1.9,2.4,5.2,0.5,7.4c-1.9,2.2-5.2,2.4-7.4,0.5c-2.2-1.9-2.4-5.2-0.5-7.4
					C306.3,176.2,309.7,176,311.9,177.9z"/>
				<path class="st7" d="M264.1,307.8c2.2,1.9,2.4,5.2,0.5,7.4c-1.9,2.2-5.2,2.4-7.4,0.5c-2.2-1.9-2.4-5.2-0.5-7.4
					C258.5,306.1,261.9,305.9,264.1,307.8z"/>
			</g>
			<g>
				<g>
					
						<linearGradient id="SVGID_2_" gradientUnits="userSpaceOnUse" x1="244.7581" y1="259.8642" x2="329.9191" y2="259.8642" gradientTransform="matrix(0.9996 2.650000e-02 -2.650000e-02 0.9996 7.0495 -14.3654)">
						<stop  offset="0" style="stop-color:#F7BA14"/>
						<stop  offset="1" style="stop-color:#F4D01A"/>
					</linearGradient>
					<path class="st8" d="M327.1,268.4c-8.5,21.9-33.1,32.8-55.1,24.3c-21.9-8.5-32.8-33.1-24.3-55.1c8.5-21.9,33.1-32.8,55.1-24.3
						C324.7,221.8,335.6,246.4,327.1,268.4z"/>
					<path class="st6" d="M299.7,217.4c-0.7-0.3-1.3-0.4-2-0.7c18.5,8.3,27.4,29.7,20,48.8c-7.4,19.1-28.4,28.9-47.7,22.6
						c0.6,0.3,1.3,0.6,1.9,0.9c19.8,7.6,42-2.2,49.6-21.9C329.3,247.2,319.5,225,299.7,217.4z"/>
				</g>
			</g>
		</g>
	</g>
</g>
</svg>
