<?xml version="1.0" encoding="utf-8"?>
<!-- Generator: Adobe Illustrator 21.0.0, SVG Export Plug-In . SVG Version: 6.00 Build 0)  -->
<svg version="1.1" id="Layer_1" xmlns="http://www.w3.org/2000/svg" xmlns:xlink="http://www.w3.org/1999/xlink" x="0px" y="0px"
	 viewBox="0 0 525 750" style="enable-background:new 0 0 525 750;" xml:space="preserve">
<style type="text/css">
	.st0{fill:#C40001;}
	.st1{fill:#A51623;}
	.st2{fill:#CE111B;}
	.st3{fill:#F2C100;}
	.st4{fill:#D8A505;}
	.st5{fill:#FEA901;}
	.st6{fill:#D38905;}
	.st7{fill:#D88C05;}
	.st8{fill:#B77306;}
</style>
<g>
	<g>
		<path class="st0" d="M457.9,291.6c0,14.8-50,331.1-50,331.1s0.9,26-144.7,27.2c-145.6,1.3-145.9-27.2-145.9-27.2s-50-315-50-331.1
			c0-23.1,87.4-41.9,195.3-41.9C370.5,249.7,457.9,268.5,457.9,291.6z"/>
		<ellipse class="st1" cx="262.7" cy="291.6" rx="195.3" ry="41.9"/>
		<path class="st2" d="M304.1,627.5c21.6-0.9,38.7-2.4,52.2-4.1l41.8-281.5c-25.6,5.2-57.9,8.9-94,10.5V627.5z"/>
	</g>
	<g>
		<g>
			<path class="st3" d="M292.4,333c-3.1-84.1-11.6-213.8-11.6-219.1c0-7.8-6.4-14.2-14.2-14.2h-10.8c-7.8,0-14.2,6.4-14.2,14.2
				c0,5.3,6.3,135.5,12.8,219.5c2.9,0,5.8,0.1,8.7,0.1C273.1,333.5,282.8,333.3,292.4,333z"/>
			<path class="st4" d="M241.6,113.9c0,7.8,6.4,14.2,14.2,14.2h10.8c7.8,0,14.2-6.3,14.2-14.2l0,0c0-7.8-6.4-14.2-14.2-14.2h-10.8
				C248,99.7,241.6,106.1,241.6,113.9L241.6,113.9z"/>
		</g>
		<g>
			<path class="st3" d="M263.6,333.5c-6-75.5-13.7-156.9-14.3-161.1c-1.1-7.8-8.3-13.1-16.1-12l-10.7,1.5c-7.8,1.1-13.1,8.3-12,16.1
				c0.6,4,6.6,81.2,13.4,154.7c12.7,0.5,25.7,0.9,39.2,0.9C263.3,333.5,263.5,333.5,263.6,333.5z"/>
			<path class="st4" d="M249.3,172.4c1.1,7.8-4.3,14.9-12,16.1l-10.7,1.5c-7.8,1.1-14.9-4.3-16.1-12l0,0c-1.1-7.8,4.3-14.9,12-16.1
				l10.7-1.5C241,159.3,248.2,164.7,249.3,172.4L249.3,172.4z"/>
		</g>
		<g>
			<path class="st3" d="M431.8,157l-10.4-3.5c-7.5-2.6-15.8,1.9-18.6,10.1c-1.5,4.5-20.2,88.3-35.5,163.5
				c13.8-1.9,26.5-4.1,37.6-6.7c17.2-68.6,34-139.9,35.4-144C443.2,168.2,439.3,159.6,431.8,157z"/>
			<path class="st4" d="M440.4,176.3c-2.8,8.1-11.1,12.6-18.6,10.1l-10.4-3.5c-7.5-2.6-11.4-11.2-8.6-19.3l0,0
				c2.8-8.1,11.1-12.6,18.6-10.1l10.4,3.5C439.3,159.6,443.2,168.2,440.4,176.3L440.4,176.3z"/>
		</g>
		<g>
			<path class="st5" d="M223.4,332.6c10.3,0.5,20.9,0.7,31.8,0.8c14.2-74,30.7-173.2,31.1-178.8c0.7-8.9-4.9-16.6-12.5-17.2
				l-10.4-0.8c-7.5-0.6-14.2,6.2-14.9,15.2C248.2,157.5,232.9,258.4,223.4,332.6z"/>
			<path class="st6" d="M286.3,154.7c-0.7,8.9-7.3,15.7-14.9,15.2L261,169c-7.5-0.6-13.1-8.3-12.5-17.2l0,0
				c0.7-8.9,7.3-15.7,14.9-15.2l10.4,0.8C281.4,138,287,145.7,286.3,154.7L286.3,154.7z"/>
		</g>
		<g>
			<path class="st7" d="M144.1,102.8l-10.4,3c-7.5,2.2-11.8,10.1-9.7,17.6c1.4,4.7,1,115.2,2.2,198c10,2.1,21.1,4,33,5.6
				c2.8-86.8,3.8-209.7,2.3-214.6C159.5,104.9,151.6,100.6,144.1,102.8z"/>
			<path class="st8" d="M161.6,112.5c2.2,7.5-2.1,15.4-9.7,17.6l-10.4,3c-7.5,2.2-15.4-2.1-17.6-9.7l0,0c-2.2-7.5,2.1-15.4,9.7-17.6
				l10.4-3C151.6,100.6,159.5,104.9,161.6,112.5L161.6,112.5z"/>
		</g>
		<g>
			<path class="st5" d="M124.1,155.5c-3.7-6.9-12.3-9.5-19.2-5.8l-9.5,5.1c-6.9,3.7-9.5,12.3-5.8,19.2c1.9,3.5,17.3,76.1,33,146.6
				c11,2.4,23.4,4.6,36.9,6.4C144.6,248,126.1,159.3,124.1,155.5z"/>
			<path class="st6" d="M124.1,155.5c3.7,6.9,1.1,15.5-5.8,19.2l-9.5,5.1c-6.9,3.7-15.5,1.1-19.2-5.8l0,0
				c-3.7-6.9-1.1-15.5,5.8-19.2l9.5-5.1C111.8,146,120.4,148.6,124.1,155.5L124.1,155.5z"/>
		</g>
		<g>
			<path class="st7" d="M387.4,134.8c3-7.3-0.5-15.5-7.8-18.5l-10-4.1c-7.3-3-15.5,0.5-18.5,7.8c-1.9,4.7-1.4,125.9-0.8,209.1
				c10.8-1.1,21-2.5,30.5-4.1L387.4,134.8z"/>
			<path class="st8" d="M351.2,120c-3,7.3,0.5,15.5,7.8,18.5l10,4.1c7.3,3,15.5-0.5,18.5-7.8l0,0c3-7.3-0.5-15.5-7.8-18.5l-10-4.1
				C362.4,109.3,354.1,112.7,351.2,120L351.2,120z"/>
		</g>
		<g>
			<path class="st3" d="M338.8,131.7c-1.6-8.4-9.3-14-17.1-12.5l-10.8,2.1c-7.8,1.5-12.8,9.6-11.1,18c1,5.2,11.3,112.3,20.8,192.3
				c11.6-0.8,22.6-1.8,33.2-2.9C348.9,246.5,339.8,137,338.8,131.7z"/>
			<path class="st4" d="M299.8,139.3c1.6,8.4,9.3,14,17.1,12.5l10.8-2.1c7.8-1.5,12.8-9.6,11.1-18l0,0c-1.6-8.4-9.3-14-17.1-12.5
				l-10.8,2.1C303.2,122.9,298.2,130.9,299.8,139.3L299.8,139.3z"/>
		</g>
		<g>
			<path class="st5" d="M314.2,207.2c1.5-8.8-3.4-17-10.9-18.2l-10.3-1.7c-7.5-1.2-14.7,4.9-16.2,13.8c-0.7,4.4-5.5,68.5-9.3,132.4
				c11.7-0.1,23.2-0.3,34.4-0.8C308.1,271.5,313.5,211.5,314.2,207.2z"/>
			<path class="st6" d="M276.9,201.1c-1.5,8.8,3.4,17,10.9,18.2L298,221c7.5,1.2,14.7-4.9,16.2-13.8l0,0c1.5-8.8-3.4-17-10.9-18.2
				l-10.3-1.7C285.6,186.1,278.3,192.2,276.9,201.1L276.9,201.1z"/>
		</g>
		<g>
			<path class="st5" d="M214.1,114.3l-9.5-5.1c-6.9-3.7-15.5-1.1-19.2,5.8c-2.4,4.5-27,124.2-42.4,209.7c9,1.5,18.5,2.9,28.7,4
				c1.4,0.1,2.8,0.3,4.1,0.4c18.7-81,41.8-191.2,44.1-195.5C223.6,126.6,221,118,214.1,114.3z"/>
			<path class="st6" d="M185.4,114.9c-3.7,6.9-1.1,15.5,5.8,19.2l9.5,5.1c6.9,3.7,15.5,1.1,19.2-5.8l0,0c3.7-6.9,1.1-15.5-5.8-19.2
				l-9.5-5.1C197.7,105.5,189.1,108,185.4,114.9L185.4,114.9z"/>
		</g>
		<g>
			<path class="st3" d="M214,332.2c-8.2-75.6-18.1-158.3-17.4-162.4c1.3-7.7-3.9-15-11.7-16.3l-10.7-1.8c-7.7-1.3-15,3.9-16.3,11.7
				c-0.7,4.1,9.7,88.5,20.8,166.1C189.9,330.5,201.7,331.5,214,332.2z"/>
			<path class="st4" d="M157.9,163.3c-1.3,7.7,3.9,15,11.7,16.3l10.7,1.8c7.7,1.3,15-3.9,16.3-11.7l0,0c1.3-7.7-3.9-15-11.7-16.3
				l-10.7-1.8C166.5,150.3,159.2,155.5,157.9,163.3L157.9,163.3z"/>
		</g>
		<g>
			<path class="st5" d="M351.5,180.8c-3-7.3-11.3-10.7-18.5-7.8l-10,4.1c-7.3,3-10.7,11.2-7.8,18.5l4.7,136
				c11.4-0.7,22.3-1.7,32.7-2.9C353,257.4,353,184.5,351.5,180.8z"/>
			<path class="st6" d="M351.5,180.8c3,7.3-0.5,15.5-7.8,18.5l-10,4.1c-7.3,3-15.5-0.5-18.5-7.8l0,0c-3-7.3,0.5-15.5,7.8-18.5
				l10-4.1C340.3,170.1,348.5,173.5,351.5,180.8L351.5,180.8z"/>
		</g>
	</g>
</g>
</svg>
