<?xml version="1.0" encoding="utf-8"?>
<!-- Generator: Adobe Illustrator 21.0.0, SVG Export Plug-In . SVG Version: 6.00 Build 0)  -->
<svg version="1.1" id="Layer_1" xmlns="http://www.w3.org/2000/svg" xmlns:xlink="http://www.w3.org/1999/xlink" x="0px" y="0px"
	 viewBox="0 0 349 740" style="enable-background:new 0 0 349 740;" xml:space="preserve">
<style type="text/css">
	.st0{fill:#9B8165;}
	.st1{fill:#BA5400;}
	.st2{fill:#B17E11;}
	.st3{fill:#E6E6E6;}
	.st4{fill:#42210B;}
	.st5{fill:#F7AD1E;}
	.st6{fill:url(#SVGID_1_);}
	.st7{fill:url(#SVGID_2_);}
	.st8{fill:#CF6603;}
	.st9{fill:#FFFFFF;}
	.st10{fill:url(#SVGID_3_);}
	.st11{fill:url(#SVGID_4_);}
	.st12{fill:url(#SVGID_5_);}
	.st13{fill:#F7AE1E;}
	.st14{fill:#F7AF1E;}
	.st15{fill:#F7AF1D;}
	.st16{fill:#F7B01D;}
	.st17{fill:#F7B11D;}
	.st18{fill:#F7B21D;}
	.st19{fill:#F7B21C;}
	.st20{fill:#F7B31C;}
	.st21{fill:#F7B41C;}
	.st22{fill:#F8B41C;}
	.st23{fill:#F8B51C;}
	.st24{fill:#F8B61C;}
	.st25{fill:#F8B61B;}
	.st26{fill:#F8B71B;}
	.st27{fill:#F8B81B;}
	.st28{fill:#F8B91B;}
	.st29{fill:#F8B91A;}
	.st30{fill:#F8BA1A;}
	.st31{fill:#F8BB1A;}
	.st32{fill:url(#SVGID_6_);}
	.st33{fill:url(#SVGID_7_);}
</style>
<g>
	<path class="st0" d="M279.6,12.7c-20.9,3.8-44.5,64.8-44.5,64.8l5.7-0.1c0,0,0.1-0.2,0.3-0.5l0.9,0.4c0,0,34.6-20.7,45.2-35.4
		c1.6-2.2,2.6-5.1,3.1-8.2c0,0,0,0,0,0C292.3,23.7,289.4,11,279.6,12.7z"/>
	<path class="st1" d="M209.8,58.2V28.7c0,0,45.6-14.2,69.6,56.9c24.4,72.2,18.2,147.9,10.9,211.6c-7.5,65.2-28.1,153.3-28.1,153.3
		l-34.8,3.2L209.8,58.2z"/>
	<g>
		<path class="st2" d="M123.8,526.4c0,0,2.2,8.7,0,27.3c-2.2,18.6-4.5,26.9-5.9,28.3c-1.4,1.4-8.3,4.2-7.5,12
			c0.8,7.7,4.5,8.9,4.5,8.9l-0.4,3.8c-0.6,5.6-2.3,16.5-5.9,27.8c-5.1,16.2-14.9,23.1-14.8,26c0,0.6,0.2,1.2,0.5,1.8
			c-2.2,1.9-5.6,5.2-8.1,9.2c-4,6.2-5.1,13.8-5.1,13.8s4.7,4.1,17.9,4.4c13.3,0.4,20.9-4.5,20.9-4.5s0.6-7-1.1-12.4
			c-0.3-1.1-0.7-2.1-1.1-3.2c3.8-0.2,6.1-0.7,6.1-0.7s15.4-48.2,14.3-58.5c-1.1-10.3-7.1-16.3-7.1-16.3s6.1-2.8,8.7-8.1
			c2.6-5.3,0-59.7,0-59.7H123.8z"/>
		<path class="st2" d="M226.2,608.7c-2.1-10.1-8.2-15.5-8.2-15.5s5.2-3.4,6.9-8.9c1.7-5.6-6.4-57.8-6.4-57.8h-13
			c0,0,1.3,8.5,1.5,27.2c0.1,18.7-1.1,27.2-2.2,28.7c-1.1,1.5-7,5-5.4,12.6c1.6,7.6,5.1,8.4,5.1,8.4l0.1,3.8
			c0,5.6-0.2,16.6-2.1,28.2c-2.8,16.6-10.8,24.5-10.4,27.3c0,0,0,0,0,0.1c-2,1.9-4.8,5-6.9,8.7c-3.6,6.2-4.7,13.8-4.7,13.8
			s4.2,4.1,16.3,4.4c12.1,0.4,19.1-4.5,19.1-4.5s0.6-7-1-12.4c-0.3-1.1-0.7-2.2-1-3.3c3.7-0.5,6-1.4,6-1.4S228.3,618.8,226.2,608.7z
			"/>
	</g>
	<path class="st0" d="M197.6,60.4c0,0,0.5-12.5-0.6-19.3c-1.4-8.5-4.8-10.3-4.8-10.3l3.5-2.7c0,0,3.8,4.5,6.3,12
		c2.2,6.8,3.1,19.1,3.1,19.1s-1.4,2.3-3.9,2.5C198.9,62.1,197.6,60.4,197.6,60.4z"/>
	<path class="st0" d="M193.7,16.8c4.5,2.7,6.1,8.2,3.7,12.3c-2.5,4.1-8.1,5.3-12.5,2.6c-4.5-2.7-6.1-8.2-3.7-12.3
		C183.6,15.3,189.2,14.1,193.7,16.8z"/>
	<path class="st3" d="M169.7,82.1c0,7.7-6.3,14-14,14c-7.7,0-14-6.3-14-14c0-7.7,6.3-14,14-14C163.4,68.1,169.7,74.3,169.7,82.1z"/>
	<ellipse class="st4" cx="149" cy="85.8" rx="5" ry="5"/>
	<path class="st5" d="M251.4,441.3c0,0,23.9-4.5,31.7,11.5c7.9,16,6,78.4-40.4,99.5c-34.4,15.7-87.9,15.9-115.4-3.9
		c-21.2-15.2-36.7-42.7-28.2-90.5c8.5-47.8,43.1-78.6,61.9-148.9c18.8-70.3,27.5-115.2,15.2-131.6c-12.3-16.4-48.4-13.5-62.4-4.8
		c-16,10-25.6,34.8-41.6,41.3c-13.7,5.6-30.6-5-32-20.4c-1.4-15.4,8.8-15.5,8.8-15.5s-10.6-10.1-9.4-15.2c1.2-5.1,5.3-3.4,6.2-4.7
		c0.8-1.4,7.3-40.8,26.8-42.7c18.2-1.8,17.5-0.1,21.3-0.1c4,0,6.6,0.8,12.5-1.4c5.8-2.1,16.7-5.1,30.4-13
		c13.7-7.8,56-48.3,77.6-46.6c21.7,1.7,45.2,40.4,58.2,129.8C285.5,273.7,251.4,441.3,251.4,441.3z"/>
	<path class="st4" d="M117.5,691c0,0-7.2,5.3-11.7,12.5c-4.5,7.2-5.9,15.9-5.9,15.9s5.3,4.7,20.6,5.1c15.2,0.5,24.1-5.2,24.1-5.2
		s0.7-8-1.2-14.3c-2.3-7.4-5.6-14.1-5.6-14.1H117.5z"/>
	<linearGradient id="SVGID_1_" gradientUnits="userSpaceOnUse" x1="141.6475" y1="701.5434" x2="141.6475" y2="536.6605">
		<stop  offset="0" style="stop-color:#CCAC83"/>
		<stop  offset="1" style="stop-color:#F7AD1E"/>
	</linearGradient>
	<path class="st6" d="M149,536.7c0,0,2.5,10,0,31.4c-2.5,21.4-5.2,30.9-6.8,32.5c-1.6,1.6-9.6,4.9-8.6,13.8
		c0.9,8.9,5.2,10.2,5.2,10.2s-1.3,17.7-7.2,36.4c-5.9,18.7-17.2,26.6-17.1,29.9c0.1,3.3,4,7.9,15.1,9.8c11.1,1.9,19.4,0,19.4,0
		s17.7-55.4,16.5-67.2c-1.2-11.8-8.2-18.8-8.2-18.8s7.1-3.2,10-9.3c3-6.1,0-68.7,0-68.7H149z"/>
	<path class="st1" d="M138.3,629l0.4-4.4c0,0,1.6,0.6,3.4,0.6c0.8,0,1.5-0.1,2.2-0.2c2.5-0.6,6.2-2.7,6.3-2.7c0,0,0,3.5-5.2,5.8
		C142.7,629.2,138.4,629,138.3,629z"/>
	<path class="st4" d="M230.2,691c0,0-6.5,5.3-10.7,12.5c-4.1,7.2-5.4,15.9-5.4,15.9s4.9,4.7,18.7,5.1c13.9,0.5,21.9-5.2,21.9-5.2
		s0.6-8-1.1-14.3c-2.1-7.4-5.1-14.1-5.1-14.1H230.2z"/>
	<linearGradient id="SVGID_2_" gradientUnits="userSpaceOnUse" x1="247.266" y1="701.8235" x2="247.266" y2="536.6605">
		<stop  offset="0" style="stop-color:#CCAC83"/>
		<stop  offset="1" style="stop-color:#F7AD1E"/>
	</linearGradient>
	<path class="st7" d="M243,536.7c0,0,1.5,9.8,1.7,31.3c0.1,21.5-1.2,31.3-2.5,33c-1.2,1.7-8,5.8-6.2,14.5c1.8,8.7,5.8,9.7,5.8,9.7
		s0.8,17.8-2.4,36.9c-3.2,19.1-12.4,28.2-11.9,31.4c0.5,3.3,4.4,7.4,14.6,8.2c10.2,0.8,17.4-1.9,17.4-1.9s9.7-56.8,7.3-68.5
		c-2.4-11.6-9.4-17.8-9.4-17.8s6-3.9,7.9-10.3c2-6.4-7.3-66.5-7.3-66.5H243z"/>
	<path class="st1" d="M241.8,629.6l-0.1-4.4c0,0,1.8,1,5.1,0.1c3.4-0.9,5.8-3.6,5.8-3.6c0,0,0,3.7-4,6.3
		C246.3,629.4,241.8,629.6,241.8,629.6z"/>
	<path class="st5" d="M278,450.9c0,0,8.7-15.2,22.5-8.4c11.2,5.5,8.1,65.8,4.1,92.1c-2.7,17.6-10.4,66.1-10.4,66.1l-4.8,0.6
		c0,0,6.9-50.8,8.9-67.8c4.2-36.9,5.8-80.8,0-86.2c-5.8-5.4-15.5,9.3-15.5,9.3L278,450.9z"/>
	<path class="st1" d="M279.8,607.4c1.5-3.5,8.8-13.4,15.9-6.1c7.1,7.3-2.3,26.8-0.9,36.3c2.8,19.3,12.7,21.8,12.7,21.8
		s-4.7,2.5-8.3-0.3c-2.3-1.8-6.1-8-6.1-8s2.1,7.5,1.4,11.4c-1.1,6.1-5.2,15.3-5.2,15.3s0.7-10.1-0.1-17.6
		c-0.5-4.7-3.4-10.5-3.4-10.5s-1.8,3-3.7,8.2c-1.2,3.4-1.3,11.6-1.3,11.6s-4.4-7.9-2-16.3c2.5-8.4,3.3-9.7,3.2-14.1
		c-0.2-6.2-0.8-9.8-0.8-9.8s-2.2,1.9-3.3,6.1c-0.8,3-1.4,11.7-1.4,11.7s-2.6-6.5-2.6-14.6C274,624.9,276.7,614.7,279.8,607.4z"/>
	<path class="st8" d="M171.5,452.7c2.7-4.7,35-17.1,40-17.3c5-0.2,28.4,34.4,28.9,38.7c0.5,4.3-23.4,25.9-26.8,26.6
		c-3.4,0.7-31.6-4.8-33.2-7.5C178.8,490.5,169.7,455.9,171.5,452.7z"/>
	<path class="st8" d="M148.8,411.3c-2.1-2.5-3.8-38.2-2.3-41.9c1.4-3.6,36-25.5,39.2-25c3.2,0.5,31.4,32.1,31.4,35.7
		c0,3.6-21.4,35.9-23,36.6C192.5,417.4,152.2,415.4,148.8,411.3z"/>
	<path class="st8" d="M235,177c-1.4,3,10,34.9,13.4,37.3c2.7,1.8,18.6-0.3,26.6-1.5c-0.4-10.1-1.3-19.7-2.5-28.5
		c-2.1-14.3-4.4-27.3-7-39.1C258.9,151.3,237.8,171,235,177z"/>
	<path class="st8" d="M239.6,286.2c-5.2,2.3-24.3,33.9-23.9,38.2c0.5,4.3,21.4,28.7,28.2,29.3c4.3,0.4,15.4-3.9,22.9-7.2
		c1.5-11.4,2.9-23.3,4.1-35.5C263.2,303.3,243.7,284.4,239.6,286.2z"/>
	<path class="st8" d="M256.8,482.7c-4.8,2.3-10.7,25.7-9.6,29.1c1.2,3.4,23.9,15.7,24.1,15.8c8.2-12.3,12.6-26.5,14.3-39.4
		C277.3,485.8,260.4,481,256.8,482.7z"/>
	<path class="st8" d="M238.6,521c-1.4-1.8-35-8.2-38.4-7.1c-3.4,1.1-18.2,23.9-18.4,27.8c-0.2,2.7,7.8,14.6,12.7,21.8
		c13.5-0.8,26.9-3.3,38.8-7.4C235.6,544.1,239.6,522.3,238.6,521z"/>
	<path class="st8" d="M146.3,492.8c-1.1-2-25.9-20.9-28-20.9c-1.2,0-12.5,10-21.3,18c1.2,20.4,8,35.5,17.5,46.7
		c10.8-1.9,24.9-4.6,25.9-5.4C142,529.8,147.4,494.8,146.3,492.8z"/>
	<path class="st8" d="M192.2,302.1c2.5-0.7,31.8-32.3,31.8-35c0-2.7-21.4-40-24.6-40.9c-1.6-0.5-11.7,4.6-21.2,9.6
		c-2.5,14.2-6.3,30.6-10.9,49.1C175,290.8,190.4,302.6,192.2,302.1z"/>
	<path class="st8" d="M138.6,437.7c0.5-1.9-10.4-23.7-17.1-36.9c-10.1,18.9-18.7,36.5-22.4,57.2c-0.7,4.1-1.2,8-1.6,11.7
		C107.3,462.6,138,440,138.6,437.7z"/>
	<path class="st8" d="M197.5,207.5c2.7-1.4,10.7-32.3,10.5-34.1c-0.2-1.8-22.8-16.8-26.2-15.7c-2.2,0.7-9.1,7.8-13.9,12.9
		c3.4,1.8,6.3,4,8.5,6.9c4.5,5.9,6.1,15.7,5.6,29C188.8,207.4,196.1,208.2,197.5,207.5z"/>
	<path class="st1" d="M65.6,184.9c-10.7,0-17.2-5.5-17.5-5.8c-0.6-0.5-0.6-1.4-0.1-1.9c0.5-0.6,1.4-0.6,1.9-0.1
		c0.1,0.1,6.5,5.5,16.7,5.1c3.7-0.1,7.2-1.5,10.9-2.9c2.3-0.9,4.7-1.8,7.2-2.4c7.3-1.8,15.9-2.9,16-2.9c0.8-0.1,1.4,0.4,1.5,1.2
		c0.1,0.7-0.4,1.4-1.2,1.5c-0.1,0-8.6,1-15.6,2.8c-2.3,0.6-4.6,1.4-6.9,2.3c-3.8,1.4-7.7,2.9-11.8,3C66.4,184.9,66,184.9,65.6,184.9
		L65.6,184.9z"/>
	<path class="st9" d="M210.1,84.4c0,11.7-9.5,21.2-21.2,21.2c-11.7,0-21.2-9.5-21.2-21.2c0-11.7,9.5-21.2,21.2-21.2
		C200.6,63.2,210.1,72.7,210.1,84.4z"/>
	<circle class="st4" cx="177.2" cy="88.5" r="7.5"/>
	<path class="st8" d="M190.4,114.3c-0.3,1-2,1.3-3.9,0.9c-1.9-0.5-3.2-1.7-3-2.6c0.3-1,2-1.3,3.9-0.9
		C189.3,112.1,190.7,113.3,190.4,114.3z"/>
	
		<ellipse transform="matrix(0.9596 -0.2813 0.2813 0.9596 -22.8706 61.7815)" class="st8" cx="203.7" cy="110.5" rx="3.6" ry="2.2"/>
	<path class="st8" d="M225.7,106.9c0.4,1.2-1,2.7-3.1,3.4c-2.1,0.7-4.1,0.2-4.5-1c-0.4-1.2,1-2.7,3.1-3.4
		C223.3,105.2,225.3,105.7,225.7,106.9z"/>
	<path class="st8" d="M223.9,117c0,0.9-0.7,1.7-1.5,1.7c-0.8,0-1.5-0.7-1.5-1.7c0-0.9,0.7-1.6,1.5-1.6
		C223.2,115.3,223.9,116.1,223.9,117z"/>
	<path class="st8" d="M206.7,121.7c0.2,1.3-2,2.7-5,3.3c-3,0.5-5.6-0.1-5.8-1.3c-0.2-1.3,2-2.7,5-3.3
		C203.9,119.8,206.5,120.4,206.7,121.7z"/>
	<ellipse class="st8" cx="209.5" cy="130.5" rx="1.5" ry="1.2"/>
	<path class="st8" d="M187.9,125.9c0,0.5-0.6,0.9-1.5,0.9c-0.8,0-1.5-0.4-1.5-0.9s0.7-0.9,1.5-0.9
		C187.2,125,187.9,125.4,187.9,125.9z"/>
	<path class="st8" d="M177.1,120.3c-0.4,1.7-3.1,2.4-6,1.7c-2.9-0.7-4.8-2.7-4.4-4.4c0.4-1.7,3.1-2.4,6-1.7
		C175.6,116.7,177.6,118.6,177.1,120.3z"/>
	<path class="st8" d="M169.3,105.8c0,1.4-1.4,2.6-3.1,2.6c-1.7,0-3.1-1.1-3.1-2.6c0-1.4,1.4-2.6,3.1-2.6
		C167.9,103.3,169.3,104.4,169.3,105.8z"/>
	<ellipse class="st8" cx="219.4" cy="95.2" rx="2" ry="2.4"/>
	<linearGradient id="SVGID_3_" gradientUnits="userSpaceOnUse" x1="237.5324" y1="64.3163" x2="327.0506" y2="64.3163">
		<stop  offset="0" style="stop-color:#42210B"/>
		<stop  offset="1" style="stop-color:#F7AD1E"/>
	</linearGradient>
	<path class="st10" d="M237.5,82.1c0,0,59.3-53.5,82.9-39.6c14.5,8.5,2.4,35.2-10.1,40.5c-21.1,9-70.4,4.3-70.4,4.3L237.5,82.1z"/>
	<path class="st5" d="M306.5,57.3c9.5,2.2,12.1,12.3,12.8,18.2c9-10.9,15.1-29.5,4.1-36c-23.6-13.8-90.6,41.7-90.6,41.7l5.8,4.9l0,0
		C238.7,86.3,293,54.2,306.5,57.3z"/>
	<linearGradient id="SVGID_4_" gradientUnits="userSpaceOnUse" x1="239.3071" y1="71.1881" x2="239.3071" y2="42.4149">
		<stop  offset="0" style="stop-color:#CCAC83"/>
		<stop  offset="1" style="stop-color:#EBB299"/>
	</linearGradient>
	<path class="st11" d="M223.2,64.5c0,0,13.4-6.7,19.8-11.6c8.1-6.3,7.8-10.5,7.8-10.5l5,1.9c0,0-2.3,6.2-8.7,12.9
		c-5.7,6-18.1,14-18.1,14s-3.3,0-5.1-2.3C222.1,66.6,223.2,64.5,223.2,64.5z"/>
	<linearGradient id="SVGID_5_" gradientUnits="userSpaceOnUse" x1="255.7348" y1="46.2801" x2="255.7348" y2="25.1211">
		<stop  offset="0" style="stop-color:#CCAC83"/>
		<stop  offset="1" style="stop-color:#EBB299"/>
	</linearGradient>
	<path class="st12" d="M266.3,35.7c0,5.8-4.7,10.6-10.6,10.6c-5.8,0-10.6-4.7-10.6-10.6c0-5.8,4.7-10.6,10.6-10.6
		C261.6,25.1,266.3,29.9,266.3,35.7z"/>
	<path class="st8" d="M253.3,548.1c0,1.5-1.3,2.7-3,2.7c-1.7,0-3-1.2-3-2.7c0-1.5,1.3-2.7,3-2.7
		C251.9,545.4,253.3,546.6,253.3,548.1z"/>
	<ellipse class="st8" cx="154.4" cy="556.6" rx="3" ry="2.7"/>
	<path class="st8" d="M250.5,573.6c0,1.2-1.1,2.1-2.4,2.1s-2.4-1-2.4-2.1c0-1.2,1.1-2.1,2.4-2.1S250.5,572.4,250.5,573.6z"/>
	<path class="st8" d="M156.2,582.7c0,1.2-1.1,2.2-2.4,2.2s-2.4-1-2.4-2.2c0-1.2,1.1-2.1,2.4-2.1S156.2,581.5,156.2,582.7z"/>
	<ellipse class="st8" cx="151.4" cy="571.4" rx="2.4" ry="2.1"/>
	<path class="st8" d="M258.8,551.3c0,0.8-0.5,1.4-1.1,1.4c-0.6,0-1.1-0.6-1.1-1.4c0-0.8,0.5-1.4,1.1-1.4
		C258.3,549.9,258.8,550.5,258.8,551.3z"/>
	<path class="st8" d="M164.2,577.8c0,0.8-0.5,1.4-1.1,1.4c-0.6,0-1.1-0.6-1.1-1.4c0-0.8,0.5-1.4,1.1-1.4
		C163.7,576.4,164.2,577.1,164.2,577.8z"/>
	<ellipse class="st8" cx="250" cy="555.5" rx="1.7" ry="2"/>
	<ellipse class="st8" cx="163.1" cy="565.4" rx="1.7" ry="2"/>
	<path class="st8" d="M259,558.6c0,1.5-1,2.7-2.2,2.7c-1.2,0-2.2-1.2-2.2-2.7c0-1.5,1-2.7,2.2-2.7C258.1,555.9,259,557.1,259,558.6z
		"/>
	<path class="st8" d="M260.2,563.7c0,0.8-0.5,1.5-1.2,1.5c-0.6,0-1.2-0.7-1.2-1.5c0-0.8,0.5-1.5,1.2-1.5
		C259.7,562.2,260.2,562.8,260.2,563.7z"/>
	<path class="st8" d="M252.9,567.8c0,1.3-0.7,2.4-1.5,2.4c-0.8,0-1.5-1.1-1.5-2.4c0-1.3,0.7-2.4,1.5-2.4
		C252.3,565.4,252.9,566.5,252.9,567.8z"/>
	<path class="st8" d="M257.2,565.4c0,1.4-0.7,2.5-1.6,2.5c-0.9,0-1.6-1.1-1.6-2.5c0-1.4,0.7-2.5,1.6-2.5
		C256.5,562.9,257.2,564,257.2,565.4z"/>
	<ellipse class="st8" cx="248.2" cy="562" rx="2.3" ry="2.2"/>
	<path class="st8" d="M157.7,565.4c0,1.2-1,2.2-2.3,2.2c-1.3,0-2.3-1-2.3-2.2c0-1.2,1-2.2,2.3-2.2
		C156.7,563.2,157.7,564.2,157.7,565.4z"/>
	<ellipse class="st8" cx="257.1" cy="546.2" rx="1.5" ry="0.8"/>
	<path class="st8" d="M250.2,538.5c0,1.8-2,3.3-4.4,3.3c-2.4,0-4.4-1.5-4.4-3.3c0-1.8,2-3.3,4.4-3.3
		C248.3,535.2,250.2,536.6,250.2,538.5z"/>
	<path class="st8" d="M161.9,543.6c0,1.8-2,3.3-4.4,3.3c-2.4,0-4.4-1.5-4.4-3.3c0-1.8,2-3.3,4.4-3.3
		C159.9,540.3,161.9,541.8,161.9,543.6z"/>
	<ellipse class="st8" cx="254.7" cy="538.5" rx="3" ry="3.1"/>
	<ellipse class="st8" cx="163.1" cy="553.5" rx="3" ry="3.1"/>
	<path class="st8" d="M258.1,571.4c0,0.9-0.4,1.6-0.9,1.6c-0.5,0-0.9-0.7-0.9-1.6c0-0.9,0.4-1.6,0.9-1.6
		C257.7,569.8,258.1,570.5,258.1,571.4z"/>
	<ellipse class="st8" cx="162" cy="573" rx="0.9" ry="1.6"/>
	<g>
		<path class="st5" d="M95,144.2c-1.1,14.8-11.2,26.2-22.7,25.3c-11.5-0.8-19.9-13.5-18.8-28.3c1.1-14.8,11.2-26.2,22.7-25.3
			C87.6,116.7,96,129.3,95,144.2z"/>
		<path class="st5" d="M94.8,143.8c-1.1,14.6-11.1,25.8-22.5,25c-11.3-0.8-19.7-13.3-18.6-27.9c1.1-14.6,11.1-25.8,22.5-25
			C87.5,116.6,95.8,129.2,94.8,143.8z"/>
		<path class="st13" d="M94.6,143.4c-1,14.4-11,25.4-22.2,24.6c-11.2-0.8-19.5-13.1-18.5-27.5c1-14.4,11-25.4,22.2-24.6
			C87.4,116.6,95.7,129,94.6,143.4z"/>
		<path class="st13" d="M94.4,143c-1,14.2-10.9,25-22,24.2c-11.1-0.8-19.3-13-18.3-27.1c1-14.2,10.9-25,22-24.2
			C87.3,116.6,95.5,128.8,94.4,143z"/>
		<path class="st13" d="M94.3,142.6c-1,14-10.8,24.7-21.8,23.9c-11-0.8-19.1-12.8-18.1-26.7c1-14,10.7-24.7,21.8-23.9
			C87.2,116.6,95.3,128.6,94.3,142.6z"/>
		<path class="st13" d="M94.1,142.2c-1,13.8-10.6,24.3-21.5,23.5c-10.9-0.8-18.9-12.6-17.9-26.3c1-13.8,10.6-24.3,21.5-23.5
			C87,116.6,95.1,128.4,94.1,142.2z"/>
		<path class="st14" d="M93.9,141.8c-1,13.5-10.5,23.9-21.3,23.1c-10.8-0.8-18.7-12.4-17.8-25.9c1-13.6,10.5-23.9,21.3-23.1
			C86.9,116.6,94.9,128.2,93.9,141.8z"/>
		<path class="st15" d="M93.7,141.4c-1,13.3-10.4,23.5-21.1,22.8c-10.7-0.8-18.5-12.2-17.6-25.5c1-13.3,10.4-23.5,21.1-22.8
			C86.8,116.6,94.7,128,93.7,141.4z"/>
		<path class="st15" d="M93.5,141c-0.9,13.1-10.3,23.1-20.8,22.4c-10.6-0.8-18.3-12-17.4-25.1c0.9-13.1,10.3-23.2,20.8-22.4
			C86.7,116.6,94.5,127.8,93.5,141z"/>
		<path class="st15" d="M93.4,140.6c-0.9,12.9-10.2,22.8-20.6,22c-10.4-0.8-18.1-11.8-17.2-24.8c0.9-12.9,10.2-22.8,20.6-22
			C86.6,116.6,94.3,127.7,93.4,140.6z"/>
		<path class="st16" d="M93.2,140.2c-0.9,12.7-10,22.4-20.4,21.6c-10.3-0.7-18-11.7-17-24.4c0.9-12.7,10-22.4,20.4-21.6
			C86.5,116.6,94.1,127.5,93.2,140.2z"/>
		<path class="st16" d="M93,139.8c-0.9,12.5-9.9,22-20.1,21.3c-10.2-0.7-17.8-11.5-16.9-24c0.9-12.5,9.9-22,20.1-21.3
			C86.4,116.6,93.9,127.3,93,139.8z"/>
		<path class="st16" d="M92.8,139.4C92,151.7,83,161,72.9,160.3c-10.1-0.7-17.6-11.3-16.7-23.6c0.9-12.3,9.8-21.6,19.9-20.9
			C86.3,116.6,93.7,127.1,92.8,139.4z"/>
		<path class="st17" d="M92.7,139C91.8,151,83,160.2,73,159.5c-10-0.7-17.4-11.1-16.5-23.2c0.9-12.1,9.7-21.3,19.7-20.5
			C86.1,116.5,93.5,126.9,92.7,139z"/>
		<path class="st17" d="M92.5,138.6c-0.9,11.9-9.6,20.9-19.4,20.2c-9.9-0.7-17.2-10.9-16.3-22.8c0.9-11.9,9.6-20.9,19.4-20.2
			C86,116.5,93.3,126.7,92.5,138.6z"/>
		<path class="st17" d="M92.3,138.2c-0.8,11.6-9.4,20.5-19.2,19.8c-9.8-0.7-17-10.7-16.2-22.4c0.8-11.6,9.4-20.5,19.2-19.8
			C85.9,116.5,93.1,126.5,92.3,138.2z"/>
		<path class="st17" d="M92.1,137.8c-0.8,11.4-9.3,20.1-19,19.4c-9.6-0.7-16.8-10.5-16-22c0.8-11.4,9.3-20.1,19-19.4
			C85.8,116.5,92.9,126.4,92.1,137.8z"/>
		<path class="st18" d="M91.9,137.4c-0.8,11.2-9.2,19.8-18.7,19.1c-9.5-0.7-16.6-10.3-15.8-21.6c0.8-11.2,9.2-19.8,18.7-19.1
			C85.7,116.5,92.8,126.2,91.9,137.4z"/>
		<path class="st18" d="M91.8,137c-0.8,11-9.1,19.4-18.5,18.7c-9.4-0.7-16.4-10.2-15.6-21.2c0.8-11,9.1-19.4,18.5-18.7
			C85.6,116.5,92.6,126,91.8,137z"/>
		<path class="st18" d="M91.6,136.6c-0.8,10.8-9,19-18.3,18.3c-9.3-0.7-16.2-10-15.4-20.8c0.8-10.8,9-19,18.3-18.3
			C85.5,116.5,92.4,125.8,91.6,136.6z"/>
		<path class="st19" d="M91.4,136.2c-0.8,10.6-8.8,18.6-18,18c-9.2-0.7-16-9.8-15.3-20.4c0.8-10.6,8.8-18.6,18-18
			C85.3,116.5,92.2,125.6,91.4,136.2z"/>
		<path class="st20" d="M91.2,135.8c-0.7,10.4-8.7,18.2-17.8,17.6c-9.1-0.7-15.8-9.6-15.1-20c0.7-10.4,8.7-18.3,17.8-17.6
			C85.2,116.5,92,125.4,91.2,135.8z"/>
		<path class="st20" d="M91.1,135.4c-0.7,10.2-8.6,17.9-17.6,17.2c-9-0.6-15.6-9.4-14.9-19.6c0.7-10.2,8.6-17.9,17.6-17.2
			C85.1,116.5,91.8,125.2,91.1,135.4z"/>
		<path class="st20" d="M90.9,135c-0.7,9.9-8.5,17.5-17.3,16.9c-8.8-0.6-15.4-9.2-14.7-19.2c0.7-10,8.5-17.5,17.3-16.9
			C85,116.5,91.6,125,90.9,135z"/>
		<path class="st21" d="M90.7,134.6c-0.7,9.7-8.4,17.1-17.1,16.5c-8.7-0.6-15.2-9-14.5-18.8c0.7-9.7,8.4-17.1,17.1-16.5
			C84.9,116.5,91.4,124.9,90.7,134.6z"/>
		<path class="st21" d="M90.5,134.2c-0.7,9.5-8.2,16.7-16.9,16.1c-8.6-0.6-15.1-8.9-14.4-18.4c0.7-9.5,8.2-16.7,16.9-16.1
			C84.8,116.4,91.2,124.7,90.5,134.2z"/>
		<path class="st22" d="M90.3,133.8c-0.7,9.3-8.1,16.4-16.6,15.8c-8.5-0.6-14.9-8.7-14.2-18c0.7-9.3,8.1-16.4,16.6-15.8
			C84.7,116.4,91,124.5,90.3,133.8z"/>
		<path class="st22" d="M90.2,133.4c-0.7,9.1-8,16-16.4,15.4c-8.4-0.6-14.7-8.5-14-17.6c0.7-9.1,8-16,16.4-15.4
			C84.5,116.4,90.8,124.3,90.2,133.4z"/>
		<path class="st23" d="M90,133c-0.6,8.9-7.9,15.6-16.2,15c-8.3-0.6-14.5-8.3-13.8-17.2c0.6-8.9,7.9-15.6,16.2-15
			C84.4,116.4,90.6,124.1,90,133z"/>
		<path class="st23" d="M89.8,132.6c-0.6,8.7-7.8,15.2-15.9,14.6c-8.2-0.6-14.3-8.1-13.7-16.8c0.6-8.7,7.8-15.2,15.9-14.6
			C84.3,116.4,90.4,123.9,89.8,132.6z"/>
		<path class="st23" d="M89.6,132.2c-0.6,8.5-7.6,14.9-15.7,14.3c-8.1-0.6-14.1-7.9-13.5-16.4c0.6-8.5,7.6-14.9,15.7-14.3
			C84.2,116.4,90.2,123.7,89.6,132.2z"/>
		<path class="st24" d="M89.5,131.8c-0.6,8.3-7.5,14.5-15.5,13.9c-7.9-0.6-13.9-7.7-13.3-16c0.6-8.3,7.5-14.5,15.5-13.9
			C84.1,116.4,90,123.6,89.5,131.8z"/>
		<path class="st25" d="M89.3,131.4c-0.6,8-7.4,14.1-15.2,13.5c-7.8-0.6-13.7-7.5-13.1-15.6c0.6-8,7.4-14.1,15.2-13.5
			C84,116.4,89.9,123.4,89.3,131.4z"/>
		<path class="st25" d="M89.1,131c-0.6,7.8-7.3,13.7-15,13.2c-7.7-0.6-13.5-7.4-12.9-15.2c0.6-7.8,7.3-13.7,15-13.2
			C83.9,116.4,89.7,123.2,89.1,131z"/>
		<path class="st25" d="M88.9,130.6c-0.5,7.6-7.2,13.3-14.8,12.8c-7.6-0.6-13.3-7.2-12.8-14.8c0.5-7.6,7.2-13.4,14.8-12.8
			C83.8,116.4,89.5,123,88.9,130.6z"/>
		<path class="st26" d="M88.7,130.2c-0.5,7.4-7,13-14.5,12.4c-7.5-0.5-13.1-7-12.6-14.4c0.5-7.4,7-13,14.5-12.4
			C83.6,116.4,89.3,122.8,88.7,130.2z"/>
		<path class="st26" d="M88.6,129.8c-0.5,7.2-6.9,12.6-14.3,12.1c-7.4-0.5-12.9-6.8-12.4-14c0.5-7.2,6.9-12.6,14.3-12.1
			C83.5,116.4,89.1,122.6,88.6,129.8z"/>
		<path class="st26" d="M88.4,129.4c-0.5,7-6.8,12.2-14.1,11.7c-7.3-0.5-12.7-6.6-12.2-13.6c0.5-7,6.8-12.2,14.1-11.7
			C83.4,116.4,88.9,122.4,88.4,129.4z"/>
		<path class="st26" d="M88.2,129c-0.5,6.8-6.7,11.8-13.8,11.3c-7.1-0.5-12.5-6.4-12.1-13.2c0.5-6.8,6.7-11.8,13.8-11.3
			C83.3,116.3,88.7,122.2,88.2,129z"/>
		<path class="st27" d="M88,128.6c-0.5,6.6-6.6,11.5-13.6,11c-7-0.5-12.4-6.2-11.9-12.8c0.5-6.6,6.6-11.5,13.6-11
			C83.2,116.3,88.5,122.1,88,128.6z"/>
		<path class="st27" d="M87.8,128.2c-0.5,6.3-6.4,11.1-13.4,10.6c-6.9-0.5-12.2-6.1-11.7-12.4c0.5-6.3,6.4-11.1,13.4-10.6
			C83.1,116.3,88.3,121.9,87.8,128.2z"/>
		<path class="st27" d="M87.7,127.8c-0.4,6.1-6.3,10.7-13.1,10.2c-6.8-0.5-12-5.9-11.5-12c0.4-6.1,6.3-10.7,13.1-10.2
			C83,116.3,88.1,121.7,87.7,127.8z"/>
		<path class="st28" d="M87.5,127.4c-0.4,5.9-6.2,10.3-12.9,9.9c-6.7-0.5-11.8-5.7-11.3-11.6c0.4-5.9,6.2-10.3,12.9-9.9
			C82.8,116.3,87.9,121.5,87.5,127.4z"/>
		<path class="st28" d="M87.3,127c-0.4,5.7-6.1,10-12.7,9.5c-6.6-0.5-11.6-5.5-11.2-11.2c0.4-5.7,6.1-10,12.7-9.5
			C82.7,116.3,87.7,121.3,87.3,127z"/>
		<path class="st28" d="M87.1,126.6c-0.4,5.5-6,9.6-12.4,9.1c-6.5-0.5-11.4-5.3-11-10.8c0.4-5.5,6-9.6,12.4-9.1
			C82.6,116.3,87.5,121.1,87.1,126.6z"/>
		<path class="st29" d="M87,126.2c-0.4,5.3-5.8,9.2-12.2,8.7c-6.4-0.5-11.2-5.1-10.8-10.4c0.4-5.3,5.8-9.2,12.2-8.7
			C82.5,116.3,87.3,120.9,87,126.2z"/>
		<path class="st30" d="M86.8,125.8c-0.4,5.1-5.7,8.8-12,8.4c-6.2-0.5-11-4.9-10.6-10c0.4-5.1,5.7-8.8,12-8.4
			C82.4,116.3,87.1,120.8,86.8,125.8z"/>
		<path class="st30" d="M86.6,125.4c-0.3,4.9-5.6,8.4-11.7,8c-6.1-0.4-10.8-4.7-10.5-9.6c0.3-4.9,5.6-8.5,11.7-8
			C82.3,116.3,87,120.6,86.6,125.4z"/>
		<path class="st30" d="M86.4,125c-0.3,4.7-5.5,8.1-11.5,7.6c-6-0.4-10.6-4.6-10.3-9.2c0.3-4.7,5.5-8.1,11.5-7.6
			C82.2,116.3,86.8,120.4,86.4,125z"/>
		<path class="st30" d="M86.2,124.6c-0.3,4.4-5.4,7.7-11.3,7.3c-5.9-0.4-10.4-4.4-10.1-8.8c0.3-4.4,5.4-7.7,11.3-7.3
			C82,116.3,86.6,120.2,86.2,124.6z"/>
		<path class="st31" d="M86.1,124.2c-0.3,4.2-5.2,7.3-11,6.9c-5.8-0.4-10.2-4.2-9.9-8.4c0.3-4.2,5.2-7.3,11-6.9
			C81.9,116.2,86.4,120,86.1,124.2z"/>
		<path class="st31" d="M85.9,123.8c-0.3,4-5.1,6.9-10.8,6.5c-5.7-0.4-10-4-9.7-8c0.3-4,5.1-6.9,10.8-6.5
			C81.8,116.2,86.2,119.8,85.9,123.8z"/>
	</g>
	<linearGradient id="SVGID_6_" gradientUnits="userSpaceOnUse" x1="67.2522" y1="150.1742" x2="79.6667" y2="150.1742">
		<stop  offset="0" style="stop-color:#BE8715"/>
		<stop  offset="0.3603" style="stop-color:#A36B0E"/>
		<stop  offset="1" style="stop-color:#6A3100"/>
	</linearGradient>
	<path class="st32" d="M79.6,150.9c-0.4,4-3.6,6.9-7,6.5c-3.4-0.4-5.8-3.9-5.4-7.9c0.4-4,3.5-6.9,6.9-6.5
		C77.7,143.3,80,146.9,79.6,150.9z"/>
	<linearGradient id="SVGID_7_" gradientUnits="userSpaceOnUse" x1="53.34" y1="145.7187" x2="63.4195" y2="145.7187">
		<stop  offset="0" style="stop-color:#BE8715"/>
		<stop  offset="0.3603" style="stop-color:#A36B0E"/>
		<stop  offset="1" style="stop-color:#6A3100"/>
	</linearGradient>
	<path class="st33" d="M63.4,146.3c-0.4,3.6-3,6.2-5.7,5.9c-2.8-0.3-4.6-3.5-4.2-7.1c0.4-3.6,3-6.2,5.7-5.9
		C61.9,139.5,63.8,142.7,63.4,146.3z"/>
</g>
</svg>
