<?xml version="1.0" encoding="utf-8"?>
<!-- Generator: Adobe Illustrator 21.0.0, SVG Export Plug-In . SVG Version: 6.00 Build 0)  -->
<svg version="1.1" id="Layer_1" xmlns="http://www.w3.org/2000/svg" xmlns:xlink="http://www.w3.org/1999/xlink" x="0px" y="0px"
	 viewBox="0 0 525 750" style="enable-background:new 0 0 525 750;" xml:space="preserve">
<style type="text/css">
	.st0{fill:#9B8165;}
	.st1{fill:#BA5400;}
	.st2{fill:#B17E11;}
	.st3{fill:#E6E6E6;}
	.st4{fill:#42210B;}
	.st5{fill:#F7AD1E;}
	.st6{fill:url(#SVGID_1_);}
	.st7{fill:url(#SVGID_2_);}
	.st8{fill:#CF6603;}
	.st9{fill:#FFFFFF;}
	.st10{fill:url(#SVGID_3_);}
	.st11{fill:url(#SVGID_4_);}
	.st12{fill:url(#SVGID_5_);}
	.st13{fill:#F7AE1E;}
	.st14{fill:#F7AF1E;}
	.st15{fill:#F7AF1D;}
	.st16{fill:#F7B01D;}
	.st17{fill:#F7B11D;}
	.st18{fill:#F7B21D;}
	.st19{fill:#F7B21C;}
	.st20{fill:#F7B31C;}
	.st21{fill:#F7B41C;}
	.st22{fill:#F8B41C;}
	.st23{fill:#F8B51C;}
	.st24{fill:#F8B61C;}
	.st25{fill:#F8B61B;}
	.st26{fill:#F8B71B;}
	.st27{fill:#F8B81B;}
	.st28{fill:#F8B91B;}
	.st29{fill:#F8B91A;}
	.st30{fill:#F8BA1A;}
	.st31{fill:#F8BB1A;}
	.st32{fill:url(#SVGID_6_);}
	.st33{fill:url(#SVGID_7_);}
</style>
<g>
	<path class="st0" d="M352.9,19.2C332,23,308.4,84,308.4,84l5.7-0.1c0,0,0.1-0.2,0.3-0.5l0.9,0.4c0,0,34.6-20.7,45.2-35.4
		c1.6-2.2,2.6-5.1,3.1-8.2l0,0C365.6,30.2,362.7,17.5,352.9,19.2z"/>
	<path class="st1" d="M283.1,64.7V35.2c0,0,45.6-14.2,69.6,56.9c24.4,72.2,18.2,147.9,10.9,211.6c-7.5,65.2-28.1,153.3-28.1,153.3
		l-34.8,3.2L283.1,64.7z"/>
	<g>
		<path class="st2" d="M197.1,532.9c0,0,2.2,8.7,0,27.3s-4.5,26.9-5.9,28.3c-1.4,1.4-8.3,4.2-7.5,12c0.8,7.7,4.5,8.9,4.5,8.9
			l-0.4,3.8c-0.6,5.6-2.3,16.5-5.9,27.8c-5.1,16.2-14.9,23.1-14.8,26c0,0.6,0.2,1.2,0.5,1.8c-2.2,1.9-5.6,5.2-8.1,9.2
			c-4,6.2-5.1,13.8-5.1,13.8s4.7,4.1,17.9,4.4c13.3,0.4,20.9-4.5,20.9-4.5s0.6-7-1.1-12.4c-0.3-1.1-0.7-2.1-1.1-3.2
			c3.8-0.2,6.1-0.7,6.1-0.7s15.4-48.2,14.3-58.5c-1.1-10.3-7.1-16.3-7.1-16.3s6.1-2.8,8.7-8.1c2.6-5.3,0-59.7,0-59.7h-15.9V532.9z"
			/>
		<path class="st2" d="M299.5,615.2c-2.1-10.1-8.2-15.5-8.2-15.5s5.2-3.4,6.9-8.9c1.7-5.6-6.4-57.8-6.4-57.8h-13
			c0,0,1.3,8.5,1.5,27.2c0.1,18.7-1.1,27.2-2.2,28.7s-7,5-5.4,12.6s5.1,8.4,5.1,8.4l0.1,3.8c0,5.6-0.2,16.6-2.1,28.2
			c-2.8,16.6-10.8,24.5-10.4,27.3c0,0,0,0,0,0.1c-2,1.9-4.8,5-6.9,8.7c-3.6,6.2-4.7,13.8-4.7,13.8s4.2,4.1,16.3,4.4
			c12.1,0.4,19.1-4.5,19.1-4.5s0.6-7-1-12.4c-0.3-1.1-0.7-2.2-1-3.3c3.7-0.5,6-1.4,6-1.4S301.6,625.3,299.5,615.2z"/>
	</g>
	<path class="st0" d="M270.9,66.9c0,0,0.5-12.5-0.6-19.3c-1.4-8.5-4.8-10.3-4.8-10.3l3.5-2.7c0,0,3.8,4.5,6.3,12
		c2.2,6.8,3.1,19.1,3.1,19.1s-1.4,2.3-3.9,2.5C272.2,68.6,270.9,66.9,270.9,66.9z"/>
	<path class="st0" d="M267,23.3c4.5,2.7,6.1,8.2,3.7,12.3c-2.5,4.1-8.1,5.3-12.5,2.6c-4.5-2.7-6.1-8.2-3.7-12.3
		C256.9,21.8,262.5,20.6,267,23.3z"/>
	<path class="st3" d="M243,88.6c0,7.7-6.3,14-14,14s-14-6.3-14-14s6.3-14,14-14S243,80.8,243,88.6z"/>
	<ellipse class="st4" cx="222.3" cy="92.3" rx="5" ry="5"/>
	<path class="st5" d="M324.7,447.8c0,0,23.9-4.5,31.7,11.5c7.9,16,6,78.4-40.4,99.5c-34.4,15.7-87.9,15.9-115.4-3.9
		c-21.2-15.2-36.7-42.7-28.2-90.5s43.1-78.6,61.9-148.9s27.5-115.2,15.2-131.6s-48.4-13.5-62.4-4.8c-16,10-25.6,34.8-41.6,41.3
		c-13.7,5.6-30.6-5-32-20.4s8.8-15.5,8.8-15.5s-10.6-10.1-9.4-15.2c1.2-5.1,5.3-3.4,6.2-4.7c0.8-1.4,7.3-40.8,26.8-42.7
		c18.2-1.8,17.5-0.1,21.3-0.1c4,0,6.6,0.8,12.5-1.4c5.8-2.1,16.7-5.1,30.4-13c13.7-7.8,56-48.3,77.6-46.6
		c21.7,1.7,45.2,40.4,58.2,129.8C358.8,280.2,324.7,447.8,324.7,447.8z"/>
	<path class="st4" d="M190.8,697.5c0,0-7.2,5.3-11.7,12.5s-5.9,15.9-5.9,15.9s5.3,4.7,20.6,5.1c15.2,0.5,24.1-5.2,24.1-5.2
		s0.7-8-1.2-14.3c-2.3-7.4-5.6-14.1-5.6-14.1L190.8,697.5L190.8,697.5z"/>
	
		<linearGradient id="SVGID_1_" gradientUnits="userSpaceOnUse" x1="214.8578" y1="43.9939" x2="214.8578" y2="208.8384" gradientTransform="matrix(1 0 0 -1 0 752)">
		<stop  offset="0" style="stop-color:#CCAC83"/>
		<stop  offset="1" style="stop-color:#F7AD1E"/>
	</linearGradient>
	<path class="st6" d="M222.3,543.2c0,0,2.5,10,0,31.4s-5.2,30.9-6.8,32.5s-9.6,4.9-8.6,13.8c0.9,8.9,5.2,10.2,5.2,10.2
		s-1.3,17.7-7.2,36.4c-5.9,18.7-17.2,26.6-17.1,29.9c0.1,3.3,4,7.9,15.1,9.8c11.1,1.9,19.4,0,19.4,0s17.7-55.4,16.5-67.2
		s-8.2-18.8-8.2-18.8s7.1-3.2,10-9.3c3-6.1,0-68.7,0-68.7L222.3,543.2L222.3,543.2z"/>
	<path class="st1" d="M211.6,635.5l0.4-4.4c0,0,1.6,0.6,3.4,0.6c0.8,0,1.5-0.1,2.2-0.2c2.5-0.6,6.2-2.7,6.3-2.7c0,0,0,3.5-5.2,5.8
		C216,635.7,211.7,635.5,211.6,635.5z"/>
	<path class="st4" d="M303.5,697.5c0,0-6.5,5.3-10.7,12.5c-4.1,7.2-5.4,15.9-5.4,15.9s4.9,4.7,18.7,5.1c13.9,0.5,21.9-5.2,21.9-5.2
		s0.6-8-1.1-14.3c-2.1-7.4-5.1-14.1-5.1-14.1L303.5,697.5L303.5,697.5z"/>
	
		<linearGradient id="SVGID_2_" gradientUnits="userSpaceOnUse" x1="320.6227" y1="43.6902" x2="320.6227" y2="208.8384" gradientTransform="matrix(1 0 0 -1 0 752)">
		<stop  offset="0" style="stop-color:#CCAC83"/>
		<stop  offset="1" style="stop-color:#F7AD1E"/>
	</linearGradient>
	<path class="st7" d="M316.3,543.2c0,0,1.5,9.8,1.7,31.3c0.1,21.5-1.2,31.3-2.5,33c-1.2,1.7-8,5.8-6.2,14.5c1.8,8.7,5.8,9.7,5.8,9.7
		s0.8,17.8-2.4,36.9c-3.2,19.1-12.4,28.2-11.9,31.4c0.5,3.3,4.4,7.4,14.6,8.2s17.4-1.9,17.4-1.9s9.7-56.8,7.3-68.5
		c-2.4-11.6-9.4-17.8-9.4-17.8s6-3.9,7.9-10.3c2-6.4-7.3-66.5-7.3-66.5L316.3,543.2L316.3,543.2z"/>
	<path class="st1" d="M315.1,636.1l-0.1-4.4c0,0,1.8,1,5.1,0.1c3.4-0.9,5.8-3.6,5.8-3.6s0,3.7-4,6.3
		C319.6,635.9,315.1,636.1,315.1,636.1z"/>
	<path class="st5" d="M351.3,457.4c0,0,8.7-15.2,22.5-8.4c11.2,5.5,8.1,65.8,4.1,92.1c-2.7,17.6-10.4,66.1-10.4,66.1l-4.8,0.6
		c0,0,6.9-50.8,8.9-67.8c4.2-36.9,5.8-80.8,0-86.2c-5.8-5.4-15.5,9.3-15.5,9.3L351.3,457.4z"/>
	<path class="st1" d="M353.1,613.9c1.5-3.5,8.8-13.4,15.9-6.1c7.1,7.3-2.3,26.8-0.9,36.3c2.8,19.3,12.7,21.8,12.7,21.8
		s-4.7,2.5-8.3-0.3c-2.3-1.8-6.1-8-6.1-8s2.1,7.5,1.4,11.4c-1.1,6.1-5.2,15.3-5.2,15.3s0.7-10.1-0.1-17.6
		c-0.5-4.7-3.4-10.5-3.4-10.5s-1.8,3-3.7,8.2c-1.2,3.4-1.3,11.6-1.3,11.6s-4.4-7.9-2-16.3c2.5-8.4,3.3-9.7,3.2-14.1
		c-0.2-6.2-0.8-9.8-0.8-9.8s-2.2,1.9-3.3,6.1c-0.8,3-1.4,11.7-1.4,11.7s-2.6-6.5-2.6-14.6C347.3,631.4,350,621.2,353.1,613.9z"/>
	<path class="st8" d="M244.8,459.2c2.7-4.7,35-17.1,40-17.3c5-0.2,28.4,34.4,28.9,38.7c0.5,4.3-23.4,25.9-26.8,26.6
		c-3.4,0.7-31.6-4.8-33.2-7.5C252.1,497,243,462.4,244.8,459.2z"/>
	<path class="st8" d="M222.1,417.8c-2.1-2.5-3.8-38.2-2.3-41.9c1.4-3.6,36-25.5,39.2-25c3.2,0.5,31.4,32.1,31.4,35.7
		s-21.4,35.9-23,36.6C265.8,423.9,225.5,421.9,222.1,417.8z"/>
	<path class="st8" d="M308.3,183.5c-1.4,3,10,34.9,13.4,37.3c2.7,1.8,18.6-0.3,26.6-1.5c-0.4-10.1-1.3-19.7-2.5-28.5
		c-2.1-14.3-4.4-27.3-7-39.1C332.2,157.8,311.1,177.5,308.3,183.5z"/>
	<path class="st8" d="M312.9,292.7c-5.2,2.3-24.3,33.9-23.9,38.2c0.5,4.3,21.4,28.7,28.2,29.3c4.3,0.4,15.4-3.9,22.9-7.2
		c1.5-11.4,2.9-23.3,4.1-35.5C336.5,309.8,317,290.9,312.9,292.7z"/>
	<path class="st8" d="M330.1,489.2c-4.8,2.3-10.7,25.7-9.6,29.1c1.2,3.4,23.9,15.7,24.1,15.8c8.2-12.3,12.6-26.5,14.3-39.4
		C350.6,492.3,333.7,487.5,330.1,489.2z"/>
	<path class="st8" d="M311.9,527.5c-1.4-1.8-35-8.2-38.4-7.1c-3.4,1.1-18.2,23.9-18.4,27.8c-0.2,2.7,7.8,14.6,12.7,21.8
		c13.5-0.8,26.9-3.3,38.8-7.4C308.9,550.6,312.9,528.8,311.9,527.5z"/>
	<path class="st8" d="M219.6,499.3c-1.1-2-25.9-20.9-28-20.9c-1.2,0-12.5,10-21.3,18c1.2,20.4,8,35.5,17.5,46.7
		c10.8-1.9,24.9-4.6,25.9-5.4C215.3,536.3,220.7,501.3,219.6,499.3z"/>
	<path class="st8" d="M265.5,308.6c2.5-0.7,31.8-32.3,31.8-35s-21.4-40-24.6-40.9c-1.6-0.5-11.7,4.6-21.2,9.6
		c-2.5,14.2-6.3,30.6-10.9,49.1C248.3,297.3,263.7,309.1,265.5,308.6z"/>
	<path class="st8" d="M211.9,444.2c0.5-1.9-10.4-23.7-17.1-36.9c-10.1,18.9-18.7,36.5-22.4,57.2c-0.7,4.1-1.2,8-1.6,11.7
		C180.6,469.1,211.3,446.5,211.9,444.2z"/>
	<path class="st8" d="M270.8,214c2.7-1.4,10.7-32.3,10.5-34.1c-0.2-1.8-22.8-16.8-26.2-15.7c-2.2,0.7-9.1,7.8-13.9,12.9
		c3.4,1.8,6.3,4,8.5,6.9c4.5,5.9,6.1,15.7,5.6,29C262.1,213.9,269.4,214.7,270.8,214z"/>
	<path class="st1" d="M138.9,191.4c-10.7,0-17.2-5.5-17.5-5.8c-0.6-0.5-0.6-1.4-0.1-1.9c0.5-0.6,1.4-0.6,1.9-0.1
		c0.1,0.1,6.5,5.5,16.7,5.1c3.7-0.1,7.2-1.5,10.9-2.9c2.3-0.9,4.7-1.8,7.2-2.4c7.3-1.8,15.9-2.9,16-2.9c0.8-0.1,1.4,0.4,1.5,1.2
		c0.1,0.7-0.4,1.4-1.2,1.5c-0.1,0-8.6,1-15.6,2.8c-2.3,0.6-4.6,1.4-6.9,2.3c-3.8,1.4-7.7,2.9-11.8,3
		C139.7,191.4,139.3,191.4,138.9,191.4L138.9,191.4z"/>
	<path class="st9" d="M283.4,90.9c0,11.7-9.5,21.2-21.2,21.2c-11.7,0-21.2-9.5-21.2-21.2s9.5-21.2,21.2-21.2
		C273.9,69.7,283.4,79.2,283.4,90.9z"/>
	<circle class="st4" cx="250.5" cy="95" r="7.5"/>
	<path class="st8" d="M263.7,120.8c-0.3,1-2,1.3-3.9,0.9c-1.9-0.5-3.2-1.7-3-2.6c0.3-1,2-1.3,3.9-0.9
		C262.6,118.6,264,119.8,263.7,120.8z"/>
	<ellipse transform="matrix(0.9596 -0.2813 0.2813 0.9596 -21.7218 82.6384)" class="st8" cx="277" cy="117" rx="3.6" ry="2.2"/>
	<path class="st8" d="M299,113.4c0.4,1.2-1,2.7-3.1,3.4c-2.1,0.7-4.1,0.2-4.5-1s1-2.7,3.1-3.4S298.6,112.2,299,113.4z"/>
	<path class="st8" d="M297.2,123.5c0,0.9-0.7,1.7-1.5,1.7c-0.8,0-1.5-0.7-1.5-1.7c0-0.9,0.7-1.6,1.5-1.6
		C296.5,121.8,297.2,122.6,297.2,123.5z"/>
	<path class="st8" d="M280,128.2c0.2,1.3-2,2.7-5,3.3c-3,0.5-5.6-0.1-5.8-1.3c-0.2-1.3,2-2.7,5-3.3
		C277.2,126.3,279.8,126.9,280,128.2z"/>
	<ellipse class="st8" cx="282.8" cy="137" rx="1.5" ry="1.2"/>
	<path class="st8" d="M261.2,132.4c0,0.5-0.6,0.9-1.5,0.9c-0.8,0-1.5-0.4-1.5-0.9s0.7-0.9,1.5-0.9
		C260.5,131.5,261.2,131.9,261.2,132.4z"/>
	<path class="st8" d="M250.4,126.8c-0.4,1.7-3.1,2.4-6,1.7c-2.9-0.7-4.8-2.7-4.4-4.4c0.4-1.7,3.1-2.4,6-1.7
		C248.9,123.2,250.9,125.1,250.4,126.8z"/>
	<path class="st8" d="M242.6,112.3c0,1.4-1.4,2.6-3.1,2.6c-1.7,0-3.1-1.1-3.1-2.6c0-1.4,1.4-2.6,3.1-2.6
		C241.2,109.8,242.6,110.9,242.6,112.3z"/>
	<ellipse class="st8" cx="292.7" cy="101.7" rx="2" ry="2.4"/>
	
		<linearGradient id="SVGID_3_" gradientUnits="userSpaceOnUse" x1="310.7915" y1="681.1777" x2="400.2996" y2="681.1777" gradientTransform="matrix(1 0 0 -1 0 752)">
		<stop  offset="0" style="stop-color:#42210B"/>
		<stop  offset="1" style="stop-color:#F7AD1E"/>
	</linearGradient>
	<path class="st10" d="M310.8,88.6c0,0,59.3-53.5,82.9-39.6c14.5,8.5,2.4,35.2-10.1,40.5c-21.1,9-70.4,4.3-70.4,4.3L310.8,88.6z"/>
	<path class="st5" d="M379.8,63.8c9.5,2.2,12.1,12.3,12.8,18.2c9-10.9,15.1-29.5,4.1-36c-23.6-13.8-90.6,41.7-90.6,41.7l5.8,4.9l0,0
		C312,92.8,366.3,60.7,379.8,63.8z"/>
	
		<linearGradient id="SVGID_4_" gradientUnits="userSpaceOnUse" x1="312.6252" y1="674.3384" x2="312.6252" y2="703.1384" gradientTransform="matrix(1 0 0 -1 0 752)">
		<stop  offset="0" style="stop-color:#CCAC83"/>
		<stop  offset="1" style="stop-color:#EBB299"/>
	</linearGradient>
	<path class="st11" d="M296.5,71c0,0,13.4-6.7,19.8-11.6c8.1-6.3,7.8-10.5,7.8-10.5l5,1.9c0,0-2.3,6.2-8.7,12.9
		c-5.7,6-18.1,14-18.1,14s-3.3,0-5.1-2.3S296.5,71,296.5,71z"/>
	
		<linearGradient id="SVGID_5_" gradientUnits="userSpaceOnUse" x1="328.9915" y1="699.2384" x2="328.9915" y2="720.3974" gradientTransform="matrix(1 0 0 -1 0 752)">
		<stop  offset="0" style="stop-color:#CCAC83"/>
		<stop  offset="1" style="stop-color:#EBB299"/>
	</linearGradient>
	<path class="st12" d="M339.6,42.2c0,5.8-4.7,10.6-10.6,10.6c-5.8,0-10.6-4.7-10.6-10.6c0-5.8,4.7-10.6,10.6-10.6
		C334.9,31.6,339.6,36.4,339.6,42.2z"/>
	<path class="st8" d="M326.6,554.6c0,1.5-1.3,2.7-3,2.7c-1.7,0-3-1.2-3-2.7s1.3-2.7,3-2.7C325.2,551.9,326.6,553.1,326.6,554.6z"/>
	<ellipse class="st8" cx="227.7" cy="563.1" rx="3" ry="2.7"/>
	<path class="st8" d="M323.8,580.1c0,1.2-1.1,2.1-2.4,2.1s-2.4-1-2.4-2.1c0-1.2,1.1-2.1,2.4-2.1S323.8,578.9,323.8,580.1z"/>
	<path class="st8" d="M229.5,589.2c0,1.2-1.1,2.2-2.4,2.2s-2.4-1-2.4-2.2s1.1-2.1,2.4-2.1S229.5,588,229.5,589.2z"/>
	<ellipse class="st8" cx="224.7" cy="577.9" rx="2.4" ry="2.1"/>
	<path class="st8" d="M332.1,557.8c0,0.8-0.5,1.4-1.1,1.4s-1.1-0.6-1.1-1.4c0-0.8,0.5-1.4,1.1-1.4
		C331.6,556.4,332.1,557,332.1,557.8z"/>
	<path class="st8" d="M237.5,584.3c0,0.8-0.5,1.4-1.1,1.4s-1.1-0.6-1.1-1.4c0-0.8,0.5-1.4,1.1-1.4
		C237,582.9,237.5,583.6,237.5,584.3z"/>
	<ellipse class="st8" cx="323.3" cy="562" rx="1.7" ry="2"/>
	<ellipse class="st8" cx="236.4" cy="571.9" rx="1.7" ry="2"/>
	<path class="st8" d="M332.3,565.1c0,1.5-1,2.7-2.2,2.7s-2.2-1.2-2.2-2.7s1-2.7,2.2-2.7C331.4,562.4,332.3,563.6,332.3,565.1z"/>
	<path class="st8" d="M333.5,570.2c0,0.8-0.5,1.5-1.2,1.5c-0.6,0-1.2-0.7-1.2-1.5s0.5-1.5,1.2-1.5S333.5,569.3,333.5,570.2z"/>
	<path class="st8" d="M326.2,574.3c0,1.3-0.7,2.4-1.5,2.4c-0.8,0-1.5-1.1-1.5-2.4c0-1.3,0.7-2.4,1.5-2.4
		C325.6,571.9,326.2,573,326.2,574.3z"/>
	<path class="st8" d="M330.5,571.9c0,1.4-0.7,2.5-1.6,2.5s-1.6-1.1-1.6-2.5s0.7-2.5,1.6-2.5C329.8,569.4,330.5,570.5,330.5,571.9z"
		/>
	<ellipse class="st8" cx="321.5" cy="568.5" rx="2.3" ry="2.2"/>
	<path class="st8" d="M231,571.9c0,1.2-1,2.2-2.3,2.2s-2.3-1-2.3-2.2s1-2.2,2.3-2.2S231,570.7,231,571.9z"/>
	<ellipse class="st8" cx="330.4" cy="552.7" rx="1.5" ry="0.8"/>
	<path class="st8" d="M323.5,545c0,1.8-2,3.3-4.4,3.3s-4.4-1.5-4.4-3.3s2-3.3,4.4-3.3C321.6,541.7,323.5,543.1,323.5,545z"/>
	<path class="st8" d="M235.2,550.1c0,1.8-2,3.3-4.4,3.3s-4.4-1.5-4.4-3.3s2-3.3,4.4-3.3S235.2,548.3,235.2,550.1z"/>
	<ellipse class="st8" cx="328" cy="545" rx="3" ry="3.1"/>
	<ellipse class="st8" cx="236.4" cy="560" rx="3" ry="3.1"/>
	<path class="st8" d="M331.4,577.9c0,0.9-0.4,1.6-0.9,1.6s-0.9-0.7-0.9-1.6c0-0.9,0.4-1.6,0.9-1.6C331,576.3,331.4,577,331.4,577.9z
		"/>
	<ellipse class="st8" cx="235.3" cy="579.5" rx="0.9" ry="1.6"/>
	<g>
		<path class="st5" d="M168.3,150.7c-1.1,14.8-11.2,26.2-22.7,25.3c-11.5-0.8-19.9-13.5-18.8-28.3c1.1-14.8,11.2-26.2,22.7-25.3
			C160.9,123.2,169.3,135.8,168.3,150.7z"/>
		<path class="st5" d="M168.1,150.3c-1.1,14.6-11.1,25.8-22.5,25c-11.3-0.8-19.7-13.3-18.6-27.9c1.1-14.6,11.1-25.8,22.5-25
			C160.8,123.1,169.1,135.7,168.1,150.3z"/>
		<path class="st13" d="M167.9,149.9c-1,14.4-11,25.4-22.2,24.6c-11.2-0.8-19.5-13.1-18.5-27.5c1-14.4,11-25.4,22.2-24.6
			C160.7,123.1,169,135.5,167.9,149.9z"/>
		<path class="st13" d="M167.7,149.5c-1,14.2-10.9,25-22,24.2c-11.1-0.8-19.3-13-18.3-27.1c1-14.2,10.9-25,22-24.2
			C160.6,123.1,168.8,135.3,167.7,149.5z"/>
		<path class="st13" d="M167.6,149.1c-1,14-10.8,24.7-21.8,23.9s-19.1-12.8-18.1-26.7c1-14,10.7-24.7,21.8-23.9
			C160.5,123.1,168.6,135.1,167.6,149.1z"/>
		<path class="st13" d="M167.4,148.7c-1,13.8-10.6,24.3-21.5,23.5c-10.9-0.8-18.9-12.6-17.9-26.3c1-13.8,10.6-24.3,21.5-23.5
			C160.3,123.1,168.4,134.9,167.4,148.7z"/>
		<path class="st14" d="M167.2,148.3c-1,13.5-10.5,23.9-21.3,23.1c-10.8-0.8-18.7-12.4-17.8-25.9c1-13.6,10.5-23.9,21.3-23.1
			C160.2,123.1,168.2,134.7,167.2,148.3z"/>
		<path class="st15" d="M167,147.9c-1,13.3-10.4,23.5-21.1,22.8c-10.7-0.8-18.5-12.2-17.6-25.5c1-13.3,10.4-23.5,21.1-22.8
			C160.1,123.1,168,134.5,167,147.9z"/>
		<path class="st15" d="M166.8,147.5c-0.9,13.1-10.3,23.1-20.8,22.4c-10.6-0.8-18.3-12-17.4-25.1c0.9-13.1,10.3-23.2,20.8-22.4
			C160,123.1,167.8,134.3,166.8,147.5z"/>
		<path class="st15" d="M166.7,147.1c-0.9,12.9-10.2,22.8-20.6,22c-10.4-0.8-18.1-11.8-17.2-24.8c0.9-12.9,10.2-22.8,20.6-22
			C159.9,123.1,167.6,134.2,166.7,147.1z"/>
		<path class="st16" d="M166.5,146.7c-0.9,12.7-10,22.4-20.4,21.6c-10.3-0.7-18-11.7-17-24.4c0.9-12.7,10-22.4,20.4-21.6
			C159.8,123.1,167.4,134,166.5,146.7z"/>
		<path class="st16" d="M166.3,146.3c-0.9,12.5-9.9,22-20.1,21.3s-17.8-11.5-16.9-24c0.9-12.5,9.9-22,20.1-21.3
			C159.7,123.1,167.2,133.8,166.3,146.3z"/>
		<path class="st16" d="M166.1,145.9c-0.8,12.3-9.8,21.6-19.9,20.9c-10.1-0.7-17.6-11.3-16.7-23.6s9.8-21.6,19.9-20.9
			C159.6,123.1,167,133.6,166.1,145.9z"/>
		<path class="st17" d="M166,145.5c-0.9,12-9.7,21.2-19.7,20.5s-17.4-11.1-16.5-23.2c0.9-12.1,9.7-21.3,19.7-20.5
			C159.4,123,166.8,133.4,166,145.5z"/>
		<path class="st17" d="M165.8,145.1c-0.9,11.9-9.6,20.9-19.4,20.2c-9.9-0.7-17.2-10.9-16.3-22.8c0.9-11.9,9.6-20.9,19.4-20.2
			C159.3,123,166.6,133.2,165.8,145.1z"/>
		<path class="st17" d="M165.6,144.7c-0.8,11.6-9.4,20.5-19.2,19.8c-9.8-0.7-17-10.7-16.2-22.4c0.8-11.6,9.4-20.5,19.2-19.8
			C159.2,123,166.4,133,165.6,144.7z"/>
		<path class="st17" d="M165.4,144.3c-0.8,11.4-9.3,20.1-19,19.4c-9.6-0.7-16.8-10.5-16-22c0.8-11.4,9.3-20.1,19-19.4
			C159.1,123,166.2,132.9,165.4,144.3z"/>
		<path class="st18" d="M165.2,143.9c-0.8,11.2-9.2,19.8-18.7,19.1s-16.6-10.3-15.8-21.6c0.8-11.2,9.2-19.8,18.7-19.1
			C159,123,166.1,132.7,165.2,143.9z"/>
		<path class="st18" d="M165.1,143.5c-0.8,11-9.1,19.4-18.5,18.7c-9.4-0.7-16.4-10.2-15.6-21.2s9.1-19.4,18.5-18.7
			C158.9,123,165.9,132.5,165.1,143.5z"/>
		<path class="st18" d="M164.9,143.1c-0.8,10.8-9,19-18.3,18.3c-9.3-0.7-16.2-10-15.4-20.8s9-19,18.3-18.3S165.7,132.3,164.9,143.1z
			"/>
		<path class="st19" d="M164.7,142.7c-0.8,10.6-8.8,18.6-18,18c-9.2-0.7-16-9.8-15.3-20.4c0.8-10.6,8.8-18.6,18-18
			C158.6,123,165.5,132.1,164.7,142.7z"/>
		<path class="st20" d="M164.5,142.3c-0.7,10.4-8.7,18.2-17.8,17.6c-9.1-0.7-15.8-9.6-15.1-20s8.7-18.3,17.8-17.6
			C158.5,123,165.3,131.9,164.5,142.3z"/>
		<path class="st20" d="M164.4,141.9c-0.7,10.2-8.6,17.9-17.6,17.2c-9-0.6-15.6-9.4-14.9-19.6c0.7-10.2,8.6-17.9,17.6-17.2
			C158.4,123,165.1,131.7,164.4,141.9z"/>
		<path class="st20" d="M164.2,141.5c-0.7,9.9-8.5,17.5-17.3,16.9c-8.8-0.6-15.4-9.2-14.7-19.2c0.7-10,8.5-17.5,17.3-16.9
			C158.3,123,164.9,131.5,164.2,141.5z"/>
		<path class="st21" d="M164,141.1c-0.7,9.7-8.4,17.1-17.1,16.5s-15.2-9-14.5-18.8c0.7-9.7,8.4-17.1,17.1-16.5
			C158.2,123,164.7,131.4,164,141.1z"/>
		<path class="st21" d="M163.8,140.7c-0.7,9.5-8.2,16.7-16.9,16.1c-8.6-0.6-15.1-8.9-14.4-18.4s8.2-16.7,16.9-16.1
			C158.1,122.9,164.5,131.2,163.8,140.7z"/>
		<path class="st22" d="M163.6,140.3c-0.7,9.3-8.1,16.4-16.6,15.8c-8.5-0.6-14.9-8.7-14.2-18s8.1-16.4,16.6-15.8
			C158,122.9,164.3,131,163.6,140.3z"/>
		<path class="st22" d="M163.5,139.9c-0.7,9.1-8,16-16.4,15.4c-8.4-0.6-14.7-8.5-14-17.6c0.7-9.1,8-16,16.4-15.4
			C157.8,122.9,164.1,130.8,163.5,139.9z"/>
		<path class="st23" d="M163.3,139.5c-0.6,8.9-7.9,15.6-16.2,15c-8.3-0.6-14.5-8.3-13.8-17.2c0.6-8.9,7.9-15.6,16.2-15
			C157.7,122.9,163.9,130.6,163.3,139.5z"/>
		<path class="st23" d="M163.1,139.1c-0.6,8.7-7.8,15.2-15.9,14.6c-8.2-0.6-14.3-8.1-13.7-16.8c0.6-8.7,7.8-15.2,15.9-14.6
			C157.6,122.9,163.7,130.4,163.1,139.1z"/>
		<path class="st23" d="M162.9,138.7c-0.6,8.5-7.6,14.9-15.7,14.3c-8.1-0.6-14.1-7.9-13.5-16.4c0.6-8.5,7.6-14.9,15.7-14.3
			C157.5,122.9,163.5,130.2,162.9,138.7z"/>
		<path class="st24" d="M162.8,138.3c-0.6,8.3-7.5,14.5-15.5,13.9c-7.9-0.6-13.9-7.7-13.3-16c0.6-8.3,7.5-14.5,15.5-13.9
			C157.4,122.9,163.3,130.1,162.8,138.3z"/>
		<path class="st25" d="M162.6,137.9c-0.6,8-7.4,14.1-15.2,13.5c-7.8-0.6-13.7-7.5-13.1-15.6c0.6-8,7.4-14.1,15.2-13.5
			C157.3,122.9,163.2,129.9,162.6,137.9z"/>
		<path class="st25" d="M162.4,137.5c-0.6,7.8-7.3,13.7-15,13.2c-7.7-0.6-13.5-7.4-12.9-15.2c0.6-7.8,7.3-13.7,15-13.2
			C157.2,122.9,163,129.7,162.4,137.5z"/>
		<path class="st25" d="M162.2,137.1c-0.5,7.6-7.2,13.3-14.8,12.8c-7.6-0.6-13.3-7.2-12.8-14.8c0.5-7.6,7.2-13.4,14.8-12.8
			C157.1,122.9,162.8,129.5,162.2,137.1z"/>
		<path class="st26" d="M162,136.7c-0.5,7.4-7,13-14.5,12.4c-7.5-0.5-13.1-7-12.6-14.4s7-13,14.5-12.4
			C156.9,122.9,162.6,129.3,162,136.7z"/>
		<path class="st26" d="M161.9,136.3c-0.5,7.2-6.9,12.6-14.3,12.1c-7.4-0.5-12.9-6.8-12.4-14c0.5-7.2,6.9-12.6,14.3-12.1
			C156.8,122.9,162.4,129.1,161.9,136.3z"/>
		<path class="st26" d="M161.7,135.9c-0.5,7-6.8,12.2-14.1,11.7c-7.3-0.5-12.7-6.6-12.2-13.6c0.5-7,6.8-12.2,14.1-11.7
			C156.7,122.9,162.2,128.9,161.7,135.9z"/>
		<path class="st26" d="M161.5,135.5c-0.5,6.8-6.7,11.8-13.8,11.3s-12.5-6.4-12.1-13.2c0.5-6.8,6.7-11.8,13.8-11.3
			C156.6,122.8,162,128.7,161.5,135.5z"/>
		<path class="st27" d="M161.3,135.1c-0.5,6.6-6.6,11.5-13.6,11s-12.4-6.2-11.9-12.8c0.5-6.6,6.6-11.5,13.6-11
			C156.5,122.8,161.8,128.6,161.3,135.1z"/>
		<path class="st27" d="M161.1,134.7c-0.5,6.3-6.4,11.1-13.4,10.6c-6.9-0.5-12.2-6.1-11.7-12.4c0.5-6.3,6.4-11.1,13.4-10.6
			S161.6,128.4,161.1,134.7z"/>
		<path class="st27" d="M161,134.3c-0.4,6.1-6.3,10.7-13.1,10.2s-12-5.9-11.5-12c0.4-6.1,6.3-10.7,13.1-10.2S161.4,128.2,161,134.3z
			"/>
		<path class="st28" d="M160.8,133.9c-0.4,5.9-6.2,10.3-12.9,9.9c-6.7-0.5-11.8-5.7-11.3-11.6c0.4-5.9,6.2-10.3,12.9-9.9
			C156.1,122.8,161.2,128,160.8,133.9z"/>
		<path class="st28" d="M160.6,133.5c-0.4,5.7-6.1,10-12.7,9.5c-6.6-0.5-11.6-5.5-11.2-11.2c0.4-5.7,6.1-10,12.7-9.5
			C156,122.8,161,127.8,160.6,133.5z"/>
		<path class="st28" d="M160.4,133.1c-0.4,5.5-6,9.6-12.4,9.1c-6.5-0.5-11.4-5.3-11-10.8c0.4-5.5,6-9.6,12.4-9.1
			C155.9,122.8,160.8,127.6,160.4,133.1z"/>
		<path class="st29" d="M160.3,132.7c-0.4,5.3-5.8,9.2-12.2,8.7c-6.4-0.5-11.2-5.1-10.8-10.4c0.4-5.3,5.8-9.2,12.2-8.7
			C155.8,122.8,160.6,127.4,160.3,132.7z"/>
		<path class="st30" d="M160.1,132.3c-0.4,5.1-5.7,8.8-12,8.4c-6.2-0.5-11-4.9-10.6-10c0.4-5.1,5.7-8.8,12-8.4
			C155.7,122.8,160.4,127.3,160.1,132.3z"/>
		<path class="st30" d="M159.9,131.9c-0.3,4.9-5.6,8.4-11.7,8c-6.1-0.4-10.8-4.7-10.5-9.6c0.3-4.9,5.6-8.5,11.7-8
			C155.6,122.8,160.3,127.1,159.9,131.9z"/>
		<path class="st30" d="M159.7,131.5c-0.3,4.7-5.5,8.1-11.5,7.6c-6-0.4-10.6-4.6-10.3-9.2c0.3-4.7,5.5-8.1,11.5-7.6
			C155.5,122.8,160.1,126.9,159.7,131.5z"/>
		<path class="st30" d="M159.5,131.1c-0.3,4.4-5.4,7.7-11.3,7.3c-5.9-0.4-10.4-4.4-10.1-8.8c0.3-4.4,5.4-7.7,11.3-7.3
			C155.3,122.8,159.9,126.7,159.5,131.1z"/>
		<path class="st31" d="M159.4,130.7c-0.3,4.2-5.2,7.3-11,6.9c-5.8-0.4-10.2-4.2-9.9-8.4s5.2-7.3,11-6.9
			C155.2,122.7,159.7,126.5,159.4,130.7z"/>
		<path class="st31" d="M159.2,130.3c-0.3,4-5.1,6.9-10.8,6.5c-5.7-0.4-10-4-9.7-8c0.3-4,5.1-6.9,10.8-6.5
			C155.1,122.7,159.5,126.3,159.2,130.3z"/>
	</g>
	
		<linearGradient id="SVGID_6_" gradientUnits="userSpaceOnUse" x1="140.5437" y1="595.3384" x2="152.9582" y2="595.3384" gradientTransform="matrix(1 0 0 -1 0 752)">
		<stop  offset="0" style="stop-color:#BE8715"/>
		<stop  offset="0.3603" style="stop-color:#A36B0E"/>
		<stop  offset="1" style="stop-color:#6A3100"/>
	</linearGradient>
	<path class="st32" d="M152.9,157.4c-0.4,4-3.6,6.9-7,6.5c-3.4-0.4-5.8-3.9-5.4-7.9c0.4-4,3.5-6.9,6.9-6.5
		C151,149.8,153.3,153.4,152.9,157.4z"/>
	
		<linearGradient id="SVGID_7_" gradientUnits="userSpaceOnUse" x1="126.6315" y1="599.8384" x2="136.711" y2="599.8384" gradientTransform="matrix(1 0 0 -1 0 752)">
		<stop  offset="0" style="stop-color:#BE8715"/>
		<stop  offset="0.3603" style="stop-color:#A36B0E"/>
		<stop  offset="1" style="stop-color:#6A3100"/>
	</linearGradient>
	<path class="st33" d="M136.7,152.8c-0.4,3.6-3,6.2-5.7,5.9c-2.8-0.3-4.6-3.5-4.2-7.1c0.4-3.6,3-6.2,5.7-5.9
		S137.1,149.2,136.7,152.8z"/>
</g>
</svg>
