<?xml version="1.0" encoding="utf-8"?>
<!-- Generator: Adobe Illustrator 21.0.0, SVG Export Plug-In . SVG Version: 6.00 Build 0)  -->
<svg version="1.1" id="Layer_1" xmlns="http://www.w3.org/2000/svg" xmlns:xlink="http://www.w3.org/1999/xlink" x="0px" y="0px"
	 viewBox="0 0 525 750" style="enable-background:new 0 0 525 750;" xml:space="preserve">
<style type="text/css">
	.st0{fill:#A00017;}
	.st1{fill:#82021A;}
	.st2{fill:#FF273C;}
	.st3{opacity:0.6;fill:#C90014;}
	.st4{opacity:0.5;fill:#C90014;}
	.st5{opacity:0.8;fill:#C90014;}
	.st6{opacity:0.7;fill:#C90014;}
</style>
<g>
	<path class="st0" d="M437.4,531c41.3-27.9,7.7-69.6-21.9-83.3c-29.6-13.7-81.3-22.6-81.3-22.6l-8.3,4.8c0,0,18,62.3,26.8,81.4
		C361.5,530.5,396.1,558.9,437.4,531z M342.5,447.1c0.4-5.7,12.5-4.8,12.5-4.8s40.7,10.7,57.5,25.3c16.8,14.6,17.3,38,5.7,48
		c-11.6,10-33.8,3.6-43.3-5.4C365.3,501.1,342.1,452.8,342.5,447.1z"/>
	<path class="st1" d="M423.4,465.8c19.5,13.2,24.9,37.5,26.2,54c20.7-26.8-8.2-60.2-34.1-72.1c-18-8.3-44.1-14.9-61.8-18.7
		C364,444.6,395.3,446.9,423.4,465.8z"/>
	<path class="st1" d="M412.3,518.9c-12.1,4.6-29.3-1.2-37.4-8.8c-7.8-7.4-24.8-41.2-30.5-56.2c-5.2,25.1,31.4,70.4,49.7,72.3
		C405.4,527.4,410.2,522.9,412.3,518.9z"/>
	<path class="st2" d="M340.5,414.4l-193.8,45.9c0,0-102.6-139.7-63.3-218.1c39.3-78.4,86.6-83.5,131.4-81.2
		c44.8,2.4,86.4,48.5,72.8,103c0,0,21.3-29,48.5-22.2C363.3,248.6,396.6,301.8,340.5,414.4z"/>
	<path class="st0" d="M340.5,414.4l-193.8,45.9l14.7,21.2c0,0,95.4,17.6,183.6-49.6L340.5,414.4z"/>
	<path class="st1" d="M304.6,432.8c14.2-4.1,22.8,2.1,27.6,8.2c4.2-2.8,8.5-5.8,12.7-9l-4.4-17.6l-172,40.7
		C215.8,462.4,284.4,438.6,304.6,432.8z"/>
	<g>
		<g>
			<path class="st3" d="M287.7,223.7L75.3,270.3c-0.7,5.5-0.9,11.1-0.8,16.8l215.4-47.2C289.7,234.2,289,228.9,287.7,223.7z"/>
			<path class="st4" d="M105.7,206.1l146.4-32.4c-7.9-5.2-16.6-8.9-25.7-10.9L125.8,185C119,190.7,112.3,197.6,105.7,206.1z"/>
			<path class="st5" d="M364.3,353.3l-249.6,55.9c2.9,5.2,5.7,10.1,8.4,14.7l235.7-52.8C360.9,365,362.8,359,364.3,353.3z"/>
			<path class="st6" d="M370.6,297.5c-0.5-5.8-1.3-11.1-2.5-16L83.3,337.2c1.6,5.2,3.4,10.4,5.2,15.5L370.6,297.5z"/>
		</g>
	</g>
	<g>
		<g>
			<path class="st5" d="M190.5,449.9l-67.3-262.6c-4.5,3.9-8.9,8.4-13.3,13.6l64.8,252.8L190.5,449.9z"/>
			<path class="st6" d="M261.9,433l-43.7-271.6c-1.2-0.1-2.3-0.3-3.5-0.4c-4.3-0.2-8.7-0.4-13-0.4l44.4,276.1L261.9,433z"/>
			<path class="st3" d="M324.5,418.2l3.4-177.3c-5.9,0-11.4,1.4-16.3,3.6L308.2,422L324.5,418.2z"/>
		</g>
	</g>
</g>
</svg>
