<?xml version="1.0" encoding="utf-8"?>
<!-- Generator: Adobe Illustrator 21.0.0, SVG Export Plug-In . SVG Version: 6.00 Build 0)  -->
<svg version="1.1" id="Layer_1" xmlns="http://www.w3.org/2000/svg" xmlns:xlink="http://www.w3.org/1999/xlink" x="0px" y="0px"
	 viewBox="0 0 468 335" style="enable-background:new 0 0 468 335;" xml:space="preserve">
<style type="text/css">
	.st0{fill:url(#SVGID_1_);}
	.st1{fill:#3B281A;}
	.st2{fill:url(#SVGID_2_);}
	.st3{fill:#D10000;}
	.st4{fill:#668E06;}
	.st5{fill:url(#SVGID_3_);}
	.st6{fill:#EDDCC3;}
	.st7{fill:#E0B785;}
</style>
<g>
	<g>
		<g>
			<g>
				
					<radialGradient id="SVGID_1_" cx="230.0555" cy="154.8275" r="158.5033" gradientTransform="matrix(1 0 0 1.3472 0 12.0091)" gradientUnits="userSpaceOnUse">
					<stop  offset="2.234640e-02" style="stop-color:#EFB156"/>
					<stop  offset="1" style="stop-color:#D1932F"/>
				</radialGradient>
				<path class="st0" d="M443.2,224.6c0,53.8-100.2,89.5-217.9,89.5c-117.7,0-208.4-35.7-208.4-89.5c0-53.8,95.4-97.4,213.1-97.4
					C347.8,127.1,443.2,170.8,443.2,224.6z"/>
				<ellipse class="st1" cx="230.1" cy="202.3" rx="213.1" ry="72.3"/>
				<linearGradient id="SVGID_2_" gradientUnits="userSpaceOnUse" x1="16.9062" y1="176.3649" x2="443.2048" y2="176.3649">
					<stop  offset="0" style="stop-color:#D38C0D"/>
					<stop  offset="1" style="stop-color:#FFD632"/>
				</linearGradient>
				<path class="st2" d="M443.2,174.1c0,39.9-95.4,72.3-213.2,72.3c-43.6,0-84.1-4.4-117.8-12c-1.7-0.4-23,25.5-19.8,13.3
					c3.2-12.2-6.2-20.2-9.5-21.3c-40.7-13.2-66-31.8-66-52.3c0-39.9,95.4-72.3,213.1-72.3C347.8,101.8,443.2,134.2,443.2,174.1z"/>
			</g>
			<ellipse class="st1" cx="230.1" cy="163.9" rx="213.1" ry="72.3"/>
			<path class="st3" d="M443.2,135.7c0,40-95.4,72.3-213.2,72.3c-117.7,0-213.1-32.4-213.1-72.3c0-39.9,95.4-72.3,213.1-72.3
				C347.8,63.4,443.2,95.8,443.2,135.7z"/>
			<path class="st4" d="M443.2,125.5c0,22.5-30.3,42.6-77.9,55.9c-6.2,1.7-10.7,23.3-17.5,24.8c-5.7,1.3-13.6-17.5-19.7-16.4
				c-21,3.7-44.1,6.3-68.5,7.4c-9.7,0.5-11.1,9.1-21.1,9.1c-3.6,0-15.6-8.5-19.2-8.5c-25.6-0.4-49.9-2.4-72.3-5.6
				c-6.7-1-9.3,5.4-15.6,4.2c-4.6-0.9-10.9-5.7-15.2-6.6c-4.3-1-13.1,2.4-17.2,1.3c-3.9-1-5.2-9.9-8.9-11
				c-44.8-13.3-73.2-32.8-73.2-54.6c0-39.9,95.4-72.3,213.1-72.3C347.8,53.1,443.2,85.5,443.2,125.5z"/>
		</g>
		<g>
			<radialGradient id="SVGID_3_" cx="230.0526" cy="101.4357" r="164.2634" gradientUnits="userSpaceOnUse">
				<stop  offset="2.234640e-02" style="stop-color:#EFB156"/>
				<stop  offset="1" style="stop-color:#D1932F"/>
			</radialGradient>
			<path class="st5" d="M444.1,113.9c0,43-95.8,77.9-214,77.9c-118.2,0-214-34.9-214-77.9c0-43,96.5-102.9,214.6-102.9
				C348.9,11.1,444.1,70.9,444.1,113.9z"/>
			<g>
				<g>
					<path class="st6" d="M235.8,156.5c0,2.8-2.3,5.1-5.1,5.1c-2.8,0-5.1-2.3-5.1-5.1c0-2.8,2.3-5.1,5.1-5.1
						C233.5,151.4,235.8,153.7,235.8,156.5z"/>
					<path class="st7" d="M233.3,152.1c0.3,0.6,0.4,1.3,0.4,2.1c0,2.9-2.4,5.3-5.3,5.3c-0.7,0-1.4-0.1-2.1-0.4
						c0.9,1.5,2.5,2.5,4.4,2.5c2.8,0,5.1-2.3,5.1-5.1C235.8,154.6,234.8,153,233.3,152.1z"/>
				</g>
				<g>
					<path class="st6" d="M175,116.8c0,2.8-2.3,5.1-5.1,5.1c-2.8,0-5.1-2.3-5.1-5.1c0-2.8,2.3-5.1,5.1-5.1
						C172.7,111.7,175,114,175,116.8z"/>
					<path class="st7" d="M172.5,112.4c0.3,0.6,0.4,1.3,0.4,2.1c0,2.9-2.4,5.3-5.3,5.3c-0.7,0-1.4-0.1-2.1-0.4
						c0.9,1.5,2.5,2.5,4.4,2.5c2.8,0,5.1-2.3,5.1-5.1C175,114.9,174,113.3,172.5,112.4z"/>
				</g>
				<g>
					<path class="st6" d="M297.6,117.1c0,2.8-2.3,5.1-5.1,5.1c-2.8,0-5.1-2.3-5.1-5.1c0-2.8,2.3-5.1,5.1-5.1
						C295.3,112,297.6,114.3,297.6,117.1z"/>
					<path class="st7" d="M295,112.7c0.3,0.6,0.4,1.3,0.4,2.1c0,2.9-2.4,5.3-5.3,5.3c-0.7,0-1.4-0.1-2.1-0.4
						c0.9,1.5,2.5,2.5,4.4,2.5c2.8,0,5.1-2.3,5.1-5.1C297.6,115.2,296.6,113.6,295,112.7z"/>
				</g>
				<g>
					<ellipse class="st6" cx="148.1" cy="45.8" rx="5.1" ry="5.1"/>
					<path class="st7" d="M150.7,41.4c0.3,0.6,0.4,1.3,0.4,2.1c0,2.9-2.4,5.3-5.3,5.3c-0.7,0-1.4-0.1-2.1-0.4
						c0.9,1.5,2.5,2.5,4.4,2.5c2.8,0,5.1-2.3,5.1-5.1C153.2,43.9,152.2,42.2,150.7,41.4z"/>
				</g>
				<g>
					<ellipse class="st6" cx="313.3" cy="45.8" rx="5.1" ry="5.1"/>
					<path class="st7" d="M315.8,41.4c0.3,0.6,0.4,1.3,0.4,2.1c0,2.9-2.4,5.3-5.3,5.3c-0.7,0-1.4-0.1-2.1-0.4
						c0.9,1.5,2.5,2.5,4.4,2.5c2.8,0,5.1-2.3,5.1-5.1C318.4,43.9,317.4,42.2,315.8,41.4z"/>
				</g>
				<g>
					<ellipse class="st6" cx="88.3" cy="83.8" rx="5.1" ry="5.1"/>
					<path class="st7" d="M90.8,79.4c0.3,0.6,0.4,1.3,0.4,2.1c0,3-2.4,5.3-5.3,5.3c-0.7,0-1.4-0.1-2.1-0.4c0.9,1.5,2.5,2.5,4.4,2.5
						c2.8,0,5.1-2.3,5.1-5.1C93.4,82,92.4,80.3,90.8,79.4z"/>
				</g>
				<g>
					<path class="st6" d="M379.5,83.8c0,2.8-2.3,5.1-5.1,5.1c-2.8,0-5.1-2.3-5.1-5.1c0-2.8,2.3-5.1,5.1-5.1
						C377.2,78.7,379.5,81,379.5,83.8z"/>
					<path class="st7" d="M377,79.4c0.3,0.6,0.4,1.3,0.4,2.1c0,3-2.4,5.3-5.3,5.3c-0.7,0-1.4-0.1-2.1-0.4c0.9,1.5,2.5,2.5,4.4,2.5
						c2.8,0,5.1-2.3,5.1-5.1C379.5,82,378.5,80.3,377,79.4z"/>
				</g>
				<g>
					<path class="st6" d="M235.8,67c0,2.8-2.3,5.1-5.1,5.1c-2.8,0-5.1-2.3-5.1-5.1c0-2.8,2.3-5.1,5.1-5.1
						C233.5,61.9,235.8,64.2,235.8,67z"/>
					<path class="st7" d="M233.3,62.6c0.3,0.6,0.4,1.3,0.4,2.1c0,3-2.4,5.3-5.3,5.3c-0.7,0-1.4-0.1-2.1-0.4c0.9,1.5,2.5,2.5,4.4,2.5
						c2.8,0,5.1-2.3,5.1-5.1C235.8,65.2,234.8,63.5,233.3,62.6z"/>
				</g>
				<g>
					<path class="st6" d="M116.4,143.7c0,2.8-2.3,5.1-5.1,5.1c-2.8,0-5.1-2.3-5.1-5.1c0-2.8,2.3-5.1,5.1-5.1
						C114.1,138.6,116.4,140.9,116.4,143.7z"/>
					<path class="st7" d="M113.9,139.3c0.3,0.6,0.4,1.3,0.4,2.1c0,2.9-2.4,5.3-5.3,5.3c-0.7,0-1.4-0.2-2.1-0.4
						c0.9,1.5,2.5,2.5,4.4,2.5c2.8,0,5.1-2.3,5.1-5.1C116.4,141.8,115.4,140.2,113.9,139.3z"/>
				</g>
				<g>
					<circle class="st6" cx="351" cy="144" r="5.1"/>
					<path class="st7" d="M353.6,139.6c0.3,0.6,0.4,1.3,0.4,2.1c0,2.9-2.4,5.3-5.3,5.3c-0.7,0-1.4-0.2-2.1-0.4
						c0.9,1.5,2.5,2.5,4.4,2.5c2.8,0,5.1-2.3,5.1-5.1C356.1,142.1,355.1,140.5,353.6,139.6z"/>
				</g>
			</g>
		</g>
	</g>
</g>
</svg>
