<?xml version="1.0" encoding="utf-8"?>
<!-- Generator: Adobe Illustrator 21.0.0, SVG Export Plug-In . SVG Version: 6.00 Build 0)  -->
<svg version="1.1" id="Layer_1" xmlns="http://www.w3.org/2000/svg" xmlns:xlink="http://www.w3.org/1999/xlink" x="0px" y="0px"
	 viewBox="0 0 525 750" style="enable-background:new 0 0 525 750;" xml:space="preserve">
<style type="text/css">
	.st0{fill:url(#SVGID_1_);}
	.st1{fill:#3B281A;}
	.st2{fill:url(#SVGID_2_);}
	.st3{fill:#D10000;}
	.st4{fill:#668E06;}
	.st5{fill:url(#SVGID_3_);}
	.st6{fill:#EDDCC3;}
	.st7{fill:#E0B785;}
</style>
<g>
	<g>
		<g>
			<g>
				
					<radialGradient id="SVGID_1_" cx="273.7178" cy="412.0421" r="159.7012" gradientTransform="matrix(1 0 0 1.3472 0 -137.1646)" gradientUnits="userSpaceOnUse">
					<stop  offset="2.234640e-02" style="stop-color:#EFB156"/>
					<stop  offset="1" style="stop-color:#D1932F"/>
				</radialGradient>
				<path class="st0" d="M488.5,421.9c0,54.2-101,90.2-219.6,90.2s-210-36-210-90.2s96.2-98.1,214.8-98.1
					C392.4,323.6,488.5,367.7,488.5,421.9z"/>
				<ellipse class="st1" cx="273.8" cy="399.4" rx="214.7" ry="72.8"/>
				
					<linearGradient id="SVGID_2_" gradientUnits="userSpaceOnUse" x1="58.8561" y1="522.2994" x2="488.4871" y2="522.2994" gradientTransform="matrix(1 0 0 1 0 -149)">
					<stop  offset="0" style="stop-color:#D38C0D"/>
					<stop  offset="1" style="stop-color:#FFD632"/>
				</linearGradient>
				<path class="st2" d="M488.5,371.1c0,40.2-96.1,72.8-214.9,72.8c-43.9,0-84.7-4.4-118.7-12.1c-1.8-0.4-23.2,25.7-19.9,13.4
					c3.2-12.3-6.3-20.4-9.6-21.5c-41-13.3-66.5-32-66.5-52.7c0-40.2,96.1-72.8,214.7-72.8C392.4,298.1,488.5,330.8,488.5,371.1z"/>
			</g>
			<ellipse class="st1" cx="273.8" cy="360.7" rx="214.7" ry="72.8"/>
			<path class="st3" d="M488.5,332.3c0,40.3-96.1,72.8-214.9,72.8c-118.6,0-214.7-32.7-214.7-72.8s96.1-72.8,214.7-72.8
				C392.4,259.5,488.5,292.1,488.5,332.3z"/>
			<path class="st4" d="M488.5,322c0,22.7-30.5,42.9-78.5,56.3c-6.3,1.8-10.8,23.4-17.6,25c-5.7,1.3-13.7-17.6-19.8-16.5
				c-21.1,3.7-44.4,6.4-69,7.5c-9.8,0.5-11.2,9.1-21.2,9.1c-3.6,0-15.7-8.6-19.4-8.6c-25.8-0.4-50.3-2.4-72.8-5.6
				c-6.7-1-9.4,5.4-15.7,4.2c-4.6-0.9-11-5.7-15.3-6.6c-4.3-1-13.2,2.4-17.4,1.3c-4-1-5.3-10-9-11.1C87.7,363.7,59,344,59,322
				c0-40.2,96.1-72.8,214.7-72.8C392.4,249.1,488.5,281.7,488.5,322z"/>
		</g>
		<g>
			
				<radialGradient id="SVGID_3_" cx="273.8101" cy="446.7252" r="165.489" gradientTransform="matrix(1 0 0 1 0 -149)" gradientUnits="userSpaceOnUse">
				<stop  offset="2.234640e-02" style="stop-color:#EFB156"/>
				<stop  offset="1" style="stop-color:#D1932F"/>
			</radialGradient>
			<path class="st5" d="M489.4,310.3c0,43.3-96.5,78.5-215.6,78.5S58.2,353.7,58.2,310.3s97.3-103.6,216.2-103.6
				C393.5,206.8,489.4,267,489.4,310.3z"/>
			<g>
				<g>
					<path class="st6" d="M279.5,353.2c0,2.9-2.3,5.2-5.2,5.2s-5.2-2.3-5.2-5.2c0-2.9,2.3-5.2,5.2-5.2
						C277.2,348.2,279.5,350.5,279.5,353.2z"/>
					<path class="st7" d="M277,348.8c0.3,0.6,0.4,1.3,0.4,2.1c0,3-2.4,5.4-5.4,5.4c-0.7,0-1.4-0.1-2.1-0.4c0.9,1.5,2.5,2.5,4.4,2.5
						c2.9,0,5.2-2.3,5.2-5.2C279.5,351.4,278.5,349.7,277,348.8z"/>
				</g>
				<g>
					<path class="st6" d="M218.2,313.3c0,2.9-2.3,5.2-5.2,5.2s-5.2-2.3-5.2-5.2s2.3-5.2,5.2-5.2S218.2,310.4,218.2,313.3z"/>
					<path class="st7" d="M215.8,308.8c0.3,0.6,0.4,1.3,0.4,2.1c0,3-2.4,5.4-5.4,5.4c-0.7,0-1.4-0.1-2.1-0.4
						c0.9,1.5,2.5,2.5,4.4,2.5c2.9,0,5.2-2.3,5.2-5.2C218.2,311.3,217.3,309.8,215.8,308.8z"/>
				</g>
				<g>
					<path class="st6" d="M341.8,313.6c0,2.9-2.3,5.2-5.2,5.2c-2.9,0-5.2-2.3-5.2-5.2c0-2.9,2.3-5.2,5.2-5.2
						C339.5,308.5,341.8,310.8,341.8,313.6z"/>
					<path class="st7" d="M339.2,309.1c0.3,0.6,0.4,1.3,0.4,2.1c0,3-2.4,5.4-5.4,5.4c-0.7,0-1.4-0.1-2.1-0.4
						c0.9,1.5,2.5,2.5,4.4,2.5c2.9,0,5.2-2.3,5.2-5.2C341.8,311.7,340.8,310,339.2,309.1z"/>
				</g>
				<g>
					<ellipse class="st6" cx="191.2" cy="241.7" rx="5.2" ry="5.2"/>
					<path class="st7" d="M193.8,237.3c0.3,0.6,0.4,1.3,0.4,2.1c0,3-2.4,5.4-5.4,5.4c-0.7,0-1.4-0.1-2.1-0.4
						c0.9,1.5,2.5,2.5,4.4,2.5c2.9,0,5.2-2.3,5.2-5.2C196.3,239.8,195.4,238.1,193.8,237.3z"/>
				</g>
				<g>
					<ellipse class="st6" cx="357.6" cy="241.7" rx="5.2" ry="5.2"/>
					<path class="st7" d="M360.2,237.3c0.3,0.6,0.4,1.3,0.4,2.1c0,3-2.4,5.4-5.4,5.4c-0.7,0-1.4-0.1-2.1-0.4
						c0.9,1.5,2.5,2.5,4.4,2.5c2.9,0,5.2-2.3,5.2-5.2C362.8,239.8,361.8,238.1,360.2,237.3z"/>
				</g>
				<g>
					<ellipse class="st6" cx="130.9" cy="280.1" rx="5.2" ry="5.2"/>
					<path class="st7" d="M133.4,275.6c0.3,0.6,0.4,1.3,0.4,2.1c0,3-2.4,5.4-5.4,5.4c-0.7,0-1.4-0.1-2.1-0.4
						c0.9,1.5,2.5,2.5,4.4,2.5c2.9,0,5.2-2.3,5.2-5.2C136.1,278.2,135.1,276.5,133.4,275.6z"/>
				</g>
				<g>
					<path class="st6" d="M424.3,280.1c0,2.9-2.3,5.2-5.2,5.2c-2.9,0-5.2-2.3-5.2-5.2c0-2.9,2.3-5.2,5.2-5.2
						C422,274.9,424.3,277.2,424.3,280.1z"/>
					<path class="st7" d="M421.9,275.6c0.3,0.6,0.4,1.3,0.4,2.1c0,3-2.4,5.4-5.4,5.4c-0.7,0-1.4-0.1-2.1-0.4
						c0.9,1.5,2.5,2.5,4.4,2.5c2.9,0,5.2-2.3,5.2-5.2C424.3,278.2,423.3,276.5,421.9,275.6z"/>
				</g>
				<g>
					<path class="st6" d="M279.5,263.1c0,2.9-2.3,5.2-5.2,5.2s-5.2-2.3-5.2-5.2c0-2.9,2.3-5.2,5.2-5.2
						C277.2,258,279.5,260.3,279.5,263.1z"/>
					<path class="st7" d="M277,258.6c0.3,0.6,0.4,1.3,0.4,2.1c0,3-2.4,5.4-5.4,5.4c-0.7,0-1.4-0.1-2.1-0.4c0.9,1.5,2.5,2.5,4.4,2.5
						c2.9,0,5.2-2.3,5.2-5.2C279.5,261.3,278.5,259.6,277,258.6z"/>
				</g>
				<g>
					<path class="st6" d="M159.3,340.4c0,2.9-2.3,5.2-5.2,5.2c-2.9,0-5.2-2.3-5.2-5.2s2.3-5.2,5.2-5.2
						C157,335.2,159.3,337.6,159.3,340.4z"/>
					<path class="st7" d="M156.7,336c0.3,0.6,0.4,1.3,0.4,2.1c0,3-2.4,5.4-5.4,5.4c-0.7,0-1.4-0.2-2.1-0.4c0.9,1.5,2.5,2.5,4.4,2.5
						c2.9,0,5.2-2.3,5.2-5.2C159.3,338.5,158.3,336.9,156.7,336z"/>
				</g>
				<g>
					<circle class="st6" cx="395.6" cy="340.7" r="5.2"/>
					<path class="st7" d="M398.2,336.3c0.3,0.6,0.4,1.3,0.4,2.1c0,3-2.4,5.4-5.4,5.4c-0.7,0-1.4-0.2-2.1-0.4
						c0.9,1.5,2.5,2.5,4.4,2.5c2.9,0,5.2-2.3,5.2-5.2C400.8,338.8,399.8,337.2,398.2,336.3z"/>
				</g>
			</g>
		</g>
	</g>
</g>
</svg>
