<?xml version="1.0" encoding="utf-8"?>
<!-- Generator: Adobe Illustrator 21.0.0, SVG Export Plug-In . SVG Version: 6.00 Build 0)  -->
<svg version="1.1" id="Layer_1" xmlns="http://www.w3.org/2000/svg" xmlns:xlink="http://www.w3.org/1999/xlink" x="0px" y="0px"
	 viewBox="0 0 525 750" style="enable-background:new 0 0 525 750;" xml:space="preserve">
<style type="text/css">
	.st0{fill:#FF5252;}
	.st1{fill:#FF2424;}
	.st2{fill:#D84444;}
</style>
<g>
	<g>
		<path class="st0" d="M94.3,418c0,0-31.9-82.9,15.3-132.7c47.2-49.8,97-75.3,140.4-71.5c43.4,3.8,102.1,56.1,113.6,66.4
			c11.5,10.2,90.6-5.1,90.6-5.1s17.9,1.3,11.5,20.4c-6.4,19.1-24.2,68.9-42.1,93.1c-17.9,24.2-29.3,38.3-49.8,45.9
			c-20.4,7.7-16.6,25.5-35.7,35.7c-19.1,10.2-61.3,16.6-90.6,21.7c-29.4,5.1-61.3,11.5-76.6,23c-15.3,11.5-34.5,20.4-60,21.7
			C85.4,538,54.7,529,57.3,515c2.6-14,38.3-86.8,38.3-86.8L94.3,418z"/>
		<path class="st1" d="M114.3,415.5H99c0,0-13.2,3.8-5.8,17.9c1.8,3.4,8,3.6,15.2,2.5c17-2.6,73.2-2.6,134.4-34.9
			c61.2-32.3,95.3-57,108-74.9c12.8-17.9,23.4-41.7,21.7-45.1c-1.7-3.4-11.5-12.8-15.7-8.5c-4.3,4.3-11.1,32.3-42.5,59.5
			C282.7,359.3,184.9,415,114.3,415.5z"/>
		<path class="st1" d="M229.6,393.3c0,0-9.8,1.3-17-1.7c-7.2-3-25.1-11.1-25.1-11.1l-4.7,11.1c0,0,28.9,13.2,35.7,13.2
			c6.8,0,10.6-0.9,10.6-0.9s-7.2,25.5-9.8,34c-2.6,8.5-20,29.3-20,29.3l12.3,3.4c0,0,14-14,17.9-24.2c3.8-10.2,5.5-45.1,5.5-45.1
			s18.7,17.9,33.6,24.3c14.9,6.4,47.2,15.7,47.2,15.7l-1.7-11.9c0,0-57.8-20.4-63.4-25.9c-5.5-5.5-8.5-10.2-8.5-10.2
			s13.2-15.3,17-25.9c3.8-10.6-1.3-34-1.3-34l-8.9-0.4c0,0-3.8,46.8-8.9,52.7C235.1,391.6,229.6,393.3,229.6,393.3z"/>
	</g>
	<path class="st2" d="M154.3,250.8c0,0-8.5,54.4,21.3,76.6C175.5,327.4,125.4,307.8,154.3,250.8z"/>
	<path class="st2" d="M166.2,249.1c0,0,23-26.4,63.8-6C230,243.2,198.5,216,166.2,249.1z"/>
</g>
</svg>
