<?xml version="1.0" encoding="utf-8"?>
<!-- Generator: Adobe Illustrator 21.0.0, SVG Export Plug-In . SVG Version: 6.00 Build 0)  -->
<svg version="1.1" id="Layer_1" xmlns="http://www.w3.org/2000/svg" xmlns:xlink="http://www.w3.org/1999/xlink" x="0px" y="0px"
	 viewBox="0 0 525 750" style="enable-background:new 0 0 525 750;" xml:space="preserve">
<style type="text/css">
	.st0{fill:#5F5142;}
	.st1{fill:#826F5C;}
	.st2{fill:#8E7A65;}
	.st3{fill:#8C6D59;}
	.st4{fill:#DAE5EB;}
	.st5{fill:#FFFFFF;}
	.st6{fill:#97816A;}
	.st7{fill:#F5F5F5;}
	.st8{fill:#87705B;}
	.st9{fill:#ECF8FE;}
	.st10{fill:#D99C80;}
	.st11{fill:#4A3F33;}
	.st12{fill:#B3B3B3;}
	.st13{fill:#CCCCCC;}
	.st14{fill:#E6E6E6;}
	.st15{fill:url(#SVGID_1_);}
</style>
<path class="st0" d="M235.1,524.8v-9.4c0,0,1.2-0.2,2.4-8.1c1.2-7.8-4.1-23.3-4.1-23.3H190c0,0,1.9,12.4,0,25
	c-1.9,12.6-3.9,18.2-3.6,21.3c0.3,3,5.9,8.6,20.8,9c-0.2,2.1-0.2,3.8-0.2,3.8s4.8,2,9.5,1c2.8-0.6,4.2-1.2,4.8-1.6
	c1.5,0.3,3.6,0.7,5.1,0.6c2.6-0.1,7.2-2.1,7.2-2.1v0c1.1,0.2,2.4,0.4,4,0.4c4.9-0.1,6.3-1.2,6.3-1.2s0.6-5.1-0.9-9.6
	C241.2,525.5,237.5,524.3,235.1,524.8z"/>
<path class="st0" d="M370.4,530.7c-1.6-4.7-5.3-5.9-7.7-5.4l0.3-11.3c0,0,2-0.7,2.1-8.6c0.1-7.4-7.5-21.2-7.5-21.2h-43.4
	c0,0,6.1,12.2,4.2,24.8c-1.9,12.6-3.7,19.9-3.4,23c0.3,3,4.8,7.1,19.6,7.5c-0.2,2.2-0.2,3.8-0.2,3.8s4.8,2,9.5,1
	c2.8-0.6,4.2-1.2,4.8-1.6c1.5,0.3,3.6,0.7,5.1,0.6c2.6-0.1,7.1-2.1,7.1-2.1v0c1.1,0.2,2.4,0.4,4,0.4c4.9-0.1,6.3-1.2,6.3-1.2
	S371.9,535.1,370.4,530.7z"/>
<path class="st1" d="M337.9,231.9c0,0,10.6-15.4,21.8-14.5c11.2,0.9,11.1,12,11.1,12l-23.8,14.4L337.9,231.9z"/>
<path class="st2" d="M92.7,328.5c0,0-14.9,18.3-31.8,22c-17.2,3.7-32.6-1.5-34.6,4.7c-2.1,7,10.8,10.7,28.2,9.5
	c19.6-1.4,37.9-11.2,37.9-11.2L92.7,328.5z"/>
<path class="st3" d="M306.2,234.1c0,0,0.4-42.4,17.3-37.2c21,6.4-7.4,36.3-7.4,36.3L306.2,234.1z"/>
<ellipse class="st4" cx="369.1" cy="244.9" rx="16.2" ry="16.2"/>
<circle cx="376.1" cy="239.8" r="5.4"/>
<circle class="st5" cx="374.6" cy="234.6" r="2.6"/>
<path class="st6" d="M375.3,258.3c0,0,15.8-14.7,36-16.8c33.1-3.5,85.8,26.1,86.5,100.9c0.6,74.9-84.1,96.4-84.1,96.4
	s-18,43.5-72.5,67.6c-38.3,16.9-152.1,22.4-210.2-18.8c-62.8-44.6-72.6-159,2.9-224.6c75.5-65.6,158.5-45.9,191.5-34.8
	C358.4,239.1,375.3,258.3,375.3,258.3z"/>
<g>
	<path class="st6" d="M349.1,238.5c29,14.7,48.1,38.3,37.2,59.9c-10.9,21.5-43.3,27.1-72.3,12.4c-29-14.7-43.7-44.1-32.8-65.6
		C292.1,223.6,320.1,223.8,349.1,238.5z"/>
	<path class="st6" d="M349.3,238.7c28.6,14.5,47.4,37.9,36.6,59.1c-10.8,21.3-42.7,26.7-71.3,12.2c-28.6-14.5-43.1-43.5-32.3-64.8
		C293,224,320.7,224.2,349.3,238.7z"/>
	<path class="st6" d="M349.5,238.8c28.2,14.3,46.7,37.4,36.1,58.4c-10.6,21-42.2,26.4-70.4,12.1c-28.2-14.3-42.5-42.9-31.9-63.9
		C294,224.4,321.3,224.5,349.5,238.8z"/>
	<path class="st6" d="M349.7,239c27.8,14.1,46,36.9,35.5,57.7c-10.5,20.7-41.6,26.1-69.4,12c-27.9-14.1-41.9-42.3-31.4-63.1
		C294.9,224.9,321.9,224.9,349.7,239z"/>
	<path class="st6" d="M350,239.2c27.5,13.9,45.4,36.5,35,56.9c-10.4,20.4-41,25.8-68.5,11.8c-27.5-13.9-41.3-41.8-31-62.2
		C295.9,225.3,322.5,225.3,350,239.2z"/>
	<path class="st6" d="M350.2,239.3c27.1,13.7,44.7,36,34.5,56.2c-10.2,20.2-40.5,25.4-67.5,11.7c-27.1-13.7-40.7-41.2-30.5-61.4
		C296.8,225.7,323.1,225.6,350.2,239.3z"/>
	<path class="st6" d="M350.4,239.5c26.7,13.5,44,35.6,33.9,55.5c-10.1,19.9-39.9,25.1-66.6,11.6C291,293,277.6,265.9,287.7,246
		C297.7,226.1,323.7,226,350.4,239.5z"/>
	<path class="st6" d="M350.6,239.7c26.3,13.3,43.3,35.1,33.4,54.7c-9.9,19.6-39.3,24.8-65.6,11.4c-26.3-13.3-39.6-40-29.6-59.7
		C298.7,226.5,324.3,226.4,350.6,239.7z"/>
	<path class="st6" d="M350.8,239.9c25.9,13.1,42.7,34.6,32.8,54c-9.8,19.4-38.8,24.4-64.7,11.3c-25.9-13.1-39-39.5-29.2-58.8
		C299.6,226.9,324.9,226.7,350.8,239.9z"/>
	<path class="st6" d="M351,240c25.5,12.9,42,34.2,32.3,53.3c-9.7,19.1-38.2,24.1-63.7,11.2c-25.5-12.9-38.4-38.9-28.7-58
		C300.6,227.4,325.5,227.1,351,240z"/>
	<path class="st6" d="M351.2,240.2c25.1,12.7,41.3,33.7,31.8,52.5c-9.5,18.8-37.7,23.8-62.8,11c-25.1-12.7-37.8-38.3-28.3-57.1
		C301.5,227.8,326.1,227.5,351.2,240.2z"/>
	<path class="st6" d="M351.5,240.4c24.7,12.5,40.6,33.2,31.2,51.8c-9.4,18.6-37.1,23.4-61.8,10.9c-24.8-12.5-37.2-37.7-27.8-56.3
		C302.4,228.2,326.7,227.8,351.5,240.4z"/>
	<path class="st6" d="M351.7,240.5c24.4,12.3,40,32.8,30.7,51.1c-9.3,18.3-36.5,23.1-60.9,10.8c-24.4-12.3-36.6-37.2-27.3-55.5
		C303.4,228.6,327.3,228.2,351.7,240.5z"/>
	<path class="st6" d="M351.9,240.7c24,12.1,39.3,32.3,30.2,50.3c-9.1,18-36,22.8-59.9,10.6c-24-12.1-36-36.6-26.9-54.6
		C304.3,229,327.9,228.5,351.9,240.7z"/>
	<path class="st6" d="M352.1,240.9c23.6,12,38.6,31.9,29.6,49.6c-9,17.7-35.4,22.4-59,10.5c-23.6-11.9-35.4-36-26.4-53.8
		C305.3,229.4,328.5,228.9,352.1,240.9z"/>
	<path class="st6" d="M352.3,241c23.2,11.8,37.9,31.4,29.1,48.9c-8.9,17.5-34.8,22.1-58,10.3c-23.2-11.8-34.8-35.4-26-52.9
		C306.2,229.9,329.1,229.3,352.3,241z"/>
	<path class="st6" d="M352.5,241.2c22.8,11.6,37.3,30.9,28.5,48.1c-8.7,17.2-34.3,21.8-57.1,10.2c-22.8-11.6-34.3-34.9-25.5-52.1
		C307.1,230.3,329.7,229.6,352.5,241.2z"/>
	<path class="st6" d="M352.7,241.4c22.4,11.4,36.6,30.5,28,47.4c-8.6,16.9-33.7,21.4-56.1,10.1c-22.4-11.4-33.7-34.3-25.1-51.2
		C308.1,230.7,330.3,230,352.7,241.4z"/>
	<path class="st6" d="M352.9,241.5c22,11.2,35.9,30,27.5,46.7c-8.4,16.7-33.2,21.1-55.2,9.9c-22-11.2-33.1-33.7-24.6-50.4
		C309,231.1,330.9,230.4,352.9,241.5z"/>
	<path class="st6" d="M353.2,241.7c21.6,11,35.2,29.5,26.9,45.9c-8.3,16.4-32.6,20.8-54.2,9.8c-21.7-11-32.5-33.1-24.2-49.5
		C310,231.5,331.5,230.7,353.2,241.7z"/>
	<path class="st6" d="M353.4,241.9c21.3,10.8,34.6,29.1,26.4,45.2c-8.2,16.1-32,20.4-53.3,9.7c-21.3-10.8-31.9-32.6-23.7-48.7
		C310.9,231.9,332.1,231.1,353.4,241.9z"/>
	<path class="st6" d="M353.6,242c20.9,10.6,33.9,28.6,25.8,44.5c-8,15.8-31.5,20.1-52.3,9.5c-20.9-10.6-31.3-32-23.3-47.8
		C311.9,232.4,332.7,231.5,353.6,242z"/>
	<path class="st6" d="M353.8,242.2c20.5,10.4,33.2,28.2,25.3,43.7c-7.9,15.6-30.9,19.8-51.4,9.4c-20.5-10.4-30.7-31.4-22.8-47
		C312.8,232.8,333.3,231.8,353.8,242.2z"/>
	<path class="st6" d="M354,242.4c20.1,10.2,32.5,27.7,24.8,43c-7.8,15.3-30.3,19.5-50.4,9.3c-20.1-10.2-30.1-30.8-22.4-46.2
		C313.7,233.2,333.9,232.2,354,242.4z"/>
	<path class="st6" d="M354.2,242.6c19.7,10,31.8,27.2,24.2,42.3c-7.6,15-29.8,19.1-49.5,9.1c-19.7-10-29.5-30.3-21.9-45.3
		C314.7,233.6,334.5,232.6,354.2,242.6z"/>
	<path class="st6" d="M354.4,242.7c19.3,9.8,31.2,26.8,23.7,41.5c-7.5,14.8-29.2,18.8-48.5,9c-19.3-9.8-28.9-29.7-21.5-44.5
		C315.6,234,335.1,232.9,354.4,242.7z"/>
	<path class="st6" d="M354.7,242.9c18.9,9.6,30.5,26.3,23.2,40.8c-7.3,14.5-28.7,18.5-47.6,8.9c-18.9-9.6-28.4-29.1-21-43.6
		C316.6,234.4,335.7,233.3,354.7,242.9z"/>
	<path class="st6" d="M354.9,243.1c18.6,9.4,29.8,25.8,22.6,40.1c-7.2,14.2-28.1,18.1-46.6,8.7c-18.6-9.4-27.8-28.5-20.6-42.8
		C317.5,234.9,336.3,233.7,354.9,243.1z"/>
	<path class="st6" d="M355.1,243.2c18.2,9.2,29.1,25.4,22.1,39.3c-7.1,13.9-27.5,17.8-45.7,8.6c-18.2-9.2-27.2-28-20.1-41.9
		C318.4,235.3,336.9,234,355.1,243.2z"/>
	<path class="st6" d="M355.3,243.4c17.8,9,28.5,24.9,21.5,38.6c-6.9,13.7-27,17.5-44.7,8.5c-17.8-9-26.6-27.4-19.7-41.1
		C319.4,235.7,337.5,234.4,355.3,243.4z"/>
	<path class="st6" d="M355.5,243.6c17.4,8.8,27.8,24.5,21,37.9c-6.8,13.4-26.4,17.1-43.8,8.3c-17.4-8.8-26-26.8-19.2-40.2
		C320.3,236.1,338.1,234.8,355.5,243.6z"/>
	<path class="st6" d="M355.7,243.7c17,8.6,27.1,24,20.5,37.1c-6.7,13.1-25.8,16.8-42.8,8.2c-17-8.6-25.4-26.2-18.7-39.4
		C321.3,236.5,338.7,235.1,355.7,243.7z"/>
	<path class="st6" d="M355.9,243.9c16.6,8.4,26.4,23.5,19.9,36.4c-6.5,12.9-25.3,16.5-41.9,8c-16.6-8.4-24.8-25.7-18.3-38.5
		C322.2,237,339.3,235.5,355.9,243.9z"/>
	<path class="st6" d="M356.2,244.1c16.2,8.2,25.8,23.1,19.4,35.7c-6.4,12.6-24.7,16.1-40.9,7.9c-16.2-8.2-24.2-25.1-17.8-37.7
		C323.1,237.4,339.9,235.8,356.2,244.1z"/>
	<path class="st6" d="M356.4,244.2c15.8,8,25.1,22.6,18.8,34.9c-6.2,12.3-24.2,15.8-40,7.8c-15.9-8-23.6-24.5-17.4-36.9
		C324.1,237.8,340.5,236.2,356.4,244.2z"/>
	<path class="st6" d="M356.6,244.4c15.5,7.8,24.4,22.2,18.3,34.2c-6.1,12.1-23.6,15.5-39,7.6c-15.5-7.8-23.1-23.9-16.9-36
		C325,238.2,341.1,236.6,356.6,244.4z"/>
	<path class="st6" d="M356.8,244.6c15.1,7.6,23.7,21.7,17.8,33.5c-6,11.8-23,15.1-38.1,7.5c-15.1-7.6-22.5-23.4-16.5-35.2
		C326,238.6,341.7,236.9,356.8,244.6z"/>
	<path class="st6" d="M357,244.7c14.7,7.4,23.1,21.2,17.2,32.7c-5.8,11.5-22.5,14.8-37.1,7.4c-14.7-7.4-21.9-22.8-16-34.3
		C326.9,239,342.3,237.3,357,244.7z"/>
	<path class="st6" d="M357.2,244.9c14.3,7.2,22.4,20.8,16.7,32c-5.7,11.2-21.9,14.5-36.2,7.2c-14.3-7.2-21.3-22.2-15.6-33.5
		C327.8,239.5,342.9,237.7,357.2,244.9z"/>
	<path class="st6" d="M357.4,245.1c13.9,7.1,21.7,20.3,16.2,31.3c-5.6,11-21.3,14.2-35.2,7.1c-13.9-7-20.7-21.6-15.1-32.6
		C328.8,239.9,343.5,238,357.4,245.1z"/>
	<path class="st6" d="M357.7,245.3c13.5,6.9,21,19.8,15.6,30.5c-5.4,10.7-20.8,13.8-34.3,7c-13.5-6.8-20.1-21.1-14.7-31.8
		C329.7,240.3,344.1,238.4,357.7,245.3z"/>
	<path class="st6" d="M357.9,245.4c13.1,6.7,20.4,19.4,15.1,29.8c-5.3,10.4-20.2,13.5-33.3,6.8c-13.1-6.7-19.5-20.5-14.2-30.9
		C330.7,240.7,344.7,238.8,357.9,245.4z"/>
	<path class="st6" d="M358.1,245.6c12.7,6.5,19.7,18.9,14.5,29.1c-5.2,10.2-19.7,13.2-32.4,6.7c-12.8-6.5-18.9-19.9-13.8-30.1
		C331.6,241.1,345.3,239.1,358.1,245.6z"/>
	<path class="st6" d="M358.3,245.8c12.4,6.3,19,18.5,14,28.3c-5,9.9-19.1,12.8-31.4,6.6c-12.4-6.3-18.3-19.3-13.3-29.2
		C332.5,241.5,345.9,239.5,358.3,245.8z"/>
	<path class="st6" d="M358.5,245.9c12,6.1,18.3,18,13.5,27.6c-4.9,9.6-18.5,12.5-30.5,6.4c-12-6.1-17.7-18.8-12.9-28.4
		C333.5,242,346.5,239.9,358.5,245.9z"/>
	<path class="st6" d="M358.7,246.1c11.6,5.9,17.7,17.5,12.9,26.9c-4.7,9.3-18,12.2-29.6,6.3c-11.6-5.9-17.2-18.2-12.4-27.5
		C334.4,242.4,347.1,240.2,358.7,246.1z"/>
	<path class="st6" d="M358.9,246.3c11.2,5.7,17,17.1,12.4,26.1c-4.6,9.1-17.4,11.8-28.6,6.2c-11.2-5.7-16.6-17.6-12-26.7
		C335.4,242.8,347.7,240.6,358.9,246.3z"/>
	<path class="st6" d="M359.2,246.4c10.8,5.5,16.3,16.6,11.8,25.4c-4.5,8.8-16.8,11.5-27.7,6c-10.8-5.5-16-17.1-11.5-25.9
		C336.3,243.2,348.3,241,359.2,246.4z"/>
	<path class="st6" d="M359.4,246.6c10.4,5.3,15.6,16.1,11.3,24.7c-4.3,8.5-16.3,11.2-26.7,5.9c-10.4-5.3-15.4-16.5-11.1-25
		C337.2,243.6,348.9,241.3,359.4,246.6z"/>
	<path class="st6" d="M359.6,246.8c10,5.1,15,15.7,10.8,24c-4.2,8.3-15.7,10.8-25.8,5.7c-10-5.1-14.8-15.9-10.6-24.2
		C338.2,244,349.5,241.7,359.6,246.8z"/>
	<path class="st6" d="M359.8,246.9c9.6,4.9,14.3,15.2,10.2,23.2c-4.1,8-15.2,10.5-24.8,5.6c-9.7-4.9-14.2-15.3-10.2-23.3
		C339.1,244.5,350.1,242.1,359.8,246.9z"/>
	<path class="st6" d="M360,247.1c9.3,4.7,13.6,14.8,9.7,22.5c-3.9,7.7-14.6,10.2-23.9,5.5c-9.3-4.7-13.6-14.8-9.7-22.5
		C340.1,244.9,350.7,242.4,360,247.1z"/>
</g>
<path class="st7" d="M311.9,422.3c0,0,1.7-14.4,6.7-16.3c4.9-1.9,19,4.3,19,10.2c0,6.1-8.6,16.1-8.6,16.1s-5-2.1-9.2-4.7
	C315.6,424.9,311.9,422.3,311.9,422.3z"/>
<path class="st0" d="M381.4,443.9c-27.4,0-65.1-6.6-88.7-38.2c-16-21.5-9.6-40.9-4.3-50.6l0.2-0.4c0.2-0.7,0.9-1.1,1.7-1.1
	c1,0,1.7,0.8,1.7,1.8c0,0.5-0.2,0.8-0.5,1.4c-4.9,9-10.8,27,4,46.9c38.8,52.1,118.1,33.7,118.9,33.5c0.9-0.2,1.9,0.4,2.1,1.3
	c0.2,0.9-0.4,1.9-1.3,2.1C414.9,440.6,400.7,443.9,381.4,443.9L381.4,443.9z"/>
<g>
	<path class="st8" d="M497.1,339.7c-2.3,51.2-39.4,91.2-82.9,89.3c-43.5-1.9-76.9-45-74.7-96.2c2.3-51.2,39.4-91.2,82.9-89.3
		C465.9,245.4,499.3,288.5,497.1,339.7z"/>
	<path class="st8" d="M496.7,338.9c-2.2,50.7-39,90.2-82.1,88.3c-43.1-1.9-76.2-44.5-74-95.2c2.2-50.7,39-90.2,82.1-88.3
		C465.9,245.6,499,288.2,496.7,338.9z"/>
	<path class="st8" d="M496.4,338.1c-2.2,50.1-38.6,89.2-81.3,87.3c-42.7-1.9-75.5-44.1-73.2-94.2c2.2-50.1,38.6-89.2,81.3-87.3
		C465.8,245.8,498.6,288,496.4,338.1z"/>
	<path class="st8" d="M496.1,337.3c-2.2,49.6-38.2,88.2-80.5,86.4c-42.2-1.9-74.7-43.6-72.5-93.1c2.2-49.6,38.2-88.2,80.4-86.4
		C465.8,246.1,498.3,287.8,496.1,337.3z"/>
	<path class="st8" d="M495.7,336.5c-2.2,49-37.8,87.2-79.6,85.4c-41.8-1.9-74-43.1-71.8-92.1c2.2-49,37.8-87.2,79.6-85.4
		C465.8,246.3,497.9,287.5,495.7,336.5z"/>
	<path class="st8" d="M495.4,335.7c-2.1,48.5-37.4,86.3-78.8,84.4c-41.4-1.8-73.2-42.6-71.1-91.1c2.1-48.5,37.4-86.3,78.8-84.4
		C465.7,246.5,497.5,287.3,495.4,335.7z"/>
	<path class="st8" d="M495.1,334.9c-2.1,47.9-37,85.3-78,83.5c-41-1.8-72.5-42.1-70.3-90c2.1-47.9,37-85.3,78-83.5
		C465.7,246.7,497.2,287,495.1,334.9z"/>
	<path class="st8" d="M494.7,334.1c-2.1,47.4-36.7,84.3-77.2,82.5c-40.5-1.8-71.7-41.6-69.6-89c2.1-47.4,36.7-84.3,77.2-82.5
		C465.7,246.9,496.8,286.8,494.7,334.1z"/>
	<path class="st8" d="M494.4,333.3c-2.1,46.8-36.3,83.3-76.4,81.5c-40.1-1.8-71-41.2-68.9-88c2.1-46.8,36.3-83.3,76.4-81.5
		C465.6,247.2,496.5,286.5,494.4,333.3z"/>
	<path class="st8" d="M494.1,332.5c-2,46.2-35.9,82.3-75.6,80.6c-39.7-1.8-70.2-40.7-68.2-86.9c2-46.2,35.9-82.3,75.6-80.6
		C465.6,247.4,496.1,286.3,494.1,332.5z"/>
	<path class="st8" d="M493.7,331.7c-2,45.7-35.5,81.3-74.8,79.6c-39.3-1.7-69.5-40.2-67.5-85.9c2-45.7,35.5-81.3,74.8-79.6
		C465.5,247.6,495.7,286.1,493.7,331.7z"/>
	<path class="st8" d="M493.4,331c-2,45.1-35.1,80.3-74,78.6c-38.9-1.7-68.7-39.7-66.7-84.8c2-45.1,35.1-80.3,74-78.6
		C465.5,247.8,495.4,285.8,493.4,331z"/>
	<path class="st8" d="M493.1,330.2c-2,44.6-34.7,79.4-73.2,77.7c-38.4-1.7-68-39.2-66-83.8c2-44.6,34.7-79.4,73.2-77.6
		C465.5,248.1,495,285.6,493.1,330.2z"/>
	<path class="st8" d="M492.7,329.4c-1.9,44-34.3,78.4-72.3,76.7c-38-1.7-67.2-38.7-65.3-82.8c1.9-44,34.3-78.4,72.3-76.7
		C465.4,248.3,494.7,285.3,492.7,329.4z"/>
	<path class="st8" d="M492.4,328.6c-1.9,43.5-33.9,77.4-71.5,75.7c-37.6-1.7-66.5-38.3-64.6-81.7c1.9-43.5,33.9-77.4,71.5-75.7
		C465.4,248.5,494.3,285.1,492.4,328.6z"/>
	<path class="st8" d="M492,327.8c-1.9,42.9-33.6,76.4-70.7,74.8c-37.2-1.6-65.7-37.8-63.8-80.7c1.9-42.9,33.6-76.4,70.7-74.7
		C465.4,248.7,493.9,284.8,492,327.8z"/>
	<path class="st8" d="M491.7,327c-1.9,42.4-33.2,75.4-69.9,73.8c-36.7-1.6-65-37.3-63.1-79.7c1.9-42.4,33.2-75.4,69.9-73.8
		C465.3,248.9,493.6,284.6,491.7,327z"/>
	<path class="st8" d="M491.4,326.2c-1.8,41.8-32.8,74.4-69.1,72.8c-36.3-1.6-64.3-36.8-62.4-78.6c1.8-41.8,32.8-74.4,69.1-72.8
		C465.3,249.2,493.2,284.4,491.4,326.2z"/>
	<path class="st8" d="M491,325.4c-1.8,41.3-32.4,73.4-68.3,71.8c-35.9-1.6-63.5-36.3-61.7-77.6c1.8-41.3,32.4-73.4,68.3-71.8
		C465.2,249.4,492.9,284.1,491,325.4z"/>
	<path class="st8" d="M490.7,324.6c-1.8,40.7-32,72.4-67.5,70.9c-35.5-1.6-62.8-35.8-61-76.6c1.8-40.7,32-72.4,67.5-70.9
		C465.2,249.6,492.5,283.9,490.7,324.6z"/>
	<path class="st8" d="M490.4,323.8c-1.8,40.2-31.6,71.5-66.7,69.9c-35-1.6-62-35.4-60.2-75.5c1.8-40.2,31.6-71.5,66.7-69.9
		C465.2,249.8,492.1,283.6,490.4,323.8z"/>
	
		<ellipse transform="matrix(4.416619e-02 -0.999 0.999 4.416619e-02 88.555 733.0038)" class="st8" cx="427.3" cy="320.2" rx="71.8" ry="62.8"/>
	
		<ellipse transform="matrix(4.416603e-02 -0.999 0.999 4.416603e-02 89.7278 732.7056)" class="st8" cx="427.8" cy="319.5" rx="70.8" ry="62"/>
	
		<ellipse transform="matrix(4.416588e-02 -0.999 0.999 4.416588e-02 90.9007 732.4073)" class="st8" cx="428.2" cy="318.7" rx="69.8" ry="61.2"/>
	
		<ellipse transform="matrix(4.416571e-02 -0.999 0.999 4.416571e-02 92.0735 732.109)" class="st8" cx="428.6" cy="317.9" rx="68.8" ry="60.5"/>
	
		<ellipse transform="matrix(4.416554e-02 -0.999 0.999 4.416554e-02 93.2464 731.8107)" class="st8" cx="429.1" cy="317.2" rx="67.8" ry="59.7"/>
	
		<ellipse transform="matrix(4.416537e-02 -0.999 0.999 4.416537e-02 94.4192 731.5125)" class="st8" cx="429.5" cy="316.4" rx="66.8" ry="58.9"/>
	
		<ellipse transform="matrix(4.416520e-02 -0.999 0.999 4.416520e-02 95.5921 731.2142)" class="st8" cx="429.9" cy="315.7" rx="65.8" ry="58.2"/>
	
		<ellipse transform="matrix(4.416502e-02 -0.999 0.999 4.416502e-02 96.7649 730.9159)" class="st8" cx="430.4" cy="314.9" rx="64.8" ry="57.4"/>
	
		<ellipse transform="matrix(4.416483e-02 -0.999 0.999 4.416483e-02 97.9378 730.6176)" class="st8" cx="430.8" cy="314.1" rx="63.8" ry="56.6"/>
	
		<ellipse transform="matrix(4.416464e-02 -0.999 0.999 4.416464e-02 99.1106 730.3193)" class="st8" cx="431.2" cy="313.4" rx="62.7" ry="55.9"/>
	
		<ellipse transform="matrix(4.416445e-02 -0.999 0.999 4.416445e-02 100.2835 730.0211)" class="st8" cx="431.6" cy="312.6" rx="61.7" ry="55.1"/>
	
		<ellipse transform="matrix(4.416425e-02 -0.999 0.999 4.416425e-02 101.4563 729.7228)" class="st8" cx="432.1" cy="311.8" rx="60.7" ry="54.3"/>
	
		<ellipse transform="matrix(4.416404e-02 -0.999 0.999 4.416404e-02 102.6292 729.4245)" class="st8" cx="432.5" cy="311.1" rx="59.7" ry="53.6"/>
	
		<ellipse transform="matrix(4.416383e-02 -0.999 0.999 4.416383e-02 103.802 729.1262)" class="st8" cx="432.9" cy="310.3" rx="58.7" ry="52.8"/>
	
		<ellipse transform="matrix(4.416361e-02 -0.999 0.999 4.416361e-02 104.9749 728.8279)" class="st8" cx="433.4" cy="309.6" rx="57.7" ry="52"/>
	
		<ellipse transform="matrix(4.416338e-02 -0.999 0.999 4.416338e-02 106.1478 728.5297)" class="st8" cx="433.8" cy="308.8" rx="56.7" ry="51.3"/>
	
		<ellipse transform="matrix(4.416315e-02 -0.999 0.999 4.416315e-02 107.3207 728.2314)" class="st8" cx="434.2" cy="308" rx="55.7" ry="50.5"/>
	
		<ellipse transform="matrix(4.416291e-02 -0.999 0.999 4.416291e-02 108.4935 727.9332)" class="st8" cx="434.7" cy="307.3" rx="54.7" ry="49.7"/>
	
		<ellipse transform="matrix(4.416266e-02 -0.999 0.999 4.416266e-02 109.6664 727.6349)" class="st8" cx="435.1" cy="306.5" rx="53.7" ry="49"/>
	
		<ellipse transform="matrix(4.416241e-02 -0.999 0.999 4.416241e-02 110.8393 727.3366)" class="st8" cx="435.5" cy="305.7" rx="52.7" ry="48.2"/>
	
		<ellipse transform="matrix(4.416214e-02 -0.999 0.999 4.416214e-02 112.0122 727.0384)" class="st8" cx="435.9" cy="305" rx="51.7" ry="47.4"/>
	
		<ellipse transform="matrix(4.416187e-02 -0.999 0.999 4.416187e-02 113.1851 726.7401)" class="st8" cx="436.4" cy="304.2" rx="50.7" ry="46.7"/>
	
		<ellipse transform="matrix(4.416159e-02 -0.999 0.999 4.416159e-02 114.358 726.4418)" class="st8" cx="436.8" cy="303.5" rx="49.7" ry="45.9"/>
	
		<ellipse transform="matrix(4.416130e-02 -0.999 0.999 4.416130e-02 115.5309 726.1436)" class="st8" cx="437.2" cy="302.7" rx="48.7" ry="45.1"/>
	
		<ellipse transform="matrix(4.416100e-02 -0.999 0.999 4.416100e-02 116.7038 725.8453)" class="st8" cx="437.7" cy="301.9" rx="47.7" ry="44.3"/>
	
		<ellipse transform="matrix(4.416069e-02 -0.999 0.999 4.416069e-02 117.8767 725.5471)" class="st8" cx="438.1" cy="301.2" rx="46.7" ry="43.6"/>
	<path class="st8" d="M481.3,302.3c-1.1,25.2-21.2,44.8-44.8,43.8c-23.6-1-41.9-22.3-40.8-47.5c1.1-25.2,21.2-44.8,44.8-43.8
		C464.2,255.8,482.4,277.1,481.3,302.3z"/>
	<path class="st8" d="M481,301.5c-1.1,24.7-20.8,43.8-44,42.8c-23.2-1-41.1-21.8-40-46.5c1.1-24.7,20.8-43.8,44-42.8
		C464.1,256,482.1,276.8,481,301.5z"/>
	<path class="st8" d="M480.6,300.7c-1.1,24.1-20.4,42.8-43.2,41.8c-22.8-1-40.4-21.4-39.3-45.5c1.1-24.1,20.4-42.8,43.2-41.8
		C464.1,256.2,481.7,276.6,480.6,300.7z"/>
	<path class="st8" d="M480.3,299.9c-1,23.5-20,41.8-42.4,40.9c-22.4-1-39.6-20.9-38.6-44.4c1-23.6,20-41.8,42.4-40.9
		C464.1,256.5,481.3,276.4,480.3,299.9z"/>
	<path class="st8" d="M480,299.1c-1,23-19.6,40.9-41.6,39.9c-21.9-1-38.9-20.4-37.9-43.4c1-23,19.6-40.9,41.6-39.9
		C464,256.7,481,276.1,480,299.1z"/>
</g>
<path class="st6" d="M349.5,232.5c0,0,0.6-11.3-13.5-11.5c-16-0.2-29.3,26-29.3,26h42.9L349.5,232.5z"/>
<ellipse class="st9" cx="350.7" cy="253.6" rx="21.2" ry="21.2"/>
<ellipse cx="359.8" cy="246.9" rx="6.9" ry="6.9"/>
<ellipse class="st5" cx="356.5" cy="241" rx="3.7" ry="3.7"/>
<ellipse class="st1" cx="340.4" cy="283.5" rx="2.5" ry="2.5"/>
<path class="st1" d="M331.3,281.1c-0.2,0.7-1.3,1-2.5,0.7c-1.2-0.3-2-1.1-1.8-1.8c0.2-0.7,1.3-1,2.5-0.7
	C330.7,279.5,331.5,280.4,331.3,281.1z"/>
<circle class="st1" cx="311.2" cy="271.9" r="2.9"/>
<path class="st1" d="M291.7,278c-0.8,1.2-3.2,1-5.3-0.4c-2.1-1.4-3.1-3.5-2.3-4.8c0.8-1.2,3.2-1.1,5.3,0.4
	C291.5,274.6,292.6,276.8,291.7,278z"/>
<path class="st1" d="M315.2,291.1c-0.4,0.9-1.7,1.1-2.9,0.6c-1.2-0.6-1.9-1.7-1.4-2.6c0.4-0.9,1.7-1.1,2.9-0.6
	C314.9,289,315.6,290.2,315.2,291.1z"/>
<ellipse class="st1" cx="335.1" cy="295.9" rx="2.8" ry="2.8"/>
<ellipse transform="matrix(0.2774 -0.9607 0.9607 0.2774 -17.439 539.5955)" class="st1" cx="350" cy="281.4" rx="1.7" ry="2.4"/>
<path class="st1" d="M322,264.2c-0.7,0.8-2.8,0-4.6-1.7c-1.9-1.7-2.8-3.7-2.1-4.5c0.7-0.8,2.8,0,4.6,1.7
	C321.8,261.4,322.7,263.4,322,264.2z"/>
<path class="st1" d="M323.8,305.2c0,0.8-0.5,1.4-1.2,1.4c-0.6,0-1.2-0.6-1.2-1.4c0-0.8,0.5-1.4,1.2-1.4
	C323.3,303.8,323.8,304.5,323.8,305.2z"/>
<ellipse class="st1" cx="331.2" cy="271.3" rx="1.2" ry="1.4"/>
<path class="st10" d="M440.1,292.8c1.3,14-5.7,20.8-15.9,21.7c-13.3,1.2-16-14-12.1-24.3c5-13.2,11-20.6,17.2-21.2
	C434.5,268.6,438.8,278.5,440.1,292.8z"/>
<path class="st10" d="M446.8,289.5c3,13.7,11.6,19.3,20.2,16.5c8.8-2.8,9.5-13.6,4.1-23.1c-7.3-12.6-14.5-17.1-20.8-17.1
	C445.1,265.9,443.6,274.9,446.8,289.5z"/>
<path class="st6" d="M139.5,478.9c0,0,2.4,15.9,0,32c-2.4,16.1-5,23.3-4.6,27.2c0.4,3.9,7.8,11.3,27.9,11.5
	c20,0.2,34.4-6.1,34.4-6.1v-24.5c0,0,1.5-0.3,3-10.3c1.5-10-5.2-29.8-5.2-29.8H139.5z"/>
<path class="st11" d="M175.2,517c0,0,8.4,5.4,12.9,5.3c5.1-0.1,9-3.3,9-3.3v2.8c0,0-2.2,2.4-8.4,2.4
	C181.8,524.2,175.2,517,175.2,517z"/>
<path class="st12" d="M185.8,534.9v11.3c0,0,3.3,2.2,9.6,2.1c6.3-0.1,8-1.5,8-1.5s0.7-6.6-1.2-12.3c-2.4-7.1-7.7-8.4-10.7-7.3
	C187.2,528.8,185.8,534.9,185.8,534.9z"/>
<path class="st13" d="M190.3,547.8c0,0-5.8,2.5-9.1,2.6c-3.4,0.1-9-1.3-9-1.3l-0.1-15.3c0,0,3.7-5.4,9.1-5.4
	C193.6,528.4,190.3,547.8,190.3,547.8z"/>
<path class="st14" d="M156.2,550.5c0,0,6.2,2.6,12.2,1.3c6.2-1.3,7-2.8,7-2.8s2.1-12.7-2-16.7c-4.1-4-10.9-4.4-14.3,0.8
	C156.6,537,156.2,550.5,156.2,550.5z"/>
<path class="st6" d="M263.2,478.9c0,0,7.8,15.7,5.4,31.8c-2.4,16.1-4.8,25.5-4.4,29.4c0.4,3.9,6.3,9.4,26.3,9.6
	c20,0.2,34.4-6.1,34.4-6.1l0.6-26.6c0,0,2.5-0.9,2.7-11c0.1-9.5-9.6-27.1-9.6-27.1H263.2z"/>
<path class="st11" d="M305.4,517c0,0,7.2,4.6,11.8,4.5c5.1-0.1,8.5-4.5,8.5-4.5v3.9c0,0-2.5,2.5-8.7,2.5
	C310,523.4,305.4,517,305.4,517z"/>
<path class="st12" d="M312.7,534.9v11.3c0,0,3.3,2.2,9.6,2.1c6.3-0.1,8-1.5,8-1.5s0.7-6.6-1.2-12.3c-2.4-7.1-8.4-8-11.3-6.5
	C316,529,312.7,534.9,312.7,534.9z"/>
<path class="st13" d="M317.1,547.8c0,0-5.8,2.5-9.1,2.6c-3.4,0.1-9-1.3-9-1.3l-0.1-15.3c0,0,3.7-5.4,9.1-5.4
	C320.4,528.4,317.1,547.8,317.1,547.8z"/>
<path class="st14" d="M283.1,550.5c0,0,6.2,2.6,12.2,1.3c6.2-1.3,7-2.8,7-2.8s2.1-12.7-2-16.7c-4.1-4-10.9-4.4-14.3,0.8
	C283.4,537,283.1,550.5,283.1,550.5z"/>
<path class="st10" d="M303.2,246.9c-0.1-0.4,4.7-36.4-8-46.5c-11.5-9.2-31.9,2.5-26.8,17.7c4.5,13.4,13.1,13.7,19.1,19.9
	c4.5,4.8,5.9,8.9,5.9,8.9H303.2z"/>
<linearGradient id="SVGID_1_" gradientUnits="userSpaceOnUse" x1="282.6828" y1="231.1886" x2="300.3921" y2="231.1886">
	<stop  offset="0" style="stop-color:#B48C73"/>
	<stop  offset="1" style="stop-color:#97816A"/>
</linearGradient>
<path class="st15" d="M300.4,246.9c0,0-1.5-33.8-14.6-31.4c-8.5,1.6,2.6,10.9,6,16.5c3.3,5.6,5.6,14.9,5.6,14.9H300.4z"/>
</svg>
