<?xml version="1.0" encoding="utf-8"?>
<!-- Generator: Adobe Illustrator 21.0.0, SVG Export Plug-In . SVG Version: 6.00 Build 0)  -->
<svg version="1.1" id="Layer_1" xmlns="http://www.w3.org/2000/svg" xmlns:xlink="http://www.w3.org/1999/xlink" x="0px" y="0px"
	 viewBox="0 0 525 750" style="enable-background:new 0 0 525 750;" xml:space="preserve">
<style type="text/css">
	.st0{fill:#282618;}
	.st1{fill:#EC1F26;}
	.st2{fill:#7CCDE2;}
	.st3{fill:#A4DDE6;}
	.st4{fill:#D80C18;}
	.st5{fill:#BC0C1D;}
	.st6{fill:#FFB38C;}
	.st7{fill:#EA9C7A;}
	.st8{fill:#FFD1BD;}
</style>
<g>
	<rect x="414.9" y="489.1" class="st0" width="34.5" height="30.9"/>
	<rect x="90.4" y="489.1" class="st0" width="34.5" height="30.9"/>
	<path class="st1" d="M482.2,463.3c0,20.1-16.3,36.4-36.4,36.4h-366c-20.1,0-36.4-16.3-36.4-36.4V267c0-20.1,16.3-36.4,36.4-36.4
		h366c20.1,0,36.4,16.3,36.4,36.4V463.3z"/>
	<path class="st2" d="M364.7,435.1c0,14.9-10.8,27-24.1,27H97.8c-13.3,0-24.1-12.1-24.1-27V289.2c0-14.9,10.8-27,24.1-27h242.8
		c13.3,0,24.1,12.1,24.1,27V435.1z"/>
	<path class="st3" d="M166.6,262.1H97.8c-13.3,0-24.1,12.1-24.1,27v71.9L166.6,262.1z"/>
	<path class="st3" d="M217.1,262.1L73.7,403.3v31.8c0,10.1,5,19,12.4,23.6l230-196.5H217.1z"/>
	<path class="st3" d="M364.7,354.2l-132.6,108h108.5c13.3,0,24.1-12.1,24.1-27V354.2z"/>
	<path class="st4" d="M445.8,230.6h-68.2v222.1h104.5V267C482.2,246.9,465.9,230.6,445.8,230.6z"/>
	<path class="st5" d="M395,230.6h-17.4v222.1h50.5C381.4,412.6,390.5,276.4,395,230.6z"/>
	<circle class="st6" cx="440.3" cy="394.6" r="26.4"/>
	<path class="st7" d="M414,394.6c0,14.6,11.8,26.4,26.4,26.4c9.1,0,17.1-4.6,21.9-11.7c-36.9,3.4-37.5-21.4-33.8-38.2
		C419.9,375.4,414,384.3,414,394.6z"/>
	
		<ellipse transform="matrix(0.569 -0.8224 0.8224 0.569 -117.3981 535.1774)" class="st8" cx="451.8" cy="379.6" rx="3.2" ry="4.4"/>
	<rect x="399.9" y="289.1" class="st6" width="18.6" height="24.5"/>
	<rect x="427.6" y="289.1" class="st6" width="18.6" height="24.5"/>
	<rect x="458.1" y="289.1" class="st6" width="18.6" height="24.5"/>
	<rect x="399.9" y="319.1" class="st6" width="18.6" height="24.5"/>
	<rect x="427.6" y="319.1" class="st6" width="18.6" height="24.5"/>
	<rect x="458.1" y="319.1" class="st6" width="18.6" height="24.5"/>
</g>
</svg>
