<?xml version="1.0" encoding="utf-8"?>
<!-- Generator: Adobe Illustrator 21.0.0, SVG Export Plug-In . SVG Version: 6.00 Build 0)  -->
<svg version="1.1" id="Layer_1" xmlns="http://www.w3.org/2000/svg" xmlns:xlink="http://www.w3.org/1999/xlink" x="0px" y="0px"
	 viewBox="0 0 525 750" style="enable-background:new 0 0 525 750;" xml:space="preserve">
<style type="text/css">
	.st0{fill:#E0D8D5;}
	.st1{fill:#F4E9E4;}
	.st2{fill:#D82A47;}
	.st3{fill:#FFF8F5;}
</style>
<g>
	<polygon class="st0" points="388.7,295.7 388,298.6 383.5,318.8 399,347.1 444,337.2 442.8,295.1 412.9,281.6 	"/>
	<polygon class="st0" points="114.4,303.6 115.3,306.5 121,326.4 107.1,355.5 61.6,348.2 60.4,306.1 89.5,290.9 	"/>
	<polygon class="st0" points="144.7,638.7 157,688.1 226.5,677.5 233.4,631.8 	"/>
	<polygon class="st0" points="296.3,630 296.4,632.4 298.2,673.5 377.1,677 378.7,630 	"/>
	<path class="st1" d="M166.4,52.3c0,0,26.8,16.5,82.7,12c56-4.5,77.1-16.6,77.1-16.6s-6.4,46.1-18,53.2
		c-11.6,7-99.8,20.1-104.8,18.3c-5-1.8-36.2-27.7-36.2-27.7L166.4,52.3z"/>
	<path class="st1" d="M353.2,194.8c-0.2-60.3,24-109.8,24-109.8c-9.4-11.2-50.9-37.3-50.9-37.3s-7.1,16-27.8,31
		c-20.7,15-38.9,14-38.9,14l-19.1,0.6c0,0-19.4,2-42.4-11.7c-23.1-13.7-31.6-29.2-31.6-29.2s-42.9,28.5-52.3,40.3
		c0,0,28.9,48,32.3,108.2c3.4,60.2-8.2,219.9-6.8,270.1c1.4,50.2-1.6,169.5,9.8,172c11.4,2.5,84.2-1,83.9-11
		c-0.3-10-1.7-113.4,4.1-138c3.8-16.2,14.3-20.1,21-20.9l0,0.2c0,0,1.1-0.3,2.8-0.4c1.9,0,3.1,0.2,3.1,0.2l0-0.2
		c6.3,0.5,16,4,20.4,19.7C291.5,516.7,296,620,296.3,630c0.3,10,68.2,9.5,78.7,6.3c10.5-3.2,1-122.1-0.5-172.3
		C373.1,413.9,353.4,255.1,353.2,194.8z"/>
	<path class="st1" d="M357.3,94.6l19.9-9.7c0,0,19,27.7,26.6,52.4c7.6,24.7,29.9,82.4,34.6,106.2c4.6,23.8,3.6,55.4,3.6,55.4
		s-49.2-1.4-58.5,19.9c0,0-20.7-35.8-30.7-72.8C342.9,209,357.3,94.6,357.3,94.6z"/>
	<path class="st1" d="M134.2,101.1l-20-8.5c0,0-17.8,28.7-23.9,53.8c-6.2,25.1-25.1,84-28.4,108c-3.2,24-0.4,55.5-0.4,55.5
		s49.1-4.3,59.5,16.5c0,0,18.6-36.9,26.4-74.5C155.2,214.4,134.2,101.1,134.2,101.1z"/>
	<path class="st2" d="M438.4,243.5c-1-5-2.7-11.5-5-18.9c-17.7,1.3-31.5,15.9-31,33.4c0.5,18,15.9,32.1,34.4,31.6
		c1.8-0.1,3.6-0.3,5.3-0.6C442,277.7,441.4,259,438.4,243.5z M410.6,157.6c-2.7-7.9-5.1-14.9-6.8-20.3
		c-4.3-13.8-12.1-28.6-18.2-38.9c-9.6,6-15.9,16.5-15.6,28.4c0.5,18,15.9,32.1,34.4,31.5C406.5,158.3,408.6,158,410.6,157.6z"/>
	<path class="st2" d="M401.9,208.2c0.5,18-14,32.9-32.5,33.5c-18.5,0.5-33.8-13.6-34.4-31.6c-0.5-18,14-32.9,32.5-33.5
		C386,176.1,401.4,190.2,401.9,208.2z"/>
	
		<ellipse transform="matrix(0.9996 -2.893968e-02 2.893968e-02 0.9996 -3.6367 9.228)" class="st2" cx="317" cy="130.3" rx="33.4" ry="32.5"/>
	<path class="st2" d="M223.9,143.5c0.5,18-14,32.9-32.5,33.5c-18.5,0.5-33.9-13.6-34.4-31.5c-0.5-18,14-32.9,32.5-33.5
		C208,111.4,223.4,125.5,223.9,143.5z"/>
	
		<ellipse transform="matrix(0.9996 -2.891253e-02 2.891253e-02 0.9996 -5.7792 7.6326)" class="st2" cx="261" cy="203.7" rx="33.4" ry="32.5"/>
	<path class="st2" d="M348.9,282.5c0.5,18-14,32.9-32.5,33.5c-18.5,0.5-33.9-13.6-34.4-31.5c-0.5-18,14-33,32.5-33.5
		C333,250.4,348.4,264.5,348.9,282.5z"/>
	<path class="st2" d="M235,288.6c0.5,18-14,32.9-32.5,33.5c-18.5,0.5-33.8-13.6-34.4-31.6c-0.5-18,14-33,32.5-33.5
		C219.1,256.6,234.4,270.7,235,288.6z"/>
	<path class="st2" d="M66.7,231.4c-2.3,9.1-4,17.1-4.8,23c-1.9,13.9-1.7,30.3-1.2,41.7c1.7,0.2,3.5,0.3,5.3,0.3
		c18.5-0.5,33-15.5,32.5-33.5C97.9,245.8,83.9,232.2,66.7,231.4z M108.7,102.1c-5.8,10.5-14.5,28.2-18.5,44.3
		c-0.9,3.8-2.1,8.3-3.6,13.4c0.6,0,1.3,0.1,1.9,0c18.5-0.5,33-15.5,32.5-33.5C120.7,116.5,116,107.8,108.7,102.1z"/>
	
		<ellipse transform="matrix(0.9996 -2.892907e-02 2.892907e-02 0.9996 -6.4774 4.3912)" class="st2" cx="148.5" cy="226.1" rx="33.4" ry="32.5"/>
	<path class="st2" d="M297.1,360.6c0.5,18-14,33-32.5,33.5c-18.5,0.5-33.9-13.6-34.4-31.5c-0.5-18,14-32.9,32.5-33.5
		C281.2,328.5,296.5,342.6,297.1,360.6z"/>
	<path class="st2" d="M359,426.7c0.5,18-14,32.9-32.5,33.5c-18.5,0.5-33.8-13.6-34.4-31.5c-0.5-18,14-32.9,32.5-33.5
		C343.1,394.6,358.5,408.8,359,426.7z"/>
	<path class="st2" d="M238.1,430.2c0.5,18-14,32.9-32.5,33.5c-18.5,0.5-33.9-13.6-34.4-31.5c-0.5-18,14-32.9,32.5-33.5
		C222.2,398.1,237.6,412.3,238.1,430.2z"/>
	
		<ellipse transform="matrix(0.9996 -2.886706e-02 2.886706e-02 0.9996 -16.2126 5.9129)" class="st2" cx="196.7" cy="564.5" rx="33.4" ry="32.5"/>
	<path class="st2" d="M366.9,564.8c0.5,18-14,32.9-32.5,33.5c-18.5,0.5-33.9-13.6-34.4-31.5c-0.5-18,14-33,32.5-33.5
		C351,532.7,366.4,546.8,366.9,564.8z"/>
	<path class="st2" d="M369,391.8c-1.9-20-4-41.8-6.1-63.7c-14.5,3.9-25,17-24.5,32.3C338.9,377,352.3,390.4,369,391.8z M371,602.5
		c-18.5,0.5-33,15.5-32.5,33.5c0,0.8,0.1,1.6,0.2,2.4c16.1,0.3,31.7-0.6,36.3-2c3.4-1,4.7-14.1,4.8-32.9
		C377,602.8,374,602.4,371,602.5z M352.1,493.9c0.4,14.9,11.1,27.1,25.3,30.6c-1.2-23-2.4-45-2.8-60.4c0-0.6-0.1-1.2-0.1-1.8
		C361.1,466.9,351.7,479.4,352.1,493.9z M142.2,607.8c1.3,20.2,3.5,34.3,7.3,35.1c3.1,0.7,10.9,0.9,20.6,0.7
		c0.2-1.5,0.3-3.1,0.2-4.7C169.8,623,157.7,610.2,142.2,607.8z M143.7,341.2c-1,22.1-1.9,44-2.7,63.8c16.5-2.4,28.9-16.5,28.5-33.1
		C169,356.8,158.1,344.5,143.7,341.2z M139.6,468.6c0,0.8,0,1.6,0,2.3c0.5,15.9,0.5,38.7,0.6,62.6c17.7-1.3,31.4-15.9,30.9-33.4
		C170.7,483.1,156.8,469.5,139.6,468.6z"/>
	<path class="st3" d="M342.9,58.5c-9.2-6.2-16.6-10.8-16.6-10.8s-7.1,16-27.8,31c-20.7,15-38.9,14-38.9,14l-19.1,0.6
		c0,0-19.4,2-42.4-11.7c-23.1-13.7-31.6-29.2-31.6-29.2s-5.6,3.7-13.2,9c9.7,16.2,40.8,50.9,96.2,47.9
		C302.3,106.3,328.8,77.9,342.9,58.5z"/>
	<path class="st2" d="M227,502.3c0.1,3-2.3,5.5-5.4,5.5c-3,0.1-5.6-2.2-5.7-5.2c-0.1-3,2.3-5.5,5.4-5.5
		C224.4,497,226.9,499.4,227,502.3z"/>
	<path class="st2" d="M227.4,552.1c0.1,3-2.3,5.5-5.4,5.5c-3.1,0.1-5.6-2.2-5.7-5.2c-0.1-3,2.3-5.4,5.4-5.5
		C224.8,546.8,227.4,549.1,227.4,552.1z"/>
	<path class="st2" d="M228.1,609.5c0.1,3-2.3,5.4-5.4,5.5c-3.1,0.1-5.6-2.3-5.7-5.2c-0.1-3,2.3-5.5,5.4-5.5
		C225.5,604.2,228,606.5,228.1,609.5z"/>
	<path class="st2" d="M221.7,659.5c0.1,3-2.3,5.4-5.4,5.5c-3,0.1-5.6-2.2-5.7-5.2c-0.1-3,2.3-5.4,5.4-5.5
		C219.1,654.2,221.6,656.5,221.7,659.5z"/>
	<path class="st2" d="M312.3,660.7c0.1,3-2.3,5.5-5.4,5.5c-3,0.1-5.6-2.3-5.7-5.2c-0.1-3,2.3-5.5,5.4-5.5
		C309.6,655.4,312.2,657.7,312.3,660.7z"/>
	<path class="st2" d="M309.7,607.2c0.1,3-2.3,5.4-5.4,5.5c-3.1,0.1-5.6-2.2-5.7-5.2c-0.1-3,2.3-5.4,5.4-5.5
		C307.1,601.8,309.6,604.2,309.7,607.2z"/>
	<path class="st2" d="M304.2,550.8c0.1,3-2.3,5.5-5.4,5.5c-3.1,0.1-5.6-2.2-5.7-5.2c-0.1-3,2.3-5.4,5.4-5.5
		C301.5,545.5,304.1,547.9,304.2,550.8z"/>
	<path class="st2" d="M303.4,491.5c0.1,3-2.3,5.5-5.4,5.5c-3.1,0.1-5.6-2.3-5.7-5.2c-0.1-3,2.3-5.5,5.4-5.5
		C300.8,486.2,303.4,488.5,303.4,491.5z"/>
	<path class="st2" d="M269,459c0.1,3-2.3,5.5-5.4,5.5c-3,0.1-5.6-2.2-5.7-5.2c-0.1-3,2.3-5.5,5.4-5.5C266.4,453.7,269,456,269,459z"
		/>
	<path class="st2" d="M335.3,59.9c0.1,3-2.3,5.5-5.4,5.5c-3,0.1-5.6-2.2-5.7-5.2c-0.1-3,2.3-5.5,5.4-5.5
		C332.6,54.5,335.2,56.9,335.3,59.9z"/>
	<path class="st2" d="M351.3,70.9c0.1,3-2.3,5.4-5.4,5.5c-3.1,0.1-5.6-2.3-5.7-5.2c-0.1-3,2.3-5.4,5.4-5.5
		C348.7,65.6,351.2,67.9,351.3,70.9z"/>
</g>
</svg>
