<?xml version="1.0" encoding="utf-8"?>
<!-- Generator: Adobe Illustrator 21.0.0, SVG Export Plug-In . SVG Version: 6.00 Build 0)  -->
<svg version="1.1" id="Layer_1" xmlns="http://www.w3.org/2000/svg" xmlns:xlink="http://www.w3.org/1999/xlink" x="0px" y="0px"
	 viewBox="0 0 525 750" style="enable-background:new 0 0 525 750;" xml:space="preserve">
<style type="text/css">
	.st0{fill:#8C4C00;}
	.st1{fill:#9E9E9E;}
	.st2{fill:#C8C9CB;}
	.st3{fill:#D4D5D7;}
	.st4{fill:#EFEFEF;}
	.st5{fill:#848484;}
</style>
<g>
	<path class="st0" d="M258.7,236l-1.3-23c0,0-26.8,4.7-29.4-5.7c-2.5-10.4,40.4-12.3,40.4-12.3s59.6-2.5,57.1,11.4
		c-2.5,13.9-36.9,6.6-36.9,6.6l2.8,30L258.7,236z"/>
	<path class="st1" d="M421.5,289.3l-308.6,4.7c0,0-20.8-52.1,68.2-60.9C270.1,224.3,446.8,212.3,421.5,289.3z"/>
	<path class="st2" d="M112.9,294.1l2.8,221.5c0,0,0,36.9,33.1,38.8c33.1,1.9,236.7-4.7,236.7-4.7s33.1-4.7,36-29.4
		c2.8-24.6,0-231,0-231L112.9,294.1z"/>
	<path class="st3" d="M115.8,515.6c0,0,0,36.9,33.1,38.8c33.1,1.9,236.7-4.7,236.7-4.7s1.4-0.2,3.7-0.7
		c-38.8-17.6-151.4-13.2-188-25.4c-41.7-13.9-56.8-87.1-55.5-130c0.9-30.8-2.1-76.4-3.8-99.9l-29,0.4L115.8,515.6z"/>
	<path class="st1" d="M113.1,308.9l-0.2-14.8c0,0-48.6,1.6-49.2,19.9c-0.6,18.3,18.3,28.4,72.6,28.4c0,0,6.9-11.4,5-18.3
		c0,0-25.2,7.3-43.7,0.2c-18.5-7.1-19.7-12-8.7-15.1C100,305.9,113.1,308.9,113.1,308.9z"/>
	<path class="st4" d="M402.6,305.6c0,0-31.6,1.3-29.7,12.6c1.9,11.4,12,157.8,19.6,137C400.1,434.4,410.8,313.2,402.6,305.6z"/>
	<path class="st5" d="M198.1,286.2c-49.5-4.6-54.3-29.4-51.8-45.8c-48,17-33.4,53.7-33.4,53.7l191.7-2.9
		C291,283,253.8,291.3,198.1,286.2z"/>
	<ellipse transform="matrix(0.192 -0.9814 0.9814 0.192 62.0749 580.975)" class="st2" cx="383.9" cy="252.8" rx="6.3" ry="21.8"/>
	<path class="st1" d="M421.7,302.6c-0.1-8.4-0.2-13.3-0.2-13.3s38.5,0,40.4,22.1c1.9,22.1-42.9,25.2-61.2,25.2c0,0-5.7-7.6-3.8-13.9
		c0,0,42.3,5.7,46.1-6.3C446.8,304.5,421.7,302.6,421.7,302.6z"/>
</g>
</svg>
