<?xml version="1.0" encoding="utf-8"?>
<!-- Generator: Adobe Illustrator 21.0.0, SVG Export Plug-In . SVG Version: 6.00 Build 0)  -->
<svg version="1.1" id="Layer_1" xmlns="http://www.w3.org/2000/svg" xmlns:xlink="http://www.w3.org/1999/xlink" x="0px" y="0px"
	 viewBox="0 0 525 750" style="enable-background:new 0 0 525 750;" xml:space="preserve">
<style type="text/css">
	.st0{fill:#C18711;}
	.st1{fill:#D6BD51;}
	.st2{fill:#E5CB5E;}
	.st3{fill:#D36820;}
	.st4{fill:#C9611B;}
	.st5{fill:#F2995C;}
	.st6{fill:#F2EB00;}
	.st7{fill:#E9C911;}
	.st8{fill:#ECCE00;}
	.st9{fill:#F2E648;}
</style>
<g>
	<g>
		<g>
			<g>
				<g>
					<ellipse class="st0" cx="231.6" cy="367.2" rx="206.2" ry="152.6"/>
					<ellipse class="st1" cx="231.6" cy="360.2" rx="203.8" ry="145.5"/>
				</g>
			</g>
			<g>
				<g>
					<ellipse class="st0" cx="285.7" cy="343.8" rx="206.2" ry="152.6"/>
					<ellipse class="st2" cx="285.7" cy="336.7" rx="203.8" ry="145.5"/>
				</g>
			</g>
		</g>
		<g>
			<g>
				<path class="st3" d="M406.1,205.6c-106.5-47-199.3-31.1-260.8,38.8c-25.8,29.4-20,52.9-31.7,64.6
					c-11.7,11.7-23.5,18.8-39.9,43.5c-16.4,24.7-49.8,90.9-38.8,128.1c12.9,43.5,21.1-52.9,54-88.1c27.1-29,51.7-38.8,71.7-38.8
					c20,0,36.4,7.2,63.4,30.5c27,23.3,42.3,48.2,45.8,64.6c3.5,16.4,8.2,28.2-7,51.7c-5.9,9.1-14.7,19.4-24.7,23.5
					c-15.7,6.5-36.3,4.3-42.3,20c-12.9,34.1,45.8,22.3,79.9,31.7c34.1,9.4,60.4-0.7,65.8-21.1c5.9-22.3-34.1-18.8-32.9-57.6
					c0.9-29.4,17.4-46.8,40.4-54.5c23-7.7,41.9-16.7,60.6-4.2c14.1,9.4,11.8,27,12.9,43.5c1.2,16.4-14.1,57.6-7.1,54
					c7.1-3.5,25.8-14.1,34.1-45.8c8.2-31.7-2.8-64.3,2.4-77.5c5.1-13.2,38.8-31.7,44.6-77.5C502.7,287.2,446,223.2,406.1,205.6z"/>
				<g>
					<g>
						<g>
							<path class="st4" d="M396.1,217.8c-99-43.7-185.3-28.9-242.5,36c-9.1,10.3-13.9,19.8-17.1,28.3c3.1-6.3,7.3-13,13.5-20.1
								c57.2-65,143.4-79.7,242.4-36c37.1,16.4,89.8,75.9,84.1,120.1c-0.9,7.3-2.6,13.8-4.8,19.8c3.9-7.9,7-17.1,8.4-28
								C485.9,293.7,433.3,234.2,396.1,217.8z"/>
						</g>
					</g>
					<g>
						<g>
							<g>
								<path class="st5" d="M283.4,570.5c-29.1-8-79.2,2-68.2-27.1c5.1-13.4-7.5-10.3-12.3,2.1c-10.2,27,36.3,17.7,63.3,25.1
									c10.5,2.9,20.1,3.4,28.1,2.1C290.9,572.3,287.2,571.6,283.4,570.5z"/>
							</g>
						</g>
						<path class="st5" d="M62.5,395.6c6.5-13.8,19-29.7,15.6-25.7c-5.6,6.4-11.3,10.5-18.8,23.7c-7.5,13.2-22.1,48.3-15.1,66.9
							c3.1,8.1,5.1,6.3,7.2-0.1C45.5,441.6,56.4,408.6,62.5,395.6z"/>
						<path class="st5" d="M444.1,462.8c-1.1,22.2-13.2,36.7-19.7,42.9c-0.2,9.3-0.2,16.5,2.1,14.6c4.9-3.9,17.8-15.1,19-41.1
							c0.3-6.6-0.3-13-1.4-19.1C444.1,461,444.2,461.8,444.1,462.8z"/>
					</g>
				</g>
			</g>
		</g>
	</g>
	<g>
		<g>
			<path class="st6" d="M402.2,274.1c-1.8,9.5-6.7,30.6-9.9,38c-3.2,7.4-124,67.7-130.6,65.8c-6.5-1.8-37.5-53.8-35.7-65.8
				c1.9-12,3.8-38.9,7.2-44.6c3.4-5.7,119.5-38.1,125.7-39.7C365,226.2,404,264.6,402.2,274.1z"/>
			<path class="st7" d="M226,312.1c1.7-10.7,3.4-33.4,6.2-42.1c8.1,14.7,35,62.7,42.2,64c7,1.3,94.9-48.2,127.6-62
				c0.2,0.8,0.2,1.5,0.1,2c-1.8,9.5-6.7,30.6-9.9,38c-3.2,7.4-124,67.7-130.6,65.8C255.2,376.1,224.2,324.1,226,312.1z"/>
			<path class="st8" d="M263.2,377.8c-0.7,0.1-1.2,0.2-1.5,0.1c-6.5-1.8-37.5-53.8-35.7-65.8c1.7-10.7,3.4-33.4,6.2-42.1
				c7.7,14,32.4,58.1,41,63.5L263.2,377.8z"/>
		</g>
		<path class="st9" d="M392.2,271.5c0.6-0.3,1.7-1.6,0.8-3.5c-3-6.1-11.3-15.7-19.3-23.3c0,4.6-1.2,9.5-4.2,14.5
			c-6.5,10.7-20.7,26.6-34.6,40.9C356,289.2,378.6,277.4,392.2,271.5z"/>
	</g>
</g>
</svg>
