<?xml version="1.0" encoding="utf-8"?>
<!-- Generator: Adobe Illustrator 21.0.0, SVG Export Plug-In . SVG Version: 6.00 Build 0)  -->
<svg version="1.1" id="Layer_1" xmlns="http://www.w3.org/2000/svg" xmlns:xlink="http://www.w3.org/1999/xlink" x="0px" y="0px"
	 viewBox="0 0 525 750" style="enable-background:new 0 0 525 750;" xml:space="preserve">
<style type="text/css">
	.st0{fill:#446183;}
	.st1{fill:none;stroke:#30445D;stroke-width:0.2962;}
	.st2{fill:#FFC900;}
	.st3{fill:#30445D;}
</style>
<g>
	<path class="st0" d="M132.6,89.3c0,0-19.2,100.9-18.5,156.6c0.7,55.7,8.4,172.8,3.9,204.3c-4.5,31.5-13.3,182.1-13.3,182.1
		s16.3,15.5,34.8,16.6c18.5,1.1,55.6,0.6,55.6,0.6s15.4-103.8,23.2-147.1c7.8-43.3,28.4-168,28.4-168s34.7-4.6,38.9,15.5
		c4.1,20.1,26.8,242.8,27.1,260c0.3,17.2,7.7,49.5,7.7,49.5s45,1.3,61-0.4c16-1.7,23.1-9.2,23.1-9.2s2-169.5,3.2-211.9
		c1.2-42.3,9.8-324.1,9.8-324.1s-138.9-4.2-199.4-11.7C157.4,94.8,132.6,89.3,132.6,89.3z"/>
	<path class="st1" d="M199.6,138c0,0-12.1,42.7-33.6,47.4c-21.5,4.7-44.9-3.3-44.9-3.3"/>
	<path class="st1" d="M120.2,186.7c0,0,32,8.5,52.4-0.2c20.4-8.7,32.9-47.1,32.9-47.1"/>
	<path class="st1" d="M125.2,181.7l11.8-32.4c0,0,30.7,13.1,55.7,5.3"/>
	<path class="st1" d="M339,150.5c0,0,2.3,39.9,32.3,48.3c30,8.4,43.5,4.5,43.5,4.5"/>
	<path class="st1" d="M347.7,149.7c0,0-1.9,33,22,43c23.9,10,46.1,5.4,46.1,5.4"/>
	
		<ellipse transform="matrix(5.838068e-02 -0.9983 0.9983 5.838068e-02 49.8539 340.4548)" class="st2" cx="205.4" cy="143.8" rx="4.1" ry="4.1"/>
	<path class="st2" d="M338.1,155.7c-0.1,2.3-2.1,4-4.4,3.9c-2.3-0.1-4-2.1-3.9-4.4c0.1-2.3,2.1-4,4.4-3.9
		C336.4,151.5,338.2,153.5,338.1,155.7z"/>
	<path class="st3" d="M404.6,639.4c-7.8,2.7-21,6.6-34.6,7.9c-16.7,1.5-41.6,0.3-52.2-0.4c0.2,0.9,0.4,1.8,0.5,2.7
		c11.1,0.7,35.4,1.9,51.9,0.3c13.4-1.2,26.3-5,34.3-7.7C404.5,641.4,404.5,640.4,404.6,639.4z M165.5,634.6
		c-28.5-2.6-49.5-9.5-60.2-13.7c-0.1,1-0.1,1.9-0.2,2.8c11.1,4.3,32,11,60.1,13.5c13.6,1.2,23.8,1.9,31.3,2.3
		c0.1-0.8,0.3-1.7,0.4-2.6C189.4,636.5,179.2,635.8,165.5,634.6z M416.4,147.2c0-0.9,0.1-1.8,0.1-2.7c-26.8,2-67.2,4.1-109.5,3.3
		c0-0.7,0.1-1.3,0.1-2c42.3,0.9,82.6-1.3,109.5-3.2c0-0.9,0.1-1.8,0.1-2.7c-26.8,2-67.1,4.1-109.4,3.3c0.6-14.2,1.1-26.8,1.3-33.8
		c-0.9,0-1.8-0.1-2.6-0.1c-0.2,7-0.7,19.6-1.3,33.9l-0.2,0c-9.1-0.2-18.9-0.8-28.9-1.7c-0.6-14.6-1.1-27.2-1.5-34.2
		c-0.9-0.1-1.8-0.1-2.7-0.2c0.3,6.9,0.9,19.5,1.5,34.2c-0.2,0-0.5,0-0.7-0.1c-0.6-14.7-1.2-27.4-1.5-34.2c-0.9-0.1-1.8-0.1-2.7-0.2
		c0.3,6.6,0.9,19.3,1.5,34.1c-54.4-5.2-116.1-17.8-141.7-23.4c-0.1,0.9-0.3,1.7-0.4,2.6c25.8,5.6,87.7,18.2,142.3,23.4
		c0,0.7,0.1,1.3,0.1,2c-54.9-5.2-117.2-18-142.6-23.5c-0.1,0.9-0.3,1.7-0.4,2.6c25.6,5.6,88.2,18.4,143.2,23.6
		c1.1,29.3,2.2,63.8,1.5,75.8c-1.1,18.3-10.5,86.5-13.8,110.1c0.9,0,1.7,0.1,2.7,0.1c3.3-23.9,12.7-91.8,13.7-110.1
		c0.7-12-0.3-46.4-1.5-75.7c0.2,0,0.5,0,0.7,0.1c1.1,29.1,2.1,63.1,1.4,75c-1.1,18.5-10.6,87.8-13.8,110.8c0.9,0.1,1.7,0.2,2.6,0.3
		c2.5-18.1,8.9-64.3,12.1-92.5l0.4,1.3c0.9-0.3,21.1-7.3,25.7-29.3c2.3-11,4.1-38.7,5.3-63.6C349.1,151.3,389.5,149.2,416.4,147.2z
		 M272.2,145.8c0-0.7-0.1-1.3-0.1-2c0.2,0,0.5,0,0.7,0.1c0,0.7,0.1,1.3,0.1,2C272.7,145.9,272.4,145.9,272.2,145.8z M275.5,144.1
		c10,0.9,19.7,1.4,28.8,1.6c0,0,0.1,0,0.1,0c0,0.7-0.1,1.3-0.1,2c-0.1,0-0.2,0-0.3,0c-9-0.2-18.6-0.8-28.5-1.6
		C275.5,145.5,275.5,144.8,275.5,144.1z M298.9,213.5c-4,18.7-20.3,25.9-23.4,27.2c0.8-7.2,1.4-13.2,1.6-17
		c0.7-11.9-0.3-45.8-1.4-74.9c9.8,0.8,19.3,1.4,28.3,1.6c0.1,0,0.1,0,0.2,0C302.9,175.3,301.2,202.9,298.9,213.5z"/>
</g>
</svg>
