<?xml version="1.0" encoding="utf-8"?>
<!-- Generator: Adobe Illustrator 21.0.0, SVG Export Plug-In . SVG Version: 6.00 Build 0)  -->
<svg version="1.1" id="Layer_1" xmlns="http://www.w3.org/2000/svg" xmlns:xlink="http://www.w3.org/1999/xlink" x="0px" y="0px"
	 viewBox="0 0 525 750" style="enable-background:new 0 0 525 750;" xml:space="preserve">
<style type="text/css">
	.st0{fill:#A5C524;}
	.st1{fill:#FFFFFF;}
	.st2{fill:#703206;}
	.st3{fill:url(#SVGID_1_);}
	.st4{fill:#501807;}
</style>
<g>
	<g>
		<g>
			<path class="st0" d="M446.1,170.2c0,0-22.8,6.1-46.2-7.9c-23.4-14.1-49.2-27.8-71-30.8c-21.8-3-68.6,11.7-66.7,50.2
				c1.8,38,58.8,45,90.3,41C383.9,218.8,446.1,170.2,446.1,170.2z"/>
			<path class="st1" d="M367.6,209.5c-23.5,4.4-62.6,3.6-81.5-13.5c13.4,24.7,57.7,23,82.6,16c6.9-2,15.2-6.7,23.8-12.8
				C383.5,204.3,374.8,208.1,367.6,209.5z"/>
		</g>
		<path class="st2" d="M218.3,104.6c-2.3,6.5,17,34.2,24.5,69.9c7.5,35.7-0.5,91.2,7.4,83.9c7.9-7.4,13.3-62.7,12.9-86.1
			c-0.4-23.4-6.1-46.5-11.6-57.2C246,104.4,220.6,98.1,218.3,104.6z"/>
	</g>
	<g>
		
			<radialGradient id="SVGID_1_" cx="578.2817" cy="439.6954" r="192.4322" gradientTransform="matrix(-1 0 0 1 831.1445 0)" gradientUnits="userSpaceOnUse">
			<stop  offset="0" style="stop-color:#A6D31A"/>
			<stop  offset="0.5558" style="stop-color:#A5D118"/>
			<stop  offset="0.8176" style="stop-color:#A2CB10"/>
			<stop  offset="1" style="stop-color:#9DC105"/>
		</radialGradient>
		<path class="st3" d="M241.6,231.5L241.6,231.5c4.1,1.4,7.8,3.6,11.3,6.3c3.5-2.8,7.2-4.9,11.3-6.3c32.5-11.1,65.9,23.2,84.6,62
			c16.8,34.7,48.9,117.8,71.7,185.2c8.7,25.9,6.2,53.2-7.3,79c-8.9,17-21.1,34.2-45.9,53.7c-14.9,11.7-34.2,19-62.9,24.4
			c-14.2,2.7-18.9,14.6-53.9,14.2c-34.9-0.4-38.6-9.9-56.1-14.2c-22.3-5.4-41.1-15.9-54.6-25.7c-27.5-19.9-38.3-35.3-47.3-52.5
			c-13.5-25.8-16.1-53.1-7.3-79c22.8-67.4,54.9-150.4,71.7-185.2C175.7,254.7,209.1,220.4,241.6,231.5z"/>
		<g>
			
				<ellipse transform="matrix(0.9974 -7.162960e-02 7.162960e-02 0.9974 -35.3225 11.0239)" class="st4" cx="136" cy="498" rx="5" ry="3.9"/>
			
				<ellipse transform="matrix(0.9975 -7.124435e-02 7.124435e-02 0.9975 -27.4432 12.8886)" class="st4" cx="167" cy="391.2" rx="5" ry="3.9"/>
			
				<ellipse transform="matrix(0.9975 -7.123896e-02 7.123896e-02 0.9975 -20.1956 16.4142)" class="st4" cx="220" cy="291.3" rx="5" ry="3.9"/>
			
				<ellipse transform="matrix(0.9975 -7.126456e-02 7.126456e-02 0.9975 -24.087 21.2566)" class="st4" cx="285.9" cy="348.2" rx="5" ry="3.9"/>
			
				<ellipse transform="matrix(0.9975 -7.106926e-02 7.106926e-02 0.9975 -30.0142 17.5772)" class="st4" cx="232" cy="430.6" rx="5" ry="3.9"/>
			
				<ellipse transform="matrix(0.9975 -7.127129e-02 7.127129e-02 0.9975 -36.2143 23.616)" class="st4" cx="312.8" cy="519.3" rx="5" ry="3.9"/>
			
				<ellipse transform="matrix(0.9975 -7.125244e-02 7.125244e-02 0.9975 -37.8751 16.2155)" class="st4" cx="208.4" cy="539" rx="5" ry="3.9"/>
			
				<ellipse transform="matrix(0.9975 -7.123896e-02 7.123896e-02 0.9975 -43.7912 19.6573)" class="st4" cx="253.7" cy="623.8" rx="5" ry="3.9"/>
			
				<ellipse transform="matrix(0.9974 -7.142752e-02 7.142752e-02 0.9974 -41.1344 26.2405)" class="st4" cx="346.3" cy="588.3" rx="5" ry="3.9"/>
			
				<ellipse transform="matrix(0.9974 -7.145988e-02 7.145988e-02 0.9974 -29.8808 26.7408)" class="st4" cx="358.8" cy="431" rx="5" ry="3.9"/>
			
				<ellipse transform="matrix(0.9975 -7.125742e-02 7.125742e-02 0.9975 -18.1652 21.6057)" class="st4" cx="293.7" cy="265.4" rx="5" ry="3.9"/>
		</g>
	</g>
</g>
</svg>
