<?xml version="1.0" encoding="utf-8"?>
<!-- Generator: Adobe Illustrator 21.0.0, SVG Export Plug-In . SVG Version: 6.00 Build 0)  -->
<svg version="1.1" id="Layer_1" xmlns="http://www.w3.org/2000/svg" xmlns:xlink="http://www.w3.org/1999/xlink" x="0px" y="0px"
	 viewBox="0 0 525 750" style="enable-background:new 0 0 525 750;" xml:space="preserve">
<style type="text/css">
	.st0{fill:#F15A24;}
	.st1{fill:#FFFFFF;}
</style>
<g>
	<path class="st0" d="M200.7,514.1L141.1,539c0,0,21-4.6,25.6,0c4.4,4.6-3,14.7-3,14.7s14.1-6.9,22.9-3.1s10.9,17.9,10.9,17.9
		l26.3-40.4L200.7,514.1z"/>
	<path class="st0" d="M341.5,532.9l40.4,39.6c0,0-1.6-12.4,7.1-17.1c8.9-4.7,22.9,2,22.9,2s-7.5-13.2-3.6-20.6
		c3.5-6.7,17-7.8,17-7.8l-50.6-13.7L341.5,532.9z"/>
	<path d="M419.5,336C392,224.6,334.2,177.5,284,177.5s-108,47.1-135.6,158.3c-23,93.3-11.2,135,20.5,168
		c27.1,28.1,76.2,41.6,115,41.6c38.9,0,87.9-13.5,115-41.6C430.8,471,442.6,429.1,419.5,336z"/>
	<path class="st1" d="M284,285.3c-63.9,1.3-136,52.5-136,141.1c0,70.7,71.5,110,136,110s136-39.3,136-110
		C419.9,338,347.8,286.7,284,285.3z"/>
	<path d="M479.1,356.8c0,0-14.7,2.6-26.9-0.9c-11.6-3.4-31.8-16.4-31.8-16.4s5.5,41.6,32.7,46C477.3,389.3,479.1,356.8,479.1,356.8z
		"/>
	<path d="M88.8,356.8c0,0,14.7,2.6,26.9-0.9c11.6-3.4,31.8-16.4,31.8-16.4s-5.4,41.6-32.7,46C90.6,389.3,88.8,356.8,88.8,356.8z"/>
	<path class="st0" d="M284,243.2c-13.9,0-31.4,9.7-32.4,16.6c-1.1,6.9,32.4,25.6,32.4,25.6s33.5-18.7,32.4-25.6
		C315.3,253,297.9,243.2,284,243.2z"/>
	<path class="st1" d="M326.6,219.9c1.8,11.2-5.9,21.8-17.1,23.6s-21.8-5.9-23.6-17.1c-1.8-11.2,5.9-21.8,17.1-23.6
		C314.2,200.9,324.8,208.6,326.6,219.9z"/>
	<path d="M314,221.9c0.7,4.3-2.3,8.3-6.6,9s-8.3-2.3-9-6.6s2.3-8.3,6.6-9C309.3,214.5,313.4,217.5,314,221.9z"/>
	<path class="st1" d="M239.7,219.9c-1.8,11.2,5.9,21.8,17.1,23.6s21.8-5.9,23.6-17.1c1.8-11.2-5.9-21.8-17.1-23.6
		C252.1,200.9,241.5,208.6,239.7,219.9z"/>
	<ellipse transform="matrix(0.1562 -0.9877 0.9877 0.1562 -0.9691 445.1701)" cx="260.1" cy="223.2" rx="7.9" ry="7.9"/>
</g>
</svg>
