<?xml version="1.0" encoding="utf-8"?>
<!-- Generator: Adobe Illustrator 21.0.0, SVG Export Plug-In . SVG Version: 6.00 Build 0)  -->
<svg version="1.1" id="Layer_1" xmlns="http://www.w3.org/2000/svg" xmlns:xlink="http://www.w3.org/1999/xlink" x="0px" y="0px"
	 viewBox="0 0 323 340" style="enable-background:new 0 0 323 340;" xml:space="preserve">
<style type="text/css">
	.st0{fill:#F15A24;}
	.st1{fill:#FFFFFF;}
</style>
<g>
	<path class="st0" d="M98.8,265.8l-44.3,18.5c0,0,15.6-3.4,19,0c3.3,3.4-2.2,10.9-2.2,10.9s10.5-5.1,17-2.3
		c6.5,2.8,8.1,13.3,8.1,13.3l19.5-30L98.8,265.8z"/>
	<path class="st0" d="M203.4,279.8l30,29.4c0,0-1.2-9.2,5.3-12.7c6.6-3.5,17,1.5,17,1.5s-5.6-9.8-2.7-15.3c2.6-5,12.6-5.8,12.6-5.8
		L228,266.7L203.4,279.8z"/>
	<path d="M261.3,133.5C240.9,50.8,198,15.8,160.7,15.8c-37.3,0-80.2,35-100.7,117.6c-17.1,69.3-8.3,100.3,15.2,124.8
		c20.1,20.9,56.6,30.9,85.4,30.9c28.9,0,65.3-10,85.4-30.9C269.7,233.8,278.5,202.7,261.3,133.5z"/>
	<path class="st1" d="M160.7,95.9c-47.5,1-101,39-101,104.8c0,52.5,53.1,81.7,101,81.7c47.9,0,101-29.2,101-81.7
		C261.6,135,208.1,96.9,160.7,95.9z"/>
	<path d="M305.6,149c0,0-10.9,1.9-20-0.7c-8.6-2.5-23.6-12.2-23.6-12.2s4.1,30.9,24.3,34.2C304.3,173.1,305.6,149,305.6,149z"/>
	<path d="M15.7,149c0,0,10.9,1.9,20-0.7c8.6-2.5,23.6-12.2,23.6-12.2S55.3,167,35,170.3C17,173.1,15.7,149,15.7,149z"/>
	<path class="st0" d="M160.7,64.6c-10.3,0-23.3,7.2-24.1,12.3c-0.8,5.1,24.1,19,24.1,19s24.9-13.9,24.1-19
		C183.9,71.9,171,64.6,160.7,64.6z"/>
	<path class="st1" d="M192.3,47.3c1.3,8.3-4.4,16.2-12.7,17.5c-8.3,1.3-16.2-4.4-17.5-12.7c-1.3-8.3,4.4-16.2,12.7-17.5
		C183.1,33.2,191,38.9,192.3,47.3z"/>
	<path d="M183,48.8c0.5,3.2-1.7,6.2-4.9,6.7c-3.2,0.5-6.2-1.7-6.7-4.9c-0.5-3.2,1.7-6.2,4.9-6.7C179.5,43.3,182.5,45.5,183,48.8z"/>
	<path class="st1" d="M127.8,47.3c-1.3,8.3,4.4,16.2,12.7,17.5c8.3,1.3,16.2-4.4,17.5-12.7c1.3-8.3-4.4-16.2-12.7-17.5
		C137,33.2,129.1,38.9,127.8,47.3z"/>
	<ellipse transform="matrix(0.1562 -0.9877 0.9877 0.1562 71.5357 183.0791)" cx="142.9" cy="49.7" rx="5.9" ry="5.9"/>
</g>
</svg>
