<?xml version="1.0" encoding="utf-8"?>
<!-- Generator: Adobe Illustrator 21.0.0, SVG Export Plug-In . SVG Version: 6.00 Build 0)  -->
<svg version="1.1" id="Layer_1" xmlns="http://www.w3.org/2000/svg" xmlns:xlink="http://www.w3.org/1999/xlink" x="0px" y="0px"
	 viewBox="0 0 525 750" style="enable-background:new 0 0 525 750;" xml:space="preserve">
<style type="text/css">
	.st0{fill:#F09FA4;}
	.st1{fill:url(#SVGID_1_);}
	.st2{fill:#685A4E;}
	.st3{fill:url(#SVGID_2_);}
	.st4{fill:url(#SVGID_3_);}
	.st5{fill:#736357;}
	.st6{fill:url(#SVGID_4_);}
	.st7{fill:url(#SVGID_5_);}
	.st8{fill:#DAE5EB;}
	.st9{fill:#ECF8FE;}
	.st10{fill:#F05D71;}
	.st11{fill:#C42228;}
	.st12{fill:url(#SVGID_6_);}
	.st13{fill:url(#SVGID_7_);}
	.st14{fill:url(#SVGID_8_);}
</style>
<path class="st0" d="M350.3,248.8c0,0,4.6-23.7,12.5-36.4c7.9-12.7,19.5-21.9,23.6-21.1c8.8,1.5,38.3,45.8,30.4,52
	s-34.2-28.6-37-28.7c-1.9-0.1-7.1,5.4-10.2,15c-2.1,6.5-5.9,27.2-5.9,27.2L350.3,248.8z"/>
<path class="st0" d="M294.2,247.4c0,0,1.7-27.8,7.6-43.5c5.6-14.8,21.6-27.5,26.2-26.7c9.6,1.6,42,47.7,33.3,54.2
	c-8.6,6.5-37.5-29.8-40.5-29.9c-2.1-0.1-6.9,8.2-8.8,18.6c-1.9,10.5-3,27.3-3,27.3L294.2,247.4L294.2,247.4z"/>
<path class="st0" d="M98.5,309c0,0-29.8-18-31.6-24.7c-2-7.5,4.6-9.1,7.3-4.5c2.7,4.7-2.9,10-2.9,10l6.6,5.4c0,0,10.3-15,0-23.3
	c-7.2-5.8-16.5-2.9-18.6,4.9c-2.2,7.8,2.5,15,10.5,21.6s23.9,17.3,23.9,17.3L98.5,309z"/>
<path class="st0" d="M66,294.1c0,0-2.8,1.8-6.6,0.1c-4.6-2.1-6.4-6.2-8-5.9c-1.6,0.3,0.2,8,8.1,10.6c6,2,12,0.1,12,0.1L66,294.1z"/>
<linearGradient id="SVGID_1_" gradientUnits="userSpaceOnUse" x1="253.2851" y1="199.83" x2="277.5976" y2="199.83" gradientTransform="matrix(1 0 0 -1 0 748.83)">
	<stop  offset="0" style="stop-color:#FED1D6"/>
	<stop  offset="1" style="stop-color:#FED1D6"/>
</linearGradient>
<path class="st1" d="M277.6,531.3c0,0-2.2,12.6-2.8,19.9c-0.4,5.6,1.5,15.5,1.5,15.5h-21.7c0,0-2-6.5-1.2-16.9s2.5-18.5,2.5-18.5
	H277.6z"/>
<path class="st2" d="M275.7,563.1c0,0,6.1,17.4,5,19s-5.8,1-9.2-1.3c-3.7-2.5-4-5.7-4.9-5.9s-5.9,9.3-7.2,9.4
	c-1.2,0.1-3.9-4.5-5.3-10.1c-1.3-5.6-0.5-12.9-0.5-12.9s6.8,2.8,12.2,3.1C271.2,564.6,275.7,563.1,275.7,563.1z"/>
<linearGradient id="SVGID_2_" gradientUnits="userSpaceOnUse" x1="-136.8803" y1="196.33" x2="-136.8803" y2="523.13" gradientTransform="matrix(-1 0 0 -1 118.2197 748.83)">
	<stop  offset="0" style="stop-color:#FED1D6"/>
	<stop  offset="1" style="stop-color:#FED1D6"/>
</linearGradient>
<path class="st3" d="M82.9,370.1c0,83.3,58,182.4,172.2,182.4c95.1,0,172.2-81.6,172.2-182.4c0-87.6-80.2-144.4-175.3-144.4
	C156.9,225.7,82.9,281.8,82.9,370.1z"/>
<linearGradient id="SVGID_3_" gradientUnits="userSpaceOnUse" x1="-55.5793" y1="182.1301" x2="-55.5793" y2="225.0301" gradientTransform="matrix(-1 0 0 -1 118.2197 748.83)">
	<stop  offset="0" style="stop-color:#FED1D6"/>
	<stop  offset="1" style="stop-color:#FED1D6"/>
</linearGradient>
<path class="st4" d="M188.5,523.8c0,0-2.7,15.3-3.4,24.1c-0.5,6.8,1.9,18.8,1.9,18.8h-26.2c0,0-2.4-7.9-1.5-20.5
	c0.9-12.7,3-22.4,3-22.4L188.5,523.8L188.5,523.8z"/>
<path class="st5" d="M186.2,562.3c0,0,7.4,21,6,23s-7.1,1.2-11.1-1.6c-4.5-3.1-4.9-6.9-5.9-7.1c-1-0.2-7.2,11.2-8.7,11.3
	s-4.7-5.4-6.4-12.3c-1.6-6.8-0.6-15.6-0.6-15.6s8.3,3.4,14.8,3.7C180.7,564.2,186.2,562.3,186.2,562.3z"/>
<linearGradient id="SVGID_4_" gradientUnits="userSpaceOnUse" x1="-104.7793" y1="182.1301" x2="-104.7793" y2="225.0301" gradientTransform="matrix(-1 0 0 -1 118.2197 748.83)">
	<stop  offset="0" style="stop-color:#FED1D6"/>
	<stop  offset="1" style="stop-color:#FED1D6"/>
</linearGradient>
<path class="st6" d="M237.7,523.8c0,0-2.7,15.3-3.4,24.1c-0.5,6.8,1.9,18.8,1.9,18.8H210c0,0-2.4-7.9-1.5-20.5
	c0.9-12.7,3-22.4,3-22.4L237.7,523.8L237.7,523.8z"/>
<path class="st0" d="M390.7,267c0,0,3.7-13.9-10.8-19.9c-23-9.5-37.7,25.3-37.7,25.3l38.9,0.1L390.7,267z"/>
<linearGradient id="SVGID_5_" gradientUnits="userSpaceOnUse" x1="318.1972" y1="483.2802" x2="366.6511" y2="483.2802" gradientTransform="matrix(1 0 0 -1 0 748.83)">
	<stop  offset="0" style="stop-color:#FED1D6"/>
	<stop  offset="1" style="stop-color:#FED1D6"/>
</linearGradient>
<path class="st7" d="M366.3,262.8c0,0,3.5-14.5-11.6-18.2c-16-3.9-26.1,2.8-32.9,16.4c-5.6,11.3-3,26.6-3,26.6h21.7L366.3,262.8z"/>
<path class="st5" d="M235.4,562.3c0,0,7.4,21,6,23s-7.1,1.2-11.1-1.6c-4.5-3.1-4.9-6.9-5.9-7.1c-1-0.2-7.2,11.2-8.7,11.3
	s-4.7-5.4-6.4-12.3c-1.6-6.8-0.6-15.6-0.6-15.6s8.3,3.4,14.7,3.7C229.9,564.2,235.4,562.3,235.4,562.3z"/>
<ellipse class="st8" cx="378" cy="274.1" rx="15.1" ry="15.1"/>
<path d="M372.2,275.7c0,5.6,4.5,10.1,10.1,10.1s10.1-4.5,10.1-10.1s-4.5-10.1-10.1-10.1C376.9,265.6,372.2,270.1,372.2,275.7z"/>
<circle class="st9" cx="351.2" cy="273" r="18.2"/>
<circle cx="356.3" cy="275.7" r="11.9"/>
<path class="st10" d="M228.2,449c0,0-22.2,6.1-28.2,24.7c-5.2,16,1.9,36.3,20.1,34.2c12.1-1.4,10.5-13.7,18.1-23.1
	c6-7.4,17.8-9.4,17.8-9.4s-10.2-6.6-16.4-13.2C233.6,455.6,228.2,449,228.2,449z"/>
<path class="st11" d="M238.9,461.3c0,0-7.3,3.3-12.4,7.7c-4.5,3.9-8.4,10.8-5.6,11.8c2.4,0.8,4.4-6.6,8.1-10
	c4.5-4.1,12.5-6.8,12.5-6.8L238.9,461.3z"/>
<linearGradient id="SVGID_6_" gradientUnits="userSpaceOnUse" x1="-281.8803" y1="319.1171" x2="-281.8803" y2="465.215" gradientTransform="matrix(-1 0 0 -1 118.2197 748.83)">
	<stop  offset="6.590545e-03" style="stop-color:#C4767C"/>
	<stop  offset="1" style="stop-color:#C4767C"/>
</linearGradient>
<path class="st12" d="M384.8,287.3c-29.7,7.4-51.8,36.1-51.8,70.4c0,37.1,23.2,63,58.2,70.8c2.5,0.6,19.1,2.4,27.2,0
	c3.8-1.1,48.8-30.9,48.8-70.8s-49.7-73.8-49.7-73.8C411.4,282.6,389.7,286.1,384.8,287.3z"/>
<g>
	<ellipse class="st0" cx="420.5" cy="356.2" rx="67.1" ry="72.3"/>
	<ellipse class="st0" cx="420.5" cy="355.7" rx="66.7" ry="71.6"/>
	<ellipse class="st0" cx="420.5" cy="355.1" rx="66.4" ry="71"/>
	<ellipse class="st0" cx="420.5" cy="354.5" rx="66.1" ry="70.3"/>
	<ellipse class="st0" cx="420.5" cy="353.9" rx="65.8" ry="69.7"/>
	<ellipse class="st0" cx="420.5" cy="353.3" rx="65.5" ry="69"/>
	<ellipse class="st0" cx="420.5" cy="352.7" rx="65.2" ry="68.4"/>
	<ellipse class="st0" cx="420.5" cy="352.1" rx="64.9" ry="67.8"/>
	<ellipse class="st0" cx="420.5" cy="351.5" rx="64.5" ry="67.1"/>
	<ellipse class="st0" cx="420.5" cy="350.9" rx="64.2" ry="66.5"/>
	<ellipse class="st0" cx="420.5" cy="350.3" rx="63.9" ry="65.8"/>
	<ellipse class="st0" cx="420.5" cy="349.7" rx="63.6" ry="65.2"/>
	<ellipse class="st0" cx="420.5" cy="349.1" rx="63.3" ry="64.5"/>
	<ellipse class="st0" cx="420.5" cy="348.6" rx="63" ry="63.9"/>
	<ellipse class="st0" cx="420.5" cy="348" rx="62.6" ry="63.2"/>
	<ellipse class="st0" cx="420.5" cy="347.4" rx="62.3" ry="62.6"/>
	<ellipse class="st0" cx="420.5" cy="346.8" rx="62" ry="61.9"/>
	<ellipse class="st0" cx="420.5" cy="346.2" rx="61.7" ry="61.3"/>
	<ellipse class="st0" cx="420.5" cy="345.6" rx="61.4" ry="60.7"/>
	<ellipse class="st0" cx="420.5" cy="345" rx="61.1" ry="60"/>
	<ellipse class="st0" cx="420.5" cy="344.4" rx="60.8" ry="59.4"/>
	<ellipse class="st0" cx="420.5" cy="343.8" rx="60.4" ry="58.7"/>
	<ellipse class="st0" cx="420.5" cy="343.2" rx="60.1" ry="58.1"/>
	<ellipse class="st0" cx="420.5" cy="342.6" rx="59.8" ry="57.4"/>
	<ellipse class="st0" cx="420.5" cy="342" rx="59.5" ry="56.8"/>
	<ellipse class="st0" cx="420.5" cy="341.4" rx="59.2" ry="56.1"/>
	<ellipse class="st0" cx="420.5" cy="340.9" rx="58.9" ry="55.5"/>
	<ellipse class="st0" cx="420.5" cy="340.3" rx="58.5" ry="54.8"/>
	<ellipse class="st0" cx="420.5" cy="339.7" rx="58.2" ry="54.2"/>
	<ellipse class="st0" cx="420.5" cy="339.1" rx="57.9" ry="53.6"/>
	<ellipse class="st0" cx="420.5" cy="338.5" rx="57.6" ry="52.9"/>
	<ellipse class="st0" cx="420.5" cy="337.9" rx="57.3" ry="52.3"/>
	<ellipse class="st0" cx="420.5" cy="337.3" rx="57" ry="51.6"/>
	<ellipse class="st0" cx="420.5" cy="336.7" rx="56.6" ry="51"/>
	<ellipse class="st0" cx="420.5" cy="336.1" rx="56.3" ry="50.3"/>
	<ellipse class="st0" cx="420.5" cy="335.5" rx="56" ry="49.7"/>
	<ellipse class="st0" cx="420.5" cy="334.9" rx="55.7" ry="49"/>
	<ellipse class="st0" cx="420.5" cy="334.3" rx="55.4" ry="48.4"/>
	<ellipse class="st0" cx="420.5" cy="333.8" rx="55.1" ry="47.7"/>
	<ellipse class="st0" cx="420.5" cy="333.2" rx="54.8" ry="47.1"/>
	<ellipse class="st0" cx="420.5" cy="332.6" rx="54.4" ry="46.4"/>
	<ellipse class="st0" cx="420.5" cy="332" rx="54.1" ry="45.8"/>
	<ellipse class="st0" cx="420.5" cy="331.4" rx="53.8" ry="45.2"/>
	<ellipse class="st0" cx="420.5" cy="330.8" rx="53.5" ry="44.5"/>
	<ellipse class="st0" cx="420.5" cy="330.2" rx="53.2" ry="43.9"/>
	<ellipse class="st0" cx="420.5" cy="329.6" rx="52.9" ry="43.2"/>
	<ellipse class="st0" cx="420.5" cy="329" rx="52.5" ry="42.6"/>
	<ellipse class="st0" cx="420.5" cy="328.4" rx="52.2" ry="41.9"/>
	<ellipse class="st0" cx="420.5" cy="327.8" rx="51.9" ry="41.3"/>
	<ellipse class="st0" cx="420.5" cy="327.2" rx="51.6" ry="40.6"/>
	<ellipse class="st0" cx="420.5" cy="326.6" rx="51.3" ry="40"/>
	<ellipse class="st0" cx="420.5" cy="326.1" rx="51" ry="39.3"/>
	<ellipse class="st0" cx="420.5" cy="325.8" rx="50.4" ry="38.9"/>
	<ellipse class="st0" cx="420.5" cy="325.6" rx="49.9" ry="38.5"/>
	<ellipse class="st0" cx="420.5" cy="325.4" rx="49.4" ry="38.1"/>
	<ellipse class="st0" cx="420.5" cy="325.2" rx="48.8" ry="37.7"/>
	<ellipse class="st0" cx="420.5" cy="325" rx="48.3" ry="37.3"/>
	<ellipse class="st0" cx="420.5" cy="324.8" rx="47.8" ry="36.9"/>
	<ellipse class="st0" cx="420.5" cy="324.6" rx="47.3" ry="36.5"/>
	<ellipse class="st0" cx="420.5" cy="324.4" rx="46.7" ry="36.1"/>
	<ellipse class="st0" cx="420.5" cy="324.1" rx="46.2" ry="35.7"/>
	<ellipse class="st0" cx="420.5" cy="323.9" rx="45.7" ry="35.3"/>
	<ellipse class="st0" cx="420.5" cy="323.7" rx="45.1" ry="34.8"/>
	<ellipse class="st0" cx="420.5" cy="323.5" rx="44.6" ry="34.4"/>
	<ellipse class="st0" cx="420.5" cy="323.3" rx="44.1" ry="34"/>
	<ellipse class="st0" cx="420.5" cy="323.1" rx="43.5" ry="33.6"/>
	<ellipse class="st0" cx="420.5" cy="322.9" rx="43" ry="33.2"/>
	<ellipse class="st0" cx="420.5" cy="322.7" rx="42.5" ry="32.8"/>
	<ellipse class="st0" cx="420.5" cy="322.4" rx="42" ry="32.4"/>
	<ellipse class="st0" cx="420.5" cy="322.2" rx="41.4" ry="32"/>
	<ellipse class="st0" cx="420.5" cy="322" rx="40.9" ry="31.6"/>
	<ellipse class="st0" cx="420.5" cy="321.8" rx="40.4" ry="31.2"/>
	<ellipse class="st0" cx="420.5" cy="321.6" rx="39.8" ry="30.8"/>
	<ellipse class="st0" cx="420.5" cy="321.4" rx="39.3" ry="30.3"/>
	<ellipse class="st0" cx="420.5" cy="321.2" rx="38.8" ry="29.9"/>
	<ellipse class="st0" cx="420.5" cy="321" rx="38.2" ry="29.5"/>
	<ellipse class="st0" cx="420.5" cy="320.7" rx="37.7" ry="29.1"/>
	<ellipse class="st0" cx="420.5" cy="320.5" rx="37.2" ry="28.7"/>
	<ellipse class="st0" cx="420.5" cy="320.3" rx="36.7" ry="28.3"/>
	<ellipse class="st0" cx="420.5" cy="320.1" rx="36.1" ry="27.9"/>
	<ellipse class="st0" cx="420.5" cy="319.9" rx="35.6" ry="27.5"/>
	<ellipse class="st0" cx="420.5" cy="319.7" rx="35.1" ry="27.1"/>
	<ellipse class="st0" cx="420.5" cy="319.5" rx="34.5" ry="26.7"/>
	<ellipse class="st0" cx="420.5" cy="319.3" rx="34" ry="26.3"/>
	<ellipse class="st0" cx="420.5" cy="319.1" rx="33.5" ry="25.8"/>
	<ellipse class="st0" cx="420.5" cy="318.8" rx="33" ry="25.4"/>
	<ellipse class="st0" cx="420.5" cy="318.6" rx="32.4" ry="25"/>
	<ellipse class="st0" cx="420.5" cy="318.4" rx="31.9" ry="24.6"/>
	<ellipse class="st0" cx="420.5" cy="318.2" rx="31.4" ry="24.2"/>
	<ellipse class="st0" cx="420.5" cy="318" rx="30.8" ry="23.8"/>
	<ellipse class="st0" cx="420.5" cy="317.8" rx="30.3" ry="23.4"/>
	<ellipse class="st0" cx="420.5" cy="317.6" rx="29.8" ry="23"/>
	<ellipse class="st0" cx="420.5" cy="317.4" rx="29.2" ry="22.6"/>
	<ellipse class="st0" cx="420.5" cy="317.1" rx="28.7" ry="22.2"/>
	<ellipse class="st0" cx="420.5" cy="316.9" rx="28.2" ry="21.8"/>
	<ellipse class="st0" cx="420.5" cy="316.7" rx="27.7" ry="21.3"/>
	<ellipse class="st0" cx="420.5" cy="316.5" rx="27.1" ry="20.9"/>
	<ellipse class="st0" cx="420.5" cy="316.3" rx="26.6" ry="20.5"/>
	<ellipse class="st0" cx="420.5" cy="316.1" rx="26.1" ry="20.1"/>
	<ellipse class="st0" cx="420.5" cy="315.9" rx="25.5" ry="19.7"/>
	<ellipse class="st0" cx="420.5" cy="315.7" rx="25" ry="19.3"/>
	<ellipse class="st0" cx="420.5" cy="315.4" rx="24.5" ry="18.9"/>
	<ellipse class="st0" cx="420.5" cy="315.2" rx="23.9" ry="18.5"/>
</g>
<path class="st0" d="M321.6,494.5c32.6,0,61.1-9.5,69.7-12.7c0,0,1.6-2.2,2.1-2.9c0.5-0.7,1.8-2.6,1.8-2.6s-1.7,0.7-2.6,1.1
	s-93.7,38.3-149.7-14.8c-23.9-22.7-32.6-47.7-25.7-74.5c5.1-20,17.4-33.5,17.5-33.7c0.7-0.7,0.6-1.9-0.1-2.6
	c-0.8-0.7-1.9-0.6-2.6,0.1c-0.5,0.6-51.2,56.9,8.4,113.4C264.1,487.8,294.3,494.5,321.6,494.5L321.6,494.5z"/>
<path class="st0" d="M264.4,234.2c0,0,3.3-3.2,3.9-13.7c0.7-11.1-7.2-18.7-7.2-18.7s5.8,9.5,5.1,18c-0.5,6.2-4.5,13.2-4.5,13.2
	L264.4,234.2z"/>
<path class="st0" d="M246.3,230.9c0,0,2.6-7.2,1.4-12.9c-2-9.1-11.3-13.7-11.3-13.7s7.3,5.4,9.1,12.4c1.2,4.8-1.7,13.5-1.7,13.5
	L246.3,230.9z"/>
<path class="st0" d="M226.7,228.1c0,0-0.2-6.9-5.1-12.3c-4.9-5.4-12.7-5.8-12.7-5.8s7.8,2.2,11.5,6.9c2.2,2.9,3.5,11.1,3.5,11.1h2.8
	V228.1z"/>
<path class="st0" d="M206.5,230.2c0,0-4.5-5.9-10-8.6c-6.4-3.1-15.6-2.6-15.6-2.6s8.8,0.3,14.2,3.6c5.1,3.1,9.5,8,9.5,8L206.5,230.2
	z"/>
<linearGradient id="SVGID_7_" gradientUnits="userSpaceOnUse" x1="-288.2339" y1="392.13" x2="-248.8339" y2="392.13" gradientTransform="matrix(-1 0 0 -1 118.2197 748.83)">
	<stop  offset="6.590545e-03" style="stop-color:#C4767C"/>
	<stop  offset="1" style="stop-color:#C4767C"/>
</linearGradient>
<ellipse class="st13" cx="386.8" cy="356.7" rx="19.7" ry="24.9"/>
<linearGradient id="SVGID_8_" gradientUnits="userSpaceOnUse" x1="-354.9803" y1="392.13" x2="-315.5803" y2="392.13" gradientTransform="matrix(-1 0 0 -1 118.2197 748.83)">
	<stop  offset="6.590545e-03" style="stop-color:#C4767C"/>
	<stop  offset="1" style="stop-color:#C4767C"/>
</linearGradient>
<ellipse class="st14" cx="453.5" cy="356.7" rx="19.7" ry="24.9"/>
</svg>
