<?xml version="1.0" encoding="utf-8"?>
<!-- Generator: Adobe Illustrator 21.0.0, SVG Export Plug-In . SVG Version: 6.00 Build 0)  -->
<svg version="1.1" id="Layer_1" xmlns="http://www.w3.org/2000/svg" xmlns:xlink="http://www.w3.org/1999/xlink" x="0px" y="0px"
	 viewBox="0 0 525 750" style="enable-background:new 0 0 525 750;" xml:space="preserve">
<style type="text/css">
	.st0{fill:#442E01;}
	.st1{fill:#261800;}
	.st2{fill:#A3B8C6;}
	.st3{fill:#DFEBF7;}
	.st4{fill:#8CA3AF;}
	.st5{fill:#F1F6FA;}
	.st6{fill:#FFF3BF;}
	.st7{fill:#FFDD84;}
	.st8{fill:#F2CC79;}
	.st9{fill:#FEE69E;}
	.st10{fill:#2B9FE0;}
</style>
<g>
	<rect x="362.7" y="683.3" class="st0" width="30.1" height="25.8"/>
	<path class="st1" d="M374.7,683.3l-12,0l0,25.8l15.7,0C372.1,700.5,373.1,689.9,374.7,683.3z"/>
	<rect x="164.4" y="683.3" class="st0" width="30.1" height="25.8"/>
	<path class="st1" d="M176.4,683.3l-12,0l0,25.8l15.7,0C173.8,700.5,174.8,689.9,176.4,683.3z"/>
	<polygon class="st2" points="125.9,260.9 126.7,306.8 393.2,300.9 392.5,251.1 	"/>
	<path class="st3" d="M408.4,256c0.2,11.2-8,20.3-18.2,20.5l-262.7,3.4c-10.2,0.1-18.6-8.8-18.8-20l-2.5-193.6
		c-0.1-11.2,8-20.3,18.2-20.5l262.7-3.4c10.2-0.1,18.6,8.8,18.8,20L408.4,256z"/>
	<path class="st3" d="M418,654.1c0.3,19.2-7.9,34.9-18.3,35.1l-266.2,3.5c-10.4,0.1-19-15.3-19.2-34.6l-4.4-333.3
		c-0.3-19.2,8-34.9,18.3-35.1l266.2-3.5c10.4-0.1,19,15.3,19.2,34.6L418,654.1z"/>
	<path class="st2" d="M150.5,434.3c0.3,7.7-4.3,14.2-10.3,14.4l0,0c-6,0.2-11-5.8-11.3-13.6l-4.3-111c-0.3-7.7,4.3-14.2,10.3-14.4
		l0,0c6-0.2,11,5.8,11.3,13.6L150.5,434.3z"/>
	<path class="st4" d="M140.3,448.7c2.9-0.1,5.5-1.7,7.4-4.3c-18-25.3-15.4-106.6-14-134.5c-5.4,1-9.3,7-9.1,14.2l4.3,111
		C129.2,442.9,134.3,448.9,140.3,448.7z"/>
	<path class="st3" d="M142.3,322.4c0.2,3.2-0.3,5.9-1,5.9c-0.7,0-1.4-2.6-1.6-5.8c-0.2-3.2,0.3-5.9,1-6
		C141.4,316.5,142.1,319.1,142.3,322.4z"/>
	<path class="st2" d="M147.5,253.1c0.3,6.1-3.7,11.1-8.9,11.3l0,0c-5.2,0.2-9.7-4.7-10-10.7l-4.3-87.5c-0.3-6.1,3.7-11.1,8.9-11.3
		l0,0c5.2-0.2,9.7,4.7,10,10.7L147.5,253.1z"/>
	<path class="st4" d="M138.6,264.4c2.6-0.1,4.8-1.3,6.4-3.3c-15.9-20-14-84-12.9-106c-4.7,0.8-8.1,5.5-7.9,11.1l4.3,87.5
		C128.9,259.8,133.3,264.6,138.6,264.4z"/>
	<path class="st3" d="M139.7,164.9c0.2,2.6-0.2,4.7-0.9,4.7c-0.6,0-1.3-2-1.4-4.6c-0.2-2.6,0.2-4.7,0.9-4.7
		C139,160.3,139.6,162.3,139.7,164.9z"/>
	<path class="st5" d="M398,462.1c0.1,7-5.4,12.8-12.4,12.9l0,0c-7,0.1-12.8-5.4-12.9-12.4l-2.8-151.9c-0.1-7,5.4-12.8,12.4-12.9l0,0
		c7-0.1,12.8,5.4,12.9,12.4L398,462.1z"/>
	<path class="st5" d="M389.4,180.8c0.1,5.1-3.9,9.2-9,9.3l0,0c-5.1,0.1-9.2-3.9-9.3-9l-2-110.1c-0.1-5.1,3.9-9.2,9-9.3l0,0
		c5.1-0.1,9.3,3.9,9.3,9L389.4,180.8z"/>
	<path class="st6" d="M285.1,92.1c0,0-65.7,22.8-92.7,17.5c0,0-3.6,35.6,18.1,68.8c21.7,33.2,49.2,60.8,49.2,60.8s45.8-16.7,58.3-26
		l12.3-31c0,0-22.5-10.3-34.4-44.5C284,103.6,285.1,92.1,285.1,92.1z"/>
	<polygon class="st7" points="330.2,182.3 317.9,213.3 307.7,192.2 	"/>
	<path class="st8" d="M327.2,189.8l3-7.5l-15.8,7C317.1,190.7,321.1,191.4,327.2,189.8z"/>
	<path class="st9" d="M257.8,217.9c-12.5,0.2-35.2-40-47.6-60.1c-7.7-12.5-10-33.4-10.6-47.4c-2.6-0.1-5.1-0.3-7.2-0.7
		c0,0-3.6,35.6,18.1,68.8c21.7,33.2,49.2,60.8,49.2,60.8s31.6-11.5,49.5-20.8C293.5,216.4,266.6,217.8,257.8,217.9z"/>
	<g>
		<g>
			<polygon class="st8" points="226.9,163.1 277.7,144.7 278.6,147.2 227.8,165.6 226.9,163.1 			"/>
		</g>
	</g>
	<g>
		<g>
			<polygon class="st8" points="236.2,178.9 287,160.4 287.9,162.9 237.1,181.3 236.2,178.9 			"/>
		</g>
	</g>
	<g>
		<g>
			<polygon class="st8" points="244.4,196.2 295.2,177.8 296.1,180.2 245.3,198.7 244.4,196.2 			"/>
		</g>
	</g>
	<g>
		<g>
			<polygon class="st8" points="254.5,215.9 305.3,197.5 306.2,199.9 255.3,218.4 254.5,215.9 			"/>
		</g>
	</g>
	<g>
		<g>
			<path class="st8" d="M209.4,135.9c0.9-0.5,2.3-0.9,3.6-1.3c2.1-0.6,3.5-0.5,4.6,0.1c0.9,0.5,1.6,1.4,1.9,2.5
				c0.5,2-0.4,3.6-1.8,4.6l0,0.1c1.3,0.1,2.2,1,3,2.4c1,1.9,1.8,3.3,2.2,3.8l-2,0.5c-0.4-0.4-1-1.6-2-3.3c-1-1.9-2-2.5-3.8-2.1
				l-1.8,0.5l1.7,6.5l-1.9,0.5L209.4,135.9z M213.2,142.2l2-0.5c2.1-0.6,3.1-2,2.6-3.7c-0.5-1.9-2.1-2.4-4.2-1.9
				c-0.9,0.3-1.6,0.5-1.9,0.7L213.2,142.2z"/>
			<path class="st8" d="M225,142.2c0.8,2.6,2.7,3.3,4.7,2.7c1.4-0.4,2.2-0.8,2.8-1.3l0.7,1.3c-0.6,0.5-1.7,1.2-3.4,1.6
				c-3.3,0.9-5.9-0.8-6.7-4c-0.9-3.2,0.4-6.3,3.5-7.1c3.5-0.9,5.2,1.9,5.8,3.9c0.1,0.4,0.1,0.7,0.2,0.9L225,142.2z M230.4,139.2
				c-0.3-1.2-1.4-3-3.5-2.4c-2,0.5-2.3,2.6-2.1,4L230.4,139.2z"/>
			<path class="st8" d="M243.9,142c-0.4,0.4-1.5,1.1-2.9,1.5c-3.2,0.9-5.9-0.8-6.8-4.1c-0.9-3.3,0.7-6.3,4.2-7.2
				c1.1-0.3,2.2-0.3,2.8-0.2l0,1.6c-0.5-0.1-1.3-0.2-2.4,0.1c-2.5,0.7-3.3,2.8-2.7,5.1c0.7,2.5,2.7,3.6,4.8,3
				c1.1-0.3,1.8-0.8,2.2-1.2L243.9,142z"/>
			<path class="st8" d="M244.8,127.5c0.2,0.7-0.1,1.3-0.9,1.5c-0.7,0.2-1.3-0.2-1.5-0.9c-0.2-0.7,0.2-1.4,0.9-1.5
				C244,126.4,244.6,126.8,244.8,127.5z M246.3,141.8l-2.9-10.7l1.9-0.5l2.9,10.7L246.3,141.8z"/>
			<path class="st8" d="M249.5,133.2c-0.4-1.4-0.7-2.5-1-3.5l1.8-0.5l0.6,1.8l0,0c0.4-1.5,1.5-2.6,3.2-3.1c2.6-0.7,5.1,1,6,4.2
				c1,3.8-0.8,6.4-3.3,7.1c-1.4,0.4-2.8,0.1-3.7-0.8l0,0l1.6,5.8l-1.9,0.5L249.5,133.2z M252.2,135.5c0.1,0.3,0.2,0.5,0.3,0.8
				c0.7,1.3,2.1,1.9,3.5,1.5c2.1-0.6,2.8-2.6,2.1-5c-0.6-2.1-2.2-3.7-4.3-3.1c-1.3,0.4-2.3,1.6-2.3,3.2c0,0.3,0,0.6,0.1,0.8
				L252.2,135.5z"/>
			<path class="st8" d="M263.8,131.7c0.8,2.6,2.7,3.3,4.7,2.7c1.4-0.4,2.2-0.8,2.8-1.3l0.7,1.3c-0.6,0.5-1.7,1.2-3.4,1.6
				c-3.3,0.9-5.8-0.8-6.7-4c-0.9-3.2,0.4-6.3,3.5-7.1c3.5-0.9,5.2,1.9,5.8,3.9c0.1,0.4,0.1,0.7,0.2,0.9L263.8,131.7z M269.1,128.8
				c-0.3-1.2-1.4-3-3.5-2.4c-2,0.5-2.3,2.6-2.1,4L269.1,128.8z"/>
		</g>
	</g>
	
		<ellipse transform="matrix(3.686961e-02 -0.9993 0.9993 3.686961e-02 123.68 343.0077)" class="st10" cx="239.8" cy="107.3" rx="12.9" ry="12.9"/>
</g>
</svg>
