<?xml version="1.0" encoding="utf-8"?>
<!-- Generator: Adobe Illustrator 21.0.0, SVG Export Plug-In . SVG Version: 6.00 Build 0)  -->
<svg version="1.1" id="Layer_1" xmlns="http://www.w3.org/2000/svg" xmlns:xlink="http://www.w3.org/1999/xlink" x="0px" y="0px"
	 viewBox="0 0 525 750" style="enable-background:new 0 0 525 750;" xml:space="preserve">
<style type="text/css">
	.st0{fill:#AAA29D;}
	.st1{fill:#1D1D1E;}
	.st2{fill:#EADDD3;}
	.st3{fill:#39B54A;}
	.st4{fill:#006837;}
	.st5{fill:#009245;}
	.st6{fill:#8CC63F;}
	.st7{fill:#B3B3B3;}
	.st8{fill:url(#SVGID_1_);}
	.st9{fill:#C3BAB3;}
	.st10{fill:#ECF8FE;}
	.st11{fill:#404041;}
	.st12{fill:url(#SVGID_2_);}
	.st13{fill:url(#SVGID_3_);}
	.st14{fill:url(#SVGID_4_);}
	.st15{fill:url(#SVGID_5_);}
	.st16{fill:url(#SVGID_6_);}
	.st17{fill:url(#SVGID_7_);}
	.st18{fill:url(#SVGID_8_);}
</style>
<path class="st0" d="M340.3,471.7c0,0,1.5,11.4,1.7,23c0.2,10.3-2.4,17.7-2.4,17.7l13.8,5.3c0,0,4.6-10,5.1-23
	c0.5-13.2-1.2-23-1.2-23H340.3z"/>
<path class="st0" d="M215.6,466c0,0,3,10.8,3.2,22.4c0.2,10.3-3.2,25.1-3.2,25.1l14.2,1.1c0,0,4.6-11.1,4-24.3
	c-0.6-13.2-1.7-24.3-1.7-24.3H215.6z"/>
<path class="st1" d="M215.6,513.5l-5.3,8.8c0,0-4.6,10.5-1,13.8s5.6-11.6,8.5-11.3c2.8,0.3-0.3,11.7,4.5,12.3
	c4.8,0.5,10-9.5,10-13.6c0-3.9-2.5-8.9-2.5-8.9L215.6,513.5z"/>
<path class="st1" d="M333.4,537.9c3.9,1,5.5-13.4,8.3-13.6c2.8-0.2,3.7,14.9,7.4,14.9c4.7,0,6.8-10,6.9-14.9
	c0.1-3.1-2.5-6.5-2.5-6.5l-13.8-5.3c0,0-3.1,3.9-3.9,5.3C333.3,522.2,328.5,536.6,333.4,537.9z"/>
<path class="st2" d="M368.3,484.1c0,0,1.6,12.3,1.8,24.8c0.2,11.1-2.6,19.1-2.6,19.1l14.9,5.7c0,0,4.9-10.8,5.5-24.8
	c0.6-14.2-1.3-24.8-1.3-24.8L368.3,484.1L368.3,484.1z"/>
<path class="st2" d="M239.6,480.2c0,0,3.2,11.6,3.4,24.1c0.2,11.1-3.4,27.1-3.4,27.1l15.3,1.2c0,0,5-12,4.3-26.2
	c-0.6-14.2-1.9-26.2-1.9-26.2H239.6z"/>
<path class="st3" d="M86.8,403.2c0,0-14.5-3.3-31.6-2.8c-10.5,0.3-19.7,4.7-24.3,10.9c-3.5,4.7-4.9,12.6-4.9,12.6
	s8.8-16.5,20.7-18.6c15.3-2.7,38.6,0.9,38.6,0.9L86.8,403.2z"/>
<path class="st4" d="M82.5,405.8c0,0-14.7,7.4-25.5,20.7c-6.6,8.1-8.5,19.5-6.8,27c1.3,5.7,6.4,11.9,6.4,11.9s-6.8-17.5-0.6-27.8
	c7.9-13.3,29-25.2,29-25.2L82.5,405.8z"/>
<path class="st5" d="M85,412.4c0,0-8.1-6.3-21.9-2.7c-13.1,3.4-21.5,13.8-21.5,13.8s0.5-12,18.9-17.7c12.3-3.8,26.5-0.5,26.5-0.5
	L85,412.4z"/>
<path class="st6" d="M84.9,408.1c0,0-17.8,0-23.4,2.5c-14.5,6.6-23,34.4-21,36c0,0,7.1-19,18.8-26.8c9.6-6.4,25.5-6.7,25.5-6.7
	L84.9,408.1L84.9,408.1z"/>
<path class="st3" d="M87.7,418.2c0,0-9.1,3-17.6,14.4c-8.1,10.9-7.3,21.3-9.4,21.3c-3.1,0-2-17.1,3.8-25.6
	c7.2-10.7,20.4-16.9,20.4-16.9L87.7,418.2z"/>
<path class="st7" d="M449.7,300.8c0,0,11.2-4.8,18-13.8c7.4-9.8,2.3-19.9,7.7-22.9c5.4-3,16.7-0.1,17.7,13.8
	c1,13.4-5.6,21.1-22.4,26.3c-12.7,3.9-20.9,2.6-20.9,2.6v-6H449.7z"/>
<linearGradient id="SVGID_1_" gradientUnits="userSpaceOnUse" x1="315.5" y1="245.3924" x2="315.5" y2="511.63" gradientTransform="matrix(1 0 0 -1 0 748.83)">
	<stop  offset="0" style="stop-color:#E6DDE0"/>
	<stop  offset="1" style="stop-color:#FFFFFF"/>
</linearGradient>
<path class="st8" d="M172.3,282.5c0,0-2.2-22.4,10.1-28c12.3-5.6,18.3,6.3,18.3,6.3s6.7-13.4,18.7-14.2c11.9-0.7,17.9,9.3,17.9,9.3
	s6-18.7,23.5-18.7c12.9,0,23.2,10.5,23.2,10.5s9.4-12.1,22.6-8.2c10.1,3,10.6,19.4,10.6,19.4s6.3-3.4,13.4-1.9
	c7.1,1.5,12.1,7.8,12.1,7.8s2.5-11.6,14.4-10.3s19.1,12.5,19.1,12.5s2.2-8.7,14.8-7.4c14.9,1.5,16.1,11.6,16.1,11.6s13.4-8.5,25-2.2
	c16.2,8.9,11.2,21.6,11.2,21.6s10.3,6.7,11.9,15.7s-4.8,16.4-4.8,16.4s10.1-0.9,12.3,10.3c2.2,11.2-8.6,21.5-8.6,21.5
	s14.2,3.5,14.2,29.7c0,26.1-16.8,28.6-16.8,28.6s9.3,18.3,1.5,34s-23.5,16.4-23.5,16.4s2.6,15.3-7.8,22.8c-10.5,7.5-27.6,0-27.6,0
	s0.4,6.7-10.5,9.7c-10.8,3-19.8-4.1-19.8-4.1s-12.7,13.8-32.5,11.6c-19.8-2.2-28.7-16.4-28.7-16.4s-15.7,14.2-31.7,13.1
	c-16.1-1.1-23.1-17.2-23.1-17.2s-10.8,10.5-23.5,6.7c-12.7-3.7-13.1-13.4-13.1-13.4s-24.6,7.8-36.6-0.4
	c-11.9-8.2-11.9-31.4-11.9-31.4L172.3,282.5z"/>
<path class="st2" d="M210.7,309.9c0,0,9.9-12.4,25-12.4c13.8,0,25.1,12.1,25.1,17.2s-2.9,14.2-11.5,12.8c-8.6-1.4-10-12.4-17.6-14.9
	c-7.5-2.5-19.4,2-19.4,2L210.7,309.9z"/>
<path class="st9" d="M249.4,321.4c2-2.5,2.7-8.5-7.9-12.8c-9.7-3.9-25.5,0.9-30.4,2.6l1.2,3.4c0,0,11.8-4.6,19.4-2
	c5.3,1.8,7.5,7.6,11.3,11.5C245.5,323.6,248.4,322.7,249.4,321.4z"/>
<path class="st2" d="M126.3,292.1c0,0-3.7-15-15-20.5s-25.4-0.7-27.5,3.4s-3.6,12.7,3.9,15.1s13.3-5.8,20.4-4.7
	c7.2,1.1,14.8,9.8,14.8,9.8L126.3,292.1z"/>
<path class="st9" d="M87.6,285.2c-0.5-2.9,1.4-8,11.7-7.1c9.5,0.9,20.2,11.4,23.4,14.8l-2.4,2.2c0,0-7.7-8.6-14.8-9.8
	c-5-0.8-9.3,3-14,4.5C89.8,288.5,87.9,286.7,87.6,285.2z"/>
<path class="st2" d="M111.1,306.6c0,0-8.3-2.1-16.4,10c-7.3,11-29.6,76.5-4,111.7c26,35.8,84.5,35.1,113.4,6.2
	c32.5-32.5,30.2-96.3,26.6-104.1c-3.6-7.8-9.2-7.6-9.2-7.6s-4.5-24.6-12.1-35.6c-13.7-19.8-51.8-24.5-72.6-10.5
	C119.4,288.4,111.1,306.6,111.1,306.6z"/>
<path class="st9" d="M173,267.2c-1-0.2-2.6,1-2.6,1s-2.7,1.5-6,5.2c-2.9,3.3-5.4,12.3-5.4,12.3s4.2-7.3,8.8-11.8
	c4.2-4.1,6.9-5.1,6.9-5.1S174.3,267.4,173,267.2z"/>
<path class="st9" d="M176.8,267.9c-1.1-0.2-2.1,0.9-2.1,0.9s-1.7,6.6-1.3,11.6c0.4,4.9,3.1,13.1,3.1,13.1s-0.5-9.5,0.1-15.3
	c0.6-5.7,2.6-8.5,2.6-8.5S178,268.1,176.8,267.9z"/>
<path class="st9" d="M182.6,269.4c-1.6-0.6-3.5,0.3-3.5,0.3s4.6,5.7,5.8,11.5c0.9,4.5,0.7,10.9,0.7,10.9s2.5-6.8,1.7-12.9
	c-0.6-4.4-3-8.3-3-8.3S183.1,269.6,182.6,269.4z"/>
<circle class="st10" cx="186.7" cy="314.1" r="15.3"/>
<path class="st2" d="M174.1,333.1c0,0,14.7-13.4,25.1-14.2c10.5-0.7,12.9,10.5,12.9,10.5L174.1,333.1z"/>
<ellipse transform="matrix(0.2988 -0.9543 0.9543 0.2988 -188.1164 361.6403)" class="st10" cx="152" cy="308.8" rx="15.3" ry="15.3"/>
<path class="st11" d="M239.6,531.3l-5.7,9.5c0,0-5,11.3-1.1,14.9c3.9,3.5,6.1-12.5,9.1-12.2s-0.4,12.6,4.8,13.2
	c5.2,0.6,10.8-10.2,10.8-14.6c0-4.2-2.7-9.6-2.7-9.6L239.6,531.3z"/>
<path class="st11" d="M360.8,555.4c4.2,1.1,6-14.4,8.9-14.7c3-0.3,4,16.1,8,16.1c5,0,7.4-10.8,7.4-16c0.1-3.4-2.7-7-2.7-7l-14.9-5.7
	c0,0-3.4,4.2-4.2,5.7C360.7,538.5,355.5,554,360.8,555.4z"/>
<linearGradient id="SVGID_2_" gradientUnits="userSpaceOnUse" x1="352.6462" y1="436.7959" x2="352.6462" y2="461.5971" gradientTransform="matrix(1 0 0 -1 0 748.83)">
	<stop  offset="0" style="stop-color:#F8F5F6"/>
	<stop  offset="1" style="stop-color:#FDEFF5"/>
</linearGradient>
<path class="st12" d="M305.3,312c0,0-1.8-19.8,16-23.2c17.8-3.5,24.7,11,24.7,11s8.3-13.4,18.9-12.6c12.8,1,14.6,13.1,14.6,13.1
	s6.3-7.4,13.9-5.6s6.6,17.2,6.6,17.2h-94.7V312z"/>
<linearGradient id="SVGID_3_" gradientUnits="userSpaceOnUse" x1="378.5779" y1="390.13" x2="378.5779" y2="428.0887" gradientTransform="matrix(1 0 0 -1 0 748.83)">
	<stop  offset="0" style="stop-color:#F4F0F1"/>
	<stop  offset="1" style="stop-color:#FFFFFF"/>
</linearGradient>
<path class="st13" d="M335.7,358.7c0,0-8.3-21.1,8-28c15.9-6.7,21,12.3,21,12.3s1.7-19,16.7-22s17.6,15.3,17.6,15.3
	s12.5-8.7,21.1-0.4c8.6,8.3-1.5,22.7-1.5,22.7h-82.9V358.7z"/>
<linearGradient id="SVGID_4_" gradientUnits="userSpaceOnUse" x1="305.3662" y1="347.13" x2="305.3662" y2="395.4814" gradientTransform="matrix(1 0 0 -1 0 748.83)">
	<stop  offset="0" style="stop-color:#F0EAEC"/>
	<stop  offset="1" style="stop-color:#FFFFFF"/>
</linearGradient>
<path class="st14" d="M258.2,401.7c0,0-18.5-17.6-6.2-31.2c11.9-13.1,29.7,4.6,29.7,4.6s3.5-20.9,19.7-21.8s16.3,16.2,16.3,16.2
	s25.2-22.4,41.1-1.5c13.3,17.5-9.6,33.6-9.6,33.6L258.2,401.7L258.2,401.7z"/>
<linearGradient id="SVGID_5_" gradientUnits="userSpaceOnUse" x1="309.3806" y1="465.63" x2="309.3806" y2="496.0681" gradientTransform="matrix(-1 0 0 -1 567.5 748.83)">
	<stop  offset="0" style="stop-color:#FBF9FA"/>
	<stop  offset="1" style="stop-color:#FEF3F7"/>
</linearGradient>
<path class="st15" d="M292.5,283.2c0,0,5.6-24.6-12.9-29.7c-18.5-5.1-22.7,17.9-22.7,17.9s-10.7-11.5-23.1-6
	c-12.3,5.5-10.8,17.8-10.8,17.8H292.5z"/>
<linearGradient id="SVGID_6_" gradientUnits="userSpaceOnUse" x1="287.2859" y1="298.23" x2="287.2859" y2="328.6681" gradientTransform="matrix(1 0 0 -1 91.25 748.83)">
	<stop  offset="0" style="stop-color:#EBE4E6"/>
	<stop  offset="1" style="stop-color:#FFFFFF"/>
</linearGradient>
<path class="st16" d="M344.2,450.6c0,0-5.6-24.6,12.9-29.7s22.7,17.9,22.7,17.9s10.7-11.5,23.1-6c12.3,5.5,10.7,17.8,10.7,17.8
	L344.2,450.6L344.2,450.6z"/>
<linearGradient id="SVGID_7_" gradientUnits="userSpaceOnUse" x1="269.9992" y1="-548.5138" x2="269.9992" y2="-507.8723" gradientTransform="matrix(0.999 3.500000e-03 3.500000e-03 0.9872 0.6109 966.3553)">
	<stop  offset="0" style="stop-color:#FFFFFF"/>
	<stop  offset="1" style="stop-color:#EAE2E4"/>
</linearGradient>
<path class="st17" d="M320.5,466c0,0,3.9-17.6-9.2-20.7s-22.3,6.3-22.3,6.3s-0.6-22.6-19.3-25.5S244,442.2,244,442.2
	s-14.4-8.5-24.5,0.2s4.9,23.3,4.9,23.3L320.5,466z"/>
<linearGradient id="SVGID_8_" gradientUnits="userSpaceOnUse" x1="415.0006" y1="-678.3952" x2="415.0006" y2="-648.3809" gradientTransform="matrix(1 0 0 0.7917 0 916.3611)">
	<stop  offset="0" style="stop-color:#FFFFFF"/>
	<stop  offset="1" style="stop-color:#EFEAEC"/>
</linearGradient>
<path class="st18" d="M460,403c0,0,0.5-18-13.1-21.3c-17.4-4.2-25.8,9.8-25.8,9.8s-11.2-14.9-31.4-11.8C369.5,382.8,370,403,370,403
	H460z"/>
<circle cx="145.9" cy="305.7" r="8.2"/>
<circle cx="180" cy="312.9" r="8.2"/>
<g>
	
		<ellipse transform="matrix(0.1478 -0.989 0.989 0.1478 -262.3903 480.1845)" class="st2" cx="147.4" cy="392.4" rx="62.3" ry="67.6"/>
	
		<ellipse transform="matrix(0.1478 -0.989 0.989 0.1478 -250.7078 473.3976)" class="st2" cx="149.3" cy="382.2" rx="40.9" ry="44.3"/>
	
		<ellipse transform="matrix(0.1479 -0.989 0.989 0.1479 -239.1558 466.6692)" class="st2" cx="151.2" cy="372.1" rx="19.4" ry="21"/>
</g>
<ellipse transform="matrix(0.2356 -0.9718 0.9718 0.2356 -320.3222 439.9566)" class="st0" cx="119.5" cy="423.6" rx="13.8" ry="12.1"/>
<ellipse transform="matrix(0.2355 -0.9719 0.9719 0.2355 -298.3583 485.9891)" class="st0" cx="159.7" cy="432.6" rx="13.8" ry="12.1"/>
<path class="st2" d="M158.4,330.7c0,0-10-17.2-19.7-21c-9.8-3.8-15.4,6.1-15.4,6.1L158.4,330.7z"/>
</svg>
