<?xml version="1.0" encoding="utf-8"?>
<!-- Generator: Adobe Illustrator 21.0.0, SVG Export Plug-In . SVG Version: 6.00 Build 0)  -->
<svg version="1.1" id="Layer_1" xmlns="http://www.w3.org/2000/svg" xmlns:xlink="http://www.w3.org/1999/xlink" x="0px" y="0px"
	 viewBox="0 0 525 750" style="enable-background:new 0 0 525 750;" xml:space="preserve">
<style type="text/css">
	.st0{fill:#F9DB28;}
	.st1{fill:#FFFFFF;}
	.st2{fill:#0072DF;}
</style>
<g>
	<path class="st0" d="M461.8,475.5c0,0-31.9-132-43.3-159.7c-11.4-27.7-38.2-56.9-38.2-56.9l-5.6-20.4c-21.1,11.5-90,10.4-112.4,9.7
		l0-0.1c0,0-1.3,0-3.6,0c-2.3-0.1-3.6-0.1-3.6-0.1l0,0.1c-22.5-0.2-91.3-2-111.9-14.3l-6.4,20.2c0,0-28,28.1-40.5,55.3
		C83.7,336.4,46.4,467,46.4,467s86.5,31.6,149.7,38.9c9.6,1.1,26.2,2.9,26.2,2.9s78.7,0.1,88.4-0.6
		C374,503.6,461.8,475.5,461.8,475.5z"/>
	<path class="st1" d="M453.6,442.3c-0.4-1.5-0.8-3.1-1.2-4.6c-21.9,4.7-83.4,15.5-166.7,9.2c-83.9-6.4-184.3-31.1-221.5-40.8
		c-0.5,1.5-0.9,3.1-1.4,4.6c37.1,9.7,138,34.5,222.5,41C369.2,458,431.3,447.2,453.6,442.3z"/>
	<path class="st2" d="M435.9,373.6c-0.4-1.6-0.8-3.1-1.3-4.6c-37.9,4.9-150.3,17.9-217.2,10.3c-54.7-6.3-107-21.2-135.4-30.2
		c-0.5,1.5-1,3-1.5,4.5c28.6,9.1,81.3,24.1,136.3,30.4C284.7,391.7,398.5,378.4,435.9,373.6z"/>
	<path class="st1" d="M443,400.4c-0.4-1.5-0.8-3.1-1.2-4.6c-21.4,5.2-75.6,15.4-150.2,7.6c-78.8-8.3-178.6-29.8-214.8-37.9
		c-0.5,1.5-1,3-1.4,4.6c35.9,8.1,136.4,29.7,215.7,38C366.3,416,421.1,405.8,443,400.4z"/>
	<path class="st2" d="M448.8,423.2c-0.4-1.5-0.8-3.1-1.2-4.7c-29.1,3.9-112.8,13.2-201.4,6.6c-81.8-6.1-148.5-25.4-177.1-34.8
		c-0.5,1.5-0.9,3-1.4,4.6c29.2,9.6,96.2,29,178.2,35C335.7,436.6,420.3,427,448.8,423.2z"/>
	<path class="st1" d="M389.1,269.3c-1.3-1.6-2.5-3-3.6-4.3c-21.8,2.7-73.4,7.8-115.8,4.2c-38.1-3.3-103.3-8.9-132.5-16.8l-0.5,1.5
		c0,0-0.9,0.9-2.5,2.6c25.9,7.6,80.3,12.8,135.1,17.4C313.4,277.7,368.4,272,389.1,269.3z"/>
	<path class="st1" d="M458.9,463.7c-28.5,8-130.9,34.2-221.1,26.4c-57.4-5-119.4-20.6-184.6-46.2c-0.5,1.6-0.9,3.1-1.3,4.6
		c65.5,25.8,127.8,41.4,185.5,46.4c90.8,7.9,193.6-18.3,222.7-26.5C459.7,466.9,459.3,465.4,458.9,463.7z"/>
	<path class="st1" d="M414.8,307.9c-0.7-1.5-1.5-2.9-2.3-4.4c-19.8,4.3-74.6,14.3-140.1,8.7c-66.4-5.6-133.6-19.9-161.2-28
		c-0.9,1.3-1.9,2.7-2.8,4c29,8.9,99.6,23.3,163.6,28.8C339.5,322.7,395.8,312.1,414.8,307.9z"/>
	<path class="st2" d="M423.3,329.7c-0.5-1.6-1-3.2-1.5-4.6c-27.9,3.6-97.3,11.2-169.1,8.8c-67.8-2.3-128.5-17.4-156.2-25.3
		c-0.1,0.2-0.2,0.4-0.3,0.6c-0.5,1.1-1,2.4-1.6,3.8c27.9,8,89.4,23.4,158,25.7C325.6,341.1,396.1,333.3,423.3,329.7z"/>
	<path class="st2" d="M456.1,452.5c-0.4-1.5-0.8-3-1.2-4.6c-27.4,7-122.2,28.7-218.6,21.2c-79.6-6.2-146-27.3-179-39.6
		c-0.5,1.6-0.9,3.1-1.4,4.6c33.6,12.5,100.3,33.6,180,39.7C333.4,481.4,428.8,459.5,456.1,452.5z"/>
	<path class="st1" d="M430.9,355.5c-0.4-1.6-0.9-3.1-1.3-4.6c-25.6,4.8-91.1,14.8-161.7,7.8c-70.3-6.9-147.2-24.4-178.5-31.9
		c-0.5,1.5-1,3-1.6,4.5c31.1,7.5,108.6,25.2,179.6,32.2C338.9,370.5,405.2,360.3,430.9,355.5z"/>
	<path class="st2" d="M306.6,256.8c34.3-4.1,56.4-7.4,70.4-9.8l-1.3-4.6c-13.9,2.4-35.7,5.6-69.7,9.7c-67.1,8-141.1-9.7-163.7-15.8
		l-1.4,4.6C163.6,246.9,238.5,264.9,306.6,256.8z"/>
	<path class="st2" d="M401.5,285.8c-1-1.5-2-2.9-3-4.3c-19.3,3.7-64.3,10.3-128.1,8.6c-65.9-1.8-122.1-16.4-145.3-23.3
		c-1.1,1.3-2.2,2.6-3.4,4c22.4,6.8,80.4,22.2,148.6,24.1C337,296.7,383.3,289.4,401.5,285.8z"/>
</g>
</svg>
