<?xml version="1.0" encoding="utf-8"?>
<!-- Generator: Adobe Illustrator 21.0.0, SVG Export Plug-In . SVG Version: 6.00 Build 0)  -->
<svg version="1.1" id="Layer_1" xmlns="http://www.w3.org/2000/svg" xmlns:xlink="http://www.w3.org/1999/xlink" x="0px" y="0px"
	 viewBox="0 0 525 750" style="enable-background:new 0 0 525 750;" xml:space="preserve">
<style type="text/css">
	.st0{fill:#FF9900;}
	.st1{fill:#FFEDFF;}
	.st2{fill:#FF5300;}
	.st3{fill:#9DDF00;}
	.st4{fill:#EFEF22;}
	.st5{fill:#3FB6FF;}
	.st6{fill:#027ABB;}
</style>
<g>
	<path class="st0" d="M206,147.5l-101.9-13.9c0,0,7.8,36.7,5.4,71.3c-2.4,34.6-3.5,40.2-17.6,47.5c-14.2,7.3-23.9,27.7-9.2,46.7
		c14.7,19,31.6,16.4,38.6,44.7c7,28.2,27.1,113.8,77,103.4c49.8-10.4,39.9-34.9,36.5-52.8c-3.5-17.9-37-85.8-37.7-155.2
		C196.3,169.9,206,147.5,206,147.5z"/>
	<path class="st1" d="M227,371c-24.1,10.1-64.7,23.3-87.3,30.4c1.5,3.5,3.2,6.9,5,10.3c21-5.8,64.2-20.3,86.9-28
		C230.2,380,228.7,375.7,227,371z"/>
	<path class="st1" d="M211.2,324.4c-26.6,7.5-71.4,22.8-87.7,28.4c0.9,3.7,2,7.7,3.2,12.1c20.4-7.6,67.4-22.8,87.9-29.3
		C213.5,331.9,212.4,328.2,211.2,324.4z"/>
	<path class="st1" d="M201.6,284.6c-8,1.6-20.4,3.6-38.3,5.6c-26.4,2.8-44.7,21.5-53.2,32.4c1.4,1.4,2.7,2.9,3.9,4.6
		c27.4-22.9,71.2-32.1,89.1-35.1C202.6,289.6,202.1,287.1,201.6,284.6z"/>
	<path class="st2" d="M234.7,394.4c-0.2-1.1-0.6-2.4-1-4c-22.9,10-60,23.4-83,31.6c3.6,5.4,7.5,10.3,11.9,14.3
		c16.2-8.9,54.2-19.4,75.2-24.9C237.3,405.5,235.7,399.6,234.7,394.4z"/>
	<path class="st2" d="M218.7,347.7c-24.2,11.1-66.8,23.8-88.1,29.9c1.3,4.1,2.8,8.2,4.3,12.4c19.4-5.2,64.3-21.5,88-30.2
		C221.5,356,220.1,351.9,218.7,347.7z"/>
	<path class="st2" d="M205.5,303.1c-22.6,4.5-69.9,24.6-87.1,32.1c1.1,2.5,2,5.3,2.8,8.6c0.1,0.7,0.3,1.5,0.5,2.2
		c19.1-12.5,65.8-25.4,86.9-30.8C207.6,311.2,206.5,307.2,205.5,303.1z"/>
	<path class="st2" d="M199.6,272.3c-0.5-3.4-0.9-6.9-1.3-10.4c-19.4,4-49,9.3-53.3,5.4c-4.7-4.1-32.3-13.6-47.2-18.5
		c-1.7,1.2-3.6,2.4-5.9,3.5c-14.2,7.3-23.9,27.7-9.2,46.7c4.8,6.2,9.8,10.1,14.7,13.6c9.4-5.6,40.2-24.3,47.4-31.3
		C151.5,274.9,185.5,272.9,199.6,272.3z"/>
	<path class="st2" d="M109.3,207.8c-0.4,5.2-0.7,9.7-1.1,13.6c21.7,2.5,70.9,10.8,88.8,13.9c0-4,0-7.9,0-11.6
		C176.8,215,132.9,210,109.3,207.8z"/>
	<path class="st2" d="M199.1,183.5c0.4-3.3,0.7-6.3,1.1-9.1c-22-7.9-65.4-13.5-92.2-16.3c0.4,3.6,0.8,7.5,1.1,11.5
		C133.3,171.3,180.2,179.9,199.1,183.5z"/>
	<path class="st1" d="M109.8,181.8c0.1,2.8,0.2,5.7,0.2,8.6c23.7,1.6,72,15.6,87.4,20.2c0.1-4.3,0.4-8.3,0.6-12.1
		C178.4,190.1,133.3,184.4,109.8,181.8z"/>
	<path class="st1" d="M197.1,244.6c-24.6-1.6-65.7-7.6-90.5-11.4c-0.9,4.4-2,7.7-3.7,10.3c23.6,8,77.2,10.2,94.7,10.7
		C197.4,251,197.2,247.8,197.1,244.6z"/>
</g>
<g>
	<path class="st3" d="M316.2,247.3l-101.9-13.9c0,0,7.8,36.7,5.4,71.3c-2.4,34.6-3.5,40.2-17.6,47.5c-14.2,7.3-23.9,27.7-9.2,46.7
		c14.7,19,31.6,16.4,38.6,44.7c7,28.2,27.2,113.8,77,103.4c49.8-10.4,39.9-34.9,36.5-52.8c-3.5-17.8-37-85.8-37.7-155.2
		C306.4,269.6,316.2,247.3,316.2,247.3z"/>
	<path class="st1" d="M337.2,470.7c-24.1,10.1-64.7,23.3-87.3,30.4c1.6,3.5,3.2,7,5,10.3c21-5.8,64.2-20.3,86.9-28
		C340.4,479.7,338.9,475.5,337.2,470.7z"/>
	<path class="st1" d="M321.4,424.1c-26.6,7.5-71.4,22.8-87.7,28.4c0.9,3.7,2,7.7,3.2,12.1c20.4-7.6,67.4-22.8,87.9-29.3
		C323.7,431.6,322.5,427.9,321.4,424.1z"/>
	<path class="st1" d="M311.8,384.3c-8.1,1.6-20.4,3.6-38.3,5.5c-26.4,2.8-44.7,21.5-53.2,32.4c1.4,1.4,2.7,2.9,3.9,4.6
		c27.4-22.9,71.2-32.1,89.1-35C312.8,389.3,312.3,386.8,311.8,384.3z"/>
	<path class="st4" d="M344.9,494.1c-0.2-1.1-0.6-2.4-1-3.9c-22.9,10-60,23.4-83,31.6c3.6,5.4,7.5,10.3,11.9,14.3
		c16.2-8.9,54.2-19.4,75.2-24.9C347.5,505.2,345.9,499.3,344.9,494.1z"/>
	<path class="st4" d="M328.9,447.4c-24.2,11.1-66.8,23.8-88.1,29.9c1.3,4,2.8,8.2,4.3,12.4c19.4-5.2,64.3-21.5,88-30.2
		C331.7,455.7,330.3,451.7,328.9,447.4z"/>
	<path class="st4" d="M315.7,402.8c-22.6,4.5-69.9,24.6-87.1,32.1c1.1,2.5,2,5.3,2.8,8.6c0.2,0.7,0.3,1.5,0.5,2.2
		c19.1-12.5,65.8-25.4,86.8-30.8C317.8,411,316.7,406.9,315.7,402.8z"/>
	<path class="st4" d="M309.8,372c-0.5-3.4-0.9-6.9-1.3-10.4c-19.4,4-49,9.2-53.3,5.4c-4.7-4.1-32.3-13.6-47.2-18.5
		c-1.7,1.2-3.6,2.4-5.9,3.5c-14.2,7.3-23.9,27.7-9.2,46.7c4.8,6.2,9.8,10.1,14.7,13.5c9.4-5.6,40.2-24.3,47.4-31.2
		C261.7,374.6,295.7,372.6,309.8,372z"/>
	<path class="st4" d="M219.5,307.5c-0.4,5.2-0.7,9.7-1.1,13.6c21.7,2.5,70.9,10.9,88.8,13.9c0-4,0-7.9,0-11.6
		C287,314.7,243.1,309.7,219.5,307.5z"/>
	<path class="st4" d="M309.3,283.2c0.3-3.3,0.7-6.3,1.1-9.1c-22-7.9-65.5-13.5-92.2-16.3c0.4,3.6,0.8,7.5,1.1,11.5
		C243.4,271.1,290.4,279.6,309.3,283.2z"/>
	<path class="st1" d="M220,281.6c0.1,2.8,0.2,5.7,0.2,8.6c23.7,1.6,72,15.7,87.4,20.2c0.1-4.3,0.4-8.3,0.6-12.1
		C288.6,289.9,243.5,284.1,220,281.6z"/>
	<path class="st1" d="M307.3,344.3c-24.6-1.6-65.7-7.6-90.5-11.4c-0.9,4.4-2,7.7-3.7,10.3c23.6,8,77.2,10.1,94.7,10.7
		C307.6,350.7,307.4,347.5,307.3,344.3z"/>
</g>
<g>
	<path class="st5" d="M425.2,318l-101.9-13.9c0,0,7.8,36.7,5.4,71.3c-2.4,34.6-3.5,40.2-17.7,47.5c-14.2,7.2-23.9,27.7-9.2,46.7
		c14.7,19,31.6,16.4,38.6,44.7c7,28.2,27.2,113.8,77,103.4c49.8-10.4,39.9-34.9,36.5-52.8c-3.5-17.8-37-85.8-37.7-155.2
		C415.5,340.3,425.2,318,425.2,318z"/>
	<path class="st1" d="M446.2,541.5c-24.1,10.1-64.7,23.3-87.3,30.4c1.5,3.5,3.2,6.9,5,10.3c21-5.8,64.2-20.3,86.9-28.1
		C449.5,550.5,447.9,546.2,446.2,541.5z"/>
	<path class="st1" d="M430.5,494.8c-26.6,7.5-71.4,22.8-87.7,28.4c0.9,3.7,2,7.7,3.2,12.1c20.4-7.6,67.4-22.8,87.9-29.3
		C432.7,502.4,431.6,498.7,430.5,494.8z"/>
	<path class="st1" d="M420.9,455.1c-8,1.6-20.4,3.6-38.3,5.5c-26.4,2.9-44.7,21.5-53.2,32.4c1.4,1.4,2.7,2.9,3.9,4.6
		c27.4-22.9,71.2-32.1,89.1-35.1C421.8,460.1,421.3,457.6,420.9,455.1z"/>
	<path class="st6" d="M453.9,564.8c-0.2-1.1-0.6-2.5-1-4c-22.9,10-60,23.4-83,31.6c3.6,5.4,7.5,10.3,11.9,14.3
		c16.2-8.9,54.2-19.4,75.2-24.9C456.5,576,454.9,570.1,453.9,564.8z"/>
	<path class="st6" d="M437.9,518.2c-24.2,11.1-66.8,23.8-88.1,29.9c1.3,4.1,2.8,8.2,4.4,12.4c19.4-5.2,64.3-21.5,87.9-30.2
		C440.8,526.5,439.3,522.4,437.9,518.2z"/>
	<path class="st6" d="M424.8,473.5c-22.6,4.5-69.9,24.6-87.1,32.1c1.1,2.5,2,5.3,2.8,8.6c0.2,0.7,0.3,1.5,0.5,2.2
		c19.1-12.5,65.8-25.4,86.8-30.8C426.8,481.7,425.8,477.7,424.8,473.5z"/>
	<path class="st6" d="M418.8,442.8c-0.5-3.4-0.9-6.9-1.3-10.4c-19.4,4-49.1,9.3-53.3,5.5c-4.7-4.2-32.3-13.6-47.2-18.5
		c-1.7,1.2-3.6,2.4-5.9,3.5c-14.2,7.2-23.9,27.7-9.2,46.7c4.8,6.2,9.8,10.1,14.7,13.5c9.4-5.6,40.2-24.3,47.4-31.2
		C370.7,445.4,404.7,443.4,418.8,442.8z"/>
	<path class="st6" d="M328.5,378.3c-0.4,5.2-0.7,9.7-1.1,13.6c21.7,2.5,70.9,10.8,88.8,13.9c0-4,0-7.9,0-11.6
		C396,385.5,352.1,380.5,328.5,378.3z"/>
	<path class="st6" d="M418.3,353.9c0.4-3.3,0.7-6.3,1.1-9.1c-22-7.9-65.5-13.5-92.2-16.3c0.4,3.6,0.8,7.4,1.1,11.5
		C352.5,341.8,399.5,350.4,418.3,353.9z"/>
	<path class="st1" d="M329,352.3c0.1,2.8,0.2,5.7,0.2,8.6c23.7,1.6,72,15.7,87.4,20.2c0.1-4.3,0.4-8.3,0.6-12.1
		C397.6,360.6,352.6,354.9,329,352.3z"/>
	<path class="st1" d="M416.3,415.1c-24.6-1.6-65.7-7.6-90.5-11.4c-0.9,4.4-2,7.7-3.7,10.3c23.6,8,77.2,10.2,94.7,10.7
		C416.6,421.4,416.5,418.3,416.3,415.1z"/>
</g>
</svg>
