<?xml version="1.0" encoding="utf-8"?>
<!-- Generator: Adobe Illustrator 21.0.0, SVG Export Plug-In . SVG Version: 6.00 Build 0)  -->
<svg version="1.1" id="Layer_1" xmlns="http://www.w3.org/2000/svg" xmlns:xlink="http://www.w3.org/1999/xlink" x="0px" y="0px"
	 viewBox="0 0 525 750" style="enable-background:new 0 0 525 750;" xml:space="preserve">
<style type="text/css">
	.st0{fill:#C8C9CB;}
	.st1{fill:#939498;}
	.st2{fill:#D4D5D7;}
	.st3{fill:#191919;}
	.st4{fill:#757575;}
	.st5{fill:#D3AA68;}
	.st6{fill:#BA9156;}
	.st7{fill:#939496;}
	.st8{fill:#7E390F;}
	.st9{fill:#58585A;}
	.st10{fill:#B55626;}
</style>
<g>
	<path class="st0" d="M74.1,538c0,0-21.5-198.2,48.8-210.9c70.3-12.7,84,113.3,84,139.7c0,26.4,12.7,135.7,12.7,135.7L74.1,538z"/>
	<polygon class="st1" points="124.8,402.7 129.2,525.3 144.9,528.7 143.4,402.2 	"/>
	<path class="st2" d="M100.4,471.6c-12.5-52,1.1-110.4,10.1-139.9C55.2,364.3,74.1,538,74.1,538l145.5,64.5c0,0-2.4-14-5-40.8
		C146.6,575.4,116.5,538.6,100.4,471.6z"/>
	<path class="st0" d="M122.9,327c70.3-12.7,84,113.3,84,139.7c0,26.4,12.7,135.7,12.7,135.7L454,486.2c0,0,1-102.5-10.7-148.4
		c-11.7-45.9-22.5-77.2-99.6-91.8L122.9,327z"/>
	<path class="st2" d="M454,478.2c-165.3,61.9-196.3,51-196.3,51S242,523.3,233.2,411c-5.5-70.1-48.7-90-80.3-95l-30,11
		c70.3-12.7,84,113.3,84,139.7c0,26.4,12.7,135.7,12.7,135.7L454,486.2C454,486.2,454,483.3,454,478.2z"/>
	<path class="st3" d="M219.1,596.6l0.5,23.4c0,0-137.7-55.2-145-58.6c-7.3-3.4-18.6-10.3-12.7-20c5.9-9.8,20-4.9,20-4.9L202,589.1
		L219.1,596.6z"/>
	<path class="st3" d="M219.1,596.6l0.5,23.4l250.5-111.3c0,0,0.5-15.9-16.1-23.2L219.1,596.6z"/>
	<path class="st1" d="M174.2,311.4c0,0-8.3,8.8-2.9,14.6c5.4,5.9,12.2,1.5,26.4-2.9c14.2-4.4,160.7-58.6,160.7-58.6s2-9.3-13.7-10.3
		L174.2,311.4z"/>
	<path class="st4" d="M197.6,323.1c13.1-4.1,138.5-50.4,158-57.6c-3.6-1.2-8.7-1.9-15.4-0.5c-16.6,3.4-146,51.8-156.3,54.2
		c-6.2,1.5-7.6-4-7.7-8.5l-2.1,0.7c0,0-8.3,8.8-2.9,14.6C176.6,331.9,183.4,327.5,197.6,323.1z"/>
	<path d="M219.6,619.5C193.8,599.7,113,571.3,90.7,559c-14.7-8.1-19.8-16.8-21.3-23.1c-2.9,0.8-5.6,2.4-7.5,5.5
		c-5.9,9.8,5.4,16.6,12.7,20c7.3,3.4,145,58.6,145,58.6L219.6,619.5z"/>
	<path class="st5" d="M186.9,319.7l-23.9-59.1c0,0-31.7-26.4-19-49.8c12.7-23.4,48.8-59.1,97.7-70.3c48.8-11.2,86.9,13.7,93.3,25.9
		c6.3,12.2,18.5,23.9-5.9,44.4l9.8,57.1L186.9,319.7z"/>
	<path class="st6" d="M200.5,246.9c-5.9-25.4-14.2-12.2-22.9-36.1c-5.2-14.1,5.7-34.9,15.6-49.7c-23.9,15.3-41.2,34.9-49.2,49.7
		c-12.7,23.4,19,49.8,19,49.8l23.9,59.1l39.6-13.5C201.8,295,205.7,269.3,200.5,246.9z"/>
	<path class="st7" d="M121.9,379.8c0,0-22.7,8.8-17.1,18.1c5.6,9.3,33.4-2.7,41.5-9L121.9,379.8z"/>
	<path class="st8" d="M198.6,315.7l-27.4-68.3c0,0,1.5-2.9-17.1-8.3c-9.7-2.8-11.8-14.7-11.6-25.4c-8.8,22.7,20.4,46.9,20.4,46.9
		l23.9,59.1L198.6,315.7z"/>
	<polygon class="st1" points="217.6,339.1 224.8,353.4 386.2,295.4 379.7,285 	"/>
	<path class="st9" d="M146.3,388.8c-8.1,6.3-35.9,18.3-41.5,9c0,0-2.7,12.7,4.2,14.4c6.8,1.7,25.4,2.7,39.3-6.6L146.3,388.8z"/>
	<polygon class="st10" points="281.1,204.5 283.8,207.9 293.8,212 293.3,208.6 	"/>
	<polygon class="st10" points="212.7,195.2 214.9,200.1 224.7,192.5 	"/>
	<polygon class="st10" points="234.5,236.4 235,235.2 239.8,240.8 234.5,237.7 	"/>
	<polygon class="st10" points="290.9,250.6 297.9,243.8 297.9,248.4 	"/>
	<polygon class="st10" points="231.3,271.1 239.6,271.1 235.9,274.5 	"/>
	<polygon class="st10" points="186.8,229.3 191.7,228.1 196.8,228.6 191.2,233 	"/>
	<polygon class="st10" points="247.9,198.1 256.2,201.3 250.8,196.2 	"/>
	<polygon class="st10" points="263.8,165.2 265,167.6 270.8,167.1 	"/>
	<polygon class="st10" points="297.9,166.9 298.9,170.5 306.7,171 	"/>
	<polygon class="st10" points="264.3,226.4 268.4,225.9 270.4,235.9 	"/>
	<polygon class="st10" points="235,157.4 237.7,157.7 238.7,163.1 	"/>
</g>
</svg>
