<?xml version="1.0" encoding="utf-8"?>
<!-- Generator: Adobe Illustrator 21.0.0, SVG Export Plug-In . SVG Version: 6.00 Build 0)  -->
<svg version="1.1" id="Layer_1" xmlns="http://www.w3.org/2000/svg" xmlns:xlink="http://www.w3.org/1999/xlink" x="0px" y="0px"
	 viewBox="0 0 525 484" style="enable-background:new 0 0 525 484;" xml:space="preserve">
<style type="text/css">
	.st0{fill:#91BE4A;}
	.st1{fill:#009D4F;}
	.st2{fill:#FFFFFF;}
	.st3{fill:#231F20;}
	.st4{fill:#00954A;}
	.st5{fill:#267F55;}
</style>
<g>
	<path class="st0" d="M152.1,382.3c-8.4,12.8-59.5,78.8-48.3,85.2C153.6,495.4,194,414.3,152.1,382.3z"/>
	<path class="st0" d="M510.8,186.8c2-5.1,2.9-11,2.1-17.8c-4-36.7-28.2-62.8-65.4-67.1c-40.9-4.8-63.9,22.6-81.5,54l19.2,52.1
		c2.6,7.2,48.3,9.1,54.5,9.2c68.3,1-6.5-11.8,6.1-15.6C460.9,197.2,505.6,200.1,510.8,186.8z"/>
	<path class="st0" d="M229.6,36.9c0,0,39.6-24.5,76.3,10.7c0,0,30.1,34.4,3.1,83.3C309,130.9,240.1,74.9,229.6,36.9z"/>
	<path class="st0" d="M50.8,258.4c0,0,22.1-71.7,82.2-18C133,240.4,92.1,259.4,50.8,258.4z"/>
	<path class="st0" d="M76,365.9c-0.4-3.6-38.8-20.8-45.1-27.8C14.4,386,77.8,382.6,76,365.9z"/>
	<path class="st0" d="M317.2,314c-11.1,18.9-64.1,114.3-50.9,124.2C359.9,508,366.2,299.9,317.2,314z"/>
	<path class="st1" d="M340,130.3c0,0-94.8-43.5-187.6,65.9c0,0-87.7,116.5-81.6,179.6c0,0,2.6,48.2,164.5-2.8
		c0,0,82.2-28.3,123.1-97.1C358.4,275.9,426.2,182.7,340,130.3z"/>
	<g>
		<g>
			<path class="st2" d="M460.6,125.9c12.7,18.1,8.3,43-9.8,55.6c-18.1,12.7-43,8.3-55.6-9.8c-12.7-18.1-8.3-43,9.8-55.6
				C423.1,103.5,448,107.9,460.6,125.9z"/>
			<path class="st3" d="M457.1,136.1c7.9,11.2,5.2,26.7-6.1,34.6c-11.2,7.9-26.7,5.1-34.6-6.1c-7.9-11.2-5.2-26.7,6.1-34.6
				C433.7,122.2,449.2,124.9,457.1,136.1z"/>
		</g>
	</g>
	
		<ellipse transform="matrix(0.7693 -0.6389 0.6389 0.7693 -88.6594 173.0479)" class="st4" cx="195.3" cy="209.3" rx="83.9" ry="32.4"/>
	<g>
		<path class="st5" d="M228.6,234.3c0,0,29.4,28,40.7,53.4c0,0-76.5,51.5-119.4,53.9l3-61.3C152.9,280.3,211,262.9,228.6,234.3z"/>
		<path class="st5" d="M130.8,262.9c-6.3-7.5-3.2-21.5,6.8-37.5c0.3,0.2,0.6,0.4,0.8,0.6c27,16.7,63.4,8,80.1-19
			c9.9-16,10.9-35.4,4.4-51.9c17-6.4,30.8-6.7,37,0.7c11.4,13.8-8.2,48.9-43.8,78.5C180.3,263.8,142.2,276.7,130.8,262.9z"/>
		<polygon class="st5" points="113.3,349.1 81.2,353.8 75.6,369.3 78,385.8 90.4,386.3 108.3,391.9 115,381 		"/>
		<path class="st5" d="M211.8,326.1l16.7,45.4c0,0-92.2,22.9-107.8,21.2l-4.1-40.2C116.7,352.4,189.7,344.9,211.8,326.1z"/>
		<path class="st5" d="M313.5,253.8l35.8,27.3c0,0-39.8,58.8-116.4,87.8L216,325.2C215.9,325.1,277.8,304.5,313.5,253.8z"/>
		<path class="st5" d="M339.9,134.2c0,0,32.7,39.4-23.1,115.5l37.6,25.8C354.4,275.5,419.8,185.2,339.9,134.2z"/>
		<path class="st5" d="M230.4,138.7c0,0,40.5,2.3,36.1,20.3c0,0,40-9.5,77.6,15c-0.9-0.6,0.1-16.5-0.2-18.3
			c-2-10.5-7.7-22.3-17.8-27c-15.7-7.2-38.8-2.5-55.6-0.8c-8.5,0.8-16.9,1.9-25.2,4c-3.2,0.8-6.6,1.5-9.6,3.1
			C234.8,135.3,231,138.7,230.4,138.7z"/>
		<path class="st5" d="M268.6,163c0,0,49.8-9.4,74.2,16.2c0,0-5.1,59.4-68.7,104.9c0,0-27.2-47.7-43.6-51.9
			C230.5,232.2,270.7,182,268.6,163z"/>
		<path class="st5" d="M120.6,253.8c0,0,0.8,30.7,26.9,27.8l-1.3,59.7l-64.5,4.3C81.7,345.5,90.6,285.3,120.6,253.8z"/>
		<path class="st5" d="M163.6,217.2c2.8,3.1,12.6-1.1,22-9.5s14.7-17.7,11.9-20.8c-2.8-3.1-12.6,1.1-22,9.5
			C166.1,204.8,160.8,214.1,163.6,217.2z"/>
	</g>
</g>
</svg>
