<?xml version="1.0" encoding="utf-8"?>
<!-- Generator: Adobe Illustrator 21.0.0, SVG Export Plug-In . SVG Version: 6.00 Build 0)  -->
<svg version="1.1" id="Layer_1" xmlns="http://www.w3.org/2000/svg" xmlns:xlink="http://www.w3.org/1999/xlink" x="0px" y="0px"
	 viewBox="0 0 525 750" style="enable-background:new 0 0 525 750;" xml:space="preserve">
<style type="text/css">
	.st0{fill:#91BE4A;}
	.st1{fill:#009D4F;}
	.st2{fill:#FFFFFF;}
	.st3{fill:#231F20;}
	.st4{fill:#00954A;}
	.st5{fill:#267F55;}
</style>
<g>
	<path class="st0" d="M161.7,507.2c-8.1,12.3-57.2,75.7-46.4,81.9C163.1,615.9,201.9,538,161.7,507.2z"/>
	<path class="st0" d="M506.4,319.3c1.9-4.9,2.8-10.6,2-17.1c-3.8-35.3-27.1-60.4-62.9-64.5c-39.3-4.6-61.4,21.7-78.3,51.9l18.5,50.1
		c2.5,6.9,46.4,8.7,52.4,8.8c65.7,1-6.2-11.3,5.9-15C458.5,329.3,501.4,332.1,506.4,319.3z"/>
	<path class="st0" d="M236.2,175.2c0,0,38.1-23.5,73.3,10.3c0,0,28.9,33.1,3,80.1C312.5,265.6,246.2,211.7,236.2,175.2z"/>
	<path class="st0" d="M64.3,388.1c0,0,21.2-68.9,79-17.3C143.3,370.8,104,389.1,64.3,388.1z"/>
	<path class="st0" d="M88.5,491.5c-0.4-3.5-37.3-20-43.4-26.7C29.3,510.8,90.2,507.5,88.5,491.5z"/>
	<path class="st0" d="M320.4,441.6c-10.7,18.2-61.6,109.9-48.9,119.4C361.4,628,367.5,428,320.4,441.6z"/>
	<path class="st1" d="M342.3,265c0,0-91.1-41.8-180.3,63.3c0,0-84.3,112-78.4,172.6c0,0,2.5,46.3,158.1-2.7c0,0,79-27.2,118.3-93.3
		C360,404.9,425.1,315.4,342.3,265z"/>
	<g>
		<g>
			<path class="st2" d="M458.2,260.8c12.2,17.4,8,41.3-9.4,53.4c-17.4,12.2-41.3,8-53.4-9.4c-12.2-17.4-8-41.3,9.4-53.4
				S446.1,243.5,458.2,260.8z"/>
			<path class="st3" d="M454.8,270.6c7.6,10.8,5,25.7-5.9,33.3c-10.8,7.6-25.7,4.9-33.3-5.9s-5-25.7,5.9-33.3
				C432.3,257.2,447.2,259.8,454.8,270.6z"/>
		</g>
	</g>
	
		<ellipse transform="matrix(0.7693 -0.6389 0.6389 0.7693 -170.9405 208.4793)" class="st4" cx="203.2" cy="340.9" rx="80.6" ry="31.1"/>
	<g>
		<path class="st5" d="M235.2,365c0,0,28.3,26.9,39.1,51.3c0,0-73.5,49.5-114.8,51.8l2.9-58.9C162.4,409.2,218.3,392.5,235.2,365z"
			/>
		<path class="st5" d="M141.2,392.5c-6.1-7.2-3.1-20.7,6.5-36c0.3,0.2,0.6,0.4,0.8,0.6c26,16.1,60.9,7.7,77-18.3
			c9.5-15.4,10.5-34,4.2-49.9c16.3-6.2,29.6-6.4,35.6,0.7c11,13.3-7.9,47-42.1,75.5C188.8,393.3,152.1,405.7,141.2,392.5z"/>
		<polygon class="st5" points="124.4,475.3 93.5,479.8 88.1,494.7 90.4,510.6 102.4,511.1 119.6,516.4 126,506 		"/>
		<path class="st5" d="M219,453.2l16.1,43.6c0,0-88.6,22-103.6,20.4l-3.9-38.6C127.6,478.5,197.8,471.3,219,453.2z"/>
		<path class="st5" d="M316.8,383.7l34.4,26.2c0,0-38.3,56.5-111.9,84.4l-16.2-42C223,452.2,282.5,432.4,316.8,383.7z"/>
		<path class="st5" d="M342.2,268.7c0,0,31.4,37.9-22.2,111l36.1,24.8C356.1,404.6,419,317.8,342.2,268.7z"/>
		<path class="st5" d="M236.9,273.1c0,0,38.9,2.2,34.7,19.5c0,0,38.4-9.1,74.6,14.4c-0.9-0.6,0.1-15.9-0.2-17.6
			c-1.9-10.1-7.4-21.4-17.1-26c-15.1-6.9-37.3-2.4-53.4-0.8c-8.2,0.8-16.2,1.8-24.2,3.8c-3.1,0.8-6.3,1.4-9.2,3
			C241.2,269.8,237.5,273.1,236.9,273.1z"/>
		<path class="st5" d="M273.6,296.4c0,0,47.9-9,71.3,15.6c0,0-4.9,57.1-66,100.8c0,0-26.1-45.8-41.9-49.9
			C237,362.9,275.7,314.7,273.6,296.4z"/>
		<path class="st5" d="M131.4,383.7c0,0,0.8,29.5,25.9,26.7l-1.2,57.4l-62,4.1C94,471.8,102.5,414,131.4,383.7z"/>
		<path class="st5" d="M172.7,348.5c2.7,3,12.1-1.1,21.1-9.1c9-8.1,14.1-17,11.4-20c-2.7-3-12.1,1.1-21.1,9.1
			C175.1,336.6,170,345.5,172.7,348.5z"/>
	</g>
</g>
</svg>
