<?xml version="1.0" encoding="utf-8"?>
<!-- Generator: Adobe Illustrator 21.0.0, SVG Export Plug-In . SVG Version: 6.00 Build 0)  -->
<svg version="1.1" xmlns="http://www.w3.org/2000/svg" xmlns:xlink="http://www.w3.org/1999/xlink" x="0px" y="0px"
	 viewBox="0 0 227.5 238.7" style="enable-background:new 0 0 227.5 238.7;" xml:space="preserve">
<style type="text/css">
	.st0{fill:#A7A8AC;}
	.st1{fill:#FFFFFF;}
	.st2{fill:#FFFFFF;stroke:#B8D432;stroke-width:1.5;stroke-miterlimit:10;}
	.st3{fill:#FDFDFD;}
	.st4{fill:#FBFBFB;}
	.st5{fill:#F9F9F9;}
	.st6{fill:#F7F7F7;}
	.st7{fill:#F5F5F5;}
	.st8{fill:#F3F3F3;}
	.st9{fill:#F1F1F1;}
	.st10{fill:#EFEFEF;}
	.st11{fill:#EDEDED;}
	.st12{fill:#EBEBEB;}
	.st13{fill:#E9E9E9;}
	.st14{fill:#E7E7E7;}
	.st15{fill:#E5E5E4;}
	.st16{fill:#E3E3E2;}
	.st17{fill:#E1E1E0;}
	.st18{fill:#DFDFDE;}
	.st19{fill:#DDDDDC;}
	.st20{fill:#DBDBDA;}
	.st21{fill:#D9D9D8;}
	.st22{fill:#D7D7D6;}
	.st23{fill:#D5D5D4;}
	.st24{fill:#D3D3D2;}
	.st25{fill:#D1D1D0;}
	.st26{fill:#CFCFCE;}
	.st27{fill:#CDCDCC;}
	.st28{fill:#CACACA;}
	.st29{fill:#C8C8C8;}
	.st30{fill:#C6C6C6;}
	.st31{fill:#C4C4C4;}
	.st32{fill:#C2C2C2;}
	.st33{fill:#C0C0C0;}
	.st34{fill:#BEBEBE;}
	.st35{fill:#BCBCBC;}
	.st36{fill:#BABABA;}
	.st37{fill:#B8B8B8;}
	.st38{fill:#B6B6B6;}
	.st39{fill:#B4B4B4;}
	.st40{fill:#B2B2B2;}
	.st41{fill:#B0B0AF;}
	.st42{fill:#AEAEAD;}
	.st43{fill:#ACACAB;}
	.st44{fill:#AAAAA9;}
	.st45{fill:#A8A8A7;}
	.st46{fill:#A6A6A5;}
	.st47{fill:#A4A4A3;}
	.st48{fill:#A2A2A1;}
	.st49{fill:#A0A09F;}
	.st50{fill:#9E9E9D;}
	.st51{fill:#9C9C9B;}
	.st52{fill:#9A9A99;}
	.st53{fill:#989897;}
	.st54{fill:#D18029;}
	.st55{fill:#B56F29;}
	.st56{fill:#754D24;}
	.st57{fill:#333333;}
	.st58{fill:#F69220;}
	.st59{fill:#CBCBCA;}
	.st60{fill:#343433;}
	.st61{fill:#1A1A1A;}
	.st62{fill:#603A17;}
	.st63{fill:#E48525;}
</style>
<g id="Layer_1">
	<g>
		<g>
			<path class="st0" d="M220.6,16.9c-2.8-11.2-9-13-17-14.1c-12.4-1.7-67.7-2.9-76.5-2c-7,0.7-11.5,5.6-14.3,14.6
				c-2.3,7.4-7.7,19.6-8.4,25.1c-0.9,7.2,0.8,18.2,11.7,21.5c9.7,2.9,19.5,3.7,38.4,5.7c12,1.3,17.5,2.3,14.5,5.7
				c-4,4.7-21.1,11.8-17.3,12.3c12.1,1.6,25.7,0,34.4-2.4c6.1-1.6,12.1-4.7,16-8.8c9.2,1.4,8.6,1.8,11.2,1.8
				c8.5,0.1,12.9-5.1,14-12.8C228.7,54.9,222.3,23.7,220.6,16.9z"/>
			<path class="st1" d="M221.3,16.5c-2.8-11-9.6-13.3-17.4-14.3c-12.2-1.6-66.4-2.8-75-1.9c-6.9,0.7-11.3,5.5-14.1,14.4
				c-2.3,7.3-7.5,19-8.2,24.6c-0.9,7.1,0.8,18,11.5,21.2c9.5,2.8,19.2,3.7,37.7,5.6c11.7,1.2,17.1,2.2,14.3,5.7
				c-3.9,4.7-20.7,11.8-17,12.2c10.9,1,25.9-0.2,34.4-2.8c6.1-1.8,11.3-4.2,15.1-8.3c9.1,1.3,8.3,1.8,10.8,1.8
				c8.3,0.1,11.9-5.5,13.1-13C228.2,52.2,223,23.3,221.3,16.5z"/>
		</g>
		<path class="st2" d="M217.7,18.6c-2.6-10.4-9-12.5-16.3-13.5c-11.4-1.5-61.9-2.6-70-1.7c-6.4,0.7-10.6,5.2-13.2,13.5
			c-2.2,6.9-6.9,16.8-7.5,22c-0.8,6.7,0.7,16.9,10.8,19.9c8.9,2.7,25.9,4.4,43.3,6.3c11,1.2,13.4,2.5,10.7,5.7
			c-3.7,4.4-18.8,11.2-14.1,11c8.2-0.5,16.7-1.3,25.5-4.1c4.8-1.5,10.6-4,14.2-7.9c8.5,1.3,7.3,1.6,9.7,1.7
			c7.8,0.1,11.1-4.5,12.2-11.6C224.3,51.1,219.3,24.9,217.7,18.6z"/>
	</g>
	<g>
		<path d="M133.3,17.4l-0.3,6.5c0,0.2-0.2,0.4-0.3,0.6c-0.2,0.1-0.4,0.2-0.6,0.2c-0.3,0-0.5-0.2-0.4-0.6l0.2-6
			c0.1-1.4,0.2-2.9,0.4-4.3c-1.1,0-2.1,0-3.1,0c-0.4,0-0.6-0.2-0.6-0.5c0-0.2,0.1-0.4,0.3-0.5c0.2-0.2,0.4-0.3,0.6-0.3
			c0.9,0.1,2.2,0.1,3.8,0.1c1.6,0,2.9,0,3.8,0.1c0.4,0.1,0.5,0.3,0.5,0.6c0,0.2-0.1,0.3-0.3,0.5c-0.2,0.2-0.3,0.2-0.6,0.3
			c-0.9-0.1-2-0.1-3.1-0.1C133.5,14.8,133.4,16.1,133.3,17.4z"/>
		<path d="M142.9,17c0.6,0.4,0.9,0.9,0.8,1.4c0,0.6-0.3,1.1-0.9,1.6c-0.6,0.5-1.3,0.8-2.1,0.9c-0.1,0-0.1,0-0.2,0c0,0-0.1,0-0.2,0
			c-0.1,0-0.1,0-0.2,0c0,0-0.1,0-0.2,0c-0.1,0-0.1,0-0.2,0s-0.1,0-0.2,0c-0.1,0-0.2,0-0.2,0c0.1,1,0.2,1.6,0.5,1.9
			c0.3,0.3,0.6,0.5,0.9,0.5c0.6,0,1.2-0.2,1.8-0.7c0.6-0.5,1-0.7,1.2-0.7c0.1,0,0.2,0.1,0.4,0.3c0.2,0.2,0.3,0.4,0.3,0.5
			s-0.1,0.4-0.4,0.6c-0.2,0.2-0.5,0.5-0.9,0.7c-0.4,0.2-0.8,0.5-1.3,0.6c-0.5,0.2-1,0.2-1.4,0.2c-0.4,0-0.8-0.1-1.1-0.4
			c-0.6-0.4-1-1-1.2-1.9c-0.3-0.9-0.4-1.8-0.3-2.7c0.1-1,0.3-1.8,0.8-2.5c0.5-0.8,1.3-1.2,2.5-1.2C141.7,16.4,142.3,16.6,142.9,17z
			 M142.1,18.5c0-0.5-0.3-0.8-1-0.8c-0.5,0-0.9,0.2-1.3,0.7c-0.1,0.2-0.2,0.3-0.3,0.6c-0.1,0.2-0.1,0.4-0.2,0.7
			C141.1,19.8,142,19.4,142.1,18.5z"/>
		<path d="M146.7,18.6c-0.2,3,0.1,4.8,0.8,5.3l0,0c0.4-0.1,0.8-0.2,1.2-0.5c0.4-0.2,0.6-0.5,0.7-0.7c-0.2-1.1-0.2-2.7-0.1-4.8
			s0.4-3.7,0.7-5.1c0.1-0.3,0.3-0.5,0.6-0.6c0.1-0.1,0.2-0.1,0.4-0.1c0.3,0,0.5,0.2,0.6,0.6c-0.3,1.8-0.6,3.1-0.6,3.7
			c-0.1,0.7-0.2,1.4-0.2,2.3s-0.1,1.6-0.1,2.1c0,0.5,0.1,1.1,0.2,1.8c0.1,0.6,0.3,1.1,0.6,1.3l0.1,0c0.2,0,0.4-0.2,0.6-0.4
			c0.2-0.2,0.4-0.4,0.6-0.6c0.2-0.2,0.4-0.3,0.5-0.3c0.4,0,0.6,0.4,0.5,1.1c0,0.4-0.3,0.8-0.8,1.1c-0.5,0.4-1,0.5-1.6,0.5
			c-0.7,0-1.2-0.4-1.5-1.2c-0.2,0.3-0.6,0.5-1.1,0.7c-0.5,0.2-0.9,0.3-1.2,0.3c-0.3,0-0.6-0.1-0.8-0.1c-0.2-0.1-0.3-0.2-0.4-0.2
			c-0.1-0.1-0.2-0.2-0.3-0.4c-0.2-0.3-0.3-0.6-0.4-0.9c-0.2-1-0.4-2-0.4-2.9c0-0.9,0-2.2,0.1-3.8s0.3-3.1,0.7-4.3
			c0-0.2,0.2-0.4,0.4-0.5c0.2-0.1,0.4-0.2,0.6-0.2c0.3,0,0.5,0.2,0.6,0.6c-0.3,1.7-0.5,3-0.6,3.6C146.8,17,146.7,17.8,146.7,18.6z"
			/>
		<path d="M162.7,22.9l0.1-1c0-0.8,0-1.3-0.1-1.6c-0.1-0.3-0.2-0.5-0.3-0.7c-0.2-0.4-0.5-0.6-1.1-0.6s-1,0.1-1.2,0.5
			c-0.2,0.3-0.4,0.9-0.4,1.6l-0.1,3.5c-0.1,1.1-0.4,1.6-1,1.6c-0.3,0-0.5-0.2-0.5-0.6c0.1-2.5,0.1-4.8-0.1-6.7
			c0-0.2,0.1-0.5,0.3-0.7s0.4-0.3,0.6-0.3c0.2,0,0.4,0.2,0.5,0.4c0.5-0.6,1.1-0.9,1.9-0.8c1,0.1,1.7,0.6,2.2,1.5
			c0.7-0.9,1.5-1.3,2.6-1.2c0.5,0,0.9,0.2,1.3,0.4c0.4,0.3,0.7,0.6,0.9,0.9c0.6,1,0.8,2.6,0.6,4.8l0,0.8c0,0.8-0.1,1.3-0.3,1.5
			c-0.1,0.1-0.1,0.2-0.2,0.2c-0.1,0.1-0.3,0.1-0.5,0.1c-0.3,0-0.5-0.2-0.5-0.6l0.2-2.3c0.1-1.5,0-2.6-0.3-3.1
			c-0.2-0.3-0.4-0.6-0.7-0.8c-0.3-0.2-0.6-0.4-0.9-0.4c-0.3,0-0.5,0-0.7,0.1s-0.3,0.3-0.4,0.6c-0.2,0.5-0.4,1.5-0.5,3l-0.1,2.7
			l-0.1,0c-0.1,0.2-0.2,0.4-0.4,0.5s-0.4,0.2-0.6,0.2c-0.3,0-0.4-0.2-0.4-0.6l-0.1,0L162.7,22.9z"/>
		<path d="M175.9,18.9c0.6,0.4,0.9,0.9,0.8,1.4c0,0.6-0.3,1.1-0.9,1.6c-0.6,0.5-1.3,0.8-2.1,0.9c-0.1,0-0.1,0-0.2,0c0,0-0.1,0-0.2,0
			c-0.1,0-0.1,0-0.2,0c0,0-0.1,0-0.2,0c-0.1,0-0.1,0-0.2,0s-0.1,0-0.2,0c-0.1,0-0.2,0-0.2,0c0.1,1,0.2,1.6,0.5,1.9
			c0.3,0.3,0.6,0.5,0.9,0.5c0.6,0,1.2-0.2,1.8-0.7s1-0.7,1.2-0.7c0.1,0,0.2,0.1,0.4,0.3c0.2,0.2,0.3,0.4,0.3,0.5s-0.1,0.4-0.4,0.6
			c-0.2,0.2-0.5,0.5-0.9,0.7c-0.3,0.2-0.8,0.5-1.3,0.6s-1,0.2-1.4,0.2c-0.4,0-0.8-0.1-1.1-0.4c-0.6-0.4-1-1-1.2-1.9
			c-0.3-0.9-0.4-1.8-0.3-2.7c0.1-0.9,0.3-1.8,0.8-2.5c0.5-0.8,1.3-1.2,2.5-1.2C174.7,18.3,175.3,18.5,175.9,18.9z M175.1,20.3
			c0-0.5-0.3-0.8-1-0.8c-0.5,0-0.9,0.2-1.3,0.7c-0.1,0.2-0.2,0.3-0.3,0.6c-0.1,0.2-0.1,0.4-0.2,0.7C174.1,21.6,175,21.2,175.1,20.3z
			"/>
		<path d="M181.9,19.5c0-0.2,0.1-0.4,0.2-0.6s0.3-0.2,0.6-0.2c0.2,0,0.4,0.2,0.6,0.4c0.2,1,0.5,1.9,0.8,2.7c0.3,0.8,0.6,1.5,0.8,2.2
			c0.2,0.7,0.4,1.2,0.5,1.5c0.3-0.8,0.6-1.8,1-3.2c0.4-1.4,0.7-2.4,0.9-3c0.1-0.3,0.4-0.4,0.8-0.4c0.2,0,0.3,0.1,0.5,0.2
			c0.1,0.1,0.2,0.2,0.2,0.4c0,0.1,0,0.3-0.1,0.4c-2.1,6.2-3.7,10.4-4.6,12.7c-0.1,0.3-0.3,0.5-0.6,0.5c-0.2,0-0.3-0.1-0.5-0.3
			c-0.1-0.2-0.2-0.4-0.2-0.7c0-0.3,0.1-0.7,0.3-1.3c0.2-0.6,0.5-1.2,0.7-1.9c0.3-0.7,0.5-1.2,0.6-1.5c-0.3-0.5-0.7-1.7-1.3-3.4
			C182.7,22.3,182.3,20.8,181.9,19.5z"/>
		<path d="M192.3,19.6c0.5-0.2,1-0.4,1.6-0.3s1.1,0.3,1.5,0.8c0.8,1,1.2,2.2,1.1,3.9c0,0.8-0.3,1.7-0.9,2.6c-0.3,0.4-0.6,0.8-1,1
			s-0.9,0.4-1.4,0.4s-1-0.2-1.5-0.5c-0.5-0.3-0.8-0.7-1.1-1.2c-0.6-1-0.9-1.9-0.8-2.7c0.1-1.1,0.5-2.1,1.2-3
			C191.4,20.1,191.8,19.8,192.3,19.6z M193.7,26.6c0.4-0.2,0.7-0.5,0.9-0.9c0.2-0.4,0.3-0.9,0.4-1.3c0-0.5,0-0.9,0-1.2
			c0-0.4-0.1-0.7-0.2-1.1c-0.1-0.3-0.3-0.6-0.5-0.9c-0.2-0.2-0.5-0.4-0.8-0.5c-0.6,0.1-1,0.3-1.4,0.9c-0.4,0.5-0.6,1-0.6,1.6
			c0,0.5,0.2,1.2,0.6,2c0.2,0.4,0.5,0.7,0.8,1C193,26.5,193.4,26.6,193.7,26.6z"/>
		<path d="M202.2,27.1c-0.9,0.9-1.8,1.3-2.7,1.2c-0.4,0-0.8-0.2-1.1-0.5c-0.3-0.3-0.5-0.8-0.7-1.3c-0.3-1-0.4-2-0.3-3
			s0.2-2.1,0.3-3.3c0.1-0.2,0.2-0.4,0.3-0.5c0.2-0.1,0.3-0.2,0.5-0.2c0.3,0,0.5,0.2,0.6,0.6c-0.1,0.8-0.2,1.7-0.2,2.5
			s-0.1,1.4-0.1,1.7c0,0.9,0.2,1.8,0.7,2.7c0.5-0.1,1-0.3,1.4-0.6c0.4-0.3,0.8-0.7,1-1.1c-0.1-1.8,0-3.3,0-4.6
			c0-0.3,0.1-0.5,0.3-0.7c0.2-0.2,0.4-0.3,0.6-0.2c0.2,0,0.4,0.2,0.5,0.5c0,0.6-0.1,2-0.1,4.3c0,0.3,0.1,0.9,0.1,1.7
			c0.1,0.9,0.1,1.4,0.1,1.6c0,0.2-0.1,0.4-0.3,0.6s-0.4,0.3-0.6,0.3c-0.2,0-0.4-0.2-0.5-0.5L202.2,27.1z"/>
		<path d="M205.8,26.3l0-0.6c0-0.8,0-1.6,0-2.5c-0.1-0.9-0.2-1.6-0.3-2c-0.1-0.5-0.2-0.7-0.2-0.9s0.1-0.2,0.3-0.4
			c0.2-0.1,0.4-0.2,0.6-0.2s0.4,0.1,0.5,0.3c0.1,0.2,0.2,0.3,0.2,0.5c0,0.2,0,0.4,0,0.7c0,0.3,0,0.5,0,0.6c0.4-0.8,0.9-1.3,1.7-1.5
			c0.4-0.1,0.8-0.2,1.3-0.2c1,0.1,1.5,0.3,1.5,0.9c0,0.3-0.2,0.6-0.5,0.7c-0.1,0.1-0.3,0.1-0.4,0.1l-0.5-0.1
			c-1.6-0.1-2.4,1.4-2.6,4.5l-0.1,1.7l0,0c-0.1,0.2-0.2,0.4-0.4,0.6c-0.2,0.2-0.4,0.2-0.6,0.2c-0.3,0-0.4-0.2-0.5-0.7
			C205.8,27.6,205.8,27,205.8,26.3z"/>
		<path d="M140.8,46.1c-0.9,0.9-1.8,1.3-2.7,1.2c-0.4,0-0.8-0.2-1.1-0.5c-0.3-0.3-0.5-0.8-0.7-1.3c-0.3-1-0.4-2-0.3-3
			c0.1-1,0.2-2.1,0.3-3.3c0.1-0.2,0.2-0.4,0.3-0.5c0.2-0.1,0.3-0.2,0.5-0.2c0.3,0,0.5,0.2,0.6,0.6c-0.1,0.8-0.2,1.7-0.2,2.5
			s-0.1,1.4-0.1,1.7c0,0.9,0.2,1.8,0.7,2.8c0.5-0.1,1-0.3,1.4-0.6c0.4-0.3,0.8-0.7,1-1.1c0-1.8,0-3.3,0-4.6c0-0.3,0.1-0.5,0.3-0.7
			c0.2-0.2,0.4-0.3,0.6-0.2c0.2,0,0.4,0.2,0.5,0.5c0,0.6-0.1,2-0.1,4.3c0,0.3,0.1,0.9,0.1,1.7c0.1,0.9,0.1,1.4,0.1,1.6
			s-0.1,0.4-0.3,0.6c-0.2,0.2-0.4,0.3-0.6,0.3c-0.2,0-0.4-0.2-0.5-0.5L140.8,46.1z"/>
		<path d="M147,39c0.5,0,0.9,0.1,1.4,0.3c0.9,0.3,1.3,0.8,1.3,1.2c0,0.2-0.1,0.4-0.3,0.5c-0.2,0.1-0.4,0.2-0.6,0.2
			c0,0-0.3-0.1-0.8-0.4c-0.5-0.3-0.9-0.4-1.2-0.4c-0.3,0-0.6,0.1-0.9,0.2c-0.3,0.2-0.4,0.4-0.4,0.7s0,0.5,0.2,0.7s0.3,0.4,0.6,0.5
			c0.2,0.1,0.5,0.2,0.8,0.3c0.8,0.2,1.4,0.4,1.7,0.6c0.5,0.3,0.8,0.8,0.8,1.6s-0.4,1.4-1,2c-0.6,0.6-1.3,0.8-1.9,0.8
			c-0.7,0-1.2-0.1-1.6-0.3c-0.8-0.3-1.1-0.7-1.1-1.2c0-0.4,0.3-0.6,0.8-0.6c0.2,0,0.6,0.1,1,0.4c0.4,0.2,0.8,0.4,1.1,0.4
			s0.6-0.2,0.9-0.5c0.3-0.4,0.4-0.7,0.4-1c0-0.1,0-0.2,0-0.3c-0.3-0.3-1-0.6-1.9-0.8c-0.3-0.1-0.7-0.2-1-0.3c-0.7-0.3-1-1-1-2.1
			c0-0.7,0.3-1.3,0.9-1.7C145.5,39.2,146.2,39,147,39z"/>
		<path d="M156.1,40.2c0.6,0.4,0.9,0.9,0.8,1.4c0,0.6-0.3,1.1-0.9,1.6c-0.6,0.5-1.3,0.8-2.1,0.9c-0.1,0-0.1,0-0.2,0c0,0-0.1,0-0.2,0
			c-0.1,0-0.1,0-0.2,0c0,0-0.1,0-0.2,0c-0.1,0-0.1,0-0.2,0s-0.1,0-0.2,0c-0.1,0-0.2,0-0.2,0c0.1,1,0.2,1.6,0.5,1.9
			c0.3,0.3,0.6,0.5,0.9,0.5c0.6,0,1.2-0.2,1.8-0.7c0.6-0.5,1-0.7,1.2-0.7c0.1,0,0.2,0.1,0.4,0.3c0.2,0.2,0.3,0.4,0.3,0.5
			c0,0.2-0.1,0.4-0.4,0.6c-0.2,0.2-0.5,0.5-0.9,0.7c-0.4,0.2-0.8,0.5-1.3,0.6c-0.5,0.2-1,0.2-1.4,0.2c-0.4,0-0.8-0.1-1.1-0.4
			c-0.6-0.4-1-1-1.2-1.9c-0.3-0.9-0.4-1.8-0.3-2.7c0.1-1,0.3-1.8,0.8-2.5c0.5-0.8,1.3-1.2,2.5-1.2C154.9,39.6,155.5,39.8,156.1,40.2
			z M155.3,41.7c0-0.5-0.3-0.8-1-0.8c-0.5,0-0.9,0.2-1.3,0.7c-0.1,0.2-0.2,0.3-0.3,0.6c-0.1,0.2-0.1,0.4-0.2,0.7
			C154.4,42.9,155.3,42.5,155.3,41.7z"/>
		<path d="M159,46.1l0-0.6c0-0.8,0-1.6,0-2.5c-0.1-0.9-0.2-1.6-0.3-2.1c-0.1-0.5-0.2-0.7-0.2-0.9c0-0.1,0.1-0.2,0.3-0.3
			c0.2-0.1,0.4-0.2,0.6-0.2s0.4,0.1,0.5,0.3c0.1,0.2,0.2,0.3,0.2,0.5c0,0.2,0,0.4,0,0.7c0,0.3,0,0.5,0,0.6c0.4-0.8,0.9-1.3,1.7-1.5
			c0.4-0.1,0.8-0.2,1.3-0.2c1,0.1,1.5,0.3,1.5,0.9c0,0.3-0.2,0.6-0.5,0.7c-0.1,0.1-0.3,0.1-0.4,0.1l-0.5-0.1
			c-1.6-0.1-2.4,1.4-2.6,4.5l-0.1,1.7l0,0c-0.1,0.2-0.2,0.4-0.4,0.6c-0.2,0.2-0.4,0.2-0.6,0.2c-0.3,0-0.4-0.2-0.5-0.7
			C158.9,47.4,158.9,46.8,159,46.1z"/>
		<path d="M170.7,48.5l0.1-1c0-0.1,0-0.3,0-0.6c0-0.2,0-0.5,0-0.8c0-0.3,0-0.6,0-1c0-0.3,0-0.6-0.1-0.9c0-0.6-0.2-1.1-0.4-1.5
			c-0.2-0.4-0.5-0.6-0.8-0.6c-0.3,0-0.6,0-0.8,0.1c-0.2,0.1-0.4,0.3-0.5,0.5c-0.3,0.5-0.5,1-0.6,1.5c-0.1,0.6-0.1,1.2-0.2,1.8
			l-0.2,2c0,0.3-0.1,0.5-0.3,0.6c-0.2,0.1-0.4,0.2-0.7,0.2c-0.3,0-0.5-0.2-0.4-0.6c0.1-1,0.1-2.3,0.1-3.8c0-1.5,0.1-2.8,0.1-3.8
			c0.1-0.2,0.2-0.4,0.3-0.5c0.2-0.2,0.3-0.2,0.4-0.2c0.1,0,0.2,0,0.3,0c0.1,0,0.1,0.1,0.2,0.1s0.1,0.1,0.1,0.1c0,0,0,0.1,0.1,0.2
			c0,0.1,0,0.2,0,0.3c0,0.1,0,0.2,0,0.4c0,0.2,0,0.3,0,0.4c0.7-0.8,1.6-1.2,2.6-1.2c0.7,0,1.2,0.4,1.5,1c0.5,1,0.6,2.4,0.5,4.4
			l-0.1,1.8c0,0.5-0.1,0.8-0.1,0.9c-0.1,0.2-0.1,0.3-0.2,0.4c-0.1,0.2-0.4,0.3-0.7,0.3C170.8,49.1,170.6,48.9,170.7,48.5z"/>
		<path d="M180.6,42.6l-0.1,1.3c0,0.5-0.1,1.1-0.2,1.9c0,1.3,0.1,2.5,0.2,3.6c0,0.1-0.2,0.2-0.3,0.3c-0.2,0.1-0.3,0.1-0.5,0.1
			c-0.2,0-0.3,0-0.4-0.1c-0.1-0.1-0.2-0.1-0.2-0.2c0-0.1-0.1-0.2-0.1-0.3c0-0.1,0-0.2,0-0.3s0-0.2,0-0.2c-0.6,0.6-1.4,0.8-2.3,0.8
			c-0.9-0.1-1.6-0.4-2-1.2c-0.4-0.7-0.5-1.7-0.4-3c0.1-2.2,0.8-3.6,2.2-4.2c0.4-0.2,0.9-0.2,1.4-0.2c0.5,0,1,0.1,1.5,0.3
			c0.2-0.2,0.4-0.3,0.7-0.3c0.5,0,0.8,0.4,0.7,1.2C180.6,42.3,180.6,42.5,180.6,42.6z M178.5,47c0.3-0.7,0.4-1.4,0.5-2.2
			c0-0.8,0-1.4-0.2-1.7c-0.2-0.4-0.5-0.6-1-0.6c-0.2,0-0.5,0-0.8,0c-0.3,0-0.6,0.3-0.9,0.8c-0.3,0.5-0.5,0.9-0.5,1.3l0,0.7
			c-0.1,1.3,0.1,2.2,0.7,2.5c0.2,0.1,0.4,0.2,0.6,0.2c0.3,0,0.6-0.1,0.9-0.3C178.1,47.5,178.3,47.3,178.5,47z"/>
		<path d="M187.1,46.6l0.1-1c0-0.8,0-1.3-0.1-1.6c-0.1-0.3-0.2-0.5-0.3-0.7c-0.2-0.4-0.5-0.6-1.1-0.6s-1,0.1-1.2,0.5
			c-0.2,0.3-0.4,0.9-0.4,1.6l-0.1,3.5c-0.1,1.1-0.4,1.6-1,1.6c-0.3,0-0.5-0.2-0.5-0.6c0.1-2.5,0.1-4.8-0.1-6.7
			c0-0.2,0.1-0.5,0.3-0.7c0.2-0.2,0.4-0.3,0.6-0.3s0.4,0.2,0.5,0.4c0.5-0.6,1.1-0.9,1.9-0.8c1,0.1,1.7,0.6,2.2,1.5
			c0.7-0.9,1.5-1.3,2.6-1.2c0.5,0,0.9,0.2,1.3,0.4c0.4,0.3,0.7,0.6,0.9,0.9c0.6,1,0.8,2.6,0.6,4.8l0,0.8c0,0.8-0.1,1.3-0.3,1.5
			c-0.1,0.1-0.1,0.2-0.2,0.2c-0.1,0.1-0.3,0.1-0.5,0.1c-0.3,0-0.5-0.2-0.5-0.6l0.2-2.3c0.1-1.5,0-2.6-0.3-3.1
			c-0.2-0.3-0.4-0.6-0.7-0.8c-0.3-0.2-0.6-0.4-0.9-0.4c-0.3,0-0.5,0-0.7,0.1c-0.2,0.1-0.3,0.3-0.4,0.6c-0.2,0.5-0.4,1.5-0.5,3
			l-0.1,2.7l-0.1,0c-0.1,0.2-0.2,0.4-0.4,0.5c-0.2,0.1-0.4,0.2-0.6,0.2c-0.3,0-0.4-0.2-0.4-0.6l-0.1,0L187.1,46.6z"/>
		<path d="M200.3,42.6c0.6,0.4,0.9,0.9,0.8,1.4c0,0.6-0.3,1.1-0.9,1.6c-0.6,0.5-1.3,0.8-2.1,0.9c-0.1,0-0.1,0-0.2,0c0,0-0.1,0-0.2,0
			c-0.1,0-0.1,0-0.2,0c0,0-0.1,0-0.2,0s-0.1,0-0.2,0c0,0-0.1,0-0.2,0c-0.1,0-0.2,0-0.2,0c0.1,1,0.2,1.6,0.5,1.9
			c0.3,0.3,0.6,0.5,0.9,0.5c0.6,0,1.2-0.2,1.8-0.7c0.6-0.5,1-0.7,1.2-0.7c0.1,0,0.2,0.1,0.4,0.3c0.2,0.2,0.3,0.4,0.3,0.5
			c0,0.2-0.1,0.4-0.4,0.6s-0.5,0.5-0.9,0.7c-0.4,0.2-0.8,0.5-1.3,0.6c-0.5,0.2-1,0.2-1.4,0.2c-0.4,0-0.8-0.1-1.1-0.4
			c-0.6-0.4-1-1-1.2-1.9c-0.3-0.9-0.4-1.8-0.3-2.7c0.1-0.9,0.3-1.8,0.8-2.5c0.5-0.8,1.3-1.2,2.5-1.2C199.1,42,199.7,42.2,200.3,42.6
			z M199.5,44.1c0-0.5-0.3-0.8-1-0.8c-0.5,0-0.9,0.2-1.3,0.7c-0.1,0.2-0.2,0.3-0.3,0.6c-0.1,0.2-0.1,0.4-0.2,0.7
			C198.6,45.4,199.5,45,199.5,44.1z"/>
	</g>
	<g>
		<ellipse class="st1" cx="78.1" cy="223.9" rx="75.1" ry="14.8"/>
		<ellipse class="st3" cx="78.1" cy="223.9" rx="73.9" ry="14.6"/>
		<ellipse class="st4" cx="78.1" cy="223.9" rx="72.8" ry="14.3"/>
		<ellipse class="st5" cx="78.1" cy="223.9" rx="71.6" ry="14.1"/>
		<ellipse class="st6" cx="78.1" cy="223.9" rx="70.4" ry="13.9"/>
		<ellipse class="st7" cx="78.1" cy="223.9" rx="69.3" ry="13.7"/>
		<ellipse class="st8" cx="78.1" cy="223.9" rx="68.1" ry="13.4"/>
		<ellipse class="st9" cx="78.1" cy="223.9" rx="66.9" ry="13.2"/>
		<ellipse class="st10" cx="78.1" cy="223.9" rx="65.8" ry="13"/>
		<ellipse class="st11" cx="78.1" cy="223.9" rx="64.6" ry="12.7"/>
		<ellipse class="st12" cx="78.1" cy="223.9" rx="63.5" ry="12.5"/>
		<ellipse class="st13" cx="78.1" cy="223.9" rx="62.3" ry="12.3"/>
		<ellipse class="st14" cx="78.1" cy="223.9" rx="61.1" ry="12.1"/>
		<ellipse class="st15" cx="78.1" cy="223.9" rx="60" ry="11.8"/>
		<ellipse class="st16" cx="78.1" cy="223.9" rx="58.8" ry="11.6"/>
		<ellipse class="st17" cx="78.1" cy="223.9" rx="57.6" ry="11.4"/>
		<ellipse class="st18" cx="78.1" cy="223.9" rx="56.5" ry="11.1"/>
		<ellipse class="st19" cx="78.1" cy="223.9" rx="55.3" ry="10.9"/>
		<ellipse class="st20" cx="78.1" cy="223.9" rx="54.1" ry="10.7"/>
		<ellipse class="st21" cx="78.1" cy="223.9" rx="53" ry="10.4"/>
		<ellipse class="st22" cx="78.1" cy="223.9" rx="51.8" ry="10.2"/>
		<ellipse class="st23" cx="78.1" cy="223.9" rx="50.6" ry="10"/>
		<ellipse class="st24" cx="78.1" cy="223.9" rx="49.5" ry="9.8"/>
		<ellipse class="st25" cx="78.1" cy="223.9" rx="48.3" ry="9.5"/>
		<ellipse class="st26" cx="78.1" cy="223.9" rx="47.1" ry="9.3"/>
		<ellipse class="st27" cx="78.1" cy="223.9" rx="46" ry="9.1"/>
		<ellipse class="st28" cx="78.1" cy="223.9" rx="44.8" ry="8.8"/>
		<ellipse class="st29" cx="78.1" cy="223.9" rx="43.7" ry="8.6"/>
		<ellipse class="st30" cx="78.1" cy="223.9" rx="42.5" ry="8.4"/>
		<ellipse class="st31" cx="78.1" cy="223.9" rx="41.3" ry="8.1"/>
		<ellipse class="st32" cx="78.1" cy="223.9" rx="40.2" ry="7.9"/>
		<ellipse class="st33" cx="78.1" cy="223.9" rx="39" ry="7.7"/>
		<ellipse class="st34" cx="78.1" cy="223.9" rx="37.8" ry="7.5"/>
		<ellipse class="st35" cx="78.1" cy="223.9" rx="36.7" ry="7.2"/>
		<ellipse class="st36" cx="78.1" cy="223.9" rx="35.5" ry="7"/>
		<ellipse class="st37" cx="78.1" cy="223.9" rx="34.3" ry="6.8"/>
		<ellipse class="st38" cx="78.1" cy="223.9" rx="33.2" ry="6.5"/>
		<ellipse class="st39" cx="78.1" cy="223.9" rx="32" ry="6.3"/>
		<ellipse class="st40" cx="78.1" cy="223.9" rx="30.8" ry="6.1"/>
		<ellipse class="st41" cx="78.1" cy="223.9" rx="29.7" ry="5.9"/>
		<ellipse class="st42" cx="78.1" cy="223.9" rx="28.5" ry="5.6"/>
		<ellipse class="st43" cx="78.1" cy="223.9" rx="27.3" ry="5.4"/>
		<ellipse class="st44" cx="78.1" cy="223.9" rx="26.2" ry="5.2"/>
		<ellipse class="st45" cx="78.1" cy="223.9" rx="25" ry="4.9"/>
		<ellipse class="st46" cx="78.1" cy="223.9" rx="23.8" ry="4.7"/>
		<ellipse class="st47" cx="78.1" cy="223.9" rx="22.7" ry="4.5"/>
		<ellipse class="st48" cx="78.1" cy="223.9" rx="21.5" ry="4.2"/>
		<ellipse class="st49" cx="78.1" cy="223.9" rx="20.4" ry="4"/>
		<ellipse class="st50" cx="78.1" cy="223.9" rx="19.2" ry="3.8"/>
		<ellipse class="st51" cx="78.1" cy="223.9" rx="18" ry="3.6"/>
		<ellipse class="st52" cx="78.1" cy="223.9" rx="16.9" ry="3.3"/>
		<ellipse class="st53" cx="78.1" cy="223.9" rx="15.7" ry="3.1"/>
	</g>
	<path class="st54" d="M105.3,77.5c0,0,10.9-8.1,14.3-5.5c3.4,2.6,1.6,7.5,1.6,7.5l-15.6,4.1L105.3,77.5z"/>
	<path class="st55" d="M54.1,192c0,0,0,13-0.7,18.4c-0.7,5.5-2.4,8.2-2.6,10.4c-0.2,1.8,0.6,4.9,3.4,5.2c3.5,0.5,6.5-2.3,6.5-2.3
		s1.7,3,5.1,3c2.3,0,2.8-2.7,2.8-2.7s1,2.5,4.1,2.5c3.1,0,3.4-2.4,3.4-2.4s1.3,1.7,3.6,0.5c2.2-1.2,2.4-5.7,0.3-9.6
		c-2.1-3.8-5.9-5.8-9.7-4.9c-4.3,1-6.6,7.1-9.9,6.6c-1.5-0.2-1.8-6.6-1.8-9.8c0-3.2,0.7-13.3,0.7-13.3L54.1,192z"/>
	<path class="st56" d="M72.5,214.7c0,0,3.1,2.3,3.9,5.3c0.6,2.5,0,4.6,0,4.6l-0.4-0.4c0,0,0.5-2.9-0.3-4.9
		C74.7,217.3,72.5,214.7,72.5,214.7z"/>
	<path class="st57" d="M96.8,74.3c0,0,3.2-29.2,6.4-30.7c3.1-1.5,23.8,0.4,22.8,9.9c-0.5,5.3-4.6,7.4-8.3,5.9
		c-3.5-1.4-9.3-10.5-11-9.9c-2.1,0.7-7.3,24.8-7.3,24.8H96.8z"/>
	<path d="M76.8,93.1c0,0-15.8-29-14.6-33c1.1-4,23.5-16.2,26.2-10.4c2.7,5.8,1.2,10-1.9,11.4c-3,1.3-18-2.3-18.6-0.1
		c-0.6,2.1,10.8,31,10.8,31L76.8,93.1z"/>
	<path class="st56" d="M68.8,224.7c0,0,0.2-2.8-0.3-4.2c-0.5-1.4-2.4-2.7-2.4-2.7s1.4,1.8,1.8,3.1c0.4,1.3,0.5,3.1,0.5,3.1
		L68.8,224.7z"/>
	<path class="st56" d="M61.1,220c0,0,0.3,1.3,0.2,2.5c0,0.8-0.3,2.1-0.3,2.1l-0.5-0.7c0,0,0.3-0.8,0.4-1.6
		C61,221.5,61.1,220,61.1,220z"/>
	<path class="st55" d="M88.9,191.5c0,0,0,12.3-0.7,17.5c-0.7,5.2-2.2,7.8-2.5,9.9c-0.2,1.7,0.5,4.6,3.2,5c3.3,0.4,6.1-2.2,6.1-2.2
		s1.6,2.8,4.8,2.8c2.2,0,2.7-2.6,2.7-2.6s0.9,2.4,3.9,2.4c2.9,0,3.3-2.3,3.3-2.3s1.2,1.7,3.4,0.5c2.1-1.1,2.3-5.5,0.3-9.1
		c-2-3.6-5.6-5.5-9.2-4.7c-4.1,1-6.2,6.7-9.4,6.2c-1.4-0.2-1.7-6.2-1.7-9.3c0-3,0.7-12.6,0.7-12.6L88.9,191.5z"/>
	<path class="st56" d="M106.4,213c0,0,3,2.2,3.7,5c0.6,2.4,0,4.3,0,4.3l-0.4-0.4c0,0,0.5-2.8-0.3-4.6
		C108.5,215.6,106.4,213,106.4,213z"/>
	<path class="st56" d="M102.9,222.6c0,0,0.2-2.6-0.3-4c-0.5-1.3-2.3-2.6-2.3-2.6s1.4,1.7,1.7,2.9c0.3,1.2,0.5,3,0.5,3L102.9,222.6z"
		/>
	<path class="st56" d="M95.6,218.1c0,0,0.3,1.2,0.2,2.4c0,0.8-0.3,2-0.3,2l-0.5-0.7c0,0,0.3-0.8,0.4-1.5
		C95.5,219.6,95.6,218.1,95.6,218.1z"/>
	<path class="st58" d="M134.9,146.2c11.5-1.7,24.2-23.3,24.2-23.3l-14.1-21.3c0,0-9.3,1.6-14.5,0c-5.2-1.6-8.1-6.6-8.1-6.6
		l-14.8-12.9c0,0,0.9-6.6-2.1-8.2c-3-1.6-10-2.5-17.7,4.1c-7,6-9,11.4-12.5,12.9c-2,0.9-8.8-3.1-18.9-1.4c-9,1.6-15.1,6.5-12.2,7.1
		c7.7,1.5,15.2,4.2,14.2,5.9c-1,1.6-6.8,0.6-14.5,4.5c-7.5,3.8-11.2,9.7-9.2,9c6-2.1,13.1-1.2,13.1,0.5s-4,1.7-8.1,6.4
		c-3.8,4.4-6.1,10.4-5.1,9.6c5.4-4.2,12.8-7,13.6-4.3c0.8,2.7-13.3,21.2-10.4,40.5c2.9,19.3,14.9,27.5,32.8,29.6
		c19.9,2.2,36.9-0.5,43.9-18.9c4.8-12.6-2.7-22.5-1.9-24.9c0.8-2.3,5.7,2,7.3-2.6c0.9-2.6-7.1-4.1-4.9-6.8
		C117.4,142.4,125.3,147.6,134.9,146.2z"/>
	<circle class="st59" cx="116.3" cy="86.5" r="9.7"/>
	<circle cx="120.2" cy="86.3" r="2.6"/>
	<circle class="st1" cx="102" cy="95.2" r="14.3"/>
	<circle cx="107.3" cy="91.9" r="3.3"/>
	<path class="st58" d="M124.8,95.2c-1.3-1-2.7-1-2.7-1s-10.3,1.4-14,3.9c-5.7,3.9-5.1,10.4-4.7,11.3c0.4,1,9.7,3.8,11.9,0
		c3-5,11.1-10.2,11.1-10.2S126.6,96.7,124.8,95.2z"/>
	<path class="st58" d="M83.8,110.6c0,0,1.4-4,5.3-5.8c3.4-1.5,13.5,3.1,14.2,4.7C104.1,111.5,83.8,110.6,83.8,110.6z"/>
	<path d="M92,125.5c0,0,4.8,9.5,10,13.5c5.5,4.3,12.9,7,12.9,7l0.6-1.2c0,0-7.8-2.5-12.8-6.6C96.8,133.3,92,125.5,92,125.5z"/>
	<path class="st55" d="M58.7,145.1c0,0-8.7,20.8-9.8,22.2c-2.1,2.8-7.2-1.1-9,1.9c-1.2,2.1-1.1,6.8,1.3,7.5c2.9,0.8,6.2-5,7.8-3
		c1.6,2.1-4.9,3.6-5.1,6.7c-0.2,2.7,4.9,5.8,7.2,3.1c2.3-2.7-0.1-8.4,1.3-8.8c1.4-0.4,1.5,5.4,3.3,6.4c2.3,1.4,5.7,0.8,6.3-3.6
		c0.6-4.8-6.7-5.6-6.4-7.9c0.3-2.3,5.9-22.3,5.9-22.3L58.7,145.1z"/>
	<circle cx="158.8" cy="107.1" r="17.4"/>
	
		<ellipse transform="matrix(0.9686 -0.2486 0.2486 0.9686 -19.3075 41.9047)" class="st60" cx="156.2" cy="97.4" rx="9.8" ry="4.4"/>
	<ellipse class="st56" cx="101.6" cy="183.8" rx="2.1" ry="2"/>
	<path class="st61" d="M42.1,181.7c0,0-5.7,3.9-13.3,0c-10.8-5.6-7.7-16.9-1.1-16.6c3.8,0.2,5.8,4.3,5.8,4.3s5.7-6.6,2.3-13.6
		c-3.4-7-15.5-6.7-21-0.7c-6.5,7-3.5,14-4.1,15c-0.6,1-5.4-5.3-6.6-8.3c-0.5-1.2-4,6.4,1,14.2c3.8,6,9.6,8.1,9.1,9.2
		c-0.5,1-8.1-0.6-11.7-3.1c-0.8-0.6,1.7,8.4,11.1,10.7c8.2,2,15.9-3.7,16.2-2.6c0.3,1.1-1.9,4.1-3.4,5c-1.9,1.1,3.3,1.1,7.6-1.7
		c6.1-4,8.9-10,8.9-10L42.1,181.7z"/>
</g>
<g id="Layer_2">
	<g>
		<circle class="st54" cx="116.3" cy="86.5" r="9.7"/>
		<path class="st62" d="M124.2,81.2l0.8,0.9c0,0-4.5,1-8.8,3.1c-3.2,1.6-6.2,4.1-7.5,6.5l-0.6-0.8C108.1,91,110.9,83.4,124.2,81.2z"
			/>
		<circle class="st63" cx="101.4" cy="95.1" r="14.3"/>
		<path class="st62" d="M112.5,86.4l1.3,1.3c0,0-6.7,1.8-13,5.4c-4.7,2.7-9.1,6.6-10.8,10.4l-1-1.2C89,102.3,92.8,90.6,112.5,86.4z"
			/>
		<path class="st58" d="M124.8,95.2c-1.3-1-2.7-1-2.7-1s-10.3,1.4-14,3.9c-5.7,3.9-5.1,10.4-4.7,11.3c0.4,1,9.7,3.8,11.9,0
			c3-5,11.1-10.2,11.1-10.2S126.6,96.7,124.8,95.2z"/>
		<path class="st58" d="M83.3,110.5c0,0,1.4-4,5.3-5.8c3.4-1.5,13.5,3.1,14.2,4.7C103.6,111.4,83.3,110.5,83.3,110.5z"/>
	</g>
</g>
</svg>
