<?xml version="1.0" encoding="utf-8"?>
<!-- Generator: Adobe Illustrator 20.1.0, SVG Export Plug-In . SVG Version: 6.00 Build 0)  -->
<svg version="1.1" id="Layer_1" xmlns="http://www.w3.org/2000/svg" xmlns:xlink="http://www.w3.org/1999/xlink" x="0px" y="0px"
	 viewBox="0 0 210 210" style="enable-background:new 0 0 210 210;" xml:space="preserve">
<style type="text/css">
	.st0{fill:#8D68AC;}
	.st1{fill:#FFFFFF;}
	.st2{fill:#976828;}
	.st3{fill:#673693;}
</style>
<g>
	<g>
		<path class="st0" d="M43.2,152.1C24.6,98.5,33.5,34.4,94.6,15.7C77.5,21,70,48.5,67.8,64.2c10.4-19.4,50.7-56.6,76-45.5
			c-17.1,10.4-31.3,20.9-35.8,41.7c13.4-13.4,32.8-27.6,52.9-26.8c-8.9,8.9-16.4,17.1-20.1,29.8c8.9-6.7,20.9-12.7,32-12.7
			c-10.4,9.7-13.4,19.4-19.4,31.3c3.7-2.2,7.5-4.5,11.9-5.2c-0.7,11.2-11.2,24.6-14.9,36.5c8.2-8.9,17.9-15.7,29.8-18.6
			c-8.2,15.6-20.9,29.1-26.8,46.2c6.7-5.2,14.2-12.7,22.4-14.9c-2.2,8.9-17,35.8-25.6,43.2C140.1,177.9,63.3,193.9,43.2,152.1
			C43.2,153.6,43.2,150.6,43.2,152.1"/>
	</g>
	<g>
		<circle class="st1" cx="118.7" cy="104" r="29"/>
		<g>
			<circle class="st2" cx="118.2" cy="103" r="16.1"/>
			<ellipse cx="118.2" cy="103" rx="9" ry="9"/>
		</g>
	</g>
	<g>
		<path class="st1" d="M88.6,111.2c0,12.1-9.8,21.9-21.9,21.9c-12.1,0-21.9-9.8-21.9-21.9c0-12.1,9.8-21.9,21.9-21.9
			C78.8,89.3,88.6,99.1,88.6,111.2z"/>
		<g>
			<ellipse class="st2" cx="66.4" cy="110.4" rx="12.1" ry="12.1"/>
			<ellipse cx="66.4" cy="110.4" rx="6.8" ry="6.8"/>
		</g>
	</g>
	<g>
		<g>
			<path class="st3" d="M139.4,142.6c-2.2,2.2-4.3,4.4-6.5,6.6c-1.8,1.8-1,1.7-2.8,2c-5.5,0.9-11.3,1.1-16.9,1.6
				c-15.2,1.4-30.5,2.9-45.7,4.3c-0.8,0.1-3.6,0.5-3.7,0.4c-1.7-0.6-5.3-5.5-7-7.3c-0.6-0.6-1.6,0.3-1,1c2.6,2.7,5.3,7.7,9.2,7.6
				c6.1-0.2,12.4-1.2,18.5-1.7c15.3-1.4,30.7-2.8,46-4.3c4.6-0.5,7.7-5.8,10.8-9C141,142.9,140,142,139.4,142.6L139.4,142.6z"/>
		</g>
	</g>
</g>
</svg>
