<?xml version="1.0" encoding="utf-8"?>
<!-- Generator: Adobe Illustrator 21.0.0, SVG Export Plug-In . SVG Version: 6.00 Build 0)  -->
<svg version="1.1" id="Layer_1" xmlns="http://www.w3.org/2000/svg" xmlns:xlink="http://www.w3.org/1999/xlink" x="0px" y="0px"
	 viewBox="0 0 177 99.9" style="enable-background:new 0 0 177 99.9;" xml:space="preserve">
<style type="text/css">
	.st0{fill:#A7A8AC;}
	.st1{fill:#ECC91A;}
	.st2{fill:#FFFFFF;}
</style>
<g>
	<path class="st0" d="M2.4,21C4.9,9.7,12.2,5.9,22.7,4.2C29,3.2,34.1,3.1,45,3c40.8-0.4,93.4,2.2,112.4,10.3
		c7.3,3.1,13.2,5.4,17.5,13.7c3.4,6.6,2.2,15.7-0.3,24c-4.2,14.1-13.8,32.9-26.8,33.2c-7.1,0.2-26.8-4.1-46.9-4
		c-25.1,0.2-42.6,19.7-57,19.7c-10.5,0-15.6-4.8-19.7-11.4C19.6,81.1,10,56.6,10,56.6S0,31.8,2.4,21z"/>
	<path class="st1" d="M0.4,18C2.9,6.7,10.2,2.9,20.7,1.2C27,0.2,32.1,0.1,43,0c40.8-0.4,93.4,2.2,112.4,10.3
		c7.3,3.1,13.2,5.4,17.5,13.7c3.4,6.6,2.2,15.7-0.3,24c-4.2,14.1-13.8,32.9-26.8,33.2c-7.1,0.2-26.8-4.1-46.9-4
		c-25.1,0.2-42.6,19.7-57,19.7c-10.5,0-15.6-4.8-19.7-11.4C17.6,78.1,8,53.6,8,53.6S-2,28.8,0.4,18z"/>
	<path class="st2" d="M149.4,17.4c0,0,18.7-1.5,20.5,15.3C169.9,32.7,164.5,17.6,149.4,17.4z"/>
	<path class="st2" d="M48.4,91.3c0,0-18.3,3.7-22.2-12.8C26.2,78.6,33.3,92.9,48.4,91.3z"/>
	<path class="st2" d="M61.8,70.3c-0.4-0.1-0.9-0.2-1.2-0.5L36.1,49.7c-3.8-3.2-4.6-4.7-4.7-6c-0.1-1.4,0.6-2.8,5.3-7.6l0.2-0.3
		l19.8-19.1c0.2-0.2,0.4-0.4,0.6-0.6c0.6-0.6,1.2-1.3,2.1-1.8l0.3-0.2c0.9-0.6,2-1.2,3.2-1.3c1-0.1,1.7,0.3,2.2,0.6
		c1.3,1,1.7,2.8,1.1,5.3c-0.8,3.4-1.7,6.7-2.7,10.3v0.2l4-0.6c5.4-0.8,10.6-1.5,15.9-2.3c3.5-0.5,6.9-1,10.4-1.5
		c7.1-1,14.5-2.1,21.8-3.1c0.2,0,0.3,0,0.5-0.1c1.6-0.1,4.4-0.1,5.5,1.7c0.7,1.1,0.6,2.2,0.6,3c0,0.2,0,0.3,0,0.5c0,0.1,0,0.2,0,0.3
		c-0.1,1.7-0.2,3.5-0.4,5.2c-0.3,3.8-0.6,7.7-0.6,11.5v0.4c-0.1,5.8-0.2,9.7-5.7,10.1c-1.3,0.1-2.8,0-5.1-0.1c-9-0.4-18-0.8-27-1.3
		c-6.3-0.3-12.7-0.6-19-0.9c-0.4,0-0.7,0-1.1,0c0.1,0.3,0.2,0.6,0.3,0.9c1,3.3,1.9,6.4,2.7,9.5c0.1,0.2,0.1,0.4,0.2,0.7
		c0.5,1.8,1.6,5.7-1.6,6.9c-0.6,0.2-1.1,0.4-1.5,0.4C62.5,70.5,62.1,70.4,61.8,70.3z M113.5,29.8l-3.5,0.5
		c-4.3,0.6-8.4,1.2-12.6,1.8c-3.9,0.6-7.7,1.1-11.6,1.7c-8.4,1.2-17,2.4-25.4,3.8c-0.5,0.1-1.1,0.3-1.4,1.4
		c-0.5,1.8,0.1,4.1,0.6,4.9c10.4,0.5,20.7,1,31.1,1.4c5.5,0.2,11.1,0.5,16.8,0.7l5.5,0.2L113.5,29.8z"/>
</g>
</svg>
