<?xml version="1.0" encoding="utf-8"?>
<!-- Generator: Adobe Illustrator 21.0.0, SVG Export Plug-In . SVG Version: 6.00 Build 0)  -->
<svg version="1.1" id="Layer_1" xmlns="http://www.w3.org/2000/svg" xmlns:xlink="http://www.w3.org/1999/xlink" x="0px" y="0px"
	 viewBox="0 0 509.2 406.1" style="enable-background:new 0 0 509.2 406.1;" xml:space="preserve">
<style type="text/css">
	.st0{fill:#A7A7AB;}
	.st1{fill:#62C4B6;}
	.st2{fill:#FFFFFF;}
</style>
<path class="st0" d="M40.6,24.3C78.9-0.7,442.1,2.3,482,26.1c40,23.8,30.5,321.1,5.4,356.8c-25.1,35.7-409.4,25.5-456.1,0.2
	C-5.8,363.1,2.2,49.4,40.6,24.3z"/>
<path class="st1" d="M33.3,17.5c38.3-25.1,401.5-22,441.5,1.8c40,23.8,30.5,321.1,5.4,356.8C455,411.8,70.8,401.6,24,376.3
	C-13.1,356.2-5,42.6,33.3,17.5z"/>
<path class="st2" d="M282.8,388.7c-98.6,0-218.8-6-244.3-22.1c-25.1-15.8-25.2-105.3-25.1-153.3c0.1-52.6,12.4-144,16.8-146.7
	c2.7-1.6,164.7-5.4,220.2-5.4c57.5,0,208,6.2,215.7,7.5c21.2,3.6,21.1,7.7,23.1,64.6c1.3,38.6-1,109.3-3.4,144.5
	c-4.1,59-12.5,79.8-16.9,86c-4.5,6.5-16.2,14.5-66.6,19.9C371.1,386.9,329.8,388.7,282.8,388.7z"/>
</svg>
