<?xml version="1.0" encoding="utf-8"?>
<!-- Generator: Adobe Illustrator 20.1.0, SVG Export Plug-In . SVG Version: 6.00 Build 0)  -->
<svg version="1.1" id="Layer_1" xmlns="http://www.w3.org/2000/svg" xmlns:xlink="http://www.w3.org/1999/xlink" x="0px" y="0px"
	 viewBox="0 0 364 156" style="enable-background:new 0 0 364 156;" xml:space="preserve">
<style type="text/css">
	.st0{fill:#A7A8AC;}
	.st1{fill:#FFFFFF;}
	.st2{fill:#FFFFFF;stroke:#B8D432;stroke-width:1.5;stroke-miterlimit:10;}
	.st3{enable-background:new    ;}
	.st4{display:none;}
	.st5{display:inline;}
	.st6{fill:#FDFDFD;}
	.st7{fill:#FBFBFB;}
	.st8{fill:#F9F9F9;}
	.st9{fill:#F7F7F7;}
	.st10{fill:#F5F5F5;}
	.st11{fill:#F3F3F3;}
	.st12{fill:#F1F1F1;}
	.st13{fill:#EFEFEF;}
	.st14{fill:#EDEDED;}
	.st15{fill:#EBEBEB;}
	.st16{fill:#E9E9E9;}
	.st17{fill:#E7E7E7;}
	.st18{fill:#E4E4E4;}
	.st19{fill:#E2E2E2;}
	.st20{fill:#E0E0E0;}
	.st21{fill:#DEDEDE;}
	.st22{fill:#DCDCDC;}
	.st23{fill:#DADADA;}
	.st24{fill:#D8D8D8;}
	.st25{fill:#D6D6D6;}
	.st26{fill:#D4D4D4;}
	.st27{fill:#D2D2D2;}
	.st28{fill:#D0D0D0;}
	.st29{fill:#CECECE;}
	.st30{fill:#CCCCCC;}
	.st31{fill:#CACACA;}
	.st32{fill:#C8C8C8;}
	.st33{fill:#C6C6C6;}
	.st34{fill:#C4C4C4;}
	.st35{fill:#C2C2C2;}
	.st36{fill:#C0C0C0;}
	.st37{fill:#BEBEBE;}
	.st38{fill:#BCBCBC;}
	.st39{fill:#BABABA;}
	.st40{fill:#B8B8B8;}
	.st41{fill:#B6B6B6;}
	.st42{fill:#B4B4B4;}
	.st43{fill:#B2B2B2;}
	.st44{fill:#AFAFAF;}
	.st45{fill:#ADADAD;}
	.st46{fill:#ABABAB;}
	.st47{fill:#A9A9A9;}
	.st48{fill:#A7A7A7;}
	.st49{fill:#A5A5A5;}
	.st50{fill:#A3A3A3;}
	.st51{fill:#A1A1A1;}
	.st52{fill:#9F9F9F;}
	.st53{fill:#9D9D9D;}
	.st54{fill:#9B9B9B;}
	.st55{fill:#999999;}
	.st56{fill:#979797;}
	.st57{fill:#754D24;}
	.st58{fill:#B56F29;}
	.st59{fill:#333333;}
	.st60{fill:#1A1A1A;}
	.st61{fill:#D07E29;}
	.st62{fill:#F69220;}
	.st63{fill:#CBCBCA;}
</style>
<g id="Layer_1_1_">
	<g>
		<g>
			<path class="st0" d="M338.2,52.4c-4.2-16.5-13.3-19.2-25.1-20.8c-18.3-2.5-99.8-4.3-112.8-2.9c-10.3,1.1-16.9,8.2-21.1,21.5
				c-1,3.2-29.5,5.3-30.9,9.3c-1.8,4.8-3.7,9.9-5.3,14.5s43.1,12.6,42.7,15.5c-1.3,10.6,1.2,26.9,17.2,31.6
				c14.3,4.3,19.1,4.7,46.9,7.6c17.6,1.9,73.9,11.4,77.8,11.5c12.5,0.1,19-7.6,20.7-18.8C350.2,108.4,340.8,62.4,338.2,52.4z"/>
			<path class="st1" d="M339.3,51.9c-4.1-16.3-14.1-19.6-25.6-21.1c-17.9-2.4-97.8-4.2-110.6-2.8c-10.1,1-16.6,8-20.7,21.1
				c-1.2,3.8-29.9,6.6-31.7,11.3c-1.7,4.4-3.4,8.9-4.7,12.9c-1.4,4.1,43.4,11.6,43.1,14.2c-1.3,10.5,1.2,26.5,16.9,31.2
				c14,4.2,18.5,4.6,45.9,7.5c17.3,1.8,72.2,11.2,76,11.2c12.3,0.1,17.5-8.1,19.3-19.2C349.4,104.5,341.8,61.8,339.3,51.9z"/>
		</g>
		<g>
			<path class="st0" d="M167.7,35.1c-4-16.6-13.1-19.3-24.9-21c-18.2-2.6-86.9-3.5-99.9-2.3c-10.3,1-17,8.1-21.3,21.3
				C18.1,44,10,61.8,8.9,70c-1.4,10.6,1,26.9,17,31.8c14.2,4.4,15.9,4.1,43.7,7.3c17.6,2,25.7,3.6,21.3,8.7
				c-5.9,6.9-31.2,17.1-25.6,17.9c17.8,2.5,37.8,0.3,50.8-3c9-2.3,17.9-6.7,23.8-12.8c13.6,2.1,12.6,2.8,16.5,2.9
				c12.5,0.2,19-7.4,20.8-18.6C179.1,91.2,170.1,45.1,167.7,35.1z"/>
			<path class="st1" d="M168.8,34.6c-4-16.3-13.9-19.7-25.4-21.3c-17.9-2.6-84.9-3.4-97.6-2.1c-10.1,1-16.7,8-20.9,21
				c-3.5,10.8-11.4,28-12.4,36.1c-1.4,10.5,0.9,26.5,16.6,31.3c14,4.3,15.3,4,42.7,7.1c17.3,2,25.2,3.5,20.9,8.5
				c-5.8,6.8-30.7,17.1-25.2,17.7c16.1,1.7,38.2,0,50.8-3.7c9-2.6,16.7-6,22.4-12c13.4,2.1,12.2,2.7,16,2.8
				c12.3,0.2,17.6-7.9,19.5-19C178.4,87.3,171.2,44.5,168.8,34.6z"/>
		</g>
		<path class="st2" d="M334,54.9c-3.8-15.3-13.2-18.4-24.1-19.9c-16.8-2.3-91.2-3.9-103.2-2.6c-9.5,1-15.6,7.6-19.5,19.9
			c-0.6,2-11.7,5.1-20.4,7c-1.5-9-2.5-18.2-3.4-21.8c-3.7-15.3-13.1-18.5-23.9-20.1c-16.8-2.4-78.3-3-90.3-1.8
			c-9.5,0.9-15.7,7.5-19.7,19.8c-3.3,10.2-10.4,24.7-11.4,32.3c-1.3,9.9,0.9,24.9,15.6,29.5c13.1,4.1,25.2,5.2,50.8,8.1
			c16.2,1.9,19.7,3.8,15.7,8.5c-5.5,6.4-27.8,16.3-20.9,15.9c12.1-0.6,24.7-1.7,37.6-5.7c7.2-2.2,15.6-5.7,21-11.4
			c12.6,2,10.8,2.5,14.3,2.6c11.5,0.2,16.4-6.5,18.2-16.9c0.7-4.2-0.9-14.3-1.6-22.1c11.8,3.1,25.9,6.7,25.8,8.2
			c-1.2,9.9,1.3,27.4,16.2,31.8c13.2,3.9,28.4,5.7,54.1,8.4c16.3,1.7,55.2,8,58.7,8c11.5,0.1,16.3-6.7,18-17.1
			C343.7,102.8,336.3,64.3,334,54.9z"/>
		<g class="st3">
			<path d="M206.8,65.9c-0.1,0.4-0.5,0.6-1.2,0.5c-0.3,0-0.6-0.1-0.8-0.3c-0.2-0.2-0.3-0.4-0.3-0.7c0.1-0.8,0.5-2.3,1.1-4.4
				c0.7-2.1,1.5-4.3,2.4-6.5s2-4.2,3.1-5.9c1.1-1.7,2.1-2.5,3-2.4c0.4,0,1.1,1.5,1.9,4.3c0.8,2.8,1.5,5.9,1.9,9.3
				c0.4,3.4,0.7,5.7,0.9,6.9c0,0.4-0.2,0.7-0.4,0.9c-0.2,0.2-0.6,0.2-0.9,0.2c-0.4,0-0.7-0.2-0.9-0.4c-0.3-0.2-0.4-0.5-0.4-0.8
				l-0.8-6.9c-2.7-0.3-4.8-0.7-6.1-1.2C208,61.5,207.2,64,206.8,65.9z M213.4,49.6c-1.3,1.9-2.4,4-3.3,6.3c1.3,0.6,2.9,1,4.9,1.2
				C214.4,53.8,213.9,51.3,213.4,49.6z"/>
			<path d="M229.8,67.8l0.2-1.7c0-0.3,0.1-0.6,0.1-1c0-0.4,0.1-0.9,0.1-1.4c0-0.5,0.1-1.1,0.1-1.6c0-0.5,0-1.1,0-1.6
				c0-1-0.2-1.8-0.5-2.5c-0.3-0.7-0.7-1.1-1.3-1.1c-0.6-0.1-1,0-1.4,0.1c-0.4,0.2-0.7,0.4-1,0.8c-0.6,0.8-0.9,1.6-1.1,2.6
				s-0.3,2-0.4,3l-0.5,3.4c0,0.4-0.2,0.8-0.6,1c-0.4,0.2-0.7,0.3-1.2,0.2c-0.5-0.1-0.8-0.4-0.7-1.1c0.2-1.8,0.3-3.9,0.5-6.5
				c0.1-2.6,0.3-4.7,0.5-6.4c0.1-0.3,0.4-0.7,0.6-0.9c0.3-0.3,0.5-0.4,0.8-0.3c0.2,0,0.4,0.1,0.5,0.1s0.2,0.1,0.3,0.2
				c0.1,0.1,0.1,0.2,0.2,0.3c0,0.1,0.1,0.2,0.1,0.4c0,0.2,0,0.4,0,0.5c0,0.1,0,0.3,0,0.6c0,0.3,0,0.5,0,0.7c1.3-1.4,2.8-2,4.5-1.8
				c1.2,0.1,2,0.8,2.5,1.9c0.7,1.7,0.9,4.2,0.5,7.5l-0.2,3c-0.1,0.8-0.2,1.3-0.3,1.6c-0.1,0.3-0.2,0.5-0.4,0.7
				c-0.3,0.4-0.7,0.5-1.2,0.5C230,68.9,229.8,68.5,229.8,67.8z"/>
			<path d="M244.8,49.2c0.1-1.1,0.5-1.7,1.3-1.6c0.4,0,0.6,0.1,0.8,0.3c0.1,0.1,0.2,0.4,0.3,0.7c0,0.4,0,1.1-0.1,2.2
				c-0.1,1.1-0.2,2.4-0.3,4.1c-0.1,1.6-0.2,2.9-0.3,3.8c-0.1,0.9-0.1,2.4-0.2,4.4c-0.1,2-0.2,3.7-0.3,5l-0.2,1.8
				c-0.1,0.4-0.3,0.6-0.5,0.7c-0.2,0.1-0.6,0.1-1,0.1s-0.7-0.3-0.8-0.9l0-0.5c-1,0.6-2.1,0.9-3.4,0.7c-1.7-0.2-2.9-0.9-3.7-2.2
				c-0.8-1.3-1.2-2.8-1-4.4c0.2-1.6,0.7-3.2,1.6-4.7c0.9-1.5,2.1-2.5,3.6-3.1c0.9-0.3,1.8-0.4,2.8-0.3c0.4,0,0.7,0.1,0.9,0.1
				l0.2-2.5l0.2-2L244.8,49.2z M243.3,66.5c0.1-0.3,0.3-0.9,0.4-1.7s0.2-1.3,0.2-1.4l0.1-0.6c0.1-1.1,0.1-2.2-0.1-3.2
				c-0.2-1-0.4-1.5-0.9-1.5c-0.6-0.1-1.3-0.1-2,0c-0.7,0.1-1.2,0.2-1.5,0.5c-0.8,0.8-1.3,2.3-1.5,4.3c-0.2,1.5,0.2,2.6,1,3.5
				c0.5,0.5,1,0.8,1.7,0.9s1.2,0,1.7-0.1C242.8,67,243.1,66.8,243.3,66.5z"/>
			<path d="M267.3,58.3c0.3,0.2,0.4,0.4,0.4,0.6c0,0.4-0.2,0.9-0.5,1.4s-0.6,0.7-1.1,0.7c-0.2,0-0.6-0.2-1.2-0.5
				c-0.6-0.3-1-0.5-1.3-0.5c-1.2-0.1-2.3,0.2-3.3,1s-1.5,1.9-1.7,3.4c-0.2,1.5,0,2.6,0.3,3.4c0.4,0.8,1.2,1.3,2.4,1.4
				c0.7,0.1,1.5-0.1,2.6-0.6c1.1-0.4,1.7-0.6,2.1-0.6c0.3,0,0.5,0.1,0.7,0.3c0.2,0.2,0.2,0.4,0.2,0.7c-0.1,0.5-0.4,1-1.2,1.5
				c-0.7,0.5-1.6,0.9-2.5,1.1c-1,0.3-1.8,0.4-2.6,0.3c-1.7-0.2-3-1-3.8-2.4c-0.8-1.4-1.1-3.3-0.9-5.6c0.2-1.5,0.7-2.7,1.6-3.8
				c0.9-1.1,1.9-1.8,3.1-2.3c1.2-0.5,2.5-0.6,3.8-0.5S266.8,57.9,267.3,58.3z"/>
			<path d="M280.2,66.3c-0.1,1.3-0.3,2.6-0.6,3.8c-0.2,1.2-0.4,2.1-0.5,2.5c-0.1,0.4-0.3,0.7-0.7,0.9c-0.4,0.2-0.7,0.3-1,0.3
				c-0.6-0.1-0.9-0.4-0.8-0.9l0-0.2l0.8-5.6l0.2-1.6c0.2-2-0.1-3.3-0.9-3.9c-0.4-0.3-0.8-0.4-1.4-0.5c-1.7-0.2-2.7,0.4-2.8,1.8
				c-0.2,1.6-0.3,2.9-0.3,4c0,1.1-0.1,2-0.2,2.8s-0.2,1.5-0.3,2.2l-0.1,0.1c-0.1,0.3-0.4,0.6-0.7,0.8c-0.3,0.2-0.6,0.3-0.9,0.3
				c-0.6-0.1-0.9-0.4-0.9-0.9l-0.1,0c0.3-3.2,0.5-6.6,0.7-10.5c0.1-3.8,0.3-7.3,0.6-10.3c0.2-0.5,0.5-0.8,1-1.1
				c0.2-0.1,0.4-0.1,0.6-0.1c0.3,0,0.5,0.2,0.6,0.5c0.2,0.3,0.3,0.7,0.3,1.3s0,1.2-0.1,1.8s-0.1,1.4-0.2,2.5c-0.1,1-0.1,2-0.2,2.7
				c1.1-0.4,2.2-0.6,3.2-0.5c1,0.1,1.8,0.3,2.4,0.7c1.1,0.7,1.7,1.7,2,3S280.3,64.9,280.2,66.3z"/>
			<path d="M286.1,60.4c0.8-0.4,1.7-0.5,2.7-0.4s1.8,0.6,2.6,1.5c1.3,1.7,1.9,3.9,1.6,6.7c-0.1,1.4-0.7,2.9-1.7,4.4
				c-0.5,0.7-1.1,1.3-1.8,1.7c-0.7,0.4-1.5,0.6-2.4,0.5c-0.9-0.1-1.7-0.4-2.5-1c-0.8-0.6-1.4-1.3-1.8-2.1c-0.9-1.7-1.3-3.3-1.2-4.7
				c0.2-1.9,1-3.6,2.3-5.1C284.5,61.3,285.2,60.8,286.1,60.4z M288,72.6c0.6-0.3,1.2-0.7,1.6-1.4c0.4-0.7,0.6-1.5,0.7-2.2
				c0.1-0.8,0.1-1.5,0.1-2.1c0-0.6-0.1-1.2-0.3-1.8c-0.2-0.6-0.4-1.1-0.8-1.6c-0.4-0.4-0.8-0.8-1.4-0.9c-0.9,0.1-1.8,0.5-2.5,1.4
				c-0.7,0.9-1.1,1.8-1.2,2.7c-0.1,0.9,0.2,2.1,0.8,3.5c0.3,0.7,0.7,1.2,1.3,1.7C286.8,72.3,287.4,72.5,288,72.6z"/>
			<path d="M298.9,61.7c0.8-0.4,1.7-0.5,2.7-0.4c1,0.1,1.8,0.6,2.6,1.5c1.3,1.7,1.9,3.9,1.6,6.7c-0.1,1.4-0.7,2.9-1.7,4.4
				c-0.5,0.7-1.1,1.3-1.8,1.7c-0.7,0.4-1.5,0.6-2.4,0.5c-0.9-0.1-1.7-0.4-2.5-1c-0.8-0.6-1.4-1.3-1.8-2.1c-0.9-1.7-1.3-3.3-1.2-4.7
				c0.2-1.9,1-3.6,2.3-5.1C297.3,62.6,298.1,62.1,298.9,61.7z M300.8,73.9c0.6-0.3,1.2-0.7,1.6-1.4c0.4-0.7,0.6-1.5,0.7-2.2
				s0.1-1.5,0.1-2.1c0-0.6-0.1-1.2-0.3-1.8c-0.2-0.6-0.4-1.1-0.8-1.6s-0.8-0.8-1.4-0.9c-0.9,0.1-1.8,0.5-2.5,1.4
				c-0.7,0.9-1.1,1.8-1.2,2.7c-0.1,0.9,0.2,2.1,0.8,3.5c0.3,0.7,0.7,1.2,1.3,1.7C299.6,73.6,300.2,73.9,300.8,73.9z"/>
			<path d="M313.8,62.5c0.8,0.1,1.6,0.3,2.3,0.6c1.5,0.7,2.2,1.4,2.1,2.2c0,0.4-0.2,0.6-0.6,0.8c-0.3,0.2-0.7,0.2-1.1,0.2
				c-0.1,0-0.5-0.3-1.4-0.7c-0.8-0.5-1.5-0.7-2-0.8s-1,0-1.5,0.3c-0.5,0.3-0.7,0.6-0.8,1.1c0,0.5,0,0.9,0.3,1.3
				c0.2,0.4,0.5,0.6,1,0.8c0.4,0.2,0.9,0.4,1.4,0.5c1.3,0.4,2.3,0.8,2.8,1.1c0.9,0.5,1.3,1.5,1.2,2.8c-0.1,1.3-0.8,2.4-1.9,3.3
				c-1.1,0.9-2.2,1.3-3.4,1.2c-1.1-0.1-2-0.3-2.8-0.7c-1.3-0.6-1.9-1.3-1.8-2.1c0.1-0.7,0.6-1.1,1.5-1c0.4,0,1,0.3,1.7,0.7
				c0.7,0.4,1.3,0.7,1.9,0.8c0.5,0.1,1-0.2,1.5-0.8c0.5-0.6,0.8-1.2,0.8-1.7c0-0.1,0-0.3,0-0.5c-0.5-0.6-1.6-1.1-3.2-1.6
				c-0.6-0.2-1.1-0.4-1.7-0.7c-1.2-0.6-1.7-1.8-1.5-3.6c0.1-1.3,0.7-2.2,1.7-2.9C311.3,62.6,312.5,62.3,313.8,62.5z"/>
			<path d="M329.3,65.2c1,0.7,1.4,1.6,1.3,2.5c-0.1,0.9-0.7,1.8-1.8,2.7c-1.1,0.8-2.3,1.3-3.7,1.3c-0.1,0-0.2,0-0.3,0
				c-0.1,0-0.2,0-0.3,0c-0.1,0-0.2,0-0.3,0c-0.1,0-0.2,0-0.3,0c-0.1,0-0.2,0-0.3,0c-0.1,0-0.2,0-0.4,0s-0.3,0-0.3,0
				c0.1,1.7,0.3,2.8,0.6,3.4c0.6,0.5,1.1,0.8,1.5,1c1.1,0.1,2.1-0.2,3.1-1c1-0.8,1.7-1.2,2.1-1.1c0.1,0,0.4,0.2,0.7,0.5
				s0.5,0.7,0.4,1c0,0.3-0.3,0.6-0.7,1s-0.9,0.8-1.6,1.2c-0.6,0.4-1.4,0.7-2.2,1c-0.9,0.3-1.7,0.3-2.4,0.3c-0.7-0.1-1.3-0.3-1.9-0.7
				c-0.9-0.7-1.6-1.8-1.9-3.3c-0.4-1.5-0.5-3.1-0.3-4.7c0.2-1.6,0.7-3.1,1.5-4.3c0.9-1.4,2.4-2,4.3-1.8
				C327.3,64.1,328.3,64.5,329.3,65.2z M327.8,67.7c0.1-0.9-0.5-1.4-1.6-1.5c-0.8-0.1-1.5,0.3-2.2,1.2c-0.2,0.3-0.4,0.6-0.5,0.9
				c-0.1,0.4-0.2,0.8-0.3,1.2C326.1,69.7,327.7,69.1,327.8,67.7z"/>
		</g>
		<g class="st3">
			<path d="M217.6,90l-0.3,2.2c-0.1,0.8-0.3,1.9-0.6,3.2c-0.1,2.3-0.1,4.3,0.1,6.2c-0.1,0.2-0.3,0.4-0.6,0.5
				c-0.3,0.1-0.6,0.1-0.9,0.1c-0.3,0-0.6-0.1-0.8-0.2c-0.2-0.1-0.3-0.3-0.4-0.4s-0.1-0.3-0.1-0.5c0-0.1,0-0.3,0-0.5
				c0-0.2,0-0.4,0-0.4c-1.1,0.9-2.5,1.3-4.1,1.2c-1.6-0.2-2.7-0.9-3.2-2.2c-0.6-1.3-0.7-3-0.5-5.2c0.4-3.8,1.7-6.1,4-7
				c0.7-0.2,1.5-0.3,2.4-0.2s1.7,0.3,2.5,0.7c0.3-0.4,0.7-0.5,1.2-0.5c0.9,0.1,1.3,0.8,1.2,2.2C217.7,89.5,217.7,89.8,217.6,90z
				 M213.7,97.3c0.5-1.1,0.9-2.4,1-3.7c0.1-1.3,0.1-2.3-0.2-3s-0.8-1-1.6-1.1c-0.3,0-0.8,0-1.3,0c-0.5,0-1.1,0.4-1.7,1.3
				c-0.6,0.8-0.9,1.6-0.9,2.2l-0.1,1.3c-0.2,2.2,0.1,3.7,0.9,4.4c0.3,0.2,0.6,0.4,1.1,0.4s1-0.1,1.6-0.4
				C213,98.3,213.4,97.8,213.7,97.3z"/>
		</g>
		<g class="st3">
			<path d="M236.8,77l-0.7,4.7c0,0.3-0.1,1.6-0.2,3.7c1.6,0.2,3.1,0.3,4.6,0.3c0.8,0.3,1.1,0.8,1,1.5c-0.1,0.7-0.4,1.2-0.9,1.5
				c-0.6,0.3-1.1,0.4-1.6,0.3c-0.5,0-0.9-0.1-1.2-0.1c-0.3,0-0.7-0.1-1.1-0.1c-0.4-0.1-0.8-0.1-1-0.1c0,0.2,0,1-0.1,2.2
				s-0.1,2-0.1,2.4c-0.2,3.6-0.2,6.5,0,8.8c-0.2,0.5-0.4,0.9-0.9,1.2c-0.4,0.3-0.9,0.5-1.3,0.4s-0.8-0.4-0.9-1
				c-0.2-2.4-0.1-5.2,0.1-8.4c0.2-3.2,0.3-5.2,0.3-5.8c-0.4,0-1-0.1-1.9-0.2c-0.9-0.1-1.6-0.2-2.2-0.5c-0.6-0.2-0.9-0.6-0.8-1.2
				c0.1-1.3,1-1.9,2.5-1.7l1.9,0.2c0.3,0,0.6,0,0.8,0c0.2-2.7,0.3-4,0.3-4.1c0-0.2,0.1-0.6,0.2-1.2c0.1-0.6,0.2-1.5,0.4-2.8
				c0.1-0.4,0.4-0.8,0.9-1.1c0.4-0.3,0.8-0.4,1.2-0.3C236.4,75.8,236.7,76.2,236.8,77z"/>
			<path d="M255.9,96.4c-0.2,1.6-0.4,3.2-0.7,4.7c-0.3,1.5-0.5,2.5-0.6,3c-0.1,0.5-0.4,0.9-0.8,1.2c-0.5,0.3-0.9,0.4-1.3,0.4
				c-0.7-0.1-1.1-0.5-1-1.1l0-0.2l1-6.9l0.2-2c0.3-2.5-0.1-4-1.1-4.8c-0.4-0.3-1-0.5-1.8-0.6c-2.1-0.2-3.3,0.5-3.5,2.2
				c-0.2,2-0.3,3.6-0.4,5c0,1.4-0.1,2.5-0.2,3.5c-0.1,1-0.2,1.8-0.3,2.7l-0.1,0.1c-0.2,0.4-0.5,0.7-0.9,1c-0.4,0.3-0.8,0.4-1.2,0.3
				c-0.7-0.1-1.1-0.5-1.1-1.1l-0.1,0c0.4-3.9,0.7-8.2,0.8-12.9c0.1-4.7,0.4-9,0.7-12.8c0.2-0.6,0.6-1,1.2-1.3
				c0.2-0.1,0.5-0.1,0.8-0.1c0.3,0,0.6,0.2,0.8,0.6c0.2,0.4,0.3,0.9,0.3,1.6c0,0.7,0,1.5-0.1,2.2c-0.1,0.7-0.1,1.8-0.3,3
				c-0.1,1.3-0.2,2.4-0.2,3.4c1.4-0.5,2.7-0.8,3.9-0.6c1.3,0.1,2.3,0.4,3,0.9c1.3,0.8,2.1,2.1,2.4,3.7C256,93.1,256,94.8,255.9,96.4
				z"/>
			<path d="M269.7,90.3c1.2,0.9,1.8,2,1.6,3.1s-0.8,2.3-2.2,3.3c-1.3,1-2.8,1.6-4.6,1.7c-0.2,0-0.3,0-0.4,0c-0.1,0-0.2,0-0.4,0
				c-0.2,0-0.3,0-0.4,0c-0.1,0-0.2,0-0.4,0c-0.2,0-0.3,0-0.4,0c-0.1,0-0.2,0-0.4,0c-0.2,0-0.4,0-0.4,0c0.1,2.1,0.3,3.5,0.8,4.2
				c0.7,0.7,1.3,1,1.8,1.2c1.3,0.1,2.6-0.3,3.8-1.3c1.2-1,2.1-1.4,2.6-1.4c0.2,0,0.5,0.2,0.9,0.7c0.4,0.4,0.6,0.8,0.5,1.2
				c0,0.4-0.3,0.8-0.8,1.3c-0.5,0.5-1.2,1-1.9,1.4c-0.8,0.5-1.7,0.9-2.8,1.2c-1.1,0.3-2.1,0.4-2.9,0.3s-1.7-0.4-2.3-0.9
				c-1.1-0.9-1.9-2.3-2.4-4.1c-0.5-1.9-0.6-3.8-0.4-5.8s0.8-3.8,1.9-5.3c1.2-1.7,2.9-2.4,5.3-2.2C267.2,88.9,268.5,89.4,269.7,90.3z
				 M267.9,93.3c0.1-1.1-0.6-1.7-2-1.9c-1-0.1-1.9,0.4-2.7,1.4c-0.3,0.3-0.5,0.7-0.6,1.2c-0.1,0.5-0.3,0.9-0.4,1.4
				C265.8,95.8,267.7,95.1,267.9,93.3z"/>
			<path d="M283.9,101.8l0.3-2.2c0.2-1.7,0.2-2.8,0-3.3c-0.1-0.5-0.3-1-0.5-1.5c-0.3-0.8-1.1-1.3-2.3-1.4c-1.2-0.1-2,0.2-2.5,0.8
				c-0.5,0.7-0.8,1.8-1,3.3l-0.5,7.3c-0.2,2.3-1,3.3-2.2,3.2c-0.7-0.1-1-0.5-1.1-1.3c0.5-5.3,0.7-10.1,0.5-14.2
				c0.1-0.5,0.3-1,0.7-1.4c0.4-0.4,0.9-0.5,1.4-0.5c0.5,0,0.8,0.4,1,0.9c1.1-1.2,2.5-1.7,4.1-1.5c2,0.2,3.5,1.4,4.5,3.5
				c1.5-1.8,3.3-2.5,5.5-2.3c1,0.1,2,0.4,2.8,1c0.8,0.6,1.4,1.3,1.8,2.1c1.1,2.1,1.4,5.5,0.9,10.2l-0.2,1.7
				c-0.2,1.6-0.4,2.6-0.8,3.1c-0.1,0.1-0.3,0.3-0.5,0.5c-0.2,0.2-0.6,0.3-1.2,0.2c-0.7-0.1-1-0.5-0.9-1.4l0.6-4.9
				c0.3-3.2,0.2-5.5-0.3-6.6c-0.4-0.7-0.8-1.3-1.5-1.8c-0.6-0.5-1.3-0.8-1.9-0.9c-0.6-0.1-1.1,0-1.5,0.2c-0.4,0.2-0.7,0.6-1,1.1
				c-0.5,1-1,3.1-1.3,6.2l-0.5,5.7l-0.1,0c-0.2,0.4-0.5,0.7-0.9,1c-0.4,0.2-0.8,0.4-1.2,0.3c-0.6-0.1-0.9-0.5-0.9-1.2l-0.1,0
				L283.9,101.8z"/>
			<path d="M312.1,94.7c1.2,0.9,1.8,2,1.6,3.1s-0.8,2.3-2.2,3.3c-1.3,1-2.8,1.6-4.6,1.7c-0.2,0-0.3,0-0.4,0s-0.2,0-0.4,0
				c-0.2,0-0.3,0-0.4,0c-0.1,0-0.2,0-0.4,0c-0.2,0-0.3,0-0.4,0c-0.1,0-0.2,0-0.4,0c-0.2,0-0.4,0-0.4,0c0.1,2.1,0.3,3.5,0.8,4.2
				c0.7,0.7,1.3,1,1.8,1.2c1.3,0.1,2.6-0.3,3.8-1.3c1.2-1,2.1-1.4,2.6-1.4c0.2,0,0.5,0.2,0.9,0.7c0.4,0.4,0.6,0.8,0.5,1.2
				c0,0.4-0.3,0.8-0.8,1.3c-0.5,0.5-1.2,1-1.9,1.4c-0.8,0.5-1.7,0.9-2.8,1.2c-1.1,0.3-2.1,0.4-2.9,0.3s-1.7-0.4-2.3-0.9
				c-1.1-0.9-1.9-2.3-2.4-4.1c-0.5-1.9-0.6-3.8-0.4-5.8s0.8-3.8,1.9-5.3c1.2-1.7,2.9-2.4,5.3-2.2C309.6,93.2,310.8,93.8,312.1,94.7z
				 M310.2,97.7c0.1-1.1-0.6-1.7-2-1.9c-1-0.1-1.9,0.4-2.7,1.4c-0.3,0.3-0.5,0.7-0.6,1.2c-0.1,0.5-0.3,0.9-0.4,1.4
				C308.1,100.2,310,99.5,310.2,97.7z"/>
			<path d="M317.3,109.1c0-0.4,0.3-0.8,0.6-1.2c0.4-0.4,0.9-0.5,1.5-0.5c0.6,0.1,1.1,0.2,1.3,0.5c0.3,0.3,0.4,0.8,0.3,1.6
				c-0.1,0.8-0.3,1.4-0.7,1.6c-0.4,0.2-0.8,0.3-1.2,0.3c-0.6-0.1-1.1-0.4-1.4-0.9C317.4,109.9,317.2,109.5,317.3,109.1z M323,85.7
				L321.3,99c-0.1,1.2-0.2,2.2-0.3,2.8c-0.1,0.3-0.4,0.6-0.7,0.8c-0.3,0.2-0.7,0.3-1,0.3c-0.4,0-0.6-0.4-0.8-1
				c0.3-6.6,0.7-12.2,1.1-16.7c0.2-0.4,0.5-0.6,0.9-0.7c0.4-0.1,0.8-0.1,1.1-0.1C322.5,84.6,322.9,85,323,85.7z"/>
		</g>
		<g class="st3">
			<path d="M60.5,38.5l0.1-2.3c0.2-1.5,0.5-3.7,0.9-6.5c0.3-0.8,1-1.3,2-1.4c1-0.1,2.1-0.1,3.3,0c1.2,0.1,2.3,0.3,3.3,0.6
				c1,0.3,2,0.6,3,1.1c1,0.5,1.7,1.1,2.2,1.9c0.5,0.8,0.7,1.7,0.6,2.8c-0.1,1.1-0.4,2-1,2.9c-0.9,1.5-2.4,2.5-4.3,3
				c-2,0.5-4,0.7-6.2,0.4c-0.6-0.1-1-0.1-1.2-0.2c-0.4,4.5-0.6,6.9-0.6,7c0,0.2,0,0.4-0.1,0.7c0,0.3,0,0.5-0.1,0.7
				c0,0.2,0,0.4-0.1,0.7c-0.2,1.1-0.7,1.7-1.5,1.6c-0.2,0-0.5-0.1-0.8-0.2c-0.3-0.1-0.5-0.6-0.5-1.4c0-0.8,0-1.5,0-2.1
				c0-0.6,0.1-1.3,0.1-2c0.1-0.7,0.1-1.4,0.2-2c0.1-0.6,0.1-1.3,0.2-2c0.1-0.7,0.1-1.2,0.2-1.6c-0.3-0.3-0.4-0.6-0.4-0.8
				C60,39,60.2,38.8,60.5,38.5z M64.2,31.1c-0.2,1.3-0.4,2.4-0.5,3.4s-0.2,2.2-0.3,3.6c1.1,0.2,2,0.4,2.7,0.5
				c0.7,0.1,1.3,0.1,1.9,0.1c3.1-0.1,4.7-1.5,5-4.3c0.1-1-0.9-1.8-3.1-2.4c-1.2-0.3-2.3-0.5-3.5-0.7C65.3,31.2,64.5,31.1,64.2,31.1z
				"/>
			<path d="M81.5,39.4l-0.3,2.3l-0.9,8c-0.1,1.1-0.2,1.9-0.2,2.4c-0.1,0.4-0.3,0.8-0.7,1.1c-0.3,0.3-0.7,0.4-1.1,0.4
				c-0.4,0-0.7-0.4-0.9-1c0-0.6,0.1-1.5,0.2-2.6c0.1-1.1,0.1-2.5,0.2-4.1c0.1-1.6,0.2-3.2,0.4-4.7s0.3-2.9,0.5-4.1
				c0.1-0.4,0.4-0.6,0.9-0.6C81.1,36.6,81.7,37.6,81.5,39.4z M79.7,30c0.3-0.3,0.6-0.4,0.8-0.4c0.2,0,0.3,0,0.4,0
				c1.1,0.3,1.6,0.7,1.8,1.3c0.1,0.3,0.1,0.6,0,1.1c-0.1,0.5-0.3,1-0.8,1.5s-0.9,0.7-1.4,0.7c-0.5-0.1-0.9-0.3-1.2-0.8
				c-0.3-0.5-0.4-1.1-0.3-1.9C79,30.7,79.3,30.2,79.7,30z"/>
			<path d="M97.1,39.2c0.3,0.2,0.4,0.5,0.4,0.7c-0.1,0.5-0.2,1-0.6,1.6c-0.3,0.6-0.7,0.8-1.2,0.8c-0.2,0-0.6-0.2-1.3-0.6
				c-0.7-0.3-1.1-0.5-1.4-0.6c-1.3-0.1-2.5,0.2-3.6,1.1s-1.7,2.1-1.9,3.8c-0.2,1.6-0.1,2.9,0.4,3.8s1.3,1.4,2.6,1.6
				c0.7,0.1,1.7-0.1,2.9-0.6c1.2-0.5,1.9-0.7,2.3-0.7c0.3,0,0.6,0.2,0.8,0.4c0.2,0.2,0.2,0.5,0.2,0.7c-0.1,0.6-0.5,1.2-1.3,1.7
				c-0.8,0.6-1.7,1-2.8,1.3c-1.1,0.3-2.1,0.4-2.9,0.3c-1.9-0.2-3.3-1.1-4.2-2.7c-0.9-1.6-1.2-3.7-0.9-6.3c0.2-1.6,0.8-3.1,1.8-4.3
				c1-1.2,2.2-2.1,3.5-2.6c1.3-0.5,2.7-0.7,4.2-0.5C95.5,38.4,96.5,38.7,97.1,39.2z"/>
			<path d="M101.6,50.6l-0.3,3.6c-0.1,0.4-0.3,0.8-0.8,1.1c-0.4,0.3-0.8,0.4-1.1,0.4c-0.6-0.1-0.9-0.5-0.8-1.3
				c0.3-2.5,0.5-6,0.8-10.6c0.3-4.5,0.5-7.1,0.5-7.6l0.5-4.6c0.1-0.4,0.4-0.7,0.8-0.9c0.4-0.3,0.7-0.4,1.1-0.3
				c0.5,0.1,0.8,0.4,0.9,1.1c-0.4,3.5-0.6,5.9-0.7,7.2c-0.1,1.3-0.3,3.9-0.5,7.9c0.1-0.1,0.3-0.2,0.6-0.4c1.3-0.9,3.1-2.4,5.3-4.7
				c0.4-0.4,0.9-0.8,1.5-1c0.6-0.3,1-0.4,1.3-0.4c0.3,0,0.5,0.1,0.7,0.3s0.3,0.4,0.3,0.7c0,0-0.2,0.3-0.6,0.9
				c-1.2,1.7-2.5,3.1-3.9,4.3c1,1.3,1.8,3.3,2.6,5.8c0.3,1,0.6,1.7,0.7,2.1c0.2,0.4,0.2,0.7,0.2,1.1c0,0.4-0.2,0.7-0.5,1
				c-0.3,0.3-0.7,0.4-1.1,0.4c-0.4,0-0.9-1.1-1.4-3.3c-0.2-0.9-0.5-1.8-0.9-2.9c-0.4-1.1-0.9-1.9-1.5-2.6c-0.3,0.3-0.9,0.7-1.7,1.4
				C102.6,49.9,102,50.3,101.6,50.6z"/>
			<path d="M134.3,45.8l-0.3,2.5c-0.1,0.9-0.3,2.1-0.6,3.6c-0.2,2.5-0.1,4.8,0.1,6.9c-0.1,0.3-0.3,0.4-0.6,0.6
				c-0.3,0.1-0.7,0.2-1,0.1c-0.4,0-0.6-0.1-0.8-0.2c-0.2-0.1-0.3-0.3-0.4-0.5s-0.1-0.4-0.1-0.5c0-0.1,0-0.3,0-0.6c0-0.2,0-0.4,0-0.4
				c-1.2,1-2.7,1.5-4.5,1.3c-1.8-0.2-3-1-3.6-2.4c-0.6-1.4-0.8-3.4-0.5-5.8c0.5-4.3,2-6.9,4.5-7.8c0.8-0.3,1.7-0.4,2.6-0.3
				c1,0.1,1.9,0.4,2.8,0.8c0.4-0.4,0.8-0.6,1.3-0.5c1,0.1,1.4,0.9,1.3,2.4C134.4,45.2,134.4,45.5,134.3,45.8z M129.9,53.9
				c0.6-1.3,1-2.6,1.1-4.1c0.2-1.5,0.1-2.6-0.2-3.3c-0.3-0.7-0.9-1.2-1.8-1.2c-0.4,0-0.9-0.1-1.5,0c-0.6,0-1.2,0.5-1.8,1.4
				c-0.6,0.9-1,1.8-1,2.4l-0.2,1.4c-0.3,2.5,0.1,4.1,1,4.9c0.3,0.2,0.7,0.4,1.2,0.4c0.5,0.1,1.1-0.1,1.7-0.5
				C129.2,55,129.6,54.5,129.9,53.9z"/>
		</g>
		<g class="st3">
			<path d="M52.8,77.6c0.1-1.5,0.2-2.8,0.4-3.9c0.1-1.1,0.2-2,0.2-2.7c0-0.7,0.2-2.6,0.6-5.6c0.3-3.1,0.5-5,0.7-5.7
				c0.1-0.7,0.3-1.2,0.6-1.6c0.3-0.3,0.8-0.4,1.5-0.4c1,0.1,1.5,0.7,1.6,1.7c-0.5,2.7-1.2,7.8-2,15.5c-0.6,5.8-0.4,9.3,0.8,10.5
				c0.4-0.1,0.7-0.3,1.1-0.7c0.4-0.4,0.8-0.9,1.2-1.3c0.4-0.4,0.8-0.6,1.2-0.5s0.8,0.3,1,0.7s0.3,1.1,0.2,2
				c-0.1,0.9-0.7,1.7-1.7,2.6c-1.1,0.8-2.2,1.2-3.5,1c-2.5-0.3-3.8-2.6-4-6.9C52.6,80.7,52.7,79.1,52.8,77.6z"/>
			<path d="M76.5,72c1.3,1,1.9,2.2,1.8,3.5c-0.1,1.3-0.9,2.5-2.4,3.7c-1.5,1.2-3.2,1.8-5.1,1.8c-0.2,0-0.3,0-0.4,0
				c-0.1,0-0.2,0-0.4,0c-0.2,0-0.3,0-0.4,0s-0.2,0-0.4,0c-0.2,0-0.3,0-0.4,0c-0.1,0-0.2,0-0.5-0.1c-0.2,0-0.4,0-0.5-0.1
				c0.1,2.3,0.4,3.9,0.8,4.6c0.8,0.7,1.4,1.2,2,1.3c1.4,0.2,2.8-0.3,4.2-1.4c1.4-1.1,2.3-1.6,2.9-1.5c0.2,0,0.5,0.3,1,0.7
				c0.4,0.5,0.6,0.9,0.6,1.3c0,0.4-0.4,0.9-0.9,1.4c-0.6,0.5-1.3,1.1-2.1,1.6c-0.8,0.5-1.9,1-3.1,1.3c-1.2,0.3-2.3,0.5-3.3,0.4
				c-1-0.1-1.8-0.4-2.5-1c-1.2-1-2.1-2.5-2.6-4.6c-0.5-2.1-0.6-4.2-0.4-6.5c0.2-2.2,0.9-4.2,2.1-5.9c1.3-1.9,3.2-2.7,5.9-2.4
				C73.7,70.4,75.1,71,76.5,72z M74.4,75.4c0.1-1.2-0.6-1.9-2.2-2.1c-1.1-0.1-2.1,0.4-3,1.6c-0.3,0.4-0.5,0.8-0.7,1.3
				c-0.2,0.5-0.3,1-0.5,1.6C72.1,78.2,74.2,77.4,74.4,75.4z"/>
			<path d="M97.2,73.8l-0.1,0.4c-1.8,3.4-3.1,6.3-4.1,8.9c-1,2.5-2,5.2-3.1,8.1c-0.2,0.4-0.5,0.7-0.9,1c-0.4,0.3-0.9,0.4-1.3,0.3
				s-0.8-0.4-0.9-1.1c-0.6-3-1.6-6.4-2.9-10c-1.3-3.6-2.1-5.8-2.4-6.6c-0.3-0.8-0.4-1.4-0.3-1.8c0-0.4,0.3-0.8,0.7-1.2
				c0.4-0.4,0.9-0.5,1.4-0.5s0.9,0.4,1.2,0.9c0.3,0.9,1,2.8,2.2,5.7c1.1,3,1.9,5.4,2.4,7.2c0.2-0.5,0.5-1.3,1-2.4
				c1.6-3.9,3-7,4.2-9.3c0.6-0.7,1.3-1.1,2-1c0.5,0,0.8,0.2,0.9,0.6C97.2,73.3,97.2,73.5,97.2,73.8z"/>
			<path d="M111.1,75.7c1.3,1,1.9,2.2,1.8,3.5c-0.1,1.3-0.9,2.5-2.4,3.7c-1.5,1.2-3.2,1.8-5.1,1.8c-0.2,0-0.3,0-0.4,0
				c-0.1,0-0.2,0-0.4,0c-0.2,0-0.3,0-0.4,0c-0.1,0-0.2,0-0.4,0c-0.2,0-0.3,0-0.4,0c-0.1,0-0.2,0-0.5-0.1c-0.2,0-0.4,0-0.5-0.1
				c0.1,2.3,0.3,3.9,0.8,4.6c0.8,0.7,1.4,1.2,2,1.3c1.4,0.2,2.8-0.3,4.2-1.4c1.4-1.1,2.3-1.6,2.9-1.5c0.2,0,0.5,0.3,1,0.7
				s0.6,0.9,0.6,1.3c0,0.4-0.4,0.9-0.9,1.4c-0.6,0.5-1.3,1.1-2.1,1.6c-0.8,0.5-1.9,1-3.1,1.3c-1.2,0.3-2.3,0.5-3.3,0.4
				c-1-0.1-1.8-0.4-2.5-1c-1.2-1-2.1-2.5-2.6-4.6c-0.5-2.1-0.6-4.2-0.4-6.5c0.2-2.2,0.9-4.2,2.1-5.9c1.3-1.9,3.2-2.7,5.9-2.4
				C108.4,74.1,109.7,74.7,111.1,75.7z M109,79c0.1-1.2-0.6-1.9-2.2-2.1c-1.1-0.1-2.1,0.4-3,1.6c-0.3,0.4-0.5,0.8-0.7,1.3
				c-0.2,0.5-0.3,1-0.5,1.6C106.7,81.8,108.8,81.1,109,79z"/>
			<path d="M117,84.5c0.1-1.5,0.2-2.8,0.4-3.9c0.1-1.1,0.2-2,0.2-2.7c0-0.7,0.2-2.6,0.6-5.6c0.3-3.1,0.5-5,0.7-5.7
				c0.1-0.7,0.3-1.2,0.6-1.6c0.3-0.3,0.8-0.4,1.5-0.4c1,0.1,1.5,0.7,1.6,1.7c-0.5,2.7-1.2,7.8-2,15.5c-0.6,5.8-0.4,9.3,0.8,10.5
				c0.4-0.1,0.7-0.3,1.1-0.7c0.4-0.4,0.8-0.9,1.2-1.3s0.8-0.6,1.2-0.5s0.8,0.3,1,0.7s0.3,1.1,0.2,2c-0.1,0.9-0.7,1.7-1.7,2.6
				c-1.1,0.8-2.2,1.2-3.5,1c-2.5-0.3-3.8-2.6-4-6.9C116.9,87.6,116.9,86,117,84.5z"/>
			<path d="M129.1,93c0-0.5,0.3-0.9,0.7-1.3c0.4-0.4,1-0.6,1.7-0.5s1.2,0.2,1.5,0.5c0.3,0.3,0.4,0.9,0.3,1.8
				c-0.1,0.9-0.4,1.5-0.8,1.8c-0.5,0.3-0.9,0.4-1.3,0.3c-0.7-0.1-1.2-0.4-1.5-1C129.2,94,129,93.5,129.1,93z M135.5,67l-2,14.9
				c-0.1,1.4-0.2,2.4-0.3,3.2c-0.2,0.4-0.4,0.7-0.8,0.9c-0.4,0.3-0.7,0.4-1.2,0.3s-0.7-0.4-0.9-1.1c0.3-7.4,0.8-13.6,1.3-18.6
				c0.2-0.4,0.5-0.6,1-0.8c0.5-0.1,0.9-0.1,1.2-0.1C134.9,65.8,135.4,66.3,135.5,67z"/>
		</g>
	</g>
</g>
<g id="Layer_2" class="st4">
	<g class="st5">
		<ellipse class="st1" cx="64.5" cy="141.3" rx="75.1" ry="14.7"/>
		<ellipse class="st6" cx="64.5" cy="141.3" rx="73.9" ry="14.5"/>
		<ellipse class="st7" cx="64.5" cy="141.3" rx="72.8" ry="14.3"/>
		<ellipse class="st8" cx="64.5" cy="141.3" rx="71.6" ry="14.1"/>
		<ellipse class="st9" cx="64.5" cy="141.3" rx="70.4" ry="13.8"/>
		<ellipse class="st10" cx="64.5" cy="141.3" rx="69.3" ry="13.6"/>
		<ellipse class="st11" cx="64.5" cy="141.3" rx="68.1" ry="13.4"/>
		<ellipse class="st12" cx="64.5" cy="141.3" rx="66.9" ry="13.1"/>
		<ellipse class="st13" cx="64.5" cy="141.3" rx="65.8" ry="12.9"/>
		<ellipse class="st14" cx="64.5" cy="141.3" rx="64.6" ry="12.7"/>
		<ellipse class="st15" cx="64.5" cy="141.3" rx="63.5" ry="12.5"/>
		<ellipse class="st16" cx="64.5" cy="141.3" rx="62.3" ry="12.2"/>
		<ellipse class="st17" cx="64.5" cy="141.3" rx="61.1" ry="12"/>
		<ellipse class="st18" cx="64.5" cy="141.3" rx="60" ry="11.8"/>
		<ellipse class="st19" cx="64.5" cy="141.3" rx="58.8" ry="11.5"/>
		<ellipse class="st20" cx="64.5" cy="141.3" rx="57.6" ry="11.3"/>
		<ellipse class="st21" cx="64.5" cy="141.3" rx="56.5" ry="11.1"/>
		<ellipse class="st22" cx="64.5" cy="141.3" rx="55.3" ry="10.9"/>
		<ellipse class="st23" cx="64.5" cy="141.3" rx="54.1" ry="10.6"/>
		<ellipse class="st24" cx="64.5" cy="141.3" rx="53" ry="10.4"/>
		<ellipse class="st25" cx="64.5" cy="141.3" rx="51.8" ry="10.2"/>
		<ellipse class="st26" cx="64.5" cy="141.3" rx="50.6" ry="9.9"/>
		<ellipse class="st27" cx="64.5" cy="141.3" rx="49.5" ry="9.7"/>
		<ellipse class="st28" cx="64.5" cy="141.3" rx="48.3" ry="9.5"/>
		<ellipse class="st29" cx="64.5" cy="141.3" rx="47.1" ry="9.3"/>
		<ellipse class="st30" cx="64.5" cy="141.3" rx="46" ry="9"/>
		<ellipse class="st31" cx="64.5" cy="141.3" rx="44.8" ry="8.8"/>
		<ellipse class="st32" cx="64.5" cy="141.3" rx="43.7" ry="8.6"/>
		<ellipse class="st33" cx="64.5" cy="141.3" rx="42.5" ry="8.3"/>
		<ellipse class="st34" cx="64.5" cy="141.3" rx="41.3" ry="8.1"/>
		<ellipse class="st35" cx="64.5" cy="141.3" rx="40.2" ry="7.9"/>
		<ellipse class="st36" cx="64.5" cy="141.3" rx="39" ry="7.7"/>
		<ellipse class="st37" cx="64.5" cy="141.3" rx="37.8" ry="7.4"/>
		<ellipse class="st38" cx="64.5" cy="141.3" rx="36.7" ry="7.2"/>
		<ellipse class="st39" cx="64.5" cy="141.3" rx="35.5" ry="7"/>
		<ellipse class="st40" cx="64.5" cy="141.3" rx="34.3" ry="6.7"/>
		<ellipse class="st41" cx="64.5" cy="141.3" rx="33.2" ry="6.5"/>
		<ellipse class="st42" cx="64.5" cy="141.3" rx="32" ry="6.3"/>
		<ellipse class="st43" cx="64.5" cy="141.3" rx="30.8" ry="6.1"/>
		<ellipse class="st44" cx="64.5" cy="141.3" rx="29.7" ry="5.8"/>
		<ellipse class="st45" cx="64.5" cy="141.3" rx="28.5" ry="5.6"/>
		<ellipse class="st46" cx="64.5" cy="141.3" rx="27.3" ry="5.4"/>
		<ellipse class="st47" cx="64.5" cy="141.3" rx="26.2" ry="5.1"/>
		<ellipse class="st48" cx="64.5" cy="141.3" rx="25" ry="4.9"/>
		<ellipse class="st49" cx="64.5" cy="141.3" rx="23.8" ry="4.7"/>
		<ellipse class="st50" cx="64.5" cy="141.3" rx="22.7" ry="4.5"/>
		<ellipse class="st51" cx="64.5" cy="141.3" rx="21.5" ry="4.2"/>
		<ellipse class="st52" cx="64.5" cy="141.3" rx="20.4" ry="4"/>
		<ellipse class="st53" cx="64.5" cy="141.3" rx="19.2" ry="3.8"/>
		<ellipse class="st54" cx="64.5" cy="141.3" rx="18" ry="3.5"/>
		<ellipse class="st55" cx="64.5" cy="141.3" rx="16.9" ry="3.3"/>
		<ellipse class="st56" cx="64.5" cy="141.3" rx="15.7" ry="3.1"/>
	</g>
	<g class="st5">
		<path class="st57" d="M45.5,94.6c0,0-0.4,13-1.2,17.5c-1.1,5.5-4.5,11.2-4.7,13.1c-0.2,1.5,0.5,4,2.7,4.3c2.9,0.4,5.3-1.9,5.3-1.9
			s1.4,2.4,4.1,2.4c1.9,0,2.3-2.2,2.3-2.2s0.8,2,3.3,2s2.8-2,2.8-2s1.1,1.4,2.9,0.4c1.8-1,1.9-4.7,0.2-7.8c-1.7-3.1-4.8-4.7-7.9-4
			c-3.5,0.8-5.3,5.8-8,5.3c-1.2-0.2,1.9-7.4,2.4-11.8c0.6-5.3-1-14.8-1-14.8L45.5,94.6z"/>
		<path class="st57" d="M75.7,99.9c0,0,4.3,9.9,3.7,14.6c-0.6,4.7-2.1,8.7-3.1,10.5c-0.7,1.4-0.9,3.6,0.6,3.7c3,0.3,5.1-0.4,5.1-0.4
			s1.5,2.5,4.4,2.5c2,0,2.4-2.4,2.4-2.4s0.8,2.1,3.5,2.2c2.6,0,3-2.1,3-2.1s1.1,1.5,3.1,0.4c1.9-1,2.6-3.8,0.8-7.1
			c-1.8-3.3-4.8-5.5-8.1-4.8c-3.7,0.9-5.8,5.5-8.6,5.1c-1.3-0.2,0-6.5,0-9.2s-2.9-13.1-2.9-13.1h-3.9V99.9z"/>
		<path class="st58" d="M34.1,101.6c0,0-0.4,15.4-1.5,20.7c-1.3,6.5-5.3,13.3-5.6,15.4c-0.2,1.8,0.5,4.7,3.2,5
			c3.4,0.4,6.2-2.2,6.2-2.2s1.6,2.9,4.9,2.9c2.2,0,2.7-2.6,2.7-2.6s0.9,2.4,3.9,2.4c2.9,0,3.3-2.3,3.3-2.3s1.3,1.7,3.5,0.5
			c2.1-1.2,2.3-5.5,0.3-9.2s-5.7-5.6-9.3-4.7c-4.2,1-6.3,6.8-9.5,6.3c-1.4-0.2,2.3-8.7,2.8-13.9c0.7-6.2-1.1-17.5-1.1-17.5
			L34.1,101.6z"/>
		<path class="st57" d="M48,131.8c0,0,3,2.3,3.7,5.1c0.6,2.4,0,4.4,0,4.4l-0.4-0.4c0,0,0.5-2.8-0.3-4.7
			C50.2,134.3,48,131.8,48,131.8z"/>
		<path class="st59" d="M120.4,48.6c0,0,24.4-14.1,29.2-12.7c4.9,1.3,17.8,16.6,14.5,21.1s-8.5,4.7-10.9,3s-4.6-15.9-6.3-17.4
			s-25.6,9.2-25.6,9.2L120.4,48.6z"/>
		<path d="M145.6,68.8c0,0,22.5-1.4,24.5,0.9s4.4,30-0.1,33.5c-4.1,3.2-10.5,0.8-11.9-5.2c-1.1-4.9,7.3-19.9,7.1-22.6
			S146.5,71,146.5,71L145.6,68.8z"/>
		<path class="st57" d="M44.5,141.4c0,0,0.2-2.7-0.3-4c-0.5-1.4-2.3-2.6-2.3-2.6s1.4,1.7,1.7,3c0.3,1.2,0.5,3,0.5,3L44.5,141.4z"/>
		<path class="st57" d="M37.1,136.9c0,0,0.3,1.3,0.2,2.4c0,0.8-0.3,2-0.3,2l-0.5-0.7c0,0,0.3-0.8,0.4-1.5
			C37,138.4,37.1,136.9,37.1,136.9z"/>
		<path class="st58" d="M69.4,106.7c0,0,5.8,12.2,5,17.8c-0.7,5.6-4.4,9.8-5.6,12c-0.9,1.7-0.4,4.1,0.8,4.8c3.1,1.9,7.4-0.9,7.4-0.9
			s1.7,3,5.2,3c2.3,0,2.9-2.8,2.9-2.8s1,2.5,4.1,2.6c3.1,0,3.5-2.5,3.5-2.5s1.3,1.8,3.7,0.5c2.2-1.2,3-4.5,0.9-8.4s-5.7-6.6-9.5-5.7
			c-4.4,1-7.6,6.5-11,6c-1.5-0.2,3.6-8.6,3.6-11.8c0-3.2-6.2-14.6-6.2-14.6L69.4,106.7L69.4,106.7z"/>
		<path class="st57" d="M90.3,132.1c0,0,2.1,1.4,2.8,4.4c0.6,2.5,0,4.6,0,4.6l-0.4-0.4c0,0,0.5-3-0.3-5
			C91.5,133.8,90.3,132.1,90.3,132.1z"/>
		<path class="st57" d="M85.4,141.3c0,0,0.2-2.8-0.3-4.3c-0.5-1.4-1.7-2.7-1.7-2.7s0.8,1.8,1.1,3.1c0.4,1.3,0.5,3.2,0.5,3.2
			L85.4,141.3z"/>
		<path class="st57" d="M77.6,136.5c0,0,0.3,1.3,0.2,2.5c0,0.8-0.3,2.1-0.3,2.1l-0.5-0.7c0,0,0.3-0.9,0.4-1.6
			C77.5,138.1,77.6,136.5,77.6,136.5z"/>
		<path class="st60" d="M28.6,42.6c0,0-12.9,2.3-29.9-0.5C-15.4,39.9-28.7,32-30.4,34s2.6,18.5,17.3,24.2c9.8,3.8,19-7.5,20.4-6.6
			s-3.6,7-8.4,10.3C-3,63.2,5.7,64.6,10.8,59c3-3.4,4.8-8.6,5.9-8.6S13.2,61.8,15,62.1c1.7,0.3,4.4-1.4,8.4-6.7
			c4.5-6,5.1-10.5,5.1-10.5L28.6,42.6z"/>
		<path class="st61" d="M146.5,71.1c0,0,6.5,3.3,7.6,8s-1.1,6.4-2.4,6.6c-1.2,0.2-3.5-0.9-3.5-0.9l-7-7.3L146.5,71.1z"/>
		<path class="st62" d="M144.8,107.9l-5.8-15l6-18.3c0,0,2.8,0.1,3.6-4.7c0.7-4.8-5.4-10.6-10.4-11.4c-4.9-0.9-15.8-0.9-15.8-0.9
			s2.5-7.1-0.8-14.5s-15.7-18-16.7-16.8s7.3,19.5,6.5,20.1c-0.8,0.6-5.9-8.2-9.9-11.5c-4.1-3.3-12.7-8.4-13.2-7.2
			c-0.6,1.2,10.1,16.7,10.1,16.7s-6.4-5.2-10.3-7.1c-4-1.9-10.4-3.8-10.7-2.8c-0.3,0.9,7.7,10.6,7.1,10.8
			c-0.6,0.2-54.7-4.1-55.9-2.5c-1.1,1.5-5.7,30.5-3.1,43.3C27.4,95,33.6,107,53,109.9s19.8-0.1,26-1.1c4.4-0.7,9.9,2.9,9.9,2.9
			s5.6,6.2,17.7,11.1c11.8,4.8,21.8,6,21.8,6L144.8,107.9z"/>
		
			<ellipse transform="matrix(0.1195 -0.9928 0.9928 0.1195 42.047 212.1768)" class="st63" cx="140.6" cy="82.4" rx="9.8" ry="9.8"/>
		<ellipse transform="matrix(0.1196 -0.9928 0.9928 0.1196 40.3992 221.9619)" cx="145.4" cy="88.2" rx="2" ry="2"/>
		
			<ellipse transform="matrix(0.1196 -0.9928 0.9928 0.1196 40.2614 196.0971)" class="st1" cx="130.7" cy="75.3" rx="12.2" ry="12.2"/>
		<ellipse transform="matrix(0.1196 -0.9928 0.9928 0.1196 39.6758 207.8879)" cx="137.1" cy="81.6" rx="2.3" ry="2.3"/>
		<path class="st62" d="M113.8,78.8c0,0,3.5-1.2,7.8,0c6,1.7,20.4,10.1,20.7,13.2c0.2,2.1-2.5,1.8-3,1.7c-0.4-0.1-5.4-0.8-13.6-5
			S113.8,78.8,113.8,78.8z"/>
		<path d="M88.9,111.8c0,0-4.7-9.9-3-19.6c1.7-9.6,9.6-18.4,9.6-18.4s-7.9,6.8-10.3,16.9c-2.3,9.7,2.1,20.2,2.1,20.2L88.9,111.8z"/>
		<ellipse transform="matrix(0.1195 -0.9928 0.9928 0.1195 0.7321 245.331)" cx="138.7" cy="122.3" rx="20" ry="18.9"/>
		<ellipse transform="matrix(0.57 -0.8216 0.8216 0.57 -31.8175 166.3979)" class="st59" cx="143.1" cy="113.6" rx="4.4" ry="8.7"/>
	</g>
</g>
</svg>
