<?xml version="1.0" encoding="utf-8"?>
<!-- Generator: Adobe Illustrator 21.0.0, SVG Export Plug-In . SVG Version: 6.00 Build 0)  -->
<svg version="1.1" id="Layer_1" xmlns="http://www.w3.org/2000/svg" xmlns:xlink="http://www.w3.org/1999/xlink" x="0px" y="0px"
	 viewBox="0 0 455 564" style="enable-background:new 0 0 455 564;" xml:space="preserve">
<path style="fill:#A7A8AC;" d="M161.6,549.7c14.9-1,32.5-3.9,47.3-5.8c8-1,183.4-25.9,196.3-28.9c10.7-2.6,23.1-9.6,29.7-18
	c11.3-14.7,10.4-33,10.8-50.8c0.4-16.7-6.9-317.6-30.8-385.6c-3.9-11-6.7-19.9-18.5-28.2c-9.5-6.6-25.2-7.2-38-5.4
	C308,34.3,116.7,57.2,92,68.6C57.5,84.6,81.3,335,80.4,345.8c-0.1,1.8-1.6,9.5-2,21.5c-9.9,7.3-15.8,10.3-32.2,14.3
	c-4.3,1-24.8,3.9-37.1,4.8c-4.4,0.3,18.2,16.3,29.1,20.6c21.2,8.3,38.9,8.2,39.4,8.3c-1.6,66-2.2,46.1-1.9,66.5
	c0.3,21.9,2.1,40.2,22,55.7C116.6,552.2,137.9,551.3,161.6,549.7z"/>
<path style="fill:#FFFFFF;" d="M161.8,539.3c14.9-1,29.8-2.6,44.5-4.5c8-1,184.1-24.4,197-27.5c10.7-2.5,22.4-10.9,28.9-19.3
	c11.3-14.6,10.4-32.9,10.8-50.6c0.4-16.6-6.9-316.6-30.8-384.3c-3.9-11-6.7-19.8-18.5-28c-9.5-6.6-25.2-7.2-38-5.3
	c-50.4,7.2-242,29.3-266.4,41.5C74.5,68.7,68.8,86,67.2,96.6c-5,33.9,12.9,260,8.7,263c-4.2,3-15.8,10.3-32.2,14.2
	c-4.3,1-24.8,3.9-37.1,4.8c-4.4,0.3,18.2,16.2,29.1,20.5c21.2,8.3,38.9,8.2,39.4,8.2c-1.6,65.7-2.2,45.3-1.9,65.6
	c0.3,21.8,2.9,37.4,22.8,52.9C114.9,540.6,138.1,541,161.8,539.3z"/>
<path style="fill:#B8D432;" d="M151.3,537.4c-21.1,0-36.1-4.4-48.5-14.4c-20.6-16.5-22.4-33.2-22.7-53.2c-0.2-9.9-0.1-11.3,0.2-18.2
	c0.3-6.4,0.7-18,1.4-46.3c-5.4-0.3-15.2-1.2-27.7-4.2c-4.6-1.1-10.9-3.4-16.9-6.1c-9-4-11.6-6.1-11.3-9.2c0.2-1.8,1.5-3.7,4.3-4
	c11.1-0.9,21.5-3.1,25.5-4c14.7-3.6,24.5-11.4,27.7-13.9l0.2-0.1c0.3-1.1,0.8-4.7-0.2-16.4c-0.1-0.6-0.1-1.1-0.1-1.3
	c-0.1-2-13.3-210.4-6.4-250c2.4-13.8,10.6-26.5,19.9-31c16.4-7.8,105.3-19.7,202.7-32.3c24.2-3.1,45-5.8,56.7-7.5
	c4-0.6,7.9-0.9,11.5-0.9c9.8,0,17.9,2.3,24.1,6.7c11.7,8.4,14.7,17.3,18.3,27.7l0.4,1.1c22.8,66.5,30.1,360.4,29.8,374.5l0,3.1
	c-0.2,16.4-0.5,33.4-11.2,47.6c-6,8.1-17.2,17.5-28.8,20.3c-11.4,2.8-161.3,23.1-191.2,27.1l-0.5,0.1c-14.7,1.9-28.7,3.4-41.6,4.3
	C160.7,537.2,155.8,537.4,151.3,537.4C151.3,537.4,151.3,537.4,151.3,537.4z"/>
<path style="fill:#FFFFFF;" d="M166.4,532.8c13.8-1,27.7-2.5,41.4-4.3c7.4-1,179.3-24.2,191.3-27.1c9.9-2.4,20.5-10.7,26.5-18.8
	c10.5-14,10.1-31.3,10.4-48.3c0.3-15.9-7.4-308.3-29.6-373.1c-3.6-10.5-6.2-19-17.2-26.9c-8.8-6.3-20.9-6.9-32.7-5.1
	c-46.8,6.9-235.3,28.5-258.2,39.4C90.9,72.2,83,83.2,80.6,96.7c-6.6,38.2,6,242,6.5,249.1c0.1,1.7,2,18.6-0.7,20.7
	s-13.2,11.1-29.9,15.2c-3.9,0.9-14.6,3.2-26.1,4.1c-4.1,0.3,14,8.8,24.6,11.4c18,4.4,30.3,4.2,30.8,4.2c-1.5,63-2,49-1.7,68.4
	c0.3,20.9,2.8,35.3,21.2,50.1C122.8,533.9,144.4,534.3,166.4,532.8z"/>
</svg>
