<?xml version="1.0" encoding="utf-8"?>
<!-- Generator: Adobe Illustrator 21.0.0, SVG Export Plug-In . SVG Version: 6.00 Build 0)  -->
<svg version="1.1" id="Layer_1" xmlns="http://www.w3.org/2000/svg" xmlns:xlink="http://www.w3.org/1999/xlink" x="0px" y="0px"
	 viewBox="0 0 585.6 591.7" style="enable-background:new 0 0 585.6 591.7;" xml:space="preserve">
<style type="text/css">
	.st0{fill:#A7A7AB;}
	.st1{fill:#3CA7C2;}
	.st2{fill:#FFFFFF;}
</style>
<path class="st0" d="M45.1,28C89.1-0.9,507,2.7,553,30c46,27.4,38,493.9,9.1,535c-28.9,41.1-471.1,29.4-524.8,0.3
	C-5.5,542.2,1,56.9,45.1,28z"/>
<path class="st1" d="M36.7,20.1c44.1-28.9,462-25.3,508,2c46,27.4,38,493.9,9.1,535c-28.9,41.1-471.1,29.4-524.8,0.3
	C-13.8,534.3-7.4,49,36.7,20.1z"/>
<path class="st2" d="M326.6,571.7c-113.5,0-250.6-8.9-281.1-25.4c-7.6-4.1-16.2-14.7-22.4-62c-3.8-28.6-6.2-66.9-7.3-113.9
	c-1.4-60.5-0.2-133.9,3-196.2C24.1,71.8,28,79.6,33.1,76.6c3.1-1.9,189.5-6.2,253.4-6.2c66.1,0,239.2,7.8,248.2,8.6
	c11.1,1,23.7,0.6,26,66.1c1.5,44.4,1.6,99.2,1.2,150.3c-0.5,61.3-2.3,115.2-5.1,155.7c-4.7,67.8-11.1,84.7-16.1,91.9
	c-5.2,7.4-18.6,16.7-76.6,22.9C428.3,569.7,380.7,571.7,326.6,571.7z"/>
</svg>
