<?xml version="1.0" encoding="utf-8"?>
<!-- Generator: Adobe Illustrator 20.1.0, SVG Export Plug-In . SVG Version: 6.00 Build 0)  -->
<svg version="1.1" id="Layer_1" xmlns="http://www.w3.org/2000/svg" xmlns:xlink="http://www.w3.org/1999/xlink" x="0px" y="0px"
	 viewBox="0 0 2070.2 1554.2" style="enable-background:new 0 0 2070.2 1554.2;" xml:space="preserve">
<style type="text/css">
	.st0{opacity:0.2;fill:#ECC918;}
	.st1{opacity:0.2;fill:#FE9300;}
	.st2{opacity:0.2;fill:#AA52CB;}
	.st3{opacity:0.2;fill:#FDFDFD;}
	.st4{opacity:0.2;fill:#FE4697;}
	.st5{opacity:0.2;fill:#B9D501;}
	.st6{opacity:0.2;fill:#5EC6B7;}
	.st7{opacity:0.2;fill:#FCFCFC;}
</style>
<path class="st0" d="M915.1,57.3c5.2-11.6,14.2-18.9,26-23.2c1.1-0.4,2.9,0.1,3.2-1.8c7.7,0,15.3,0,23,0c3.5,2.7,8,3.4,11.8,5.6
	c8.1,4.6,13.8,11.5,18.4,19.4c0.9,1.3,1.3,2.7,1.8,4.2c2.9,10.5,2.9,21.1,0,31.6c-0.5,1.4-0.9,2.9-1.8,4.2
	c-5.2,9.1-12,16.5-21.6,21.1c-15,7.1-38.5,5.8-51.5-8.1c-3.7-4-7-8.1-9.2-13c-0.9-1.3-1.3-2.7-1.8-4.2c-3.2-10.5-3.2-21.1,0-31.6
	C913.9,60,914.3,58.6,915.1,57.3z"/>
<path class="st1" d="M116.2,1447.6c0.6,0.9,1.2,1.8,1.9,2.7c2.2,2.4,3.3,5.3,4.1,8.3c0.2,0.6,0.4,1.1,0.6,1.7
	c2.1,1.2,0.2,3.6,1.4,5.1c0,5.9,0,11.7,0,17.6c-1.2,1.5,0.7,3.9-1.4,5.1c-0.2,0.6-0.4,1.1-0.6,1.7c-0.9,3-2,5.9-4.1,8.3
	c-0.6,0.9-1.2,1.8-1.9,2.7c-0.5,2.1-2.3,3.2-3.9,4.4c-2.7,2.4-5.3,4.7-8,7.1c-1.9,1.2-4,2.1-6.1,2.9c-0.6,0.3-1.3,0.6-1.9,1
	c-1.6,1-3.5,1.1-5,2.1c-7.7,0-15.3,0-23,0c-1.1-1.2-2.7-1.3-4-2.1c-0.7-0.3-1.5-0.6-2.2-0.9c-1.9-1-3.9-1.7-5.7-2.9
	c-3.4-1.7-5.8-4.4-8.3-7.1c-1.4-1.2-2.8-2.4-3.7-4.1c-0.7-1-1.4-2-2.1-2.9c-1.6-2.5-2.8-5.3-3.9-8c-0.3-0.6-0.6-1.3-0.9-1.9
	c-1.4-1.5,0.1-3.6-1-5.2c0-5.9,0-11.7,0-17.6c1.1-1.6-0.3-3.7,1-5.2c0.3-0.6,0.6-1.3,0.9-1.9c1.2-2.7,2.4-5.5,3.9-8
	c0.7-1,1.4-2,2.1-2.9c0.9-1.6,2.3-2.8,3.7-4.1c2.3-2.9,5.3-5,8.3-7.1c1.9-1.1,4-2,6.1-2.8c0.6-0.3,1.3-0.6,1.9-1
	c2.2-1.5,4.8-1.3,7.2-2c5.9,0,11.7,0,17.6,0c2.3,0.9,5.2,0.1,7.1,2.4c0.7,0.2,1.3,0.4,2,0.6c2.1,1,4.4,1.4,6,3.2
	c2.7,2.2,5.4,4.5,8.1,6.7C113.9,1444.4,115.6,1445.5,116.2,1447.6z"/>
<path class="st2" d="M2042.3,230.3c-3.8,1.9-4.3,6.2-6.4,9.3c-12.2,17.3-42.6,15.5-52.2-3.5c-6.4-12.5-3.4-31.7,6.2-39.5
	c13.1-10.7,32.5-9.4,43.4,1.5c2.9,2.9,5.4,6.3,6.8,10.3c0.5,1.3,0.7,2.6,2.2,3C2042.3,217.6,2042.3,223.9,2042.3,230.3z"/>
<path class="st3" d="M91.3,1518.3c1.1-2,3.2-1.6,5-2.1c-0.7,0.7-1.3,1.4-2,2.1C93.3,1518.3,92.3,1518.3,91.3,1518.3z"/>
<path class="st3" d="M64.3,1516.2c1.6,0.3,3.4,0,4,2.1c-0.7,0-1.3,0-2,0C65.6,1517.6,64.9,1516.9,64.3,1516.2z"/>
<path class="st4" d="M1108.3,126.3c-2.7-29.9,25.9-65.6,67.7-62.3c24.3,1.9,59.7,24.8,56.5,68.3c-1.8,24-24.6,59.5-68.5,56.2
	C1137,186.4,1106.3,160.7,1108.3,126.3z"/>
<path class="st5" d="M1001.5,496.3c-29.9,2.8-66-25.7-62.4-68.2c2-24,24.8-59.2,68.3-56c23.9,1.8,59.5,24.5,56.1,68.7
	C1061.4,467.6,1035.8,498.1,1001.5,496.3z"/>
<path class="st0" d="M1985.2,1187.5c2.9,10.5,2.9,21.1,0,31.6c-0.5,1.4-0.9,2.9-1.8,4.2c-5.2,9.1-12,16.5-21.6,21.1
	c-15,7.1-38.5,5.8-51.5-8.1c-3.7-4-7-8.1-9.2-13c-0.9-1.3-1.3-2.7-1.8-4.2c-3.2-10.5-3.2-21.1,0-31.6c0.5-1.4,0.9-2.9,1.8-4.2
	c8.1-16.2,21.2-24.5,39.4-25.1c19.6-0.6,33.3,8.6,42.9,25.1C1984.3,1184.6,1984.7,1186,1985.2,1187.5z"/>
<path class="st0" d="M379.2,1451.5c2.9,10.5,2.9,21.1,0,31.6c-0.5,1.4-0.9,2.9-1.8,4.2c-5.2,9.1-12,16.5-21.6,21.1
	c-15,7.1-38.5,5.8-51.5-8.1c-3.7-4-7-8.1-9.2-13c-0.9-1.3-1.3-2.7-1.8-4.2c-3.2-10.5-3.2-21.1,0-31.6c0.5-1.4,0.9-2.9,1.8-4.2
	c8.1-16.2,21.2-24.5,39.4-25.1c19.6-0.6,33.3,8.6,42.9,25.1C378.3,1448.6,378.7,1450,379.2,1451.5z"/>
<path class="st1" d="M804.4,626c-3.2-10.5-3.2-21.1,0-31.6c0.5-1.4,0.9-2.9,1.8-4.2c6.9-14.5,18.5-23.1,34.1-24.8
	c18.7-2.1,34.5,3.8,45.1,20.3c1,1.5,2,3,3,4.5c0.9,1.3,1.3,2.7,1.8,4.2c2.9,10.5,2.9,21.1,0,31.6c-0.5,1.4-0.9,2.9-1.8,4.2
	c-5.2,9.1-12,16.5-21.7,21.1c-15,7.1-38.5,5.8-51.4-8.1c-3.7-4-7-8.1-9.2-13C805.3,628.9,804.9,627.5,804.4,626z"/>
<path class="st1" d="M1466.3,353.2c-1.6-0.3-3.1-0.8-4.3-1.9c-1.1-0.8-2.5-1.1-3.7-1.9c-5.7-3.7-10.4-8.5-14.1-14.2
	c-1.3-1.8-1.9-3.9-2.9-5.7c-0.6-1.4-1.2-2.8-1.9-4.2c-1.4-1.5,0.1-3.6-1-5.3c0-5.9,0-11.7,0-17.6c1.1-1.6-0.3-3.7,1-5.3
	c0.6-1.4,1.2-2.8,1.9-4.2c1.1-1.9,1.7-3.9,2.9-5.7c3.6-5.8,8.6-10.3,14.1-14.2c1.2-0.9,2.7-1.2,4-1.9c1.3-0.6,2.6-1.3,4-1.9
	c2.2-1.5,4.8-1.3,7.2-2c5.9,0,11.7,0,17.6,0c2.3,0.9,5.2,0.1,7.1,2.4c1.3,0.6,2.4,1.8,4.1,1.6c1.3,0.8,3.1,0.8,4,2.3
	c5.2,4,9.7,8.7,13.8,13.8c1.9,1.6,2.2,3.9,3.3,6c-0.2,1.6,0.7,2.8,1.5,4c2.1,1.2,0.2,3.6,1.4,5.1c0,5.9,0,11.7,0,17.6
	c-1.2,1.5,0.7,3.9-1.4,5.1c-0.8,1.2-1.7,2.4-1.5,4c-1,2-1.4,4.4-3.3,6c-4.1,5.2-8.6,10-13.7,14.2c-1.2,1-2.7,1.2-4,1.9
	c-1.3,0.6-2.6,1.3-4,1.9c-2.2,1.5-4.8,1.3-7.2,2c-5.9,0-11.7,0-17.6,0C1471.1,354.5,1468.4,354.7,1466.3,353.2z"/>
<path class="st6" d="M21.3,98.3c0.9-11.6,6.8-20.1,15.6-27.2c5.8-4.7,12.5-7,19.4-8.9c1.9-1,4.2,0.3,6.1-0.8
	c22.5-0.2,40.8,13.8,45.2,34.7c0.1,0.5,0.5,0.8,0.8,1.2c0.9,2-0.3,4.2,0.8,6.2c0,2.2,0,4.4,0,6.5c-1,1.6,0.2,3.6-0.9,5.2
	c-4,12.1-10.7,22.1-21.7,29c-4.4,2.8-9.5,3.6-14.3,5.1c-2.3,1.1-4.9-0.2-7.3,0.8l-0.2-0.1l-0.2,0.1c-2.6-1.2-5.6,0.5-8.3-1
	c-7.5-0.3-13.3-4.5-18.9-8.6c-7.9-5.8-12.7-14.2-15.9-23.4c-0.4-1.2-0.2-2.6-0.2-3.9C20.5,108.3,20.5,103.3,21.3,98.3z"/>
<path class="st2" d="M1231.5,1489.2c-24.1,0-38.2-15-38.2-40.9c0-21.7,16-35.9,40.1-36.2c18.4-0.2,38,17.6,37.1,40.3
	C1269.9,1469.8,1252.4,1491.7,1231.5,1489.2z"/>
<path class="st0" d="M110.3,257.2c2.5,18.4-16.2,39.8-40,37.2c-9.1-1-16.9-4-23.3-10.1c-8.9-8.5-11.3-19.3-10.9-31.5
	c0.7-18.9,17.2-32.3,40.6-32.6C92.4,220,112.5,236.9,110.3,257.2z"/>
<path class="st5" d="M89.3,1302.6c-1.9-18.6,15.4-36.4,36.6-35.6c16.9,0.7,35.3,15.8,34.6,37.3c-0.6,17.3-16.9,34.9-37.6,34.4
	C105.8,1338.1,87.1,1321.9,89.3,1302.6z"/>
<path class="st5" d="M1479.3,589.3c-0.1,3.5,1,6.8,2.1,10c0.5,3,0.7,6-0.1,9c-1.7,6.8-4.4,13-9,18.4c-5.8,6.7-13.2,10.2-21.8,11.4
	c-1.3,0.2-2.5,0.7-3.8,1c-2.7-1.1-5.7,0.3-8.4-0.9l0,0c-1.9-0.9-4.3-0.3-6-1.9c-4.6-1.1-8.3-3.6-11.3-7.1c-0.9-0.9-1.8-1.8-2.7-2.7
	c-6.5-6.3-7.7-14.7-8.9-23c0.8-2.7-0.2-5.6,0.8-8.3c1.5-6.5,4.2-12.5,9.1-17.3c0.8-1,1.8-1.9,2.7-2.7c5.5-5.8,13.2-6.3,20.3-8.2
	c3.6-0.1,7.3-1.2,10.9,0.6c10.6,2.4,18.2,8.8,24.1,17.6C1478.4,586.4,1478.5,588,1479.3,589.3z"/>
<path class="st4" d="M1172.3,624.3c3.3-0.7,6.7-1.4,10-2.2c3-0.5,6-0.6,8.9,0.1c11.5,2.6,20.3,8.8,26.2,19.1
	c0.8,1.3,1.2,2.7,1.8,4.1c1.1,6.9,2.6,13.8,1,20.8c-0.8,1.2,0.3,3.1-1.4,3.9c-3.5,7.5-8.5,13.8-15.6,18.2c-1.2,0.9-2.7,1.1-3.9,1.9
	c-4.3,1-8.6,1.9-12.8,2.9c-2.7-0.8-5.6,0.2-8.2-0.9l-0.3-0.2l-0.4,0.1c-1.8-0.5-3.7-0.5-5.3-1.8c-8.6-2.5-13.9-8.6-18-16.1
	c-1.1-1.2-1.3-2.7-2-4.1c-0.9-6-4.2-11.7-2-18c1.3-1.4-0.2-3.5,1.1-4.9c2.4-9.6,8.4-16.4,17-21C1169.5,625.2,1171,625,1172.3,624.3z
	"/>
<path class="st4" d="M1282.3,1394.3l-0.3-0.2l-0.4,0.1c-1.8-0.5-3.7-0.5-5.3-1.8c-8.6-2.5-13.9-8.6-18-16.1c-1.1-1.2-1.3-2.7-2-4.1
	c-0.9-6-4.2-11.7-2-18c1.3-1.4-0.2-3.5,1.1-4.9c2.4-9.6,8.4-16.4,17-21c1.2-1,2.7-1.2,4-1.9c3.3-0.7,6.7-1.4,10-2.2
	c3-0.5,6-0.6,8.9,0.1c11.5,2.6,20.3,8.8,26.2,19.1c0.8,1.3,1.2,2.7,1.8,4.1c1.1,6.9,2.6,13.8,1,20.8c-0.8,1.2,0.3,3.1-1.4,3.9
	c-3.5,7.5-8.5,13.8-15.6,18.2c-1.2,0.9-2.7,1.1-3.9,1.9c-4.3,1-8.6,1.9-12.8,2.9C1287.8,1394.3,1284.9,1395.3,1282.3,1394.3z"/>
<path class="st4" d="M185.3,95.2C182.9,75.9,202,59.3,221.1,60c17.5,0.7,34.8,16.5,34.5,36.2c-0.3,15-15.4,35.2-37.3,34.5
	C203.1,130.2,182.5,114.3,185.3,95.2z"/>
<path class="st2" d="M30.3,1172c-2.1-18.9,16.1-31.4,31.3-30.9c16.2,0.5,31.2,14.4,30.7,31.7c-0.5,17.6-13.6,29.7-31.9,30.8
	C45.7,1204.3,27.7,1189.8,30.3,1172z"/>
<path class="st2" d="M1100.8,560.2c-2.9,9.9-7.8,18.4-17.6,23.1c-1.4,1.3-3.4,1.2-5.1,1.9c-2.8,1.6-5.9,0.8-8.9,1
	c-3.2,0.5-6.1-0.6-8.9-1.8c-3.5-0.5-6.7-1.6-9.3-4.2c-1.2-1.1-2.4-2.1-3.8-3c-2.3-1.9-3.8-4.4-5.1-7c-0.9-1.2-1.3-2.7-1.9-4.1l0,0.1
	c-1.7-2.4-1.5-5.3-1.9-8c0.1-0.3,0.1-0.6-0.1-0.9c-0.9-1.7-0.8-3.4,0-5c1.5-11.8,6.7-21,18-26c1.4-1.4,3.4-1.3,5.1-1.9
	c10.5-2.6,19.8,0.7,28.6,6.1c1.6,0.5,2.6,1.6,3.2,3.1c0.6,0.6,1.1,1.3,1.7,1.9c2.2,2.2,3.6,4.9,4.4,7.9l0,0c1.6,2.4,2.1,5.1,2,8
	c0,0.3,0.1,0.7,0.1,1C1101.7,555,1102.7,557.7,1100.8,560.2z"/>
<path class="st5" d="M1948.7,1380.2c-16.4-0.1-26.2-11.9-26.5-30.4c-0.3-15.4,14.1-27.7,30.1-26.7c13.7,0.9,27.9,12.9,27.1,30.2
	C1978.8,1365.9,1967.3,1382.1,1948.7,1380.2z"/>
<path class="st6" d="M732.3,1450.4c-10.6,0-19.2-3.7-25.2-12.8c-2.5-3.8-3.9-7.8-4-12.4c-0.4-2-0.6-4,0.2-5.9
	c0-11.2,8.8-19.9,17.6-22.9c13.7-4.7,26.2,1.7,32.1,9.3c3.6,4.6,4.3,10.2,6.2,15.4c-1.2,2.6,0.3,5.6-0.9,8.2
	c-4.1,8.4-8.8,16.3-18,20C737.6,1449.7,735,1450.4,732.3,1450.4z"/>
<path class="st6" d="M1978.3,113.2c-4.1,8.4-8.8,16.3-18,20c-2.6,0.5-5.3,1.1-8,1.2c-12.5,0-22-5-27.1-16.9
	c-4.6-10.7-3.1-20.9,4.3-29.6c7.1-8.3,17-10.7,27.3-8.4c10.4,2.3,17.6,8.8,20.5,19.4c0.6,2,1.2,4.1,1.9,6.1
	C1978,107.7,1979.5,110.6,1978.3,113.2z"/>
<path class="st6" d="M1849.3,1419.2c-4.1,8.4-8.8,16.3-18,20c-2.6,0.5-5.3,1.1-8,1.2c-12.5,0-22-5-27.1-16.9
	c-4.6-10.7-3.1-20.9,4.3-29.6c7.1-8.3,17-10.7,27.3-8.4c10.4,2.3,17.6,8.8,20.5,19.4c0.6,2,1.2,4.1,1.9,6.1
	C1849,1413.7,1850.5,1416.6,1849.3,1419.2z"/>
<path class="st6" d="M1215.3,464.3c2-0.4,4-0.7,6-1.1c2.3-0.4,4.7-1.2,6.9,0.5c8.3,1.6,14.8,6,19.8,12.7c2.4,2.1,2.2,5.3,3.2,8
	l0-0.1c1.5,1.9-0.1,4.3,1,6.3c-0.1,0.2-0.1,0.4,0,0.7c-0.9,2.3,0.3,4.8-1,7l0-0.1c-0.9,1.6-0.8,3.6-2.2,5c-4.3,6.9-9.8,12.4-17.7,15
	c-2.3,1.1-4.8,0.1-7.1,0.9c-2.9,0.3-5.7-0.5-8.5-1c-1.4-0.7-2.9-1.2-4.3-2c-1.7,0-2.6-1.4-3.9-2.1c-1.5-0.3-2.2-1.7-3.1-2.7
	c-0.6-0.7-1.3-1.4-1.9-2c-2.8-3.6-5.1-7.5-6-12.1l0,0c-1.2-5.1-0.7-10,0.9-15c0.8-4.2,3-7.5,6.1-10.3c0.8-1,1.8-1.9,2.7-2.7
	c1.8-1.1,3.5-2.1,5.3-3.2C1212.5,465.2,1214,465,1215.3,464.3z"/>
<path class="st6" d="M1404,1471.2c-4.3,6.9-9.8,12.4-17.7,15c-2.3,1.1-4.8,0.1-7.1,0.9c-2.9,0.3-5.7-0.5-8.5-1
	c-1.4-0.7-2.9-1.2-4.3-2c-1.7,0-2.6-1.4-3.9-2.1c-1.5-0.3-2.2-1.7-3.1-2.7c-0.6-0.7-1.3-1.4-1.9-2c-2.8-3.6-5.1-7.5-6-12.1l0,0
	c-1.2-5.1-0.7-10,0.9-15c0.8-4.2,3-7.5,6.1-10.3c0.8-1,1.8-1.9,2.7-2.7c1.8-1.1,3.5-2.1,5.3-3.2c1.2-0.8,2.7-1.1,4-1.8
	c2-0.4,4-0.7,6-1.1c2.3-0.4,4.7-1.2,6.9,0.5c8.3,1.6,14.8,6,19.8,12.7c2.4,2.1,2.2,5.3,3.2,8l0-0.1c1.5,1.9-0.1,4.3,1,6.3
	c-0.1,0.2-0.1,0.4,0,0.7c-0.9,2.3,0.3,4.8-1,7l0-0.1C1405.3,1467.8,1405.4,1469.8,1404,1471.2z"/>
<path class="st4" d="M784.3,450.3c0-15.4,9.5-25,24.8-25c14.3,0,24.8,10.8,25.3,25c0.4,11.9-11.3,25.8-25.3,25.1
	C793.7,474.6,784.3,465.8,784.3,450.3z"/>
<path class="st0" d="M1967.3,289.8c0,14.4-8.6,22.5-23.8,22.5c-13.2,0-21.2-9.3-21.2-24.5c0-12.3,9.7-20.5,24.3-20.5
	C1958.7,267.3,1967.3,276.6,1967.3,289.8z"/>
<path class="st0" d="M1162.4,1382.3c-14.1,0-22.2-8.7-22.2-24.1c0-12.8,9.4-20.9,24.3-20.9c12.6,0,20.7,9.6,20.7,24.6
	C1185.3,1373.7,1175.7,1382.3,1162.4,1382.3z"/>
<path class="st6" d="M242.2,147c8.5,2.4,14,7.2,15.3,16.6c1.3,9.5-7.1,20-16.7,20.6c-8.8,0.6-17.3-5.2-19.6-14
	c-0.7-3.3-0.7-6.6,0-10c1.6-7.7,7.4-10.8,14.1-13.1C237.6,146.5,239.9,146.7,242.2,147z"/>
<path class="st7" d="M1351.3,1465.2c2,4,4,8,6,12.1C1353.6,1474.1,1351.2,1470.3,1351.3,1465.2z"/>
<path class="st7" d="M1196.3,497.2c2,4,4,8,6,12.1C1198.6,506.1,1196.2,502.3,1196.3,497.2z"/>
<path class="st7" d="M1352.2,1450.3c-0.8,5-1.2,9.9-0.9,15C1349.5,1460.1,1349.5,1455.1,1352.2,1450.3z"/>
<path class="st7" d="M1197.2,482.3c-0.8,5-1.2,9.9-0.9,15C1194.5,492.1,1194.5,487.1,1197.2,482.3z"/>
<path class="st7" d="M21.3,98.3c0,5,0,10,0,15C19.7,108.3,19.7,103.3,21.3,98.3z"/>
<path class="st7" d="M1060.3,584.5c3,0.6,6,1.2,8.9,1.8C1065.8,588.1,1063,586.5,1060.3,584.5z"/>
<path class="st3" d="M122.2,1458.7c-1.4-2.8-2.8-5.5-4.1-8.3C121.2,1452.2,122.1,1455.2,122.2,1458.7z"/>
<path class="st3" d="M42.2,1450.3c-0.8,2.9-2.1,5.6-3.9,8C38.4,1455,39.7,1452.3,42.2,1450.3z"/>
<path class="st3" d="M118,1498.2c1.4-2.8,2.8-5.5,4.1-8.3C122.1,1493.3,121.2,1496.3,118,1498.2z"/>
<path class="st7" d="M1099.3,543.2c-1.5-2.6-2.9-5.2-4.4-7.9C1098.1,537,1099.4,539.7,1099.3,543.2z"/>
<path class="st7" d="M1101.3,551.3c-0.7-2.7-1.3-5.3-2-8C1102.2,545.4,1102.2,548.2,1101.3,551.3z"/>
<path class="st7" d="M1453.2,567.7c-3.6-0.7-7.2-0.7-10.9-0.6C1446,566.1,1449.7,565,1453.2,567.7z"/>
<path class="st3" d="M38.3,1490.2c1.8,2.4,3.1,5.1,3.9,8C39.7,1496.2,38.4,1493.5,38.3,1490.2z"/>
<path class="st7" d="M1406.2,1452.4c-1.1-2.7-2.1-5.4-3.2-8C1406.4,1446.1,1406.1,1449.3,1406.2,1452.4z"/>
<path class="st7" d="M1251.2,484.4c-1.1-2.7-2.1-5.4-3.2-8C1251.4,478.1,1251.1,481.3,1251.2,484.4z"/>
<path class="st7" d="M1038.4,558.2c0.6,2.7,1.3,5.4,1.9,8C1037.8,564,1038,561.1,1038.4,558.2z"/>
<path class="st7" d="M221.2,160.3c0,3.3,0,6.6,0,10C219.8,166.9,219.7,163.6,221.2,160.3z"/>
<path class="st7" d="M1952.3,134.4c2.6-0.8,5.2-1.3,8-1.2C1957.7,134.2,1955.2,135.7,1952.3,134.4z"/>
<path class="st7" d="M1295.3,1324.2c-3,0-6-0.1-8.9-0.1C1289.3,1322.8,1292.3,1322.7,1295.3,1324.2z"/>
<path class="st3" d="M732.3,1450.4c2.6-0.8,5.2-1.3,8-1.2C737.7,1450.2,735.2,1451.7,732.3,1450.4z"/>
<path class="st7" d="M1410.2,595.3c-0.1,2.8,0,5.6-0.8,8.3C1408.7,600.7,1408.9,597.9,1410.2,595.3z"/>
<path class="st7" d="M1481.3,608.3c0-3,0.1-6,0.1-9C1482.8,602.3,1482.9,605.3,1481.3,608.3z"/>
<path class="st7" d="M1191.3,622.2c-3,0-6-0.1-8.9-0.1C1185.3,620.8,1188.3,620.7,1191.3,622.2z"/>
<path class="st7" d="M1178.3,692.3c2.7,0.2,5.6-0.3,8.2,0.9C1183.7,693.8,1180.9,693.7,1178.3,692.3z"/>
<path class="st7" d="M1282.3,1394.3c2.7,0.2,5.6-0.3,8.2,0.9C1287.7,1395.8,1284.9,1395.7,1282.3,1394.3z"/>
<path class="st7" d="M1823.3,1440.4c2.6-0.8,5.2-1.3,8-1.2C1828.7,1440.2,1826.2,1441.7,1823.3,1440.4z"/>
<path class="st3" d="M98.2,1515.2c1.9-1.3,3.8-2.5,6.1-2.9C102.8,1514.6,100.7,1515.3,98.2,1515.2z"/>
<path class="st7" d="M1438.3,638.3c2.8,0.2,5.7-0.2,8.4,0.9C1443.9,638.9,1440.9,640.2,1438.3,638.3z"/>
<path class="st3" d="M96.2,1432.7c-2.4-0.8-4.7-1.6-7.1-2.4C91.7,1430.4,94.6,1429.5,96.2,1432.7z"/>
<path class="st7" d="M1849.3,1419.2c0.3-2.7-0.6-5.6,0.9-8.2C1849.9,1413.8,1851.2,1416.7,1849.3,1419.2z"/>
<path class="st3" d="M71.5,1430.3c-2.3,1.2-4.7,1.5-7.2,2C66.2,1429.9,68.9,1430.2,71.5,1430.3z"/>
<path class="st3" d="M758.3,1429.2c0.3-2.7-0.6-5.6,0.9-8.2C758.9,1423.8,760.2,1426.7,758.3,1429.2z"/>
<path class="st3" d="M56.3,1512.4c2.2,0.3,4.1,1.4,5.7,2.9C59.7,1515.2,57.7,1514.5,56.3,1512.4z"/>
<path class="st7" d="M1523.3,293.3c-1.1-2-2.2-4-3.3-6C1522.8,288.4,1523.2,290.8,1523.3,293.3z"/>
<path class="st7" d="M1406.2,1466.2c0.2-2.4-0.4-4.8,1-7C1407.4,1461.6,1408.1,1464.1,1406.2,1466.2z"/>
<path class="st7" d="M1441.3,329.5c1.5,1.6,2.5,3.5,2.9,5.7C1442.1,333.9,1441.4,331.9,1441.3,329.5z"/>
<path class="st7" d="M1444.2,287.3c-0.4,2.2-1.4,4.1-2.9,5.7C1441.4,290.6,1442.1,288.6,1444.2,287.3z"/>
<path class="st7" d="M1520,335.2c1.1-2,2.2-4,3.3-6C1523.2,331.7,1522.8,334.1,1520,335.2z"/>
<path class="st7" d="M1379.1,1487.2c2.3-1.2,4.8-0.7,7.1-0.9C1384.1,1487.7,1381.7,1487.9,1379.1,1487.2z"/>
<path class="st7" d="M1466.3,353.2c2.5,0.4,5,0.8,7.2,2C1470.9,355.3,1468.2,355.6,1466.3,353.2z"/>
<path class="st7" d="M1491.1,355.2c2.3-1.2,4.7-1.6,7.2-2C1496.4,355.6,1493.7,355.3,1491.1,355.2z"/>
<path class="st7" d="M1498.2,269.7c-2.4-0.8-4.7-1.6-7.1-2.4C1493.7,267.4,1496.6,266.5,1498.2,269.7z"/>
<path class="st7" d="M1473.5,267.3c-2.3,1.2-4.7,1.6-7.2,2C1468.2,266.9,1470.9,267.2,1473.5,267.3z"/>
<path class="st7" d="M1251.2,498.2c0.2-2.4-0.4-4.8,1-7C1252.4,493.6,1253.1,496.1,1251.2,498.2z"/>
<path class="st7" d="M1978.3,113.2c0.3-2.7-0.6-5.6,0.9-8.2C1978.9,107.8,1980.2,110.7,1978.3,113.2z"/>
<path class="st7" d="M1224.1,519.2c2.3-1.2,4.8-0.7,7.1-0.9C1229.1,519.7,1226.7,519.9,1224.1,519.2z"/>
<path class="st7" d="M56.3,149.2c2.8,0.3,5.6-0.4,8.3,1C61.8,149.9,58.8,151.3,56.3,149.2z"/>
<path class="st3" d="M104.2,1436.5c-2-1.1-4-2.2-6-3.2C100.8,1433.3,103.1,1433.8,104.2,1436.5z"/>
<path class="st3" d="M62.4,1433.3c-1.9,1.3-3.8,2.5-6.1,2.8C57.8,1433.9,59.9,1433.2,62.4,1433.3z"/>
<path class="st7" d="M1100.8,560.2c0.2-2.6,0.4-5.3,0.6-7.9C1102.5,555,1103.3,557.7,1100.8,560.2z"/>
<path class="st7" d="M65,150.2c2.3-1.4,4.8-0.5,7.3-0.8C70,151.1,67.4,150,65,150.2z"/>
<path class="st7" d="M242.2,147c-2.3,0-4.6,0.1-6.9,0.1C237.6,145.8,239.9,145.9,242.2,147z"/>
<path class="st7" d="M1432.3,636.4c2,0.6,4,1.2,6,1.9C1436.2,638.1,1433.7,639,1432.3,636.4z"/>
<path class="st3" d="M44.3,1501.2c1.7,0.9,2.7,2.5,3.7,4.1C45.8,1504.8,44.5,1503.5,44.3,1501.2z"/>
<path class="st7" d="M1228.2,463.7c-2.3-0.2-4.6-0.3-6.9-0.5C1223.7,461.9,1226.1,461.2,1228.2,463.7z"/>
<path class="st3" d="M116.2,1447.6c-1.3-1.5-2.6-2.9-3.9-4.4C114.8,1443.6,116.2,1445,116.2,1447.6z"/>
<path class="st3" d="M48,1443.3c-1,1.5-2,3.2-3.7,4.1C44.5,1445,45.8,1443.7,48,1443.3z"/>
<path class="st7" d="M1383.2,1431.7c-2.3-0.2-4.6-0.3-6.9-0.5C1378.7,1429.9,1381.1,1429.2,1383.2,1431.7z"/>
<path class="st3" d="M112.3,1505.3c1.3-1.5,2.6-2.9,3.9-4.4C116.2,1503.5,114.8,1504.9,112.3,1505.3z"/>
<path class="st7" d="M1359.3,1479.3c1.5,0.4,2.3,1.5,3.1,2.7C1359.7,1483,1359.8,1480.9,1359.3,1479.3z"/>
<path class="st7" d="M1404,1471.2c0.4-1.8,0.8-3.6,2.2-5C1406.3,1468.2,1406.1,1470.1,1404,1471.2z"/>
<path class="st7" d="M1276.3,1392.4c1.8,0.6,3.5,1.2,5.3,1.8C1279.6,1394.3,1277.5,1394.7,1276.3,1392.4z"/>
<path class="st3" d="M703.3,1419.3c-0.1,2-0.1,4-0.2,5.9C701.9,1423.2,701.7,1421.2,703.3,1419.3z"/>
<path class="st7" d="M1407.2,1458.5c-1.5-1.9-1-4.1-1-6.3C1408.2,1454.1,1407,1456.4,1407.2,1458.5z"/>
<path class="st7" d="M1204.3,511.3c1.5,0.4,2.3,1.5,3.1,2.7C1204.7,515,1204.8,512.9,1204.3,511.3z"/>
<path class="st7" d="M1249,503.2c0.4-1.8,0.8-3.6,2.2-5C1251.3,500.2,1251.1,502.1,1249,503.2z"/>
<path class="st7" d="M1061.4,524.3c-1.7,0.6-3.4,1.3-5.1,1.9C1057.4,523.9,1059.4,524.3,1061.4,524.3z"/>
<path class="st7" d="M62.5,61.3c-1.9,1.2-4.1,0.5-6.1,0.8C58.2,60.5,60.4,61.5,62.5,61.3z"/>
<path class="st7" d="M1172.3,690.4c1.8,0.6,3.5,1.2,5.3,1.8C1175.6,692.3,1173.5,692.7,1172.3,690.4z"/>
<path class="st7" d="M109.2,103.5c-1.2-1.9-0.5-4.1-0.8-6.2C110,99.2,109,101.4,109.2,103.5z"/>
<path class="st7" d="M1252.2,490.5c-1.5-1.9-1-4.1-1-6.3C1253.2,486.1,1252,488.4,1252.2,490.5z"/>
<path class="st7" d="M1078.2,585.2c1.7-0.6,3.4-1.3,5.1-1.9C1082.2,585.6,1080.2,585.3,1078.2,585.2z"/>
<path class="st7" d="M1047.3,577.3c1.9,0.2,2.9,1.5,3.8,3C1049.1,580.1,1048.1,578.8,1047.3,577.3z"/>
<path class="st3" d="M124.2,1465.5c-1.2-1.5-1-3.4-1.4-5.1C125.3,1461.5,123.9,1463.7,124.2,1465.5z"/>
<path class="st3" d="M37.4,1460.2c0.3,1.9,0,3.6-1,5.2C36.5,1463.7,35.6,1461.7,37.4,1460.2z"/>
<path class="st7" d="M1524.8,325.2c0.4-1.7,0.3-3.6,1.4-5.1C1525.9,321.8,1527.3,324,1524.8,325.2z"/>
<path class="st7" d="M1458.3,349.4c1.5,0.1,2.8,0.6,3.7,1.9C1460.4,351.4,1459,351,1458.3,349.4z"/>
<path class="st7" d="M1502.3,351.2c1.2-1,2.4-1.8,4-1.9C1505.5,351.1,1503.9,351.4,1502.3,351.2z"/>
<path class="st7" d="M1215.3,464.3c-1.1,1-2.4,1.8-4,1.8C1212.1,464.4,1213.6,464.2,1215.3,464.3z"/>
<path class="st7" d="M1206,469.3c-0.5,1.3-1.4,2.2-2.7,2.7C1203.4,470.3,1204.3,469.4,1206,469.3z"/>
<path class="st3" d="M379.2,1451.5c-1.1-1.2-1.4-2.7-1.8-4.2C379.2,1448.2,379.4,1449.7,379.2,1451.5z"/>
<path class="st3" d="M295.1,1447.3c-0.3,1.5-0.7,3-1.8,4.2C293.2,1449.7,293.3,1448.2,295.1,1447.3z"/>
<path class="st7" d="M1438.4,320c1.1,1.6,1.4,3.4,1,5.3C1437.5,323.8,1438.5,321.8,1438.4,320z"/>
<path class="st7" d="M1526.2,302.5c-1.2-1.5-1-3.4-1.4-5.1C1527.3,298.5,1525.9,300.7,1526.2,302.5z"/>
<path class="st7" d="M1439.4,297.2c0.3,1.9,0,3.6-1,5.3C1438.5,300.7,1437.5,298.7,1439.4,297.2z"/>
<path class="st7" d="M1506.2,273.5c-1.3-0.8-2.6-1.5-4-2.3C1504,271.2,1505.7,271.4,1506.2,273.5z"/>
<path class="st3" d="M36.4,1483c1.1,1.6,1.4,3.4,1,5.2C35.6,1486.8,36.5,1484.8,36.4,1483z"/>
<path class="st3" d="M122.8,1488.2c0.4-1.7,0.3-3.6,1.4-5.1C123.9,1484.8,125.3,1487,122.8,1488.2z"/>
<path class="st3" d="M293.4,1483.1c1.1,1.2,1.4,2.7,1.8,4.2C293.3,1486.3,293.2,1484.8,293.4,1483.1z"/>
<path class="st3" d="M377.4,1487.2c0.3-1.5,0.7-3,1.8-4.2C379.4,1484.8,379.2,1486.3,377.4,1487.2z"/>
<path class="st7" d="M1366.3,1484.2c1.8-0.2,3.2,0.7,4.3,2C1368.8,1486.2,1367.4,1485.6,1366.3,1484.2z"/>
<path class="st7" d="M1462.3,271.3c-1.2,1-2.4,1.8-4,1.9C1459.1,271.4,1460.6,271.2,1462.3,271.3z"/>
<path class="st7" d="M108.3,115.3c0-1.8-0.4-3.7,0.9-5.2C109.1,111.8,110,113.8,108.3,115.3z"/>
<path class="st7" d="M997.4,97.2c0.3-1.5,0.7-3,1.8-4.2C999.4,94.8,999.2,96.4,997.4,97.2z"/>
<path class="st7" d="M913.4,93.1c1.1,1.2,1.4,2.7,1.8,4.2C913.3,96.4,913.2,94.8,913.4,93.1z"/>
<path class="st7" d="M999.2,61.5c-1.1-1.2-1.4-2.7-1.8-4.2C999.2,58.2,999.4,59.7,999.2,61.5z"/>
<path class="st7" d="M915.1,57.3c-0.3,1.5-0.7,3-1.8,4.2C913.2,59.7,913.3,58.2,915.1,57.3z"/>
<path class="st7" d="M1899.4,1219.1c1.1,1.2,1.4,2.7,1.8,4.2C1899.3,1222.4,1899.2,1220.8,1899.4,1219.1z"/>
<path class="st7" d="M1983.4,1223.2c0.3-1.5,0.7-3,1.8-4.2C1985.4,1220.8,1985.2,1222.4,1983.4,1223.2z"/>
<path class="st7" d="M1985.2,1187.5c-1.1-1.2-1.4-2.7-1.8-4.2C1985.2,1184.2,1985.4,1185.7,1985.2,1187.5z"/>
<path class="st7" d="M1901.1,1183.3c-0.3,1.5-0.7,3-1.8,4.2C1899.2,1185.7,1899.3,1184.2,1901.1,1183.3z"/>
<path class="st7" d="M1199.3,690.3c1.1-1.1,2.4-1.7,3.9-1.9C1202.5,690.1,1201,690.3,1199.3,690.3z"/>
<path class="st7" d="M1276.3,1326.3c-1.1,1.1-2.4,1.8-4,1.9C1273.1,1326.4,1274.6,1326.2,1276.3,1326.3z"/>
<path class="st7" d="M1152.3,670.2c1.1,1.2,1.8,2.5,2,4.1C1152.4,673.5,1152.2,671.9,1152.3,670.2z"/>
<path class="st7" d="M1323.2,1347.4c-0.8-1.3-1.7-2.5-1.8-4.1C1323.2,1344.2,1323.4,1345.7,1323.2,1347.4z"/>
<path class="st7" d="M1255.3,1349.2c0,1.7,0.2,3.4-1.1,4.9C1254.5,1352.5,1253.6,1350.6,1255.3,1349.2z"/>
<path class="st7" d="M1322.8,1372.2c0.5-1.3,0.9-2.6,1.4-3.9C1325,1370,1324.6,1371.3,1322.8,1372.2z"/>
<path class="st7" d="M1256.3,1372.2c1.1,1.2,1.8,2.5,2,4.1C1256.4,1375.5,1256.2,1373.9,1256.3,1372.2z"/>
<path class="st7" d="M1218.8,670.2c0.5-1.3,0.9-2.6,1.4-3.9C1221,668,1220.6,669.3,1218.8,670.2z"/>
<path class="st7" d="M1303.3,1392.3c1.1-1.1,2.4-1.7,3.9-1.9C1306.5,1392.1,1305,1392.3,1303.3,1392.3z"/>
<path class="st7" d="M1151.3,647.2c0,1.7,0.2,3.4-1.1,4.9C1150.5,650.5,1149.6,648.6,1151.3,647.2z"/>
<path class="st7" d="M1219.2,645.4c-0.8-1.3-1.7-2.5-1.8-4.1C1219.2,642.2,1219.4,643.7,1219.2,645.4z"/>
<path class="st7" d="M1418.3,626.6c1.2,0.6,2.2,1.4,2.7,2.7C1419.4,629.1,1418.4,628.2,1418.3,626.6z"/>
<path class="st7" d="M888.4,630.2c0.4-1.5,0.6-3,1.8-4.2C890.4,627.8,890.2,629.3,888.4,630.2z"/>
<path class="st7" d="M804.4,626c1.1,1.2,1.4,2.7,1.8,4.2C804.3,629.3,804.2,627.8,804.4,626z"/>
<path class="st7" d="M1172.3,624.3c-1.1,1.1-2.4,1.8-4,1.9C1169.1,624.4,1170.6,624.2,1172.3,624.3z"/>
<path class="st7" d="M890.2,594.5c-1.1-1.2-1.4-2.7-1.8-4.2C890.2,591.2,890.4,592.7,890.2,594.5z"/>
<path class="st7" d="M806.1,590.3c-0.4,1.5-0.6,3-1.8,4.2C804.2,592.7,804.3,591.2,806.1,590.3z"/>
<path class="st7" d="M1479.3,589.3c-1.1-1.1-1.8-2.4-2-4C1479.1,586,1479.4,587.6,1479.3,589.3z"/>
<path class="st7" d="M1422,575.3c-0.5,1.3-1.4,2.2-2.7,2.7C1419.4,576.3,1420.3,575.4,1422,575.3z"/>
<path class="st7" d="M1040.3,566.2c1.1,1.1,1.7,2.5,1.9,4.1C1040.4,569.4,1040.2,567.9,1040.3,566.2z"/>
<path class="st7" d="M1370.3,1432.3c-1.1,1-2.4,1.8-4,1.8C1367.1,1432.4,1368.6,1432.2,1370.3,1432.3z"/>
<path class="st7" d="M1038.3,552.2c0,1.7,0,3.4,0,5C1036.8,555.6,1036.8,553.9,1038.3,552.2z"/>
<path class="st7" d="M1093.2,533.5c-1.1-1-2.1-2.1-3.2-3.1C1092.2,530.3,1093.3,531.3,1093.2,533.5z"/>
<path class="st7" d="M1361,1437.3c-0.5,1.3-1.4,2.2-2.7,2.7C1358.4,1438.3,1359.3,1437.4,1361,1437.3z"/>
<path class="st7" d="M1211.3,516.2c1.8-0.2,3.2,0.7,4.3,2C1213.8,518.2,1212.4,517.6,1211.3,516.2z"/>
</svg>
