<?xml version="1.0" encoding="utf-8"?>
<!-- Generator: Adobe Illustrator 21.0.0, SVG Export Plug-In . SVG Version: 6.00 Build 0)  -->
<svg version="1.1" id="Layer_1" xmlns="http://www.w3.org/2000/svg" xmlns:xlink="http://www.w3.org/1999/xlink" x="0px" y="0px"
	 viewBox="0 0 362.4 105" style="enable-background:new 0 0 362.4 105;" xml:space="preserve">
<style type="text/css">
	.st0{fill:#A7A8AC;}
	.st1{fill:#F6921E;}
	.st2{fill:#FFFFFF;}
</style>
<g>
	<g>
		<path class="st0" d="M353.6,62.1c-1.5,8.2-3.1,17.3-5.8,24.5c-4.4,11.8-11.3,13.1-20.1,13.3c-13.7,0.4-292-4.6-301.5-6.7
			c-7.5-1.6-11.8-7.4-13.8-17.5c-1.7-8.4-7.1-42.4-7.2-48.5c-0.1-8,3-19.7,15.2-22c10.9-2,21.7-1.8,42.4-1.7c13.1,0,247-2,262.4-2.3
			c10.2-0.4,17.9-0.6,20.7-0.4c9.2,0.9,13.4,7.1,13.7,15.5C360,26,355,54.2,353.6,62.1z"/>
		<path class="st1" d="M350.9,61.1c-1.5,8.2-3.1,17.3-5.8,24.5c-4.4,11.8-11.3,13.1-20.1,13.3c-13.7,0.4-292-4.6-301.5-6.7
			C16,90.6,11.7,84.9,9.7,74.7C8,66.4,2.6,32.4,2.5,26.2c-0.1-8,3-19.7,15.2-22c10.9-2,21.7-1.8,42.4-1.7c13.1,0,247-2,262.4-2.3
			c10.2-0.4,17.9-0.6,20.7-0.4c9.2,0.9,13.4,7.1,13.7,15.5C357.3,25,352.3,53.2,350.9,61.1z"/>
		<path class="st2" d="M35.5,90c0,0-18.7,1.5-20.5-15.3C14.9,74.7,20.3,89.8,35.5,90z"/>
		<path class="st2" d="M333.4,1.8c0,0,18.6-2.4,21.3,14.3C354.7,16,348.5,1.2,333.4,1.8z"/>
	</g>
	<g>
		<path class="st2" d="M75.7,30.6c0.7,0.5,1.1,1.1,1.1,1.8c0,0.7-0.3,1.3-1,1.8c-0.7,0.5-1.4,0.8-2.2,0.8c-2.1-0.6-4.1-0.8-6.1-0.8
			c-4.3,0-7.6,1.3-9.8,3.8s-3.4,6.4-3.4,11.4c0,5.1,1.3,9,4,11.8c1.4,1.5,3,2.2,4.9,2.2c1.9,0,4.9-1,8.9-3c1.4-0.7,2.4-1,2.9-1
			c1,0,1.6,0.5,1.6,1.6s-0.5,2-1.5,2.7c-1.7,0.9-3,1.6-4,2.1c-1,0.5-2.4,1-4.2,1.6C65,68,63.4,68.3,62,68.3c-1.4,0-2.8-0.3-4-0.9
			c-1.3-0.6-2.4-1.4-3.3-2.3c-1.9-2.1-3.3-4.6-4.2-7.6s-1.3-6-1.3-9.1c0-3.1,0.5-5.9,1.4-8.4c0.9-2.5,2.2-4.6,3.9-6.2
			c3.4-3.2,7.5-4.8,12.4-4.8C69.6,29.1,72.5,29.6,75.7,30.6z"/>
		<path class="st2" d="M103.4,53.7c0,2.5-0.1,4.9-0.3,7.3c-0.2,2.4-0.4,3.9-0.4,4.7c-0.1,0.8-0.4,1.4-1.1,1.9
			c-0.7,0.5-1.3,0.8-1.9,0.8c-1.1,0-1.7-0.5-1.7-1.6v-0.4l0.4-10.6v-3.1c0-3.8-0.8-6.1-2.4-7c-0.7-0.4-1.6-0.7-2.8-0.7
			c-3.3,0-4.9,1.3-4.9,3.8c0,3,0.1,5.5,0.2,7.6c0.1,2.1,0.2,3.8,0.2,5.3c0,1.5,0,2.8-0.1,4.1l-0.1,0.2c-0.2,0.6-0.6,1.1-1.2,1.6
			s-1.1,0.7-1.7,0.7c-1.1,0-1.7-0.5-1.8-1.6h-0.2c0-6-0.3-12.5-0.8-19.7C82.3,40,82,33.6,82,27.8c0.2-0.9,0.8-1.6,1.7-2.2
			c0.3-0.2,0.7-0.2,1.2-0.2c0.5,0,0.9,0.2,1.3,0.8c0.4,0.5,0.6,1.3,0.8,2.4c0.1,1.1,0.2,2.2,0.2,3.4c0,1.1,0,2.7,0.1,4.6
			c0,2,0.1,3.7,0.2,5.2c2-1,3.9-1.6,5.8-1.6s3.5,0.3,4.7,0.8c2.1,1,3.5,2.8,4.3,5.3C103,48.8,103.4,51.3,103.4,53.7z"/>
		<path class="st2" d="M128.3,45.8l-0.1,4.2c0,1.6-0.1,3.6-0.4,6.1c0.2,4.3,0.7,8.1,1.4,11.5c-0.1,0.4-0.4,0.8-1,1
			c-0.5,0.3-1.1,0.4-1.7,0.4c-0.6,0-1.1-0.1-1.4-0.2c-0.4-0.2-0.6-0.4-0.8-0.8c-0.1-0.3-0.2-0.6-0.3-0.9s-0.1-0.6-0.1-1
			c0-0.4,0-0.7-0.1-0.8c-1.9,2-4.3,2.9-7.3,2.9c-3,0-5.2-1.1-6.5-3.5c-1.3-2.3-1.9-5.5-1.9-9.6c0-7.2,2.1-11.8,6.2-13.8
			c1.3-0.6,2.7-0.9,4.4-0.9c1.6,0,3.2,0.3,4.8,0.8c0.5-0.7,1.2-1.1,2.2-1.1c1.7,0,2.5,1.3,2.6,3.8C128.3,44.8,128.3,45.3,128.3,45.8
			z M122.3,60.2c0.8-2.2,1.1-4.6,1.1-7.1c0-2.5-0.3-4.4-0.9-5.5c-0.6-1.2-1.7-1.8-3.2-1.8c-0.6,0-1.5,0.1-2.5,0.2
			c-1,0.1-2,1-2.9,2.7c-0.9,1.7-1.3,3.1-1.3,4.3v2.4c0,4.2,0.9,6.9,2.6,8c0.5,0.4,1.2,0.5,2.1,0.5c0.9,0,1.8-0.4,2.8-1.1
			C121.2,62,121.9,61.2,122.3,60.2z"/>
		<path class="st2" d="M152.2,66.4l0.1-3.1c0-0.5,0-1.1,0-1.9c0-0.8,0-1.7-0.1-2.7c0-1-0.1-2-0.2-3.1c-0.1-1-0.2-2-0.4-2.9
			c-0.2-1.8-0.7-3.4-1.4-4.6c-0.7-1.2-1.6-1.9-2.6-1.9s-1.9,0.2-2.6,0.5c-0.7,0.4-1.2,0.9-1.6,1.7c-0.9,1.6-1.4,3.2-1.6,5
			c-0.2,1.8-0.2,3.7-0.2,5.8l-0.2,6.5c0,0.8-0.3,1.5-0.9,2c-0.6,0.5-1.3,0.7-2.1,0.7c-1,0-1.5-0.6-1.5-1.9c0-3.3-0.1-7.4-0.3-12.2
			c-0.2-4.8-0.3-8.9-0.3-12.1c0.2-0.7,0.5-1.3,1-1.8s0.9-0.8,1.4-0.8c0.4,0,0.8,0,1,0.1s0.4,0.2,0.6,0.3c0.1,0.2,0.3,0.3,0.4,0.5
			c0.1,0.1,0.2,0.4,0.2,0.8c0.1,0.4,0.1,0.7,0.1,0.9c0,0.2,0,0.6,0.1,1.2c0,0.5,0,1,0.1,1.3c2.2-2.8,4.9-4.3,8.1-4.3
			c2.2,0,3.9,1,5,3.1c1.6,3,2.5,7.7,2.5,13.9l0.1,5.6c0,1.5-0.1,2.5-0.2,3c-0.2,0.5-0.4,0.9-0.6,1.3c-0.4,0.8-1.1,1.1-2.2,1.1
			C152.6,68.3,152.2,67.7,152.2,66.4z"/>
		<path class="st2" d="M183.8,72l0.1,4.7c0,2-0.2,3.5-0.5,4.4c-0.8,2.1-1.9,3.5-3.1,4.3c-1.7,1-4,1.6-6.7,1.6s-5.3-0.7-7.7-2.1
			c-1.2-0.6-1.9-1.4-1.9-2.2c0-0.9,0.2-1.6,0.7-2c0.5-0.4,1-0.6,1.7-0.6s1.9,0.4,3.7,1.3c1.8,0.9,3.4,1.3,4.7,1.3
			c2.9,0,4.3-2.3,4.3-6.9c0-4.6-0.1-7.9-0.2-10c-1.4,1.6-3.2,2.5-5.4,2.5c-2.2,0-4.1-0.7-5.8-2c-3.4-2.6-5-6.5-5-11.9
			s1.9-9.4,5.6-12c1.9-1.3,4.1-2,6.7-2c3.3,0,5.6,1.6,6.8,4.8c1,2.6,1.5,5.9,1.6,10c0,0.8,0,2.2,0,4s0,3.6,0.2,5.4
			c0.1,1.7,0.2,3.2,0.3,4.5S183.8,71.4,183.8,72z M178.8,56.6c0-7.5-1.8-11.3-5.5-11.3c-1.7,0-3.1,0.8-4.3,2.5
			c-1.1,1.7-1.7,3.8-1.7,6.3c0,2.5,0.5,4.6,1.5,6.1c1,1.6,2.7,2.4,5,2.4s3.7-0.5,4.2-1.6C178.5,60,178.8,58.5,178.8,56.6z"/>
		<path class="st2" d="M204.7,42.3c2,1.2,3,2.7,3,4.5c0,1.8-0.9,3.6-2.8,5.3c-1.8,1.8-4.1,2.8-6.7,3.2c-0.2,0-0.4,0.1-0.6,0.1
			c-0.1,0-0.3,0-0.6,0.1s-0.4,0-0.6,0c-0.1,0-0.3,0-0.6,0c-0.3,0-0.5,0-0.6,0s-0.3,0-0.7,0s-0.5,0-0.7,0c0.4,3.1,1,5.2,1.8,6.2
			c1.2,0.9,2.1,1.4,2.9,1.5c2,0,3.8-0.8,5.5-2.5c1.7-1.7,3-2.5,3.8-2.5c0.3,0,0.8,0.3,1.4,0.9c0.7,0.6,1,1.2,1,1.7
			c0,0.6-0.4,1.2-1.1,2c-0.7,0.8-1.6,1.6-2.7,2.5s-2.4,1.6-4,2.2c-1.6,0.6-3.1,1-4.4,1c-1.4,0-2.6-0.3-3.6-1
			c-1.8-1.2-3.2-3.1-4.2-5.9c-1-2.8-1.5-5.7-1.5-8.7c0-3.1,0.7-5.8,2-8.3c1.5-2.8,4-4.1,7.7-4.1C200.7,40.5,202.7,41.1,204.7,42.3z
			 M202.4,47.2c0-1.7-1.1-2.5-3.4-2.5c-1.5,0-2.8,0.9-3.9,2.6c-0.4,0.5-0.6,1.1-0.8,1.9c-0.1,0.7-0.3,1.5-0.4,2.2
			C199.6,51.3,202.4,50,202.4,47.2z"/>
		<path class="st2" d="M254.3,41.1v4.6c0,3.5-0.1,5.8-0.3,6.9s-0.5,2.3-0.8,3.8c-0.3,1.5-1,3.1-2.1,4.8c-1.2,2.3-2.8,4-4.8,5.3
			c-2,1.3-4,1.9-6,1.9c-2,0-4.1-0.9-6.2-2.7c-2.1-1.8-3.9-4-5.2-6.5c-1.3-2.6-2.2-5-2.5-7.4c-0.4-2.3-0.6-4.6-0.6-6.7
			s0.3-6.6,0.8-13.4c0.3-0.6,0.7-1.2,1.3-1.7c0.6-0.5,1.2-0.8,1.8-0.8c0.9,0,1.4,0.6,1.6,1.8c-0.6,6.7-0.8,11.1-0.8,13.1
			c0,2.1,0.2,4,0.5,5.8s1,3.8,2.1,5.9c1.1,2.1,2.4,4,4,5.5c1.6,1.5,3.2,2.3,4.7,2.3c2.5,0,4.7-2,6.5-5.9c0.8-1.4,1.2-3.6,1.3-6.5
			c0-0.7,0.1-1.2,0.1-1.7l0.1-7.9c0-3.8-0.3-7.2-0.8-10.1c0-0.8,0.3-1.6,0.8-2.2c0.6-0.6,1.2-1,1.9-1c0.7,0,1.3,0.3,1.7,1
			C253.9,32.7,254.3,36.6,254.3,41.1z"/>
		<path class="st2" d="M268.9,40.2c1.5,0,3,0.2,4.5,0.7c2.9,1,4.4,2.2,4.4,3.7c0,0.7-0.3,1.2-0.9,1.6c-0.6,0.4-1.3,0.6-2,0.6
			c-0.2,0-1-0.4-2.7-1.1c-1.6-0.7-2.9-1.1-3.9-1.1c-1,0-1.9,0.3-2.7,0.9c-0.8,0.6-1.3,1.3-1.3,2.2s0.2,1.7,0.8,2.3
			c0.5,0.6,1.1,1.1,2,1.4c0.8,0.3,1.7,0.5,2.6,0.7c2.6,0.5,4.4,1,5.5,1.5c1.8,0.8,2.7,2.5,2.7,5c0,2.5-1,4.7-2.8,6.6
			c-1.9,1.9-3.9,2.9-6,2.9s-3.9-0.2-5.3-0.7c-2.5-0.9-3.7-2.1-3.7-3.6c0-1.4,0.8-2.1,2.5-2.1c0.8,0,1.9,0.4,3.4,1
			c1.4,0.7,2.6,1,3.6,1s1.8-0.6,2.6-1.8c0.8-1.2,1.2-2.3,1.2-3.4c0-0.2,0-0.6-0.1-1c-1.1-1-3.2-1.8-6.4-2.3
			c-1.1-0.2-2.2-0.5-3.3-0.9c-2.4-0.8-3.5-3-3.5-6.4c0-2.4,0.9-4.3,2.6-5.7S266.4,40.2,268.9,40.2z"/>
		<path class="st2" d="M298.4,42.3c2,1.2,3,2.7,3,4.5c0,1.8-0.9,3.6-2.8,5.3c-1.8,1.8-4.1,2.8-6.7,3.2c-0.2,0-0.4,0.1-0.6,0.1
			c-0.1,0-0.3,0-0.6,0.1s-0.4,0-0.6,0c-0.1,0-0.3,0-0.6,0c-0.3,0-0.5,0-0.6,0s-0.3,0-0.7,0s-0.5,0-0.7,0c0.4,3.1,1,5.2,1.8,6.2
			c1.2,0.9,2.1,1.4,2.9,1.5c2,0,3.8-0.8,5.5-2.5c1.7-1.7,3-2.5,3.8-2.5c0.3,0,0.8,0.3,1.4,0.9c0.7,0.6,1,1.2,1,1.7
			c0,0.6-0.4,1.2-1.1,2c-0.7,0.8-1.6,1.6-2.7,2.5s-2.4,1.6-4,2.2c-1.6,0.6-3.1,1-4.4,1c-1.4,0-2.6-0.3-3.6-1
			c-1.8-1.2-3.2-3.1-4.2-5.9c-1-2.8-1.5-5.7-1.5-8.7c0-3.1,0.7-5.8,2-8.3c1.5-2.8,4-4.1,7.7-4.1C294.4,40.5,296.4,41.1,298.4,42.3z
			 M296.1,47.2c0-1.7-1.1-2.5-3.4-2.5c-1.5,0-2.8,0.9-3.9,2.6c-0.4,0.5-0.6,1.1-0.8,1.9c-0.1,0.7-0.3,1.5-0.4,2.2
			C293.3,51.3,296.1,50,296.1,47.2z"/>
		<path class="st2" d="M308.7,60.9l0.1-1.8c0-2.5-0.2-5.2-0.6-8.1s-0.8-5.1-1.2-6.5c-0.4-1.4-0.7-2.3-0.7-2.7c0-0.4,0.3-0.8,0.8-1.2
			c0.5-0.4,1.1-0.6,1.8-0.6c0.7,0,1.2,0.3,1.6,0.8c0.4,0.5,0.6,1,0.8,1.6c0.1,0.5,0.2,1.3,0.3,2.2c0.1,0.9,0.1,1.5,0.2,1.8
			c1-2.5,2.8-4.2,5.2-5.2c1.2-0.5,2.6-0.8,4.1-0.8c3.3,0,4.9,0.8,4.9,2.5c0,1-0.5,1.8-1.6,2.4c-0.4,0.2-0.9,0.3-1.3,0.4l-1.7-0.2
			c-5,0-7.6,5-7.6,14.9l0.1,5.5l-0.1,0.1c-0.2,0.7-0.5,1.4-1.1,1.9c-0.6,0.6-1.2,0.8-1.8,0.8c-0.9,0-1.5-0.7-1.7-2.2
			C308.8,65,308.7,63.2,308.7,60.9z"/>
	</g>
</g>
</svg>
