<?xml version="1.0" encoding="utf-8"?>
<!-- Generator: Adobe Illustrator 20.1.0, SVG Export Plug-In . SVG Version: 6.00 Build 0)  -->
<svg version="1.1" xmlns="http://www.w3.org/2000/svg" xmlns:xlink="http://www.w3.org/1999/xlink" x="0px" y="0px"
	 viewBox="0 0 371.2 111.3" style="enable-background:new 0 0 371.2 111.3;" xml:space="preserve">
<style type="text/css">
	.st0{display:none;}
	.st1{display:inline;}
	.st2{fill:#3CA7C2;}
	.st3{fill:#FFFFFF;}
	.st4{fill:#A7A8AC;}
	.st5{fill:#ED4C55;}
	.st6{fill:#B8D432;}
</style>
<g id="Layer_1" class="st0">
	<g class="st1">
		<g>
			<path class="st2" d="M357.9,65.8c-1.5,8.2-3.1,17.3-5.8,24.5c-4.4,11.8-11.3,13.1-20.1,13.3C318.4,104,40,99.1,30.6,97
				c-7.5-1.6-11.8-7.4-13.8-17.5C15.1,71.1,9.6,37.1,9.5,31c-0.1-8,3-19.7,15.2-22c10.9-2,21.7-1.8,42.4-1.7c13.1,0,247-2,262.4-2.3
				c10.2-0.4,17.9-0.6,20.7-0.4c9.2,0.9,13.4,7.1,13.7,15.5C364.4,29.8,359.4,58,357.9,65.8z"/>
			<path class="st2" d="M355.2,64.8c-1.5,8.2-3.1,17.3-5.8,24.5c-4.4,11.8-11.3,13.1-20.1,13.3c-13.7,0.4-292-4.6-301.5-6.7
				c-7.5-1.6-11.8-7.4-13.8-17.5C12.4,70.1,6.9,36.1,6.8,30c-0.1-8,3-19.7,15.2-22c10.9-2,21.7-1.8,42.4-1.7c13.1,0,247-2,262.4-2.3
				c10.2-0.4,17.9-0.6,20.7-0.4c9.2,0.9,13.4,7.1,13.7,15.5C361.7,28.8,356.7,57,355.2,64.8z"/>
			<path class="st2" d="M39.8,93.8c0,0-18.7,1.5-20.5-15.3C19.3,78.5,24.7,93.6,39.8,93.8z"/>
			<path class="st2" d="M337.8,5.5c0,0,18.6-2.4,21.3,14.3C359.1,19.8,352.9,5,337.8,5.5z"/>
		</g>
		<g>
			<path class="st3" d="M100.3,48.8l0.3,20.9c-0.1,0.8-0.4,1.4-1,1.9s-1.2,0.8-1.8,0.8c-1,0-1.5-0.7-1.5-2l-0.4-19.4
				c0-4.6,0.2-9.2,0.6-13.9c-3.5,0.3-6.8,0.4-10.1,0.4c-1.4,0-2-0.5-2-1.6c0-0.6,0.2-1.2,0.8-1.7c0.5-0.6,1.1-0.9,1.8-1
				c2.9,0,7-0.2,12.3-0.5c5.3-0.3,9.3-0.5,12.2-0.5c1.2,0.4,1.7,0.9,1.7,1.7c0,0.6-0.2,1.1-0.7,1.6c-0.5,0.5-1.1,0.8-1.7,1
				c-3,0-6.3,0.1-10.1,0.2C100.4,40.6,100.3,44.6,100.3,48.8z"/>
			<path class="st3" d="M117.4,64.6l0.1-1.8c0-2.5-0.2-5.2-0.6-8.1s-0.8-5.1-1.2-6.5c-0.4-1.4-0.7-2.3-0.7-2.7
				c0-0.4,0.3-0.8,0.8-1.2c0.5-0.4,1.1-0.6,1.8-0.6c0.7,0,1.2,0.3,1.6,0.8c0.4,0.5,0.6,1,0.8,1.6c0.1,0.5,0.2,1.3,0.3,2.2
				c0.1,0.9,0.1,1.5,0.2,1.8c1-2.5,2.8-4.2,5.2-5.2c1.2-0.5,2.6-0.8,4.1-0.8c3.3,0,4.9,0.8,4.9,2.5c0,1-0.5,1.8-1.6,2.4
				c-0.4,0.2-0.9,0.3-1.3,0.4l-1.7-0.2c-5,0-7.6,5-7.6,14.9l0.1,5.5l-0.1,0.1c-0.2,0.7-0.5,1.4-1.1,1.9c-0.6,0.6-1.2,0.8-1.8,0.8
				c-0.9,0-1.5-0.7-1.7-2.2C117.6,68.8,117.4,66.9,117.4,64.6z"/>
			<path class="st3" d="M136.2,46.9c0-0.8,0.2-1.4,0.7-2c0.5-0.6,1-0.8,1.7-0.8c0.7,0,1.3,0.4,1.9,1.3c1,3.1,2,5.9,3,8.5
				c1.1,2.5,2,4.8,3,7c0.9,2.1,1.6,3.7,2,4.9c0.7-2.5,1.6-6,2.8-10.6c1.1-4.6,1.9-7.8,2.5-9.7c0.2-0.9,1.1-1.3,2.6-1.3
				c0.5,0,1,0.2,1.5,0.5c0.5,0.4,0.8,0.8,0.8,1.2s0,0.9-0.1,1.3c-5.7,20.2-9.9,34.1-12.5,41.6c-0.4,1.1-1,1.6-1.9,1.6
				c-0.6,0-1.1-0.3-1.6-0.8c-0.4-0.5-0.7-1.2-0.7-2.1s0.3-2.3,0.9-4.2c0.6-1.9,1.3-4.1,2-6.4c0.8-2.3,1.3-3.9,1.5-4.8
				c-1-1.6-2.6-5.2-4.8-10.8C139.3,55.8,137.5,51,136.2,46.9z"/>
			<path class="st3" d="M198.1,49.6l-0.1,4.2c0,1.6-0.1,3.6-0.4,6.1c0.2,4.3,0.7,8.1,1.4,11.5c-0.1,0.4-0.4,0.8-1,1
				c-0.5,0.3-1.1,0.4-1.7,0.4c-0.6,0-1.1-0.1-1.4-0.2c-0.4-0.2-0.6-0.4-0.8-0.8c-0.1-0.3-0.2-0.6-0.3-0.9s-0.1-0.6-0.1-1
				c0-0.4,0-0.7-0.1-0.8c-1.9,2-4.3,2.9-7.3,2.9c-3,0-5.2-1.1-6.5-3.5c-1.3-2.3-1.9-5.5-1.9-9.6c0-7.2,2.1-11.8,6.2-13.8
				c1.3-0.6,2.7-0.9,4.4-0.9c1.6,0,3.2,0.3,4.8,0.8c0.5-0.7,1.2-1.1,2.2-1.1c1.7,0,2.5,1.3,2.6,3.8
				C198.1,48.5,198.1,49.1,198.1,49.6z M192.2,63.9c0.8-2.2,1.1-4.6,1.1-7.1c0-2.5-0.3-4.4-0.9-5.5c-0.6-1.2-1.7-1.8-3.2-1.8
				c-0.6,0-1.5,0.1-2.5,0.2c-1,0.1-2,1-2.9,2.7c-0.9,1.7-1.3,3.1-1.3,4.3v2.4c0,4.2,0.9,6.9,2.6,8c0.5,0.4,1.2,0.5,2.1,0.5
				c0.9,0,1.8-0.4,2.8-1.1C191.1,65.8,191.8,64.9,192.2,63.9z"/>
			<path class="st3" d="M226.5,75.8l0.1,4.7c0,2-0.2,3.5-0.5,4.4c-0.8,2.1-1.9,3.5-3.1,4.3c-1.7,1-4,1.6-6.7,1.6s-5.3-0.7-7.7-2.1
				c-1.2-0.6-1.9-1.4-1.9-2.2c0-0.9,0.2-1.6,0.7-2c0.5-0.4,1-0.6,1.7-0.6s1.9,0.4,3.7,1.3c1.8,0.9,3.4,1.3,4.7,1.3
				c2.9,0,4.3-2.3,4.3-6.9c0-4.6-0.1-7.9-0.2-10c-1.4,1.6-3.2,2.5-5.4,2.5c-2.2,0-4.1-0.7-5.8-2c-3.4-2.6-5-6.5-5-11.9
				s1.9-9.4,5.6-12c1.9-1.3,4.1-2,6.7-2c3.3,0,5.6,1.6,6.8,4.8c1,2.6,1.5,5.9,1.6,10c0,0.8,0,2.2,0,4s0,3.6,0.2,5.4
				c0.1,1.7,0.2,3.2,0.3,4.5S226.5,75.1,226.5,75.8z M221.6,60.3c0-7.5-1.8-11.3-5.5-11.3c-1.7,0-3.1,0.8-4.3,2.5
				c-1.1,1.7-1.7,3.8-1.7,6.3c0,2.5,0.5,4.6,1.5,6.1c1,1.6,2.7,2.4,5,2.4s3.7-0.5,4.2-1.6C221.3,63.8,221.6,62.3,221.6,60.3z"/>
			<path class="st3" d="M252.3,49.6l-0.1,4.2c0,1.6-0.1,3.6-0.4,6.1c0.2,4.3,0.7,8.1,1.4,11.5c-0.1,0.4-0.4,0.8-1,1
				c-0.5,0.3-1.1,0.4-1.7,0.4c-0.6,0-1.1-0.1-1.4-0.2c-0.4-0.2-0.6-0.4-0.8-0.8c-0.1-0.3-0.2-0.6-0.3-0.9s-0.1-0.6-0.1-1
				c0-0.4,0-0.7-0.1-0.8c-1.9,2-4.3,2.9-7.3,2.9c-3,0-5.2-1.1-6.5-3.5c-1.3-2.3-1.9-5.5-1.9-9.6c0-7.2,2.1-11.8,6.2-13.8
				c1.3-0.6,2.7-0.9,4.4-0.9c1.6,0,3.2,0.3,4.8,0.8c0.5-0.7,1.2-1.1,2.2-1.1c1.7,0,2.5,1.3,2.6,3.8
				C252.3,48.5,252.3,49.1,252.3,49.6z M246.4,63.9c0.8-2.2,1.1-4.6,1.1-7.1c0-2.5-0.3-4.4-0.9-5.5c-0.6-1.2-1.7-1.8-3.2-1.8
				c-0.6,0-1.5,0.1-2.5,0.2c-1,0.1-2,1-2.9,2.7c-0.9,1.7-1.3,3.1-1.3,4.3v2.4c0,4.2,0.9,6.9,2.6,8c0.5,0.4,1.2,0.5,2.1,0.5
				c0.9,0,1.8-0.4,2.8-1.1C245.3,65.8,246,64.9,246.4,63.9z"/>
			<path class="st3" d="M261.3,33c0.5-0.5,1-0.8,1.3-0.8c0.4-0.1,0.6-0.1,0.7-0.1c1.8,0.3,2.9,0.9,3.2,1.8c0.2,0.4,0.2,1.1,0.2,1.9
				c0,0.8-0.3,1.7-1,2.6c-0.7,0.9-1.4,1.3-2.2,1.3c-0.8,0-1.5-0.4-2.1-1.2c-0.6-0.8-0.9-1.8-0.9-3S260.7,33.4,261.3,33z M266.2,48.3
				l-0.1,3.8L266,65.6c0,1.9,0,3.2,0.1,4.1c-0.1,0.8-0.4,1.4-1,2c-0.5,0.5-1.1,0.8-1.8,0.8c-0.7,0-1.2-0.5-1.6-1.5
				c0-1-0.1-2.5-0.2-4.4c-0.1-1.9-0.2-4.2-0.3-6.8s-0.2-5.3-0.2-7.9s0.1-5,0.2-7c0.1-0.7,0.6-1.1,1.4-1.1
				C265,43.7,266.2,45.2,266.2,48.3z"/>
			<path class="st3" d="M290.7,70.2l0.1-3.1c0-0.5,0-1.1,0-1.9c0-0.8,0-1.7-0.1-2.7c0-1-0.1-2-0.2-3.1c-0.1-1-0.2-2-0.4-2.9
				c-0.2-1.8-0.7-3.4-1.4-4.6c-0.7-1.2-1.6-1.9-2.6-1.9s-1.9,0.2-2.6,0.5c-0.7,0.4-1.2,0.9-1.6,1.7c-0.9,1.6-1.4,3.2-1.6,5
				c-0.2,1.8-0.2,3.7-0.2,5.8l-0.2,6.5c0,0.8-0.3,1.5-0.9,2c-0.6,0.5-1.3,0.7-2.1,0.7c-1,0-1.5-0.6-1.5-1.9c0-3.3-0.1-7.4-0.3-12.2
				c-0.2-4.8-0.3-8.9-0.3-12.1c0.2-0.7,0.5-1.3,1-1.8s0.9-0.8,1.4-0.8c0.4,0,0.8,0,1,0.1s0.4,0.2,0.6,0.3c0.1,0.2,0.3,0.3,0.4,0.5
				c0.1,0.1,0.2,0.4,0.2,0.8c0.1,0.4,0.1,0.7,0.1,0.9c0,0.2,0,0.6,0.1,1.2c0,0.5,0,1,0.1,1.3c2.2-2.8,4.9-4.3,8.1-4.3
				c2.2,0,3.9,1,5,3.1c1.6,3,2.5,7.7,2.5,13.9l0.1,5.6c0,1.5-0.1,2.5-0.2,3c-0.2,0.5-0.4,0.9-0.6,1.3c-0.4,0.8-1.1,1.1-2.2,1.1
				C291.2,72.1,290.7,71.4,290.7,70.2z"/>
		</g>
	</g>
</g>
<g id="Layer_2" class="st0">
	<g class="st1">
		<g>
			<path class="st4" d="M357.9,65.8c-1.5,8.2-3.1,17.3-5.8,24.5c-4.4,11.8-11.3,13.1-20.1,13.3C318.4,104,40,99.1,30.6,97
				c-7.5-1.6-11.8-7.4-13.8-17.5C15.1,71.1,9.6,37.1,9.5,31c-0.1-8,3-19.7,15.2-22c10.9-2,21.7-1.8,42.4-1.7c13.1,0,247-2,262.4-2.3
				c10.2-0.4,17.9-0.6,20.7-0.4c9.2,0.9,13.4,7.1,13.7,15.5C364.4,29.8,359.4,58,357.9,65.8z"/>
			<path class="st5" d="M355.2,64.8c-1.5,8.2-3.1,17.3-5.8,24.5c-4.4,11.8-11.3,13.1-20.1,13.3c-13.7,0.4-292-4.6-301.5-6.7
				c-7.5-1.6-11.8-7.4-13.8-17.5C12.4,70.1,6.9,36.1,6.8,30c-0.1-8,3-19.7,15.2-22c10.9-2,21.7-1.8,42.4-1.7c13.1,0,247-2,262.4-2.3
				c10.2-0.4,17.9-0.6,20.7-0.4c9.2,0.9,13.4,7.1,13.7,15.5C361.7,28.8,356.7,57,355.2,64.8z"/>
			<path class="st3" d="M39.8,93.8c0,0-18.7,1.5-20.5-15.3C19.3,78.5,24.7,93.6,39.8,93.8z"/>
			<path class="st3" d="M337.8,5.5c0,0,18.6-2.4,21.3,14.3C359.1,19.8,352.9,5,337.8,5.5z"/>
		</g>
		<g>
			<path class="st3" d="M83.3,33.4c3.3,0,5,0.7,5,2c0,0.4-0.1,0.8-0.4,1.1c-0.5,0.8-1.2,1.3-2.2,1.3l-2.9-0.2l-2.3,0.1
				c-5.9,0-9.4-0.1-10.3-0.2l-0.1,7.6l0.1,4h13.1c1.1,0.2,1.6,0.7,1.6,1.6c0,0.2-0.1,0.5-0.2,0.8c-0.4,0.9-1.1,1.5-2,1.8H70.5
				c0.3,5.8,0.4,10.9,0.4,15.5c0,1.1-0.2,1.9-0.5,2.4c-0.3,0.5-0.8,0.8-1.6,0.8c-1.3,0-2-0.9-2.3-2.6c-0.1-0.5-0.1-0.9-0.2-1.3
				c0-0.4-0.1-0.9-0.1-1.5c0-0.6,0-1.2,0-1.6s0-1,0-1.7c0-0.7,0-1.3,0-1.7l-0.1-24.1c-0.7,0.1-1.3,0-2-0.2c-0.2-0.1-0.3-0.2-0.5-0.3
				s-0.3-0.2-0.5-0.4c-0.1-0.1-0.2-0.3-0.3-0.5c-0.1-0.2-0.1-0.5-0.1-0.9c0-0.4,0.2-0.8,0.6-1.4c0.4-0.5,0.9-0.8,1.5-0.9
				c1.9,0,3.8,0.1,5.7,0.3c1.9,0.2,3.8,0.3,5.9,0.3s3.2,0,3.5,0c0.3,0,0.6,0,0.9,0s0.5,0,0.6,0L83.3,33.4z"/>
			<path class="st3" d="M94.9,45.4c1.5-0.9,3.2-1.3,5-1.3c1.9,0,3.5,0.8,5.1,2.3c2.8,2.9,4.3,7,4.3,12.2c0,2.7-0.8,5.6-2.3,8.5
				c-0.8,1.4-1.8,2.6-3,3.5c-1.2,0.9-2.7,1.4-4.3,1.4c-1.6,0-3.2-0.5-4.8-1.4c-1.5-0.9-2.8-2.1-3.8-3.5c-2.1-3-3.1-5.9-3.1-8.5
				c0-3.6,1.1-6.9,3.2-9.9C92.2,47.4,93.4,46.3,94.9,45.4z M100.9,67.8c1.2-0.6,2-1.6,2.6-3c0.6-1.4,0.9-2.8,0.9-4.3
				c0-1.5-0.1-2.8-0.3-4c-0.2-1.2-0.5-2.3-0.9-3.4c-0.4-1.1-1-2-1.8-2.8c-0.8-0.8-1.7-1.2-2.8-1.4c-1.8,0.3-3.2,1.3-4.4,3
				c-1.2,1.7-1.7,3.5-1.7,5.2c0,1.7,0.7,3.9,2.2,6.4c0.7,1.2,1.6,2.2,2.7,3C98.5,67.4,99.7,67.8,100.9,67.8z"/>
			<path class="st3" d="M115.6,64.6l0.1-1.8c0-2.5-0.2-5.2-0.6-8.1s-0.8-5.1-1.2-6.5c-0.4-1.4-0.7-2.3-0.7-2.7
				c0-0.4,0.3-0.8,0.8-1.2c0.5-0.4,1.1-0.6,1.8-0.6c0.7,0,1.2,0.3,1.6,0.8c0.4,0.5,0.6,1,0.8,1.6c0.1,0.5,0.2,1.3,0.3,2.2
				c0.1,0.9,0.1,1.5,0.2,1.8c1-2.5,2.8-4.2,5.2-5.2c1.2-0.5,2.6-0.8,4.1-0.8c3.3,0,4.9,0.8,4.9,2.5c0,1-0.5,1.8-1.6,2.4
				c-0.4,0.2-0.9,0.3-1.3,0.4l-1.7-0.2c-5,0-7.6,5-7.6,14.9l0.1,5.5l-0.1,0.1c-0.2,0.7-0.5,1.4-1.1,1.9c-0.6,0.6-1.2,0.8-1.8,0.8
				c-0.9,0-1.5-0.7-1.7-2.2C115.7,68.8,115.6,66.9,115.6,64.6z"/>
			<path class="st3" d="M158.1,75.8l0.1,4.7c0,2-0.2,3.5-0.5,4.4c-0.8,2.1-1.9,3.5-3.1,4.3c-1.7,1-4,1.6-6.7,1.6s-5.3-0.7-7.7-2.1
				c-1.2-0.6-1.9-1.4-1.9-2.2c0-0.9,0.2-1.6,0.7-2c0.5-0.4,1-0.6,1.7-0.6s1.9,0.4,3.7,1.3c1.8,0.9,3.4,1.3,4.7,1.3
				c2.9,0,4.3-2.3,4.3-6.9c0-4.6-0.1-7.9-0.2-10c-1.4,1.6-3.2,2.5-5.4,2.5c-2.2,0-4.1-0.7-5.8-2c-3.4-2.6-5-6.5-5-11.9
				s1.9-9.4,5.6-12c1.9-1.3,4.1-2,6.7-2c3.3,0,5.6,1.6,6.8,4.8c1,2.6,1.5,5.9,1.6,10c0,0.8,0,2.2,0,4s0,3.6,0.2,5.4
				c0.1,1.7,0.2,3.2,0.3,4.5S158.1,75.1,158.1,75.8z M153.1,60.3c0-7.5-1.8-11.3-5.5-11.3c-1.7,0-3.1,0.8-4.3,2.5
				c-1.1,1.7-1.7,3.8-1.7,6.3c0,2.5,0.5,4.6,1.5,6.1c1,1.6,2.7,2.4,5,2.4s3.7-0.5,4.2-1.6C152.9,63.8,153.1,62.3,153.1,60.3z"/>
			<path class="st3" d="M168.9,45.4c1.5-0.9,3.2-1.3,5-1.3c1.9,0,3.5,0.8,5.1,2.3c2.8,2.9,4.3,7,4.3,12.2c0,2.7-0.8,5.6-2.3,8.5
				c-0.8,1.4-1.8,2.6-3,3.5c-1.2,0.9-2.7,1.4-4.3,1.4c-1.6,0-3.2-0.5-4.8-1.4c-1.5-0.9-2.8-2.1-3.8-3.5c-2.1-3-3.1-5.9-3.1-8.5
				c0-3.6,1.1-6.9,3.2-9.9C166.1,47.4,167.4,46.3,168.9,45.4z M174.9,67.8c1.2-0.6,2-1.6,2.6-3c0.6-1.4,0.9-2.8,0.9-4.3
				c0-1.5-0.1-2.8-0.3-4c-0.2-1.2-0.5-2.3-0.9-3.4c-0.4-1.1-1-2-1.8-2.8c-0.8-0.8-1.7-1.2-2.8-1.4c-1.8,0.3-3.2,1.3-4.4,3
				c-1.2,1.7-1.7,3.5-1.7,5.2c0,1.7,0.7,3.9,2.2,6.4c0.7,1.2,1.6,2.2,2.7,3C172.5,67.4,173.7,67.8,174.9,67.8z"/>
			<path class="st3" d="M197.1,31l-0.3,7.3c0,0.5,0.1,2.4,0.2,5.7c2.4,0,4.7-0.1,7-0.2c1.2,0.3,1.8,1,1.8,2.1s-0.4,1.9-1.2,2.4
				c-0.8,0.5-1.6,0.7-2.4,0.8c-0.8,0-1.4,0.1-1.9,0.1c-0.4,0-1,0-1.7,0c-0.7,0-1.2,0-1.5,0c0,0.4,0.1,1.5,0.2,3.3s0.1,3.1,0.2,3.6
				c0.3,5.4,0.8,9.9,1.4,13.3c-0.2,0.8-0.5,1.4-1.1,2c-0.6,0.6-1.2,0.9-1.9,0.9c-0.7,0-1.2-0.5-1.6-1.4c-0.6-3.6-1-7.8-1.2-12.7
				s-0.4-7.9-0.4-8.9c-0.6,0-1.5,0.1-2.9,0.1s-2.5-0.1-3.4-0.4c-1-0.2-1.4-0.8-1.4-1.7c0-2,1.2-3,3.5-3l2.9,0.1c0.5,0,0.9,0,1.1-0.1
				c-0.2-4-0.2-6.1-0.2-6.2c0-0.3,0-0.9,0.1-1.9c0-1,0.1-2.4,0.2-4.3c0.2-0.7,0.5-1.3,1.1-1.7c0.6-0.5,1.2-0.7,1.8-0.7
				C196.4,29.3,196.9,29.9,197.1,31z"/>
			<path class="st3" d="M226.1,70L226,88c-0.2,0.8-0.6,1.5-1.2,2c-0.6,0.5-1.2,0.8-1.9,0.8c-1,0-1.6-0.7-1.6-2.1l0.1-20.6V46.9
				c0.2-1,0.4-1.7,0.7-2.2c0.3-0.5,0.9-0.7,1.6-0.7s1.3,0.2,1.5,0.5s0.5,1.3,0.8,2.8c0.2-0.7,0.8-1.4,1.8-2.1c1-0.7,2.6-1.1,4.6-1.1
				s3.8,0.4,5.3,1.3c1.5,0.8,2.7,2,3.5,3.4c1.6,2.8,2.4,6.2,2.4,10.2c0,4-1.2,7.2-3.5,9.5c-2.3,2.3-5.5,3.5-9.7,3.5
				c-1.4,0-2.7-0.5-3.8-1.4C226.4,70.2,226.1,70,226.1,70z M231.4,48.8c-1.6,0.2-2.8,0.9-3.8,2c-1,1.1-1.5,2.2-1.5,3.2v11.2
				c0.1,0,0.4,0.2,0.8,0.6c1.2,1,2.4,1.6,3.8,1.6c5.5,0,8.3-2.8,8.3-8.5c0-4.9-1.2-7.9-3.7-9.2C234.2,49.1,233,48.8,231.4,48.8z"/>
			<path class="st3" d="M268.1,49.6l-0.1,4.2c0,1.6-0.1,3.6-0.4,6.1c0.2,4.3,0.7,8.1,1.4,11.5c-0.1,0.4-0.4,0.8-1,1
				c-0.5,0.3-1.1,0.4-1.7,0.4c-0.6,0-1.1-0.1-1.4-0.2c-0.4-0.2-0.6-0.4-0.8-0.8c-0.1-0.3-0.2-0.6-0.3-0.9s-0.1-0.6-0.1-1
				c0-0.4,0-0.7-0.1-0.8c-1.9,2-4.3,2.9-7.3,2.9c-3,0-5.2-1.1-6.5-3.5c-1.3-2.3-1.9-5.5-1.9-9.6c0-7.2,2.1-11.8,6.2-13.8
				c1.3-0.6,2.7-0.9,4.4-0.9c1.6,0,3.2,0.3,4.8,0.8c0.5-0.7,1.2-1.1,2.2-1.1c1.7,0,2.5,1.3,2.6,3.8
				C268.1,48.5,268.1,49.1,268.1,49.6z M262.2,63.9c0.8-2.2,1.1-4.6,1.1-7.1c0-2.5-0.3-4.4-0.9-5.5c-0.6-1.2-1.7-1.8-3.2-1.8
				c-0.6,0-1.5,0.1-2.5,0.2c-1,0.1-2,1-2.9,2.7c-0.9,1.7-1.3,3.1-1.3,4.3v2.4c0,4.2,0.9,6.9,2.6,8c0.5,0.4,1.2,0.5,2.1,0.5
				c0.9,0,1.8-0.4,2.8-1.1C261,65.8,261.8,64.9,262.2,63.9z"/>
			<path class="st3" d="M284.4,43.9c1.5,0,3,0.2,4.5,0.7c2.9,1,4.4,2.2,4.4,3.7c0,0.7-0.3,1.2-0.9,1.6c-0.6,0.4-1.3,0.6-2,0.6
				c-0.2,0-1-0.4-2.7-1.1c-1.6-0.7-2.9-1.1-3.9-1.1c-1,0-1.9,0.3-2.7,0.9c-0.8,0.6-1.3,1.3-1.3,2.2s0.2,1.7,0.8,2.3
				c0.5,0.6,1.1,1.1,2,1.4c0.8,0.3,1.7,0.5,2.6,0.7c2.6,0.5,4.4,1,5.5,1.5c1.8,0.8,2.7,2.5,2.7,5c0,2.5-1,4.7-2.8,6.6
				c-1.9,1.9-3.9,2.9-6,2.9s-3.9-0.2-5.3-0.7c-2.5-0.9-3.7-2.1-3.7-3.6c0-1.4,0.8-2.1,2.5-2.1c0.8,0,1.9,0.4,3.4,1
				c1.4,0.7,2.6,1,3.6,1s1.8-0.6,2.6-1.8c0.8-1.2,1.2-2.3,1.2-3.4c0-0.2,0-0.6-0.1-1c-1.1-1-3.2-1.8-6.4-2.3
				c-1.1-0.2-2.2-0.5-3.3-0.9c-2.4-0.8-3.5-3-3.5-6.4c0-2.4,0.9-4.3,2.6-5.7S281.8,43.9,284.4,43.9z"/>
			<path class="st3" d="M307.5,43.9c1.5,0,3,0.2,4.5,0.7c2.9,1,4.4,2.2,4.4,3.7c0,0.7-0.3,1.2-0.9,1.6c-0.6,0.4-1.3,0.6-2,0.6
				c-0.2,0-1-0.4-2.7-1.1c-1.6-0.7-2.9-1.1-3.9-1.1c-1,0-1.9,0.3-2.7,0.9c-0.8,0.6-1.3,1.3-1.3,2.2s0.2,1.7,0.8,2.3
				c0.5,0.6,1.1,1.1,2,1.4c0.8,0.3,1.7,0.5,2.6,0.7c2.6,0.5,4.4,1,5.5,1.5c1.8,0.8,2.7,2.5,2.7,5c0,2.5-1,4.7-2.8,6.6
				c-1.9,1.9-3.9,2.9-6,2.9s-3.9-0.2-5.3-0.7c-2.5-0.9-3.7-2.1-3.7-3.6c0-1.4,0.8-2.1,2.5-2.1c0.8,0,1.9,0.4,3.4,1
				c1.4,0.7,2.6,1,3.6,1s1.8-0.6,2.6-1.8c0.8-1.2,1.2-2.3,1.2-3.4c0-0.2,0-0.6-0.1-1c-1.1-1-3.2-1.8-6.4-2.3
				c-1.1-0.2-2.2-0.5-3.3-0.9c-2.4-0.8-3.5-3-3.5-6.4c0-2.4,0.9-4.3,2.6-5.7S304.9,43.9,307.5,43.9z"/>
		</g>
	</g>
</g>
<g id="Layer_3" class="st0">
	<g class="st1">
		<g>
			<path class="st4" d="M357.9,42.4c-1.5-8.2-3.1-17.3-5.8-24.5C347.8,6,340.8,4.7,332,4.5C318.4,4.1,40,9.1,30.6,11.2
				c-7.5,1.6-11.8,7.4-13.8,17.5c-1.7,8.4-7.1,42.4-7.2,48.5c-0.1,8,3,19.7,15.2,22c10.9,2,21.7,1.8,42.4,1.7
				c13.1,0,247,2,262.4,2.3c10.2,0.4,17.9,0.6,20.7,0.4c9.2-0.9,13.4-7.1,13.7-15.5C364.4,78.4,359.4,50.2,357.9,42.4z"/>
			<path class="st6" d="M355.2,41.4c-1.5-8.2-3.1-17.3-5.8-24.5C345.1,5,338.1,3.7,329.3,3.5c-13.7-0.4-292,4.6-301.5,6.7
				c-7.5,1.6-11.8,7.4-13.8,17.5c-1.7,8.4-7.1,42.4-7.2,48.5c-0.1,8,3,19.7,15.2,22c10.9,2,21.7,1.8,42.4,1.7
				c13.1,0,247,2,262.4,2.3c10.2,0.4,17.9,0.6,20.7,0.4c9.2-0.9,13.4-7.1,13.7-15.5C361.7,77.4,356.7,49.2,355.2,41.4z"/>
			<path class="st3" d="M39.8,12.4c0,0-18.7-1.5-20.5,15.3C19.3,27.7,24.7,12.6,39.8,12.4z"/>
			<path class="st3" d="M337.8,100.7c0,0,18.6,2.4,21.3-14.3C359.1,86.4,352.9,101.2,337.8,100.7z"/>
		</g>
		<g>
			<path class="st3" d="M97.9,35.4c0.7,0.5,1.1,1.1,1.1,1.8c0,0.7-0.3,1.3-1,1.8c-0.7,0.5-1.4,0.8-2.2,0.8c-2.1-0.6-4.1-0.8-6.1-0.8
				c-4.3,0-7.6,1.3-9.8,3.8s-3.4,6.4-3.4,11.4c0,5.1,1.3,9,4,11.8c1.4,1.5,3,2.2,4.9,2.2c1.9,0,4.9-1,8.9-3c1.4-0.7,2.4-1,2.9-1
				c1,0,1.6,0.5,1.6,1.6s-0.5,2-1.5,2.7c-1.7,0.9-3,1.6-4,2.1c-1,0.5-2.4,1-4.2,1.6c-1.8,0.6-3.4,0.9-4.8,0.9c-1.4,0-2.8-0.3-4-0.9
				c-1.3-0.6-2.4-1.4-3.3-2.3c-1.9-2.1-3.3-4.6-4.2-7.6s-1.3-6-1.3-9.1c0-3.1,0.5-5.9,1.4-8.4c0.9-2.5,2.2-4.6,3.9-6.2
				c3.4-3.2,7.5-4.8,12.4-4.8C91.8,33.8,94.7,34.4,97.9,35.4z"/>
			<path class="st3" d="M106.7,65.6l0.1-1.8c0-2.5-0.2-5.2-0.6-8.1s-0.8-5.1-1.2-6.5c-0.4-1.4-0.7-2.3-0.7-2.7
				c0-0.4,0.3-0.8,0.8-1.2c0.5-0.4,1.1-0.6,1.8-0.6c0.7,0,1.2,0.3,1.6,0.8c0.4,0.5,0.6,1,0.8,1.6c0.1,0.5,0.2,1.3,0.3,2.2
				c0.1,0.9,0.1,1.5,0.2,1.8c1-2.5,2.8-4.2,5.2-5.2c1.2-0.5,2.6-0.8,4.1-0.8c3.3,0,4.9,0.8,4.9,2.5c0,1-0.5,1.8-1.6,2.4
				c-0.4,0.2-0.9,0.3-1.3,0.4l-1.7-0.2c-5,0-7.6,5-7.6,14.9l0.1,5.5l-0.1,0.1c-0.2,0.7-0.5,1.4-1.1,1.9c-0.6,0.6-1.2,0.8-1.8,0.8
				c-0.9,0-1.5-0.7-1.7-2.2C106.9,69.8,106.7,67.9,106.7,65.6z"/>
			<path class="st3" d="M143.5,47.1c2,1.2,3,2.7,3,4.5c0,1.8-0.9,3.6-2.8,5.3c-1.8,1.8-4.1,2.8-6.7,3.2c-0.2,0-0.4,0.1-0.6,0.1
				c-0.1,0-0.3,0-0.6,0.1s-0.4,0-0.6,0c-0.1,0-0.3,0-0.6,0c-0.3,0-0.5,0-0.6,0s-0.3,0-0.7,0s-0.5,0-0.7,0c0.4,3.1,1,5.2,1.8,6.2
				c1.2,0.9,2.1,1.4,2.9,1.5c2,0,3.8-0.8,5.5-2.5c1.7-1.7,3-2.5,3.8-2.5c0.3,0,0.8,0.3,1.4,0.9c0.7,0.6,1,1.2,1,1.7
				c0,0.6-0.4,1.2-1.1,2c-0.7,0.8-1.6,1.6-2.7,2.5s-2.4,1.6-4,2.2c-1.6,0.6-3.1,1-4.4,1c-1.4,0-2.6-0.3-3.6-1
				c-1.8-1.2-3.2-3.1-4.2-5.9c-1-2.8-1.5-5.7-1.5-8.7c0-3.1,0.7-5.8,2-8.3c1.5-2.8,4-4.1,7.7-4.1C139.5,45.3,141.5,45.9,143.5,47.1z
				 M141.2,52c0-1.7-1.1-2.5-3.4-2.5c-1.5,0-2.8,0.9-3.9,2.6c-0.4,0.5-0.6,1.1-0.8,1.9c-0.1,0.7-0.3,1.5-0.4,2.2
				C138.4,56.1,141.2,54.7,141.2,52z"/>
			<path class="st3" d="M172.3,50.6l-0.1,4.2c0,1.6-0.1,3.6-0.4,6.1c0.2,4.3,0.7,8.1,1.4,11.5c-0.1,0.4-0.4,0.8-1,1
				c-0.5,0.3-1.1,0.4-1.7,0.4c-0.6,0-1.1-0.1-1.4-0.2c-0.4-0.2-0.6-0.4-0.8-0.8c-0.1-0.3-0.2-0.6-0.3-0.9s-0.1-0.6-0.1-1
				c0-0.4,0-0.7-0.1-0.8c-1.9,2-4.3,2.9-7.3,2.9c-3,0-5.2-1.1-6.5-3.5c-1.3-2.3-1.9-5.5-1.9-9.6c0-7.2,2.1-11.8,6.2-13.8
				c1.3-0.6,2.7-0.9,4.4-0.9c1.6,0,3.2,0.3,4.8,0.8c0.5-0.7,1.2-1.1,2.2-1.1c1.7,0,2.5,1.3,2.6,3.8
				C172.3,49.5,172.3,50.1,172.3,50.6z M166.4,64.9c0.8-2.2,1.1-4.6,1.1-7.1c0-2.5-0.3-4.4-0.9-5.5c-0.6-1.2-1.7-1.8-3.2-1.8
				c-0.6,0-1.5,0.1-2.5,0.2c-1,0.1-2,1-2.9,2.7c-0.9,1.7-1.3,3.1-1.3,4.3v2.4c0,4.2,0.9,6.9,2.6,8c0.5,0.4,1.2,0.5,2.1,0.5
				c0.9,0,1.8-0.4,2.8-1.1C165.3,66.8,166,65.9,166.4,64.9z"/>
			<path class="st3" d="M188.9,32l-0.3,7.3c0,0.5,0.1,2.4,0.2,5.7c2.4,0,4.7-0.1,7-0.2c1.2,0.3,1.8,1,1.8,2.1s-0.4,1.9-1.2,2.4
				c-0.8,0.5-1.6,0.7-2.4,0.8c-0.8,0-1.4,0.1-1.9,0.1c-0.4,0-1,0-1.7,0c-0.7,0-1.2,0-1.5,0c0,0.4,0.1,1.5,0.2,3.3s0.1,3.1,0.2,3.6
				c0.3,5.4,0.8,9.9,1.4,13.3c-0.2,0.8-0.5,1.4-1.1,2c-0.6,0.6-1.2,0.9-1.9,0.9c-0.7,0-1.2-0.5-1.6-1.4c-0.6-3.6-1-7.8-1.2-12.7
				s-0.4-7.9-0.4-8.9c-0.6,0-1.5,0.1-2.9,0.1s-2.5-0.1-3.4-0.4c-1-0.2-1.4-0.8-1.4-1.7c0-2,1.2-3,3.5-3l2.9,0.1c0.5,0,0.9,0,1.1-0.1
				c-0.2-4-0.2-6.1-0.2-6.2c0-0.3,0-0.9,0.1-1.9c0-1,0.1-2.4,0.2-4.3c0.2-0.7,0.5-1.3,1.1-1.7c0.6-0.5,1.2-0.7,1.8-0.7
				C188.1,30.3,188.7,30.9,188.9,32z"/>
			<path class="st3" d="M215.6,47.1c2,1.2,3,2.7,3,4.5c0,1.8-0.9,3.6-2.8,5.3c-1.8,1.8-4.1,2.8-6.7,3.2c-0.2,0-0.4,0.1-0.6,0.1
				c-0.1,0-0.3,0-0.6,0.1s-0.4,0-0.6,0c-0.1,0-0.3,0-0.6,0c-0.3,0-0.5,0-0.6,0s-0.3,0-0.7,0s-0.5,0-0.7,0c0.4,3.1,1,5.2,1.8,6.2
				c1.2,0.9,2.1,1.4,2.9,1.5c2,0,3.8-0.8,5.5-2.5c1.7-1.7,3-2.5,3.8-2.5c0.3,0,0.8,0.3,1.4,0.9c0.7,0.6,1,1.2,1,1.7
				c0,0.6-0.4,1.2-1.1,2c-0.7,0.8-1.6,1.6-2.7,2.5s-2.4,1.6-4,2.2c-1.6,0.6-3.1,1-4.4,1c-1.4,0-2.6-0.3-3.6-1
				c-1.8-1.2-3.2-3.1-4.2-5.9c-1-2.8-1.5-5.7-1.5-8.7c0-3.1,0.7-5.8,2-8.3c1.5-2.8,4-4.1,7.7-4.1C211.6,45.3,213.6,45.9,215.6,47.1z
				 M213.3,52c0-1.7-1.1-2.5-3.4-2.5c-1.5,0-2.8,0.9-3.9,2.6c-0.4,0.5-0.6,1.1-0.8,1.9c-0.1,0.7-0.3,1.5-0.4,2.2
				C210.5,56.1,213.3,54.7,213.3,52z"/>
			<path class="st3" d="M254.4,71.2l0.1-3.1c0-0.5,0-1.1,0-1.9c0-0.8,0-1.7-0.1-2.7c0-1-0.1-2-0.2-3.1c-0.1-1-0.2-2-0.4-2.9
				c-0.2-1.8-0.7-3.4-1.4-4.6c-0.7-1.2-1.6-1.9-2.6-1.9s-1.9,0.2-2.6,0.5c-0.7,0.4-1.2,0.9-1.6,1.7c-0.9,1.6-1.4,3.2-1.6,5
				c-0.2,1.8-0.2,3.7-0.2,5.8l-0.2,6.5c0,0.8-0.3,1.5-0.9,2c-0.6,0.5-1.3,0.7-2.1,0.7c-1,0-1.5-0.6-1.5-1.9c0-3.3-0.1-7.4-0.3-12.2
				c-0.2-4.8-0.3-8.9-0.3-12.1c0.2-0.7,0.5-1.3,1-1.8s0.9-0.8,1.4-0.8c0.4,0,0.8,0,1,0.1s0.4,0.2,0.6,0.3c0.1,0.2,0.3,0.3,0.4,0.5
				c0.1,0.1,0.2,0.4,0.2,0.8c0.1,0.4,0.1,0.7,0.1,0.9c0,0.2,0,0.6,0.1,1.2c0,0.5,0,1,0.1,1.3c2.2-2.8,4.9-4.3,8.1-4.3
				c2.2,0,3.9,1,5,3.1c1.6,3,2.5,7.7,2.5,13.9l0.1,5.6c0,1.5-0.1,2.5-0.2,3c-0.2,0.5-0.4,0.9-0.6,1.3c-0.4,0.8-1.1,1.1-2.2,1.1
				C254.9,73.1,254.4,72.4,254.4,71.2z"/>
			<path class="st3" d="M280.3,47.1c2,1.2,3,2.7,3,4.5c0,1.8-0.9,3.6-2.8,5.3c-1.8,1.8-4.1,2.8-6.7,3.2c-0.2,0-0.4,0.1-0.6,0.1
				c-0.1,0-0.3,0-0.6,0.1s-0.4,0-0.6,0c-0.1,0-0.3,0-0.6,0c-0.3,0-0.5,0-0.6,0s-0.3,0-0.7,0s-0.5,0-0.7,0c0.4,3.1,1,5.2,1.8,6.2
				c1.2,0.9,2.1,1.4,2.9,1.5c2,0,3.8-0.8,5.5-2.5c1.7-1.7,3-2.5,3.8-2.5c0.3,0,0.8,0.3,1.4,0.9c0.7,0.6,1,1.2,1,1.7
				c0,0.6-0.4,1.2-1.1,2c-0.7,0.8-1.6,1.6-2.7,2.5s-2.4,1.6-4,2.2c-1.6,0.6-3.1,1-4.4,1c-1.4,0-2.6-0.3-3.6-1
				c-1.8-1.2-3.2-3.1-4.2-5.9c-1-2.8-1.5-5.7-1.5-8.7c0-3.1,0.7-5.8,2-8.3c1.5-2.8,4-4.1,7.7-4.1C276.3,45.3,278.3,45.9,280.3,47.1z
				 M278,52c0-1.7-1.1-2.5-3.4-2.5c-1.5,0-2.8,0.9-3.9,2.6c-0.4,0.5-0.6,1.1-0.8,1.9c-0.1,0.7-0.3,1.5-0.4,2.2
				C275.2,56.1,278,54.7,278,52z"/>
			<path class="st3" d="M307.6,56.3l-0.4-9.1c0.2-0.6,0.6-1.1,1.1-1.5c0.5-0.4,1-0.7,1.5-0.7c1.2,0,1.7,2.3,1.7,6.8v3.3
				c0,5.4-0.8,10.2-2.5,14.3c-0.9,2.4-2,3.6-3.3,3.6c-0.8,0-1.5-0.5-2.2-1.6c-0.7-1-1.4-2.4-2.2-4.2c-0.8-1.7-1.4-2.9-1.8-3.6
				c-0.4,0.8-1,2-1.8,3.6c-0.8,1.5-1.2,2.4-1.4,2.7c-1.3,2.1-2.5,3.1-3.6,3.1c-0.4,0-1.1-1.1-2.2-3.2c-2.4-7.2-3.6-14.7-3.6-22.6
				c0.2-0.9,0.8-1.5,1.8-2c0.3-0.1,0.5-0.2,0.8-0.2c0.8,0,1.3,0.5,1.5,1.6c0,6.3,1.1,12.3,3.2,18c0.4-0.7,0.9-1.6,1.5-2.7
				c0.5-1.1,1-1.9,1.2-2.4c0.8-1.4,1.7-2,2.8-2s2.3,1,3.4,2.9c0.8,1.4,1.4,2.6,1.9,3.6c0.5,1,0.8,1.5,0.8,1.6
				C307.1,62.3,307.6,59.2,307.6,56.3z"/>
		</g>
	</g>
</g>
<g id="Layer_4">
	<g>
		<g>
			<path class="st4" d="M357.9,42.4c-1.5-8.2-3.1-17.3-5.8-24.5C347.8,6,340.8,4.7,332,4.5C318.4,4.1,40,9.1,30.6,11.2
				c-7.5,1.6-11.8,7.4-13.8,17.5c-1.7,8.4-7.1,42.4-7.2,48.5c-0.1,8,3,19.7,15.2,22c10.9,2,21.7,1.8,42.4,1.7
				c13.1,0,247,2,262.4,2.3c10.2,0.4,17.9,0.6,20.7,0.4c9.2-0.9,13.4-7.1,13.7-15.5C364.4,78.4,359.4,50.2,357.9,42.4z"/>
			<path class="st6" d="M355.2,41.4c-1.5-8.2-3.1-17.3-5.8-24.5C345.1,5,338.1,3.7,329.3,3.5c-13.7-0.4-292,4.6-301.5,6.7
				c-7.5,1.6-11.8,7.4-13.8,17.5c-1.7,8.4-7.1,42.4-7.2,48.5c-0.1,8,3,19.7,15.2,22c10.9,2,21.7,1.8,42.4,1.7
				c13.1,0,247,2,262.4,2.3c10.2,0.4,17.9,0.6,20.7,0.4c9.2-0.9,13.4-7.1,13.7-15.5C361.7,77.4,356.7,49.2,355.2,41.4z"/>
			<path class="st3" d="M39.8,12.4c0,0-18.7-1.5-20.5,15.3C19.3,27.7,24.7,12.6,39.8,12.4z"/>
			<path class="st3" d="M337.8,100.7c0,0,18.6,2.4,21.3-14.3C359.1,86.4,352.9,101.2,337.8,100.7z"/>
		</g>
		<g>
			<path class="st3" d="M67.7,38.5c0.7,0.5,1,1,1,1.7c0,0.6-0.3,1.2-0.9,1.6c-0.6,0.5-1.3,0.7-2.1,0.7c-1.9-0.5-3.8-0.8-5.6-0.8
				c-3.9,0-6.9,1.2-9,3.5c-2.1,2.3-3.1,5.8-3.1,10.5c0,4.7,1.2,8.3,3.6,10.8c1.3,1.4,2.8,2,4.5,2c1.7,0,4.5-0.9,8.2-2.8
				c1.3-0.6,2.2-0.9,2.6-0.9c1,0,1.4,0.5,1.4,1.5s-0.5,1.8-1.4,2.5c-1.5,0.8-2.8,1.4-3.7,1.9c-0.9,0.5-2.2,1-3.9,1.5
				c-1.6,0.5-3.1,0.8-4.4,0.8c-1.3,0-2.5-0.3-3.7-0.8c-1.2-0.5-2.2-1.2-3-2.1c-1.8-1.9-3-4.2-3.8-6.9c-0.8-2.7-1.2-5.5-1.2-8.3
				c0-2.8,0.4-5.4,1.3-7.7c0.9-2.3,2-4.2,3.5-5.6c3.1-2.9,6.9-4.4,11.3-4.4C62.1,37.1,64.8,37.6,67.7,38.5z"/>
			<path class="st3" d="M93.1,59.7c0,2.3-0.1,4.5-0.3,6.7c-0.2,2.2-0.3,3.6-0.4,4.3c-0.1,0.7-0.4,1.3-1,1.7
				c-0.6,0.5-1.2,0.7-1.7,0.7c-1,0-1.5-0.5-1.5-1.4v-0.3l0.3-9.7v-2.8c0-3.4-0.7-5.6-2.2-6.4c-0.7-0.4-1.5-0.6-2.5-0.6
				c-3,0-4.5,1.2-4.5,3.5c0,2.8,0.1,5.1,0.2,7c0.1,1.9,0.2,3.5,0.2,4.8c0,1.3,0,2.6-0.1,3.8l-0.1,0.2c-0.2,0.5-0.5,1-1.1,1.5
				s-1.1,0.6-1.6,0.6c-1,0-1.6-0.5-1.6-1.4H75c0-5.5-0.2-11.5-0.7-18c-0.5-6.5-0.8-12.5-0.8-17.8c0.2-0.8,0.7-1.5,1.5-2
				c0.3-0.1,0.7-0.2,1.1-0.2c0.4,0,0.8,0.2,1.2,0.7c0.3,0.5,0.6,1.2,0.7,2.2c0.1,1,0.2,2.1,0.2,3.1s0,2.5,0.1,4.3
				c0,1.8,0.1,3.4,0.2,4.7c1.8-1,3.6-1.4,5.4-1.4s3.2,0.3,4.3,0.8c1.9,1,3.3,2.6,3.9,4.8C92.7,55.2,93.1,57.5,93.1,59.7z"/>
			<path class="st3" d="M115.9,52.5l-0.1,3.8c0,1.5-0.1,3.3-0.4,5.6c0.2,3.9,0.6,7.4,1.3,10.5c-0.1,0.4-0.4,0.7-0.9,1
				s-1,0.4-1.5,0.4s-1-0.1-1.3-0.2c-0.3-0.1-0.6-0.4-0.7-0.7c-0.1-0.3-0.2-0.6-0.3-0.8c-0.1-0.2-0.1-0.5-0.1-0.9
				c0-0.4,0-0.6-0.1-0.7c-1.7,1.8-4,2.7-6.7,2.7c-2.8,0-4.7-1.1-5.9-3.2s-1.8-5.1-1.8-8.8c0-6.6,1.9-10.8,5.7-12.6
				c1.2-0.6,2.5-0.8,4-0.8c1.5,0,3,0.3,4.4,0.8c0.5-0.7,1.1-1,2-1c1.5,0,2.3,1.2,2.4,3.5C115.9,51.5,115.9,52,115.9,52.5z
				 M110.4,65.6c0.7-2,1-4.2,1-6.5c0-2.3-0.3-4-0.8-5.1c-0.5-1.1-1.5-1.6-2.9-1.6c-0.6,0-1.3,0.1-2.3,0.2c-0.9,0.1-1.8,0.9-2.6,2.5
				c-0.8,1.5-1.2,2.8-1.2,3.9v2.2c0,3.8,0.8,6.3,2.4,7.4c0.5,0.3,1.1,0.5,1.9,0.5s1.7-0.3,2.6-1C109.4,67.3,110.1,66.5,110.4,65.6z"
				/>
			<path class="st3" d="M137.8,71.3l0.1-2.9c0-0.4,0-1,0-1.7s0-1.5-0.1-2.5c0-0.9-0.1-1.9-0.1-2.8c-0.1-0.9-0.2-1.8-0.3-2.7
				c-0.2-1.7-0.7-3.1-1.3-4.2c-0.6-1.1-1.4-1.7-2.4-1.7c-1,0-1.7,0.2-2.4,0.5c-0.6,0.3-1.1,0.8-1.5,1.5c-0.8,1.4-1.3,3-1.4,4.6
				c-0.1,1.7-0.2,3.4-0.2,5.3l-0.2,5.9c0,0.8-0.3,1.4-0.9,1.8c-0.6,0.4-1.2,0.6-2,0.6c-0.9,0-1.4-0.6-1.4-1.8c0-3-0.1-6.8-0.3-11.2
				c-0.2-4.4-0.3-8.1-0.3-11.1c0.2-0.6,0.5-1.2,0.9-1.6c0.4-0.5,0.8-0.7,1.2-0.7s0.7,0,0.9,0.1c0.2,0.1,0.4,0.2,0.5,0.3
				c0.1,0.1,0.2,0.3,0.3,0.4c0.1,0.1,0.2,0.4,0.2,0.7s0.1,0.6,0.1,0.8c0,0.2,0,0.6,0.1,1.1c0,0.5,0,0.9,0.1,1.2
				c2-2.6,4.5-3.9,7.4-3.9c2.1,0,3.6,0.9,4.6,2.8c1.5,2.8,2.3,7,2.3,12.8l0.1,5.2c0,1.4-0.1,2.3-0.2,2.8c-0.1,0.5-0.3,0.9-0.6,1.2
				c-0.4,0.7-1,1-2,1C138.2,73.1,137.8,72.5,137.8,71.3z"/>
			<path class="st3" d="M166.8,76.5l0.1,4.3c0,1.9-0.1,3.2-0.4,4.1c-0.8,1.9-1.7,3.2-2.9,3.9c-1.6,1-3.6,1.4-6.2,1.4
				c-2.5,0-4.9-0.6-7.1-1.9c-1.1-0.6-1.7-1.2-1.7-2.1c0-0.8,0.2-1.4,0.7-1.8c0.4-0.4,1-0.6,1.6-0.6c0.6,0,1.7,0.4,3.4,1.2
				c1.7,0.8,3.1,1.2,4.3,1.2c2.6,0,4-2.1,4-6.3c0-4.2-0.1-7.3-0.2-9.1c-1.3,1.5-3,2.3-5,2.3c-2,0-3.7-0.6-5.3-1.8
				c-3.1-2.3-4.6-6-4.6-10.9s1.7-8.6,5.1-11c1.8-1.2,3.8-1.8,6.1-1.8c3,0,5.1,1.5,6.2,4.4c0.9,2.4,1.4,5.4,1.4,9.2c0,0.8,0,2,0,3.7
				c0,1.7,0,3.3,0.1,4.9c0.1,1.6,0.2,3,0.2,4.1C166.7,75,166.8,75.9,166.8,76.5z M162.2,62.3c0-6.9-1.7-10.3-5.1-10.3
				c-1.6,0-2.9,0.8-3.9,2.3c-1,1.5-1.5,3.5-1.5,5.8c0,2.3,0.5,4.2,1.4,5.6c0.9,1.4,2.4,2.2,4.5,2.2s3.4-0.5,3.9-1.4
				C162,65.5,162.2,64.1,162.2,62.3z"/>
			<path class="st3" d="M185.9,49.3c1.8,1.1,2.7,2.5,2.7,4.1c0,1.6-0.8,3.3-2.5,4.9c-1.7,1.6-3.7,2.6-6.1,2.9
				c-0.2,0-0.4,0.1-0.5,0.1c-0.1,0-0.3,0-0.5,0.1s-0.4,0-0.5,0c-0.1,0-0.3,0-0.5,0c-0.2,0-0.4,0-0.5,0c-0.1,0-0.3,0-0.6,0
				c-0.3,0-0.5,0-0.6,0c0.4,2.9,1,4.7,1.6,5.7c1.1,0.8,2,1.3,2.7,1.4c1.8,0,3.5-0.8,5.1-2.3s2.7-2.3,3.4-2.3c0.3,0,0.7,0.3,1.3,0.8
				c0.6,0.5,0.9,1.1,0.9,1.6c0,0.5-0.3,1.1-1,1.9c-0.7,0.7-1.5,1.5-2.5,2.3c-1,0.8-2.2,1.5-3.7,2.1c-1.4,0.6-2.8,0.9-4,0.9
				c-1.2,0-2.3-0.3-3.3-0.9c-1.7-1.1-3-2.9-3.9-5.4c-0.9-2.5-1.3-5.2-1.3-8c0-2.8,0.6-5.3,1.9-7.6c1.4-2.5,3.7-3.8,7-3.8
				C182.3,47.6,184.1,48.2,185.9,49.3z M183.8,53.7c0-1.5-1-2.3-3.1-2.3c-1.4,0-2.6,0.8-3.6,2.4c-0.3,0.5-0.6,1-0.7,1.7
				c-0.1,0.7-0.2,1.3-0.4,2C181.2,57.5,183.8,56.3,183.8,53.7z"/>
			<path class="st3" d="M224.9,52.5l-0.1,3.8c0,1.5-0.1,3.3-0.4,5.6c0.2,3.9,0.6,7.4,1.3,10.5c-0.1,0.4-0.4,0.7-0.9,1
				s-1,0.4-1.5,0.4s-1-0.1-1.3-0.2c-0.3-0.1-0.6-0.4-0.7-0.7c-0.1-0.3-0.2-0.6-0.3-0.8c-0.1-0.2-0.1-0.5-0.1-0.9
				c0-0.4,0-0.6-0.1-0.7c-1.7,1.8-4,2.7-6.7,2.7c-2.8,0-4.7-1.1-5.9-3.2s-1.8-5.1-1.8-8.8c0-6.6,1.9-10.8,5.7-12.6
				c1.2-0.6,2.5-0.8,4-0.8c1.5,0,3,0.3,4.4,0.8c0.5-0.7,1.1-1,2-1c1.5,0,2.3,1.2,2.4,3.5C224.9,51.5,224.9,52,224.9,52.5z
				 M219.4,65.6c0.7-2,1-4.2,1-6.5c0-2.3-0.3-4-0.8-5.1c-0.5-1.1-1.5-1.6-2.9-1.6c-0.6,0-1.3,0.1-2.3,0.2c-0.9,0.1-1.8,0.9-2.6,2.5
				c-0.8,1.5-1.2,2.8-1.2,3.9v2.2c0,3.8,0.8,6.3,2.4,7.4c0.5,0.3,1.1,0.5,1.9,0.5s1.7-0.3,2.6-1C218.4,67.3,219.1,66.5,219.4,65.6z"
				/>
			<path class="st3" d="M250,48.8l-0.1,0.5c-1.8,4.4-3.1,8.3-4,11.5c-0.9,3.3-1.8,6.7-2.8,10.5c-0.2,0.5-0.6,1-1,1.3
				c-0.5,0.4-1,0.6-1.7,0.6c-0.6,0-1.1-0.4-1.3-1.2c-1.2-3.7-2.8-7.7-5-12c-2.1-4.3-3.4-7-3.9-7.9c-0.4-1-0.7-1.7-0.7-2.2
				c0-0.5,0.2-1,0.7-1.6c0.5-0.5,1.1-0.8,1.7-0.8c0.6,0,1.2,0.3,1.6,1c0.5,1,1.6,3.3,3.5,6.8c1.8,3.5,3.2,6.4,4,8.7
				c0.2-0.7,0.5-1.7,0.9-3.1c1.5-5.1,2.8-9.1,4.1-12.2c0.6-1,1.4-1.5,2.4-1.5c0.6,0,1,0.2,1.2,0.6C249.9,48.1,250,48.4,250,48.8z"/>
			<path class="st3" d="M272.1,52.5l-0.1,3.8c0,1.5-0.1,3.3-0.4,5.6c0.2,3.9,0.6,7.4,1.3,10.5c-0.1,0.4-0.4,0.7-0.9,1
				s-1,0.4-1.5,0.4s-1-0.1-1.3-0.2c-0.3-0.1-0.6-0.4-0.7-0.7c-0.1-0.3-0.2-0.6-0.3-0.8c-0.1-0.2-0.1-0.5-0.1-0.9
				c0-0.4,0-0.6-0.1-0.7c-1.7,1.8-4,2.7-6.7,2.7c-2.8,0-4.7-1.1-5.9-3.2c-1.2-2.1-1.8-5.1-1.8-8.8c0-6.6,1.9-10.8,5.7-12.6
				c1.2-0.6,2.5-0.8,4-0.8c1.5,0,3,0.3,4.4,0.8c0.5-0.7,1.1-1,2-1c1.5,0,2.3,1.2,2.4,3.5C272.1,51.5,272.1,52,272.1,52.5z
				 M266.7,65.6c0.7-2,1-4.2,1-6.5c0-2.3-0.3-4-0.8-5.1c-0.5-1.1-1.5-1.6-2.9-1.6c-0.6,0-1.3,0.1-2.3,0.2c-0.9,0.1-1.8,0.9-2.6,2.5
				c-0.8,1.5-1.2,2.8-1.2,3.9v2.2c0,3.8,0.8,6.3,2.4,7.4c0.5,0.3,1.1,0.5,1.9,0.5s1.7-0.3,2.6-1C265.7,67.3,266.3,66.5,266.7,65.6z"
				/>
			<path class="st3" d="M287.3,35.5l-0.3,6.7c0,0.4,0.1,2.2,0.2,5.2c2.2,0,4.3-0.1,6.4-0.2c1.1,0.3,1.7,0.9,1.7,1.9
				c0,1-0.4,1.8-1.1,2.2s-1.5,0.7-2.2,0.7c-0.7,0-1.3,0.1-1.7,0.1s-0.9,0-1.5,0c-0.6,0-1.1,0-1.4,0c0,0.3,0.1,1.3,0.2,3.1
				s0.1,2.8,0.2,3.3c0.3,5,0.7,9,1.3,12.2c-0.1,0.7-0.5,1.3-1,1.8c-0.5,0.5-1.1,0.8-1.8,0.8c-0.6,0-1.1-0.4-1.5-1.3
				c-0.5-3.3-0.9-7.2-1.1-11.7c-0.2-4.5-0.3-7.2-0.4-8.1c-0.5,0-1.4,0.1-2.7,0.1c-1.3,0-2.3-0.1-3.1-0.3c-0.9-0.2-1.3-0.7-1.3-1.6
				c0-1.8,1.1-2.8,3.2-2.8l2.6,0.1c0.4,0,0.8,0,1-0.1c-0.1-3.7-0.2-5.6-0.2-5.7c0-0.3,0-0.8,0.1-1.7c0-0.9,0.1-2.2,0.2-3.9
				c0.1-0.6,0.5-1.2,1-1.6c0.6-0.4,1.1-0.7,1.7-0.7C286.6,33.9,287.1,34.4,287.3,35.5z"/>
			<path class="st3" d="M316.3,52.5l-0.1,3.8c0,1.5-0.1,3.3-0.4,5.6c0.2,3.9,0.6,7.4,1.3,10.5c-0.1,0.4-0.4,0.7-0.9,1
				s-1,0.4-1.5,0.4s-1-0.1-1.3-0.2c-0.3-0.1-0.6-0.4-0.7-0.7c-0.1-0.3-0.2-0.6-0.3-0.8c-0.1-0.2-0.1-0.5-0.1-0.9
				c0-0.4,0-0.6-0.1-0.7c-1.7,1.8-4,2.7-6.7,2.7c-2.8,0-4.7-1.1-5.9-3.2s-1.8-5.1-1.8-8.8c0-6.6,1.9-10.8,5.7-12.6
				c1.2-0.6,2.5-0.8,4-0.8c1.5,0,3,0.3,4.4,0.8c0.5-0.7,1.1-1,2-1c1.5,0,2.3,1.2,2.4,3.5C316.3,51.5,316.3,52,316.3,52.5z
				 M310.9,65.6c0.7-2,1-4.2,1-6.5c0-2.3-0.3-4-0.8-5.1c-0.5-1.1-1.5-1.6-2.9-1.6c-0.6,0-1.3,0.1-2.3,0.2c-0.9,0.1-1.8,0.9-2.6,2.5
				c-0.8,1.5-1.2,2.8-1.2,3.9v2.2c0,3.8,0.8,6.3,2.4,7.4c0.5,0.3,1.1,0.5,1.9,0.5s1.7-0.3,2.6-1C309.8,67.3,310.5,66.5,310.9,65.6z"
				/>
			<path class="st3" d="M324.5,66.3l0.1-1.6c0-2.3-0.2-4.7-0.5-7.4c-0.3-2.7-0.7-4.7-1.1-6c-0.4-1.3-0.6-2.2-0.6-2.5
				c0-0.3,0.2-0.7,0.7-1.1c0.5-0.4,1-0.5,1.7-0.5c0.6,0,1.1,0.2,1.5,0.7c0.4,0.5,0.6,1,0.7,1.5c0.1,0.5,0.2,1.2,0.2,2
				c0.1,0.8,0.1,1.4,0.2,1.6c1-2.3,2.5-3.9,4.7-4.8c1.1-0.5,2.4-0.7,3.8-0.7c3,0,4.5,0.8,4.5,2.3c0,1-0.5,1.7-1.5,2.2
				c-0.4,0.2-0.8,0.3-1.2,0.3l-1.6-0.2c-4.6,0-6.9,4.6-6.9,13.7l0.1,5l-0.1,0.1c-0.1,0.7-0.5,1.2-1,1.8c-0.5,0.5-1.1,0.8-1.6,0.8
				c-0.8,0-1.3-0.7-1.6-2C324.7,70.1,324.5,68.4,324.5,66.3z"/>
		</g>
	</g>
</g>
</svg>
