<?xml version="1.0" encoding="utf-8"?>
<!-- Generator: Adobe Illustrator 21.0.0, SVG Export Plug-In . SVG Version: 6.00 Build 0)  -->
<svg version="1.1" id="Layer_1" xmlns="http://www.w3.org/2000/svg" xmlns:xlink="http://www.w3.org/1999/xlink" x="0px" y="0px"
	 viewBox="0 0 362.4 105" style="enable-background:new 0 0 362.4 105;" xml:space="preserve">
<style type="text/css">
	.st0{fill:#A7A8AC;}
	.st1{fill:#B8D432;}
	.st2{fill:#FFFFFF;}
</style>
<g>
	<g>
		<path class="st0" d="M353.1,41.9c-1.5-8.2-3.1-17.3-5.8-24.5C342.9,5.5,336,4.2,327.2,4c-13.7-0.4-292,4.6-301.5,6.7
			c-7.5,1.6-11.8,7.4-13.8,17.5c-1.7,8.4-7.1,42.4-7.2,48.5c-0.1,8,3,19.7,15.2,22c10.9,2,21.7,1.8,42.4,1.7c13.1,0,247,2,262.4,2.3
			c10.2,0.4,17.9,0.6,20.7,0.4c9.2-0.9,13.4-7.1,13.7-15.5C359.6,77.9,354.5,49.7,353.1,41.9z"/>
		<path class="st1" d="M350.4,40.9c-1.5-8.2-3.1-17.3-5.8-24.5C340.2,4.5,333.3,3.2,324.5,3c-13.7-0.4-292,4.6-301.5,6.7
			c-7.5,1.6-11.8,7.4-13.8,17.5C7.5,35.6,2.1,69.6,2,75.7c-0.1,8,3,19.7,15.2,22c10.9,2,21.7,1.8,42.4,1.7c13.1,0,247,2,262.4,2.3
			c10.2,0.4,17.9,0.6,20.7,0.4c9.2-0.9,13.4-7.1,13.7-15.5C356.9,76.9,351.8,48.7,350.4,40.9z"/>
		<path class="st2" d="M35,11.9c0,0-18.7-1.5-20.5,15.3C14.5,27.3,19.9,12.1,35,11.9z"/>
		<path class="st2" d="M332.9,100.2c0,0,18.6,2.4,21.3-14.3C354.2,85.9,348.1,100.7,332.9,100.2z"/>
	</g>
	<g>
		<path class="st2" d="M62.9,38.1c0.7,0.5,1,1,1,1.7c0,0.6-0.3,1.2-0.9,1.6c-0.6,0.5-1.3,0.7-2.1,0.7c-1.9-0.5-3.8-0.8-5.6-0.8
			c-3.9,0-6.9,1.2-9,3.5c-2.1,2.3-3.1,5.8-3.1,10.5c0,4.7,1.2,8.3,3.6,10.8c1.3,1.4,2.8,2,4.5,2c1.7,0,4.5-0.9,8.2-2.8
			c1.3-0.6,2.2-0.9,2.6-0.9c1,0,1.4,0.5,1.4,1.5s-0.5,1.8-1.4,2.5c-1.5,0.8-2.8,1.4-3.7,1.9c-0.9,0.5-2.2,1-3.9,1.5
			c-1.6,0.5-3.1,0.8-4.4,0.8c-1.3,0-2.5-0.3-3.7-0.8c-1.2-0.5-2.2-1.2-3-2.1c-1.8-1.9-3-4.2-3.8-6.9c-0.8-2.7-1.2-5.5-1.2-8.3
			c0-2.8,0.4-5.4,1.3-7.7c0.9-2.3,2-4.2,3.5-5.6c3.1-2.9,6.9-4.4,11.3-4.4C57.2,36.6,59.9,37.1,62.9,38.1z"/>
		<path class="st2" d="M88.2,59.2c0,2.3-0.1,4.5-0.3,6.7c-0.2,2.2-0.3,3.6-0.4,4.3c-0.1,0.7-0.4,1.3-1,1.7c-0.6,0.5-1.2,0.7-1.7,0.7
			c-1,0-1.5-0.5-1.5-1.4v-0.3l0.3-9.7v-2.8c0-3.4-0.7-5.6-2.2-6.4c-0.7-0.4-1.5-0.6-2.5-0.6c-3,0-4.5,1.2-4.5,3.5
			c0,2.8,0.1,5.1,0.2,7c0.1,1.9,0.2,3.5,0.2,4.8c0,1.3,0,2.6-0.1,3.8l-0.1,0.2c-0.2,0.5-0.5,1-1.1,1.5s-1.1,0.6-1.6,0.6
			c-1,0-1.6-0.5-1.6-1.4h-0.2c0-5.5-0.2-11.5-0.7-18c-0.5-6.5-0.8-12.5-0.8-17.8c0.2-0.8,0.7-1.5,1.5-2c0.3-0.1,0.7-0.2,1.1-0.2
			c0.4,0,0.8,0.2,1.2,0.7c0.3,0.5,0.6,1.2,0.7,2.2c0.1,1,0.2,2.1,0.2,3.1s0,2.5,0.1,4.3c0,1.8,0.1,3.4,0.2,4.7
			c1.8-1,3.6-1.4,5.4-1.4s3.2,0.3,4.3,0.8c1.9,1,3.3,2.6,3.9,4.8C87.9,54.7,88.2,57,88.2,59.2z"/>
		<path class="st2" d="M111,52l-0.1,3.8c0,1.5-0.1,3.3-0.4,5.6c0.2,3.9,0.6,7.4,1.3,10.5c-0.1,0.4-0.4,0.7-0.9,1s-1,0.4-1.5,0.4
			s-1-0.1-1.3-0.2c-0.3-0.1-0.6-0.4-0.7-0.7c-0.1-0.3-0.2-0.6-0.3-0.8c-0.1-0.2-0.1-0.5-0.1-0.9c0-0.4,0-0.6-0.1-0.7
			c-1.7,1.8-4,2.7-6.7,2.7c-2.8,0-4.7-1.1-5.9-3.2s-1.8-5.1-1.8-8.8c0-6.6,1.9-10.8,5.7-12.6c1.2-0.6,2.5-0.8,4-0.8
			c1.5,0,3,0.3,4.4,0.8c0.5-0.7,1.1-1,2-1c1.5,0,2.3,1.2,2.4,3.5C111,51,111,51.5,111,52z M105.6,65.1c0.7-2,1-4.2,1-6.5
			c0-2.3-0.3-4-0.8-5.1c-0.5-1.1-1.5-1.6-2.9-1.6c-0.6,0-1.3,0.1-2.3,0.2c-0.9,0.1-1.8,0.9-2.6,2.5c-0.8,1.5-1.2,2.8-1.2,3.9v2.2
			c0,3.8,0.8,6.3,2.4,7.4c0.5,0.3,1.1,0.5,1.9,0.5s1.7-0.3,2.6-1C104.6,66.8,105.2,66,105.6,65.1z"/>
		<path class="st2" d="M132.9,70.8L133,68c0-0.4,0-1,0-1.7s0-1.5-0.1-2.5c0-0.9-0.1-1.9-0.1-2.8c-0.1-0.9-0.2-1.8-0.3-2.7
			c-0.2-1.7-0.7-3.1-1.3-4.2c-0.6-1.1-1.4-1.7-2.4-1.7c-1,0-1.7,0.2-2.4,0.5c-0.6,0.3-1.1,0.8-1.5,1.5c-0.8,1.4-1.3,3-1.4,4.6
			c-0.1,1.7-0.2,3.4-0.2,5.3l-0.2,5.9c0,0.8-0.3,1.4-0.9,1.8c-0.6,0.4-1.2,0.6-2,0.6c-0.9,0-1.4-0.6-1.4-1.8c0-3-0.1-6.8-0.3-11.2
			c-0.2-4.4-0.3-8.1-0.3-11.1c0.2-0.6,0.5-1.2,0.9-1.6c0.4-0.5,0.8-0.7,1.2-0.7s0.7,0,0.9,0.1c0.2,0.1,0.4,0.2,0.5,0.3
			c0.1,0.1,0.2,0.3,0.3,0.4c0.1,0.1,0.2,0.4,0.2,0.7s0.1,0.6,0.1,0.8c0,0.2,0,0.6,0.1,1.1c0,0.5,0,0.9,0.1,1.2
			c2-2.6,4.5-3.9,7.4-3.9c2.1,0,3.6,0.9,4.6,2.8c1.5,2.8,2.3,7,2.3,12.8l0.1,5.2c0,1.4-0.1,2.3-0.2,2.8c-0.1,0.5-0.3,0.9-0.6,1.2
			c-0.4,0.7-1,1-2,1C133.4,72.6,132.9,72,132.9,70.8z"/>
		<path class="st2" d="M161.9,76l0.1,4.3c0,1.9-0.1,3.2-0.4,4.1c-0.8,1.9-1.7,3.2-2.9,3.9c-1.6,1-3.6,1.4-6.2,1.4
			c-2.5,0-4.9-0.6-7.1-1.9c-1.1-0.6-1.7-1.2-1.7-2.1c0-0.8,0.2-1.4,0.7-1.8c0.4-0.4,1-0.6,1.6-0.6c0.6,0,1.7,0.4,3.4,1.2
			c1.7,0.8,3.1,1.2,4.3,1.2c2.6,0,4-2.1,4-6.3c0-4.2-0.1-7.3-0.2-9.1c-1.3,1.5-3,2.3-5,2.3c-2,0-3.7-0.6-5.3-1.8
			c-3.1-2.3-4.6-6-4.6-10.9s1.7-8.6,5.1-11c1.8-1.2,3.8-1.8,6.1-1.8c3,0,5.1,1.5,6.2,4.4c0.9,2.4,1.4,5.4,1.4,9.2c0,0.8,0,2,0,3.7
			c0,1.7,0,3.3,0.1,4.9c0.1,1.6,0.2,3,0.2,4.1C161.9,74.5,161.9,75.4,161.9,76z M157.4,61.8c0-6.9-1.7-10.3-5.1-10.3
			c-1.6,0-2.9,0.8-3.9,2.3c-1,1.5-1.5,3.5-1.5,5.8c0,2.3,0.5,4.2,1.4,5.6c0.9,1.4,2.4,2.2,4.5,2.2s3.4-0.5,3.9-1.4
			C157.1,65,157.4,63.6,157.4,61.8z"/>
		<path class="st2" d="M181.1,48.8c1.8,1.1,2.7,2.5,2.7,4.1c0,1.6-0.8,3.3-2.5,4.9c-1.7,1.6-3.7,2.6-6.1,2.9c-0.2,0-0.4,0.1-0.5,0.1
			c-0.1,0-0.3,0-0.5,0.1s-0.4,0-0.5,0c-0.1,0-0.3,0-0.5,0c-0.2,0-0.4,0-0.5,0c-0.1,0-0.3,0-0.6,0c-0.3,0-0.5,0-0.6,0
			c0.4,2.9,1,4.7,1.6,5.7c1.1,0.8,2,1.3,2.7,1.4c1.8,0,3.5-0.8,5.1-2.3s2.7-2.3,3.4-2.3c0.3,0,0.7,0.3,1.3,0.8
			c0.6,0.5,0.9,1.1,0.9,1.6c0,0.5-0.3,1.1-1,1.9c-0.7,0.7-1.5,1.5-2.5,2.3c-1,0.8-2.2,1.5-3.7,2.1c-1.4,0.6-2.8,0.9-4,0.9
			c-1.2,0-2.3-0.3-3.3-0.9c-1.7-1.1-3-2.9-3.9-5.4c-0.9-2.5-1.3-5.2-1.3-8c0-2.8,0.6-5.3,1.9-7.6c1.4-2.5,3.7-3.8,7-3.8
			C177.5,47.1,179.3,47.7,181.1,48.8z M179,53.2c0-1.5-1-2.3-3.1-2.3c-1.4,0-2.6,0.8-3.6,2.4c-0.3,0.5-0.6,1-0.7,1.7
			c-0.1,0.7-0.2,1.3-0.4,2C176.4,57,179,55.8,179,53.2z"/>
		<path class="st2" d="M220.1,52l-0.1,3.8c0,1.5-0.1,3.3-0.4,5.6c0.2,3.9,0.6,7.4,1.3,10.5c-0.1,0.4-0.4,0.7-0.9,1s-1,0.4-1.5,0.4
			s-1-0.1-1.3-0.2c-0.3-0.1-0.6-0.4-0.7-0.7c-0.1-0.3-0.2-0.6-0.3-0.8c-0.1-0.2-0.1-0.5-0.1-0.9c0-0.4,0-0.6-0.1-0.7
			c-1.7,1.8-4,2.7-6.7,2.7c-2.8,0-4.7-1.1-5.9-3.2s-1.8-5.1-1.8-8.8c0-6.6,1.9-10.8,5.7-12.6c1.2-0.6,2.5-0.8,4-0.8
			c1.5,0,3,0.3,4.4,0.8c0.5-0.7,1.1-1,2-1c1.5,0,2.3,1.2,2.4,3.5C220,51,220.1,51.5,220.1,52z M214.6,65.1c0.7-2,1-4.2,1-6.5
			c0-2.3-0.3-4-0.8-5.1c-0.5-1.1-1.5-1.6-2.9-1.6c-0.6,0-1.3,0.1-2.3,0.2c-0.9,0.1-1.8,0.9-2.6,2.5c-0.8,1.5-1.2,2.8-1.2,3.9v2.2
			c0,3.8,0.8,6.3,2.4,7.4c0.5,0.3,1.1,0.5,1.9,0.5s1.7-0.3,2.6-1C213.6,66.8,214.2,66,214.6,65.1z"/>
		<path class="st2" d="M245.1,48.3l-0.1,0.5c-1.8,4.4-3.1,8.3-4,11.5c-0.9,3.3-1.8,6.7-2.8,10.5c-0.2,0.5-0.6,1-1,1.3
			c-0.5,0.4-1,0.6-1.7,0.6c-0.6,0-1.1-0.4-1.3-1.2c-1.2-3.7-2.8-7.7-5-12c-2.1-4.3-3.4-7-3.9-7.9c-0.4-1-0.7-1.7-0.7-2.2
			c0-0.5,0.2-1,0.7-1.6c0.5-0.5,1.1-0.8,1.7-0.8c0.6,0,1.2,0.3,1.6,1c0.5,1,1.6,3.3,3.5,6.8c1.8,3.5,3.2,6.4,4,8.7
			c0.2-0.7,0.5-1.7,0.9-3.1c1.5-5.1,2.8-9.1,4.1-12.2c0.6-1,1.4-1.5,2.4-1.5c0.6,0,1,0.2,1.2,0.6C245,47.6,245.1,48,245.1,48.3z"/>
		<path class="st2" d="M267.3,52l-0.1,3.8c0,1.5-0.1,3.3-0.4,5.6c0.2,3.9,0.6,7.4,1.3,10.5c-0.1,0.4-0.4,0.7-0.9,1s-1,0.4-1.5,0.4
			s-1-0.1-1.3-0.2c-0.3-0.1-0.6-0.4-0.7-0.7c-0.1-0.3-0.2-0.6-0.3-0.8c-0.1-0.2-0.1-0.5-0.1-0.9c0-0.4,0-0.6-0.1-0.7
			c-1.7,1.8-4,2.7-6.7,2.7c-2.8,0-4.7-1.1-5.9-3.2s-1.8-5.1-1.8-8.8c0-6.6,1.9-10.8,5.7-12.6c1.2-0.6,2.5-0.8,4-0.8
			c1.5,0,3,0.3,4.4,0.8c0.5-0.7,1.1-1,2-1c1.5,0,2.3,1.2,2.4,3.5C267.3,51,267.3,51.5,267.3,52z M261.9,65.1c0.7-2,1-4.2,1-6.5
			c0-2.3-0.3-4-0.8-5.1c-0.5-1.1-1.5-1.6-2.9-1.6c-0.6,0-1.3,0.1-2.3,0.2c-0.9,0.1-1.8,0.9-2.6,2.5c-0.8,1.5-1.2,2.8-1.2,3.9v2.2
			c0,3.8,0.8,6.3,2.4,7.4c0.5,0.3,1.1,0.5,1.9,0.5s1.7-0.3,2.6-1C260.8,66.8,261.5,66,261.9,65.1z"/>
		<path class="st2" d="M282.5,35l-0.3,6.7c0,0.4,0.1,2.2,0.2,5.2c2.2,0,4.3-0.1,6.4-0.2c1.1,0.3,1.7,0.9,1.7,1.9
			c0,1-0.4,1.8-1.1,2.2s-1.5,0.7-2.2,0.7c-0.7,0-1.3,0.1-1.7,0.1s-0.9,0-1.5,0c-0.6,0-1.1,0-1.4,0c0,0.3,0.1,1.3,0.2,3.1
			s0.1,2.8,0.2,3.3c0.3,5,0.7,9,1.3,12.2c-0.1,0.7-0.5,1.3-1,1.8c-0.5,0.5-1.1,0.8-1.8,0.8c-0.6,0-1.1-0.4-1.5-1.3
			c-0.5-3.3-0.9-7.2-1.1-11.7c-0.2-4.5-0.3-7.2-0.4-8.1c-0.5,0-1.4,0.1-2.7,0.1c-1.3,0-2.3-0.1-3.1-0.3c-0.9-0.2-1.3-0.7-1.3-1.6
			c0-1.8,1.1-2.8,3.2-2.8l2.6,0.1c0.4,0,0.8,0,1-0.1c-0.1-3.7-0.2-5.6-0.2-5.7c0-0.3,0-0.8,0.1-1.7c0-0.9,0.1-2.2,0.2-3.9
			c0.1-0.6,0.5-1.2,1-1.6c0.6-0.4,1.1-0.7,1.7-0.7C281.8,33.4,282.3,33.9,282.5,35z"/>
		<path class="st2" d="M311.5,52l-0.1,3.8c0,1.5-0.1,3.3-0.4,5.6c0.2,3.9,0.6,7.4,1.3,10.5c-0.1,0.4-0.4,0.7-0.9,1s-1,0.4-1.5,0.4
			s-1-0.1-1.3-0.2c-0.3-0.1-0.6-0.4-0.7-0.7c-0.1-0.3-0.2-0.6-0.3-0.8c-0.1-0.2-0.1-0.5-0.1-0.9c0-0.4,0-0.6-0.1-0.7
			c-1.7,1.8-4,2.7-6.7,2.7c-2.8,0-4.7-1.1-5.9-3.2s-1.8-5.1-1.8-8.8c0-6.6,1.9-10.8,5.7-12.6c1.2-0.6,2.5-0.8,4-0.8
			c1.5,0,3,0.3,4.4,0.8c0.5-0.7,1.1-1,2-1c1.5,0,2.3,1.2,2.4,3.5C311.4,51,311.5,51.5,311.5,52z M306,65.1c0.7-2,1-4.2,1-6.5
			c0-2.3-0.3-4-0.8-5.1c-0.5-1.1-1.5-1.6-2.9-1.6c-0.6,0-1.3,0.1-2.3,0.2c-0.9,0.1-1.8,0.9-2.6,2.5c-0.8,1.5-1.2,2.8-1.2,3.9v2.2
			c0,3.8,0.8,6.3,2.4,7.4c0.5,0.3,1.1,0.5,1.9,0.5s1.7-0.3,2.6-1C305,66.8,305.7,66,306,65.1z"/>
		<path class="st2" d="M319.7,65.8l0.1-1.6c0-2.3-0.2-4.7-0.5-7.4c-0.3-2.7-0.7-4.7-1.1-6c-0.4-1.3-0.6-2.2-0.6-2.5
			c0-0.3,0.2-0.7,0.7-1.1c0.5-0.4,1-0.5,1.7-0.5c0.6,0,1.1,0.2,1.5,0.7c0.4,0.5,0.6,1,0.7,1.5c0.1,0.5,0.2,1.2,0.2,2
			c0.1,0.8,0.1,1.4,0.2,1.6c1-2.3,2.5-3.9,4.7-4.8c1.1-0.5,2.4-0.7,3.8-0.7c3,0,4.5,0.8,4.5,2.3c0,1-0.5,1.7-1.5,2.2
			c-0.4,0.2-0.8,0.3-1.2,0.3l-1.6-0.2c-4.6,0-6.9,4.6-6.9,13.7l0.1,5l-0.1,0.1c-0.1,0.7-0.5,1.2-1,1.8c-0.5,0.5-1.1,0.8-1.6,0.8
			c-0.8,0-1.3-0.7-1.6-2C319.8,69.6,319.7,67.9,319.7,65.8z"/>
	</g>
</g>
</svg>
