<?xml version="1.0" encoding="utf-8"?>
<!-- Generator: Adobe Illustrator 21.0.0, SVG Export Plug-In . SVG Version: 6.00 Build 0)  -->
<svg version="1.1" id="Layer_1" xmlns="http://www.w3.org/2000/svg" xmlns:xlink="http://www.w3.org/1999/xlink" x="0px" y="0px"
	 viewBox="0 0 487 142" style="enable-background:new 0 0 487 142;" xml:space="preserve">
<style type="text/css">
	.st0{fill:#A7A8AC;}
	.st1{fill:#F6921E;}
	.st2{fill:#FFFFFF;}
</style>
<path class="st0" d="M468.2,129.9c-21.5,14.1-424.7,13.3-447.1,0C-1.3,116.5-1.7,39.1,12.3,19.1C26.4-0.9,441.5,3.8,467.6,18
	C488.4,29.2,489.7,115.8,468.2,129.9z"/>
<path class="st1" d="M468.2,125.9c-21.5,14.1-424.7,13.3-447.1,0C-1.3,112.5-1.7,35.1,12.3,15.1C26.4-4.9,441.5-0.2,467.6,14
	C488.4,25.2,489.7,111.8,468.2,125.9z"/>
<path class="st2" d="M32.3,19.2c0,0-18.7-1.5-20.5,15.3C11.7,34.5,17.1,19.4,32.3,19.2z"/>
<path class="st2" d="M447.1,124.2c0,0,18.7,1.5,20.5-15.3C467.6,108.9,462.3,124,447.1,124.2z"/>
<g>
	<path class="st2" d="M182.5,47.1c0.8,0.6,1.2,1.3,1.2,2c0,0.8-0.4,1.4-1.1,2c-0.7,0.6-1.6,0.8-2.5,0.8c-2.3-0.6-4.6-0.9-6.8-0.9
		c-4.8,0-8.4,1.4-10.9,4.3c-2.5,2.8-3.8,7.1-3.8,12.8c0,5.7,1.5,10.1,4.4,13.2c1.6,1.7,3.4,2.5,5.5,2.5c2.1,0,5.4-1.1,10-3.3
		c1.6-0.8,2.6-1.1,3.2-1.1c1.2,0,1.7,0.6,1.7,1.8c0,1.2-0.6,2.2-1.7,3c-1.9,1-3.4,1.8-4.5,2.3c-1.1,0.6-2.7,1.2-4.7,1.8
		c-2,0.6-3.8,1-5.4,1s-3.1-0.3-4.5-1c-1.4-0.6-2.7-1.5-3.7-2.6c-2.1-2.3-3.7-5.1-4.7-8.4c-1-3.3-1.4-6.7-1.4-10.1
		c0-3.4,0.5-6.6,1.6-9.4c1-2.8,2.5-5.1,4.3-6.9c3.8-3.6,8.3-5.4,13.8-5.4C175.7,45.3,179,45.9,182.5,47.1z"/>
	<path class="st2" d="M196.3,59.3c1.7-1,3.5-1.5,5.6-1.5c2.1,0,4,0.9,5.7,2.6c3.2,3.3,4.8,7.8,4.8,13.7c0,3-0.8,6.2-2.5,9.5
		c-0.8,1.6-2,2.9-3.3,3.9c-1.4,1-3,1.6-4.8,1.6s-3.6-0.5-5.3-1.6c-1.7-1-3.1-2.4-4.3-3.9c-2.3-3.4-3.5-6.6-3.5-9.5
		c0-4,1.2-7.7,3.6-11.1C193.2,61.6,194.6,60.3,196.3,59.3z M203,84.4c1.3-0.7,2.3-1.8,2.9-3.3c0.7-1.6,1-3.2,1-4.8
		c0-1.7-0.1-3.1-0.3-4.4c-0.2-1.3-0.6-2.5-1-3.8s-1.1-2.2-2-3.1c-0.9-0.8-1.9-1.4-3.1-1.6c-2,0.3-3.6,1.4-4.9,3.4
		c-1.3,1.9-1.9,3.9-1.9,5.8s0.8,4.3,2.5,7.1c0.8,1.3,1.8,2.4,3,3.3C200.3,83.9,201.6,84.4,203,84.4z"/>
	<path class="st2" d="M236,87l0.1-3.5c0-0.5,0-1.2,0-2.1c0-0.9,0-1.9-0.1-3c0-1.1-0.1-2.3-0.2-3.4c-0.1-1.1-0.2-2.2-0.4-3.2
		c-0.3-2.1-0.8-3.8-1.6-5.2c-0.8-1.4-1.8-2.1-2.9-2.1c-1.2,0-2.1,0.2-2.9,0.6c-0.8,0.4-1.4,1-1.8,1.9c-1,1.7-1.6,3.6-1.7,5.6
		c-0.2,2-0.3,4.2-0.3,6.4l-0.2,7.2c0,0.9-0.3,1.7-1,2.2c-0.7,0.5-1.5,0.8-2.4,0.8c-1.1,0-1.7-0.7-1.7-2.1c0-3.7-0.1-8.3-0.4-13.7
		c-0.2-5.4-0.4-9.9-0.4-13.5c0.2-0.8,0.6-1.4,1.1-2c0.5-0.6,1-0.9,1.5-0.9s0.9,0,1.1,0.1c0.3,0.1,0.5,0.2,0.6,0.4
		c0.2,0.2,0.3,0.3,0.4,0.5c0.1,0.2,0.2,0.4,0.3,0.8c0.1,0.4,0.1,0.7,0.1,1c0,0.3,0,0.7,0.1,1.3c0,0.6,0.1,1.1,0.1,1.4
		c2.4-3.2,5.4-4.8,9-4.8c2.5,0,4.4,1.1,5.6,3.4c1.8,3.4,2.7,8.6,2.7,15.5L241,83c0,1.7-0.1,2.8-0.3,3.4c-0.2,0.6-0.4,1-0.7,1.4
		c-0.4,0.8-1.3,1.3-2.5,1.3C236.5,89.1,236,88.4,236,87z"/>
	<path class="st2" d="M258,43.3l-0.3,8.1c0,0.5,0.1,2.7,0.3,6.4c2.7,0,5.3-0.1,7.8-0.3c1.3,0.3,2,1.1,2,2.3s-0.4,2.1-1.3,2.7
		c-0.9,0.5-1.8,0.8-2.7,0.9c-0.9,0-1.6,0.1-2.1,0.1c-0.5,0-1.1,0-1.9,0c-0.8,0-1.3,0-1.7,0c0,0.4,0.1,1.6,0.2,3.7s0.2,3.4,0.2,4.1
		c0.4,6.1,0.9,11,1.5,14.8c-0.2,0.8-0.6,1.6-1.2,2.2c-0.6,0.6-1.4,1-2.1,1s-1.4-0.5-1.8-1.6c-0.7-4-1.1-8.7-1.4-14.2
		c-0.2-5.5-0.4-8.8-0.4-9.9c-0.6,0-1.7,0.1-3.3,0.1c-1.6,0-2.8-0.1-3.8-0.4c-1.1-0.2-1.6-0.9-1.6-1.9c0-2.2,1.3-3.3,3.9-3.3l3.2,0.1
		c0.5,0,1,0,1.3-0.1c-0.2-4.5-0.3-6.8-0.3-6.9c0-0.3,0-1,0.1-2.1c0-1.1,0.1-2.7,0.2-4.8c0.2-0.8,0.6-1.4,1.3-1.9
		c0.7-0.5,1.3-0.8,2-0.8C257.2,41.4,257.8,42,258,43.3z"/>
	<path class="st2" d="M293.3,64l-0.1,4.7c0,1.8-0.2,4-0.5,6.8c0.2,4.8,0.7,9,1.5,12.8c-0.1,0.5-0.5,0.9-1.1,1.2
		c-0.6,0.3-1.2,0.4-1.9,0.4c-0.7,0-1.2-0.1-1.6-0.3c-0.4-0.2-0.7-0.5-0.8-0.8c-0.2-0.4-0.3-0.7-0.3-1c-0.1-0.3-0.1-0.6-0.1-1.1
		s0-0.7-0.1-0.8c-2.1,2.2-4.8,3.3-8.2,3.3s-5.8-1.3-7.2-3.9s-2.2-6.2-2.2-10.7c0-8,2.3-13.2,6.9-15.4c1.4-0.7,3.1-1,4.9-1
		c1.8,0,3.6,0.3,5.4,0.9c0.6-0.8,1.4-1.2,2.4-1.2c1.9,0,2.8,1.4,2.9,4.3C293.3,62.9,293.3,63.5,293.3,64z M286.7,80
		c0.8-2.5,1.3-5.1,1.3-7.9s-0.3-4.9-1-6.2c-0.7-1.3-1.9-2-3.5-2c-0.7,0-1.6,0.1-2.8,0.2c-1.1,0.1-2.2,1.1-3.2,3
		c-1,1.9-1.5,3.5-1.5,4.8v2.7c0,4.7,1,7.7,2.9,9c0.6,0.4,1.3,0.6,2.3,0.6c1,0,2-0.4,3.1-1.2C285.4,82.1,286.2,81.1,286.7,80z"/>
	<path class="st2" d="M321.9,59.1c0.6,0.4,0.9,0.8,0.9,1.3c0,0.9-0.2,1.9-0.7,3c-0.5,1.1-1.2,1.7-2.1,1.7c-0.4,0-1.2-0.3-2.5-0.8
		c-1.3-0.5-2.2-0.8-2.7-0.8c-2.5,0-4.7,0.9-6.6,2.8s-2.8,4.3-2.8,7.4c0,3.1,0.5,5.5,1.4,7.1c1,1.6,2.7,2.4,5.3,2.4
		c1.4,0,3.1-0.6,5.3-1.7c2.1-1.1,3.5-1.7,4.2-1.7c0.6,0,1.1,0.2,1.5,0.5s0.5,0.8,0.5,1.3c0,1.1-0.7,2.3-2.1,3.4
		c-1.4,1.2-3.1,2.2-5,2.9c-2,0.8-3.8,1.1-5.4,1.1c-3.6,0-6.4-1.4-8.4-4.3c-2-2.8-3-6.7-3-11.5c0-3.1,0.8-5.8,2.4-8.3
		c1.6-2.4,3.7-4.3,6.1-5.5c2.4-1.2,5-1.8,7.8-1.8S320.6,58.3,321.9,59.1z"/>
	<path class="st2" d="M337.8,43.3l-0.3,8.1c0,0.5,0.1,2.7,0.3,6.4c2.7,0,5.3-0.1,7.8-0.3c1.3,0.3,2,1.1,2,2.3s-0.4,2.1-1.3,2.7
		c-0.9,0.5-1.8,0.8-2.7,0.9c-0.9,0-1.6,0.1-2.1,0.1c-0.5,0-1.1,0-1.9,0c-0.8,0-1.3,0-1.7,0c0,0.4,0.1,1.6,0.2,3.7s0.2,3.4,0.2,4.1
		c0.4,6.1,0.9,11,1.5,14.8c-0.2,0.8-0.6,1.6-1.2,2.2c-0.6,0.6-1.4,1-2.1,1s-1.4-0.5-1.8-1.6c-0.7-4-1.1-8.7-1.4-14.2
		c-0.2-5.5-0.4-8.8-0.4-9.9c-0.6,0-1.7,0.1-3.3,0.1c-1.6,0-2.8-0.1-3.8-0.4c-1.1-0.2-1.6-0.9-1.6-1.9c0-2.2,1.3-3.3,3.9-3.3l3.2,0.1
		c0.5,0,1,0,1.3-0.1c-0.2-4.5-0.3-6.8-0.3-6.9c0-0.3,0-1,0.1-2.1c0-1.1,0.1-2.7,0.2-4.8c0.2-0.8,0.6-1.4,1.3-1.9
		c0.7-0.5,1.3-0.8,2-0.8C336.9,41.4,337.5,42,337.8,43.3z"/>
	<path class="st2" d="M396.2,58.7v5.1c0,3.9-0.1,6.5-0.3,7.7c-0.2,1.2-0.5,2.6-0.8,4.3c-0.3,1.7-1.1,3.4-2.4,5.4
		c-1.4,2.5-3.2,4.5-5.4,5.9c-2.2,1.4-4.4,2.1-6.7,2.1c-2.3,0-4.6-1-7-3c-2.4-2-4.3-4.4-5.8-7.3s-2.4-5.6-2.8-8.2
		c-0.4-2.6-0.6-5.1-0.6-7.5c0-2.4,0.3-7.4,0.9-15c0.3-0.7,0.8-1.4,1.4-1.9c0.6-0.6,1.3-0.8,2-0.8c1,0,1.6,0.7,1.8,2
		c-0.6,7.5-0.9,12.3-0.9,14.7c0,2.3,0.2,4.5,0.5,6.5c0.4,2,1.1,4.2,2.3,6.6c1.2,2.4,2.7,4.4,4.4,6.2c1.8,1.7,3.5,2.6,5.3,2.6
		c2.8,0,5.2-2.2,7.2-6.6c0.8-1.6,1.3-4,1.4-7.3c0-0.8,0.1-1.4,0.1-1.9l0.1-8.8c0-4.2-0.3-8-0.9-11.3c0-0.9,0.3-1.8,0.9-2.5
		c0.6-0.7,1.3-1.1,2.1-1.1c0.8,0,1.4,0.4,1.9,1.1C395.8,49.4,396.2,53.8,396.2,58.7z"/>
	<path class="st2" d="M412.6,57.7c1.7,0,3.3,0.3,5,0.8c3.3,1.1,4.9,2.4,4.9,4.1c0,0.8-0.3,1.4-1,1.8c-0.6,0.4-1.4,0.7-2.2,0.7
		c-0.2,0-1.2-0.4-3-1.2c-1.8-0.8-3.3-1.2-4.4-1.2c-1.1,0-2.1,0.3-3,1c-0.9,0.6-1.4,1.5-1.4,2.5s0.3,1.9,0.8,2.6
		c0.6,0.7,1.3,1.2,2.2,1.5c0.9,0.3,1.9,0.6,2.9,0.8c2.9,0.6,4.9,1.1,6.1,1.7c2,0.9,3,2.8,3,5.6c0,2.8-1.1,5.2-3.2,7.4
		c-2.1,2.1-4.4,3.2-6.7,3.2c-2.4,0-4.3-0.3-5.9-0.8c-2.8-1-4.2-2.4-4.2-4c0-1.6,0.9-2.3,2.8-2.3c0.9,0,2.1,0.4,3.8,1.2
		c1.6,0.8,2.9,1.2,4,1.2c1.1,0,2.1-0.7,2.9-2c0.9-1.3,1.3-2.6,1.3-3.8c0-0.3,0-0.6-0.1-1.1c-1.2-1.2-3.6-2-7.1-2.6
		c-1.3-0.2-2.5-0.6-3.7-1c-2.6-0.9-4-3.3-4-7.2c0-2.7,1-4.8,2.9-6.3S409.8,57.7,412.6,57.7z"/>
</g>
<g>
	<path class="st2" d="M126.6,50.8c0,16.5,0,32.9,0,49.4c0,1.3-0.3,1.6-1.6,1.6c-26.4,0-52.8,0-79.2,0c-1.3,0-1.6-0.3-1.6-1.6
		c0.1-16.2,0-32.3,0-48.5c1.6-5.9,3.8-7.6,10-7.6c20.8,0,41.6,0,62.4,0C122.5,44,124.5,45.4,126.6,50.8z M85.7,94.1
		c10.5,0,21,0,31.5,0c2.8,0,3-0.2,3-2.9c0-9.8,0-19.7,0-29.5c0-2.7,0-2.7-2.4-1.3c-10,5.8-20.1,11.6-30.1,17.6c-1.7,1-3,1-4.7-0.1
		c-9.8-5.9-19.7-11.8-29.6-17.6c-2.2-1.3-2.5-1.2-2.5,1.4c0,9.8,0,19.7,0,29.5c0,2.7,0.3,2.9,3,2.9C64.5,94.1,75.1,94.1,85.7,94.1z
		 M116.1,53c0.4-0.2,1-0.3,1.1-1.1c-21,0-41.9,0-63.4,0c0.6,0.5,0.8,0.7,1.1,0.8c9.6,5.7,19.2,11.4,28.8,17.2"/>
</g>
</svg>
