<?xml version="1.0" encoding="utf-8"?>
<!-- Generator: Adobe Illustrator 21.0.0, SVG Export Plug-In . SVG Version: 6.00 Build 0)  -->
<svg version="1.1" id="dog-correctpass" xmlns="http://www.w3.org/2000/svg" xmlns:xlink="http://www.w3.org/1999/xlink" x="0px"
	 y="0px" viewBox="0 0 397.9 540.3" style="enable-background:new 0 0 397.9 540.3;" xml:space="preserve">
<g id="Text">
	<g id="ballon">
		<path style="fill:#A7A8AC;" d="M230.6,16.9C238.5,1,248.5,0.3,260.8,1.3C280,2.8,363.7,19,376.6,23.3
			c10.3,3.4,15.4,12.1,16.8,26.6c1.1,12,5.2,32,4.4,40.6c-1,11.2-7.2,27.2-24.6,28.5c-15.5,1.2-30.6-0.8-59.7-4
			c-18.4-2-27-2.3-23.7,3.9c4.5,8.4,27.9,24.7,21.9,24.2c-18.7-1.6-38.6-8.4-51-14.8c-8.6-4.5-16.7-11-21.2-18.5
			c-14.4-1-13.5-0.1-17.4-0.9c-12.8-2.6-17.7-11.9-16.9-23.8C206,71.4,225.8,26.6,230.6,16.9z"/>
		<path style="fill:#FFFFFF;" d="M229.6,16.1c7.8-15.7,18.7-16.8,30.9-15.9C279.3,1.8,361.3,17.8,374,22c10.1,3.4,15.2,12,16.5,26.3
			c1.1,11.8,5.1,31.1,4.3,39.6c-1,11-7.1,26.8-24.2,28.1c-15.2,1.2-30.1-0.7-58.6-3.9c-18.1-2-26.5-2.3-23.3,3.8
			c4.4,8.3,27.3,24.5,21.5,23.8c-16.8-2-39-8.8-50.9-15.5c-8.6-4.8-15.6-10-20-17.4c-14.1-0.9-13.1-0.1-16.9-0.9
			c-12.6-2.6-16.1-12.2-15.5-23.9C207.6,67.6,224.9,25.7,229.6,16.1z"/>
		<path style="fill:#A7A8AC;" d="M388.2,158.9c-3.7-20.1-14.4-24-28.3-26.8c-21.6-4.4-118.9-13-134.5-12.4
			c-12.4,0.5-20.9,8.5-26.9,24c-5,12.8-15.9,33.5-17.7,43.3c-2.4,12.6-0.7,32.2,18.1,39.1c16.7,6.2,34,8.9,67,14.6
			c20.9,3.6,30.5,6,24.9,11.8c-7.6,7.9-38.5,18.3-31.8,19.7c21.1,4.2,45.2,3,60.8-0.2c10.9-2.2,21.9-6.8,29.3-13.7
			c16.1,3.5,14.9,4.2,19.5,4.5c14.9,1.2,23.3-7.5,26.1-20.8C398,226.8,390.4,171.2,388.2,158.9z"/>
		<path style="fill:#FFFFFF;" d="M389.5,158.4c-3.6-19.8-15.3-24.5-28.9-27.2c-21.2-4.3-116.5-12.7-131.8-12.1
			c-12.2,0.5-20.5,8.4-26.4,23.7c-4.9,12.7-15.5,32.6-17.3,42.3c-2.4,12.4-0.7,31.7,17.7,38.6c16.4,6.1,33.3,8.7,65.8,14.3
			c20.5,3.5,29.9,5.9,24.4,11.6c-7.4,7.7-37.9,18.3-31.3,19.4c19.1,3.1,45.7,2.6,61-0.9c10.9-2.5,20.3-6,27.6-12.8
			c15.8,3.4,14.4,4.1,18.9,4.4c14.6,1.1,21.5-8.3,24.6-21.4C397.4,222,391.7,170.5,389.5,158.4z"/>
		<path style="fill:#FFFFFF;stroke:#B8D432;stroke-width:1.5;stroke-miterlimit:10;" d="M299,107.8c26.8,3,52.9,5.8,67.2,4.8
			c16.1-1.2,21.8-16.1,22.8-26.4c0.7-8-3.1-24.5-4.1-35.6c-1.2-13.4-6-21.5-15.5-24.7c-11.9-4-88.3-18.9-105.9-20.3
			c-11.4-0.9-21.7,0.1-29,14.9c-4.5,9-20.6,46.7-21.3,60.4c-0.6,11,2.8,19,14.6,21.4c3.6,0.7,1.9-0.2,15.2,0.7
			c4.2,7,7.3,11.4,13.6,16.1c4.5,3.4,6.9,5.5,12.7,7.7c-23.6-1-30.5-2.3-36.5-2c-11.4,0.5-19.3,7.9-24.9,22.3
			c-4.6,11.9-14.1,28.8-15.9,37.8c-2.2,11.7-0.7,29.8,16.7,36.3c15.4,5.7,45,10.8,75.5,16.1c19.3,3.3,23.3,5.9,18.2,11.3
			c-7,7.3-34.3,17.6-26,17.6c14.5,0.1,29.6-0.4,45.3-4.2c8.7-2.1,19.1-5.8,25.9-12.2c14.9,3.2,12.7,3.7,16.9,4.1
			c13.8,1.1,20-6.7,22.9-19c3.6-15.3-2.2-61.9-4.3-73.3c-3.4-18.6-14.4-23-27.2-25.6c-9.5-1.9-37.1-4.6-62.2-6.9
			c-4.8-4.7-10-11.8-12.4-16.3C278,107.1,282,105.9,299,107.8z"/>
	</g>
	<g id="loginandplay">
		<path d="M242.6,169.2L241,169c-0.3,0-0.6-0.1-1-0.2c-0.4-0.1-0.7-0.3-0.8-0.7c0.1-1.9,0.4-3.9,0.7-6l2.3-12.7
			c0-0.2,0.2-0.4,0.5-0.5s0.6-0.1,1-0.1c0.4,0.1,0.7,0.2,1,0.4s0.4,0.5,0.3,0.9c-0.2,0.6-0.6,2.3-1.3,5.1c-0.7,2.7-1.2,5-1.5,6.7
			c-0.3,1.8-0.5,3.4-0.5,4.9c0.1,0,0.3,0,0.6,0.1s1.2,0.1,2.6,0.2c1.4,0.1,2.3,0.1,2.7,0.2c0.9,0.1,1.4,0.6,1.3,1.3
			c-0.1,0.6-0.4,1-1,1.1c-0.6,0.2-1.2,0.2-1.8,0.1c-0.6-0.1-1-0.1-1.4-0.2L242.6,169.2z"/>
		<path d="M255.6,157.4c0.8-0.3,1.7-0.4,2.6-0.3c0.9,0.1,1.7,0.7,2.4,1.6c1.2,1.7,1.6,3.9,1.2,6.5c-0.2,1.4-0.8,2.8-1.8,4.1
			c-0.5,0.7-1.1,1.2-1.8,1.5c-0.7,0.4-1.5,0.5-2.3,0.4s-1.6-0.5-2.3-1.1s-1.2-1.3-1.6-2.1c-0.8-1.7-1.1-3.2-0.9-4.6
			c0.3-1.8,1.1-3.4,2.4-4.8C254,158.2,254.8,157.7,255.6,157.4z M256.8,169.3c0.6-0.2,1.2-0.6,1.6-1.3s0.7-1.4,0.8-2.1
			c0.1-0.8,0.2-1.4,0.2-2s-0.1-1.2-0.2-1.8s-0.4-1.1-0.7-1.5c-0.3-0.4-0.8-0.8-1.3-0.9c-0.9,0-1.7,0.4-2.4,1.2s-1.2,1.6-1.3,2.5
			s0.1,2,0.6,3.4c0.3,0.6,0.6,1.2,1.1,1.7C255.7,168.9,256.2,169.2,256.8,169.3z"/>
		<path d="M273.4,176l-0.3,2.4c-0.2,1-0.4,1.8-0.6,2.2c-0.6,1-1.2,1.6-1.9,1.9c-0.9,0.4-2.1,0.5-3.5,0.3s-2.6-0.8-3.7-1.7
			c-0.6-0.4-0.8-0.8-0.8-1.3c0.1-0.5,0.2-0.8,0.5-0.9c0.3-0.2,0.6-0.2,0.9-0.2c0.3,0.1,0.9,0.4,1.8,1c0.8,0.6,1.6,0.9,2.3,1
			c1.5,0.2,2.4-0.8,2.7-3.2c0.4-2.3,0.6-4,0.7-5.1c-0.9,0.7-1.8,1-2.9,0.8s-2-0.7-2.7-1.5c-1.5-1.6-2-3.7-1.6-6.4s1.7-4.6,3.8-5.6
			c1.1-0.5,2.2-0.7,3.5-0.5c1.7,0.3,2.7,1.3,3,3c0.3,1.4,0.3,3.1,0,5.2c-0.1,0.4-0.2,1.1-0.3,2c-0.1,0.9-0.3,1.8-0.4,2.7
			s-0.2,1.7-0.2,2.3C273.5,175.2,273.5,175.7,273.4,176z M272.1,167.8c0.6-3.8,0-5.9-1.9-6.2c-0.9-0.1-1.6,0.2-2.3,0.9
			c-0.7,0.8-1.1,1.8-1.3,3.1c-0.2,1.3-0.1,2.4,0.3,3.2c0.4,0.9,1.2,1.4,2.3,1.6c1.1,0.2,1.9,0,2.2-0.5
			C271.7,169.5,272,168.8,272.1,167.8z"/>
		<path d="M281.7,163l-0.4,1.9l-1.1,6.8c-0.1,1-0.2,1.6-0.3,2.1c-0.1,0.4-0.3,0.7-0.6,0.9c-0.3,0.2-0.6,0.3-1,0.3
			c-0.3-0.1-0.6-0.3-0.7-0.9c0.1-0.5,0.1-1.3,0.2-2.3s0.2-2.1,0.4-3.5c0.1-1.4,0.3-2.7,0.5-4s0.4-2.5,0.6-3.5
			c0.1-0.4,0.4-0.5,0.8-0.4C281.4,160.6,281.9,161.5,281.7,163z M280.5,154.8c0.3-0.2,0.5-0.3,0.7-0.3s0.3,0,0.3,0
			c0.9,0.3,1.4,0.7,1.5,1.2c0,0.2,0,0.6,0,1c-0.1,0.4-0.3,0.8-0.7,1.2c-0.4,0.4-0.8,0.6-1.2,0.5c-0.4-0.1-0.7-0.3-1-0.8
			c-0.2-0.4-0.3-1-0.2-1.6C279.9,155.4,280.1,155,280.5,154.8z"/>
		<path d="M292.3,176l0.3-1.6c0-0.2,0.1-0.6,0.1-1c0.1-0.4,0.1-0.9,0.2-1.4s0.1-1,0.2-1.6c0-0.5,0.1-1,0-1.5c0-1-0.1-1.8-0.3-2.5
			c-0.3-0.7-0.6-1.1-1.2-1.1c-0.5-0.1-1-0.1-1.3,0.1c-0.4,0.1-0.7,0.4-0.9,0.7c-0.6,0.7-1,1.5-1.2,2.4s-0.4,1.9-0.6,2.9l-0.6,3.3
			c-0.1,0.4-0.3,0.7-0.6,0.9c-0.3,0.2-0.7,0.2-1.1,0.2c-0.5-0.1-0.7-0.4-0.6-1.1c0.3-1.7,0.5-3.8,0.8-6.2c0.3-2.5,0.5-4.5,0.8-6.2
			c0.2-0.3,0.4-0.6,0.6-0.8c0.3-0.2,0.5-0.3,0.7-0.3s0.4,0.1,0.5,0.1s0.2,0.1,0.3,0.2c0.1,0.1,0.1,0.2,0.1,0.3s0.1,0.2,0.1,0.4
			s0,0.3,0,0.5s0,0.3-0.1,0.6c0,0.3-0.1,0.5-0.1,0.7c1.3-1.3,2.8-1.8,4.4-1.5c1.1,0.2,1.9,0.8,2.3,1.9c0.6,1.7,0.6,4.1,0.1,7.3
			l-0.4,2.9c-0.1,0.8-0.2,1.3-0.4,1.5c-0.1,0.2-0.3,0.4-0.4,0.6c-0.3,0.4-0.7,0.5-1.2,0.4C292.4,177,292.2,176.7,292.3,176z"/>
		<path d="M316.3,169.1l-0.4,2.1c-0.1,0.8-0.4,1.8-0.7,3c-0.2,2.2-0.3,4.2-0.2,5.9c-0.1,0.2-0.3,0.4-0.6,0.5
			c-0.3,0.1-0.6,0.1-0.9,0.1s-0.5-0.1-0.7-0.2c-0.2-0.1-0.3-0.3-0.3-0.4c0-0.2-0.1-0.3-0.1-0.5c0-0.1,0-0.3,0-0.5s0-0.3,0-0.4
			c-1.1,0.8-2.4,1.2-3.9,0.9s-2.5-1-3-2.3s-0.5-2.9-0.2-5c0.6-3.7,2-5.8,4.2-6.5c0.7-0.2,1.5-0.2,2.3-0.1c0.8,0.1,1.6,0.4,2.4,0.8
			c0.3-0.3,0.7-0.5,1.2-0.4c0.8,0.1,1.2,0.8,1,2.2C316.4,168.6,316.4,168.8,316.3,169.1z M312.2,175.9c0.6-1.1,0.9-2.2,1.1-3.5
			s0.2-2.2,0-2.9c-0.2-0.6-0.7-1-1.5-1.1c-0.3-0.1-0.7-0.1-1.3-0.1c-0.5,0-1.1,0.4-1.7,1.1c-0.6,0.8-0.9,1.5-1,2.1l-0.2,1.2
			c-0.3,2.1-0.1,3.6,0.7,4.3c0.2,0.2,0.6,0.4,1,0.4c0.4,0.1,0.9,0,1.5-0.3C311.5,176.7,311.9,176.4,312.2,175.9z"/>
		<path d="M326.7,181.4l0.3-1.6c0-0.2,0.1-0.6,0.1-1c0.1-0.4,0.1-0.9,0.2-1.4s0.1-1,0.2-1.6c0-0.5,0.1-1,0-1.5c0-1-0.1-1.8-0.3-2.5
			c-0.3-0.7-0.6-1.1-1.2-1.1c-0.5-0.1-1-0.1-1.3,0.1c-0.4,0.1-0.7,0.4-0.9,0.7c-0.6,0.7-1,1.5-1.2,2.4s-0.4,1.9-0.6,2.9l-0.6,3.3
			c-0.1,0.4-0.3,0.7-0.6,0.9c-0.3,0.2-0.7,0.2-1.1,0.2c-0.5-0.1-0.7-0.4-0.6-1.1c0.3-1.7,0.5-3.8,0.8-6.2c0.3-2.5,0.5-4.5,0.8-6.2
			c0.2-0.3,0.4-0.6,0.6-0.8c0.3-0.2,0.5-0.3,0.7-0.3s0.4,0.1,0.5,0.1s0.2,0.1,0.3,0.2c0.1,0.1,0.1,0.2,0.1,0.3s0.1,0.2,0.1,0.4
			s0,0.3,0,0.5c0,0.1,0,0.3-0.1,0.6s-0.1,0.5-0.1,0.7c1.3-1.3,2.8-1.8,4.4-1.5c1.1,0.2,1.9,0.8,2.3,1.9c0.6,1.7,0.6,4.1,0.1,7.3
			l-0.4,2.9c-0.1,0.8-0.2,1.3-0.4,1.5c-0.1,0.2-0.3,0.4-0.4,0.6c-0.3,0.4-0.7,0.5-1.2,0.4C326.8,182.4,326.6,182,326.7,181.4z"/>
		<path d="M342,164.2c0.2-1.1,0.6-1.6,1.3-1.5c0.4,0.1,0.6,0.2,0.7,0.3s0.2,0.4,0.2,0.7s0,1-0.2,2.1c-0.2,1-0.3,2.3-0.5,3.9
			c-0.2,1.6-0.3,2.8-0.5,3.7c-0.1,0.9-0.3,2.3-0.4,4.2s-0.3,3.5-0.5,4.7l-0.3,1.7c-0.1,0.4-0.3,0.6-0.5,0.7c-0.2,0.1-0.6,0.1-1,0
			s-0.6-0.4-0.7-0.9v-0.5c-1,0.6-2.1,0.7-3.2,0.6c-1.6-0.2-2.7-1-3.4-2.3c-0.7-1.3-1-2.7-0.7-4.3c0.2-1.5,0.8-3,1.8-4.4
			c0.9-1.4,2.1-2.3,3.6-2.8c0.8-0.2,1.7-0.3,2.7-0.1c0.4,0.1,0.6,0.1,0.8,0.2l0.4-2.4l0.3-1.9L342,164.2z M339.7,180.8
			c0.1-0.3,0.3-0.8,0.4-1.6s0.2-1.3,0.2-1.4l0.1-0.6c0.2-1.1,0.2-2.1,0.1-3.1s-0.4-1.5-0.8-1.5c-0.6-0.1-1.2-0.1-1.9-0.1
			c-0.7,0-1.2,0.2-1.5,0.4c-0.8,0.8-1.4,2.1-1.7,4.1c-0.2,1.4,0.1,2.6,0.8,3.5c0.4,0.5,0.9,0.8,1.5,0.9c0.6,0.1,1.1,0.1,1.6-0.1
			C339.2,181.2,339.5,181,339.7,180.8z"/>
		<path d="M236.3,193.3c0.1-1,0.3-2,0.4-2.7c0.1-0.8,0.2-1.4,0.2-1.9c0.1-0.5,0.2-1.8,0.6-3.9c0.3-2.1,0.6-3.4,0.7-3.9
			c0.1-0.5,0.3-0.9,0.5-1.1c0.2-0.2,0.6-0.3,1.1-0.2c0.7,0.1,1.1,0.5,1.1,1.3c-0.5,1.9-1.1,5.4-2,10.8c-0.6,4.1-0.6,6.5,0.2,7.4
			c0.3,0,0.5-0.2,0.8-0.5s0.6-0.6,0.9-0.8c0.3-0.3,0.6-0.4,0.9-0.3s0.5,0.2,0.7,0.6c0.2,0.3,0.2,0.8,0.1,1.4
			c-0.1,0.6-0.5,1.2-1.3,1.7s-1.6,0.7-2.5,0.6c-1.7-0.3-2.6-1.9-2.5-4.9C236.1,195.4,236.1,194.3,236.3,193.3z"/>
		<path d="M253.1,190.1c0.9,0.8,1.3,1.6,1.1,2.5c-0.1,0.9-0.7,1.7-1.8,2.5s-2.3,1.1-3.6,1.1c-0.1,0-0.2,0-0.3,0s-0.2,0-0.3,0
			s-0.2,0-0.3,0s-0.2,0-0.3,0s-0.2,0-0.3,0s-0.2,0-0.3-0.1c-0.2,0-0.3,0-0.3-0.1c0,1.6,0.1,2.7,0.4,3.3c0.5,0.5,1,0.9,1.4,1
			c1,0.2,2-0.1,3-0.8s1.7-1,2.1-1c0.1,0,0.4,0.2,0.6,0.6c0.3,0.3,0.4,0.7,0.4,0.9c0,0.3-0.3,0.6-0.7,1c-0.4,0.3-0.9,0.7-1.6,1.1
			c-0.6,0.4-1.3,0.6-2.2,0.8c-0.8,0.2-1.6,0.2-2.3,0.1c-0.7-0.1-1.3-0.4-1.7-0.8c-0.8-0.7-1.4-1.8-1.7-3.3s-0.3-3,0-4.5
			c0.2-1.6,0.8-2.9,1.7-4.1c1-1.3,2.4-1.8,4.2-1.5C251.2,188.9,252.2,189.4,253.1,190.1z M251.5,192.4c0.1-0.9-0.4-1.4-1.5-1.5
			c-0.8-0.1-1.5,0.2-2.2,1c-0.2,0.2-0.4,0.5-0.5,0.9s-0.3,0.7-0.4,1.1C249.8,194.3,251.3,193.8,251.5,192.4z"/>
		<path d="M263.3,183.9l-0.7,3.7c0,0.2-0.1,1.2-0.3,2.9c1.2,0.2,2.4,0.3,3.6,0.4c0.6,0.2,0.8,0.6,0.7,1.2c-0.1,0.6-0.4,0.9-0.8,1.1
			s-0.9,0.2-1.3,0.2s-0.7-0.1-0.9-0.1c-0.2,0-0.5-0.1-0.8-0.1c-0.3-0.1-0.6-0.1-0.8-0.1c0,0.2-0.1,0.8-0.2,1.7s-0.2,1.6-0.2,1.9
			c-0.3,2.8-0.4,5.1-0.4,6.8c-0.1,0.4-0.4,0.7-0.7,0.9s-0.7,0.3-1,0.3s-0.6-0.3-0.7-0.9c0-1.9,0.1-4,0.4-6.5s0.4-4,0.5-4.5
			c-0.3,0-0.8-0.1-1.5-0.2c-0.7-0.1-1.3-0.3-1.7-0.4c-0.5-0.2-0.7-0.5-0.6-1c0.2-1,0.8-1.4,2-1.2l1.4,0.3c0.2,0,0.4,0.1,0.6,0.1
			c0.2-2.1,0.4-3.1,0.4-3.2c0-0.1,0.1-0.5,0.2-0.9c0.1-0.5,0.2-1.2,0.4-2.1c0.1-0.3,0.4-0.6,0.7-0.8c0.3-0.2,0.7-0.3,1-0.2
			C263,183,263.3,183.3,263.3,183.9z"/>
		<path d="M269.9,183.6c0.1-0.3,0.3-0.5,0.5-0.7c0.2-0.1,0.4-0.2,0.7-0.2c0.5,0.1,0.8,0.4,0.9,1c-0.1,0.9-0.4,1.8-0.7,2.6
			c-0.6,1.5-1.4,2.2-2.2,2.1c-0.7-0.1-0.9-0.5-0.8-1.2c0-0.2,0.1-0.4,0.2-0.6c0.4-0.3,0.8-0.8,1-1.3
			C269.7,184.9,269.8,184.3,269.9,183.6z"/>
		<path d="M279.1,193.1c0.7,0.1,1.5,0.4,2.2,0.7c1.4,0.7,2,1.5,1.9,2.2c-0.1,0.3-0.2,0.6-0.6,0.8s-0.7,0.2-1.1,0.1
			c-0.1,0-0.5-0.3-1.3-0.8s-1.4-0.8-1.9-0.9s-1,0-1.4,0.2c-0.5,0.2-0.7,0.6-0.8,1c-0.1,0.5,0,0.9,0.2,1.2c0.2,0.4,0.5,0.6,0.9,0.9
			c0.4,0.2,0.8,0.4,1.3,0.6c1.3,0.5,2.1,0.9,2.6,1.2c0.8,0.6,1.2,1.5,1,2.8s-0.9,2.3-2,3.1s-2.2,1.1-3.3,1c-1.1-0.2-1.9-0.4-2.6-0.8
			c-1.2-0.7-1.7-1.4-1.6-2.1c0.1-0.7,0.6-1,1.4-0.9c0.4,0.1,0.9,0.3,1.6,0.8s1.2,0.7,1.7,0.8s1-0.2,1.5-0.7s0.8-1.1,0.9-1.6
			c0-0.1,0-0.3,0-0.5c-0.5-0.6-1.5-1.2-3-1.7c-0.5-0.2-1.1-0.4-1.6-0.7c-1.1-0.6-1.5-1.8-1.3-3.5c0.2-1.2,0.8-2.1,1.7-2.7
			C276.8,193.1,277.9,192.9,279.1,193.1z"/>
		<path d="M293.1,208.8l-1.5,9.1c-0.2,0.4-0.4,0.7-0.8,0.9c-0.3,0.2-0.7,0.3-1,0.3c-0.5-0.1-0.7-0.5-0.6-1.2l1.7-10.5l1.7-10.7
			c0.2-0.5,0.3-0.8,0.5-1s0.5-0.3,0.9-0.2s0.6,0.2,0.7,0.4s0.2,0.7,0.2,1.5c0.1-0.3,0.5-0.6,1.1-0.9c0.6-0.3,1.4-0.4,2.4-0.2
			s1.9,0.5,2.6,1.1c0.7,0.5,1.2,1.2,1.5,2c0.6,1.5,0.7,3.3,0.4,5.4c-0.3,2-1.2,3.6-2.5,4.6c-1.4,1-3.1,1.3-5.1,1
			c-0.7-0.1-1.3-0.4-1.8-1C293.2,208.9,293.1,208.8,293.1,208.8z M297.5,198.5c-0.8,0-1.5,0.2-2.1,0.7s-0.9,1-1,1.5l-0.9,5.7
			c0.1,0,0.2,0.2,0.4,0.4c0.5,0.6,1.1,1,1.8,1.1c2.8,0.4,4.4-0.8,4.8-3.7c0.4-2.5,0-4.1-1.1-5C298.8,198.8,298.2,198.6,297.5,198.5z
			"/>
		<path d="M305.5,204.1c0.1-1,0.3-2,0.4-2.7c0.1-0.8,0.2-1.4,0.2-1.9c0.1-0.5,0.2-1.8,0.6-3.9c0.3-2.1,0.6-3.4,0.7-4
			c0.1-0.5,0.3-0.9,0.5-1.1c0.2-0.2,0.6-0.3,1.1-0.2c0.7,0.1,1.1,0.5,1.1,1.3c-0.5,1.9-1.1,5.4-2,10.8c-0.6,4.1-0.6,6.5,0.2,7.4
			c0.3,0,0.5-0.2,0.8-0.5s0.6-0.6,0.9-0.8s0.6-0.4,0.9-0.3c0.3,0,0.5,0.2,0.7,0.6c0.2,0.3,0.2,0.8,0.1,1.4c-0.1,0.6-0.5,1.2-1.3,1.7
			s-1.6,0.7-2.5,0.6c-1.7-0.3-2.6-1.9-2.5-4.9C305.3,206.2,305.3,205.1,305.5,204.1z"/>
		<path d="M324.5,203.1l-0.4,2.1c-0.1,0.8-0.4,1.8-0.7,3c-0.2,2.2-0.3,4.2-0.2,5.9c-0.1,0.2-0.3,0.4-0.6,0.5
			c-0.3,0.1-0.6,0.1-0.9,0.1s-0.5-0.1-0.7-0.2c-0.2-0.1-0.3-0.3-0.3-0.4c0-0.2-0.1-0.3-0.1-0.5c0-0.1,0-0.3,0-0.5s0-0.3,0-0.4
			c-1.1,0.8-2.4,1.2-3.9,0.9s-2.5-1-3-2.3s-0.5-2.9-0.2-5c0.6-3.7,2-5.8,4.2-6.5c0.7-0.2,1.5-0.2,2.3-0.1c0.8,0.1,1.6,0.4,2.4,0.8
			c0.3-0.3,0.7-0.5,1.2-0.4c0.8,0.1,1.2,0.8,1,2.2C324.5,202.6,324.5,202.8,324.5,203.1z M320.3,209.9c0.6-1.1,0.9-2.2,1.1-3.5
			s0.2-2.2,0-2.9c-0.2-0.6-0.7-1-1.5-1.1c-0.3-0.1-0.7-0.1-1.3-0.1c-0.5,0-1.1,0.4-1.7,1.1c-0.6,0.8-0.9,1.5-1,2.1l-0.2,1.2
			c-0.3,2.1-0.1,3.6,0.7,4.3c0.2,0.2,0.6,0.4,1,0.4c0.4,0.1,0.9,0,1.5-0.3C319.6,210.8,320.1,210.4,320.3,209.9z"/>
		<path d="M327,202.1c0.1-0.4,0.2-0.7,0.5-1c0.3-0.2,0.6-0.3,0.9-0.3c0.4,0.1,0.6,0.3,0.9,0.8c0.2,1.7,0.5,3.2,0.9,4.5
			c0.3,1.4,0.7,2.6,0.9,3.8c0.3,1.1,0.5,2,0.6,2.6c0.6-1.2,1.3-2.9,2.2-5.1c0.9-2.2,1.6-3.8,2-4.7c0.2-0.4,0.6-0.6,1.4-0.5
			c0.3,0,0.5,0.2,0.7,0.4s0.3,0.4,0.3,0.7c0,0.2-0.1,0.4-0.2,0.6c-4.5,9.8-7.7,16.5-9.6,20.1c-0.3,0.5-0.6,0.7-1.1,0.7
			c-0.3,0-0.5-0.2-0.7-0.5s-0.2-0.7-0.2-1.1c0.1-0.4,0.3-1.1,0.8-2.1c0.4-0.9,1-2,1.5-3.1c0.6-1.1,1-1.9,1.2-2.3
			c-0.4-0.9-0.9-2.8-1.6-5.8C327.9,206.9,327.4,204.3,327,202.1z"/>
		<path d="M340.3,214.6c0.1-0.3,0.2-0.6,0.5-0.9c0.3-0.3,0.7-0.4,1.2-0.3c0.5,0.1,0.8,0.2,1,0.4s0.3,0.6,0.2,1.3s-0.3,1-0.6,1.2
			c-0.3,0.2-0.6,0.2-0.9,0.2c-0.5-0.1-0.8-0.3-1-0.7C340.4,215.3,340.3,215,340.3,214.6z M345.7,196.7l-1.9,10.3
			c-0.1,1-0.3,1.7-0.3,2.2c-0.1,0.3-0.3,0.5-0.6,0.6c-0.3,0.2-0.5,0.2-0.8,0.2s-0.5-0.3-0.6-0.8c0.5-5.2,1-9.5,1.6-13
			c0.1-0.3,0.4-0.4,0.7-0.5c0.4-0.1,0.6-0.1,0.9,0C345.4,195.8,345.7,196.1,345.7,196.7z"/>
	</g>
	<g id="hereis">
		<path d="M257.5,23.7l-1.7,11.2c-0.2,1.3-0.6,3.6-1.2,6.8c-0.1,0.4-0.3,0.7-0.7,0.9s-0.7,0.3-1,0.3c-0.5-0.1-0.7-0.4-0.6-1.1
			c0.4-2.3,0.8-4.2,1-5.9l0.3-2.1c-0.4,0-1.2-0.1-2.5-0.3s-2.7-0.5-4.3-1l-0.2,1.3c-0.4,2.3-0.6,4.6-0.7,6.7
			c-0.1,0.4-0.4,0.7-0.7,0.9s-0.7,0.3-1,0.3c-0.3-0.1-0.6-0.3-0.7-0.8c0.1-2.3,0.2-4.3,0.5-5.8c0.2-1.6,0.5-3.2,0.8-4.8l1.3-7.4
			c0.2-0.3,0.4-0.6,0.7-0.7c0.3-0.2,0.6-0.3,0.9-0.2c0.4,0.1,0.7,0.4,0.7,1l-1.3,7.3c1.6,0.5,3,0.9,4.3,1.1s2.1,0.3,2.5,0.4
			c0.2-1.8,0.6-4.4,1.1-7.7c0.2-0.5,0.5-0.8,1-0.9c0.2-0.1,0.4-0.1,0.6-0.1C257.2,22.8,257.5,23.2,257.5,23.7z"/>
		<path d="M267,31.6c0.9,0.8,1.3,1.6,1.1,2.5c-0.1,0.9-0.7,1.7-1.8,2.5c-1.1,0.8-2.3,1.1-3.6,1.1c-0.1,0-0.2,0-0.3,0
			c-0.1,0-0.2,0-0.3,0c-0.1,0-0.2,0-0.3,0c-0.1,0-0.2,0-0.3,0c-0.1,0-0.2,0-0.3,0c-0.1,0-0.2,0-0.3-0.1c-0.2,0-0.3,0-0.3-0.1
			c0,1.6,0.1,2.7,0.4,3.3c0.5,0.5,1,0.9,1.4,1c1,0.2,2-0.1,3-0.8s1.7-1,2.1-1c0.1,0,0.4,0.2,0.6,0.6c0.3,0.3,0.4,0.7,0.4,0.9
			c0,0.3-0.3,0.6-0.7,1c-0.4,0.3-0.9,0.7-1.6,1.1c-0.6,0.4-1.3,0.6-2.2,0.8c-0.8,0.2-1.6,0.2-2.3,0.1s-1.3-0.4-1.7-0.8
			c-0.8-0.7-1.4-1.8-1.7-3.3s-0.3-3,0-4.5c0.2-1.6,0.8-2.9,1.7-4.1c1-1.3,2.4-1.8,4.2-1.5C265.2,30.4,266.1,30.9,267,31.6z
			 M265.5,33.9c0.1-0.9-0.4-1.4-1.5-1.5c-0.8-0.1-1.5,0.2-2.2,1c-0.2,0.2-0.4,0.5-0.5,0.9s-0.3,0.7-0.4,1.1
			C263.7,35.8,265.3,35.3,265.5,33.9z"/>
		<path d="M270.8,41.9L271,41c0.2-1.3,0.3-2.6,0.4-4.2c0-1.5,0-2.6-0.1-3.4c-0.1-0.8-0.1-1.2-0.1-1.4c0-0.2,0.2-0.4,0.5-0.5
			c0.3-0.2,0.6-0.2,1-0.2c0.3,0.1,0.6,0.2,0.8,0.5c0.2,0.3,0.2,0.6,0.3,0.9c0,0.3,0,0.7,0,1.1c0,0.5,0,0.8,0,0.9
			c0.7-1.2,1.7-1.9,3-2.2c0.7-0.2,1.4-0.2,2.1-0.1c1.7,0.3,2.4,0.8,2.3,1.7c-0.1,0.5-0.4,0.9-1,1.1c-0.2,0.1-0.5,0.1-0.7,0.1
			l-0.9-0.2c-2.5-0.4-4.2,1.9-5,7l-0.4,2.8V45c-0.1,0.4-0.4,0.6-0.7,0.9c-0.3,0.2-0.7,0.3-1,0.3c-0.4-0.1-0.7-0.5-0.7-1.2
			C270.5,44,270.6,43,270.8,41.9z"/>
		<path d="M290.7,35.3c0.9,0.8,1.3,1.6,1.1,2.5c-0.1,0.9-0.7,1.7-1.8,2.5c-1.1,0.8-2.3,1.1-3.6,1.1c-0.1,0-0.2,0-0.3,0
			c-0.1,0-0.2,0-0.3,0c-0.1,0-0.2,0-0.3,0c-0.1,0-0.2,0-0.3,0c-0.1,0-0.2,0-0.3,0c-0.1,0-0.2,0-0.3-0.1s-0.3,0-0.3-0.1
			c0,1.6,0.1,2.7,0.4,3.3c0.5,0.5,1,0.9,1.4,1c1,0.2,2-0.1,3-0.8s1.7-1,2.1-1c0.1,0,0.4,0.2,0.6,0.6c0.3,0.3,0.4,0.7,0.4,0.9
			c0,0.3-0.3,0.6-0.7,1c-0.4,0.3-0.9,0.7-1.6,1.1c-0.6,0.4-1.3,0.6-2.2,0.8c-0.8,0.2-1.6,0.2-2.3,0.1s-1.3-0.4-1.7-0.8
			c-0.8-0.7-1.4-1.8-1.7-3.3s-0.3-3,0-4.5c0.2-1.6,0.8-2.9,1.7-4.1c1-1.3,2.4-1.8,4.2-1.5C288.9,34.1,289.8,34.6,290.7,35.3z
			 M289.2,37.6c0.1-0.9-0.4-1.4-1.5-1.5c-0.8-0.1-1.5,0.2-2.2,1c-0.2,0.2-0.4,0.5-0.5,0.9s-0.3,0.7-0.4,1.1
			C287.5,39.5,289,39,289.2,37.6z"/>
		<path d="M305.1,38.7l-0.4,1.9l-1.1,6.8c-0.1,1-0.2,1.6-0.3,2.1c-0.1,0.4-0.3,0.7-0.6,0.9c-0.3,0.2-0.6,0.3-1,0.3
			c-0.3-0.1-0.6-0.3-0.7-0.9c0.1-0.5,0.1-1.3,0.2-2.3s0.2-2.1,0.4-3.5c0.1-1.4,0.3-2.7,0.5-4s0.4-2.5,0.6-3.5
			c0.1-0.4,0.4-0.5,0.8-0.4C304.9,36.3,305.3,37.2,305.1,38.7z M303.9,30.6c0.3-0.2,0.5-0.3,0.7-0.3s0.3,0,0.3,0
			c0.9,0.3,1.4,0.7,1.5,1.2c0,0.2,0,0.6,0,1c-0.1,0.4-0.3,0.8-0.7,1.2c-0.4,0.4-0.8,0.6-1.2,0.5c-0.4-0.1-0.7-0.3-1-0.8
			c-0.2-0.4-0.3-1-0.2-1.6C303.3,31.1,303.5,30.7,303.9,30.6z"/>
		<path d="M314,37.8c0.7,0.1,1.5,0.4,2.2,0.7c1.4,0.7,2,1.5,1.9,2.2c-0.1,0.3-0.2,0.6-0.6,0.8s-0.7,0.2-1.1,0.1
			c-0.1,0-0.5-0.3-1.3-0.8s-1.4-0.8-1.9-0.9s-1,0-1.4,0.2c-0.5,0.2-0.7,0.6-0.8,1c-0.1,0.5,0,0.9,0.2,1.2c0.2,0.4,0.5,0.6,0.9,0.9
			s0.8,0.4,1.3,0.6c1.3,0.5,2.1,0.9,2.6,1.2c0.8,0.6,1.2,1.5,1,2.8s-0.9,2.3-2,3.1s-2.2,1.1-3.3,1c-1.1-0.2-1.9-0.4-2.6-0.8
			c-1.2-0.7-1.7-1.4-1.6-2.1c0.1-0.7,0.6-1,1.4-0.9c0.4,0.1,0.9,0.3,1.6,0.8s1.2,0.7,1.7,0.8s1-0.2,1.5-0.7s0.8-1.1,0.9-1.6
			c0-0.1,0-0.3,0-0.5c-0.5-0.6-1.5-1.2-3-1.7c-0.5-0.2-1.1-0.4-1.6-0.7c-1.1-0.6-1.5-1.8-1.3-3.5c0.2-1.2,0.8-2.1,1.8-2.7
			C311.6,37.8,312.7,37.6,314,37.8z"/>
		<path d="M326.4,41.3c0.1-0.4,0.2-0.7,0.5-1c0.3-0.2,0.6-0.3,0.9-0.3c0.4,0.1,0.6,0.3,0.9,0.8c0.2,1.7,0.5,3.2,0.9,4.5
			c0.3,1.4,0.7,2.6,0.9,3.8c0.3,1.1,0.5,2,0.6,2.6c0.6-1.2,1.3-2.9,2.2-5.1c0.9-2.2,1.6-3.8,2-4.7c0.2-0.4,0.6-0.6,1.4-0.5
			c0.3,0,0.5,0.2,0.7,0.4s0.3,0.4,0.3,0.7c0,0.2-0.1,0.4-0.2,0.6c-4.5,9.8-7.7,16.5-9.6,20.1c-0.3,0.5-0.6,0.7-1.1,0.7
			c-0.3,0-0.5-0.2-0.7-0.5s-0.2-0.7-0.2-1.1c0.1-0.4,0.3-1.1,0.8-2.1c0.4-0.9,1-2,1.5-3.1c0.6-1.1,1-1.9,1.1-2.3
			c-0.4-0.9-0.9-2.8-1.6-5.8C327.3,46.1,326.8,43.5,326.4,41.3z"/>
		<path d="M343.3,43.2c0.8-0.3,1.7-0.4,2.6-0.3s1.7,0.7,2.4,1.6c1.2,1.7,1.6,3.9,1.2,6.5c-0.2,1.4-0.8,2.8-1.8,4.1
			c-0.5,0.7-1.1,1.2-1.8,1.5c-0.7,0.4-1.5,0.5-2.3,0.4s-1.6-0.5-2.3-1.1c-0.7-0.6-1.2-1.3-1.6-2.1c-0.8-1.7-1.1-3.2-0.9-4.6
			c0.3-1.8,1.1-3.4,2.4-4.8C341.7,44,342.5,43.5,343.3,43.2z M344.5,55c0.6-0.2,1.2-0.6,1.6-1.3s0.7-1.4,0.8-2.1s0.2-1.4,0.2-2
			s-0.1-1.2-0.2-1.8s-0.4-1.1-0.7-1.5c-0.3-0.4-0.8-0.8-1.3-0.9c-0.9,0-1.7,0.4-2.4,1.2c-0.7,0.8-1.2,1.6-1.3,2.5
			c-0.1,0.9,0.1,2,0.6,3.4c0.3,0.6,0.6,1.2,1.1,1.7C343.4,54.6,343.9,54.9,344.5,55z"/>
		<path d="M358.3,57.2c-1.7,1.3-3.2,1.8-4.6,1.6c-0.7-0.1-1.3-0.5-1.7-1.1c-0.4-0.6-0.7-1.3-0.9-2.2c-0.3-1.7-0.3-3.4,0-4.9
			c0.2-1.6,0.6-3.4,1.1-5.4c0.1-0.4,0.4-0.6,0.7-0.8c0.3-0.2,0.6-0.3,0.8-0.2c0.6,0.1,0.9,0.4,0.9,1c-0.3,1.4-0.6,2.7-0.8,4
			c-0.2,1.3-0.3,2.2-0.4,2.8c-0.1,1.5,0.1,3,0.8,4.6c0.8-0.1,1.6-0.3,2.4-0.8s1.4-1,1.9-1.6c0.2-3,0.5-5.5,0.8-7.6
			c0.1-0.4,0.3-0.8,0.6-1s0.7-0.4,1.1-0.3c0.4,0.1,0.7,0.4,0.8,1c-0.2,1-0.4,3.3-0.8,7c0,0.5-0.1,1.5,0,2.9c0,1.4,0,2.3-0.1,2.6
			c0,0.3-0.3,0.6-0.6,0.9c-0.4,0.3-0.7,0.4-1.1,0.3c-0.4-0.1-0.6-0.3-0.7-0.9L358.3,57.2z"/>
		<path d="M364.3,56.5l0.2-0.9c0.2-1.3,0.3-2.6,0.4-4.2c0-1.5,0-2.6-0.1-3.4c-0.1-0.8-0.1-1.2-0.1-1.4s0.2-0.4,0.5-0.5
			c0.3-0.2,0.6-0.2,1-0.2c0.3,0.1,0.6,0.2,0.8,0.5c0.2,0.3,0.2,0.6,0.3,0.9c0,0.3,0,0.7,0,1.1c0,0.5,0,0.8,0,0.9
			c0.7-1.2,1.7-1.9,3-2.2c0.7-0.2,1.4-0.2,2.1-0.1c1.7,0.3,2.4,0.8,2.3,1.7c-0.1,0.5-0.4,0.9-1,1.1c-0.2,0.1-0.5,0.1-0.7,0.1
			l-0.9-0.2c-2.5-0.4-4.2,1.9-5,7l-0.4,2.8v0.1c-0.1,0.4-0.4,0.6-0.7,0.9c-0.3,0.2-0.7,0.3-1,0.3c-0.4-0.1-0.7-0.5-0.7-1.2
			S364.1,57.6,364.3,56.5z"/>
		<path d="M251.7,74.4l-1.5,9.1c-0.2,0.4-0.4,0.7-0.8,0.9c-0.3,0.2-0.7,0.3-1,0.3c-0.5-0.1-0.7-0.5-0.6-1.2l1.7-10.5l1.7-10.7
			c0.2-0.5,0.3-0.8,0.5-1s0.5-0.3,0.9-0.2s0.6,0.2,0.7,0.4c0.1,0.2,0.1,0.7,0.2,1.5c0.1-0.3,0.5-0.6,1.1-0.9
			c0.6-0.3,1.4-0.4,2.4-0.2s1.9,0.5,2.6,1.1c0.7,0.5,1.2,1.2,1.5,2c0.6,1.5,0.7,3.3,0.4,5.4S260.3,74,259,75c-1.4,1-3.1,1.3-5.1,1
			c-0.7-0.1-1.3-0.4-1.8-1C251.9,74.6,251.8,74.4,251.7,74.4z M256.1,64.1c-0.8,0-1.5,0.2-2.1,0.7s-0.9,1-1,1.5l-0.9,5.7
			c0.1,0,0.2,0.2,0.4,0.4c0.5,0.6,1.1,1,1.8,1.1c2.8,0.4,4.4-0.8,4.8-3.7c0.4-2.5,0-4.1-1.1-5C257.5,64.4,256.9,64.2,256.1,64.1z"/>
		<path d="M274.5,67.4l-0.4,2.1c-0.1,0.8-0.4,1.8-0.7,3c-0.2,2.2-0.3,4.2-0.2,5.9c-0.1,0.2-0.3,0.4-0.6,0.5
			c-0.3,0.1-0.6,0.1-0.9,0.1s-0.5-0.1-0.7-0.2s-0.3-0.3-0.3-0.4c0-0.2-0.1-0.3-0.1-0.5c0-0.1,0-0.3,0-0.5s0-0.3,0-0.4
			c-1.1,0.8-2.4,1.2-3.9,0.9c-1.5-0.2-2.5-1-3-2.3s-0.5-2.9-0.2-5c0.6-3.7,2-5.8,4.2-6.5c0.7-0.2,1.5-0.2,2.3-0.1
			c0.8,0.1,1.6,0.4,2.4,0.8c0.3-0.3,0.7-0.5,1.2-0.4c0.8,0.1,1.2,0.8,1,2.2C274.6,66.8,274.6,67.1,274.5,67.4z M270.4,74.2
			c0.6-1.1,0.9-2.2,1.1-3.5s0.2-2.2,0-2.9c-0.2-0.6-0.7-1-1.5-1.1c-0.3-0.1-0.7-0.1-1.3-0.1c-0.5,0-1.1,0.4-1.7,1.1
			c-0.6,0.8-0.9,1.5-1,2.1l-0.2,1.2c-0.3,2.1-0.1,3.6,0.7,4.3c0.2,0.2,0.6,0.4,1,0.4c0.4,0.1,0.9,0,1.5-0.3
			C269.7,75,270.1,74.6,270.4,74.2z"/>
		<path d="M283.2,65.8c0.7,0.1,1.5,0.4,2.2,0.7c1.4,0.7,2,1.5,1.9,2.2c-0.1,0.3-0.2,0.6-0.6,0.8s-0.7,0.2-1.1,0.1
			c-0.1,0-0.5-0.3-1.3-0.8s-1.4-0.8-1.9-0.9s-1,0-1.4,0.2c-0.5,0.2-0.7,0.6-0.8,1c-0.1,0.5,0,0.9,0.2,1.2c0.2,0.4,0.5,0.6,0.9,0.9
			c0.4,0.2,0.8,0.4,1.3,0.6c1.3,0.5,2.1,0.9,2.6,1.2c0.8,0.6,1.2,1.5,1,2.8s-0.9,2.3-2,3.1c-1.1,0.8-2.2,1.1-3.3,1
			c-1.1-0.2-1.9-0.4-2.6-0.8c-1.2-0.7-1.7-1.4-1.6-2.1s0.6-1,1.4-0.9c0.4,0.1,0.9,0.3,1.6,0.8s1.2,0.7,1.7,0.8
			c0.5,0.1,1-0.2,1.5-0.7s0.8-1.1,0.9-1.6c0-0.1,0-0.3,0-0.5c-0.5-0.6-1.5-1.2-3-1.7c-0.5-0.2-1.1-0.4-1.6-0.7
			c-1.1-0.6-1.5-1.8-1.3-3.5c0.2-1.2,0.8-2.1,1.8-2.7C280.8,65.8,281.9,65.6,283.2,65.8z"/>
		<path d="M294.8,67.6c0.7,0.1,1.5,0.4,2.2,0.7c1.4,0.7,2,1.5,1.9,2.2c-0.1,0.3-0.2,0.6-0.6,0.8c-0.3,0.2-0.7,0.2-1.1,0.1
			c-0.1,0-0.5-0.3-1.3-0.8s-1.4-0.8-1.9-0.9s-1,0-1.4,0.2c-0.5,0.2-0.7,0.6-0.8,1c-0.1,0.5,0,0.9,0.2,1.2c0.2,0.4,0.5,0.6,0.9,0.9
			c0.4,0.2,0.8,0.4,1.3,0.6c1.3,0.5,2.1,0.9,2.6,1.2c0.8,0.6,1.2,1.5,1,2.8s-0.9,2.3-2,3.1s-2.2,1.1-3.3,1c-1.1-0.2-1.9-0.4-2.6-0.8
			c-1.2-0.7-1.7-1.4-1.6-2.1s0.6-1,1.4-0.9c0.4,0.1,0.9,0.3,1.6,0.8s1.2,0.7,1.7,0.8c0.5,0.1,1-0.2,1.5-0.7s0.8-1.1,0.9-1.6
			c0-0.1,0-0.3,0-0.5c-0.5-0.6-1.5-1.2-3-1.7c-0.5-0.2-1.1-0.4-1.6-0.7c-1.1-0.6-1.5-1.8-1.3-3.5c0.2-1.2,0.8-2.1,1.7-2.7
			C292.4,67.6,293.5,67.4,294.8,67.6z"/>
		<path d="M310.5,75.9l0.5-4.7c0.1-0.3,0.4-0.5,0.7-0.7c0.3-0.2,0.6-0.3,0.8-0.2c0.6,0.1,0.7,1.3,0.3,3.6l-0.3,1.7
			c-0.4,2.7-1.2,5.1-2.4,7.1c-0.7,1.1-1.3,1.7-1.9,1.6c-0.4-0.1-0.7-0.4-1-1s-0.5-1.3-0.8-2.3c-0.2-0.9-0.5-1.6-0.6-2
			c-0.3,0.4-0.7,0.9-1.2,1.7c-0.5,0.7-0.8,1.1-0.9,1.2c-0.8,1-1.5,1.4-2.1,1.3c-0.2,0-0.5-0.6-0.9-1.8c-0.6-3.8-0.7-7.7,0-11.7
			c0.2-0.4,0.5-0.7,1.1-0.9c0.2,0,0.3,0,0.4,0c0.4,0.1,0.6,0.4,0.6,0.9c-0.5,3.2-0.4,6.3,0.2,9.4c0.3-0.3,0.6-0.7,1-1.2
			s0.6-0.9,0.8-1.1c0.5-0.6,1-0.9,1.6-0.8s1.1,0.7,1.5,1.7c0.3,0.8,0.5,1.4,0.7,2c0.2,0.5,0.3,0.8,0.3,0.9
			C309.8,78.9,310.3,77.4,310.5,75.9z"/>
		<path d="M318.5,72c0.8-0.3,1.7-0.4,2.6-0.3s1.7,0.7,2.4,1.6c1.2,1.7,1.6,3.9,1.2,6.5c-0.2,1.4-0.8,2.8-1.8,4.1
			c-0.5,0.7-1.1,1.2-1.8,1.5c-0.7,0.4-1.5,0.5-2.3,0.4s-1.6-0.5-2.3-1.1c-0.7-0.6-1.2-1.3-1.6-2.1c-0.8-1.7-1.1-3.2-0.9-4.6
			c0.3-1.8,1.1-3.4,2.4-4.8C316.9,72.8,317.6,72.4,318.5,72z M319.7,83.9c0.6-0.2,1.2-0.7,1.6-1.3c0.4-0.7,0.7-1.4,0.8-2.1
			c0.1-0.8,0.2-1.4,0.2-2s-0.1-1.2-0.2-1.8s-0.4-1.1-0.7-1.5c-0.3-0.4-0.8-0.8-1.3-0.9c-0.9,0-1.7,0.4-2.4,1.2
			c-0.7,0.8-1.2,1.6-1.3,2.5c-0.1,0.9,0.1,2,0.6,3.4c0.3,0.6,0.6,1.2,1.1,1.7C318.5,83.5,319.1,83.8,319.7,83.9z"/>
		<path d="M327.4,83.4l0.2-0.9c0.2-1.3,0.3-2.6,0.4-4.2c0-1.5,0-2.6-0.1-3.4s-0.1-1.2-0.1-1.4s0.2-0.4,0.5-0.5
			c0.3-0.2,0.6-0.2,1-0.2c0.3,0.1,0.6,0.2,0.8,0.5c0.2,0.3,0.2,0.6,0.3,0.9c0,0.3,0,0.7,0,1.1c0,0.5,0,0.8,0,0.9
			c0.7-1.2,1.7-1.9,3-2.2c0.7-0.2,1.4-0.2,2.1-0.1c1.7,0.3,2.4,0.8,2.3,1.7c-0.1,0.5-0.4,0.9-1,1.1c-0.2,0.1-0.5,0.1-0.7,0.1
			l-0.9-0.2c-2.5-0.4-4.2,1.9-5,7l-0.4,2.8v0.1c-0.1,0.4-0.4,0.6-0.7,0.9c-0.3,0.2-0.7,0.3-1,0.3c-0.4-0.1-0.7-0.5-0.7-1.2
			S327.2,84.6,327.4,83.4z"/>
		<path d="M347.7,69.9c0.2-1.1,0.6-1.6,1.3-1.5c0.4,0.1,0.6,0.2,0.7,0.3c0.1,0.1,0.2,0.4,0.2,0.7c0,0.3,0,1-0.2,2.1
			c-0.2,1-0.3,2.3-0.5,3.9s-0.3,2.8-0.5,3.7c-0.1,0.9-0.3,2.3-0.4,4.2c-0.2,1.9-0.3,3.5-0.5,4.7l-0.3,1.7c-0.1,0.4-0.3,0.6-0.5,0.7
			s-0.6,0.1-1,0s-0.6-0.4-0.7-0.9V89c-1,0.6-2.1,0.7-3.2,0.6c-1.6-0.2-2.7-1-3.4-2.3c-0.7-1.3-1-2.7-0.7-4.3c0.2-1.5,0.8-3,1.8-4.4
			c0.9-1.4,2.1-2.3,3.6-2.8c0.8-0.2,1.7-0.3,2.7-0.1c0.4,0.1,0.6,0.1,0.8,0.2l0.4-2.4l0.3-1.9L347.7,69.9z M345.4,86.5
			c0.1-0.3,0.3-0.8,0.4-1.6c0.1-0.8,0.2-1.3,0.2-1.4l0.1-0.6c0.2-1.1,0.2-2.1,0.1-3.1s-0.4-1.5-0.8-1.5c-0.6-0.1-1.2-0.1-1.9-0.1
			c-0.7,0-1.2,0.2-1.5,0.4c-0.8,0.8-1.4,2.1-1.7,4.1c-0.2,1.4,0.1,2.6,0.8,3.5c0.4,0.5,0.9,0.8,1.5,0.9s1.1,0.1,1.6-0.1
			C344.9,86.9,345.2,86.7,345.4,86.5z"/>
		<path d="M351.7,88.5c0-0.3,0.2-0.6,0.5-0.9s0.7-0.4,1.2-0.3s0.8,0.2,1,0.4c0.2,0.2,0.3,0.6,0.2,1.3s-0.3,1-0.6,1.2
			c-0.3,0.2-0.6,0.2-0.9,0.2c-0.5-0.1-0.8-0.3-1-0.7C351.7,89.2,351.6,88.8,351.7,88.5z M357.1,70.5l-1.9,10.3
			c-0.1,1-0.3,1.7-0.3,2.2c-0.1,0.3-0.3,0.5-0.6,0.6c-0.3,0.2-0.5,0.2-0.8,0.2s-0.5-0.3-0.6-0.8c0.5-5.2,1-9.5,1.6-13
			c0.1-0.3,0.4-0.4,0.7-0.5s0.6-0.1,0.9,0C356.7,69.6,357.1,70,357.1,70.5z"/>
	</g>
</g>
<g id="dog">
	<g id="shadow">
		<ellipse style="fill:#FFFFFF;" cx="136.1" cy="514.5" rx="130.9" ry="25.8"/>
		<ellipse style="fill:#FDFDFD;" cx="136.1" cy="514.5" rx="128.8" ry="25.4"/>
		<ellipse style="fill:#FBFBFB;" cx="136.1" cy="514.5" rx="126.8" ry="25"/>
		<ellipse style="fill:#F9F9F9;" cx="136.1" cy="514.5" rx="124.8" ry="24.6"/>
		<ellipse style="fill:#F7F7F7;" cx="136.1" cy="514.5" rx="122.7" ry="24.2"/>
		<ellipse style="fill:#F5F5F5;" cx="136.1" cy="514.5" rx="120.7" ry="23.8"/>
		<ellipse style="fill:#F3F3F3;" cx="136.1" cy="514.5" rx="118.7" ry="23.4"/>
		<ellipse style="fill:#F1F1F1;" cx="136.1" cy="514.5" rx="116.6" ry="23"/>
		<ellipse style="fill:#EFEFEF;" cx="136.1" cy="514.5" rx="114.6" ry="22.6"/>
		<ellipse style="fill:#EDEDED;" cx="136.1" cy="514.5" rx="112.6" ry="22.2"/>
		<ellipse style="fill:#EBEBEB;" cx="136.1" cy="514.5" rx="110.6" ry="21.8"/>
		<ellipse style="fill:#E9E9E9;" cx="136.1" cy="514.5" rx="108.5" ry="21.4"/>
		<ellipse style="fill:#E7E7E7;" cx="136.1" cy="514.5" rx="106.5" ry="21"/>
		<ellipse style="fill:#E5E5E4;" cx="136.1" cy="514.5" rx="104.5" ry="20.6"/>
		<ellipse style="fill:#E3E3E2;" cx="136.1" cy="514.5" rx="102.4" ry="20.2"/>
		<ellipse style="fill:#E1E1E0;" cx="136.1" cy="514.5" rx="100.4" ry="19.8"/>
		<ellipse style="fill:#DFDFDE;" cx="136.1" cy="514.5" rx="98.4" ry="19.4"/>
		<ellipse style="fill:#DDDDDC;" cx="136.1" cy="514.5" rx="96.4" ry="19"/>
		<ellipse style="fill:#DBDBDA;" cx="136.1" cy="514.5" rx="94.3" ry="18.6"/>
		<ellipse style="fill:#D9D9D8;" cx="136.1" cy="514.5" rx="92.3" ry="18.2"/>
		<ellipse style="fill:#D7D7D6;" cx="136.1" cy="514.5" rx="90.3" ry="17.8"/>
		<ellipse style="fill:#D5D5D4;" cx="136.1" cy="514.5" rx="88.2" ry="17.4"/>
		<ellipse style="fill:#D3D3D2;" cx="136.1" cy="514.5" rx="86.2" ry="17"/>
		<ellipse style="fill:#D1D1D0;" cx="136.1" cy="514.5" rx="84.2" ry="16.6"/>
		<ellipse style="fill:#CFCFCE;" cx="136.1" cy="514.5" rx="82.1" ry="16.2"/>
		<ellipse style="fill:#CDCDCC;" cx="136.1" cy="514.5" rx="80.1" ry="15.8"/>
		<ellipse style="fill:#CACACA;" cx="136.1" cy="514.5" rx="78.1" ry="15.4"/>
		<ellipse style="fill:#C8C8C8;" cx="136.1" cy="514.5" rx="76.1" ry="15"/>
		<ellipse style="fill:#C6C6C6;" cx="136.1" cy="514.5" rx="74" ry="14.6"/>
		<ellipse style="fill:#C4C4C4;" cx="136.1" cy="514.5" rx="72" ry="14.2"/>
		<ellipse style="fill:#C2C2C2;" cx="136.1" cy="514.5" rx="70" ry="13.8"/>
		<ellipse style="fill:#C0C0C0;" cx="136.1" cy="514.5" rx="67.9" ry="13.4"/>
		<ellipse style="fill:#BEBEBE;" cx="136.1" cy="514.5" rx="65.9" ry="13"/>
		<ellipse style="fill:#BCBCBC;" cx="136.1" cy="514.5" rx="63.9" ry="12.6"/>
		<ellipse style="fill:#BABABA;" cx="136.1" cy="514.5" rx="61.8" ry="12.2"/>
		<ellipse style="fill:#B8B8B8;" cx="136.1" cy="514.5" rx="59.8" ry="11.8"/>
		<ellipse style="fill:#B6B6B6;" cx="136.1" cy="514.5" rx="57.8" ry="11.4"/>
		<ellipse style="fill:#B4B4B4;" cx="136.1" cy="514.5" rx="55.8" ry="11"/>
		<ellipse style="fill:#B2B2B2;" cx="136.1" cy="514.5" rx="53.7" ry="10.6"/>
		<ellipse style="fill:#B0B0AF;" cx="136.1" cy="514.5" rx="51.7" ry="10.2"/>
		<ellipse style="fill:#AEAEAD;" cx="136.1" cy="514.5" rx="49.7" ry="9.8"/>
		<ellipse style="fill:#ACACAB;" cx="136.1" cy="514.5" rx="47.6" ry="9.4"/>
		<ellipse style="fill:#AAAAA9;" cx="136.1" cy="514.5" rx="45.6" ry="9"/>
		<ellipse style="fill:#A8A8A7;" cx="136.1" cy="514.5" rx="43.6" ry="8.6"/>
		<ellipse style="fill:#A6A6A5;" cx="136.1" cy="514.5" rx="41.6" ry="8.2"/>
		<ellipse style="fill:#A4A4A3;" cx="136.1" cy="514.5" rx="39.5" ry="7.8"/>
		<ellipse style="fill:#A2A2A1;" cx="136.1" cy="514.5" rx="37.5" ry="7.4"/>
		<ellipse style="fill:#A0A09F;" cx="136.1" cy="514.5" rx="35.5" ry="7"/>
		<ellipse style="fill:#9E9E9D;" cx="136.1" cy="514.5" rx="33.4" ry="6.6"/>
		<ellipse style="fill:#9C9C9B;" cx="136.1" cy="514.5" rx="31.4" ry="6.2"/>
		<ellipse style="fill:#9A9A99;" cx="136.1" cy="514.5" rx="29.4" ry="5.8"/>
		<ellipse style="fill:#989897;" cx="136.1" cy="514.5" rx="27.3" ry="5.4"/>
	</g>
	<path id="ear2" style="fill:#333333;" d="M168.6,253.9c0,0,5.6-50.9,11.1-53.4s41.5,0.6,39.8,17.2c-1,9.2-7.9,12.9-14.5,10.3
		c-6.1-2.4-16.2-18.4-19.2-17.3c-3.7,1.3-12.7,43.2-12.7,43.2H168.6z"/>
	<path id="ear1" d="M133.8,286.7c0,0-27.5-50.5-25.5-57.4s41-28.2,45.7-18.1c4.7,10.1,2.1,17.5-3.3,19.8c-5.2,2.2-31.4-4-32.4-0.2
		c-1,3.7,18.8,54,18.8,54L133.8,286.7z"/>
	<g id="leg2">
		<path style="fill:#B56F29;" d="M94.2,458.9c0,0,0,22.6-1.3,32.1s-4.1,14.3-4.6,18.2c-0.4,3.2,1,8.5,5.9,9.1c6.1,0.8,11.3-4,11.3-4
			s3,5.2,8.9,5.2c4,0,4.9-4.8,4.9-4.8s1.7,4.3,7.1,4.4c5.3,0,6-4.2,6-4.2s2.3,3,6.3,0.9c3.8-2.1,4.1-10,0.5-16.7
			c-3.7-6.7-10.3-10.1-16.8-8.6c-7.6,1.7-11.4,12.3-17.2,11.4c-2.5-0.4-3.2-11.4-3.2-17s1.3-23.2,1.3-23.2L94.2,458.9z"/>
		<path style="fill:#754D24;" d="M126.3,498.5c0,0,5.4,4.1,6.7,9.2c1.1,4.3,0,8,0,8l-0.7-0.7c0,0,0.9-5.1-0.6-8.5
			S126.3,498.5,126.3,498.5z"/>
		<path style="fill:#754D24;" d="M119.9,516c0,0,0.4-4.9-0.5-7.3s-4.2-4.7-4.2-4.7s2.5,3.1,3.2,5.4c0.6,2.2,0.9,5.5,0.9,5.5
			L119.9,516z"/>
		<path style="fill:#754D24;" d="M106.5,507.7c0,0,0.5,2.3,0.4,4.3c-0.1,1.4-0.5,3.6-0.5,3.6l-0.9-1.3c0,0,0.6-1.5,0.7-2.7
			C106.3,510.5,106.5,507.7,106.5,507.7z"/>
	</g>
	<g id="leg1">
		<path style="fill:#B56F29;" d="M154.9,458.1c0,0,0,21.4-1.2,30.5s-3.9,13.6-4.4,17.3c-0.4,3,0.9,8.1,5.6,8.7
			c5.8,0.8,10.7-3.8,10.7-3.8s2.8,4.9,8.4,4.9c3.8,0,4.6-4.5,4.6-4.5s1.6,4.1,6.7,4.2c5.1,0,5.7-4,5.7-4s2.2,2.9,5.9,0.8
			c3.6-2,3.9-9.5,0.5-15.8c-3.5-6.3-9.7-9.6-16-8.1c-7.2,1.7-10.9,11.7-16.3,10.9c-2.4-0.4-3-10.9-3-16.1c0-5.3,1.2-22,1.2-22
			L154.9,458.1z"/>
		<path style="fill:#754D24;" d="M185.3,495.7c0,0,5.2,3.9,6.4,8.8c1,4.1,0,7.6,0,7.6l-0.7-0.7c0,0,0.9-4.8-0.5-8
			C189.1,500,185.3,495.7,185.3,495.7z"/>
		<path style="fill:#754D24;" d="M179.3,512.2c0,0,0.4-4.6-0.5-6.9c-0.8-2.3-4-4.4-4-4.4s2.4,3,3,5.1s0.8,5.2,0.8,5.2L179.3,512.2z"
			/>
		<path style="fill:#754D24;" d="M166.5,504.4c0,0,0.5,2.2,0.4,4.1c-0.1,1.4-0.5,3.4-0.5,3.4l-0.9-1.2c0,0,0.6-1.4,0.7-2.6
			C166.4,507,166.5,504.4,166.5,504.4z"/>
	</g>
	<g id="body_1_">
		<path id="eyebrow" style="fill:#D18029;" d="M183.5,259.6c0,0,19-14.1,24.9-9.5s2.8,13,2.8,13l-27.2,7.2L183.5,259.6z"/>
		<path id="body1" style="fill:#F69220;" d="M235.1,379.2c20.1-3,42.2-40.5,42.2-40.5l-24.6-37.2c0,0-16.2,2.9-25.3,0
			s-14.1-11.4-14.1-11.4l-25.8-22.5c0,0,1.6-11.5-3.6-14.4c-5.2-2.9-17.5-4.4-30.9,7.1c-12.2,10.4-15.7,19.8-21.7,22.4
			c-3.5,1.5-15.3-5.5-32.9-2.4c-15.8,2.8-26.3,11.4-21.2,12.4c13.4,2.6,26.5,7.4,24.8,10.2c-1.7,2.9-11.8,1-25.3,7.9
			c-13.1,6.7-19.5,17-16,15.7c10.5-3.6,22.9-2.1,22.9,1s-7,3-14.1,11.2c-6.6,7.7-10.7,18.1-8.9,16.8c9.4-7.3,22.3-12.3,23.7-7.5
			c1.4,4.8-23.1,37-18.1,70.6s26,48,57.1,51.5c34.6,3.9,64.2-0.9,76.5-33c8.4-21.9-4.7-39.3-3.2-43.3c1.4-4.1,10,3.4,12.6-4.5
			c1.5-4.6-12.4-7.2-8.6-11.9C204.6,372.5,218.4,381.7,235.1,379.2z"/>
	</g>
	<path id="mounth" d="M160.2,343.2c0,0,8.4,16.6,17.4,23.6c9.6,7.6,22.5,12.2,22.5,12.2l1-2.1c0,0-13.6-4.4-22.2-11.5
		C168.6,356.7,160.2,343.2,160.2,343.2z"/>
	<path id="hand" style="fill:#B56F29;" d="M102.3,377.3c0,0-15.2,36.2-17,38.6c-3.7,4.9-12.6-1.9-15.7,3.4c-2.1,3.7-1.9,11.9,2.2,13
		c5.1,1.4,10.8-8.8,13.6-5.2c2.8,3.6-8.5,6.3-8.9,11.7c-0.4,4.8,8.5,10.1,12.5,5.4c4-4.8-0.1-14.7,2.3-15.4
		c2.4-0.7,2.6,9.4,5.7,11.2c4.1,2.4,10,1.4,11-6.2c1.1-8.3-11.6-9.7-11.1-13.7c0.5-4.1,10.3-38.9,10.3-38.9L102.3,377.3z"/>
	<path id="tail" style="fill:#1A1A1A;" d="M73.4,441c0,0-8.3,8.7-22.6,4.9c-20.5-5.5-19.4-26-8-27.9c6.6-1.1,11.5,5.1,11.5,5.1
		s7.3-13.4-1.1-24s-28.9-5.7-36.1,6.6c-8.4,14.3-0.8,25.1-1.4,27s-11.1-7-14.3-11.8c-1.3-1.9-4.4,12.4,7,23.8
		c8.7,8.7,19.4,10.3,18.9,12.2c-0.5,1.9-14,1.9-21-1c-1.6-0.7,6,13.7,22.9,14.1c14.8,0.4,25.8-12.1,26.7-10.3c1,1.7-1.8,7.7-4,9.7
		c-2.9,2.5,6,0.6,12.2-5.7c8.9-9.1,11-19.9,11-19.9L73.4,441z"/>
	<g id="nose">
		<circle cx="276.7" cy="311.1" r="30.4"/>
		
			<ellipse transform="matrix(0.9686 -0.2486 0.2486 0.9686 -64.5733 76.8977)" style="fill:#343433;" cx="272.2" cy="294.1" rx="17.1" ry="7.6"/>
	</g>
	<ellipse id="belly" style="fill:#754D24;" cx="177.1" cy="444.6" rx="3.6" ry="3.4"/>
</g>
<g id="eyesopen_1_">
	<g id="eyesopen">
		<circle style="fill:#CBCBCA;" cx="202.6" cy="275.2" r="16.8"/>
		<circle cx="209.3" cy="274.8" r="4.6"/>
		<circle style="fill:#FFFFFF;" cx="177.6" cy="290.4" r="25"/>
		<path d="M192.7,284.7c0,3.2-2.6,5.7-5.7,5.7c-3.2,0-5.7-2.6-5.7-5.7s2.6-5.7,5.7-5.7C190.2,278.9,192.7,281.5,192.7,284.7z"/>
		<path style="fill:#F69220;" d="M217.4,290.4c-2.2-1.7-4.7-1.7-4.7-1.7s-17.9,2.4-24.4,6.9c-10,6.8-8.9,18-8.3,19.8
			c0.6,1.7,16.8,6.7,20.8,0c5.2-8.8,19.4-17.7,19.4-17.7S220.6,292.9,217.4,290.4z"/>
		<path style="fill:#F69220;" d="M146,317.2c0,0,2.5-7.1,9.2-10.1c5.9-2.7,23.6,5.3,24.8,8.3C181.5,318.7,146,317.2,146,317.2z"/>
	</g>
</g>
<g id="eyesclosed">
	<g>
		<circle style="fill:#D18029;" cx="202.6" cy="275" r="17"/>
		<path style="fill:#603A17;" d="M217.8,267.5l0.8,1.9c0,0-7.7,1.6-15.3,5.5c-5.8,2.9-11.2,7.3-13.5,11.8l-1.1-1.5
			C188.6,285.1,193.9,271.3,217.8,267.5z"/>
		<circle style="fill:#E48525;" cx="177.1" cy="290" r="25.1"/>
		<path style="fill:#603A17;" d="M197.2,274.8l1.6,2.6c0,0-11.6,3.1-22.7,9.4c-8.4,4.8-16.1,11.6-19.1,18.4l-1.7-2.5
			C155.3,302.6,162,282.2,197.2,274.8z"/>
		<path style="fill:#F69220;" d="M216.9,290.8c-2.1-1.7-4.5-1.6-4.5-1.6s-17.4,2.3-23.7,6.7c-9.7,6.6-8.6,17.5-8,19.2
			s16.3,6.5,20.2,0c5.1-8.5,18.8-17.2,18.8-17.2S220,293.3,216.9,290.8z"/>
		<path style="fill:#F69220;" d="M148.2,317.2c0,0,2.4-6.8,8.9-9.8c5.7-2.6,22.9,5.2,24.1,8C182.6,318.7,148.2,317.2,148.2,317.2z"
			/>
	</g>
</g>
</svg>
