<?xml version="1.0" encoding="utf-8"?>
<!-- Generator: Adobe Illustrator 21.0.0, SVG Export Plug-In . SVG Version: 6.00 Build 0)  -->
<svg version="1.1" id="dog-seluser" xmlns="http://www.w3.org/2000/svg" xmlns:xlink="http://www.w3.org/1999/xlink" x="0px"
	 y="0px" viewBox="0 0 383.7 603" style="enable-background:new 0 0 383.7 603;" xml:space="preserve">
<g id="shadow">
	<ellipse style="fill:#FFFFFF;" cx="146.5" cy="577.2" rx="131" ry="25.8"/>
	<ellipse style="fill:#FDFDFD;" cx="146.5" cy="577.2" rx="129" ry="25.4"/>
	<ellipse style="fill:#FBFBFB;" cx="146.5" cy="577.2" rx="127" ry="25"/>
	<ellipse style="fill:#F9F9F9;" cx="146.5" cy="577.2" rx="125" ry="24.6"/>
	<ellipse style="fill:#F7F7F7;" cx="146.5" cy="577.2" rx="122.9" ry="24.2"/>
	<ellipse style="fill:#F5F5F5;" cx="146.5" cy="577.2" rx="120.9" ry="23.8"/>
	<ellipse style="fill:#F3F3F3;" cx="146.5" cy="577.2" rx="118.9" ry="23.4"/>
	<ellipse style="fill:#F1F1F1;" cx="146.5" cy="577.2" rx="116.8" ry="23"/>
	<ellipse style="fill:#EFEFEF;" cx="146.5" cy="577.2" rx="114.8" ry="22.6"/>
	<ellipse style="fill:#EDEDED;" cx="146.5" cy="577.2" rx="112.8" ry="22.2"/>
	<ellipse style="fill:#EBEBEB;" cx="146.5" cy="577.2" rx="110.7" ry="21.8"/>
	<ellipse style="fill:#E9E9E9;" cx="146.5" cy="577.2" rx="108.7" ry="21.4"/>
	<ellipse style="fill:#E7E7E7;" cx="146.5" cy="577.2" rx="106.7" ry="21"/>
	<ellipse style="fill:#E5E5E4;" cx="146.5" cy="577.2" rx="104.6" ry="20.6"/>
	<ellipse style="fill:#E3E3E2;" cx="146.5" cy="577.2" rx="102.6" ry="20.2"/>
	<ellipse style="fill:#E1E1E0;" cx="146.5" cy="577.2" rx="100.6" ry="19.8"/>
	<ellipse style="fill:#DFDFDE;" cx="146.5" cy="577.2" rx="98.5" ry="19.4"/>
	<ellipse style="fill:#DDDDDC;" cx="146.5" cy="577.2" rx="96.5" ry="19"/>
	<ellipse style="fill:#DBDBDA;" cx="146.5" cy="577.2" rx="94.5" ry="18.6"/>
	<ellipse style="fill:#D9D9D8;" cx="146.5" cy="577.2" rx="92.4" ry="18.2"/>
	<ellipse style="fill:#D7D7D6;" cx="146.5" cy="577.2" rx="90.4" ry="17.8"/>
	<ellipse style="fill:#D5D5D4;" cx="146.5" cy="577.2" rx="88.4" ry="17.4"/>
	<ellipse style="fill:#D3D3D2;" cx="146.5" cy="577.2" rx="86.3" ry="17"/>
	<ellipse style="fill:#D1D1D0;" cx="146.5" cy="577.2" rx="84.3" ry="16.6"/>
	<ellipse style="fill:#CFCFCE;" cx="146.5" cy="577.2" rx="82.3" ry="16.2"/>
	<ellipse style="fill:#CDCDCC;" cx="146.5" cy="577.2" rx="80.2" ry="15.8"/>
	<ellipse style="fill:#CACACA;" cx="146.5" cy="577.2" rx="78.2" ry="15.4"/>
	<ellipse style="fill:#C8C8C8;" cx="146.5" cy="577.2" rx="76.2" ry="15"/>
	<ellipse style="fill:#C6C6C6;" cx="146.5" cy="577.2" rx="74.1" ry="14.6"/>
	<ellipse style="fill:#C4C4C4;" cx="146.5" cy="577.2" rx="72.1" ry="14.2"/>
	<ellipse style="fill:#C2C2C2;" cx="146.5" cy="577.2" rx="70.1" ry="13.8"/>
	<ellipse style="fill:#C0C0C0;" cx="146.5" cy="577.2" rx="68" ry="13.4"/>
	<ellipse style="fill:#BEBEBE;" cx="146.5" cy="577.2" rx="66" ry="13"/>
	<ellipse style="fill:#BCBCBC;" cx="146.5" cy="577.2" rx="64" ry="12.6"/>
	<ellipse style="fill:#BABABA;" cx="146.5" cy="577.2" rx="61.9" ry="12.2"/>
	<ellipse style="fill:#B8B8B8;" cx="146.5" cy="577.2" rx="59.9" ry="11.8"/>
	<ellipse style="fill:#B6B6B6;" cx="146.5" cy="577.2" rx="57.9" ry="11.4"/>
	<ellipse style="fill:#B4B4B4;" cx="146.5" cy="577.2" rx="55.8" ry="11"/>
	<ellipse style="fill:#B2B2B2;" cx="146.5" cy="577.2" rx="53.8" ry="10.6"/>
	<ellipse style="fill:#B0B0AF;" cx="146.5" cy="577.2" rx="51.8" ry="10.2"/>
	<ellipse style="fill:#AEAEAD;" cx="146.5" cy="577.2" rx="49.7" ry="9.8"/>
	<ellipse style="fill:#ACACAB;" cx="146.5" cy="577.2" rx="47.7" ry="9.4"/>
	<ellipse style="fill:#AAAAA9;" cx="146.5" cy="577.2" rx="45.7" ry="9"/>
	<ellipse style="fill:#A8A8A7;" cx="146.5" cy="577.2" rx="43.6" ry="8.6"/>
	<ellipse style="fill:#A6A6A5;" cx="146.5" cy="577.2" rx="41.6" ry="8.2"/>
	<ellipse style="fill:#A4A4A3;" cx="146.5" cy="577.2" rx="39.6" ry="7.8"/>
	<ellipse style="fill:#A2A2A1;" cx="146.5" cy="577.2" rx="37.5" ry="7.4"/>
	<ellipse style="fill:#A0A09F;" cx="146.5" cy="577.2" rx="35.5" ry="7"/>
	<ellipse style="fill:#9E9E9D;" cx="146.5" cy="577.2" rx="33.5" ry="6.6"/>
	<ellipse style="fill:#9C9C9B;" cx="146.5" cy="577.2" rx="31.4" ry="6.2"/>
	<ellipse style="fill:#9A9A99;" cx="146.5" cy="577.2" rx="29.4" ry="5.8"/>
	<ellipse style="fill:#989897;" cx="146.5" cy="577.2" rx="27.4" ry="5.4"/>
</g>
<g id="text">
	<path style="fill:#A7A8AC;" d="M190.8,19.1C199.8,1,211,0.2,225,1.4c21.7,1.8,116.6,20.2,131.2,25c11.6,3.9,17.5,13.8,19,30.2
		c1.2,13.6,5.9,36.2,5,46c-1.2,12.6-8.2,30.8-27.9,32.2c-17.6,1.3-34.7-0.9-67.7-4.5c-20.9-2.3-30.6-2.6-26.9,4.4
		c5,9.5,31.6,28,24.9,27.4c-21.2-1.8-43.8-9.6-57.8-16.8c-9.8-5.1-18.9-12.5-24.1-21c-16.3-1.1-15.3-0.1-19.8-1
		c-14.5-3-20-13.5-19.1-27C162.9,80.9,185.3,30.1,190.8,19.1z"/>
	<path style="fill:#FFFFFF;" d="M189.7,18.3c8.8-17.8,21.2-19.1,35-18C246,2,338.9,20.1,353.2,24.9c11.4,3.8,17.2,13.6,18.6,29.8
		c1.2,13.4,5.8,35.3,4.9,44.9c-1.2,12.5-8,30.3-27.4,31.8c-17.3,1.3-34.1-0.8-66.4-4.4c-20.5-2.3-30.1-2.6-26.4,4.4
		c5,9.4,31,27.8,24.4,27c-19-2.3-44.1-10-57.7-17.6c-9.7-5.4-17.7-11.3-22.7-19.7c-16-1.1-14.8-0.1-19.2-1
		c-14.2-2.9-18.2-13.8-17.5-27C164.7,76.5,184.3,29.1,189.7,18.3z"/>
	<path style="fill:#A7A8AC;" d="M369.3,180c-4.2-22.7-16.3-27.2-32-30.3c-24.5-4.9-134.7-14.8-152.3-14.1
		c-14,0.6-23.6,9.6-30.5,27.2c-5.7,14.5-18,38-20.1,49c-2.7,14.3-0.8,36.4,20.5,44.3c18.9,7,38.5,10.1,75.9,16.5
		c23.7,4.1,34.5,6.8,28.2,13.4c-8.6,8.9-43.6,20.8-36.1,22.3c23.9,4.7,51.2,3.4,68.9-0.2c12.4-2.5,24.8-7.7,33.1-15.5
		c18.2,4,16.9,4.7,22.1,5.1c16.9,1.3,26.4-8.5,29.6-23.6C380.4,256.9,371.8,193.9,369.3,180z"/>
	<path style="fill:#FFFFFF;" d="M370.8,179.5c-4.1-22.4-17.3-27.7-32.8-30.9c-24-4.9-132-14.4-149.3-13.7
		c-13.8,0.6-23.2,9.5-30,26.8c-5.6,14.3-17.6,37-19.6,47.9c-2.7,14.1-0.8,35.9,20.1,43.7c18.6,6.9,37.8,9.9,74.5,16.2
		c23.3,4,33.9,6.7,27.7,13.2c-8.4,8.8-42.9,20.8-35.4,22c21.6,3.5,51.7,3,69-1c12.4-2.9,23-6.8,31.2-14.5c17.9,3.9,16.3,4.6,21.4,5
		c16.6,1.3,24.4-9.4,27.9-24.2C379.8,251.5,373.3,193.1,370.8,179.5z"/>
	<path style="fill:#FFFFFF;stroke:#B8D432;stroke-width:1.5;stroke-miterlimit:10;" d="M268.3,122.1c30.4,3.4,59.9,6.6,76.1,5.4
		c18.2-1.4,24.7-18.2,25.8-29.9c0.8-9.1-3.6-27.7-4.7-40.3c-1.4-15.2-6.8-24.4-17.5-28c-13.5-4.5-100-21.4-120-23
		c-12.9-1.1-24.5,0.1-32.9,16.9C190,33.3,171.7,76,170.9,91.6c-0.6,12.5,3.2,21.5,16.6,24.3c4.1,0.8,2.2-0.2,17.2,0.8
		c4.7,7.9,8.3,12.9,15.4,18.2c5.1,3.8,7.8,6.3,14.3,8.8c-26.8-1.2-34.6-2.6-41.4-2.3c-12.9,0.5-21.8,8.9-28.2,25.2
		c-5.2,13.5-16,32.6-18,42.9c-2.5,13.3-0.8,33.8,18.9,41.1c17.5,6.5,51,12.3,85.5,18.2c21.9,3.8,26.4,6.7,20.6,12.8
		c-7.9,8.3-38.9,19.9-29.5,20c16.4,0.1,33.5-0.4,51.3-4.8c9.9-2.4,21.6-6.6,29.3-13.8c16.8,3.7,14.4,4.2,19.2,4.6
		c15.6,1.2,22.7-7.5,25.9-21.5c4-17.4-2.5-70.1-4.9-83c-3.8-21.1-16.3-26.1-30.8-29c-10.7-2.2-42-5.2-70.5-7.8
		c-5.5-5.4-11.3-13.4-14-18.5C244.5,121.3,249,120,268.3,122.1z"/>
	<g>
		<path d="M191.7,174c0.9-0.4,1.9-0.5,3-0.3s2,0.8,2.7,1.8c1.4,1.9,1.8,4.4,1.3,7.4c-0.2,1.6-0.9,3.1-2.1,4.7
			c-0.6,0.7-1.2,1.3-2,1.7s-1.7,0.6-2.6,0.4c-0.9-0.1-1.8-0.6-2.6-1.2c-0.8-0.7-1.4-1.5-1.9-2.4c-0.9-1.9-1.3-3.7-1-5.2
			c0.3-2.1,1.2-3.9,2.7-5.4C190,175,190.8,174.4,191.7,174z M193.1,187.5c0.7-0.2,1.3-0.7,1.8-1.5s0.8-1.6,0.9-2.4s0.2-1.6,0.2-2.3
			s-0.1-1.4-0.2-2c-0.1-0.7-0.4-1.2-0.8-1.7c-0.4-0.5-0.9-0.9-1.4-1.1c-1,0-2,0.5-2.8,1.4s-1.3,1.8-1.5,2.8s0.1,2.3,0.7,3.9
			c0.3,0.7,0.7,1.4,1.3,1.9C191.8,187,192.4,187.4,193.1,187.5z"/>
		<path d="M201.8,187l0.2-1c0.2-1.4,0.4-3,0.4-4.7s0-3-0.1-3.9s-0.2-1.4-0.1-1.6s0.2-0.4,0.6-0.6c0.3-0.2,0.7-0.2,1.1-0.2
			c0.4,0.1,0.7,0.3,0.9,0.6s0.3,0.7,0.3,1s0,0.7,0,1.3c0,0.5-0.1,0.9-0.1,1c0.8-1.3,2-2.2,3.4-2.5c0.8-0.2,1.6-0.2,2.4-0.1
			c1.9,0.3,2.7,0.9,2.6,1.9c-0.1,0.6-0.5,1-1.1,1.2c-0.3,0.1-0.5,0.1-0.8,0.1l-1-0.3c-2.9-0.4-4.8,2.2-5.7,7.9l-0.5,3.1v0.1
			c-0.2,0.4-0.4,0.7-0.8,1c-0.4,0.3-0.7,0.4-1.1,0.3c-0.5-0.1-0.8-0.5-0.8-1.4C201.5,189.4,201.6,188.3,201.8,187z"/>
		<path d="M234.7,183.2l-0.4,2.4c-0.1,0.9-0.4,2.1-0.8,3.4c-0.3,2.5-0.4,4.7-0.2,6.7c-0.1,0.2-0.3,0.4-0.6,0.5s-0.7,0.1-1,0.1
			c-0.3-0.1-0.6-0.1-0.8-0.3c-0.2-0.1-0.3-0.3-0.4-0.5c0-0.2-0.1-0.4-0.1-0.5s0-0.3,0-0.6c0-0.2,0-0.4,0-0.4c-1.2,1-2.7,1.3-4.5,1
			c-1.7-0.3-2.9-1.1-3.4-2.6c-0.5-1.4-0.6-3.3-0.2-5.7c0.6-4.1,2.2-6.6,4.8-7.4c0.8-0.2,1.6-0.3,2.6-0.1c0.9,0.1,1.8,0.5,2.7,0.9
			c0.4-0.4,0.8-0.5,1.3-0.4c1,0.2,1.3,1,1.1,2.4C234.8,182.6,234.8,183,234.7,183.2z M230.1,191c0.6-1.2,1.1-2.5,1.3-4
			c0.2-1.4,0.2-2.5,0-3.3c-0.2-0.7-0.8-1.2-1.7-1.3c-0.4-0.1-0.8-0.1-1.4-0.1c-0.6,0-1.2,0.4-1.9,1.3c-0.7,0.9-1,1.7-1.1,2.3
			l-0.2,1.4c-0.4,2.4-0.1,4,0.8,4.9c0.3,0.3,0.6,0.4,1.1,0.5s1.1-0.1,1.7-0.4C229.3,191.9,229.7,191.5,230.1,191z"/>
		<path d="M248.4,175.3c0.2-1.2,0.7-1.8,1.5-1.7c0.4,0.1,0.7,0.2,0.8,0.3c0.2,0.2,0.2,0.4,0.3,0.8s0,1.2-0.2,2.3
			c-0.2,1.2-0.4,2.6-0.6,4.4c-0.2,1.8-0.4,3.2-0.5,4.2s-0.3,2.6-0.5,4.8s-0.4,4-0.6,5.4l-0.4,1.9c-0.1,0.4-0.3,0.7-0.6,0.8
			s-0.6,0.1-1.1,0s-0.7-0.4-0.8-1v-0.6c-1.1,0.6-2.3,0.8-3.7,0.6c-1.8-0.3-3.1-1.2-3.9-2.6c-0.8-1.5-1.1-3.1-0.8-4.8s0.9-3.4,2-5
			s2.4-2.7,4.1-3.2c1-0.3,2-0.3,3-0.2c0.4,0.1,0.7,0.1,1,0.2l0.4-2.8l0.4-2.2L248.4,175.3z M245.7,194.1c0.2-0.3,0.3-0.9,0.5-1.8
			c0.2-0.9,0.2-1.4,0.3-1.5l0.1-0.7c0.2-1.2,0.2-2.4,0.1-3.5c-0.1-1.1-0.4-1.7-0.9-1.7c-0.6-0.1-1.4-0.1-2.2-0.1s-1.3,0.2-1.7,0.5
			c-0.9,0.9-1.5,2.4-1.9,4.7c-0.2,1.6,0.1,2.9,0.9,3.9c0.5,0.6,1.1,0.9,1.7,1.1c0.7,0.1,1.3,0.1,1.8-0.1
			C245.2,194.6,245.6,194.4,245.7,194.1z"/>
		<path d="M263,177.6c0.2-1.2,0.7-1.8,1.5-1.7c0.4,0.1,0.7,0.2,0.8,0.3c0.2,0.2,0.2,0.4,0.3,0.8c0,0.4,0,1.2-0.2,2.3
			c-0.2,1.2-0.4,2.6-0.6,4.4c-0.2,1.8-0.4,3.2-0.5,4.2s-0.3,2.6-0.5,4.8s-0.4,4-0.6,5.4l-0.4,1.9c-0.1,0.4-0.3,0.7-0.6,0.8
			c-0.3,0.1-0.6,0.1-1.1,0s-0.7-0.4-0.8-1v-0.6c-1.1,0.6-2.3,0.8-3.7,0.6c-1.8-0.3-3.1-1.2-3.9-2.6c-0.8-1.5-1.1-3.1-0.8-4.8
			s0.9-3.4,2-5s2.4-2.7,4.1-3.2c1-0.3,2-0.3,3-0.2c0.4,0.1,0.7,0.1,1,0.2l0.4-2.8l0.4-2.2L263,177.6z M260.4,196.4
			c0.2-0.3,0.3-0.9,0.5-1.8c0.2-0.9,0.2-1.4,0.3-1.5l0.1-0.7c0.2-1.2,0.2-2.4,0.1-3.5s-0.4-1.7-0.9-1.7c-0.6-0.1-1.4-0.1-2.2-0.1
			c-0.8,0-1.3,0.2-1.7,0.5c-0.9,0.9-1.5,2.4-1.9,4.7c-0.2,1.6,0.1,2.9,0.9,3.9c0.5,0.6,1.1,0.9,1.7,1.1c0.7,0.1,1.3,0.1,1.8-0.1
			C259.9,196.9,260.2,196.7,260.4,196.4z"/>
		<path d="M287.6,191.5l-0.4,2.4c-0.1,0.9-0.4,2.1-0.8,3.4c-0.3,2.5-0.4,4.7-0.2,6.7c-0.1,0.2-0.3,0.4-0.6,0.5
			c-0.3,0.1-0.7,0.1-1,0.1c-0.3-0.1-0.6-0.1-0.8-0.3c-0.2-0.1-0.3-0.3-0.4-0.5c0-0.2-0.1-0.4-0.1-0.5s0-0.3,0-0.6c0-0.2,0-0.4,0-0.4
			c-1.2,1-2.7,1.3-4.5,1c-1.7-0.3-2.9-1.1-3.4-2.6c-0.5-1.4-0.6-3.3-0.2-5.7c0.6-4.1,2.2-6.6,4.8-7.4c0.8-0.2,1.6-0.3,2.6-0.1
			c0.9,0.1,1.8,0.5,2.7,0.9c0.4-0.4,0.8-0.5,1.3-0.4c1,0.1,1.3,1,1.1,2.4C287.7,190.9,287.7,191.2,287.6,191.5z M282.9,199.2
			c0.6-1.2,1.1-2.5,1.3-4c0.2-1.4,0.2-2.5,0-3.3c-0.2-0.7-0.8-1.2-1.7-1.3c-0.4-0.1-0.8-0.1-1.4-0.1s-1.2,0.4-1.9,1.3
			c-0.7,0.9-1,1.7-1.1,2.3l-0.2,1.4c-0.4,2.4-0.1,4,0.8,4.9c0.3,0.3,0.6,0.4,1.1,0.5s1.1-0.1,1.7-0.4
			C282.1,200.2,282.6,199.7,282.9,199.2z"/>
		<path d="M307.2,206.7l0.3-1.8c0-0.3,0.1-0.6,0.2-1.1s0.1-1,0.2-1.6s0.1-1.2,0.2-1.8c0-0.6,0.1-1.2,0.1-1.7c0-1.1-0.1-2-0.4-2.8
			s-0.7-1.2-1.3-1.3s-1.1-0.1-1.5,0.1c-0.4,0.1-0.8,0.4-1.1,0.8c-0.6,0.8-1.1,1.7-1.3,2.8c-0.3,1-0.5,2.1-0.7,3.3l-0.7,3.7
			c-0.1,0.5-0.3,0.8-0.7,1c-0.4,0.2-0.8,0.3-1.3,0.2c-0.6-0.1-0.8-0.5-0.7-1.2c0.3-1.9,0.6-4.3,0.9-7.1s0.6-5.1,0.9-7
			c0.2-0.4,0.4-0.7,0.7-0.9c0.3-0.3,0.6-0.4,0.8-0.3c0.3,0,0.4,0.1,0.6,0.1c0.1,0.1,0.2,0.1,0.3,0.2c0.1,0.1,0.1,0.2,0.2,0.3
			s0.1,0.2,0.1,0.5c0,0.2,0,0.4,0,0.5s0,0.4-0.1,0.7c0,0.3-0.1,0.6-0.1,0.7c1.5-1.4,3.2-2,5-1.7c1.3,0.2,2.1,0.9,2.6,2.2
			c0.7,1.9,0.7,4.6,0.2,8.2l-0.4,3.3c-0.1,0.9-0.3,1.4-0.4,1.7s-0.3,0.5-0.5,0.7c-0.3,0.4-0.8,0.6-1.4,0.5
			C307.3,207.8,307.1,207.4,307.2,206.7z"/>
		<path d="M324.1,195.1c1,0.9,1.5,1.8,1.3,2.8s-0.8,2-2.1,2.8c-1.2,0.9-2.6,1.3-4.1,1.3c-0.1,0-0.3,0-0.3,0c-0.1,0-0.2,0-0.3,0
			c-0.1,0-0.2,0-0.3,0s-0.2,0-0.3,0c-0.2,0-0.3,0-0.3,0s-0.2,0-0.4-0.1c-0.2,0-0.3,0-0.4-0.1c0,1.8,0.1,3.1,0.5,3.7
			c0.6,0.6,1.1,1,1.5,1.1c1.1,0.2,2.3-0.1,3.4-1c1.1-0.8,1.9-1.2,2.4-1.1c0.2,0,0.4,0.2,0.7,0.6c0.3,0.4,0.5,0.7,0.4,1.1
			c0,0.3-0.3,0.7-0.8,1.1c-0.5,0.4-1.1,0.8-1.8,1.2c-0.7,0.4-1.5,0.7-2.5,0.9s-1.8,0.3-2.6,0.2c-0.8-0.1-1.4-0.4-2-0.9
			c-0.9-0.8-1.6-2.1-1.9-3.8s-0.3-3.4-0.1-5.1c0.3-1.8,0.9-3.3,1.9-4.6c1.1-1.5,2.7-2,4.8-1.7C322,193.8,323.1,194.3,324.1,195.1z
			 M322.4,197.7c0.2-1-0.4-1.5-1.7-1.7c-0.9-0.1-1.7,0.2-2.5,1.1c-0.3,0.3-0.5,0.6-0.6,1s-0.3,0.8-0.4,1.2
			C320.4,199.9,322.1,199.3,322.4,197.7z"/>
		<path d="M338.9,202.9l0.6-5.3c0.2-0.3,0.4-0.6,0.8-0.8c0.3-0.2,0.6-0.3,0.9-0.2c0.7,0.1,0.8,1.5,0.4,4.1l-0.3,1.9
			c-0.5,3.1-1.4,5.8-2.7,8c-0.7,1.3-1.5,1.9-2.2,1.8c-0.4-0.1-0.8-0.4-1.1-1.1c-0.3-0.7-0.6-1.5-0.9-2.6s-0.5-1.8-0.7-2.2
			c-0.3,0.4-0.8,1.1-1.4,1.9c-0.6,0.8-0.9,1.3-1,1.4c-0.9,1.1-1.7,1.6-2.3,1.5c-0.2,0-0.6-0.7-1-2.1c-0.7-4.3-0.7-8.8,0-13.3
			c0.2-0.5,0.6-0.8,1.2-1c0.2,0,0.3-0.1,0.5,0c0.5,0.1,0.7,0.4,0.7,1.1c-0.6,3.6-0.5,7.2,0.2,10.6c0.3-0.4,0.7-0.8,1.1-1.4
			c0.4-0.6,0.7-1,0.9-1.3c0.6-0.7,1.2-1,1.8-0.9c0.6,0.1,1.2,0.8,1.7,2c0.3,0.9,0.6,1.6,0.8,2.2c0.2,0.6,0.3,1,0.3,1
			C338.1,206.3,338.6,204.5,338.9,202.9z"/>
		<path d="M168.3,222l-1.6,10.3c-0.2,0.4-0.5,0.8-0.9,1c-0.4,0.3-0.8,0.4-1.2,0.3c-0.6-0.1-0.8-0.5-0.7-1.3l1.9-11.9l1.9-12.2
			c0.2-0.5,0.4-0.9,0.6-1.2c0.2-0.2,0.6-0.3,1-0.3c0.4,0.1,0.7,0.2,0.8,0.4s0.2,0.8,0.2,1.7c0.2-0.4,0.6-0.7,1.2-1.1
			c0.7-0.3,1.6-0.4,2.7-0.2c1.2,0.2,2.1,0.6,2.9,1.2c0.8,0.6,1.4,1.4,1.7,2.3c0.7,1.8,0.8,3.8,0.5,6.1c-0.4,2.3-1.3,4-2.8,5.2
			c-1.5,1.1-3.5,1.5-5.8,1.2c-0.8-0.1-1.5-0.5-2-1.1C168.5,222.1,168.4,222,168.3,222z M173.3,210.3c-0.9,0-1.7,0.2-2.4,0.8
			s-1.1,1.1-1.1,1.7l-1,6.4c0.1,0,0.2,0.2,0.4,0.4c0.6,0.7,1.2,1.1,2,1.2c3.2,0.5,5-0.9,5.5-4.2c0.4-2.8,0-4.7-1.3-5.6
			C174.9,210.7,174.2,210.4,173.3,210.3z"/>
		<path d="M182.4,216.6c0.2-1.2,0.3-2.2,0.4-3.1c0.1-0.9,0.2-1.6,0.3-2.1s0.3-2,0.7-4.4s0.6-3.9,0.8-4.5c0.1-0.6,0.3-1,0.6-1.2
			s0.7-0.3,1.2-0.2c0.8,0.1,1.2,0.6,1.2,1.4c-0.5,2.1-1.3,6.2-2.2,12.2c-0.7,4.6-0.6,7.4,0.2,8.3c0.3,0,0.6-0.2,0.9-0.5
			c0.3-0.3,0.7-0.7,1-1s0.7-0.4,1-0.4c0.3,0.1,0.6,0.3,0.8,0.6c0.2,0.4,0.2,0.9,0.1,1.6c-0.1,0.7-0.6,1.4-1.5,2s-1.8,0.8-2.8,0.7
			c-1.9-0.3-2.9-2.2-2.9-5.6C182.1,219.1,182.2,217.8,182.4,216.6z"/>
		<path d="M203.9,215.5l-0.4,2.4c-0.1,0.9-0.4,2.1-0.8,3.4c-0.3,2.5-0.3,4.7-0.2,6.7c-0.1,0.2-0.3,0.4-0.6,0.5s-0.7,0.1-1,0.1
			s-0.6-0.1-0.8-0.3c-0.2-0.1-0.3-0.3-0.4-0.5c0-0.2-0.1-0.4-0.1-0.5s0-0.3,0-0.6c0-0.2,0-0.4,0-0.4c-1.2,1-2.7,1.3-4.5,1
			c-1.7-0.3-2.9-1.1-3.4-2.6c-0.5-1.4-0.6-3.3-0.2-5.7c0.6-4.1,2.2-6.6,4.8-7.4c0.8-0.2,1.6-0.3,2.6-0.1c0.9,0.1,1.8,0.5,2.7,0.9
			c0.4-0.4,0.8-0.5,1.3-0.4c1,0.2,1.3,1,1.1,2.4C204,214.9,203.9,215.2,203.9,215.5z M199.2,223.2c0.6-1.2,1.1-2.5,1.3-4
			c0.2-1.4,0.2-2.5,0-3.3c-0.2-0.7-0.8-1.2-1.7-1.3c-0.4-0.1-0.8-0.1-1.4-0.1c-0.6,0-1.2,0.4-1.9,1.3c-0.7,0.9-1,1.7-1.1,2.3
			l-0.2,1.4c-0.4,2.4-0.1,4,0.8,4.9c0.3,0.3,0.6,0.4,1.1,0.5s1.1-0.1,1.7-0.4C198.4,224.2,198.9,223.8,199.2,223.2z"/>
		<path d="M206.8,214.4c0.1-0.4,0.3-0.8,0.6-1.1s0.7-0.4,1.1-0.3s0.7,0.4,1,0.9c0.3,1.9,0.6,3.6,1,5.1s0.7,3,1.1,4.3
			c0.3,1.3,0.6,2.3,0.7,3c0.6-1.4,1.5-3.3,2.5-5.8s1.8-4.3,2.3-5.3c0.2-0.5,0.7-0.7,1.6-0.5c0.3,0,0.6,0.2,0.8,0.4
			c0.3,0.3,0.4,0.5,0.3,0.8c0,0.3-0.1,0.5-0.2,0.7c-5.1,11.1-8.7,18.7-10.9,22.8c-0.3,0.6-0.7,0.8-1.2,0.8c-0.3-0.1-0.6-0.3-0.8-0.6
			s-0.3-0.8-0.2-1.2c0.1-0.5,0.4-1.3,0.9-2.3c0.5-1.1,1.1-2.2,1.7-3.5c0.7-1.3,1.1-2.1,1.3-2.6c-0.4-1-1-3.2-1.8-6.6
			C207.8,219.8,207.2,216.9,206.8,214.4z"/>
		<path d="M231.6,217.8c1,0.9,1.5,1.8,1.3,2.8s-0.8,2-2.1,2.8c-1.2,0.9-2.6,1.3-4.1,1.3c-0.1,0-0.3,0-0.3,0c-0.1,0-0.2,0-0.3,0
			s-0.2,0-0.3,0s-0.2,0-0.3,0c-0.2,0-0.3,0-0.3,0c-0.1,0-0.2,0-0.4-0.1c-0.2,0-0.3,0-0.4-0.1c0,1.8,0.1,3.1,0.5,3.7
			c0.6,0.6,1.1,1,1.5,1.1c1.1,0.2,2.3-0.1,3.4-1s1.9-1.2,2.4-1.1c0.2,0,0.4,0.2,0.7,0.6c0.3,0.4,0.5,0.7,0.4,1.1
			c-0.1,0.3-0.3,0.7-0.8,1.1c-0.5,0.4-1.1,0.8-1.8,1.2s-1.5,0.7-2.5,0.9s-1.8,0.3-2.6,0.2s-1.4-0.4-2-0.9c-0.9-0.8-1.6-2.1-1.9-3.8
			c-0.3-1.7-0.3-3.4-0.1-5.1c0.3-1.8,0.9-3.3,1.9-4.6c1.1-1.5,2.7-2,4.8-1.7C229.5,216.4,230.6,216.9,231.6,217.8z M229.9,220.4
			c0.2-1-0.4-1.5-1.7-1.7c-0.9-0.1-1.7,0.2-2.5,1.1c-0.3,0.3-0.5,0.6-0.6,1s-0.3,0.8-0.4,1.2C227.9,222.5,229.6,222,229.9,220.4z"/>
		<path d="M235.8,229.4l0.2-1c0.2-1.4,0.4-3,0.4-4.7s0-3-0.1-3.9s-0.2-1.4-0.1-1.6c0-0.2,0.2-0.4,0.5-0.6c0.3-0.2,0.7-0.2,1.1-0.2
			c0.4,0.1,0.7,0.3,0.9,0.6s0.3,0.7,0.3,1s0,0.7,0,1.3c0,0.5-0.1,0.9-0.1,1c0.8-1.3,2-2.2,3.4-2.5c0.8-0.2,1.6-0.2,2.4-0.1
			c1.9,0.3,2.7,0.9,2.6,1.9c-0.1,0.6-0.5,1-1.1,1.2c-0.3,0.1-0.5,0.1-0.8,0.1l-1-0.3c-2.9-0.4-4.8,2.2-5.7,7.9l-0.5,3.1v0.1
			c-0.2,0.4-0.4,0.7-0.8,1c-0.4,0.3-0.7,0.4-1.1,0.3c-0.5-0.1-0.8-0.5-0.8-1.4C235.5,231.8,235.6,230.7,235.8,229.4z"/>
		<path d="M264.2,214l-0.8,4.1c0,0.3-0.2,1.4-0.4,3.3c1.4,0.2,2.7,0.4,4,0.5c0.7,0.3,0.9,0.7,0.8,1.4s-0.4,1.1-0.9,1.3
			s-1,0.3-1.4,0.2c-0.5,0-0.8-0.1-1.1-0.1c-0.3,0-0.6-0.1-1-0.2c-0.4-0.1-0.7-0.1-0.9-0.2c0,0.2-0.1,0.9-0.2,1.9
			c-0.1,1.1-0.2,1.8-0.2,2.1c-0.3,3.2-0.4,5.7-0.4,7.7c-0.2,0.4-0.4,0.8-0.8,1.1s-0.8,0.4-1.2,0.3c-0.4-0.1-0.7-0.4-0.8-1
			c0-2.1,0.1-4.6,0.4-7.4c0.3-2.8,0.5-4.6,0.6-5.1c-0.3,0-0.9-0.1-1.7-0.2c-0.8-0.1-1.4-0.3-1.9-0.5s-0.8-0.6-0.7-1.1
			c0.2-1.1,0.9-1.6,2.3-1.4l1.6,0.3c0.3,0,0.5,0.1,0.7,0.1c0.3-2.3,0.4-3.5,0.4-3.6c0-0.2,0.1-0.5,0.2-1.1c0.1-0.5,0.3-1.4,0.5-2.4
			c0.2-0.4,0.4-0.7,0.8-0.9s0.8-0.3,1.1-0.3C263.9,212.9,264.2,213.3,264.2,214z"/>
		<path d="M272.3,223.7c0.9-0.4,1.9-0.5,3-0.3s2,0.8,2.7,1.8c1.4,1.9,1.8,4.4,1.3,7.4c-0.2,1.6-0.9,3.1-2.1,4.7
			c-0.6,0.7-1.2,1.3-2,1.8c-0.8,0.4-1.7,0.6-2.6,0.4c-0.9-0.1-1.8-0.6-2.6-1.2c-0.8-0.7-1.4-1.5-1.9-2.4c-0.9-1.9-1.3-3.7-1-5.2
			c0.3-2.1,1.2-3.9,2.7-5.4C270.6,224.6,271.4,224.1,272.3,223.7z M273.8,237.2c0.7-0.2,1.3-0.7,1.8-1.5s0.8-1.6,0.9-2.4
			c0.1-0.9,0.2-1.6,0.2-2.3s-0.1-1.4-0.2-2c-0.1-0.7-0.4-1.2-0.8-1.7s-0.9-0.9-1.4-1.1c-1,0-2,0.5-2.8,1.4s-1.3,1.8-1.5,2.8
			s0.1,2.3,0.7,3.9c0.3,0.7,0.7,1.4,1.3,1.9C272.4,236.7,273.1,237.1,273.8,237.2z"/>
		<path d="M291,241.1l-1.6,10.3c-0.2,0.4-0.5,0.8-0.9,1c-0.4,0.3-0.8,0.4-1.2,0.3c-0.6-0.1-0.8-0.5-0.7-1.3l1.9-11.9l1.9-12.2
			c0.2-0.5,0.4-0.9,0.6-1.2c0.2-0.2,0.6-0.3,1-0.3c0.4,0.1,0.7,0.2,0.8,0.4c0.1,0.2,0.2,0.8,0.2,1.7c0.2-0.4,0.6-0.7,1.2-1.1
			c0.7-0.3,1.6-0.4,2.7-0.2c1.2,0.2,2.1,0.6,2.9,1.2c0.8,0.6,1.4,1.4,1.7,2.3c0.7,1.8,0.8,3.8,0.5,6.1s-1.3,4-2.8,5.2
			c-1.5,1.1-3.5,1.5-5.8,1.2c-0.8-0.1-1.5-0.5-2-1.1C291.2,241.3,291.1,241.2,291,241.1z M296,229.4c-0.9,0-1.7,0.2-2.4,0.8
			c-0.7,0.6-1.1,1.1-1.1,1.7l-1,6.4c0.1,0,0.2,0.2,0.4,0.4c0.6,0.7,1.2,1.1,2,1.2c3.2,0.5,5-0.9,5.5-4.2c0.4-2.8,0-4.7-1.3-5.6
			C297.6,229.8,296.9,229.6,296,229.4z"/>
		<path d="M305.1,235.8c0.2-1.2,0.3-2.2,0.4-3.1c0.1-0.9,0.2-1.6,0.3-2.1c0.1-0.5,0.3-2,0.7-4.4c0.4-2.4,0.6-3.9,0.8-4.5
			c0.1-0.6,0.3-1,0.6-1.2c0.3-0.2,0.7-0.3,1.2-0.2c0.8,0.1,1.2,0.6,1.2,1.4c-0.5,2.1-1.3,6.2-2.2,12.2c-0.7,4.6-0.6,7.4,0.2,8.3
			c0.3,0,0.6-0.2,0.9-0.5s0.7-0.7,1-1s0.7-0.4,1-0.4c0.3,0.1,0.6,0.3,0.8,0.6c0.2,0.4,0.2,0.9,0.1,1.6c-0.1,0.7-0.6,1.4-1.5,2
			s-1.8,0.8-2.8,0.7c-1.9-0.3-2.9-2.2-2.9-5.6C304.8,238.2,304.9,237,305.1,235.8z"/>
		<path d="M326.6,234.7l-0.4,2.4c-0.1,0.9-0.4,2.1-0.8,3.4c-0.3,2.5-0.4,4.7-0.2,6.7c-0.1,0.2-0.3,0.4-0.6,0.5
			c-0.3,0.1-0.7,0.1-1,0.1c-0.3-0.1-0.6-0.1-0.8-0.3c-0.2-0.1-0.3-0.3-0.4-0.5c0-0.2-0.1-0.4-0.1-0.5s0-0.3,0-0.6c0-0.2,0-0.4,0-0.4
			c-1.2,1-2.7,1.3-4.5,1c-1.7-0.3-2.9-1.1-3.4-2.6c-0.5-1.4-0.6-3.3-0.2-5.7c0.6-4.1,2.2-6.6,4.8-7.4c0.8-0.2,1.6-0.3,2.6-0.1
			c0.9,0.1,1.8,0.5,2.7,0.9c0.4-0.4,0.8-0.5,1.3-0.4c1,0.1,1.3,1,1.1,2.4C326.7,234.1,326.6,234.4,326.6,234.7z M321.9,242.4
			c0.6-1.2,1.1-2.5,1.3-4c0.2-1.4,0.2-2.5,0-3.3c-0.2-0.7-0.8-1.2-1.7-1.3c-0.4-0.1-0.8-0.1-1.4-0.1s-1.2,0.4-1.9,1.3
			c-0.7,0.9-1,1.7-1.1,2.3l-0.2,1.4c-0.4,2.4-0.1,4,0.8,4.9c0.3,0.3,0.6,0.4,1.1,0.5s1.1-0.1,1.7-0.4
			C321.1,243.4,321.6,242.9,321.9,242.4z"/>
		<path d="M329.5,233.6c0.1-0.4,0.3-0.8,0.6-1.1c0.3-0.3,0.7-0.4,1.1-0.3c0.4,0.1,0.7,0.4,1,0.9c0.3,1.9,0.6,3.6,1,5.1
			s0.7,3,1.1,4.3c0.3,1.3,0.6,2.3,0.7,3c0.6-1.4,1.5-3.3,2.5-5.8s1.8-4.3,2.3-5.3c0.2-0.5,0.7-0.7,1.6-0.5c0.3,0,0.6,0.2,0.8,0.4
			c0.3,0.3,0.4,0.5,0.3,0.8c0,0.3-0.1,0.5-0.2,0.7c-5.1,11.1-8.7,18.7-10.9,22.8c-0.3,0.6-0.7,0.8-1.2,0.8c-0.3-0.1-0.6-0.3-0.8-0.6
			c-0.2-0.3-0.3-0.8-0.2-1.2c0.1-0.5,0.4-1.3,0.9-2.3c0.5-1.1,1.1-2.2,1.7-3.5c0.7-1.3,1.1-2.1,1.3-2.6c-0.4-1-1-3.2-1.8-6.6
			C330.5,238.9,329.9,236,329.5,233.6z"/>
		<path d="M344.6,247.8c0.1-0.4,0.3-0.7,0.6-1c0.4-0.3,0.8-0.4,1.3-0.4c0.5,0.1,0.9,0.2,1.2,0.5s0.3,0.7,0.2,1.4s-0.4,1.2-0.7,1.4
			c-0.4,0.2-0.7,0.3-1.1,0.2c-0.5-0.1-0.9-0.4-1.2-0.8C344.6,248.5,344.5,248.1,344.6,247.8z M350.7,227.4l-2.1,11.7
			c-0.2,1.1-0.3,1.9-0.4,2.5c-0.1,0.3-0.4,0.5-0.7,0.7c-0.3,0.2-0.6,0.3-0.9,0.2c-0.3,0-0.5-0.3-0.7-0.9c0.6-5.8,1.2-10.7,1.8-14.7
			c0.2-0.3,0.4-0.5,0.8-0.6s0.7-0.1,1,0C350.3,226.4,350.7,226.8,350.7,227.4z"/>
	</g>
	<g>
		<path d="M218.5,45l-1,12.1c-0.1,0.4-0.3,0.8-0.7,1c-0.4,0.3-0.7,0.4-1.1,0.3c-0.6-0.1-0.8-0.5-0.7-1.2l0.9-11.3
			c0.3-2.7,0.6-5.3,1.1-8c-2,0-3.9-0.1-5.8-0.3c-0.8-0.1-1.1-0.4-1.1-1.1c0-0.3,0.2-0.7,0.5-1s0.7-0.4,1.1-0.5
			c1.7,0.2,4,0.3,7.1,0.4c3.1,0.1,5.4,0.3,7,0.4c0.6,0.3,0.9,0.6,0.9,1.1c0,0.3-0.2,0.6-0.5,0.9c-0.3,0.3-0.7,0.4-1.1,0.5
			c-1.7-0.2-3.6-0.3-5.8-0.4C219,40.2,218.7,42.5,218.5,45z"/>
		<path d="M230.5,44.1c0.9-0.4,1.9-0.6,2.9-0.5c1.1,0.1,2,0.7,2.8,1.6c1.5,1.9,2,4.3,1.7,7.3c-0.2,1.6-0.8,3.2-1.8,4.8
			c-0.5,0.8-1.2,1.4-1.9,1.9c-0.8,0.5-1.6,0.7-2.6,0.6c-0.9-0.1-1.8-0.5-2.7-1.1s-1.5-1.4-2-2.2c-1-1.9-1.5-3.6-1.3-5.1
			c0.2-2.1,1-3.9,2.4-5.5C228.8,45.2,229.6,44.6,230.5,44.1z M232.6,57.5c0.7-0.3,1.3-0.8,1.7-1.6s0.7-1.6,0.8-2.4s0.1-1.6,0.1-2.3
			s-0.2-1.3-0.3-2c-0.2-0.6-0.5-1.2-0.9-1.7s-0.9-0.8-1.5-1c-1,0.1-1.9,0.6-2.7,1.5s-1.2,1.9-1.3,2.9s0.2,2.3,0.9,3.8
			c0.3,0.7,0.8,1.3,1.4,1.9C231.3,57.1,232,57.4,232.6,57.5z"/>
		<path d="M248.4,59c-1.8,1.5-3.5,2.2-5.1,2.1c-0.8-0.1-1.4-0.4-2-1.1s-0.9-1.5-1.1-2.5c-0.4-1.9-0.5-3.8-0.3-5.6s0.5-3.8,0.9-6.1
			c0.1-0.4,0.4-0.7,0.7-0.9s0.6-0.3,0.9-0.3c0.6,0.1,1,0.4,1.1,1.1c-0.3,1.6-0.5,3.1-0.7,4.6c-0.1,1.5-0.2,2.5-0.2,3.2
			c-0.1,1.7,0.3,3.4,1.2,5.2c0.9-0.1,1.8-0.5,2.7-1c0.8-0.6,1.5-1.2,2-2c0.1-3.4,0.2-6.2,0.4-8.6c0-0.5,0.2-0.9,0.6-1.2
			c0.3-0.3,0.7-0.5,1.2-0.4c0.4,0,0.8,0.4,1,1c-0.1,1.1-0.3,3.8-0.5,7.9c0,0.6,0,1.7,0.1,3.3s0.1,2.6,0.1,2.9c0,0.4-0.2,0.7-0.6,1
			c-0.4,0.3-0.8,0.5-1.2,0.4c-0.4,0-0.7-0.4-0.8-0.9L248.4,59z"/>
		<path d="M265.7,47.5c0.3,0.2,0.4,0.4,0.4,0.7c0,0.5-0.2,1-0.5,1.5c-0.3,0.6-0.7,0.8-1.2,0.8c-0.2,0-0.6-0.2-1.3-0.5
			c-0.6-0.3-1.1-0.5-1.4-0.5c-1.3-0.1-2.5,0.2-3.5,1.1c-1.1,0.9-1.7,2.1-1.8,3.7c-0.2,1.6,0,2.9,0.4,3.7c0.4,0.9,1.3,1.4,2.6,1.5
			c0.7,0.1,1.6-0.1,2.8-0.6c1.1-0.5,1.9-0.7,2.2-0.7c0.3,0,0.6,0.2,0.7,0.4c0.2,0.2,0.2,0.4,0.2,0.7c-0.1,0.6-0.5,1.1-1.2,1.7
			c-0.8,0.5-1.7,1-2.7,1.3s-2,0.4-2.8,0.3c-1.9-0.2-3.2-1.1-4.1-2.6s-1.2-3.6-1-6.1c0.2-1.6,0.7-3,1.7-4.2c1-1.2,2.1-2,3.4-2.5
			c1.3-0.5,2.7-0.7,4.1-0.5C264.1,46.7,265.1,47,265.7,47.5z"/>
		<path d="M279.6,56.1c-0.1,1.4-0.3,2.8-0.6,4.2c-0.3,1.4-0.4,2.2-0.5,2.7c-0.1,0.4-0.3,0.8-0.7,1c-0.4,0.3-0.8,0.4-1.1,0.3
			c-0.6-0.1-0.9-0.4-0.9-1v-0.2l0.8-6.1l0.2-1.8c0.2-2.2-0.1-3.6-1-4.2c-0.4-0.3-0.9-0.5-1.5-0.5c-1.9-0.2-2.9,0.5-3,1.9
			c-0.2,1.7-0.3,3.2-0.3,4.4s-0.1,2.2-0.2,3.1s-0.2,1.6-0.3,2.4l-0.1,0.1c-0.1,0.3-0.4,0.6-0.8,0.9c-0.4,0.2-0.7,0.3-1,0.3
			c-0.6-0.1-1-0.4-0.9-1h-0.1c0.3-3.4,0.6-7.3,0.7-11.4c0.1-4.2,0.3-7.9,0.6-11.3c0.2-0.5,0.5-0.9,1.1-1.2c0.2-0.1,0.4-0.1,0.7-0.1
			c0.3,0,0.5,0.2,0.7,0.5s0.3,0.8,0.3,1.5s0,1.3-0.1,2s-0.1,1.6-0.2,2.7c-0.1,1.1-0.1,2.1-0.2,3c1.2-0.5,2.3-0.7,3.4-0.6
			c1.1,0.1,2,0.4,2.6,0.8c1.2,0.7,1.9,1.8,2.2,3.3C279.7,53.2,279.7,54.7,279.6,56.1z"/>
		<path d="M289.2,50.9c0-0.4,0.2-0.8,0.5-1.1s0.6-0.4,1-0.4s0.7,0.3,1,0.8c0.4,1.9,0.8,3.6,1.3,5.1s0.9,2.9,1.3,4.2s0.7,2.3,0.9,2.9
			c0.6-1.4,1.3-3.4,2.2-6c0.9-2.6,1.6-4.4,2-5.5c0.2-0.5,0.7-0.7,1.6-0.6c0.3,0,0.6,0.2,0.8,0.4c0.3,0.2,0.4,0.5,0.4,0.7
			c0,0.3-0.1,0.5-0.1,0.7c-4.4,11.4-7.6,19.2-9.6,23.4c-0.3,0.6-0.7,0.9-1.2,0.8c-0.3,0-0.6-0.2-0.8-0.5c-0.2-0.3-0.3-0.7-0.3-1.2
			s0.3-1.3,0.7-2.4c0.4-1.1,1-2.3,1.5-3.6c0.6-1.3,1-2.2,1.2-2.7c-0.5-1-1.2-3.1-2.1-6.5C290.5,56.2,289.7,53.3,289.2,50.9z"/>
		<path d="M308.3,51.9c0.9-0.4,1.9-0.6,2.9-0.5c1.1,0.1,2,0.7,2.8,1.6c1.5,1.9,2,4.3,1.7,7.3c-0.2,1.6-0.8,3.2-1.8,4.8
			c-0.5,0.8-1.2,1.4-1.9,1.9c-0.8,0.5-1.6,0.7-2.6,0.6c-0.9-0.1-1.8-0.5-2.7-1.1c-0.8-0.6-1.5-1.4-2-2.2c-1-1.9-1.5-3.6-1.3-5.1
			c0.2-2.1,1-3.9,2.4-5.5C306.7,52.9,307.4,52.3,308.3,51.9z M310.5,65.2c0.7-0.3,1.3-0.8,1.7-1.6c0.4-0.8,0.7-1.6,0.8-2.4
			s0.1-1.6,0.1-2.3s-0.2-1.3-0.3-2c-0.2-0.6-0.5-1.2-0.9-1.7s-0.9-0.8-1.5-1c-1,0.1-1.9,0.6-2.7,1.5c-0.8,0.9-1.2,1.9-1.3,2.9
			c-0.1,1,0.2,2.3,0.9,3.8c0.3,0.7,0.8,1.3,1.4,1.9C309.2,64.8,309.8,65.1,310.5,65.2z"/>
		<path d="M326.2,66.7c-1.8,1.5-3.5,2.2-5.1,2.1c-0.8-0.1-1.4-0.4-2-1.1s-0.9-1.5-1.1-2.5c-0.4-1.9-0.5-3.8-0.3-5.6s0.5-3.8,0.9-6.1
			c0.1-0.4,0.4-0.7,0.7-0.9c0.3-0.2,0.6-0.3,0.9-0.3c0.6,0.1,1,0.4,1.1,1.1c-0.3,1.6-0.5,3.1-0.7,4.6c-0.1,1.5-0.2,2.5-0.2,3.2
			c-0.1,1.7,0.3,3.4,1.2,5.2c0.9-0.1,1.8-0.5,2.7-1c0.8-0.6,1.5-1.2,2-2c0.1-3.4,0.2-6.2,0.4-8.6c0-0.5,0.2-0.9,0.6-1.2
			c0.3-0.3,0.7-0.5,1.2-0.4c0.4,0,0.8,0.4,1,1c-0.1,1.1-0.3,3.8-0.5,7.9c0,0.6,0,1.7,0.1,3.3s0.1,2.6,0.1,2.9c0,0.4-0.2,0.7-0.6,1
			s-0.8,0.5-1.2,0.4s-0.7-0.4-0.8-0.9L326.2,66.7z"/>
		<path d="M332.9,65.5l0.1-1c0.1-1.4,0.2-3,0.1-4.7s-0.2-3-0.3-3.9c-0.2-0.9-0.2-1.4-0.2-1.6c0-0.2,0.2-0.4,0.5-0.6
			c0.3-0.2,0.7-0.3,1.1-0.2c0.4,0,0.7,0.2,0.9,0.5c0.2,0.3,0.3,0.6,0.3,1c0,0.3,0,0.7,0,1.3s0,0.9,0,1c0.7-1.4,1.8-2.3,3.3-2.7
			c0.7-0.2,1.5-0.3,2.4-0.2c1.9,0.2,2.8,0.8,2.7,1.7c-0.1,0.6-0.4,1-1.1,1.3c-0.3,0.1-0.5,0.1-0.7,0.1l-1-0.2
			c-2.9-0.3-4.6,2.5-5.2,8.2l-0.3,3.2v0.1c-0.1,0.4-0.4,0.8-0.7,1c-0.4,0.3-0.7,0.4-1.1,0.4c-0.5,0-0.8-0.5-0.9-1.3
			C332.7,68,332.7,66.9,332.9,65.5z"/>
		<path d="M249.1,97.3l0.2-1.8c0-0.3,0.1-0.6,0.1-1.1s0.1-1,0.1-1.6s0.1-1.2,0.1-1.8c0-0.6,0-1.2,0-1.7c0-1.1-0.2-2-0.5-2.8
			s-0.8-1.2-1.4-1.2c-0.6-0.1-1.1,0-1.5,0.2s-0.8,0.5-1,0.9c-0.6,0.9-1,1.8-1.2,2.8s-0.3,2.1-0.5,3.3l-0.5,3.7
			c0,0.5-0.3,0.8-0.6,1.1c-0.4,0.2-0.8,0.3-1.3,0.3c-0.6-0.1-0.8-0.5-0.8-1.2c0.2-1.9,0.4-4.3,0.5-7.1c0.2-2.8,0.3-5.2,0.5-7
			c0.2-0.4,0.4-0.7,0.7-1s0.6-0.4,0.8-0.4c0.3,0,0.4,0.1,0.6,0.1c0.1,0,0.2,0.1,0.3,0.2s0.1,0.2,0.2,0.3c0,0.1,0.1,0.2,0.1,0.4
			s0,0.4,0,0.5s0,0.4,0,0.7c0,0.3,0,0.6,0,0.8c1.4-1.5,3-2.2,4.9-2c1.3,0.1,2.2,0.8,2.7,2.1c0.8,1.9,1,4.6,0.6,8.2l-0.3,3.3
			c-0.1,0.9-0.2,1.5-0.3,1.7c-0.1,0.3-0.3,0.5-0.4,0.7c-0.3,0.4-0.7,0.6-1.3,0.5C249.2,98.4,249,98,249.1,97.3z"/>
		<path d="M267.9,87.1l-0.3,2.4c-0.1,0.9-0.3,2.1-0.6,3.5c-0.1,2.5-0.1,4.7,0.1,6.7c-0.1,0.2-0.3,0.4-0.6,0.6
			c-0.3,0.1-0.6,0.2-1,0.1s-0.6-0.1-0.8-0.2c-0.2-0.1-0.3-0.3-0.4-0.5s-0.1-0.4-0.1-0.5s0-0.3,0-0.6c0-0.2,0-0.4,0-0.4
			c-1.2,1-2.7,1.5-4.4,1.3c-1.7-0.2-2.9-1-3.5-2.4s-0.8-3.3-0.6-5.7c0.4-4.2,1.9-6.7,4.3-7.6c0.8-0.3,1.6-0.4,2.6-0.3
			c0.9,0.1,1.8,0.3,2.7,0.8c0.3-0.4,0.8-0.6,1.3-0.5c1,0.1,1.4,0.9,1.3,2.4C267.9,86.5,267.9,86.9,267.9,87.1z M263.7,95.1
			c0.6-1.2,0.9-2.6,1.1-4c0.1-1.5,0.1-2.5-0.2-3.3c-0.3-0.7-0.9-1.1-1.7-1.2c-0.4,0-0.8,0-1.4,0s-1.2,0.5-1.8,1.4
			c-0.6,0.9-0.9,1.7-1,2.4l-0.1,1.4c-0.2,2.4,0.1,4,1,4.8c0.3,0.2,0.7,0.4,1.2,0.4s1.1-0.1,1.7-0.5
			C262.9,96.1,263.4,95.7,263.7,95.1z"/>
		<path d="M279.8,95.1l0.2-1.9c0.1-1.5,0.2-2.5,0-2.9c-0.1-0.5-0.3-0.9-0.4-1.3c-0.3-0.7-1-1.1-2-1.3c-1-0.1-1.8,0.2-2.2,0.8
			c-0.4,0.6-0.7,1.6-0.9,2.9l-0.4,6.5c-0.2,2-0.8,2.9-1.9,2.8c-0.6-0.1-0.9-0.4-1-1.1c0.5-4.7,0.6-8.9,0.4-12.6
			c0-0.5,0.3-0.9,0.6-1.2c0.4-0.3,0.8-0.5,1.2-0.4c0.4,0,0.7,0.3,0.9,0.8c1-1,2.2-1.5,3.6-1.4c1.8,0.2,3.1,1.2,3.9,3.1
			c1.3-1.6,2.9-2.2,4.9-2c0.9,0.1,1.7,0.4,2.4,0.9c0.7,0.5,1.2,1.1,1.6,1.8c0.9,1.9,1.2,4.9,0.8,9l-0.1,1.5
			c-0.1,1.4-0.4,2.3-0.7,2.7c-0.1,0.1-0.3,0.3-0.4,0.4c-0.2,0.2-0.5,0.2-1,0.2c-0.6-0.1-0.9-0.5-0.8-1.2l0.5-4.3
			c0.3-2.9,0.2-4.8-0.3-5.9c-0.3-0.6-0.7-1.1-1.3-1.6s-1.1-0.7-1.6-0.8c-0.5-0.1-1,0-1.3,0.2s-0.6,0.5-0.9,1
			c-0.5,0.9-0.8,2.7-1.1,5.5l-0.4,5H282c-0.2,0.4-0.4,0.6-0.8,0.9c-0.4,0.2-0.7,0.3-1.1,0.3c-0.6-0.1-0.8-0.4-0.8-1.1h-0.1
			L279.8,95.1z"/>
		<path d="M304.5,88.7c1.1,0.8,1.5,1.7,1.4,2.8c-0.1,1-0.7,2-1.9,2.9c-1.2,0.9-2.5,1.4-4,1.5c-0.1,0-0.3,0-0.3,0c-0.1,0-0.2,0-0.3,0
			s-0.2,0-0.3,0c-0.1,0-0.2,0-0.3,0c-0.2,0-0.3,0-0.3,0c-0.1,0-0.2,0-0.4,0s-0.3,0-0.4,0c0.1,1.8,0.3,3.1,0.7,3.7
			c0.6,0.6,1.1,0.9,1.6,1c1.1,0.1,2.3-0.3,3.3-1.1s1.8-1.3,2.3-1.2c0.2,0,0.4,0.2,0.8,0.6c0.3,0.4,0.5,0.7,0.5,1s-0.3,0.7-0.7,1.1
			c-0.5,0.4-1,0.9-1.7,1.3s-1.5,0.8-2.4,1.1c-0.9,0.3-1.8,0.4-2.6,0.3c-0.8-0.1-1.5-0.3-2-0.8c-1-0.8-1.7-2-2.1-3.6
			c-0.4-1.7-0.5-3.4-0.3-5.1s0.7-3.3,1.6-4.7c1-1.5,2.6-2.2,4.6-2C302.3,87.5,303.4,87.9,304.5,88.7z M302.9,91.4
			c0.1-1-0.5-1.5-1.8-1.7c-0.9-0.1-1.7,0.3-2.4,1.3c-0.2,0.3-0.4,0.6-0.5,1s-0.2,0.8-0.4,1.3C301,93.6,302.7,93,302.9,91.4z"/>
	</g>
</g>
<g id="dog">
	<path id="ear2" d="M178.9,316.2c0,0,5.6-50.9,11.1-53.5c5.5-2.5,41.6,0.6,39.9,17.2c-1,9.2-8,12.9-14.5,10.3
		c-6.1-2.4-16.3-18.4-19.3-17.4c-3.7,1.3-12.7,43.3-12.7,43.3h-4.5V316.2z"/>
	<path id="ear1" style="fill:#343433;" d="M144.1,349c0,0-27.5-50.6-25.5-57.5s41-28.3,45.7-18.1c4.7,10.2,2.1,17.5-3.4,19.8
		c-5.2,2.2-31.5-4-32.5-0.2c-1,3.7,18.8,54.1,18.8,54.1L144.1,349z"/>
	<g id="leg1">
		<path style="fill:#B56F29;" d="M104.5,521.5c0,0,0,22.6-1.3,32.1s-4.1,14.3-4.6,18.2c-0.4,3.2,1,8.5,5.9,9.2
			c6.1,0.8,11.3-4,11.3-4s3,5.2,8.9,5.2c4,0,4.9-4.8,4.9-4.8s1.7,4.3,7.1,4.4c5.3,0,6-4.2,6-4.2s2.3,3,6.3,0.9
			c3.8-2.1,4.1-10,0.5-16.7c-3.7-6.7-10.3-10.1-16.9-8.6c-7.6,1.8-11.5,12.4-17.2,11.5c-2.5-0.4-3.2-11.5-3.2-17
			c0-5.6,1.3-23.2,1.3-23.2L104.5,521.5z"/>
		<path style="fill:#754D24;" d="M136.6,561.1c0,0,5.4,4.1,6.7,9.3c1.1,4.3,0,8,0,8l-0.7-0.7c0,0,0.9-5.1-0.6-8.5
			C140.5,565.7,136.6,561.1,136.6,561.1z"/>
		<path style="fill:#754D24;" d="M130.2,578.6c0,0,0.4-4.9-0.5-7.3c-0.9-2.4-4.2-4.7-4.2-4.7s2.5,3.1,3.2,5.4
			c0.6,2.2,0.9,5.5,0.9,5.5L130.2,578.6z"/>
		<path style="fill:#754D24;" d="M116.8,570.4c0,0,0.5,2.3,0.4,4.4c-0.1,1.4-0.5,3.6-0.5,3.6l-0.9-1.3c0,0,0.6-1.5,0.7-2.7
			C116.6,573.1,116.8,570.4,116.8,570.4z"/>
	</g>
	<g id="leg1_1_">
		<path style="fill:#B56F29;" d="M165.2,520.7c0,0,0,21.5-1.2,30.5c-1.2,9.1-3.9,13.6-4.4,17.3c-0.4,3,0.9,8.1,5.6,8.7
			c5.8,0.8,10.7-3.8,10.7-3.8s2.8,4.9,8.4,4.9c3.8,0,4.6-4.5,4.6-4.5s1.6,4.1,6.7,4.2c5.1,0,5.7-4,5.7-4s2.2,2.9,6,0.8
			c3.6-2,3.9-9.5,0.5-15.9c-3.5-6.3-9.8-9.6-16-8.2c-7.2,1.7-10.9,11.7-16.3,10.9c-2.4-0.4-3-10.9-3-16.2s1.2-22.1,1.2-22.1
			L165.2,520.7z"/>
		<path style="fill:#754D24;" d="M195.7,558.3c0,0,5.2,3.9,6.4,8.8c1,4.1,0,7.6,0,7.6l-0.7-0.7c0,0,0.9-4.8-0.5-8.1
			C199.5,562.7,195.7,558.3,195.7,558.3z"/>
		<path style="fill:#754D24;" d="M189.7,574.9c0,0,0.4-4.6-0.5-6.9c-0.8-2.3-4-4.5-4-4.5s2.4,3,3,5.1s0.8,5.2,0.8,5.2L189.7,574.9z"
			/>
		<path style="fill:#754D24;" d="M176.9,567.1c0,0,0.5,2.2,0.4,4.1c-0.1,1.4-0.5,3.4-0.5,3.4l-0.9-1.2c0,0,0.6-1.4,0.7-2.6
			C176.8,569.7,176.9,567.1,176.9,567.1z"/>
	</g>
	<g id="body_1_">
		<path style="fill:#D18029;" d="M193.9,321.8c0,0,19-14.1,24.9-9.6c5.9,4.6,2.8,13.1,2.8,13.1l-27.2,7.2L193.9,321.8z"/>
		<path id="_x3C_Path_x3E_" style="fill:#F69220;" d="M245.6,441.6c20.1-3,42.3-40.6,42.3-40.6l-24.6-37.2c0,0-16.2,2.9-25.3,0
			s-14.1-11.5-14.1-11.5L198,329.8c0,0,1.6-11.5-3.6-14.4c-5.3-2.9-17.5-4.4-31,7.1c-12.2,10.4-15.8,19.8-21.7,22.4
			c-3.5,1.5-15.3-5.5-32.9-2.4c-15.8,2.8-26.4,11.4-21.2,12.4c13.4,2.6,26.5,7.4,24.8,10.3s-11.8,1-25.3,7.9
			c-13.1,6.7-19.6,17-16,15.8c10.5-3.6,22.9-2.2,22.9,1c0,3.1-7,3-14.1,11.2c-6.6,7.7-10.7,18.2-9,16.8c9.4-7.3,22.3-12.3,23.8-7.5
			c1.4,4.8-23.2,37-18.1,70.7c5,33.7,26,48.1,57.2,51.6c34.7,3.9,64.3-0.9,76.6-33c8.4-21.9-4.7-39.3-3.2-43.4
			c1.4-4.1,10,3.4,12.7-4.5c1.5-4.6-12.4-7.2-8.6-11.9C215,434.9,228.8,444.1,245.6,441.6z"/>
	</g>
	<path id="mounth" d="M170.6,405.6c0,0,8.4,16.6,17.4,23.6c9.6,7.6,22.5,12.2,22.5,12.2l1-2.1c0,0-13.6-4.4-22.3-11.5
		C178.9,419.2,170.6,405.6,170.6,405.6z"/>
	<path id="hand" style="fill:#B56F29;" d="M112.6,439.7c0,0-15.2,36.2-17,38.7c-3.7,4.9-12.6-1.9-15.7,3.4
		c-2.2,3.7-1.9,11.9,2.2,13.1c5.1,1.4,10.8-8.8,13.6-5.2c2.8,3.6-8.5,6.3-8.9,11.7c-0.4,4.8,8.5,10.1,12.5,5.4
		c4-4.8-0.1-14.7,2.3-15.4c2.4-0.7,2.6,9.4,5.7,11.2c4.1,2.4,10,1.4,11-6.2c1.1-8.4-11.6-9.7-11.1-13.8c0.5-4.1,10.3-39,10.3-39
		L112.6,439.7z"/>
	<path id="tail" style="fill:#1A1A1A;" d="M84.5,503.5c0,0-10.4,6.2-23.1-1.5c-18.2-10.9-11.5-30.3,0-29.1c6.6,0.8,9.6,8.2,9.6,8.2
		s10.7-10.9,5.6-23.5s-26.2-13.4-36.5-3.6c-12,11.4-7.7,24-8.8,25.7s-8.7-9.8-10.5-15.3c-0.7-2.2-7.7,10.7,0.1,24.9
		c6,10.9,15.8,15.3,14.8,17s-14-2-19.9-6.7c-1.3-1.1,2,14.8,18.1,20c14.1,4.5,28.1-4.5,28.5-2.5c0.5,1.9-3.9,7-6.5,8.2
		c-3.5,1.6,5.6,2.2,13.4-2.1c11.1-6.3,16.1-16.1,16.1-16.1L84.5,503.5z"/>
	<g id="nose">
		<circle cx="287.3" cy="373.4" r="30.4"/>
		
			<ellipse transform="matrix(0.9686 -0.2486 0.2486 0.9686 -79.7511 81.4696)" style="fill:#343433;" cx="282.7" cy="356.5" rx="17.2" ry="7.6"/>
	</g>
	<ellipse id="bb" style="fill:#754D24;" cx="187.5" cy="507.2" rx="3.6" ry="3.4"/>
	<g id="eyesopen">
		<circle style="fill:#CBCBCA;" cx="213" cy="337.5" r="16.9"/>
		<circle cx="219.8" cy="337.1" r="4.6"/>
		<circle style="fill:#FFFFFF;" cx="188" cy="352.7" r="25"/>
		<path d="M203.1,347c0,3.2-2.6,5.7-5.7,5.7c-3.2,0-5.7-2.6-5.7-5.7c0-3.2,2.6-5.7,5.7-5.7C200.6,341.2,203.1,343.8,203.1,347z"/>
		<path style="fill:#F69220;" d="M227.8,352.7c-2.2-1.7-4.7-1.7-4.7-1.7s-17.9,2.4-24.4,6.9c-10,6.8-8.9,18.1-8.3,19.8
			c0.6,1.7,16.8,6.7,20.9,0c5.3-8.8,19.4-17.8,19.4-17.8S231.1,355.3,227.8,352.7z"/>
		<path style="fill:#F69220;" d="M156.4,379.5c0,0,2.5-7.1,9.2-10.1c5.9-2.7,23.6,5.3,24.8,8.3C191.9,381.1,156.4,379.5,156.4,379.5
			z"/>
	</g>
	<g id="eyesclosed">
		<circle style="fill:#D18029;" cx="213" cy="337.5" r="16.9"/>
		<path style="fill:#603A17;" d="M227.3,328.5c0,0,0.3,0.5,0.5,0.9c0.2,0.3,0.5,1.1,0.5,1.1s-8.2,1.8-15.9,5.7
			c-5.8,2.9-11.2,7.3-13.5,11.8l-1.1-1.5C197.8,346.4,203.4,332.4,227.3,328.5z"/>
		<circle style="fill:#E48525;" cx="188" cy="352.7" r="25"/>
		<path style="fill:#F69220;" d="M227.8,352.7c-2.2-1.7-4.7-1.7-4.7-1.7s-17.9,2.4-24.4,6.9c-10,6.8-8.9,18.1-8.3,19.8
			c0.6,1.7,16.8,6.7,20.9,0c5.3-8.8,19.4-17.8,19.4-17.8S231.1,355.3,227.8,352.7z"/>
		<path style="fill:#F69220;" d="M156.4,379.5c0,0,2.5-7.1,9.2-10.1c5.9-2.7,23.6,5.3,24.8,8.3C191.9,381.1,156.4,379.5,156.4,379.5
			z"/>
		<path style="fill:#603A17;" d="M207.1,336.5c0,0,0.7,0.9,0.9,1.1c0.2,0.3,0.9,1.2,0.9,1.2s-11.7,3.1-22.6,9.3
			c-8.2,4.7-16,11.9-18.9,18.5c0,0-0.8-1.2-0.8-1.3c-0.1-0.2-0.7-1.3-0.7-1.3S172.6,343.8,207.1,336.5z"/>
	</g>
</g>
</svg>
