<?xml version="1.0" encoding="utf-8"?>
<!-- Generator: Adobe Illustrator 21.0.0, SVG Export Plug-In . SVG Version: 6.00 Build 0)  -->
<svg version="1.1" id="DogUserStatus" xmlns="http://www.w3.org/2000/svg" xmlns:xlink="http://www.w3.org/1999/xlink" x="0px"
	 y="0px" viewBox="0 0 769.1 723.3" style="enable-background:new 0 0 769.1 723.3;" xml:space="preserve">
<style type="text/css">
	.st0{fill:#FFFFFF;}
	.st1{fill:#FDFDFD;}
	.st2{fill:#FBFBFB;}
	.st3{fill:#F9F9F9;}
	.st4{fill:#F7F7F7;}
	.st5{fill:#F5F5F5;}
	.st6{fill:#F3F3F3;}
	.st7{fill:#F1F1F1;}
	.st8{fill:#EFEFEF;}
	.st9{fill:#EDEDED;}
	.st10{fill:#EBEBEB;}
	.st11{fill:#E9E9E9;}
	.st12{fill:#E7E7E7;}
	.st13{fill:#E5E5E4;}
	.st14{fill:#E3E3E2;}
	.st15{fill:#E1E1E0;}
	.st16{fill:#DFDFDE;}
	.st17{fill:#DDDDDC;}
	.st18{fill:#DBDBDA;}
	.st19{fill:#D9D9D8;}
	.st20{fill:#D7D7D6;}
	.st21{fill:#D5D5D4;}
	.st22{fill:#D3D3D2;}
	.st23{fill:#D1D1D0;}
	.st24{fill:#CFCFCE;}
	.st25{fill:#CDCDCC;}
	.st26{fill:#CACACA;}
	.st27{fill:#C8C8C8;}
	.st28{fill:#C6C6C6;}
	.st29{fill:#C4C4C4;}
	.st30{fill:#C2C2C2;}
	.st31{fill:#C0C0C0;}
	.st32{fill:#BEBEBE;}
	.st33{fill:#BCBCBC;}
	.st34{fill:#BABABA;}
	.st35{fill:#B8B8B8;}
	.st36{fill:#B6B6B6;}
	.st37{fill:#B4B4B4;}
	.st38{fill:#B2B2B2;}
	.st39{fill:#B0B0AF;}
	.st40{fill:#AEAEAD;}
	.st41{fill:#ACACAB;}
	.st42{fill:#AAAAA9;}
	.st43{fill:#A8A8A7;}
	.st44{fill:#A6A6A5;}
	.st45{fill:#A4A4A3;}
	.st46{fill:#A2A2A1;}
	.st47{fill:#A0A09F;}
	.st48{fill:#9E9E9D;}
	.st49{fill:#9C9C9B;}
	.st50{fill:#9A9A99;}
	.st51{fill:#989897;}
	.st52{fill:#A7A8AC;}
	.st53{fill:#FFFFFF;stroke:#B8D432;stroke-width:1.5;stroke-miterlimit:10;}
	.st54{fill:#B56F29;}
	.st55{fill:#F69220;}
	.st56{fill:#754D24;}
	.st57{fill:#343433;}
	.st58{fill:#E48625;}
	.st59{fill:#603A17;}
</style>
<g id="shadow">
	<g>
		<ellipse class="st0" cx="258.1" cy="688.1" rx="208.5" ry="35.2"/>
		<ellipse class="st1" cx="258.1" cy="688.1" rx="205.3" ry="34.6"/>
		<ellipse class="st2" cx="258.1" cy="688.1" rx="202.1" ry="34"/>
		<ellipse class="st3" cx="258.1" cy="688.1" rx="198.9" ry="33.7"/>
		<ellipse class="st4" cx="258.1" cy="688.1" rx="195.7" ry="33.2"/>
		<ellipse class="st5" cx="258.1" cy="688.1" rx="192.5" ry="32.6"/>
		<ellipse class="st6" cx="258.1" cy="688.1" rx="189" ry="32"/>
		<ellipse class="st7" cx="258.1" cy="688.1" rx="185.8" ry="31.4"/>
		<ellipse class="st8" cx="258.1" cy="688.1" rx="182.6" ry="30.8"/>
		<ellipse class="st9" cx="258.1" cy="688.1" rx="179.5" ry="30.2"/>
		<ellipse class="st10" cx="258.1" cy="688.1" rx="176.3" ry="29.7"/>
		<ellipse class="st11" cx="258.1" cy="688.1" rx="173.1" ry="29.4"/>
		<ellipse class="st12" cx="258.1" cy="688.1" rx="169.9" ry="28.8"/>
		<ellipse class="st13" cx="258.1" cy="688.1" rx="166.7" ry="28.2"/>
		<ellipse class="st14" cx="258.1" cy="688.1" rx="163.2" ry="27.6"/>
		<ellipse class="st15" cx="258.1" cy="688.1" rx="160" ry="27"/>
		<ellipse class="st16" cx="258.1" cy="688.1" rx="156.8" ry="26.5"/>
		<ellipse class="st17" cx="258.1" cy="688.1" rx="153.6" ry="25.9"/>
		<ellipse class="st18" cx="258.1" cy="688.1" rx="150.4" ry="25.3"/>
		<ellipse class="st19" cx="258.1" cy="688.1" rx="147.2" ry="24.7"/>
		<ellipse class="st20" cx="258.1" cy="688.1" rx="144" ry="24.4"/>
		<ellipse class="st21" cx="258.1" cy="688.1" rx="140.8" ry="23.8"/>
		<ellipse class="st22" cx="258.1" cy="688.1" rx="137.3" ry="23.3"/>
		<ellipse class="st23" cx="258.1" cy="688.1" rx="134.1" ry="22.7"/>
		<ellipse class="st24" cx="258.1" cy="688.1" rx="130.9" ry="22.1"/>
		<ellipse class="st25" cx="258.1" cy="688.1" rx="127.7" ry="21.5"/>
		<ellipse class="st26" cx="258.1" cy="688.1" rx="124.5" ry="20.9"/>
		<ellipse class="st27" cx="258.1" cy="688.1" rx="121.3" ry="20.4"/>
		<ellipse class="st28" cx="258.1" cy="688.1" rx="118.1" ry="20.1"/>
		<ellipse class="st29" cx="258.1" cy="688.1" rx="114.9" ry="19.5"/>
		<ellipse class="st30" cx="258.1" cy="688.1" rx="111.4" ry="18.9"/>
		<ellipse class="st31" cx="258.1" cy="688.1" rx="108.2" ry="18.3"/>
		<ellipse class="st32" cx="258.1" cy="688.1" rx="105" ry="17.7"/>
		<ellipse class="st33" cx="258.1" cy="688.1" rx="101.8" ry="17.2"/>
		<ellipse class="st34" cx="258.1" cy="688.1" rx="98.6" ry="16.6"/>
		<ellipse class="st35" cx="258.1" cy="688.1" rx="95.4" ry="16"/>
		<ellipse class="st36" cx="258.1" cy="688.1" rx="92.2" ry="15.7"/>
		<ellipse class="st37" cx="258.1" cy="688.1" rx="89" ry="15.1"/>
		<ellipse class="st38" cx="258.1" cy="688.1" rx="85.5" ry="14.5"/>
		<ellipse class="st39" cx="258.1" cy="688.1" rx="82.3" ry="14"/>
		<ellipse class="st40" cx="258.1" cy="688.1" rx="79.1" ry="13.4"/>
		<ellipse class="st41" cx="258.1" cy="688.1" rx="75.9" ry="12.8"/>
		<ellipse class="st42" cx="258.1" cy="688.1" rx="72.7" ry="12.2"/>
		<ellipse class="st43" cx="258.1" cy="688.1" rx="69.5" ry="11.6"/>
		<ellipse class="st44" cx="258.1" cy="688.1" rx="66.3" ry="11.1"/>
		<ellipse class="st45" cx="258.1" cy="688.1" rx="63.1" ry="10.8"/>
		<ellipse class="st46" cx="258.1" cy="688.1" rx="59.6" ry="10.2"/>
		<ellipse class="st47" cx="258.1" cy="688.1" rx="56.4" ry="9.6"/>
		<ellipse class="st48" cx="258.1" cy="688.1" rx="53.2" ry="9"/>
		<ellipse class="st49" cx="258.1" cy="688.1" rx="50" ry="8.4"/>
		<ellipse class="st50" cx="258.1" cy="688.1" rx="46.8" ry="7.9"/>
		<ellipse class="st51" cx="258.1" cy="688.1" rx="43.6" ry="7.3"/>
	</g>
</g>
<g id="baloon">
	<g>
		<path class="st52" d="M744.4,59.9c-10.2-39.8-32.3-46.2-60.5-50C639.7,4,442.8-0.6,411.6,2.9c-24.7,2.6-40.7,19.8-50.9,51.8
			c-8.4,26.5-27.3,69.5-30,89.6c-3.2,25.6,2.9,64.9,41.6,76.5c34.6,10.2,69.5,13.4,136.7,20.4c42.5,4.4,62.2,8.1,51.8,20.4
			c-14.3,16.9-75,42.2-61.4,43.9c43,5.5,91.3,0,122.4-8.4c21.8-5.8,43-16.6,57-31.4c32.9,4.9,30.5,6.4,39.8,6.4
			c30.2,0.3,46-18.3,49.7-45.4C773.1,195.1,750.5,84.3,744.4,59.9z"/>
		<path class="st0" d="M747,58.7c-9.9-39.3-34-47.1-61.9-50.9C641.7,2,448.9-2.1,418,1.1c-24.4,2.6-40.1,19.5-50,51.2
			c-8.1,26.2-26.8,67.8-29.1,87.3c-3.2,25.3,2.9,64,41,75.3c33.7,10.2,68.3,13.1,134.4,20.1c41.9,4.4,61.1,7.9,50.9,20.1
			c-14,16.6-73.9,41.9-60.5,43.3c39,3.5,92.2-0.9,122.4-9.9c21.8-6.7,40.1-14.8,53.8-29.4c32.3,4.7,29.4,6.4,38.7,6.4
			c29.7,0.3,42.2-19.5,46.5-46.2C771.4,185.8,752.8,82.6,747,58.7z"/>
	</g>
	<path class="st53" d="M733.9,66c-9.3-36.9-32-44.5-58.2-48c-40.7-5.5-220.2-9.3-249.3-6.1c-23,2.6-37.8,18.3-47.1,48.3
		c-7.9,24.7-24.7,59.9-26.8,78.2c-2.9,23.8,2.6,60.2,38.4,70.7c31.7,9.6,91.9,15.7,154.1,22.4c39.3,4.1,47.7,8.7,38.1,20.4
		c-13.1,15.7-66.9,39.8-50,39c29.1-1.7,59.6-4.7,90.5-14.5c17.2-5.5,37.5-14.3,50.6-27.9c30.2,4.4,26.2,5.8,34.6,5.8
		c27.9,0.3,39.6-16,43.6-41.3C757.4,181.7,739.7,88.7,733.9,66z"/>
</g>
<g id="taxt">
	<path d="M521.9,62.5l0.3-5.2c0.3-3.8,0.9-5.8,1.7-6.4c0.6-0.3,1.2-0.3,1.7-0.3c0.6,0,1.5,0.3,1.7,0.9c0.6,0.6,0.9,1.5,0.9,2
		l-0.6,5.8l-0.9,20.4c0,1.7,0,3.8,0,6.1c0,2.3,0,3.8,0,4.7s-0.3,1.7-0.9,2.6c-0.6,0.9-1.2,1.2-2,1.2c-1.7,0-2.9-0.6-3.5-1.7
		c-0.6-1.2-1.5-2.9-2.6-5.8c-2-4.7-4.4-9.3-6.4-13.4c-2-4.4-4.4-8.1-7-11.9v1.5c-0.9,13.4-1.7,22.7-2.9,28.2
		c-0.3,1.2-1.2,1.5-2.6,1.5c-0.6,0-1.2-0.3-1.7-0.6c-0.6-0.3-0.6-0.9-0.6-1.5s0.3-2.3,0.6-5.5c0.3-3.2,0.6-5.5,0.6-7
		c0.6-2.9,0.9-4.9,0.9-6.4c0-1.2,0.3-3.5,0.6-7l0.3-6.1c0.3-2.9,0.6-4.7,1.2-5.5c0.3-0.3,0.6-0.6,1.2-0.9c0.9,0,1.7,0.3,2.9,0.9
		c1.7,2,3.2,4.1,4.7,6.4c1.5,2.3,2.3,4.1,3.2,5.5c0.9,1.2,1.7,2.9,2.6,5.2c1.2,2,1.7,3.8,2.3,4.7c0.6,1.2,1.5,2.6,2.3,4.9
		c1.2,2.3,1.7,3.8,2,4.4l0.3-19.8c0-0.3,0-0.6,0-0.9L521.9,62.5z"/>
	<path d="M541.1,69.2l-0.3,4.4l-0.9,14.8c0,2-0.3,3.5-0.3,4.7c-0.3,0.9-0.6,1.5-1.2,2s-1.2,0.9-2,0.9s-1.5-0.6-1.7-1.7
		c0-1.2,0-2.9,0-4.9s0-4.7,0-7.6c0-2.9,0-5.8,0.3-8.7c0.3-2.9,0.3-5.5,0.6-7.6c0-0.9,0.6-1.2,1.7-1.2
		C539.9,63.9,541.1,65.7,541.1,69.2z M536.4,51.7c0.6-0.6,1.2-0.9,1.5-0.9c0.3,0,0.6,0,0.9,0c2,0.6,3.2,1.2,3.5,2.3
		c0.3,0.6,0.3,1.2,0.3,2c0,0.9-0.6,1.7-1.2,2.9c-0.9,0.9-1.7,1.5-2.6,1.5s-1.7-0.6-2.3-1.5c-0.6-0.9-0.9-2-0.9-3.5
		C535.5,53.2,535.8,52.3,536.4,51.7z"/>
	<path d="M570.1,67.1c0.6,0.3,0.9,0.9,0.9,1.2c0,0.9-0.3,1.7-0.9,2.9s-1.2,1.5-2,1.5c-0.3,0-1.2-0.3-2.6-0.9c-1.2-0.6-2-0.9-2.6-0.9
		c-2.3,0-4.7,0.6-6.7,2.3c-2,1.7-2.9,4.1-3.2,7.3c-0.3,3.2,0.3,5.5,1.2,7c0.9,1.7,2.6,2.6,4.9,2.6c1.5,0,3.2-0.3,5.2-1.5
		c2-0.9,3.5-1.5,4.1-1.5c0.6,0,1.2,0.3,1.5,0.6c0.3,0.3,0.6,0.9,0.6,1.5c0,1.2-0.9,2.3-2.3,3.2s-3.2,2-5.2,2.6s-3.8,0.9-5.5,0.9
		c-3.5-0.3-6.4-1.7-8.1-4.7c-1.7-2.9-2.6-6.7-2.3-11.6c0.3-2.9,1.2-5.8,2.9-8.1c1.7-2.3,3.8-4.1,6.4-4.9c2.3-1.2,4.9-1.5,7.9-1.5
		C566.9,65.1,569,66.3,570.1,67.1z"/>
	<path d="M592.5,69.5c2,1.5,3.2,3.2,2.9,5.2c0,2-1.2,3.8-3.5,5.8c-2,1.7-4.7,2.9-7.6,3.2c-0.3,0-0.6,0-0.6,0c-0.3,0-0.3,0-0.6,0
		s-0.6,0-0.6,0s-0.3,0-0.6,0s-0.6,0-0.6,0s-0.3,0-0.9,0c-0.3,0-0.6,0-0.6,0c0.3,3.5,0.9,5.8,1.7,7c1.2,1.2,2.3,1.7,3.2,1.7
		c2.3,0,4.4-0.6,6.4-2.3c2-1.7,3.5-2.6,4.4-2.6c0.3,0,0.9,0.3,1.5,1.2c0.6,0.6,1.2,1.5,0.9,2c0,0.6-0.6,1.5-1.5,2.3
		c-0.9,0.9-1.7,1.7-3.2,2.6c-1.2,0.9-2.6,1.7-4.7,2.3c-1.7,0.6-3.5,0.9-4.9,0.9c-1.5,0-2.9-0.6-3.8-1.2c-2-1.5-3.5-3.8-4.4-6.7
		c-0.9-3.2-1.2-6.4-1.2-9.6c0.3-3.5,1.2-6.4,2.6-9c1.7-2.9,4.7-4.4,8.7-4.1C588.2,67.1,590.2,68,592.5,69.5z M589.6,74.7
		c0-1.7-1.2-2.9-3.5-2.9c-1.7,0-3.2,0.9-4.4,2.6c-0.3,0.6-0.9,1.2-0.9,2c-0.3,0.9-0.3,1.5-0.6,2.3C586.1,79.1,589.3,77.9,589.6,74.7
		z"/>
	<path d="M484.3,147.1l-0.3,4.7c0,1.7-0.3,4.1-0.9,6.7c0,4.7,0.3,9,0.9,12.8c-0.3,0.6-0.6,0.9-1.2,1.2c-0.6,0.3-1.2,0.3-1.7,0.3
		c-0.6,0-1.2-0.3-1.5-0.3c-0.3-0.3-0.6-0.6-0.9-0.9c0-0.3-0.3-0.6-0.3-0.9c0-0.3,0-0.6,0-1.2c0-0.6,0-0.9,0-0.9
		c-2.3,2-4.9,2.9-8.4,2.9c-3.2-0.3-5.5-1.5-7-4.1c-1.2-2.6-1.7-6.1-1.5-10.8c0.6-7.9,2.9-12.8,7.6-14.8c1.5-0.6,3.2-0.9,4.9-0.6
		c1.7,0,3.5,0.6,5.2,1.2c0.6-0.9,1.5-1.2,2.3-1.2c1.7,0,2.6,1.5,2.6,4.4C484.3,146,484.3,146.5,484.3,147.1z M476.8,162.5
		c0.9-2.3,1.5-4.9,1.7-7.9c0.3-2.9,0-4.9-0.6-6.1c-0.6-1.5-1.7-2-3.5-2c-0.6,0-1.7,0-2.9,0s-2.3,0.9-3.2,2.9
		c-1.2,1.7-1.7,3.2-1.7,4.7v2.6c-0.3,4.7,0.6,7.6,2.3,9c0.6,0.3,1.2,0.6,2.3,0.6c0.9,0,2-0.3,3.2-1.2
		C475.6,164.6,476.5,163.7,476.8,162.5z"/>
	<path d="M514.9,144.2v0.6c-2.3,5.2-4.4,9.9-5.5,13.7s-2.6,8.1-4.1,12.5c-0.3,0.6-0.9,1.2-1.5,1.5c-0.6,0.3-1.2,0.6-2,0.6
		s-1.2-0.6-1.5-1.5c-1.2-4.7-2.9-9.6-5.2-14.8c-2.3-5.2-3.8-8.7-4.1-9.9c-0.6-1.2-0.6-2-0.6-2.6c0-0.6,0.3-1.2,0.9-1.7
		c0.6-0.6,1.5-0.9,2-0.9c0.9,0,1.5,0.6,1.7,1.2c0.6,1.2,1.7,4.1,3.8,8.4s3.5,7.9,4.1,10.8c0.3-0.9,0.6-2,1.2-3.8
		c2-6.1,4.1-10.8,5.8-14.3c0.9-1.2,1.7-1.7,2.9-1.7c0.6,0,1.2,0.3,1.5,0.9C514.6,143.6,514.9,143.9,514.9,144.2z"/>
	<path d="M541.3,150.3l-0.3,4.7c0,1.7-0.3,4.1-0.9,6.7c0,4.7,0.3,9,0.9,12.8c-0.3,0.6-0.6,0.9-1.2,1.2c-0.6,0.3-1.2,0.3-1.7,0.3
		s-1.2-0.3-1.5-0.3c-0.3-0.3-0.6-0.6-0.9-0.9c0-0.3-0.3-0.6-0.3-0.9c0-0.3,0-0.6,0-1.2c0-0.6,0-0.9,0-0.9c-2.3,2-4.9,2.9-8.4,2.9
		c-3.2-0.3-5.5-1.5-7-4.1c-1.2-2.6-1.7-6.1-1.5-10.8c0.6-7.9,2.9-12.8,7.6-14.8c1.5-0.6,3.2-0.9,4.9-0.6c1.7,0,3.5,0.6,5.2,1.2
		c0.6-0.9,1.5-1.2,2.3-1.2c1.7,0,2.6,1.5,2.6,4.4C541.3,149.2,541.3,149.7,541.3,150.3z M533.8,165.7c0.9-2.3,1.5-4.9,1.7-7.9
		c0.3-2.9,0-4.9-0.6-6.1c-0.6-1.5-1.7-2-3.5-2c-0.6,0-1.7,0-2.9,0c-1.2,0-2.3,0.9-3.2,2.9c-1.2,1.7-1.7,3.2-1.7,4.7v2.6
		c-0.3,4.7,0.6,7.6,2.3,9c0.6,0.3,1.2,0.6,2.3,0.6c0.9,0,2-0.3,3.2-1.2C532.6,167.8,533.2,166.9,533.8,165.7z"/>
	<path d="M560.5,130.8l-0.9,8.1c0,0.6,0,2.6,0,6.4c2.6,0.3,5.2,0.3,7.9,0.3c1.5,0.3,2,1.2,1.7,2.3c0,1.2-0.6,2-1.5,2.6
		c-0.9,0.6-1.7,0.6-2.6,0.6s-1.5,0-2,0s-1.2,0-1.7,0c-0.9,0-1.2,0-1.7,0c0,0.3,0,1.7,0,3.8c0,2,0,3.5,0,4.1c0,6.1,0.3,11.1,0.6,14.8
		c-0.3,0.9-0.6,1.5-1.5,2c-0.6,0.6-1.5,0.9-2,0.9s-1.5-0.6-1.7-1.7c-0.6-4.1-0.6-8.7-0.6-14.3s0-8.7,0-9.9c-0.6,0-1.7,0-3.2,0
		s-2.9-0.3-3.8-0.6c-1.2-0.3-1.5-0.9-1.5-2c0-2.3,1.5-3.2,4.1-3.2l3.2,0.3c0.6,0,0.9,0,1.2,0c0-4.4,0-6.7,0-7s0-0.9,0.3-2
		c0-1.2,0.3-2.6,0.6-4.7c0.3-0.9,0.6-1.5,1.5-1.7c0.6-0.6,1.5-0.6,2-0.6C560,128.8,560.5,129.4,560.5,130.8z"/>
	<path d="M594.6,153.2l-0.3,4.7c0,1.7-0.3,4.1-0.9,6.7c0,4.7,0.3,9,0.9,12.8c-0.3,0.6-0.6,0.9-1.2,1.2c-0.6,0.3-1.2,0.3-1.7,0.3
		s-1.2-0.3-1.5-0.3c-0.3-0.3-0.6-0.6-0.9-0.9c0-0.3-0.3-0.6-0.3-0.9c0-0.3,0-0.6,0-1.2c0-0.6,0-0.9,0-0.9c-2.3,2-4.9,2.9-8.4,2.9
		c-3.2-0.3-5.5-1.5-7-4.1c-1.2-2.6-1.7-6.1-1.5-10.8c0.6-7.9,2.9-12.8,7.6-14.8c1.5-0.6,3.2-0.9,4.9-0.6c1.7,0,3.5,0.6,5.2,1.2
		c0.6-0.9,1.5-1.2,2.3-1.2c1.7,0,2.6,1.5,2.6,4.4C594.6,152.1,594.6,152.7,594.6,153.2z M587,168.6c0.9-2.3,1.5-4.9,1.7-7.9
		c0.3-2.9,0-4.9-0.6-6.1c-0.6-1.5-1.7-2-3.5-2c-0.6,0-1.7,0-2.6,0c-1.2,0-2.3,0.9-3.2,2.9c-1.2,1.7-1.7,3.2-1.7,4.7l-0.3,2.6
		c-0.3,4.7,0.6,7.6,2.3,9c0.6,0.3,1.2,0.6,2.3,0.6c0.9,0,2-0.3,3.2-1.2C585.6,170.7,586.4,169.8,587,168.6z"/>
	<path d="M603.6,170.4l0.3-2c0.3-2.6,0-5.8,0-9c-0.3-3.2-0.6-5.8-0.9-7.3c-0.3-1.7-0.6-2.6-0.6-3.2c0-0.3,0.3-0.9,0.9-1.2
		c0.6-0.3,1.2-0.6,2-0.6c0.9,0,1.5,0.3,1.7,0.9c0.3,0.6,0.6,1.2,0.9,1.7c0.3,0.6,0,1.5,0.3,2.3c0,0.9,0,1.7,0,2
		c1.2-2.6,3.2-4.4,6.1-5.5c1.5-0.6,2.9-0.6,4.7-0.6c3.5,0.3,5.5,1.2,5.2,3.2c0,1.2-0.6,2-2,2.6c-0.6,0.3-0.9,0.3-1.5,0.3l-2-0.3
		c-5.5-0.3-8.7,4.9-9.3,16l-0.3,6.1l0,0c-0.3,0.9-0.6,1.5-1.5,2c-0.6,0.6-1.5,0.9-2,0.9c-0.9,0-1.5-0.9-1.7-2.6
		C603.6,174.5,603.3,173,603.6,170.4z"/>
	<path d="M628.6,174.5c0-0.6,0.3-1.5,0.9-2s1.5-0.9,2.6-0.9c1.2,0,1.7,0.3,2.3,0.6c0.6,0.3,0.6,1.2,0.6,2.6c0,1.5-0.6,2.3-1.2,2.6
		c-0.6,0.3-1.5,0.6-2,0.6c-0.9,0-1.7-0.6-2.3-1.5C628.9,175.9,628.6,175,628.6,174.5z M636.5,134.6l-1.7,22.7c0,2-0.3,3.8-0.3,4.7
		c-0.3,0.6-0.6,1.2-1.2,1.5c-0.6,0.3-1.2,0.6-1.7,0.6c-0.6,0-1.2-0.6-1.5-1.5c0-11.1,0-20.6,0.6-28.2c0.3-0.6,0.9-0.9,1.5-1.2
		c0.9-0.3,1.5-0.3,1.7-0.3C635.6,133.2,636.2,133.7,636.5,134.6z"/>
</g>
<g id="dog">
	<path id="ear2" d="M324.1,290.5c0,0,88.7-50,96.3-47.7c7.3,2,64,71,51.5,89.3c-12.5,18.6-32.3,14.5-38.4,3.2
		c-6.1-11.3-17.2-61.4-21.8-62.8s-78.2,25.9-78.2,25.9L324.1,290.5z"/>
	<path id="ear1" d="M173.4,301.6c0,0-42.2-72.4-55-73C106,228,55.3,285.9,60,304.8c4.7,18.9,16.6,23.6,31.4,13.1
		s26.2-50.3,32.3-52.1c6.1-1.7,47.4,46,47.4,46L173.4,301.6z"/>
	<path id="leg2" class="st54" d="M360.4,651.7c0,0,53.5-1.7,65.1-7.6c11.6-5.5,17.7-47.7,16.9-50.9c-0.9-3.2-9.9,1.5-19.8-11.9
		c-11.3-15.1-1.5-33.4,13.1-33.4c18.9,0,14.3,30,23,32c6.1,1.5-1.2-23.6,13.4-26.8c13.4-3.2,22.7,9.9,20.4,18
		c-2.3,7.6-19.2,17.2-17.2,21.5c1.7,4.7,13.7-8.1,19.2,0c5.5,8.4,2.9,19.8-7,20.9c-9.6,0.9-9.3-10.5-16.3-6.4
		c-7,4.1-20.1,56.1-26.5,59c-6.4,2.9-90.7-3.2-90.7-3.2L360.4,651.7z"/>
	<path id="leg1" class="st54" d="M141.7,651.7c0,0-61.1,6.1-67.2,0s-13.4-38.7-11.6-46.2c1.7-7.3,13.7-11.6,17.5-24.1
		c4.1-13.1-3.8-23.6-19.8-21.2c-16,2.3-8.4,28.5-14.8,31.1c-7,2.9-2.3-14-14-16.6C18.7,571.8,10,586,13.5,595.6
		c2.3,6.7,23.8,5.8,19.8,15.7c-2,4.7-18.6-7.3-22.7-3.2c-6.4,6.1-2.6,18.3,3.8,20.1c8.4,2,16.9-8.7,20.1-2.9
		c3.2,6.1,9.9,50.9,18.3,52.6s98-16.6,98-16.6L141.7,651.7z"/>
	<path id="hand2_1_" class="st54" d="M387.2,504c0,0,71-34.6,77.9-28.5c7,6.1,6.7,17.5,19.5,19.2c12.8,1.7,24.1-13.7,21.5-24.4
		c-2.9-11.1-20.9,1.2-21.8-8.1c-1.2-9.3,25.3-8.1,26.2-20.4s-16-25.6-23-23.8c-7,1.7-9.3,22.1-18,20.9c-8.7-1.5,5.8-17.2,1.2-24.7
		c-4.7-7.3-22.7-10.2-29.7,3.2c-6.7,13.7,6.4,29.7,2.9,35.2c-3.5,5.5-61.7,39.6-61.7,39.6L387.2,504z"/>
	<path id="hand1" class="st54" d="M136.5,459.5c0,0-47.7,18.9-56.4,11.9s-18.9-37.5-15.1-42.8c3.8-5.2,22.1-9.3,25-20.1
		c2.9-10.8-8.7-27.6-19.2-25.3s-18,33.2-22.4,34.3c-4.4,0.9-4.9-31.1-16.3-31.4C20.7,385.6,3.3,404.8,10,417
		c7,12.2,26.8,4.1,26.5,14.3c-0.6,10.5-27.9-2.6-33.7,7.3c-5.8,9.6-2.6,32.3,13.1,32s26.5-27,31.1-22.1c4.4,4.9-2.6,42.5,10.8,50.3
		C71.1,506.9,131,474,131,474L136.5,459.5z"/>
	<g id="body">
		<path class="st55" d="M179,342c0,0-3.8,40.1-25.9,78.8c-22.1,39-44.5,64.6-48,121.3c-3.8,56.7,16.6,121,58.5,128.3
			s159.1,12.2,186.7,0s61.1-64,49.4-135.8c-11.6-71.8-46.8-116.9-58.5-148.9c-11.6-32-9.9-56.7-9.9-56.7s12.2-17.2,8.1-27.9
			c-4.4-10.8-31.1-35.5-45.7-30c-14.5,5.5-34.3,29.7-40.4,30c-5.8,0.3-22.7-25.3-39.8-26.2c-17.2-0.6-40.7,16-44.5,26.2
			C165.6,311.2,179,342,179,342z"/>
		<ellipse class="st56" cx="248.8" cy="651.7" rx="7" ry="6.7"/>
	</g>
	<g id="nose">
		<ellipse class="st54" cx="253.4" cy="432.7" rx="76.8" ry="82.9"/>
		<ellipse cx="253.4" cy="432.7" rx="57" ry="55.6"/>
		<ellipse class="st57" cx="253.4" cy="405.7" rx="25.9" ry="16"/>
	</g>
	<g id="eyesopen">
		<circle class="st0" cx="296.7" cy="339.1" r="43"/>
		<circle cx="296.7" cy="339.1" r="11.1"/>
		<circle class="st0" cx="210.4" cy="339.1" r="43"/>
		<circle cx="210.4" cy="339.1" r="11.1"/>
	</g>
	<g id="eyesclosed">
		<circle class="st58" cx="296.7" cy="339.1" r="43"/>
		<circle class="st58" cx="210.4" cy="339.1" r="43"/>
		<path class="st59" d="M168.3,343.8c-1.2-3.9-0.4-7.5-0.4-7.5s38.8-22.2,85.7-3.4l0.2,7.2C253.9,340.1,212.8,326.1,168.3,343.8z"/>
		<path class="st59" d="M339.4,343.8c1.2-3.9,0.4-7.5,0.4-7.5s-38.8-22.2-85.7-3.4l-0.2,7.2C253.8,340.1,294.9,326.1,339.4,343.8z"
			/>
	</g>
	<path id="mounth" d="M225.5,537.1h-0.3c-0.9,0-23.3-2.6-45.1-16.6c-25.3-16.3-35.2-35.8-35.5-36.6c-0.9-1.7-0.3-4.1,1.7-4.9
		c1.7-0.9,4.1-0.3,4.9,1.7c0,0.3,9.6,18.6,32.9,33.7c20.4,13.1,41.6,15.4,41.9,15.4c2,0.3,3.5,2,3.2,4.1
		C229,535.7,227.5,537.1,225.5,537.1L225.5,537.1z"/>
</g>
</svg>
