<?xml version="1.0" encoding="utf-8"?>
<!-- Generator: Adobe Illustrator 20.1.0, SVG Export Plug-In . SVG Version: 6.00 Build 0)  -->
<svg version="1.1" xmlns="http://www.w3.org/2000/svg" xmlns:xlink="http://www.w3.org/1999/xlink" x="0px" y="0px"
	 viewBox="0 0 227 151" style="enable-background:new 0 0 227 151;" xml:space="preserve">
<style type="text/css">
	.st0{display:none;}
	.st1{display:inline;}
	.st2{fill:#A7A8AC;}
	.st3{fill:#FFFFFF;}
	.st4{fill:#FFFFFF;stroke:#B8D432;stroke-width:1.5;stroke-miterlimit:10;}
	.st5{font-family:'PatrickHand-Regular';}
	.st6{font-size:31.9853px;}
	.st7{font-size:39.4485px;}
	.st8{font-size:35.7627px;}
	.st9{font-size:43.9692px;}
	.st10{fill:#FDFDFD;}
	.st11{fill:#FBFBFB;}
	.st12{fill:#F9F9F9;}
	.st13{fill:#F7F7F7;}
	.st14{fill:#F5F5F5;}
	.st15{fill:#F3F3F3;}
	.st16{fill:#F1F1F1;}
	.st17{fill:#EFEFEF;}
	.st18{fill:#EDEDED;}
	.st19{fill:#EBEBEB;}
	.st20{fill:#E9E9E9;}
	.st21{fill:#E7E7E7;}
	.st22{fill:#E4E4E4;}
	.st23{fill:#E2E2E2;}
	.st24{fill:#E0E0E0;}
	.st25{fill:#DEDEDE;}
	.st26{fill:#DCDCDC;}
	.st27{fill:#DADADA;}
	.st28{fill:#D8D8D8;}
	.st29{fill:#D6D6D6;}
	.st30{fill:#D4D4D4;}
	.st31{fill:#D2D2D2;}
	.st32{fill:#D0D0D0;}
	.st33{fill:#CECECE;}
	.st34{fill:#CCCCCC;}
	.st35{fill:#CACACA;}
	.st36{fill:#C8C8C8;}
	.st37{fill:#C6C6C6;}
	.st38{fill:#C4C4C4;}
	.st39{fill:#C2C2C2;}
	.st40{fill:#C0C0C0;}
	.st41{fill:#BEBEBE;}
	.st42{fill:#BCBCBC;}
	.st43{fill:#BABABA;}
	.st44{fill:#B8B8B8;}
	.st45{fill:#B6B6B6;}
	.st46{fill:#B4B4B4;}
	.st47{fill:#B2B2B2;}
	.st48{fill:#AFAFAF;}
	.st49{fill:#ADADAD;}
	.st50{fill:#ABABAB;}
	.st51{fill:#A9A9A9;}
	.st52{fill:#A7A7A7;}
	.st53{fill:#A5A5A5;}
	.st54{fill:#A3A3A3;}
	.st55{fill:#A1A1A1;}
	.st56{fill:#9F9F9F;}
	.st57{fill:#9D9D9D;}
	.st58{fill:#9B9B9B;}
	.st59{fill:#999999;}
	.st60{fill:#979797;}
	.st61{fill:#754D24;}
	.st62{fill:#B56F29;}
	.st63{fill:#333333;}
	.st64{fill:#1A1A1A;}
	.st65{fill:#D07E29;}
	.st66{fill:#F69220;}
	.st67{fill:#CBCBCA;}
</style>
<g id="Layer_1" class="st0">
	<g class="st1">
		<g>
			<path class="st2" d="M264.2,52.4c-4.2-16.5-13.3-19.2-25.1-20.8c-18.3-2.5-99.8-4.3-112.8-2.9c-10.3,1.1-16.9,8.2-21.1,21.5
				c-1,3.2-29.5,5.3-30.9,9.3c-1.8,4.8-3.7,9.9-5.3,14.5c-1.6,4.6,43.1,12.6,42.7,15.5c-1.3,10.6,1.2,26.9,17.2,31.6
				c14.3,4.3,19.1,4.7,46.9,7.6c17.6,1.9,73.9,11.4,77.8,11.5c12.5,0.1,19-7.6,20.7-18.8C276.2,108.4,266.8,62.4,264.2,52.4z"/>
			<path class="st3" d="M265.3,51.9c-4.1-16.3-14.1-19.6-25.6-21.1c-17.9-2.4-97.8-4.2-110.6-2.8C119,29,112.5,36,108.4,49.1
				c-1.2,3.8-29.9,6.6-31.7,11.3c-1.7,4.4-3.4,8.9-4.7,12.9c-1.4,4.1,43.4,11.6,43.1,14.2c-1.3,10.5,1.2,26.5,16.9,31.2
				c14,4.2,18.5,4.6,45.9,7.5c17.3,1.8,72.2,11.2,76,11.2c12.3,0.1,17.5-8.1,19.3-19.2C275.4,104.5,267.8,61.8,265.3,51.9z"/>
		</g>
		<g>
			<path class="st2" d="M93.7,35.1c-4-16.6-13.1-19.3-24.9-21c-18.2-2.6-86.9-3.5-99.9-2.3c-10.3,1-17,8.1-21.3,21.3
				C-55.9,44-64,61.8-65.1,70c-1.4,10.6,1,26.9,17,31.8c14.2,4.4,15.9,4.1,43.7,7.3c17.6,2,25.7,3.6,21.3,8.7
				c-5.9,6.9-31.2,17.1-25.6,17.9c17.8,2.5,37.8,0.3,50.8-3c9-2.3,17.9-6.7,23.8-12.8c13.6,2.1,12.6,2.8,16.5,2.9
				c12.5,0.2,19-7.4,20.8-18.6C105.1,91.2,96.1,45.1,93.7,35.1z"/>
			<path class="st3" d="M94.8,34.6c-4-16.3-13.9-19.7-25.4-21.3c-17.9-2.6-84.9-3.4-97.6-2.1c-10.1,1-16.7,8-20.9,21
				c-3.5,10.8-11.4,28-12.4,36.1c-1.4,10.5,0.9,26.5,16.6,31.3c14,4.3,15.3,4,42.7,7.1c17.3,2,25.2,3.5,20.9,8.5
				c-5.8,6.8-30.7,17.1-25.2,17.7c16.1,1.7,38.2,0,50.8-3.7c9-2.6,16.7-6,22.4-12c13.4,2.1,12.2,2.7,16,2.8
				c12.3,0.2,17.6-7.9,19.5-19C104.4,87.3,97.2,44.5,94.8,34.6z"/>
		</g>
		<path class="st4" d="M260,54.9c-3.8-15.3-13.2-18.4-24.1-19.9c-16.8-2.3-91.2-3.9-103.2-2.6c-9.5,1-15.6,7.6-19.5,19.9
			c-0.6,2-11.7,5.1-20.4,7c-1.5-9-2.5-18.2-3.4-21.8c-3.7-15.3-13.1-18.5-23.9-20.1c-16.8-2.4-78.3-3-90.3-1.8
			c-9.5,0.9-15.7,7.5-19.7,19.8c-3.3,10.2-10.4,24.7-11.4,32.3c-1.3,9.9,0.9,24.9,15.6,29.5c13.1,4.1,25.2,5.2,50.8,8.1
			c16.2,1.9,19.7,3.8,15.7,8.5c-5.5,6.4-27.8,16.3-20.9,15.9c12.1-0.6,24.7-1.7,37.6-5.7c7.2-2.2,15.6-5.7,21-11.4
			c12.6,2,10.8,2.5,14.3,2.6c11.5,0.2,16.4-6.5,18.2-16.9c0.7-4.2-0.9-14.3-1.6-22.1c11.8,3.1,25.9,6.7,25.8,8.2
			c-1.2,9.9,1.3,27.4,16.2,31.8c13.2,3.9,28.4,5.7,54.1,8.4c16.3,1.7,55.2,8,58.7,8c11.5,0.1,16.3-6.7,18-17.1
			C269.7,102.8,262.3,64.3,260,54.9z"/>
		<text transform="matrix(0.9947 0.1027 -0.1027 0.9947 129.6671 66.1761)"><tspan x="0" y="0" class="st5 st6">And choose</tspan><tspan x="3.8" y="34.3" class="st5 st6">a </tspan><tspan x="25.8" y="34.3" class="st5 st7">theme!</tspan></text>
		<text transform="matrix(0.9855 0.1047 -0.1057 0.9944 -16.6831 51.1013)"><tspan x="0" y="0" class="st5 st8">Pick a</tspan><tspan x="-4.7" y="37.8" class="st5 st9">level!</tspan></text>
	</g>
</g>
<g id="Layer_2">
	<g>
		<ellipse class="st3" cx="101.6" cy="129.5" rx="75.1" ry="14.7"/>
		<ellipse class="st10" cx="101.6" cy="129.5" rx="73.9" ry="14.5"/>
		<ellipse class="st11" cx="101.6" cy="129.5" rx="72.8" ry="14.3"/>
		<ellipse class="st12" cx="101.6" cy="129.5" rx="71.6" ry="14.1"/>
		<ellipse class="st13" cx="101.6" cy="129.5" rx="70.4" ry="13.8"/>
		<ellipse class="st14" cx="101.6" cy="129.5" rx="69.3" ry="13.6"/>
		<ellipse class="st15" cx="101.6" cy="129.5" rx="68.1" ry="13.4"/>
		<ellipse class="st16" cx="101.6" cy="129.5" rx="66.9" ry="13.1"/>
		<ellipse class="st17" cx="101.6" cy="129.5" rx="65.8" ry="12.9"/>
		<ellipse class="st18" cx="101.6" cy="129.5" rx="64.6" ry="12.7"/>
		<ellipse class="st19" cx="101.6" cy="129.5" rx="63.5" ry="12.5"/>
		<ellipse class="st20" cx="101.6" cy="129.5" rx="62.3" ry="12.2"/>
		<ellipse class="st21" cx="101.6" cy="129.5" rx="61.1" ry="12"/>
		<ellipse class="st22" cx="101.6" cy="129.5" rx="60" ry="11.8"/>
		<ellipse class="st23" cx="101.6" cy="129.5" rx="58.8" ry="11.5"/>
		<ellipse class="st24" cx="101.6" cy="129.5" rx="57.6" ry="11.3"/>
		<ellipse class="st25" cx="101.6" cy="129.5" rx="56.5" ry="11.1"/>
		<ellipse class="st26" cx="101.6" cy="129.5" rx="55.3" ry="10.9"/>
		<ellipse class="st27" cx="101.6" cy="129.5" rx="54.1" ry="10.6"/>
		<ellipse class="st28" cx="101.6" cy="129.5" rx="53" ry="10.4"/>
		<ellipse class="st29" cx="101.6" cy="129.5" rx="51.8" ry="10.2"/>
		<ellipse class="st30" cx="101.6" cy="129.5" rx="50.6" ry="9.9"/>
		<ellipse class="st31" cx="101.6" cy="129.5" rx="49.5" ry="9.7"/>
		<ellipse class="st32" cx="101.6" cy="129.5" rx="48.3" ry="9.5"/>
		<ellipse class="st33" cx="101.6" cy="129.5" rx="47.1" ry="9.3"/>
		<ellipse class="st34" cx="101.6" cy="129.5" rx="46" ry="9"/>
		<ellipse class="st35" cx="101.6" cy="129.5" rx="44.8" ry="8.8"/>
		<ellipse class="st36" cx="101.6" cy="129.5" rx="43.7" ry="8.6"/>
		<ellipse class="st37" cx="101.6" cy="129.5" rx="42.5" ry="8.3"/>
		<ellipse class="st38" cx="101.6" cy="129.5" rx="41.3" ry="8.1"/>
		<ellipse class="st39" cx="101.6" cy="129.5" rx="40.2" ry="7.9"/>
		<ellipse class="st40" cx="101.6" cy="129.5" rx="39" ry="7.7"/>
		<ellipse class="st41" cx="101.6" cy="129.5" rx="37.8" ry="7.4"/>
		<ellipse class="st42" cx="101.6" cy="129.5" rx="36.7" ry="7.2"/>
		<ellipse class="st43" cx="101.6" cy="129.5" rx="35.5" ry="7"/>
		<ellipse class="st44" cx="101.6" cy="129.5" rx="34.3" ry="6.7"/>
		<ellipse class="st45" cx="101.6" cy="129.5" rx="33.2" ry="6.5"/>
		<ellipse class="st46" cx="101.6" cy="129.5" rx="32" ry="6.3"/>
		<ellipse class="st47" cx="101.6" cy="129.5" rx="30.8" ry="6.1"/>
		<ellipse class="st48" cx="101.6" cy="129.5" rx="29.7" ry="5.8"/>
		<ellipse class="st49" cx="101.6" cy="129.5" rx="28.5" ry="5.6"/>
		<ellipse class="st50" cx="101.6" cy="129.5" rx="27.3" ry="5.4"/>
		<ellipse class="st51" cx="101.6" cy="129.5" rx="26.2" ry="5.1"/>
		<ellipse class="st52" cx="101.6" cy="129.5" rx="25" ry="4.9"/>
		<ellipse class="st53" cx="101.6" cy="129.5" rx="23.8" ry="4.7"/>
		<ellipse class="st54" cx="101.6" cy="129.5" rx="22.7" ry="4.5"/>
		<ellipse class="st55" cx="101.6" cy="129.5" rx="21.5" ry="4.2"/>
		<ellipse class="st56" cx="101.6" cy="129.5" rx="20.4" ry="4"/>
		<ellipse class="st57" cx="101.6" cy="129.5" rx="19.2" ry="3.8"/>
		<ellipse class="st58" cx="101.6" cy="129.5" rx="18" ry="3.5"/>
		<ellipse class="st59" cx="101.6" cy="129.5" rx="16.9" ry="3.3"/>
		<ellipse class="st60" cx="101.6" cy="129.5" rx="15.7" ry="3.1"/>
	</g>
	<g>
		<path class="st61" d="M82.7,82.9c0,0-0.4,13-1.2,17.5c-1.1,5.5-4.5,11.2-4.7,13.1c-0.2,1.5,0.5,4,2.7,4.3c2.9,0.4,5.3-1.9,5.3-1.9
			s1.4,2.4,4.1,2.4c1.9,0,2.3-2.2,2.3-2.2s0.8,2,3.3,2c2.5,0,2.8-2,2.8-2s1.1,1.4,2.9,0.4c1.8-1,1.9-4.7,0.2-7.8
			c-1.7-3.1-4.8-4.7-7.9-4c-3.5,0.8-5.3,5.8-8,5.3c-1.2-0.2,1.9-7.4,2.4-11.8c0.6-5.3-1-14.8-1-14.8L82.7,82.9z"/>
		<path class="st61" d="M112.8,88.2c0,0,4.3,9.9,3.7,14.6c-0.6,4.7-2.1,8.7-3.1,10.5c-0.7,1.4-0.9,3.6,0.6,3.7
			c3,0.3,5.1-0.4,5.1-0.4s1.5,2.5,4.4,2.5c2,0,2.4-2.4,2.4-2.4s0.8,2.1,3.5,2.2c2.6,0,3-2.1,3-2.1s1.1,1.5,3.1,0.4
			c1.9-1,2.6-3.8,0.8-7.1c-1.8-3.3-4.8-5.5-8.1-4.8c-3.7,0.9-5.8,5.5-8.6,5.1c-1.3-0.2,0-6.5,0-9.2c0-2.7-2.9-13.1-2.9-13.1H112.8z"
			/>
		<path class="st62" d="M71.2,89.9c0,0-0.4,15.4-1.5,20.7c-1.3,6.5-5.3,13.3-5.6,15.4c-0.2,1.8,0.5,4.7,3.2,5
			c3.4,0.4,6.2-2.2,6.2-2.2s1.6,2.9,4.9,2.9c2.2,0,2.7-2.6,2.7-2.6s0.9,2.4,3.9,2.4c2.9,0,3.3-2.3,3.3-2.3s1.3,1.7,3.5,0.5
			c2.1-1.2,2.3-5.5,0.3-9.2c-2-3.7-5.7-5.6-9.3-4.7c-4.2,1-6.3,6.8-9.5,6.3c-1.4-0.2,2.3-8.7,2.8-13.9c0.7-6.2-1.1-17.5-1.1-17.5
			L71.2,89.9z"/>
		<path class="st61" d="M85.2,120c0,0,3,2.3,3.7,5.1c0.6,2.4,0,4.4,0,4.4l-0.4-0.4c0,0,0.5-2.8-0.3-4.7
			C87.3,122.6,85.2,120,85.2,120z"/>
		<path class="st63" d="M157.5,36.9c0,0,24.4-14.1,29.2-12.7c4.9,1.3,17.8,16.6,14.5,21.1c-3.3,4.5-8.5,4.7-10.9,3
			c-2.4-1.7-4.6-15.9-6.3-17.4c-1.7-1.5-25.6,9.2-25.6,9.2L157.5,36.9z"/>
		<path d="M182.7,57.1c0,0,22.5-1.4,24.5,0.9c2,2.3,4.4,30-0.1,33.5c-4.1,3.2-10.5,0.8-11.9-5.2c-1.1-4.9,7.3-19.9,7.1-22.6
			c-0.2-2.7-18.7-4.4-18.7-4.4L182.7,57.1z"/>
		<path class="st61" d="M81.6,129.7c0,0,0.2-2.7-0.3-4c-0.5-1.4-2.3-2.6-2.3-2.6s1.4,1.7,1.7,3c0.3,1.2,0.5,3,0.5,3L81.6,129.7z"/>
		<path class="st61" d="M74.2,125.1c0,0,0.3,1.3,0.2,2.4c0,0.8-0.3,2-0.3,2l-0.5-0.7c0,0,0.3-0.8,0.4-1.5
			C74.1,126.7,74.2,125.1,74.2,125.1z"/>
		<path class="st62" d="M106.5,95c0,0,5.8,12.2,5,17.8c-0.7,5.6-4.4,9.8-5.6,12c-0.9,1.7-0.4,4.1,0.8,4.8c3.1,1.9,7.4-0.9,7.4-0.9
			s1.7,3,5.2,3c2.3,0,2.9-2.8,2.9-2.8s1,2.5,4.1,2.6c3.1,0,3.5-2.5,3.5-2.5s1.3,1.8,3.7,0.5c2.2-1.2,3-4.5,0.9-8.4
			c-2.1-3.9-5.7-6.6-9.5-5.7c-4.4,1-7.6,6.5-11,6c-1.5-0.2,3.6-8.6,3.6-11.8c0-3.2-6.2-14.6-6.2-14.6H106.5z"/>
		<path class="st61" d="M127.4,120.4c0,0,2.1,1.4,2.8,4.4c0.6,2.5,0,4.6,0,4.6l-0.4-0.4c0,0,0.5-3-0.3-5
			C128.6,122.1,127.4,120.4,127.4,120.4z"/>
		<path class="st61" d="M122.5,129.6c0,0,0.2-2.8-0.3-4.3c-0.5-1.4-1.7-2.7-1.7-2.7s0.8,1.8,1.1,3.1c0.4,1.3,0.5,3.2,0.5,3.2
			L122.5,129.6z"/>
		<path class="st61" d="M114.7,124.8c0,0,0.3,1.3,0.2,2.5c0,0.8-0.3,2.1-0.3,2.1l-0.5-0.7c0,0,0.3-0.9,0.4-1.6
			C114.6,126.4,114.7,124.8,114.7,124.8z"/>
		<path class="st64" d="M65.7,30.9c0,0-12.9,2.3-29.9-0.5C21.7,28.2,8.4,20.3,6.7,22.2C5,24.2,9.3,40.7,24,46.4
			c9.8,3.8,19-7.5,20.4-6.6c1.4,0.9-3.6,7-8.4,10.3c-1.8,1.3,6.9,2.7,11.9-2.9c3-3.4,4.8-8.6,5.9-8.6c1.1,0-3.5,11.4-1.7,11.7
			c1.7,0.3,4.4-1.4,8.4-6.7c4.5-6,5.1-10.5,5.1-10.5L65.7,30.9z"/>
		<path class="st65" d="M183.7,59.4c0,0,6.5,3.3,7.6,8c1.1,4.7-1.1,6.4-2.4,6.6c-1.2,0.2-3.5-0.9-3.5-0.9l-7-7.3L183.7,59.4z"/>
		<path class="st66" d="M181.9,96.1l-5.8-15l6-18.3c0,0,2.8,0.1,3.6-4.7c0.7-4.8-5.4-10.6-10.4-11.4c-4.9-0.9-15.8-0.9-15.8-0.9
			s2.5-7.1-0.8-14.5c-3.3-7.4-15.7-18-16.7-16.8c-1,1.2,7.3,19.5,6.5,20.1c-0.8,0.6-5.9-8.2-9.9-11.5c-4.1-3.3-12.7-8.4-13.2-7.2
			c-0.6,1.2,10.1,16.7,10.1,16.7s-6.4-5.2-10.3-7.1c-4-1.9-10.4-3.8-10.7-2.8c-0.3,0.9,7.7,10.6,7.1,10.8
			c-0.6,0.2-54.7-4.1-55.9-2.5c-1.1,1.5-5.7,30.5-3.1,43.3c1.9,9.2,8.1,21.2,27.5,24.1c19.4,2.9,19.8-0.1,26-1.1
			c4.4-0.7,9.9,2.9,9.9,2.9s5.6,6.2,17.7,11.1c11.8,4.8,21.8,6,21.8,6L181.9,96.1z"/>
		
			<ellipse transform="matrix(0.1195 -0.9928 0.9928 0.1195 86.3616 238.7503)" class="st67" cx="177.8" cy="70.7" rx="9.8" ry="9.8"/>
		<ellipse transform="matrix(0.1196 -0.9928 0.9928 0.1196 84.7413 248.4351)" cx="182.5" cy="76.4" rx="2" ry="2"/>
		
			<ellipse transform="matrix(0.1196 -0.9928 0.9928 0.1196 84.6413 222.6285)" class="st3" cx="167.9" cy="63.6" rx="12.2" ry="12.2"/>
		<ellipse transform="matrix(0.1196 -0.9928 0.9928 0.1196 83.9795 234.454)" cx="174.2" cy="69.9" rx="2.3" ry="2.3"/>
		<path class="st66" d="M150.9,67.1c0,0,3.5-1.2,7.8,0c6,1.7,20.4,10.1,20.7,13.2c0.2,2.1-2.5,1.8-3,1.7c-0.4-0.1-5.4-0.8-13.6-5
			C154.6,72.7,150.9,67.1,150.9,67.1z"/>
		<path d="M126.1,100c0,0-4.7-9.9-3-19.6c1.7-9.6,9.6-18.4,9.6-18.4s-7.9,6.8-10.3,16.9c-2.3,9.7,2.1,20.2,2.1,20.2L126.1,100z"/>
		<ellipse transform="matrix(0.1195 -0.9928 0.9928 0.1195 45.0228 271.8668)" cx="175.8" cy="110.5" rx="20" ry="18.9"/>
		<ellipse transform="matrix(0.57 -0.8216 0.8216 0.57 -6.2242 191.8749)" class="st63" cx="180.2" cy="101.9" rx="4.4" ry="8.7"/>
	</g>
</g>
</svg>
