<?xml version="1.0" encoding="utf-8"?>
<!-- Generator: Adobe Illustrator 21.0.0, SVG Export Plug-In . SVG Version: 6.00 Build 0)  -->
<svg version="1.1" id="dog-seated" xmlns="http://www.w3.org/2000/svg" xmlns:xlink="http://www.w3.org/1999/xlink" x="0px" y="0px"
	 viewBox="0 0 583.5 619.4" style="enable-background:new 0 0 583.5 619.4;" xml:space="preserve">
<g id="shadow">
	<path style="fill:#FFFFFF;" d="M0,533.1c0,37,108.4,66.9,242,66.9c133.7,0,242-29.9,242-66.9c0-36.9-108.4-66.9-242-66.9
		C108.4,466.2,0,496.2,0,533.1z"/>
	<path style="fill:#FDFDFD;" d="M3.8,533.1C3.8,569.5,110.4,599,242,599s238.3-29.5,238.3-65.8c0-36.4-106.7-65.9-238.3-65.9
		C110.4,467.3,3.8,496.8,3.8,533.1z"/>
	<path style="fill:#FBFBFB;" d="M7.5,533.1c0,35.8,105,64.8,234.5,64.8s234.5-29,234.5-64.8s-105-64.8-234.5-64.8
		S7.5,497.3,7.5,533.1z"/>
	<ellipse style="fill:#F9F9F9;" cx="242" cy="533.1" rx="230.8" ry="63.8"/>
	<ellipse style="fill:#F7F7F7;" cx="242" cy="533.1" rx="227" ry="62.7"/>
	<ellipse style="fill:#F5F5F5;" cx="242" cy="533.1" rx="223.3" ry="61.7"/>
	<ellipse style="fill:#F3F3F3;" cx="242" cy="533.1" rx="219.5" ry="60.7"/>
	<ellipse style="fill:#F1F1F1;" cx="242" cy="533.1" rx="215.8" ry="59.6"/>
	<ellipse style="fill:#EFEFEF;" cx="242" cy="533.1" rx="212" ry="58.6"/>
	<ellipse style="fill:#EDEDED;" cx="242" cy="533.1" rx="208.2" ry="57.6"/>
	<ellipse style="fill:#EBEBEB;" cx="242" cy="533.1" rx="204.5" ry="56.5"/>
	<ellipse style="fill:#E9E9E9;" cx="242" cy="533.1" rx="200.7" ry="55.5"/>
	<ellipse style="fill:#E7E7E7;" cx="242" cy="533.1" rx="197" ry="54.4"/>
	<ellipse style="fill:#E5E5E5;" cx="242" cy="533.1" rx="193.2" ry="53.4"/>
	<ellipse style="fill:#E3E3E3;" cx="242" cy="533.1" rx="189.5" ry="52.4"/>
	<ellipse style="fill:#E1E1E1;" cx="242" cy="533.1" rx="185.7" ry="51.3"/>
	<ellipse style="fill:#DFDFDF;" cx="242" cy="533.1" rx="182" ry="50.3"/>
	<ellipse style="fill:#DDDDDD;" cx="242" cy="533.1" rx="178.2" ry="49.3"/>
	<ellipse style="fill:#DBDBDB;" cx="242" cy="533.1" rx="174.5" ry="48.2"/>
	<ellipse style="fill:#D9D9D9;" cx="242" cy="533.1" rx="170.7" ry="47.2"/>
	<ellipse style="fill:#D7D7D7;" cx="242" cy="533.1" rx="167" ry="46.1"/>
	<ellipse style="fill:#D5D5D5;" cx="242" cy="533.1" rx="163.2" ry="45.1"/>
	<ellipse style="fill:#D3D3D3;" cx="242" cy="533.1" rx="159.4" ry="44.1"/>
	<ellipse style="fill:#D1D1D1;" cx="242" cy="533.1" rx="155.7" ry="43"/>
	<ellipse style="fill:#CFCFCF;" cx="242" cy="533.1" rx="151.9" ry="42"/>
	<ellipse style="fill:#CDCDCD;" cx="242" cy="533.1" rx="148.2" ry="41"/>
	<ellipse style="fill:#CBCBCB;" cx="242" cy="533.1" rx="144.4" ry="39.9"/>
	<ellipse style="fill:#C9C9C9;" cx="242" cy="533.1" rx="140.7" ry="38.9"/>
	<ellipse style="fill:#C7C7C7;" cx="242" cy="533.1" rx="136.9" ry="37.8"/>
	<ellipse style="fill:#C5C5C5;" cx="242" cy="533.1" rx="133.2" ry="36.8"/>
	<ellipse style="fill:#C3C3C3;" cx="242" cy="533.1" rx="129.4" ry="35.8"/>
	<ellipse style="fill:#C1C1C1;" cx="242" cy="533.1" rx="125.7" ry="34.7"/>
	<ellipse style="fill:#BFBFBF;" cx="242" cy="533.1" rx="121.9" ry="33.7"/>
	<ellipse style="fill:#BDBDBD;" cx="242" cy="533.1" rx="118.1" ry="32.7"/>
	<ellipse style="fill:#BBBBBB;" cx="242" cy="533.1" rx="114.4" ry="31.6"/>
	<ellipse style="fill:#B9B9B9;" cx="242" cy="533.1" rx="110.6" ry="30.6"/>
	<ellipse style="fill:#B7B7B7;" cx="242" cy="533.1" rx="106.9" ry="29.5"/>
	<ellipse style="fill:#B5B5B5;" cx="242" cy="533.1" rx="103.1" ry="28.5"/>
	<ellipse style="fill:#B3B3B3;" cx="242" cy="533.1" rx="99.4" ry="27.5"/>
	<ellipse style="fill:#B1B1B1;" cx="242" cy="533.1" rx="95.6" ry="26.4"/>
	<path style="fill:#AFAFAF;" d="M150.2,533.1c0,14,41.1,25.4,91.9,25.4c50.7,0,91.9-11.4,91.9-25.4s-41.1-25.4-91.9-25.4
		C191.3,507.7,150.2,519.1,150.2,533.1z"/>
	<path style="fill:#ADADAD;" d="M153.9,533.1c0,13.4,39.5,24.4,88.1,24.4c48.7,0,88.1-10.9,88.1-24.4c0-13.4-39.4-24.4-88.1-24.4
		C193.4,508.8,153.9,519.7,153.9,533.1z"/>
	<path style="fill:#ABABAB;" d="M157.7,533.1c0,12.9,37.8,23.3,84.4,23.3s84.4-10.4,84.4-23.3c0-12.9-37.8-23.3-84.4-23.3
		C195.4,509.8,157.7,520.3,157.7,533.1z"/>
	<path style="fill:#A9A9A9;" d="M161.4,533.1c0,12.3,36.1,22.3,80.6,22.3s80.6-10,80.6-22.3s-36.1-22.3-80.6-22.3
		C197.5,510.9,161.4,520.8,161.4,533.1z"/>
	<path style="fill:#A7A7A7;" d="M165.2,533.1c0,11.7,34.4,21.2,76.9,21.2c42.4,0,76.8-9.5,76.8-21.2s-34.4-21.2-76.8-21.2
		C199.6,511.9,165.2,521.4,165.2,533.1z"/>
	<path style="fill:#A5A5A5;" d="M168.9,533.1c0,11.2,32.7,20.2,73.1,20.2s73.1-9,73.1-20.2c0-11.1-32.7-20.2-73.1-20.2
		C201.7,512.9,168.9,522,168.9,533.1z"/>
	<path style="fill:#A3A3A3;" d="M172.7,533.1c0,10.6,31.1,19.2,69.4,19.2s69.3-8.6,69.3-19.2c0-10.6-31-19.2-69.3-19.2
		C203.7,514,172.7,522.6,172.7,533.1z"/>
	<path style="fill:#A1A1A1;" d="M176.4,533.1c0,10,29.4,18.1,65.6,18.1s65.6-8.1,65.6-18.1S278.2,515,242,515
		S176.4,523.1,176.4,533.1z"/>
	<path style="fill:#9F9F9F;" d="M180.2,533.1c0,9.4,27.7,17.1,61.8,17.1c34.2,0,61.8-7.7,61.8-17.1c0-9.4-27.7-17.1-61.8-17.1
		S180.2,523.7,180.2,533.1z"/>
	<path style="fill:#9D9D9D;" d="M183.9,533.1c0,8.9,26,16.1,58.1,16.1s58.1-7.2,58.1-16.1c0-8.9-26-16.1-58.1-16.1
		C210,517.1,183.9,524.3,183.9,533.1z"/>
	<path style="fill:#9B9B9B;" d="M187.7,533.1c0,8.3,24.3,15,54.3,15s54.3-6.7,54.3-15s-24.3-15-54.3-15
		C212,518.1,187.7,524.8,187.7,533.1z"/>
	<path style="fill:#999999;" d="M191.5,533.1c0,7.7,22.7,14,50.6,14s50.6-6.3,50.6-14s-22.6-14-50.6-14
		C214.1,519.2,191.5,525.4,191.5,533.1z"/>
</g>
<path id="ear2" d="M265.4,151.8c0,0-55.8-82.7-49.3-99.3s37.4,8.9,52.8-5.3c15.4-14.3,14.2-35-5.9-39.8c-20.2-4.8-80.8,28.5-80.8,38
	s74.2,106.4,74.2,106.4H265.4z"/>
<path id="ear1" d="M321.3,104.7c0,0-40.4-87.6-33.3-97.8s73.6-10.2,77.8,8.2c4.2,18.4-5.3,25.5-17.2,27.3
	c-11.9,1.8-36.8-17.8-41-13.1c-4.2,4.8,19.4,75.4,19.4,75.4H321.3z"/>
<g id="leg2">
	<path style="fill:#B66F29;" d="M319.8,506.7c0,0,73.2,53.8,75.2,58.4c1.9,4.6,10.1,24.2,34.3,22.2c29.9-2.5,16-41.6,18-45.1
		s4.7-5.6,4.7-5.6s3.5,3.3,10.8,3.5s14.7-9.2,14.7-19.7c0-13.6-4.1-30.4-15.1-30.4c-7,0-8.7,5.2-8.7,5.2s-3.2-6-11.3-6
		c-6.4,0-8.3,6.8-8.3,6.8s-2-5.8-11.1-5.7c-9.7,0.1-15.2,8.9-18.7,20.1c-2.3,7.4-3.3,19.4-3.3,19.4L333.9,494L319.8,506.7z"/>
	<path style="fill:#754C24;" d="M401,529.7c0,0-0.4,6.1-0.5,10.7c-0.1,4.6,0.3,12.5,0.3,12.5s-1.1-7.5-1.3-12.7
		c-0.2-5.2,0-11.3,0-11.3L401,529.7z"/>
	<path style="fill:#754C24;" d="M434.3,495.3c0,0,4.3,6.4,4.3,17.7c0,10-2.7,23.5-11.4,25c-7.4,1.2-13.8-11.2-13.8-11.2
		s8,10.8,12.6,9.8c7.4-1.4,11.6-14,11-23.7c-0.6-9.3-4.8-19.6-4.8-19.6L434.3,495.3z"/>
	<path style="fill:#754C24;" d="M454.3,493.9c0,0,4.4,8.1,5.1,18.7c0.6,9.5-1.3,21.6-7.7,24.3c-8.9,3.8-17.9-3.4-17.9-3.4
		s11.5,4.6,16.8,1.7c5.3-2.9,8.1-13.4,7.2-22.3c-0.9-8.9-4.2-18.2-4.2-18.2L454.3,493.9z"/>
	<ellipse style="fill:#CCCCCC;" cx="428.3" cy="562.1" rx="11.6" ry="14.7"/>
</g>
<path id="tail" style="fill:#1A1A1A;" d="M122,453.8c0,0-25.8-7.6-50.7,3.6c-24.9,11.3-36.2,45.1-32.1,46.9c4.2,1.8,5.9-7.4,14.2-14
	c7.1-5.6,14.8-6.2,14.8-6.2s-17.2,11-16.9,31.2s14.5,39.5,17.5,38.9s-1.2-1.8,1.5-17.8s9.8-19.6,9.8-19.6s-1.3,23.3,13.6,39.2
	c14.3,15.1,30.9,12.5,33.5,10.7c2.7-1.8-10.5-7.3-14.5-15.3c-4.6-9.2-4.6-15.7-4.6-15.7s11.7,15.1,32.6,6.4
	c16.7-7,17.1-24.3,15.6-25.2s-35.6,4.8-47.2-3.6c-11.6-8.3-11-18.7-8-24.6s25.2-15.7,25.2-15.7L122,453.8z"/>
<path id="body" style="fill:#F7931E;" d="M479.8,144.2c0,0-25.5,12.2-42.2,14.5c-16.6,2.4-41.6-4.2-41.6-4.2l-13-50.8
	c0,0-13.1-30.2-23.8-24.4c-10.7,5.8-12.1,19-20.6,22.6c-11.7,5-24.5-17.4-43.8-7.9s-18.4,56.1-24.7,58.8c-6.2,2.7-18-18.1-50.5-24.3
	c-33.1-6.4-64,7.5-57.6,8.9c23.9,5.1,46.6,20.5,44.4,25.4c-2.2,4.9-25.1-1.1-44.4,7.6c-19.3,8.7-23.4,24.8-19.3,23.2
	c19.1-7.8,43.6-3.6,44.5,0c0.9,3.6-19.8,7.5-32.3,22.7c-8.6,10.5-11,30.7-10,29.8c15.4-14,40.1-20,40.5-16.9s-47.2,56.1-59.7,124.7
	s-11.6,118.5,0,135.4s141.6,60.6,196.8,46.3s80.2-69.5,73-114c-7.1-44.5-24.1-47.2-23.2-63.2s21.4-28.5,21.4-28.5s37,3.1,77.5-29.8
	c26.6-21.6,59.2-89.5,59.2-89.5L479.8,144.2z"/>
<g id="eyesopen">
	<ellipse style="fill:#CCCCCC;" cx="366.8" cy="132" rx="32.7" ry="32.6"/>
	<path d="M371.5,114.2c-1.8,2.1,0,6.6,4,10s8.7,4.4,10.5,2.3c1.8-2.1,0-6.6-4-10S373.3,112.1,371.5,114.2z"/>
	<ellipse style="fill:#FFFFFF;" cx="331.9" cy="157.9" rx="42.2" ry="42.1"/>
	<path d="M343.7,130.5c-2.3,2.8,0,8.5,5.2,12.9s11.3,5.7,13.6,2.9c2.3-2.7,0-8.5-5.2-12.9C352.1,129.1,346,127.8,343.7,130.5z"/>
	<path style="fill:#F7931E;" d="M407.3,157c0,0,3.5-15.4-3.5-18.5s-28.9,4.9-49,26.2c-20,21.3-20.7,50.2-20.7,50.2L407.3,157z"/>
	<path style="fill:#F7931E;" d="M335.3,204.7c0,0-4.6-8.6-17.9-13.6c-13.4-5-40.1,3.6-40.1,3.6L335.3,204.7z"/>
</g>
<g id="eyesclosed">
	<ellipse style="fill:#E5861F;" cx="366.8" cy="132" rx="32.7" ry="32.6"/>
	<path style="fill:#603813;" d="M393.3,112.9c0,0,0.8,1.1,1,1.5c0.3,0.4,0.9,1.5,0.9,1.5s-13.8,2.9-26.5,9.4
		c-9.6,4.8-18.5,12.1-22.2,19.4l-1.9-2.5C344.7,142.2,353.9,119.2,393.3,112.9z"/>
	<ellipse style="fill:#E5861F;" cx="331.9" cy="157.9" rx="42.2" ry="42.1"/>
	<path style="fill:#603813;" d="M362.7,128.3l3.5,3.7c0,0-20.9,5.5-39.3,16c-13.9,7.9-26.6,19.3-31.6,30.4l-3-4.6
		C292.4,173.9,304.7,140.5,362.7,128.3z"/>
	<path style="fill:#F7931E;" d="M407.3,157c0,0,3.5-15.4-3.5-18.5s-28.9,4.9-49,26.2c-20,21.3-20.7,50.2-20.7,50.2L407.3,157z"/>
	<path style="fill:#F7931E;" d="M335.3,204.7c0,0-4.6-8.6-17.9-13.6c-13.4-5-40.1,3.6-40.1,3.6L335.3,204.7z"/>
</g>
<path id="mounth" d="M394,329.7c0,0-61.2-2.2-93.8-19.6c-43.3-23.2-50.9-46.5-47.8-60.9c2.3-10.8,10.7-17.5,10.7-17.5
	s-12.5,5.6-14.8,19.6c-1.8,10.6,5,44.2,55.3,66.8c34.8,15.6,83.2,17,83.2,17L394,329.7z"/>
<path id="hand" style="fill:#B66F29;" d="M223.6,393.9c0,0,57.5,45.4,62.7,47.8c10.5,4.6,18.8-14.5,28.6-8.6
	c6.8,4,13.9,17.7,8.2,23.3c-7,6.9-25.6-4.6-26.9,3.8c-1.4,8.4,19.6,2.7,25.1,11.1c4.9,7.5-4.7,24.2-15.6,20.1
	c-10.9-4.2-13.1-24.1-17.6-23.1s4.2,17.6,0.8,23.5c-4.5,7.6-15,11.3-23.5-0.2c-9.3-12.7,10.2-26.3,5.8-32.5
	c-4.4-6.2-52-54.4-52-54.4L223.6,393.9z"/>
<g id="leg1">
	<path style="fill:#B66F29;" d="M188.6,518.3c0,0,54.1,93.2,78.8,94.6c24.7,1.4,29.1-42.3,29.1-42.3s1.6,4.1,8.4,4.7
		c6.8,0.7,16.3-3.9,21.9-13.7c5.5-9.5,7.4-20,1.2-25.6c-5.5-4.9-12.2-0.6-12.2-0.6s-1.7-12.6-12.2-16.3c-12.5-4.3-16.7,1.7-16.7,1.7
		s-4.2-9.6-16-11.2c-10.5-1.3-18.3,3.3-20.9,10.8c-2.7,7.5,1.9,45.6-0.6,47.8S207.5,523,207.5,523L188.6,518.3z"/>
	<path style="fill:#754C24;" d="M260.3,541c0,0-0.7,16.8,7.8,20.2c9.6,3.8,17.8-3.2,21.3-9.6c5.9-10.7-1.7-31.5-1.7-31.5l-0.9,0.9
		c0,0,6.3,21.5,1.3,30.3c-3.4,5.9-13.2,11.4-19.3,8.5C263.6,557.5,260.3,541,260.3,541z"/>
	<path style="fill:#754C24;" d="M315.7,535.6c0,0-0.7,14.1-4.9,20.3c-3.2,4.7-6.8,12-15.4,12c-6.1,0-14.2-7.7-14.2-7.7
		s3.7,9.2,13.6,9.6c8.4,0.3,14.7-7.4,17.9-13.9c4.6-9.3,4.2-20.8,4.2-20.8L315.7,535.6z"/>
	<path style="fill:#CCCCCC;" d="M284.1,588.2c-0.3,7.4-6,13.3-12.7,13.1s-11.9-6.4-11.6-13.9s6-13.3,12.7-13.1
		C279.2,574.6,284.4,580.8,284.1,588.2z"/>
</g>
<path id="hand_1_" style="fill:#B66F29;" d="M393.8,399.7c-1.3-3.3-4.2-3.1-4.2-3.1s-21.7,32.1-28.4,30.8c-6.8-1.2-10.7-9-19.8-5.2
	c-9.1,3.8-10.8,18.8-5,25s13.2-9,17.4-3.2c4.1,5.8-13.4,15.6-9.6,24.1s19.9,10.7,23.8,6.8c3.9-3.9-2-18.6,4.2-21.2s2.5,13.9,8.4,17
	s18.7-2.2,18.1-14s-15-17.4-14.8-22.6c0.2-5.1,10-22.9,10-22.9S395.2,403.4,393.8,399.7z"/>
<g id="nose">
	<ellipse transform="matrix(0.6224 -0.7827 0.7827 0.6224 56.0442 474.3851)" cx="519.7" cy="179.1" rx="59.5" ry="66.3"/>
	<path style="fill:#333333;" d="M514.9,136.6c6-7.6,21.4-5.4,34.4,4.9c13,10.3,18.5,24.8,12.5,32.4c-6,7.6-21.4,5.4-34.4-4.9
		C514.4,158.7,508.8,144.2,514.9,136.6z"/>
</g>
</svg>
