<?xml version="1.0" encoding="utf-8"?>
<!-- Generator: Adobe Illustrator 21.0.0, SVG Export Plug-In . SVG Version: 6.00 Build 0)  -->
<svg version="1.1" id="Dog-choseavatar" xmlns="http://www.w3.org/2000/svg" xmlns:xlink="http://www.w3.org/1999/xlink" x="0px"
	 y="0px" viewBox="0 0 769.1 723.3" style="enable-background:new 0 0 769.1 723.3;" xml:space="preserve">
<g id="shadow">
	<g>
		<ellipse style="fill:#FFFFFF;" cx="258.1" cy="688.1" rx="208.5" ry="35.2"/>
		<ellipse style="fill:#FDFDFD;" cx="258.1" cy="688.1" rx="205.3" ry="34.6"/>
		<ellipse style="fill:#FBFBFB;" cx="258.1" cy="688.1" rx="202.1" ry="34"/>
		<ellipse style="fill:#F9F9F9;" cx="258.1" cy="688.1" rx="198.9" ry="33.7"/>
		<ellipse style="fill:#F7F7F7;" cx="258.1" cy="688.1" rx="195.7" ry="33.2"/>
		<ellipse style="fill:#F5F5F5;" cx="258.1" cy="688.1" rx="192.5" ry="32.6"/>
		<ellipse style="fill:#F3F3F3;" cx="258.1" cy="688.1" rx="189" ry="32"/>
		<ellipse style="fill:#F1F1F1;" cx="258.1" cy="688.1" rx="185.8" ry="31.4"/>
		<ellipse style="fill:#EFEFEF;" cx="258.1" cy="688.1" rx="182.6" ry="30.8"/>
		<ellipse style="fill:#EDEDED;" cx="258.1" cy="688.1" rx="179.5" ry="30.2"/>
		<ellipse style="fill:#EBEBEB;" cx="258.1" cy="688.1" rx="176.3" ry="29.7"/>
		<ellipse style="fill:#E9E9E9;" cx="258.1" cy="688.1" rx="173.1" ry="29.4"/>
		<ellipse style="fill:#E7E7E7;" cx="258.1" cy="688.1" rx="169.9" ry="28.8"/>
		<ellipse style="fill:#E5E5E4;" cx="258.1" cy="688.1" rx="166.7" ry="28.2"/>
		<ellipse style="fill:#E3E3E2;" cx="258.1" cy="688.1" rx="163.2" ry="27.6"/>
		<ellipse style="fill:#E1E1E0;" cx="258.1" cy="688.1" rx="160" ry="27"/>
		<ellipse style="fill:#DFDFDE;" cx="258.1" cy="688.1" rx="156.8" ry="26.5"/>
		<ellipse style="fill:#DDDDDC;" cx="258.1" cy="688.1" rx="153.6" ry="25.9"/>
		<ellipse style="fill:#DBDBDA;" cx="258.1" cy="688.1" rx="150.4" ry="25.3"/>
		<ellipse style="fill:#D9D9D8;" cx="258.1" cy="688.1" rx="147.2" ry="24.7"/>
		<ellipse style="fill:#D7D7D6;" cx="258.1" cy="688.1" rx="144" ry="24.4"/>
		<ellipse style="fill:#D5D5D4;" cx="258.1" cy="688.1" rx="140.8" ry="23.8"/>
		<ellipse style="fill:#D3D3D2;" cx="258.1" cy="688.1" rx="137.3" ry="23.3"/>
		<ellipse style="fill:#D1D1D0;" cx="258.1" cy="688.1" rx="134.1" ry="22.7"/>
		<ellipse style="fill:#CFCFCE;" cx="258.1" cy="688.1" rx="130.9" ry="22.1"/>
		<ellipse style="fill:#CDCDCC;" cx="258.1" cy="688.1" rx="127.7" ry="21.5"/>
		<ellipse style="fill:#CACACA;" cx="258.1" cy="688.1" rx="124.5" ry="20.9"/>
		<ellipse style="fill:#C8C8C8;" cx="258.1" cy="688.1" rx="121.3" ry="20.4"/>
		<ellipse style="fill:#C6C6C6;" cx="258.1" cy="688.1" rx="118.1" ry="20.1"/>
		<ellipse style="fill:#C4C4C4;" cx="258.1" cy="688.1" rx="114.9" ry="19.5"/>
		<ellipse style="fill:#C2C2C2;" cx="258.1" cy="688.1" rx="111.4" ry="18.9"/>
		<ellipse style="fill:#C0C0C0;" cx="258.1" cy="688.1" rx="108.2" ry="18.3"/>
		<ellipse style="fill:#BEBEBE;" cx="258.1" cy="688.1" rx="105" ry="17.7"/>
		<ellipse style="fill:#BCBCBC;" cx="258.1" cy="688.1" rx="101.8" ry="17.2"/>
		<ellipse style="fill:#BABABA;" cx="258.1" cy="688.1" rx="98.6" ry="16.6"/>
		<ellipse style="fill:#B8B8B8;" cx="258.1" cy="688.1" rx="95.4" ry="16"/>
		<ellipse style="fill:#B6B6B6;" cx="258.1" cy="688.1" rx="92.2" ry="15.7"/>
		<ellipse style="fill:#B4B4B4;" cx="258.1" cy="688.1" rx="89" ry="15.1"/>
		<ellipse style="fill:#B2B2B2;" cx="258.1" cy="688.1" rx="85.5" ry="14.5"/>
		<ellipse style="fill:#B0B0AF;" cx="258.1" cy="688.1" rx="82.3" ry="14"/>
		<ellipse style="fill:#AEAEAD;" cx="258.1" cy="688.1" rx="79.1" ry="13.4"/>
		<ellipse style="fill:#ACACAB;" cx="258.1" cy="688.1" rx="75.9" ry="12.8"/>
		<ellipse style="fill:#AAAAA9;" cx="258.1" cy="688.1" rx="72.7" ry="12.2"/>
		<ellipse style="fill:#A8A8A7;" cx="258.1" cy="688.1" rx="69.5" ry="11.6"/>
		<ellipse style="fill:#A6A6A5;" cx="258.1" cy="688.1" rx="66.3" ry="11.1"/>
		<ellipse style="fill:#A4A4A3;" cx="258.1" cy="688.1" rx="63.1" ry="10.8"/>
		<ellipse style="fill:#A2A2A1;" cx="258.1" cy="688.1" rx="59.6" ry="10.2"/>
		<ellipse style="fill:#A0A09F;" cx="258.1" cy="688.1" rx="56.4" ry="9.6"/>
		<ellipse style="fill:#9E9E9D;" cx="258.1" cy="688.1" rx="53.2" ry="9"/>
		<ellipse style="fill:#9C9C9B;" cx="258.1" cy="688.1" rx="50" ry="8.4"/>
		<ellipse style="fill:#9A9A99;" cx="258.1" cy="688.1" rx="46.8" ry="7.9"/>
		<ellipse style="fill:#989897;" cx="258.1" cy="688.1" rx="43.6" ry="7.3"/>
	</g>
</g>
<g id="baloon">
	<g>
		<path style="fill:#A7A8AC;" d="M744.4,59.9c-10.2-39.8-32.3-46.2-60.5-50C639.7,4,442.8-0.6,411.6,2.9
			c-24.7,2.6-40.7,19.8-50.9,51.8c-8.4,26.5-27.3,69.5-30,89.6c-3.2,25.6,2.9,64.9,41.6,76.5c34.6,10.2,69.5,13.4,136.7,20.4
			c42.5,4.4,62.2,8.1,51.8,20.4c-14.3,16.9-75,42.2-61.4,43.9c43,5.5,91.3,0,122.4-8.4c21.8-5.8,43-16.6,57-31.4
			c32.9,4.9,30.5,6.4,39.8,6.4c30.2,0.3,46-18.3,49.7-45.4C773.1,195.1,750.5,84.3,744.4,59.9z"/>
		<path style="fill:#FFFFFF;" d="M747,58.7c-9.9-39.3-34-47.1-61.9-50.9C641.7,2,448.9-2.1,418,1.1c-24.4,2.6-40.1,19.5-50,51.2
			c-8.1,26.2-26.8,67.8-29.1,87.3c-3.2,25.3,2.9,64,41,75.3c33.7,10.2,68.3,13.1,134.4,20.1c41.9,4.4,61.1,7.9,50.9,20.1
			c-14,16.6-73.9,41.9-60.5,43.3c39,3.5,92.2-0.9,122.4-9.9c21.8-6.7,40.1-14.8,53.8-29.4c32.3,4.7,29.4,6.4,38.7,6.4
			c29.7,0.3,42.2-19.5,46.5-46.2C771.4,185.8,752.8,82.6,747,58.7z"/>
	</g>
	<path style="fill:#FFFFFF;stroke:#B8D432;stroke-width:1.5;stroke-miterlimit:10;" d="M733.9,66c-9.3-36.9-32-44.5-58.2-48
		c-40.7-5.5-220.2-9.3-249.3-6.1c-23,2.6-37.8,18.3-47.1,48.3c-7.9,24.7-24.7,59.9-26.8,78.2c-2.9,23.8,2.6,60.2,38.4,70.7
		c31.7,9.6,91.9,15.7,154.1,22.4c39.3,4.1,47.7,8.7,38.1,20.4c-13.1,15.7-66.9,39.8-50,39c29.1-1.7,59.6-4.7,90.5-14.5
		c17.2-5.5,37.5-14.3,50.6-27.9c30.2,4.4,26.2,5.8,34.6,5.8c27.9,0.3,39.6-16,43.6-41.3C757.4,181.7,739.7,88.7,733.9,66z"/>
</g>
<g id="text">
	<path d="M421.4,47.9c0.1-1,0.5-1.8,1.3-2.5s1.6-1,2.5-1c1.1,0.1,1.8,0.9,2,2.3C427,62.4,427.3,74,428,81.4c0.7-1,2-3.3,3.7-6.6
		c1.8-3.4,3.4-6.1,4.9-8.3c1.5-2.1,2.8-3.1,4-3c0.8,0.1,1.5,0.6,2,1.5c2.3,8.8,4.3,15,6.1,18.7c0.1-0.5,0.5-1.9,1.2-4.2
		c0.6-2.3,1.1-3.8,1.3-4.5c0.2-0.7,0.6-2.1,1.1-4.1c0.6-2,1-3.5,1.2-4.4c1.8-7,3-12.7,3.7-17.2c0.3-0.8,0.8-1.5,1.5-2
		s1.5-0.8,2.2-0.7c1,0.1,1.7,0.9,1.9,2.3c-0.7,4.5-1.4,8.3-2.3,11.4s-1.5,5.3-1.8,6.7c-0.4,1.3-1,3.5-1.8,6.4
		c-0.8,3-1.3,4.8-1.5,5.6c-0.2,0.8-0.8,2.9-1.8,6.5s-1.5,5.5-1.7,5.9c-0.8,1.6-1.9,2.4-3.2,2.2c-0.7-0.1-1.3-0.4-1.9-1
		c-2-3.2-3.7-7.1-5.3-11.7c-1.5-4.6-2.5-7.5-2.9-8.5c-1.4,2-3.1,5-5.3,9c-2.2,4-3.9,6.9-5.1,8.9c-1,1-2,1.5-3,1.4
		c-2.2-0.2-3.4-6.2-3.5-18c0-0.2-0.1-2.5-0.2-6.8C421.5,62.4,421.4,56.1,421.4,47.9z"/>
	<path d="M489.6,79.6c-0.3,3-0.6,5.8-1.2,8.6c-0.5,2.8-0.8,4.6-1,5.5s-0.6,1.6-1.5,2.1c-0.8,0.5-1.6,0.8-2.3,0.7
		c-1.3-0.1-1.9-0.8-1.8-2v-0.4l1.5-12.6l0.3-3.7c0.4-4.5-0.3-7.4-2.1-8.6c-0.8-0.6-1.9-1-3.2-1.1c-3.9-0.3-6,1-6.3,4.1
		c-0.3,3.6-0.5,6.6-0.5,9.1s-0.2,4.6-0.3,6.3c-0.2,1.7-0.3,3.4-0.5,4.9l-0.2,0.3c-0.3,0.7-0.8,1.3-1.6,1.8c-0.7,0.5-1.4,0.7-2.1,0.6
		c-1.3-0.1-2-0.8-2-2h-0.2c0.6-7.1,1-15,1.1-23.5c0.1-8.6,0.4-16.3,1-23.3c0.3-1.1,1.1-1.9,2.2-2.4c0.4-0.2,0.9-0.2,1.5-0.2
		s1.1,0.4,1.5,1s0.6,1.6,0.7,3c0,1.4,0,2.7-0.1,4.1c-0.1,1.4-0.2,3.2-0.4,5.6c-0.2,2.3-0.2,4.4-0.3,6.2c2.4-1,4.8-1.5,7.1-1.2
		c2.3,0.2,4.1,0.7,5.5,1.5c2.4,1.5,3.9,3.7,4.6,6.7C489.7,73.7,489.8,76.7,489.6,79.6z"/>
	<path d="M502.6,66.2c1.9-0.9,3.9-1.2,6.1-1s4.2,1.3,5.8,3.3c3.1,3.8,4.3,8.8,3.8,15.1c-0.3,3.2-1.5,6.6-3.6,9.9
		c-1.1,1.6-2.4,2.9-3.9,3.9c-1.6,1-3.3,1.4-5.3,1.2c-2-0.2-3.8-0.9-5.5-2.2c-1.7-1.3-3.1-2.8-4.2-4.6c-2.2-3.8-3.1-7.3-2.8-10.5
		c0.4-4.3,2-8.1,4.9-11.5C499.1,68.3,500.7,67.1,502.6,66.2z M507.4,93.6c1.4-0.6,2.6-1.7,3.5-3.3s1.4-3.3,1.5-5.1s0.2-3.4,0.1-4.8
		c-0.1-1.4-0.4-2.8-0.8-4.1c-0.4-1.3-1-2.5-1.9-3.5s-1.9-1.7-3.1-2c-2.1,0.2-4,1.2-5.5,3.2s-2.4,4-2.6,6c-0.2,2.1,0.5,4.7,2,7.9
		c0.7,1.5,1.7,2.7,2.9,3.8C504.6,92.8,506,93.5,507.4,93.6z"/>
	<path d="M559.5,55.6c0.2-2.6,1.2-3.8,2.8-3.7c0.9,0.1,1.5,0.3,1.8,0.6s0.6,0.8,0.7,1.6c0.1,0.8,0.1,2.4-0.1,4.9s-0.4,5.5-0.6,9.1
		c-0.2,3.7-0.3,6.5-0.5,8.7c-0.1,2.1-0.2,5.4-0.3,9.9s-0.3,8.2-0.5,11.1l-0.5,4c-0.2,0.9-0.6,1.5-1.2,1.7c-0.5,0.2-1.3,0.3-2.3,0.2
		s-1.6-0.8-1.7-2l-0.1-1.2c-2.2,1.4-4.7,2-7.5,1.8c-3.7-0.3-6.5-2-8.4-4.9s-2.7-6.2-2.4-9.8c0.3-3.6,1.5-7.2,3.4-10.6
		c2-3.4,4.7-5.8,8.1-7.1c1.9-0.7,4-0.9,6.3-0.7c0.9,0.1,1.5,0.2,2,0.2l0.4-5.7l0.5-4.6L559.5,55.6z M556.7,94.6
		c0.3-0.6,0.5-1.9,0.7-3.8s0.3-3,0.3-3.2l0.1-1.4c0.2-2.6,0.1-5-0.2-7.2c-0.4-2.2-1.1-3.3-2-3.4c-1.3-0.1-2.8-0.1-4.5,0
		c-1.6,0.1-2.8,0.6-3.4,1.2c-1.8,1.9-2.8,5.2-3.2,9.8c-0.3,3.3,0.5,5.9,2.5,7.9c1.1,1.2,2.4,1.8,3.8,1.9c1.4,0.1,2.7,0,3.8-0.4
		C555.7,95.7,556.4,95.2,556.7,94.6z"/>
	<path d="M578.4,72.8c1.9-0.9,3.9-1.2,6.1-1c2.2,0.2,4.2,1.3,5.8,3.3c3.1,3.8,4.3,8.8,3.8,15.1c-0.3,3.2-1.5,6.6-3.6,9.9
		c-1.1,1.6-2.4,2.9-3.9,3.9c-1.6,1-3.3,1.4-5.3,1.2c-2-0.2-3.8-0.9-5.5-2.2c-1.7-1.3-3.1-2.8-4.2-4.6c-2.2-3.8-3.1-7.3-2.8-10.5
		c0.4-4.3,2-8.1,4.9-11.5C575,74.9,576.6,73.7,578.4,72.8z M583.2,100.2c1.4-0.6,2.6-1.7,3.5-3.3c0.9-1.6,1.4-3.3,1.5-5.1
		c0.2-1.8,0.2-3.4,0.1-4.8c-0.1-1.4-0.4-2.8-0.8-4.1c-0.4-1.3-1-2.5-1.9-3.5s-1.9-1.7-3.1-2c-2.1,0.2-4,1.2-5.5,3.2s-2.4,4-2.6,6
		c-0.2,2.1,0.5,4.7,2,7.9c0.7,1.5,1.7,2.7,2.9,3.8C580.4,99.5,581.8,100.1,583.2,100.2z"/>
	<path d="M614.1,77.8c0.1-0.9,0.4-1.7,1-2.3c0.6-0.6,1.3-0.9,2.2-0.8c0.8,0.1,1.5,0.6,2.1,1.7c0.8,3.8,1.7,7.3,2.7,10.4
		s1.9,6,2.8,8.6c0.9,2.6,1.5,4.6,1.9,6c1.1-2.9,2.6-7,4.4-12.3s3.1-9.1,3.9-11.3c0.3-1,1.4-1.5,3.3-1.3c0.6,0.1,1.2,0.3,1.8,0.8
		s0.8,1,0.8,1.5s-0.1,1-0.3,1.5c-8.9,23.5-15.4,39.6-19.3,48.3c-0.5,1.3-1.4,1.8-2.5,1.7c-0.7-0.1-1.3-0.4-1.8-1.1
		c-0.5-0.7-0.7-1.5-0.6-2.5c0.1-1,0.6-2.7,1.5-4.9c0.9-2.3,1.9-4.7,3.1-7.4c1.2-2.7,1.9-4.5,2.3-5.5c-1-2-2.5-6.5-4.6-13.4
		C616.9,88.7,615.3,82.8,614.1,77.8z"/>
	<path d="M653.9,79.5c1.9-0.9,3.9-1.2,6.1-1c2.2,0.2,4.2,1.3,5.8,3.3c3.1,3.8,4.3,8.8,3.8,15c-0.3,3.2-1.5,6.6-3.6,9.9
		c-1.1,1.6-2.4,2.9-3.9,3.9c-1.6,1-3.3,1.4-5.3,1.2c-2-0.2-3.8-0.9-5.5-2.2c-1.7-1.3-3.1-2.8-4.2-4.6c-2.2-3.8-3.1-7.3-2.8-10.5
		c0.4-4.3,2-8.1,4.9-11.5C650.4,81.6,652,80.4,653.9,79.5z M658.7,106.9c1.4-0.6,2.6-1.7,3.5-3.3s1.4-3.3,1.5-5.1s0.2-3.4,0.1-4.8
		c-0.1-1.4-0.4-2.8-0.8-4.1s-1-2.5-1.9-3.5s-1.9-1.7-3.1-2c-2.1,0.2-4,1.2-5.5,3.2c-1.6,2-2.4,4-2.6,6c-0.2,2.1,0.5,4.7,2,7.9
		c0.7,1.5,1.7,2.7,2.9,3.8C655.9,106.1,657.2,106.7,658.7,106.9z"/>
	<path d="M691.4,109.7c-3.7,3.2-7.2,4.6-10.6,4.3c-1.6-0.1-3-0.9-4.1-2.2c-1.1-1.3-1.9-3-2.4-5.1c-0.9-4-1.2-7.8-0.9-11.5
		s0.9-7.9,1.7-12.7c0.3-0.8,0.7-1.5,1.4-2s1.3-0.7,1.9-0.6c1.3,0.1,2.1,0.9,2.3,2.2c-0.6,3.2-1,6.4-1.3,9.4
		c-0.3,3.1-0.4,5.3-0.4,6.6c-0.1,3.5,0.7,7,2.5,10.7c1.9-0.3,3.8-1,5.5-2.1c1.7-1.2,3.1-2.5,4.1-4.1c0-6.9,0.3-12.8,0.7-17.8
		c0.1-1,0.5-1.8,1.2-2.5s1.5-0.9,2.4-0.9c0.9,0.1,1.6,0.8,2,2.1c-0.2,2.3-0.5,7.7-0.9,16.4c0,1.2,0.1,3.4,0.3,6.7
		c0.2,3.3,0.3,5.3,0.3,6c-0.1,0.7-0.5,1.5-1.3,2.2s-1.6,1-2.5,0.9s-1.5-0.7-1.7-1.9L691.4,109.7z"/>
	<path d="M437.3,144.3l0.5-10.9c0.3-0.6,0.8-1.2,1.4-1.7c0.7-0.5,1.3-0.7,1.9-0.6c1.4,0.1,1.8,2.9,1.4,8.3l-0.3,3.9
		c-0.6,6.4-2,12.1-4.4,16.9c-1.4,2.8-2.8,4.1-4.3,4c-0.9-0.1-1.7-0.8-2.4-2.1c-0.7-1.3-1.4-3-2.1-5.2s-1.3-3.7-1.8-4.5
		c-0.6,1-1.5,2.3-2.6,4.1s-1.7,2.8-2,3c-1.8,2.3-3.3,3.5-4.6,3.3c-0.5,0-1.2-1.4-2.3-4.1c-2.1-8.8-2.8-17.9-1.9-27.3
		c0.4-1,1.2-1.7,2.4-2.2c0.3-0.1,0.7-0.2,1-0.1c1,0.1,1.5,0.8,1.6,2.1c-0.7,7.5,0,14.8,1.9,21.8c0.6-0.8,1.3-1.8,2-3
		c0.8-1.2,1.3-2.1,1.7-2.8c1-1.5,2.2-2.3,3.6-2.1c1.3,0.1,2.6,1.4,3.8,3.8c0.8,1.8,1.4,3.3,1.9,4.5s0.7,1.9,0.8,2
		C436,151.4,437,147.8,437.3,144.3z"/>
	<path d="M472.8,140.6l-0.5,5c-0.2,1.9-0.5,4.3-1.1,7.2c-0.2,5.1-0.1,9.7,0.4,13.8c-0.2,0.5-0.6,0.9-1.3,1.2c-0.6,0.3-1.3,0.4-2,0.3
		c-0.7-0.1-1.3-0.2-1.7-0.4c-0.4-0.2-0.7-0.6-0.8-1c-0.1-0.4-0.2-0.8-0.3-1.1c0-0.3,0-0.7,0-1.2s0-0.8,0-0.9
		c-2.4,2.1-5.5,3.1-9.1,2.7c-3.6-0.3-6.1-1.9-7.4-4.8c-1.3-2.9-1.8-6.8-1.3-11.7c0.8-8.6,3.7-13.9,8.8-15.8c1.6-0.6,3.4-0.8,5.3-0.6
		c2,0.2,3.8,0.7,5.6,1.5c0.7-0.8,1.6-1.2,2.7-1.1c2,0.2,2.9,1.8,2.7,4.9C472.9,139.4,472.9,140,472.8,140.6z M464.2,157.1
		c1.1-2.5,1.8-5.3,2.1-8.3s0.1-5.2-0.5-6.7s-1.8-2.3-3.6-2.4c-0.8-0.1-1.8-0.1-3,0s-2.5,1-3.7,2.9s-1.9,3.6-2,4.9l-0.3,2.9
		c-0.4,5,0.3,8.3,2.2,9.9c0.6,0.5,1.4,0.8,2.4,0.9s2.2-0.3,3.5-1C462.7,159.2,463.7,158.3,464.2,157.1z"/>
	<path d="M499.2,167.7l0.4-3.7c0-0.6,0.1-1.3,0.2-2.3c0.1-0.9,0.1-2,0.2-3.2s0.1-2.4,0.1-3.7c0-1.2,0-2.4-0.1-3.5
		c-0.1-2.2-0.5-4.1-1.2-5.7c-0.7-1.6-1.7-2.4-2.9-2.5c-1.2-0.1-2.3,0-3.1,0.4c-0.9,0.4-1.6,1-2.1,1.8c-1.2,1.8-2,3.7-2.4,5.8
		s-0.7,4.4-0.9,6.8l-0.9,7.7c-0.1,1-0.5,1.7-1.3,2.2s-1.7,0.7-2.6,0.6c-1.2-0.1-1.7-0.9-1.6-2.4c0.3-4,0.6-8.8,0.9-14.6
		c0.2-5.8,0.5-10.6,0.9-14.5c0.3-0.8,0.8-1.5,1.4-2c0.6-0.6,1.2-0.8,1.7-0.8s0.9,0.1,1.2,0.2c0.3,0.1,0.5,0.2,0.6,0.5
		c0.2,0.2,0.3,0.4,0.4,0.6c0.1,0.2,0.2,0.5,0.2,0.9s0.1,0.8,0,1.1c0,0.3,0,0.8-0.1,1.4s0,1.2,0,1.5c2.9-3.2,6.2-4.6,10.1-4.2
		c2.7,0.2,4.5,1.6,5.6,4.2c1.6,3.8,2.1,9.4,1.5,16.9l-0.4,6.7c-0.2,1.8-0.4,3-0.6,3.6s-0.5,1.1-0.9,1.5c-0.6,0.9-1.5,1.2-2.8,1.1
		C499.5,170,499,169.2,499.2,167.7z"/>
	<path d="M526.8,123.1l-1.1,8.6c0,0.6-0.2,2.8-0.3,6.8c2.9,0.3,5.7,0.4,8.4,0.4c1.4,0.5,2,1.4,1.9,2.7s-0.7,2.2-1.7,2.7
		s-2,0.7-2.9,0.7c-1,0-1.7-0.1-2.2-0.1s-1.2-0.1-2-0.2c-0.8-0.1-1.4-0.2-1.8-0.2c0,0.4,0,1.8-0.1,4s-0.2,3.7-0.2,4.4
		c-0.2,6.5-0.1,11.8,0.3,16c-0.3,0.9-0.8,1.7-1.5,2.3c-0.8,0.6-1.5,0.9-2.4,0.8c-0.8-0.1-1.4-0.7-1.7-1.9c-0.3-4.3-0.4-9.4-0.1-15.3
		c0.3-5.9,0.4-9.4,0.5-10.6c-0.7,0-1.8-0.1-3.5-0.2c-1.7-0.1-3-0.4-4-0.8c-1.1-0.3-1.6-1.1-1.5-2.2c0.2-2.4,1.7-3.5,4.5-3.2l3.4,0.4
		c0.6,0.1,1,0.1,1.4,0c0.2-4.8,0.4-7.3,0.4-7.4c0-0.3,0.1-1.1,0.3-2.2c0.1-1.1,0.4-2.8,0.7-5.1c0.3-0.8,0.8-1.4,1.5-2
		c0.8-0.5,1.5-0.7,2.2-0.7C526.1,120.9,526.7,121.7,526.8,123.1z"/>
	<path d="M567.8,126.7l-1.1,8.6c0,0.6-0.2,2.8-0.3,6.8c2.9,0.3,5.7,0.4,8.4,0.4c1.4,0.5,2,1.4,1.9,2.7s-0.7,2.2-1.7,2.7
		s-2,0.7-2.9,0.7c-1,0-1.7-0.1-2.2-0.1s-1.2-0.1-2-0.2c-0.8-0.1-1.4-0.2-1.8-0.2c0,0.4,0,1.8-0.1,4s-0.2,3.7-0.2,4.4
		c-0.2,6.5-0.1,11.8,0.3,16c-0.3,0.9-0.8,1.7-1.5,2.3c-0.8,0.6-1.5,0.9-2.4,0.8c-0.8-0.1-1.4-0.7-1.7-1.9c-0.3-4.3-0.4-9.4-0.1-15.3
		c0.3-5.9,0.4-9.4,0.5-10.6c-0.7,0-1.8-0.1-3.5-0.2c-1.7-0.1-3-0.4-4-0.8c-1.1-0.3-1.6-1.1-1.5-2.2c0.2-2.4,1.7-3.5,4.5-3.2l3.4,0.4
		c0.6,0,1,0.1,1.4,0c0.2-4.8,0.4-7.3,0.4-7.4c0-0.3,0.1-1.1,0.3-2.2c0.1-1.1,0.4-2.8,0.7-5.1c0.3-0.8,0.8-1.4,1.5-2
		c0.8-0.5,1.5-0.7,2.2-0.7C567,124.5,567.7,125.2,567.8,126.7z"/>
	<path d="M586,145.5c1.9-0.9,3.9-1.2,6.1-1c2.2,0.2,4.2,1.3,5.8,3.3c3.1,3.8,4.3,8.8,3.8,15c-0.3,3.2-1.5,6.6-3.6,9.9
		c-1.1,1.6-2.4,2.9-3.9,3.9c-1.6,1-3.3,1.4-5.3,1.2s-3.8-0.9-5.5-2.2s-3.1-2.8-4.2-4.6c-2.2-3.8-3.1-7.3-2.8-10.5
		c0.4-4.3,2-8.1,4.9-11.5C582.6,147.6,584.2,146.4,586,145.5z M590.8,172.9c1.4-0.6,2.6-1.7,3.5-3.3s1.4-3.3,1.5-5.1
		c0.2-1.8,0.2-3.4,0.1-4.8c-0.1-1.4-0.4-2.8-0.8-4.1c-0.4-1.3-1-2.5-1.9-3.5s-1.9-1.7-3.1-2c-2.1,0.2-4,1.2-5.5,3.2
		c-1.6,2-2.4,4-2.6,6c-0.2,2.1,0.5,4.7,2,7.9c0.7,1.5,1.7,2.7,2.9,3.8C588.1,172.2,589.4,172.8,590.8,172.9z"/>
	<path d="M626.6,132.4c0.3-0.8,0.8-1.4,1.6-1.9c0.7-0.5,1.5-0.7,2.3-0.6c1,0.1,1.6,0.8,1.8,2.2c-0.2,2.7-0.5,4.9-0.8,6.6
		c-0.3,1.7-0.4,2.9-0.5,3.7s-0.1,2.7-0.2,5.8c1-0.2,2.3-0.2,3.8-0.1c2.9,0.3,5.3,1.2,7.4,2.9c2.1,1.7,3.6,3.8,4.6,6.4
		c1,2.6,1.3,5.5,1.1,8.5c-0.3,3-1.1,5.7-2.5,8.1c-1.4,2.4-3.4,4.4-5.9,5.9c-2.6,1.5-5.4,2.1-8.6,1.8c-5-0.4-7.4-2-7.2-4.7
		c0.4-4.2,0.8-10.1,1.2-17.7C625,151.6,625.7,142.7,626.6,132.4z M636,155.1c-1.3-0.4-2.3-0.6-3.1-0.6c-0.8-0.1-1.6,0-2.4,0.2
		c0,2.9-0.3,9.7-0.8,20.3c0.8,0.4,1.8,0.6,2.8,0.7c2.6,0.2,4.8-0.6,6.6-2.5s2.8-4.2,3.1-7c0.2-2.8-0.1-5.1-1.1-7.1
		C640.1,157.2,638.4,155.9,636,155.1z"/>
	<path d="M672.8,154c2.2,1.6,3.3,3.5,3.1,5.6s-1.5,4.2-3.9,6.1c-2.4,1.9-5.1,3-8.3,3.1c-0.3,0-0.5,0-0.7,0s-0.4,0-0.7,0
		s-0.5,0-0.7,0s-0.4,0-0.7,0s-0.5,0-0.7,0c-0.1,0-0.4,0-0.8-0.1c-0.4,0-0.6-0.1-0.8-0.1c0.2,3.8,0.7,6.3,1.5,7.6
		c1.3,1.2,2.4,1.9,3.4,2.1c2.4,0.2,4.7-0.6,6.9-2.4c2.2-1.8,3.8-2.7,4.7-2.6c0.3,0,0.9,0.4,1.6,1.2c0.7,0.8,1.1,1.5,1,2.1
		c-0.1,0.7-0.6,1.4-1.5,2.3c-0.9,0.9-2.1,1.8-3.5,2.7s-3,1.7-5,2.3s-3.7,0.8-5.4,0.7s-3-0.6-4.2-1.5c-2.1-1.6-3.6-4.1-4.4-7.5
		c-0.9-3.4-1.2-6.9-0.8-10.6c0.3-3.7,1.4-6.9,3.3-9.7c2.1-3.1,5.3-4.5,9.6-4.1C668.2,151.4,670.5,152.3,672.8,154z M669.5,159.5
		c0.2-2-1.1-3.1-3.7-3.4c-1.8-0.2-3.5,0.7-4.9,2.7c-0.5,0.6-0.8,1.3-1.1,2.1c-0.2,0.8-0.5,1.7-0.7,2.6
		C665.7,164.2,669.2,162.8,669.5,159.5z"/>
	<path d="M698.3,143.2c-1.2-1-2.4-1.5-3.6-1.7c-1.2-0.1-2.4,0.1-3.5,0.6s-1.9,1.1-2.4,1.7c-1.5,1.8-2.6,2.7-3.3,2.6
		c-0.7-0.1-1.3-0.3-1.8-0.6c-0.8-0.6-1.2-1.5-1.1-2.7c0.2-1.8,1.6-3.5,4.2-5.2c2.7-1.7,5.4-2.4,8.2-2.2c3.9,0.3,6.9,2.2,8.9,5.6
		c1.1,1.8,1.6,3.7,1.4,5.5c-0.2,1.9-0.7,3.5-1.6,4.9c-0.9,1.4-1.9,2.7-3.1,3.8s-2.4,2.2-3.6,3.2c-2.9,2.4-4.3,4-4.4,4.9
		c-0.1,0.9,0.2,1.9,0.7,2.9c0.6,1.1,0.8,1.8,0.8,2.2s-0.2,0.8-0.5,1.2c-0.6,0.8-1.5,1.2-2.6,1.1c-1.1-0.1-2.1-0.9-3.1-2.4
		s-1.4-3.2-1.2-5s0.6-3.4,1.4-4.7c0.8-1.3,1.7-2.4,2.8-3.4s2.2-1.9,3.3-2.8c3.5-2.7,5.3-4.9,5.4-6.5
		C700,145.3,699.4,144.2,698.3,143.2z M687.1,180.4c0.1-0.8,0.4-1.5,1.1-2.2c0.7-0.7,1.6-1,2.7-0.9c1.1,0.1,2,0.4,2.5,0.8
		c0.5,0.5,0.7,1.4,0.6,2.9c-0.1,1.5-0.6,2.5-1.3,2.9c-0.8,0.4-1.6,0.6-2.5,0.5s-1.6-0.6-2.2-1.5C687.3,182,687.1,181.2,687.1,180.4z
		"/>
</g>
<g id="dog">
	<path id="ear2" d="M324.1,290.5c0,0,88.7-50,96.3-47.7c7.3,2,64,71,51.5,89.3c-12.5,18.6-32.3,14.5-38.4,3.2s-17.2-61.4-21.8-62.8
		s-78.2,25.9-78.2,25.9L324.1,290.5z"/>
	<path id="ear1" d="M173.4,301.6c0,0-42.2-72.4-55-73C106,228,55.3,285.9,60,304.8s16.6,23.6,31.4,13.1s26.2-50.3,32.3-52.1
		c6.1-1.7,47.4,46,47.4,46L173.4,301.6z"/>
	<path id="leg2" style="fill:#B56F29;" d="M360.4,651.7c0,0,53.5-1.7,65.1-7.6c11.6-5.5,17.7-47.7,16.9-50.9
		c-0.9-3.2-9.9,1.5-19.8-11.9c-11.3-15.1-1.5-33.4,13.1-33.4c18.9,0,14.3,30,23,32c6.1,1.5-1.2-23.6,13.4-26.8
		c13.4-3.2,22.7,9.9,20.4,18c-2.3,7.6-19.2,17.2-17.2,21.5c1.7,4.7,13.7-8.1,19.2,0c5.5,8.4,2.9,19.8-7,20.9
		c-9.6,0.9-9.3-10.5-16.3-6.4s-20.1,56.1-26.5,59s-90.7-3.2-90.7-3.2L360.4,651.7z"/>
	<path id="leg1" style="fill:#B56F29;" d="M141.7,651.7c0,0-61.1,6.1-67.2,0S61.1,613,62.9,605.5c1.7-7.3,13.7-11.6,17.5-24.1
		c4.1-13.1-3.8-23.6-19.8-21.2c-16,2.3-8.4,28.5-14.8,31.1c-7,2.9-2.3-14-14-16.6C18.7,571.8,10,586,13.5,595.6
		c2.3,6.7,23.8,5.8,19.8,15.7c-2,4.7-18.6-7.3-22.7-3.2c-6.4,6.1-2.6,18.3,3.8,20.1c8.4,2,16.9-8.7,20.1-2.9
		c3.2,6.1,9.9,50.9,18.3,52.6s98-16.6,98-16.6L141.7,651.7z"/>
	<path id="hand2_1_" style="fill:#B56F29;" d="M387.2,504c0,0,71-34.6,77.9-28.5c7,6.1,6.7,17.5,19.5,19.2s24.1-13.7,21.5-24.4
		c-2.9-11.1-20.9,1.2-21.8-8.1c-1.2-9.3,25.3-8.1,26.2-20.4s-16-25.6-23-23.8c-7,1.7-9.3,22.1-18,20.9c-8.7-1.5,5.8-17.2,1.2-24.7
		c-4.7-7.3-22.7-10.2-29.7,3.2c-6.7,13.7,6.4,29.7,2.9,35.2s-61.7,39.6-61.7,39.6L387.2,504z"/>
	<path id="hand1" style="fill:#B56F29;" d="M136.5,459.5c0,0-47.7,18.9-56.4,11.9S61.2,433.9,65,428.6c3.8-5.2,22.1-9.3,25-20.1
		c2.9-10.8-8.7-27.6-19.2-25.3s-18,33.2-22.4,34.3c-4.4,0.9-4.9-31.1-16.3-31.4C20.7,385.6,3.3,404.8,10,417
		c7,12.2,26.8,4.1,26.5,14.3c-0.6,10.5-27.9-2.6-33.7,7.3c-5.8,9.6-2.6,32.3,13.1,32s26.5-27,31.1-22.1c4.4,4.9-2.6,42.5,10.8,50.3
		C71.1,506.9,131,474,131,474L136.5,459.5z"/>
	<g id="body">
		<path style="fill:#F69220;" d="M179,342c0,0-3.8,40.1-25.9,78.8c-22.1,39-44.5,64.6-48,121.3c-3.8,56.7,16.6,121,58.5,128.3
			s159.1,12.2,186.7,0s61.1-64,49.4-135.8c-11.6-71.8-46.8-116.9-58.5-148.9c-11.6-32-9.9-56.7-9.9-56.7s12.2-17.2,8.1-27.9
			c-4.4-10.8-31.1-35.5-45.7-30c-14.5,5.5-34.3,29.7-40.4,30c-5.8,0.3-22.7-25.3-39.8-26.2c-17.2-0.6-40.7,16-44.5,26.2
			C165.6,311.2,179,342,179,342z"/>
		<ellipse style="fill:#754D24;" cx="248.8" cy="651.7" rx="7" ry="6.7"/>
	</g>
	<g id="nose">
		<ellipse style="fill:#B56F29;" cx="253.4" cy="432.7" rx="76.8" ry="82.9"/>
		<ellipse cx="253.4" cy="432.7" rx="57" ry="55.6"/>
		<ellipse style="fill:#343433;" cx="253.4" cy="405.7" rx="25.9" ry="16"/>
	</g>
	<g id="eyesopen">
		<circle style="fill:#FFFFFF;" cx="296.7" cy="339.1" r="43"/>
		<circle cx="296.7" cy="339.1" r="11.1"/>
		<circle style="fill:#FFFFFF;" cx="210.4" cy="339.1" r="43"/>
		<circle cx="210.4" cy="339.1" r="11.1"/>
	</g>
	<g id="eyesclosed">
		<circle style="fill:#E48625;" cx="296.7" cy="339.1" r="43"/>
		<circle style="fill:#E48625;" cx="210.4" cy="339.1" r="43"/>
		<path style="fill:#603A17;" d="M168.3,343.8c-1.2-3.9-0.4-7.5-0.4-7.5s38.8-22.2,85.7-3.4l0.2,7.2
			C253.9,340.1,212.8,326.1,168.3,343.8z"/>
		<path style="fill:#603A17;" d="M339.4,343.8c1.2-3.9,0.4-7.5,0.4-7.5s-38.8-22.2-85.7-3.4l-0.2,7.2
			C253.8,340.1,294.9,326.1,339.4,343.8z"/>
	</g>
	<path id="mounth" d="M225.5,537.1h-0.3c-0.9,0-23.3-2.6-45.1-16.6c-25.3-16.3-35.2-35.8-35.5-36.6c-0.9-1.7-0.3-4.1,1.7-4.9
		c1.7-0.9,4.1-0.3,4.9,1.7c0,0.3,9.6,18.6,32.9,33.7c20.4,13.1,41.6,15.4,41.9,15.4c2,0.3,3.5,2,3.2,4.1
		C229,535.7,227.5,537.1,225.5,537.1L225.5,537.1z"/>
</g>
</svg>
