<?xml version="1.0" encoding="utf-8"?>
<!-- Generator: Adobe Illustrator 21.0.0, SVG Export Plug-In . SVG Version: 6.00 Build 0)  -->
<svg version="1.1" id="dog-usertaken" xmlns="http://www.w3.org/2000/svg" xmlns:xlink="http://www.w3.org/1999/xlink" x="0px"
	 y="0px" viewBox="0 0 604.3 642.9" style="enable-background:new 0 0 604.3 642.9;" xml:space="preserve">
<g id="shadow">
	<g>
		<ellipse style="fill:#FFFFFF;" cx="342.6" cy="610.2" rx="165.5" ry="32.6"/>
		<ellipse style="fill:#FDFDFD;" cx="342.6" cy="610.2" rx="163" ry="32.1"/>
		<ellipse style="fill:#FBFBFB;" cx="342.6" cy="610.2" rx="160.4" ry="31.6"/>
		<ellipse style="fill:#F9F9F9;" cx="342.6" cy="610.2" rx="157.8" ry="31.1"/>
		<ellipse style="fill:#F7F7F7;" cx="342.6" cy="610.2" rx="155.3" ry="30.6"/>
		<ellipse style="fill:#F5F5F5;" cx="342.6" cy="610.2" rx="152.7" ry="30.1"/>
		<ellipse style="fill:#F3F3F3;" cx="342.6" cy="610.2" rx="150.1" ry="29.6"/>
		<ellipse style="fill:#F1F1F1;" cx="342.6" cy="610.2" rx="147.6" ry="29.1"/>
		<ellipse style="fill:#EFEFEF;" cx="342.6" cy="610.2" rx="145" ry="28.6"/>
		<ellipse style="fill:#EDEDED;" cx="342.6" cy="610.2" rx="142.4" ry="28.1"/>
		<ellipse style="fill:#EBEBEB;" cx="342.6" cy="610.2" rx="139.9" ry="27.6"/>
		<ellipse style="fill:#E9E9E9;" cx="342.6" cy="610.2" rx="137.3" ry="27.1"/>
		<ellipse style="fill:#E7E7E7;" cx="342.6" cy="610.2" rx="134.7" ry="26.6"/>
		<ellipse style="fill:#E5E5E4;" cx="342.6" cy="610.2" rx="132.2" ry="26.1"/>
		<ellipse style="fill:#E3E3E2;" cx="342.6" cy="610.2" rx="129.6" ry="25.6"/>
		<ellipse style="fill:#E1E1E0;" cx="342.6" cy="610.2" rx="127" ry="25"/>
		<ellipse style="fill:#DFDFDE;" cx="342.6" cy="610.2" rx="124.5" ry="24.5"/>
		<ellipse style="fill:#DDDDDC;" cx="342.6" cy="610.2" rx="121.9" ry="24"/>
		<ellipse style="fill:#DBDBDA;" cx="342.6" cy="610.2" rx="119.3" ry="23.5"/>
		<ellipse style="fill:#D9D9D8;" cx="342.6" cy="610.2" rx="116.8" ry="23"/>
		<ellipse style="fill:#D7D7D6;" cx="342.6" cy="610.2" rx="114.2" ry="22.5"/>
		<ellipse style="fill:#D5D5D4;" cx="342.6" cy="610.2" rx="111.6" ry="22"/>
		<ellipse style="fill:#D3D3D2;" cx="342.6" cy="610.2" rx="109" ry="21.5"/>
		<ellipse style="fill:#D1D1D0;" cx="342.6" cy="610.2" rx="106.5" ry="21"/>
		<ellipse style="fill:#CFCFCE;" cx="342.6" cy="610.2" rx="103.9" ry="20.5"/>
		<ellipse style="fill:#CDCDCC;" cx="342.6" cy="610.2" rx="101.3" ry="20"/>
		<ellipse style="fill:#CACACA;" cx="342.6" cy="610.2" rx="98.8" ry="19.5"/>
		<ellipse style="fill:#C8C8C8;" cx="342.6" cy="610.2" rx="96.2" ry="19"/>
		<ellipse style="fill:#C6C6C6;" cx="342.6" cy="610.2" rx="93.6" ry="18.5"/>
		<ellipse style="fill:#C4C4C4;" cx="342.6" cy="610.2" rx="91.1" ry="18"/>
		<ellipse style="fill:#C2C2C2;" cx="342.6" cy="610.2" rx="88.5" ry="17.5"/>
		<ellipse style="fill:#C0C0C0;" cx="342.6" cy="610.2" rx="85.9" ry="16.9"/>
		<ellipse style="fill:#BEBEBE;" cx="342.6" cy="610.2" rx="83.4" ry="16.4"/>
		<ellipse style="fill:#BCBCBC;" cx="342.6" cy="610.2" rx="80.8" ry="15.9"/>
		<ellipse style="fill:#BABABA;" cx="342.6" cy="610.2" rx="78.2" ry="15.4"/>
		<ellipse style="fill:#B8B8B8;" cx="342.6" cy="610.2" rx="75.7" ry="14.9"/>
		<ellipse style="fill:#B6B6B6;" cx="342.6" cy="610.2" rx="73.1" ry="14.4"/>
		<ellipse style="fill:#B4B4B4;" cx="342.6" cy="610.2" rx="70.5" ry="13.9"/>
		<ellipse style="fill:#B2B2B2;" cx="342.6" cy="610.2" rx="68" ry="13.4"/>
		<ellipse style="fill:#B0B0AF;" cx="342.6" cy="610.2" rx="65.4" ry="12.9"/>
		<ellipse style="fill:#AEAEAD;" cx="342.6" cy="610.2" rx="62.8" ry="12.4"/>
		<ellipse style="fill:#ACACAB;" cx="342.6" cy="610.2" rx="60.3" ry="11.9"/>
		<ellipse style="fill:#AAAAA9;" cx="342.6" cy="610.2" rx="57.7" ry="11.4"/>
		<ellipse style="fill:#A8A8A7;" cx="342.6" cy="610.2" rx="55.1" ry="10.9"/>
		<ellipse style="fill:#A6A6A5;" cx="342.6" cy="610.2" rx="52.6" ry="10.4"/>
		<ellipse style="fill:#A4A4A3;" cx="342.6" cy="610.2" rx="50" ry="9.9"/>
		<ellipse style="fill:#A2A2A1;" cx="342.6" cy="610.2" rx="47.4" ry="9.4"/>
		<ellipse style="fill:#A0A09F;" cx="342.6" cy="610.2" rx="44.9" ry="8.8"/>
		<ellipse style="fill:#9E9E9D;" cx="342.6" cy="610.2" rx="42.3" ry="8.3"/>
		<ellipse style="fill:#9C9C9B;" cx="342.6" cy="610.2" rx="39.7" ry="7.8"/>
		<ellipse style="fill:#9A9A99;" cx="342.6" cy="610.2" rx="37.2" ry="7.3"/>
		<ellipse style="fill:#989897;" cx="342.6" cy="610.2" rx="34.6" ry="6.8"/>
	</g>
</g>
<g id="text">
	<g>
		<path style="fill:#A7A8AC;" d="M564,23.7C551.8,0.7,537.2,0.1,519.2,2c-28,3-149.9,30.1-168.7,36.9c-14.9,5.4-22.1,18.4-23.5,39.6
			c-0.3,5.1-41.8,18.7-42.6,25.1c-0.9,7.8-2,16-2.6,23.4c-0.7,7.4,39.8,6.6,40.3,11c2,16.3,11.6,39.5,37.2,40.7
			c22.8,1.1,44.8-2.3,87.3-8.1c26.9-3.7,127.9-11.3,133.7-12.7c18.6-4.4,25.4-18.2,23.8-35.5C602.2,102.6,571.5,37.8,564,23.7z"/>
		<path style="fill:#FFFFFF;" d="M565.4,22.6c-12-22.7-28.1-23.9-45.8-22c-27.5,3-146.9,29.6-165.3,36.2
			c-14.6,5.4-21.7,18.2-23,39.2c-0.4,6-42,20.8-43,28.4c-0.9,7.1-1.7,14.4-2.3,20.9c-0.6,6.5,40,4.9,40.5,8.9
			c1.9,16.1,11.4,38.9,36.5,40.2c22.4,1.1,44-2.3,85.7-8c26.4-3.6,125.3-11.1,131-12.4c18.3-4.3,23.1-18.4,21.7-35.5
			C599.7,97.1,572.8,36.5,565.4,22.6z"/>
		<path style="fill:#FFFFFF;stroke:#B8D432;stroke-width:1.5;stroke-miterlimit:10;" d="M558.6,29.1c-11.3-21.3-26.4-22.5-43-20.7
			c-25.8,2.8-137,27.6-154.3,33.9c-13.7,5-20.4,17-21.7,36.7c-0.3,5.4-41.9,19-42.8,25.4c-0.8,5.8-1.6,11.7-2.2,17.2
			c-0.7,6.7,39.7,5.3,40.2,9.6c1.8,15.1,10.7,36.6,34.3,37.8c21,1,59-4.2,98.2-9.6c24.8-3.4,98.9-9.6,104.2-10.8
			c17.2-4,21.8-15.9,20.6-32C590.6,96.6,565.5,42.1,558.6,29.1z"/>
	</g>
	<g style="enable-background:new    ;">
		<path d="M389.5,61l3.1,15.9c0.3,1.8,0.9,5.1,1.6,9.8c0,0.6-0.1,1.1-0.5,1.6c-0.4,0.5-0.8,0.8-1.3,0.8c-0.7,0.1-1.1-0.3-1.3-1.1
			c-0.5-3.3-1-6.1-1.4-8.4l-0.6-3c-0.5,0.2-1.7,0.4-3.6,0.8s-4,0.6-6.3,0.7l0.3,1.9c0.6,3.3,1.4,6.5,2.3,9.4c0,0.5-0.2,1.1-0.5,1.6
			c-0.3,0.5-0.7,0.8-1.2,0.9s-0.9-0.2-1.3-0.8c-1-3.2-1.7-5.9-2.1-8.1s-0.8-4.5-1.2-6.9l-1.8-10.6c0.1-0.5,0.3-0.9,0.6-1.3
			c0.3-0.4,0.7-0.6,1.1-0.7c0.6-0.1,1.1,0.2,1.4,0.9l1.8,10.4c2.4-0.1,4.5-0.3,6.4-0.6c1.9-0.3,3-0.6,3.5-0.7
			c-0.6-2.6-1.3-6.2-2.2-11c0-0.7,0.3-1.3,0.9-1.7c0.3-0.2,0.5-0.4,0.8-0.4C388.7,60,389.2,60.3,389.5,61z"/>
		<path d="M398.8,68c0.9-0.8,2.1-1.4,3.4-1.6s2.7,0.1,4,1c2.4,1.7,4,4.5,4.7,8.3c0.4,2,0.2,4.1-0.5,6.5c-0.4,1.1-0.9,2.1-1.7,2.9
			c-0.8,0.8-1.7,1.4-2.9,1.6c-1.2,0.2-2.4,0.1-3.6-0.4c-1.2-0.5-2.3-1.1-3.2-2c-1.9-1.9-3-3.8-3.4-5.7c-0.5-2.6-0.2-5.1,1-7.6
			C397.1,69.8,397.8,68.9,398.8,68z M406.1,83.4c0.8-0.6,1.3-1.4,1.5-2.5c0.2-1.1,0.3-2.2,0.1-3.2c-0.2-1.1-0.5-2-0.8-2.8
			c-0.3-0.8-0.7-1.6-1.1-2.3c-0.4-0.7-1-1.3-1.7-1.7c-0.7-0.4-1.4-0.7-2.2-0.7c-1.2,0.4-2.2,1.4-2.8,2.8c-0.6,1.4-0.8,2.7-0.5,4
			c0.2,1.3,1.1,2.7,2.5,4.3c0.6,0.7,1.4,1.3,2.4,1.8C404.4,83.4,405.3,83.6,406.1,83.4z"/>
		<path d="M427.4,70.1l-1.5-6.5c0.1-0.4,0.3-0.8,0.6-1.2c0.3-0.4,0.6-0.6,1-0.7c0.8-0.2,1.6,1.4,2.2,4.7l0.4,2.4
			c0.7,3.9,0.8,7.5,0.2,10.7c-0.3,1.9-1,2.9-1.9,3c-0.5,0.1-1.1-0.2-1.8-0.8s-1.3-1.6-2.1-2.7c-0.8-1.2-1.4-1.9-1.8-2.4
			c-0.2,0.7-0.5,1.6-0.8,2.8c-0.4,1.2-0.6,1.9-0.7,2.1c-0.7,1.7-1.4,2.6-2.2,2.7c-0.3,0.1-1-0.6-2-2c-2.7-4.8-4.6-10.1-5.7-15.8
			c0.1-0.7,0.4-1.2,1-1.7c0.2-0.1,0.4-0.2,0.5-0.2c0.6-0.1,1,0.2,1.3,1c0.9,4.5,2.4,8.7,4.7,12.6c0.2-0.6,0.5-1.3,0.7-2.1
			c0.2-0.8,0.4-1.5,0.6-1.9c0.4-1.1,1-1.7,1.8-1.9s1.8,0.4,2.9,1.6c0.8,0.9,1.4,1.7,1.9,2.3c0.5,0.7,0.8,1,0.8,1.1
			C427.8,74.5,427.7,72.1,427.4,70.1z"/>
		<path d="M457.6,60.1l0.5,3c0.2,1.2,0.4,2.6,0.5,4.4c0.7,3.1,1.6,5.8,2.5,8.1c0,0.3-0.2,0.6-0.6,0.9c-0.3,0.3-0.7,0.4-1.2,0.5
			c-0.4,0.1-0.8,0.1-1.1,0c-0.3-0.1-0.5-0.2-0.6-0.4s-0.3-0.4-0.3-0.6c-0.1-0.2-0.1-0.4-0.2-0.7s-0.1-0.5-0.1-0.5
			c-1.1,1.7-2.7,2.7-4.9,3.1c-2.2,0.4-3.9-0.1-5.1-1.6c-1.2-1.5-2.2-3.7-2.7-6.7c-1-5.2-0.1-8.8,2.6-10.8c0.8-0.6,1.9-1,3-1.2
			c1.2-0.2,2.4-0.2,3.6,0c0.3-0.6,0.7-0.9,1.4-1.1c1.2-0.2,2,0.6,2.4,2.4C457.4,59.4,457.5,59.8,457.6,60.1z M455.3,71.3
			c0.3-1.7,0.2-3.4-0.1-5.3c-0.3-1.8-0.8-3.1-1.4-3.9c-0.6-0.8-1.4-1.1-2.5-0.8c-0.5,0.1-1.1,0.2-1.8,0.5s-1.3,1-1.7,2.3
			c-0.4,1.3-0.5,2.4-0.4,3.3l0.3,1.7c0.6,3,1.6,4.9,3,5.5c0.4,0.2,0.9,0.2,1.6,0.1s1.2-0.5,1.9-1.2
			C454.7,72.8,455.1,72.1,455.3,71.3z"/>
		<path d="M460.5,46.1c0.1-0.5,0.3-1,0.6-1.4c0.4-0.4,0.8-0.7,1.2-0.7c0.6-0.1,1.1,0.2,1.4,1c0.3,1.6,0.5,3,0.6,4
			c0.1,1,0.2,1.8,0.3,2.3c0.1,0.5,0.4,1.6,0.8,3.4c0.5-0.3,1.3-0.5,2.2-0.7c1.7-0.3,3.4-0.2,4.9,0.5c1.5,0.6,2.8,1.6,3.8,3
			c1,1.4,1.7,3,2,4.8c0.3,1.8,0.3,3.6-0.1,5.2c-0.4,1.6-1.3,3.1-2.5,4.4c-1.3,1.3-2.8,2.1-4.8,2.5c-3,0.6-4.7,0-5-1.6
			c-0.5-2.5-1.2-6.1-2.2-10.7C462.7,57.7,461.6,52.3,460.5,46.1z M469.8,57.9c-0.8,0-1.4,0-1.9,0.1c-0.5,0.1-0.9,0.3-1.4,0.5
			c0.5,1.7,1.4,5.8,2.9,12.2c0.6,0.1,1.1,0.1,1.7-0.1c1.6-0.3,2.8-1.2,3.5-2.6c0.8-1.4,1-3,0.7-4.6c-0.3-1.7-0.9-3-1.8-4
			C472.6,58.5,471.3,58,469.8,57.9z"/>
		<path d="M483.9,52.1c0.9-0.8,2.1-1.4,3.4-1.6c1.3-0.3,2.7,0.1,4,1c2.4,1.7,4,4.5,4.7,8.3c0.4,2,0.2,4.1-0.5,6.5
			c-0.4,1.1-0.9,2.1-1.7,2.9c-0.8,0.8-1.7,1.4-2.9,1.6c-1.2,0.2-2.4,0.1-3.6-0.4c-1.2-0.5-2.3-1.1-3.2-2c-1.9-1.9-3-3.8-3.4-5.7
			c-0.5-2.6-0.2-5.1,1-7.6C482.2,53.9,482.9,52.9,483.9,52.1z M491.3,67.4c0.8-0.6,1.3-1.4,1.5-2.5c0.2-1.1,0.3-2.2,0.1-3.2
			c-0.2-1.1-0.5-2-0.8-2.8c-0.3-0.8-0.7-1.6-1.1-2.3c-0.5-0.7-1-1.3-1.7-1.7c-0.7-0.4-1.4-0.7-2.2-0.7c-1.2,0.4-2.2,1.4-2.8,2.8
			c-0.6,1.4-0.8,2.7-0.5,4c0.2,1.3,1.1,2.7,2.5,4.3c0.6,0.7,1.4,1.3,2.4,1.8S490.4,67.6,491.3,67.4z"/>
		<path d="M511,63.7c-1.7,2.5-3.5,3.9-5.5,4.3c-1,0.2-1.9,0-2.8-0.6c-0.9-0.6-1.7-1.5-2.3-2.6c-1.2-2.2-2-4.4-2.4-6.7
			c-0.4-2.2-0.8-4.8-1.1-7.8c0-0.5,0.2-1,0.5-1.4s0.7-0.6,1-0.7c0.8-0.2,1.4,0.2,1.7,0.9c0.2,2,0.5,3.9,0.8,5.8
			c0.3,1.8,0.6,3.2,0.8,4c0.5,2.1,1.6,4,3.3,5.9c1.1-0.5,2.1-1.2,2.9-2.2c0.8-1,1.4-2,1.8-3.1c-1.1-4.1-2-7.6-2.5-10.6
			c-0.1-0.6,0-1.2,0.3-1.7c0.3-0.5,0.7-0.8,1.3-0.9s1.1,0.2,1.6,0.9c0.3,1.4,1,4.7,2.2,9.8c0.2,0.7,0.6,2,1.3,3.9s1.1,3.1,1.2,3.5
			s0,0.9-0.4,1.5c-0.3,0.5-0.8,0.9-1.3,1c-0.5,0.1-1-0.2-1.3-0.8L511,63.7z"/>
		<path d="M519.7,34.6l0.8,5.3c0.1,0.3,0.4,1.7,0.9,4.1c1.7-0.3,3.4-0.7,5-1.1c0.9,0,1.4,0.5,1.6,1.3s0,1.4-0.5,1.9
			c-0.5,0.5-1.1,0.8-1.6,0.9c-0.6,0.1-1,0.2-1.3,0.3c-0.3,0.1-0.7,0.1-1.2,0.2c-0.5,0.1-0.9,0.1-1.1,0.2c0.1,0.3,0.3,1,0.6,2.4
			c0.3,1.3,0.5,2.2,0.6,2.6c1,3.9,1.9,7,2.8,9.4c0,0.6-0.2,1.1-0.5,1.6c-0.3,0.5-0.8,0.8-1.3,0.9c-0.5,0.1-1-0.2-1.3-0.8
			c-0.9-2.5-1.8-5.5-2.6-9s-1.3-5.6-1.5-6.4c-0.4,0.1-1.1,0.3-2.1,0.4c-1,0.2-1.8,0.3-2.5,0.2c-0.7,0-1.1-0.4-1.3-1.1
			c-0.3-1.4,0.4-2.3,2.1-2.6l2.1-0.3c0.3-0.1,0.6-0.1,0.8-0.2c-0.7-2.9-1-4.4-1-4.4c0-0.2-0.1-0.7-0.2-1.4c-0.1-0.7-0.2-1.7-0.4-3.1
			c0-0.5,0.2-1,0.6-1.4c0.4-0.4,0.8-0.7,1.2-0.8C518.9,33.5,519.4,33.8,519.7,34.6z"/>
	</g>
	<g style="enable-background:new    ;">
		<path d="M365.9,121.3c0.9-0.8,2.1-1.4,3.4-1.6c1.3-0.3,2.7,0.1,4,1c2.4,1.7,4,4.5,4.7,8.3c0.4,2,0.2,4.1-0.5,6.5
			c-0.4,1.1-0.9,2.1-1.7,2.9c-0.8,0.8-1.7,1.4-2.9,1.6c-1.2,0.2-2.4,0.1-3.6-0.4c-1.2-0.5-2.3-1.1-3.2-2c-1.9-1.9-3-3.8-3.4-5.7
			c-0.5-2.6-0.2-5.1,1-7.6C364.2,123.1,364.9,122.1,365.9,121.3z M373.3,136.7c0.8-0.6,1.3-1.4,1.5-2.5s0.3-2.2,0.1-3.2
			c-0.2-1.1-0.5-2-0.8-2.8c-0.3-0.8-0.7-1.6-1.1-2.3c-0.4-0.7-1-1.3-1.7-1.7c-0.7-0.4-1.4-0.7-2.2-0.7c-1.2,0.4-2.2,1.4-2.8,2.8
			c-0.6,1.4-0.8,2.7-0.5,4c0.2,1.3,1.1,2.7,2.5,4.3c0.6,0.7,1.4,1.3,2.4,1.8C371.5,136.7,372.4,136.9,373.3,136.7z"/>
		<path d="M394.9,134.4l-0.4-2.3c-0.1-0.3-0.2-0.8-0.3-1.4c-0.1-0.6-0.3-1.2-0.4-1.9c-0.2-0.7-0.3-1.5-0.5-2.2
			c-0.2-0.7-0.4-1.4-0.7-2.1c-0.4-1.3-1-2.3-1.6-3.1c-0.7-0.8-1.4-1.1-2.1-1c-0.8,0.1-1.3,0.4-1.8,0.7c-0.4,0.4-0.8,0.8-0.9,1.4
			c-0.4,1.2-0.6,2.5-0.4,3.9c0.1,1.3,0.3,2.7,0.6,4.2l0.7,4.7c0.1,0.6,0,1.1-0.4,1.5s-0.9,0.7-1.4,0.8c-0.7,0.1-1.2-0.3-1.3-1.2
			c-0.5-2.4-1.1-5.3-1.9-8.8c-0.8-3.5-1.4-6.4-1.9-8.7c0.1-0.5,0.2-1,0.5-1.4c0.3-0.4,0.6-0.7,0.9-0.7c0.3-0.1,0.6-0.1,0.7-0.1
			c0.2,0,0.3,0.1,0.5,0.2c0.1,0.1,0.2,0.2,0.3,0.3c0.1,0.1,0.2,0.3,0.3,0.5c0.1,0.3,0.2,0.5,0.2,0.6c0,0.2,0.1,0.4,0.2,0.8
			c0.1,0.4,0.2,0.7,0.2,0.9c1.2-2.3,2.9-3.7,5.3-4.2c1.6-0.3,3,0.2,4,1.5c1.6,2,2.8,5.2,3.7,9.7l0.9,4.1c0.2,1.1,0.3,1.8,0.2,2.2
			c0,0.4-0.1,0.7-0.3,1c-0.2,0.6-0.7,1-1.4,1.1C395.6,135.7,395.1,135.3,394.9,134.4z"/>
		<path d="M410.3,113.5c1.6,0.6,2.5,1.5,2.8,2.8c0.2,1.3-0.2,2.7-1.3,4.2c-1.1,1.5-2.5,2.6-4.4,3.2c-0.2,0.1-0.3,0.1-0.4,0.1
			c-0.1,0-0.2,0.1-0.4,0.1c-0.2,0-0.3,0.1-0.4,0.1c-0.1,0-0.2,0.1-0.4,0.1c-0.2,0-0.3,0.1-0.4,0.1c-0.1,0-0.2,0-0.5,0.1
			c-0.2,0-0.4,0.1-0.5,0.1c0.7,2.2,1.5,3.6,2.1,4.2c1,0.5,1.7,0.7,2.3,0.7c1.4-0.3,2.7-1.1,3.7-2.6c1-1.4,1.8-2.2,2.4-2.3
			c0.2,0,0.6,0.1,1.1,0.4c0.6,0.3,0.9,0.7,0.9,1.1c0.1,0.4-0.1,0.9-0.5,1.6c-0.4,0.7-0.9,1.4-1.6,2.2s-1.5,1.5-2.6,2.2
			c-1.1,0.7-2.1,1.1-3.1,1.3c-1,0.2-1.9,0.1-2.7-0.2c-1.5-0.6-2.8-1.8-3.9-3.7c-1.1-1.9-1.8-3.9-2.2-6.1c-0.4-2.2-0.3-4.3,0.3-6.3
			c0.7-2.2,2.4-3.5,5-4C407.2,112.7,408.7,112.9,410.3,113.5z M409.3,117.3c-0.2-1.2-1.2-1.7-2.8-1.4c-1.1,0.2-1.9,1-2.5,2.4
			c-0.2,0.4-0.3,0.9-0.3,1.4c0,0.5,0,1.1,0,1.7C407.9,120.7,409.7,119.3,409.3,117.3z"/>
		<path d="M430.1,109.3c0.9-0.8,2.1-1.4,3.4-1.6c1.3-0.3,2.7,0.1,4,1c2.4,1.7,4,4.5,4.7,8.3c0.4,2,0.2,4.1-0.5,6.5
			c-0.4,1.1-0.9,2.1-1.7,2.9c-0.8,0.8-1.7,1.4-2.9,1.6c-1.2,0.2-2.4,0.1-3.6-0.4c-1.2-0.5-2.3-1.1-3.2-2c-1.9-1.9-3.1-3.8-3.4-5.7
			c-0.5-2.6-0.2-5.1,1-7.6C428.4,111.1,429.1,110.1,430.1,109.3z M437.4,124.7c0.8-0.6,1.3-1.4,1.5-2.5c0.2-1.1,0.3-2.2,0.1-3.2
			c-0.2-1.1-0.5-2-0.8-2.8c-0.3-0.8-0.7-1.6-1.1-2.3c-0.4-0.7-1-1.3-1.7-1.7c-0.7-0.4-1.4-0.7-2.2-0.7c-1.2,0.4-2.1,1.4-2.8,2.8
			c-0.6,1.4-0.8,2.7-0.5,4c0.2,1.3,1.1,2.7,2.5,4.3c0.6,0.7,1.4,1.3,2.4,1.8S436.6,124.8,437.4,124.7z"/>
		<path d="M445.7,109l-0.6,0.1c-1.3,0.2-2.2,0.2-2.6-0.1c-0.4-0.3-0.7-0.6-0.7-0.9c-0.2-1.3,0.8-2.2,3.3-2.6l1.2-0.1
			c-0.8-4.7-1.1-7.7-0.9-8.9c0.2-1.2,0.7-2,1.5-2.4c0.4-0.2,1.1-0.4,2-0.5c2-0.4,3.4-0.4,4,0c0.7,0.4,1.1,0.9,1.2,1.6
			c0.1,0.7,0.1,1.2-0.2,1.4c-0.2,0.3-0.5,0.5-0.8,0.5c-0.3,0.1-0.8,0-1.4-0.2c-0.7-0.2-1.3-0.2-1.8-0.1c-0.5,0.1-0.9,0.3-1.1,0.8
			c-0.2,0.4-0.3,0.9-0.3,1.4c0,0.6,0.1,1.3,0.3,2.3l0.7,3.7c0.3,0,0.6-0.1,1.1-0.2c0.5-0.1,0.8-0.2,1.1-0.2c0.2,0,0.5-0.1,0.9-0.2
			c1.3-0.2,2,0.1,2.2,1c0.1,0.7,0,1.2-0.5,1.6c-0.6,0.4-1.1,0.7-1.8,0.8c-0.6,0.1-1.1,0.3-1.5,0.3c-0.4,0.1-0.6,0.1-0.7,0.1
			c0.3,1.1,0.8,3.2,1.6,6.3c0.8,3.1,1.4,5.9,1.9,8.4c0,0.5-0.2,1-0.6,1.5c-0.4,0.5-0.8,0.8-1.2,0.8c-0.8,0.1-1.3-0.2-1.4-1.2
			c-0.5-2.4-1-4.9-1.8-7.7c-0.7-2.7-1.3-5.2-1.9-7.5C446.4,108.9,446,108.9,445.7,109z"/>
		<path d="M473.8,90.3l0.8,5.3c0.1,0.3,0.4,1.7,0.9,4.1c1.7-0.3,3.4-0.7,5-1.1c0.9,0,1.4,0.5,1.6,1.3c0.2,0.8,0,1.4-0.5,1.9
			c-0.5,0.5-1.1,0.8-1.6,0.9c-0.6,0.1-1,0.2-1.3,0.3c-0.3,0.1-0.7,0.1-1.2,0.2c-0.5,0.1-0.9,0.1-1.1,0.2c0.1,0.3,0.3,1,0.6,2.4
			c0.3,1.3,0.5,2.2,0.6,2.6c1,3.9,1.9,7,2.8,9.4c0,0.6-0.2,1.1-0.5,1.6c-0.3,0.5-0.8,0.8-1.3,0.9c-0.5,0.1-1-0.2-1.3-0.8
			c-0.9-2.5-1.8-5.5-2.6-9c-0.8-3.5-1.3-5.6-1.5-6.4c-0.4,0.1-1.1,0.3-2.1,0.4c-1,0.2-1.8,0.3-2.5,0.2c-0.7,0-1.1-0.4-1.3-1.1
			c-0.3-1.4,0.4-2.3,2.1-2.6l2.1-0.3c0.3-0.1,0.6-0.1,0.8-0.2c-0.7-2.9-1-4.4-1-4.4c0-0.2-0.1-0.7-0.2-1.4c-0.1-0.7-0.2-1.7-0.4-3.1
			c0-0.5,0.2-1,0.6-1.4c0.4-0.4,0.8-0.7,1.2-0.8C473,89.2,473.5,89.5,473.8,90.3z"/>
		<path d="M500.4,105.1c0.3,1.8,0.6,3.6,0.7,5.3s0.3,2.9,0.3,3.4c0.1,0.6-0.1,1.1-0.5,1.5c-0.4,0.4-0.8,0.7-1.3,0.8
			c-0.8,0.2-1.3-0.1-1.4-0.9l0-0.3l-1.2-7.7l-0.4-2.2c-0.5-2.7-1.4-4.3-2.7-4.7c-0.6-0.2-1.3-0.3-2.1-0.1c-2.4,0.4-3.4,1.6-3,3.4
			c0.4,2.2,0.8,4,1.2,5.5c0.4,1.5,0.7,2.7,0.9,3.8c0.2,1.1,0.4,2,0.5,3l-0.1,0.2c-0.1,0.5-0.3,0.9-0.6,1.3s-0.7,0.7-1.1,0.7
			c-0.8,0.2-1.3-0.1-1.5-0.9l-0.1,0c-0.8-4.3-1.9-9-3.2-14.1c-1.3-5.1-2.4-9.7-3.3-13.9c0-0.7,0.3-1.3,0.9-1.8
			c0.2-0.2,0.5-0.3,0.8-0.3c0.3-0.1,0.7,0.1,1,0.4c0.3,0.3,0.6,0.9,0.9,1.6c0.3,0.8,0.5,1.6,0.6,2.4c0.2,0.8,0.4,1.9,0.7,3.3
			c0.3,1.4,0.6,2.6,0.9,3.7c1.3-1,2.6-1.7,4-1.9c1.4-0.3,2.6-0.3,3.5,0c1.7,0.5,2.9,1.5,3.8,3.2
			C499.5,101.6,500.1,103.3,500.4,105.1z"/>
		<path d="M513.4,94.2c1.6,0.6,2.5,1.5,2.8,2.8c0.2,1.3-0.2,2.7-1.3,4.2c-1.1,1.5-2.5,2.6-4.4,3.2c-0.2,0.1-0.3,0.1-0.4,0.1
			c-0.1,0-0.2,0.1-0.4,0.1c-0.2,0-0.3,0.1-0.4,0.1c-0.1,0-0.2,0.1-0.4,0.1c-0.2,0-0.3,0.1-0.4,0.1c-0.1,0-0.2,0-0.5,0.1
			c-0.2,0-0.4,0.1-0.5,0.1c0.7,2.2,1.5,3.6,2.1,4.2c1,0.5,1.7,0.7,2.3,0.7c1.4-0.3,2.7-1.1,3.7-2.6c1-1.4,1.8-2.2,2.4-2.3
			c0.2,0,0.6,0.1,1.1,0.4c0.6,0.3,0.9,0.7,0.9,1.1c0.1,0.4-0.1,0.9-0.5,1.6c-0.4,0.7-0.9,1.4-1.6,2.2c-0.7,0.8-1.5,1.5-2.6,2.2
			c-1.1,0.7-2.1,1.1-3.1,1.3c-1,0.2-1.9,0.1-2.7-0.2c-1.5-0.6-2.8-1.8-3.9-3.7c-1.1-1.9-1.8-3.9-2.2-6.1c-0.4-2.2-0.3-4.3,0.3-6.3
			c0.7-2.2,2.4-3.5,5-4C510.2,93.4,511.8,93.6,513.4,94.2z M512.3,98c-0.2-1.2-1.2-1.7-2.8-1.4c-1.1,0.2-1.9,1-2.5,2.4
			c-0.2,0.4-0.3,0.9-0.3,1.4c0,0.5,0,1.1,0,1.7C510.9,101.4,512.7,100,512.3,98z"/>
		<path d="M525.7,90.2c1.1-0.2,2.2-0.2,3.3-0.1c2.2,0.3,3.5,1,3.7,2c0.1,0.5,0,0.9-0.4,1.3c-0.4,0.4-0.8,0.6-1.4,0.7
			c-0.1,0-0.8-0.1-2.1-0.4c-1.3-0.3-2.3-0.4-3-0.3c-0.7,0.1-1.3,0.5-1.9,1c-0.5,0.5-0.7,1.1-0.6,1.8s0.4,1.2,0.9,1.6
			c0.4,0.4,1,0.6,1.6,0.7c0.6,0.1,1.3,0.1,2,0.2c1.9,0,3.3,0.1,4.1,0.3c1.4,0.4,2.3,1.4,2.6,3.3c0.3,1.8,0,3.5-1.2,5.2
			c-1.1,1.6-2.4,2.6-4,2.9c-1.5,0.3-2.8,0.4-3.9,0.2c-1.9-0.3-3-1-3.2-2.1c-0.2-1,0.3-1.6,1.5-1.9c0.6-0.1,1.4,0,2.6,0.3
			c1.1,0.3,2,0.4,2.7,0.3c0.7-0.1,1.2-0.7,1.7-1.6c0.4-1,0.6-1.8,0.4-2.6c0-0.2-0.1-0.4-0.2-0.7c-0.9-0.6-2.6-0.9-4.9-0.8
			c-0.8,0-1.7-0.1-2.5-0.2c-1.8-0.3-3-1.7-3.4-4.2c-0.3-1.7,0-3.2,1.1-4.4C522.5,91.4,523.9,90.6,525.7,90.2z"/>
		<path d="M547.3,87.8c1.6,0.6,2.5,1.5,2.8,2.8s-0.2,2.7-1.3,4.2c-1.1,1.5-2.5,2.6-4.4,3.2c-0.2,0.1-0.3,0.1-0.4,0.1
			c-0.1,0-0.2,0.1-0.4,0.1c-0.2,0-0.3,0.1-0.4,0.1c-0.1,0-0.2,0.1-0.4,0.1c-0.2,0-0.3,0.1-0.4,0.1c-0.1,0-0.2,0-0.5,0.1
			s-0.4,0.1-0.5,0.1c0.7,2.2,1.5,3.6,2.1,4.2c1,0.5,1.7,0.7,2.3,0.7c1.4-0.3,2.7-1.1,3.7-2.6c1-1.4,1.8-2.2,2.4-2.3
			c0.2,0,0.6,0.1,1.1,0.4c0.6,0.3,0.9,0.7,0.9,1.1c0.1,0.4-0.1,0.9-0.5,1.6c-0.4,0.7-0.9,1.4-1.6,2.2s-1.5,1.5-2.6,2.2
			c-1.1,0.7-2.1,1.1-3.1,1.3c-1,0.2-1.9,0.1-2.7-0.2c-1.5-0.6-2.8-1.8-3.9-3.7c-1.1-1.9-1.8-3.9-2.2-6.1c-0.4-2.2-0.3-4.3,0.3-6.3
			c0.7-2.2,2.4-3.5,5-4C544.2,87,545.7,87.2,547.3,87.8z M546.3,91.6c-0.2-1.2-1.2-1.7-2.8-1.4c-1.1,0.2-1.9,1-2.5,2.4
			c-0.2,0.4-0.3,0.9-0.3,1.4c0,0.5,0,1.1,0,1.7C544.8,95,546.7,93.6,546.3,91.6z"/>
		<path d="M560.6,77.2c-0.9-0.4-1.7-0.5-2.4-0.4c-0.8,0.1-1.4,0.4-2,0.9c-0.6,0.5-0.9,0.9-1.1,1.4c-0.6,1.3-1.1,2-1.5,2.1
			c-0.4,0.1-0.8,0.1-1.1-0.1c-0.6-0.2-0.9-0.7-1.1-1.4c-0.2-1.1,0.3-2.3,1.6-3.8c1.3-1.4,2.8-2.3,4.5-2.6c2.4-0.4,4.4,0.2,6.2,1.8
			c0.9,0.9,1.5,1.9,1.7,3c0.2,1.1,0.2,2.2-0.1,3.2c-0.3,1-0.7,1.9-1.2,2.8c-0.5,0.9-1,1.7-1.6,2.5c-1.3,1.9-1.9,3.1-1.8,3.6
			c0.1,0.5,0.4,1.1,0.9,1.6c0.5,0.5,0.8,0.9,0.8,1.2c0,0.2,0,0.5-0.1,0.8c-0.2,0.6-0.7,0.9-1.3,1.1s-1.4-0.2-2.2-0.9
			c-0.8-0.7-1.3-1.7-1.6-2.8c-0.2-1.1-0.2-2.1,0.1-3c0.2-0.9,0.6-1.7,1.1-2.5c0.5-0.8,1-1.5,1.5-2.2c1.6-2.2,2.3-3.8,2.1-4.7
			C561.9,78.2,561.4,77.6,560.6,77.2z M560.2,101c-0.1-0.5,0-1,0.3-1.5c0.3-0.5,0.8-0.9,1.4-1s1.2-0.1,1.6,0.1
			c0.4,0.2,0.7,0.7,0.8,1.6c0.2,0.9,0.1,1.6-0.3,1.9c-0.4,0.4-0.8,0.6-1.4,0.7s-1.1-0.1-1.6-0.5C560.6,101.9,560.3,101.5,560.2,101z
			"/>
	</g>
	<g>
		<path style="fill:#A7A8AC;" d="M14.7,75.5C22.4,50.6,26,38.6,44,37.1c28.1-2.3,217.7,39,237.2,45c15.1,4.6,25.3,14.9,30.7,35.5
			c4.4,17,17.6,69.4,18.5,82.1c1.2,16.4,14.4,50.3-10.6,55.7c-9.5,2.1-35.5,4.9-40.5,5.2c-27.1,1.4-32.2,1.5-26,9.7
			c8.4,11.1,46.1,29,37.5,29.7c-27.4,2.2-57.8-3-77.2-9.3c-13.5-4.4-26.8-11.9-35.1-21.7c-21,2-142.4-2.7-148.2-2.9
			c-19.1-0.8-28.4-13-30.1-30.3C-1.7,215.8,10.1,90.7,14.7,75.5z"/>
		<path style="fill:#FFFFFF;" d="M13.1,73.7c7.5-24.6,12.5-37.4,30.2-38.9c27.6-2.3,215,39.2,233.8,45c14.9,4.5,24.9,14.8,30.1,35.1
			c4.4,16.8,17.3,68.3,18.2,80.7c1.1,16.1,14.4,49.4-10,55.1c-5.9,1.4-27.5,4.4-38.9,5c-26.6,1.3-31.5,1.5-25.4,9.5
			c8.3,10.9,45.3,28.9,36.8,29.3c-24.7,1-58.4-3.5-77.2-10.3c-13.5-4.9-24.9-10.7-33.1-20.3c-20.6,2-141.7-2.7-147.5-3
			c-18.7-0.8-26.1-13.7-28-30.8C-0.4,209,8.5,88.7,13.1,73.7z"/>
		<path style="fill:#FFFFFF;stroke:#B8D432;stroke-width:1.5;stroke-miterlimit:10;" d="M21,78.8c7.1-23.1,11-35.7,27.7-37.1
			c25.9-2.1,205.2,39.4,222.5,44.7c14,4.3,23.4,13.9,28.3,33.1c4.1,15.8,16.1,63.2,17,74.9c1.1,15.2,14.6,46.7-8.3,52.3
			c-6.2,1.5-23.5,4-51.5,5.8c-25,1.6-23.1,2.4-17.4,10c7.8,10.3,41,27.4,30.4,26.3c-18.4-2-37.5-4.9-56.8-12.1
			c-10.7-4-23.3-10.2-31-19.3c-19.3,1.9-139.5-2.9-144.9-3.1c-17.6-0.7-24.4-11.4-26.2-27.5C8.5,206.8,16.7,92.9,21,78.8z"/>
	</g>
	<g style="enable-background:new    ;">
		<path d="M54,107.6l0.2,15.3c-0.1,0.6-0.3,1-0.7,1.4c-0.4,0.4-0.9,0.5-1.3,0.5c-0.7,0-1.1-0.5-1.1-1.5l-0.2-14.3
			c0-3.4,0.2-6.8,0.5-10.2c-2.5,0.2-5,0.3-7.3,0.3c-1,0-1.5-0.4-1.5-1.2c0-0.4,0.2-0.9,0.6-1.3c0.4-0.4,0.8-0.6,1.3-0.7
			c2.1,0,5.1-0.1,9-0.3c3.9-0.2,6.8-0.3,8.8-0.3c0.8,0.3,1.3,0.7,1.3,1.3c0,0.4-0.2,0.8-0.5,1.2c-0.4,0.4-0.8,0.6-1.3,0.7
			c-2.2,0-4.6,0-7.3,0.1C54.1,101.6,54,104.6,54,107.6z"/>
		<path d="M80.1,114.1c0,1.8-0.1,3.6-0.3,5.3s-0.3,2.9-0.3,3.4c0,0.6-0.3,1-0.8,1.4c-0.5,0.4-0.9,0.5-1.4,0.5
			c-0.8,0-1.2-0.4-1.2-1.2l0-0.3l0.3-7.8l0-2.2c0-2.8-0.6-4.5-1.7-5.2c-0.5-0.3-1.2-0.5-2-0.5c-2.4,0-3.6,0.9-3.6,2.8
			c0,2.2,0,4.1,0.1,5.6c0.1,1.5,0.1,2.8,0.1,3.9c0,1.1,0,2.1-0.1,3l-0.1,0.2c-0.1,0.4-0.4,0.8-0.9,1.2c-0.4,0.3-0.8,0.5-1.2,0.5
			c-0.8,0-1.3-0.4-1.3-1.2l-0.1,0c0-4.4-0.2-9.2-0.5-14.4c-0.4-5.2-0.6-10-0.6-14.3c0.1-0.7,0.6-1.2,1.2-1.6
			c0.2-0.1,0.5-0.2,0.9-0.2c0.3,0,0.7,0.2,0.9,0.6c0.3,0.4,0.5,1,0.6,1.8c0.1,0.8,0.2,1.7,0.2,2.5c0,0.8,0,2,0.1,3.4
			c0,1.4,0.1,2.7,0.2,3.8c1.4-0.8,2.9-1.1,4.3-1.1c1.4,0,2.5,0.2,3.4,0.6c1.5,0.8,2.6,2.1,3.1,3.9C79.9,110.5,80.1,112.3,80.1,114.1
			z"/>
		<path d="M84.8,96.1c0.4-0.4,0.7-0.5,1-0.6c0.3,0,0.4-0.1,0.5-0.1c1.3,0.2,2.1,0.7,2.3,1.3c0.1,0.3,0.2,0.8,0.2,1.4
			c0,0.6-0.3,1.2-0.8,1.9c-0.5,0.7-1,1-1.6,1c-0.6,0-1.1-0.3-1.5-0.9c-0.4-0.6-0.6-1.3-0.6-2.2C84.2,97.1,84.4,96.5,84.8,96.1z
			 M88.3,107.4l-0.1,2.8l-0.1,9.9c0,1.4,0,2.4,0,3c-0.1,0.6-0.3,1-0.7,1.4c-0.4,0.4-0.8,0.6-1.3,0.6c-0.5,0-0.9-0.4-1.2-1.1
			c0-0.8-0.1-1.8-0.1-3.2c-0.1-1.4-0.1-3.1-0.2-5c-0.1-2-0.1-3.9-0.1-5.8s0.1-3.6,0.2-5.1c0.1-0.5,0.4-0.8,1.1-0.8
			C87.5,104,88.3,105.2,88.3,107.4z"/>
		<path d="M100.6,104.3c1.1,0,2.2,0.2,3.3,0.5c2.1,0.7,3.2,1.6,3.2,2.7c0,0.5-0.2,0.9-0.6,1.2c-0.4,0.3-0.9,0.4-1.5,0.4
			c-0.1,0-0.8-0.3-1.9-0.8c-1.2-0.5-2.1-0.8-2.8-0.8c-0.7,0-1.4,0.2-2,0.6c-0.6,0.4-0.9,1-0.9,1.6c0,0.7,0.2,1.2,0.5,1.7
			c0.4,0.5,0.8,0.8,1.4,1c0.6,0.2,1.2,0.4,1.9,0.5c1.9,0.4,3.2,0.8,4,1.1c1.3,0.6,2,1.9,2,3.7c0,1.8-0.7,3.5-2.1,4.8
			c-1.4,1.4-2.9,2.1-4.4,2.1c-1.5,0-2.8-0.2-3.8-0.5c-1.8-0.7-2.7-1.6-2.7-2.7c0-1,0.6-1.5,1.8-1.5c0.6,0,1.4,0.3,2.4,0.8
			c1,0.5,1.9,0.8,2.6,0.8c0.7,0,1.3-0.4,1.9-1.3c0.6-0.9,0.9-1.7,0.9-2.5c0-0.2,0-0.4-0.1-0.7c-0.8-0.8-2.3-1.3-4.6-1.7
			c-0.8-0.1-1.6-0.4-2.4-0.7c-1.7-0.6-2.6-2.2-2.6-4.7c0-1.8,0.6-3.1,1.9-4.2C97.2,104.8,98.8,104.3,100.6,104.3z"/>
		<path d="M131.3,121.9c-2.1,2.1-4.1,3.2-6.2,3.2c-1,0-1.9-0.4-2.6-1.1c-0.8-0.8-1.3-1.7-1.7-3c-0.7-2.4-1.1-4.7-1.1-7
			c0-2.3,0.1-4.9,0.4-7.8c0.1-0.5,0.4-1,0.7-1.3c0.4-0.3,0.8-0.5,1.1-0.5c0.8,0,1.3,0.4,1.5,1.2c-0.2,2-0.3,3.9-0.3,5.8
			c0,1.9,0,3.2,0.1,4.1c0.1,2.1,0.8,4.3,2.1,6.4c1.2-0.3,2.2-0.8,3.2-1.6c1-0.8,1.8-1.7,2.3-2.7c-0.3-4.2-0.5-7.9-0.5-10.9
			c0-0.6,0.2-1.1,0.6-1.6s0.9-0.7,1.4-0.7c0.6,0,1,0.4,1.3,1.2c0,1.4,0.1,4.8,0.3,10.1c0.1,0.7,0.2,2.1,0.6,4.1
			c0.3,2,0.5,3.2,0.5,3.7c0,0.5-0.2,0.9-0.7,1.4c-0.4,0.5-0.9,0.7-1.5,0.7c-0.5,0-0.9-0.4-1.2-1.1L131.3,121.9z"/>
		<path d="M144.9,104.4c1.1,0,2.2,0.2,3.3,0.5c2.1,0.7,3.2,1.6,3.2,2.7c0,0.5-0.2,0.9-0.6,1.2c-0.4,0.3-0.9,0.4-1.5,0.4
			c-0.1,0-0.8-0.3-1.9-0.8c-1.2-0.5-2.1-0.8-2.8-0.8c-0.7,0-1.4,0.2-2,0.6c-0.6,0.4-0.9,1-0.9,1.6s0.2,1.2,0.5,1.7
			c0.4,0.5,0.8,0.8,1.4,1c0.6,0.2,1.2,0.4,1.9,0.5c1.9,0.4,3.2,0.8,4,1.1c1.3,0.6,2,1.9,2,3.7c0,1.8-0.7,3.5-2.1,4.8
			c-1.4,1.4-2.9,2.1-4.4,2.1c-1.5,0-2.8-0.2-3.8-0.5c-1.8-0.7-2.7-1.6-2.7-2.7c0-1,0.6-1.5,1.8-1.5c0.6,0,1.4,0.3,2.4,0.8
			c1,0.5,1.9,0.8,2.6,0.8c0.7,0,1.3-0.4,1.9-1.3c0.6-0.9,0.9-1.7,0.9-2.5c0-0.2,0-0.4-0.1-0.7c-0.8-0.8-2.3-1.3-4.6-1.7
			c-0.8-0.2-1.6-0.4-2.4-0.7c-1.7-0.6-2.6-2.2-2.6-4.7c0-1.8,0.6-3.1,1.9-4.2C141.5,104.9,143,104.4,144.9,104.4z"/>
		<path d="M166.3,106.1c1.4,0.9,2.2,2,2.2,3.3c0,1.3-0.7,2.6-2,3.9c-1.3,1.3-3,2.1-4.9,2.3c-0.2,0-0.3,0.1-0.4,0.1
			c-0.1,0-0.2,0-0.4,0s-0.3,0-0.4,0c-0.1,0-0.2,0-0.4,0c-0.2,0-0.3,0-0.4,0c-0.1,0-0.2,0-0.5,0c-0.2,0-0.4,0-0.5,0
			c0.3,2.3,0.7,3.8,1.3,4.5c0.8,0.7,1.6,1,2.1,1.1c1.5,0,2.8-0.6,4-1.8c1.2-1.2,2.2-1.8,2.7-1.8c0.2,0,0.5,0.2,1,0.6
			c0.5,0.4,0.7,0.8,0.7,1.3c0,0.4-0.3,0.9-0.8,1.5c-0.5,0.6-1.2,1.2-2,1.8c-0.8,0.6-1.8,1.2-2.9,1.6c-1.2,0.5-2.2,0.7-3.2,0.7
			c-1,0-1.9-0.2-2.6-0.7c-1.3-0.9-2.4-2.3-3.1-4.3c-0.7-2-1.1-4.2-1-6.4s0.5-4.3,1.5-6.1c1.1-2,3-3,5.6-3
			C163.5,104.8,164.9,105.2,166.3,106.1z M164.6,109.7c0-1.2-0.8-1.9-2.4-1.9c-1.1,0-2.1,0.6-2.8,1.9c-0.3,0.4-0.4,0.8-0.6,1.4
			c-0.1,0.5-0.2,1.1-0.3,1.6C162.6,112.7,164.6,111.7,164.6,109.7z"/>
		<path d="M173.8,119.8l0-1.3c0-1.8-0.1-3.8-0.4-6c-0.3-2.1-0.6-3.7-0.9-4.8c-0.3-1.1-0.5-1.7-0.5-2c0-0.3,0.2-0.6,0.6-0.9
			c0.4-0.3,0.8-0.4,1.3-0.4s0.9,0.2,1.2,0.6c0.3,0.4,0.5,0.8,0.5,1.2c0.1,0.4,0.1,0.9,0.2,1.6c0.1,0.7,0.1,1.1,0.1,1.3
			c0.8-1.8,2-3.1,3.8-3.8c0.9-0.4,1.9-0.6,3-0.6c2.4,0,3.6,0.6,3.6,1.9c0,0.8-0.4,1.4-1.2,1.8c-0.3,0.1-0.6,0.2-0.9,0.3l-1.3-0.1
			c-3.7,0-5.5,3.6-5.5,11l0,4l0,0.1c-0.1,0.5-0.4,1-0.8,1.4c-0.4,0.4-0.9,0.6-1.3,0.6c-0.6,0-1.1-0.5-1.3-1.6
			C173.9,122.8,173.8,121.4,173.8,119.8z"/>
		<path d="M201.4,123.9l0.1-2.3c0-0.4,0-0.8,0-1.4c0-0.6,0-1.2,0-2c0-0.7,0-1.5-0.1-2.2c-0.1-0.7-0.1-1.5-0.3-2.1
			c-0.2-1.4-0.5-2.5-1-3.4c-0.5-0.9-1.1-1.4-1.9-1.4c-0.8,0-1.4,0.1-1.9,0.4c-0.5,0.3-0.9,0.7-1.2,1.2c-0.6,1.1-1,2.4-1.2,3.7
			c-0.1,1.3-0.2,2.7-0.2,4.2l-0.1,4.8c0,0.6-0.2,1.1-0.7,1.4c-0.5,0.3-1,0.5-1.6,0.5c-0.7,0-1.1-0.5-1.1-1.4c0-2.4-0.1-5.4-0.2-9
			c-0.1-3.6-0.2-6.5-0.2-8.9c0.1-0.5,0.4-0.9,0.7-1.3c0.3-0.4,0.7-0.6,1-0.6c0.3,0,0.6,0,0.7,0.1c0.2,0,0.3,0.1,0.4,0.2
			s0.2,0.2,0.3,0.3c0.1,0.1,0.1,0.3,0.2,0.6c0,0.3,0.1,0.5,0.1,0.7c0,0.2,0,0.5,0,0.9c0,0.4,0,0.7,0.1,0.9c1.6-2.1,3.6-3.1,5.9-3.1
			c1.6,0,2.8,0.8,3.6,2.3c1.2,2.2,1.8,5.6,1.8,10.2l0.1,4.1c0,1.1-0.1,1.9-0.2,2.2c-0.1,0.4-0.3,0.7-0.4,0.9
			c-0.3,0.6-0.8,0.8-1.6,0.8C201.8,125.3,201.4,124.9,201.4,123.9z"/>
		<path d="M223.8,108.9l-0.1,3.1c0,1.2-0.1,2.7-0.3,4.5c0.1,3.1,0.5,6,1,8.4c-0.1,0.3-0.3,0.6-0.7,0.8c-0.4,0.2-0.8,0.3-1.2,0.3
			c-0.4,0-0.8-0.1-1-0.2c-0.3-0.1-0.4-0.3-0.5-0.6c-0.1-0.2-0.2-0.5-0.2-0.6c0-0.2-0.1-0.4-0.1-0.7s0-0.5,0-0.6
			c-1.4,1.4-3.2,2.1-5.4,2.1s-3.8-0.9-4.7-2.6s-1.4-4.1-1.4-7.1c0-5.3,1.5-8.7,4.5-10.1c0.9-0.4,2-0.7,3.2-0.6
			c1.2,0,2.4,0.2,3.5,0.6c0.4-0.5,0.9-0.8,1.6-0.8c1.2,0,1.8,0.9,1.9,2.8C223.8,108.1,223.8,108.5,223.8,108.9z M219.5,119.4
			c0.6-1.6,0.8-3.3,0.9-5.2c0-1.9-0.2-3.2-0.6-4.1c-0.4-0.9-1.2-1.3-2.3-1.3c-0.5,0-1.1,0-1.8,0.1s-1.4,0.7-2.1,2s-1,2.3-1,3.1
			l0,1.8c0,3.1,0.6,5.1,1.9,5.9c0.4,0.3,0.9,0.4,1.5,0.4c0.6,0,1.3-0.3,2.1-0.8C218.7,120.8,219.2,120.1,219.5,119.4z"/>
		<path d="M239.8,117.6l0.1-2.4c0-1.9-0.1-3.1-0.3-3.7c-0.2-0.6-0.4-1.1-0.7-1.6c-0.5-0.9-1.4-1.3-2.7-1.3c-1.3,0-2.2,0.4-2.7,1.2
			c-0.5,0.8-0.7,2.1-0.7,3.8l0.2,8.2c0,2.5-0.7,3.8-2.1,3.8c-0.8,0-1.2-0.4-1.3-1.3c0-6-0.3-11.3-1-15.9c0-0.6,0.2-1.1,0.6-1.6
			c0.4-0.5,0.9-0.7,1.4-0.7c0.5,0,0.9,0.3,1.2,0.9c1.1-1.4,2.5-2.2,4.3-2.1c2.3,0,4,1.1,5.3,3.4c1.4-2.1,3.4-3.2,5.9-3.2
			c1.2,0,2.2,0.3,3.1,0.8c0.9,0.5,1.7,1.2,2.2,2.1c1.4,2.3,2.1,6,2.1,11.2l0,1.9c0,1.8-0.2,3-0.5,3.5c-0.1,0.2-0.3,0.4-0.5,0.6
			c-0.2,0.2-0.6,0.3-1.2,0.3c-0.8,0-1.1-0.5-1.1-1.5l0.2-5.5c0-3.6-0.4-6.1-1.1-7.3c-0.5-0.7-1.1-1.4-1.8-1.9
			c-0.8-0.5-1.5-0.8-2.2-0.8c-0.7,0-1.2,0.1-1.6,0.4c-0.4,0.2-0.7,0.7-1,1.4c-0.5,1.2-0.7,3.5-0.7,7.1l0.1,6.4l-0.1,0
			c-0.1,0.5-0.4,0.9-0.9,1.2c-0.4,0.3-0.9,0.5-1.3,0.5c-0.7,0-1.1-0.4-1.1-1.3l-0.1,0L239.8,117.6z"/>
		<path d="M270,106.5c1.4,0.9,2.2,2,2.2,3.3c0,1.3-0.7,2.6-2,3.9c-1.3,1.3-3,2.1-4.9,2.3c-0.2,0-0.3,0.1-0.4,0.1c-0.1,0-0.2,0-0.4,0
			s-0.3,0-0.4,0c-0.1,0-0.2,0-0.4,0c-0.2,0-0.3,0-0.4,0c-0.1,0-0.2,0-0.5,0c-0.2,0-0.4,0-0.5,0c0.3,2.3,0.7,3.8,1.3,4.5
			c0.8,0.7,1.6,1,2.1,1.1c1.5,0,2.8-0.6,4-1.8c1.2-1.2,2.2-1.8,2.7-1.8c0.2,0,0.5,0.2,1,0.6c0.5,0.4,0.7,0.8,0.7,1.3
			c0,0.4-0.3,0.9-0.8,1.5c-0.5,0.6-1.2,1.2-2,1.8c-0.8,0.6-1.8,1.2-2.9,1.6c-1.2,0.5-2.2,0.7-3.2,0.7c-1,0-1.9-0.2-2.6-0.7
			c-1.3-0.9-2.4-2.3-3.1-4.3c-0.7-2-1.1-4.2-1-6.4s0.5-4.3,1.5-6.1c1.1-2,3-3,5.6-3C267.2,105.2,268.6,105.6,270,106.5z
			 M268.3,110.1c0-1.2-0.8-1.9-2.4-1.9c-1.1,0-2.1,0.6-2.8,1.9c-0.3,0.4-0.4,0.8-0.6,1.4c-0.1,0.5-0.2,1.1-0.3,1.6
			C266.3,113.1,268.3,112.1,268.3,110.1z"/>
	</g>
	<g style="enable-background:new    ;">
		<path d="M74.6,142.4c0.4-0.4,0.7-0.5,1-0.6c0.3,0,0.4-0.1,0.5-0.1c1.3,0.2,2.1,0.7,2.3,1.3c0.1,0.3,0.2,0.8,0.2,1.4
			c0,0.6-0.3,1.2-0.8,1.9c-0.5,0.7-1,1-1.6,1c-0.6,0-1.1-0.3-1.5-0.9c-0.4-0.6-0.7-1.3-0.6-2.2C73.9,143.3,74.2,142.7,74.6,142.4z
			 M78.1,153.7l-0.1,2.8l-0.1,9.9c0,1.4,0,2.4,0,3c-0.1,0.6-0.3,1-0.7,1.4c-0.4,0.4-0.8,0.6-1.3,0.6c-0.5,0-0.9-0.4-1.2-1.1
			c0-0.8-0.1-1.8-0.1-3.2c-0.1-1.4-0.1-3.1-0.2-5c-0.1-2-0.1-3.9-0.1-5.8c0-1.9,0.1-3.6,0.2-5.1c0.1-0.5,0.4-0.8,1.1-0.8
			C77.2,150.3,78.1,151.4,78.1,153.7z"/>
		<path d="M90.4,150.5c1.1,0,2.2,0.2,3.3,0.5c2.1,0.7,3.2,1.6,3.2,2.7c0,0.5-0.2,0.9-0.6,1.2c-0.4,0.3-0.9,0.4-1.5,0.4
			c-0.1,0-0.8-0.3-1.9-0.8c-1.2-0.5-2.1-0.8-2.8-0.8c-0.7,0-1.4,0.2-2,0.6c-0.6,0.4-0.9,1-0.9,1.6c0,0.7,0.2,1.2,0.5,1.7
			c0.4,0.5,0.8,0.8,1.4,1c0.6,0.2,1.2,0.4,1.9,0.5c1.9,0.4,3.2,0.8,4,1.1c1.3,0.6,2,1.9,2,3.7c0,1.8-0.7,3.5-2.1,4.8
			c-1.4,1.4-2.9,2.1-4.4,2.1c-1.5,0-2.8-0.2-3.8-0.5c-1.8-0.7-2.7-1.6-2.7-2.7c0-1,0.6-1.5,1.8-1.5c0.6,0,1.4,0.3,2.4,0.8
			c1,0.5,1.9,0.8,2.6,0.8c0.7,0,1.3-0.4,1.9-1.3c0.6-0.9,0.9-1.7,0.9-2.5c0-0.2,0-0.4-0.1-0.7c-0.8-0.8-2.3-1.3-4.6-1.7
			c-0.8-0.2-1.6-0.4-2.4-0.7c-1.7-0.6-2.6-2.2-2.6-4.7c0-1.8,0.6-3.1,1.9-4.2C87,151,88.5,150.5,90.4,150.5z"/>
		<path d="M117.4,141.2l-0.2,5.3c0,0.4,0.1,1.7,0.2,4.2c1.7,0,3.5,0,5.1-0.2c0.9,0.2,1.3,0.7,1.3,1.5c0,0.8-0.3,1.4-0.9,1.8
			c-0.6,0.4-1.2,0.5-1.8,0.6c-0.6,0-1,0-1.4,0c-0.3,0-0.7,0-1.2,0c-0.5,0-0.9,0-1.1,0c0,0.3,0.1,1.1,0.1,2.4
			c0.1,1.4,0.1,2.3,0.1,2.7c0.2,4,0.5,7.2,1,9.7c-0.1,0.6-0.4,1-0.8,1.5c-0.4,0.4-0.9,0.6-1.4,0.6s-0.9-0.4-1.2-1.1
			c-0.4-2.6-0.7-5.7-0.9-9.3c-0.1-3.6-0.2-5.8-0.3-6.5c-0.4,0-1.1,0-2.1,0c-1,0-1.8-0.1-2.4-0.3c-0.7-0.1-1-0.6-1-1.3
			c0-1.5,0.9-2.2,2.5-2.2l2.1,0.1c0.3,0,0.6,0,0.8,0c-0.1-3-0.2-4.5-0.2-4.5c0-0.2,0-0.7,0-1.4c0-0.7,0.1-1.7,0.1-3.1
			c0.1-0.5,0.4-0.9,0.8-1.3s0.9-0.5,1.3-0.5C116.9,139.9,117.3,140.3,117.4,141.2z"/>
		<path d="M140.4,154.9l-0.1,3.1c0,1.2-0.1,2.7-0.3,4.5c0.1,3.1,0.5,6,1,8.4c-0.1,0.3-0.3,0.6-0.7,0.8c-0.4,0.2-0.8,0.3-1.2,0.3
			c-0.4,0-0.8-0.1-1-0.2c-0.3-0.1-0.4-0.3-0.5-0.6c-0.1-0.2-0.2-0.5-0.2-0.6c0-0.2-0.1-0.4-0.1-0.7c0-0.3,0-0.5,0-0.6
			c-1.4,1.4-3.2,2.1-5.4,2.1c-2.2,0-3.8-0.9-4.7-2.6c-0.9-1.7-1.4-4.1-1.4-7.1c0-5.3,1.5-8.7,4.5-10.1c0.9-0.4,2-0.7,3.2-0.6
			s2.4,0.2,3.5,0.6c0.4-0.5,0.9-0.8,1.6-0.8c1.2,0,1.8,0.9,1.9,2.8C140.4,154.1,140.4,154.5,140.4,154.9z M136,165.4
			c0.6-1.6,0.8-3.3,0.9-5.2c0-1.9-0.2-3.2-0.6-4.1c-0.4-0.9-1.2-1.3-2.3-1.3c-0.5,0-1.1,0-1.8,0.1s-1.4,0.7-2.1,2s-1,2.3-1,3.1
			l0,1.8c0,3.1,0.6,5.1,1.9,5.9c0.4,0.3,0.9,0.4,1.5,0.4c0.6,0,1.3-0.3,2.1-0.8C135.2,166.8,135.7,166.1,136,165.4z"/>
		<path d="M149,165.1l0,4.4c-0.1,0.5-0.3,1-0.8,1.4c-0.5,0.4-0.9,0.6-1.3,0.6c-0.8,0-1.2-0.5-1.2-1.5c0-3.1-0.1-7.5-0.3-13
			c-0.2-5.6-0.3-8.7-0.3-9.4l0-5.7c0.1-0.5,0.4-0.9,0.8-1.3c0.4-0.4,0.9-0.5,1.3-0.5c0.7,0,1.1,0.4,1.2,1.3c0,4.3,0,7.3,0,8.9
			c0,1.6,0.2,4.8,0.4,9.8c0.1-0.1,0.4-0.3,0.7-0.6c1.5-1.2,3.5-3.4,5.9-6.4c0.5-0.6,1-1,1.7-1.5c0.7-0.4,1.2-0.6,1.5-0.6
			c0.3,0,0.7,0.1,1,0.3c0.3,0.2,0.5,0.5,0.5,0.8c0,0.1-0.2,0.4-0.6,1.1c-1.3,2.2-2.7,4.1-4.3,5.8c1.3,1.5,2.6,3.8,3.9,6.8
			c0.5,1.2,0.9,2.1,1.1,2.5c0.2,0.4,0.4,0.8,0.4,1.3c0,0.5-0.2,0.9-0.5,1.3c-0.4,0.4-0.8,0.6-1.3,0.6c-0.5,0-1.2-1.3-2.1-3.8
			c-0.3-1-0.9-2.2-1.5-3.4c-0.7-1.3-1.4-2.2-2.2-3c-0.3,0.4-1,1-2,1.9C150.1,164,149.4,164.7,149,165.1z"/>
		<path d="M175,152.4c1.4,0.9,2.2,2,2.2,3.3c0,1.3-0.7,2.6-2,3.9c-1.3,1.3-3,2.1-4.9,2.3c-0.2,0-0.3,0.1-0.4,0.1c-0.1,0-0.2,0-0.4,0
			s-0.3,0-0.4,0c-0.1,0-0.2,0-0.4,0c-0.2,0-0.3,0-0.4,0c-0.1,0-0.2,0-0.5,0c-0.2,0-0.4,0-0.5,0c0.3,2.3,0.7,3.8,1.3,4.5
			c0.8,0.7,1.6,1,2.1,1.1c1.5,0,2.8-0.6,4-1.8c1.2-1.2,2.2-1.8,2.7-1.8c0.2,0,0.5,0.2,1,0.6c0.5,0.4,0.7,0.8,0.7,1.3
			c0,0.4-0.3,0.9-0.8,1.5c-0.5,0.6-1.2,1.2-2,1.8c-0.8,0.6-1.8,1.2-2.9,1.6c-1.2,0.5-2.2,0.7-3.2,0.7c-1,0-1.9-0.2-2.6-0.7
			c-1.3-0.9-2.4-2.3-3.1-4.3c-0.7-2-1.1-4.2-1-6.4c0-2.2,0.5-4.3,1.5-6.1c1.1-2,3-3,5.6-3C172.1,151.1,173.6,151.6,175,152.4z
			 M173.3,156c0-1.2-0.8-1.9-2.4-1.9c-1.1,0-2.1,0.6-2.8,1.9c-0.3,0.4-0.4,0.8-0.6,1.4c-0.1,0.5-0.2,1.1-0.3,1.6
			C171.3,159,173.3,158,173.3,156z"/>
		<path d="M193.3,170.2l0.1-2.3c0-0.4,0-0.8,0-1.4c0-0.6,0-1.2,0-2c0-0.7,0-1.5-0.1-2.2c-0.1-0.7-0.1-1.5-0.3-2.1
			c-0.2-1.4-0.5-2.5-1-3.4s-1.1-1.4-1.9-1.4c-0.8,0-1.4,0.1-1.9,0.4c-0.5,0.3-0.9,0.7-1.2,1.2c-0.6,1.1-1,2.4-1.2,3.7
			c-0.1,1.3-0.2,2.7-0.2,4.2l-0.2,4.8c0,0.6-0.2,1.1-0.7,1.4c-0.5,0.3-1,0.5-1.6,0.5c-0.7,0-1.1-0.5-1.1-1.4c0-2.4-0.1-5.4-0.2-9
			c-0.1-3.6-0.2-6.5-0.2-8.9c0.1-0.5,0.4-0.9,0.7-1.3c0.3-0.4,0.7-0.6,1-0.6c0.3,0,0.6,0,0.7,0.1s0.3,0.1,0.4,0.2
			c0.1,0.1,0.2,0.2,0.3,0.3c0.1,0.1,0.1,0.3,0.2,0.6c0,0.3,0.1,0.5,0.1,0.7c0,0.2,0,0.5,0,0.9c0,0.4,0,0.7,0.1,0.9
			c1.6-2.1,3.5-3.1,5.9-3.1c1.6,0,2.8,0.8,3.6,2.3c1.2,2.2,1.8,5.6,1.8,10.2l0.1,4.1c0,1.1-0.1,1.9-0.2,2.2
			c-0.1,0.4-0.3,0.7-0.4,0.9c-0.3,0.6-0.8,0.8-1.6,0.8C193.6,171.6,193.3,171.1,193.3,170.2z"/>
		<path d="M211,141.9c0.1-0.5,0.4-0.9,0.9-1.3c0.4-0.3,0.9-0.5,1.3-0.5c0.6,0,1,0.4,1.2,1.2c0,1.7,0,3-0.1,4.1
			c-0.1,1-0.1,1.8-0.1,2.3c0,0.5,0.1,1.7,0.2,3.5c0.6-0.2,1.4-0.3,2.3-0.3c1.7,0,3.3,0.5,4.6,1.4s2.4,2.1,3.1,3.7
			c0.7,1.6,1.1,3.3,1.1,5.1c0,1.9-0.4,3.5-1.1,5.1s-1.8,2.8-3.3,3.9s-3.2,1.6-5.1,1.6c-3.1,0-4.6-0.8-4.6-2.5
			c0-2.6-0.1-6.2-0.2-10.9S211,148.2,211,141.9z M217.9,155.3c-0.8-0.1-1.4-0.2-1.9-0.2s-1,0.1-1.4,0.3c0.1,1.8,0.3,6,0.5,12.5
			c0.5,0.2,1.1,0.3,1.7,0.3c1.6,0,2.9-0.6,3.9-1.9c1-1.2,1.5-2.7,1.5-4.4c0-1.7-0.3-3.1-1.1-4.3
			C220.5,156.4,219.4,155.6,217.9,155.3z"/>
		<path d="M227,153.3c0-0.6,0.2-1,0.5-1.5c0.3-0.4,0.8-0.6,1.3-0.6c0.5,0,1,0.3,1.4,0.9c0.7,2.3,1.4,4.4,2.2,6.2
			c0.8,1.9,1.5,3.6,2.1,5.1c0.7,1.6,1.2,2.8,1.5,3.6c0.5-1.8,1.2-4.4,2-7.8c0.8-3.3,1.4-5.7,1.8-7.1c0.1-0.6,0.8-1,1.9-1
			c0.4,0,0.7,0.1,1.1,0.4c0.4,0.3,0.5,0.6,0.5,0.9c0,0.3,0,0.6-0.1,0.9c-4.2,14.8-7.3,25-9.3,30.5c-0.3,0.8-0.7,1.2-1.4,1.2
			c-0.4,0-0.8-0.2-1.1-0.6c-0.3-0.4-0.5-0.9-0.5-1.5c0-0.6,0.2-1.7,0.6-3.1c0.4-1.4,0.9-3,1.5-4.7c0.6-1.7,1-2.9,1.1-3.5
			c-0.7-1.2-1.8-3.8-3.5-7.9C229.2,159.8,228,156.2,227,153.3z"/>
	</g>
	<g style="enable-background:new    ;">
		<path d="M61.1,196.7c1.1,0,2.2,0.2,3.3,0.5c2.1,0.7,3.2,1.6,3.2,2.7c0,0.5-0.2,0.9-0.6,1.2c-0.4,0.3-0.9,0.4-1.5,0.4
			c-0.1,0-0.8-0.3-1.9-0.8c-1.2-0.5-2.1-0.8-2.8-0.8c-0.7,0-1.4,0.2-2,0.6c-0.6,0.4-0.9,1-0.9,1.6c0,0.7,0.2,1.2,0.5,1.7
			c0.4,0.5,0.8,0.8,1.4,1c0.6,0.2,1.2,0.4,1.9,0.5c1.9,0.4,3.2,0.8,4,1.1c1.3,0.6,2,1.9,2,3.7c0,1.8-0.7,3.5-2.1,4.8
			c-1.4,1.4-2.9,2.1-4.4,2.1c-1.5,0-2.8-0.2-3.8-0.5c-1.8-0.7-2.7-1.6-2.7-2.7c0-1,0.6-1.5,1.8-1.5c0.6,0,1.4,0.3,2.4,0.8
			c1,0.5,1.9,0.8,2.6,0.8c0.7,0,1.3-0.4,1.9-1.3c0.6-0.9,0.9-1.7,0.9-2.5c0-0.2,0-0.4-0.1-0.7c-0.8-0.8-2.3-1.3-4.6-1.7
			c-0.8-0.1-1.6-0.4-2.4-0.7c-1.7-0.6-2.6-2.2-2.6-4.7c0-1.8,0.6-3.1,1.9-4.2C57.8,197.2,59.3,196.7,61.1,196.7z"/>
		<path d="M75.2,197.8c1.1-0.6,2.3-1,3.7-1c1.4,0,2.6,0.6,3.7,1.7c2.1,2.2,3.1,5.2,3.1,9c0,2-0.6,4.1-1.7,6.3
			c-0.6,1-1.3,1.9-2.2,2.6c-0.9,0.7-2,1-3.1,1c-1.2,0-2.4-0.4-3.5-1c-1.1-0.7-2-1.6-2.8-2.6c-1.5-2.2-2.3-4.3-2.2-6.3
			c0-2.6,0.8-5.1,2.4-7.3C73.2,199.3,74.1,198.5,75.2,197.8z M79.5,214.3c0.8-0.4,1.5-1.2,1.9-2.2c0.4-1,0.7-2.1,0.7-3.2
			c0-1.1-0.1-2.1-0.2-2.9c-0.1-0.9-0.4-1.7-0.7-2.5c-0.3-0.8-0.7-1.5-1.3-2c-0.6-0.6-1.2-0.9-2-1.1c-1.3,0.2-2.3,0.9-3.2,2.2
			c-0.9,1.3-1.3,2.6-1.3,3.8c0,1.3,0.5,2.8,1.6,4.7c0.5,0.9,1.1,1.6,2,2.2C77.8,214,78.6,214.3,79.5,214.3z"/>
		<path d="M99.6,209.6l0.1-2.4c0-1.9-0.1-3.1-0.3-3.7c-0.2-0.6-0.4-1.1-0.7-1.6c-0.5-0.9-1.4-1.3-2.7-1.3c-1.3,0-2.2,0.4-2.7,1.2
			c-0.5,0.8-0.7,2.1-0.7,3.8l0.2,8.2c0,2.5-0.7,3.8-2.1,3.8c-0.8,0-1.2-0.4-1.3-1.3c0-6-0.3-11.3-1-15.9c0-0.6,0.2-1.1,0.6-1.6
			c0.4-0.5,0.9-0.7,1.4-0.7s0.9,0.3,1.2,0.9c1.1-1.4,2.5-2.2,4.3-2.1c2.3,0,4,1.1,5.3,3.4c1.4-2.1,3.4-3.2,5.9-3.2
			c1.2,0,2.2,0.3,3.1,0.8c0.9,0.5,1.7,1.2,2.2,2.1c1.4,2.3,2.1,6,2.1,11.2l0,1.9c0,1.8-0.2,3-0.5,3.5c-0.1,0.2-0.3,0.4-0.5,0.6
			c-0.2,0.2-0.6,0.3-1.2,0.3c-0.8,0-1.1-0.5-1.1-1.5l0.2-5.5c0-3.6-0.4-6.1-1.1-7.3c-0.5-0.7-1.1-1.4-1.8-1.9
			c-0.8-0.5-1.5-0.8-2.2-0.8c-0.7,0-1.2,0.1-1.6,0.4c-0.4,0.2-0.7,0.7-1,1.4c-0.5,1.2-0.7,3.5-0.7,7l0.1,6.4h-0.1
			c-0.1,0.5-0.4,0.9-0.9,1.2c-0.4,0.3-0.9,0.5-1.3,0.5c-0.7,0-1.1-0.4-1.1-1.3l-0.1,0L99.6,209.6z"/>
		<path d="M129.9,198.6c1.4,0.9,2.2,2,2.2,3.3s-0.7,2.6-2,3.9c-1.3,1.3-3,2.1-4.9,2.3c-0.2,0-0.3,0-0.4,0.1c-0.1,0-0.2,0-0.4,0
			c-0.2,0-0.3,0-0.4,0c-0.1,0-0.2,0-0.4,0s-0.3,0-0.4,0c-0.1,0-0.2,0-0.5,0c-0.2,0-0.4,0-0.5,0c0.3,2.3,0.7,3.8,1.3,4.5
			c0.8,0.7,1.6,1,2.1,1.1c1.5,0,2.8-0.6,4-1.8c1.2-1.2,2.2-1.8,2.7-1.8c0.2,0,0.5,0.2,1,0.6c0.5,0.4,0.7,0.8,0.7,1.3
			c0,0.4-0.3,0.9-0.8,1.5c-0.5,0.6-1.2,1.2-2,1.8c-0.8,0.6-1.8,1.2-2.9,1.6c-1.2,0.5-2.2,0.7-3.2,0.7c-1,0-1.9-0.2-2.6-0.7
			c-1.3-0.9-2.4-2.3-3.1-4.3c-0.7-2-1.1-4.2-1-6.4c0-2.2,0.5-4.3,1.5-6.1c1.1-2,3-3,5.6-3C127,197.2,128.5,197.7,129.9,198.6z
			 M128.2,202.1c0-1.2-0.8-1.9-2.4-1.9c-1.1,0-2.1,0.6-2.8,1.9c-0.3,0.4-0.4,0.8-0.6,1.4c-0.1,0.5-0.2,1.1-0.3,1.6
			C126.2,205.2,128.2,204.2,128.2,202.1z"/>
		<path d="M139.9,198.1c1.1-0.6,2.3-1,3.7-1c1.4,0,2.6,0.6,3.7,1.7c2.1,2.2,3.1,5.2,3.1,9c0,2-0.6,4.1-1.7,6.3
			c-0.6,1-1.3,1.9-2.2,2.6c-0.9,0.7-2,1-3.1,1c-1.2,0-2.4-0.4-3.5-1s-2-1.6-2.8-2.6c-1.5-2.2-2.3-4.3-2.2-6.3c0-2.6,0.8-5.1,2.4-7.3
			C138,199.5,138.9,198.7,139.9,198.1z M144.2,214.6c0.8-0.4,1.5-1.2,1.9-2.2c0.4-1,0.7-2.1,0.7-3.2c0-1.1-0.1-2.1-0.2-2.9
			c-0.1-0.9-0.4-1.7-0.7-2.5c-0.3-0.8-0.7-1.5-1.3-2c-0.6-0.6-1.2-0.9-2-1.1c-1.3,0.2-2.3,0.9-3.2,2.2c-0.9,1.3-1.3,2.6-1.3,3.8
			s0.5,2.8,1.6,4.7c0.5,0.9,1.1,1.6,2,2.2C142.5,214.3,143.4,214.6,144.2,214.6z"/>
		<path d="M165.8,216.4l0.1-2.3c0-0.4,0-0.8,0-1.4c0-0.6,0-1.2,0-2c0-0.8,0-1.5-0.1-2.2c-0.1-0.7-0.1-1.5-0.3-2.1
			c-0.2-1.4-0.5-2.5-1-3.4c-0.5-0.9-1.1-1.4-1.9-1.4c-0.8,0-1.4,0.1-1.9,0.4c-0.5,0.3-0.9,0.7-1.2,1.2c-0.6,1.1-1,2.4-1.2,3.7
			c-0.1,1.3-0.2,2.7-0.2,4.2l-0.1,4.8c0,0.6-0.2,1.1-0.7,1.4c-0.5,0.3-1,0.5-1.6,0.5c-0.7,0-1.1-0.5-1.1-1.4c0-2.4-0.1-5.4-0.2-9
			c-0.1-3.6-0.2-6.5-0.2-8.9c0.1-0.5,0.4-0.9,0.7-1.3s0.7-0.6,1-0.6s0.6,0,0.7,0.1c0.2,0,0.3,0.1,0.4,0.2c0.1,0.1,0.2,0.2,0.3,0.3
			c0.1,0.1,0.1,0.3,0.2,0.6c0,0.3,0.1,0.5,0.1,0.7c0,0.2,0,0.5,0,0.9c0,0.4,0,0.7,0.1,0.9c1.6-2.1,3.6-3.1,5.9-3.1
			c1.6,0,2.8,0.8,3.6,2.3c1.2,2.2,1.8,5.6,1.8,10.2l0.1,4.1c0,1.1-0.1,1.9-0.2,2.2c-0.1,0.4-0.3,0.7-0.4,0.9
			c-0.3,0.6-0.8,0.8-1.6,0.8C166.1,217.8,165.8,217.3,165.8,216.4z"/>
		<path d="M184.7,198.8c1.4,0.9,2.2,2,2.2,3.3s-0.7,2.6-2,3.9c-1.3,1.3-3,2.1-4.9,2.3c-0.2,0-0.3,0-0.4,0.1c-0.1,0-0.2,0-0.4,0
			c-0.2,0-0.3,0-0.4,0c-0.1,0-0.2,0-0.4,0s-0.3,0-0.4,0c-0.1,0-0.2,0-0.5,0c-0.2,0-0.4,0-0.5,0c0.3,2.3,0.7,3.8,1.3,4.5
			c0.8,0.7,1.6,1,2.1,1.1c1.5,0,2.8-0.6,4-1.8c1.2-1.2,2.2-1.8,2.7-1.8c0.2,0,0.5,0.2,1,0.6c0.5,0.4,0.7,0.8,0.7,1.3
			c0,0.4-0.3,0.9-0.8,1.5c-0.5,0.6-1.2,1.2-2,1.8c-0.8,0.6-1.8,1.2-2.9,1.6c-1.2,0.5-2.2,0.7-3.2,0.7c-1,0-1.9-0.2-2.6-0.7
			c-1.3-0.9-2.4-2.3-3.1-4.3c-0.7-2-1.1-4.2-1-6.4s0.5-4.3,1.5-6.1c1.1-2,3-3,5.6-3C181.8,197.5,183.2,197.9,184.7,198.8z
			 M183,202.3c0-1.2-0.8-1.9-2.4-1.9c-1.1,0-2.1,0.6-2.8,1.9c-0.3,0.4-0.4,0.8-0.6,1.4c-0.1,0.5-0.2,1.1-0.3,1.6
			C180.9,205.4,182.9,204.4,183,202.3z"/>
		<path d="M212,198.9c1.4,0.9,2.2,2,2.2,3.3s-0.7,2.6-2,3.9c-1.3,1.3-3,2.1-4.9,2.3c-0.2,0-0.3,0-0.4,0.1c-0.1,0-0.2,0-0.4,0
			c-0.2,0-0.3,0-0.4,0c-0.1,0-0.2,0-0.4,0s-0.3,0-0.4,0c-0.1,0-0.2,0-0.5,0c-0.2,0-0.4,0-0.5,0c0.3,2.3,0.7,3.8,1.3,4.5
			c0.8,0.6,1.6,1,2.1,1.1c1.5,0,2.8-0.6,4-1.8c1.2-1.2,2.2-1.8,2.7-1.8c0.2,0,0.5,0.2,1,0.6c0.5,0.4,0.7,0.8,0.7,1.3
			c0,0.4-0.3,0.9-0.8,1.5c-0.5,0.6-1.2,1.2-2,1.8c-0.8,0.6-1.8,1.2-2.9,1.6c-1.2,0.5-2.2,0.7-3.2,0.7c-1,0-1.9-0.2-2.6-0.7
			c-1.3-0.9-2.4-2.3-3.1-4.3c-0.7-2-1.1-4.2-1-6.4s0.5-4.3,1.5-6.1c1.1-2,3-3,5.6-3C209.2,197.6,210.6,198,212,198.9z M210.3,202.5
			c0-1.2-0.8-1.9-2.4-1.9c-1.1,0-2.1,0.6-2.8,1.9c-0.3,0.4-0.4,0.8-0.6,1.4c-0.1,0.5-0.2,1.1-0.3,1.6
			C208.3,205.5,210.3,204.5,210.3,202.5z"/>
		<path d="M218.8,207.1c0-1.5,0-2.8,0-4c0-1.1,0-2-0.1-2.7c0-0.7,0-2.6,0-5.7c0-3.1,0-5,0.1-5.7c0-0.7,0.2-1.3,0.5-1.6
			s0.8-0.5,1.5-0.5c1,0,1.6,0.5,1.8,1.5c-0.3,2.7-0.4,7.9-0.5,15.6c0,5.9,0.6,9.3,1.8,10.4c0.3-0.1,0.7-0.4,1.1-0.9
			c0.4-0.5,0.7-0.9,1.1-1.4s0.7-0.7,1.2-0.7s0.8,0.2,1.1,0.6s0.4,1.1,0.4,2c0,0.9-0.5,1.8-1.5,2.7c-1,0.9-2.1,1.4-3.3,1.4
			c-2.5,0-4-2.2-4.6-6.5C219,210.1,218.9,208.6,218.8,207.1z"/>
		<path d="M237.2,197.4c1.1,0,2.2,0.2,3.3,0.5c2.1,0.7,3.2,1.6,3.2,2.7c0,0.5-0.2,0.9-0.6,1.2c-0.4,0.3-0.9,0.4-1.5,0.4
			c-0.1,0-0.8-0.3-1.9-0.8c-1.2-0.5-2.1-0.8-2.8-0.8c-0.7,0-1.4,0.2-2,0.6c-0.6,0.4-0.9,1-0.9,1.6c0,0.7,0.2,1.2,0.5,1.7
			c0.4,0.5,0.8,0.8,1.4,1c0.6,0.2,1.2,0.4,1.9,0.5c1.9,0.4,3.2,0.8,4,1.1c1.3,0.6,2,1.9,2,3.7c0,1.8-0.7,3.5-2.1,4.8
			c-1.4,1.4-2.9,2.1-4.4,2.1c-1.5,0-2.8-0.2-3.8-0.5c-1.8-0.7-2.7-1.6-2.7-2.7c0-1,0.6-1.5,1.8-1.5c0.6,0,1.4,0.3,2.4,0.8
			c1,0.5,1.9,0.8,2.6,0.8c0.7,0,1.3-0.4,1.9-1.3c0.6-0.9,0.9-1.7,0.9-2.5c0-0.2,0-0.4-0.1-0.7c-0.8-0.8-2.3-1.3-4.6-1.7
			c-0.8-0.2-1.6-0.4-2.4-0.7c-1.7-0.6-2.6-2.2-2.6-4.7c0-1.8,0.6-3.1,1.9-4.2C233.9,197.9,235.4,197.4,237.2,197.4z"/>
		<path d="M258.7,199.1c1.4,0.9,2.2,2,2.2,3.3c0,1.3-0.7,2.6-2,3.9c-1.3,1.3-3,2.1-4.9,2.3c-0.2,0-0.3,0.1-0.4,0.1
			c-0.1,0-0.2,0-0.4,0c-0.2,0-0.3,0-0.4,0c-0.1,0-0.2,0-0.4,0c-0.2,0-0.3,0-0.4,0c-0.1,0-0.2,0-0.5,0c-0.2,0-0.4,0-0.5,0
			c0.3,2.3,0.7,3.8,1.3,4.5c0.8,0.7,1.6,1,2.1,1.1c1.5,0,2.8-0.6,4-1.8c1.2-1.2,2.2-1.8,2.7-1.8c0.2,0,0.5,0.2,1,0.6
			c0.5,0.4,0.7,0.8,0.7,1.3c0,0.4-0.3,0.9-0.8,1.5c-0.5,0.6-1.2,1.2-2,1.8c-0.8,0.6-1.8,1.2-2.9,1.6c-1.2,0.5-2.2,0.7-3.2,0.7
			c-1,0-1.9-0.2-2.6-0.7c-1.3-0.9-2.4-2.3-3.1-4.3c-0.7-2-1.1-4.2-1-6.4s0.5-4.3,1.5-6.1c1.1-2,3-3,5.6-3
			C255.8,197.7,257.3,198.2,258.7,199.1z M257,202.6c0-1.2-0.8-1.9-2.4-1.9c-1.1,0-2.1,0.6-2.8,1.9c-0.3,0.4-0.4,0.8-0.6,1.4
			c-0.1,0.5-0.2,1.1-0.3,1.6C255,205.7,257,204.7,257,202.6z"/>
		<path d="M269.8,187.9l-0.5,15c0,1.4,0,2.4,0,3.2c-0.1,0.4-0.3,0.7-0.7,1c-0.3,0.3-0.7,0.4-1.1,0.4c-0.4,0-0.7-0.3-1-1
			c-0.4-7.4-0.6-13.6-0.6-18.7c0.1-0.4,0.5-0.7,0.9-0.9c0.5-0.2,0.9-0.2,1.2-0.2C269.1,186.8,269.6,187.1,269.8,187.9z M266,214.5
			c0-0.5,0.2-0.9,0.6-1.4c0.4-0.5,0.9-0.7,1.6-0.7c0.7,0,1.2,0.1,1.5,0.4c0.3,0.3,0.5,0.8,0.5,1.8s-0.2,1.5-0.6,1.8
			c-0.4,0.3-0.9,0.5-1.3,0.5c-0.7,0-1.2-0.3-1.6-0.8C266.2,215.5,266,215,266,214.5z"/>
	</g>
</g>
<g id="dog">
	<path id="hand2" style="fill:#B56F29;" d="M412.5,452.5c0,0,38.5,31.3,42,33c7,3.3,12.9-9.6,19.5-5.6c4.6,2.8,9.2,12.1,5.3,15.9
		c-4.8,4.6-17.3-3.4-18.3,2.3c-1,5.7,13.2,2,16.9,7.7c3.2,5.1-3.4,16.4-10.8,13.4c-7.3-2.9-8.6-16.4-11.7-15.8s2.7,12,0.3,15.9
		c-3.1,5.1-10.3,7.5-15.9-0.4c-6.2-8.7,7.2-17.7,4.2-22c-2.9-4.2-34.7-37.3-34.7-37.3L412.5,452.5z"/>
	<g id="leg2">
		<path style="fill:#B56F29;" d="M283.6,532.4c0,0,2.4,21.6,0.7,34.3s-7.9,27.8-8.6,33c-0.5,4.3,1.3,11.4,7.9,12.2
			c8.2,1.1,15.1-5.3,15.1-5.3s4,6.9,11.8,6.9c5.3,0,6.5-6.4,6.5-6.4s2.2,5.8,9.5,5.9c7.1,0,8-5.6,8-5.6s3,4.1,8.4,1.1
			c5.1-2.8,5.5-13.4,0.6-22.3c-4.9-8.9-13.7-13.5-22.5-11.5c-10.1,2.3-15.3,16.5-23,15.3c-3.4-0.5,0.6-16.2,0.6-23.7
			c0-7.4-3.2-30.1-3.2-30.1L283.6,532.4z"/>
		<path style="fill:#754D24;" d="M326.5,585.3c0,0,7.3,5.5,9,12.4c1.5,5.8,0,10.6,0,10.6l-1-0.9c0,0,1.2-6.8-0.8-11.3
			C331.8,591.5,326.5,585.3,326.5,585.3z"/>
		<path style="fill:#754D24;" d="M317.9,608.7c0,0,0.5-6.5-0.7-9.8s-5.6-6.3-5.6-6.3s3.4,4.2,4.2,7.2c0.8,2.9,1.2,7.3,1.2,7.3
			L317.9,608.7z"/>
	</g>
	<g id="leg1">
		<path style="fill:#B56F29;" d="M364.7,531.4c0,0,3,24.9,1.4,37s-5.7,19.4-6.3,24.3c-0.5,4-3,10.3,3.3,11.1c7.8,1,16-2,16-2
			s3.8,6.6,11.2,6.6c5.1,0,6.2-6,6.2-6s2.1,5.5,9,5.6c6.8,0,7.6-5.3,7.6-5.3s2.9,3.9,8,1.1c4.8-2.6,6.6-9.8,2-18.3
			s-12.4-14.3-20.7-12.3c-9.6,2.2-16.6,14.2-23.8,13c-3.2-0.5,0.6-14.8,0.6-21.9c0-7.1-3-29.2-3-29.2L364.7,531.4z"/>
		<path style="fill:#754D24;" d="M407.9,583.7c0,0,4.5,3,6.1,9.6c1.4,5.5,0,10.1,0,10.1l-0.9-0.9c0,0,1.2-6.5-0.7-10.8
			C410.5,587.4,407.9,583.7,407.9,583.7z"/>
		<path style="fill:#754D24;" d="M397.3,603.7c0,0,0.5-6.2-0.6-9.3s-3.8-5.9-3.8-5.9s1.6,4,2.4,6.8s1.1,7,1.1,7L397.3,603.7z"/>
	</g>
	<path id="ear2" d="M401.9,271.5c0,0-2.5-58.7,3.3-64.9c5.9-6.2,64-13.7,64.6,7.1s-6,25.8-10.6,25.5s-41-20.5-43-18.3
		s-9.4,50.7-9.4,50.7h-4.9V271.5z"/>
	<path id="ear1" d="M363.3,298.5c0,0-27.7-57.1-26.5-65.5s44-35.6,50.1-28.8c6,6.8,9.6,20.4,5.1,26.6c-4.5,6.2-36.8,1.6-37.9,6.5
		s12.5,57.7,12.5,57.7L363.3,298.5z"/>
	<path id="tail" style="fill:#1A1A1A;" d="M253.2,503.9l-2.9-12.1c0,0-34.5,13.9-65.9,5.3c-27.3-7.5-45.1-36.3-51.4-36
		c-6.3,0.3-15.4,28.7,0,48.3s42.2,13.9,42.8,16s-18.1,11.5-16.6,13.9s17.1,3.2,28.3-2.1c13.1-6.2,18.8-16.3,20.9-14.8
		c2.1,1.5-13.3,18.8-10.6,20.9c2.7,2,14.5-3.1,19.9-9.4c6.6-7.7,9.4-16.6,10.6-16.6c1.2,0-0.3,10.9,1.5,11.2s9.1-4,17.3-12.8
		C251.6,510.7,253.2,503.9,253.2,503.9z"/>
	<g id="body">
		<path style="fill:#D18029;" d="M426.8,279.6c0,0,18.9-18.9,32.8-15.6c15.7,3.7,10.8,21.8,10.8,21.8l-44.6,11.5L426.8,279.6z"/>
		<path style="fill:#F69220;" d="M428.9,434.9c0,0-7.6,10.4-7.3,22.5c0.3,12.1,10.1,39.4-10.3,66c-18.5,24.1-69.4,41.2-108.6,26.1
			c-39.2-15.1-60.9-35-64.5-67.6s68.2-125.5,67.9-130.3c-0.3-4.8-15.7-1.1-25.1,4.2c-1.9,1,1.2-12.2,12.4-20.5
			c10.2-7.6,22.2-6.6,22.2-9c0-5.4-18.9-2.3-34.2,2.3c-2.6,0.8,5.4-15.7,21.9-21.1c18-5.9,29.5,3,30.3,0.8
			c1.5-4.5-12.8-18.1-30.7-18.4c-3-0.1,15.4-13.6,36.8-6.6c12.1,3.9,17.2,18.4,18.7,18.4s24.4-36,49.7-37.4
			c27.6-1.6,22.7,26,22.7,26l36.5,33.7l2.1,10.3c0,0,9.2,10.6,16.9,15.1c9.4,5.4,27.8,7.5,27.8,7.5l3.9,57.6
			c0,0-17.5,30.3-49.4,33.4C443.5,450.1,428.9,434.9,428.9,434.9z"/>
	</g>
	<g id="eyesopen">
		<circle style="fill:#CBCBCA;" cx="458" cy="304.3" r="24.6"/>
		<circle cx="462" cy="313.9" r="5.4"/>
		<path style="fill:#FFFFFF;" d="M443.1,315.8c0,18-14.6,32.6-32.6,32.6s-32.6-14.6-32.6-32.6s14.6-32.6,32.6-32.6
			C428.5,283.2,443.1,297.8,443.1,315.8z"/>
		<circle cx="430.7" cy="320.6" r="8.1"/>
		<path style="fill:#F69220;" d="M409.3,356.3c0,0,0.4-9.4,6.7-17.3c9.6-12,44.7-22.3,50.5-18.4c4.4,3,4.3,12.5,3.3,14.3
			C468.8,336.6,409.3,356.3,409.3,356.3z"/>
	</g>
	<g id="eyesclosed">
		<circle style="fill:#E48525;" cx="458" cy="304.3" r="24.6"/>
		<path style="fill:#603A17;" d="M482.4,307.8l-0.6,3c0,0-9-1.4-21.5,1.4c-9.4,2.1-19.1,7.4-24,13l-1.1-2.6
			C435.2,322.5,446.7,304.5,482.4,307.8z"/>
		<path style="fill:#E48525;" d="M443.1,315.8c0,18-14.6,32.6-32.6,32.6s-32.6-14.6-32.6-32.6s14.6-32.6,32.6-32.6
			C428.5,283.2,443.1,297.8,443.1,315.8z"/>
		<path style="fill:#603A17;" d="M443.1,315.6c0,0,0.2,2.4,0.2,1.7c0.1-0.7-0.4,1.6-0.4,1.6s-14.3-1.1-29.7,3
			c-11.7,3.1-21.6,7.9-27.3,15.2l-2.1-2.6C383.9,334.5,398.7,312.4,443.1,315.6z"/>
		<path style="fill:#F69220;" d="M409.3,356.3c0,0,0.4-9.4,6.7-17.3c9.6-12,44.7-22.3,50.5-18.4c4.4,3,4.3,12.5,3.3,14.3
			C468.8,336.6,409.3,356.3,409.3,356.3z"/>
	</g>
	<g id="nose">
		<ellipse cx="526" cy="388.4" rx="41" ry="43.4"/>
		<path style="fill:#343433;" d="M535.5,359.7c2.5,4.7-3,12.5-12.3,17.4s-18.8,5.1-21.3,0.4s3-12.5,12.3-17.4
			C523.4,355.1,533,355,535.5,359.7z"/>
	</g>
	<g>
		<path d="M404.3,418c-0.6,0-1.3-0.2-1.7-0.7c-0.1-0.1-6.7-7-15.5-13.2c-7-5-17.1-9.4-17.2-9.4c-1.2-0.5-1.8-2-1.2-3.2
			c0.5-1.2,2-1.8,3.2-1.2c0.4,0.2,10.5,5.1,17.6,10.8C398.6,408.3,404.9,418,404.3,418L404.3,418z"/>
	</g>
	<path id="hand2_1_" style="fill:#B56F29;" d="M295.8,409.6c0,0-14.4,21.6-15.1,35.5c-0.6,12.5,4.2,22.6,3,26.2s-13-0.7-18.4,5.1
		c-4.4,4.7-4.8,18.1,4.2,17.7c9.4-0.4,11.8-14.4,16.3-11.7c4.5,2.7-4.7,11.2-3.3,17.8c1.7,8.3,12.2,13,17.1,4.5
		c3.8-6.6-4.7-16.6-2.3-17.8c2.4-1.2,7.2,10.2,13.9,12.7c7.5,2.7,12.3-4.6,9.9-13.7c-2.4-9-15.4-4.1-20.6-11.4
		c-4.9-6.8-7.1-16.3-5-30.6c2.2-15.3,10.5-30.5,10.5-30.5L295.8,409.6z"/>
	<ellipse id="belly" style="fill:#754D24;" cx="366.2" cy="534.4" rx="4.6" ry="4.3"/>
	<path style="fill:#F69220;" d="M378,349.9c0,0,3.2-9,11.7-12.9c7.5-3.4,30,6.8,31.6,10.5C423.1,351.9,378,349.9,378,349.9z"/>
</g>
</svg>
