<?xml version="1.0" encoding="utf-8"?>
<!-- Generator: Adobe Illustrator 21.0.0, SVG Export Plug-In . SVG Version: 6.00 Build 0)  -->
<svg version="1.1" xmlns="http://www.w3.org/2000/svg" xmlns:xlink="http://www.w3.org/1999/xlink" x="0px" y="0px"
	 viewBox="0 0 516.3 678.8" style="enable-background:new 0 0 516.3 678.8;" xml:space="preserve">
<style type="text/css">
	.Drop_x0020_Shadow{fill:none;}
	.Outer_x0020_Glow_x0020_5_x0020_pt{fill:none;}
	.Blue_x0020_Neon{fill:none;stroke:#8AACDA;stroke-width:7;stroke-linecap:round;stroke-linejoin:round;}
	.Chrome_x0020_Highlight{fill:url(#SVGID_1_);stroke:#FFFFFF;stroke-width:0.3629;stroke-miterlimit:1;}
	.Jive_GS{fill:#FFDD00;}
	.Alyssa_GS{fill:#A6D0E4;}
	.st0{fill:#FFFFFF;}
	.st1{fill:#FDFDFD;}
	.st2{fill:#FBFBFB;}
	.st3{fill:#F9F9F9;}
	.st4{fill:#F7F7F7;}
	.st5{fill:#F5F5F5;}
	.st6{fill:#F3F3F3;}
	.st7{fill:#F1F1F1;}
	.st8{fill:#EFEFEF;}
	.st9{fill:#EDEDED;}
	.st10{fill:#EBEBEB;}
	.st11{fill:#E9E9E9;}
	.st12{fill:#E7E7E7;}
	.st13{fill:#E5E5E4;}
	.st14{fill:#E3E3E2;}
	.st15{fill:#E1E1E0;}
	.st16{fill:#DFDFDE;}
	.st17{fill:#DDDDDC;}
	.st18{fill:#DBDBDA;}
	.st19{fill:#D9D9D8;}
	.st20{fill:#D7D7D6;}
	.st21{fill:#D5D5D4;}
	.st22{fill:#D3D3D2;}
	.st23{fill:#D1D1D0;}
	.st24{fill:#CFCFCE;}
	.st25{fill:#CDCDCC;}
	.st26{fill:#CACACA;}
	.st27{fill:#C8C8C8;}
	.st28{fill:#C6C6C6;}
	.st29{fill:#C4C4C4;}
	.st30{fill:#C2C2C2;}
	.st31{fill:#C0C0C0;}
	.st32{fill:#BEBEBE;}
	.st33{fill:#BCBCBC;}
	.st34{fill:#BABABA;}
	.st35{fill:#B8B8B8;}
	.st36{fill:#B6B6B6;}
	.st37{fill:#B4B4B4;}
	.st38{fill:#B2B2B2;}
	.st39{fill:#B0B0AF;}
	.st40{fill:#AEAEAD;}
	.st41{fill:#ACACAB;}
	.st42{fill:#AAAAA9;}
	.st43{fill:#A8A8A7;}
	.st44{fill:#A6A6A5;}
	.st45{fill:#A4A4A3;}
	.st46{fill:#A2A2A1;}
	.st47{fill:#A0A09F;}
	.st48{fill:#9E9E9D;}
	.st49{fill:#9C9C9B;}
	.st50{fill:#9A9A99;}
	.st51{fill:#989897;}
	.st52{fill:#A7A8AC;}
	.st53{fill:#FFFFFF;stroke:#B8D432;stroke-width:1.5;stroke-miterlimit:10;}
	.st54{fill:#754D24;}
	.st55{fill:#B56F29;}
	.st56{fill:#89181B;}
	.st57{fill:#1A1A1A;}
	.st58{fill:#D18029;}
	.st59{fill:#F69220;}
	.st60{fill:#CBCBCA;}
	.st61{fill:#343433;}
	.st62{fill:#86AABD;}
	.st63{fill:#676767;}
	.st64{fill:#603A17;}
	.st65{fill:#E48525;}
</style>
<linearGradient id="SVGID_1_" gradientUnits="userSpaceOnUse" x1="-143.3188" y1="-61.1169" x2="-143.3188" y2="-62.1169">
	<stop  offset="0" style="stop-color:#656565"/>
	<stop  offset="0.618" style="stop-color:#1B1B1B"/>
	<stop  offset="0.6292" style="stop-color:#545454"/>
	<stop  offset="0.9831" style="stop-color:#3E3E3E"/>
</linearGradient>
<g id="shadow">
	<g>
		<ellipse class="st0" cx="209.4" cy="653" rx="152.5" ry="25.8"/>
		<ellipse class="st1" cx="209.4" cy="653" rx="150.1" ry="25.4"/>
		<ellipse class="st2" cx="209.4" cy="653" rx="147.7" ry="25"/>
		<ellipse class="st3" cx="209.4" cy="653" rx="145.4" ry="24.6"/>
		<ellipse class="st4" cx="209.4" cy="653" rx="143" ry="24.2"/>
		<ellipse class="st5" cx="209.4" cy="653" rx="140.6" ry="23.8"/>
		<ellipse class="st6" cx="209.4" cy="653" rx="138.3" ry="23.4"/>
		<ellipse class="st7" cx="209.4" cy="653" rx="135.9" ry="23"/>
		<ellipse class="st8" cx="209.4" cy="653" rx="133.5" ry="22.6"/>
		<ellipse class="st9" cx="209.4" cy="653" rx="131.2" ry="22.2"/>
		<ellipse class="st10" cx="209.4" cy="653" rx="128.8" ry="21.8"/>
		<ellipse class="st11" cx="209.4" cy="653" rx="126.4" ry="21.4"/>
		<ellipse class="st12" cx="209.4" cy="653" rx="124.1" ry="21"/>
		<ellipse class="st13" cx="209.4" cy="653" rx="121.7" ry="20.6"/>
		<ellipse class="st14" cx="209.4" cy="653" rx="119.3" ry="20.2"/>
		<ellipse class="st15" cx="209.4" cy="653" rx="117" ry="19.8"/>
		<ellipse class="st16" cx="209.4" cy="653" rx="114.6" ry="19.4"/>
		<ellipse class="st17" cx="209.4" cy="653" rx="112.3" ry="19"/>
		<ellipse class="st18" cx="209.4" cy="653" rx="109.9" ry="18.6"/>
		<ellipse class="st19" cx="209.4" cy="653" rx="107.5" ry="18.2"/>
		<ellipse class="st20" cx="209.4" cy="653" rx="105.2" ry="17.8"/>
		<ellipse class="st21" cx="209.4" cy="653" rx="102.8" ry="17.4"/>
		<ellipse class="st22" cx="209.4" cy="653" rx="100.4" ry="17"/>
		<ellipse class="st23" cx="209.4" cy="653" rx="98.1" ry="16.6"/>
		<ellipse class="st24" cx="209.4" cy="653" rx="95.7" ry="16.2"/>
		<ellipse class="st25" cx="209.4" cy="653" rx="93.3" ry="15.8"/>
		<ellipse class="st26" cx="209.4" cy="653" rx="91" ry="15.4"/>
		<ellipse class="st27" cx="209.4" cy="653" rx="88.6" ry="15"/>
		<ellipse class="st28" cx="209.4" cy="653" rx="86.2" ry="14.6"/>
		<ellipse class="st29" cx="209.4" cy="653" rx="83.9" ry="14.2"/>
		<ellipse class="st30" cx="209.4" cy="653" rx="81.5" ry="13.8"/>
		<ellipse class="st31" cx="209.4" cy="653" rx="79.1" ry="13.4"/>
		<ellipse class="st32" cx="209.4" cy="653" rx="76.8" ry="13"/>
		<ellipse class="st33" cx="209.4" cy="653" rx="74.4" ry="12.6"/>
		<ellipse class="st34" cx="209.4" cy="653" rx="72.1" ry="12.2"/>
		<ellipse class="st35" cx="209.4" cy="653" rx="69.7" ry="11.8"/>
		<ellipse class="st36" cx="209.4" cy="653" rx="67.3" ry="11.4"/>
		<ellipse class="st37" cx="209.4" cy="653" rx="65" ry="11"/>
		<ellipse class="st38" cx="209.4" cy="653" rx="62.6" ry="10.6"/>
		<ellipse class="st39" cx="209.4" cy="653" rx="60.2" ry="10.2"/>
		<ellipse class="st40" cx="209.4" cy="653" rx="57.9" ry="9.8"/>
		<ellipse class="st41" cx="209.4" cy="653" rx="55.5" ry="9.4"/>
		<ellipse class="st42" cx="209.4" cy="653" rx="53.1" ry="9"/>
		<ellipse class="st43" cx="209.4" cy="653" rx="50.8" ry="8.6"/>
		<ellipse class="st44" cx="209.4" cy="653" rx="48.4" ry="8.2"/>
		<ellipse class="st45" cx="209.4" cy="653" rx="46" ry="7.8"/>
		<ellipse class="st46" cx="209.4" cy="653" rx="43.7" ry="7.4"/>
		<ellipse class="st47" cx="209.4" cy="653" rx="41.3" ry="7"/>
		<ellipse class="st48" cx="209.4" cy="653" rx="38.9" ry="6.6"/>
		<ellipse class="st49" cx="209.4" cy="653" rx="36.6" ry="6.2"/>
		<ellipse class="st50" cx="209.4" cy="653" rx="34.2" ry="5.8"/>
		<ellipse class="st51" cx="209.4" cy="653" rx="31.9" ry="5.4"/>
	</g>
</g>
<g id="text">
	<g id="baloon2">
		<path class="st52" d="M257.1,27.3c8.5-23,22-25.5,39.1-26c26.5-0.7,143.8,8.9,162.2,12.9c14.6,3.1,23,14.3,27,34
			c3.3,16.3,11.9,43.1,12.1,55c0.3,15.5-5.8,38.3-29.5,42.8c-21.1,3.9-42.1,3.6-82.5,3.5c-25.6,0-37.4,0.9-32,8.9
			c7.4,10.9,41.9,29.7,33.8,29.9c-25.9,0.6-54.3-5.8-72.2-12.7c-12.5-4.8-24.6-12.6-31.9-22.2c-19.8,0.8-18.5,1.9-24.1,1.4
			c-17.9-1.7-26.1-13.7-26.8-30.1C231.5,105.8,251.9,41.4,257.1,27.3z"/>
		<path class="st0" d="M255.6,26.4C264,3.7,278.8,0.5,295.6,0c26.1-0.7,141,8.8,159,12.7c14.3,3.1,22.6,14.1,26.5,33.6
			c3.2,16,11.7,41.9,11.9,53.7c0.2,15.3-5.7,37.8-29,42.2c-20.7,3.9-41.4,3.5-81,3.5c-25.1,0-36.7,0.9-31.4,8.8
			c7.2,10.7,41.2,29.6,33.1,29.5c-23.3-0.3-54.8-6.3-72.2-13.6c-12.5-5.3-22.9-11.3-30.1-20.8c-19.5,0.8-17.9,1.9-23.3,1.4
			c-17.6-1.7-23.9-14.3-24.8-30.4C233.1,100.3,250.5,40.3,255.6,26.4z"/>
	</g>
	<g id="baloon1">
		<path class="st52" d="M494.7,198.5c-8.1-27-23.3-30.7-42.8-32.5c-30.3-2.7-165.1,0-186.3,3.2c-16.9,2.5-27.3,14.7-33.3,37
			c-4.9,18.4-16.7,48.4-17.8,62c-1.4,17.7,3.9,44.2,30.7,51c23.9,6,47.9,7.1,94.1,9.9c29.2,1.8,42.7,3.7,35.9,12.5
			c-9.2,11.9-50,30.9-40.7,31.8c29.5,2.6,62.4-2.7,83.5-9.4c14.7-4.6,29-12.6,38.1-23.2c22.6,2.4,21.1,3.5,27.4,3.3
			c20.6-0.7,30.8-13.8,32.7-32.5C518.3,290.1,499.6,214.9,494.7,198.5z"/>
		<path class="st0" d="M496.4,197.6c-7.9-26.6-24.7-31.3-43.8-33c-29.7-2.7-161.8,0.1-182.7,3.3c-16.6,2.5-26.8,14.6-32.7,36.5
			c-4.8,18.1-16.3,47.1-17.4,60.6c-1.4,17.4,3.8,43.6,30.2,50.3c23.4,5.9,47.1,7,92.4,9.7c28.7,1.8,41.9,3.6,35.3,12.3
			c-9,11.8-49.2,30.9-40,31.3c26.7,1.3,63.1-3.3,83.5-10.4c14.6-5.1,27-11.3,35.9-21.7c22.2,2.3,20.3,3.4,26.6,3.2
			c20.3-0.7,28.3-14.6,30.5-33C516.9,283.7,501.2,213.8,496.4,197.6z"/>
	</g>
	<path id="greenline" class="st53" d="M364.6,141.7c37.3,0,73.4,0.1,92.9-3.6c21.9-4.1,27.5-25.3,27.2-39.7
		c-0.2-11.1-8-33.1-11.1-48.2c-3.7-18.3-11.5-28.6-24.9-31.5c-17-3.7-123.9-12.6-148.4-11.9c-15.8,0.4-29.7,3.4-37.6,24.8
		c-4.8,13-21.3,67.2-20.2,86.1c0.9,15.2,6.7,25.6,23.3,27.2c5.1,0.5,2.6-0.6,20.9-1.3c6.8,9,11.7,14.6,21.1,20
		c6.7,3.9,10.3,6.6,18.5,8.7c-32.6,2.1-42.2,1.5-50.4,2.7c-15.6,2.4-25.2,13.7-30.7,34.3c-4.6,17-15.1,41.6-16,54.3
		c-1.3,16.4,3.6,41,28.3,47.3c22,5.6,63.4,8.1,106,10.7c27,1.7,32.8,4.6,26.6,12.7c-8.5,11-44.5,29.3-33.1,28.1
		c19.9-2.1,40.5-4.9,61.5-12.6c11.6-4.3,25.3-10.8,33.7-20.6c20.9,2.2,18,3.2,23.8,3c19-0.6,26.5-12.2,28.5-29.5
		c2.6-21.6-12.4-84.6-16.9-99.8c-7.4-25-23.2-29.4-41.2-31c-13.3-1.2-51.6-0.7-86.4-0.1c-7.4-5.8-15.5-14.7-19.4-20.5
		C335.8,144,341,141.7,364.6,141.7z"/>
	<g id="text-and">
		<path d="M342.8,220.8l-0.2,3c-0.1,1.1-0.2,2.6-0.5,4.3c0,3,0.2,5.8,0.6,8.2c-0.1,0.3-0.3,0.5-0.7,0.7c-0.4,0.2-0.8,0.2-1.2,0.2
			c-0.4,0-0.8-0.1-1-0.2c-0.2-0.1-0.4-0.3-0.5-0.6c-0.1-0.2-0.1-0.5-0.2-0.6c0-0.2,0-0.4,0-0.7c0-0.3,0-0.5,0-0.5
			c-1.4,1.3-3.1,1.9-5.3,1.8c-2.1-0.1-3.6-1-4.4-2.6c-0.8-1.7-1.2-4-1.1-6.9c0.2-5.1,1.8-8.3,4.8-9.6c0.9-0.4,2-0.5,3.1-0.5
			c1.2,0.1,2.3,0.3,3.3,0.7c0.4-0.5,0.9-0.7,1.6-0.7c1.2,0.1,1.7,1,1.7,2.8C342.8,220.1,342.8,220.5,342.8,220.8z M338.2,230.8
			c0.6-1.5,0.9-3.2,1-5c0.1-1.8-0.1-3.1-0.5-4c-0.4-0.9-1.1-1.3-2.2-1.4c-0.5,0-1,0-1.8,0c-0.7,0.1-1.4,0.7-2.1,1.8
			c-0.7,1.2-1,2.2-1.1,3l-0.1,1.7c-0.1,3,0.4,4.9,1.6,5.8c0.4,0.3,0.8,0.4,1.4,0.4c0.6,0,1.3-0.2,2-0.7
			C337.3,232.1,337.8,231.5,338.2,230.8z"/>
		<path d="M358.9,236.2l0.1-2.2c0-0.3,0-0.8,0-1.3s0-1.2,0-1.9c0-0.7,0-1.4,0-2.2c0-0.7-0.1-1.4-0.2-2.1c-0.1-1.3-0.4-2.4-0.8-3.3
			c-0.5-0.9-1-1.4-1.8-1.4c-0.7,0-1.3,0.1-1.8,0.3c-0.5,0.2-0.9,0.6-1.2,1.1c-0.7,1.1-1.1,2.2-1.3,3.5c-0.2,1.3-0.3,2.6-0.4,4.1
			l-0.3,4.6c0,0.6-0.3,1-0.7,1.4c-0.5,0.3-1,0.4-1.5,0.4c-0.7,0-1-0.5-1-1.4c0.1-2.4,0.2-5.2,0.2-8.7c0-3.4,0.1-6.3,0.2-8.6
			c0.2-0.5,0.4-0.9,0.8-1.2c0.3-0.4,0.7-0.5,1-0.5c0.3,0,0.5,0,0.7,0.1c0.2,0.1,0.3,0.1,0.4,0.3c0.1,0.1,0.2,0.2,0.2,0.3
			c0.1,0.1,0.1,0.3,0.1,0.5c0,0.3,0,0.5,0.1,0.6s0,0.4,0,0.8c0,0.4,0,0.7,0,0.9c1.6-1.9,3.6-2.9,5.8-2.8c1.6,0.1,2.7,0.8,3.4,2.3
			c1.1,2.2,1.5,5.5,1.3,9.9l-0.1,4c0,1.1-0.1,1.8-0.3,2.1c-0.1,0.3-0.3,0.6-0.5,0.9c-0.3,0.5-0.8,0.8-1.6,0.7
			C359.2,237.5,358.9,237.1,358.9,236.2z"/>
		<path d="M377.3,210.2c0.1-1.5,0.6-2.3,1.5-2.2c0.5,0,0.9,0.1,1.1,0.3c0.2,0.2,0.4,0.5,0.4,1c0.1,0.5,0.1,1.4,0,2.9
			s-0.1,3.3-0.1,5.4c0,2.2,0,3.9-0.1,5.1c0,1.2,0,3.2,0,5.9c0.1,2.7,0.1,4.9,0,6.6l-0.2,2.4c-0.1,0.5-0.3,0.9-0.6,1
			c-0.3,0.1-0.8,0.2-1.3,0.2c-0.6,0-0.9-0.4-1.1-1.2l-0.1-0.7c-1.3,0.9-2.7,1.3-4.4,1.2c-2.2-0.1-3.9-1-5.1-2.7
			c-1.2-1.7-1.7-3.6-1.6-5.8c0.1-2.2,0.7-4.3,1.7-6.3c1.1-2.1,2.6-3.5,4.6-4.4c1.1-0.5,2.3-0.7,3.7-0.6c0.5,0,0.9,0.1,1.2,0.1
			l0.1-3.4l0.2-2.7L377.3,210.2z M376.6,233.3c0.2-0.4,0.3-1.2,0.3-2.3c0.1-1.1,0.1-1.8,0.1-1.9l0-0.8c0.1-1.5,0-2.9-0.3-4.2
			c-0.3-1.3-0.7-1.9-1.3-2c-0.8,0-1.7,0-2.6,0.1c-1,0.1-1.6,0.4-1.9,0.8c-1,1.2-1.5,3.1-1.7,5.9c-0.1,2,0.5,3.5,1.6,4.6
			c0.7,0.7,1.4,1,2.3,1c0.8,0,1.6-0.1,2.2-0.3C376,234.1,376.4,233.7,376.6,233.3z"/>
		<path d="M408.9,223.8l-0.2,3c-0.1,1.1-0.2,2.6-0.5,4.3c0,3,0.2,5.8,0.6,8.2c-0.1,0.3-0.3,0.5-0.7,0.7c-0.4,0.2-0.8,0.2-1.2,0.2
			c-0.4,0-0.8-0.1-1-0.2c-0.2-0.1-0.4-0.3-0.5-0.6c-0.1-0.2-0.1-0.5-0.2-0.6c0-0.2,0-0.4,0-0.7c0-0.3,0-0.5,0-0.5
			c-1.4,1.3-3.1,1.9-5.3,1.8c-2.1-0.1-3.6-1-4.4-2.6c-0.8-1.7-1.2-4-1.1-6.9c0.2-5.1,1.8-8.3,4.8-9.6c0.9-0.4,2-0.5,3.1-0.5
			c1.2,0.1,2.3,0.3,3.3,0.7c0.4-0.5,0.9-0.7,1.6-0.7c1.2,0.1,1.7,1,1.7,2.8C408.9,223.1,408.9,223.5,408.9,223.8z M404.2,233.8
			c0.6-1.5,0.9-3.2,1-5c0.1-1.8-0.1-3.1-0.5-4c-0.4-0.9-1.1-1.3-2.2-1.4c-0.5,0-1,0-1.8,0c-0.7,0.1-1.4,0.7-2.1,1.8
			c-0.7,1.2-1,2.2-1.1,3l-0.1,1.7c-0.1,3,0.4,4.9,1.6,5.8c0.4,0.3,0.8,0.4,1.4,0.4c0.6,0,1.3-0.2,2-0.7
			C403.4,235.1,403.9,234.5,404.2,233.8z"/>
		<path d="M295.7,277.8l-0.6,12.7c-0.2,0.6-0.5,1-0.9,1.4c-0.4,0.4-0.9,0.5-1.4,0.5c-0.7,0-1.1-0.5-1-1.5l0.7-14.6l0.7-15
			c0.1-0.7,0.3-1.2,0.6-1.5c0.2-0.3,0.6-0.5,1.2-0.5c0.5,0,0.9,0.2,1,0.4c0.2,0.3,0.3,0.9,0.5,2c0.1-0.5,0.6-1,1.3-1.4
			c0.8-0.5,1.8-0.7,3.3-0.6c1.4,0.1,2.7,0.4,3.7,1.1c1,0.6,1.8,1.5,2.4,2.5c1,2,1.5,4.5,1.4,7.3s-1,5.1-2.8,6.6
			c-1.7,1.6-4,2.3-6.9,2.2c-1,0-1.9-0.4-2.6-1.1C295.9,278,295.8,277.9,295.7,277.8z M300.2,263c-1.1,0.1-2,0.5-2.8,1.3
			c-0.7,0.8-1.1,1.5-1.2,2.2l-0.4,7.9c0.1,0,0.3,0.2,0.6,0.5c0.8,0.8,1.7,1.2,2.6,1.2c3.9,0.2,5.9-1.7,6.1-5.8
			c0.2-3.5-0.6-5.7-2.3-6.6C302.1,263.3,301.3,263.1,300.2,263z"/>
		<path d="M325.9,264.7l-0.2,3c-0.1,1.1-0.2,2.6-0.5,4.3c0,3,0.2,5.8,0.6,8.2c-0.1,0.3-0.3,0.5-0.7,0.7c-0.4,0.2-0.8,0.2-1.2,0.2
			c-0.4,0-0.8-0.1-1-0.2c-0.2-0.1-0.4-0.3-0.5-0.6c-0.1-0.2-0.1-0.5-0.2-0.6c0-0.2,0-0.4,0-0.7s0-0.5,0-0.5
			c-1.4,1.3-3.1,1.9-5.3,1.8c-2.1-0.1-3.6-1-4.4-2.6c-0.8-1.7-1.2-4-1.1-6.9c0.2-5.1,1.8-8.3,4.8-9.6c0.9-0.4,2-0.5,3.1-0.5
			c1.2,0.1,2.3,0.3,3.4,0.7c0.4-0.5,0.9-0.7,1.6-0.7c1.2,0.1,1.7,1,1.7,2.8C326,264,326,264.4,325.9,264.7z M321.3,274.7
			c0.6-1.5,0.9-3.2,1-5c0.1-1.8-0.1-3.1-0.5-4c-0.4-0.9-1.1-1.3-2.2-1.4c-0.5,0-1,0-1.8,0c-0.7,0.1-1.4,0.7-2.1,1.8
			c-0.7,1.2-1,2.2-1.1,3l-0.1,1.7c-0.1,3,0.4,4.9,1.6,5.8c0.4,0.3,0.8,0.4,1.4,0.4c0.6,0,1.3-0.2,2-0.7
			C320.5,276,321,275.4,321.3,274.7z"/>
		<path d="M337.6,261.3c1,0,2.1,0.3,3.1,0.7c2,0.8,3,1.7,3,2.7c0,0.5-0.2,0.9-0.7,1.1c-0.4,0.3-0.9,0.4-1.4,0.4
			c-0.1,0-0.7-0.3-1.8-0.9c-1.1-0.6-2-0.9-2.7-0.9c-0.7,0-1.3,0.1-1.9,0.5c-0.6,0.4-0.9,0.9-1,1.5c0,0.6,0.1,1.2,0.5,1.7
			s0.8,0.8,1.3,1c0.6,0.2,1.2,0.4,1.8,0.6c1.8,0.5,3.1,0.9,3.8,1.2c1.2,0.7,1.8,1.9,1.7,3.6c-0.1,1.8-0.8,3.3-2.2,4.6
			c-1.4,1.3-2.8,1.9-4.3,1.8c-1.5-0.1-2.7-0.3-3.7-0.7c-1.7-0.7-2.5-1.6-2.5-2.7c0-1,0.7-1.5,1.8-1.4c0.6,0,1.3,0.3,2.3,0.9
			c1,0.5,1.8,0.8,2.5,0.9s1.3-0.4,1.9-1.2c0.6-0.8,0.9-1.6,1-2.4c0-0.2,0-0.4-0.1-0.7c-0.7-0.8-2.2-1.4-4.4-1.9
			c-0.8-0.2-1.5-0.4-2.3-0.7c-1.6-0.7-2.4-2.2-2.3-4.7c0.1-1.7,0.7-3,2-3.9C334.3,261.6,335.8,261.2,337.6,261.3z"/>
		<path d="M353.8,262c1,0,2.1,0.3,3.1,0.7c2,0.8,3,1.7,3,2.7c0,0.5-0.2,0.9-0.7,1.1c-0.4,0.3-0.9,0.4-1.4,0.4
			c-0.1,0-0.7-0.3-1.8-0.9c-1.1-0.6-2-0.9-2.7-0.9c-0.7,0-1.3,0.1-1.9,0.5s-0.9,0.9-1,1.5c0,0.6,0.1,1.2,0.5,1.7
			c0.3,0.5,0.8,0.8,1.3,1c0.6,0.2,1.2,0.4,1.8,0.6c1.8,0.5,3.1,0.9,3.8,1.2c1.2,0.7,1.8,1.9,1.7,3.6c-0.1,1.8-0.8,3.3-2.2,4.6
			c-1.4,1.3-2.8,1.9-4.3,1.8c-1.5-0.1-2.7-0.3-3.7-0.7c-1.7-0.7-2.5-1.6-2.5-2.7c0-1,0.7-1.5,1.8-1.4c0.6,0,1.3,0.3,2.3,0.9
			c1,0.5,1.8,0.8,2.5,0.9s1.3-0.4,1.9-1.2c0.6-0.8,0.9-1.6,1-2.4c0-0.2,0-0.4-0.1-0.7c-0.7-0.8-2.2-1.4-4.4-1.9
			c-0.8-0.2-1.5-0.4-2.3-0.7c-1.6-0.7-2.4-2.2-2.3-4.7c0.1-1.7,0.7-3,2-3.9C350.5,262.4,352,261.9,353.8,262z"/>
		<path d="M376.6,271.1l0-6.5c0.2-0.4,0.4-0.7,0.8-1s0.7-0.4,1.1-0.4c0.8,0,1.2,1.7,1,4.9l-0.1,2.3c-0.2,3.8-0.9,7.2-2.2,10.1
			c-0.7,1.7-1.5,2.5-2.4,2.4c-0.5,0-1-0.4-1.5-1.2c-0.4-0.8-0.9-1.8-1.4-3c-0.5-1.3-0.9-2.1-1.2-2.6c-0.3,0.6-0.8,1.4-1.4,2.5
			c-0.6,1.1-1,1.7-1.1,1.8c-1,1.4-1.9,2.1-2.6,2.1c-0.3,0-0.8-0.8-1.5-2.4c-1.5-5.1-2.1-10.5-1.8-16.1c0.2-0.6,0.6-1.1,1.3-1.3
			c0.2-0.1,0.4-0.1,0.6-0.1c0.6,0,0.9,0.4,1,1.2c-0.2,4.4,0.3,8.7,1.7,12.8c0.3-0.5,0.7-1.1,1.1-1.8c0.4-0.7,0.7-1.3,0.9-1.7
			c0.6-0.9,1.3-1.4,2-1.4c0.8,0,1.6,0.8,2.3,2.1c0.5,1,0.9,1.9,1.2,2.6c0.3,0.7,0.5,1.1,0.5,1.2C376,275.3,376.5,273.1,376.6,271.1z
			"/>
		<path d="M386.9,264.5c1.1-0.6,2.3-0.8,3.6-0.8s2.5,0.7,3.5,1.8c1.9,2.2,2.8,5.1,2.6,8.8c-0.1,1.9-0.7,3.9-1.9,6
			c-0.6,1-1.3,1.8-2.2,2.4c-0.9,0.6-1.9,0.9-3.1,0.9c-1.2-0.1-2.3-0.4-3.3-1.2c-1.1-0.7-1.9-1.6-2.6-2.6c-1.4-2.2-2-4.3-1.9-6.1
			c0.1-2.5,1-4.8,2.6-6.9C384.9,265.9,385.8,265.1,386.9,264.5z M390.4,280.6c0.8-0.4,1.5-1.1,2-2c0.5-1,0.7-2,0.8-3
			c0-1,0-2-0.1-2.8c-0.1-0.8-0.3-1.6-0.5-2.4c-0.3-0.8-0.7-1.4-1.2-2c-0.5-0.6-1.2-0.9-1.9-1.1c-1.2,0.1-2.3,0.8-3.2,2
			c-0.9,1.2-1.3,2.4-1.4,3.6c-0.1,1.2,0.4,2.8,1.4,4.6c0.4,0.8,1,1.6,1.8,2.2C388.8,280.3,389.6,280.6,390.4,280.6z"/>
		<path d="M400.8,278.8l0.1-1.3c0.1-1.8,0-3.7-0.1-5.8c-0.2-2.1-0.4-3.6-0.7-4.7c-0.3-1-0.4-1.7-0.4-2c0-0.3,0.2-0.5,0.6-0.8
			c0.4-0.3,0.8-0.4,1.3-0.4c0.5,0,0.8,0.2,1.1,0.6c0.3,0.4,0.4,0.8,0.5,1.1c0.1,0.4,0.1,0.9,0.1,1.5c0,0.6,0,1.1,0.1,1.3
			c0.8-1.7,2.1-2.9,3.8-3.5c0.9-0.3,1.9-0.5,2.9-0.4c2.3,0.1,3.4,0.8,3.4,1.9c0,0.7-0.4,1.3-1.2,1.6c-0.3,0.1-0.6,0.2-0.9,0.2
			l-1.2-0.2c-3.5-0.2-5.5,3.3-5.8,10.3l-0.1,3.9l0,0.1c-0.1,0.5-0.4,0.9-0.8,1.3c-0.4,0.4-0.8,0.6-1.3,0.5c-0.6,0-1-0.6-1.2-1.6
			C400.8,281.8,400.8,280.5,400.8,278.8z"/>
		<path d="M426.7,257.2c0.1-1.5,0.6-2.3,1.5-2.2c0.5,0,0.9,0.1,1.1,0.3c0.2,0.2,0.4,0.5,0.4,1c0.1,0.5,0.1,1.4,0,2.9
			c-0.1,1.4-0.1,3.3-0.1,5.4c0,2.2,0,3.9-0.1,5.1c0,1.2,0,3.2,0,5.9c0.1,2.7,0.1,4.9,0,6.6l-0.2,2.4c-0.1,0.5-0.3,0.9-0.6,1
			c-0.3,0.1-0.8,0.2-1.3,0.2c-0.6,0-0.9-0.4-1.1-1.2l-0.1-0.7c-1.3,0.9-2.7,1.3-4.4,1.2c-2.2-0.1-3.9-1-5.1-2.7
			c-1.2-1.7-1.7-3.6-1.6-5.8c0.1-2.2,0.7-4.3,1.7-6.3s2.6-3.5,4.6-4.4c1.1-0.5,2.3-0.7,3.7-0.6c0.5,0,0.9,0.1,1.2,0.1l0.1-3.4
			l0.2-2.7L426.7,257.2z M426,280.3c0.2-0.4,0.3-1.2,0.3-2.3c0.1-1.1,0.1-1.8,0.1-1.9l0-0.8c0.1-1.5,0-2.9-0.3-4.2
			c-0.3-1.3-0.7-1.9-1.3-2c-0.8,0-1.7,0-2.6,0.1c-1,0.1-1.6,0.4-1.9,0.8c-1,1.2-1.5,3.1-1.7,5.9c-0.1,2,0.5,3.5,1.6,4.6
			c0.7,0.7,1.4,1,2.3,1c0.8,0,1.6-0.1,2.2-0.3C425.4,281,425.8,280.7,426,280.3z"/>
		<path d="M435,282.1c0-0.5,0.2-0.9,0.6-1.3c0.4-0.4,0.9-0.6,1.6-0.6c0.7,0,1.1,0.2,1.5,0.4c0.3,0.3,0.4,0.8,0.4,1.7
			c0,0.9-0.3,1.5-0.7,1.8s-0.8,0.4-1.3,0.4c-0.6,0-1.2-0.3-1.5-0.9C435.1,283,434.9,282.5,435,282.1z M439.7,256.6l-1,14.5
			c-0.1,1.3-0.1,2.4-0.1,3.1c-0.1,0.4-0.4,0.7-0.7,0.9c-0.3,0.3-0.7,0.4-1.1,0.4c-0.4,0-0.7-0.3-0.9-1c-0.1-7.2,0-13.2,0.2-18
			c0.2-0.4,0.5-0.7,0.9-0.8c0.5-0.1,0.9-0.2,1.2-0.2C439,255.5,439.6,255.9,439.7,256.6z"/>
	</g>
	<g id="text-lets">
		<path d="M275.5,72.1l-2.3,0.1c-0.4,0-0.9,0-1.5-0.1s-1-0.3-1.2-0.8c-0.3-2.6-0.4-5.4-0.4-8.4l0.2-17.8c0-0.3,0.2-0.6,0.5-0.8
			c0.4-0.2,0.8-0.3,1.4-0.3c0.5,0,1,0.1,1.4,0.4s0.6,0.7,0.6,1.2c-0.1,0.9-0.3,3.3-0.6,7.2c-0.3,3.9-0.5,7.1-0.5,9.5
			c0,2.5,0.1,4.7,0.4,6.7c0.1,0,0.4,0,0.8,0c0.4,0,1.6-0.1,3.5-0.4c1.9-0.2,3.1-0.4,3.6-0.4c1.3,0,2,0.5,2,1.4
			c0,0.8-0.4,1.4-1.1,1.7c-0.8,0.3-1.6,0.5-2.4,0.6c-0.8,0-1.4,0.1-1.9,0.1L275.5,72.1z"/>
		<path d="M297.6,53.5c1.4,0.8,2.1,1.9,2.1,3.1s-0.6,2.5-1.9,3.8c-1.3,1.3-2.8,2-4.7,2.3c-0.2,0-0.3,0.1-0.4,0.1c-0.1,0-0.2,0-0.4,0
			c-0.2,0-0.3,0-0.4,0c-0.1,0-0.2,0-0.4,0c-0.2,0-0.3,0-0.4,0s-0.2,0-0.5,0c-0.2,0-0.4,0-0.5,0c0.3,2.2,0.8,3.7,1.3,4.4
			c0.8,0.6,1.5,1,2.1,1c1.4,0,2.7-0.6,3.9-1.8c1.2-1.2,2.1-1.8,2.6-1.8c0.2,0,0.5,0.2,1,0.6c0.5,0.4,0.7,0.8,0.7,1.2
			s-0.2,0.9-0.7,1.5c-0.5,0.6-1.1,1.2-1.9,1.8s-1.7,1.2-2.8,1.6c-1.1,0.5-2.1,0.7-3.1,0.7s-1.8-0.2-2.5-0.7c-1.3-0.8-2.3-2.2-3-4.1
			c-0.7-1.9-1.1-4-1.1-6.2c0-2.2,0.4-4.1,1.4-5.9c1-2,2.8-3,5.4-3C294.8,52.2,296.2,52.6,297.6,53.5z M296.1,56.9
			c0-1.2-0.8-1.8-2.4-1.8c-1.1,0-2,0.6-2.7,1.9c-0.2,0.4-0.4,0.8-0.5,1.3c-0.1,0.5-0.2,1-0.3,1.6C294.1,59.9,296.1,58.9,296.1,56.9z
			"/>
		<path d="M310.1,42.7l-0.2,5.1c0,0.3,0.1,1.7,0.2,4c1.7,0,3.3-0.1,4.9-0.2c0.8,0.2,1.3,0.7,1.3,1.5c0,0.8-0.3,1.4-0.8,1.7
			c-0.6,0.3-1.1,0.5-1.7,0.6c-0.6,0-1,0.1-1.3,0.1c-0.3,0-0.7,0-1.2,0s-0.8,0-1.1,0c0,0.3,0.1,1,0.2,2.4c0.1,1.3,0.1,2.2,0.2,2.6
			c0.3,3.9,0.6,7,1.1,9.4c-0.1,0.5-0.4,1-0.8,1.4c-0.4,0.4-0.9,0.6-1.3,0.6c-0.5,0-0.9-0.3-1.1-1c-0.4-2.5-0.8-5.5-1-9
			c-0.2-3.5-0.3-5.6-0.3-6.3c-0.4,0-1.1,0.1-2.1,0.1c-1,0-1.8-0.1-2.4-0.2c-0.7-0.1-1-0.5-1-1.2c0-1.4,0.8-2.1,2.4-2.2l2,0
			c0.3,0,0.6,0,0.8-0.1c-0.1-2.9-0.2-4.3-0.2-4.4c0-0.2,0-0.6,0-1.3c0-0.7,0.1-1.7,0.1-3c0.1-0.5,0.4-0.9,0.8-1.2
			c0.4-0.3,0.8-0.5,1.3-0.5C309.5,41.5,309.9,41.9,310.1,42.7z"/>
		<path d="M319.1,40.7c0.1-0.4,0.3-0.8,0.5-1c0.3-0.2,0.6-0.4,0.9-0.4c0.6,0,1.1,0.4,1.5,1.2c0,1.3-0.1,2.5-0.4,3.7
			c-0.5,2.2-1.4,3.3-2.5,3.3c-0.9,0-1.4-0.5-1.4-1.4c0-0.3,0-0.6,0.2-0.9c0.5-0.6,0.9-1.2,1-1.9C319,42.6,319.1,41.7,319.1,40.7z"/>
		<path d="M333.7,51.6c1,0,2.1,0.1,3.2,0.5c2.1,0.7,3.1,1.5,3.1,2.6c0,0.5-0.2,0.9-0.6,1.2c-0.4,0.3-0.9,0.4-1.4,0.4
			c-0.1,0-0.7-0.3-1.9-0.8c-1.1-0.5-2.1-0.8-2.7-0.8c-0.7,0-1.3,0.2-1.9,0.6c-0.6,0.4-0.9,0.9-0.9,1.6s0.2,1.2,0.5,1.6
			c0.4,0.4,0.8,0.8,1.4,1c0.6,0.2,1.2,0.4,1.9,0.5c1.8,0.3,3.1,0.7,3.8,1c1.3,0.6,1.9,1.8,1.9,3.5c0,1.8-0.6,3.3-2,4.7
			c-1.3,1.4-2.7,2-4.2,2.1c-1.5,0-2.7-0.1-3.7-0.5c-1.7-0.6-2.6-1.5-2.6-2.5c0-1,0.6-1.5,1.8-1.5c0.6,0,1.4,0.2,2.4,0.7
			c1,0.5,1.9,0.7,2.5,0.7c0.7,0,1.3-0.4,1.8-1.3c0.6-0.8,0.8-1.6,0.8-2.4c0-0.2,0-0.4-0.1-0.7c-0.8-0.7-2.3-1.3-4.5-1.6
			c-0.8-0.1-1.6-0.3-2.3-0.6c-1.7-0.6-2.5-2.1-2.5-4.5c0-1.7,0.6-3,1.8-4S331.9,51.6,333.7,51.6z"/>
		<path d="M366.1,52.1c0.4,0.2,0.6,0.5,0.6,0.8c0,0.6-0.1,1.2-0.4,1.9c-0.3,0.7-0.7,1.1-1.3,1.1c-0.3,0-0.8-0.2-1.6-0.5
			c-0.8-0.3-1.4-0.5-1.7-0.5c-1.6,0-2.9,0.6-4.1,1.8c-1.2,1.2-1.7,2.8-1.7,4.7c0,2,0.3,3.5,1,4.5c0.6,1,1.7,1.5,3.3,1.5
			c0.9,0,2-0.4,3.3-1.1c1.3-0.7,2.2-1.1,2.6-1.1c0.4,0,0.7,0.1,1,0.3c0.2,0.2,0.3,0.5,0.3,0.8c0,0.7-0.4,1.4-1.3,2.2
			c-0.9,0.8-1.9,1.4-3.1,1.9c-1.2,0.5-2.4,0.7-3.4,0.8c-2.3,0-4.1-0.9-5.3-2.6c-1.3-1.8-1.9-4.2-2-7.3c0-2,0.5-3.7,1.5-5.3
			c1-1.6,2.3-2.7,3.8-3.5c1.5-0.8,3.1-1.2,4.9-1.2C364,51.3,365.3,51.6,366.1,52.1z"/>
		<path d="M370.9,65.8l0-1.3c0-1.8-0.2-3.7-0.5-5.7c-0.3-2.1-0.6-3.6-0.9-4.6c-0.3-1-0.5-1.7-0.5-1.9c0-0.3,0.2-0.5,0.5-0.8
			c0.4-0.3,0.8-0.4,1.3-0.4c0.5,0,0.9,0.2,1.1,0.5c0.3,0.4,0.5,0.7,0.5,1.1c0.1,0.4,0.1,0.9,0.2,1.5c0.1,0.6,0.1,1.1,0.1,1.3
			c0.7-1.8,1.9-3,3.6-3.7c0.9-0.4,1.8-0.6,2.9-0.6c2.3,0,3.5,0.6,3.5,1.7c0,0.7-0.4,1.3-1.1,1.7c-0.3,0.1-0.6,0.2-0.9,0.3l-1.2-0.1
			c-3.5,0-5.3,3.6-5.2,10.6l0.1,3.9l0,0.1c-0.1,0.5-0.4,1-0.8,1.4c-0.4,0.4-0.8,0.6-1.2,0.6c-0.6,0-1-0.5-1.2-1.5
			C371.1,68.8,371,67.5,370.9,65.8z"/>
		<path d="M396.6,52.4c1.4,0.8,2.1,1.9,2.1,3.1s-0.6,2.5-1.9,3.8c-1.3,1.3-2.8,2-4.7,2.3c-0.2,0-0.3,0.1-0.4,0.1c-0.1,0-0.2,0-0.4,0
			c-0.2,0-0.3,0-0.4,0s-0.2,0-0.4,0c-0.2,0-0.3,0-0.4,0s-0.2,0-0.5,0s-0.4,0-0.5,0c0.3,2.2,0.8,3.7,1.3,4.4c0.8,0.6,1.5,1,2.1,1
			c1.4,0,2.7-0.6,3.9-1.8c1.2-1.2,2.1-1.8,2.6-1.8c0.2,0,0.5,0.2,1,0.6c0.5,0.4,0.7,0.8,0.7,1.2s-0.2,0.9-0.7,1.5
			c-0.5,0.6-1.1,1.2-1.9,1.8c-0.8,0.6-1.7,1.2-2.8,1.6c-1.1,0.5-2.1,0.7-3.1,0.7s-1.8-0.2-2.5-0.7c-1.3-0.8-2.3-2.2-3-4.1
			s-1.1-4-1.1-6.2c0-2.2,0.4-4.1,1.4-5.9c1-2,2.8-3,5.4-3C393.8,51.2,395.2,51.6,396.6,52.4z M395,55.9c0-1.2-0.8-1.8-2.4-1.8
			c-1.1,0-2,0.6-2.7,1.9c-0.2,0.4-0.4,0.8-0.5,1.3c-0.1,0.5-0.2,1-0.3,1.6C393.1,58.8,395,57.8,395,55.9z"/>
		<path d="M416.9,54.7l0,3c0,1.1-0.1,2.6-0.2,4.3c0.2,3,0.5,5.7,1.1,8.1c-0.1,0.3-0.3,0.6-0.7,0.8c-0.4,0.2-0.8,0.3-1.2,0.3
			c-0.4,0-0.8,0-1-0.2c-0.3-0.1-0.4-0.3-0.5-0.5c-0.1-0.2-0.2-0.4-0.2-0.6c0-0.2-0.1-0.4-0.1-0.7c0-0.3,0-0.5,0-0.5
			c-1.3,1.4-3,2.1-5.1,2.1c-2.1,0-3.6-0.8-4.6-2.4c-0.9-1.6-1.4-3.9-1.4-6.8c-0.1-5.1,1.4-8.4,4.2-9.8c0.9-0.4,1.9-0.7,3.1-0.7
			c1.2,0,2.3,0.2,3.4,0.6c0.4-0.5,0.9-0.8,1.5-0.8c1.2,0,1.8,0.9,1.8,2.7C416.9,53.9,416.9,54.3,416.9,54.7z M412.8,64.9
			c0.5-1.6,0.8-3.2,0.7-5c0-1.8-0.2-3.1-0.7-3.9c-0.4-0.8-1.2-1.2-2.2-1.2c-0.4,0-1,0.1-1.7,0.1c-0.7,0.1-1.4,0.7-2,1.9
			c-0.6,1.2-0.9,2.2-0.9,3l0,1.7c0,3,0.7,4.9,1.9,5.7c0.4,0.3,0.9,0.4,1.5,0.4c0.6,0,1.3-0.3,2-0.8
			C412.1,66.2,412.5,65.6,412.8,64.9z"/>
		<path d="M428.4,41.4l-0.2,5.1c0,0.3,0.1,1.7,0.2,4c1.7,0,3.3-0.1,4.9-0.2c0.8,0.2,1.3,0.7,1.3,1.5c0,0.8-0.3,1.4-0.8,1.7
			c-0.6,0.3-1.1,0.5-1.7,0.6c-0.6,0-1,0.1-1.3,0.1c-0.3,0-0.7,0-1.2,0c-0.5,0-0.8,0-1.1,0c0,0.3,0.1,1,0.2,2.4
			c0.1,1.3,0.1,2.2,0.2,2.6c0.3,3.9,0.6,7,1.1,9.4c-0.1,0.5-0.4,1-0.8,1.4c-0.4,0.4-0.9,0.6-1.3,0.6c-0.5,0-0.9-0.3-1.1-1
			c-0.4-2.5-0.8-5.5-1-9c-0.2-3.5-0.3-5.6-0.3-6.3c-0.4,0-1.1,0.1-2.1,0.1c-1,0-1.8-0.1-2.4-0.2c-0.7-0.1-1-0.5-1-1.2
			c0-1.4,0.8-2.1,2.4-2.2l2,0c0.3,0,0.6,0,0.8-0.1c-0.1-2.9-0.2-4.3-0.2-4.4c0-0.2,0-0.6,0-1.3c0-0.7,0.1-1.7,0.1-3
			c0.1-0.5,0.4-0.9,0.8-1.2c0.4-0.3,0.8-0.5,1.3-0.5C427.8,40.2,428.2,40.6,428.4,41.4z"/>
		<path d="M447.3,51.9c1.4,0.8,2.1,1.9,2.1,3.1s-0.6,2.5-1.9,3.8c-1.3,1.3-2.8,2-4.7,2.3c-0.2,0-0.3,0.1-0.4,0.1c-0.1,0-0.2,0-0.4,0
			c-0.2,0-0.3,0-0.4,0s-0.2,0-0.4,0c-0.2,0-0.3,0-0.4,0c-0.1,0-0.2,0-0.5,0s-0.4,0-0.5,0c0.3,2.2,0.8,3.7,1.3,4.4
			c0.8,0.6,1.5,1,2.1,1c1.4,0,2.7-0.6,3.9-1.8c1.2-1.2,2.1-1.8,2.6-1.8c0.2,0,0.5,0.2,1,0.6s0.7,0.8,0.7,1.2s-0.2,0.9-0.7,1.5
			c-0.5,0.6-1.1,1.2-1.9,1.8c-0.8,0.6-1.7,1.2-2.8,1.6c-1.1,0.5-2.1,0.7-3.1,0.7c-1,0-1.8-0.2-2.5-0.7c-1.3-0.8-2.3-2.2-3-4.1
			c-0.7-1.9-1.1-4-1.1-6.2c0-2.2,0.4-4.1,1.4-5.9c1-2,2.8-3,5.4-3C444.5,50.6,445.9,51.1,447.3,51.9z M445.7,55.4
			c0-1.2-0.8-1.8-2.4-1.8c-1.1,0-2,0.6-2.7,1.9c-0.2,0.4-0.4,0.8-0.5,1.3c-0.1,0.5-0.2,1-0.3,1.6C443.7,58.3,445.7,57.3,445.7,55.4z
			"/>
		<path d="M287.5,100.7l0,3c0,1.1-0.1,2.6-0.2,4.3c0.2,3,0.5,5.7,1.1,8.1c-0.1,0.3-0.3,0.6-0.7,0.8c-0.4,0.2-0.8,0.3-1.2,0.3
			s-0.8,0-1-0.2c-0.3-0.1-0.4-0.3-0.5-0.5c-0.1-0.2-0.2-0.4-0.2-0.6c0-0.2-0.1-0.4-0.1-0.7c0-0.3,0-0.5,0-0.5
			c-1.3,1.4-3,2.1-5.1,2.1c-2.1,0-3.6-0.8-4.6-2.4c-0.9-1.6-1.4-3.9-1.4-6.8c-0.1-5.1,1.4-8.4,4.2-9.8c0.9-0.4,1.9-0.7,3.1-0.7
			c1.2,0,2.3,0.2,3.4,0.6c0.4-0.5,0.9-0.8,1.5-0.8c1.2,0,1.8,0.9,1.8,2.7C287.5,100,287.5,100.4,287.5,100.7z M283.5,110.9
			c0.5-1.6,0.8-3.2,0.7-5c0-1.8-0.2-3.1-0.7-3.9c-0.4-0.8-1.2-1.2-2.2-1.2c-0.5,0-1,0.1-1.7,0.1c-0.7,0.1-1.4,0.7-2,1.9
			c-0.6,1.2-0.9,2.2-0.9,3l0,1.7c0,3,0.7,4.9,1.9,5.7c0.4,0.3,0.9,0.4,1.5,0.4c0.6,0,1.3-0.3,2-0.8
			C282.7,112.2,283.2,111.6,283.5,110.9z"/>
		<path d="M312.5,113.3c-2,2.1-3.9,3.1-5.9,3.2c-1,0-1.8-0.3-2.5-1.1c-0.7-0.7-1.3-1.7-1.7-2.9c-0.8-2.3-1.1-4.5-1.2-6.7
			c0-2.2,0.1-4.7,0.3-7.5c0.1-0.5,0.3-0.9,0.7-1.2c0.4-0.3,0.7-0.5,1.1-0.5c0.8,0,1.3,0.4,1.4,1.2c-0.1,1.9-0.2,3.8-0.2,5.6
			c0,1.8,0.1,3.1,0.1,3.9c0.1,2,0.8,4.1,2.1,6.1c1.1-0.3,2.2-0.8,3.1-1.6c0.9-0.8,1.7-1.7,2.2-2.6c-0.4-4.1-0.6-7.6-0.6-10.5
			c0-0.6,0.2-1.1,0.6-1.5c0.4-0.4,0.8-0.6,1.4-0.7c0.5,0,1,0.4,1.3,1.1c0,1.4,0.2,4.6,0.4,9.7c0.1,0.7,0.3,2,0.6,3.9
			c0.3,1.9,0.5,3.1,0.5,3.5c0,0.4-0.2,0.9-0.6,1.3c-0.4,0.5-0.9,0.7-1.4,0.7c-0.5,0-0.9-0.3-1.1-1L312.5,113.3z"/>
		<path d="M325.4,96.3c1,0,2.1,0.1,3.2,0.5c2.1,0.7,3.1,1.5,3.1,2.6c0,0.5-0.2,0.9-0.6,1.2c-0.4,0.3-0.9,0.4-1.4,0.4
			c-0.1,0-0.7-0.3-1.9-0.8c-1.1-0.5-2.1-0.8-2.7-0.8c-0.7,0-1.3,0.2-1.9,0.6c-0.6,0.4-0.9,0.9-0.9,1.6c0,0.6,0.2,1.2,0.5,1.6
			c0.4,0.4,0.8,0.8,1.4,1c0.6,0.2,1.2,0.4,1.9,0.5c1.8,0.3,3.1,0.7,3.8,1c1.3,0.6,1.9,1.8,1.9,3.5c0,1.8-0.6,3.3-2,4.7
			s-2.7,2-4.2,2.1c-1.5,0-2.7-0.1-3.7-0.5c-1.7-0.6-2.6-1.5-2.6-2.5c0-1,0.6-1.5,1.8-1.5c0.6,0,1.4,0.2,2.4,0.7
			c1,0.5,1.9,0.7,2.5,0.7c0.7,0,1.3-0.4,1.8-1.3c0.6-0.8,0.8-1.6,0.8-2.4c0-0.2,0-0.4-0.1-0.7c-0.8-0.7-2.3-1.3-4.5-1.6
			c-0.8-0.1-1.6-0.3-2.3-0.6c-1.7-0.6-2.5-2.1-2.5-4.5c0-1.7,0.6-3,1.8-4C322.1,96.8,323.6,96.3,325.4,96.3z"/>
		<path d="M346.1,97.6c1.4,0.8,2.1,1.9,2.1,3.1c0,1.3-0.6,2.5-1.9,3.8c-1.3,1.3-2.8,2-4.7,2.3c-0.2,0-0.3,0.1-0.4,0.1
			c-0.1,0-0.2,0-0.4,0c-0.2,0-0.3,0-0.4,0c-0.1,0-0.2,0-0.4,0c-0.2,0-0.3,0-0.4,0c-0.1,0-0.2,0-0.5,0c-0.2,0-0.4,0-0.5,0
			c0.3,2.2,0.8,3.7,1.3,4.4c0.8,0.6,1.5,1,2.1,1c1.4,0,2.7-0.6,3.9-1.8c1.2-1.2,2.1-1.8,2.6-1.8c0.2,0,0.5,0.2,1,0.6
			c0.5,0.4,0.7,0.8,0.7,1.2s-0.2,0.9-0.7,1.5c-0.5,0.6-1.1,1.2-1.9,1.8c-0.8,0.6-1.7,1.2-2.8,1.6c-1.1,0.5-2.1,0.7-3.1,0.7
			c-1,0-1.8-0.2-2.5-0.7c-1.3-0.8-2.3-2.2-3-4.1c-0.7-1.9-1.1-4-1.1-6.2c0-2.2,0.4-4.1,1.4-5.9c1-2,2.8-3,5.4-3
			C343.3,96.4,344.7,96.8,346.1,97.6z M344.5,101.1c0-1.2-0.8-1.8-2.4-1.8c-1.1,0-2,0.6-2.7,1.9c-0.2,0.4-0.4,0.8-0.5,1.3
			c-0.1,0.5-0.2,1-0.3,1.6C342.6,104,344.5,103,344.5,101.1z"/>
		<path d="M353.4,110.7l0-1.3c0-1.8-0.2-3.7-0.5-5.7c-0.3-2.1-0.6-3.6-0.9-4.6c-0.3-1-0.5-1.7-0.5-1.9c0-0.3,0.2-0.5,0.5-0.8
			c0.4-0.3,0.8-0.4,1.3-0.4c0.5,0,0.9,0.2,1.1,0.5c0.3,0.4,0.5,0.7,0.5,1.1c0.1,0.4,0.1,0.9,0.2,1.5c0.1,0.6,0.1,1.1,0.1,1.3
			c0.7-1.8,1.9-3,3.6-3.7c0.9-0.4,1.8-0.6,2.9-0.6c2.3,0,3.5,0.6,3.5,1.7c0,0.7-0.4,1.3-1.1,1.7c-0.3,0.1-0.6,0.2-0.9,0.3l-1.2-0.1
			c-3.5,0-5.3,3.6-5.2,10.6l0.1,3.9l0,0.1c-0.1,0.5-0.4,1-0.8,1.4c-0.4,0.4-0.8,0.6-1.2,0.6c-0.6,0-1-0.5-1.2-1.5
			C353.6,113.6,353.5,112.3,353.4,110.7z"/>
		<path d="M380.2,114.3l0-2.2c0-0.3,0-0.8,0-1.3c0-0.6,0-1.2-0.1-1.9c0-0.7-0.1-1.4-0.1-2.2c-0.1-0.7-0.2-1.4-0.3-2.1
			c-0.2-1.3-0.5-2.4-1-3.3c-0.5-0.9-1.1-1.3-1.8-1.3c-0.7,0-1.3,0.1-1.8,0.4c-0.5,0.3-0.8,0.7-1.1,1.2c-0.6,1.1-1,2.3-1.1,3.6
			c-0.1,1.3-0.1,2.6-0.1,4.1l-0.1,4.6c0,0.6-0.2,1.1-0.6,1.4c-0.4,0.3-0.9,0.5-1.5,0.5c-0.7,0-1.1-0.4-1.1-1.3
			c0-2.4-0.1-5.2-0.3-8.7c-0.2-3.4-0.3-6.3-0.3-8.6c0.1-0.5,0.4-0.9,0.7-1.3c0.3-0.4,0.6-0.6,0.9-0.6s0.5,0,0.7,0.1
			c0.2,0,0.3,0.1,0.4,0.2c0.1,0.1,0.2,0.2,0.3,0.3c0.1,0.1,0.1,0.3,0.2,0.5c0,0.3,0.1,0.5,0.1,0.6c0,0.2,0,0.4,0.1,0.8
			c0,0.4,0,0.7,0.1,0.9c1.5-2,3.4-3.1,5.7-3.1c1.6,0,2.7,0.7,3.5,2.1c1.2,2.1,1.8,5.4,1.8,9.8l0.1,4c0,1.1,0,1.8-0.1,2.1
			c-0.1,0.4-0.2,0.7-0.4,0.9c-0.3,0.5-0.8,0.8-1.6,0.8C380.5,115.7,380.2,115.2,380.2,114.3z"/>
		<path d="M401.6,99.5l0,3c0,1.1-0.1,2.6-0.2,4.3c0.2,3,0.5,5.7,1.1,8.1c-0.1,0.3-0.3,0.6-0.7,0.8c-0.4,0.2-0.8,0.3-1.2,0.3
			c-0.4,0-0.8,0-1-0.2c-0.3-0.1-0.4-0.3-0.5-0.5c-0.1-0.2-0.2-0.4-0.2-0.6c0-0.2-0.1-0.4-0.1-0.7c0-0.3,0-0.5,0-0.5
			c-1.3,1.4-3,2.1-5.1,2.1c-2.1,0-3.6-0.8-4.6-2.4c-0.9-1.6-1.4-3.9-1.4-6.8c-0.1-5.1,1.4-8.4,4.2-9.8c0.9-0.4,1.9-0.7,3.1-0.7
			c1.2,0,2.3,0.2,3.4,0.6c0.4-0.5,0.9-0.8,1.5-0.8c1.2,0,1.8,0.9,1.8,2.7C401.6,98.8,401.6,99.2,401.6,99.5z M397.5,109.7
			c0.5-1.6,0.8-3.2,0.7-5c0-1.8-0.2-3.1-0.7-3.9c-0.4-0.8-1.2-1.2-2.2-1.2c-0.4,0-1,0.1-1.7,0.1c-0.7,0.1-1.4,0.7-2,1.9
			c-0.6,1.2-0.9,2.2-0.9,3l0,1.7c0,3,0.7,4.9,1.9,5.7c0.4,0.3,0.9,0.4,1.5,0.4c0.6,0,1.3-0.3,2-0.8
			C396.7,111,397.2,110.4,397.5,109.7z"/>
		<path d="M417,107.6l0-2.3c0-1.8-0.1-3-0.4-3.6c-0.2-0.6-0.4-1.1-0.7-1.5c-0.5-0.8-1.3-1.3-2.6-1.2s-2.1,0.4-2.6,1.2
			c-0.5,0.8-0.7,2-0.7,3.7l0.3,7.9c0,2.4-0.6,3.7-1.9,3.7c-0.7,0-1.2-0.4-1.3-1.2c-0.1-5.8-0.5-10.9-1.2-15.3c0-0.6,0.2-1.1,0.6-1.5
			c0.4-0.5,0.9-0.7,1.4-0.7c0.5,0,0.9,0.3,1.2,0.9c1-1.4,2.4-2.1,4.1-2.1c2.2,0,3.9,1,5.2,3.2c1.4-2.1,3.2-3.1,5.6-3.1
			c1.1,0,2.1,0.2,3,0.8c0.9,0.5,1.6,1.2,2.1,2c1.4,2.2,2.1,5.8,2.2,10.8l0,1.8c0,1.8-0.1,2.9-0.5,3.4c-0.1,0.2-0.3,0.4-0.5,0.6
			c-0.2,0.2-0.6,0.3-1.2,0.4c-0.7,0-1.1-0.5-1.1-1.4l0.1-5.3c0-3.5-0.4-5.9-1.2-7c-0.5-0.7-1.1-1.3-1.8-1.8
			c-0.7-0.5-1.4-0.7-2.1-0.7c-0.7,0-1.2,0.1-1.5,0.4c-0.4,0.2-0.7,0.7-0.9,1.3c-0.4,1.1-0.6,3.4-0.6,6.8l0.2,6.2l-0.1,0
			c-0.1,0.5-0.4,0.8-0.8,1.2c-0.4,0.3-0.8,0.5-1.2,0.5c-0.7,0-1-0.4-1.1-1.2l-0.1,0L417,107.6z"/>
		<path d="M446.1,96.6c1.4,0.8,2.1,1.9,2.1,3.1c0,1.3-0.6,2.5-1.9,3.8c-1.3,1.3-2.8,2-4.7,2.3c-0.2,0-0.3,0.1-0.4,0.1
			c-0.1,0-0.2,0-0.4,0c-0.2,0-0.3,0-0.4,0s-0.2,0-0.4,0c-0.2,0-0.3,0-0.4,0s-0.2,0-0.5,0s-0.4,0-0.5,0c0.3,2.2,0.8,3.7,1.3,4.4
			c0.8,0.6,1.5,1,2.1,1c1.4,0,2.7-0.6,3.9-1.8c1.2-1.2,2.1-1.8,2.6-1.8c0.2,0,0.5,0.2,1,0.6s0.7,0.8,0.7,1.2s-0.2,0.9-0.7,1.5
			c-0.5,0.6-1.1,1.2-1.9,1.8c-0.8,0.6-1.7,1.2-2.8,1.6s-2.1,0.7-3.1,0.7s-1.8-0.2-2.5-0.7c-1.3-0.8-2.3-2.2-3-4.1s-1.1-4-1.1-6.2
			c0-2.2,0.4-4.1,1.4-5.9c1-2,2.8-3,5.4-3C443.3,95.3,444.7,95.7,446.1,96.6z M444.5,100c0-1.2-0.8-1.8-2.4-1.8
			c-1.1,0-2,0.6-2.7,1.9c-0.2,0.4-0.4,0.8-0.5,1.3c-0.1,0.5-0.2,1-0.3,1.6C442.6,103,444.5,102,444.5,100z"/>
	</g>
</g>
<g id="dog">
	<path id="leg4" class="st54" d="M172.8,562.6c0,0-3.1,23.5-7,32.5c-4,9.1-12.8,19.6-13.3,23.5c-0.4,3.2-0.3,8.5,4.7,9.2
		c6.2,0.8,11.5-4.1,11.5-4.1s3,5.3,9,5.3c4.1,0,5-4.9,5-4.9s1.7,4.4,7.2,4.5c5.4,0,6.1-4.3,6.1-4.3s2.3,3.1,6.4,0.9
		c3.9-2.1,4.2-10.2,0.5-17c-3.7-6.8-10.5-10.3-17.2-8.8c-7.7,1.8-11.7,12.6-17.5,11.7c-2.6-0.4,8.2-15.2,10.1-21.3
		c1.7-5.4,3.9-24.8,3.9-24.8L172.8,562.6z"/>
	<path id="leg3" class="st54" d="M248.5,563.1c0,0,1.5,19.7-1.5,30.5c-2.8,10-9,16.9-11.7,21.6c-1.7,3-2.5,8.7,2.8,9.4
		c6.6,0.9,13.6-1.7,13.6-1.7s3.2,5.6,9.5,5.6c4.3,0,5.3-5.1,5.3-5.1s1.8,4.7,7.6,4.7c5.7,0,6.4-4.5,6.4-4.5s2.4,3.3,6.8,0.9
		c4.1-2.3,5.6-8.3,1.7-15.5c-3.9-7.2-10.5-12.1-17.6-10.5c-8.2,1.9-14.1,12-20.2,11.1c-2.7-0.4,5.1-11.2,6.8-19.6
		c1.2-5.9,0.1-23.8,0.1-23.8L248.5,563.1z"/>
	<g id="leg2">
		<path class="st55" d="M134.6,577.3c0,0-3.7,28.3-8.5,39.2c-4.8,11-15.5,23.6-16.1,28.4c-0.5,3.9-0.4,10.3,5.6,11.1
			c7.5,1,13.9-4.9,13.9-4.9s3.7,6.4,10.9,6.4c4.9,0,6-5.9,6-5.9s2.1,5.3,8.7,5.4c6.6,0,7.4-5.2,7.4-5.2s2.8,3.7,7.7,1.1
			c4.7-2.6,5.1-12.3,0.6-20.6c-4.5-8.2-12.7-12.4-20.8-10.6c-9.3,2.2-14.1,15.2-21.2,14.1c-3.1-0.5,9.9-18.3,12.2-25.7
			c2-6.5,4.7-29.9,4.7-29.9L134.6,577.3z"/>
		<path class="st54" d="M155.2,631.5c0,0,6.7,5,8.3,11.4c1.3,5.3,0,9.8,0,9.8l-0.9-0.8c0,0,1.1-6.3-0.7-10.5
			C160.1,637.2,155.2,631.5,155.2,631.5z"/>
		<path class="st54" d="M147.4,653c0,0,0.5-6-0.6-9c-1.1-3-5.2-5.8-5.2-5.8s3.1,3.8,3.9,6.6c0.8,2.7,1.1,6.8,1.1,6.8L147.4,653z"/>
		<path class="st54" d="M130.8,642.9c0,0,0.6,2.8,0.5,5.4c-0.1,1.8-0.6,4.4-0.6,4.4l-1.1-1.6c0,0,0.7-1.8,0.9-3.3
			C130.6,646.2,130.8,642.9,130.8,642.9z"/>
	</g>
	<path id="openmouth" class="st56" d="M330.3,545.3c0,0,1-2.6-4.5-6.9c-4.9-3.9-13.5-11-17.6-16.3c-5-6.5-12-25.6-12-25.6L274,490
		l-2.2,45.2l53.2,15.5L330.3,545.3z"/>
	<g id="leg1">
		<path class="st55" d="M216,578.5c0,0,1.8,23.8-1.8,36.8c-3.3,12.1-10.9,20.4-14.1,26.1c-2,3.6-3,10.5,3.3,11.4c8,1,16.5-2,16.5-2
			s3.9,6.7,11.5,6.7c5.2,0,6.4-6.2,6.4-6.2s2.2,5.7,9.2,5.7c6.9,0,7.8-5.5,7.8-5.5s3,4,8.2,1.1c5-2.7,6.8-10,2-18.7
			c-4.8-8.7-12.7-14.6-21.3-12.7c-9.9,2.3-17,14.5-24.5,13.4c-3.3-0.5,6.2-13.5,8.2-23.6c1.4-7.1,0.1-28.7,0.1-28.7L216,578.5z"/>
		<path class="st54" d="M249.5,632.2c0,0,4.6,3.1,6.3,9.8c1.4,5.6,0,10.4,0,10.4l-0.9-0.9c0,0,1.2-6.6-0.8-11
			C252.1,636,249.5,632.2,249.5,632.2z"/>
		<path class="st54" d="M238.7,652.7c0,0,0.5-6.3-0.6-9.5c-1.1-3.2-3.9-6.1-3.9-6.1s1.7,4.1,2.5,7c0.8,2.8,1.2,7.1,1.2,7.1
			L238.7,652.7z"/>
		<path class="st54" d="M221.2,642c0,0,0.7,3,0.5,5.7c-0.1,1.9-0.6,4.7-0.6,4.7l-1.2-1.7c0,0,0.8-1.9,0.9-3.5
			C221,645.6,221.2,642,221.2,642z"/>
	</g>
	<path id="tail" class="st57" d="M89.7,475.7c0,0-21.7-16.5-41.9-49.2c-16.8-27.1-22.9-61.2-28.7-61.2c-5.8,0-27.4,31.2-15.7,64.4
		c7.9,22.1,40.4,21.3,40.9,25c0.4,3.7-17.1,4.1-29.7,0.8c-4.8-1.3,5.4,15.6,22.3,15.9c10.2,0.2,21.5-4.5,23.1-2.6
		c1.7,1.9-24.4,10.8-22.3,14.1c2.1,3.3,8.7,5.5,23.5,4.5c16.7-1,25.2-6.8,25.2-6.8L89.7,475.7z"/>
	<path id="ear2" d="M253.9,373.4c0,0,13.3-59.1,20.6-62.8c7.3-3.7,41.7,9.3,41.7,17c0,7.7-7.8,17.3-12.1,17.3
		c-4.3,0-21.4-23.8-25.7-22.3c-4.3,1.5-21.4,50.7-21.4,50.7H253.9z"/>
	<path id="ear1" d="M218.3,409.7c0,0-28-56.3-27-66.9c1-10.5,35.8-31.3,42.6-27.2c6.7,4,10.1,16.4,5.8,21
		c-4.3,4.6-35.3,3.1-36.8,7.4c-1.5,4.3,18.3,60,18.3,60L218.3,409.7z"/>
	<g id="body">
		<path id="eyebrow" class="st58" d="M268.5,382.5c0,0,18.6-23.8,26.9-17.3c8.4,6.5,2.2,25.1,2.2,25.1L273.1,402l-7.7-11.1
			L268.5,382.5z"/>
		<path id="bodyshape" class="st59" d="M310.3,430.2c0,0,11.6,0.8,21.9-2.5c10.3-3.3,23.1-9.9,23.1-9.9l31.8,28.1
			c0,0-23.9,67.3-52,69.8c-28.1,2.5-54.5-19.8-54.5-19.8s-5.4,26.4,11.6,39.6c11.2,8.8,22.7,10.8,29.8,11c4.3,0.2,8.3-1.2,8.3-1.2
			c-1,9.4-15.3,16.3-27.2,18.8c-12,2.5-24.3-0.8-26,0c-1.7,0.8-14,27.2-57.8,31c-43.8,3.7-83-8.5-107.7-35.7
			c-21-23.1-34-80.5-30.3-87.5c3.7-7,22.5-5.6,46-13.4c23.5-7.8,39-16.3,39.2-18.8c0.2-2.5-11.6-6.6-24.1-10.1
			c-3-0.8,5.2-6.4,17.1-4.7c9,1.2,19.4,7.4,20.8,6c1.4-1.4-13-12.4-25.2-22.5c-0.6-0.5,11.3-3.7,24.1,2.5c6.8,3.3,14.4,10.6,16.5,10
			c5.2-1.4-9.7-21.6-22.5-31.7c-2.6-2.1,10.1-4.8,24.8,4.1c8.8,5.4,12.4,15.9,15.2,15.9c2.9,0,26-40.3,43-41.6
			c17.7-1.4,16.3,27.5,16.3,27.5L310.3,430.2z"/>
		<path id="mouthopen-body" class="st55" d="M271.2,479.3c0,0-13.8,4.7-17.8,15.3c-6.2,16.6-0.5,23.1,1.7,23.1
			c2.2,0-3.1-10.8,0.7-22C260,483.8,271.2,479.3,271.2,479.3z"/>
	</g>
	<g id="eyesopen">
		<ellipse class="st60" cx="293.6" cy="408.8" rx="24.5" ry="24.5"/>
		<ellipse cx="305.4" cy="405.4" rx="5.6" ry="5.6"/>
		<circle class="st0" cx="264.3" cy="423.2" r="29.3"/>
		<ellipse cx="278.4" cy="419.1" rx="6.7" ry="6.7"/>
		<path class="st59" d="M260.4,459.8c0,0-2.1-8.2,8.8-19.6c10.8-11.5,42.7-22.8,47-21.1c4.3,1.7,1.7,11.1,1.7,11.1L260.4,459.8z"/>
	</g>
	<g id="nose">
		<path d="M412.9,433.4c-7.7,19-29.9,28.1-49.5,20.1c-19.6-7.9-29.2-29.8-21.5-48.9c7.7-19.1,29.9-28.1,49.5-20.1
			C411,392.4,420.6,414.3,412.9,433.4z"/>
		<path class="st61" d="M402,407.7c-1.9,4.6-11.1,5.1-20.6,1.3c-9.5-3.8-15.7-10.7-13.9-15.2c1.8-4.6,11.1-5.2,20.6-1.3
			C397.7,396.3,403.9,403.2,402,407.7z"/>
	</g>
	<path id="mouthmove3" class="st62" d="M350,526.8c0,0,31.8-13.2,35.5-6.6C389.2,526.8,350,526.8,350,526.8z"/>
	<path id="mouthmove2" class="st62" d="M344.6,538.8c0,0,44.4,12.4,41.1,20.2C382.4,566.8,344.6,538.8,344.6,538.8z"/>
	<path id="mouthmove1" class="st62" d="M336.8,551.2c0,0,27.2,23.5,20.2,29.7C350,587.1,336.8,551.2,336.8,551.2z"/>
	<path id="tailmove2" class="st63" d="M63.6,418.1c0,0-18.6-29.2-12-32.1C58.2,383.1,63.6,418.1,63.6,418.1z"/>
	<path id="tailmove1" class="st63" d="M74.7,418.3c0,0-2.9-26.9,3.7-25.8C85.1,393.6,74.7,418.3,74.7,418.3z"/>
	<g id="eyesclosed">
		<circle class="st58" cx="293.1" cy="408.8" r="24.8"/>
		<path class="st64" d="M313.4,395.2l2,2.4c0,0-11.6,2.5-22.5,8c-8.3,4.2-16,10.4-19.1,16.8l-1.6-2.1
			C272.1,420.2,279.4,400.6,313.4,395.2z"/>
		<ellipse class="st65" cx="264.6" cy="422.8" rx="30.4" ry="30.4"/>
		<path class="st64" d="M288.2,404.3l2.7,2.8c0,0-14.3,3.8-27.6,11.4c-10.1,5.7-19.3,14-22.9,22.1l-2.1-2.6
			C238.3,438,246.2,413.1,288.2,404.3z"/>
		<path class="st59" d="M226,455.5c0,0,3-8.6,11.3-12.4c7.2-3.3,28.7,6.5,30.3,10.1C269.3,457.3,226,455.5,226,455.5z"/>
		<path class="st59" d="M260.4,459.8c0,0-2.1-8.2,8.8-19.6c10.8-11.5,42.7-22.8,47-21.1c4.3,1.7,1.7,11.1,1.7,11.1L260.4,459.8z"/>
	</g>
</g>
</svg>
