<?xml version="1.0" encoding="utf-8"?>
<!-- Generator: Adobe Illustrator 21.0.0, SVG Export Plug-In . SVG Version: 6.00 Build 0)  -->
<svg version="1.1" id="Layer_1" xmlns="http://www.w3.org/2000/svg" xmlns:xlink="http://www.w3.org/1999/xlink" x="0px" y="0px"
	 viewBox="0 0 562.1 408.4" style="enable-background:new 0 0 562.1 408.4;" xml:space="preserve">
<style type="text/css">
	.st0{fill:#B7D333;}
	.st1{fill:#DC2626;}
	.st2{fill:#B22025;}
	.st3{fill:#B56F29;}
	.st4{fill:#1A1A1A;}
	.st5{fill:#F69220;}
	.st6{fill:#343433;}
	.st7{fill:#CBCBCA;}
	.st8{fill:#FFFFFF;}
</style>
<g>
	<path d="M205.7,238.6c-4.3,0-8.2-1.3-10.3-2c-3.3-1.1-6.1-3.8-14.9-16.6c-0.3,0.7-0.6,1.3-0.9,1.8c-3.3,6.7-4.6,9.1-5.8,10.6
		c-1.5,1.8-4.3,4-9.4,4c-2.4,0-10.4-0.5-12.8-6.3c-0.3-0.8-0.7-1.7-1.2-2.7c-4.9-11.1-14-31.9-27-109.4c-1.5-8.8,6.3-11.7,8.9-12.6
		c2.1-0.8,4-1.1,6.2-1.1c1.6,0,3,0.2,4.7,0.4c0.7,0.1,1.4,0.2,2.3,0.3c7,0.8,9.7,7.4,13.8,25.7c2.5,11,4.8,24.1,6.6,33.6
		c0.9,4.8,1.5,8.5,2,10.4c0.2,0.8,0.7,2.2,1.3,3.8c2.7-3.3,5.7-7.2,6.9-9c1.7-2.6,4.5-4.1,7.5-4.1c4.6,0,8.6,3.2,13.3,10.6
		c0.7,1.1,1.4,2.2,2,3.4c1-4.9,2-10.5,2.7-14.4c0.8-4.1,1.4-7.6,1.9-9.9c0.7-3.6,9.4-41.1,12.3-46.1c2.1-3.6,5.9-5.8,10.2-5.8
		c3.6,0,7.4,1.5,10,4c0.1,0,0.1,0.1,0.2,0.1c1.3,0.8,4,2.4,5.6,6.7c2,5.3,0.5,27.8,0.5,28c-0.4,5.6-3.6,16.3-7.1,27.6l-0.9,2.8
		c-0.6,1.9-1.9,8.2-3.3,15c-8.2,38.7-10.5,45.1-14.9,48.2C213.1,237.5,209.6,238.6,205.7,238.6z"/>
	<path class="st0" d="M135.2,112.9c2.9-1.1,4.7-0.5,9.5,0c4.9,0.5,13.3,53.5,15.4,63.5c0.6,3,5,14.4,7.5,14.5s13.2-14,15.2-17.1
		c2-3.2,10.9,10.6,13.3,19c0.6,2.4,5.9,2.5,7.6,0c1.7-2.5,5.9-27.7,7.6-36.2c1.7-8.5,9.7-40.7,11.4-43.8c1.7-3.1,6-1.6,7.6,0
		s2.9,1.3,3.8,3.8c0.9,2.5,0.4,18.9,0,24.7c-0.4,5.8-5.4,21.3-7.6,28.6c-2.2,7.3-10.9,55.9-15.2,59c-4.3,3.1-10.4,1-13.3,0
		s-15.4-20.4-17.1-22.8c-1.3-1.5-1.9,0-1.9,0c-2.3,2.8-9.6,19.2-11.3,21.3c-1.7,2.1-8.3,0.5-8.6-0.4c-4-9.6-13.6-26.1-27.7-110.3
		C131,114.6,132.2,114,135.2,112.9z"/>
	<path d="M257.8,395.9c-0.3,0-0.5,0-0.8,0c-8.9-0.4-13.5-8.1-13.6-15.5v-75.9c-0.3-6.1-1.9-33.4-1.9-36.4c0-5.1,3.1-9.9,9.1-14.2
		c2.3-1.6,5.1-2.3,9.3-2.3c3.8,0,8,0.6,9.5,0.9c3.9,0.3,7.3,2.6,9.1,6.3c0.2,0.3,0.3,0.7,0.5,1.1c14.2-6.3,24.3-9.3,31.4-9.3h7.6
		c22.6,0,38.4,17.1,40.3,43.6c0,0.1,0,0.2,0,0.3c1.3,39.2-16.1,78.6-43.3,98.1c-1,0.8-5,3.4-10.3,3.4c-2.4,0-4.8-0.5-7-1.6
		c-4.3-2.1-6.1-5.3-6.9-7.6c-1.6-4.8,0.3-9,0.9-10.1c0.1-0.2,0.3-0.5,0.4-0.7c20.6-31.1,31-55.2,31-71.7c0-8.1-6.5-16.8-17.1-16.8
		c-0.4,0-0.7,0-1.1,0c-10.5,0.6-22.8,5.9-24.5,13.4c-1.7,7.7-2.7,38.7-3.3,57.2c-0.3,9.5-0.5,16.4-0.8,19.2c0,0.5-0.1,0.9-0.2,1.3
		C273.4,389.2,266.3,395.9,257.8,395.9z"/>
	<path class="st0" d="M310.4,258.5h7.6c16.7,0,30.6,12,32.4,36.2c1.1,34.2-13.3,72.3-40,91.4c0,0-4.3,3.3-9.1,1
		c-4.7-2.3-2.4-6.7-2.4-6.7c21.6-32.5,32.4-57.9,32.4-76.1c0-12.9-10.8-25.6-26.6-24.7c-15.9,0.9-29.5,9.1-31.9,19.6
		c-2.7,12.2-3.6,69.2-4.3,77.5c-1.5,5.8-5.2,11.6-11.2,11.3c-5.9-0.3-6-7.5-6-7.5v-38.1v-20.9v-17.1c0,0-1.9-33.2-1.9-36.2
		s3-5.7,5.7-7.6c2.7-1.9,13.3,0,13.3,0c2.5,0,3.8,2.5,3.8,7.6l1.9,1.9h1.9C292.2,262.3,303.7,258.5,310.4,258.5z"/>
	<path d="M480.7,404.8c-2.1,0-4.1-0.2-5.8-0.5c-8.6-1.6-16.2-12.6-17.8-19.5c-0.3-1.2-0.3-2.7-0.2-4.4c0-0.1,0-0.2,0-0.4
		c1.8-12.6,4.2-19.2,17-23.5c-4.9-1-7.4-3.2-9.4-8.4c-0.8-1.9-1.5-3.8-1.1-73.2c0.1-16,0.5-68.3,1.2-72.1c1.3-6.3,4.4-10.2,10-12.7
		c2.3-1,5-2,8.5-2c2,0,4.1,0.3,6.6,1c8.9,2.5,11.5,9.5,11.6,13.2c0,0.1,0,60.7,0,60.7l1.9,68.4c0,0.1,0,5.9,0,5.9
		c0,12.5-6,18.6-12.4,19.3c3.4,1.5,10.2,7.4,12.1,11.7c1.8,4.2,1.8,8,1.8,13.9v0.4c0,8.7-5.9,16.5-15.8,21c-0.7,0.3-1.4,0.5-2.1,0.6
		C486.8,404.4,484.1,404.8,480.7,404.8z"/>
	<path class="st0" d="M485.9,396.4c0,0-5.2,0.8-9.5,0c-4.3-0.8-10.3-8.3-11.4-13.3c-0.1-0.6,0-1.9,0-1.9c1.7-11.4,3-14.5,13.1-17.6
		c2-0.6,8.1-0.2,9.7,0.4c1.6,0.7,7,5.3,8,7.6c1.2,2.7,1.1,5.5,1.1,11.1C497,388.7,492.2,393.5,485.9,396.4z M489.7,348.8
		c0,0-10.9,0.5-13.3,0c-2.5-0.5-3-0.3-4.4-3.7s-0.2-136.9,0.6-140.7s2.2-5.6,5.5-7c3.2-1.4,5.3-1.8,9.8-0.6c5.6,1.5,5.7,5.7,5.7,5.7
		v60.6l1.9,68.5c0,0,0,2.7,0,5.7C495.4,344.9,492.7,348.8,489.7,348.8z"/>
	<path d="M289.8,236c-26,0-44.8-14.2-53-40.1c-0.1-0.4-0.2-0.7-0.3-1.1c-0.1-0.5-1.9-11.8-1.9-19.4c0-15.5,6.8-32.8,18.1-46.3
		c12.7-15.1,29.1-23.4,46.2-23.4c29.9,0,39.6,27.5,42.4,50.6c0,0.3,0.1,0.7,0.1,1v10.9c0,18.1-14.4,29.8-36.7,29.8l-0.4,0
		c-0.3,0-0.6,0-0.9-0.1c-0.2,0-15.5-1.8-24-1.8l-0.4,0c-1.3,0-2.3,0-3.1,0.1c1.5,3.9,8,9.3,17.1,9.3l0.3,0c6.9-0.1,12.7-5,12.7-5.1
		c2.6-2.2,5.7-2.2,6.8-2.2c0.7,0,1.1,0,1.1,0c0.1,0,0.3,0,0.4,0c7.5,0.9,12.4,8.1,12.5,18.5c0,0.6,0.1,1.7,0,2.9
		c-0.6,6.5-5.4,14.6-25.4,16.3c-0.2,0-0.5,0-0.7,0H289.8z M274.2,163.1c0.6,2.5,6.6,4.1,12.2,4.3c1.3,0,2.6,0.1,3.8,0.1
		c11,0,15.5-1.8,17-2.6v-5.4c-1.3-12.6-6.3-17.8-17.4-17.8h-1.8C284.7,141.6,277.2,148.1,274.2,163.1z"/>
	<path class="st0" d="M298.8,113.7c19.4,0,30.9,14.5,34.5,43.5v1.8v1.8v5.4v1.8c0,13.2-10.7,21.9-29,21.8c0,0-16.5-1.9-25.4-1.8
		c-8.9,0.1-11.6,1-11.3,6.9c0.4,8.9,11.7,18.7,25.9,18.5c9.9-0.1,17.4-6.6,17.8-7s2.1-0.3,2.1-0.3c3.3,0.4,5.4,4.8,5.4,10.9
		c0,0,0.1,0.8,0,1.8c-0.5,6-9.8,8.3-18.1,9.1h-10.9c-19.5,0-37.4-9.2-45.4-34.5c0,0-1.8-11.1-1.8-18.1
		C242.6,148,267.1,113.7,298.8,113.7z M266.2,162.7c0,6.9,6.6,12.2,20,12.7c20.5,0.7,29-3.8,29-9.1V159c-1.6-16.9-10-25.4-25.4-25.4
		h-1.8C279.7,133.6,269.6,143.9,266.2,162.7z"/>
	<path d="M410.4,380.8c-26,0-44.8-14.2-53-40.1c-0.1-0.4-0.2-0.7-0.3-1.1c-0.1-0.5-1.9-11.8-1.9-19.4c0-15.5,6.8-32.8,18.1-46.3
		c12.7-15.1,29.1-23.4,46.2-23.4c29.9,0,39.6,27.5,42.4,50.6c0,0.3,0.1,0.7,0.1,1v10.9c0,18.1-14.4,29.8-36.7,29.8l-0.4,0
		c-0.3,0-0.6,0-0.9-0.1c-0.2,0-15.5-1.8-24-1.8l-0.4,0c-1.3,0-2.3,0-3.1,0.1c1.5,3.9,8,9.3,17.1,9.3l0.3,0c6.9-0.1,12.7-5,12.7-5.1
		c2.6-2.2,5.7-2.2,6.8-2.2c0.7,0,1.1,0,1.1,0c0.1,0,0.3,0,0.4,0c7.5,0.9,12.4,8.1,12.5,18.5c0,0.6,0.1,1.7,0,2.9
		c-0.6,6.5-5.4,14.6-25.4,16.3c-0.2,0-0.5,0-0.7,0H410.4z M394.9,308c0.6,2.5,6.6,4.1,12.2,4.3c1.3,0,2.6,0.1,3.8,0.1
		c11,0,15.5-1.8,17-2.6v-5.4c-1.3-12.6-6.3-17.8-17.4-17.8h-1.8C405.3,286.5,397.8,293,394.9,308z"/>
	<path class="st0" d="M419.1,258.5c19.4,0,30.9,14.5,34.5,43.5v1.8v1.8v5.4v1.8c0,13.2-10.7,21.9-29,21.8c0,0-16.5-1.9-25.4-1.8
		c-8.9,0.1-11.6,1-11.3,6.9c0.4,8.9,11.7,18.7,25.9,18.5c9.9-0.1,17.4-6.6,17.8-7c0.4-0.4,2.1-0.3,2.1-0.3c3.3,0.4,5.4,4.8,5.4,10.9
		c0,0,0.1,0.8,0,1.8c-0.5,6-9.8,8.3-18.1,9.1H410c-19.5,0-37.4-9.2-45.4-34.5c0,0-1.8-11.1-1.8-18.1
		C362.9,292.8,387.4,258.5,419.1,258.5z M386.4,307.5c0,6.9,6.6,12.2,20,12.7c20.5,0.7,29-3.8,29-9.1v-7.3
		c-1.6-16.9-10-25.4-25.4-25.4h-1.8C399.9,278.5,389.9,288.7,386.4,307.5z"/>
	<path d="M365.1,238.6c-4.1,0-9.5-0.1-10.3-0.2c-11-0.1-13.1-15.4-14-21.9c-1.4-10.5-2.1-25.6-2.1-46.2V31.6
		c0-12.1,16.7-15,23.1-16.2c0.5-0.1,1.5-0.3,2.7-0.3c1.3,0,2.6,0.2,3.7,0.7c2.8,1.1,7.6,5.9,8.7,8.7c0.8,2.1,0.7,4.2,0.5,5.6v90.3
		l4.1,76.4c0,0.1,0,0.3,0,0.4v2c0.4,27.5,0.1,28.1-0.5,29.9c-0.8,2.1-4.8,7.7-9.6,9C370.4,238.5,369.2,238.6,365.1,238.6z"/>
	<path class="st0" d="M363.3,23.3c0,0,1.4-0.3,2.1,0s3.9,3.4,4.1,4.1s0,2.1,0,2.1v4.1v33.1v22.8v31.1l4.1,76.7v2.1
		c0,0,0.3,26.1,0,26.9s-2.8,3.8-4.1,4.1c-1.4,0.4-14.5,0-14.5,0c-5.5,0-8.3-20-8.3-60.1V31.5C346.7,28,352.2,25.2,363.3,23.3z"/>
	<path d="M413.1,238.6c-4.1,0-9.5-0.1-10.3-0.2c-11-0.1-13.1-15.4-14-21.9c-1.4-10.5-2.1-25.6-2.1-46.2V31.6
		c0-12.1,16.7-15,23.1-16.2c0.5-0.1,1.5-0.3,2.7-0.3c1.4,0,2.6,0.2,3.7,0.7c2.8,1.1,7.6,5.9,8.7,8.7c0.8,2.1,0.7,4.2,0.5,5.6v90.3
		l4.1,76.4c0,0.1,0,0.3,0,0.4v2c0.4,27.5,0.1,28.1-0.5,29.9c-0.8,2.1-4.8,7.7-9.6,9C418.4,238.5,417.2,238.6,413.1,238.6z"/>
	<path class="st0" d="M411.3,23.3c0,0,1.4-0.3,2.1,0s3.9,3.4,4.1,4.1s0,2.1,0,2.1v4.1v33.1v22.8v31.1l4.1,76.7v2.1
		c0,0,0.3,26.1,0,26.9s-2.8,3.8-4.1,4.1c-1.4,0.4-14.5,0-14.5,0c-5.5,0-8.3-20-8.3-60.1V31.5C394.7,28,400.2,25.2,411.3,23.3z"/>
	<path d="M105.2,384.9c-2.5,0-4.5-0.3-5.7-0.6c-5-0.5-7.6-4.5-9-9.3c-8.8,6.2-19.5,9.3-32,9.3c-23.5,0-40.6-10.5-49.6-30.3
		c-0.1-0.1-0.1-0.3-0.2-0.4c-0.3-0.8-3.1-8.1-4-12.3c-0.9-4.3-1.7-14.1,0-23.3c0-0.1,0.1-0.3,0.1-0.4c7-29.5,30.4-50.2,57.1-50.4
		c1.1-0.1,3.5-0.3,6.6-0.3c2.4,0,4.7,0.1,6.9,0.4c4.6,0.5,9.1,1.7,13.4,3.6c0-32,0-76.5,0-78.8c-0.1-6.7,5.3-11.1,10.7-12.4
		c0.6-0.2,1.3-0.2,1.9-0.2h10.3c0.8,0,1.6,0.1,2.4,0.4c8.5,2.7,9.8,11.9,9.8,17.2c0,0,0,49.5,0,49.6L122.1,370c0,0.2,0,0.5,0,0.7
		c-0.4,4-3.2,11.3-10.6,13.3C109.5,384.6,107.4,384.9,105.2,384.9z M58.6,347.8c11.5,0,24.5-12.1,24.5-28.4c0-6.8-1.7-12.1-5-15.4
		c-2.2-2.2-5-3.4-8-3.4c-8.2,0-19.9,2.4-26.9,22.7c0,0.1-0.1,0.3-0.1,0.3c0,0-1,2.7-1.4,6.2c-0.2,1.3-0.4,2.5-0.6,3.6
		c-0.6,3-0.8,4.2,0,6c1.2,1.9,7.8,6.9,16.3,8.3H58.6z"/>
	<path class="st0" d="M101.5,187.4h10.3c2.8,0.9,4.2,4.1,4.2,9.5v21.2v28.3l-1.9,123.5c0,0-0.6,5.3-4.8,6.5c-4.2,1.2-8.6,0-8.6,0
		c-1.9,0-3.2-4.5-4-13.4h-4.4c-8.4,8.9-19.7,13.4-33.7,13.4c-20.5,0-34.6-8.5-42.3-25.6c0,0-2.9-7.4-3.6-11.1s-1.4-12.4,0-20.2
		c6.2-26.5,26.7-44.3,49.8-44.3c0,0,5.6-0.8,12.1,0s13.9,3.2,22.4,9.5c0,0,0-89.3,0-92.8S101.5,187.4,101.5,187.4z M33.7,328.8
		c-0.6,4.6-2.4,8.4,0,14c1.7,3.9,11.1,11.3,23,13h1.9c16.5,0,32.5-16.5,32.5-36.4c0.1-17.8-10.1-26.8-21.1-26.8
		c-16.5,0-28,9.4-34.5,28.1C35.6,320.8,34.3,324.3,33.7,328.8z"/>
	<path d="M173.4,382.5c-30.2,0-45.3-11.6-52.1-40c-0.1-0.6-1.5-6.2-1.1-11.5c1.8-33.7,17.9-48.9,49-66.6c0.1-0.1,0.2-0.1,0.3-0.2
		c6.6-3.3,15.1-5,26-5c25.1,0,46.8,15.8,48.6,35.4c1.8,10.5,0.9,21.6,0,29.1c-3.4,28.9-35.7,49.9-44.2,53.9
		c-7.2,3.4-20.4,4.6-22.9,4.8c-0.1,0-0.3,0-0.4,0C175.5,382.5,174.5,382.5,173.4,382.5z M195.4,294.9c-32.5,8.6-39.2,22.7-39.2,41.2
		c0,3,0,10.8,17.5,14.9c13.2-0.8,34.6-21.3,36.4-39c0.2-2.3,0.1-6.9,0-9.5c-1.3-7.9-4.3-8.2-6.6-8.2L195.4,294.9z"/>
	<path class="st0" d="M195.6,267.3c20.2,0,39.4,12.4,40.7,28.4c1.8,10.2,0.7,21.4,0,27.1c-3,25.6-33.5,44.7-39.7,47.7
		s-20.1,4-20.1,4c-29.5,0.7-41.4-9.2-47.3-33.8c0,0-1.2-4.9-0.9-9.2c1.6-29.6,14.9-43,45-60.1C178.6,268.6,186.1,267.3,195.6,267.3z
		 M148.2,336.2c0,11.7,8.2,19.3,24.7,23c17.7,0,43-24.4,45.2-46.2c0.4-3.9,0-11.1,0-11.1c-1.5-10.3-6.5-15.4-14.8-15.4l-9.1,0.6
		C159.8,295.9,148.2,311.9,148.2,336.2z"/>
</g>
<g>
	<g>
		<g>
			<path class="st1" d="M458.3,159.8c0,0-4.2,2.1-7.6,7.6c-2.9,4.8-3.5,12.6,1.7,14.1c6.5,1.9,8.5-2.2,8.8-4.5c0.4-2.8,1-4.3,2-5.6
				c1-1.5,2.5-2.2,2.5-2.2L458.3,159.8z"/>
			<path class="st2" d="M460.7,163c0,0-2.7,1.4-4.7,4.6c-1.5,2.5-2.4,5.7-1.3,6.2c1.1,0.5,1.2-3.4,2.7-5.8c1.8-3,4-4.3,4-4.3
				L460.7,163z"/>
		</g>
		<path class="st3" d="M484.5,172.2c0,0-0.8,6-2.5,9.9c-1.6,3.9-3.1,7.6-4,7.9c-0.9,0.2-9.6-3.6-13.3,0c-3.6,3.6-2.6,10.5,0,11.1
			c2.6,0.6,9.1-4.4,9.9-3.8c0.8,0.6-4.1,5.4-2.5,7.1c1.6,1.6,7.6,6.1,11.9,2.9c4.2-3.2-0.4-7.9,1.4-8.6c1.8-0.7,6.1,5.8,10,3.8
			c3.9-2,5.9-5.8,3.4-9.6c-2.5-3.9-13.8-0.6-13.8-1.2c0-0.6,1.8-2.1,3.5-7.5c1.8-5.4,1.6-13.1,1.6-13.1L484.5,172.2z"/>
		<path class="st3" d="M433,141.2c0,0-31.4,20.2-32.6,18.8c-1.2-1.5-2.8-8-5.6-9.3c-2.8-1.3-9.3,0.1-9.9,3.8
			c-0.5,3.7,8.6,6.7,7.1,9.2c-1.6,2.5-8.6,0.9-10.2,5.1c-1.6,4.2,2.1,11.6,7.4,11.6c5.3,0,6.7-7.1,9.2-7.1c2.5,0,0,9.3,4.1,9.9
			c4.1,0.5,8.8-1.9,9.2-6.4c0.4-4.4-6-8.6-5.8-9.2c0.2-0.5,29.8-22.2,29.8-22.2L433,141.2z"/>
		<path class="st3" d="M504.9,70.1c0,0,5.6-3.1,14.8-5.4c9.8-2.4,12.5-1.5,14.4-2.4c1.9-0.9-0.3-6,5.4-8.4c5.6-2.4,10.2,2.3,10,5.4
			c-0.2,3.1-4.8,5.9-4.8,6.6s7.3-1.5,9.4,2c1.9,3.2,1.6,10-3.8,10.5c-5.4,0.5-9.4-5.4-11.3-4.7c-1.9,0.7,0.8,5.3-2.5,7.9
			c-2.6,2-7.9,1.8-9.4-2c-1.3-3.1,3.9-8.3,3-9c-0.9-0.7-6.1-0.1-10.3,0.9c-4.2,0.9-10.9,2.7-10.9,2.7L504.9,70.1z"/>
		<path class="st3" d="M436.3,73.8c0,0-6.8-5.4-16.5-9.1c-6.7-2.5-14.2-2.7-14.9-4.4c-0.7-1.8,3.2-4.5,1.5-9.4
			c-1.8-4.9-9.2-6.7-12.5-4.2c-3.4,2.5,3.7,11.1,2.3,12.7c-1.4,1.6-6.5-4.9-12.2-2.6c-5.6,2.3-4.6,9.6,0,11.3c4.6,1.7,8.3-3.4,9.7-2
			c1.4,1.4-8.5,7.2-5.1,11.5c3.4,4.2,8.1,4.4,12,1.1c3.9-3.4-0.4-8.6,1.6-9.7c1.9-1.1,6.9,0.1,14.7,2.1c9.2,2.4,16,8.1,16,8.1
			L436.3,73.8z"/>
		<path class="st4" d="M463.4,58.8c0,0-9-8.3-10.8-18.9c-1.8-10.6,0-18.5,1.2-18.5c1.2,0,4.6,7.6,5.6,7.2c1.1-0.4-3.2-7.6,3-16.9
			c6.2-9.3,13.9-8.8,14.6-8.5c0.7,0.4-3.5,7.6-1.9,9.3c1.6,1.8,5.1-6.9,15.5-4.4c10.4,2.5,13.6,9.4,13,10.2
			c-0.5,0.9-10.1-2.3-10.4-1.2c-0.4,1.1,8.1,3.2,8.3,13.8c0.2,10.6-6.2,13.9-13.4,15.3c-7.2,1.4-15.7-4.2-14.9-5.5
			c0.8-1.2,6.1,0.1,8.5-3.7c2.5-3.9-2-10.4-8-9.5c-5.3,0.8-8.2,4.8-8,11c0.2,6.2,6.3,19.2,6.3,19.2L463.4,58.8z"/>
		<path class="st5" d="M513.1,126.9l-8.2-18.5c0,0,6.9-12.7,6.9-22.6c0-12-5.1-28.8-27.8-30.5c-23-1.8-40.8,5.1-51.9,22.4
			c-10.7,16.7-12.1,41.3-3.9,60c9.3,21.3,29.9,22.3,29.9,22.3s4.6,13,21,14.8c26,2.9,47.5-20.9,47.5-20.9l-5.1-25.5L513.1,126.9z"/>
		<path class="st6" d="M467.1,117.3c0,0-28.6-11.3-33.7-9.5c-3.8,1.3-18.5,14.1-17,23.8c1.1,7,10.8,8.5,14.9,4.6
			c4.8-4.6,2.7-17.4,5.5-19.1c3.5-2.2,30.3,4.4,30.3,4.4V117.3z"/>
		<path d="M503.3,106.1c0,0,25-19,30.3-18.9c7.1,0.1,17,12.5,16.2,18.4c-0.8,5.9-6.9,8-10.7,5.5c-3.8-2.5-5.6-14.6-8.2-14.9
			c-2.6-0.3-25.9,11.9-25.9,11.9L503.3,106.1z"/>
		<path class="st3" d="M471,131.6c0,0-8.8-9.5-7.4-22.8c1.6-15.9,14.7-20.1,14.7-20.1s-4.9,7.1-3.8,13.3c1.5,8.3,6.7,9.1,6.7,9.1
			s-0.4-11.9,5.9-16.8c9.5-7.4,16.1-2.2,16.1-2.2s-8,1.9-9.5,6.6c-1.2,3.8,0.9,7.3,0.9,7.3s5.5-7.8,11.6-8.5
			c9.3-1.1,10.8,6.2,10.8,6.2s-3.9-2.9-8.1,0.7c-3,2.6-3.3,5.9-3.3,5.9l1.1,7.9L471,131.6z"/>
		<path class="st5" d="M473.9,135.3c0,0-1.5-0.9-3-3.7c-2.1-4,0.8-13.4,10.7-19c10-5.6,12.1,2.5,14.9,3.4c2.8,0.9,3.9-8.4,10.6-6.7
			c5.5,1.4,3.6,9.2,3.6,9.2L473.9,135.3z"/>
		<circle class="st7" cx="506.1" cy="123" r="8.7"/>
		<circle cx="506.8" cy="122.2" r="1.9"/>
		<circle class="st8" cx="489.5" cy="131.9" r="13.5"/>
		<circle cx="490.6" cy="130.8" r="3"/>
		<path class="st5" d="M513.8,127c0,0,1.2-1.2,0.6-1.5c-2.9-1.5-22.2,8.4-24.9,13.3c-3.7,6.6,0,9.8,0,9.8s8.6-1.2,16-6.2
			C512.8,137.2,513.8,127,513.8,127z"/>
		<circle cx="535" cy="136.9" r="20.2"/>
		
			<ellipse transform="matrix(0.9763 -0.2166 0.2166 0.9763 -14.4796 118.2519)" class="st6" cx="532.2" cy="125.2" rx="9.4" ry="3.9"/>
		<path d="M458,159.9c0,0-1.7-6.6-1.6-11c0.1-9.2,3.7-11.2,3.7-11.2s-4.6,2.2-5,11.8c-0.2,3.2,1.5,10.3,1.5,10.3L458,159.9z"/>
	</g>
</g>
</svg>
