<?xml version="1.0" encoding="utf-8"?>
<!-- Generator: Adobe Illustrator 21.0.0, SVG Export Plug-In . SVG Version: 6.00 Build 0)  -->
<svg version="1.1" id="Layer_1" xmlns="http://www.w3.org/2000/svg" xmlns:xlink="http://www.w3.org/1999/xlink" x="0px" y="0px"
	 viewBox="0 0 319.1 236.1" style="enable-background:new 0 0 319.1 236.1;" xml:space="preserve">
<style type="text/css">
	.st0{fill:#A7A8AC;}
	.st1{fill:#FFFFFF;}
	.st2{fill:#FFFFFF;stroke:#B8D432;stroke-width:1.5;stroke-miterlimit:10;}
	.st3{fill:#FDFDFD;}
	.st4{fill:#FBFBFB;}
	.st5{fill:#F9F9F9;}
	.st6{fill:#F7F7F7;}
	.st7{fill:#F5F5F5;}
	.st8{fill:#F3F3F3;}
	.st9{fill:#F1F1F1;}
	.st10{fill:#EFEFEF;}
	.st11{fill:#EDEDED;}
	.st12{fill:#EBEBEB;}
	.st13{fill:#E9E9E9;}
	.st14{fill:#E7E7E7;}
	.st15{fill:#E5E5E4;}
	.st16{fill:#E3E3E2;}
	.st17{fill:#E1E1E0;}
	.st18{fill:#DFDFDE;}
	.st19{fill:#DDDDDC;}
	.st20{fill:#DBDBDA;}
	.st21{fill:#D9D9D8;}
	.st22{fill:#D7D7D6;}
	.st23{fill:#D5D5D4;}
	.st24{fill:#D3D3D2;}
	.st25{fill:#D1D1D0;}
	.st26{fill:#CFCFCE;}
	.st27{fill:#CDCDCC;}
	.st28{fill:#CACACA;}
	.st29{fill:#C8C8C8;}
	.st30{fill:#C6C6C6;}
	.st31{fill:#C4C4C4;}
	.st32{fill:#C2C2C2;}
	.st33{fill:#C0C0C0;}
	.st34{fill:#BEBEBE;}
	.st35{fill:#BCBCBC;}
	.st36{fill:#BABABA;}
	.st37{fill:#B8B8B8;}
	.st38{fill:#B6B6B6;}
	.st39{fill:#B4B4B4;}
	.st40{fill:#B2B2B2;}
	.st41{fill:#B0B0AF;}
	.st42{fill:#AEAEAD;}
	.st43{fill:#ACACAB;}
	.st44{fill:#AAAAA9;}
	.st45{fill:#A8A8A7;}
	.st46{fill:#A6A6A5;}
	.st47{fill:#A4A4A3;}
	.st48{fill:#A2A2A1;}
	.st49{fill:#A0A09F;}
	.st50{fill:#9E9E9D;}
	.st51{fill:#9C9C9B;}
	.st52{fill:#9A9A99;}
	.st53{fill:#989897;}
	.st54{fill:#754D24;}
	.st55{fill:#B56F29;}
	.st56{fill:#89181B;}
	.st57{fill:#D18029;}
	.st58{fill:#1A1A1A;}
	.st59{fill:#F69220;}
	.st60{fill:#CBCBCA;}
	.st61{fill:#343433;}
	.st62{fill:#86AABD;}
	.st63{fill:#676767;}
	.st64{display:none;}
	.st65{display:inline;fill:#D18029;}
	.st66{display:inline;fill:#603A17;}
	.st67{display:inline;fill:#E48525;}
	.st68{display:inline;fill:#F69220;}
</style>
<g>
	<g>
		<path class="st0" d="M310.9,19.4C307.4,5.3,299.2,3.2,288.7,2c-16.4-1.8-89.9-1.9-101.6-0.4c-9.3,1.1-15.4,7.3-19.4,18.8
			c-3.3,9.5-10.8,24.9-11.8,32c-1.4,9.2,0.6,23,15,26.8c12.8,3.4,25.9,4.2,50.9,6.2c15.9,1.3,23.1,2.4,19.1,6.9
			c-5.4,6.1-28.3,15.5-23.3,16c16,1.7,34.1-0.7,45.8-3.9c8.1-2.2,16.2-6.2,21.5-11.6c12.2,1.5,11.3,2.1,14.8,2
			c11.3-0.1,17.2-6.8,18.9-16.5C320.6,67.2,313,28,310.9,19.4z"/>
		<path class="st1" d="M311.8,19c-3.4-13.9-12.4-16.5-22.7-17.6C273-0.3,201-0.4,189.5,1c-9.1,1.1-15.1,7.2-19.1,18.6
			c-3.3,9.3-10.5,24.3-11.6,31.2c-1.3,9,0.6,22.7,14.7,26.4c12.6,3.3,25.4,4.1,50,6.1c15.6,1.2,22.7,2.4,18.8,6.8
			c-5.3,6-27.8,15.5-22.9,15.8c14.5,1,34.5-1,45.8-4.5c8.1-2.5,15.1-5.6,20.3-10.9c12,1.5,11,2,14.4,2c11.1-0.1,15.9-7.3,17.8-16.8
			C320,63.9,313.9,27.5,311.8,19z"/>
	</g>
	<path class="st2" d="M307,21.7c-3.2-13.1-11.6-15.5-21.4-16.6c-15.1-1.6-82.2-1.7-93-0.3c-8.6,1.1-14.2,6.8-17.9,17.4
		c-3.1,8.8-9.6,21.4-10.6,28c-1.3,8.5,0.5,21.3,13.8,24.9c11.8,3.1,34.2,4.9,57.3,6.8c14.6,1.2,17.7,2.8,14.1,6.9
		c-5,5.6-25.2,14.7-19,14.2c10.9-0.8,22.2-2.1,33.9-5.8c6.5-2.1,14.1-5.3,19.1-10.3c11.3,1.4,9.7,1.9,12.9,1.8
		c10.4-0.1,14.8-6,16.6-15C314.9,62.6,308.9,29.7,307,21.7z"/>
</g>
<g>
	<path d="M193.5,31.4h-1.2c-0.2,0-0.5,0-0.8-0.1c-0.3,0-0.5-0.2-0.6-0.4c0-1.4,0-2.9,0.1-4.5l0.7-9.5c0-0.2,0.1-0.3,0.3-0.4
		s0.5-0.1,0.8-0.1s0.5,0.1,0.8,0.3c0.2,0.2,0.3,0.4,0.3,0.6c-0.1,0.5-0.3,1.8-0.6,3.8s-0.5,3.8-0.6,5.1s-0.1,2.5,0,3.6
		c0,0,0.2,0,0.4,0s0.9,0,1.9-0.1s1.7-0.1,2-0.1c0.7,0,1.1,0.3,1,0.8c0,0.4-0.2,0.7-0.7,0.9s-0.9,0.2-1.3,0.2c-0.4,0-0.8,0-1,0
		L193.5,31.4z"/>
	<path d="M206.2,22.3c0.7,0.5,1.1,1.1,1,1.8c0,0.7-0.4,1.3-1.2,2c-0.7,0.6-1.6,1-2.6,1.1c-0.1,0-0.2,0-0.2,0c-0.1,0-0.1,0-0.2,0
		c-0.1,0-0.2,0-0.2,0s-0.1,0-0.2,0c-0.1,0-0.2,0-0.2,0s-0.1,0-0.3,0c-0.1,0-0.2,0-0.2,0c0.1,1.2,0.3,2,0.6,2.4
		c0.4,0.4,0.8,0.6,1.1,0.6c0.8,0,1.5-0.2,2.2-0.8s1.2-0.9,1.5-0.9c0.1,0,0.3,0.1,0.5,0.4c0.2,0.2,0.4,0.5,0.3,0.7
		c0,0.2-0.2,0.5-0.5,0.8s-0.6,0.6-1.1,0.9c-0.4,0.3-0.9,0.6-1.6,0.8c-0.6,0.2-1.2,0.3-1.7,0.3s-1-0.2-1.3-0.4
		c-0.7-0.5-1.2-1.3-1.5-2.3c-0.3-1.1-0.4-2.2-0.4-3.3c0.1-1.2,0.4-2.2,0.9-3.1c0.6-1,1.6-1.5,3-1.4
		C204.7,21.5,205.4,21.8,206.2,22.3z M205.2,24c0-0.6-0.4-1-1.2-1c-0.6,0-1.1,0.3-1.5,0.9c-0.1,0.2-0.3,0.4-0.3,0.7
		c-0.1,0.3-0.1,0.5-0.2,0.8C204,25.6,205.1,25.1,205.2,24z"/>
	<path d="M213.3,16.9l-0.3,2.8c0,0.2,0,0.9,0,2.2c0.9,0.1,1.8,0.1,2.7,0.1c0.5,0.1,0.7,0.4,0.6,0.8c0,0.4-0.2,0.7-0.5,0.9
		s-0.6,0.2-0.9,0.2c-0.3,0-0.5,0-0.7,0s-0.4,0-0.6,0c-0.3,0-0.4,0-0.6,0c0,0.1,0,0.6,0,1.3s0,1.2,0,1.4c0,2.1,0.1,3.8,0.2,5.1
		c-0.1,0.3-0.2,0.5-0.5,0.7c-0.2,0.2-0.5,0.3-0.7,0.3c-0.3,0-0.5-0.2-0.6-0.6c-0.2-1.4-0.2-3-0.2-4.9s0-3,0-3.4c-0.2,0-0.6,0-1.1,0
		s-1-0.1-1.3-0.2c-0.4-0.1-0.5-0.3-0.5-0.7c0-0.8,0.5-1.1,1.4-1.1l1.1,0.1c0.2,0,0.3,0,0.4,0c0-1.5,0-2.3,0-2.4s0-0.3,0.1-0.7
		c0-0.4,0.1-0.9,0.2-1.6c0.1-0.3,0.2-0.5,0.5-0.6c0.2-0.2,0.5-0.2,0.7-0.2C213,16.2,213.2,16.5,213.3,16.9z"/>
	<path d="M218.2,16.2c0.1-0.2,0.2-0.4,0.3-0.5c0.2-0.1,0.3-0.2,0.5-0.2c0.3,0,0.6,0.3,0.8,0.7c0,0.7-0.2,1.3-0.4,1.9
		c-0.4,1.2-0.9,1.7-1.5,1.7c-0.5,0-0.7-0.3-0.7-0.8c0-0.2,0-0.3,0.1-0.5c0.3-0.3,0.5-0.6,0.6-1C218.1,17.2,218.2,16.7,218.2,16.2z"
		/>
	<path d="M225.7,22.5c0.6,0,1.1,0.2,1.7,0.4c1.1,0.4,1.6,0.9,1.6,1.5c0,0.3-0.1,0.5-0.4,0.6c-0.2,0.1-0.5,0.2-0.8,0.2
		c-0.1,0-0.4-0.2-1-0.5s-1.1-0.5-1.5-0.5s-0.7,0.1-1.1,0.3c-0.3,0.2-0.5,0.5-0.5,0.8s0.1,0.6,0.2,0.9c0.2,0.3,0.4,0.4,0.7,0.6
		c0.3,0.1,0.6,0.2,1,0.3c1,0.3,1.7,0.5,2,0.7c0.7,0.4,1,1,0.9,2c-0.1,0.9-0.5,1.8-1.2,2.4c-0.8,0.7-1.5,1-2.3,1s-1.5-0.2-2-0.4
		c-0.9-0.4-1.4-0.9-1.3-1.4c0-0.5,0.4-0.8,1-0.7c0.3,0,0.7,0.2,1.3,0.5c0.5,0.3,1,0.5,1.3,0.5c0.4,0,0.7-0.2,1-0.6s0.5-0.9,0.5-1.3
		c0-0.1,0-0.2,0-0.4c-0.4-0.4-1.2-0.8-2.4-1c-0.4-0.1-0.8-0.2-1.2-0.4c-0.9-0.4-1.3-1.2-1.2-2.5c0.1-0.9,0.4-1.6,1.1-2.1
		C223.9,22.7,224.8,22.5,225.7,22.5z"/>
	<path d="M239.7,23.3c0.6,0,1.1,0.2,1.7,0.4c1.1,0.4,1.6,0.9,1.6,1.5c0,0.3-0.1,0.5-0.4,0.6c-0.2,0.1-0.5,0.2-0.8,0.2
		c-0.1,0-0.4-0.2-1-0.5s-1.1-0.5-1.5-0.5s-0.7,0.1-1.1,0.3c-0.3,0.2-0.5,0.5-0.5,0.8s0.1,0.6,0.2,0.9c0.2,0.3,0.4,0.4,0.7,0.6
		c0.3,0.1,0.6,0.2,1,0.3c1,0.3,1.7,0.5,2,0.7c0.7,0.4,1,1,0.9,2c-0.1,0.9-0.5,1.8-1.2,2.4c-0.8,0.7-1.5,1-2.3,1s-1.5-0.2-2-0.4
		c-0.9-0.4-1.4-0.9-1.3-1.4c0-0.5,0.4-0.8,1-0.7c0.3,0,0.7,0.2,1.3,0.5c0.5,0.3,1,0.5,1.3,0.5c0.4,0,0.7-0.2,1-0.6s0.5-0.9,0.5-1.3
		c0-0.1,0-0.2,0-0.4c-0.4-0.4-1.2-0.8-2.4-1c-0.4-0.1-0.8-0.2-1.2-0.4c-0.9-0.4-1.3-1.2-1.2-2.5c0.1-0.9,0.4-1.6,1.1-2.1
		C237.9,23.5,238.7,23.2,239.7,23.3z"/>
	<path d="M246,33.6l-0.4,6.8c-0.1,0.3-0.3,0.5-0.5,0.7s-0.5,0.3-0.7,0.3c-0.4,0-0.6-0.3-0.5-0.8l0.5-7.8l0.4-8
		c0.1-0.4,0.2-0.6,0.3-0.8s0.3-0.3,0.6-0.2c0.3,0,0.5,0.1,0.6,0.2s0.2,0.5,0.2,1.1c0.1-0.3,0.3-0.5,0.7-0.8s1-0.4,1.8-0.3
		c0.8,0,1.4,0.2,2,0.6s1,0.8,1.3,1.4c0.5,1.1,0.8,2.4,0.7,3.9s-0.6,2.7-1.5,3.5s-2.2,1.2-3.7,1.1c-0.5,0-1-0.2-1.4-0.6
		C246.1,33.7,246,33.6,246,33.6z M248.5,25.6c-0.6,0-1.1,0.3-1.5,0.7s-0.6,0.8-0.6,1.2l-0.2,4.2c0,0,0.1,0.1,0.3,0.2
		c0.4,0.4,0.9,0.6,1.4,0.7c2.1,0.1,3.2-0.9,3.3-3.1c0.1-1.9-0.3-3-1.2-3.6C249.5,25.8,249,25.7,248.5,25.6z"/>
	<path d="M260.6,25.3c0.7,0.5,1.1,1.1,1,1.8c0,0.7-0.4,1.3-1.2,2c-0.7,0.6-1.6,1-2.6,1.1c-0.1,0-0.2,0-0.2,0c-0.1,0-0.1,0-0.2,0
		s-0.2,0-0.2,0c-0.1,0-0.1,0-0.2,0s-0.2,0-0.2,0s-0.1,0-0.3,0c-0.1,0-0.2,0-0.2,0c0.1,1.2,0.3,2,0.6,2.4c0.4,0.4,0.8,0.6,1.1,0.6
		c0.8,0,1.5-0.2,2.2-0.8c0.7-0.6,1.2-0.9,1.5-0.9c0.1,0,0.3,0.1,0.5,0.4s0.4,0.5,0.3,0.7c0,0.2-0.2,0.5-0.5,0.8s-0.6,0.6-1.1,0.9
		c-0.4,0.3-0.9,0.6-1.6,0.8c-0.6,0.2-1.2,0.3-1.7,0.3s-1-0.2-1.3-0.4c-0.7-0.5-1.2-1.3-1.5-2.3c-0.3-1.1-0.4-2.2-0.4-3.3
		c0.1-1.2,0.4-2.2,0.9-3.1c0.6-1,1.6-1.5,3-1.4C259.1,24.5,259.9,24.8,260.6,25.3z M259.6,27.1c0-0.6-0.4-1-1.2-1
		c-0.6,0-1.1,0.3-1.5,0.9c-0.1,0.2-0.3,0.4-0.3,0.7c-0.1,0.3-0.1,0.5-0.2,0.8C258.5,28.6,259.5,28.1,259.6,27.1z"/>
	<path d="M265.2,27.2c-0.2,3.7,0.1,5.9,0.9,6.5l0,0c0.5-0.1,1-0.3,1.5-0.6s0.8-0.6,0.9-0.8c-0.2-1.4-0.2-3.3-0.1-5.8
		s0.4-4.6,0.9-6.2c0.1-0.3,0.3-0.6,0.7-0.7c0.1-0.1,0.3-0.1,0.4-0.1c0.4,0,0.7,0.3,0.7,0.8c-0.4,2.2-0.7,3.8-0.8,4.6
		s-0.2,1.8-0.3,2.8s-0.1,1.9-0.1,2.6s0.1,1.4,0.3,2.2c0.2,0.8,0.4,1.3,0.7,1.6h0.1c0.2,0,0.5-0.2,0.7-0.5s0.5-0.5,0.7-0.7
		s0.4-0.3,0.6-0.3c0.5,0,0.7,0.5,0.6,1.3c0,0.5-0.3,0.9-0.9,1.4s-1.3,0.7-2,0.6c-0.9,0-1.5-0.5-1.8-1.5c-0.3,0.4-0.7,0.6-1.3,0.9
		c-0.6,0.2-1.1,0.3-1.5,0.3s-0.7-0.1-0.9-0.2c-0.2-0.1-0.4-0.2-0.5-0.3s-0.3-0.3-0.4-0.5c-0.2-0.4-0.4-0.8-0.5-1.1
		c-0.3-1.2-0.4-2.4-0.4-3.5s0-2.7,0.1-4.7s0.4-3.7,0.8-5.3c0.1-0.2,0.2-0.4,0.4-0.6c0.2-0.2,0.5-0.2,0.7-0.2c0.4,0,0.6,0.3,0.7,0.8
		c-0.4,2.1-0.6,3.6-0.8,4.5C265.4,25.2,265.3,26.2,265.2,27.2z"/>
	<path d="M282.1,27.3l-0.1,1.5l-0.3,5.1c0,0.7-0.1,1.2-0.1,1.6c-0.1,0.3-0.2,0.5-0.4,0.7s-0.4,0.3-0.7,0.3s-0.5-0.2-0.6-0.6
		c0-0.4,0-1,0-1.7s0-1.6,0-2.6c0-1,0-2,0.1-3s0.1-1.9,0.2-2.6c0-0.3,0.2-0.4,0.6-0.4C281.7,25.5,282.1,26.1,282.1,27.3z M280.5,21.4
		c0.2-0.2,0.4-0.3,0.5-0.3s0.2,0,0.3,0c0.7,0.2,1.1,0.4,1.2,0.8c0.1,0.2,0.1,0.4,0.1,0.7s-0.2,0.6-0.4,1s-0.6,0.5-0.9,0.5
		s-0.6-0.2-0.8-0.5s-0.3-0.7-0.3-1.2C280.2,21.8,280.3,21.5,280.5,21.4z"/>
	<path d="M290.9,36.1l0.1-1.2c0-0.2,0-0.4,0-0.7s0-0.6,0-1s0-0.8,0-1.2c0-0.4,0-0.8-0.1-1.1c-0.1-0.7-0.2-1.3-0.4-1.8
		s-0.6-0.7-1-0.8c-0.4,0-0.7,0-1,0.2c-0.3,0.1-0.5,0.3-0.6,0.6c-0.4,0.6-0.6,1.2-0.7,1.9c-0.1,0.7-0.2,1.4-0.2,2.2l-0.2,2.5
		c0,0.3-0.1,0.6-0.4,0.7c-0.2,0.2-0.5,0.2-0.8,0.2c-0.4,0-0.6-0.3-0.5-0.8c0.1-1.3,0.1-2.8,0.1-4.7c0-1.8,0.1-3.4,0.1-4.6
		c0.1-0.3,0.2-0.5,0.4-0.7s0.4-0.3,0.5-0.3c0.2,0,0.3,0,0.4,0.1c0.1,0,0.2,0.1,0.2,0.1c0.1,0.1,0.1,0.1,0.1,0.2s0.1,0.2,0.1,0.3
		s0,0.3,0,0.3c0,0.1,0,0.2,0,0.4s0,0.4,0,0.5c0.9-1,1.9-1.5,3.2-1.4c0.9,0,1.5,0.5,1.8,1.3c0.6,1.2,0.8,3,0.6,5.3l-0.1,2.1
		c0,0.6-0.1,1-0.2,1.1c-0.1,0.2-0.2,0.3-0.3,0.5c-0.2,0.3-0.5,0.4-0.9,0.4C291,36.9,290.9,36.6,290.9,36.1z"/>
	<path d="M178.4,47.9c0.6-0.3,1.2-0.4,1.9-0.4s1.3,0.4,1.9,1c1,1.2,1.5,2.7,1.4,4.7c-0.1,1-0.4,2.1-1,3.2c-0.3,0.5-0.7,0.9-1.2,1.3
		c-0.5,0.3-1,0.5-1.7,0.4s-1.2-0.2-1.8-0.6c-0.6-0.4-1-0.9-1.4-1.4c-0.7-1.2-1.1-2.3-1-3.3c0.1-1.4,0.6-2.6,1.4-3.7
		C177.3,48.6,177.8,48.2,178.4,47.9z M180.2,56.5c0.5-0.2,0.8-0.6,1.1-1.1s0.4-1.1,0.4-1.6c0-0.6,0-1.1,0-1.5
		c-0.1-0.4-0.1-0.9-0.3-1.3c-0.1-0.4-0.4-0.8-0.6-1.1c-0.3-0.3-0.6-0.5-1-0.6c-0.7,0.1-1.3,0.4-1.7,1.1c-0.5,0.6-0.7,1.3-0.8,1.9
		c0,0.7,0.2,1.5,0.7,2.5c0.2,0.5,0.6,0.8,1,1.2C179.3,56.3,179.7,56.5,180.2,56.5z"/>
	<path d="M189.4,43l-0.3,2.8c0,0.2,0,0.9,0,2.2c0.9,0.1,1.8,0.1,2.7,0.1c0.4,0.1,0.7,0.4,0.6,0.8c0,0.4-0.2,0.7-0.5,0.9
		S191.3,50,191,50s-0.5,0-0.7,0s-0.4,0-0.6,0s-0.4,0-0.6,0c0,0.1,0,0.6,0,1.3s0,1.2,0,1.4c0,2.1,0.1,3.8,0.2,5.1
		c-0.1,0.3-0.2,0.5-0.5,0.7c-0.2,0.2-0.5,0.3-0.7,0.3c-0.3,0-0.5-0.2-0.6-0.6c-0.2-1.4-0.2-3-0.2-4.9s0-3,0-3.4c-0.2,0-0.6,0-1.1,0
		s-1-0.1-1.3-0.2c-0.4-0.1-0.5-0.3-0.5-0.7c0-0.8,0.5-1.1,1.4-1.1l1.1,0.1c0.2,0,0.3,0,0.4,0c0-1.5,0-2.3,0-2.4c0-0.1,0-0.3,0.1-0.7
		c0-0.4,0.1-0.9,0.2-1.6c0.1-0.3,0.2-0.5,0.5-0.6c0.2-0.2,0.5-0.2,0.7-0.2C189.2,42.3,189.4,42.6,189.4,43z"/>
	<path d="M201,53.7c-0.1,0.9-0.1,1.9-0.3,2.8c-0.1,0.9-0.2,1.5-0.3,1.8c0,0.3-0.2,0.5-0.5,0.7s-0.5,0.3-0.7,0.2
		c-0.4,0-0.6-0.2-0.6-0.6v-0.1l0.4-4l0.1-1.2c0.1-1.4-0.2-2.3-0.8-2.7c-0.3-0.2-0.6-0.3-1-0.3c-1.2-0.1-1.9,0.4-1.9,1.4
		c-0.1,1.1-0.1,2.1-0.1,2.9s0,1.5,0,2c0,0.6-0.1,1.1-0.1,1.6l-0.1-0.1c-0.1,0.2-0.2,0.4-0.5,0.6c-0.2,0.2-0.5,0.2-0.7,0.2
		c-0.4,0-0.6-0.2-0.7-0.6h-0.1c0.1-2.3,0.2-4.8,0.1-7.5c0-2.7,0-5.2,0.1-7.4c0.1-0.3,0.3-0.6,0.7-0.8c0.1-0.1,0.3-0.1,0.5-0.1
		s0.3,0.1,0.5,0.3c0.1,0.2,0.2,0.5,0.2,0.9s0,0.9,0,1.3c0,0.4,0,1-0.1,1.8c0,0.7,0,1.4,0,2c0.8-0.4,1.5-0.5,2.3-0.5
		c0.7,0,1.3,0.2,1.7,0.4c0.8,0.4,1.3,1.1,1.5,2.1C200.9,51.8,201,52.8,201,53.7z"/>
	<path d="M208.8,49.8c0.7,0.5,1.1,1.1,1,1.8c0,0.7-0.4,1.3-1.2,2c-0.7,0.6-1.6,1-2.6,1.1c-0.1,0-0.2,0-0.2,0c-0.1,0-0.1,0-0.2,0
		c-0.1,0-0.2,0-0.2,0c-0.1,0-0.1,0-0.2,0c-0.1,0-0.2,0-0.2,0s-0.1,0-0.2,0c-0.1,0-0.2,0-0.3,0c0.1,1.2,0.3,2,0.6,2.4
		c0.4,0.4,0.8,0.6,1.1,0.6c0.8,0,1.5-0.2,2.2-0.8s1.2-0.9,1.5-0.9c0.1,0,0.3,0.1,0.5,0.4c0.2,0.2,0.4,0.5,0.3,0.7
		c0,0.2-0.2,0.5-0.5,0.8s-0.7,0.6-1.1,0.9c-0.4,0.3-0.9,0.6-1.6,0.8c-0.6,0.2-1.2,0.3-1.7,0.3s-1-0.2-1.3-0.4
		c-0.7-0.5-1.2-1.3-1.5-2.3c-0.3-1.1-0.4-2.2-0.4-3.3c0.1-1.2,0.4-2.2,0.9-3.1c0.6-1,1.6-1.5,3-1.4
		C207.3,49.1,208.1,49.3,208.8,49.8z M207.8,51.6c0-0.6-0.4-1-1.2-1c-0.6,0-1.1,0.3-1.5,0.9c-0.1,0.2-0.3,0.4-0.3,0.7
		c-0.1,0.3-0.1,0.5-0.2,0.8C206.7,53.1,207.8,52.7,207.8,51.6z"/>
	<path d="M212.3,57.1l0.1-0.7c0.1-0.9,0-2,0-3.1c-0.1-1.1-0.2-2-0.3-2.5c-0.1-0.6-0.2-0.9-0.2-1.1c0-0.1,0.1-0.3,0.3-0.4
		c0.2-0.1,0.4-0.2,0.7-0.2s0.5,0.1,0.6,0.3s0.2,0.4,0.3,0.6c0,0.2,0,0.5,0.1,0.8c0,0.3,0,0.6,0,0.7c0.4-0.9,1.1-1.5,2.1-1.9
		c0.5-0.2,1-0.2,1.6-0.2c1.2,0.1,1.9,0.4,1.8,1.1c0,0.4-0.2,0.7-0.7,0.9c-0.2,0.1-0.3,0.1-0.5,0.1l-0.7-0.1c-1.9-0.1-3,1.7-3.2,5.5
		l-0.1,2.1l0,0c-0.1,0.3-0.2,0.5-0.5,0.7c-0.2,0.2-0.5,0.3-0.7,0.3c-0.3,0-0.5-0.3-0.6-0.9S212.3,57.9,212.3,57.1z"/>
	<path d="M226.1,55c0-0.8,0.1-1.5,0.1-2.1s0-1.1,0-1.4c0-0.4,0.1-1.3,0.1-2.9c0.1-1.6,0.2-2.6,0.2-3s0.1-0.7,0.3-0.8
		c0.2-0.2,0.4-0.3,0.8-0.2c0.5,0,0.8,0.3,0.9,0.8c-0.2,1.4-0.4,4.1-0.7,8.1c-0.2,3,0.1,4.8,0.7,5.4c0.2,0,0.4-0.2,0.6-0.4
		c0.2-0.2,0.4-0.5,0.6-0.7s0.4-0.3,0.6-0.3s0.4,0.1,0.6,0.4c0.1,0.2,0.2,0.6,0.2,1c0,0.5-0.3,0.9-0.8,1.4s-1.1,0.7-1.8,0.6
		c-1.3-0.1-2-1.2-2.3-3.5C226.1,56.6,226.1,55.8,226.1,55z"/>
	<path d="M240.1,52.9l-0.1,1.6c0,0.6-0.1,1.4-0.3,2.3c0,1.6,0.1,3.1,0.3,4.4c-0.1,0.2-0.2,0.3-0.4,0.4c-0.2,0.1-0.4,0.1-0.6,0.1
		s-0.4-0.1-0.5-0.1c-0.1-0.1-0.2-0.2-0.3-0.3c0-0.1-0.1-0.2-0.1-0.3s0-0.2,0-0.4s0-0.3,0-0.3c-0.8,0.7-1.7,1-2.9,1
		c-1.1-0.1-1.9-0.5-2.4-1.4s-0.6-2.1-0.5-3.7c0.2-2.7,1-4.4,2.6-5.1c0.5-0.2,1.1-0.3,1.7-0.2c0.6,0,1.2,0.2,1.8,0.4
		c0.2-0.3,0.5-0.4,0.8-0.4c0.6,0,0.9,0.5,0.9,1.5C240.1,52.5,240.1,52.7,240.1,52.9z M237.6,58.2c0.3-0.8,0.5-1.7,0.6-2.7
		s0-1.7-0.2-2.1c-0.2-0.5-0.6-0.7-1.2-0.7c-0.2,0-0.6,0-0.9,0c-0.4,0-0.8,0.3-1.1,1c-0.4,0.6-0.6,1.1-0.6,1.6l-0.1,0.9
		c-0.1,1.6,0.2,2.6,0.8,3.1c0.2,0.1,0.4,0.2,0.8,0.2c0.3,0,0.7-0.1,1.1-0.4C237.1,58.9,237.4,58.6,237.6,58.2z"/>
	<path d="M248.8,61.2l0.1-1.2c0-0.2,0-0.4,0-0.7s0-0.6,0-1s0-0.8,0-1.2s0-0.8-0.1-1.1c-0.1-0.7-0.2-1.3-0.4-1.8s-0.6-0.7-1-0.8
		c-0.4,0-0.7,0-1,0.2c-0.3,0.1-0.5,0.3-0.7,0.6c-0.4,0.6-0.6,1.2-0.7,1.9c-0.1,0.7-0.2,1.4-0.2,2.2l-0.2,2.5c0,0.3-0.1,0.6-0.4,0.7
		c-0.2,0.2-0.5,0.2-0.8,0.2c-0.4,0-0.6-0.3-0.5-0.8c0.1-1.3,0.1-2.8,0.1-4.7c0-1.8,0.1-3.4,0.1-4.6c0.1-0.3,0.2-0.5,0.4-0.7
		s0.4-0.3,0.5-0.3c0.2,0,0.3,0,0.4,0.1c0.1,0,0.2,0.1,0.2,0.1c0.1,0.1,0.1,0.1,0.1,0.2c0,0.1,0.1,0.2,0.1,0.3s0,0.3,0,0.3
		c0,0.1,0,0.2,0,0.4s0,0.4,0,0.5c0.9-1,1.9-1.5,3.2-1.4c0.8,0,1.5,0.5,1.8,1.3c0.6,1.2,0.8,3,0.6,5.3l-0.1,2.1c0,0.6-0.1,1-0.2,1.1
		c-0.1,0.2-0.2,0.3-0.3,0.5c-0.2,0.3-0.5,0.4-0.9,0.4C248.9,61.9,248.7,61.7,248.8,61.2z"/>
	<path d="M260.6,64l-0.1,1.8c0,0.8-0.1,1.3-0.3,1.7c-0.4,0.8-0.8,1.3-1.3,1.6c-0.7,0.4-1.5,0.5-2.6,0.5s-2-0.4-2.9-1
		c-0.5-0.3-0.7-0.6-0.7-0.9s0.1-0.6,0.3-0.7s0.4-0.2,0.7-0.2s0.7,0.2,1.4,0.6s1.3,0.6,1.8,0.6c1.1,0.1,1.7-0.8,1.8-2.5
		c0.1-1.7,0.1-3,0.1-3.8c-0.6,0.6-1.3,0.9-2.1,0.8s-1.5-0.3-2.1-0.9c-1.2-1-1.8-2.6-1.7-4.6s0.9-3.5,2.4-4.4
		c0.8-0.5,1.6-0.7,2.6-0.6c1.3,0.1,2.1,0.7,2.5,2c0.3,1,0.4,2.3,0.4,3.8c0,0.3,0,0.8-0.1,1.5c0,0.7-0.1,1.4-0.1,2c0,0.7,0,1.2,0,1.7
		C260.7,63.4,260.7,63.8,260.6,64z M259.1,58c0.2-2.9-0.5-4.3-1.9-4.4c-0.7,0-1.2,0.3-1.7,0.9c-0.5,0.6-0.7,1.4-0.8,2.4
		s0.1,1.7,0.5,2.4s1,1,1.8,1c0.9,0,1.4-0.1,1.6-0.5C258.9,59.3,259,58.8,259.1,58z"/>
	<path d="M268.4,61.4c-1.1,1-2.2,1.5-3.3,1.5c-0.5,0-1-0.2-1.3-0.7c-0.4-0.4-0.6-0.9-0.8-1.6c-0.3-1.3-0.5-2.5-0.4-3.6
		s0.2-2.5,0.4-4c0.1-0.3,0.2-0.5,0.4-0.6c0.2-0.2,0.4-0.2,0.6-0.2c0.4,0,0.7,0.3,0.7,0.7c-0.1,1-0.2,2-0.3,3s-0.1,1.7-0.1,2.1
		c0,1.1,0.3,2.2,0.9,3.4c0.6-0.1,1.2-0.3,1.7-0.7s1-0.8,1.3-1.3c-0.1-2.2,0-4.1,0-5.6c0-0.3,0.1-0.6,0.4-0.8
		c0.2-0.2,0.5-0.3,0.8-0.3s0.5,0.2,0.7,0.7c0,0.7-0.1,2.5-0.1,5.2c0,0.4,0.1,1.1,0.2,2.1s0.2,1.7,0.1,1.9c0,0.2-0.1,0.5-0.4,0.7
		c-0.2,0.2-0.5,0.3-0.8,0.3s-0.5-0.2-0.6-0.6L268.4,61.4z"/>
	<path d="M280.1,55.1l-0.1,1.6c0,0.6-0.1,1.4-0.3,2.3c0,1.6,0.1,3.1,0.3,4.4c-0.1,0.2-0.2,0.3-0.4,0.4c-0.2,0.1-0.4,0.1-0.6,0.1
		s-0.4-0.1-0.5-0.1c-0.1-0.1-0.2-0.2-0.3-0.3c0-0.1-0.1-0.2-0.1-0.3s0-0.2,0-0.4s0-0.3,0-0.3c-0.8,0.7-1.7,1-2.9,1s-1.9-0.5-2.4-1.4
		c-0.4-0.9-0.6-2.1-0.5-3.7c0.2-2.7,1-4.4,2.6-5.1c0.5-0.2,1.1-0.3,1.7-0.2c0.6,0,1.2,0.2,1.8,0.4c0.2-0.3,0.5-0.4,0.8-0.4
		c0.6,0,0.9,0.5,0.9,1.5C280.1,54.7,280.1,54.9,280.1,55.1z M277.5,60.4c0.3-0.8,0.5-1.7,0.6-2.7s0-1.7-0.2-2.1
		c-0.2-0.5-0.6-0.7-1.2-0.7c-0.2,0-0.6,0-0.9,0c-0.4,0-0.8,0.3-1.1,1c-0.4,0.6-0.6,1.1-0.6,1.6l-0.1,0.9c-0.1,1.6,0.2,2.6,0.8,3.1
		c0.2,0.1,0.4,0.2,0.8,0.2c0.3,0,0.7-0.1,1.1-0.4C277.1,61.1,277.4,60.8,277.5,60.4z"/>
	<path d="M290.3,65.7l-0.1,1.8c0,0.8-0.1,1.3-0.3,1.7c-0.4,0.8-0.8,1.3-1.3,1.6c-0.7,0.4-1.5,0.5-2.6,0.5s-2-0.4-2.9-1
		c-0.5-0.3-0.7-0.6-0.7-0.9s0.1-0.6,0.3-0.7s0.4-0.2,0.7-0.2s0.7,0.2,1.4,0.6c0.7,0.4,1.3,0.6,1.8,0.6c1.1,0.1,1.7-0.8,1.8-2.5
		s0.1-3,0.1-3.8c-0.6,0.6-1.3,0.9-2.1,0.8s-1.5-0.3-2.1-0.9c-1.2-1-1.8-2.6-1.7-4.6s0.9-3.5,2.4-4.4c0.8-0.5,1.6-0.7,2.6-0.6
		c1.3,0.1,2.1,0.7,2.5,2c0.3,1,0.4,2.3,0.4,3.8c0,0.3,0,0.8-0.1,1.5c0,0.7-0.1,1.4-0.1,2c0,0.7,0,1.2,0,1.7
		C290.4,65,290.4,65.4,290.3,65.7z M288.8,59.7c0.2-2.9-0.5-4.3-1.9-4.4c-0.7,0-1.2,0.3-1.7,0.9c-0.5,0.6-0.7,1.4-0.8,2.4
		s0.1,1.7,0.5,2.4s1,1,1.8,1c0.9,0,1.4-0.1,1.6-0.5C288.6,61,288.7,60.4,288.8,59.7z"/>
	<path d="M298.9,54.8c0.7,0.5,1.1,1.1,1,1.8c0,0.7-0.4,1.3-1.2,2c-0.7,0.6-1.6,1-2.6,1.1c-0.1,0-0.2,0-0.2,0c-0.1,0-0.1,0-0.2,0
		s-0.2,0-0.2,0s-0.1,0-0.2,0s-0.2,0-0.2,0s-0.1,0-0.3,0c-0.1,0-0.2,0-0.2,0c0.1,1.2,0.3,2,0.6,2.4c0.4,0.4,0.8,0.6,1.1,0.6
		c0.8,0,1.5-0.2,2.2-0.8s1.2-0.9,1.5-0.9c0.1,0,0.3,0.1,0.5,0.4c0.2,0.2,0.4,0.5,0.3,0.7c0,0.2-0.2,0.5-0.5,0.8s-0.7,0.6-1.1,0.9
		c-0.4,0.3-0.9,0.6-1.6,0.8c-0.6,0.2-1.2,0.3-1.7,0.3s-1-0.2-1.3-0.4c-0.7-0.5-1.2-1.3-1.5-2.3c-0.3-1.1-0.4-2.2-0.4-3.3
		c0.1-1.2,0.4-2.2,0.9-3.1c0.6-1,1.6-1.5,3-1.4C297.4,54.1,298.2,54.3,298.9,54.8z M297.9,56.6c0-0.6-0.4-1-1.2-1
		c-0.6,0-1.1,0.3-1.5,0.9c-0.1,0.2-0.3,0.4-0.3,0.7c-0.1,0.3-0.1,0.5-0.2,0.8C296.8,58.1,297.9,57.7,297.9,56.6z"/>
	<path d="M302.3,63c0-0.2,0.1-0.5,0.3-0.7s0.5-0.3,0.9-0.3s0.6,0.1,0.8,0.2c0.2,0.1,0.2,0.4,0.2,0.9s-0.2,0.8-0.4,0.9
		c-0.2,0.1-0.5,0.2-0.7,0.2c-0.3,0-0.6-0.2-0.8-0.5C302.4,63.5,302.3,63.2,302.3,63z M305,49.3l-0.6,7.8c0,0.7-0.1,1.3-0.1,1.6
		c-0.1,0.2-0.2,0.4-0.4,0.5s-0.4,0.2-0.6,0.2s-0.4-0.2-0.5-0.5c0-3.8,0-7.1,0.2-9.7c0.1-0.2,0.3-0.3,0.5-0.4
		c0.3-0.1,0.5-0.1,0.6-0.1C304.7,48.7,304.9,48.9,305,49.3z"/>
</g>
<g>
	<ellipse class="st1" cx="98.6" cy="219.3" rx="71.7" ry="12.1"/>
	<ellipse class="st3" cx="98.6" cy="219.3" rx="70.6" ry="11.9"/>
	<ellipse class="st4" cx="98.6" cy="219.3" rx="69.5" ry="11.7"/>
	<ellipse class="st5" cx="98.6" cy="219.3" rx="68.4" ry="11.6"/>
	<ellipse class="st6" cx="98.6" cy="219.3" rx="67.3" ry="11.4"/>
	<ellipse class="st7" cx="98.6" cy="219.3" rx="66.2" ry="11.2"/>
	<ellipse class="st8" cx="98.6" cy="219.3" rx="65" ry="11"/>
	<ellipse class="st9" cx="98.6" cy="219.3" rx="63.9" ry="10.8"/>
	<ellipse class="st10" cx="98.6" cy="219.3" rx="62.8" ry="10.6"/>
	<ellipse class="st11" cx="98.6" cy="219.3" rx="61.7" ry="10.4"/>
	<ellipse class="st12" cx="98.6" cy="219.3" rx="60.6" ry="10.2"/>
	<ellipse class="st13" cx="98.6" cy="219.3" rx="59.5" ry="10.1"/>
	<ellipse class="st14" cx="98.6" cy="219.3" rx="58.4" ry="9.9"/>
	<ellipse class="st15" cx="98.6" cy="219.3" rx="57.3" ry="9.7"/>
	<ellipse class="st16" cx="98.6" cy="219.3" rx="56.1" ry="9.5"/>
	<ellipse class="st17" cx="98.6" cy="219.3" rx="55" ry="9.3"/>
	<ellipse class="st18" cx="98.6" cy="219.3" rx="53.9" ry="9.1"/>
	<ellipse class="st19" cx="98.6" cy="219.3" rx="52.8" ry="8.9"/>
	<ellipse class="st20" cx="98.6" cy="219.3" rx="51.7" ry="8.7"/>
	<ellipse class="st21" cx="98.6" cy="219.3" rx="50.6" ry="8.5"/>
	<ellipse class="st22" cx="98.6" cy="219.3" rx="49.5" ry="8.4"/>
	<ellipse class="st23" cx="98.6" cy="219.3" rx="48.4" ry="8.2"/>
	<ellipse class="st24" cx="98.6" cy="219.3" rx="47.2" ry="8"/>
	<ellipse class="st25" cx="98.6" cy="219.3" rx="46.1" ry="7.8"/>
	<ellipse class="st26" cx="98.6" cy="219.3" rx="45" ry="7.6"/>
	<ellipse class="st27" cx="98.6" cy="219.3" rx="43.9" ry="7.4"/>
	<ellipse class="st28" cx="98.6" cy="219.3" rx="42.8" ry="7.2"/>
	<ellipse class="st29" cx="98.6" cy="219.3" rx="41.7" ry="7"/>
	<ellipse class="st30" cx="98.6" cy="219.3" rx="40.6" ry="6.9"/>
	<ellipse class="st31" cx="98.6" cy="219.3" rx="39.5" ry="6.7"/>
	<ellipse class="st32" cx="98.6" cy="219.3" rx="38.3" ry="6.5"/>
	<ellipse class="st33" cx="98.6" cy="219.3" rx="37.2" ry="6.3"/>
	<ellipse class="st34" cx="98.6" cy="219.3" rx="36.1" ry="6.1"/>
	<ellipse class="st35" cx="98.6" cy="219.3" rx="35" ry="5.9"/>
	<ellipse class="st36" cx="98.6" cy="219.3" rx="33.9" ry="5.7"/>
	<ellipse class="st37" cx="98.6" cy="219.3" rx="32.8" ry="5.5"/>
	<ellipse class="st38" cx="98.6" cy="219.3" rx="31.7" ry="5.4"/>
	<ellipse class="st39" cx="98.6" cy="219.3" rx="30.6" ry="5.2"/>
	<ellipse class="st40" cx="98.6" cy="219.3" rx="29.4" ry="5"/>
	<ellipse class="st41" cx="98.6" cy="219.3" rx="28.3" ry="4.8"/>
	<ellipse class="st42" cx="98.6" cy="219.3" rx="27.2" ry="4.6"/>
	<ellipse class="st43" cx="98.6" cy="219.3" rx="26.1" ry="4.4"/>
	<ellipse class="st44" cx="98.6" cy="219.3" rx="25" ry="4.2"/>
	<ellipse class="st45" cx="98.6" cy="219.3" rx="23.9" ry="4"/>
	<ellipse class="st46" cx="98.6" cy="219.3" rx="22.8" ry="3.8"/>
	<ellipse class="st47" cx="98.6" cy="219.3" rx="21.7" ry="3.7"/>
	<ellipse class="st48" cx="98.6" cy="219.3" rx="20.5" ry="3.5"/>
	<ellipse class="st49" cx="98.6" cy="219.3" rx="19.4" ry="3.3"/>
	<ellipse class="st50" cx="98.6" cy="219.3" rx="18.3" ry="3.1"/>
	<ellipse class="st51" cx="98.6" cy="219.3" rx="17.2" ry="2.9"/>
	<ellipse class="st52" cx="98.6" cy="219.3" rx="16.1" ry="2.7"/>
	<ellipse class="st53" cx="98.6" cy="219.3" rx="15" ry="2.5"/>
</g>
<path class="st54" d="M81.3,176.7c0,0-1.4,11-3.3,15.3s-6,9.2-6.3,11.1c-0.2,1.5-0.2,4,2.2,4.3c2.9,0.4,5.4-1.9,5.4-1.9
	s1.4,2.5,4.3,2.5c1.9,0,2.3-2.3,2.3-2.3s0.8,2.1,3.4,2.1s2.9-2,2.9-2s1.1,1.5,3,0.4c1.8-1,2-4.8,0.2-8s-4.9-4.8-8.1-4.1
	c-3.6,0.8-5.5,5.9-8.2,5.5c-1.2-0.2,3.9-7.1,4.8-10c0.8-2.5,1.8-11.7,1.8-11.7L81.3,176.7z"/>
<path class="st54" d="M117,177c0,0,0.7,9.3-0.7,14.3c-1.3,4.7-4.3,7.9-5.5,10.2c-0.8,1.4-1.2,4.1,1.3,4.4c3.1,0.4,6.4-0.8,6.4-0.8
	s1.5,2.6,4.5,2.6c2,0,2.5-2.4,2.5-2.4s0.8,2.2,3.6,2.2c2.7,0,3-2.1,3-2.1s1.2,1.5,3.2,0.4c1.9-1.1,2.6-3.9,0.8-7.3
	c-1.9-3.4-4.9-5.7-8.3-4.9c-3.8,0.9-6.6,5.7-9.5,5.2c-1.3-0.2,2.4-5.3,3.2-9.2c0.5-2.8,0-11.2,0-11.2L117,177z"/>
<path class="st55" d="M63.4,183.7c0,0-1.7,13.3-4,18.4c-2.3,5.2-7.3,11.1-7.6,13.4c-0.2,1.8-0.2,4.8,2.6,5.2
	c3.5,0.5,6.5-2.3,6.5-2.3s1.7,3,5.1,3c2.3,0,2.8-2.8,2.8-2.8s1,2.5,4.1,2.5s3.5-2.4,3.5-2.4s1.3,1.8,3.6,0.5
	c2.2-1.2,2.4-5.8,0.3-9.7s-6-5.9-9.8-5c-4.4,1-6.6,7.2-10,6.6c-1.5-0.2,4.7-8.6,5.7-12.1c1-3.1,2.2-14.1,2.2-14.1L63.4,183.7z"/>
<path class="st54" d="M73.1,209.2c0,0,3.2,2.4,3.9,5.4c0.6,2.5,0,4.6,0,4.6l-0.4-0.4c0,0,0.5-2.9-0.3-4.9
	C75.4,211.8,73.1,209.2,73.1,209.2z"/>
<path class="st54" d="M69.4,219.3c0,0,0.2-2.8-0.3-4.2s-2.4-2.7-2.4-2.7s1.5,1.8,1.8,3.1c0.4,1.3,0.5,3.2,0.5,3.2L69.4,219.3z"/>
<path class="st54" d="M61.6,214.5c0,0,0.3,1.3,0.2,2.5c0,0.8-0.3,2.1-0.3,2.1l-0.5-0.7c0,0,0.3-0.9,0.4-1.6
	C61.5,216.1,61.6,214.5,61.6,214.5z"/>
<path class="st56" d="M155.4,168.6c0,0,0.5-1.2-2.1-3.3c-2.3-1.8-6.4-5.2-8.3-7.6c-2.4-3.1-5.6-12-5.6-12l-10.5-3.1l-1,21.2l25,7.3
	L155.4,168.6z"/>
<path class="st55" d="M101.6,184.2c0,0,0.8,11.2-0.8,17.3c-1.6,5.7-5.1,9.6-6.6,12.3c-0.9,1.7-1.4,4.9,1.6,5.3
	c3.8,0.5,7.7-0.9,7.7-0.9s1.8,3.2,5.4,3.2c2.4,0,3-2.9,3-2.9s1,2.7,4.3,2.7s3.7-2.6,3.7-2.6s1.4,1.9,3.8,0.5c2.3-1.3,3.2-4.7,1-8.8
	s-6-6.9-10-6c-4.6,1.1-8,6.8-11.5,6.3c-1.6-0.2,2.9-6.4,3.9-11.1c0.7-3.3,0-13.5,0-13.5L101.6,184.2z"/>
<path class="st54" d="M117.4,209.5c0,0,2.2,1.5,2.9,4.6c0.7,2.7,0,4.9,0,4.9l-0.4-0.4c0,0,0.6-3.1-0.4-5.2
	C118.6,211.3,117.4,209.5,117.4,209.5z"/>
<path class="st54" d="M112.3,219.2c0,0,0.2-3-0.3-4.5s-1.8-2.9-1.8-2.9s0.8,1.9,1.2,3.3c0.4,1.3,0.5,3.4,0.5,3.4L112.3,219.2z"/>
<path class="st54" d="M104.1,214.1c0,0,0.3,1.4,0.3,2.7c0,0.9-0.3,2.2-0.3,2.2l-0.6-0.8c0,0,0.4-0.9,0.4-1.7
	C104,215.8,104.1,214.1,104.1,214.1z"/>
<path class="st57" d="M126.3,92c0,0,8.7-11.2,12.7-8.2c3.9,3.1,1,11.8,1,11.8l-11.5,5.5l-3.6-5.2L126.3,92z"/>
<path class="st58" d="M40.3,135.2c0,0-7.7-10.3-12.6-27.6c-4.1-14.4-2.4-30.7-5-31.4c-2.6-0.7-16.5,10.6-15.5,27.1
	c0.7,11,15.5,14.8,15.2,16.5c-0.3,1.7-8.3-0.4-13.6-3.5c-2-1.2,0.4,7.7,8,10.1c4.6,1.4,10.3,0.8,10.8,1.9c0.5,1.1-12.5,1.7-11.9,3.5
	c0.5,1.8,3.2,3.6,10.1,5.1c7.7,1.7,12.2,0.2,12.2,0.2L40.3,135.2z"/>
<path class="st59" d="M146,114.5c0,0,5.4,0.4,10.3-1.2s10.9-4.7,10.9-4.7l14.9,13.2c0,0-11.3,31.6-24.5,32.8s-25.6-9.3-25.6-9.3
	s-2.5,12.4,5.4,18.6c5.3,4.1,10.7,5.1,14,5.2c2,0.1,3.9-0.6,3.9-0.6c-0.5,4.4-7.2,7.7-12.8,8.8c-5.6,1.2-11.5-0.4-12.2,0
	c-0.8,0.4-6.6,12.8-27.2,14.6c-20.6,1.7-39-4-50.7-16.8c-9.9-10.9-16-37.9-14.3-41.2s10.6-2.6,21.6-6.3c11.1-3.7,18.3-7.7,18.4-8.8
	c0.1-1.2-5.4-3.1-11.4-4.8c-1.4-0.4,2.4-3,8.1-2.2c4.2,0.6,9.1,3.5,9.8,2.8c0.7-0.7-6.1-5.8-11.8-10.6c-0.3-0.2,5.3-1.7,11.4,1.2
	c3.2,1.6,6.8,5,7.8,4.7c2.4-0.7-4.6-10.2-10.6-14.9c-1.2-1,4.8-2.3,11.7,1.9c4.2,2.5,5.8,7.5,7.2,7.5c1.4,0,12.2-18.9,20.2-19.5
	c8.3-0.6,7.7,12.9,7.7,12.9L146,114.5z"/>
<circle class="st60" cx="138.2" cy="104.4" r="11.5"/>
<circle cx="143.7" cy="102.8" r="2.6"/>
<circle class="st1" cx="124.4" cy="111.2" r="13.8"/>
<circle cx="131" cy="109.3" r="3.1"/>
<path class="st59" d="M122.5,128.4c0,0-1-3.9,4.1-9.2c5.1-5.4,20.1-10.7,22.1-9.9c2,0.8,0.8,5.2,0.8,5.2L122.5,128.4z"/>
<path class="st55" d="M127.6,137.6c0,0-6.5,2.2-8.3,7.2c-2.9,7.8-0.2,10.9,0.8,10.9s-1.5-5.1,0.3-10.3
	C122.3,139.7,127.6,137.6,127.6,137.6z"/>
<path class="st61" d="M102.7,104.8c0,0-13.1-26.5-12.7-31.5c0.5-4.9,16.9-14.7,20-12.8c3.2,1.9,4.8,7.7,2.7,9.9
	c-2,2.2-16.6,1.5-17.3,3.5c-0.7,2,8.6,28.2,8.6,28.2L102.7,104.8z"/>
<path d="M119.5,87.8c0,0,6.3-27.8,9.7-29.5s19.6,4.4,19.6,8s-3.7,8.2-5.7,8.2S133.1,63.3,131,64c-2,0.7-10,23.9-10,23.9L119.5,87.8
	L119.5,87.8z"/>
<ellipse transform="matrix(0.3755 -0.9268 0.9268 0.3755 9.7575 232.6745)" cx="177.5" cy="109.1" rx="17.5" ry="18"/>
<ellipse transform="matrix(0.3756 -0.9268 0.9268 0.3756 19.7253 230.5698)" class="st61" cx="181" cy="100.6" rx="4.2" ry="8.7"/>
<path class="st62" d="M164.7,159.9c0,0,10.4-4.3,11.6-2.2C177.5,159.9,164.7,159.9,164.7,159.9z"/>
<path class="st62" d="M162.1,165.5c0,0,20.9,5.8,19.3,9.5C179.9,178.7,162.1,165.5,162.1,165.5z"/>
<path class="st62" d="M158.5,171.4c0,0,8.2,7.1,6.1,8.9S158.5,171.4,158.5,171.4z"/>
<path class="st63" d="M31.6,108.4c0,0-4.4-15.7-1.1-16.1C33.8,91.8,31.6,108.4,31.6,108.4z"/>
<path class="st63" d="M36.6,109.9c0,0,2.2-12.5,5.1-11.1C44.6,100.1,36.6,109.9,36.6,109.9z"/>
<g class="st64">
	<circle class="st65" cx="137.9" cy="104.4" r="11.7"/>
	<path class="st66" d="M147.4,98l1,1.1c0,0-5.5,1.2-10.6,3.8c-3.9,2-7.5,4.9-9,7.9l-0.8-1C128,109.8,131.5,100.6,147.4,98z"/>
	<circle class="st67" cx="124.5" cy="111" r="14.3"/>
	<path class="st66" d="M135.6,102.3l1.3,1.3c0,0-6.7,1.8-13,5.4c-4.7,2.7-9.1,6.6-10.8,10.4l-1-1.2
		C112.1,118.1,115.8,106.5,135.6,102.3z"/>
	<path class="st68" d="M148.8,109.7c-1.3-1-2.7-1-2.7-1s-10.3,1.4-14,3.9c-5.7,3.9-5.1,10.4-4.7,11.3c0.4,1,9.7,3.8,11.9,0
		c3-5,11.1-10.2,11.1-10.2S150.7,111.2,148.8,109.7z"/>
	<path class="st68" d="M106.4,126.4c0,0,1.4-4,5.3-5.8c3.4-1.5,13.5,3.1,14.2,4.7C126.7,127.2,106.4,126.4,106.4,126.4z"/>
</g>
</svg>
