<?xml version="1.0" encoding="utf-8"?>
<!-- Generator: Adobe Illustrator 21.0.0, SVG Export Plug-In . SVG Version: 6.00 Build 0)  -->
<svg version="1.1" id="dog-tryagain" xmlns="http://www.w3.org/2000/svg" xmlns:xlink="http://www.w3.org/1999/xlink" x="0px"
	 y="0px" viewBox="0 0 592.1 490.1" style="enable-background:new 0 0 592.1 490.1;" xml:space="preserve">
<g id="svg-dog">
	<path id="tail" style="fill:#1A1A1A;" d="M182.9,354.9l-3-14.4c0,0-41.3,15.1-78.1,3.6c-31.9-9.9-51.9-44.8-59.4-44.6
		c-7.5,0.2-19.3,33.3-1.9,57.1s49.3,18,50,20.7c0.7,2.6-21.9,12.8-20.1,15.8c1.7,3,20.1,4.3,33.5-1.4c15.6-6.8,22.9-18.6,25.3-16.7
		c2.4,1.9-16.5,21.7-13.4,24.3c3.1,2.4,17.2-3.1,23.9-10.4c8.2-8.9,11.6-19.3,13.2-19.3c1.4,0-0.9,12.8,1.4,13.2
		c2.1,0.3,10.9-4.3,21-14.4C180.9,362.9,182.9,354.9,182.9,354.9z"/>
	<g id="legL">
		<path style="fill:#B56F29;" d="M217.7,389.8c0,0,1.9,25.5-0.5,40.6c-2.4,14.9-10.4,32.5-11.5,38.7c-0.9,5,1,13.5,8.9,14.8
			c9.5,1.6,18-5.7,18-5.7s4.5,8.3,13.7,8.7c6.2,0.2,8-7.3,8-7.3s2.4,6.9,10.9,7.3c8.3,0.3,9.7-6.2,9.7-6.2s3.5,4.9,9.9,1.7
			c6.1-3.1,7.1-15.6,1.6-26.4c-5.4-10.8-15.8-16.5-26.2-14.4c-12.1,2.4-18.7,18.9-27.8,17.2c-4-0.7,1.4-19.3,1.7-27.9
			c0.3-8.9-2.6-35.8-2.6-35.8L217.7,389.8z"/>
		<path style="fill:#754D24;" d="M266.3,454c0,0,8.3,6.8,10.2,14.9c1.6,6.9-0.3,12.5-0.3,12.5l-1-1c0,0,1.7-8-0.5-13.4
			C272.4,461.7,266.3,454,266.3,454z"/>
		<path style="fill:#754D24;" d="M255.4,481.3c0,0,0.9-7.6-0.3-11.6s-6.4-7.6-6.4-7.6s3.8,5,4.7,8.7c0.9,3.5,1.2,8.7,1.2,8.7
			L255.4,481.3z"/>
	</g>
	<g id="legR">
		<path style="fill:#B56F29;" d="M313.7,391.7c0,0,2.6,29.5,0.2,43.7s-7.5,22.7-8.5,28.5c-0.7,4.7-3.8,12,3.5,13.2
			c9.2,1.6,19.1-1.7,19.1-1.7s4.2,8,13,8.2c6.1,0.2,7.6-6.9,7.6-6.9s2.3,6.6,10.4,6.9c8,0.3,9.2-6.1,9.2-6.1s3.3,4.7,9.4,1.6
			c5.9-3,8.2-11.3,3.1-21.5c-5.2-10.2-14.1-17.4-23.9-15.4c-11.5,2.3-20.1,16.1-28.6,14.4c-3.8-0.7,1.2-17.5,1.6-25.9
			c0.3-8.3-2.4-34.5-2.4-34.5L313.7,391.7z"/>
		<path style="fill:#754D24;" d="M362.6,455.2c0,0,5.2,3.8,6.8,11.6c1.4,6.6-0.3,12-0.3,12l-1-1c0,0,1.6-7.6-0.5-12.7
			C365.6,459.8,362.6,455.2,362.6,455.2z"/>
		<path style="fill:#754D24;" d="M349.5,478.5c0,0,0.9-7.3-0.3-10.9c-1.2-3.6-4.2-7.1-4.2-7.1s1.7,4.7,2.6,8.2c0.9,3.3,1,8.3,1,8.3
			L349.5,478.5z"/>
	</g>
	<path id="earR" d="M367.9,86.1c0,0-0.7-69.6,6.4-76.7s76.2-13.7,76,10.9s-8.2,30.2-13.5,29.7c-5.4-0.5-47.7-25.9-50.2-23.4
		c-2.4,2.4-13,59.5-13,59.5H367.9z"/>
	<path id="earL" d="M321.2,116.5c0,0-30.5-68.6-28.8-78.4c1.7-9.9,53.5-40.4,60.4-32.1s10.6,24.5,5,31.6s-43.6,0.5-44.9,6.2
		s12.5,68.7,12.5,68.7L321.2,116.5z"/>
	<g id="body_1_">
		<path style="fill:#D18029;" d="M397,96.7c0,0,23.1-21.5,39.4-17.2c18.4,5,12,26.2,12,26.2l-53.3,11.8L397,96.7z"/>
		<path id="body" style="fill:#F69220;" d="M393.4,280.3c0,0-9.4,12-9.5,26.4c-0.2,14.2,10.4,47-14.8,77.6
			c-22.7,27.8-83.7,46-129.3,26.7c-45.8-19.4-70.6-43.7-73.6-82.4s85.6-145.6,85.4-151.3c-0.2-5.7-18.6-1.9-29.9,4
			c-2.3,1.2,1.9-14.4,15.4-23.8c12.3-8.5,26.6-6.9,26.6-9.9c0.2-6.4-22.2-3.5-40.6,1.4c-3.1,0.9,7.1-18.4,26.7-24.1
			c21.5-6.2,34.7,4.7,35.8,2.1c2.1-5.2-14.4-21.9-35.6-22.9c-3.6-0.2,18.7-15.4,43.7-6.4c14.1,5,19.6,22.4,21.3,22.6
			c1.7,0,30.2-41.5,60.2-42.3c32.8-0.9,25.9,31.6,25.9,31.6l41.8,41.3L445,163c0,0,10.4,13,19.4,18.6c10.9,6.8,32.5,10.1,32.5,10.1
			l2.4,68.2c0,0-21.9,35.2-59.7,37.5C410,298.9,393.4,280.3,393.4,280.3z"/>
	</g>
	<g id="pencil">
		<path style="fill:#C49A6C;" d="M452.7,458c11.8-2.3,17.2-9,15.4-22.2l-41.3-49.3l-34.7,50L452.7,458z"/>
		<path style="fill:#62C4B6;" d="M195.7,300.1L393.4,437c21.3-1,41.1-29.5,34.7-50L230.2,250.3C236.8,270.6,217,299.2,195.7,300.1z"
			/>
		<path d="M452.7,458l42.7,15.1c0,0,2.3,0.2,2.6-0.2c0.3-0.3-0.7-2.4-0.7-2.4l-29.2-34.7C468.9,447.1,463.5,455.2,452.7,458z"/>
		<path style="fill:#B3B2B3;" d="M162.5,277.2c5.6,3.8,11.3,7.8,16.8,11.6l35.2,24.5c21.3-1,41.1-29.5,34.7-50L214,238.8
			c-5.6-4-11.3-7.8-16.8-11.6C203.7,247.7,183.9,276.1,162.5,277.2z"/>
		<path style="fill:#CDCCCB;" d="M176.4,286.9l2.8,1.9c21.3-1,41.1-29.5,34.7-50l-2.8-1.9C217.7,257.4,198,285.9,176.4,286.9z"/>
		<path style="fill:#CDCCCB;" d="M171.2,283.3l2.8,1.9c21.3-1,41.1-29.5,34.7-50l-2.8-1.9C212.4,253.6,192.6,282.2,171.2,283.3z"/>
		<path style="fill:#CDCCCB;" d="M206.6,307.9l2.8,1.9c21.3-1,41.1-29.5,34.7-49.8l-2.8-1.9C247.9,278.4,228.1,306.9,206.6,307.9z"
			/>
		<path style="fill:#CDCCCB;" d="M201.4,304.1l2.8,1.9c21.3-1,41.1-29.5,34.7-50l-2.8-1.9C242.6,274.6,222.8,303.2,201.4,304.1z"/>
		<path style="fill:#CDCCCB;" d="M129.9,254.6c5.6,3.8,11.3,7.8,16.8,11.6l16.1,11.3c21.3-1,41.1-29.5,34.7-49.8l-16.1-11.3
			c-5.6-3.8-11.3-7.8-16.8-11.6C171.2,225.1,151.4,253.6,129.9,254.6z"/>
		<path style="fill:#E5E5E5;" d="M132.9,219.7c-9.5,13.7-11.6,28.8-4.7,33.7c6.9,4.9,20.3-2.4,29.9-16.1
			c9.5-13.7,11.6-28.8,4.7-33.7C156,198.6,142.4,205.9,132.9,219.7z"/>
		<path style="fill:#989897;" d="M208.9,241.1c0.9-1.2,3.5-1,5.7,0.5c2.3,1.6,3.5,4,2.6,5.2s-3.5,1-5.7-0.5
			C209.2,244.7,208,242.3,208.9,241.1z"/>
		<path style="fill:#989897;" d="M233.5,262.9c0.9-1.2,3.5-1,5.7,0.5c2.3,1.6,3.5,4,2.6,5.2s-3.5,1-5.7-0.5
			C233.9,266.6,232.7,264.3,233.5,262.9z"/>
		
			<ellipse transform="matrix(0.5703 -0.8214 0.8214 0.5703 -158.3545 301.4863)" style="fill:#989897;" cx="209" cy="302.1" rx="2.8" ry="5"/>
		
			<ellipse transform="matrix(0.5702 -0.8215 0.8215 0.5702 -153.7788 271.8242)" style="fill:#989897;" cx="182.9" cy="282.9" rx="2.8" ry="5"/>
		
			<ellipse transform="matrix(0.5702 -0.8215 0.8215 0.5702 -135.1909 277.5941)" style="fill:#989897;" cx="197.7" cy="268" rx="3.8" ry="5"/>
		
			<ellipse transform="matrix(0.5695 -0.822 0.822 0.5695 -139.6461 313.1339)" style="fill:#989897;" cx="229.1" cy="289.9" rx="3.8" ry="5"/>
	</g>
	<g id="eyes-open">
		
			<ellipse transform="matrix(3.313342e-02 -0.9995 0.9995 3.313342e-02 291.927 555.3965)" style="fill:#CDCCCB;" cx="433" cy="126.8" rx="29.2" ry="29.2"/>
		
			<ellipse transform="matrix(3.312010e-02 -0.9995 0.9995 3.312010e-02 284.2745 570.9437)" cx="437.2" cy="138.5" rx="6.4" ry="6.4"/>
		
			<ellipse transform="matrix(3.313190e-02 -0.9995 0.9995 3.313190e-02 225.3257 510.2364)" style="fill:#FFFFFF;" cx="376.4" cy="138.7" rx="38.5" ry="38.5"/>
		
			<ellipse transform="matrix(3.313207e-02 -0.9995 0.9995 3.313207e-02 241.7189 539.9127)" cx="399.9" cy="145" rx="9.5" ry="9.5"/>
		<path style="fill:#F69220;" d="M373.4,186.6c0,0,0.9-11.1,8.5-20.1c11.8-13.7,53.8-24.6,60.4-19.8c5.2,3.8,4.7,14.9,3.3,17
			C444.4,165.6,373.4,186.6,373.4,186.6z"/>
	</g>
	<g id="eyesclosed">
		
			<ellipse transform="matrix(3.313342e-02 -0.9995 0.9995 3.313342e-02 291.927 555.3965)" style="fill:#D18029;" cx="433" cy="126.8" rx="29.2" ry="29.2"/>
		<path style="fill:#603A17;" d="M461.2,120.8l0.7,3.3c0,0-13.2,1.4-26.2,6.4c-9.9,3.8-19.3,9.9-23.6,16.7l-1.6-2.6
			C410.4,144.4,422.2,122.9,461.2,120.8z"/>
		
			<ellipse transform="matrix(3.313190e-02 -0.9995 0.9995 3.313190e-02 225.3257 510.2364)" style="fill:#D18029;" cx="376.4" cy="138.7" rx="38.5" ry="38.5"/>
		<path style="fill:#603A17;" d="M414.4,132.8l0.5,3.6c0,0-17.7,3.8-30.7,12.1c-10.6,6.9-20.5,16-24.5,24.8l-3.6-1.9
			C356.1,171.5,367.5,142.9,414.4,132.8z"/>
		<path style="fill:#F69220;" d="M373.4,186.6c0,0,0.9-11.1,8.5-20.1c11.8-13.7,53.8-24.6,60.4-19.8c5.2,3.8,4.7,14.9,3.3,17
			C444.4,165.6,373.4,186.6,373.4,186.6z"/>
	</g>
	<g id="nose">
		
			<ellipse transform="matrix(3.313223e-02 -0.9995 0.9995 3.313223e-02 264.1363 731.0649)" cx="509.9" cy="229" rx="51.4" ry="48.6"/>
		
			<ellipse transform="matrix(0.8989 -0.4381 0.4381 0.8989 -39.1933 240.7173)" style="fill:#343433;" cx="502.1" cy="205.3" rx="22.4" ry="11.5"/>
	</g>
	<g id="tongue">
		<path style="fill:#DC2626;" d="M335.1,230.7c0,0-12.7,1.2-25.7,12.5c-12.3,10.6-20.7,30.2-9.7,40.1c13.4,12.1,27.2,1,30.7-4.9
			c10.4-17.5,25.7-30.4,25.7-30.4L335.1,230.7z"/>
		<path style="fill:#B22025;" d="M345.3,239.9c0,0-8.5,0.9-17.4,7.6c-6.6,5.2-12.8,12.8-10.6,15.4c2.3,2.4,6.9-7.8,13.4-12.8
			c8.2-6.2,17-8.7,17-8.7L345.3,239.9z"/>
		<path d="M364.9,259.3c-0.7,0-1.6-0.3-2.1-0.9c0,0-7.6-8.5-17.9-16.1c-8.2-6.1-19.8-11.8-20-11.8c-1.4-0.7-2.1-2.4-1.4-3.8
			c0.7-1.4,2.4-2.1,3.8-1.4c0.5,0.2,12.1,6.4,20.3,13.4C358.5,247.7,365.6,259.3,364.9,259.3L364.9,259.3z"/>
	</g>
	<path id="handL" style="fill:#B56F29;" d="M237,245.2c0,0-17.9,25-19.3,41.3c-1.2,14.8,4.2,26.9,2.6,31.1s-15.3-1.4-21.9,5.4
		c-5.4,5.4-6.4,21.2,4.3,21c11.1-0.2,14.4-16.5,19.8-13.2c5.2,3.5-5.9,13-4.7,20.8c1.7,9.9,13.9,15.8,20,6.1
		c4.7-7.6-4.9-19.8-1.9-21.2c3-1.4,8.2,12.3,16,15.4c8.9,3.5,14.8-5,12.1-15.8c-2.4-10.8-18-5.4-23.9-14.2
		c-5.6-8.2-7.8-19.6-4.7-36.3c3.3-18,13.5-35.6,13.5-35.6L237,245.2z"/>
	
		<ellipse id="bellybutton" transform="matrix(3.313660e-02 -0.9995 0.9995 3.313660e-02 -90.1387 697.3721)" style="fill:#754D24;" cx="315.4" cy="395.3" rx="5" ry="5.4"/>
	<g id="hand-R">
		
			<ellipse transform="matrix(0.7047 -0.7095 0.7095 0.7047 -180.0416 382.2005)" style="fill:#B56F29;" cx="369.1" cy="407.4" rx="16.5" ry="11.3"/>
		
			<ellipse transform="matrix(0.7764 -0.6303 0.6303 0.7764 -179.7671 336.5874)" style="fill:#B56F29;" cx="384.4" cy="421.6" rx="16.5" ry="10.4"/>
		
			<ellipse transform="matrix(0.7764 -0.6303 0.6303 0.7764 -185.5529 348.6353)" style="fill:#B56F29;" cx="398.5" cy="435.8" rx="16.5" ry="9.5"/>
	</g>
</g>
</svg>
