<?xml version="1.0" encoding="utf-8"?>
<!-- Generator: Adobe Illustrator 21.0.0, SVG Export Plug-In . SVG Version: 6.00 Build 0)  -->
<svg version="1.1" xmlns="http://www.w3.org/2000/svg" xmlns:xlink="http://www.w3.org/1999/xlink" x="0px" y="0px"
	 viewBox="0 0 396.4 415.9" style="enable-background:new 0 0 396.4 415.9;" xml:space="preserve">
<style type="text/css">
	.Drop_x0020_Shadow{fill:none;}
	.Outer_x0020_Glow_x0020_5_x0020_pt{fill:none;}
	.Blue_x0020_Neon{fill:none;stroke:#8AACDA;stroke-width:7;stroke-linecap:round;stroke-linejoin:round;}
	.Chrome_x0020_Highlight{fill:url(#SVGID_1_);stroke:#FFFFFF;stroke-width:0.3629;stroke-miterlimit:1;}
	.Jive_GS{fill:#FFDD00;}
	.Alyssa_GS{fill:#A6D0E4;}
	.st0{fill:#A7A8AC;}
	.st1{fill:#FFFFFF;}
	.st2{fill:#FFFFFF;stroke:#B8D432;stroke-width:1.5;stroke-miterlimit:10;}
	.st3{fill:#FDFDFD;}
	.st4{fill:#FBFBFB;}
	.st5{fill:#F9F9F9;}
	.st6{fill:#F7F7F7;}
	.st7{fill:#F5F5F5;}
	.st8{fill:#F3F3F3;}
	.st9{fill:#F1F1F1;}
	.st10{fill:#EFEFEF;}
	.st11{fill:#EDEDED;}
	.st12{fill:#EBEBEB;}
	.st13{fill:#E9E9E9;}
	.st14{fill:#E7E7E7;}
	.st15{fill:#E5E5E4;}
	.st16{fill:#E3E3E2;}
	.st17{fill:#E1E1E0;}
	.st18{fill:#DFDFDE;}
	.st19{fill:#DDDDDC;}
	.st20{fill:#DBDBDA;}
	.st21{fill:#D9D9D8;}
	.st22{fill:#D7D7D6;}
	.st23{fill:#D5D5D4;}
	.st24{fill:#D3D3D2;}
	.st25{fill:#D1D1D0;}
	.st26{fill:#CFCFCE;}
	.st27{fill:#CDCDCC;}
	.st28{fill:#CACACA;}
	.st29{fill:#C8C8C8;}
	.st30{fill:#C6C6C6;}
	.st31{fill:#C4C4C4;}
	.st32{fill:#C2C2C2;}
	.st33{fill:#C0C0C0;}
	.st34{fill:#BEBEBE;}
	.st35{fill:#BCBCBC;}
	.st36{fill:#BABABA;}
	.st37{fill:#B8B8B8;}
	.st38{fill:#B6B6B6;}
	.st39{fill:#B4B4B4;}
	.st40{fill:#B2B2B2;}
	.st41{fill:#B0B0AF;}
	.st42{fill:#AEAEAD;}
	.st43{fill:#ACACAB;}
	.st44{fill:#AAAAA9;}
	.st45{fill:#A8A8A7;}
	.st46{fill:#A6A6A5;}
	.st47{fill:#A4A4A3;}
	.st48{fill:#A2A2A1;}
	.st49{fill:#A0A09F;}
	.st50{fill:#9E9E9D;}
	.st51{fill:#9C9C9B;}
	.st52{fill:#9A9A99;}
	.st53{fill:#989897;}
	.st54{fill:#333333;}
	.st55{fill:#B56F29;}
	.st56{fill:#754D24;}
	.st57{fill:#D18029;}
	.st58{fill:#F69220;}
	.st59{fill:#1A1A1A;}
	.st60{fill:#343433;}
	.st61{fill:#CBCBCA;}
	.st62{fill:#603A17;}
	.st63{fill:#E48525;}
</style>
<linearGradient id="SVGID_1_" gradientUnits="userSpaceOnUse" x1="-202.4404" y1="-192.9767" x2="-202.4404" y2="-193.9767">
	<stop  offset="0" style="stop-color:#656565"/>
	<stop  offset="0.618" style="stop-color:#1B1B1B"/>
	<stop  offset="0.6292" style="stop-color:#545454"/>
	<stop  offset="0.9831" style="stop-color:#3E3E3E"/>
</linearGradient>
<g id="Text">
	<g>
		<g>
			<path class="st0" d="M384.3,29.4c-5-19.5-15.7-22.7-29.6-24.5c-21.6-2.9-118-5.1-133.3-3.4c-12.2,1.3-20,9.7-24.9,25.4
				c-4.1,13-13.4,34.1-14.6,43.8c-1.5,12.6,1.4,31.7,20.4,37.4c16.9,5,34,6.5,67,10c20.8,2.2,30.4,4,25.3,10
				c-6.9,8.2-36.7,20.6-30.1,21.5c21,2.7,44.7,0,60-4.1c10.6-2.9,21.1-8.1,27.9-15.4c16.1,2.4,14.9,3.1,19.5,3.2
				c14.8,0.2,22.4-8.9,24.4-22.2C398.4,95.6,387.3,41.3,384.3,29.4z"/>
			<path class="st1" d="M385.6,28.8c-4.9-19.2-16.7-23.1-30.3-24.9C334.1,1,239.6-1,224.5,0.6c-12,1.3-19.6,9.6-24.5,25.1
				c-4,12.8-13.1,33.2-14.3,42.8c-1.5,12.4,1.4,31.3,20,36.9c16.6,4.9,33.4,6.4,65.8,9.8c20.5,2.1,29.9,3.9,24.9,9.9
				c-6.8,8.1-36.1,20.6-29.5,21.2c19,1.8,45.2-0.4,60-4.9c10.6-3.2,19.6-7.3,26.3-14.4c15.8,2.3,14.4,3.1,18.9,3.1
				c14.5,0.1,20.7-9.6,22.8-22.7C397.5,91,388.5,40.5,385.6,28.8z"/>
		</g>
		<path class="st2" d="M379.2,32.4c-4.6-18.1-15.7-21.7-28.5-23.5c-19.9-2.7-107.9-4.5-122-3c-11.2,1.2-18.5,9-23,23.6
			c-3.8,12-12,29.3-13.1,38.3c-1.4,11.7,1.3,29.4,18.8,34.7c15.6,4.7,45.1,7.7,75.4,10.9c19.2,2,23.3,4.3,18.6,9.9
			c-6.4,7.6-32.7,19.6-24.5,19.1c14.3-0.9,29.1-2.3,44.4-7.1c8.4-2.7,18.4-7,24.7-13.7c14.9,2.2,12.8,2.8,17,2.9
			c13.6,0.1,19.3-7.9,21.3-20.2C390.8,89,382,43.4,379.2,32.4z"/>
	</g>
	<g>
		<path d="M253.7,28.4l0.1-2.5c0.1-1.9,0.4-2.9,0.8-3.1c0.2-0.1,0.5-0.2,0.9-0.1c0.3,0,0.7,0.2,0.9,0.5c0.3,0.3,0.4,0.7,0.4,1.1
			l-0.3,2.9l-0.5,9.9c0,0.9-0.1,1.9-0.1,3c0,1.1,0,1.8,0,2.3c0,0.4-0.2,0.8-0.4,1.3s-0.6,0.6-1.1,0.6c-0.8,0-1.4-0.3-1.6-0.9
			c-0.3-0.5-0.7-1.5-1.3-2.9c-1-2.3-2.1-4.5-3.1-6.6c-1.1-2.1-2.2-4-3.5-5.8l0,0.8c-0.4,6.5-0.8,11.1-1.4,13.8
			c-0.1,0.5-0.5,0.8-1.2,0.7c-0.3,0-0.6-0.1-0.8-0.3c-0.2-0.2-0.3-0.4-0.3-0.7c0-0.3,0.1-1.2,0.2-2.7c0.2-1.5,0.3-2.7,0.3-3.4
			c0.2-1.4,0.4-2.5,0.5-3.1c0.1-0.6,0.1-1.8,0.2-3.4l0.1-3c0.1-1.4,0.3-2.3,0.6-2.6c0.1-0.2,0.3-0.3,0.5-0.4c0.4,0,0.9,0.2,1.5,0.5
			c0.9,1,1.6,2,2.3,3.2c0.7,1.1,1.2,2,1.5,2.7c0.4,0.6,0.8,1.5,1.3,2.5c0.5,1,0.9,1.8,1.1,2.3c0.3,0.5,0.6,1.3,1.2,2.5
			c0.5,1.1,0.9,1.8,1,2.2l0.1-9.6c0-0.2,0-0.3,0-0.5L253.7,28.4z"/>
		<path d="M262.4,30.1c0.8-0.4,1.7-0.6,2.7-0.6c1,0.1,1.9,0.5,2.7,1.4c1.4,1.7,2.1,3.9,1.9,6.7c-0.1,1.5-0.6,3-1.5,4.5
			c-0.5,0.7-1,1.3-1.7,1.8c-0.7,0.5-1.5,0.7-2.4,0.6c-0.9,0-1.7-0.4-2.5-0.9s-1.5-1.2-2-2c-1-1.7-1.5-3.3-1.4-4.7
			c0.1-1.9,0.8-3.7,2-5.3C260.9,31.1,261.6,30.5,262.4,30.1z M265,42.4c0.6-0.3,1.2-0.8,1.5-1.5c0.4-0.7,0.6-1.5,0.6-2.3
			c0-0.8,0-1.5,0-2.2c-0.1-0.6-0.2-1.2-0.4-1.8c-0.2-0.6-0.5-1.1-0.9-1.5c-0.4-0.4-0.9-0.7-1.5-0.9c-1,0.1-1.8,0.6-2.5,1.5
			c-0.7,0.9-1,1.8-1.1,2.8c-0.1,0.9,0.3,2.1,1,3.5c0.3,0.6,0.8,1.2,1.4,1.7C263.7,42.1,264.3,42.3,265,42.4z"/>
		<path d="M282.5,36.5l0.1-4.9c0.1-0.3,0.3-0.6,0.6-0.8c0.3-0.2,0.6-0.3,0.8-0.3c0.6,0,0.9,1.3,0.7,3.7l-0.1,1.8
			c-0.2,2.9-0.7,5.5-1.8,7.7c-0.6,1.3-1.2,1.9-1.9,1.8c-0.4,0-0.8-0.3-1.1-0.9c-0.3-0.6-0.7-1.4-1-2.3c-0.4-1-0.6-1.6-0.9-2
			c-0.3,0.4-0.6,1.1-1.1,1.9c-0.5,0.8-0.7,1.3-0.8,1.4c-0.8,1.1-1.5,1.6-2,1.6c-0.2,0-0.6-0.6-1.1-1.8c-1.1-3.9-1.5-8-1.3-12.3
			c0.2-0.5,0.5-0.8,1-1c0.2-0.1,0.3-0.1,0.4-0.1c0.4,0,0.7,0.3,0.8,0.9c-0.2,3.4,0.2,6.7,1.2,9.8c0.3-0.4,0.6-0.8,0.9-1.4
			c0.3-0.6,0.6-1,0.7-1.3c0.5-0.7,1-1.1,1.6-1s1.2,0.6,1.8,1.7c0.4,0.8,0.7,1.4,0.9,2c0.2,0.6,0.4,0.9,0.4,0.9
			C282,39.8,282.4,38.1,282.5,36.5z"/>
		<path d="M290.1,43.6c-0.1,1.4-0.4,2.7-0.9,3.8c-0.2,0.4-0.4,0.7-0.7,1c-0.3,0.3-0.6,0.4-1,0.4c-0.7,0-1-0.4-1-1.2
			c0-0.2,0.1-0.4,0.1-0.7c0.4-0.4,0.7-0.9,0.9-1.4c0.2-0.5,0.3-1.2,0.3-1.9c0.2-0.7,0.5-1,1.1-0.9C289.5,42.7,289.9,43,290.1,43.6z"
			/>
		<path d="M300.2,33c0-0.4,0.2-0.8,0.4-1c0.3-0.3,0.6-0.4,1-0.4c0.4,0,0.7,0.3,1,0.7c0.4,1.7,0.9,3.3,1.4,4.7c0.5,1.4,1,2.7,1.4,3.9
			c0.4,1.2,0.8,2.1,1,2.7c0.5-1.3,1.1-3.2,1.8-5.6c0.7-2.4,1.3-4.1,1.6-5.1c0.1-0.5,0.6-0.7,1.5-0.6c0.3,0,0.6,0.1,0.8,0.3
			c0.3,0.2,0.4,0.4,0.4,0.7c0,0.2,0,0.5-0.1,0.7c-3.7,10.8-6.4,18.1-8,22.1c-0.2,0.6-0.6,0.8-1.1,0.8c-0.3,0-0.6-0.2-0.8-0.5
			c-0.2-0.3-0.3-0.7-0.3-1.1c0-0.5,0.2-1.2,0.6-2.2c0.4-1,0.8-2.2,1.3-3.4c0.5-1.2,0.8-2.1,1-2.5c-0.5-0.9-1.2-2.9-2.3-6
			C301.6,37.9,300.8,35.2,300.2,33z"/>
		<path d="M318.2,33.2c0.8-0.4,1.7-0.6,2.7-0.6c1,0.1,1.9,0.5,2.7,1.4c1.4,1.7,2.1,3.9,1.9,6.7c-0.1,1.5-0.6,3-1.5,4.5
			c-0.5,0.7-1,1.3-1.7,1.8c-0.7,0.5-1.5,0.7-2.4,0.6s-1.7-0.4-2.5-0.9c-0.8-0.6-1.5-1.2-2-2c-1-1.7-1.5-3.3-1.4-4.7
			c0.1-1.9,0.8-3.7,2-5.3C316.6,34.2,317.3,33.6,318.2,33.2z M320.7,45.5c0.6-0.3,1.2-0.8,1.5-1.5c0.4-0.7,0.6-1.5,0.6-2.3
			c0-0.8,0-1.5,0-2.2c-0.1-0.6-0.2-1.2-0.4-1.8c-0.2-0.6-0.5-1.1-0.9-1.5c-0.4-0.4-0.9-0.7-1.5-0.9c-1,0.1-1.8,0.6-2.5,1.5
			c-0.7,0.9-1,1.8-1.1,2.8c-0.1,0.9,0.3,2.1,1,3.5c0.3,0.6,0.8,1.2,1.4,1.7C319.5,45.2,320.1,45.4,320.7,45.5z"/>
		<path d="M335.6,46.3c-1.6,1.5-3.2,2.2-4.7,2.1c-0.7,0-1.4-0.4-1.9-0.9c-0.5-0.6-0.9-1.3-1.2-2.3c-0.5-1.8-0.7-3.5-0.6-5.2
			c0.1-1.7,0.3-3.6,0.6-5.7c0.1-0.4,0.3-0.7,0.6-0.9c0.3-0.2,0.6-0.3,0.9-0.3c0.6,0,1,0.4,1.1,1c-0.2,1.5-0.4,2.9-0.4,4.3
			c-0.1,1.4-0.1,2.4-0.1,3c0,1.6,0.4,3.2,1.3,4.8c0.9-0.1,1.7-0.5,2.5-1.1c0.8-0.6,1.4-1.2,1.8-1.9c-0.1-3.1-0.1-5.8,0.1-8
			c0-0.5,0.2-0.8,0.5-1.1c0.3-0.3,0.7-0.5,1.1-0.4s0.7,0.3,1,0.9c-0.1,1-0.1,3.5-0.2,7.4c0,0.5,0.1,1.6,0.3,3
			c0.2,1.5,0.2,2.4,0.2,2.7s-0.2,0.7-0.5,1c-0.3,0.3-0.7,0.5-1.1,0.5c-0.4,0-0.7-0.3-0.8-0.8L335.6,46.3z"/>
		<path d="M341.7,44.9l0.1-1c0.1-1.3,0.1-2.8-0.1-4.4s-0.3-2.8-0.5-3.6c-0.2-0.8-0.3-1.3-0.3-1.5c0-0.2,0.2-0.4,0.5-0.6
			c0.3-0.2,0.6-0.3,1-0.3c0.4,0,0.7,0.2,0.9,0.5c0.2,0.3,0.3,0.6,0.4,0.9c0,0.3,0.1,0.7,0.1,1.2c0,0.5,0,0.8,0,1
			c0.6-1.3,1.6-2.2,2.9-2.7c0.7-0.2,1.4-0.3,2.3-0.3c1.8,0.1,2.6,0.6,2.6,1.5c0,0.6-0.3,1-0.9,1.2c-0.2,0.1-0.5,0.1-0.7,0.2
			l-0.9-0.1c-2.7-0.2-4.2,2.5-4.5,7.9l-0.1,3l0,0.1c-0.1,0.4-0.3,0.7-0.7,1c-0.3,0.3-0.7,0.4-1,0.4c-0.5,0-0.8-0.4-0.9-1.2
			C341.7,47.2,341.7,46.1,341.7,44.9z"/>
		<path d="M229.6,66.5c0.8,0,1.6,0.2,2.4,0.5c1.5,0.6,2.3,1.3,2.3,2.1c0,0.4-0.2,0.7-0.5,0.9c-0.3,0.2-0.7,0.3-1.1,0.3
			c-0.1,0-0.6-0.2-1.4-0.7c-0.9-0.4-1.5-0.7-2.1-0.7c-0.5,0-1,0.1-1.5,0.4c-0.5,0.3-0.7,0.7-0.7,1.2c0,0.5,0.1,0.9,0.3,1.3
			c0.3,0.4,0.6,0.6,1,0.8c0.4,0.2,0.9,0.3,1.4,0.5c1.4,0.4,2.4,0.7,2.9,1c0.9,0.5,1.4,1.4,1.3,2.8s-0.7,2.5-1.7,3.5
			c-1.1,1-2.2,1.4-3.3,1.4c-1.1-0.1-2.1-0.2-2.8-0.5c-1.3-0.6-1.9-1.3-1.9-2.1c0-0.8,0.5-1.1,1.4-1.1c0.4,0,1,0.2,1.8,0.7
			c0.8,0.4,1.4,0.6,1.9,0.7s1-0.3,1.5-0.9c0.5-0.6,0.7-1.2,0.8-1.8c0-0.1,0-0.3,0-0.5c-0.6-0.6-1.7-1.1-3.4-1.5
			c-0.6-0.1-1.2-0.3-1.8-0.6c-1.3-0.5-1.8-1.7-1.7-3.6c0.1-1.3,0.6-2.3,1.6-3C227,66.7,228.2,66.4,229.6,66.5z"/>
		<path d="M245.5,68.6c1,0.7,1.5,1.5,1.5,2.5c-0.1,1-0.6,1.9-1.7,2.8c-1,0.9-2.3,1.4-3.7,1.5c-0.1,0-0.2,0-0.3,0s-0.2,0-0.3,0
			c-0.1,0-0.2,0-0.3,0c-0.1,0-0.2,0-0.3,0c-0.1,0-0.2,0-0.3,0c-0.1,0-0.2,0-0.4,0c-0.2,0-0.3,0-0.4,0c0.1,1.7,0.4,2.8,0.8,3.4
			c0.6,0.5,1.1,0.8,1.5,0.9c1.1,0.1,2.1-0.3,3.1-1.2c1-0.9,1.7-1.3,2.1-1.2c0.2,0,0.4,0.2,0.7,0.5c0.3,0.3,0.5,0.7,0.5,1
			c0,0.3-0.2,0.7-0.6,1.1c-0.4,0.4-0.9,0.8-1.5,1.3s-1.4,0.8-2.2,1.1c-0.9,0.3-1.7,0.4-2.4,0.4c-0.7,0-1.4-0.2-1.9-0.6
			c-1-0.7-1.7-1.8-2.1-3.3c-0.4-1.5-0.6-3.1-0.5-4.8s0.5-3.1,1.4-4.4c0.9-1.4,2.3-2.1,4.3-2C243.4,67.5,244.4,67.9,245.5,68.6z
			 M244.1,71.1c0-0.9-0.5-1.4-1.7-1.5c-0.8,0-1.5,0.4-2.2,1.3c-0.2,0.3-0.4,0.6-0.5,1c-0.1,0.4-0.2,0.8-0.3,1.2
			C242.4,73.3,244,72.6,244.1,71.1z"/>
		<path d="M260,68.9c0.3,0.2,0.4,0.4,0.4,0.6c0,0.4-0.2,0.9-0.4,1.4c-0.3,0.5-0.6,0.8-1.1,0.8c-0.2,0-0.6-0.2-1.2-0.4
			c-0.6-0.3-1-0.4-1.3-0.4c-1.2-0.1-2.3,0.3-3.3,1.2c-1,0.8-1.5,2-1.6,3.5c-0.1,1.5,0.1,2.7,0.5,3.5s1.2,1.2,2.5,1.3
			c0.7,0,1.5-0.2,2.6-0.7c1.1-0.5,1.7-0.7,2.1-0.7c0.3,0,0.6,0.1,0.7,0.3c0.2,0.2,0.2,0.4,0.2,0.7c0,0.5-0.4,1.1-1.1,1.6
			c-0.7,0.5-1.5,1-2.5,1.3c-1,0.3-1.9,0.5-2.7,0.4c-1.8-0.1-3.1-0.9-4-2.3c-0.9-1.4-1.3-3.3-1.2-5.6c0.1-1.5,0.6-2.8,1.4-3.9
			c0.9-1.1,1.9-2,3.1-2.5c1.2-0.5,2.5-0.7,3.8-0.7C258.5,68.2,259.5,68.4,260,68.9z"/>
		<path d="M263.1,79.6l0.1-1c0.1-1.3,0.1-2.8-0.1-4.4c-0.1-1.6-0.3-2.8-0.5-3.6c-0.2-0.8-0.3-1.3-0.3-1.5c0-0.2,0.2-0.4,0.5-0.6
			c0.3-0.2,0.6-0.3,1-0.3c0.4,0,0.7,0.2,0.9,0.5c0.2,0.3,0.3,0.6,0.4,0.9c0,0.3,0.1,0.7,0.1,1.2c0,0.5,0,0.8,0,1
			c0.6-1.3,1.6-2.2,2.9-2.7c0.7-0.2,1.4-0.3,2.3-0.3c1.8,0.1,2.6,0.6,2.6,1.5c0,0.6-0.3,1-0.9,1.2c-0.2,0.1-0.5,0.1-0.7,0.2
			l-0.9-0.1c-2.7-0.2-4.2,2.5-4.5,7.9l-0.1,3l0,0.1c-0.1,0.4-0.3,0.7-0.7,1c-0.3,0.3-0.7,0.4-1,0.4c-0.5,0-0.8-0.4-0.9-1.2
			C263,81.8,263,80.8,263.1,79.6z"/>
		<path d="M283.5,70.7c1,0.7,1.5,1.5,1.5,2.5c-0.1,1-0.6,1.9-1.7,2.8c-1,0.9-2.3,1.4-3.7,1.5c-0.1,0-0.2,0-0.3,0c-0.1,0-0.2,0-0.3,0
			c-0.1,0-0.2,0-0.3,0c-0.1,0-0.2,0-0.3,0c-0.1,0-0.2,0-0.3,0c-0.1,0-0.2,0-0.4,0c-0.2,0-0.3,0-0.4,0c0.1,1.7,0.4,2.8,0.8,3.4
			c0.6,0.5,1.1,0.8,1.5,0.9c1.1,0.1,2.1-0.3,3.1-1.2c1-0.9,1.7-1.3,2.1-1.2c0.2,0,0.4,0.2,0.7,0.5c0.3,0.3,0.5,0.7,0.5,1
			c0,0.3-0.2,0.7-0.6,1.1c-0.4,0.4-0.9,0.8-1.5,1.3c-0.6,0.4-1.4,0.8-2.2,1.1c-0.9,0.3-1.7,0.4-2.4,0.4c-0.7,0-1.4-0.2-1.9-0.6
			c-1-0.7-1.7-1.8-2.1-3.3c-0.4-1.5-0.6-3.1-0.5-4.8s0.5-3.1,1.4-4.4c0.9-1.4,2.3-2.1,4.3-2C281.4,69.6,282.4,70,283.5,70.7z
			 M282.1,73.2c0-0.9-0.5-1.4-1.7-1.5c-0.8,0-1.6,0.4-2.2,1.3c-0.2,0.3-0.4,0.6-0.5,1c-0.1,0.4-0.2,0.8-0.3,1.2
			C280.4,75.4,282,74.7,282.1,73.2z"/>
		<path d="M293.6,63.1l-0.4,3.9c0,0.3,0,1.3,0,3.1c1.3,0.1,2.6,0.1,3.8,0.1c0.6,0.2,0.9,0.6,0.9,1.2c0,0.6-0.3,1-0.7,1.3
			c-0.4,0.2-0.9,0.4-1.3,0.3c-0.4,0-0.8,0-1,0c-0.2,0-0.5,0-0.9-0.1c-0.4,0-0.6-0.1-0.8-0.1c0,0.2,0,0.8,0,1.8c0,1,0,1.7,0,2
			c0,3,0.1,5.4,0.3,7.2c-0.1,0.4-0.3,0.8-0.7,1.1c-0.3,0.3-0.7,0.4-1.1,0.4c-0.4,0-0.6-0.3-0.8-0.8c-0.2-1.9-0.3-4.2-0.3-6.9
			c0-2.7,0-4.3,0.1-4.8c-0.3,0-0.8,0-1.6-0.1c-0.8,0-1.4-0.1-1.8-0.3c-0.5-0.1-0.8-0.5-0.7-1c0.1-1.1,0.7-1.6,2-1.5l1.6,0.1
			c0.3,0,0.5,0,0.6,0c0-2.2,0.1-3.3,0.1-3.3c0-0.2,0-0.5,0.1-1c0-0.5,0.1-1.3,0.2-2.3c0.1-0.4,0.3-0.7,0.7-0.9
			c0.3-0.2,0.7-0.4,1-0.3C293.2,62.1,293.5,62.4,293.6,63.1z"/>
		<path d="M316.6,72c0.3,0.2,0.4,0.4,0.4,0.6c0,0.4-0.2,0.9-0.4,1.4c-0.3,0.5-0.6,0.8-1.1,0.8c-0.2,0-0.6-0.2-1.2-0.4
			c-0.6-0.3-1-0.4-1.3-0.4c-1.2-0.1-2.3,0.3-3.3,1.2c-1,0.8-1.5,2-1.6,3.5c-0.1,1.5,0.1,2.7,0.5,3.5c0.4,0.8,1.2,1.2,2.5,1.3
			c0.7,0,1.5-0.2,2.6-0.7c1.1-0.5,1.7-0.7,2.1-0.7s0.6,0.1,0.7,0.3c0.2,0.2,0.2,0.4,0.2,0.7c0,0.5-0.4,1.1-1.1,1.6
			c-0.7,0.5-1.5,1-2.5,1.3c-1,0.3-1.9,0.4-2.7,0.4c-1.8-0.1-3.1-0.9-4-2.3c-0.9-1.4-1.3-3.3-1.2-5.6c0.1-1.5,0.6-2.8,1.4-3.9
			c0.9-1.1,1.9-2,3.1-2.5c1.2-0.5,2.5-0.7,3.8-0.7C315.1,71.3,316,71.6,316.6,72z"/>
		<path d="M322.1,72.4c0.8-0.4,1.7-0.6,2.8-0.6c1,0.1,1.9,0.5,2.7,1.4c1.4,1.7,2.1,3.9,1.9,6.7c-0.1,1.5-0.6,3-1.5,4.5
			c-0.5,0.7-1,1.3-1.7,1.8c-0.7,0.5-1.5,0.7-2.4,0.6c-0.9,0-1.7-0.4-2.5-0.9c-0.8-0.6-1.5-1.2-2-2c-1-1.7-1.5-3.3-1.4-4.7
			c0.1-1.9,0.8-3.7,2-5.3C320.6,73.4,321.3,72.9,322.1,72.4z M324.7,84.7c0.6-0.3,1.2-0.8,1.5-1.5c0.4-0.7,0.6-1.5,0.6-2.3
			c0-0.8,0-1.5,0-2.2c-0.1-0.6-0.2-1.2-0.4-1.8c-0.2-0.6-0.5-1.1-0.9-1.5c-0.4-0.4-0.9-0.7-1.4-0.9c-1,0.1-1.8,0.6-2.5,1.5
			c-0.7,0.9-1,1.8-1.1,2.8c-0.1,0.9,0.3,2.1,1,3.5c0.3,0.6,0.8,1.2,1.4,1.7C323.4,84.4,324,84.7,324.7,84.7z"/>
		<path d="M340.3,66.4c0.1-1.2,0.5-1.7,1.2-1.7c0.4,0,0.7,0.1,0.8,0.2c0.2,0.1,0.3,0.4,0.3,0.7c0.1,0.4,0.1,1.1,0,2.2
			c-0.1,1.1-0.1,2.5-0.1,4.1c0,1.7-0.1,3-0.1,3.9c0,1,0,2.4,0,4.5c0,2,0,3.7-0.1,5l-0.2,1.8c-0.1,0.4-0.3,0.7-0.5,0.8
			c-0.2,0.1-0.6,0.1-1,0.1c-0.4,0-0.7-0.3-0.8-0.9l-0.1-0.5c-1,0.7-2.1,1-3.4,0.9c-1.7-0.1-3-0.8-3.9-2.1c-0.9-1.3-1.3-2.8-1.2-4.4
			c0.1-1.6,0.6-3.3,1.4-4.8c0.8-1.6,2-2.7,3.6-3.3c0.9-0.3,1.8-0.5,2.8-0.4c0.4,0,0.7,0,0.9,0.1l0.1-2.6l0.1-2.1L340.3,66.4z
			 M339.5,84.1c0.1-0.3,0.2-0.9,0.3-1.7c0.1-0.9,0.1-1.4,0.1-1.5l0-0.6c0.1-1.2,0-2.2-0.2-3.2c-0.2-1-0.5-1.5-1-1.5
			c-0.6,0-1.3,0-2,0.1c-0.7,0.1-1.2,0.3-1.5,0.6c-0.8,0.9-1.2,2.4-1.3,4.5c-0.1,1.5,0.3,2.7,1.2,3.6c0.5,0.5,1.1,0.8,1.7,0.8
			c0.6,0,1.2,0,1.7-0.2C339.1,84.6,339.4,84.4,339.5,84.1z"/>
		<path d="M354.5,74.6c1,0.7,1.5,1.5,1.5,2.5c-0.1,1-0.6,1.9-1.7,2.8c-1,0.9-2.3,1.4-3.7,1.5c-0.1,0-0.2,0-0.3,0c-0.1,0-0.2,0-0.3,0
			c-0.1,0-0.2,0-0.3,0c-0.1,0-0.2,0-0.3,0c-0.1,0-0.2,0-0.3,0c-0.1,0-0.2,0-0.4,0s-0.3,0-0.4,0c0.1,1.7,0.4,2.8,0.8,3.4
			c0.6,0.5,1.1,0.8,1.5,0.9c1.1,0.1,2.1-0.3,3.1-1.2c1-0.9,1.7-1.3,2.1-1.2c0.2,0,0.4,0.2,0.7,0.5c0.3,0.3,0.5,0.7,0.5,1
			c0,0.3-0.2,0.7-0.6,1.1c-0.4,0.4-0.9,0.8-1.5,1.3s-1.4,0.8-2.2,1.1c-0.9,0.3-1.7,0.4-2.4,0.4c-0.7,0-1.4-0.2-1.9-0.6
			c-1-0.7-1.7-1.8-2.1-3.3c-0.4-1.5-0.6-3.1-0.5-4.8s0.5-3.1,1.4-4.4c0.9-1.4,2.3-2.1,4.3-2C352.4,73.5,353.5,73.9,354.5,74.6z
			 M353.1,77.2c0-0.9-0.5-1.4-1.7-1.5c-0.8,0-1.6,0.4-2.2,1.3c-0.2,0.3-0.4,0.6-0.5,1c-0.1,0.4-0.2,0.8-0.3,1.2
			C351.5,79.3,353.1,78.7,353.1,77.2z"/>
		<path d="M359.4,86.2c0-0.3,0.2-0.7,0.5-1c0.3-0.3,0.7-0.5,1.2-0.5c0.5,0,0.9,0.1,1.1,0.3c0.2,0.2,0.3,0.6,0.3,1.3
			c0,0.7-0.2,1.1-0.5,1.3c-0.3,0.2-0.7,0.3-1,0.3c-0.5,0-0.9-0.2-1.2-0.7C359.5,87,359.3,86.6,359.4,86.2z M363.2,66.8l-0.9,11
			c-0.1,1-0.1,1.8-0.1,2.3c-0.1,0.3-0.3,0.5-0.5,0.7c-0.3,0.2-0.5,0.3-0.8,0.3c-0.3,0-0.5-0.3-0.7-0.8c0-5.5,0.1-10.1,0.3-13.8
			c0.1-0.3,0.4-0.5,0.7-0.6c0.4-0.1,0.7-0.1,0.9-0.1C362.7,66,363.1,66.2,363.2,66.8z"/>
	</g>
</g>
<g id="dog">
	<g id="shadow">
		<ellipse class="st1" cx="136.1" cy="390.1" rx="130.9" ry="25.8"/>
		<ellipse class="st3" cx="136.1" cy="390.1" rx="128.8" ry="25.4"/>
		<ellipse class="st4" cx="136.1" cy="390.1" rx="126.8" ry="25"/>
		<ellipse class="st5" cx="136.1" cy="390.1" rx="124.8" ry="24.6"/>
		<ellipse class="st6" cx="136.1" cy="390.1" rx="122.7" ry="24.2"/>
		<ellipse class="st7" cx="136.1" cy="390.1" rx="120.7" ry="23.8"/>
		<ellipse class="st8" cx="136.1" cy="390.1" rx="118.7" ry="23.4"/>
		<ellipse class="st9" cx="136.1" cy="390.1" rx="116.6" ry="23"/>
		<ellipse class="st10" cx="136.1" cy="390.1" rx="114.6" ry="22.6"/>
		<ellipse class="st11" cx="136.1" cy="390.1" rx="112.6" ry="22.2"/>
		<ellipse class="st12" cx="136.1" cy="390.1" rx="110.6" ry="21.8"/>
		<ellipse class="st13" cx="136.1" cy="390.1" rx="108.5" ry="21.4"/>
		<ellipse class="st14" cx="136.1" cy="390.1" rx="106.5" ry="21"/>
		<ellipse class="st15" cx="136.1" cy="390.1" rx="104.5" ry="20.6"/>
		<ellipse class="st16" cx="136.1" cy="390.1" rx="102.4" ry="20.2"/>
		<ellipse class="st17" cx="136.1" cy="390.1" rx="100.4" ry="19.8"/>
		<ellipse class="st18" cx="136.1" cy="390.1" rx="98.4" ry="19.4"/>
		<ellipse class="st19" cx="136.1" cy="390.1" rx="96.4" ry="19"/>
		<ellipse class="st20" cx="136.1" cy="390.1" rx="94.3" ry="18.6"/>
		<ellipse class="st21" cx="136.1" cy="390.1" rx="92.3" ry="18.2"/>
		<ellipse class="st22" cx="136.1" cy="390.1" rx="90.3" ry="17.8"/>
		<ellipse class="st23" cx="136.1" cy="390.1" rx="88.2" ry="17.4"/>
		<ellipse class="st24" cx="136.1" cy="390.1" rx="86.2" ry="17"/>
		<ellipse class="st25" cx="136.1" cy="390.1" rx="84.2" ry="16.6"/>
		<ellipse class="st26" cx="136.1" cy="390.1" rx="82.1" ry="16.2"/>
		<ellipse class="st27" cx="136.1" cy="390.1" rx="80.1" ry="15.8"/>
		<ellipse class="st28" cx="136.1" cy="390.1" rx="78.1" ry="15.4"/>
		<ellipse class="st29" cx="136.1" cy="390.1" rx="76.1" ry="15"/>
		<ellipse class="st30" cx="136.1" cy="390.1" rx="74" ry="14.6"/>
		<ellipse class="st31" cx="136.1" cy="390.1" rx="72" ry="14.2"/>
		<ellipse class="st32" cx="136.1" cy="390.1" rx="70" ry="13.8"/>
		<ellipse class="st33" cx="136.1" cy="390.1" rx="67.9" ry="13.4"/>
		<ellipse class="st34" cx="136.1" cy="390.1" rx="65.9" ry="13"/>
		<ellipse class="st35" cx="136.1" cy="390.1" rx="63.9" ry="12.6"/>
		<ellipse class="st36" cx="136.1" cy="390.1" rx="61.8" ry="12.2"/>
		<ellipse class="st37" cx="136.1" cy="390.1" rx="59.8" ry="11.8"/>
		<ellipse class="st38" cx="136.1" cy="390.1" rx="57.8" ry="11.4"/>
		<ellipse class="st39" cx="136.1" cy="390.1" rx="55.8" ry="11"/>
		<ellipse class="st40" cx="136.1" cy="390.1" rx="53.7" ry="10.6"/>
		<ellipse class="st41" cx="136.1" cy="390.1" rx="51.7" ry="10.2"/>
		<ellipse class="st42" cx="136.1" cy="390.1" rx="49.7" ry="9.8"/>
		<ellipse class="st43" cx="136.1" cy="390.1" rx="47.6" ry="9.4"/>
		<ellipse class="st44" cx="136.1" cy="390.1" rx="45.6" ry="9"/>
		<ellipse class="st45" cx="136.1" cy="390.1" rx="43.6" ry="8.6"/>
		<ellipse class="st46" cx="136.1" cy="390.1" rx="41.6" ry="8.2"/>
		<ellipse class="st47" cx="136.1" cy="390.1" rx="39.5" ry="7.8"/>
		<ellipse class="st48" cx="136.1" cy="390.1" rx="37.5" ry="7.4"/>
		<ellipse class="st49" cx="136.1" cy="390.1" rx="35.5" ry="7"/>
		<ellipse class="st50" cx="136.1" cy="390.1" rx="33.4" ry="6.6"/>
		<ellipse class="st51" cx="136.1" cy="390.1" rx="31.4" ry="6.2"/>
		<ellipse class="st52" cx="136.1" cy="390.1" rx="29.4" ry="5.8"/>
		<ellipse class="st53" cx="136.1" cy="390.1" rx="27.3" ry="5.4"/>
	</g>
	<path id="ear2" class="st54" d="M168.6,129.5c0,0,5.6-50.9,11.1-53.4c5.5-2.5,41.5,0.6,39.8,17.2c-1,9.2-7.9,12.9-14.5,10.3
		c-6.1-2.4-16.2-18.4-19.2-17.3c-3.7,1.3-12.7,43.2-12.7,43.2H168.6z"/>
	<path id="ear1" d="M133.8,162.3c0,0-27.5-50.5-25.5-57.4c2-6.9,41-28.2,45.7-18.1c4.7,10.1,2.1,17.5-3.3,19.8
		c-5.2,2.2-31.4-4-32.4-0.2c-1,3.7,18.8,54,18.8,54L133.8,162.3z"/>
	<g id="leg2">
		<path class="st55" d="M94.2,334.5c0,0,0,22.6-1.3,32.1c-1.3,9.5-4.1,14.3-4.6,18.2c-0.4,3.2,1,8.5,5.9,9.1c6.1,0.8,11.3-4,11.3-4
			s3,5.2,8.9,5.2c4,0,4.9-4.8,4.9-4.8s1.7,4.3,7.1,4.4c5.3,0,6-4.2,6-4.2s2.3,3,6.3,0.9c3.8-2.1,4.1-10,0.5-16.7
			c-3.7-6.7-10.3-10.1-16.8-8.6c-7.6,1.7-11.4,12.3-17.2,11.4c-2.5-0.4-3.2-11.4-3.2-17c0-5.6,1.3-23.2,1.3-23.2L94.2,334.5z"/>
		<path class="st56" d="M126.3,374c0,0,5.4,4.1,6.7,9.2c1.1,4.3,0,8,0,8l-0.7-0.7c0,0,0.9-5.1-0.6-8.5
			C130.2,378.7,126.3,374,126.3,374z"/>
		<path class="st56" d="M119.9,391.5c0,0,0.4-4.9-0.5-7.3c-0.9-2.4-4.2-4.7-4.2-4.7s2.5,3.1,3.2,5.4c0.6,2.2,0.9,5.5,0.9,5.5
			L119.9,391.5z"/>
		<path class="st56" d="M106.5,383.3c0,0,0.5,2.3,0.4,4.3c-0.1,1.4-0.5,3.6-0.5,3.6l-0.9-1.3c0,0,0.6-1.5,0.7-2.7
			C106.3,386,106.5,383.3,106.5,383.3z"/>
	</g>
	<g id="leg1">
		<path class="st55" d="M154.9,333.7c0,0,0,21.4-1.2,30.5c-1.2,9.1-3.9,13.6-4.4,17.3c-0.4,3,0.9,8.1,5.6,8.7
			c5.8,0.8,10.7-3.8,10.7-3.8s2.8,4.9,8.4,4.9c3.8,0,4.6-4.5,4.6-4.5s1.6,4.1,6.7,4.2c5.1,0,5.7-4,5.7-4s2.2,2.9,5.9,0.8
			c3.6-2,3.9-9.5,0.5-15.8c-3.5-6.3-9.7-9.6-16-8.1c-7.2,1.7-10.9,11.7-16.3,10.9c-2.4-0.4-3-10.9-3-16.1c0-5.3,1.2-22,1.2-22
			L154.9,333.7z"/>
		<path class="st56" d="M185.3,371.2c0,0,5.2,3.9,6.4,8.8c1,4.1,0,7.6,0,7.6l-0.7-0.7c0,0,0.9-4.8-0.5-8
			C189.1,375.6,185.3,371.2,185.3,371.2z"/>
		<path class="st56" d="M179.3,387.8c0,0,0.4-4.6-0.5-6.9c-0.8-2.3-4-4.4-4-4.4s2.4,3,3,5.1c0.6,2.1,0.8,5.2,0.8,5.2L179.3,387.8z"
			/>
		<path class="st56" d="M166.5,380c0,0,0.5,2.2,0.4,4.1c-0.1,1.4-0.5,3.4-0.5,3.4l-0.9-1.2c0,0,0.6-1.4,0.7-2.6
			C166.4,382.6,166.5,380,166.5,380z"/>
	</g>
	<g id="body_1_">
		<path id="eyebrow" class="st57" d="M183.5,135.1c0,0,19-14.1,24.9-9.5c5.9,4.6,2.8,13,2.8,13l-27.2,7.2L183.5,135.1z"/>
		<path id="body1" class="st58" d="M235.1,254.7c20.1-3,42.2-40.5,42.2-40.5L252.7,177c0,0-16.2,2.9-25.3,0
			c-9.1-2.9-14.1-11.4-14.1-11.4L187.6,143c0,0,1.6-11.5-3.6-14.4c-5.2-2.9-17.5-4.4-30.9,7.1c-12.2,10.4-15.7,19.8-21.7,22.4
			c-3.5,1.5-15.3-5.5-32.9-2.4c-15.8,2.8-26.3,11.4-21.2,12.4c13.4,2.6,26.5,7.4,24.8,10.2c-1.7,2.9-11.8,1-25.3,7.9
			c-13.1,6.7-19.5,17-16,15.7c10.5-3.6,22.9-2.1,22.9,1s-7,3-14.1,11.2c-6.6,7.7-10.7,18.1-8.9,16.8c9.4-7.3,22.3-12.3,23.7-7.5
			c1.4,4.8-23.1,37-18.1,70.6c5,33.6,26,48,57.1,51.5c34.6,3.9,64.2-0.9,76.5-33c8.4-21.9-4.7-39.3-3.2-43.3
			c1.4-4.1,10,3.4,12.6-4.5c1.5-4.6-12.4-7.2-8.6-11.9C204.6,248,218.4,257.2,235.1,254.7z"/>
	</g>
	<path id="mounth" d="M160.2,218.7c0,0,8.4,16.6,17.4,23.6c9.6,7.6,22.5,12.2,22.5,12.2l1-2.1c0,0-13.6-4.4-22.2-11.5
		C168.6,232.3,160.2,218.7,160.2,218.7z"/>
	<path id="hand" class="st55" d="M102.3,252.8c0,0-15.2,36.2-17,38.6c-3.7,4.9-12.6-1.9-15.7,3.4c-2.1,3.7-1.9,11.9,2.2,13
		c5.1,1.4,10.8-8.8,13.6-5.2c2.8,3.6-8.5,6.3-8.9,11.7c-0.4,4.8,8.5,10.1,12.5,5.4c4-4.8-0.1-14.7,2.3-15.4
		c2.4-0.7,2.6,9.4,5.7,11.2c4.1,2.4,10,1.4,11-6.2c1.1-8.3-11.6-9.7-11.1-13.7c0.5-4.1,10.3-38.9,10.3-38.9L102.3,252.8z"/>
	<path id="tail" class="st59" d="M73.4,316.6c0,0-8.3,8.7-22.6,4.9c-20.5-5.5-19.4-26-8-27.9c6.6-1.1,11.5,5.1,11.5,5.1
		s7.3-13.4-1.1-24c-8.4-10.6-28.9-5.7-36.1,6.6c-8.4,14.3-0.8,25.1-1.4,27c-0.6,1.9-11.1-7-14.3-11.8c-1.3-1.9-4.4,12.4,7,23.8
		c8.7,8.7,19.4,10.3,18.9,12.2c-0.5,1.9-14,1.9-21-1c-1.6-0.7,6,13.7,22.9,14.1c14.8,0.4,25.8-12.1,26.7-10.3c1,1.7-1.8,7.7-4,9.7
		c-2.9,2.5,6,0.6,12.2-5.7c8.9-9.1,11-19.9,11-19.9L73.4,316.6z"/>
	<g id="nose">
		<circle cx="276.7" cy="186.6" r="30.4"/>
		
			<ellipse transform="matrix(0.9686 -0.2486 0.2486 0.9686 -33.6404 73.0126)" class="st60" cx="272.2" cy="169.7" rx="17.1" ry="7.6"/>
	</g>
	<ellipse id="belly" class="st56" cx="177.1" cy="320.2" rx="3.6" ry="3.4"/>
</g>
<g id="eyesopen_1_">
	<g id="eyesopen">
		<circle class="st61" cx="202.6" cy="150.8" r="16.8"/>
		<circle cx="209.3" cy="150.4" r="4.6"/>
		<circle class="st1" cx="177.6" cy="165.9" r="25"/>
		<path d="M192.7,160.2c0,3.2-2.6,5.7-5.7,5.7c-3.2,0-5.7-2.6-5.7-5.7s2.6-5.7,5.7-5.7C190.2,154.5,192.7,157,192.7,160.2z"/>
		<path class="st58" d="M217.4,165.9c-2.2-1.7-4.7-1.7-4.7-1.7s-17.9,2.4-24.4,6.9c-10,6.8-8.9,18-8.3,19.8c0.6,1.7,16.8,6.7,20.8,0
			c5.2-8.8,19.4-17.7,19.4-17.7S220.6,168.5,217.4,165.9z"/>
		<path class="st58" d="M146,192.7c0,0,2.5-7.1,9.2-10.1c5.9-2.7,23.6,5.3,24.8,8.3C181.5,194.2,146,192.7,146,192.7z"/>
	</g>
</g>
<g id="eysclosed">
	<g>
		<circle class="st57" cx="202.6" cy="150.5" r="17"/>
		<path class="st62" d="M217.8,143l0.8,1.9c0,0-7.7,1.6-15.3,5.5c-5.8,2.9-11.2,7.3-13.5,11.8l-1.1-1.5
			C188.6,160.7,193.9,146.8,217.8,143z"/>
		<circle class="st63" cx="177.1" cy="165.6" r="25.1"/>
		<path class="st62" d="M197.2,150.4l1.6,2.6c0,0-11.6,3.1-22.7,9.4c-8.4,4.8-16.1,11.6-19.1,18.4l-1.7-2.5
			C155.3,178.2,162,157.8,197.2,150.4z"/>
		<path class="st58" d="M216.9,166.3c-2.1-1.7-4.5-1.6-4.5-1.6s-17.4,2.3-23.7,6.7c-9.7,6.6-8.6,17.5-8,19.2
			c0.6,1.7,16.3,6.5,20.2,0c5.1-8.5,18.8-17.2,18.8-17.2S220,168.8,216.9,166.3z"/>
		<path class="st58" d="M148.2,192.7c0,0,2.4-6.8,8.9-9.8c5.7-2.6,22.9,5.2,24.1,8C182.6,194.2,148.2,192.7,148.2,192.7z"/>
	</g>
</g>
</svg>
