<?xml version="1.0" encoding="utf-8"?>
<!-- Generator: Adobe Illustrator 21.0.0, SVG Export Plug-In . SVG Version: 6.00 Build 0)  -->
<svg version="1.1" id="dog-language" xmlns="http://www.w3.org/2000/svg" xmlns:xlink="http://www.w3.org/1999/xlink" x="0px"
	 y="0px" viewBox="0 0 1003.3 744.6" style="enable-background:new 0 0 1003.3 744.6;" xml:space="preserve">
<g id="shadow">
	<ellipse style="fill:#FFFFFF;" cx="294.3" cy="705.6" rx="230.7" ry="38.9"/>
	<ellipse style="fill:#FDFDFD;" cx="294.3" cy="705.6" rx="227.2" ry="38.3"/>
	<ellipse style="fill:#FBFBFB;" cx="294.3" cy="705.6" rx="223.7" ry="37.7"/>
	<ellipse style="fill:#F9F9F9;" cx="294.3" cy="705.6" rx="220.1" ry="37.3"/>
	<ellipse style="fill:#F7F7F7;" cx="294.3" cy="705.6" rx="216.6" ry="36.7"/>
	<ellipse style="fill:#F5F5F5;" cx="294.3" cy="705.6" rx="213" ry="36"/>
	<ellipse style="fill:#F3F3F3;" cx="294.3" cy="705.6" rx="209.2" ry="35.4"/>
	<ellipse style="fill:#F1F1F1;" cx="294.3" cy="705.6" rx="205.6" ry="34.8"/>
	<ellipse style="fill:#EFEFEF;" cx="294.3" cy="705.6" rx="202.1" ry="34.1"/>
	<ellipse style="fill:#EDEDED;" cx="294.3" cy="705.6" rx="198.6" ry="33.5"/>
	<ellipse style="fill:#EBEBEB;" cx="294.3" cy="705.6" rx="195" ry="32.8"/>
	<ellipse style="fill:#E9E9E9;" cx="294.3" cy="705.6" rx="191.5" ry="32.5"/>
	<ellipse style="fill:#E7E7E7;" cx="294.3" cy="705.6" rx="187.9" ry="31.9"/>
	<ellipse style="fill:#E5E5E4;" cx="294.3" cy="705.6" rx="184.4" ry="31.2"/>
	<ellipse style="fill:#E3E3E2;" cx="294.3" cy="705.6" rx="180.5" ry="30.6"/>
	<ellipse style="fill:#E1E1E0;" cx="294.3" cy="705.6" rx="177" ry="29.9"/>
	<ellipse style="fill:#DFDFDE;" cx="294.3" cy="705.6" rx="173.5" ry="29.3"/>
	<ellipse style="fill:#DDDDDC;" cx="294.3" cy="705.6" rx="169.9" ry="28.6"/>
	<ellipse style="fill:#DBDBDA;" cx="294.3" cy="705.6" rx="166.4" ry="28"/>
	<ellipse style="fill:#D9D9D8;" cx="294.3" cy="705.6" rx="162.8" ry="27.4"/>
	<ellipse style="fill:#D7D7D6;" cx="294.3" cy="705.6" rx="159.3" ry="27"/>
	<ellipse style="fill:#D5D5D4;" cx="294.3" cy="705.6" rx="155.8" ry="26.4"/>
	<ellipse style="fill:#D3D3D2;" cx="294.3" cy="705.6" rx="151.9" ry="25.7"/>
	<ellipse style="fill:#D1D1D0;" cx="294.3" cy="705.6" rx="148.4" ry="25.1"/>
	<ellipse style="fill:#CFCFCE;" cx="294.3" cy="705.6" rx="144.8" ry="24.5"/>
	<ellipse style="fill:#CDCDCC;" cx="294.3" cy="705.6" rx="141.3" ry="23.8"/>
	<ellipse style="fill:#CACACA;" cx="294.3" cy="705.6" rx="137.7" ry="23.2"/>
	<ellipse style="fill:#C8C8C8;" cx="294.3" cy="705.6" rx="134.2" ry="22.5"/>
	<ellipse style="fill:#C6C6C6;" cx="294.3" cy="705.6" rx="130.7" ry="22.2"/>
	<ellipse style="fill:#C4C4C4;" cx="294.3" cy="705.6" rx="127.1" ry="21.6"/>
	<ellipse style="fill:#C2C2C2;" cx="294.3" cy="705.6" rx="123.3" ry="20.9"/>
	<ellipse style="fill:#C0C0C0;" cx="294.3" cy="705.6" rx="119.7" ry="20.3"/>
	<ellipse style="fill:#BEBEBE;" cx="294.3" cy="705.6" rx="116.2" ry="19.6"/>
	<ellipse style="fill:#BCBCBC;" cx="294.3" cy="705.6" rx="112.6" ry="19"/>
	<ellipse style="fill:#BABABA;" cx="294.3" cy="705.6" rx="109.1" ry="18.3"/>
	<ellipse style="fill:#B8B8B8;" cx="294.3" cy="705.6" rx="105.6" ry="17.7"/>
	<ellipse style="fill:#B6B6B6;" cx="294.3" cy="705.6" rx="102" ry="17.4"/>
	<ellipse style="fill:#B4B4B4;" cx="294.3" cy="705.6" rx="98.5" ry="16.7"/>
	<ellipse style="fill:#B2B2B2;" cx="294.3" cy="705.6" rx="94.6" ry="16.1"/>
	<ellipse style="fill:#B0B0AF;" cx="294.3" cy="705.6" rx="91.1" ry="15.4"/>
	<ellipse style="fill:#AEAEAD;" cx="294.3" cy="705.6" rx="87.5" ry="14.8"/>
	<ellipse style="fill:#ACACAB;" cx="294.3" cy="705.6" rx="84" ry="14.2"/>
	<ellipse style="fill:#AAAAA9;" cx="294.3" cy="705.6" rx="80.5" ry="13.5"/>
	<ellipse style="fill:#A8A8A7;" cx="294.3" cy="705.6" rx="76.9" ry="12.9"/>
	<ellipse style="fill:#A6A6A5;" cx="294.3" cy="705.6" rx="73.4" ry="12.2"/>
	<ellipse style="fill:#A4A4A3;" cx="294.3" cy="705.6" rx="69.8" ry="11.9"/>
	<ellipse style="fill:#A2A2A1;" cx="294.3" cy="705.6" rx="66" ry="11.3"/>
	<ellipse style="fill:#A0A09F;" cx="294.3" cy="705.6" rx="62.4" ry="10.6"/>
	<ellipse style="fill:#9E9E9D;" cx="294.3" cy="705.6" rx="58.9" ry="10"/>
	<ellipse style="fill:#9C9C9B;" cx="294.3" cy="705.6" rx="55.4" ry="9.3"/>
	<ellipse style="fill:#9A9A99;" cx="294.3" cy="705.6" rx="51.8" ry="8.7"/>
	<ellipse style="fill:#989897;" cx="294.3" cy="705.6" rx="48.3" ry="8"/>
</g>
<g id="text">
	<g>
		<g>
			<path style="fill:#A7A8AC;" d="M977.5,62.3c-11.3-45.4-37.7-52.1-71.4-56c-52.8-5.8-289.3-6.1-327-1.3
				c-29.9,3.5-49.6,23.5-62.4,60.5c-10.6,30.6-34.8,80.1-38,103c-4.5,29.6,1.9,74,48.3,86.2c41.2,10.9,83.3,13.5,163.8,20
				c51.2,4.2,74.3,7.7,61.5,22.2c-17.4,19.6-91.1,49.9-75,51.5c51.5,5.5,109.7-2.3,147.4-12.6c26.1-7.1,52.1-20,69.2-37.3
				c39.3,4.8,36.4,6.8,47.6,6.4c36.4-0.3,55.4-21.9,60.8-53.1C1008.7,216.2,984.3,90,977.5,62.3z"/>
			<path style="fill:#FFFFFF;" d="M980.4,61c-10.9-44.7-39.9-53.1-73.1-56.6c-51.8-5.5-283.5-5.8-320.5-1.3
				c-29.3,3.5-48.6,23.2-61.5,59.9c-10.6,29.9-33.8,78.2-37.3,100.4c-4.2,29,1.9,73.1,47.3,85c40.5,10.6,81.7,13.2,160.9,19.6
				c50.2,3.9,73.1,7.7,60.5,21.9c-17.1,19.3-89.5,49.9-73.7,50.8c46.7,3.2,111-3.2,147.4-14.5c26.1-8,48.6-18,65.3-35.1
				c38.6,4.8,35.4,6.4,46.3,6.4c35.7-0.3,51.2-23.5,57.3-54.1C1006.8,205.5,987.2,88.4,980.4,61z"/>
		</g>
		<path style="fill:#FFFFFF;stroke:#B8D432;stroke-width:1.5;stroke-miterlimit:10;" d="M964.9,69.7c-10.3-42.2-37.3-49.9-68.9-53.4
			c-48.6-5.1-264.5-5.5-299.3-1c-27.7,3.5-45.7,21.9-57.6,56c-10,28.3-30.9,68.9-34.1,90.1c-4.2,27.4,1.6,68.5,44.4,80.1
			c38,10,110.1,15.8,184.4,21.9c47,3.9,57,9,45.4,22.2c-16.1,18-81.1,47.3-61.1,45.7c35.1-2.6,71.4-6.8,109.1-18.7
			c20.9-6.8,45.4-17.1,61.5-33.1c36.4,4.5,31.2,6.1,41.5,5.8c33.5-0.3,47.6-19.3,53.4-48.3C990.4,201.4,971.1,95.5,964.9,69.7z"/>
	</g>
	<g>
		<path d="M599.7,101h-3.9c-0.6,0-1.6,0-2.6-0.3c-1,0-1.6-0.6-1.9-1.3c0-4.5,0-9.3,0.3-14.5l2.3-30.6c0-0.6,0.3-1,1-1.3
			c0.6-0.3,1.6-0.3,2.6-0.3s1.6,0.3,2.6,1c0.6,0.6,1,1.3,1,1.9c-0.3,1.6-1,5.8-1.9,12.2c-1,6.4-1.6,12.2-1.9,16.4
			c-0.3,4.2-0.3,8,0,11.6c0,0,0.6,0,1.3,0s2.9,0,6.1-0.3c3.2-0.3,5.5-0.3,6.4-0.3c2.3,0,3.5,1,3.2,2.6c0,1.3-0.6,2.3-2.3,2.9
			c-1.6,0.6-2.9,0.6-4.2,0.6c-1.3,0-2.6,0-3.2,0L599.7,101z"/>
		<path d="M640.6,71.7c2.3,1.6,3.5,3.5,3.2,5.8c0,2.3-1.3,4.2-3.9,6.4c-2.3,1.9-5.1,3.2-8.4,3.5c-0.3,0-0.6,0-0.6,0
			c-0.3,0-0.3,0-0.6,0c-0.3,0-0.6,0-0.6,0s-0.3,0-0.6,0c-0.3,0-0.6,0-0.6,0s-0.3,0-1,0c-0.3,0-0.6,0-0.6,0c0.3,3.9,1,6.4,1.9,7.7
			c1.3,1.3,2.6,1.9,3.5,1.9c2.6,0,4.8-0.6,7.1-2.6c2.3-1.9,3.9-2.9,4.8-2.9c0.3,0,1,0.3,1.6,1.3c0.6,0.6,1.3,1.6,1,2.3
			c0,0.6-0.6,1.6-1.6,2.6s-1.9,1.9-3.5,2.9c-1.3,1-2.9,1.9-5.1,2.6c-1.9,0.6-3.9,1-5.5,1c-1.6,0-3.2-0.6-4.2-1.3
			c-2.3-1.6-3.9-4.2-4.8-7.4c-1-3.5-1.3-7.1-1.3-10.6c0.3-3.9,1.3-7.1,2.9-10c1.9-3.2,5.1-4.8,9.7-4.5
			C635.7,69.1,638,70.1,640.6,71.7z M637.3,77.1c0-1.9-1.3-3.2-3.9-3.2c-1.9,0-3.5,1-4.8,2.9c-0.3,0.6-1,1.3-1,2.3
			c-0.3,1-0.3,1.6-0.6,2.6C633.5,82.3,637,80.7,637.3,77.1z"/>
		<path d="M663.4,54.3l-1,9c0,0.6,0,2.9,0,7.1c2.9,0.3,5.8,0.3,8.7,0.3c1.6,0.3,2.3,1.3,1.9,2.6c0,1.3-0.6,2.3-1.6,2.9
			c-1,0.6-1.9,0.6-2.9,0.6s-1.6,0-2.3,0s-1.3,0-1.9,0c-1,0-1.3,0-1.9,0c0,0.3,0,1.9,0,4.2s0,3.9,0,4.5c0,6.8,0.3,12.2,0.6,16.4
			c-0.3,1-0.6,1.6-1.6,2.3c-0.6,0.6-1.6,1-2.3,1c-1,0-1.6-0.6-1.9-1.9c-0.6-4.5-0.6-9.7-0.6-15.8s0-9.7,0-10.9c-0.6,0-1.9,0-3.5,0
			c-1.6,0-3.2-0.3-4.2-0.6c-1.3-0.3-1.6-1-1.6-2.3c0-2.6,1.6-3.5,4.5-3.5l3.5,0.3c0.6,0,1,0,1.3,0c0-4.8,0-7.4,0-7.7
			c0-0.3,0-1,0.3-2.3c0-1.3,0.3-2.9,0.6-5.1c0.3-1,0.6-1.6,1.6-1.9c0.6-0.6,1.6-0.6,2.3-0.6C662.4,52,663.1,53,663.4,54.3z"/>
		<path d="M679.2,52c0.3-0.6,0.6-1.3,1-1.6c0.6-0.3,1-0.6,1.6-0.6c1,0,1.9,1,2.6,2.3c0,2.3-0.6,4.2-1.3,6.1
			c-1.3,3.9-2.9,5.5-4.8,5.5c-1.6,0-2.3-1-2.3-2.6c0-0.6,0-1,0.3-1.6c1-1,1.6-1.9,1.9-3.2C678.9,55.3,679.2,53.6,679.2,52z"/>
		<path d="M703.3,72.3c1.9,0,3.5,0.6,5.5,1.3c3.5,1.3,5.1,2.9,5.1,4.8c0,1-0.3,1.6-1.3,1.9c-0.6,0.3-1.6,0.6-2.6,0.6
			c-0.3,0-1.3-0.6-3.2-1.6c-1.9-1-3.5-1.6-4.8-1.6s-2.3,0.3-3.5,1c-1,0.6-1.6,1.6-1.6,2.6c0,1,0.3,1.9,0.6,2.9
			c0.6,1,1.3,1.3,2.3,1.9c1,0.3,1.9,0.6,3.2,1c3.2,1,5.5,1.6,6.4,2.3c2.3,1.3,3.2,3.2,2.9,6.4c-0.3,2.9-1.6,5.8-3.9,7.7
			c-2.6,2.3-4.8,3.2-7.4,3.2c-2.6,0-4.8-0.6-6.4-1.3c-2.9-1.3-4.5-2.9-4.2-4.5c0-1.6,1.3-2.6,3.2-2.3c1,0,2.3,0.6,4.2,1.6
			c1.6,1,3.2,1.6,4.2,1.6c1.3,0,2.3-0.6,3.2-1.9c1-1.3,1.6-2.9,1.6-4.2c0-0.3,0-0.6,0-1.3c-1.3-1.3-3.9-2.6-7.7-3.2
			c-1.3-0.3-2.6-0.6-3.9-1.3c-2.9-1.3-4.2-3.9-3.9-8c0.3-2.9,1.3-5.1,3.5-6.8C697.5,73,700.4,72.3,703.3,72.3z"/>
		<path d="M748.4,74.9c1.9,0,3.5,0.6,5.5,1.3c3.5,1.3,5.1,2.9,5.1,4.8c0,1-0.3,1.6-1.3,1.9c-0.6,0.3-1.6,0.6-2.6,0.6
			c-0.3,0-1.3-0.6-3.2-1.6c-1.9-1-3.5-1.6-4.8-1.6s-2.3,0.3-3.5,1c-1,0.6-1.6,1.6-1.6,2.6c0,1,0.3,1.9,0.6,2.9
			c0.6,1,1.3,1.3,2.3,1.9c1,0.3,1.9,0.6,3.2,1c3.2,1,5.5,1.6,6.4,2.3c2.3,1.3,3.2,3.2,2.9,6.4c-0.3,2.9-1.6,5.8-3.9,7.7
			c-2.6,2.3-4.8,3.2-7.4,3.2c-2.6,0-4.8-0.6-6.4-1.3c-2.9-1.3-4.5-2.9-4.2-4.5c0-1.6,1.3-2.6,3.2-2.3c1,0,2.3,0.6,4.2,1.6
			c1.6,1,3.2,1.6,4.2,1.6c1.3,0,2.3-0.6,3.2-1.9c1-1.3,1.6-2.9,1.6-4.2c0-0.3,0-0.6,0-1.3c-1.3-1.3-3.9-2.6-7.7-3.2
			c-1.3-0.3-2.6-0.6-3.9-1.3c-2.9-1.3-4.2-3.9-3.9-8c0.3-2.9,1.3-5.1,3.5-6.8C742.6,75.5,745.2,74.6,748.4,74.9z"/>
		<path d="M768.6,108l-1.3,21.9c-0.3,1-1,1.6-1.6,2.3c-0.6,0.6-1.6,1-2.3,1c-1.3,0-1.9-1-1.6-2.6l1.6-25.1l1.3-25.7
			c0.3-1.3,0.6-1.9,1-2.6c0.3-0.6,1-1,1.9-0.6c1,0,1.6,0.3,1.9,0.6c0.3,0.3,0.6,1.6,0.6,3.5c0.3-1,1-1.6,2.3-2.6
			c1.3-1,3.2-1.3,5.8-1c2.6,0,4.5,0.6,6.4,1.9c1.9,1.3,3.2,2.6,4.2,4.5c1.6,3.5,2.6,7.7,2.3,12.6c-0.3,4.8-1.9,8.7-4.8,11.3
			c-2.9,2.6-7.1,3.9-11.9,3.5c-1.6,0-3.2-0.6-4.5-1.9C769,108.4,768.6,108,768.6,108z M776.7,82.3c-1.9,0-3.5,1-4.8,2.3
			s-1.9,2.6-1.9,3.9l-0.6,13.5c0,0,0.3,0.3,1,0.6c1.3,1.3,2.9,1.9,4.5,2.3c6.8,0.3,10.3-2.9,10.6-10c0.3-6.1-1-9.7-3.9-11.6
			C779.9,82.9,778.3,82.6,776.7,82.3z"/>
		<path d="M815.6,81.3c2.3,1.6,3.5,3.5,3.2,5.8c0,2.3-1.3,4.2-3.9,6.4c-2.3,1.9-5.1,3.2-8.4,3.5c-0.3,0-0.6,0-0.6,0
			c-0.3,0-0.3,0-0.6,0s-0.6,0-0.6,0c-0.3,0-0.3,0-0.6,0s-0.6,0-0.6,0s-0.3,0-1,0c-0.3,0-0.6,0-0.6,0c0.3,3.9,1,6.4,1.9,7.7
			c1.3,1.3,2.6,1.9,3.5,1.9c2.6,0,4.8-0.6,7.1-2.6c2.3-1.9,3.9-2.9,4.8-2.9c0.3,0,1,0.3,1.6,1.3c0.6,1,1.3,1.6,1,2.3
			c0,0.6-0.6,1.6-1.6,2.6c-1,1-1.9,1.9-3.5,2.9c-1.3,1-2.9,1.9-5.1,2.6c-1.9,0.6-3.9,1-5.5,1c-1.6,0-3.2-0.6-4.2-1.3
			c-2.3-1.6-3.9-4.2-4.8-7.4c-1-3.5-1.3-7.1-1.3-10.6c0.3-3.9,1.3-7.1,2.9-10c1.9-3.2,5.1-4.8,9.7-4.5
			C810.8,78.7,813.4,79.7,815.6,81.3z M812.4,87.1c0-1.9-1.3-3.2-3.9-3.2c-1.9,0-3.5,1-4.8,2.9c-0.3,0.6-1,1.3-1,2.3
			c-0.3,1-0.3,1.6-0.6,2.6C808.9,91.9,812.1,90.3,812.4,87.1z"/>
		<path d="M830.4,87.4c-0.6,11.9,0.3,19,2.9,20.9l0,0c1.6-0.3,3.2-1,4.8-1.9c1.6-1,2.6-1.9,2.9-2.6c-0.6-4.5-0.6-10.6-0.3-18.7
			s1.3-14.8,2.9-20c0.3-1,1-1.9,2.3-2.3c0.3-0.3,1-0.3,1.3-0.3c1.3,0,2.3,1,2.3,2.6c-1.3,7.1-2.3,12.2-2.6,14.8
			c-0.3,2.6-0.6,5.8-1,9c-0.3,3.2-0.3,6.1-0.3,8.4c0,2.3,0.3,4.5,1,7.1s1.3,4.2,2.3,5.1h0.3c0.6,0,1.6-0.6,2.3-1.6s1.6-1.6,2.3-2.3
			c0.6-0.6,1.3-1,1.9-1c1.6,0,2.3,1.6,1.9,4.2c0,1.6-1,2.9-2.9,4.5c-1.9,1.6-4.2,2.3-6.4,1.9c-2.9,0-4.8-1.6-5.8-4.8
			c-1,1.3-2.3,1.9-4.2,2.9c-1.9,0.6-3.5,1-4.8,1c-1.3,0-2.3-0.3-2.9-0.6c-0.6-0.3-1.3-0.6-1.6-1c-0.3-0.3-1-1-1.3-1.6
			c-0.6-1.3-1.3-2.6-1.6-3.5c-1-3.9-1.3-7.7-1.3-11.3s0-8.7,0.3-15.1c0.3-6.4,1.3-11.9,2.6-17.1c0.3-0.6,0.6-1.3,1.3-1.9
			c0.6-0.6,1.6-0.6,2.3-0.6c1.3,0,1.9,1,2.3,2.6c-1.3,6.8-1.9,11.6-2.6,14.5C831.1,81,830.8,84.2,830.4,87.4z"/>
		<path d="M884.8,87.8l-0.3,4.8l-1,16.4c0,2.3-0.3,3.9-0.3,5.1c-0.3,1-0.6,1.6-1.3,2.3c-0.6,0.6-1.3,1-2.3,1c-1,0-1.6-0.6-1.9-1.9
			c0-1.3,0-3.2,0-5.5c0-2.3,0-5.1,0-8.4s0-6.4,0.3-9.7s0.3-6.1,0.6-8.4c0-1,0.6-1.3,1.9-1.3C883.5,82,884.8,83.9,884.8,87.8z
			 M879.7,68.8c0.6-0.6,1.3-1,1.6-1s0.6,0,1,0c2.3,0.6,3.5,1.3,3.9,2.6c0.3,0.6,0.3,1.3,0.3,2.3s-0.6,1.9-1.3,3.2
			c-0.6,1.3-1.9,1.6-2.9,1.6s-1.9-0.6-2.6-1.6s-1-2.3-1-3.9C878.7,70.1,879,69.1,879.7,68.8z"/>
		<path d="M913.1,116.1l0.3-3.9c0-0.6,0-1.3,0-2.3c0-1,0-1.9,0-3.2c0-1.3,0-2.6,0-3.9c0-1.3,0-2.6-0.3-3.5c-0.3-2.3-0.6-4.2-1.3-5.8
			s-1.9-2.3-3.2-2.6c-1.3,0-2.3,0-3.2,0.6c-1,0.3-1.6,1-1.9,1.9c-1.3,1.9-1.9,3.9-2.3,6.1c-0.3,2.3-0.6,4.5-0.6,7.1l-0.6,8
			c0,1-0.3,1.9-1.3,2.3c-0.6,0.6-1.6,0.6-2.6,0.6c-1.3,0-1.9-1-1.6-2.6c0.3-4.2,0.3-9,0.3-15.1c0-5.8,0.3-10.9,0.3-14.8
			c0.3-1,0.6-1.6,1.3-2.3c0.6-0.6,1.3-1,1.6-1c0.6,0,1,0,1.3,0.3c0.3,0,0.6,0.3,0.6,0.3c0.3,0.3,0.3,0.3,0.3,0.6
			c0,0.3,0.3,0.6,0.3,1c0,0.3,0,1,0,1c0,0.3,0,0.6,0,1.3c0,0.6,0,1.3,0,1.6c2.9-3.2,6.1-4.8,10.3-4.5c2.9,0,4.8,1.6,5.8,4.2
			c1.9,3.9,2.6,9.7,1.9,17.1l-0.3,6.8c0,1.9-0.3,3.2-0.6,3.5c-0.3,0.6-0.6,1-1,1.6c-0.6,1-1.6,1.3-2.9,1.3
			C913.5,118.7,913.1,117.7,913.1,116.1z"/>
		<path d="M551.1,154.1c1.9-1,3.9-1.3,6.1-1.3c2.3,0,4.2,1.3,6.1,3.2c3.2,3.9,4.8,8.7,4.5,15.1c-0.3,3.2-1.3,6.8-3.2,10.3
			c-1,1.6-2.3,2.9-3.9,4.2c-1.6,1-3.2,1.6-5.5,1.3c-2.3-0.3-3.9-0.6-5.8-1.9c-1.9-1.3-3.2-2.9-4.5-4.5c-2.3-3.9-3.5-7.4-3.2-10.6
			c0.3-4.5,1.9-8.4,4.5-11.9C547.6,156.3,549.2,155,551.1,154.1z M556.9,181.7c1.6-0.6,2.6-1.9,3.5-3.5s1.3-3.5,1.3-5.1
			c0-1.9,0-3.5,0-4.8c-0.3-1.3-0.3-2.9-1-4.2c-0.3-1.3-1.3-2.6-1.9-3.5c-1-1-1.9-1.6-3.2-1.9c-2.3,0.3-4.2,1.3-5.5,3.5
			c-1.6,1.9-2.3,4.2-2.6,6.1c0,2.3,0.6,4.8,2.3,8c0.6,1.6,1.9,2.6,3.2,3.9C554,181.1,555.3,181.7,556.9,181.7z"/>
		<path d="M586.5,138.3l-1,9c0,0.6,0,2.9,0,7.1c2.9,0.3,5.8,0.3,8.7,0.3c1.3,0.3,2.3,1.3,1.9,2.6c0,1.3-0.6,2.3-1.6,2.9
			c-1,0.6-1.9,0.6-2.9,0.6c-1,0-1.6,0-2.3,0s-1.3,0-1.9,0c-0.6,0-1.3,0-1.9,0c0,0.3,0,1.9,0,4.2s0,3.9,0,4.5
			c0,6.8,0.3,12.2,0.6,16.4c-0.3,1-0.6,1.6-1.6,2.3c-0.6,0.6-1.6,1-2.3,1c-1,0-1.6-0.6-1.9-1.9c-0.6-4.5-0.6-9.7-0.6-15.8
			s0-9.7,0-10.9c-0.6,0-1.9,0-3.5,0c-1.6,0-3.2-0.3-4.2-0.6c-1.3-0.3-1.6-1-1.6-2.3c0-2.6,1.6-3.5,4.5-3.5l3.5,0.3c0.6,0,1,0,1.3,0
			c0-4.8,0-7.4,0-7.7c0-0.3,0-1,0.3-2.3c0-1.3,0.3-2.9,0.6-5.1c0.3-1,0.6-1.6,1.6-1.9c0.6-0.6,1.6-0.6,2.3-0.6
			C585.9,136,586.5,137,586.5,138.3z"/>
		<path d="M623.8,172.7c-0.3,2.9-0.3,6.1-1,9c-0.3,2.9-0.6,4.8-1,5.8c0,1-0.6,1.6-1.6,2.3c-1,0.6-1.6,1-2.3,0.6
			c-1.3,0-1.9-0.6-1.9-1.9v-0.3l1.3-12.9l0.3-3.9c0.3-4.5-0.6-7.4-2.6-8.7c-1-0.6-1.9-1-3.2-1c-3.9-0.3-6.1,1.3-6.1,4.5
			c-0.3,3.5-0.3,6.8-0.3,9.3c0,2.6,0,4.8,0,6.4c0,1.9-0.3,3.5-0.3,5.1l-0.3-0.3c-0.3,0.6-0.6,1.3-1.6,1.9c-0.6,0.6-1.6,0.6-2.3,0.6
			c-1.3,0-1.9-0.6-2.3-1.9h-0.3c0.3-7.4,0.6-15.4,0.3-24.1c0-8.7,0-16.7,0.3-23.8c0.3-1,1-1.9,2.3-2.6c0.3-0.3,1-0.3,1.6-0.3
			s1,0.3,1.6,1c0.3,0.6,0.6,1.6,0.6,2.9c0,1.3,0,2.9,0,4.2s0,3.2-0.3,5.8c0,2.3,0,4.5,0,6.4c2.6-1.3,4.8-1.6,7.4-1.6
			c2.3,0,4.2,0.6,5.5,1.3c2.6,1.3,4.2,3.5,4.8,6.8C623.5,166.6,623.8,169.8,623.8,172.7z"/>
		<path d="M648.9,160.2c2.3,1.6,3.5,3.5,3.2,5.8c0,2.3-1.3,4.2-3.9,6.4c-2.3,1.9-5.1,3.2-8.4,3.5c-0.3,0-0.6,0-0.6,0
			c-0.3,0-0.3,0-0.6,0c-0.3,0-0.6,0-0.6,0c-0.3,0-0.3,0-0.6,0c-0.3,0-0.6,0-0.6,0s-0.3,0-0.6,0c-0.3,0-0.6,0-1,0
			c0.3,3.9,1,6.4,1.9,7.7c1.3,1.3,2.6,1.9,3.5,1.9c2.6,0,4.8-0.6,7.1-2.6c2.3-1.9,3.9-2.9,4.8-2.9c0.3,0,1,0.3,1.6,1.3
			c0.6,0.6,1.3,1.6,1,2.3c0,0.6-0.6,1.6-1.6,2.6c-1,1-2.3,1.9-3.5,2.9c-1.3,1-2.9,1.9-5.1,2.6c-1.9,0.6-3.9,1-5.5,1
			c-1.6,0-3.2-0.6-4.2-1.3c-2.3-1.6-3.9-4.2-4.8-7.4c-1-3.5-1.3-7.1-1.3-10.6c0.3-3.9,1.3-7.1,2.9-10c1.9-3.2,5.1-4.8,9.7-4.5
			C644.1,157.9,646.7,158.6,648.9,160.2z M645.7,166c0-1.9-1.3-3.2-3.9-3.2c-1.9,0-3.5,1-4.8,2.9c-0.3,0.6-1,1.3-1,2.3
			c-0.3,1-0.3,1.6-0.6,2.6C642.2,170.8,645.7,169.5,645.7,166z"/>
		<path d="M660.2,183.7l0.3-2.3c0.3-2.9,0-6.4,0-10c-0.3-3.5-0.6-6.4-1-8c-0.3-1.9-0.6-2.9-0.6-3.5c0-0.3,0.3-1,1-1.3
			c0.6-0.3,1.3-0.6,2.3-0.6s1.6,0.3,1.9,1s0.6,1.3,1,1.9c0,0.6,0,1.6,0.3,2.6c0,1,0,1.9,0,2.3c1.3-2.9,3.5-4.8,6.8-6.1
			c1.6-0.6,3.2-0.6,5.1-0.6c3.9,0.3,6.1,1.3,5.8,3.5c0,1.3-0.6,2.3-2.3,2.9c-0.6,0.3-1,0.3-1.6,0.3l-2.3-0.3
			c-6.1-0.3-9.7,5.5-10.3,17.7l-0.3,6.8l0,0c-0.3,1-0.6,1.6-1.6,2.3c-0.6,0.6-1.6,1-2.3,1c-1,0-1.6-1-1.9-2.9
			S660.2,186.2,660.2,183.7z"/>
		<path d="M704.6,176.9c0-2.6,0.3-4.8,0.3-6.8s0-3.5,0-4.5c0-1.3,0.3-4.2,0.3-9.3c0.3-5.1,0.6-8.4,0.6-9.7s0.3-2.3,1-2.6
			c0.6-0.6,1.3-1,2.6-0.6c1.6,0,2.6,1,2.9,2.6c-0.6,4.5-1.3,13.2-2.3,26.1c-0.6,9.7,0.3,15.4,2.3,17.4c0.6,0,1.3-0.6,1.9-1.3
			c0.6-0.6,1.3-1.6,1.9-2.3c0.6-0.6,1.3-1,1.9-1c0.6,0,1.3,0.3,1.9,1.3c0.3,0.6,0.6,1.9,0.6,3.2c0,1.6-1,2.9-2.6,4.5
			c-1.6,1.6-3.5,2.3-5.8,1.9c-4.2-0.3-6.4-3.9-7.4-11.3C704.6,182,704.6,179.5,704.6,176.9z"/>
		<path d="M749.7,170.1l-0.3,5.1c0,1.9-0.3,4.5-1,7.4c0,5.1,0.3,10,1,14.2c-0.3,0.6-0.6,1-1.3,1.3s-1.3,0.3-1.9,0.3
			c-0.6,0-1.3-0.3-1.6-0.3c-0.3-0.3-0.6-0.6-1-1c0-0.3-0.3-0.6-0.3-1s0-0.6,0-1.3c0-0.6,0-1,0-1c-2.6,2.3-5.5,3.2-9.3,3.2
			c-3.5-0.3-6.1-1.6-7.7-4.5c-1.6-2.9-1.9-6.8-1.6-11.9c0.6-8.7,3.2-14.2,8.4-16.4c1.6-0.6,3.5-1,5.5-0.6c1.9,0,3.9,0.6,5.8,1.3
			c0.6-1,1.6-1.3,2.6-1.3c1.9,0,2.9,1.6,2.9,4.8C749.7,168.9,749.7,169.5,749.7,170.1z M741.6,187.2c1-2.6,1.6-5.5,1.9-8.7
			s0-5.5-0.6-6.8c-0.6-1.6-1.9-2.3-3.9-2.3c-0.6,0-1.9,0-2.9,0c-1.3,0-2.6,1-3.5,3.2c-1.3,1.9-1.9,3.5-1.9,5.1l-0.3,2.9
			c-0.3,5.1,0.6,8.4,2.6,10c0.6,0.3,1.3,0.6,2.6,0.6c1,0,2.3-0.3,3.5-1.3C740,189.4,741,188.5,741.6,187.2z"/>
		<path d="M777.7,196.9l0.3-3.9c0-0.6,0-1.3,0-2.3s0-1.9,0-3.2s0-2.6,0-3.9c0-1.3,0-2.6-0.3-3.5c-0.3-2.3-0.6-4.2-1.3-5.8
			c-0.6-1.6-1.9-2.3-3.2-2.6c-1.3,0-2.3,0-3.2,0.6c-1,0.3-1.6,1-2.3,1.9c-1.3,1.9-1.9,3.9-2.3,6.1c-0.3,2.3-0.6,4.5-0.6,7.1l-0.6,8
			c0,1-0.3,1.9-1.3,2.3c-0.6,0.6-1.6,0.6-2.6,0.6c-1.3,0-1.9-1-1.6-2.6c0.3-4.2,0.3-9,0.3-15.1c0-5.8,0.3-10.9,0.3-14.8
			c0.3-1,0.6-1.6,1.3-2.3s1.3-1,1.6-1c0.6,0,1,0,1.3,0.3c0.3,0,0.6,0.3,0.6,0.3c0.3,0.3,0.3,0.3,0.3,0.6c0,0.3,0.3,0.6,0.3,1
			s0,1,0,1c0,0.3,0,0.6,0,1.3c0,0.6,0,1.3,0,1.6c2.9-3.2,6.1-4.8,10.3-4.5c2.6,0,4.8,1.6,5.8,4.2c1.9,3.9,2.6,9.7,1.9,17.1l-0.3,6.8
			c0,1.9-0.3,3.2-0.6,3.5c-0.3,0.6-0.6,1-1,1.6c-0.6,1-1.6,1.3-2.9,1.3C778,199.1,777.3,198.5,777.7,196.9z"/>
		<path d="M815.6,205.9l-0.3,5.8c0,2.6-0.3,4.2-1,5.5c-1.3,2.6-2.6,4.2-4.2,5.1c-2.3,1.3-4.8,1.6-8.4,1.6s-6.4-1.3-9.3-3.2
			c-1.6-1-2.3-1.9-2.3-2.9s0.3-1.9,1-2.3c0.6-0.3,1.3-0.6,2.3-0.6c1,0,2.3,0.6,4.5,1.9c2.3,1.3,4.2,1.9,5.8,1.9
			c3.5,0.3,5.5-2.6,5.8-8s0.3-9.7,0.3-12.2c-1.9,1.9-4.2,2.9-6.8,2.6c-2.6-0.3-4.8-1-6.8-2.9c-3.9-3.2-5.8-8.4-5.5-14.8
			s2.9-11.3,7.7-14.2c2.6-1.6,5.1-2.3,8.4-1.9c4.2,0.3,6.8,2.3,8,6.4c1,3.2,1.3,7.4,1.3,12.2c0,1,0,2.6-0.3,4.8
			c0,2.3-0.3,4.5-0.3,6.4c0,2.3,0,3.9,0,5.5C816,203.9,816,205.2,815.6,205.9z M810.8,186.6c0.6-9.3-1.6-13.8-6.1-14.2
			c-2.3,0-3.9,1-5.5,2.9c-1.6,1.9-2.3,4.5-2.6,7.7s0.3,5.5,1.6,7.7c1.3,2.3,3.2,3.2,5.8,3.2c2.9,0,4.5-0.3,5.1-1.6
			C810.2,190.7,810.5,189.1,810.8,186.6z"/>
		<path d="M840.7,197.5c-3.5,3.2-7.1,4.8-10.6,4.8c-1.6,0-3.2-0.6-4.2-2.3c-1.3-1.3-1.9-2.9-2.6-5.1c-1-4.2-1.6-8-1.3-11.6
			c0.3-3.5,0.6-8,1.3-12.9c0.3-1,0.6-1.6,1.3-1.9c0.6-0.6,1.3-0.6,1.9-0.6c1.3,0,2.3,1,2.3,2.3c-0.3,3.2-0.6,6.4-1,9.7
			c-0.3,3.2-0.3,5.5-0.3,6.8c0,3.5,1,7.1,2.9,10.9c1.9-0.3,3.9-1,5.5-2.3c1.6-1.3,3.2-2.6,4.2-4.2c-0.3-7.1,0-13.2,0-18
			c0-1,0.3-1.9,1.3-2.6c0.6-0.6,1.6-1,2.6-1s1.6,0.6,2.3,2.3c0,2.3-0.3,8-0.3,16.7c0,1.3,0.3,3.5,0.6,6.8s0.6,5.5,0.3,6.1
			c0,0.6-0.3,1.6-1.3,2.3c-0.6,0.6-1.6,1-2.6,1s-1.6-0.6-1.9-1.9L840.7,197.5z"/>
		<path d="M878.4,177.2l-0.3,5.1c0,1.9-0.3,4.5-1,7.4c0,5.1,0.3,10,1,14.2c-0.3,0.6-0.6,1-1.3,1.3c-0.6,0.3-1.3,0.3-1.9,0.3
			c-0.6,0-1.3-0.3-1.6-0.3c-0.3-0.3-0.6-0.6-1-1c0-0.3-0.3-0.6-0.3-1c0-0.3,0-0.6,0-1.3c0-0.6,0-1,0-1c-2.6,2.3-5.5,3.2-9.3,3.2
			c-3.9,0-6.1-1.6-7.7-4.5c-1.3-2.9-1.9-6.8-1.6-11.9c0.6-8.7,3.2-14.2,8.4-16.4c1.6-0.6,3.5-1,5.5-0.6c1.9,0,3.9,0.6,5.8,1.3
			c0.6-1,1.6-1.3,2.6-1.3c1.9,0,2.9,1.6,2.9,4.8C878.4,175.9,878.4,176.6,878.4,177.2z M870,194.3c1-2.6,1.6-5.5,1.9-8.7
			c0.3-3.2,0-5.5-0.6-6.8c-0.6-1.6-1.9-2.3-3.9-2.3c-0.6,0-1.9,0-2.9,0c-1.3,0-2.6,1-3.5,3.2c-1.3,1.9-1.9,3.5-1.9,5.1l-0.3,2.9
			c-0.3,5.1,0.6,8.4,2.6,10c0.6,0.3,1.3,0.6,2.6,0.6c1,0,2.3-0.3,3.5-1.3C868.7,196.5,869.7,195.6,870,194.3z"/>
		<path d="M911.2,211.3l-0.3,5.8c0,2.6-0.3,4.2-1,5.5c-1.3,2.6-2.6,4.2-4.2,5.1c-2.3,1.3-4.8,1.6-8.4,1.6s-6.4-1.3-9.3-3.2
			c-1.6-1-2.3-1.9-2.3-2.9s0.3-1.9,1-2.3s1.3-0.6,2.3-0.6c1,0,2.3,0.6,4.5,1.9c2.3,1.3,4.2,1.9,5.8,1.9c3.5,0.3,5.5-2.6,5.8-8
			s0.3-9.7,0.3-12.2c-1.9,1.9-4.2,2.9-6.8,2.6c-2.6-0.3-4.8-1-6.8-2.9c-3.9-3.2-5.8-8.4-5.5-14.8c0.3-6.4,2.9-11.3,7.7-14.2
			c2.6-1.6,5.1-2.3,8.4-1.9c4.2,0.3,6.8,2.3,8,6.4c1,3.2,1.3,7.4,1.3,12.2c0,1,0,2.6-0.3,4.8c0,2.3-0.3,4.5-0.3,6.4
			c0,2.3,0,3.9,0,5.5C911.5,209.1,911.5,210.4,911.2,211.3z M906.4,192c0.6-9.3-1.6-13.8-6.1-14.2c-2.3,0-3.9,1-5.5,2.9
			s-2.3,4.5-2.6,7.7c-0.3,3.2,0.3,5.5,1.6,7.7s3.2,3.2,5.8,3.2c2.9,0,4.5-0.3,5.1-1.6C905.7,196.2,906.1,194.3,906.4,192z"/>
		<path d="M938.9,176.3c2.3,1.6,3.5,3.5,3.2,5.8c0,2.3-1.3,4.2-3.9,6.4c-2.3,1.9-5.1,3.2-8.4,3.5c-0.3,0-0.6,0-0.6,0
			c-0.3,0-0.3,0-0.6,0s-0.6,0-0.6,0s-0.3,0-0.6,0s-0.6,0-0.6,0s-0.3,0-1,0c-0.3,0-0.6,0-0.6,0c0.3,3.9,1,6.4,1.9,7.7
			c1.3,1.3,2.6,1.9,3.5,1.9c2.6,0,4.8-0.6,7.1-2.6c2.3-1.9,3.9-2.9,4.8-2.9c0.3,0,1,0.3,1.6,1.3c0.6,0.6,1.3,1.6,1,2.3
			c0,0.6-0.6,1.6-1.6,2.6c-1,1-2.3,1.9-3.5,2.9c-1.3,1-2.9,1.9-5.1,2.6c-1.9,0.6-3.9,1-5.5,1c-1.6,0-3.2-0.6-4.2-1.3
			c-2.3-1.6-3.9-4.2-4.8-7.4c-1-3.5-1.3-7.1-1.3-10.6c0.3-3.9,1.3-7.1,2.9-10c1.9-3.2,5.1-4.8,9.7-4.5
			C934.1,174,936.6,174.6,938.9,176.3z M935.7,182c0-1.9-1.3-3.2-3.9-3.2c-1.9,0-3.5,1-4.8,2.9c-0.3,0.6-1,1.3-1,2.3
			c-0.3,1-0.3,1.6-0.6,2.6C932.1,186.9,935.7,185.6,935.7,182z"/>
		<path d="M949.8,202.6c0-0.6,0.3-1.6,1-2.3c0.6-0.6,1.6-1,2.9-1s1.9,0.3,2.6,0.6c0.6,0.3,0.6,1.3,0.6,2.9c0,1.6-0.6,2.6-1.3,2.9
			c-0.6,0.3-1.6,0.6-2.3,0.6c-1,0-1.9-0.6-2.6-1.6C950.1,204.3,949.8,203.3,949.8,202.6z M958.5,158.6l-1.9,25.1
			c0,2.3-0.3,4.2-0.3,5.1c-0.3,0.6-0.6,1.3-1.3,1.6s-1.3,0.6-1.9,0.6c-0.6,0-1.3-0.6-1.6-1.6c0-12.2,0-22.8,0.6-31.2
			c0.3-0.6,1-1,1.6-1.3c1-0.3,1.6-0.3,1.9-0.3C957.5,156.6,958.2,157.3,958.5,158.6z"/>
	</g>
</g>
<g id="dog">
	<path id="leg4" style="fill:#754D24;" d="M238.6,568.5c0,0-4.5,35.4-10.6,49.2c-6.1,13.8-19.3,29.6-20.3,35.7
		c-0.6,4.8-0.6,12.9,7.1,13.8c9.3,1.3,17.4-6.1,17.4-6.1s4.5,8,13.8,8c6.1,0,7.4-7.4,7.4-7.4s2.6,6.8,10.9,6.8s9.3-6.4,9.3-6.4
		s3.5,4.8,9.7,1.3c5.8-3.2,6.4-15.4,0.6-25.7c-5.8-10.3-15.8-15.4-26.1-13.2c-11.6,2.6-17.7,19-26.4,17.7
		c-3.9-0.6,12.6-22.8,15.4-32.2c2.6-8,5.8-37.7,5.8-37.7L238.6,568.5z"/>
	<path id="leg3" style="fill:#754D24;" d="M353.5,569.5c0,0,2.3,29.9-2.3,46c-4.2,15.1-13.8,25.4-17.7,32.8
		c-2.6,4.5-3.9,13.2,4.2,14.2c10,1.3,20.6-2.6,20.6-2.6s4.8,8.4,14.5,8.4c6.4,0,8-7.7,8-7.7s2.6,7.1,11.6,7.1c8.7,0,9.7-6.8,9.7-6.8
		s3.9,4.8,10.3,1.3c6.1-3.5,8.4-12.6,2.6-23.5c-6.1-10.9-15.8-18.3-26.7-15.8c-12.2,2.9-21.2,18.3-30.6,16.7
		c-4.2-0.6,7.7-17.1,10.3-29.6c1.6-9,0-36,0-36L353.5,569.5z"/>
	<g id="leg2">
		<path style="fill:#B56F29;" d="M181,591.1c0,0-5.5,42.8-12.9,59.2c-7.4,16.7-23.5,35.7-24.5,43.1c-0.6,5.8-0.6,15.4,8.4,16.7
			c11.3,1.6,20.9-7.4,20.9-7.4s5.5,9.7,16.4,9.7c7.4,0,9-9,9-9s3.2,8,13.2,8s11.3-7.7,11.3-7.7s4.2,5.8,11.6,1.6
			c7.1-3.9,7.7-18.7,1-31.2c-6.8-12.6-19.3-19-31.5-16.1c-14.2,3.2-21.2,23.2-32.2,21.2c-4.8-0.6,15.1-27.7,18.3-38.9
			c3.2-10,7.1-45.4,7.1-45.4L181,591.1z"/>
		<path style="fill:#754D24;" d="M212.2,673.1c0,0,10.3,7.7,12.6,17.4c1.9,8,0,14.8,0,14.8l-1.3-1.3c0,0,1.6-9.3-1-15.8
			C219.6,681.5,212.2,673.1,212.2,673.1z"/>
		<path style="fill:#754D24;" d="M200.3,705.6c0,0,0.6-9-1-13.5c-1.6-4.5-7.7-8.7-7.7-8.7s4.8,5.8,5.8,10c1.3,4.2,1.6,10.3,1.6,10.3
			L200.3,705.6z"/>
		<path style="fill:#754D24;" d="M175.2,690.2c0,0,1,4.2,0.6,8c0,2.6-1,6.8-1,6.8l-1.6-2.3c0,0,1-2.9,1.3-5.1
			C174.9,695.3,175.2,690.2,175.2,690.2z"/>
	</g>
	<g id="leg1">
		<path style="fill:#B56F29;" d="M304,592.7c0,0,2.6,36-2.6,55.7c-5.1,18.3-16.4,30.9-21.2,39.6c-2.9,5.5-4.5,15.8,5.1,17.1
			c12.2,1.6,24.8-2.9,24.8-2.9s5.8,10.3,17.4,10.3c7.7,0,9.7-9.3,9.7-9.3s3.2,8.7,13.8,8.7c10.6,0,11.9-8.4,11.9-8.4
			s4.5,6.1,12.2,1.6c7.4-4.2,10.3-15.1,3.2-28.3c-7.1-13.2-19.3-22.2-32.2-19.3c-14.8,3.5-25.7,21.9-37,20.3
			c-5.1-0.6,9.3-20.6,12.6-35.7c2.3-10.6,0-43.4,0-43.4L304,592.7z"/>
		<path style="fill:#754D24;" d="M354.8,674.1c0,0,7.1,4.8,9.3,14.8c2.3,8.7,0,15.8,0,15.8l-1.3-1.3c0,0,1.9-10-1.3-16.7
			C358.7,679.9,354.8,674.1,354.8,674.1z"/>
		<path style="fill:#754D24;" d="M338.4,705.3c0,0,0.6-9.7-1-14.5c-1.6-4.8-5.8-9.3-5.8-9.3s2.6,6.1,3.9,10.6
			c1.3,4.2,1.6,10.9,1.6,10.9L338.4,705.3z"/>
		<path style="fill:#754D24;" d="M312,688.9c0,0,1,4.5,1,8.7c0,2.9-1,7.1-1,7.1l-1.9-2.6c0,0,1.3-2.9,1.3-5.5
			C311.7,694.4,312,688.9,312,688.9z"/>
	</g>
	<path id="mounthopen" style="fill:#89181B;" d="M477.1,542.5c0,0,1.6-3.9-6.8-10.6c-7.4-5.8-20.6-16.7-26.7-24.5
		c-7.7-10-18-38.6-18-38.6l-33.8-10l-3.2,68.2l80.5,23.5L477.1,542.5z"/>
	<path id="tail" style="fill:#1A1A1A;" d="M106.7,435c0,0-24.8-33.1-40.5-88.8c-13.2-46.3-7.7-98.8-16.1-101
		c-8.4-2.3-53.1,34.1-49.9,87.2C2.4,367.7,50,380,49.1,385.4c-1,5.5-26.7-1.3-43.8-11.3c-6.4-3.9,1.3,24.8,25.7,32.5
		c14.8,4.5,33.1,2.6,34.8,6.1c1.6,3.5-40.2,5.5-38.3,11.3c1.6,5.8,10.3,11.6,32.5,16.4c24.8,5.5,39.3,0.6,39.3,0.6L106.7,435z"/>
	<path id="ear1" d="M307.5,337.2c0,0-42.2-85.3-40.9-101.4c1.6-15.8,54.4-47.3,64.4-41.2c10.3,6.1,15.4,24.8,8.7,31.9
		c-6.4,7.1-53.4,4.8-55.7,11.3c-2.3,6.4,27.7,90.8,27.7,90.8L307.5,337.2z"/>
	<path id="ear2" d="M361.6,282.5c0,0,20.3-89.5,31.2-94.9c10.9-5.5,63.1,14.2,63.1,25.7c0,11.6-11.9,26.4-18.3,26.4
		s-32.2-36-38.9-33.8c-6.4,2.3-32.2,76.9-32.2,76.9L361.6,282.5L361.6,282.5z"/>
	<g id="body">
		<path style="fill:#D18029;" d="M383.4,296c0,0,28-36,40.9-26.4c12.6,10,3.2,38,3.2,38l-37,17.7l-11.6-16.7L383.4,296z"/>
		<path style="fill:#F69220;" d="M446.8,368.4c0,0,17.4,1.3,33.1-3.9c15.8-5.1,35.1-15.1,35.1-15.1l47.9,42.5
			c0,0-36.4,101.7-78.8,105.6c-42.5,3.9-82.4-29.9-82.4-29.9s-8,39.9,17.4,59.9c17.1,13.2,34.4,16.4,45.1,16.7
			c6.4,0.3,12.6-1.9,12.6-1.9c-1.6,14.2-23.2,24.8-41.2,28.3c-18,3.9-37-1.3-39.3,0c-2.6,1.3-21.2,41.2-87.5,47
			c-66.3,5.5-125.5-12.9-163.2-54.1c-31.9-35.1-51.5-122-46-132.6c5.5-10.6,34.1-8.4,69.5-20.3c35.7-11.9,58.9-24.8,59.2-28.3
			c0.3-3.9-17.4-10-36.7-15.4c-4.5-1.3,7.7-9.7,26.1-7.1c13.5,1.9,29.3,11.3,31.5,9c2.3-2.3-19.6-18.7-38-34.1
			c-1-0.6,17.1-5.5,36.7,3.9c10.3,5.1,21.9,16.1,25.1,15.1c7.7-2.3-14.8-32.8-34.1-47.9c-3.9-3.2,15.4-7.4,37.7,6.1
			c13.5,8,18.7,24.1,23.2,24.1s39.3-60.8,65-62.8c26.7-1.9,24.8,41.5,24.8,41.5L446.8,368.4z"/>
	</g>
	<path id="mounthback" style="fill:#B56F29;" d="M387.6,442.7c0,0-20.9,7.1-26.7,23.2c-9.3,25.1-0.6,35.1,2.6,35.1
		c3.2,0-4.8-16.4,1-33.1C370.6,449.5,387.6,442.7,387.6,442.7z"/>
	<g id="nose">
		<ellipse transform="matrix(0.3755 -0.9268 0.9268 0.3755 16.9818 727.4202)" cx="548.3" cy="351.1" rx="56.3" ry="57.9"/>
		
			<ellipse transform="matrix(0.3756 -0.9268 0.9268 0.3756 49.2649 720.4375)" style="fill:#343433;" cx="559.3" cy="323.7" rx="13.5" ry="28"/>
	</g>
</g>
<path id="drop3" style="fill:#86AABD;" d="M507,515.5c0,0,33.5-13.8,37.3-7.1C548.2,515.5,507,515.5,507,515.5z"/>
<path id="drop2" style="fill:#86AABD;" d="M498.6,532.5c0,0,67.3,18.7,62.1,30.6C555.9,575,498.6,532.5,498.6,532.5z"/>
<path id="drop1" style="fill:#86AABD;" d="M487.1,551.5c0,0,26.4,22.8,19.6,28.6C499.9,585.9,487.1,551.5,487.1,551.5z"/>
<path id="tailmove2" style="fill:#676767;" d="M78.7,348.7c0,0-14.2-50.5-3.5-51.8C85.8,295.3,78.7,348.7,78.7,348.7z"/>
<path id="tailmove1" style="fill:#676767;" d="M94.8,353.6c0,0,7.1-40.2,16.4-35.7C120.5,322,94.8,353.6,94.8,353.6z"/>
<g id="eyesopen">
	<circle style="fill:#CBCBCA;" cx="421.7" cy="335.9" r="37"/>
	<circle cx="439.4" cy="330.7" r="8.4"/>
	<circle style="fill:#FFFFFF;" cx="377.3" cy="357.8" r="44.4"/>
	<circle cx="398.6" cy="351.6" r="10"/>
	<path style="fill:#F69220;" d="M371.2,413.1c0,0-3.2-12.6,13.2-29.6c16.4-17.4,64.7-34.4,71.1-31.9c6.4,2.6,2.6,16.7,2.6,16.7
		L371.2,413.1z"/>
</g>
<g id="eyesclosed">
	<circle style="fill:#D18029;" cx="420.8" cy="335.9" r="37.7"/>
	<path style="fill:#603A17;" d="M451.3,315.3l3.2,3.5c0,0-17.7,3.9-34.1,12.2c-12.6,6.4-24.1,15.8-29,25.4l-2.6-3.2
		C388.9,353.3,400.2,323.6,451.3,315.3z"/>
	<circle style="fill:#E48525;" cx="377.6" cy="357.1" r="46"/>
	<path style="fill:#603A17;" d="M413.4,329.1l4.2,4.2c0,0-21.6,5.8-41.8,17.4c-15.1,8.7-29.3,21.2-34.8,33.5l-3.2-3.9
		C337.7,380,349.7,342.6,413.4,329.1z"/>
	<path style="fill:#F69220;" d="M455.8,352.9c-4.2-3.2-8.7-3.2-8.7-3.2s-33.1,4.5-45.1,12.6c-18.3,12.6-16.4,33.5-15.1,36.4
		c1.3,3.2,31.2,12.2,38.3,0c9.7-16.1,35.7-32.8,35.7-32.8S462,357.8,455.8,352.9z"/>
	<path style="fill:#F69220;" d="M319.4,406.7c0,0,4.5-12.9,17.1-18.7c10.9-4.8,43.4,10,45.7,15.1
		C384.7,409.2,319.4,406.7,319.4,406.7z"/>
</g>
</svg>
