<?xml version="1.0" encoding="utf-8"?>
<!-- Generator: Adobe Illustrator 21.0.0, SVG Export Plug-In . SVG Version: 6.00 Build 0)  -->
<svg version="1.1" id="dog-seluser" xmlns="http://www.w3.org/2000/svg" xmlns:xlink="http://www.w3.org/1999/xlink" x="0px"
	 y="0px" viewBox="0 0 638.1 1054.6" style="enable-background:new 0 0 638.1 1054.6;" xml:space="preserve">
<g id="shadow">
	<ellipse style="fill:#FFFFFF;" cx="229.1" cy="1009.5" rx="229.1" ry="45.1"/>
	<ellipse style="fill:#FDFDFD;" cx="229.1" cy="1009.5" rx="225.6" ry="44.4"/>
	<ellipse style="fill:#FBFBFB;" cx="229.1" cy="1009.5" rx="222.1" ry="43.7"/>
	<ellipse style="fill:#F9F9F9;" cx="229.1" cy="1009.5" rx="218.6" ry="43"/>
	<ellipse style="fill:#F7F7F7;" cx="229.1" cy="1009.5" rx="215" ry="42.3"/>
	<ellipse style="fill:#F5F5F5;" cx="229.1" cy="1009.5" rx="211.5" ry="41.6"/>
	<ellipse style="fill:#F3F3F3;" cx="229.1" cy="1009.5" rx="208" ry="40.9"/>
	<ellipse style="fill:#F1F1F1;" cx="229.1" cy="1009.5" rx="204.3" ry="40.2"/>
	<ellipse style="fill:#EFEFEF;" cx="229.1" cy="1009.5" rx="200.8" ry="39.5"/>
	<ellipse style="fill:#EDEDED;" cx="229.1" cy="1009.5" rx="197.3" ry="38.8"/>
	<ellipse style="fill:#EBEBEB;" cx="229.1" cy="1009.5" rx="193.6" ry="38.1"/>
	<ellipse style="fill:#E9E9E9;" cx="229.1" cy="1009.5" rx="190.1" ry="37.4"/>
	<ellipse style="fill:#E7E7E7;" cx="229.1" cy="1009.5" rx="186.6" ry="36.7"/>
	<ellipse style="fill:#E5E5E4;" cx="229.1" cy="1009.5" rx="182.9" ry="36"/>
	<ellipse style="fill:#E3E3E2;" cx="229.1" cy="1009.5" rx="179.5" ry="35.3"/>
	<ellipse style="fill:#E1E1E0;" cx="229.1" cy="1009.5" rx="176" ry="34.6"/>
	<ellipse style="fill:#DFDFDE;" cx="229.1" cy="1009.5" rx="172.3" ry="33.9"/>
	<ellipse style="fill:#DDDDDC;" cx="229.1" cy="1009.5" rx="168.8" ry="33.2"/>
	<ellipse style="fill:#DBDBDA;" cx="229.1" cy="1009.5" rx="165.3" ry="32.5"/>
	<ellipse style="fill:#D9D9D8;" cx="229.1" cy="1009.5" rx="161.6" ry="31.8"/>
	<ellipse style="fill:#D7D7D6;" cx="229.1" cy="1009.5" rx="158.1" ry="31.1"/>
	<ellipse style="fill:#D5D5D4;" cx="229.1" cy="1009.5" rx="154.6" ry="30.4"/>
	<ellipse style="fill:#D3D3D2;" cx="229.1" cy="1009.5" rx="150.9" ry="29.7"/>
	<ellipse style="fill:#D1D1D0;" cx="229.1" cy="1009.5" rx="147.4" ry="29"/>
	<ellipse style="fill:#CFCFCE;" cx="229.1" cy="1009.5" rx="143.9" ry="28.3"/>
	<ellipse style="fill:#CDCDCC;" cx="229.1" cy="1009.5" rx="140.3" ry="27.6"/>
	<ellipse style="fill:#CACACA;" cx="229.1" cy="1009.5" rx="136.8" ry="26.9"/>
	<ellipse style="fill:#C8C8C8;" cx="229.1" cy="1009.5" rx="133.3" ry="26.2"/>
	<ellipse style="fill:#C6C6C6;" cx="229.1" cy="1009.5" rx="129.6" ry="25.5"/>
	<ellipse style="fill:#C4C4C4;" cx="229.1" cy="1009.5" rx="126.1" ry="24.8"/>
	<ellipse style="fill:#C2C2C2;" cx="229.1" cy="1009.5" rx="122.6" ry="24.1"/>
	<ellipse style="fill:#C0C0C0;" cx="229.1" cy="1009.5" rx="118.9" ry="23.4"/>
	<ellipse style="fill:#BEBEBE;" cx="229.1" cy="1009.5" rx="115.4" ry="22.7"/>
	<ellipse style="fill:#BCBCBC;" cx="229.1" cy="1009.5" rx="111.9" ry="22"/>
	<ellipse style="fill:#BABABA;" cx="229.1" cy="1009.5" rx="108.3" ry="21.3"/>
	<ellipse style="fill:#B8B8B8;" cx="229.1" cy="1009.5" rx="104.8" ry="20.6"/>
	<ellipse style="fill:#B6B6B6;" cx="229.1" cy="1009.5" rx="101.3" ry="19.9"/>
	<ellipse style="fill:#B4B4B4;" cx="229.1" cy="1009.5" rx="97.6" ry="19.2"/>
	<ellipse style="fill:#B2B2B2;" cx="229.1" cy="1009.5" rx="94.1" ry="18.5"/>
	<ellipse style="fill:#B0B0AF;" cx="229.1" cy="1009.5" rx="90.6" ry="17.8"/>
	<ellipse style="fill:#AEAEAD;" cx="229.1" cy="1009.5" rx="86.9" ry="17.1"/>
	<ellipse style="fill:#ACACAB;" cx="229.1" cy="1009.5" rx="83.4" ry="16.4"/>
	<ellipse style="fill:#AAAAA9;" cx="229.1" cy="1009.5" rx="79.9" ry="15.7"/>
	<ellipse style="fill:#A8A8A7;" cx="229.1" cy="1009.5" rx="76.3" ry="15"/>
	<ellipse style="fill:#A6A6A5;" cx="229.1" cy="1009.5" rx="72.8" ry="14.3"/>
	<ellipse style="fill:#A4A4A3;" cx="229.1" cy="1009.5" rx="69.3" ry="13.6"/>
	<ellipse style="fill:#A2A2A1;" cx="229.1" cy="1009.5" rx="65.6" ry="12.9"/>
	<ellipse style="fill:#A0A09F;" cx="229.1" cy="1009.5" rx="62.1" ry="12.2"/>
	<ellipse style="fill:#9E9E9D;" cx="229.1" cy="1009.5" rx="58.6" ry="11.5"/>
	<ellipse style="fill:#9C9C9B;" cx="229.1" cy="1009.5" rx="54.9" ry="10.8"/>
	<ellipse style="fill:#9A9A99;" cx="229.1" cy="1009.5" rx="51.4" ry="10.1"/>
	<ellipse style="fill:#989897;" cx="229.1" cy="1009.5" rx="47.9" ry="9.4"/>
</g>
<g id="text">
	<path style="fill:#A7A8AC;" d="M306.6,33.4c15.7-31.7,35.3-33.1,59.8-31c38,3.1,203.9,35.3,229.5,43.7
		c20.3,6.8,30.6,24.1,33.2,52.8c2.1,23.8,10.3,63.3,8.7,80.5c-2.1,22-14.3,53.9-48.8,56.3c-30.8,2.3-60.7-1.6-118.4-7.9
		c-36.6-4-53.5-4.5-47,7.7c8.7,16.6,55.3,49,43.6,47.9c-37.1-3.1-76.6-16.8-101.1-29.4c-17.1-8.9-33.1-21.9-42.2-36.7
		c-28.5-1.9-26.8-0.2-34.6-1.7c-25.4-5.2-35-23.6-33.4-47.2C257.8,141.5,297,52.6,306.6,33.4z"/>
	<path style="fill:#FFFFFF;" d="M304.7,32c15.4-31.1,37.1-33.4,61.2-31.5c37.3,3,199.7,34.6,224.8,43c19.9,6.6,30.1,23.8,32.5,52.1
		c2.1,23.4,10.1,61.7,8.6,78.5c-2.1,21.9-14,53-47.9,55.6c-30.3,2.3-59.6-1.4-116.1-7.7c-35.9-4-52.6-4.5-46.2,7.7
		c8.7,16.4,54.2,48.6,42.7,47.2c-33.2-4-77.1-17.5-100.9-30.8c-17-9.4-31-19.8-39.7-34.5c-28-1.9-25.9-0.2-33.6-1.7
		c-24.8-5.1-31.8-24.1-30.6-47.2C261,133.8,295.2,50.9,304.7,32z"/>
	<path style="fill:#A7A8AC;" d="M618.8,314.8c-7.3-39.7-28.5-47.6-56-53c-42.9-8.6-235.6-25.9-266.4-24.7
		c-24.5,1-41.3,16.8-53.3,47.6c-10,25.4-31.5,66.5-35.2,85.7c-4.7,25-1.4,63.7,35.9,77.5c33.1,12.2,67.3,17.7,132.8,28.9
		c41.5,7.2,60.3,11.9,49.3,23.4c-15,15.6-76.3,36.4-63.1,39c41.8,8.2,89.6,5.9,120.5-0.3c21.7-4.4,43.4-13.5,57.9-27.1
		c31.8,7,29.6,8.2,38.7,8.9c29.6,2.3,46.2-14.9,51.8-41.3C638.2,449.3,623.2,339.1,618.8,314.8z"/>
	<path style="fill:#FFFFFF;" d="M621.4,313.9c-7.2-39.2-30.3-48.4-57.4-54c-42-8.6-230.9-25.2-261.1-24c-24.1,1-40.6,16.6-52.5,46.9
		c-9.8,25-30.8,64.7-34.3,83.8c-4.7,24.7-1.4,62.8,35.2,76.4c32.5,12.1,66.1,17.3,130.3,28.3c40.8,7,59.3,11.7,48.4,23.1
		c-14.7,15.4-75,36.4-61.9,38.5c37.8,6.1,90.4,5.2,120.7-1.7c21.7-5.1,40.2-11.9,54.6-25.4c31.3,6.8,28.5,8,37.4,8.7
		c29,2.3,42.7-16.4,48.8-42.3C637.2,439.9,625.8,337.7,621.4,313.9z"/>
	<path style="fill:#FFFFFF;stroke:#B8D432;stroke-width:1.5;stroke-miterlimit:10;" d="M442.2,213.5c53.2,5.9,104.8,11.5,133.1,9.4
		c31.8-2.4,43.2-31.8,45.1-52.3c1.4-15.9-6.3-48.4-8.2-70.5c-2.4-26.6-11.9-42.7-30.6-49C557.9,43.4,406.7,13.8,371.7,11
		c-22.6-1.9-42.9,0.2-57.5,29.6c-8.9,17.7-40.9,92.3-42.3,119.6c-1,21.9,5.6,37.6,29,42.5c7.2,1.4,3.8-0.3,30.1,1.4
		c8.2,13.8,14.5,22.6,26.9,31.8c8.9,6.6,13.6,11,25,15.4c-46.9-2.1-60.5-4.5-72.4-4c-22.6,0.9-38.1,15.6-49.3,44.1
		c-9.1,23.6-28,57-31.5,75c-4.4,23.3-1.4,59.1,33.1,71.9c30.6,11.4,89.2,21.5,149.5,31.8c38.3,6.6,46.2,11.7,36,22.4
		c-13.8,14.5-68,34.8-51.6,35c28.7,0.2,58.6-0.7,89.7-8.4c17.3-4.2,37.8-11.5,51.2-24.1c29.4,6.5,25.2,7.3,33.6,8
		c27.3,2.1,39.7-13.1,45.3-37.6c7-30.4-4.4-122.6-8.6-145.2c-6.6-36.9-28.5-45.6-53.9-50.7c-18.7-3.8-73.5-9.1-123.3-13.6
		c-9.6-9.4-19.8-23.4-24.5-32.4C400.5,212.1,408.4,209.9,442.2,213.5z"/>
	<g>
		<path d="M308.2,304.3c1.6-0.7,3.3-0.9,5.2-0.5c1.9,0.3,3.5,1.4,4.7,3.1c2.4,3.3,3.1,7.7,2.3,12.9c-0.3,2.8-1.6,5.4-3.7,8.2
			c-1,1.2-2.1,2.3-3.5,3c-1.4,0.7-3,1-4.5,0.7c-1.6-0.2-3.1-1-4.5-2.1c-1.4-1.2-2.4-2.6-3.3-4.2c-1.6-3.3-2.3-6.5-1.7-9.1
			c0.5-3.7,2.1-6.8,4.7-9.4C305.2,306.1,306.6,305,308.2,304.3z M310.6,327.9c1.2-0.3,2.3-1.2,3.1-2.6s1.4-2.8,1.6-4.2
			c0.2-1.4,0.3-2.8,0.3-4c0-1.2-0.2-2.4-0.3-3.5c-0.2-1.2-0.7-2.1-1.4-3c-0.7-0.9-1.6-1.6-2.4-1.9c-1.7,0-3.5,0.9-4.9,2.4
			s-2.3,3.1-2.6,4.9c-0.3,1.7,0.2,4,1.2,6.8c0.5,1.2,1.2,2.4,2.3,3.3C308.4,327,309.4,327.7,310.6,327.9z"/>
		<path d="M325.8,327l0.3-1.7c0.3-2.4,0.7-5.2,0.7-8.2c0-3,0-5.2-0.2-6.8c-0.2-1.6-0.3-2.4-0.2-2.8c0.2-0.3,0.3-0.7,1-1
			c0.5-0.3,1.2-0.3,1.9-0.3c0.7,0.2,1.2,0.5,1.6,1c0.3,0.5,0.5,1.2,0.5,1.7s0,1.2,0,2.3c0,0.9-0.2,1.6-0.2,1.7
			c1.4-2.3,3.5-3.8,5.9-4.4c1.4-0.3,2.8-0.3,4.2-0.2c3.3,0.5,4.7,1.6,4.5,3.3c-0.2,1-0.9,1.7-1.9,2.1c-0.5,0.2-0.9,0.2-1.4,0.2
			l-1.7-0.5c-5.1-0.7-8.4,3.8-10,13.8l-0.9,5.4v0.2c-0.3,0.7-0.7,1.2-1.4,1.7c-0.7,0.5-1.2,0.7-1.9,0.5c-0.9-0.2-1.4-0.9-1.4-2.4
			C325.3,331.2,325.5,329.3,325.8,327z"/>
		<path d="M383.4,320.4l-0.7,4.2c-0.2,1.6-0.7,3.7-1.4,5.9c-0.5,4.4-0.7,8.2-0.3,11.7c-0.2,0.3-0.5,0.7-1,0.9
			c-0.5,0.2-1.2,0.2-1.7,0.2c-0.5-0.2-1-0.2-1.4-0.5c-0.3-0.2-0.5-0.5-0.7-0.9c0-0.3-0.2-0.7-0.2-0.9c0-0.2,0-0.5,0-1
			c0-0.3,0-0.7,0-0.7c-2.1,1.7-4.7,2.3-7.9,1.7c-3-0.5-5.1-1.9-5.9-4.5c-0.9-2.4-1-5.8-0.3-10c1-7.2,3.8-11.5,8.4-12.9
			c1.4-0.3,2.8-0.5,4.5-0.2c1.6,0.2,3.1,0.9,4.7,1.6c0.7-0.7,1.4-0.9,2.3-0.7c1.7,0.3,2.3,1.7,1.9,4.2
			C383.6,319.4,383.6,320,383.4,320.4z M375.3,334c1-2.1,1.9-4.4,2.3-7c0.3-2.4,0.3-4.4,0-5.8c-0.3-1.2-1.4-2.1-3-2.3
			c-0.7-0.2-1.4-0.2-2.4-0.2c-1,0-2.1,0.7-3.3,2.3c-1.2,1.6-1.7,3-1.9,4l-0.3,2.4c-0.7,4.2-0.2,7,1.4,8.6c0.5,0.5,1,0.7,1.9,0.9
			c0.9,0.2,1.9-0.2,3-0.7C373.9,335.6,374.6,334.9,375.3,334z"/>
		<path d="M407.4,306.6c0.3-2.1,1.2-3.1,2.6-3c0.7,0.2,1.2,0.3,1.4,0.5c0.3,0.3,0.3,0.7,0.5,1.4c0.2,0.7,0,2.1-0.3,4
			c-0.3,2.1-0.7,4.5-1,7.7c-0.3,3.1-0.7,5.6-0.9,7.3c-0.2,1.7-0.5,4.5-0.9,8.4c-0.3,3.8-0.7,7-1,9.4l-0.7,3.3
			c-0.2,0.7-0.5,1.2-1,1.4c-0.5,0.2-1,0.2-1.9,0c-0.9-0.2-1.2-0.7-1.4-1.7v-1c-1.9,1-4,1.4-6.5,1c-3.1-0.5-5.4-2.1-6.8-4.5
			c-1.4-2.6-1.9-5.4-1.4-8.4s1.6-5.9,3.5-8.7c1.9-2.8,4.2-4.7,7.2-5.6c1.7-0.5,3.5-0.5,5.2-0.3c0.7,0.2,1.2,0.2,1.7,0.3l0.7-4.9
			l0.7-3.8L407.4,306.6z M402.6,339.5c0.3-0.5,0.5-1.6,0.9-3.1c0.3-1.6,0.3-2.4,0.5-2.6l0.2-1.2c0.3-2.1,0.3-4.2,0.2-6.1
			c-0.2-1.9-0.7-3-1.6-3c-1-0.2-2.4-0.2-3.8-0.2c-1.4,0-2.3,0.3-3,0.9c-1.6,1.6-2.6,4.2-3.3,8.2c-0.3,2.8,0.2,5.1,1.6,6.8
			c0.9,1,1.9,1.6,3,1.9c1.2,0.2,2.3,0.2,3.1-0.2C401.8,340.3,402.5,340,402.6,339.5z"/>
		<path d="M432.9,310.6c0.3-2.1,1.2-3.1,2.6-3c0.7,0.2,1.2,0.3,1.4,0.5c0.3,0.3,0.3,0.7,0.5,1.4c0,0.7,0,2.1-0.3,4
			c-0.3,2.1-0.7,4.5-1,7.7c-0.3,3.1-0.7,5.6-0.9,7.3c-0.2,1.7-0.5,4.5-0.9,8.4c-0.3,3.8-0.7,7-1,9.4l-0.7,3.3
			c-0.2,0.7-0.5,1.2-1,1.4c-0.5,0.2-1,0.2-1.9,0c-0.9-0.2-1.2-0.7-1.4-1.7v-1c-1.9,1-4,1.4-6.5,1c-3.1-0.5-5.4-2.1-6.8-4.5
			c-1.4-2.6-1.9-5.4-1.4-8.4s1.6-5.9,3.5-8.7c1.9-2.8,4.2-4.7,7.2-5.6c1.7-0.5,3.5-0.5,5.2-0.3c0.7,0.2,1.2,0.2,1.7,0.3l0.7-4.9
			l0.7-3.8L432.9,310.6z M428.3,343.5c0.3-0.5,0.5-1.6,0.9-3.1c0.3-1.6,0.3-2.4,0.5-2.6l0.2-1.2c0.3-2.1,0.3-4.2,0.2-6.1
			c-0.2-1.9-0.7-3-1.6-3c-1-0.2-2.4-0.2-3.8-0.2c-1.4,0-2.3,0.3-3,0.9c-1.6,1.6-2.6,4.2-3.3,8.2c-0.3,2.8,0.2,5.1,1.6,6.8
			c0.9,1,1.9,1.6,3,1.9c1.2,0.2,2.3,0.2,3.1-0.2C427.5,344.4,428,344,428.3,343.5z"/>
		<path d="M475.9,334.9l-0.7,4.2c-0.2,1.6-0.7,3.7-1.4,5.9c-0.5,4.4-0.7,8.2-0.3,11.7c-0.2,0.3-0.5,0.7-1,0.9
			c-0.5,0.2-1.2,0.2-1.7,0.2c-0.5-0.2-1-0.2-1.4-0.5c-0.3-0.2-0.5-0.5-0.7-0.9c0-0.3-0.2-0.7-0.2-0.9c0-0.2,0-0.5,0-1
			c0-0.3,0-0.7,0-0.7c-2.1,1.7-4.7,2.3-7.9,1.7c-3-0.5-5.1-1.9-5.9-4.5c-0.9-2.4-1-5.8-0.3-10c1-7.2,3.8-11.5,8.4-12.9
			c1.4-0.3,2.8-0.5,4.5-0.2c1.6,0.2,3.1,0.9,4.7,1.6c0.7-0.7,1.4-0.9,2.3-0.7c1.7,0.2,2.3,1.7,1.9,4.2
			C476.1,333.9,476.1,334.4,475.9,334.9z M467.7,348.4c1-2.1,1.9-4.4,2.3-7c0.3-2.4,0.3-4.4,0-5.8c-0.3-1.2-1.4-2.1-3-2.3
			c-0.7-0.2-1.4-0.2-2.4-0.2s-2.1,0.7-3.3,2.3c-1.2,1.6-1.7,3-1.9,4l-0.3,2.4c-0.7,4.2-0.2,7,1.4,8.6c0.5,0.5,1,0.7,1.9,0.9
			c0.9,0.2,1.9-0.2,3-0.7C466.3,350.1,467.2,349.3,467.7,348.4z"/>
		<path d="M510.2,361.5l0.5-3.1c0-0.5,0.2-1,0.3-1.9c0.2-0.9,0.2-1.7,0.3-2.8c0.2-1,0.2-2.1,0.3-3.1c0-1,0.2-2.1,0.2-3
			c0-1.9-0.2-3.5-0.7-4.9c-0.5-1.4-1.2-2.1-2.3-2.3c-1-0.2-1.9-0.2-2.6,0.2c-0.7,0.2-1.4,0.7-1.9,1.4c-1,1.4-1.9,3-2.3,4.9
			c-0.5,1.7-0.9,3.7-1.2,5.8l-1.2,6.5c-0.2,0.9-0.5,1.4-1.2,1.7c-0.7,0.3-1.4,0.5-2.3,0.3c-1-0.2-1.4-0.9-1.2-2.1
			c0.5-3.3,1-7.5,1.6-12.4c0.5-4.9,1-8.9,1.6-12.2c0.3-0.7,0.7-1.2,1.2-1.6c0.5-0.5,1-0.7,1.4-0.5c0.5,0,0.7,0.2,1,0.2
			c0.2,0.2,0.3,0.2,0.5,0.3c0.2,0.2,0.2,0.3,0.3,0.5c0.2,0.2,0.2,0.3,0.2,0.9c0,0.3,0,0.7,0,0.9c0,0.2,0,0.7-0.2,1.2
			c0,0.5-0.2,1-0.2,1.2c2.6-2.4,5.6-3.5,8.7-3c2.3,0.3,3.7,1.6,4.5,3.8c1.2,3.3,1.2,8,0.3,14.3l-0.7,5.8c-0.2,1.6-0.5,2.4-0.7,3
			c-0.2,0.5-0.5,0.9-0.9,1.2c-0.5,0.7-1.4,1-2.4,0.9C510.4,363.4,510,362.7,510.2,361.5z"/>
		<path d="M539.8,341.2c1.7,1.6,2.6,3.1,2.3,4.9c-0.3,1.7-1.4,3.5-3.7,4.9c-2.1,1.6-4.5,2.3-7.2,2.3c-0.2,0-0.5,0-0.5,0
			c-0.2,0-0.3,0-0.5,0c-0.2,0-0.3,0-0.5,0s-0.3,0-0.5,0c-0.3,0-0.5,0-0.5,0s-0.3,0-0.7-0.2c-0.3,0-0.5,0-0.7-0.2
			c0,3.1,0.2,5.4,0.9,6.5c1,1,1.9,1.7,2.6,1.9c1.9,0.3,4-0.2,5.9-1.7c1.9-1.4,3.3-2.1,4.2-1.9c0.3,0,0.7,0.3,1.2,1s0.9,1.2,0.7,1.9
			c0,0.5-0.5,1.2-1.4,1.9s-1.9,1.4-3.1,2.1c-1.2,0.7-2.6,1.2-4.4,1.6c-1.7,0.3-3.1,0.5-4.5,0.3c-1.4-0.2-2.4-0.7-3.5-1.6
			c-1.6-1.4-2.8-3.7-3.3-6.6c-0.5-3-0.5-5.9-0.2-8.9c0.5-3.1,1.6-5.8,3.3-8c1.9-2.6,4.7-3.5,8.4-3
			C536.1,338.9,538,339.8,539.8,341.2z M536.8,345.8c0.3-1.7-0.7-2.6-3-3c-1.6-0.2-3,0.3-4.4,1.9c-0.5,0.5-0.9,1-1,1.7
			c-0.2,0.7-0.5,1.4-0.7,2.1C533.3,349.6,536.3,348.6,536.8,345.8z"/>
		<path d="M565.6,354.9l1-9.3c0.3-0.5,0.7-1,1.4-1.4c0.5-0.3,1-0.5,1.6-0.3c1.2,0.2,1.4,2.6,0.7,7.2l-0.5,3.3
			c-0.9,5.4-2.4,10.1-4.7,14c-1.2,2.3-2.6,3.3-3.8,3.1c-0.7-0.2-1.4-0.7-1.9-1.9c-0.5-1.2-1-2.6-1.6-4.5c-0.5-1.9-0.9-3.1-1.2-3.8
			c-0.5,0.7-1.4,1.9-2.4,3.3c-1,1.4-1.6,2.3-1.7,2.4c-1.6,1.9-3,2.8-4,2.6c-0.3,0-1-1.2-1.7-3.7c-1.2-7.5-1.2-15.4,0-23.3
			c0.3-0.9,1-1.4,2.1-1.7c0.3,0,0.5-0.2,0.9,0c0.9,0.2,1.2,0.7,1.2,1.9c-1,6.3-0.9,12.6,0.3,18.5c0.5-0.7,1.2-1.4,1.9-2.4
			c0.7-1,1.2-1.7,1.6-2.3c1-1.2,2.1-1.7,3.1-1.6c1,0.2,2.1,1.4,3,3.5c0.5,1.6,1,2.8,1.4,3.8c0.3,1,0.5,1.7,0.5,1.7
			C564.2,360.8,565.1,357.7,565.6,354.9z"/>
		<path d="M267.3,388.3l-2.8,18c-0.3,0.7-0.9,1.4-1.6,1.7c-0.7,0.5-1.4,0.7-2.1,0.5c-1-0.2-1.4-0.9-1.2-2.3l3.3-20.8l3.3-21.3
			c0.3-0.9,0.7-1.6,1-2.1c0.3-0.3,1-0.5,1.7-0.5c0.7,0.2,1.2,0.3,1.4,0.7c0.2,0.3,0.3,1.4,0.3,3c0.3-0.7,1-1.2,2.1-1.9
			c1.2-0.5,2.8-0.7,4.7-0.3c2.1,0.3,3.7,1,5.1,2.1c1.4,1,2.4,2.4,3,4c1.2,3.1,1.4,6.6,0.9,10.7c-0.7,4-2.3,7-4.9,9.1
			c-2.6,1.9-6.1,2.6-10.1,2.1c-1.4-0.2-2.6-0.9-3.5-1.9C267.6,388.4,267.4,388.3,267.3,388.3z M276,367.8c-1.6,0-3,0.3-4.2,1.4
			c-1.2,1-1.9,1.9-1.9,3l-1.7,11.2c0.2,0,0.3,0.3,0.7,0.7c1,1.2,2.1,1.9,3.5,2.1c5.6,0.9,8.7-1.6,9.6-7.3c0.7-4.9,0-8.2-2.3-9.8
			C278.8,368.5,277.6,368,276,367.8z"/>
		<path d="M291.9,378.8c0.3-2.1,0.5-3.8,0.7-5.4c0.2-1.6,0.3-2.8,0.5-3.7c0.2-0.9,0.5-3.5,1.2-7.7c0.7-4.2,1-6.8,1.4-7.9
			c0.2-1,0.5-1.7,1-2.1c0.5-0.3,1.2-0.5,2.1-0.3c1.4,0.2,2.1,1,2.1,2.4c-0.9,3.7-2.3,10.8-3.8,21.3c-1.2,8-1,12.9,0.3,14.5
			c0.5,0,1-0.3,1.6-0.9c0.5-0.5,1.2-1.2,1.7-1.7s1.2-0.7,1.7-0.7c0.5,0.2,1,0.5,1.4,1c0.3,0.7,0.3,1.6,0.2,2.8s-1,2.4-2.6,3.5
			c-1.6,1-3.1,1.4-4.9,1.2c-3.3-0.5-5.1-3.8-5.1-9.8C291.4,383.2,291.6,380.9,291.9,378.8z"/>
		<path d="M329.5,376.9l-0.7,4.2c-0.2,1.6-0.7,3.7-1.4,5.9c-0.5,4.4-0.5,8.2-0.3,11.7c-0.2,0.3-0.5,0.7-1,0.9
			c-0.5,0.2-1.2,0.2-1.7,0.2s-1-0.2-1.4-0.5c-0.3-0.2-0.5-0.5-0.7-0.9c0-0.3-0.2-0.7-0.2-0.9c0-0.2,0-0.5,0-1c0-0.3,0-0.7,0-0.7
			c-2.1,1.7-4.7,2.3-7.9,1.7c-3-0.5-5.1-1.9-5.9-4.5c-0.9-2.4-1-5.8-0.3-10c1-7.2,3.8-11.5,8.4-12.9c1.4-0.3,2.8-0.5,4.5-0.2
			c1.6,0.2,3.1,0.9,4.7,1.6c0.7-0.7,1.4-0.9,2.3-0.7c1.7,0.3,2.3,1.7,1.9,4.2C329.7,375.8,329.5,376.4,329.5,376.9z M321.3,390.4
			c1-2.1,1.9-4.4,2.3-7c0.3-2.4,0.3-4.4,0-5.8c-0.3-1.2-1.4-2.1-3-2.3c-0.7-0.2-1.4-0.2-2.4-0.2c-1,0-2.1,0.7-3.3,2.3
			c-1.2,1.6-1.7,3-1.9,4l-0.3,2.4c-0.7,4.2-0.2,7,1.4,8.6c0.5,0.5,1,0.7,1.9,0.9c0.9,0.2,1.9-0.2,3-0.7
			C319.9,392.1,320.8,391.4,321.3,390.4z"/>
		<path d="M334.6,375c0.2-0.7,0.5-1.4,1-1.9s1.2-0.7,1.9-0.5c0.7,0.2,1.2,0.7,1.7,1.6c0.5,3.3,1,6.3,1.7,8.9
			c0.7,2.6,1.2,5.2,1.9,7.5c0.5,2.3,1,4,1.2,5.2c1-2.4,2.6-5.8,4.4-10.1c1.7-4.4,3.1-7.5,4-9.3c0.3-0.9,1.2-1.2,2.8-0.9
			c0.5,0,1,0.3,1.4,0.7c0.5,0.5,0.7,0.9,0.5,1.4c0,0.5-0.2,0.9-0.3,1.2c-8.9,19.4-15.2,32.7-19.1,39.9c-0.5,1-1.2,1.4-2.1,1.4
			c-0.5-0.2-1-0.5-1.4-1c-0.3-0.5-0.5-1.4-0.3-2.1c0.2-0.9,0.7-2.3,1.6-4c0.9-1.9,1.9-3.8,3-6.1c1.2-2.3,1.9-3.7,2.3-4.5
			c-0.7-1.7-1.7-5.6-3.1-11.5C336.3,384.4,335.3,379.3,334.6,375z"/>
		<path d="M378,380.9c1.7,1.6,2.6,3.1,2.3,4.9c-0.3,1.7-1.4,3.5-3.7,4.9c-2.1,1.6-4.5,2.3-7.2,2.3c-0.2,0-0.5,0-0.5,0
			c-0.2,0-0.3,0-0.5,0c-0.2,0-0.3,0-0.5,0s-0.3,0-0.5,0c-0.3,0-0.5,0-0.5,0c-0.2,0-0.3,0-0.7-0.2c-0.3,0-0.5,0-0.7-0.2
			c0,3.1,0.2,5.4,0.9,6.5c1,1,1.9,1.7,2.6,1.9c1.9,0.3,4-0.2,5.9-1.7s3.3-2.1,4.2-1.9c0.3,0,0.7,0.3,1.2,1c0.5,0.7,0.9,1.2,0.7,1.9
			c-0.2,0.5-0.5,1.2-1.4,1.9c-0.9,0.7-1.9,1.4-3.1,2.1s-2.6,1.2-4.4,1.6c-1.7,0.3-3.1,0.5-4.5,0.3c-1.4-0.2-2.4-0.7-3.5-1.6
			c-1.6-1.4-2.8-3.7-3.3-6.6c-0.5-3-0.5-5.9-0.2-8.9c0.5-3.1,1.6-5.8,3.3-8c1.9-2.6,4.7-3.5,8.4-3
			C374.3,378.5,376.2,379.3,378,380.9z M375,385.5c0.3-1.7-0.7-2.6-3-3c-1.6-0.2-3,0.3-4.4,1.9c-0.5,0.5-0.9,1-1,1.7
			c-0.2,0.7-0.5,1.4-0.7,2.1C371.5,389.1,374.5,388.3,375,385.5z"/>
		<path d="M385.3,401.2l0.3-1.7c0.3-2.4,0.7-5.2,0.7-8.2s0-5.2-0.2-6.8c-0.2-1.6-0.3-2.4-0.2-2.8c0-0.3,0.3-0.7,0.9-1
			s1.2-0.3,1.9-0.3c0.7,0.2,1.2,0.5,1.6,1s0.5,1.2,0.5,1.7s0,1.2,0,2.3c0,0.9-0.2,1.6-0.2,1.7c1.4-2.3,3.5-3.8,5.9-4.4
			c1.4-0.3,2.8-0.3,4.2-0.2c3.3,0.5,4.7,1.6,4.5,3.3c-0.2,1-0.9,1.7-1.9,2.1c-0.5,0.2-0.9,0.2-1.4,0.2l-1.7-0.5
			c-5.1-0.7-8.4,3.8-10,13.8l-0.9,5.4v0.2c-0.3,0.7-0.7,1.2-1.4,1.7s-1.2,0.7-1.9,0.5c-0.9-0.2-1.4-0.9-1.4-2.4
			C384.8,405.4,385,403.5,385.3,401.2z"/>
		<path d="M435,374.3l-1.4,7.2c0,0.5-0.3,2.4-0.7,5.8c2.4,0.3,4.7,0.7,7,0.9c1.2,0.5,1.6,1.2,1.4,2.4c-0.2,1.2-0.7,1.9-1.6,2.3
			s-1.7,0.5-2.4,0.3c-0.9,0-1.4-0.2-1.9-0.2c-0.5,0-1-0.2-1.7-0.3c-0.7-0.2-1.2-0.2-1.6-0.3c0,0.3-0.2,1.6-0.3,3.3
			c-0.2,1.9-0.3,3.1-0.3,3.7c-0.5,5.6-0.7,10-0.7,13.5c-0.3,0.7-0.7,1.4-1.4,1.9s-1.4,0.7-2.1,0.5c-0.7-0.2-1.2-0.7-1.4-1.7
			c0-3.7,0.2-8,0.7-12.9c0.5-4.9,0.9-8,1-8.9c-0.5,0-1.6-0.2-3-0.3c-1.4-0.2-2.4-0.5-3.3-0.9s-1.4-1-1.2-1.9c0.3-1.9,1.6-2.8,4-2.4
			l2.8,0.5c0.5,0,0.9,0.2,1.2,0.2c0.5-4,0.7-6.1,0.7-6.3c0-0.3,0.2-0.9,0.3-1.9c0.2-0.9,0.5-2.4,0.9-4.2c0.3-0.7,0.7-1.2,1.4-1.6
			c0.7-0.3,1.4-0.5,1.9-0.5C434.5,372.3,435,373,435,374.3z"/>
		<path d="M449.2,391.2c1.6-0.7,3.3-0.9,5.2-0.5c1.9,0.3,3.5,1.4,4.7,3.1c2.4,3.3,3.1,7.7,2.3,12.9c-0.3,2.8-1.6,5.4-3.7,8.2
			c-1,1.2-2.1,2.3-3.5,3.1c-1.4,0.7-3,1-4.5,0.7c-1.6-0.2-3.1-1-4.5-2.1c-1.4-1.2-2.4-2.6-3.3-4.2c-1.6-3.3-2.3-6.5-1.7-9.1
			c0.5-3.7,2.1-6.8,4.7-9.4C446.2,392.8,447.6,391.9,449.2,391.2z M451.8,414.8c1.2-0.3,2.3-1.2,3.1-2.6s1.4-2.8,1.6-4.2
			c0.2-1.6,0.3-2.8,0.3-4c0-1.2-0.2-2.4-0.3-3.5c-0.2-1.2-0.7-2.1-1.4-3c-0.7-0.9-1.6-1.6-2.4-1.9c-1.7,0-3.5,0.9-4.9,2.4
			s-2.3,3.1-2.6,4.9c-0.3,1.7,0.2,4,1.2,6.8c0.5,1.2,1.2,2.4,2.3,3.3C449.3,414,450.6,414.7,451.8,414.8z"/>
		<path d="M481.9,421.7l-2.8,18c-0.3,0.7-0.9,1.4-1.6,1.7c-0.7,0.5-1.4,0.7-2.1,0.5c-1-0.2-1.4-0.9-1.2-2.3l3.3-20.8l3.3-21.3
			c0.3-0.9,0.7-1.6,1-2.1c0.3-0.3,1-0.5,1.7-0.5c0.7,0.2,1.2,0.3,1.4,0.7c0.2,0.3,0.3,1.4,0.3,3c0.3-0.7,1-1.2,2.1-1.9
			c1.2-0.5,2.8-0.7,4.7-0.3c2.1,0.3,3.7,1,5.1,2.1c1.4,1,2.4,2.4,3,4c1.2,3.1,1.4,6.6,0.9,10.7c-0.5,4-2.3,7-4.9,9.1
			c-2.6,1.9-6.1,2.6-10.1,2.1c-1.4-0.2-2.6-0.9-3.5-1.9C482.2,422,482,421.8,481.9,421.7z M490.6,401.2c-1.6,0-3,0.3-4.2,1.4
			c-1.2,1-1.9,1.9-1.9,3l-1.7,11.2c0.2,0,0.3,0.3,0.7,0.7c1,1.2,2.1,1.9,3.5,2.1c5.6,0.9,8.7-1.6,9.6-7.3c0.7-4.9,0-8.2-2.3-9.8
			C493.4,401.9,492.2,401.6,490.6,401.2z"/>
		<path d="M506.5,412.4c0.3-2.1,0.5-3.8,0.7-5.4c0.2-1.6,0.3-2.8,0.5-3.7c0.2-0.9,0.5-3.5,1.2-7.7c0.7-4.2,1-6.8,1.4-7.9
			c0.2-1,0.5-1.7,1-2.1c0.5-0.3,1.2-0.5,2.1-0.3c1.4,0.2,2.1,1,2.1,2.4c-0.9,3.7-2.3,10.8-3.8,21.3c-1.2,8-1,12.9,0.3,14.5
			c0.5,0,1-0.3,1.6-0.9c0.5-0.5,1.2-1.2,1.7-1.7c0.5-0.5,1.2-0.7,1.7-0.7c0.5,0.2,1,0.5,1.4,1c0.3,0.7,0.3,1.6,0.2,2.8
			c-0.2,1.2-1,2.4-2.6,3.5c-1.6,1-3.1,1.4-4.9,1.2c-3.3-0.5-5.1-3.8-5.1-9.8C506,416.6,506.2,414.5,506.5,412.4z"/>
		<path d="M544.1,410.5l-0.7,4.2c-0.2,1.6-0.7,3.7-1.4,5.9c-0.5,4.4-0.7,8.2-0.3,11.7c-0.2,0.3-0.5,0.7-1,0.9
			c-0.5,0.2-1.2,0.2-1.7,0.2c-0.5-0.2-1-0.2-1.4-0.5c-0.3-0.2-0.5-0.5-0.7-0.9c0-0.3-0.2-0.7-0.2-0.9c0-0.2,0-0.5,0-1
			c0-0.3,0-0.7,0-0.7c-2.1,1.7-4.7,2.3-7.9,1.7c-3-0.5-5.1-1.9-5.9-4.5c-0.9-2.4-1-5.8-0.3-10c1-7.2,3.8-11.5,8.4-12.9
			c1.4-0.3,2.8-0.5,4.5-0.2c1.6,0.2,3.1,0.9,4.7,1.6c0.7-0.7,1.4-0.9,2.3-0.7c1.7,0.2,2.3,1.7,1.9,4.2
			C544.3,409.4,544.1,410,544.1,410.5z M535.9,423.9c1-2.1,1.9-4.4,2.3-7c0.3-2.4,0.3-4.4,0-5.8c-0.3-1.2-1.4-2.1-3-2.3
			c-0.7-0.2-1.4-0.2-2.4-0.2s-2.1,0.7-3.3,2.3c-1.2,1.6-1.7,3-1.9,4l-0.3,2.4c-0.7,4.2-0.2,7,1.4,8.6c0.5,0.5,1,0.7,1.9,0.9
			c0.9,0.2,1.9-0.2,3-0.7C534.5,425.7,535.4,424.8,535.9,423.9z"/>
		<path d="M549.2,408.6c0.2-0.7,0.5-1.4,1-1.9c0.5-0.5,1.2-0.7,1.9-0.5s1.2,0.7,1.7,1.6c0.5,3.3,1,6.3,1.7,8.9
			c0.7,2.6,1.2,5.2,1.9,7.5c0.5,2.3,1,4,1.2,5.2c1-2.4,2.6-5.8,4.4-10.1c1.7-4.4,3.1-7.5,4-9.3c0.3-0.9,1.2-1.2,2.8-0.9
			c0.5,0,1,0.3,1.4,0.7c0.5,0.5,0.7,0.9,0.5,1.4c0,0.5-0.2,0.9-0.3,1.2c-8.9,19.4-15.2,32.7-19.1,39.9c-0.5,1-1.2,1.4-2.1,1.4
			c-0.5-0.2-1-0.5-1.4-1c-0.3-0.5-0.5-1.4-0.3-2.1c0.2-0.9,0.7-2.3,1.6-4c0.9-1.9,1.9-3.8,3-6.1c1.2-2.3,1.9-3.7,2.3-4.5
			c-0.7-1.7-1.7-5.6-3.1-11.5C550.9,417.8,549.9,412.7,549.2,408.6z"/>
		<path d="M575.6,433.4c0.2-0.7,0.5-1.2,1-1.7c0.7-0.5,1.4-0.7,2.3-0.7c0.9,0.2,1.6,0.3,2.1,0.9c0.5,0.5,0.5,1.2,0.3,2.4
			c-0.2,1.2-0.7,2.1-1.2,2.4c-0.7,0.3-1.2,0.5-1.9,0.3c-0.9-0.2-1.6-0.7-2.1-1.4C575.6,434.6,575.4,433.9,575.6,433.4z M586.3,397.7
			l-3.7,20.5c-0.3,1.9-0.5,3.3-0.7,4.4c-0.2,0.5-0.7,0.9-1.2,1.2c-0.5,0.3-1,0.5-1.6,0.3c-0.5,0-0.9-0.5-1.2-1.6
			c1-10.1,2.1-18.7,3.1-25.7c0.3-0.5,0.7-0.9,1.4-1c0.7-0.2,1.2-0.2,1.7,0C585.6,396,586.3,396.7,586.3,397.7z"/>
	</g>
	<g>
		<path d="M355.1,78.7l-1.7,21.2c-0.2,0.7-0.5,1.4-1.2,1.7c-0.7,0.5-1.2,0.7-1.9,0.5c-1-0.2-1.4-0.9-1.2-2.1l1.6-19.8
			c0.5-4.7,1-9.3,1.9-14c-3.5,0-6.8-0.2-10.1-0.5c-1.4-0.2-1.9-0.7-1.9-1.9c0-0.5,0.3-1.2,0.9-1.7s1.2-0.7,1.9-0.9
			c3,0.3,7,0.5,12.4,0.7c5.4,0.2,9.4,0.5,12.2,0.7c1,0.5,1.6,1,1.6,1.9c0,0.5-0.3,1-0.9,1.6c-0.5,0.5-1.2,0.7-1.9,0.9
			c-3-0.3-6.3-0.5-10.1-0.7C355.9,70.3,355.4,74.3,355.1,78.7z"/>
		<path d="M376,77.1c1.6-0.7,3.3-1,5.1-0.9c1.9,0.2,3.5,1.2,4.9,2.8c2.6,3.3,3.5,7.5,3,12.8c-0.3,2.8-1.4,5.6-3.1,8.4
			c-0.9,1.4-2.1,2.4-3.3,3.3c-1.4,0.9-2.8,1.2-4.5,1c-1.6-0.2-3.1-0.9-4.7-1.9c-1.6-1-2.6-2.4-3.5-3.8c-1.7-3.3-2.6-6.3-2.3-8.9
			c0.3-3.7,1.7-6.8,4.2-9.6C373.1,79,374.5,78,376,77.1z M379.7,100.5c1.2-0.5,2.3-1.4,3-2.8s1.2-2.8,1.4-4.2c0.2-1.4,0.2-2.8,0.2-4
			s-0.3-2.3-0.5-3.5c-0.3-1-0.9-2.1-1.6-3s-1.6-1.4-2.6-1.7c-1.7,0.2-3.3,1-4.7,2.6c-1.4,1.6-2.1,3.3-2.3,5.1
			c-0.2,1.7,0.3,4,1.6,6.6c0.5,1.2,1.4,2.3,2.4,3.3C377.4,99.8,378.7,100.4,379.7,100.5z"/>
		<path d="M407.4,103.2c-3.1,2.6-6.1,3.8-8.9,3.7c-1.4-0.2-2.4-0.7-3.5-1.9s-1.6-2.6-1.9-4.4c-0.7-3.3-0.9-6.6-0.5-9.8
			c0.3-3.1,0.9-6.6,1.6-10.7c0.2-0.7,0.7-1.2,1.2-1.6s1-0.5,1.6-0.5c1,0.2,1.7,0.7,1.9,1.9c-0.5,2.8-0.9,5.4-1.2,8
			c-0.2,2.6-0.3,4.4-0.3,5.6c-0.2,3,0.5,5.9,2.1,9.1c1.6-0.2,3.1-0.9,4.7-1.7c1.4-1,2.6-2.1,3.5-3.5c0.2-5.9,0.3-10.8,0.7-15
			c0-0.9,0.3-1.6,1-2.1c0.5-0.5,1.2-0.9,2.1-0.7c0.7,0,1.4,0.7,1.7,1.7c-0.2,1.9-0.5,6.6-0.9,13.8c0,1,0,3,0.2,5.8
			c0.2,2.8,0.2,4.5,0.2,5.1c0,0.7-0.3,1.2-1,1.7c-0.7,0.5-1.4,0.9-2.1,0.7c-0.7,0-1.2-0.7-1.4-1.6L407.4,103.2z"/>
		<path d="M437.6,83.1c0.5,0.3,0.7,0.7,0.7,1.2c0,0.9-0.3,1.7-0.9,2.6c-0.5,1-1.2,1.4-2.1,1.4c-0.3,0-1-0.3-2.3-0.9
			c-1-0.5-1.9-0.9-2.4-0.9c-2.3-0.2-4.4,0.3-6.1,1.9c-1.9,1.6-3,3.7-3.1,6.5c-0.3,2.8,0,5.1,0.7,6.5c0.7,1.6,2.3,2.4,4.5,2.6
			c1.2,0.2,2.8-0.2,4.9-1c1.9-0.9,3.3-1.2,3.8-1.2c0.5,0,1,0.3,1.2,0.7c0.3,0.3,0.3,0.7,0.3,1.2c-0.2,1-0.9,1.9-2.1,3
			c-1.4,0.9-3,1.7-4.7,2.3c-1.7,0.5-3.5,0.7-4.9,0.5c-3.3-0.3-5.6-1.9-7.2-4.5s-2.1-6.3-1.7-10.7c0.3-2.8,1.2-5.2,3-7.3
			c1.7-2.1,3.7-3.5,5.9-4.4c2.3-0.9,4.7-1.2,7.2-0.9C434.8,81.7,436.6,82.2,437.6,83.1z"/>
		<path d="M461.9,98.1c-0.2,2.4-0.5,4.9-1,7.3c-0.5,2.4-0.7,3.8-0.9,4.7c-0.2,0.7-0.5,1.4-1.2,1.7c-0.7,0.5-1.4,0.7-1.9,0.5
			c-1-0.2-1.6-0.7-1.6-1.7v-0.3l1.4-10.7l0.3-3.1c0.3-3.8-0.2-6.3-1.7-7.3c-0.7-0.5-1.6-0.9-2.6-0.9c-3.3-0.3-5.1,0.9-5.2,3.3
			c-0.3,3-0.5,5.6-0.5,7.7c0,2.1-0.2,3.8-0.3,5.4c-0.2,1.6-0.3,2.8-0.5,4.2l-0.2,0.2c-0.2,0.5-0.7,1-1.4,1.6
			c-0.7,0.3-1.2,0.5-1.7,0.5c-1-0.2-1.7-0.7-1.6-1.7h-0.2c0.5-5.9,1-12.8,1.2-19.9c0.2-7.3,0.5-13.8,1-19.8c0.3-0.9,0.9-1.6,1.9-2.1
			c0.3-0.2,0.7-0.2,1.2-0.2c0.5,0,0.9,0.3,1.2,0.9s0.5,1.4,0.5,2.6s0,2.3-0.2,3.5c-0.2,1.2-0.2,2.8-0.3,4.7
			c-0.2,1.9-0.2,3.7-0.3,5.2c2.1-0.9,4-1.2,5.9-1c1.9,0.2,3.5,0.7,4.5,1.4c2.1,1.2,3.3,3.1,3.8,5.8C462.1,93,462.1,95.6,461.9,98.1z
			"/>
		<path d="M478.7,89c0-0.7,0.3-1.4,0.9-1.9c0.5-0.5,1-0.7,1.7-0.7s1.2,0.5,1.7,1.4c0.7,3.3,1.4,6.3,2.3,8.9s1.6,5.1,2.3,7.3
			c0.7,2.3,1.2,4,1.6,5.1c1-2.4,2.3-5.9,3.8-10.5c1.6-4.5,2.8-7.7,3.5-9.6c0.3-0.9,1.2-1.2,2.8-1c0.5,0,1,0.3,1.4,0.7
			c0.5,0.3,0.7,0.9,0.7,1.2c0,0.5-0.2,0.9-0.2,1.2c-7.7,19.9-13.3,33.6-16.8,40.9c-0.5,1-1.2,1.6-2.1,1.4c-0.5,0-1-0.3-1.4-0.9
			c-0.3-0.5-0.5-1.2-0.5-2.1c0-0.9,0.5-2.3,1.2-4.2c0.7-1.9,1.7-4,2.6-6.3c1-2.3,1.7-3.8,2.1-4.7c-0.9-1.7-2.1-5.4-3.7-11.4
			C481,98.3,479.6,93.2,478.7,89z"/>
		<path d="M512.1,90.8c1.6-0.7,3.3-1,5.1-0.9c1.9,0.2,3.5,1.2,4.9,2.8c2.6,3.3,3.5,7.5,3,12.8c-0.3,2.8-1.4,5.6-3.1,8.4
			c-0.9,1.4-2.1,2.4-3.3,3.3c-1.4,0.9-2.8,1.2-4.5,1c-1.6-0.2-3.1-0.9-4.7-1.9c-1.4-1-2.6-2.4-3.5-3.8c-1.7-3.3-2.6-6.3-2.3-8.9
			c0.3-3.7,1.7-6.8,4.2-9.6C509.3,92.5,510.5,91.5,512.1,90.8z M516,114c1.2-0.5,2.3-1.4,3-2.8c0.7-1.4,1.2-2.8,1.4-4.2
			c0.2-1.4,0.2-2.8,0.2-4c0-1.2-0.3-2.3-0.5-3.5c-0.3-1-0.9-2.1-1.6-3s-1.6-1.4-2.6-1.7c-1.7,0.2-3.3,1-4.7,2.6
			c-1.4,1.6-2.1,3.3-2.3,5.1c-0.2,1.7,0.3,4,1.6,6.6c0.5,1.2,1.4,2.3,2.4,3.3C513.7,113.3,514.7,113.8,516,114z"/>
		<path d="M543.4,116.6c-3.1,2.6-6.1,3.8-8.9,3.7c-1.4-0.2-2.4-0.7-3.5-1.9c-1-1.2-1.6-2.6-1.9-4.4c-0.7-3.3-0.9-6.6-0.5-9.8
			c0.3-3.1,0.9-6.6,1.6-10.7c0.2-0.7,0.7-1.2,1.2-1.6c0.5-0.3,1-0.5,1.6-0.5c1,0.2,1.7,0.7,1.9,1.9c-0.5,2.8-0.9,5.4-1.2,8
			c-0.2,2.6-0.3,4.4-0.3,5.6c-0.2,3,0.5,5.9,2.1,9.1c1.6-0.2,3.1-0.9,4.7-1.7c1.4-1,2.6-2.1,3.5-3.5c0.2-5.9,0.3-10.8,0.7-15
			c0-0.9,0.3-1.6,1-2.1c0.5-0.5,1.2-0.9,2.1-0.7c0.7,0,1.4,0.7,1.7,1.7c-0.2,1.9-0.5,6.6-0.9,13.8c0,1,0,3,0.2,5.8
			c0.2,2.8,0.2,4.5,0.2,5.1c0,0.7-0.3,1.2-1,1.7c-0.7,0.5-1.4,0.9-2.1,0.7c-0.7-0.2-1.2-0.7-1.4-1.6L543.4,116.6z"/>
		<path d="M555.1,114.5l0.2-1.7c0.2-2.4,0.3-5.2,0.2-8.2s-0.3-5.2-0.5-6.8c-0.3-1.6-0.3-2.4-0.3-2.8c0-0.3,0.3-0.7,0.9-1
			c0.5-0.3,1.2-0.5,1.9-0.3c0.7,0,1.2,0.3,1.6,0.9c0.3,0.5,0.5,1,0.5,1.7c0,0.5,0,1.2,0,2.3c0,1,0,1.6,0,1.7c1.2-2.4,3.1-4,5.8-4.7
			c1.2-0.3,2.6-0.5,4.2-0.3c3.3,0.3,4.9,1.4,4.7,3c-0.2,1-0.7,1.7-1.9,2.3c-0.5,0.2-0.9,0.2-1.2,0.2l-1.7-0.3
			c-5.1-0.5-8,4.4-9.1,14.3l-0.5,5.6v0.2c-0.2,0.7-0.7,1.4-1.2,1.7c-0.7,0.5-1.2,0.7-1.9,0.7c-0.9,0-1.4-0.9-1.6-2.3
			C554.8,118.9,554.8,117,555.1,114.5z"/>
		<path d="M408.6,170.2l0.3-3.1c0-0.5,0.2-1,0.2-1.9c0-0.9,0.2-1.7,0.2-2.8c0-1,0.2-2.1,0.2-3.1c0-1,0-2.1,0-3
			c0-1.9-0.3-3.5-0.9-4.9c-0.5-1.4-1.4-2.1-2.4-2.1c-1-0.2-1.9,0-2.6,0.3c-0.7,0.3-1.4,0.9-1.7,1.6c-1,1.6-1.7,3.1-2.1,4.9
			s-0.5,3.7-0.9,5.8l-0.9,6.5c0,0.9-0.5,1.4-1,1.9c-0.7,0.3-1.4,0.5-2.3,0.5c-1-0.2-1.4-0.9-1.4-2.1c0.3-3.3,0.7-7.5,0.9-12.4
			c0.3-4.9,0.5-9.1,0.9-12.2c0.3-0.7,0.7-1.2,1.2-1.7s1-0.7,1.4-0.7c0.5,0,0.7,0.2,1,0.2c0.2,0,0.3,0.2,0.5,0.3
			c0.2,0.2,0.2,0.3,0.3,0.5c0,0.2,0.2,0.3,0.2,0.7c0,0.3,0,0.7,0,0.9c0,0.2,0,0.7,0,1.2c0,0.5,0,1,0,1.4c2.4-2.6,5.2-3.8,8.6-3.5
			c2.3,0.2,3.8,1.4,4.7,3.7c1.4,3.3,1.7,8,1,14.3l-0.5,5.8c-0.2,1.6-0.3,2.6-0.5,3c-0.2,0.5-0.5,0.9-0.7,1.2c-0.5,0.7-1.2,1-2.3,0.9
			C408.8,172.1,408.4,171.4,408.6,170.2z"/>
		<path d="M441.5,152.3l-0.5,4.2c-0.2,1.6-0.5,3.7-1,6.1c-0.2,4.4-0.2,8.2,0.2,11.7c-0.2,0.3-0.5,0.7-1,1c-0.5,0.2-1,0.3-1.7,0.2
			c-0.7-0.2-1-0.2-1.4-0.3c-0.3-0.2-0.5-0.5-0.7-0.9c-0.2-0.3-0.2-0.7-0.2-0.9s0-0.5,0-1c0-0.3,0-0.7,0-0.7
			c-2.1,1.7-4.7,2.6-7.7,2.3c-3-0.3-5.1-1.7-6.1-4.2c-1-2.4-1.4-5.8-1-10c0.7-7.3,3.3-11.7,7.5-13.3c1.4-0.5,2.8-0.7,4.5-0.5
			c1.6,0.2,3.1,0.5,4.7,1.4c0.5-0.7,1.4-1,2.3-0.9c1.7,0.2,2.4,1.6,2.3,4.2C441.5,151.3,441.5,152,441.5,152.3z M434.1,166.3
			c1-2.1,1.6-4.5,1.9-7c0.2-2.6,0.2-4.4-0.3-5.8c-0.5-1.2-1.6-1.9-3-2.1c-0.7,0-1.4,0-2.4,0s-2.1,0.9-3.1,2.4c-1,1.6-1.6,3-1.7,4.2
			l-0.2,2.4c-0.3,4.2,0.2,7,1.7,8.4c0.5,0.3,1.2,0.7,2.1,0.7c0.9,0,1.9-0.2,3-0.9C432.7,168.1,433.6,167.4,434.1,166.3z"/>
		<path d="M462.3,166.3l0.3-3.3c0.2-2.6,0.3-4.4,0-5.1c-0.2-0.9-0.5-1.6-0.7-2.3c-0.5-1.2-1.7-1.9-3.5-2.3c-1.7-0.2-3.1,0.3-3.8,1.4
			c-0.7,1-1.2,2.8-1.6,5.1l-0.7,11.4c-0.3,3.5-1.4,5.1-3.3,4.9c-1-0.2-1.6-0.7-1.7-1.9c0.9-8.2,1-15.6,0.7-22c0-0.9,0.5-1.6,1-2.1
			c0.7-0.5,1.4-0.9,2.1-0.7c0.7,0,1.2,0.5,1.6,1.4c1.7-1.7,3.8-2.6,6.3-2.4c3.1,0.3,5.4,2.1,6.8,5.4c2.3-2.8,5.1-3.8,8.6-3.5
			c1.6,0.2,3,0.7,4.2,1.6c1.2,0.9,2.1,1.9,2.8,3.1c1.6,3.3,2.1,8.6,1.4,15.7l-0.2,2.6c-0.2,2.4-0.7,4-1.2,4.7
			c-0.2,0.2-0.5,0.5-0.7,0.7c-0.3,0.3-0.9,0.3-1.7,0.3c-1-0.2-1.6-0.9-1.4-2.1l0.9-7.5c0.5-5.1,0.3-8.4-0.5-10.3
			c-0.5-1-1.2-1.9-2.3-2.8c-1-0.9-1.9-1.2-2.8-1.4c-0.9-0.2-1.7,0-2.3,0.3c-0.5,0.3-1,0.9-1.6,1.7c-0.9,1.6-1.4,4.7-1.9,9.6
			l-0.7,8.7h-0.2c-0.3,0.7-0.7,1-1.4,1.6c-0.7,0.3-1.2,0.5-1.9,0.5c-1-0.2-1.4-0.7-1.4-1.9h-0.2L462.3,166.3z"/>
		<path d="M505.5,155.1c1.9,1.4,2.6,3,2.4,4.9c-0.2,1.7-1.2,3.5-3.3,5.1c-2.1,1.6-4.4,2.4-7,2.6c-0.2,0-0.5,0-0.5,0
			c-0.2,0-0.3,0-0.5,0c-0.2,0-0.3,0-0.5,0c-0.2,0-0.3,0-0.5,0c-0.3,0-0.5,0-0.5,0c-0.2,0-0.3,0-0.7,0c-0.3,0-0.5,0-0.7,0
			c0.2,3.1,0.5,5.4,1.2,6.5c1,1,1.9,1.6,2.8,1.7c1.9,0.2,4-0.5,5.8-1.9c1.7-1.4,3.1-2.3,4-2.1c0.3,0,0.7,0.3,1.4,1
			c0.5,0.7,0.9,1.2,0.9,1.7s-0.5,1.2-1.2,1.9c-0.9,0.7-1.7,1.6-3,2.3c-1.2,0.7-2.6,1.4-4.2,1.9s-3.1,0.7-4.5,0.5
			c-1.4-0.2-2.6-0.5-3.5-1.4c-1.7-1.4-3-3.5-3.7-6.3c-0.7-3-0.9-5.9-0.5-8.9s1.2-5.8,2.8-8.2c1.7-2.6,4.5-3.8,8-3.5
			C501.6,153,503.5,153.7,505.5,155.1z M502.7,159.8c0.2-1.7-0.9-2.6-3.1-3c-1.6-0.2-3,0.5-4.2,2.3c-0.3,0.5-0.7,1-0.9,1.7
			c-0.2,0.7-0.3,1.4-0.7,2.3C499.4,163.7,502.3,162.6,502.7,159.8z"/>
	</g>
</g>
<g id="dog">
	<path id="ear2" style="fill:#231F20;" d="M285.8,553c0,0,9.8-89,19.4-93.6c9.6-4.4,72.8,1,69.8,30.1c-1.7,16.1-14,22.6-25.4,18
		c-10.7-4.2-28.5-32.2-33.8-30.4c-6.5,2.3-22.2,75.7-22.2,75.7h-7.9V553z"/>
	<path id="ear1" style="fill:#231F20;" d="M224.9,610.4c0,0-48.1-88.5-44.6-100.6s71.7-49.5,79.9-31.7c8.2,17.8,3.7,30.6-5.9,34.6
		c-9.1,3.8-55.1-7-56.8-0.3c-1.7,6.5,32.9,94.6,32.9,94.6L224.9,610.4z"/>
	<g id="leg1">
		<path style="fill:#B56F29;" d="M155.7,912.1c0,0,0,39.5-2.3,56.1s-7.2,25-8,31.8c-0.7,5.6,1.7,14.9,10.3,16.1
			c10.7,1.4,19.8-7,19.8-7s5.2,9.1,15.6,9.1c7,0,8.6-8.4,8.6-8.4s3,7.5,12.4,7.7c9.3,0,10.5-7.3,10.5-7.3s4,5.2,11,1.6
			c6.6-3.7,7.2-17.5,0.9-29.2c-6.5-11.7-18-17.7-29.6-15c-13.3,3.1-20.1,21.7-30.1,20.1c-4.4-0.7-5.6-20.1-5.6-29.7
			c0-9.8,2.3-40.6,2.3-40.6L155.7,912.1z"/>
		<path style="fill:#754D24;" d="M211.8,981.4c0,0,9.4,7.2,11.7,16.3c1.9,7.5,0,14,0,14l-1.2-1.2c0,0,1.6-8.9-1-14.9
			C218.6,989.4,211.8,981.4,211.8,981.4z"/>
		<path style="fill:#754D24;" d="M200.6,1012c0,0,0.7-8.6-0.9-12.8c-1.6-4.2-7.3-8.2-7.3-8.2s4.4,5.4,5.6,9.4c1,3.8,1.6,9.6,1.6,9.6
			L200.6,1012z"/>
		<path style="fill:#754D24;" d="M177.2,997.6c0,0,0.9,4,0.7,7.7c-0.2,2.4-0.9,6.3-0.9,6.3l-1.6-2.3c0,0,1-2.6,1.2-4.7
			C176.8,1002.3,177.2,997.6,177.2,997.6z"/>
	</g>
	<g id="leg1_1_">
		<path style="fill:#B56F29;" d="M261.8,910.7c0,0,0,37.6-2.1,53.3c-2.1,15.9-6.8,23.8-7.7,30.3c-0.7,5.2,1.6,14.2,9.8,15.2
			c10.1,1.4,18.7-6.6,18.7-6.6s4.9,8.6,14.7,8.6c6.6,0,8-7.9,8-7.9s2.8,7.2,11.7,7.3c8.9,0,10-7,10-7s3.8,5.1,10.5,1.4
			c6.3-3.5,6.8-16.6,0.9-27.8c-6.1-11-17.1-16.8-28-14.3c-12.6,3-19.1,20.5-28.5,19.1c-4.2-0.7-5.2-19.1-5.2-28.3s2.1-38.7,2.1-38.7
			L261.8,910.7z"/>
		<path style="fill:#754D24;" d="M315.2,976.5c0,0,9.1,6.8,11.2,15.4c1.7,7.2,0,13.3,0,13.3l-1.2-1.2c0,0,1.6-8.4-0.9-14.2
			C321.8,984.2,315.2,976.5,315.2,976.5z"/>
		<path style="fill:#754D24;" d="M304.7,1005.5c0,0,0.7-8-0.9-12.1c-1.4-4-7-7.9-7-7.9s4.2,5.2,5.2,8.9c1,3.7,1.4,9.1,1.4,9.1
			L304.7,1005.5z"/>
		<path style="fill:#754D24;" d="M282.3,991.9c0,0,0.9,3.8,0.7,7.2c-0.2,2.4-0.9,5.9-0.9,5.9l-1.6-2.1c0,0,1-2.4,1.2-4.5
			C282.1,996.4,282.3,991.9,282.3,991.9z"/>
	</g>
	<g id="body_1_">
		<path style="fill:#D18029;" d="M312,562.8c0,0,33.2-24.7,43.6-16.8c10.3,8,4.9,22.9,4.9,22.9l-47.6,12.6L312,562.8z"/>
		<path id="_x3C_Path_x3E_" style="fill:#F69220;" d="M402.5,772.4c35.2-5.2,74-71,74-71l-43-65.1c0,0-28.3,5.1-44.3,0
			s-24.7-20.1-24.7-20.1l-45.3-39.4c0,0,2.8-20.1-6.3-25.2c-9.3-5.1-30.6-7.7-54.2,12.4c-21.3,18.2-27.6,34.6-38,39.2
			c-6.1,2.6-26.8-9.6-57.5-4.2c-27.6,4.9-46.2,19.9-37.1,21.7c23.4,4.5,46.3,12.9,43.4,18c-3,5.1-20.6,1.7-44.3,13.8
			c-22.9,11.7-34.3,29.7-28,27.6c18.4-6.3,40.1-3.8,40.1,1.7c0,5.4-12.2,5.2-24.7,19.6c-11.5,13.5-18.7,31.8-15.7,29.4
			c16.4-12.8,39-21.5,41.6-13.1c2.4,8.4-40.6,64.7-31.7,123.7c8.7,58.9,45.5,84.1,100,90.3c60.7,6.8,112.5-1.6,134-57.7
			c14.7-38.3-8.2-68.7-5.6-75.9c2.4-7.2,17.5,5.9,22.2-7.9c2.6-8-21.7-12.6-15-20.8C348.9,760.6,373.1,776.7,402.5,772.4z"/>
	</g>
	<path id="mounth" d="M271.3,709.4c0,0,14.7,29,30.4,41.3c16.8,13.3,39.4,21.3,39.4,21.3l1.7-3.7c0,0-23.8-7.7-39-20.1
		C285.8,733.2,271.3,709.4,271.3,709.4z"/>
	<path id="hand" style="fill:#B56F29;" d="M169.8,769c0,0-26.6,63.3-29.7,67.7c-6.5,8.6-22-3.3-27.5,5.9c-3.8,6.5-3.3,20.8,3.8,22.9
		c8.9,2.4,18.9-15.4,23.8-9.1c4.9,6.3-14.9,11-15.6,20.5c-0.7,8.4,14.9,17.7,21.9,9.4c7-8.4-0.2-25.7,4-26.9
		c4.2-1.2,4.5,16.4,10,19.6c7.2,4.2,17.5,2.4,19.2-10.8c1.9-14.7-20.3-17-19.4-24.1c0.9-7.2,18-68.2,18-68.2L169.8,769z"/>
	<path id="tail" style="fill:#1A1A1A;" d="M120.7,880.6c0,0-18.2,10.8-40.4-2.6c-31.8-19.1-20.1-53,0-50.9
		c11.5,1.4,16.8,14.3,16.8,14.3s18.7-19.1,9.8-41.1S61,776.9,43,794c-21,19.9-13.5,42-15.4,45s-15.2-17.1-18.4-26.8
		c-1.2-3.8-13.5,18.7,0.2,43.6c10.5,19.1,27.6,26.8,25.9,29.7S10.8,882,0.5,873.8c-2.3-1.9,3.5,25.9,31.7,35
		c24.7,7.9,49.1-7.9,49.8-4.4c0.9,3.3-6.8,12.2-11.4,14.3c-6.1,2.8,9.8,3.8,23.4-3.7c19.4-11,28.2-28.2,28.2-28.2L120.7,880.6z"/>
	<g id="nose">
		<circle cx="475.4" cy="653.1" r="53.2"/>
		
			<ellipse transform="matrix(0.9686 -0.2486 0.2486 0.9686 -140.3317 135.7557)" style="fill:#343433;" cx="467.3" cy="623.5" rx="30.1" ry="13.3"/>
	</g>
	<ellipse id="bb" style="fill:#754D24;" cx="300.8" cy="887.1" rx="6.3" ry="5.9"/>
	<g id="eyesopen">
		<circle style="fill:#CBCBCA;" cx="345.4" cy="590.3" r="29.6"/>
		<circle cx="357.3" cy="589.6" r="8"/>
		<circle style="fill:#FFFFFF;" cx="301.7" cy="616.9" r="43.7"/>
		<path d="M328.1,606.9c0,5.6-4.5,10-10,10c-5.6,0-10-4.5-10-10c0-5.6,4.5-10,10-10C323.7,596.7,328.1,601.3,328.1,606.9z"/>
		<path style="fill:#F69220;" d="M371.3,616.9c-3.8-3-8.2-3-8.2-3s-31.3,4.2-42.7,12.1c-17.5,11.9-15.6,31.7-14.5,34.6
			c1,3,29.4,11.7,36.6,0c9.3-15.4,33.9-31.1,33.9-31.1S377.1,621.4,371.3,616.9z"/>
		<path style="fill:#F69220;" d="M246.4,663.7c0,0,4.4-12.4,16.1-17.7c10.3-4.7,41.3,9.3,43.4,14.5
			C308.5,666.5,246.4,663.7,246.4,663.7z"/>
	</g>
	<g id="eyesclosed">
		<circle style="fill:#D18029;" cx="345.4" cy="590.3" r="29.6"/>
		<path style="fill:#603A17;" d="M370.4,574.5c0,0,0.5,0.9,0.9,1.6c0.3,0.5,0.9,1.9,0.9,1.9s-14.3,3.1-27.8,10
			c-10.1,5.1-19.6,12.8-23.6,20.6l-1.9-2.6C318.8,605.8,328.6,581.4,370.4,574.5z"/>
		<circle style="fill:#E48525;" cx="301.7" cy="616.9" r="43.7"/>
		<path style="fill:#F69220;" d="M371.3,616.9c-3.8-3-8.2-3-8.2-3s-31.3,4.2-42.7,12.1c-17.5,11.9-15.6,31.7-14.5,34.6
			c1,3,29.4,11.7,36.6,0c9.3-15.4,33.9-31.1,33.9-31.1S377.1,621.4,371.3,616.9z"/>
		<path style="fill:#F69220;" d="M246.4,663.7c0,0,4.4-12.4,16.1-17.7c10.3-4.7,41.3,9.3,43.4,14.5
			C308.5,666.5,246.4,663.7,246.4,663.7z"/>
		<path style="fill:#603A17;" d="M335.1,588.5c0,0,1.2,1.6,1.6,1.9c0.3,0.5,1.6,2.1,1.6,2.1s-20.5,5.4-39.5,16.3
			c-14.3,8.2-28,20.8-33.1,32.4c0,0-1.4-2.1-1.4-2.3c-0.2-0.3-1.2-2.3-1.2-2.3S274.8,601.3,335.1,588.5z"/>
	</g>
</g>
</svg>
