<?xml version="1.0" encoding="utf-8"?>
<!-- Generator: Adobe Illustrator 21.0.0, SVG Export Plug-In . SVG Version: 6.00 Build 0)  -->
<svg version="1.1" xmlns="http://www.w3.org/2000/svg" xmlns:xlink="http://www.w3.org/1999/xlink" x="0px" y="0px"
	 viewBox="0 0 551.4 401.7" style="enable-background:new 0 0 551.4 401.7;" xml:space="preserve">
<style type="text/css">
	.Drop_x0020_Shadow{fill:none;}
	.Outer_x0020_Glow_x0020_5_x0020_pt{fill:none;}
	.Blue_x0020_Neon{fill:none;stroke:#8AACDA;stroke-width:7;stroke-linecap:round;stroke-linejoin:round;}
	.Chrome_x0020_Highlight{fill:url(#SVGID_1_);stroke:#FFFFFF;stroke-width:0.3629;stroke-miterlimit:1;}
	.Jive_GS{fill:#FFDD00;}
	.Alyssa_GS{fill:#A6D0E4;}
	.st0{fill:#B7D333;}
	.st1{fill:#DC2626;}
	.st2{fill:#B22025;}
	.st3{fill:#B56F29;}
	.st4{fill:#1A1A1A;}
	.st5{fill:#F69220;}
	.st6{fill:#CBCBCA;}
	.st7{fill:#FFFFFF;}
	.st8{fill:#E48525;}
	.st9{fill:#603A17;}
	.st10{fill:#343433;}
</style>
<linearGradient id="SVGID_1_" gradientUnits="userSpaceOnUse" x1="-61.1786" y1="-236.3095" x2="-61.1786" y2="-237.3095">
	<stop  offset="0" style="stop-color:#656565"/>
	<stop  offset="0.618" style="stop-color:#1B1B1B"/>
	<stop  offset="0.6292" style="stop-color:#545454"/>
	<stop  offset="0.9831" style="stop-color:#3E3E3E"/>
</linearGradient>
<g id="svg-text-welldone">
	<g id="welldonetext">
		<path id="black-w" d="M201.9,235.5c-4.3,0-8.2-1.3-10.3-2c-3.3-1.1-6.1-3.8-14.9-16.6c-0.3,0.7-0.6,1.3-0.9,1.8
			c-3.3,6.7-4.6,9.1-5.8,10.6c-1.5,1.8-4.3,4-9.4,4c-2.4,0-10.4-0.5-12.8-6.3c-0.3-0.8-0.7-1.7-1.2-2.7c-4.9-11.1-14-31.9-27-109.4
			c-1.5-8.8,6.3-11.7,8.9-12.6c2.1-0.8,4-1.1,6.2-1.1c1.6,0,3,0.2,4.7,0.4c0.7,0.1,1.4,0.2,2.3,0.3c7,0.8,9.7,7.4,13.8,25.7
			c2.5,11,4.8,24.1,6.6,33.6c0.9,4.8,1.5,8.5,2,10.4c0.2,0.8,0.7,2.2,1.3,3.8c2.7-3.3,5.7-7.2,6.9-9c1.7-2.6,4.5-4.1,7.5-4.1
			c4.6,0,8.6,3.2,13.3,10.6c0.7,1.1,1.4,2.2,2,3.4c1-4.9,2-10.5,2.7-14.4c0.8-4.1,1.4-7.6,1.9-9.9c0.7-3.6,9.4-41.1,12.3-46.1
			c2.1-3.6,5.9-5.8,10.2-5.8c3.6,0,7.4,1.5,10,4c0.1,0,0.1,0.1,0.2,0.1c1.3,0.8,4,2.4,5.6,6.7c2,5.3,0.5,27.8,0.5,28
			c-0.4,5.6-3.6,16.3-7.1,27.6l-0.9,2.8c-0.6,1.9-1.9,8.2-3.3,15c-8.2,38.7-10.5,45.1-14.9,48.2
			C209.2,234.5,205.8,235.5,201.9,235.5z"/>
		<path id="black-e1" d="M285.9,232.9c-26,0-44.8-14.2-53-40.1c-0.1-0.4-0.2-0.7-0.3-1.1c-0.1-0.5-1.9-11.8-1.9-19.4
			c0-15.5,6.8-32.8,18.1-46.3c12.7-15.1,29.1-23.4,46.2-23.4c29.9,0,39.6,27.5,42.4,50.6c0,0.3,0.1,0.7,0.1,1v10.9
			c0,18.1-14.4,29.8-36.7,29.8l-0.4,0c-0.3,0-0.6,0-0.9-0.1c-0.2,0-15.5-1.8-24-1.8l-0.4,0c-1.3,0-2.3,0-3.1,0.1
			c1.5,3.9,8,9.3,17.1,9.3l0.3,0c6.9-0.1,12.7-5,12.7-5.1c2.6-2.2,5.7-2.2,6.8-2.2c0.7,0,1.1,0,1.1,0c0.1,0,0.3,0,0.4,0
			c7.5,0.9,12.4,8.1,12.5,18.5c0,0.6,0.1,1.7,0,2.9c-0.6,6.5-5.4,14.6-25.4,16.3c-0.2,0-0.5,0-0.7,0H285.9z M270.4,160.1
			c0.6,2.5,6.6,4.1,12.2,4.3c1.3,0,2.6,0.1,3.8,0.1c11,0,15.5-1.8,17-2.6v-5.4c-1.3-12.6-6.3-17.8-17.4-17.8h-1.8
			C280.9,138.6,273.4,145.1,270.4,160.1z"/>
		<path id="black-L1" d="M361.3,235.5c-4.1,0-9.5-0.1-10.3-0.2c-11-0.1-13.1-15.4-14-21.9c-1.4-10.5-2.1-25.6-2.1-46.2V28.5
			c0-12.1,16.7-15,23.1-16.2c0.5-0.1,1.5-0.3,2.7-0.3c1.3,0,2.6,0.2,3.7,0.7c2.8,1.1,7.6,5.9,8.7,8.7c0.8,2.1,0.7,4.2,0.5,5.6v90.3
			l4.1,76.4c0,0.1,0,0.3,0,0.4v2c0.4,27.5,0.1,28.1-0.5,29.9c-0.8,2.1-4.8,7.7-9.6,9C366.6,235.4,365.4,235.5,361.3,235.5z"/>
		<path id="black-L2" d="M409.3,235.5c-4.1,0-9.5-0.1-10.3-0.2c-11-0.1-13.1-15.4-14-21.9c-1.4-10.5-2.1-25.6-2.1-46.2V28.5
			c0-12.1,16.7-15,23.1-16.2c0.5-0.1,1.5-0.3,2.7-0.3c1.4,0,2.6,0.2,3.7,0.7c2.8,1.1,7.6,5.9,8.7,8.7c0.8,2.1,0.7,4.2,0.5,5.6v90.3
			l4.1,76.4c0,0.1,0,0.3,0,0.4v2c0.4,27.5,0.1,28.1-0.5,29.9c-0.8,2.1-4.8,7.7-9.6,9C414.5,235.4,413.4,235.5,409.3,235.5z"/>
		<path id="black-d" d="M101.4,381.8c-2.5,0-4.5-0.3-5.7-0.6c-5-0.5-7.6-4.5-9-9.3c-8.8,6.2-19.5,9.3-32,9.3
			c-23.5,0-40.6-10.5-49.6-30.3c-0.1-0.1-0.1-0.3-0.2-0.4c-0.3-0.8-3.1-8.1-4-12.3C0.1,334-0.7,324.2,1,315c0-0.1,0.1-0.3,0.1-0.4
			c7-29.5,30.4-50.2,57.1-50.4c1.1-0.1,3.5-0.3,6.6-0.3c2.4,0,4.7,0.1,6.9,0.4c4.6,0.5,9.1,1.7,13.4,3.6c0-32,0-76.5,0-78.8
			c-0.1-6.7,5.3-11.1,10.7-12.4c0.6-0.2,1.3-0.2,1.9-0.2H108c0.8,0,1.6,0.1,2.4,0.4c8.5,2.7,9.8,11.9,9.8,17.2c0,0,0,49.5,0,49.6
			L118.3,367c0,0.2,0,0.5,0,0.7c-0.4,4-3.2,11.3-10.6,13.3C105.7,381.6,103.6,381.8,101.4,381.8z M54.8,344.8
			c11.5,0,24.5-12.1,24.5-28.4c0-6.8-1.7-12.1-5-15.4c-2.2-2.2-5-3.4-8-3.4c-8.2,0-19.9,2.4-26.9,22.7c0,0.1-0.1,0.3-0.1,0.3
			s-1,2.7-1.4,6.2c-0.2,1.3-0.4,2.5-0.6,3.6c-0.6,3-0.8,4.2,0,6c1.2,1.9,7.8,6.9,16.3,8.3H54.8z"/>
		<path id="black-o" d="M169.6,379.4c-30.2,0-45.3-11.6-52.1-40c-0.1-0.6-1.5-6.2-1.1-11.5c1.8-33.7,17.9-48.9,49-66.6
			c0.1-0.1,0.2-0.1,0.3-0.2c6.6-3.3,15.1-5,26-5c25.1,0,46.8,15.8,48.6,35.4c1.8,10.5,0.9,21.6,0,29.1
			c-3.4,28.9-35.7,49.9-44.2,53.9c-7.2,3.4-20.4,4.6-22.9,4.8c-0.1,0-0.3,0-0.4,0C171.7,379.4,170.6,379.4,169.6,379.4z
			 M191.6,291.9c-32.5,8.6-39.2,22.7-39.2,41.2c0,3,0,10.8,17.5,14.9c13.2-0.8,34.6-21.3,36.4-39c0.2-2.3,0.1-6.9,0-9.5
			c-1.3-7.9-4.3-8.2-6.6-8.2L191.6,291.9z"/>
		<path id="black-n" d="M253.9,392.8c-0.3,0-0.5,0-0.8,0c-8.9-0.4-13.5-8.1-13.6-15.5v-75.9c-0.3-6.1-1.9-33.4-1.9-36.4
			c0-5.1,3.1-9.9,9.1-14.2c2.3-1.6,5.1-2.3,9.3-2.3c3.8,0,8,0.6,9.5,0.9c3.9,0.3,7.3,2.6,9.1,6.3c0.2,0.3,0.3,0.7,0.5,1.1
			c14.2-6.3,24.3-9.3,31.4-9.3h7.6c22.6,0,38.4,17.1,40.3,43.6c0,0.1,0,0.2,0,0.3c1.3,39.2-16.1,78.6-43.3,98.1
			c-1,0.8-5,3.4-10.3,3.4c-2.4,0-4.8-0.5-7-1.6c-4.3-2.1-6.1-5.3-6.9-7.6c-1.6-4.8,0.3-9,0.9-10.1c0.1-0.2,0.3-0.5,0.4-0.7
			c20.6-31.1,31-55.2,31-71.7c0-8.1-6.5-16.8-17.1-16.8c-0.4,0-0.7,0-1.1,0c-10.5,0.6-22.8,5.9-24.5,13.4
			c-1.7,7.7-2.7,38.7-3.3,57.2c-0.3,9.5-0.5,16.4-0.8,19.2c0,0.5-0.1,0.9-0.2,1.3C269.6,386.2,262.5,392.8,253.9,392.8z"/>
		<path id="black-e2" d="M406.6,377.8c-26,0-44.8-14.2-53-40.1c-0.1-0.4-0.2-0.7-0.3-1.1c-0.1-0.5-1.9-11.8-1.9-19.4
			c0-15.5,6.8-32.8,18.1-46.3c12.7-15.1,29.1-23.4,46.2-23.4c29.9,0,39.6,27.5,42.4,50.6c0,0.3,0.1,0.7,0.1,1v10.9
			c0,18.1-14.4,29.8-36.7,29.8l-0.4,0c-0.3,0-0.6,0-0.9-0.1c-0.2,0-15.5-1.8-24-1.8l-0.4,0c-1.3,0-2.3,0-3.1,0.1
			c1.5,3.9,8,9.3,17.1,9.3l0.3,0c6.9-0.1,12.7-5,12.7-5.1c2.6-2.2,5.7-2.2,6.8-2.2c0.7,0,1.1,0,1.1,0c0.1,0,0.3,0,0.4,0
			c7.5,0.9,12.4,8.1,12.5,18.5c0,0.6,0.1,1.7,0,2.9c-0.6,6.5-5.4,14.6-25.4,16.3c-0.2,0-0.5,0-0.7,0H406.6z M391,304.9
			c0.6,2.5,6.6,4.1,12.2,4.3c1.3,0,2.6,0.1,3.8,0.1c11,0,15.5-1.8,17-2.6v-5.4c-1.3-12.6-6.3-17.8-17.4-17.8h-1.8
			C401.5,283.4,394,289.9,391,304.9z"/>
		<path id="black-excl" d="M476.9,401.7c-2.1,0-4.1-0.2-5.8-0.5c-8.6-1.6-16.2-12.6-17.8-19.5c-0.3-1.2-0.3-2.7-0.2-4.4
			c0-0.1,0-0.2,0-0.4c1.8-12.6,4.2-19.2,17-23.5c-4.9-1-7.4-3.2-9.4-8.4c-0.8-1.9-1.5-3.8-1.1-73.2c0.1-16,0.5-68.3,1.2-72.1
			c1.3-6.3,4.4-10.2,10-12.7c2.3-1,5-2,8.5-2c2,0,4.1,0.3,6.6,1c8.9,2.5,11.5,9.5,11.6,13.2c0,0.1,0,60.7,0,60.7l1.9,68.4
			c0,0.1,0,5.9,0,5.9c0,12.5-6,18.6-12.4,19.3c3.4,1.5,10.2,7.4,12.1,11.7c1.8,4.2,1.8,8,1.8,13.9v0.4c0,8.7-5.9,16.5-15.8,21
			c-0.7,0.3-1.4,0.5-2.1,0.6C482.9,401.3,480.2,401.7,476.9,401.7z"/>
		<path id="green-w" class="st0" d="M131.3,109.8c2.9-1.1,4.7-0.5,9.5,0c4.9,0.5,13.3,53.5,15.4,63.5c0.6,3,5,14.4,7.5,14.5
			c2.4,0.2,13.2-14,15.2-17.1c2-3.2,10.9,10.6,13.3,19c0.6,2.4,5.9,2.5,7.6,0c1.7-2.5,5.9-27.7,7.6-36.2c1.7-8.5,9.7-40.7,11.4-43.8
			c1.7-3.1,6-1.6,7.6,0c1.6,1.6,2.9,1.3,3.8,3.8c0.9,2.5,0.4,18.9,0,24.7c-0.4,5.8-5.4,21.3-7.6,28.6c-2.2,7.3-10.9,55.9-15.2,59
			c-4.3,3.1-10.4,1-13.3,0c-2.9-1-15.4-20.4-17.1-22.8c-1.3-1.5-1.9,0-1.9,0c-2.3,2.8-9.6,19.2-11.3,21.3c-1.7,2.1-8.3,0.5-8.6-0.4
			c-4-9.6-13.6-26.1-27.7-110.3C127.2,111.5,128.4,110.9,131.3,109.8z"/>
		<path id="green-e1" class="st0" d="M295,110.6c19.4,0,30.9,14.5,34.5,43.5v1.8v1.8v5.4v1.8c0,13.2-10.7,21.9-29,21.8
			c0,0-16.5-1.9-25.4-1.8c-8.9,0.1-11.6,1-11.3,6.9c0.4,8.9,11.7,18.7,25.9,18.5c9.9-0.1,17.4-6.6,17.8-7c0.4-0.4,2.1-0.3,2.1-0.3
			c3.3,0.4,5.4,4.8,5.4,10.9c0,0,0.1,0.8,0,1.8c-0.5,6-9.8,8.3-18.1,9.1h-10.9c-19.5,0-37.4-9.2-45.4-34.5c0,0-1.8-11.1-1.8-18.1
			C238.7,144.9,263.2,110.6,295,110.6z M262.3,159.6c0,6.9,6.6,12.2,20,12.7c20.5,0.7,29-3.8,29-9.1V156
			c-1.6-16.9-10-25.4-25.4-25.4h-1.8C275.8,130.6,265.7,140.8,262.3,159.6z"/>
		<path id="green-L1" class="st0" d="M359.5,20.2c0,0,1.4-0.3,2.1,0s3.9,3.4,4.1,4.1c0.3,0.8,0,2.1,0,2.1v4.1v33.1v22.8v31.1
			l4.1,76.7v2.1c0,0,0.3,26.1,0,26.9c-0.3,0.9-2.8,3.8-4.1,4.1c-1.4,0.4-14.5,0-14.5,0c-5.5,0-8.3-20-8.3-60.1V28.5
			C342.9,24.9,348.4,22.1,359.5,20.2z"/>
		<path id="green-L2" class="st0" d="M407.4,20.2c0,0,1.4-0.3,2.1,0s3.9,3.4,4.1,4.1c0.3,0.8,0,2.1,0,2.1v4.1v33.1v22.8v31.1
			l4.1,76.7v2.1c0,0,0.3,26.1,0,26.9c-0.3,0.9-2.8,3.8-4.1,4.1s-14.5,0-14.5,0c-5.5,0-8.3-20-8.3-60.1V28.5
			C390.8,24.9,396.4,22.1,407.4,20.2z"/>
		<path id="green-d" class="st0" d="M97.6,184.3H108c2.8,0.9,4.2,4.1,4.2,9.5v21.2v28.3l-1.9,123.5c0,0-0.6,5.3-4.8,6.5
			c-4.2,1.2-8.6,0-8.6,0c-1.9,0-3.2-4.5-4-13.4h-4.4c-8.4,8.9-19.7,13.4-33.7,13.4c-20.5,0-34.6-8.5-42.3-25.6c0,0-2.9-7.4-3.6-11.1
			c-0.8-3.6-1.4-12.4,0-20.2c6.2-26.5,26.7-44.3,49.8-44.3c0,0,5.6-0.8,12.1,0c6.5,0.8,13.9,3.2,22.4,9.5c0,0,0-89.3,0-92.8
			C93,185.5,97.6,184.3,97.6,184.3z M29.9,325.8c-0.6,4.6-2.4,8.4,0,14c1.7,3.9,11.1,11.3,23,13h1.9c16.5,0,32.5-16.5,32.5-36.4
			c0.1-17.8-10.1-26.8-21.1-26.8c-16.5,0-28,9.4-34.5,28.1C31.8,317.8,30.5,321.2,29.9,325.8z"/>
		<path id="green-o" class="st0" d="M191.7,264.2c20.2,0,39.4,12.4,40.7,28.4c1.8,10.2,0.7,21.4,0,27.1c-3,25.6-33.5,44.7-39.7,47.7
			c-6.2,3-20.1,4-20.1,4c-29.5,0.7-41.4-9.2-47.3-33.8c0,0-1.2-4.9-0.9-9.2c1.6-29.6,14.9-43,45-60.1
			C174.8,265.6,182.2,264.2,191.7,264.2z M144.4,333.1c0,11.7,8.2,19.3,24.7,23c17.7,0,43-24.4,45.2-46.2c0.4-3.9,0-11.1,0-11.1
			c-1.5-10.3-6.5-15.4-14.8-15.4l-9.1,0.6C155.9,292.9,144.4,308.9,144.4,333.1z"/>
		<path id="green-n" class="st0" d="M306.5,255.5h7.6c16.7,0,30.6,12,32.4,36.2c1.1,34.2-13.3,72.3-40,91.4c0,0-4.3,3.3-9.1,1
			c-4.7-2.3-2.4-6.7-2.4-6.7c21.6-32.5,32.4-57.9,32.4-76.1c0-12.9-10.8-25.6-26.6-24.7c-15.9,0.9-29.5,9.1-31.9,19.6
			c-2.7,12.2-3.6,69.2-4.3,77.5c-1.5,5.8-5.2,11.6-11.2,11.3c-5.9-0.3-6-7.5-6-7.5v-38.1v-20.9v-17.1c0,0-1.9-33.2-1.9-36.2
			c0-3,3-5.7,5.7-7.6c2.7-1.9,13.3,0,13.3,0c2.5,0,3.8,2.5,3.8,7.6l1.9,1.9h1.9C288.4,259.3,299.8,255.5,306.5,255.5z"/>
		<path id="green-e2" class="st0" d="M415.3,255.5c19.4,0,30.9,14.5,34.5,43.5v1.8v1.8v5.4v1.8c0,13.2-10.7,21.9-29,21.8
			c0,0-16.5-1.9-25.4-1.8c-8.9,0.1-11.6,1-11.3,6.9c0.4,8.9,11.7,18.7,25.9,18.5c9.9-0.1,17.4-6.6,17.8-7c0.4-0.4,2.1-0.3,2.1-0.3
			c3.3,0.4,5.4,4.8,5.4,10.9c0,0,0.1,0.8,0,1.8c-0.5,6-9.8,8.3-18.1,9.1h-10.9c-19.5,0-37.4-9.2-45.4-34.5c0,0-1.8-11.1-1.8-18.1
			C359,289.7,383.5,255.5,415.3,255.5z M382.6,304.4c0,6.9,6.6,12.2,20,12.7c20.5,0.7,29-3.8,29-9.1v-7.3
			c-1.6-16.9-10-25.4-25.4-25.4h-1.8C396.1,275.4,386,285.7,382.6,304.4z"/>
		<path id="green-excl" class="st0" d="M482,393.4c0,0-5.2,0.8-9.5,0c-4.3-0.8-10.3-8.3-11.4-13.3c-0.1-0.6,0-1.9,0-1.9
			c1.7-11.4,3-14.5,13.1-17.6c2-0.6,8.1-0.2,9.7,0.4c1.6,0.6,7,5.3,8,7.6c1.2,2.7,1.1,5.5,1.1,11.1
			C493.1,385.6,488.4,390.5,482,393.4z M485.8,345.8c0,0-10.9,0.5-13.3,0c-2.5-0.5-3-0.3-4.4-3.7c-1.3-3.3-0.2-136.9,0.6-140.7
			c0.8-3.8,2.2-5.6,5.5-7c3.2-1.4,5.3-1.8,9.8-0.6c5.6,1.5,5.7,5.7,5.7,5.7v60.6l1.9,68.5c0,0,0,2.7,0,5.7
			C491.5,341.8,488.8,345.8,485.8,345.8z"/>
	</g>
</g>
<g id="svg-dog">
	<g id="tong">
		<path class="st1" d="M454.5,156.8c0,0-4.2,2.1-7.6,7.6c-2.9,4.8-3.5,12.6,1.7,14.1c6.5,1.9,8.5-2.2,8.8-4.5c0.4-2.8,1-4.3,2-5.6
			c1-1.5,2.5-2.2,2.5-2.2L454.5,156.8z"/>
		<path class="st2" d="M456.9,159.9c0,0-2.7,1.4-4.7,4.6c-1.5,2.5-2.4,5.7-1.3,6.2c1.1,0.5,1.2-3.4,2.7-5.8c1.8-3,4-4.3,4-4.3
			L456.9,159.9z"/>
	</g>
	<path id="hangR" class="st3" d="M480.6,169.1c0,0-0.8,6-2.5,9.9c-1.6,3.9-3.1,7.6-4,7.9c-0.9,0.2-9.6-3.6-13.3,0
		c-3.6,3.6-2.6,10.5,0,11.1c2.6,0.6,9.1-4.4,9.9-3.8c0.8,0.6-4.1,5.4-2.5,7.1c1.6,1.6,7.6,6.1,11.9,2.9c4.2-3.2-0.4-7.9,1.4-8.6
		c1.8-0.7,6.1,5.8,10,3.8c3.9-2,5.9-5.8,3.4-9.6c-2.5-3.9-13.8-0.6-13.8-1.2c0-0.6,1.8-2.1,3.5-7.5c1.8-5.4,1.6-13.1,1.6-13.1
		L480.6,169.1z"/>
	<path id="handL" class="st3" d="M429.2,138.1c0,0-31.4,20.2-32.6,18.8c-1.2-1.5-2.8-8-5.6-9.3c-2.8-1.3-9.3,0.1-9.9,3.8
		c-0.5,3.7,8.6,6.7,7.1,9.2c-1.6,2.5-8.6,0.9-10.2,5.1c-1.6,4.2,2.1,11.6,7.4,11.6c5.3,0,6.7-7.1,9.2-7.1c2.5,0,0,9.3,4.1,9.9
		c4.1,0.5,8.8-1.9,9.2-6.4c0.4-4.4-6-8.6-5.8-9.2c0.2-0.5,29.8-22.2,29.8-22.2L429.2,138.1z"/>
	<path id="legR" class="st3" d="M501.1,67c0,0,5.6-3.1,14.8-5.4c9.8-2.4,12.5-1.5,14.4-2.4c1.9-0.9-0.3-6,5.4-8.4
		c5.6-2.4,10.2,2.3,10,5.4c-0.2,3.1-4.8,5.9-4.8,6.6c0,0.7,7.3-1.5,9.4,2c1.9,3.2,1.6,10-3.8,10.5c-5.4,0.5-9.4-5.4-11.3-4.7
		c-1.9,0.7,0.8,5.3-2.5,7.9c-2.6,2-7.9,1.8-9.4-2c-1.3-3.1,3.9-8.3,3-9c-0.9-0.7-6.1-0.1-10.3,0.9c-4.2,0.9-10.9,2.7-10.9,2.7
		L501.1,67z"/>
	<path id="legL" class="st3" d="M432.5,70.7c0,0-6.8-5.4-16.5-9.1c-6.7-2.5-14.2-2.7-14.9-4.4c-0.7-1.8,3.2-4.5,1.5-9.4
		c-1.8-4.9-9.2-6.7-12.5-4.2c-3.4,2.5,3.7,11.1,2.3,12.7c-1.4,1.6-6.5-4.9-12.2-2.6c-5.6,2.3-4.6,9.6,0,11.3c4.6,1.7,8.3-3.4,9.7-2
		c1.4,1.4-8.5,7.2-5.1,11.5c3.4,4.2,8.1,4.4,12,1.1c3.9-3.4-0.4-8.6,1.6-9.7c1.9-1.1,6.9,0.1,14.7,2.1c9.2,2.4,16,8.1,16,8.1
		L432.5,70.7z"/>
	<path id="tail" class="st4" d="M459.6,55.7c0,0-9-8.3-10.8-18.9c-1.8-10.6,0-18.5,1.2-18.5c1.2,0,4.6,7.6,5.6,7.2
		c1.1-0.4-3.2-7.6,3-16.9c6.2-9.3,13.9-8.8,14.6-8.5c0.7,0.4-3.5,7.6-1.9,9.3c1.6,1.8,5.1-6.9,15.5-4.4c10.4,2.5,13.6,9.4,13,10.2
		c-0.5,0.9-10.1-2.3-10.4-1.2c-0.4,1.1,8.1,3.2,8.3,13.8c0.2,10.6-6.2,13.9-13.4,15.3c-7.2,1.4-15.7-4.2-14.9-5.5
		c0.8-1.2,6.1,0.1,8.5-3.7c2.5-3.9-2-10.4-8-9.5c-5.3,0.8-8.2,4.8-8,11c0.2,6.2,6.3,19.2,6.3,19.2L459.6,55.7z"/>
	<path id="dog-body" class="st5" d="M509.2,123.8l-8.2-18.5c0,0,6.9-12.7,6.9-22.6c0-12-5.1-28.8-27.8-30.5
		c-23-1.8-40.8,5.1-51.9,22.4c-10.7,16.7-12.1,41.3-3.9,60c9.3,21.3,29.9,22.3,29.9,22.3s4.6,13,21,14.8c26,2.9,47.5-20.9,47.5-20.9
		l-5.1-25.5L509.2,123.8z"/>
	<path id="mouth" d="M454.2,156.9c0,0-1.7-6.6-1.6-11c0.1-9.2,3.7-11.2,3.7-11.2s-4.6,2.2-5,11.8c-0.2,3.2,1.5,10.3,1.5,10.3
		L454.2,156.9z"/>
	<path id="earL" d="M462.8,114.3c0,0-28.6-11.3-33.7-9.5c-3.8,1.3-18.5,14.1-17,23.8c1.1,7,10.8,8.5,14.9,4.6
		c4.8-4.6,2.7-17.4,5.5-19.1c3.5-2.2,30.3,4.4,30.3,4.4V114.3z"/>
	<path id="earR" d="M499.4,103c0,0,25-19,30.3-18.9c7.1,0.1,17,12.5,16.2,18.4c-0.8,5.9-6.9,8-10.7,5.5c-3.8-2.5-5.6-14.6-8.2-14.9
		c-2.6-0.3-25.9,11.9-25.9,11.9L499.4,103z"/>
	<path class="st3" d="M467.1,128.6c0,0-8.8-9.5-7.4-22.8c1.6-15.9,14.7-20.1,14.7-20.1s-4.9,7.1-3.8,13.3c1.5,8.3,6.7,9.1,6.7,9.1
		s-0.4-11.9,5.9-16.8c9.5-7.4,16.1-2.2,16.1-2.2s-8,1.9-9.5,6.6c-1.2,3.8,0.9,7.3,0.9,7.3s5.5-7.8,11.6-8.5
		c9.3-1.1,10.8,6.2,10.8,6.2s-3.9-2.9-8.1,0.7c-3,2.6-3.3,5.9-3.3,5.9l1.1,7.9L467.1,128.6z"/>
	<g id="eyes-open">
		<path class="st5" d="M470.1,132.3c0,0-1.5-0.9-3-3.7c-2.1-4,0.8-13.4,10.7-19c10-5.6,12.1,2.5,14.9,3.4c2.8,0.9,3.9-8.4,10.6-6.7
			c5.5,1.4,3.6,9.2,3.6,9.2L470.1,132.3z"/>
		<circle class="st6" cx="502.3" cy="119.9" r="8.7"/>
		<circle cx="503" cy="119.2" r="1.9"/>
		<circle class="st7" cx="485.6" cy="128.9" r="13.5"/>
		<circle cx="486.7" cy="127.7" r="3"/>
		<path class="st5" d="M509.9,123.9c0,0,1.2-1.2,0.6-1.5c-2.9-1.5-22.2,8.4-24.9,13.3c-3.7,6.6,0,9.8,0,9.8s8.6-1.2,16-6.2
			C509,134.2,509.9,123.9,509.9,123.9z"/>
	</g>
	<g id="eyes-close">
		<path class="st5" d="M470.1,132.3c0,0-1.5-0.9-3-3.7c-2.1-4,0.8-13.4,10.7-19c10-5.6,12.1,2.5,14.9,3.4c2.8,0.9,3.9-8.4,10.6-6.7
			c5.5,1.4,3.6,9.2,3.6,9.2L470.1,132.3z"/>
		<circle class="st8" cx="502.3" cy="119.9" r="8.7"/>
		<path class="st9" d="M510.1,116.1l0.4,1c0,0-3.9,0.8-7.8,2.8c-2.9,1.5-5.7,3.7-6.8,6l-0.6-0.8
			C495.2,125.1,497.9,118.1,510.1,116.1z"/>
		<circle class="st8" cx="485.6" cy="128.9" r="13.5"/>
		<path class="st9" d="M496.5,120.8l0.9,1.3c0,0-6.2,1.7-12.2,5c-4.5,2.6-8.7,6.3-10.3,9.9l-0.8-1.2
			C474.1,135.9,477.6,124.8,496.5,120.8z"/>
		<path class="st5" d="M509.9,123.9c0,0,1.2-1.2,0.6-1.5c-2.9-1.5-22.2,8.4-24.9,13.3c-3.7,6.6,0,9.8,0,9.8s8.6-1.2,16-6.2
			C509,134.2,509.9,123.9,509.9,123.9z"/>
	</g>
	<g id="nose">
		<circle cx="531.2" cy="133.9" r="20.2"/>
		
			<ellipse transform="matrix(0.9763 -0.2166 0.2166 0.9763 -13.9093 117.3487)" class="st10" cx="528.3" cy="122.1" rx="9.4" ry="3.9"/>
	</g>
</g>
</svg>
