<?xml version="1.0" encoding="utf-8"?>
<!-- Generator: Adobe Illustrator 21.0.0, SVG Export Plug-In . SVG Version: 6.00 Build 0)  -->
<svg version="1.1" id="Layer_1" xmlns="http://www.w3.org/2000/svg" xmlns:xlink="http://www.w3.org/1999/xlink" x="0px" y="0px"
	 viewBox="0 0 200 217" style="enable-background:new 0 0 200 217;" xml:space="preserve">
<style type="text/css">
	.st0{fill:#FFFFFF;}
	.st1{fill:#FDFDFD;}
	.st2{fill:#FBFBFB;}
	.st3{fill:#F9F9F9;}
	.st4{fill:#F7F7F7;}
	.st5{fill:#F5F5F5;}
	.st6{fill:#F3F3F3;}
	.st7{fill:#F1F1F1;}
	.st8{fill:#EFEFEF;}
	.st9{fill:#EDEDED;}
	.st10{fill:#EBEBEB;}
	.st11{fill:#E9E9E9;}
	.st12{fill:#E7E7E7;}
	.st13{fill:#E5E5E4;}
	.st14{fill:#E3E3E2;}
	.st15{fill:#E1E1E0;}
	.st16{fill:#DFDFDE;}
	.st17{fill:#DDDDDC;}
	.st18{fill:#DBDBDA;}
	.st19{fill:#D9D9D8;}
	.st20{fill:#D7D7D6;}
	.st21{fill:#D5D5D4;}
	.st22{fill:#D3D3D2;}
	.st23{fill:#D1D1D0;}
	.st24{fill:#CFCFCE;}
	.st25{fill:#CDCDCC;}
	.st26{fill:#CACACA;}
	.st27{fill:#C8C8C8;}
	.st28{fill:#C6C6C6;}
	.st29{fill:#C4C4C4;}
	.st30{fill:#C2C2C2;}
	.st31{fill:#C0C0C0;}
	.st32{fill:#BEBEBE;}
	.st33{fill:#BCBCBC;}
	.st34{fill:#BABABA;}
	.st35{fill:#B8B8B8;}
	.st36{fill:#B6B6B6;}
	.st37{fill:#B4B4B4;}
	.st38{fill:#B2B2B2;}
	.st39{fill:#B0B0AF;}
	.st40{fill:#AEAEAD;}
	.st41{fill:#ACACAB;}
	.st42{fill:#AAAAA9;}
	.st43{fill:#A8A8A7;}
	.st44{fill:#A6A6A5;}
	.st45{fill:#A4A4A3;}
	.st46{fill:#A2A2A1;}
	.st47{fill:#A0A09F;}
	.st48{fill:#9E9E9D;}
	.st49{fill:#9C9C9B;}
	.st50{fill:#9A9A99;}
	.st51{fill:#989897;}
	.st52{fill:#343433;}
	.st53{fill:#B56F29;}
	.st54{fill:#754D24;}
	.st55{fill:#CBCBCA;}
	.st56{fill:#1A1A1A;}
	.st57{fill:#F69220;}
</style>
<g>
	<g>
		<ellipse class="st0" cx="82.5" cy="182.9" rx="77.6" ry="21.4"/>
		<ellipse class="st1" cx="82.5" cy="182.9" rx="76.4" ry="21.1"/>
		<ellipse class="st2" cx="82.5" cy="182.9" rx="75.2" ry="20.8"/>
		<ellipse class="st3" cx="82.5" cy="182.9" rx="74" ry="20.4"/>
		<ellipse class="st4" cx="82.5" cy="182.9" rx="72.8" ry="20.1"/>
		<ellipse class="st5" cx="82.5" cy="182.9" rx="71.6" ry="19.8"/>
		<ellipse class="st6" cx="82.5" cy="182.9" rx="70.4" ry="19.4"/>
		<ellipse class="st7" cx="82.5" cy="182.9" rx="69.2" ry="19.1"/>
		<ellipse class="st8" cx="82.5" cy="182.9" rx="68" ry="18.8"/>
		<ellipse class="st9" cx="82.5" cy="182.9" rx="66.8" ry="18.4"/>
		<ellipse class="st10" cx="82.5" cy="182.9" rx="65.5" ry="18.1"/>
		<ellipse class="st11" cx="82.5" cy="182.9" rx="64.3" ry="17.8"/>
		<ellipse class="st12" cx="82.5" cy="182.9" rx="63.1" ry="17.4"/>
		<ellipse class="st13" cx="82.5" cy="182.9" rx="61.9" ry="17.1"/>
		<ellipse class="st14" cx="82.5" cy="182.9" rx="60.7" ry="16.8"/>
		<ellipse class="st15" cx="82.5" cy="182.9" rx="59.5" ry="16.5"/>
		<ellipse class="st16" cx="82.5" cy="182.9" rx="58.3" ry="16.1"/>
		<ellipse class="st17" cx="82.5" cy="182.9" rx="57.1" ry="15.8"/>
		<ellipse class="st18" cx="82.5" cy="182.9" rx="55.9" ry="15.5"/>
		<ellipse class="st19" cx="82.5" cy="182.9" rx="54.7" ry="15.1"/>
		<ellipse class="st20" cx="82.5" cy="182.9" rx="53.5" ry="14.8"/>
		<ellipse class="st21" cx="82.5" cy="182.9" rx="52.3" ry="14.5"/>
		<ellipse class="st22" cx="82.5" cy="182.9" rx="51.1" ry="14.1"/>
		<ellipse class="st23" cx="82.5" cy="182.9" rx="49.9" ry="13.8"/>
		<ellipse class="st24" cx="82.5" cy="182.9" rx="48.7" ry="13.5"/>
		<ellipse class="st25" cx="82.5" cy="182.9" rx="47.5" ry="13.1"/>
		<ellipse class="st26" cx="82.5" cy="182.9" rx="46.3" ry="12.8"/>
		<ellipse class="st27" cx="82.5" cy="182.9" rx="45.1" ry="12.5"/>
		<ellipse class="st28" cx="82.5" cy="182.9" rx="43.9" ry="12.1"/>
		<ellipse class="st29" cx="82.5" cy="182.9" rx="42.7" ry="11.8"/>
		<ellipse class="st30" cx="82.5" cy="182.9" rx="41.5" ry="11.5"/>
		<ellipse class="st31" cx="82.5" cy="182.9" rx="40.3" ry="11.1"/>
		<ellipse class="st32" cx="82.5" cy="182.9" rx="39.1" ry="10.8"/>
		<ellipse class="st33" cx="82.5" cy="182.9" rx="37.9" ry="10.5"/>
		<ellipse class="st34" cx="82.5" cy="182.9" rx="36.7" ry="10.1"/>
		<ellipse class="st35" cx="82.5" cy="182.9" rx="35.5" ry="9.8"/>
		<ellipse class="st36" cx="82.5" cy="182.9" rx="34.3" ry="9.5"/>
		<ellipse class="st37" cx="82.5" cy="182.9" rx="33.1" ry="9.1"/>
		<ellipse class="st38" cx="82.5" cy="182.9" rx="31.9" ry="8.8"/>
		<ellipse class="st39" cx="82.5" cy="182.9" rx="30.7" ry="8.5"/>
		<ellipse class="st40" cx="82.5" cy="182.9" rx="29.4" ry="8.1"/>
		<ellipse class="st41" cx="82.5" cy="182.9" rx="28.2" ry="7.8"/>
		<ellipse class="st42" cx="82.5" cy="182.9" rx="27" ry="7.5"/>
		<ellipse class="st43" cx="82.5" cy="182.9" rx="25.8" ry="7.1"/>
		<ellipse class="st44" cx="82.5" cy="182.9" rx="24.6" ry="6.8"/>
		<ellipse class="st45" cx="82.5" cy="182.9" rx="23.4" ry="6.5"/>
		<ellipse class="st46" cx="82.5" cy="182.9" rx="22.2" ry="6.1"/>
		<ellipse class="st47" cx="82.5" cy="182.9" rx="21" ry="5.8"/>
		<ellipse class="st48" cx="82.5" cy="182.9" rx="19.8" ry="5.5"/>
		<ellipse class="st49" cx="82.5" cy="182.9" rx="18.6" ry="5.1"/>
		<ellipse class="st50" cx="82.5" cy="182.9" rx="17.4" ry="4.8"/>
		<ellipse class="st51" cx="82.5" cy="182.9" rx="16.2" ry="4.5"/>
	</g>
	<g>
		<g>
			<path class="st52" d="M90,60.7c0,0-17.9-26.5-15.8-31.8c2.1-5.3,12,2.9,16.9-1.7c4.9-4.6,4.6-11.2-1.9-12.8
				c-6.5-1.5-25.9,9.1-25.9,12.2c0,3,23.8,34.1,23.8,34.1L90,60.7L90,60.7z"/>
			<path d="M107.9,45.6c0,0-12.9-28.1-10.7-31.4c2.3-3.3,23.6-3.3,24.9,2.6c1.3,5.9-1.7,8.2-5.5,8.8s-11.8-5.7-13.1-4.2
				s6.2,24.2,6.2,24.2L107.9,45.6L107.9,45.6z"/>
			<path class="st53" d="M107.4,174.5c0,0,23.5,17.2,24.1,18.7s3.2,7.8,11,7.1c9.6-0.8,5.1-13.3,5.8-14.5c0.6-1.1,1.5-1.8,1.5-1.8
				s1.1,1,3.5,1.1c2.3,0.1,4.7-2.9,4.7-6.3c0-4.4-1.3-9.8-4.9-9.8c-2.3,0-2.8,1.7-2.8,1.7s-1-1.9-3.6-1.9c-2,0-2.7,2.2-2.7,2.2
				s-0.7-1.9-3.6-1.8c-3.1,0-4.9,2.8-6,6.4c-0.7,2.4-1.1,6.2-1.1,6.2L112,170.4L107.4,174.5z"/>
			<path class="st54" d="M133.5,181.8c0,0-0.1,1.9-0.2,3.4c0,1.5,0.1,4,0.1,4s-0.4-2.4-0.4-4.1c-0.1-1.7,0-3.6,0-3.6L133.5,181.8z"
				/>
			<path class="st54" d="M144.1,170.8c0,0,1.4,2.1,1.4,5.7c0,3.2-0.9,7.5-3.6,8c-2.4,0.4-4.4-3.6-4.4-3.6s2.6,3.4,4.1,3.2
				c2.4-0.5,3.7-4.5,3.5-7.6c-0.2-3-1.5-6.3-1.5-6.3L144.1,170.8z"/>
			<path class="st54" d="M150.5,170.4c0,0,1.4,2.6,1.6,6c0.2,3.1-0.4,6.9-2.5,7.8c-2.9,1.2-5.7-1.1-5.7-1.1s3.7,1.5,5.4,0.5
				c1.7-0.9,2.6-4.3,2.3-7.1c-0.3-2.8-1.4-5.8-1.4-5.8L150.5,170.4z"/>
			<ellipse class="st55" cx="142.2" cy="192.2" rx="3.7" ry="4.7"/>
			<path class="st56" d="M44,157.5c0,0-8.3-2.4-16.3,1.2s-11.6,14.5-10.3,15c1.3,0.6,1.9-2.4,4.6-4.5c2.3-1.8,4.8-2,4.8-2
				s-5.5,3.5-5.4,10s4.7,12.7,5.6,12.5c1-0.2-0.4-0.6,0.5-5.7s3.1-6.3,3.1-6.3s-0.4,7.5,4.4,12.6c4.6,4.9,9.9,4,10.8,3.4
				c0.9-0.6-3.4-2.3-4.7-4.9c-1.5-2.9-1.5-5-1.5-5s3.8,4.8,10.5,2c5.4-2.2,5.5-7.8,5-8.1c-0.5-0.3-11.4,1.5-15.1-1.1
				c-3.7-2.7-3.5-6-2.6-7.9c1-1.9,8.1-5,8.1-5L44,157.5z"/>
			<path class="st57" d="M158.7,58.3c0,0-8.2,3.9-13.5,4.7s-13.3-1.3-13.3-1.3l-4.2-16.3c0,0-4.2-9.7-7.6-7.8
				c-3.4,1.9-3.9,6.1-6.6,7.3c-3.7,1.6-7.9-5.6-14-2.5c-6.2,3-5.9,18-7.9,18.8c-2,0.9-5.8-5.8-16.2-7.8c-10.6-2-20.5,2.4-18.5,2.9
				c7.7,1.6,14.9,6.6,14.2,8.1c-0.7,1.6-8-0.4-14.2,2.4c-6.2,2.8-7.5,8-6.2,7.4c6.1-2.5,14-1.1,14.3,0s-6.3,2.4-10.3,7.3
				c-2.8,3.4-3.5,9.9-3.2,9.6c4.9-4.5,12.8-6.4,13-5.4c0.1,1-15.1,18-19.1,40s-3.7,38,0,43.4s45.4,19.4,63.1,14.8
				s25.7-22.3,23.4-36.5c-2.3-14.3-7.7-15.1-7.4-20.3c0.3-5.1,6.9-9.1,6.9-9.1s11.8,1,24.8-9.6c8.5-6.9,19-28.7,19-28.7L158.7,58.3z
				"/>
			<ellipse class="st55" cx="122.5" cy="54.4" rx="10.5" ry="10.4"/>
			<ellipse transform="matrix(0.939 -0.3438 0.3438 0.939 -10.2464 47.6274)" cx="129.2" cy="52.7" rx="1.6" ry="3"/>
			<ellipse class="st0" cx="111.3" cy="62.7" rx="13.5" ry="13.5"/>
			<ellipse transform="matrix(0.9103 -0.414 0.414 0.9103 -13.0765 54.4668)" cx="119.1" cy="57.4" rx="2.1" ry="3.9"/>
			<path class="st57" d="M135.5,62.4c0,0,1.1-4.9-1.1-5.9s-9.3,1.6-15.7,8.4c-6.4,6.8-6.6,16.1-6.6,16.1L135.5,62.4z"/>
			<path class="st57" d="M112.4,77.7c0,0-1.5-2.7-5.7-4.4c-4.3-1.6-12.8,1.1-12.8,1.1L112.4,77.7z"/>
			<path d="M131.2,117.7c0,0-19.6-0.7-30.1-6.3C87.2,104,84.8,96.5,85.8,91.9c0.8-3.4,3.4-5.6,3.4-5.6s-4,1.8-4.7,6.3
				c-0.6,3.4,1.6,14.2,17.7,21.4c11.1,5,26.7,5.4,26.7,5.4L131.2,117.7z"/>
			<ellipse transform="matrix(0.6224 -0.7827 0.7827 0.6224 10.3836 160.5061)" cx="171.5" cy="69.5" rx="19.1" ry="21.2"/>
			<path class="st53" d="M76.6,138.3c0,0,18.4,14.6,20.1,15.3c3.4,1.5,6-4.6,9.2-2.8c2.2,1.3,4.4,5.7,2.6,7.5
				c-2.2,2.2-8.2-1.5-8.6,1.2c-0.4,2.7,6.3,0.9,8,3.6c1.6,2.4-1.5,7.8-5,6.4c-3.5-1.3-4.2-7.7-5.6-7.4c-1.5,0.3,1.4,5.6,0.2,7.5
				c-1.4,2.4-4.8,3.6-7.5-0.1c-3-4.1,3.3-8.4,1.8-10.4c-1.4-2-16.7-17.4-16.7-17.4L76.6,138.3z"/>
			<path class="st53" d="M65.4,178.2c0,0,17.3,29.9,25.3,30.3c7.9,0.5,9.3-13.6,9.3-13.6s0.5,1.3,2.7,1.5s5.2-1.3,7-4.4
				s2.4-6.4,0.4-8.2c-1.7-1.6-3.9-0.2-3.9-0.2s-0.5-4-3.9-5.2c-4-1.4-5.4,0.6-5.4,0.6s-1.3-3.1-5.1-3.6c-3.4-0.4-5.9,1.1-6.7,3.5
				c-0.9,2.4,0.6,14.6-0.2,15.3c-0.8,0.7-13.4-14.5-13.4-14.5L65.4,178.2z"/>
			<path class="st54" d="M88.3,185.5c0,0-0.2,5.4,2.5,6.5c3.1,1.2,5.7-1,6.8-3.1c1.9-3.4-0.6-10.1-0.6-10.1l-0.3,0.3
				c0,0,2,6.9,0.4,9.7c-1.1,1.9-4.2,3.7-6.2,2.7C89.4,190.7,88.3,185.5,88.3,185.5z"/>
			<path class="st54" d="M106.1,183.7c0,0-0.2,4.5-1.6,6.5c-1,1.5-2.2,3.8-4.9,3.8c-1.9,0-4.6-2.5-4.6-2.5s1.2,2.9,4.3,3.1
				c2.7,0.1,4.7-2.4,5.7-4.5c1.5-3,1.3-6.7,1.3-6.7L106.1,183.7z"/>
			<path class="st55" d="M96,200.6c-0.1,2.4-1.9,4.3-4.1,4.2c-2.1-0.1-3.8-2.1-3.7-4.5s1.9-4.3,4.1-4.2
				C94.4,196.2,96.1,198.2,96,200.6z"/>
			<path class="st53" d="M131.1,140.1c-0.4-1.1-1.3-1-1.3-1s-6.9,10.3-9.1,9.9c-2.2-0.4-3.4-2.9-6.3-1.7c-2.9,1.2-3.5,6-1.6,8
				s4.2-2.9,5.6-1c1.3,1.9-4.3,5-3.1,7.7s6.4,3.4,7.6,2.2c1.2-1.2-0.7-6,1.3-6.8s0.8,4.5,2.7,5.4c1.9,1,6-0.7,5.8-4.5
				s-4.8-5.6-4.8-7.2c0.1-1.6,3.2-7.4,3.2-7.4S131.6,141.4,131.1,140.1z"/>
			
				<ellipse transform="matrix(0.6224 -0.7827 0.7827 0.6224 18.6767 162.2523)" class="st52" cx="177.5" cy="61.8" rx="5.6" ry="9.6"/>
		</g>
	</g>
</g>
</svg>
