<?xml version="1.0" encoding="utf-8"?>
<!-- Generator: Adobe Illustrator 21.0.0, SVG Export Plug-In . SVG Version: 6.00 Build 0)  -->
<svg version="1.1" xmlns="http://www.w3.org/2000/svg" xmlns:xlink="http://www.w3.org/1999/xlink" x="0px" y="0px"
	 viewBox="0 0 350 184.6" style="enable-background:new 0 0 350 184.6;" xml:space="preserve"> 
<style type="text/css">

	.Drop_x0020_Shadow{fill:none;}
	.Outer_x0020_Glow_x0020_5_x0020_pt{fill:none;}
	.Blue_x0020_Neon{fill:none;stroke:#8AACDA;stroke-width:7;stroke-linecap:round;stroke-linejoin:round;}
	.Chrome_x0020_Highlight{fill:url(#SVGID_1_);stroke:#FFFFFF;stroke-width:0.3629;stroke-miterlimit:1;}
	.Jive_GS{fill:#FFDD00;}
	.Alyssa_GS{fill:#A6D0E4;}
	.st0{fill:#FFFFFF;}
	.st1{fill:#FDFDFD;}
	.st2{fill:#FBFBFB;}
	.st3{fill:#F9F9F9;}
	.st4{fill:#F7F7F7;}
	.st5{fill:#F5F5F5;}
	.st6{fill:#F3F3F3;}
	.st7{fill:#F1F1F1;}
	.st8{fill:#EFEFEF;}
	.st9{fill:#EDEDED;}
	.st10{fill:#EBEBEB;}
	.st11{fill:#E9E9E9;}
	.st12{fill:#E7E7E7;}
	.st13{fill:#E5E5E4;}
	.st14{fill:#E3E3E2;}
	.st15{fill:#E1E1E0;}
	.st16{fill:#DFDFDE;}
	.st17{fill:#DDDDDC;}
	.st18{fill:#DBDBDA;}
	.st19{fill:#D9D9D8;}
	.st20{fill:#D7D7D6;}
	.st21{fill:#D5D5D4;}
	.st22{fill:#D3D3D2;}
	.st23{fill:#D1D1D0;}
	.st24{fill:#CFCFCE;}
	.st25{fill:#CDCDCC;}
	.st26{fill:#CACACA;}
	.st27{fill:#C8C8C8;}
	.st28{fill:#C6C6C6;}
	.st29{fill:#C4C4C4;}
	.st30{fill:#C2C2C2;}
	.st31{fill:#C0C0C0;}
	.st32{fill:#BEBEBE;}
	.st33{fill:#BCBCBC;}
	.st34{fill:#BABABA;}
	.st35{fill:#B8B8B8;}
	.st36{fill:#B6B6B6;}
	.st37{fill:#B4B4B4;}
	.st38{fill:#B2B2B2;}
	.st39{fill:#B0B0AF;}
	.st40{fill:#AEAEAD;}
	.st41{fill:#ACACAB;}
	.st42{fill:#AAAAA9;}
	.st43{fill:#A8A8A7;}
	.st44{fill:#A6A6A5;}
	.st45{fill:#A4A4A3;}
	.st46{fill:#A2A2A1;}
	.st47{fill:#A0A09F;}
	.st48{fill:#9E9E9D;}
	.st49{fill:#9C9C9B;}
	.st50{fill:#9A9A99;}
	.st51{fill:#989897;}
	.st52{fill:#754D24;}
	.st53{fill:#B56F29;}
	.st54{fill:#343433;}
	.st55{fill:#1A1A1A;}
	.st56{fill:#D18029;}
	.st57{fill:#F69220;}
	.st58{fill:#CBCBCA;}
	.st59{fill:#A7A8AC;}
	.st60{fill:#FFFFFF;stroke:#B8D432;stroke-width:1.5;stroke-miterlimit:10;}
	.st61{fill:#603A17;}
	.st62{fill:#E48525;}
</style>
<linearGradient id="SVGID_1_" gradientUnits="userSpaceOnUse" x1="-244.3333" y1="-326.0616" x2="-244.3333" y2="-327.0616">
	<stop  offset="0" style="stop-color:#656565"/>
	<stop  offset="0.618" style="stop-color:#1B1B1B"/>
	<stop  offset="0.6292" style="stop-color:#545454"/>
	<stop  offset="0.9831" style="stop-color:#3E3E3E"/>
</linearGradient>
<g id="dog">
	<g id="shadow">
		<ellipse class="st0" cx="117" cy="151.8" rx="71.7" ry="12.1"/>
		<ellipse class="st1" cx="117" cy="151.8" rx="70.6" ry="11.9"/>
		<ellipse class="st2" cx="117" cy="151.8" rx="69.5" ry="11.7"/>
		<ellipse class="st3" cx="117" cy="151.8" rx="68.4" ry="11.6"/>
		<ellipse class="st4" cx="117" cy="151.8" rx="67.3" ry="11.4"/>
		<ellipse class="st5" cx="117" cy="151.8" rx="66.2" ry="11.2"/>
		<ellipse class="st6" cx="117" cy="151.8" rx="65" ry="11"/>
		<ellipse class="st7" cx="117" cy="151.8" rx="63.9" ry="10.8"/>
		<ellipse class="st8" cx="117" cy="151.8" rx="62.8" ry="10.6"/>
		<ellipse class="st9" cx="117" cy="151.8" rx="61.7" ry="10.4"/>
		<ellipse class="st10" cx="117" cy="151.8" rx="60.6" ry="10.2"/>
		<ellipse class="st11" cx="117" cy="151.8" rx="59.5" ry="10.1"/>
		<ellipse class="st12" cx="117" cy="151.8" rx="58.4" ry="9.9"/>
		<ellipse class="st13" cx="117" cy="151.8" rx="57.3" ry="9.7"/>
		<ellipse class="st14" cx="117" cy="151.8" rx="56.1" ry="9.5"/>
		<ellipse class="st15" cx="117" cy="151.8" rx="55" ry="9.3"/>
		<ellipse class="st16" cx="117" cy="151.8" rx="53.9" ry="9.1"/>
		<ellipse class="st17" cx="117" cy="151.8" rx="52.8" ry="8.9"/>
		<ellipse class="st18" cx="117" cy="151.8" rx="51.7" ry="8.7"/>
		<ellipse class="st19" cx="117" cy="151.8" rx="50.6" ry="8.5"/>
		<ellipse class="st20" cx="117" cy="151.8" rx="49.5" ry="8.4"/>
		<ellipse class="st21" cx="117" cy="151.8" rx="48.4" ry="8.2"/>
		<ellipse class="st22" cx="117" cy="151.8" rx="47.2" ry="8"/>
		<ellipse class="st23" cx="117" cy="151.8" rx="46.1" ry="7.8"/>
		<ellipse class="st24" cx="117" cy="151.8" rx="45" ry="7.6"/>
		<ellipse class="st25" cx="117" cy="151.8" rx="43.9" ry="7.4"/>
		<ellipse class="st26" cx="117" cy="151.8" rx="42.8" ry="7.2"/>
		<ellipse class="st27" cx="117" cy="151.8" rx="41.7" ry="7"/>
		<ellipse class="st28" cx="117" cy="151.8" rx="40.6" ry="6.9"/>
		<ellipse class="st29" cx="117" cy="151.8" rx="39.5" ry="6.7"/>
		<ellipse class="st30" cx="117" cy="151.8" rx="38.3" ry="6.5"/>
		<ellipse class="st31" cx="117" cy="151.8" rx="37.2" ry="6.3"/>
		<ellipse class="st32" cx="117" cy="151.8" rx="36.1" ry="6.1"/>
		<ellipse class="st33" cx="117" cy="151.8" rx="35" ry="5.9"/>
		<ellipse class="st34" cx="117" cy="151.8" rx="33.9" ry="5.7"/>
		<ellipse class="st35" cx="117" cy="151.8" rx="32.8" ry="5.5"/>
		<ellipse class="st36" cx="117" cy="151.8" rx="31.7" ry="5.4"/>
		<ellipse class="st37" cx="117" cy="151.8" rx="30.6" ry="5.2"/>
		<ellipse class="st38" cx="117" cy="151.8" rx="29.4" ry="5"/>
		<ellipse class="st39" cx="117" cy="151.8" rx="28.3" ry="4.8"/>
		<ellipse class="st40" cx="117" cy="151.8" rx="27.2" ry="4.6"/>
		<ellipse class="st41" cx="117" cy="151.8" rx="26.1" ry="4.4"/>
		<ellipse class="st42" cx="117" cy="151.8" rx="25" ry="4.2"/>
		<ellipse class="st43" cx="117" cy="151.8" rx="23.9" ry="4"/>
		<ellipse class="st44" cx="117" cy="151.8" rx="22.8" ry="3.8"/>
		<ellipse class="st45" cx="117" cy="151.8" rx="21.7" ry="3.7"/>
		<ellipse class="st46" cx="117" cy="151.8" rx="20.5" ry="3.5"/>
		<ellipse class="st47" cx="117" cy="151.8" rx="19.4" ry="3.3"/>
		<ellipse class="st48" cx="117" cy="151.8" rx="18.3" ry="3.1"/>
		<ellipse class="st49" cx="117" cy="151.8" rx="17.2" ry="2.9"/>
		<ellipse class="st50" cx="117" cy="151.8" rx="16.1" ry="2.7"/>
		<ellipse class="st51" cx="117" cy="151.8" rx="15" ry="2.5"/>
	</g>
	<path id="legBB" class="st52" d="M81.2,105.7c0,0-0.4,13-1.2,17.5c-1.1,5.5-4.5,11.2-4.7,13.1c-0.2,1.5,0.5,4,2.7,4.3
		c2.9,0.4,5.3-1.9,5.3-1.9s1.4,2.4,4.1,2.4c1.9,0,2.3-2.2,2.3-2.2s0.8,2,3.3,2c2.5,0,2.8-2,2.8-2s1.1,1.4,2.9,0.4
		c1.8-1,1.9-4.7,0.2-7.8c-1.7-3.1-4.8-4.7-7.9-4c-3.5,0.8-5.3,5.8-8,5.3c-1.2-0.2,1.9-7.4,2.4-11.8c0.6-5.3-1-14.8-1-14.8
		L81.2,105.7z"/>
	<path id="legBF" class="st52" d="M111.3,111c0,0,4.3,9.9,3.7,14.6c-0.6,4.7-2.1,8.7-3.1,10.5c-0.7,1.4-0.9,3.6,0.6,3.7
		c3,0.3,5.1-0.4,5.1-0.4s1.5,2.5,4.4,2.5c2,0,2.4-2.4,2.4-2.4s0.8,2.1,3.5,2.2c2.6,0,3-2.1,3-2.1s1.1,1.5,3.1,0.4
		c1.9-1,2.6-3.8,0.8-7.1c-1.8-3.3-4.8-5.5-8.1-4.8c-3.7,0.9-5.8,5.5-8.6,5.1c-1.3-0.2,0-6.5,0-9.2c0-2.7-2.9-13.1-2.9-13.1H111.3z"
		/>
	<g id="legFB">
		<path class="st53" d="M69.7,112.7c0,0-0.4,15.4-1.5,20.7c-1.3,6.5-5.3,13.3-5.6,15.4c-0.2,1.8,0.5,4.7,3.2,5
			c3.4,0.4,6.2-2.2,6.2-2.2s1.6,2.9,4.9,2.9c2.2,0,2.7-2.6,2.7-2.6s0.9,2.4,3.9,2.4c2.9,0,3.3-2.3,3.3-2.3s1.3,1.7,3.5,0.5
			c2.1-1.2,2.3-5.5,0.3-9.2c-2-3.7-5.7-5.6-9.3-4.7c-4.2,1-6.3,6.8-9.5,6.3c-1.4-0.2,2.3-8.7,2.8-13.9c0.7-6.2-1.1-17.5-1.1-17.5
			L69.7,112.7z"/>
		<path class="st52" d="M83.7,142.8c0,0,3,2.3,3.7,5.1c0.6,2.4,0,4.4,0,4.4l-0.4-0.4c0,0,0.5-2.8-0.3-4.7
			C85.8,145.4,83.7,142.8,83.7,142.8z"/>
		<path class="st52" d="M80.1,152.5c0,0,0.2-2.7-0.3-4c-0.5-1.4-2.3-2.6-2.3-2.6s1.4,1.7,1.7,3c0.3,1.2,0.5,3,0.5,3L80.1,152.5z"/>
		<path class="st52" d="M72.7,147.9c0,0,0.3,1.3,0.2,2.4c0,0.8-0.3,2-0.3,2l-0.5-0.7c0,0,0.3-0.8,0.4-1.5
			C72.6,149.4,72.7,147.9,72.7,147.9z"/>
	</g>
	<g id="legFF">
		<path class="st53" d="M105,117.8c0,0,5.8,12.2,5,17.8c-0.7,5.6-4.4,9.8-5.6,12c-0.9,1.7-0.4,4.1,0.8,4.8c3.1,1.9,7.4-0.9,7.4-0.9
			s1.7,3,5.2,3c2.3,0,2.9-2.8,2.9-2.8s1,2.5,4.1,2.6c3.1,0,3.5-2.5,3.5-2.5s1.3,1.8,3.7,0.5c2.2-1.2,3-4.5,0.9-8.4
			c-2.1-3.9-5.7-6.6-9.5-5.7c-4.4,1-7.6,6.5-11,6c-1.5-0.2,3.6-8.6,3.6-11.8c0-3.2-6.2-14.6-6.2-14.6H105z"/>
		<path class="st52" d="M125.9,143.2c0,0,2.1,1.4,2.8,4.4c0.6,2.5,0,4.6,0,4.6l-0.4-0.4c0,0,0.5-3-0.3-5
			C127.1,144.9,125.9,143.2,125.9,143.2z"/>
		<path class="st52" d="M121,152.4c0,0,0.2-2.8-0.3-4.3c-0.5-1.4-1.7-2.7-1.7-2.7s0.8,1.8,1.1,3.1c0.4,1.3,0.5,3.2,0.5,3.2
			L121,152.4z"/>
		<path class="st52" d="M113.2,147.6c0,0,0.3,1.3,0.2,2.5c0,0.8-0.3,2.1-0.3,2.1l-0.5-0.7c0,0,0.3-0.9,0.4-1.6
			C113.1,149.2,113.2,147.6,113.2,147.6z"/>
	</g>
	<path id="earF" d="M156,59.7c0,0,24.4-14.1,29.2-12.7c4.9,1.3,17.8,16.6,14.5,21.1c-3.3,4.5-8.5,4.7-10.9,3
		c-2.4-1.7-4.6-15.9-6.3-17.4c-1.7-1.5-25.6,9.2-25.6,9.2L156,59.7z"/>
	<path id="earB" class="st54" d="M181.3,79.9c0,0,22.5-1.4,24.5,0.9c2,2.3,4.4,30-0.1,33.5c-4.1,3.2-10.5,0.8-11.9-5.2
		c-1.1-4.9,7.3-19.9,7.1-22.6c-0.2-2.7-18.7-4.4-18.7-4.4L181.3,79.9z"/>
	<path id="tail" class="st55" d="M64.2,53.7c0,0-12.9,2.3-29.9-0.5C20.3,51,6.9,43.1,5.2,45c-1.7,2,2.6,18.5,17.3,24.2
		c9.8,3.8,19-7.5,20.4-6.6c1.4,0.9-3.6,7-8.4,10.3c-1.8,1.3,6.9,2.7,11.9-2.9c3-3.4,4.8-8.6,5.9-8.6c1.1,0-3.5,11.4-1.7,11.7
		c1.7,0.3,4.4-1.4,8.4-6.7C63.5,60.5,64,56,64,56L64.2,53.7z"/>
	<path id="eyebrow" class="st56" d="M182.2,82.1c0,0,6.5,3.3,7.6,8c1.1,4.7-1.1,6.4-2.4,6.6c-1.2,0.2-3.5-0.9-3.5-0.9l-7-7.3
		L182.2,82.1z"/>
	<path id="body" class="st57" d="M180.5,118.9l-5.8-15l6-18.3c0,0,2.8,0.1,3.6-4.7c0.7-4.8-5.4-10.6-10.4-11.4
		c-4.9-0.9-15.8-0.9-15.8-0.9s2.5-7.1-0.8-14.5c-3.3-7.4-15.7-18-16.7-16.8c-1,1.2,7.3,19.5,6.5,20.1c-0.8,0.6-5.9-8.2-9.9-11.5
		c-4.1-3.3-12.7-8.4-13.2-7.2c-0.6,1.2,10.1,16.7,10.1,16.7s-6.4-5.2-10.3-7.1c-4-1.9-10.4-3.8-10.7-2.8c-0.3,0.9,7.7,10.6,7.1,10.8
		c-0.6,0.2-54.7-4.1-55.9-2.5c-1.1,1.5-5.7,30.5-3.1,43.3c1.9,9.2,8.1,21.2,27.5,24.1c19.4,2.9,19.8-0.1,26-1.1
		c4.4-0.7,9.9,2.9,9.9,2.9s5.6,6.2,17.7,11.1c11.8,4.8,21.8,6,21.8,6L180.5,118.9z"/>
	
		<ellipse id="eyeB" transform="matrix(0.1195 -0.9928 0.9928 0.1195 62.4281 257.333)" class="st58" cx="176.3" cy="93.5" rx="9.8" ry="9.8"/>
	<ellipse id="eyeballB" transform="matrix(0.1196 -0.9928 0.9928 0.1196 60.8082 267.016)" cx="181" cy="99.2" rx="2" ry="2"/>
	
		<ellipse id="eyeF" transform="matrix(0.1196 -0.9928 0.9928 0.1196 60.7082 241.209)" class="st0" cx="166.4" cy="86.4" rx="12.2" ry="12.2"/>
	
		<ellipse id="eyeballF" transform="matrix(0.1196 -0.9928 0.9928 0.1196 60.0461 253.0362)" cx="172.7" cy="92.7" rx="2.3" ry="2.3"/>
	<path class="st57" d="M149.4,89.9c0,0,3.5-1.2,7.8,0c6,1.7,20.4,10.1,20.7,13.2c0.2,2.1-2.5,1.8-3,1.7c-0.4-0.1-5.4-0.8-13.6-5
		C153.1,95.5,149.4,89.9,149.4,89.9z"/>
	<path id="mounth" d="M124.6,122.8c0,0-4.7-9.9-3-19.6c1.7-9.6,9.6-18.4,9.6-18.4s-7.9,6.8-10.3,16.9c-2.3,9.7,2.1,20.2,2.1,20.2
		L124.6,122.8z"/>
	<g id="step3">
		<path class="st54" d="M240.6,169.7c0,0-0.6,8-1.3,8.4c-0.7,0.4-13.2-1.2-12.1-4.3C229.4,167.7,240.6,169.7,240.6,169.7z"/>
		<path class="st54" d="M245.7,169l-1.1,9.9c0,0,17.3,4.3,24.7,2.2c5.1-1.4,11.5-9.2,7.5-11.4C272.7,167.5,245.7,169,245.7,169z"/>
	</g>
	<g id="step2_1_">
		<path class="st54" d="M193.3,152.5c-1.1,3,11.4,4.7,12.1,4.3c0.7-0.4,1.3-8.4,1.3-8.4S195.5,146.3,193.3,152.5z"/>
		<path class="st54" d="M242.9,148.4c-4-2.2-31.1-0.7-31.1-0.7l-1.1,9.9c0,0,17.3,4.3,24.7,2.2C240.4,158.4,246.9,150.6,242.9,148.4
			z"/>
	</g>
	<g id="step1">
		<path class="st54" d="M144,163.1c0,0-0.6,8-1.3,8.4c-0.7,0.4-13.2-1.3-12.1-4.3C132.8,161.1,144,163.1,144,163.1z"/>
		<path class="st54" d="M149.1,162.4l-1.1,9.9c0,0,17.3,4.3,24.7,2.2c5.1-1.4,11.5-9.2,7.5-11.4
			C176.2,160.9,149.1,162.4,149.1,162.4z"/>
	</g>
	<g id="nose">
		<ellipse transform="matrix(0.1195 -0.9928 0.9928 0.1195 21.0893 290.4497)" cx="174.3" cy="133.3" rx="20" ry="18.9"/>
		<ellipse transform="matrix(0.57 -0.8216 0.8216 0.57 -25.5862 200.4488)" class="st54" cx="178.7" cy="124.7" rx="4.4" ry="8.7"/>
	</g>
</g>
<g id="say">
	<g id="baloon">
		<g>
			<path class="st59" d="M346.5,73.6c3.5-13.7-2-19.3-10-25.1c-12.3-9.1-71-43-80.9-47.1c-7.9-3.3-15.6-0.8-23.9,7.2
				c-6.9,6.6-19.8,16.4-23.8,22c-5.2,7.2-9.8,20-0.1,29.9c8.7,8.8,18.8,15.5,37.9,28.7c12.1,8.4,17.4,12.7,12.2,14.7
				c-7.1,2.7-29.6,0.3-25.8,3.1c12,8.8,27.6,15.1,38.3,17.7c7.5,1.8,15.8,2.1,22.4,0c9.1,6.9,8.1,7,10.9,8.5
				c9,5.1,16.8,2.1,22.5-5.5C332.8,119.2,344.3,82,346.5,73.6z"/>
			<path class="st0" d="M347.4,73.7c3.5-13.5-2.5-19.9-10.2-25.6C325.1,39.2,267.6,6.1,257.8,2c-7.8-3.2-15.3-0.7-23.6,7.2
				c-6.8,6.5-19.3,16-23.3,21.5c-5.1,7.1-9.7,19.7-0.1,29.5c8.5,8.6,18.4,15.2,37.2,28.2c11.9,8.2,17.1,12.5,12,14.5
				c-6.9,2.7-29.2,0.5-25.3,3.1c11.1,7.5,28,15,38.6,17.2c7.6,1.6,14.5,2.2,21.1,0c8.9,6.8,7.9,6.8,10.6,8.3c8.9,5,16,1.1,21.7-6.2
				C333.8,116,345.3,81.9,347.4,73.7z"/>
		</g>
		<path class="st60" d="M342.3,73.8c3.3-12.7-2.3-18.7-9.6-24.1c-11.4-8.4-64.9-39.2-74.1-43c-7.3-3-14.4-0.7-22.1,6.7
			c-6.4,6.1-17.3,14-21,19.2c-4.8,6.7-9.1,18.6-0.1,27.7c8,8.1,25.1,20,42.8,32.2c11.2,7.7,12.9,10.5,8.1,12.4
			c-6.5,2.5-26.7,1-21.5,3.5c9.1,4.3,18.7,8.4,29.7,10.6c6.1,1.2,13.7,1.9,19.8-0.1c8.4,6.4,6.9,6.1,9.5,7.5
			c8.3,4.7,14.5,1.7,19.9-5.2C330.4,112.5,340.3,81.5,342.3,73.8z"/>
	</g>
	<g id="text">
		<path d="M252.5,22.8l-4.1,6.8c-0.2,0.2-0.4,0.4-0.7,0.4c-0.3,0-0.5,0-0.7-0.1c-0.3-0.2-0.4-0.5-0.1-0.9l3.8-6.3
			c0.9-1.5,1.9-2.9,3-4.4c-1.2-0.6-2.3-1.2-3.3-1.9c-0.4-0.3-0.5-0.6-0.3-0.9c0.1-0.2,0.3-0.3,0.6-0.4c0.3-0.1,0.5-0.1,0.8,0.1
			c0.9,0.6,2.3,1.4,4.1,2.3c1.8,1,3.1,1.7,4,2.3c0.3,0.3,0.4,0.7,0.2,0.9c-0.1,0.2-0.3,0.3-0.6,0.4c-0.3,0.1-0.5,0.1-0.8,0
			c-1-0.6-2.1-1.2-3.3-1.9C254.2,20.2,253.4,21.4,252.5,22.8z"/>
		<path d="M263,28.1c0.4,0.8,0.4,1.5,0.1,2c-0.4,0.6-1,1-2,1.2c-1,0.2-1.9,0.1-2.8-0.3c-0.1,0-0.2-0.1-0.2-0.1
			c-0.1,0-0.1-0.1-0.2-0.1s-0.1-0.1-0.2-0.1c0,0-0.1-0.1-0.2-0.1c-0.1,0-0.2-0.1-0.2-0.1c0,0-0.1-0.1-0.2-0.1
			c-0.1-0.1-0.2-0.1-0.2-0.1c-0.5,1.1-0.7,1.9-0.7,2.4c0.2,0.5,0.4,0.9,0.6,1.1c0.6,0.4,1.4,0.5,2.3,0.3c0.9-0.2,1.5-0.2,1.7-0.1
			c0.1,0.1,0.2,0.2,0.3,0.6c0.1,0.3,0.1,0.6,0,0.8c-0.1,0.2-0.4,0.3-0.8,0.4c-0.4,0.1-0.9,0.2-1.4,0.3c-0.5,0.1-1.1,0-1.7-0.1
			c-0.6-0.1-1.2-0.3-1.6-0.6c-0.4-0.3-0.8-0.6-1-1c-0.4-0.7-0.4-1.7-0.2-2.7c0.2-1.1,0.7-2.1,1.3-3.1c0.6-1,1.4-1.7,2.3-2.3
			c1-0.6,2.1-0.5,3.3,0.2C262.1,26.7,262.6,27.3,263,28.1z M261.3,29.2c0.3-0.5,0.1-1-0.6-1.5c-0.5-0.3-1.1-0.3-1.8,0
			c-0.2,0.1-0.4,0.2-0.6,0.4c-0.2,0.2-0.4,0.4-0.6,0.6C259.5,30,260.7,30.1,261.3,29.2z"/>
		<path d="M266.1,32c-1.9,3.1-2.7,5.2-2.3,6.2l0,0c0.5,0.2,1,0.2,1.6,0.2c0.6,0,1-0.1,1.2-0.3c0.5-1.3,1.4-3,2.7-5.1
			c1.3-2.1,2.6-3.8,3.7-5c0.2-0.2,0.6-0.4,1-0.3c0.2,0,0.3,0.1,0.4,0.1c0.3,0.2,0.4,0.6,0.3,1c-1.4,1.8-2.4,3-2.9,3.6
			c-0.5,0.7-1,1.4-1.6,2.4c-0.6,0.9-1,1.7-1.3,2.3c-0.3,0.6-0.6,1.3-0.8,2c-0.2,0.8-0.3,1.3-0.1,1.7l0.1,0c0.2,0.1,0.5,0,0.8-0.1
			c0.3-0.1,0.6-0.2,0.9-0.3c0.3-0.1,0.5-0.1,0.7,0c0.4,0.2,0.4,0.7-0.1,1.5c-0.2,0.4-0.8,0.7-1.5,0.8c-0.8,0.1-1.4,0-2-0.4
			c-0.7-0.5-1-1.2-0.9-2.2c-0.4,0.2-0.9,0.2-1.6,0.1c-0.6-0.1-1.1-0.2-1.5-0.4c-0.3-0.2-0.6-0.4-0.7-0.6c-0.1-0.2-0.2-0.4-0.3-0.5
			c-0.1-0.2-0.1-0.4-0.1-0.6c0-0.5,0.1-0.9,0.1-1.2c0.3-1.2,0.8-2.3,1.3-3.3c0.5-1,1.3-2.3,2.4-4c1-1.7,2.1-3.1,3.2-4.3
			c0.2-0.2,0.4-0.3,0.7-0.3c0.3,0,0.5,0,0.7,0.1c0.3,0.2,0.4,0.5,0.2,1c-1.4,1.7-2.3,2.9-2.8,3.6C267.2,30.4,266.7,31.2,266.1,32z"
			/>
		<path d="M280.8,46l0.7-1.1c0.5-0.8,0.8-1.4,0.9-1.7c0.1-0.3,0.1-0.6,0.1-0.9c0-0.5-0.2-1-0.8-1.3c-0.6-0.4-1.1-0.4-1.5-0.2
			c-0.4,0.2-0.9,0.7-1.4,1.5l-2.1,3.7c-0.7,1.1-1.3,1.5-1.9,1.1c-0.3-0.2-0.4-0.5-0.3-0.9c1.6-2.6,2.9-5,3.9-7.3
			c0.2-0.3,0.4-0.4,0.7-0.5c0.3-0.1,0.6-0.1,0.8,0.1c0.2,0.1,0.3,0.4,0.3,0.7c0.9-0.3,1.7-0.3,2.5,0.2c1,0.6,1.5,1.6,1.4,2.9
			c1.2-0.5,2.4-0.5,3.5,0.2c0.5,0.3,0.9,0.7,1.2,1.2c0.3,0.5,0.4,1,0.4,1.5c0,1.4-0.7,3.2-2.1,5.5l-0.5,0.8
			c-0.5,0.8-0.9,1.3-1.2,1.4c-0.1,0-0.2,0.1-0.4,0.1c-0.2,0-0.4,0-0.6-0.2c-0.3-0.2-0.4-0.5-0.1-1l1.6-2.4c1-1.6,1.5-2.8,1.5-3.5
			c0-0.5-0.1-0.9-0.3-1.3c-0.2-0.4-0.5-0.7-0.8-0.9c-0.3-0.2-0.6-0.3-0.8-0.3c-0.2,0-0.5,0.1-0.8,0.3c-0.5,0.4-1.3,1.4-2.2,2.9
			l-1.7,2.8l-0.1,0c-0.2,0.2-0.4,0.3-0.7,0.3c-0.3,0-0.5,0-0.7-0.1c-0.3-0.2-0.4-0.5-0.1-0.9l-0.1,0L280.8,46z"/>
		<path d="M297.3,49.5c0.4,0.8,0.4,1.5,0.1,2c-0.4,0.6-1,1-2,1.2c-1,0.2-1.9,0.1-2.8-0.3c-0.1,0-0.2-0.1-0.2-0.1
			c-0.1,0-0.1-0.1-0.2-0.1c-0.1,0-0.1-0.1-0.2-0.1s-0.1-0.1-0.2-0.1c-0.1,0-0.2-0.1-0.2-0.1c0,0-0.1-0.1-0.2-0.1
			c-0.1-0.1-0.2-0.1-0.2-0.1c-0.5,1.1-0.7,1.9-0.7,2.4c0.2,0.5,0.4,0.9,0.6,1.1c0.6,0.4,1.4,0.5,2.3,0.3c0.9-0.2,1.5-0.2,1.7-0.1
			c0.1,0.1,0.2,0.2,0.3,0.6c0.1,0.3,0.1,0.6,0,0.8c-0.1,0.2-0.4,0.3-0.8,0.4c-0.4,0.1-0.9,0.2-1.4,0.3c-0.5,0.1-1.1,0-1.7-0.1
			c-0.6-0.1-1.2-0.3-1.6-0.6c-0.4-0.3-0.8-0.6-1-1c-0.4-0.7-0.4-1.7-0.2-2.7c0.2-1.1,0.7-2.1,1.3-3.1c0.6-1,1.4-1.7,2.3-2.3
			c1-0.6,2.1-0.5,3.3,0.2C296.4,48.1,296.9,48.7,297.3,49.5z M295.6,50.6c0.3-0.5,0.1-1-0.6-1.5c-0.5-0.3-1.1-0.3-1.8,0
			c-0.2,0.1-0.4,0.2-0.6,0.4c-0.2,0.2-0.4,0.4-0.6,0.6C293.8,51.3,295,51.5,295.6,50.6z"/>
		<path d="M303.5,53.7c0.2-0.2,0.4-0.4,0.6-0.5c0.3-0.1,0.5-0.1,0.7,0.1c0.2,0.1,0.3,0.4,0.4,0.8c-0.3,1.2-0.6,2.3-0.7,3.3
			c-0.2,1-0.3,2-0.4,2.8c-0.1,0.9-0.2,1.5-0.3,2c0.7-0.7,1.7-1.6,3-2.9c1.3-1.2,2.2-2.1,2.7-2.6c0.2-0.2,0.6-0.2,1.1,0.1
			c0.2,0.1,0.3,0.3,0.4,0.5c0.1,0.2,0.1,0.4,0,0.5c-0.1,0.1-0.2,0.3-0.3,0.4c-5.9,5.4-10,9-12.4,10.9c-0.3,0.3-0.6,0.3-0.9,0.1
			c-0.2-0.1-0.3-0.3-0.3-0.6c0-0.3,0-0.5,0.2-0.8c0.2-0.3,0.5-0.7,1.1-1.2c0.6-0.5,1.2-1.1,1.9-1.6c0.7-0.6,1.2-1,1.5-1.2
			c0-0.7,0.2-2.2,0.6-4.4C302.7,57.2,303.1,55.3,303.5,53.7z"/>
		<path d="M314.5,59.9c0.7,0,1.3,0.2,1.9,0.6c0.6,0.4,1,1,1.2,1.8c0.3,1.5,0,3.1-1.1,4.8c-0.5,0.9-1.4,1.6-2.4,2.3
			c-0.5,0.3-1.1,0.5-1.7,0.5c-0.6,0.1-1.1-0.1-1.7-0.4c-0.5-0.3-0.9-0.8-1.3-1.4c-0.3-0.6-0.5-1.2-0.5-1.9c-0.1-1.4,0.2-2.5,0.7-3.4
			c0.7-1.2,1.7-2,3-2.5C313.2,60,313.8,59.8,314.5,59.9z M311.9,68.3c0.5,0,1-0.1,1.5-0.4c0.5-0.3,0.9-0.7,1.2-1.2s0.5-0.9,0.7-1.3
			c0.2-0.4,0.3-0.8,0.4-1.3c0.1-0.4,0.1-0.9,0-1.3c-0.1-0.4-0.3-0.7-0.6-1c-0.6-0.3-1.3-0.2-2,0.1c-0.7,0.3-1.3,0.8-1.6,1.3
			c-0.4,0.6-0.5,1.4-0.6,2.5c0,0.5,0.1,1,0.3,1.5C311.2,67.7,311.5,68.1,311.9,68.3z"/>
		<path d="M320.8,73.8c-1.5,0.4-2.7,0.3-3.6-0.3c-0.4-0.3-0.7-0.7-0.9-1.2c-0.1-0.5-0.1-1.1,0-1.8c0.3-1.3,0.8-2.4,1.4-3.4
			c0.6-1,1.4-2.1,2.3-3.3c0.2-0.2,0.4-0.3,0.7-0.4c0.3,0,0.5,0,0.6,0.1c0.4,0.2,0.5,0.5,0.3,1c-0.6,0.8-1.2,1.7-1.7,2.5
			c-0.5,0.8-0.9,1.4-1.1,1.8c-0.5,1-0.8,2.1-0.8,3.4c0.6,0.2,1.2,0.3,1.9,0.2c0.7-0.1,1.2-0.3,1.8-0.6c1-2,1.9-3.6,2.7-4.9
			c0.2-0.3,0.4-0.4,0.7-0.5c0.3-0.1,0.6-0.1,0.8,0.1c0.2,0.2,0.3,0.5,0.3,0.9c-0.4,0.6-1.3,2.1-2.6,4.5c-0.2,0.3-0.5,1-0.9,2
			c-0.4,1-0.7,1.5-0.8,1.7c-0.1,0.2-0.3,0.3-0.7,0.4c-0.3,0.1-0.6,0.1-0.8-0.1c-0.2-0.1-0.3-0.4-0.2-0.8L320.8,73.8z"/>
		<path d="M325.1,75.1l0.4-0.6c0.5-0.8,1-1.7,1.4-2.7c0.5-1,0.8-1.8,0.9-2.4c0.1-0.6,0.3-0.9,0.3-1c0.1-0.1,0.2-0.2,0.5-0.2
			c0.2,0,0.5,0,0.7,0.2c0.2,0.1,0.3,0.3,0.4,0.6s0,0.5-0.1,0.7c-0.1,0.2-0.2,0.4-0.3,0.8c-0.2,0.3-0.3,0.5-0.3,0.6
			c0.8-0.6,1.7-0.8,2.7-0.6c0.5,0.1,1,0.3,1.5,0.6c1.1,0.7,1.4,1.3,1.1,1.8c-0.2,0.3-0.5,0.5-1,0.4c-0.2,0-0.3-0.1-0.5-0.1l-0.5-0.4
			c-1.6-1-3.4,0.1-5.4,3.3l-1.1,1.8l0,0c-0.2,0.2-0.4,0.3-0.7,0.4c-0.3,0.1-0.5,0-0.7-0.1c-0.3-0.2-0.3-0.5-0.1-1
			C324.3,76.4,324.6,75.8,325.1,75.1z"/>
		<path d="M238.6,44.2c0.5,0.3,0.9,0.7,1.3,1.1c0.7,0.9,1,1.6,0.7,2.1c-0.1,0.2-0.3,0.3-0.6,0.3c-0.3,0-0.5-0.1-0.8-0.2
			c-0.1,0-0.3-0.3-0.6-0.9c-0.4-0.6-0.7-0.9-1-1.1c-0.3-0.2-0.7-0.3-1.1-0.3c-0.4,0-0.7,0.2-0.9,0.5c-0.2,0.3-0.3,0.6-0.2,0.9
			c0,0.3,0.1,0.6,0.4,0.8c0.2,0.3,0.4,0.5,0.7,0.8c0.7,0.7,1.2,1.2,1.5,1.6c0.4,0.6,0.4,1.4-0.1,2.2c-0.5,0.8-1.3,1.3-2.2,1.6
			c-1,0.2-1.8,0.1-2.5-0.3c-0.7-0.4-1.2-0.9-1.6-1.3c-0.6-0.8-0.8-1.4-0.5-1.9c0.3-0.5,0.7-0.5,1.2-0.2c0.3,0.2,0.5,0.5,0.9,1
			c0.3,0.5,0.6,0.9,1,1.1c0.3,0.2,0.7,0.2,1.2,0c0.5-0.2,0.9-0.5,1.1-0.9c0-0.1,0.1-0.2,0.2-0.3c-0.1-0.6-0.7-1.2-1.6-2
			c-0.3-0.3-0.6-0.6-0.9-1c-0.6-0.7-0.5-1.7,0.1-2.8c0.5-0.8,1.1-1.2,2-1.3C237,43.5,237.8,43.7,238.6,44.2z"/>
		<path d="M247.7,50.9c0.4,0.8,0.4,1.5,0.1,2c-0.4,0.6-1,1-2,1.2c-1,0.2-1.9,0.1-2.8-0.3c-0.1,0-0.2-0.1-0.2-0.1
			c0,0-0.1-0.1-0.2-0.1c-0.1,0-0.1-0.1-0.2-0.1c0,0-0.1-0.1-0.2-0.1c-0.1,0-0.2-0.1-0.2-0.1c0,0-0.1-0.1-0.2-0.1
			c-0.1-0.1-0.2-0.1-0.2-0.1c-0.5,1.1-0.7,1.9-0.7,2.4c0.2,0.5,0.4,0.9,0.6,1.1c0.6,0.4,1.4,0.5,2.3,0.3c0.9-0.2,1.5-0.2,1.7-0.1
			c0.1,0.1,0.2,0.2,0.3,0.6c0.1,0.3,0.1,0.6,0,0.8c-0.1,0.2-0.4,0.3-0.8,0.4c-0.4,0.1-0.9,0.2-1.4,0.3c-0.5,0.1-1.1,0-1.7-0.1
			c-0.6-0.1-1.2-0.3-1.6-0.6c-0.4-0.3-0.8-0.6-1-1c-0.4-0.7-0.4-1.7-0.2-2.7c0.2-1.1,0.7-2.1,1.3-3.1c0.6-1,1.4-1.7,2.3-2.3
			c1-0.6,2.1-0.5,3.3,0.2C246.8,49.5,247.3,50.1,247.7,50.9z M246,52c0.3-0.5,0.1-1-0.6-1.5c-0.5-0.3-1.1-0.3-1.8,0
			c-0.2,0.1-0.4,0.2-0.6,0.4c-0.2,0.2-0.4,0.4-0.6,0.6C244.3,52.7,245.5,52.9,246,52z"/>
		<path d="M256.6,56c0.1,0.2,0.1,0.4,0,0.5c-0.2,0.3-0.4,0.5-0.8,0.7c-0.3,0.2-0.6,0.3-0.9,0.1c-0.1-0.1-0.3-0.3-0.6-0.7
			c-0.3-0.4-0.5-0.6-0.7-0.7c-0.7-0.4-1.5-0.6-2.4-0.4c-0.9,0.2-1.6,0.7-2.2,1.6s-0.8,1.7-0.9,2.3c0,0.6,0.4,1.2,1.1,1.6
			c0.4,0.2,1,0.4,1.8,0.5c0.8,0.1,1.3,0.1,1.5,0.3c0.2,0.1,0.3,0.3,0.3,0.4c0,0.2,0,0.3-0.1,0.5c-0.2,0.3-0.6,0.5-1.2,0.6
			c-0.6,0.1-1.3,0.1-2-0.1c-0.7-0.1-1.3-0.4-1.8-0.6c-1-0.7-1.6-1.6-1.7-2.7c-0.1-1.2,0.3-2.5,1.2-3.9c0.6-0.9,1.3-1.5,2.2-2
			c0.9-0.4,1.8-0.6,2.7-0.5c0.9,0.1,1.8,0.4,2.6,0.9C255.9,55,256.4,55.5,256.6,56z"/>
		<path d="M254.8,63.6l0.4-0.6c0.5-0.8,1-1.7,1.4-2.7c0.5-1,0.8-1.8,0.9-2.4c0.1-0.6,0.3-0.9,0.3-1c0.1-0.1,0.2-0.2,0.5-0.2
			c0.2,0,0.5,0,0.7,0.2c0.2,0.1,0.3,0.3,0.4,0.6c0,0.2,0,0.5-0.1,0.7c-0.1,0.2-0.2,0.4-0.3,0.8c-0.2,0.3-0.3,0.5-0.3,0.6
			c0.8-0.6,1.7-0.8,2.7-0.6c0.5,0.1,1,0.3,1.5,0.6c1.1,0.7,1.4,1.3,1.1,1.8c-0.2,0.3-0.5,0.5-1,0.4c-0.2,0-0.3-0.1-0.5-0.1l-0.5-0.4
			c-1.6-1-3.4,0.1-5.4,3.3l-1.1,1.8l0,0c-0.2,0.2-0.4,0.3-0.7,0.4c-0.3,0.1-0.5,0-0.7-0.1c-0.3-0.2-0.3-0.5-0.1-1
			C254.1,65,254.4,64.3,254.8,63.6z"/>
		<path d="M270.4,65c0.4,0.8,0.4,1.5,0.1,2c-0.4,0.6-1,1-2,1.2c-1,0.2-1.9,0.1-2.8-0.3c-0.1,0-0.2-0.1-0.2-0.1
			c-0.1,0-0.1-0.1-0.2-0.1c-0.1,0-0.1-0.1-0.2-0.1s-0.1-0.1-0.2-0.1c-0.1,0-0.2-0.1-0.2-0.1c0,0-0.1-0.1-0.2-0.1
			c-0.1-0.1-0.2-0.1-0.2-0.1c-0.5,1.1-0.7,1.9-0.7,2.4c0.2,0.5,0.4,0.9,0.6,1.1c0.6,0.4,1.4,0.5,2.3,0.3c0.9-0.2,1.5-0.2,1.7-0.1
			c0.1,0.1,0.2,0.2,0.3,0.6c0.1,0.3,0.1,0.6,0,0.8c-0.1,0.2-0.4,0.3-0.8,0.4c-0.4,0.1-0.9,0.2-1.4,0.3c-0.5,0.1-1.1,0-1.7-0.1
			c-0.6-0.1-1.2-0.3-1.6-0.6c-0.4-0.3-0.8-0.6-1-1c-0.4-0.7-0.4-1.7-0.2-2.7c0.2-1.1,0.7-2.1,1.3-3.1c0.6-1,1.4-1.7,2.3-2.3
			c1-0.6,2.1-0.5,3.3,0.2C269.5,63.6,270,64.2,270.4,65z M268.7,66.1c0.3-0.5,0.1-1-0.6-1.5c-0.5-0.3-1.1-0.3-1.8,0
			c-0.2,0.1-0.4,0.2-0.6,0.4c-0.2,0.2-0.4,0.4-0.6,0.6C267,66.9,268.2,67,268.7,66.1z"/>
		<path d="M279.2,63.7l-1.6,2.3c-0.1,0.2-0.5,0.8-1.1,1.9c0.8,0.5,1.5,0.9,2.3,1.3c0.3,0.3,0.4,0.7,0.2,1c-0.2,0.4-0.5,0.5-0.9,0.5
			c-0.4,0-0.7-0.1-0.9-0.2c-0.3-0.1-0.5-0.3-0.6-0.4c-0.1-0.1-0.3-0.2-0.5-0.3c-0.2-0.1-0.4-0.2-0.5-0.3c-0.1,0.1-0.3,0.5-0.6,1.1
			c-0.3,0.6-0.6,1-0.7,1.2c-1,1.8-1.7,3.3-2.2,4.6c-0.2,0.2-0.5,0.4-0.8,0.4c-0.3,0.1-0.6,0-0.8-0.1c-0.2-0.1-0.3-0.4-0.2-0.8
			c0.5-1.3,1.2-2.7,2.2-4.4c0.9-1.6,1.5-2.6,1.7-2.9c-0.2-0.1-0.5-0.3-1-0.6c-0.5-0.3-0.8-0.5-1-0.8c-0.3-0.3-0.3-0.5-0.1-0.9
			c0.4-0.6,1-0.7,1.7-0.3l0.9,0.6c0.2,0.1,0.3,0.2,0.4,0.2c0.8-1.3,1.1-2,1.2-2c0.1-0.1,0.2-0.3,0.4-0.6c0.2-0.3,0.5-0.7,0.9-1.3
			c0.2-0.2,0.4-0.3,0.7-0.3c0.3,0,0.5,0,0.7,0.1C279.3,63,279.4,63.3,279.2,63.7z"/>
		<path d="M290.4,77c0.1,0.2,0.1,0.4,0,0.5c-0.2,0.3-0.4,0.5-0.8,0.7c-0.3,0.2-0.6,0.3-0.9,0.1c-0.1-0.1-0.3-0.3-0.6-0.7
			c-0.3-0.4-0.5-0.6-0.7-0.7c-0.7-0.4-1.5-0.6-2.4-0.4c-0.9,0.2-1.6,0.7-2.2,1.6s-0.8,1.7-0.9,2.3c0,0.6,0.4,1.2,1.1,1.6
			c0.4,0.2,1,0.4,1.8,0.5c0.8,0.1,1.3,0.1,1.5,0.3c0.2,0.1,0.3,0.3,0.3,0.4c0,0.2,0,0.3-0.1,0.5c-0.2,0.3-0.6,0.5-1.2,0.6
			c-0.6,0.1-1.3,0.1-2-0.1c-0.7-0.1-1.3-0.4-1.8-0.6c-1-0.7-1.6-1.6-1.7-2.7c-0.1-1.2,0.3-2.5,1.2-3.9c0.6-0.9,1.3-1.5,2.2-2
			c0.9-0.4,1.8-0.6,2.7-0.5c0.9,0.1,1.8,0.4,2.6,0.9C289.7,76.1,290.2,76.5,290.4,77z"/>
		<path d="M293.6,79.1c0.7,0,1.3,0.2,1.9,0.6c0.6,0.4,1,1,1.2,1.8c0.3,1.5,0,3.1-1.1,4.8c-0.5,0.9-1.4,1.6-2.4,2.3
			c-0.5,0.3-1.1,0.5-1.7,0.5c-0.6,0.1-1.1-0.1-1.7-0.4c-0.5-0.3-0.9-0.8-1.3-1.4c-0.3-0.6-0.5-1.2-0.5-1.9c-0.1-1.4,0.2-2.5,0.7-3.4
			c0.7-1.2,1.7-2,3-2.5C292.3,79.2,293,79.1,293.6,79.1z M291,87.6c0.5,0,1-0.1,1.5-0.4c0.5-0.3,0.9-0.7,1.2-1.2
			c0.3-0.5,0.5-0.9,0.7-1.3c0.2-0.4,0.3-0.8,0.4-1.3c0.1-0.4,0.1-0.9,0-1.3c-0.1-0.4-0.3-0.7-0.6-1c-0.6-0.3-1.3-0.2-2,0.1
			c-0.7,0.3-1.3,0.8-1.6,1.3c-0.3,0.6-0.5,1.4-0.6,2.5c0,0.5,0.1,1,0.3,1.5C290.4,87,290.7,87.3,291,87.6z"/>
		<path d="M306.8,81.5c0.4-0.7,0.9-0.9,1.3-0.6c0.2,0.1,0.4,0.3,0.4,0.4c0.1,0.1,0,0.3,0,0.6c-0.1,0.2-0.3,0.7-0.7,1.4
			c-0.4,0.7-0.9,1.5-1.5,2.5c-0.6,1-1,1.8-1.4,2.4c-0.3,0.6-0.8,1.5-1.5,2.8c-0.7,1.3-1.3,2.3-1.7,3.1L301,95
			c-0.2,0.2-0.4,0.3-0.6,0.3c-0.2,0-0.4-0.1-0.7-0.3c-0.3-0.2-0.3-0.4-0.2-0.8l0.1-0.3c-0.8,0.1-1.6-0.1-2.4-0.6
			c-1-0.6-1.6-1.5-1.7-2.6c-0.1-1.1,0.1-2.1,0.7-3.1c0.6-1,1.4-1.8,2.5-2.5c1-0.7,2.2-1,3.3-0.8c0.6,0.1,1.3,0.3,1.9,0.7
			c0.2,0.1,0.4,0.3,0.5,0.4l0.9-1.6l0.8-1.2L306.8,81.5z M300.4,92.2c0.2-0.1,0.4-0.5,0.8-1c0.3-0.5,0.5-0.8,0.6-0.9L302,90
			c0.4-0.7,0.8-1.4,1-2.1c0.2-0.7,0.2-1.1-0.1-1.3c-0.4-0.2-0.8-0.4-1.3-0.6c-0.5-0.2-0.9-0.2-1.1-0.1c-0.8,0.3-1.5,1.1-2.3,2.3
			c-0.6,0.9-0.7,1.8-0.4,2.6c0.1,0.5,0.4,0.8,0.8,1.1c0.4,0.2,0.8,0.4,1.1,0.4C300,92.4,300.3,92.3,300.4,92.2z"/>
		<path d="M312.9,91.4c0.4,0.8,0.4,1.5,0.1,2c-0.4,0.6-1,1-2,1.2c-1,0.2-1.9,0.1-2.8-0.3c-0.1,0-0.2-0.1-0.2-0.1
			c-0.1,0-0.1-0.1-0.2-0.1c-0.1,0-0.1-0.1-0.2-0.1c0,0-0.1-0.1-0.2-0.1c-0.1,0-0.2-0.1-0.2-0.1c0,0-0.1-0.1-0.2-0.1
			c-0.1-0.1-0.2-0.1-0.2-0.1c-0.5,1.1-0.7,1.9-0.7,2.4c0.2,0.5,0.4,0.9,0.6,1.1c0.6,0.4,1.4,0.5,2.3,0.3c0.9-0.2,1.5-0.2,1.7-0.1
			c0.1,0.1,0.2,0.2,0.3,0.6c0.1,0.3,0.1,0.6,0,0.8c-0.1,0.2-0.4,0.3-0.8,0.4c-0.4,0.1-0.9,0.2-1.4,0.3c-0.5,0.1-1.1,0-1.7-0.1
			c-0.6-0.1-1.2-0.3-1.6-0.6c-0.4-0.3-0.8-0.6-1-1c-0.4-0.7-0.4-1.7-0.2-2.7c0.2-1.1,0.7-2.1,1.3-3.1c0.6-1,1.4-1.7,2.3-2.3
			c1-0.6,2.1-0.5,3.3,0.2C311.9,90,312.5,90.6,312.9,91.4z M311.1,92.5c0.3-0.5,0.1-1-0.6-1.5c-0.5-0.3-1.1-0.3-1.8,0
			c-0.2,0.1-0.4,0.2-0.6,0.4c-0.2,0.2-0.4,0.4-0.6,0.6C309.4,93.3,310.6,93.4,311.1,92.5z"/>
		<path d="M311.9,100.2c0.1-0.2,0.3-0.4,0.6-0.5c0.3-0.1,0.6-0.1,0.9,0.1c0.3,0.2,0.5,0.4,0.6,0.6c0.1,0.2,0,0.5-0.3,0.9
			c-0.3,0.4-0.5,0.6-0.8,0.6c-0.3,0-0.5,0-0.7-0.2c-0.3-0.2-0.5-0.5-0.5-0.8C311.7,100.7,311.8,100.4,311.9,100.2z M320.8,89.5
			l-4.3,6.5c-0.4,0.6-0.7,1.1-0.8,1.4c-0.2,0.1-0.3,0.2-0.6,0.3c-0.2,0-0.4,0-0.6-0.1c-0.2-0.1-0.2-0.3-0.2-0.7
			c1.8-3.4,3.4-6.2,4.8-8.4c0.2-0.1,0.4-0.2,0.7-0.1c0.3,0.1,0.5,0.1,0.6,0.2C320.8,88.8,321,89.2,320.8,89.5z"/>
	</g>
</g>
<g id="eyeclose">
	<g id="eyeBclose">
		
			<ellipse transform="matrix(0.8729 -0.4878 0.4878 0.8729 -23.1194 98.1257)" class="st56" cx="176.8" cy="93.4" rx="9.9" ry="9.9"/>
		<path class="st61" d="M183.7,99.6l-0.4,1.2c0,0-3.1-3.6-7.2-6.3c-3.1-2.1-6.7-3.5-9.6-3.4l0.4-1C167,90.1,175.2,88.9,183.7,99.6z"
			/>
	</g>
	<g id="eyeFclose">
		
			<ellipse transform="matrix(0.8729 -0.4878 0.4878 0.8729 -20.9262 92.1252)" class="st62" cx="166.4" cy="86.2" rx="12.1" ry="12.1"/>
		<path class="st61" d="M175.7,92.6l-0.5,1.5c0,0-4.1-4.2-9.3-7.4c-4-2.4-8.6-4-12.1-3.7l0.5-1.2C154.2,81.8,164.4,79.7,175.7,92.6z
			"/>
	</g>
	<g id="bodyClose">
		<path class="st57" d="M147.5,79.2c0,0,3.6-0.6,6.5,1.5c2.5,1.9,3.3,11.3,2.4,12.5C155.3,94.6,147.5,79.2,147.5,79.2z"/>
		<path class="st57" d="M149.4,89.9c0,0,3.5-1.2,7.8,0c6,1.7,20.4,10.1,20.7,13.2c0.2,2.1-2.5,1.8-3,1.7c-0.4-0.1-5.4-0.8-13.6-5
			C153.1,95.5,149.4,89.9,149.4,89.9z"/>
	</g>
</g>
</svg>
