<?xml version="1.0" encoding="utf-8"?>
<!-- Generator: Adobe Illustrator 21.0.0, SVG Export Plug-In . SVG Version: 6.00 Build 0)  -->
<svg version="1.1" id="svg-dog-win" xmlns="http://www.w3.org/2000/svg" xmlns:xlink="http://www.w3.org/1999/xlink" x="0px"
	 y="0px" viewBox="0 0 330 401.7" style="enable-background:new 0 0 330 401.7;" xml:space="preserve">
<style type="text/css">
	.st0{fill:#FFFFFF;}
	.st1{fill:#FDFDFD;}
	.st2{fill:#FBFBFB;}
	.st3{fill:#F9F9F9;}
	.st4{fill:#F7F7F7;}
	.st5{fill:#F5F5F5;}
	.st6{fill:#F3F3F3;}
	.st7{fill:#F1F1F1;}
	.st8{fill:#EFEFEF;}
	.st9{fill:#EDEDED;}
	.st10{fill:#EBEBEB;}
	.st11{fill:#E9E9E9;}
	.st12{fill:#E7E7E7;}
	.st13{fill:#E5E5E4;}
	.st14{fill:#E3E3E2;}
	.st15{fill:#E1E1E0;}
	.st16{fill:#DFDFDE;}
	.st17{fill:#DDDDDC;}
	.st18{fill:#DBDBDA;}
	.st19{fill:#D9D9D8;}
	.st20{fill:#D7D7D6;}
	.st21{fill:#D5D5D4;}
	.st22{fill:#D3D3D2;}
	.st23{fill:#D1D1D0;}
	.st24{fill:#CFCFCE;}
	.st25{fill:#CDCDCC;}
	.st26{fill:#CACACA;}
	.st27{fill:#C8C8C8;}
	.st28{fill:#C6C6C6;}
	.st29{fill:#C4C4C4;}
	.st30{fill:#C2C2C2;}
	.st31{fill:#C0C0C0;}
	.st32{fill:#BEBEBE;}
	.st33{fill:#BCBCBC;}
	.st34{fill:#BABABA;}
	.st35{fill:#B8B8B8;}
	.st36{fill:#B6B6B6;}
	.st37{fill:#B4B4B4;}
	.st38{fill:#B2B2B2;}
	.st39{fill:#B0B0AF;}
	.st40{fill:#AEAEAD;}
	.st41{fill:#ACACAB;}
	.st42{fill:#AAAAA9;}
	.st43{fill:#A8A8A7;}
	.st44{fill:#A6A6A5;}
	.st45{fill:#A4A4A3;}
	.st46{fill:#A2A2A1;}
	.st47{fill:#A0A09F;}
	.st48{fill:#9E9E9D;}
	.st49{fill:#9C9C9B;}
	.st50{fill:#9A9A99;}
	.st51{fill:#989897;}
	.st52{fill:#DC2626;}
	.st53{fill:#B22025;}
	.st54{fill:#B56F29;}
	.st55{fill:#1A1A1A;}
	.st56{fill:#F69220;}
	.st57{fill:#CBCBCA;}
	.st58{fill:#E48525;}
	.st59{fill:#603A17;}
	.st60{fill:#343433;}
</style>
<g id="shadow">
	<ellipse class="st0" cx="180.5" cy="378.9" rx="135.2" ry="22.8"/>
	<ellipse class="st1" cx="180.5" cy="378.9" rx="133.1" ry="22.5"/>
	<ellipse class="st2" cx="180.5" cy="378.9" rx="131" ry="22.1"/>
	<ellipse class="st3" cx="180.5" cy="378.9" rx="128.9" ry="21.8"/>
	<ellipse class="st4" cx="180.5" cy="378.9" rx="126.8" ry="21.4"/>
	<ellipse class="st5" cx="180.5" cy="378.9" rx="124.7" ry="21.1"/>
	<ellipse class="st6" cx="180.5" cy="378.9" rx="122.6" ry="20.7"/>
	<ellipse class="st7" cx="180.5" cy="378.9" rx="120.5" ry="20.4"/>
	<ellipse class="st8" cx="180.5" cy="378.9" rx="118.4" ry="20"/>
	<ellipse class="st9" cx="180.5" cy="378.9" rx="116.3" ry="19.7"/>
	<ellipse class="st10" cx="180.5" cy="378.9" rx="114.2" ry="19.3"/>
	<ellipse class="st11" cx="180.5" cy="378.9" rx="112.1" ry="18.9"/>
	<ellipse class="st12" cx="180.5" cy="378.9" rx="110" ry="18.6"/>
	<ellipse class="st13" cx="180.5" cy="378.9" rx="107.9" ry="18.2"/>
	<ellipse class="st14" cx="180.5" cy="378.9" rx="105.8" ry="17.9"/>
	<ellipse class="st15" cx="180.5" cy="378.9" rx="103.8" ry="17.5"/>
	<ellipse class="st16" cx="180.5" cy="378.9" rx="101.7" ry="17.2"/>
	<ellipse class="st17" cx="180.5" cy="378.9" rx="99.6" ry="16.8"/>
	<ellipse class="st18" cx="180.5" cy="378.9" rx="97.5" ry="16.5"/>
	<ellipse class="st19" cx="180.5" cy="378.9" rx="95.4" ry="16.1"/>
	<ellipse class="st20" cx="180.5" cy="378.9" rx="93.3" ry="15.8"/>
	<ellipse class="st21" cx="180.5" cy="378.9" rx="91.2" ry="15.4"/>
	<ellipse class="st22" cx="180.5" cy="378.9" rx="89.1" ry="15.1"/>
	<ellipse class="st23" cx="180.5" cy="378.9" rx="87" ry="14.7"/>
	<ellipse class="st24" cx="180.5" cy="378.9" rx="84.9" ry="14.3"/>
	<ellipse class="st25" cx="180.5" cy="378.9" rx="82.8" ry="14"/>
	<ellipse class="st26" cx="180.5" cy="378.9" rx="80.7" ry="13.6"/>
	<ellipse class="st27" cx="180.5" cy="378.9" rx="78.6" ry="13.3"/>
	<ellipse class="st28" cx="180.5" cy="378.9" rx="76.5" ry="12.9"/>
	<ellipse class="st29" cx="180.5" cy="378.9" rx="74.4" ry="12.6"/>
	<ellipse class="st30" cx="180.5" cy="378.9" rx="72.3" ry="12.2"/>
	<ellipse class="st31" cx="180.5" cy="378.9" rx="70.2" ry="11.9"/>
	<ellipse class="st32" cx="180.5" cy="378.9" rx="68.1" ry="11.5"/>
	<ellipse class="st33" cx="180.5" cy="378.9" rx="66" ry="11.2"/>
	<ellipse class="st34" cx="180.5" cy="378.9" rx="63.9" ry="10.8"/>
	<ellipse class="st35" cx="180.5" cy="378.9" rx="61.8" ry="10.4"/>
	<ellipse class="st36" cx="180.5" cy="378.9" rx="59.7" ry="10.1"/>
	<ellipse class="st37" cx="180.5" cy="378.9" rx="57.6" ry="9.7"/>
	<ellipse class="st38" cx="180.5" cy="378.9" rx="55.5" ry="9.4"/>
	<ellipse class="st39" cx="180.5" cy="378.9" rx="53.4" ry="9"/>
	<ellipse class="st40" cx="180.5" cy="378.9" rx="51.3" ry="8.7"/>
	<ellipse class="st41" cx="180.5" cy="378.9" rx="49.2" ry="8.3"/>
	<ellipse class="st42" cx="180.5" cy="378.9" rx="47.1" ry="8"/>
	<ellipse class="st43" cx="180.5" cy="378.9" rx="45" ry="7.6"/>
	<ellipse class="st44" cx="180.5" cy="378.9" rx="42.9" ry="7.3"/>
	<ellipse class="st45" cx="180.5" cy="378.9" rx="40.8" ry="6.9"/>
	<ellipse class="st46" cx="180.5" cy="378.9" rx="38.7" ry="6.5"/>
	<ellipse class="st47" cx="180.5" cy="378.9" rx="36.6" ry="6.2"/>
	<ellipse class="st48" cx="180.5" cy="378.9" rx="34.5" ry="5.8"/>
	<ellipse class="st49" cx="180.5" cy="378.9" rx="32.4" ry="5.5"/>
	<ellipse class="st50" cx="180.5" cy="378.9" rx="30.3" ry="5.1"/>
	<ellipse class="st51" cx="180.5" cy="378.9" rx="28.3" ry="4.8"/>
</g>
<g id="svg-dog">
	<g id="tong">
		<path class="st52" d="M147.3,295.7c0,0-7.9,4-14.3,14.3c-5.5,9-6.6,23.8,3.2,26.6c12.3,3.6,16-4.1,16.6-8.5
			c0.8-5.3,1.9-8.1,3.8-10.6c1.9-2.8,4.7-4.1,4.7-4.1L147.3,295.7z"/>
		<path class="st53" d="M151.8,301.5c0,0-5.1,2.6-8.9,8.7c-2.8,4.7-4.5,10.7-2.5,11.7c2.1,0.9,2.3-6.4,5.1-10.9
			c3.4-5.7,7.5-8.1,7.5-8.1L151.8,301.5z"/>
	</g>
	<path id="hangR" class="st54" d="M196.5,318.9c0,0-1.5,11.3-4.7,18.7c-3,7.4-5.8,14.3-7.5,14.9c-1.7,0.4-18.1-6.8-25.1,0
		c-6.8,6.8-4.9,19.8,0,20.9s17.2-8.3,18.7-7.2c1.5,1.1-7.7,10.2-4.7,13.4c3,3,14.3,11.5,22.4,5.5c7.9-6-0.8-14.9,2.6-16.2
		s11.5,10.9,18.9,7.2c7.4-3.8,11.1-10.9,6.4-18.1c-4.7-7.4-26-1.1-26-2.3c0-1.1,3.4-4,6.6-14.1c3.4-10.2,3-24.7,3-24.7L196.5,318.9z
		"/>
	<path id="handL" class="st54" d="M99.6,260.4c0,0-59.2,38.1-61.5,35.4c-2.3-2.8-5.3-15.1-10.6-17.5c-5.3-2.5-17.5,0.2-18.7,7.2
		c-0.9,7,16.2,12.6,13.4,17.3c-3,4.7-16.2,1.7-19.2,9.6c-3,7.9,4,21.9,14,21.9s12.6-13.4,17.3-13.4s0,17.5,7.7,18.7
		c7.7,0.9,16.6-3.6,17.3-12.1c0.8-8.3-11.3-16.2-10.9-17.3c0.4-0.9,56.2-41.9,56.2-41.9L99.6,260.4z"/>
	<path id="legR" class="st54" d="M235.2,126.4c0,0,10.6-5.8,27.9-10.2c18.5-4.5,23.6-2.8,27.1-4.5c3.6-1.7-0.6-11.3,10.2-15.8
		c10.6-4.5,19.2,4.3,18.9,10.2c-0.4,5.8-9,11.1-9,12.4c0,1.3,13.8-2.8,17.7,3.8c3.6,6,3,18.9-7.2,19.8c-10.2,0.9-17.7-10.2-21.3-8.9
		c-3.6,1.3,1.5,10-4.7,14.9c-4.9,3.8-14.9,3.4-17.7-3.8c-2.5-5.8,7.4-15.6,5.7-17c-1.7-1.3-11.5-0.2-19.4,1.7
		c-7.9,1.7-20.6,5.1-20.6,5.1L235.2,126.4z"/>
	<path id="legL" class="st54" d="M105.8,133.3c0,0-12.8-10.2-31.1-17.2c-12.6-4.7-26.8-5.1-28.1-8.3c-1.3-3.4,6-8.5,2.8-17.7
		c-3.4-9.2-17.3-12.6-23.6-7.9c-6.4,4.7,7,20.9,4.3,23.9c-2.6,3-12.3-9.2-23-4.9c-10.6,4.3-8.7,18.1,0,21.3
		c8.7,3.2,15.6-6.4,18.3-3.8c2.6,2.6-16,13.6-9.6,21.7c6.4,7.9,15.3,8.3,22.6,2.1c7.4-6.4-0.8-16.2,3-18.3c3.6-2.1,13,0.2,27.7,4
		c17.3,4.5,30.2,15.3,30.2,15.3L105.8,133.3z"/>
	<path id="tail" class="st55" d="M156.9,105.1c0,0-17-15.6-20.4-35.6c-3.4-20,0-34.9,2.3-34.9s8.7,14.3,10.6,13.6
		c2.1-0.8-6-14.3,5.7-31.9c11.7-17.5,26.2-16.6,27.5-16c1.3,0.8-6.6,14.3-3.6,17.5c3,3.4,9.6-13,29.2-8.3s25.6,17.7,24.5,19.2
		c-0.9,1.7-19-4.3-19.6-2.3c-0.8,2.1,15.3,6,15.6,26c0.4,20-11.7,26.2-25.3,28.8c-13.6,2.6-29.6-7.9-28.1-10.4
		c1.5-2.3,11.5,0.2,16-7c4.7-7.4-3.8-19.6-15.1-17.9c-10,1.5-15.5,9-15.1,20.7s11.9,36.2,11.9,36.2L156.9,105.1z"/>
	<path id="dog-body" class="st56" d="M250.4,233.5L235,198.6c0,0,13-23.9,13-42.6c0-22.6-9.6-54.3-52.4-57.5
		c-43.4-3.4-76.9,9.6-97.9,42.2c-20.2,31.5-22.8,77.9-7.4,113.1c17.5,40.2,56.4,42,56.4,42s8.7,24.5,39.6,27.9
		c49,5.5,89.6-39.4,89.6-39.4l-9.6-48.1L250.4,233.5z"/>
	<path id="mouth" d="M146.7,295.9c0,0-3.2-12.4-3-20.7c0.2-17.3,7-21.1,7-21.1s-8.7,4.1-9.4,22.2c-0.4,6,2.8,19.4,2.8,19.4
		L146.7,295.9z"/>
	<path id="earL" d="M163,215.5c0,0-53.9-21.3-63.5-17.9c-7.2,2.5-34.9,26.6-32.1,44.9c2.1,13.2,20.4,16,28.1,8.7
		c9-8.7,5.1-32.8,10.4-36c6.6-4.1,57.1,8.3,57.1,8.3L163,215.5L163,215.5z"/>
	<path id="earR" d="M232,194.2c0,0,47.1-35.8,57.1-35.6c13.4,0.2,32.1,23.6,30.5,34.7c-1.5,11.1-13,15.1-20.2,10.4
		c-7.2-4.7-10.6-27.5-15.5-28.1c-4.9-0.6-48.8,22.4-48.8,22.4L232,194.2z"/>
	<path id="hair" class="st54" d="M171.1,242.5c0,0-16.6-17.9-14-43c3-30,27.7-37.9,27.7-37.9s-9.2,13.4-7.2,25.1
		c2.8,15.6,12.6,17.2,12.6,17.2s-0.8-22.4,11.1-31.7c17.9-14,30.4-4.1,30.4-4.1s-15.1,3.6-17.9,12.4c-2.3,7.2,1.7,13.8,1.7,13.8
		s10.4-14.7,21.9-16c17.5-2.1,20.4,11.7,20.4,11.7s-7.4-5.5-15.3,1.3c-5.7,4.9-6.2,11.1-6.2,11.1l2.1,14.9L171.1,242.5z"/>
	<g id="eyes-open">
		<path class="st56" d="M176.7,249.5c0,0-2.8-1.7-5.7-7c-4-7.5,1.5-25.3,20.2-35.8c18.9-10.6,22.8,4.7,28.1,6.4s7.4-15.8,20-12.6
			c10.4,2.6,6.8,17.3,6.8,17.3L176.7,249.5z"/>
		<circle class="st57" cx="237.4" cy="226.1" r="16.4"/>
		<circle cx="238.8" cy="224.8" r="3.6"/>
		<circle class="st0" cx="206" cy="243.1" r="25.5"/>
		<circle cx="208" cy="240.8" r="5.7"/>
		<path class="st56" d="M251.8,233.6c0,0,2.3-2.3,1.1-2.8c-5.5-2.8-41.9,15.8-46.9,25.1c-7,12.4,0,18.5,0,18.5s16.2-2.3,30.2-11.7
			C250.1,253.1,251.8,233.6,251.8,233.6z"/>
	</g>
	<g id="eyes-close">
		<path class="st56" d="M176.7,249.5c0,0-2.8-1.7-5.7-7c-4-7.5,1.5-25.3,20.2-35.8c18.9-10.6,22.8,4.7,28.1,6.4s7.4-15.8,20-12.6
			c10.4,2.6,6.8,17.3,6.8,17.3L176.7,249.5z"/>
		<circle class="st58" cx="237.4" cy="226.1" r="16.4"/>
		<path class="st59" d="M252.1,218.9l0.8,1.9c0,0-7.4,1.5-14.7,5.3c-5.5,2.8-10.7,7-12.8,11.3l-1.1-1.5
			C224.1,235.9,229.1,222.7,252.1,218.9z"/>
		<circle class="st58" cx="206" cy="243.1" r="25.5"/>
		<path class="st59" d="M226.5,227.8l1.7,2.5c0,0-11.7,3.2-23,9.4c-8.5,4.9-16.4,11.9-19.4,18.7l-1.5-2.3
			C184.3,256.3,190.9,235.3,226.5,227.8z"/>
		<path class="st56" d="M251.8,233.6c0,0,2.3-2.3,1.1-2.8c-5.5-2.8-41.9,15.8-46.9,25.1c-7,12.4,0,18.5,0,18.5s16.2-2.3,30.2-11.7
			C250.1,253.1,251.8,233.6,251.8,233.6z"/>
	</g>
	<g id="nose">
		<circle cx="291.9" cy="252.5" r="38.1"/>
		
			<ellipse transform="matrix(0.9763 -0.2166 0.2166 0.9763 -43.0807 67.5181)" class="st60" cx="286.5" cy="230.3" rx="17.7" ry="7.4"/>
	</g>
</g>
</svg>
