<?xml version="1.0" encoding="utf-8"?>
<!-- Generator: Adobe Illustrator 21.0.0, SVG Export Plug-In . SVG Version: 6.00 Build 0)  -->
<svg version="1.1" id="Layer_1" xmlns="http://www.w3.org/2000/svg" xmlns:xlink="http://www.w3.org/1999/xlink" x="0px" y="0px"
	 viewBox="0 0 227 151" style="enable-background:new 0 0 227 151;" xml:space="preserve">
<style type="text/css">
	.st0{fill:#FFFFFF;}
	.st1{fill:#FDFDFD;}
	.st2{fill:#FBFBFB;}
	.st3{fill:#F9F9F9;}
	.st4{fill:#F7F7F7;}
	.st5{fill:#F5F5F5;}
	.st6{fill:#F3F3F3;}
	.st7{fill:#F1F1F1;}
	.st8{fill:#EFEFEF;}
	.st9{fill:#EDEDED;}
	.st10{fill:#EBEBEB;}
	.st11{fill:#E9E9E9;}
	.st12{fill:#E7E7E7;}
	.st13{fill:#E5E5E5;}
	.st14{fill:#E3E3E3;}
	.st15{fill:#E1E1E1;}
	.st16{fill:#DFDFDF;}
	.st17{fill:#DDDDDD;}
	.st18{fill:#DBDBDB;}
	.st19{fill:#D9D9D9;}
	.st20{fill:#D7D7D7;}
	.st21{fill:#D5D5D5;}
	.st22{fill:#D3D3D3;}
	.st23{fill:#D1D1D1;}
	.st24{fill:#CFCFCF;}
	.st25{fill:#CDCDCD;}
	.st26{fill:#CBCBCB;}
	.st27{fill:#C9C9C9;}
	.st28{fill:#C7C7C7;}
	.st29{fill:#C5C5C5;}
	.st30{fill:#C3C3C3;}
	.st31{fill:#C1C1C1;}
	.st32{fill:#BFBFBF;}
	.st33{fill:#BDBDBD;}
	.st34{fill:#BBBBBB;}
	.st35{fill:#B9B9B9;}
	.st36{fill:#B7B7B7;}
	.st37{fill:#B5B5B5;}
	.st38{fill:#B3B3B3;}
	.st39{fill:#B1B1B1;}
	.st40{fill:#AFAFAF;}
	.st41{fill:#ADADAD;}
	.st42{fill:#ABABAB;}
	.st43{fill:#A9A9A9;}
	.st44{fill:#A7A7A7;}
	.st45{fill:#A5A5A5;}
	.st46{fill:#A3A3A3;}
	.st47{fill:#A1A1A1;}
	.st48{fill:#9F9F9F;}
	.st49{fill:#9D9D9D;}
	.st50{fill:#9B9B9B;}
	.st51{fill:#999999;}
	.st52{fill:#754C24;}
	.st53{fill:#B66F29;}
	.st54{fill:#333333;}
	.st55{fill:#1A1A1A;}
	.st56{fill:#D27E1A;}
	.st57{fill:#F7931E;}
	.st58{fill:#CCCCCC;}
	.st59{fill:#603813;}
	.st60{fill:#E5861F;}
</style>
<g>
	<g>
		<ellipse class="st0" cx="110.3" cy="130.4" rx="71.7" ry="12.1"/>
		<ellipse class="st1" cx="110.3" cy="130.4" rx="70.6" ry="11.9"/>
		<ellipse class="st2" cx="110.3" cy="130.4" rx="69.5" ry="11.7"/>
		<ellipse class="st3" cx="110.3" cy="130.4" rx="68.4" ry="11.6"/>
		<ellipse class="st4" cx="110.3" cy="130.4" rx="67.3" ry="11.4"/>
		<ellipse class="st5" cx="110.3" cy="130.4" rx="66.2" ry="11.2"/>
		<ellipse class="st6" cx="110.3" cy="130.4" rx="65" ry="11"/>
		<ellipse class="st7" cx="110.3" cy="130.4" rx="63.9" ry="10.8"/>
		<ellipse class="st8" cx="110.3" cy="130.4" rx="62.8" ry="10.6"/>
		<ellipse class="st9" cx="110.3" cy="130.4" rx="61.7" ry="10.4"/>
		<ellipse class="st10" cx="110.3" cy="130.4" rx="60.6" ry="10.2"/>
		<ellipse class="st11" cx="110.3" cy="130.4" rx="59.5" ry="10.1"/>
		<ellipse class="st12" cx="110.3" cy="130.4" rx="58.4" ry="9.9"/>
		<ellipse class="st13" cx="110.3" cy="130.4" rx="57.3" ry="9.7"/>
		<ellipse class="st14" cx="110.3" cy="130.4" rx="56.1" ry="9.5"/>
		<ellipse class="st15" cx="110.3" cy="130.4" rx="55" ry="9.3"/>
		<ellipse class="st16" cx="110.3" cy="130.4" rx="53.9" ry="9.1"/>
		<ellipse class="st17" cx="110.3" cy="130.4" rx="52.8" ry="8.9"/>
		<ellipse class="st18" cx="110.3" cy="130.4" rx="51.7" ry="8.7"/>
		<ellipse class="st19" cx="110.3" cy="130.4" rx="50.6" ry="8.5"/>
		<ellipse class="st20" cx="110.3" cy="130.4" rx="49.5" ry="8.4"/>
		<ellipse class="st21" cx="110.3" cy="130.4" rx="48.4" ry="8.2"/>
		<ellipse class="st22" cx="110.3" cy="130.4" rx="47.2" ry="8"/>
		<ellipse class="st23" cx="110.3" cy="130.4" rx="46.1" ry="7.8"/>
		<ellipse class="st24" cx="110.3" cy="130.4" rx="45" ry="7.6"/>
		<ellipse class="st25" cx="110.3" cy="130.4" rx="43.9" ry="7.4"/>
		<ellipse class="st26" cx="110.3" cy="130.4" rx="42.8" ry="7.2"/>
		<ellipse class="st27" cx="110.3" cy="130.4" rx="41.7" ry="7"/>
		<ellipse class="st28" cx="110.3" cy="130.4" rx="40.6" ry="6.9"/>
		<ellipse class="st29" cx="110.3" cy="130.4" rx="39.5" ry="6.7"/>
		<ellipse class="st30" cx="110.3" cy="130.4" rx="38.3" ry="6.5"/>
		<ellipse class="st31" cx="110.3" cy="130.4" rx="37.2" ry="6.3"/>
		<ellipse class="st32" cx="110.3" cy="130.4" rx="36.1" ry="6.1"/>
		<ellipse class="st33" cx="110.3" cy="130.4" rx="35" ry="5.9"/>
		<ellipse class="st34" cx="110.3" cy="130.4" rx="33.9" ry="5.7"/>
		<ellipse class="st35" cx="110.3" cy="130.4" rx="32.8" ry="5.5"/>
		<ellipse class="st36" cx="110.3" cy="130.4" rx="31.7" ry="5.4"/>
		<ellipse class="st37" cx="110.3" cy="130.4" rx="30.6" ry="5.2"/>
		<ellipse class="st38" cx="110.3" cy="130.4" rx="29.4" ry="5"/>
		<ellipse class="st39" cx="110.3" cy="130.4" rx="28.3" ry="4.8"/>
		<ellipse class="st40" cx="110.3" cy="130.4" rx="27.2" ry="4.6"/>
		<ellipse class="st41" cx="110.3" cy="130.4" rx="26.1" ry="4.4"/>
		<ellipse class="st42" cx="110.3" cy="130.4" rx="25" ry="4.2"/>
		<ellipse class="st43" cx="110.3" cy="130.4" rx="23.9" ry="4"/>
		<ellipse class="st44" cx="110.3" cy="130.4" rx="22.8" ry="3.8"/>
		<ellipse class="st45" cx="110.3" cy="130.4" rx="21.7" ry="3.7"/>
		<ellipse class="st46" cx="110.3" cy="130.4" rx="20.5" ry="3.5"/>
		<ellipse class="st47" cx="110.3" cy="130.4" rx="19.4" ry="3.3"/>
		<ellipse class="st48" cx="110.3" cy="130.4" rx="18.3" ry="3.1"/>
		<ellipse class="st49" cx="110.3" cy="130.4" rx="17.2" ry="2.9"/>
		<ellipse class="st50" cx="110.3" cy="130.4" rx="16.1" ry="2.7"/>
		<ellipse class="st51" cx="110.3" cy="130.4" rx="15" ry="2.5"/>
	</g>
	<path class="st52" d="M82.7,82.8c0,0-0.4,13-1.2,17.5c-1.1,5.5-4.5,11.2-4.7,13.1c-0.2,1.5,0.5,4,2.7,4.3c2.9,0.4,5.3-1.9,5.3-1.9
		s1.4,2.4,4.1,2.4c1.9,0,2.3-2.2,2.3-2.2s0.8,2,3.3,2c2.5,0,2.8-2,2.8-2s1.1,1.4,2.9,0.4c1.8-1,1.9-4.7,0.2-7.8
		c-1.7-3.1-4.8-4.7-7.9-4c-3.5,0.8-5.3,5.8-8,5.3c-1.2-0.2,1.9-7.4,2.4-11.8c0.6-5.3-1-14.8-1-14.8L82.7,82.8z"/>
	<path class="st52" d="M112.8,88.1c0,0,4.3,9.9,3.7,14.6c-0.6,4.7-2.1,8.7-3.1,10.5c-0.7,1.4-0.9,3.6,0.6,3.7c3,0.3,5.1-0.4,5.1-0.4
		s1.5,2.5,4.4,2.5c2,0,2.4-2.4,2.4-2.4s0.8,2.1,3.5,2.2c2.6,0,3-2.1,3-2.1s1.1,1.5,3.1,0.4c1.9-1,2.6-3.8,0.8-7.1
		c-1.8-3.3-4.8-5.5-8.1-4.8c-3.7,0.9-5.8,5.5-8.6,5.1c-1.3-0.2,0-6.5,0-9.2c0-2.7-2.9-13.1-2.9-13.1H112.8z"/>
	<path class="st53" d="M71.2,89.8c0,0-0.4,15.4-1.5,20.7c-1.3,6.5-5.3,13.3-5.6,15.4c-0.2,1.8,0.5,4.7,3.2,5
		c3.4,0.4,6.2-2.2,6.2-2.2s1.6,2.9,4.9,2.9c2.2,0,2.7-2.6,2.7-2.6s0.9,2.4,3.9,2.4c2.9,0,3.3-2.3,3.3-2.3s1.3,1.7,3.5,0.5
		c2.1-1.2,2.3-5.5,0.3-9.2c-2-3.7-5.7-5.6-9.3-4.7c-4.2,1-6.3,6.8-9.5,6.3c-1.4-0.2,2.3-8.7,2.8-13.9c0.7-6.2-1.1-17.5-1.1-17.5
		L71.2,89.8z"/>
	<path class="st52" d="M85.2,119.9c0,0,3,2.3,3.7,5.1c0.6,2.4,0,4.4,0,4.4l-0.4-0.4c0,0,0.5-2.8-0.3-4.7
		C87.3,122.5,85.2,119.9,85.2,119.9z"/>
	<path d="M157.3,36.8c0,0,24.4-14.1,29.2-12.7c4.9,1.3,17.8,16.6,14.5,21.1c-3.3,4.5-8.5,4.7-10.9,3c-2.4-1.7-4.6-15.9-6.3-17.4
		c-1.7-1.5-25.6,9.2-25.6,9.2L157.3,36.8z"/>
	<path class="st54" d="M182.8,57c0,0,22.5-1.4,24.5,0.9c2,2.3,4.4,30-0.1,33.5c-4.1,3.2-10.5,0.8-11.9-5.2
		c-1.1-4.9,7.3-19.9,7.1-22.6c-0.2-2.7-18.7-4.4-18.7-4.4L182.8,57z"/>
	<path class="st52" d="M81.6,129.6c0,0,0.2-2.7-0.3-4c-0.5-1.4-2.3-2.6-2.3-2.6s1.4,1.7,1.7,3c0.3,1.2,0.5,3,0.5,3L81.6,129.6z"/>
	<path class="st52" d="M74.2,125c0,0,0.3,1.3,0.2,2.4c0,0.8-0.3,2-0.3,2l-0.5-0.7c0,0,0.3-0.8,0.4-1.5C74.1,126.6,74.2,125,74.2,125
		z"/>
	<path class="st53" d="M106.5,94.9c0,0,5.8,12.2,5,17.8c-0.7,5.6-4.4,9.8-5.6,12c-0.9,1.7-0.4,4.1,0.8,4.8c3.1,1.9,7.4-0.9,7.4-0.9
		s1.7,3,5.2,3c2.3,0,2.9-2.8,2.9-2.8s1,2.5,4.1,2.6c3.1,0,3.5-2.5,3.5-2.5s1.3,1.8,3.7,0.5c2.2-1.2,3-4.5,0.9-8.4
		c-2.1-3.9-5.7-6.6-9.5-5.7c-4.4,1-7.6,6.5-11,6c-1.5-0.2,3.6-8.6,3.6-11.8c0-3.2-6.2-14.6-6.2-14.6H106.5z"/>
	<path class="st52" d="M127.4,120.3c0,0,2.1,1.4,2.8,4.4c0.6,2.5,0,4.6,0,4.6l-0.4-0.4c0,0,0.5-3-0.3-5
		C128.6,122,127.4,120.3,127.4,120.3z"/>
	<path class="st52" d="M122.6,129.5c0,0,0.2-2.8-0.3-4.3c-0.5-1.4-1.7-2.7-1.7-2.7s0.8,1.8,1.1,3.1c0.4,1.3,0.5,3.2,0.5,3.2
		L122.6,129.5z"/>
	<path class="st52" d="M114.7,124.7c0,0,0.3,1.3,0.2,2.5c0,0.8-0.3,2.1-0.3,2.1l-0.5-0.7c0,0,0.3-0.9,0.4-1.6
		C114.6,126.3,114.7,124.7,114.7,124.7z"/>
	<path class="st55" d="M65.7,30.8c0,0-12.9,2.3-29.9-0.5C21.8,28.1,8.4,20.2,6.7,22.1C5,24.1,9.3,40.6,24,46.3
		c9.8,3.8,19-7.5,20.4-6.6c1.4,0.9-3.6,7-8.4,10.3c-1.8,1.3,6.9,2.7,11.9-2.9c3-3.4,4.8-8.6,5.9-8.6c1.1,0-3.5,11.4-1.7,11.7
		c1.7,0.3,4.4-1.4,8.4-6.7c4.5-6,5.1-10.5,5.1-10.5L65.7,30.8z"/>
	<path class="st56" d="M183.7,59.3c0,0,6.5,3.3,7.6,8c1.1,4.7-1.1,6.4-2.4,6.6c-1.2,0.2-3.5-0.9-3.5-0.9l-7-7.3L183.7,59.3z"/>
	<path class="st57" d="M182,96l-5.8-15l6-18.3c0,0,2.8,0.1,3.6-4.7c0.7-4.8-5.4-10.6-10.4-11.4c-4.9-0.9-15.8-0.9-15.8-0.9
		s2.5-7.1-0.8-14.5c-3.3-7.4-15.7-18-16.7-16.8c-1,1.2,7.3,19.5,6.5,20.1c-0.8,0.6-5.9-8.2-9.9-11.5c-4.1-3.3-12.7-8.4-13.2-7.2
		c-0.6,1.2,10.1,16.7,10.1,16.7s-6.4-5.2-10.3-7.1c-4-1.9-10.4-3.8-10.7-2.8c-0.3,0.9,7.7,10.6,7.1,10.8c-0.6,0.2-54.7-4.1-55.9-2.5
		c-1.1,1.5-5.7,30.5-3.1,43.3c1.9,9.2,8.1,21.2,27.5,24.1c19.4,2.9,19.8-0.1,26-1.1c4.4-0.7,9.9,2.9,9.9,2.9s5.6,6.2,17.7,11.1
		c11.8,4.8,21.8,6,21.8,6L182,96z"/>
	
		<ellipse transform="matrix(0.1195 -0.9928 0.9928 0.1195 86.4802 238.6653)" class="st58" cx="177.8" cy="70.6" rx="9.8" ry="9.8"/>
	<ellipse transform="matrix(0.1196 -0.9928 0.9928 0.1196 84.8596 248.3499)" cx="182.5" cy="76.3" rx="2" ry="2"/>
	
		<ellipse transform="matrix(0.1196 -0.9928 0.9928 0.1196 84.7598 222.5434)" class="st0" cx="167.9" cy="63.5" rx="12.2" ry="12.2"/>
	<ellipse transform="matrix(0.1196 -0.9928 0.9928 0.1196 84.0984 234.3691)" cx="174.2" cy="69.8" rx="2.3" ry="2.3"/>
	<path class="st57" d="M150.9,67c0,0,3.5-1.2,7.8,0c6,1.7,20.4,10.1,20.7,13.2c0.2,2.1-2.5,1.8-3,1.7c-0.4-0.1-5.4-0.8-13.6-5
		C154.6,72.6,150.9,67,150.9,67z"/>
	<path d="M126.1,99.9c0,0-4.7-9.9-3-19.6c1.7-9.6,9.6-18.4,9.6-18.4s-7.9,6.8-10.3,16.9c-2.3,9.7,2.1,20.2,2.1,20.2L126.1,99.9z"/>
	<ellipse transform="matrix(0.1195 -0.9928 0.9928 0.1195 45.1414 271.7818)" cx="175.8" cy="110.4" rx="20" ry="18.9"/>
	<ellipse transform="matrix(0.57 -0.8216 0.8216 0.57 -6.1292 191.8378)" class="st54" cx="180.2" cy="101.8" rx="4.4" ry="8.7"/>
	<g>
		<ellipse transform="matrix(0.1195 -0.9928 0.9928 0.1195 86.9979 238.2738)" class="st56" cx="177.8" cy="70.1" rx="10" ry="10"/>
		<path class="st59" d="M185.4,76.6c0,0-0.8,0.8-1.5,1.4c0,0-6.3-10.9-20.7-13.4l1.4-1.6C164.6,63.1,180.7,66.2,185.4,76.6z"/>
		
			<ellipse transform="matrix(0.1196 -0.9928 0.9928 0.1196 85.2376 221.7686)" class="st60" cx="167.7" cy="62.8" rx="12.5" ry="12.5"/>
		<path class="st57" d="M150.3,66.4c0,0,3.5-1.2,8,0c6.2,1.7,20.9,10.4,21.2,13.6c0.2,2.1-2.6,1.8-3,1.7c-0.4-0.1-5.5-0.8-13.9-5.2
			C154.1,72.2,150.3,66.4,150.3,66.4z"/>
		<path class="st59" d="M178,69.8c0,0-0.5,1-1.2,1.5c0,0-3.8-8.5-21.4-10.9l0.5-1.8C156,58.6,174.1,59.6,178,69.8z"/>
	</g>
</g>
</svg>
