<?xml version="1.0" encoding="utf-8"?>
<!-- Generator: Adobe Illustrator 21.0.0, SVG Export Plug-In . SVG Version: 6.00 Build 0)  -->
<svg version="1.1" id="dog-WrongPass" xmlns="http://www.w3.org/2000/svg" xmlns:xlink="http://www.w3.org/1999/xlink" x="0px"
	 y="0px" viewBox="0 0 525.3 562.2" style="enable-background:new 0 0 525.3 562.2;" xml:space="preserve">
<g id="balloon">
	<path style="fill:#A7A8AC;" d="M13.8,37.9C20.9,14.7,24.2,3.4,41.1,2.1C67.1-0.1,244,38.5,262,44c14.2,4.3,23.6,14,28.5,33.1
		c4.1,15.8,16.4,64.7,17.2,76.4c1,15.2,13.6,46.8-9.9,52c-8.8,1.8-33.1,4.5-37.8,4.7c-25.3,1.2-30,1.4-24.2,9
		c7.8,10.3,42.9,27.1,34.9,27.7c-25.5,2.1-53.8-2.7-71.9-8.6c-12.5-4.1-24.8-11.1-32.7-20.1c-19.5,1.8-132.7-2.5-138-2.7
		c-17.9-0.8-26.5-12.1-28.1-28.3C-1.6,168.7,9.4,52,13.8,37.9z"/>
	<path style="fill:#FFFFFF;" d="M12.1,36.2c7-22.8,11.5-34.9,28.1-36.1C65.9-2,240.7,36.6,258.1,42c13.8,4.3,23.2,13.8,28.1,32.7
		c4.1,15.6,16,63.7,16.8,75.2c1,15,13.6,46-9.4,51.3c-5.5,1.2-25.7,4.1-36.3,4.7c-24.8,1.2-29.4,1.4-23.6,8.8
		c7.8,10.3,42.3,26.9,34.3,27.3c-23,1-54.4-3.3-71.9-9.7c-12.5-4.5-23.2-9.9-30.8-18.9c-19.1,1.8-132-2.5-137.4-2.7
		C10.5,210.2,3.7,198,1.8,182C-0.4,162.3,8,50.2,12.1,36.2z"/>
	<path style="fill:#FFFFFF;stroke:#B8D432;stroke-width:1.5;stroke-miterlimit:10;" d="M19.5,40.9C26.1,19.4,29.8,7.7,45.4,6.4
		c24-2.1,191.2,36.8,207.4,41.7c12.9,3.9,21.8,12.9,26.3,30.8c3.9,14.8,15,58.9,15.8,69.8c1,14.2,13.6,43.5-7.8,48.7
		c-5.7,1.4-22,3.7-48.1,5.3c-23.2,1.4-21.6,2.3-16.2,9.2c7.2,9.7,38.2,25.5,28.3,24.4c-17.2-1.8-34.9-4.5-53-11.3
		c-10.1-3.7-21.8-9.4-29-18.1c-18.1,1.8-130-2.7-135.1-2.9c-16.4-0.6-22.8-10.7-24.4-25.7C8,160.3,15.6,54.1,19.5,40.9z"/>
</g>
<g id="text">
	<path d="M48.9,87.4l0.2-5.3c0-1.4,0-2.7-0.2-3.9c-1.2-1.6-2.1-3.5-2.9-4.9s-1.2-2.7-1.4-2.9c-0.2-0.4-0.4-1-0.8-1.6
		c-0.4-0.8-0.6-1.2-0.8-1.4s-0.2-0.4-0.2-0.8s0.2-0.6,0.4-1c0.4-0.4,0.6-0.6,1-0.6s0.8,0.4,1.2,1c0.4,0.8,1,1.8,1.8,3.1
		c0.6,1.4,1,2.1,1.2,2.3c0,0.2,0.4,0.8,1,1.8s0.8,1.6,1,2.1l1.8-3.3c1.4-2.5,2.9-4.7,4.5-6.6c0.4-0.4,0.8-0.6,1.2-0.6
		s0.6,0.2,0.8,0.4s0.4,0.4,0.4,0.8c0,0.2,0,0.6-0.2,0.8c-1.2,1.4-2.3,3.1-3.3,4.7S54.4,74,54,74.4c-0.2,0.4-0.6,1.2-1.2,2.3
		c-0.6,1-0.8,1.6-1,2.1l-0.2,8.4c0,1,0,2.1,0.2,3.1c0,0.4-0.2,0.8-0.6,1.2c-0.4,0.4-0.6,0.6-1,0.6c-0.2,0-0.4,0-0.6-0.2
		s-0.2-0.2-0.4-0.6c0-0.2-0.2-0.4-0.2-0.6s0-0.4,0-0.8s0-0.6,0-0.8c0-0.2,0-0.4,0-0.8C48.9,87.8,48.9,87.6,48.9,87.4z"/>
	<path d="M65.5,73.8c1-0.6,2.1-0.8,3.5-0.8c1.2,0,2.5,0.6,3.5,1.6c1.8,2.1,2.9,4.7,2.9,8.4c0,1.8-0.6,3.9-1.6,5.7
		c-0.6,1-1.2,1.8-2.1,2.5s-1.8,1-2.9,1s-2.3-0.4-3.3-1s-1.8-1.4-2.7-2.5c-1.4-2.1-2.1-4.1-2.1-5.7c0-2.5,0.8-4.7,2.3-6.8
		C63.7,75,64.5,74.4,65.5,73.8z M69.6,89.2c0.8-0.4,1.4-1,1.8-2.1s0.6-1.8,0.6-2.9s0-1.8-0.2-2.7c-0.2-0.8-0.4-1.6-0.6-2.3
		c-0.2-0.8-0.6-1.4-1.2-1.8c-0.6-0.6-1.2-0.8-1.8-1c-1.2,0.2-2.3,0.8-3.1,2.1S63.9,81,63.9,82c0,1.2,0.4,2.7,1.4,4.3
		c0.4,0.8,1,1.4,1.8,2.1S68.8,89.2,69.6,89.2z"/>
	<path d="M88.1,89.2c-1.8,2.1-3.9,3.1-5.7,2.9c-0.8,0-1.6-0.4-2.5-1c-0.6-0.6-1.2-1.6-1.6-2.9c-0.6-2.3-1-4.3-1-6.6
		c0-2.1,0.2-4.5,0.4-7.2c0.2-0.4,0.4-0.8,0.6-1.2c0.4-0.2,0.6-0.4,1-0.4c0.8,0,1.2,0.4,1.4,1.2c-0.2,1.8-0.2,3.7-0.2,5.3
		c0,1.8,0,3.1,0,3.7c0,2.1,0.8,3.9,1.8,6c1-0.2,2.1-0.8,3.1-1.4c1-0.8,1.6-1.6,2.1-2.5c-0.4-3.9-0.4-7.4-0.4-10.1
		c0-0.6,0.2-1,0.6-1.4s0.8-0.6,1.2-0.6s1,0.4,1.2,1c0,1.2,0,4.5,0.2,9.4c0,0.6,0.2,2.1,0.4,3.9s0.4,3.1,0.4,3.5s-0.2,0.8-0.6,1.2
		c0,0.4-0.4,0.6-1,0.6s-0.8-0.4-1-1L88.1,89.2z"/>
	<path d="M95.7,87.1v-1.2c0-1.6-0.2-3.5-0.4-5.5c-0.2-2.1-0.6-3.5-0.8-4.5s-0.2-1.6-0.2-1.8s0.2-0.6,0.6-0.8
		c0.4-0.2,0.8-0.4,1.2-0.4s0.8,0.2,1,0.6s0.4,0.8,0.4,1c0,0.4,0.2,0.8,0.2,1.4s0,1,0.2,1.2c0.6-1.6,1.8-2.9,3.5-3.5
		c0.8-0.4,1.8-0.6,2.9-0.6c2.3,0,3.3,0.6,3.3,1.6c0,0.6-0.4,1.2-1,1.6c-0.2,0.2-0.6,0.2-0.8,0.2l-1.2-0.2c-3.5,0-5.1,3.5-5.1,10.3
		v3.7l0,0c-0.2,0.4-0.4,1-0.8,1.2s-0.8,0.6-1.2,0.6c-0.6,0-1-0.4-1.2-1.4C95.9,89.8,95.7,88.6,95.7,87.1z"/>
	<path d="M129.4,89.4c-1.8,2.1-3.9,3.1-5.7,2.9c-0.8,0-1.6-0.4-2.5-1c-0.6-0.6-1.2-1.6-1.6-2.9c-0.6-2.3-1-4.3-1-6.6
		s0.2-4.5,0.4-7.2c0.2-0.4,0.4-0.8,0.6-1.2c0.4-0.2,0.6-0.4,1-0.4c0.8,0,1.2,0.4,1.4,1.2c-0.2,1.8-0.2,3.7-0.2,5.3
		c0,1.8,0,3.1,0,3.7c0,2.1,0.8,3.9,1.8,6c1-0.2,2.1-0.8,3.1-1.4c1-0.8,1.6-1.6,2.1-2.5c-0.4-3.9-0.4-7.4-0.4-10.1
		c0-0.6,0.2-1,0.6-1.4c0.4-0.4,0.8-0.6,1.2-0.6s1,0.4,1.2,1c0,1.2,0,4.5,0.2,9.4c0,0.6,0.2,2.1,0.4,3.9c0.2,1.8,0.4,3.1,0.4,3.5
		s-0.2,0.8-0.6,1.2c-0.4,0.4-0.8,0.6-1.4,0.6c-0.4,0-0.8-0.4-1-1V89.4z"/>
	<path d="M141.9,73c1,0,2.1,0.2,3.1,0.4c2.1,0.6,2.9,1.4,2.9,2.5c0,0.4-0.2,0.8-0.6,1c-0.4,0.2-0.8,0.4-1.4,0.4
		c-0.2,0-0.6-0.2-1.8-0.8c-1-0.4-2.1-0.8-2.7-0.8c-0.6,0-1.2,0.2-1.8,0.6c-0.6,0.4-0.8,0.8-0.8,1.4s0.2,1.2,0.4,1.6
		c0.2,0.4,0.8,0.8,1.2,1c0.6,0.2,1.2,0.4,1.8,0.4c1.8,0.4,3.1,0.6,3.7,1c1.2,0.6,1.8,1.6,1.8,3.5c0,1.6-0.6,3.3-2.1,4.5
		c-1.4,1.2-2.7,1.8-4.1,1.8c-1.4,0-2.7-0.2-3.5-0.4c-1.6-0.6-2.5-1.4-2.5-2.5s0.6-1.4,1.6-1.4c0.6,0,1.2,0.2,2.3,0.8
		c1,0.4,1.8,0.8,2.5,0.8c0.6,0,1.2-0.4,1.8-1.2c0.6-0.8,0.8-1.6,0.8-2.3c0-0.2,0-0.4,0-0.6c-0.8-0.6-2.3-1.2-4.3-1.6
		c-0.8-0.2-1.4-0.4-2.3-0.6c-1.6-0.6-2.5-2.1-2.5-4.3c0-1.6,0.6-2.9,1.8-3.9C138.8,73.6,140.3,73,141.9,73z"/>
	<path d="M162,74.6c1.4,0.8,2.1,1.8,2.1,3.1s-0.6,2.5-1.8,3.7s-2.7,1.8-4.5,2.3c-0.2,0-0.2,0-0.4,0c0,0-0.2,0-0.4,0
		c-0.2,0-0.2,0-0.4,0c0,0-0.2,0-0.4,0c-0.2,0-0.2,0-0.4,0c0,0-0.2,0-0.4,0c-0.2,0-0.4,0-0.4,0c0.2,2.1,0.6,3.5,1.2,4.3
		c0.8,0.6,1.4,1,2.1,1c1.4,0,2.7-0.6,3.7-1.6c1.2-1.2,2.1-1.6,2.5-1.6c0.2,0,0.4,0.2,1,0.6c0.4,0.4,0.6,0.8,0.6,1.2
		c0,0.4-0.2,0.8-0.8,1.4c-0.4,0.6-1,1-1.8,1.6s-1.6,1-2.7,1.4c-1,0.4-2.1,0.6-3.1,0.6c-1,0-1.6-0.2-2.5-0.6
		c-1.2-0.8-2.3-2.1-2.9-4.1c-0.6-1.8-1-3.9-1-6s0.4-3.9,1.4-5.7c1-1.8,2.7-2.9,5.1-2.9C159.4,73.4,160.6,73.8,162,74.6z M160.4,77.9
		c0-1.2-0.8-1.6-2.3-1.6c-1,0-1.8,0.6-2.7,1.8c-0.2,0.4-0.4,0.8-0.6,1.2c0,0.4-0.2,1-0.2,1.4C158.5,80.8,160.4,79.8,160.4,77.9z"/>
	<path d="M169,87.4v-1.2c0-1.6-0.2-3.5-0.4-5.5c-0.2-2.1-0.6-3.5-0.8-4.5c-0.2-1-0.4-1.6-0.4-1.8c0-0.2,0.2-0.6,0.6-0.8
		c0.4-0.2,0.8-0.4,1.2-0.4s0.8,0.2,1,0.6c0.2,0.4,0.4,0.8,0.4,1c0,0.4,0.2,0.8,0.2,1.4s0,1,0.2,1.2c0.6-1.6,1.8-2.9,3.5-3.5
		c0.8-0.4,1.8-0.6,2.9-0.6c2.3,0,3.3,0.6,3.3,1.6c0,0.6-0.4,1.2-1,1.6c-0.2,0.2-0.6,0.2-0.8,0.2l-1.2-0.2c-3.5,0-5.1,3.5-5.1,10.3
		v3.7l0,0c-0.2,0.4-0.4,1-0.8,1.2s-0.8,1-1.2,1c-0.6,0-1-0.4-1.2-1.4C169,90.2,169,89,169,87.4z"/>
	<path d="M194.7,91.3v-2.1c0-0.4,0-0.8,0-1.2s0-1.2,0-1.8s0-1.4,0-2.1s-0.2-1.4-0.2-2.1c-0.2-1.2-0.4-2.3-1-3.1
		c-0.6-0.8-1-1.2-1.8-1.2c-0.6,0-1.2,0.2-1.8,0.4c-0.4,0.2-0.8,0.6-1,1.2c-0.6,1-1,2.3-1,3.5c-0.2,1.2-0.2,2.5-0.2,3.9l-0.2,4.5
		c0,0.6-0.2,1-0.6,1.2c-0.4,0.4-0.8,0.4-1.4,0.4c-0.6,0-1-0.4-1-1.2c0-2.3,0-5.1-0.2-8.4c-0.2-3.3-0.2-6.2-0.2-8.2
		c0.2-0.4,0.4-0.8,0.6-1.2c0.2-0.4,0.6-0.6,0.8-0.6c0.2,0,0.6,0,0.6,0c0.2,0,0.2,0.2,0.4,0.2c0,0.2,0.2,0.2,0.2,0.4
		c0,0,0.2,0.2,0.2,0.4s0,0.4,0,0.6s0,0.4,0,0.8s0,0.6,0,0.8c1.4-1.8,3.3-2.9,5.5-2.9c1.4,0,2.7,0.6,3.3,2.1c1,2.1,1.6,5.3,1.6,9.4
		V89c0,1,0,1.6-0.2,2.1c-0.2,0.4-0.2,0.6-0.4,0.8c-0.2,0.6-0.8,0.8-1.4,0.8C195.1,92.5,194.7,92.1,194.7,91.3z"/>
	<path d="M215.6,77.3v2.9c0,1-0.2,2.5-0.2,4.1c0.2,2.9,0.4,5.5,0.8,7.8c0,0.2-0.2,0.6-0.6,0.6c-0.4,0.2-0.8,0.2-1.2,0.2
		s-0.8,0-1-0.2c-0.2-0.2-0.4-0.2-0.4-0.6c0-0.2-0.2-0.4-0.2-0.6s0-0.4,0-0.6s0-0.4,0-0.4c-1.2,1.4-2.9,2.1-4.9,2.1s-3.5-0.8-4.3-2.5
		s-1.2-3.7-1.2-6.6c0-4.9,1.4-8,4.3-9.4c0.8-0.4,1.8-0.6,2.9-0.6c1,0,2.3,0.2,3.3,0.6c0.4-0.4,0.8-0.8,1.4-0.8
		c1.2,0,1.6,0.8,1.6,2.7C215.6,76.5,215.6,76.9,215.6,77.3z M211.5,86.9c0.6-1.4,0.8-3.1,0.8-4.9c0-1.6-0.2-3.1-0.6-3.9
		c-0.4-0.8-1-1.2-2.1-1.2c-0.4,0-1,0-1.6,0.2c-0.6,0-1.4,0.6-1.8,1.8s-0.8,2.1-0.8,2.9v1.6c0,2.9,0.6,4.7,1.6,5.5
		c0.4,0.2,0.8,0.4,1.4,0.4s1.2-0.2,1.8-0.8C210.7,88.4,211.3,87.8,211.5,86.9z"/>
	<path d="M230.4,85.3V83c0-1.8,0-2.9-0.2-3.5c-0.2-0.6-0.4-1-0.6-1.4c-0.4-0.8-1.2-1.2-2.5-1.2s-2.1,0.4-2.5,1.2S224,80,224,81.6
		l0.2,7.6c0,2.3-0.6,3.5-1.8,3.5c-0.6,0-1-0.4-1.2-1.2c0-5.5-0.2-10.5-0.8-14.8c0-0.6,0.2-1,0.6-1.4s0.8-0.6,1.4-0.6
		c0.4,0,0.8,0.2,1,0.8c1-1.4,2.3-2.1,4.1-2.1c2.1,0,3.7,1,4.9,3.1c1.4-2.1,3.1-2.9,5.5-2.9c1,0,2.1,0.2,2.9,0.8
		c0.8,0.4,1.6,1.2,2.1,2.1c1.2,2.1,2.1,5.5,2.1,10.5v1.8c0,1.6-0.2,2.9-0.4,3.3c-0.2,0.2-0.2,0.4-0.4,0.6c-0.2,0.2-0.6,0.4-1.2,0.4
		c-0.6,0-1-0.4-1-1.4l0.2-5.1c0-3.5-0.4-5.7-1-6.8c-0.4-0.6-1-1.2-1.6-1.6c-0.6-0.4-1.4-0.6-2.1-0.6c-0.6,0-1.2,0.2-1.4,0.4
		c-0.4,0.2-0.6,0.6-0.8,1.2c-0.4,1-0.6,3.3-0.6,6.6v6h-0.2c-0.2,0.4-0.4,0.8-0.8,1c-0.4,0.2-0.8,0.4-1.2,0.4c-0.6,0-1-0.4-1-1.2H231
		L230.4,85.3z"/>
	<path d="M258.5,75c1.4,0.8,2.1,1.8,2.1,3.1s-0.6,2.5-1.8,3.7c-1.2,1.2-2.7,1.8-4.5,2.3c-0.2,0-0.2,0-0.4,0c0,0-0.2,0-0.4,0
		c-0.2,0-0.2,0-0.4,0c0,0-0.2,0-0.4,0c-0.2,0-0.2,0-0.4,0c0,0-0.2,0-0.4,0c-0.2,0-0.4,0-0.4,0c0.2,2.1,0.6,3.5,1.2,4.3
		c0.8,0.6,1.4,1,2.1,1c1.4,0,2.7-0.6,3.7-1.6c1.2-1.2,2.1-1.6,2.5-1.6c0.2,0,0.4,0.2,1,0.6c0.4,0.4,0.6,0.8,0.6,1.2
		c0,0.4-0.2,0.8-0.8,1.4c-0.4,0.6-1,1-1.8,1.6s-1.6,1-2.7,1.4s-2.1,0.6-3.1,0.6c-1,0-1.6-0.2-2.5-0.6c-1.2-0.8-2.3-2.1-2.9-4.1
		c-0.6-1.8-1-3.9-1-6s0.4-3.9,1.4-5.7c1-1.8,2.7-2.9,5.1-2.9C255.9,73.8,257.3,74.2,258.5,75z M257.1,78.3c0-1.2-0.8-1.6-2.3-1.6
		c-1,0-1.8,0.6-2.7,1.8c-0.2,0.4-0.4,0.8-0.6,1.2c0,0.4-0.2,1-0.2,1.4C255,81.2,257.1,80.2,257.1,78.3z"/>
	<path d="M69,116.9c1-0.6,2.1-0.8,3.5-0.8c1.2,0,2.5,0.6,3.5,1.6c1.8,2.1,2.9,4.7,2.9,8.4c0,1.8-0.6,3.9-1.6,5.7
		c-0.6,1-1.2,1.8-2.1,2.5c-0.8,0.6-1.8,1-2.9,1s-2.3-0.4-3.3-1c-1-0.6-1.8-1.4-2.7-2.5c-1.4-2.1-2.1-4.1-2.1-5.7
		c0-2.5,0.8-4.7,2.3-6.8C67.1,118.2,68,117.5,69,116.9z M73.1,132.3c0.8-0.4,1.4-1,1.8-2.1c0.4-1,0.6-1.8,0.6-2.9s0-1.8-0.2-2.7
		s-0.4-1.6-0.6-2.3c-0.2-0.8-0.6-1.4-1.2-1.8c-0.6-0.6-1.2-0.8-1.8-1c-1.2,0.2-2.3,0.8-3.1,2.1s-1.2,2.5-1.2,3.5
		c0,1.2,0.4,2.7,1.4,4.3c0.4,0.8,1,1.4,1.8,2.1C71.5,131.9,72.3,132.3,73.1,132.3z"/>
	<path d="M83,130.1v-1.2c0-1.6-0.2-3.5-0.4-5.5c-0.2-2.1-0.6-3.5-0.8-4.5c-0.2-1-0.4-1.6-0.4-1.8c0-0.2,0.2-0.6,0.6-0.8
		c0.4-0.2,0.8-0.4,1.2-0.4s0.8,0.2,1,0.6s0.4,0.8,0.4,1c0,0.4,0.2,0.8,0.2,1.4s0,1,0.2,1.2c0.6-1.6,1.8-2.9,3.5-3.5
		c0.8-0.4,1.8-0.6,2.9-0.6c2.3,0,3.3,0.6,3.3,1.6c0,0.6-0.4,1.2-1,1.6c-0.2,0.2-0.6,0.2-0.8,0.2l-1.2-0.2c-3.5,0-5.1,3.5-5.1,10.3
		v3.7l0,0c-0.2,0.4-0.4,1-0.8,1.2c-0.4,0.2-0.8,0.6-1.2,0.6c-0.6,0-1-0.4-1.2-1.4C83.2,132.9,83,131.7,83,130.1z"/>
	<path d="M109.5,134v12.3c-0.2,0.6-0.4,1-0.8,1.4s-0.8,0.6-1.2,0.6c-0.6,0-1-0.4-1-1.4l0.2-14.2v-14.6c0.2-0.6,0.2-1.2,0.4-1.4
		c0.2-0.4,0.6-0.4,1-0.4s0.8,0.2,1,0.4c0.2,0.2,0.4,0.8,0.6,1.8c0.2-0.4,0.6-1,1.2-1.4s1.8-0.8,3.1-0.8c1.4,0,2.7,0.2,3.7,0.8
		c1,0.6,1.8,1.4,2.5,2.3c1,1.8,1.6,4.3,1.6,7c0,2.7-0.8,4.9-2.5,6.6c-1.6,1.6-3.7,2.5-6.6,2.5c-1,0-1.8-0.4-2.5-1
		C109.7,134,109.5,134,109.5,134z M113.1,119.4c-1,0.2-1.8,0.6-2.7,1.4c-0.6,0.8-1,1.4-1,2.3v7.6c0,0,0.2,0.2,0.6,0.4
		c0.8,0.6,1.6,1,2.5,1c3.7,0,5.5-1.8,5.5-5.7c0-3.3-0.8-5.3-2.5-6.4C115,119.6,114.2,119.4,113.1,119.4z"/>
	<path d="M138,120v2.9c0,1-0.2,2.5-0.2,4.1c0.2,2.9,0.4,5.5,0.8,7.8c0,0.2-0.2,0.6-0.6,0.6c-0.4,0.4-0.8,0.4-1.2,0.4s-0.8,0-1-0.2
		c-0.2-0.2-0.4-0.2-0.4-0.6c0-0.2-0.2-0.4-0.2-0.6c0-0.2,0-0.4,0-0.6s0-0.4,0-0.4c-1.2,1.4-2.9,2.1-4.9,2.1s-3.5-0.8-4.3-2.5
		c-0.8-1.6-1.2-3.7-1.2-6.6c0-4.9,1.4-8,4.3-9.4c0.8-0.4,1.8-0.6,2.9-0.6c1,0,2.3,0.2,3.3,0.6c0.4-0.4,0.8-0.8,1.4-0.8
		c1.2,0,1.6,0.8,1.6,2.7C138,119.4,138,119.8,138,120z M133.9,129.9c0.6-1.4,0.8-3.1,0.8-4.9c0-1.6-0.2-3.1-0.6-3.9
		c-0.4-0.8-1-1.2-2.1-1.2c-0.4,0-1,0-1.6,0.2c-0.6,0-1.4,0.6-1.8,1.8c-0.6,1.2-0.8,2.1-0.8,2.9v1.6c0,2.9,0.6,4.7,1.6,5.5
		c0.4,0.2,0.8,0.4,1.4,0.4s1.2-0.2,1.8-0.8C133.3,130.9,133.7,130.5,133.9,129.9z"/>
	<path d="M149.1,116.3c1,0,2.1,0.2,3.1,0.4c2.1,0.6,2.9,1.4,2.9,2.5c0,0.4-0.2,0.8-0.6,1c-0.4,0.2-0.8,0.4-1.4,0.4
		c-0.2,0-0.6-0.2-1.8-0.8c-1-0.4-2.1-0.8-2.7-0.8c-0.6,0-1.2,0.2-1.8,0.6c-0.6,0.4-0.8,0.8-0.8,1.4s0.2,1.2,0.4,1.6
		c0.2,0.4,0.8,0.8,1.2,1c0.6,0.2,1.2,0.4,1.8,0.4c1.8,0.4,3.1,0.6,3.7,1c1.2,0.6,1.8,1.6,1.8,3.5c0,1.6-0.6,3.3-2.1,4.5
		c-1.2,1.2-2.7,1.8-4.1,1.8c-1.4,0-2.7-0.2-3.5-0.4c-1.6-0.6-2.5-1.4-2.5-2.5c0-1,0.6-1.4,1.6-1.4c0.6,0,1.2,0.2,2.3,0.8
		c1,0.6,1.8,0.8,2.5,0.8s1.2-0.4,1.8-1.2c0.6-0.8,0.8-1.6,0.8-2.3c0-0.2,0-0.4,0-0.6c-0.8-0.6-2.3-1.2-4.3-1.6
		c-0.8-0.2-1.4-0.4-2.3-0.6c-1.6-0.6-2.5-2.1-2.5-4.3c0-1.6,0.6-2.9,1.8-3.9C145.8,116.7,147.2,116.3,149.1,116.3z"/>
	<path d="M164.7,116.3c1,0,2.1,0.2,3.1,0.4c2.1,0.6,2.9,1.4,2.9,2.5c0,0.4-0.2,0.8-0.6,1c-0.4,0.2-0.8,0.4-1.4,0.4
		c-0.2,0-0.6-0.2-1.8-0.8c-1-0.4-2.1-0.8-2.7-0.8c-0.6,0-1.2,0.2-1.8,0.6c-0.6,0.4-0.8,0.8-0.8,1.4s0.2,1.2,0.4,1.6
		c0.2,0.4,0.8,0.8,1.2,1c0.6,0.2,1.2,0.4,1.8,0.4c1.8,0.4,3.1,0.6,3.7,1c1.2,0.6,1.8,1.6,1.8,3.5c0,1.6-0.6,3.3-2.1,4.5
		c-1.2,1.2-2.7,1.8-4.1,1.8c-1.4,0-2.7-0.2-3.5-0.4c-1.6-0.6-2.5-1.4-2.5-2.5c0-1,0.6-1.4,1.6-1.4c0.6,0,1.2,0.2,2.3,0.8
		c1,0.6,1.8,0.8,2.5,0.8s1.2-0.4,1.8-1.2c0.6-0.8,0.8-1.6,0.8-2.3c0-0.2,0-0.4,0-0.6c-0.8-0.6-2.3-1.2-4.3-1.6
		c-0.8-0.2-1.4-0.4-2.3-0.6c-1.6-0.6-2.5-2.1-2.5-4.3c0-1.6,0.6-2.9,1.8-3.9C161.6,116.7,163,116.3,164.7,116.3z"/>
	<path d="M187.1,124.1l-0.2-6.2c0.2-0.4,0.4-0.8,0.8-1c0.4-0.2,0.6-0.4,1-0.4c0.8,0,1.2,1.6,1.2,4.7v2.3c0,3.7-0.6,7-1.6,9.9
		c-0.6,1.6-1.4,2.5-2.3,2.5c-0.6,0-1-0.4-1.4-1c-0.4-0.6-1-1.6-1.4-2.9s-0.8-2.1-1.2-2.5c-0.2,0.6-0.6,1.4-1.2,2.5
		c-0.6,1-0.8,1.6-1,1.8c-0.8,1.4-1.6,2.1-2.5,2.1c-0.2,0-0.8-0.8-1.4-2.3c-1.6-4.9-2.5-10.1-2.5-15.4c0.2-0.6,0.6-1,1.2-1.4
		c0.2,0,0.4-0.2,0.6-0.2c0.6,0,0.8,0.4,1,1c0,4.3,0.6,8.4,2.1,12.3c0.2-0.4,0.6-1,1-1.8s0.6-1.2,0.8-1.6c0.6-1,1.2-1.4,1.8-1.4
		c0.8,0,1.4,0.6,2.3,2.1c0.6,1,1,1.8,1.2,2.5c0.4,0.6,0.4,1,0.6,1C186.7,128.2,187.1,126.2,187.1,124.1z"/>
	<path d="M196.7,117.3c1-0.6,2.1-0.8,3.5-0.8c1.2,0,2.5,0.6,3.5,1.6c1.8,2.1,2.9,4.7,2.9,8.4c0,1.8-0.6,3.9-1.6,5.7
		c-0.6,1-1.2,1.8-2.1,2.5c-0.8,0.6-1.8,1-2.9,1c-1,0-2.3-0.4-3.3-1c-1-0.6-1.8-1.4-2.7-2.5c-1.4-2.1-2.1-4.1-2.1-5.7
		c0-2.5,0.8-4.7,2.3-6.8C194.9,118.8,195.7,117.9,196.7,117.3z M200.6,132.7c0.8-0.4,1.4-1,1.8-2.1c0.4-1,0.6-1.8,0.6-2.9
		s0-1.8-0.2-2.7c-0.2-0.8-0.4-1.6-0.6-2.3c-0.2-0.8-0.6-1.4-1.2-1.8c-0.6-0.6-1.2-0.8-1.8-1c-1.2,0.2-2.3,0.8-3.1,2.1
		s-1.2,2.5-1.2,3.5c0,1.2,0.4,2.7,1.4,4.3c0.4,0.8,1,1.4,1.8,2.1C199,132.5,199.8,132.7,200.6,132.7z"/>
	<path d="M210.7,130.7v-1.2c0-1.6-0.2-3.5-0.4-5.5c-0.2-2.1-0.6-3.5-0.8-4.5c-0.2-1-0.4-1.6-0.4-1.8c0-0.2,0.2-0.6,0.6-0.8
		c0.4-0.2,0.8-0.4,1.2-0.4s0.8,0.2,1,0.6c0.2,0.4,0.4,0.8,0.4,1c0,0.4,0.2,0.8,0.2,1.4s0,1,0.2,1.2c0.6-1.6,1.8-2.9,3.5-3.5
		c0.8-0.4,1.8-0.6,2.9-0.6c2.3,0,3.3,0.6,3.3,1.6c0,0.6-0.4,1.2-1,1.6c-0.2,0.2-0.6,0.2-0.8,0.2l-1.2-0.2c-3.5,0-5.1,3.3-5.1,10.3
		v3.7l0,0c-0.2,0.4-0.4,1-0.8,1.2c-0.4,0.2-0.8,0.6-1.2,0.6c-0.6,0-1-0.4-1.2-1.4C210.7,133.6,210.7,132.1,210.7,130.7z"/>
	<path d="M234.7,108.7c0-1.4,0.4-2.3,1.4-2.3c0.4,0,0.8,0,1,0.2c0.2,0.2,0.4,0.4,0.4,0.8c0.2,0.4,0.2,1.4,0.2,2.7c0,1.4,0,3.1,0,5.3
		c0,2.1,0.2,3.7,0.2,4.9s0.2,3.1,0.2,5.7c0.2,2.7,0.2,4.7,0.2,6.4v2.3c0,0.6-0.2,0.8-0.6,1c-0.2,0.2-0.8,0.2-1.2,0.2s-0.8-0.4-1-1
		l-0.2-0.6c-1.2,1-2.5,1.4-4.1,1.4c-2.1,0-3.7-0.8-4.9-2.5c-1.2-1.6-1.8-3.5-1.8-5.5c0-2.1,0.4-4.1,1.4-6.2c1-2.1,2.3-3.5,4.3-4.5
		c1-0.4,2.3-0.8,3.5-0.8c0.4,0,0.8,0,1.2,0V113v-2.7L234.7,108.7z M234.9,131.1c0.2-0.4,0.2-1,0.2-2.3s0-1.6,0-1.8v-0.8
		c0-1.4-0.2-2.9-0.4-4.1c-0.2-1.2-0.8-1.8-1.2-1.8c-0.8,0-1.6,0-2.5,0.2c-0.8,0.2-1.4,0.4-1.8,0.8c-0.8,1.2-1.4,3.1-1.4,5.7
		c0,1.8,0.6,3.3,1.8,4.3c0.6,0.6,1.4,0.8,2.3,0.8s1.4-0.2,2.1-0.4C234.3,131.7,234.7,131.5,234.9,131.1z"/>
	<path d="M64.5,151.4c0.4-0.4,0.6-0.4,0.8-0.6c0.2,0,0.4,0,0.4,0c1.2,0.2,2.1,0.6,2.1,1.2c0.2,0.2,0.2,0.8,0.2,1.2
		c0,0.6-0.2,1.2-0.6,1.8c-0.4,0.6-1,0.8-1.4,0.8c-0.6,0-1-0.2-1.4-0.8c-0.4-0.6-0.6-1.2-0.6-2.1C63.9,152.4,64.1,151.8,64.5,151.4z
		 M67.8,162.1v2.7l-0.2,9c0,1.2,0,2.3,0,2.9c0,0.6-0.2,1-0.6,1.2c-0.4,0.4-0.8,0.6-1.2,0.6s-0.8-0.4-1-1c0-0.6,0-1.6-0.2-3.1
		c0-1.2-0.2-2.9-0.2-4.7c0-1.8-0.2-3.7,0-5.3c0-1.8,0-3.5,0.2-4.7c0-0.4,0.4-0.8,1-0.8C66.9,158.8,67.8,159.8,67.8,162.1z"/>
	<path d="M79.3,159c1,0,2.1,0.2,3.1,0.4c2.1,0.6,2.9,1.4,2.9,2.5c0,0.4-0.2,0.8-0.6,1c-0.4,0.2-0.8,0.4-1.4,0.4
		c-0.2,0-0.6-0.2-1.8-0.8c-1.2-0.6-2.1-0.8-2.7-0.8s-1.2,0.2-1.8,0.6c-0.6,0.4-0.8,0.8-0.8,1.4s0.2,1.2,0.4,1.6
		c0.4,0.4,0.8,0.8,1.2,1c0.6,0.2,1.2,0.4,1.8,0.4c1.8,0.4,3.1,0.6,3.7,1c1.2,0.6,1.8,1.6,1.8,3.5c0,1.6-0.6,3.3-2.1,4.5
		s-2.7,1.8-4.1,1.8s-2.7-0.2-3.5-0.4c-1.6-0.6-2.5-1.4-2.5-2.5c0-1,0.6-1.4,1.6-1.4c0.6,0,1.2,0.2,2.3,0.8c1,0.6,1.8,0.8,2.5,0.8
		s1.2-0.4,1.8-1.2c0.6-0.8,0.8-1.6,0.8-2.3c0-0.2,0-0.4,0-0.6c-0.8-0.6-2.3-1.2-4.3-1.6c-0.8-0.2-1.4-0.4-2.3-0.6
		c-1.6-0.6-2.5-2.1-2.5-4.3c0-1.6,0.6-2.9,1.8-3.9C76,159.4,77.4,159,79.3,159z"/>
	<path d="M99.2,151.6c0.4-0.4,0.6-0.4,0.8-0.6c0.2,0,0.4,0,0.4,0c1.2,0.2,2.1,0.6,2.1,1.2c0.2,0.2,0.2,0.8,0.2,1.2
		c0,0.6-0.2,1.2-0.6,1.8c-0.4,0.6-1,0.8-1.4,0.8c-0.6,0-1-0.2-1.4-0.8c-0.4-0.6-0.6-1.2-0.6-2.1C98.6,152.4,98.8,151.8,99.2,151.6z
		 M102.5,162.1v2.7l-0.2,9.2c0,1.2,0,2.3,0,2.9c0,0.6-0.2,1-0.6,1.2c-0.4,0.4-0.8,0.6-1.2,0.6s-0.8-0.4-1-1c0-0.6,0-1.6-0.2-3.1
		c0-1.2-0.2-2.9-0.2-4.7c0-1.8-0.2-3.7,0-5.3c0-1.8,0-3.5,0.2-4.7c0-0.4,0.4-0.8,1-0.8C101.6,159,102.5,160,102.5,162.1z"/>
	<path d="M119.1,177.1V175c0-0.4,0-0.8,0-1.2c0-0.6,0-1.2,0-1.8c0-0.6,0-1.4,0-2.1c0-0.6-0.2-1.4-0.2-2.1c-0.2-1.2-0.4-2.3-1-3.1
		s-1-1.2-1.8-1.2s-1.2,0.2-1.8,0.4c-0.4,0.2-0.8,0.6-1,1.2c-0.6,1-1,2.3-1,3.5c-0.2,1.2-0.2,2.5-0.2,3.9l-0.2,4.5
		c0,0.6-0.2,1-0.6,1.2c-0.4,0.4-0.8,0.4-1.4,0.4s-1-0.4-1-1.2c0-2.3,0-5.1-0.2-8.4s-0.2-6.2-0.2-8.2c0.2-0.4,0.4-0.8,0.6-1.2
		s0.6-0.6,0.8-0.6c0.2,0,0.6,0,0.6,0c0.2,0,0.2,0.2,0.4,0.2c0,0.2,0.2,0.2,0.2,0.4c0,0,0.2,0.2,0.2,0.4c0,0.2,0,0.4,0,0.6
		s0,0.4,0,0.8s0,0.6,0,0.8c1.4-1.8,3.3-2.9,5.5-2.9c1.4,0,2.7,0.6,3.3,2.1c1,2.1,1.6,5.3,1.6,9.4v3.9c0,1,0,1.6-0.2,2.1
		s-0.2,0.6-0.4,0.8c-0.2,0.6-0.8,0.8-1.4,0.8C119.3,178.5,119.1,178.1,119.1,177.1z"/>
	<path d="M138.6,160c0.4,0.2,0.6,0.4,0.6,0.8c0,0.6-0.2,1.2-0.4,1.8c-0.2,0.6-0.8,1-1.2,1c-0.2,0-0.8-0.2-1.6-0.4
		c-0.8-0.4-1.4-0.4-1.6-0.4c-1.4,0-2.9,0.6-3.9,1.6c-1.2,1.2-1.6,2.7-1.6,4.5s0.2,3.3,0.8,4.3c0.6,1,1.6,1.4,3.3,1.4
		c0.8,0,1.8-0.4,3.3-1c1.2-0.6,2.1-1,2.5-1s0.6,0.2,0.8,0.4c0.2,0.2,0.4,0.4,0.4,0.8c0,0.6-0.4,1.4-1.2,2.1
		c-0.8,0.8-1.8,1.2-3.1,1.8c-1.2,0.4-2.3,0.6-3.3,0.6c-2.3,0-3.9-0.8-5.1-2.7c-1.2-1.6-1.8-4.1-1.8-7c0-1.8,0.4-3.5,1.4-5.1
		s2.3-2.7,3.7-3.3c1.4-0.8,3.1-1,4.7-1C136.6,159.4,137.8,159.6,138.6,160z"/>
	<path d="M145.6,160.3c1-0.6,2.1-0.8,3.5-0.8c1.2,0,2.5,0.6,3.5,1.6c1.8,2.1,2.9,4.7,2.9,8.4c0,1.8-0.6,3.9-1.6,5.7
		c-0.6,1-1.2,1.8-2.1,2.5s-1.8,1-2.9,1c-1,0-2.3-0.4-3.3-1c-1-0.6-1.8-1.4-2.7-2.5c-1.4-2.1-2.1-4.1-2.1-5.7c0-2.5,0.8-4.7,2.3-6.8
		C143.7,161.7,144.6,160.9,145.6,160.3z M149.5,175.7c0.8-0.4,1.4-1,1.8-2.1c0.4-1,0.6-1.8,0.6-2.9c0-1,0-1.8-0.2-2.7
		c-0.2-0.8-0.4-1.6-0.6-2.3c-0.2-0.8-0.6-1.4-1.2-1.8c-0.6-0.6-1.2-0.8-1.8-1c-1.2,0.2-2.3,0.8-3.1,2.1s-1.2,2.5-1.2,3.5
		c0,1.2,0.4,2.7,1.4,4.3c0.4,0.8,1,1.4,1.8,2.1C147.9,175.4,148.7,175.7,149.5,175.7z"/>
	<path d="M159.6,173.6v-1.2c0-1.6-0.2-3.5-0.4-5.5c-0.2-2.1-0.6-3.5-0.8-4.5s-0.4-1.6-0.4-1.8c0-0.2,0.2-0.6,0.6-0.8
		c0.4-0.2,0.8-0.4,1.2-0.4s0.8,0.2,1,0.6c0.2,0.4,0.4,0.8,0.4,1c0,0.4,0.2,0.8,0.2,1.4c0,0.6,0,1,0.2,1.2c0.6-1.6,1.8-2.9,3.5-3.5
		c0.8-0.4,1.8-0.6,2.9-0.6c2.3,0,3.3,0.6,3.3,1.6c0,0.6-0.4,1.2-1,1.6c-0.2,0.2-0.6,0.2-0.8,0.2l-1.2,0c-3.5,0-5.1,3.5-5.1,10.3v3.7
		l0,0c-0.2,0.4-0.4,1-0.8,1.2c-0.4,0.4-0.8,0.6-1.2,0.6c-0.6,0-1-0.4-1.2-1.4C159.6,176.3,159.6,175,159.6,173.6z"/>
	<path d="M175.2,173.6v-1.2c0-1.6-0.2-3.5-0.4-5.5c-0.2-2.1-0.6-3.5-0.8-4.5c-0.2-1-0.4-1.6-0.4-1.8c0-0.2,0.2-0.6,0.6-0.8
		c0.4-0.2,0.8-0.4,1.2-0.4s0.8,0.2,1,0.6c0.2,0.4,0.4,0.8,0.4,1c0,0.4,0.2,0.8,0.2,1.4c0,0.6,0,1,0.2,1.2c0.6-1.6,1.8-2.9,3.5-3.5
		c0.8-0.4,1.8-0.6,2.9-0.6c2.3,0,3.3,0.6,3.3,1.6c0,0.6-0.4,1.2-1,1.6c-0.2,0.2-0.6,0.2-0.8,0.2l-1.2-0.2c-3.5,0-5.1,3.5-5.1,10.3
		v3.7l0,0c-0.2,0.4-0.4,1-0.8,1.2c-0.4,0.2-0.8,1-1.2,1c-0.6,0-1-0.4-1.2-1.4C175.2,176.5,175.2,175.2,175.2,173.6z"/>
	<path d="M200.2,161.1c1.4,0.8,2.1,1.8,2.1,3.1s-0.6,2.5-1.8,3.7s-2.7,1.8-4.5,2.3c-0.2,0-0.2,0-0.4,0c0,0-0.2,0-0.4,0
		c-0.2,0-0.2,0-0.4,0c0,0-0.2,0-0.4,0c-0.2,0-0.2,0-0.4,0c0,0-0.2,0-0.4,0c-0.2,0-0.4,0-0.4,0c0.2,2.1,0.6,3.5,1.2,4.3
		c0.8,0.6,1.4,1,2.1,1c1.4,0,2.7-0.6,3.7-1.6c1.2-1.2,2.1-1.6,2.5-1.6c0.2,0,0.4,0.2,1,0.6c0.4,0.4,0.6,0.8,0.6,1.2
		s-0.2,0.8-0.8,1.4c-0.4,0.6-1,1-1.8,1.6c-0.8,0.6-1.6,1-2.7,1.4c-1,0.4-2.1,0.6-3.1,0.6c-0.8,0-1.6-0.2-2.5-0.6
		c-1.2-0.8-2.3-2.1-2.9-4.1c-0.6-1.8-1-3.9-1-6s0.4-3.9,1.4-5.7c1-1.8,2.7-2.9,5.1-2.9C197.5,159.8,198.8,160.3,200.2,161.1z
		 M198.6,164.4c0-1.2-0.8-1.6-2.3-1.6c-1,0-1.8,0.6-2.7,1.8c-0.2,0.4-0.4,0.8-0.4,1.2s-0.2,1-0.2,1.4
		C196.7,167.2,198.6,166.2,198.6,164.4z"/>
	<path d="M218.5,160.5c0.4,0.2,0.6,0.4,0.6,0.8c0,0.6-0.2,1.2-0.4,1.8c-0.2,0.6-0.8,1-1.2,1c-0.2,0-0.8-0.2-1.6-0.4
		c-0.8-0.4-1.4-0.4-1.6-0.4c-1.4,0-2.9,0.6-3.9,1.6c-1.2,1.2-1.6,2.7-1.6,4.5s0.2,3.3,0.8,4.3c0.6,1,1.6,1.4,3.3,1.4
		c0.8,0,1.8-0.4,3.3-1c1.2-0.6,2.1-1,2.5-1s0.6,0.2,0.8,0.4c0.2,0.2,0.4,0.4,0.4,0.8c0,0.6-0.4,1.4-1.2,2.1
		c-0.8,0.8-1.8,1.2-3.1,1.8c-1.2,0.4-2.3,0.6-3.3,0.6c-2.3,0-3.9-0.8-5.1-2.7c-1.2-1.8-1.8-4.1-1.8-7c0-1.8,0.4-3.5,1.4-5.1
		c1-1.6,2.3-2.7,3.7-3.3c1.4-0.8,3.1-1,4.7-1C216.4,159.6,217.7,160,218.5,160.5z"/>
	<path d="M228.1,150.8l-0.2,4.9c0,0.4,0,1.6,0.2,3.9c1.6,0,3.3,0,4.7-0.2c0.8,0.2,1.2,0.6,1.2,1.4c0,0.8-0.2,1.2-0.8,1.6
		c-0.6,0.4-1,0.4-1.6,0.6c-0.6,0-1,0-1.2,0c-0.2,0-0.6,0-1.2,0c-0.4,0-0.8,0-1,0c0,0.2,0,1,0.2,2.3c0,1.2,0,2.1,0.2,2.5
		c0.2,3.7,0.4,6.8,0.8,9c-0.2,0.6-0.4,1-0.8,1.4c-0.4,0.4-0.8,0.6-1.2,0.6s-0.8-0.4-1-1c-0.4-2.5-0.6-5.3-0.8-8.6
		c-0.2-3.3-0.2-5.3-0.2-6.2c-0.4,0-1,0-2.1,0c-1,0-1.6,0-2.3-0.2c-0.6-0.2-1-0.6-1-1.2c0-1.4,0.8-2.1,2.5-2.1h2.1c0.4,0,0.6,0,0.8,0
		c0-2.7-0.2-4.1-0.2-4.3c0-0.2,0-0.6,0-1.2s0-1.6,0.2-2.9c0.2-0.4,0.4-0.8,0.8-1.2c0.4-0.4,0.8-0.4,1.2-0.4
		C227.5,149.6,227.9,150,228.1,150.8z"/>
	<path d="M240.3,176.5c0,0.6-0.2,1.2-0.6,1.6c-0.4,0.4-1,0.8-1.4,0.8c-0.6,0-1-0.2-1.6-0.4c-0.4-0.2-0.8-0.8-0.8-1.4
		c0-0.6,0.2-1.2,0.6-2.1c0.4-0.6,1-1,1.6-1c0.4,0,0.8,0.2,1.2,0.6C239.8,175,240.1,175.7,240.3,176.5z"/>
</g>
<g id="shadow">
	<g>
		<ellipse style="fill:#FFFFFF;" cx="318.4" cy="532.1" rx="152.6" ry="30.1"/>
		<ellipse style="fill:#FDFDFD;" cx="318.4" cy="532.1" rx="150.3" ry="29.6"/>
		<ellipse style="fill:#FBFBFB;" cx="318.4" cy="532.1" rx="147.9" ry="29.1"/>
		<ellipse style="fill:#F9F9F9;" cx="318.4" cy="532.1" rx="145.5" ry="28.7"/>
		<ellipse style="fill:#F7F7F7;" cx="318.4" cy="532.1" rx="143.2" ry="28.2"/>
		<ellipse style="fill:#F5F5F5;" cx="318.4" cy="532.1" rx="140.8" ry="27.8"/>
		<ellipse style="fill:#F3F3F3;" cx="318.4" cy="532.1" rx="138.4" ry="27.3"/>
		<ellipse style="fill:#F1F1F1;" cx="318.4" cy="532.1" rx="136.1" ry="26.8"/>
		<ellipse style="fill:#EFEFEF;" cx="318.4" cy="532.1" rx="133.7" ry="26.4"/>
		<ellipse style="fill:#EDEDED;" cx="318.4" cy="532.1" rx="131.3" ry="25.9"/>
		<ellipse style="fill:#EBEBEB;" cx="318.4" cy="532.1" rx="129" ry="25.4"/>
		<ellipse style="fill:#E9E9E9;" cx="318.4" cy="532.1" rx="126.6" ry="25"/>
		<ellipse style="fill:#E7E7E7;" cx="318.4" cy="532.1" rx="124.2" ry="24.5"/>
		<ellipse style="fill:#E5E5E4;" cx="318.4" cy="532.1" rx="121.9" ry="24.1"/>
		<ellipse style="fill:#E3E3E2;" cx="318.4" cy="532.1" rx="119.5" ry="23.6"/>
		<ellipse style="fill:#E1E1E0;" cx="318.4" cy="532.1" rx="117.1" ry="23"/>
		<ellipse style="fill:#DFDFDE;" cx="318.4" cy="532.1" rx="114.8" ry="22.6"/>
		<ellipse style="fill:#DDDDDC;" cx="318.4" cy="532.1" rx="112.4" ry="22.1"/>
		<ellipse style="fill:#DBDBDA;" cx="318.4" cy="532.1" rx="110" ry="21.7"/>
		<ellipse style="fill:#D9D9D8;" cx="318.4" cy="532.1" rx="107.7" ry="21.2"/>
		<ellipse style="fill:#D7D7D6;" cx="318.4" cy="532.1" rx="105.3" ry="20.7"/>
		<ellipse style="fill:#D5D5D4;" cx="318.4" cy="532.1" rx="102.9" ry="20.3"/>
		<ellipse style="fill:#D3D3D2;" cx="318.4" cy="532.1" rx="100.5" ry="19.8"/>
		<ellipse style="fill:#D1D1D0;" cx="318.4" cy="532.1" rx="98.2" ry="19.4"/>
		<ellipse style="fill:#CFCFCE;" cx="318.4" cy="532.1" rx="95.8" ry="18.9"/>
		<ellipse style="fill:#CDCDCC;" cx="318.4" cy="532.1" rx="93.4" ry="18.4"/>
		<ellipse style="fill:#CACACA;" cx="318.4" cy="532.1" rx="91.1" ry="18"/>
		<ellipse style="fill:#C8C8C8;" cx="318.4" cy="532.1" rx="88.7" ry="17.5"/>
		<ellipse style="fill:#C6C6C6;" cx="318.4" cy="532.1" rx="86.3" ry="17.1"/>
		<ellipse style="fill:#C4C4C4;" cx="318.4" cy="532.1" rx="84" ry="16.6"/>
		<ellipse style="fill:#C2C2C2;" cx="318.4" cy="532.1" rx="81.6" ry="16.1"/>
		<ellipse style="fill:#C0C0C0;" cx="318.4" cy="532.1" rx="79.2" ry="15.6"/>
		<ellipse style="fill:#BEBEBE;" cx="318.4" cy="532.1" rx="76.9" ry="15.1"/>
		<ellipse style="fill:#BCBCBC;" cx="318.4" cy="532.1" rx="74.5" ry="14.7"/>
		<ellipse style="fill:#BABABA;" cx="318.4" cy="532.1" rx="72.1" ry="14.2"/>
		<ellipse style="fill:#B8B8B8;" cx="318.4" cy="532.1" rx="69.8" ry="13.7"/>
		<ellipse style="fill:#B6B6B6;" cx="318.4" cy="532.1" rx="67.4" ry="13.3"/>
		<ellipse style="fill:#B4B4B4;" cx="318.4" cy="532.1" rx="65" ry="12.8"/>
		<ellipse style="fill:#B2B2B2;" cx="318.4" cy="532.1" rx="62.7" ry="12.4"/>
		<ellipse style="fill:#B0B0AF;" cx="318.4" cy="532.1" rx="60.3" ry="11.9"/>
		<ellipse style="fill:#AEAEAD;" cx="318.4" cy="532.1" rx="57.9" ry="11.4"/>
		<ellipse style="fill:#ACACAB;" cx="318.4" cy="532.1" rx="55.6" ry="11"/>
		<ellipse style="fill:#AAAAA9;" cx="318.4" cy="532.1" rx="53.2" ry="10.5"/>
		<ellipse style="fill:#A8A8A7;" cx="318.4" cy="532.1" rx="50.8" ry="10"/>
		<ellipse style="fill:#A6A6A5;" cx="318.4" cy="532.1" rx="48.5" ry="9.6"/>
		<ellipse style="fill:#A4A4A3;" cx="318.4" cy="532.1" rx="46.1" ry="9.1"/>
		<ellipse style="fill:#A2A2A1;" cx="318.4" cy="532.1" rx="43.7" ry="8.7"/>
		<ellipse style="fill:#A0A09F;" cx="318.4" cy="532.1" rx="41.4" ry="8.1"/>
		<ellipse style="fill:#9E9E9D;" cx="318.4" cy="532.1" rx="39" ry="7.7"/>
		<ellipse style="fill:#9C9C9B;" cx="318.4" cy="532.1" rx="36.6" ry="7.2"/>
		<ellipse style="fill:#9A9A99;" cx="318.4" cy="532.1" rx="34.3" ry="6.7"/>
		<ellipse style="fill:#989897;" cx="318.4" cy="532.1" rx="31.9" ry="6.3"/>
	</g>
</g>
<g id="dog">
	<path id="hand2" style="fill:#B56F29;" d="M382.8,386.7c0,0,35.5,28.9,38.7,30.4c6.5,3,11.9-8.9,18-5.2
		c4.2,2.6,8.5,11.2,4.9,14.7c-4.4,4.2-16-3.1-16.9,2.1c-0.9,5.3,12.2,1.8,15.6,7.1c3,4.7-3.1,15.1-10,12.4
		c-6.7-2.7-7.9-15.1-10.8-14.6c-2.9,0.6,2.5,11.1,0.3,14.7c-2.9,4.7-9.5,6.9-14.7-0.4c-5.7-8,6.6-16.3,3.9-20.3
		c-2.7-3.9-32-34.4-32-34.4L382.8,386.7z"/>
	<g id="leg2">
		<path style="fill:#B56F29;" d="M264,460.4c0,0,2.2,19.9,0.6,31.6c-1.6,11.7-7.3,25.6-7.9,30.4c-0.5,4,1.2,10.5,7.3,11.2
			c7.6,1,13.9-4.9,13.9-4.9s3.7,6.4,10.9,6.4c4.9,0,6-5.9,6-5.9s2,5.3,8.8,5.4c6.5,0,7.4-5.2,7.4-5.2s2.8,3.8,7.7,1
			c4.7-2.6,5.1-12.4,0.6-20.6c-4.5-8.2-12.6-12.4-20.7-10.6c-9.3,2.1-14.1,15.2-21.2,14.1c-3.1-0.5,0.6-14.9,0.6-21.9
			c0-6.8-3-27.8-3-27.8L264,460.4z"/>
		<path style="fill:#754D24;" d="M303.5,509.2c0,0,6.7,5.1,8.3,11.4c1.4,5.3,0,9.8,0,9.8l-0.9-0.8c0,0,1.1-6.3-0.7-10.4
			C308.4,514.9,303.5,509.2,303.5,509.2z"/>
		<path style="fill:#754D24;" d="M295.6,530.7c0,0,0.5-6-0.6-9c-1.1-3-5.2-5.8-5.2-5.8s3.1,3.9,3.9,6.6c0.7,2.7,1.1,6.7,1.1,6.7
			L295.6,530.7z"/>
	</g>
	<g id="leg1">
		<path style="fill:#B56F29;" d="M338.7,459.5c0,0,2.8,23,1.3,34.1c-1.5,11.2-5.3,17.9-5.8,22.4c-0.5,3.7-2.8,9.5,3,10.2
			c7.2,0.9,14.8-1.8,14.8-1.8s3.5,6.1,10.3,6.1c4.7,0,5.7-5.5,5.7-5.5s1.9,5.1,8.3,5.2c6.3,0,7-4.9,7-4.9s2.7,3.6,7.4,1
			c4.4-2.4,6.1-9,1.8-16.9c-4.2-7.8-11.4-13.2-19.1-11.3c-8.9,2-15.3,13.1-21.9,12c-3-0.5,0.6-13.6,0.6-20.2
			c0-6.5-2.8-26.9-2.8-26.9L338.7,459.5z"/>
		<path style="fill:#754D24;" d="M378.6,507.7c0,0,4.1,2.8,5.6,8.9c1.3,5.1,0,9.3,0,9.3l-0.8-0.8c0,0,1.1-6-0.6-10
			C381,511.1,378.6,507.7,378.6,507.7z"/>
		<path style="fill:#754D24;" d="M368.8,526.1c0,0,0.5-5.7-0.6-8.6c-1-2.9-3.5-5.4-3.5-5.4s1.5,3.7,2.2,6.3c0.7,2.6,1,6.5,1,6.5
			L368.8,526.1z"/>
	</g>
	<path id="ear2" d="M373,219.8c0,0-2.3-54.1,3-59.8c5.4-5.7,59-12.6,59.6,6.5c0.6,19.2-5.5,23.8-9.8,23.5
		c-4.2-0.3-37.8-18.9-39.6-16.9c-1.8,2-8.7,46.7-8.7,46.7L373,219.8L373,219.8z"/>
	<path id="ear1_1_" d="M337.4,244.7c0,0-25.5-52.6-24.4-60.4c1.1-7.7,40.6-32.8,46.2-26.6c5.5,6.3,8.9,18.8,4.7,24.5
		c-4.1,5.7-33.9,1.5-34.9,6c-1,4.5,11.5,53.2,11.5,53.2L337.4,244.7z"/>
	<path id="tail" style="fill:#1A1A1A;" d="M235.9,434.1l-2.7-11.2c0,0-31.8,12.8-60.8,4.9c-25.2-6.9-41.6-33.5-47.4-33.2
		c-5.8,0.3-14.2,26.5,0,44.5c14.2,18.1,38.9,12.8,39.5,14.8c0.6,1.9-16.7,10.6-15.3,12.8s15.8,3,26.1-1.9
		c12.1-5.7,17.3-15,19.3-13.6c1.9,1.4-12.3,17.3-9.8,19.3c2.5,1.8,13.4-2.9,18.3-8.7c6.1-7.1,8.7-15.3,9.8-15.3
		c1.1,0-0.3,10,1.4,10.3s8.4-3.7,16-11.8C234.5,440.4,235.9,434.1,235.9,434.1z"/>
	<g id="body_1_">
		<path style="fill:#D18029;" d="M396,227.3c0,0,17.4-17.4,30.2-14.4c14.5,3.4,10,20.1,10,20.1l-41.1,10.6L396,227.3z"/>
		<path style="fill:#F69220;" d="M397.9,370.5c0,0-7,9.6-6.7,20.7c0.3,11.2,9.3,36.3-9.5,60.9c-17.1,22.2-64,38-100.1,24.1
			c-36.1-13.9-56.1-32.3-59.5-62.3c-3.3-30.1,62.9-115.7,62.6-120.1c-0.3-4.4-14.5-1-23.1,3.9c-1.8,0.9,1.1-11.2,11.4-18.9
			c9.4-7,20.5-6.1,20.5-8.3c0-5-17.4-2.1-31.5,2.1c-2.4,0.7,5-14.5,20.2-19.5c16.6-5.4,27.2,2.8,27.9,0.7c1.4-4.1-11.8-16.7-28.3-17
			c-2.8-0.1,14.2-12.5,33.9-6.1c11.2,3.6,15.9,17,17.2,17c1.4,0,22.5-33.2,45.8-34.5c25.4-1.5,20.9,24,20.9,24l33.7,31.1l1.9,9.5
			c0,0,8.5,9.8,15.6,13.9c8.7,5,25.6,6.9,25.6,6.9l3.6,53.1c0,0-16.1,27.9-45.5,30.8C411.4,384.5,397.9,370.5,397.9,370.5z"/>
	</g>
	<g id="eyesopen">
		<circle style="fill:#CBCBCA;" cx="424.8" cy="250.1" r="22.7"/>
		<circle cx="428.4" cy="258.9" r="5"/>
		<path style="fill:#FFFFFF;" d="M411,260.7c0,16.6-13.5,30.1-30.1,30.1s-30.1-13.5-30.1-30.1s13.5-30.1,30.1-30.1
			C397.6,230.6,411,244.1,411,260.7z"/>
		<circle cx="399.6" cy="265.1" r="7.5"/>
		<path style="fill:#F69220;" d="M379.9,298c0,0,0.4-8.7,6.2-16c8.9-11.1,41.2-20.6,46.6-17c4.1,2.8,4,11.5,3,13.2
			C434.7,279.9,379.9,298,379.9,298z"/>
	</g>
	<g id="eyesclosed">
		<circle style="fill:#E48525;" cx="424.8" cy="250.1" r="22.7"/>
		<path style="fill:#603A17;" d="M447.3,253.3l-0.6,2.8c0,0-8.3-1.3-19.8,1.3c-8.7,1.9-17.6,6.8-22.1,12l-1-2.4
			C403.7,266.9,414.3,250.3,447.3,253.3z"/>
		<path style="fill:#E48525;" d="M411,260.7c0,16.6-13.5,30.1-30.1,30.1s-30.1-13.5-30.1-30.1s13.5-30.1,30.1-30.1
			C397.6,230.6,411,244.1,411,260.7z"/>
		<path style="fill:#603A17;" d="M411,260.5c0,0,0.2,2.2,0.2,1.6c0.1-0.6-0.4,1.5-0.4,1.5s-13.2-1-27.4,2.8
			c-10.8,2.9-19.9,7.3-25.2,14l-1.9-2.4C356.4,277.9,370.1,257.5,411,260.5z"/>
		<path style="fill:#F69220;" d="M379.9,298c0,0,0.4-8.7,6.2-16c8.9-11.1,41.2-20.6,46.6-17c4.1,2.8,4,11.5,3,13.2
			C434.7,279.9,379.9,298,379.9,298z"/>
	</g>
	<g id="nose">
		<ellipse cx="487.5" cy="327.6" rx="37.8" ry="40"/>
		<path style="fill:#343433;" d="M496.2,301.2c2.3,4.3-2.8,11.5-11.3,16c-8.6,4.5-17.3,4.7-19.6,0.4c-2.3-4.3,2.8-11.5,11.3-16
			C485.1,296.9,493.9,296.8,496.2,301.2z"/>
	</g>
	<g>
		<path d="M375.2,354.9c-0.6,0-1.2-0.2-1.6-0.6c-0.1-0.1-6.2-6.5-14.3-12.2c-6.5-4.6-15.8-8.7-15.9-8.7c-1.1-0.5-1.7-1.8-1.1-3
			c0.5-1.1,1.8-1.7,3-1.1c0.4,0.2,9.7,4.7,16.2,10C370,346,375.8,354.9,375.2,354.9L375.2,354.9z"/>
	</g>
	<path id="hand2" style="fill:#B56F29;" d="M275.2,347.2c0,0-13.3,19.9-13.9,32.7c-0.6,11.5,3.9,20.8,2.8,24.2s-12-0.6-17,4.7
		c-4.1,4.3-4.4,16.7,3.9,16.3c8.7-0.4,10.9-13.3,15-10.8c4.1,2.5-4.3,10.3-3,16.4c1.6,7.7,11.2,12,15.8,4.1
		c3.5-6.1-4.3-15.3-2.1-16.4c2.2-1.1,6.6,9.4,12.8,11.7c6.9,2.5,11.3-4.2,9.1-12.6c-2.2-8.3-14.2-3.8-19-10.5
		c-4.5-6.3-6.5-15-4.6-28.2c2-14.1,9.7-28.1,9.7-28.1L275.2,347.2z"/>
	<ellipse id="belly_1_" style="fill:#754D24;" cx="340.1" cy="462.2" rx="4.2" ry="4"/>
	<path style="fill:#F69220;" d="M351,292.1c0,0,3-8.3,10.8-11.9c6.9-3.1,27.7,6.3,29.1,9.7C392.6,294,351,292.1,351,292.1z"/>
</g>
</svg>
