<?xml version="1.0" encoding="utf-8"?>
<!-- Generator: Adobe Illustrator 21.0.0, SVG Export Plug-In . SVG Version: 6.00 Build 0)  -->
<svg version="1.1" id="CreateSecretCode" xmlns="http://www.w3.org/2000/svg" xmlns:xlink="http://www.w3.org/1999/xlink" x="0px"
	 y="0px" viewBox="0 0 733.1 387.7" style="enable-background:new 0 0 733.1 387.7;" xml:space="preserve">
<style type="text/css">
	.st0{fill:#FFFFFF;}
	.st1{fill:#FDFDFD;}
	.st2{fill:#FBFBFB;}
	.st3{fill:#F9F9F9;}
	.st4{fill:#F7F7F7;}
	.st5{fill:#F5F5F5;}
	.st6{fill:#F3F3F3;}
	.st7{fill:#F1F1F1;}
	.st8{fill:#EFEFEF;}
	.st9{fill:#EDEDED;}
	.st10{fill:#EBEBEB;}
	.st11{fill:#E9E9E9;}
	.st12{fill:#E7E7E7;}
	.st13{fill:#E5E5E4;}
	.st14{fill:#E3E3E2;}
	.st15{fill:#E1E1E0;}
	.st16{fill:#DFDFDE;}
	.st17{fill:#DDDDDC;}
	.st18{fill:#DBDBDA;}
	.st19{fill:#D9D9D8;}
	.st20{fill:#D7D7D6;}
	.st21{fill:#D5D5D4;}
	.st22{fill:#D3D3D2;}
	.st23{fill:#D1D1D0;}
	.st24{fill:#CFCFCE;}
	.st25{fill:#CDCDCC;}
	.st26{fill:#CACACA;}
	.st27{fill:#C8C8C8;}
	.st28{fill:#C6C6C6;}
	.st29{fill:#C4C4C4;}
	.st30{fill:#C2C2C2;}
	.st31{fill:#C0C0C0;}
	.st32{fill:#BEBEBE;}
	.st33{fill:#BCBCBC;}
	.st34{fill:#BABABA;}
	.st35{fill:#B8B8B8;}
	.st36{fill:#B6B6B6;}
	.st37{fill:#B4B4B4;}
	.st38{fill:#B2B2B2;}
	.st39{fill:#B0B0AF;}
	.st40{fill:#AEAEAD;}
	.st41{fill:#ACACAB;}
	.st42{fill:#AAAAA9;}
	.st43{fill:#A8A8A7;}
	.st44{fill:#A6A6A5;}
	.st45{fill:#A4A4A3;}
	.st46{fill:#A2A2A1;}
	.st47{fill:#A0A09F;}
	.st48{fill:#9E9E9D;}
	.st49{fill:#9C9C9B;}
	.st50{fill:#9A9A99;}
	.st51{fill:#989897;}
	.st52{fill:#754D24;}
	.st53{fill:#B56F29;}
	.st54{fill:#1A1A1A;}
	.st55{fill:#D18029;}
	.st56{fill:#F69220;}
	.st57{fill:#CBCBCA;}
	.st58{fill:#343433;}
	.st59{fill:#A7A8AC;}
	.st60{fill:#FFFFFF;stroke:#B8D432;stroke-width:1.5;stroke-miterlimit:10;}
	.st61{fill:#603A17;}
	.st62{fill:#E48525;}
</style>
<g id="dog">
	<g id="shadow">
		<ellipse class="st0" cx="239.3" cy="323.9" rx="153" ry="25.8"/>
		<ellipse class="st1" cx="239.3" cy="323.9" rx="150.6" ry="25.4"/>
		<ellipse class="st2" cx="239.3" cy="323.9" rx="148.3" ry="25"/>
		<ellipse class="st3" cx="239.3" cy="323.9" rx="145.9" ry="24.7"/>
		<ellipse class="st4" cx="239.3" cy="323.9" rx="143.6" ry="24.3"/>
		<ellipse class="st5" cx="239.3" cy="323.9" rx="141.2" ry="23.9"/>
		<ellipse class="st6" cx="239.3" cy="323.9" rx="138.7" ry="23.5"/>
		<ellipse class="st7" cx="239.3" cy="323.9" rx="136.3" ry="23"/>
		<ellipse class="st8" cx="239.3" cy="323.9" rx="134" ry="22.6"/>
		<ellipse class="st9" cx="239.3" cy="323.9" rx="131.6" ry="22.2"/>
		<ellipse class="st10" cx="239.3" cy="323.9" rx="129.3" ry="21.8"/>
		<ellipse class="st11" cx="239.3" cy="323.9" rx="127" ry="21.5"/>
		<ellipse class="st12" cx="239.3" cy="323.9" rx="124.6" ry="21.1"/>
		<ellipse class="st13" cx="239.3" cy="323.9" rx="122.3" ry="20.7"/>
		<ellipse class="st14" cx="239.3" cy="323.9" rx="119.7" ry="20.3"/>
		<ellipse class="st15" cx="239.3" cy="323.9" rx="117.3" ry="19.8"/>
		<ellipse class="st16" cx="239.3" cy="323.9" rx="115" ry="19.4"/>
		<ellipse class="st17" cx="239.3" cy="323.9" rx="112.7" ry="19"/>
		<ellipse class="st18" cx="239.3" cy="323.9" rx="110.3" ry="18.6"/>
		<ellipse class="st19" cx="239.3" cy="323.9" rx="108" ry="18.1"/>
		<ellipse class="st20" cx="239.3" cy="323.9" rx="105.6" ry="17.9"/>
		<ellipse class="st21" cx="239.3" cy="323.9" rx="103.3" ry="17.5"/>
		<ellipse class="st22" cx="239.3" cy="323.9" rx="100.7" ry="17.1"/>
		<ellipse class="st23" cx="239.3" cy="323.9" rx="98.4" ry="16.6"/>
		<ellipse class="st24" cx="239.3" cy="323.9" rx="96" ry="16.2"/>
		<ellipse class="st25" cx="239.3" cy="323.9" rx="93.7" ry="15.8"/>
		<ellipse class="st26" cx="239.3" cy="323.9" rx="91.3" ry="15.4"/>
		<ellipse class="st27" cx="239.3" cy="323.9" rx="89" ry="14.9"/>
		<ellipse class="st28" cx="239.3" cy="323.9" rx="86.6" ry="14.7"/>
		<ellipse class="st29" cx="239.3" cy="323.9" rx="84.3" ry="14.3"/>
		<ellipse class="st30" cx="239.3" cy="323.9" rx="81.7" ry="13.9"/>
		<ellipse class="st31" cx="239.3" cy="323.9" rx="79.4" ry="13.4"/>
		<ellipse class="st32" cx="239.3" cy="323.9" rx="77" ry="13"/>
		<ellipse class="st33" cx="239.3" cy="323.9" rx="74.7" ry="12.6"/>
		<ellipse class="st34" cx="239.3" cy="323.9" rx="72.3" ry="12.2"/>
		<ellipse class="st35" cx="239.3" cy="323.9" rx="70" ry="11.7"/>
		<ellipse class="st36" cx="239.3" cy="323.9" rx="67.6" ry="11.5"/>
		<ellipse class="st37" cx="239.3" cy="323.9" rx="65.3" ry="11.1"/>
		<ellipse class="st38" cx="239.3" cy="323.9" rx="62.7" ry="10.7"/>
		<ellipse class="st39" cx="239.3" cy="323.9" rx="60.4" ry="10.2"/>
		<ellipse class="st40" cx="239.3" cy="323.9" rx="58" ry="9.8"/>
		<ellipse class="st41" cx="239.3" cy="323.9" rx="55.7" ry="9.4"/>
		<ellipse class="st42" cx="239.3" cy="323.9" rx="53.3" ry="9"/>
		<ellipse class="st43" cx="239.3" cy="323.9" rx="51" ry="8.5"/>
		<ellipse class="st44" cx="239.3" cy="323.9" rx="48.6" ry="8.1"/>
		<ellipse class="st45" cx="239.3" cy="323.9" rx="46.3" ry="7.9"/>
		<ellipse class="st46" cx="239.3" cy="323.9" rx="43.7" ry="7.5"/>
		<ellipse class="st47" cx="239.3" cy="323.9" rx="41.4" ry="7"/>
		<ellipse class="st48" cx="239.3" cy="323.9" rx="39" ry="6.6"/>
		<ellipse class="st49" cx="239.3" cy="323.9" rx="36.7" ry="6.2"/>
		<ellipse class="st50" cx="239.3" cy="323.9" rx="34.4" ry="5.8"/>
		<ellipse class="st51" cx="239.3" cy="323.9" rx="32" ry="5.3"/>
	</g>
	<path id="legBB" class="st52" d="M162.9,225.6c0,0-0.9,27.7-2.6,37.3c-2.3,11.7-9.6,23.9-10,28c-0.4,3.2,1.1,8.5,5.8,9.2
		c6.2,0.9,11.3-4.1,11.3-4.1s3,5.1,8.7,5.1c4.1,0,4.9-4.7,4.9-4.7s1.7,4.3,7,4.3s6-4.3,6-4.3s2.3,3,6.2,0.9c3.8-2.1,4.1-10,0.4-16.6
		c-3.6-6.6-10.2-10-16.9-8.5c-7.5,1.7-11.3,12.4-17.1,11.3c-2.6-0.4,4.1-15.8,5.1-25.2c1.3-11.3-2.1-31.6-2.1-31.6L162.9,225.6z"/>
	<path id="legBF" class="st52" d="M227.1,236.9c0,0,9.2,21.1,7.9,31.2c-1.3,10-4.5,18.6-6.6,22.4c-1.5,3-1.9,7.7,1.3,7.9
		c6.4,0.6,10.9-0.9,10.9-0.9s3.2,5.3,9.4,5.3c4.3,0,5.1-5.1,5.1-5.1s1.7,4.5,7.5,4.7c5.5,0,6.4-4.5,6.4-4.5s2.3,3.2,6.6,0.9
		c4.1-2.1,5.5-8.1,1.7-15.1c-3.8-7-10.2-11.7-17.3-10.2c-7.9,1.9-12.4,11.7-18.3,10.9c-2.8-0.4,0-13.9,0-19.6s-6.2-28-6.2-28h-8.3
		V236.9z"/>
	<g id="legFB">
		<path class="st53" d="M138.4,240.5c0,0-0.9,32.9-3.2,44.2c-2.8,13.9-11.3,28.4-11.9,32.9c-0.4,3.8,1.1,10,6.8,10.7
			c7.3,0.9,13.2-4.7,13.2-4.7s3.4,6.2,10.5,6.2c4.7,0,5.8-5.5,5.8-5.5s1.9,5.1,8.3,5.1c6.2,0,7-4.9,7-4.9s2.8,3.6,7.5,1.1
			c4.5-2.6,4.9-11.7,0.6-19.6c-4.3-7.9-12.2-11.9-19.8-10c-9,2.1-13.4,14.5-20.3,13.4c-3-0.4,4.9-18.6,6-29.7
			c1.5-13.2-2.3-37.3-2.3-37.3L138.4,240.5z"/>
		<path class="st52" d="M168.2,304.7c0,0,6.4,4.9,7.9,10.9c1.3,5.1,0,9.4,0,9.4l-0.9-0.9c0,0,1.1-6-0.6-10
			C172.7,310.3,168.2,304.7,168.2,304.7z"/>
		<path class="st52" d="M160.6,325.4c0,0,0.4-5.8-0.6-8.5c-1.1-3-4.9-5.5-4.9-5.5s3,3.6,3.6,6.4c0.6,2.6,1.1,6.4,1.1,6.4
			L160.6,325.4z"/>
		<path class="st52" d="M144.8,315.6c0,0,0.6,2.8,0.4,5.1c0,1.7-0.6,4.3-0.6,4.3l-1.1-1.5c0,0,0.6-1.7,0.9-3.2
			C144.6,318.8,144.8,315.6,144.8,315.6z"/>
	</g>
	<g id="legFF">
		<path class="st53" d="M213.7,251.4c0,0,12.4,26,10.7,38c-1.5,11.9-9.4,20.9-11.9,25.6c-1.9,3.6-0.9,8.7,1.7,10.2
			c6.6,4.1,15.8-1.9,15.8-1.9s3.6,6.4,11.1,6.4c4.9,0,6.2-6,6.2-6s2.1,5.3,8.7,5.5c6.6,0,7.5-5.3,7.5-5.3s2.8,3.8,7.9,1.1
			c4.7-2.6,6.4-9.6,1.9-17.9c-4.5-8.3-12.2-14.1-20.3-12.2c-9.4,2.1-16.2,13.9-23.5,12.8c-3.2-0.4,7.7-18.3,7.7-25.2
			c0-6.8-13.2-31.2-13.2-31.2L213.7,251.4L213.7,251.4z"/>
		<path class="st52" d="M258.3,305.6c0,0,4.5,3,6,9.4c1.3,5.3,0,9.8,0,9.8l-0.9-0.9c0,0,1.1-6.4-0.6-10.7
			C260.8,309.2,258.3,305.6,258.3,305.6z"/>
		<path class="st52" d="M247.8,325.2c0,0,0.4-6-0.6-9.2c-1.1-3-3.6-5.8-3.6-5.8s1.7,3.8,2.3,6.6c0.9,2.8,1.1,6.8,1.1,6.8
			L247.8,325.2z"/>
		<path class="st52" d="M231.2,315c0,0,0.6,2.8,0.4,5.3c0,1.7-0.6,4.5-0.6,4.5l-1.1-1.5c0,0,0.6-1.9,0.9-3.4
			C231,318.4,231.2,315,231.2,315z"/>
	</g>
	<path id="earF" d="M322.5,127.4c0,0,52.1-30.1,62.3-27.1c10.5,2.8,38,35.4,30.9,45c-7,9.6-18.1,10-23.3,6.4
		c-5.1-3.6-9.8-33.9-13.4-37.1c-3.6-3.2-54.6,19.6-54.6,19.6L322.5,127.4z"/>
	<path id="earB" d="M376.5,170.5c0,0,48-3,52.3,1.9c4.3,4.9,9.4,64-0.2,71.5c-8.7,6.8-22.4,1.7-25.4-11.1
		c-2.3-10.5,15.6-42.5,15.1-48.2c-0.4-5.8-39.9-9.4-39.9-9.4L376.5,170.5z"/>
	<path id="tail" class="st54" d="M126.6,114.6c0,0-27.5,4.9-63.8-1.1C33,108.8,4.4,92,0.7,96c-3.6,4.3,5.5,39.5,36.9,51.6
		c20.9,8.1,40.5-16,43.5-14.1s-7.7,14.9-17.9,22c-3.8,2.8,14.7,5.8,25.4-6.2c6.4-7.3,10.2-18.3,12.6-18.3c2.3,0-7.5,24.3-3.6,25
		c3.6,0.6,9.4-3,17.9-14.3c9.6-12.6,10.7-22.2,10.7-22.2L126.6,114.6z"/>
	<path id="eyebrow" class="st55" d="M378.4,175.2c0,0,13.9,7,16.2,17.1c2.3,10-2.3,13.7-5.1,14.1c-2.6,0.4-7.5-1.9-7.5-1.9
		l-14.9-15.6L378.4,175.2z"/>
	<path id="body" class="st56" d="M374.8,253.7l-12.4-32l12.8-39c0,0,6,0.2,7.7-10c1.5-10.2-11.5-22.6-22.2-24.3
		c-10.5-1.9-33.7-1.9-33.7-1.9s5.3-15.1-1.7-30.9s-33.5-38.4-35.6-35.8c-2.1,2.6,15.6,41.6,13.9,42.9c-1.7,1.3-12.6-17.5-21.1-24.5
		c-8.7-7-27.1-17.9-28.2-15.4c-1.3,2.6,21.5,35.6,21.5,35.6s-13.7-11.1-22-15.1c-8.5-4.1-22.2-8.1-22.8-6
		c-0.6,1.9,16.4,22.6,15.1,23s-116.7-8.7-119.3-5.3c-2.3,3.2-12.2,65.1-6.6,92.4c4.1,19.6,17.3,45.2,58.7,51.4
		c41.4,6.2,42.2-0.2,55.5-2.3c9.4-1.5,21.1,6.2,21.1,6.2s11.9,13.2,37.8,23.7c25.2,10.2,46.5,12.8,46.5,12.8L374.8,253.7z"/>
	
		<ellipse id="eyeB" transform="matrix(0.1195 -0.9928 0.9928 0.1195 124.0908 538.8694)" class="st57" cx="365.9" cy="199.5" rx="20.9" ry="20.9"/>
	
		<ellipse id="eyeballB" transform="matrix(0.1196 -0.9928 0.9928 0.1196 120.6422 559.3513)" cx="375.7" cy="211.7" rx="4.3" ry="4.3"/>
	
		<ellipse id="eyeF" transform="matrix(0.1196 -0.9928 0.9928 0.1196 120.5088 504.3969)" class="st0" cx="344.7" cy="184.2" rx="26" ry="26"/>
	
		<ellipse id="eyeballF" transform="matrix(0.1196 -0.9928 0.9928 0.1196 119.029 529.7227)" cx="358.2" cy="197.7" rx="4.9" ry="4.9"/>
	<path class="st56" d="M308.4,191.8c0,0,7.5-2.6,16.6,0c12.8,3.6,43.5,21.5,44.2,28.2c0.4,4.5-5.3,3.8-6.4,3.6
		c-0.9-0.2-11.5-1.7-29-10.7C316.3,203.8,308.4,191.8,308.4,191.8z"/>
	<path id="mounth" d="M255.5,262c0,0-10-21.1-6.4-41.8c3.6-20.5,20.5-39.3,20.5-39.3s-16.9,14.5-22,36.1
		c-4.9,20.7,4.5,43.1,4.5,43.1L255.5,262z"/>
	<g id="step3">
		<path class="st58" d="M503,362.1c0,0-1.3,17.1-2.8,17.9c-1.5,0.9-28.2-2.6-25.8-9.2C479.1,357.8,503,362.1,503,362.1z"/>
		<path class="st58" d="M513.9,360.6l-2.3,21.1c0,0,36.9,9.2,52.7,4.7c10.9-3,24.5-19.6,16-24.3
			C571.5,357.4,513.9,360.6,513.9,360.6z"/>
	</g>
	<g id="step2_1_">
		<path class="st58" d="M402.1,325.4c-2.3,6.4,24.3,10,25.8,9.2c1.5-0.9,2.8-17.9,2.8-17.9S406.8,312.2,402.1,325.4z"/>
		<path class="st58" d="M507.9,316.7c-8.5-4.7-66.4-1.5-66.4-1.5l-2.3,21.1c0,0,36.9,9.2,52.7,4.7
			C502.6,338,516.4,321.4,507.9,316.7z"/>
	</g>
	<g id="step1">
		<path class="st58" d="M296.9,348c0,0-1.3,17.1-2.8,17.9c-1.5,0.9-28.2-2.8-25.8-9.2C273,343.8,296.9,348,296.9,348z"/>
		<path class="st58" d="M307.8,346.5l-2.3,21.1c0,0,36.9,9.2,52.7,4.7c10.9-3,24.5-19.6,16-24.3S307.8,346.5,307.8,346.5z"/>
	</g>
	<g id="nose">
		<ellipse transform="matrix(0.1195 -0.9928 0.9928 0.1195 35.7796 609.3759)" cx="361.5" cy="284.5" rx="42.7" ry="40.3"/>
		<ellipse transform="matrix(0.57 -0.8216 0.8216 0.57 -59.1293 419.2339)" class="st58" cx="371" cy="266.1" rx="9.4" ry="18.6"/>
	</g>
</g>
<g id="say">
	<g id="baloon">
		<g>
			<path class="st59" d="M728.9,157.1c7.5-29.2-4.3-41.2-21.3-53.6C681.4,84.1,556.1,11.8,535,3c-16.9-7-33.3-1.7-51,15.4
				c-14.7,14.1-42.2,35-50.8,46.9c-11.1,15.4-20.9,42.7-0.2,63.8c18.6,18.8,40.1,33.1,80.9,61.2c25.8,17.9,37.1,27.1,26,31.4
				c-15.1,5.8-63.2,0.6-55,6.6c25.6,18.8,58.9,32.2,81.7,37.8c16,3.8,33.7,4.5,47.8,0c19.4,14.7,17.3,14.9,23.3,18.1
				c19.2,10.9,35.8,4.5,48-11.7C699.7,254.4,724.3,175,728.9,157.1z"/>
			<path class="st0" d="M730.9,157.3c7.5-28.8-5.3-42.5-21.8-54.6C683.3,83.7,560.6,13,539.7,4.3c-16.6-6.8-32.6-1.5-50.4,15.4
				c-14.5,13.9-41.2,34.1-49.7,45.9c-10.9,15.1-20.7,42-0.2,62.9c18.1,18.3,39.3,32.4,79.4,60.2c25.4,17.5,36.5,26.7,25.6,30.9
				c-14.7,5.8-62.3,1.1-54,6.6c23.7,16,59.7,32,82.4,36.7c16.2,3.4,30.9,4.7,45,0c19,14.5,16.9,14.5,22.6,17.7
				c19,10.7,34.1,2.3,46.3-13.2C701.9,247.5,726.4,174.8,730.9,157.3z"/>
		</g>
		<path class="st60" d="M720,157.5c7-27.1-4.9-39.9-20.5-51.4C675.2,88.2,561,22.4,541.4,14.3c-15.6-6.4-30.7-1.5-47.2,14.3
			c-13.7,13-36.9,29.9-44.8,41c-10.2,14.3-19.4,39.7-0.2,59.1c17.1,17.3,53.6,42.7,91.3,68.7c23.9,16.4,27.5,22.4,17.3,26.5
			c-13.9,5.3-57,2.1-45.9,7.5c19.4,9.2,39.9,17.9,63.4,22.6c13,2.6,29.2,4.1,42.2-0.2c17.9,13.7,14.7,13,20.3,16
			c17.7,10,30.9,3.6,42.5-11.1C694.6,240.1,715.7,173.9,720,157.5z"/>
	</g>
	<g id="text_1_">
		<path d="M512.9,68l-2.1-1.4c-0.3-0.2-0.8-0.6-1.3-1c-0.5-0.5-0.7-0.9-0.6-1.5c1.5-2.5,3.1-5.1,5.1-7.8l11.8-15.8
			c0.2-0.3,0.6-0.4,1-0.4s0.9,0.3,1.4,0.6s0.8,0.8,1,1.3c0.2,0.5,0.1,1-0.2,1.5c-0.7,0.8-2.4,2.8-5.3,6c-2.8,3.3-5.1,6-6.6,8.2
			c-1.6,2.2-2.9,4.3-4.1,6.3c0.1,0.1,0.3,0.2,0.7,0.5c0.4,0.3,1.5,1,3.4,2c1.9,1,3,1.7,3.5,2.1c1.2,0.9,1.5,1.7,0.9,2.6
			c-0.5,0.7-1.2,1-2.1,0.8c-1-0.2-1.8-0.6-2.5-1.1c-0.8-0.5-1.3-0.9-1.8-1.2L512.9,68z"/>
		<path d="M545.1,65.9c0.7,1.7,0.7,3.1-0.1,4.2c-0.8,1.1-2.2,1.9-4.2,2.2c-2,0.3-3.9,0-5.7-1c-0.2-0.1-0.3-0.2-0.4-0.2
			c-0.1-0.1-0.2-0.1-0.4-0.2c-0.2-0.1-0.3-0.2-0.4-0.2c-0.1-0.1-0.2-0.1-0.4-0.3s-0.3-0.2-0.4-0.2c-0.1-0.1-0.2-0.2-0.4-0.3
			c-0.2-0.1-0.3-0.2-0.4-0.3c-1.1,2.2-1.7,3.8-1.7,4.8c0.3,1.1,0.7,1.9,1.2,2.3c1.3,0.9,2.8,1.2,4.7,0.9c1.9-0.3,3-0.3,3.6,0.1
			c0.2,0.1,0.3,0.5,0.5,1.2c0.2,0.7,0.1,1.2-0.1,1.5c-0.3,0.4-0.8,0.6-1.6,0.8c-0.8,0.2-1.8,0.3-2.9,0.4s-2.3-0.1-3.6-0.4
			c-1.3-0.3-2.4-0.8-3.3-1.4c-0.9-0.6-1.5-1.4-1.9-2.3c-0.7-1.6-0.7-3.5,0-5.7c0.6-2.2,1.6-4.3,3-6.3c1.4-2,3.1-3.4,5.1-4.4
			c2.2-1.1,4.5-0.8,6.8,0.8C543.4,63,544.4,64.2,545.1,65.9z M541.4,68c0.8-1.1,0.4-2.1-1-3.1c-1-0.7-2.2-0.7-3.7-0.1
			c-0.5,0.2-0.9,0.5-1.3,0.8c-0.4,0.4-0.8,0.8-1.3,1.2C537.7,69.4,540.1,69.7,541.4,68z"/>
		<path d="M563.4,64.4l-3.5,4.5c-0.2,0.3-1,1.6-2.4,3.8c1.5,1.1,3.1,2.1,4.6,3c0.6,0.7,0.7,1.4,0.2,2.2c-0.5,0.7-1.1,1-1.9,1
			c-0.7-0.1-1.4-0.3-1.9-0.6c-0.5-0.3-0.9-0.6-1.2-0.8c-0.3-0.2-0.6-0.5-1.1-0.8c-0.4-0.3-0.7-0.6-0.9-0.7c-0.1,0.2-0.6,1-1.4,2.2
			c-0.8,1.2-1.3,2-1.5,2.4c-2.3,3.6-4,6.7-5.2,9.1c-0.4,0.4-1,0.7-1.6,0.8c-0.6,0.1-1.2,0-1.6-0.3s-0.6-0.9-0.4-1.6
			c1.2-2.6,2.9-5.5,5-8.7c2.1-3.3,3.4-5.2,3.8-5.9c-0.4-0.2-1-0.7-1.9-1.3c-0.9-0.6-1.6-1.2-2-1.8c-0.5-0.6-0.6-1.2-0.1-1.8
			c0.9-1.3,2.1-1.4,3.6-0.3l1.8,1.4c0.3,0.2,0.6,0.4,0.8,0.5c1.7-2.7,2.6-4,2.7-4.1c0.1-0.2,0.4-0.6,0.9-1.2
			c0.5-0.6,1.1-1.5,2.1-2.6c0.4-0.4,0.9-0.6,1.5-0.6c0.6,0,1.1,0.1,1.5,0.4C563.7,62.9,563.8,63.6,563.4,64.4z"/>
		<path d="M572.8,68.6c0.4-0.3,0.7-0.5,1.1-0.6c0.4,0,0.8,0,1.1,0.3c0.6,0.4,0.8,1.1,0.6,2.1c-0.8,1.2-1.7,2.2-2.8,3
			c-1.9,1.6-3.4,2-4.4,1.3c-0.8-0.6-1-1.3-0.3-2.2c0.2-0.3,0.4-0.5,0.7-0.7c0.9-0.2,1.6-0.5,2.2-1C571.5,70.2,572.2,69.5,572.8,68.6
			z"/>
		<path d="M579,88c0.9,0.7,1.8,1.5,2.6,2.5c1.4,1.9,1.8,3.4,1.1,4.3c-0.3,0.4-0.7,0.6-1.3,0.6c-0.6,0-1.1-0.2-1.6-0.5
			c-0.1-0.1-0.5-0.7-1.2-1.9c-0.7-1.2-1.4-2-2-2.5c-0.6-0.4-1.3-0.7-2.1-0.7c-0.8,0-1.4,0.3-1.8,0.8c-0.4,0.6-0.6,1.2-0.6,1.8
			c0,0.6,0.2,1.2,0.6,1.8s0.8,1.1,1.4,1.7c1.4,1.5,2.4,2.7,2.8,3.4c0.8,1.4,0.6,2.8-0.6,4.4s-2.8,2.6-4.8,2.9
			c-2.1,0.4-3.8,0-5.2-0.9c-1.4-1-2.4-1.9-3.1-2.9c-1.2-1.7-1.4-3.1-0.7-4c0.6-0.9,1.5-1,2.6-0.2c0.5,0.4,1.1,1.1,1.7,2.2
			s1.2,1.9,1.8,2.3c0.6,0.4,1.4,0.5,2.5,0.1s1.8-0.9,2.3-1.6c0.1-0.2,0.2-0.4,0.4-0.7c-0.2-1.2-1.2-2.6-3-4.4
			c-0.6-0.6-1.2-1.3-1.7-2.1c-1.1-1.6-0.9-3.5,0.7-5.7c1.1-1.5,2.5-2.4,4.2-2.5C575.7,86.3,577.4,86.8,579,88z"/>
		<path d="M608,109.7c0.2,0.4,0.2,0.8,0,1.1c-0.4,0.5-0.9,1-1.7,1.4c-0.7,0.4-1.4,0.5-1.9,0.1c-0.2-0.2-0.6-0.7-1.1-1.5
			c-0.5-0.8-1-1.3-1.3-1.6c-1.4-1-3.1-1.4-4.9-1.1c-1.8,0.3-3.4,1.3-4.6,3.1s-2,3.3-2.1,4.6c-0.1,1.3,0.6,2.5,2,3.5
			c0.8,0.6,2,1,3.7,1.2c1.7,0.2,2.7,0.5,3.1,0.7s0.6,0.6,0.6,0.9c0.1,0.4,0,0.7-0.2,1c-0.5,0.6-1.3,1-2.6,1.1
			c-1.3,0.1-2.6,0-4.1-0.4c-1.4-0.4-2.6-0.9-3.6-1.6c-2.1-1.5-3.1-3.4-3.1-5.9c0-2.4,1-5.1,3-7.8c1.3-1.8,2.8-3,4.8-3.7
			c1.9-0.7,3.8-1,5.7-0.7c1.9,0.3,3.6,1,5.2,2.2C606.6,107.7,607.6,108.8,608,109.7z"/>
		<path d="M603.4,125.3l0.9-1.1c1.1-1.6,2.2-3.4,3.3-5.4c1.1-2,1.8-3.6,2.2-4.8c0.4-1.1,0.6-1.8,0.8-2c0.2-0.2,0.5-0.4,1-0.4
			c0.5,0,1,0.1,1.4,0.4c0.4,0.3,0.7,0.7,0.7,1.2c0,0.5-0.1,1-0.2,1.4s-0.5,0.9-0.8,1.5c-0.4,0.6-0.6,1-0.7,1.2
			c1.8-1.1,3.7-1.4,5.7-1c1,0.2,2,0.7,3,1.4c2.1,1.5,2.8,2.8,2,3.9c-0.5,0.7-1.2,0.9-2.1,0.8c-0.4-0.1-0.7-0.2-1-0.3l-1-0.9
			c-3.2-2.3-7.1-0.3-11.6,6.1l-2.5,3.5l-0.1,0.1c-0.4,0.4-1,0.6-1.6,0.7c-0.6,0.1-1.1,0-1.5-0.3c-0.6-0.4-0.6-1.1-0.1-2.2
			C601.6,128,602.3,126.7,603.4,125.3z"/>
		<path d="M635.3,130.1c0.7,1.7,0.7,3.1-0.1,4.2s-2.2,1.9-4.2,2.2c-2,0.3-3.9,0-5.7-1c-0.2-0.1-0.3-0.2-0.4-0.2
			c-0.1-0.1-0.2-0.1-0.4-0.2c-0.2-0.1-0.3-0.2-0.4-0.2c-0.1-0.1-0.2-0.1-0.4-0.3c-0.2-0.1-0.3-0.2-0.4-0.2s-0.2-0.2-0.4-0.3
			c-0.2-0.1-0.3-0.2-0.4-0.3c-1.1,2.2-1.7,3.8-1.7,4.8c0.3,1.1,0.7,1.9,1.2,2.3c1.3,0.9,2.8,1.2,4.7,0.9c1.9-0.3,3-0.3,3.5,0.1
			c0.2,0.1,0.3,0.5,0.5,1.2s0.1,1.2-0.1,1.5c-0.3,0.4-0.8,0.6-1.6,0.8c-0.8,0.2-1.8,0.3-2.9,0.4c-1.1,0.1-2.3-0.1-3.6-0.4
			c-1.3-0.3-2.4-0.8-3.3-1.4c-0.9-0.6-1.5-1.4-1.9-2.3c-0.7-1.6-0.7-3.5,0-5.7c0.6-2.2,1.6-4.3,3-6.3c1.4-2,3.1-3.4,5.1-4.4
			c2.2-1.1,4.5-0.8,6.8,0.8C633.6,127.2,634.6,128.5,635.3,130.1z M631.7,132.2c0.8-1.1,0.4-2.1-1-3.1c-1-0.7-2.2-0.7-3.7-0.1
			c-0.5,0.2-0.9,0.5-1.3,0.8c-0.4,0.4-0.8,0.8-1.3,1.2C628,133.6,630.4,134,631.7,132.2z"/>
		<path d="M652.2,145.5l-2,2.7c-0.7,1-1.7,2.3-3,3.7c-1.8,2.8-3.3,5.5-4.3,8c-0.3,0.2-0.6,0.3-1.1,0.2c-0.5-0.1-0.9-0.2-1.3-0.5
			s-0.7-0.5-0.8-0.8s-0.2-0.5-0.1-0.8c0.1-0.3,0.1-0.5,0.2-0.7c0.1-0.2,0.2-0.4,0.4-0.7c0.2-0.3,0.3-0.4,0.3-0.5
			c-2.1,0.4-4.1-0.1-6-1.5c-1.9-1.4-2.8-3.1-2.6-5.2c0.2-2.1,1.3-4.4,3.1-7.1c3.3-4.6,6.7-6.6,10.2-6c1.1,0.2,2.2,0.7,3.2,1.4
			c1,0.7,1.9,1.7,2.7,2.7c0.7-0.2,1.3-0.1,1.9,0.3c1.1,0.8,1,2-0.1,3.6C652.7,144.8,652.4,145.2,652.2,145.5z M641.9,152
			c1.5-1.1,2.8-2.4,4-4s1.8-2.9,2-4c0.2-1-0.3-1.9-1.2-2.6c-0.4-0.3-1-0.6-1.7-1c-0.7-0.4-1.7-0.2-3.1,0.4c-1.3,0.7-2.3,1.4-2.8,2.1
			l-1.1,1.5c-1.9,2.7-2.6,4.8-2,6.3c0.2,0.5,0.5,0.9,1.1,1.3c0.6,0.4,1.3,0.6,2.3,0.6C640.3,152.7,641.2,152.4,641.9,152z"/>
		<path d="M671.3,141.2l-3.5,4.5c-0.2,0.3-1,1.6-2.4,3.8c1.5,1.1,3.1,2.1,4.6,3c0.6,0.7,0.7,1.4,0.2,2.2c-0.5,0.7-1.1,1-1.9,1
			c-0.7-0.1-1.4-0.3-1.9-0.6c-0.5-0.3-0.9-0.6-1.2-0.8c-0.3-0.2-0.6-0.5-1.1-0.8c-0.4-0.3-0.7-0.6-0.9-0.7c-0.1,0.2-0.6,1-1.4,2.2
			c-0.8,1.2-1.3,2-1.5,2.4c-2.3,3.6-4,6.7-5.2,9.1c-0.4,0.4-1,0.7-1.6,0.8c-0.6,0.1-1.2,0-1.6-0.3c-0.4-0.3-0.6-0.9-0.4-1.6
			c1.2-2.6,2.9-5.5,5-8.7c2.1-3.3,3.4-5.2,3.8-5.9c-0.4-0.2-1-0.7-1.9-1.3c-0.9-0.6-1.6-1.2-2-1.8c-0.5-0.6-0.6-1.2-0.1-1.8
			c0.9-1.3,2.1-1.4,3.6-0.3l1.8,1.4c0.3,0.2,0.6,0.4,0.8,0.5c1.7-2.7,2.6-4,2.7-4.1c0.1-0.2,0.4-0.6,0.9-1.2s1.1-1.5,2.1-2.6
			c0.4-0.4,0.9-0.6,1.5-0.6s1.1,0.1,1.5,0.4C671.6,139.7,671.7,140.3,671.3,141.2z"/>
		<path d="M681.5,163c0.7,1.7,0.7,3.1-0.1,4.2c-0.8,1.1-2.2,1.9-4.2,2.2c-2,0.3-3.9,0-5.7-1c-0.2-0.1-0.3-0.2-0.4-0.2
			c-0.1-0.1-0.2-0.1-0.4-0.2s-0.3-0.2-0.4-0.2c-0.1-0.1-0.2-0.1-0.4-0.3c-0.2-0.1-0.3-0.2-0.4-0.2c-0.1-0.1-0.2-0.2-0.4-0.3
			c-0.2-0.1-0.3-0.2-0.4-0.3c-1.1,2.2-1.7,3.8-1.7,4.8c0.3,1.1,0.7,1.9,1.2,2.3c1.3,0.9,2.8,1.2,4.7,0.9c1.9-0.3,3-0.3,3.6,0.1
			c0.2,0.1,0.3,0.5,0.5,1.2c0.2,0.7,0.1,1.2-0.1,1.5c-0.3,0.4-0.8,0.6-1.6,0.8s-1.8,0.3-2.9,0.4c-1.1,0.1-2.3-0.1-3.6-0.4
			c-1.3-0.3-2.4-0.8-3.3-1.4s-1.5-1.4-1.9-2.3c-0.7-1.6-0.7-3.5,0-5.7c0.6-2.2,1.6-4.3,3-6.3c1.4-2,3.1-3.4,5.1-4.4
			c2.2-1.1,4.5-0.8,6.8,0.8C679.8,160,680.8,161.3,681.5,163z M677.8,165.1c0.8-1.1,0.4-2.1-1-3.1c-1-0.7-2.2-0.7-3.7-0.1
			c-0.5,0.2-0.9,0.5-1.3,0.8s-0.8,0.8-1.3,1.2C674.2,166.4,676.6,166.8,677.8,165.1z"/>
		<path d="M495.5,90.4l-2,2.7c-0.7,1-1.7,2.3-3,3.7c-1.8,2.8-3.3,5.5-4.3,8c-0.3,0.2-0.6,0.3-1.1,0.2s-0.9-0.2-1.3-0.5
			s-0.7-0.5-0.8-0.8c-0.2-0.3-0.2-0.5-0.1-0.8c0.1-0.3,0.1-0.5,0.2-0.7c0.1-0.2,0.2-0.4,0.4-0.7c0.2-0.3,0.3-0.4,0.3-0.5
			c-2.1,0.4-4.1-0.1-6-1.5c-1.9-1.4-2.8-3.1-2.6-5.2c0.2-2.1,1.3-4.4,3.1-7.1c3.3-4.6,6.7-6.6,10.2-6c1.1,0.2,2.2,0.7,3.2,1.4
			c1,0.7,1.9,1.7,2.7,2.7c0.7-0.2,1.3-0.1,1.9,0.3c1.1,0.8,1,2-0.1,3.6C495.9,89.8,495.7,90.1,495.5,90.4z M485.1,96.9
			c1.5-1.1,2.8-2.4,4-4c1.1-1.6,1.8-2.9,2-4s-0.3-1.9-1.2-2.6c-0.4-0.3-1-0.6-1.7-1c-0.7-0.4-1.7-0.2-3.1,0.4
			c-1.3,0.7-2.3,1.4-2.8,2.1l-1.1,1.5c-1.9,2.7-2.6,4.8-2,6.3c0.2,0.5,0.5,0.9,1.1,1.3c0.6,0.4,1.3,0.6,2.3,0.6
			S484.4,97.4,485.1,96.9z"/>
		<path d="M517.2,100.5c0.9,0.7,1.8,1.5,2.6,2.5c1.4,1.9,1.8,3.4,1.1,4.3c-0.3,0.4-0.7,0.7-1.3,0.6s-1.1-0.2-1.6-0.5
			c-0.1-0.1-0.5-0.7-1.2-1.9s-1.4-2-2-2.5s-1.3-0.7-2.1-0.7c-0.8,0-1.4,0.3-1.8,0.8s-0.6,1.2-0.6,1.8c0,0.6,0.2,1.2,0.6,1.8
			c0.4,0.5,0.8,1.1,1.4,1.7c1.4,1.5,2.4,2.7,2.8,3.4c0.8,1.4,0.6,2.8-0.6,4.4c-1.1,1.6-2.8,2.6-4.8,2.9c-2.1,0.4-3.8,0-5.2-0.9
			c-1.4-1-2.4-1.9-3.1-2.9c-1.2-1.7-1.4-3.1-0.7-4c0.6-0.9,1.5-1,2.6-0.2c0.5,0.4,1.1,1.1,1.7,2.2c0.6,1.1,1.2,1.9,1.8,2.3
			s1.4,0.5,2.5,0.1c1-0.4,1.8-0.9,2.3-1.6c0.1-0.2,0.2-0.4,0.4-0.7c-0.2-1.2-1.2-2.6-3-4.4c-0.6-0.6-1.2-1.3-1.7-2.1
			c-1.1-1.6-0.9-3.5,0.7-5.7c1.1-1.5,2.5-2.4,4.2-2.5C513.9,98.8,515.6,99.3,517.2,100.5z"/>
		<path d="M535.1,115.3c0.7,1.7,0.7,3.1-0.1,4.2c-0.8,1.1-2.2,1.9-4.2,2.2c-2,0.3-3.9,0-5.7-1c-0.2-0.1-0.3-0.2-0.4-0.2
			s-0.2-0.1-0.4-0.2c-0.2-0.1-0.3-0.2-0.4-0.2c-0.1-0.1-0.2-0.1-0.4-0.3c-0.2-0.1-0.3-0.2-0.4-0.2s-0.2-0.2-0.4-0.3
			c-0.2-0.1-0.3-0.2-0.4-0.3c-1.1,2.2-1.7,3.8-1.7,4.8c0.3,1.1,0.7,1.9,1.2,2.3c1.3,0.9,2.8,1.2,4.7,0.9c1.9-0.3,3-0.3,3.5,0.1
			c0.2,0.1,0.3,0.5,0.5,1.2c0.2,0.7,0.1,1.2-0.1,1.5c-0.3,0.4-0.8,0.6-1.6,0.8s-1.8,0.3-2.9,0.4c-1.1,0.1-2.3-0.1-3.6-0.4
			c-1.3-0.3-2.4-0.8-3.3-1.4s-1.5-1.4-1.9-2.3c-0.7-1.6-0.7-3.5,0-5.7c0.6-2.2,1.6-4.3,3-6.3s3.1-3.4,5.1-4.4
			c2.2-1.1,4.5-0.8,6.8,0.8C533.4,112.3,534.4,113.6,535.1,115.3z M531.4,117.4c0.8-1.1,0.4-2.1-1-3.1c-1-0.7-2.2-0.7-3.7-0.1
			c-0.5,0.2-0.9,0.5-1.3,0.8c-0.4,0.4-0.8,0.8-1.3,1.2C527.8,118.7,530.2,119.1,531.4,117.4z"/>
		<path d="M552.8,126.9c0.2,0.4,0.2,0.8,0,1.1c-0.4,0.5-0.9,1-1.7,1.4c-0.7,0.4-1.4,0.5-1.9,0.1c-0.2-0.2-0.6-0.7-1.1-1.5
			s-1-1.3-1.3-1.6c-1.4-1-3.1-1.4-4.9-1.1c-1.8,0.3-3.4,1.3-4.6,3.1c-1.3,1.8-2,3.3-2.1,4.6s0.6,2.5,2,3.5c0.8,0.6,2,1,3.7,1.2
			c1.7,0.2,2.7,0.5,3.1,0.7c0.4,0.3,0.6,0.6,0.6,0.9c0.1,0.4,0,0.7-0.2,1c-0.5,0.6-1.3,1-2.6,1.1c-1.3,0.1-2.6,0-4.1-0.4
			c-1.4-0.4-2.6-0.9-3.6-1.6c-2.1-1.5-3.1-3.4-3.1-5.9c0-2.4,1-5.1,3-7.8c1.3-1.8,2.8-3,4.8-3.7c1.9-0.7,3.8-1,5.7-0.7
			c1.9,0.3,3.6,1,5.2,2.2C551.4,124.9,552.4,126,552.8,126.9z"/>
		<path d="M548.2,142.5l0.9-1.1c1.1-1.6,2.2-3.4,3.3-5.4c1.1-2,1.8-3.6,2.2-4.7c0.4-1.1,0.6-1.8,0.8-2c0.2-0.2,0.5-0.4,1-0.4
			c0.5,0,1,0.1,1.4,0.4c0.4,0.3,0.7,0.7,0.7,1.2c0,0.5-0.1,1-0.2,1.4c-0.2,0.4-0.5,0.9-0.8,1.5c-0.4,0.6-0.6,1-0.7,1.2
			c1.8-1.1,3.7-1.4,5.7-1c1,0.2,2,0.7,3,1.4c2.1,1.5,2.8,2.8,2,3.9c-0.5,0.7-1.2,0.9-2.1,0.8c-0.4-0.1-0.7-0.2-1-0.3l-1-0.9
			c-3.2-2.3-7.1-0.3-11.7,6.1l-2.4,3.5l-0.1,0c-0.4,0.4-1,0.6-1.6,0.7c-0.6,0.1-1.1,0-1.5-0.3c-0.6-0.4-0.6-1.1-0.1-2.2
			C546.4,145.2,547.1,143.9,548.2,142.5z"/>
		<path d="M580.2,147.3c0.7,1.7,0.7,3.1-0.1,4.2c-0.8,1.1-2.2,1.9-4.2,2.2c-2,0.3-3.9,0-5.7-1c-0.2-0.1-0.3-0.2-0.4-0.2
			c-0.1-0.1-0.2-0.1-0.4-0.2c-0.2-0.1-0.3-0.2-0.4-0.2s-0.2-0.1-0.4-0.3c-0.2-0.1-0.3-0.2-0.4-0.2s-0.2-0.2-0.4-0.3
			c-0.2-0.1-0.3-0.2-0.4-0.3c-1.1,2.2-1.7,3.8-1.7,4.8c0.3,1.1,0.7,1.9,1.2,2.3c1.3,0.9,2.8,1.2,4.7,0.9s3-0.3,3.6,0.1
			c0.2,0.1,0.3,0.5,0.5,1.2c0.2,0.7,0.1,1.2-0.1,1.5c-0.3,0.4-0.8,0.6-1.6,0.8c-0.8,0.2-1.8,0.3-2.9,0.4c-1.1,0.1-2.3-0.1-3.6-0.4
			c-1.3-0.3-2.4-0.8-3.3-1.4s-1.5-1.4-1.9-2.3c-0.7-1.6-0.7-3.5,0-5.7c0.6-2.2,1.6-4.3,3-6.3c1.4-2,3.1-3.4,5.1-4.4
			c2.2-1.1,4.5-0.8,6.8,0.8C578.4,144.4,579.4,145.7,580.2,147.3z M576.5,149.4c0.8-1.1,0.4-2.1-1-3.1c-1-0.7-2.2-0.7-3.7-0.1
			c-0.5,0.2-0.9,0.5-1.3,0.8c-0.4,0.4-0.8,0.8-1.3,1.2C572.8,150.8,575.2,151.2,576.5,149.4z"/>
		<path d="M598.5,145.8l-3.5,4.5c-0.2,0.3-1,1.6-2.4,3.8c1.5,1.1,3.1,2.1,4.6,3c0.6,0.7,0.7,1.4,0.2,2.2s-1.1,1-1.9,1
			c-0.7-0.1-1.4-0.3-1.9-0.6c-0.5-0.3-0.9-0.6-1.2-0.8c-0.3-0.2-0.6-0.5-1.1-0.8c-0.4-0.3-0.7-0.6-0.9-0.7c-0.1,0.2-0.6,1-1.4,2.2
			c-0.8,1.2-1.3,2-1.5,2.4c-2.3,3.6-4,6.7-5.2,9.1c-0.4,0.4-1,0.7-1.6,0.8s-1.2,0-1.6-0.3s-0.6-0.9-0.4-1.6c1.2-2.6,2.9-5.5,5-8.7
			c2.1-3.3,3.4-5.2,3.8-5.9c-0.4-0.2-1-0.7-1.9-1.3c-0.9-0.6-1.6-1.2-2-1.8c-0.5-0.6-0.6-1.2-0.1-1.8c0.9-1.3,2.1-1.4,3.6-0.3
			l1.8,1.4c0.3,0.2,0.6,0.4,0.8,0.5c1.7-2.7,2.6-4,2.7-4.1c0.1-0.2,0.4-0.6,0.9-1.2c0.5-0.6,1.1-1.5,2.1-2.6
			c0.4-0.4,0.9-0.6,1.5-0.6c0.6,0,1.1,0.1,1.5,0.4C598.8,144.4,598.9,145,598.5,145.8z"/>
		<path d="M619.8,174.6c0.2,0.4,0.2,0.8,0,1.1c-0.4,0.5-0.9,1-1.7,1.4c-0.7,0.4-1.4,0.5-1.9,0.1c-0.2-0.2-0.6-0.7-1.1-1.5
			c-0.5-0.8-1-1.3-1.3-1.6c-1.4-1-3.1-1.4-4.9-1.1c-1.8,0.3-3.4,1.3-4.6,3.1c-1.3,1.8-2,3.3-2.1,4.6c-0.1,1.3,0.6,2.5,2,3.5
			c0.8,0.6,2,1,3.7,1.2c1.7,0.2,2.7,0.5,3.1,0.7c0.4,0.3,0.6,0.6,0.6,0.9s0,0.7-0.2,1c-0.5,0.6-1.3,1-2.6,1.1
			c-1.3,0.1-2.6,0-4.1-0.4c-1.4-0.4-2.6-0.9-3.6-1.6c-2.1-1.5-3.1-3.4-3.1-5.9c0-2.4,1-5.1,3-7.8c1.3-1.8,2.8-3,4.8-3.7
			c1.9-0.7,3.8-0.9,5.7-0.7c1.9,0.3,3.6,1,5.2,2.2S619.4,173.6,619.8,174.6z"/>
		<path d="M626.2,179.4c1.3,0.1,2.6,0.6,3.8,1.4s1.9,2.1,2.2,3.8c0.5,3.2-0.5,6.4-2.8,9.8c-1.2,1.7-3,3.2-5.3,4.4
			c-1.1,0.6-2.3,0.8-3.5,0.9c-1.2,0-2.4-0.3-3.4-1.1c-1.1-0.7-1.9-1.8-2.4-3.1c-0.6-1.3-0.8-2.6-0.8-4c0.1-2.9,0.7-5.2,1.9-6.9
			c1.6-2.3,3.8-3.9,6.6-4.9C623.6,179.4,624.9,179.3,626.2,179.4z M619.8,196.5c1,0.1,2-0.1,3.1-0.7c1-0.6,1.9-1.4,2.5-2.4
			s1.2-1.8,1.6-2.7s0.7-1.7,0.9-2.6c0.2-0.9,0.2-1.8,0.1-2.6c-0.2-0.9-0.5-1.6-1.1-2.2c-1.3-0.6-2.6-0.6-4.2-0.1s-2.7,1.4-3.5,2.6
			c-0.8,1.1-1.3,2.8-1.5,5.1c-0.1,1.1,0,2.1,0.4,3.1C618.5,195.2,619.1,196,619.8,196.5z"/>
		<path d="M653.2,186.1c1-1.4,1.9-1.8,2.8-1.1c0.5,0.3,0.7,0.6,0.8,0.9c0.1,0.3,0,0.7-0.2,1.2s-0.8,1.4-1.7,2.7
			c-0.9,1.3-2.1,3-3.4,5c-1.3,2-2.4,3.6-3.1,4.7c-0.8,1.1-1.9,3-3.5,5.5c-1.5,2.5-2.9,4.6-4,6.1l-1.6,2.1c-0.4,0.4-0.8,0.6-1.2,0.6
			c-0.4-0.1-0.8-0.3-1.4-0.6c-0.5-0.4-0.6-0.9-0.3-1.7l0.3-0.7c-1.7,0.1-3.3-0.4-4.8-1.5c-2-1.4-3.1-3.3-3.2-5.6
			c-0.1-2.3,0.5-4.4,1.9-6.4c1.4-1.9,3.2-3.6,5.5-4.9c2.3-1.3,4.6-1.7,6.9-1.3c1.3,0.2,2.6,0.8,3.8,1.7c0.5,0.3,0.8,0.6,1,0.8
			l2.1-3.1l1.8-2.4L653.2,186.1z M638.6,207.2c0.4-0.3,0.9-0.9,1.7-1.9s1.2-1.6,1.2-1.7l0.5-0.7c1-1.4,1.7-2.8,2.2-4.1
			c0.5-1.4,0.5-2.2,0-2.6c-0.7-0.5-1.6-1-2.5-1.5c-1-0.5-1.7-0.6-2.3-0.4c-1.6,0.5-3.3,2-5.1,4.5c-1.3,1.8-1.7,3.5-1.2,5.3
			c0.2,1,0.7,1.8,1.5,2.3c0.8,0.5,1.5,0.9,2.3,1C637.7,207.5,638.2,207.5,638.6,207.2z"/>
		<path d="M664.3,207.2c0.7,1.7,0.7,3.1-0.1,4.2c-0.8,1.1-2.2,1.9-4.2,2.2c-2,0.3-3.9,0-5.7-1c-0.2-0.1-0.3-0.2-0.4-0.2
			c-0.1-0.1-0.2-0.1-0.4-0.2c-0.2-0.1-0.3-0.2-0.4-0.2c-0.1-0.1-0.2-0.1-0.4-0.3c-0.2-0.1-0.3-0.2-0.4-0.2s-0.2-0.2-0.4-0.3
			s-0.3-0.2-0.4-0.3c-1.1,2.2-1.7,3.8-1.7,4.8c0.3,1.1,0.7,1.9,1.2,2.3c1.3,0.9,2.8,1.2,4.7,0.9c1.9-0.3,3-0.3,3.5,0.1
			c0.2,0.1,0.3,0.5,0.5,1.2c0.2,0.7,0.1,1.2-0.1,1.5c-0.3,0.4-0.8,0.6-1.6,0.8c-0.8,0.2-1.8,0.3-2.9,0.4c-1.1,0.1-2.3-0.1-3.6-0.4
			c-1.3-0.3-2.4-0.8-3.3-1.4c-0.9-0.6-1.5-1.4-1.9-2.3c-0.7-1.6-0.7-3.5,0-5.7c0.6-2.2,1.6-4.3,3-6.3c1.4-2,3.1-3.4,5.1-4.4
			c2.2-1.1,4.5-0.8,6.8,0.8C662.6,204.2,663.6,205.5,664.3,207.2z M660.6,209.3c0.8-1.1,0.4-2.1-1-3.1c-1-0.7-2.2-0.7-3.7-0.1
			c-0.5,0.2-0.9,0.5-1.3,0.8c-0.4,0.4-0.8,0.8-1.3,1.2C657,210.6,659.4,211,660.6,209.3z"/>
		<path d="M661.3,225.2c0.3-0.4,0.8-0.7,1.4-0.9c0.6-0.2,1.2,0,1.8,0.4c0.6,0.4,1,0.9,1.1,1.3c0.1,0.4-0.1,1-0.7,1.9
			c-0.6,0.8-1.1,1.2-1.7,1.2c-0.6,0-1-0.1-1.4-0.4c-0.6-0.4-0.9-1-0.9-1.7C660.8,226.2,661,225.6,661.3,225.2z M681,204.3l-9.7,12.9
			c-0.9,1.2-1.5,2.1-1.9,2.8c-0.3,0.3-0.7,0.4-1.2,0.5c-0.5,0-0.9-0.1-1.3-0.3c-0.4-0.3-0.5-0.7-0.3-1.5c4.2-6.7,7.9-12.3,11-16.7
			c0.4-0.3,0.8-0.3,1.4-0.2c0.5,0.2,0.9,0.3,1.2,0.5C681.1,202.9,681.3,203.6,681,204.3z"/>
	</g>
</g>
<g id="eyeclose">
	<g id="eyeBclose">
		
			<ellipse transform="matrix(0.8729 -0.4878 0.4878 0.8729 -50.635 204.2657)" class="st55" cx="366.8" cy="199.3" rx="21.1" ry="21.1"/>
		<path class="st61" d="M381.6,212.5l-0.9,2.6c0,0-6.6-7.7-15.4-13.4c-6.6-4.5-14.3-7.5-20.5-7.3l0.9-2.1
			C346,192.3,363.5,189.7,381.6,212.5z"/>
	</g>
	<g id="eyeFclose">
		
			<ellipse transform="matrix(0.8729 -0.4878 0.4878 0.8729 -45.9469 191.4889)" class="st62" cx="344.6" cy="183.9" rx="25.8" ry="25.8"/>
		<path class="st61" d="M364.5,197.6l-1.1,3.2c0,0-8.7-9-19.8-15.8c-8.5-5.1-18.3-8.5-25.8-7.9l1.1-2.6
			C318.7,174.6,340.4,170.1,364.5,197.6z"/>
	</g>
	<g id="bodyClose">
		<path class="st56" d="M304.4,169c0,0,7.7-1.3,13.9,3.2c5.3,4.1,7,24.1,5.1,26.7C321,201.9,304.4,169,304.4,169z"/>
		<path class="st56" d="M308.4,191.8c0,0,7.5-2.6,16.6,0c12.8,3.6,43.5,21.5,44.2,28.2c0.4,4.5-5.3,3.8-6.4,3.6
			c-0.9-0.2-11.5-1.7-29-10.7C316.3,203.8,308.4,191.8,308.4,191.8z"/>
	</g>
</g>
</svg>
