<?xml version="1.0" encoding="utf-8"?>
<!-- Generator: Adobe Illustrator 21.0.0, SVG Export Plug-In . SVG Version: 6.00 Build 0)  -->
<svg version="1.1" id="Layer_1" xmlns="http://www.w3.org/2000/svg" xmlns:xlink="http://www.w3.org/1999/xlink" x="0px" y="0px"
	 viewBox="0 0 265.8 278.8" style="enable-background:new 0 0 265.8 278.8;" xml:space="preserve">
<style type="text/css">
	.st0{fill:#A7A8AC;}
	.st1{fill:#FFFFFF;}
	.st2{fill:#FFFFFF;stroke:#B8D432;stroke-width:1.5;stroke-miterlimit:10;}
	.st3{fill:#FDFDFD;}
	.st4{fill:#FBFBFB;}
	.st5{fill:#F9F9F9;}
	.st6{fill:#F7F7F7;}
	.st7{fill:#F5F5F5;}
	.st8{fill:#F3F3F3;}
	.st9{fill:#F1F1F1;}
	.st10{fill:#EFEFEF;}
	.st11{fill:#EDEDED;}
	.st12{fill:#EBEBEB;}
	.st13{fill:#E9E9E9;}
	.st14{fill:#E7E7E7;}
	.st15{fill:#E5E5E4;}
	.st16{fill:#E3E3E2;}
	.st17{fill:#E1E1E0;}
	.st18{fill:#DFDFDE;}
	.st19{fill:#DDDDDC;}
	.st20{fill:#DBDBDA;}
	.st21{fill:#D9D9D8;}
	.st22{fill:#D7D7D6;}
	.st23{fill:#D5D5D4;}
	.st24{fill:#D3D3D2;}
	.st25{fill:#D1D1D0;}
	.st26{fill:#CFCFCE;}
	.st27{fill:#CDCDCC;}
	.st28{fill:#CACACA;}
	.st29{fill:#C8C8C8;}
	.st30{fill:#C6C6C6;}
	.st31{fill:#C4C4C4;}
	.st32{fill:#C2C2C2;}
	.st33{fill:#C0C0C0;}
	.st34{fill:#BEBEBE;}
	.st35{fill:#BCBCBC;}
	.st36{fill:#BABABA;}
	.st37{fill:#B8B8B8;}
	.st38{fill:#B6B6B6;}
	.st39{fill:#B4B4B4;}
	.st40{fill:#B2B2B2;}
	.st41{fill:#B0B0AF;}
	.st42{fill:#AEAEAD;}
	.st43{fill:#ACACAB;}
	.st44{fill:#AAAAA9;}
	.st45{fill:#A8A8A7;}
	.st46{fill:#A6A6A5;}
	.st47{fill:#A4A4A3;}
	.st48{fill:#A2A2A1;}
	.st49{fill:#A0A09F;}
	.st50{fill:#9E9E9D;}
	.st51{fill:#9C9C9B;}
	.st52{fill:#9A9A99;}
	.st53{fill:#989897;}
	.st54{fill:#B56F29;}
	.st55{fill:#754D24;}
	.st56{fill:#D18029;}
	.st57{fill:#F69220;}
	.st58{fill:#343433;}
	.st59{fill:#CBCBCA;}
	.st60{fill:#1A1A1A;}
</style>
<g>
	<path class="st0" d="M9.8,22.3C13.3,11,14.9,5.5,23.1,4.9c12.7-1.1,98.8,17.7,107.6,20.4c6.9,2.1,11.5,6.8,13.9,16.1
		c2,7.7,8,31.5,8.4,37.2c0.5,7.4,6.6,22.8-4.8,25.3c-4.3,0.9-16.1,2.2-18.4,2.3c-12.3,0.6-14.6,0.7-11.8,4.4
		c3.8,5,20.9,13.2,17,13.5c-12.4,1-26.2-1.3-35-4.2c-6.1-2-12.1-5.4-15.9-9.8c-9.5,0.9-64.6-1.2-67.2-1.3C8.2,108.4,4,102.9,3.2,95
		C2.3,86,7.7,29.2,9.8,22.3z"/>
	<path class="st1" d="M9,21.5c3.4-11.1,5.6-17,13.7-17.6c12.5-1,97.6,17.8,106.1,20.4c6.7,2.1,11.3,6.7,13.7,15.9
		c2,7.6,7.8,31,8.2,36.6c0.5,7.3,6.6,22.4-4.6,25c-2.7,0.6-12.5,2-17.7,2.3c-12.1,0.6-14.3,0.7-11.5,4.3c3.8,5,20.6,13.1,16.7,13.3
		c-11.2,0.5-26.5-1.6-35-4.7c-6.1-2.2-11.3-4.8-15-9.2c-9.3,0.9-64.3-1.2-66.9-1.3c-8.5-0.3-11.8-6.2-12.7-14
		C2.9,82.9,7,28.3,9,21.5z"/>
	<path class="st2" d="M12.6,23.8c3.2-10.5,5-16.2,12.6-16.8c11.7-1,93.1,17.9,101,20.3c6.3,1.9,10.6,6.3,12.8,15
		c1.9,7.2,7.3,28.7,7.7,34c0.5,6.9,6.6,21.2-3.8,23.7c-2.8,0.7-10.7,1.8-23.4,2.6c-11.3,0.7-10.5,1.1-7.9,4.5
		c3.5,4.7,18.6,12.4,13.8,11.9c-8.4-0.9-17-2.2-25.8-5.5c-4.9-1.8-10.6-4.6-14.1-8.8c-8.8,0.9-63.3-1.3-65.8-1.4
		c-8-0.3-11.1-5.2-11.9-12.5C7,81.9,10.7,30.2,12.6,23.8z"/>
</g>
<g>
	<path d="M26.9,46.4l0.1-2.6c0-0.7,0-1.3-0.1-1.9c-0.6-0.8-1-1.7-1.4-2.4s-0.6-1.3-0.7-1.4c-0.1-0.2-0.2-0.5-0.4-0.8
		c-0.2-0.4-0.3-0.6-0.4-0.7s-0.1-0.2-0.1-0.4c0-0.2,0.1-0.3,0.2-0.5c0.2-0.2,0.3-0.3,0.5-0.3c0.2,0,0.4,0.2,0.6,0.5
		c0.2,0.4,0.5,0.9,0.9,1.5c0.3,0.7,0.5,1,0.6,1.1c0,0.1,0.2,0.4,0.5,0.9c0.3,0.5,0.4,0.8,0.5,1l0.9-1.6c0.7-1.2,1.4-2.3,2.2-3.2
		c0.2-0.2,0.4-0.3,0.6-0.3c0.2,0,0.3,0.1,0.4,0.2s0.2,0.2,0.2,0.4c0,0.1,0,0.3-0.1,0.4c-0.6,0.7-1.1,1.5-1.6,2.3
		c-0.5,0.8-0.7,1.3-0.9,1.5c-0.1,0.2-0.3,0.6-0.6,1.1c-0.3,0.5-0.4,0.8-0.5,1l-0.1,4.1c0,0.5,0,1,0.1,1.5c0,0.2-0.1,0.4-0.3,0.6
		c-0.2,0.2-0.3,0.3-0.5,0.3c-0.1,0-0.2,0-0.3-0.1s-0.1-0.1-0.2-0.3c0-0.1-0.1-0.2-0.1-0.3s0-0.2,0-0.4s0-0.3,0-0.4
		c0-0.1,0-0.2,0-0.4C26.9,46.6,26.9,46.5,26.9,46.4z"/>
	<path d="M35,39.8c0.5-0.3,1-0.4,1.7-0.4c0.6,0,1.2,0.3,1.7,0.8c0.9,1,1.4,2.3,1.4,4.1c0,0.9-0.3,1.9-0.8,2.8
		c-0.3,0.5-0.6,0.9-1,1.2s-0.9,0.5-1.4,0.5c-0.5,0-1.1-0.2-1.6-0.5c-0.5-0.3-0.9-0.7-1.3-1.2c-0.7-1-1-2-1-2.8
		c0-1.2,0.4-2.3,1.1-3.3C34.1,40.4,34.5,40.1,35,39.8z M37,47.3c0.4-0.2,0.7-0.5,0.9-1s0.3-0.9,0.3-1.4s0-0.9-0.1-1.3
		c-0.1-0.4-0.2-0.8-0.3-1.1c-0.1-0.4-0.3-0.7-0.6-0.9c-0.3-0.3-0.6-0.4-0.9-0.5c-0.6,0.1-1.1,0.4-1.5,1c-0.4,0.6-0.6,1.2-0.6,1.7
		c0,0.6,0.2,1.3,0.7,2.1c0.2,0.4,0.5,0.7,0.9,1S36.6,47.3,37,47.3z"/>
	<path d="M46,47.3c-0.9,1-1.9,1.5-2.8,1.4c-0.4,0-0.8-0.2-1.2-0.5c-0.3-0.3-0.6-0.8-0.8-1.4c-0.3-1.1-0.5-2.1-0.5-3.2
		c0-1,0.1-2.2,0.2-3.5c0.1-0.2,0.2-0.4,0.3-0.6c0.2-0.1,0.3-0.2,0.5-0.2c0.4,0,0.6,0.2,0.7,0.6c-0.1,0.9-0.1,1.8-0.1,2.6
		c0,0.9,0,1.5,0,1.8c0,1,0.4,1.9,0.9,2.9c0.5-0.1,1-0.4,1.5-0.7c0.5-0.4,0.8-0.8,1-1.2c-0.2-1.9-0.2-3.6-0.2-4.9
		c0-0.3,0.1-0.5,0.3-0.7c0.2-0.2,0.4-0.3,0.6-0.3s0.5,0.2,0.6,0.5c0,0.6,0,2.2,0.1,4.6c0,0.3,0.1,1,0.2,1.9s0.2,1.5,0.2,1.7
		s-0.1,0.4-0.3,0.6C47.2,48.9,47,49,46.7,49s-0.4-0.2-0.5-0.5L46,47.3z"/>
	<path d="M49.7,46.3l0-0.6c0-0.8-0.1-1.7-0.2-2.7c-0.1-1-0.3-1.7-0.4-2.2S49,40,49,39.9c0-0.1,0.1-0.3,0.3-0.4
		c0.2-0.1,0.4-0.2,0.6-0.2s0.4,0.1,0.5,0.3c0.1,0.2,0.2,0.4,0.2,0.5c0,0.2,0.1,0.4,0.1,0.7s0,0.5,0.1,0.6c0.3-0.8,0.9-1.4,1.7-1.7
		c0.4-0.2,0.9-0.3,1.4-0.3c1.1,0,1.6,0.3,1.6,0.8c0,0.3-0.2,0.6-0.5,0.8c-0.1,0.1-0.3,0.1-0.4,0.1l-0.6-0.1c-1.7,0-2.5,1.7-2.5,5
		l0,1.8l0,0c-0.1,0.2-0.2,0.5-0.4,0.6s-0.4,0.3-0.6,0.3c-0.3,0-0.5-0.2-0.6-0.7C49.8,47.6,49.7,47,49.7,46.3z"/>
	<path d="M66.1,47.4c-0.9,1-1.9,1.5-2.8,1.4c-0.4,0-0.8-0.2-1.2-0.5c-0.3-0.3-0.6-0.8-0.8-1.4c-0.3-1.1-0.5-2.1-0.5-3.2
		s0.1-2.2,0.2-3.5c0.1-0.2,0.2-0.4,0.3-0.6c0.2-0.1,0.3-0.2,0.5-0.2c0.4,0,0.6,0.2,0.7,0.6c-0.1,0.9-0.1,1.8-0.1,2.6
		c0,0.9,0,1.5,0,1.8c0,1,0.4,1.9,0.9,2.9c0.5-0.1,1-0.4,1.5-0.7c0.5-0.4,0.8-0.8,1-1.2c-0.2-1.9-0.2-3.6-0.2-4.9
		c0-0.3,0.1-0.5,0.3-0.7c0.2-0.2,0.4-0.3,0.6-0.3s0.5,0.2,0.6,0.5c0,0.6,0,2.2,0.1,4.6c0,0.3,0.1,1,0.2,1.9s0.2,1.5,0.2,1.7
		c0,0.2-0.1,0.4-0.3,0.6c-0.2,0.2-0.4,0.3-0.7,0.3c-0.2,0-0.4-0.2-0.5-0.5L66.1,47.4z"/>
	<path d="M72.2,39.4c0.5,0,1,0.1,1.5,0.2c1,0.3,1.4,0.7,1.4,1.2c0,0.2-0.1,0.4-0.3,0.5c-0.2,0.1-0.4,0.2-0.7,0.2
		c-0.1,0-0.3-0.1-0.9-0.4c-0.5-0.2-1-0.4-1.3-0.4c-0.3,0-0.6,0.1-0.9,0.3s-0.4,0.4-0.4,0.7s0.1,0.6,0.2,0.8s0.4,0.4,0.6,0.5
		c0.3,0.1,0.6,0.2,0.9,0.2c0.9,0.2,1.5,0.3,1.8,0.5c0.6,0.3,0.9,0.8,0.9,1.7c0,0.8-0.3,1.6-1,2.2s-1.3,0.9-2,0.9s-1.3-0.1-1.7-0.2
		c-0.8-0.3-1.2-0.7-1.2-1.2c0-0.5,0.3-0.7,0.8-0.7c0.3,0,0.6,0.1,1.1,0.4c0.5,0.2,0.9,0.4,1.2,0.4c0.3,0,0.6-0.2,0.9-0.6
		c0.3-0.4,0.4-0.8,0.4-1.1c0-0.1,0-0.2,0-0.3c-0.4-0.3-1.1-0.6-2.1-0.8c-0.4-0.1-0.7-0.2-1.1-0.3c-0.8-0.3-1.2-1-1.2-2.1
		c0-0.8,0.3-1.4,0.9-1.9C70.7,39.7,71.4,39.4,72.2,39.4z"/>
	<path d="M82,40.2c0.7,0.4,1,0.9,1,1.5c0,0.6-0.3,1.2-0.9,1.8c-0.6,0.6-1.3,0.9-2.2,1.1c-0.1,0-0.1,0-0.2,0c0,0-0.1,0-0.2,0
		c-0.1,0-0.1,0-0.2,0c0,0-0.1,0-0.2,0c-0.1,0-0.1,0-0.2,0c0,0-0.1,0-0.2,0c-0.1,0-0.2,0-0.2,0c0.1,1,0.3,1.7,0.6,2.1
		c0.4,0.3,0.7,0.5,1,0.5c0.7,0,1.3-0.3,1.8-0.8c0.6-0.6,1-0.8,1.2-0.8c0.1,0,0.2,0.1,0.5,0.3c0.2,0.2,0.3,0.4,0.3,0.6
		c0,0.2-0.1,0.4-0.4,0.7c-0.2,0.3-0.5,0.5-0.9,0.8c-0.4,0.3-0.8,0.5-1.3,0.7c-0.5,0.2-1,0.3-1.5,0.3s-0.8-0.1-1.2-0.3
		c-0.6-0.4-1.1-1-1.4-2c-0.3-0.9-0.5-1.9-0.5-2.9c0-1,0.2-1.9,0.7-2.8c0.5-0.9,1.3-1.4,2.5-1.4C80.7,39.6,81.3,39.8,82,40.2z
		 M81.2,41.8c0-0.6-0.4-0.8-1.1-0.8c-0.5,0-0.9,0.3-1.3,0.9c-0.1,0.2-0.2,0.4-0.3,0.6c0,0.2-0.1,0.5-0.1,0.7
		C80.3,43.2,81.2,42.7,81.2,41.8z"/>
	<path d="M85.4,46.4l0-0.6c0-0.8-0.1-1.7-0.2-2.7c-0.1-1-0.3-1.7-0.4-2.2c-0.1-0.5-0.2-0.8-0.2-0.9c0-0.1,0.1-0.3,0.3-0.4
		c0.2-0.1,0.4-0.2,0.6-0.2s0.4,0.1,0.5,0.3c0.1,0.2,0.2,0.4,0.2,0.5c0,0.2,0.1,0.4,0.1,0.7c0,0.3,0,0.5,0.1,0.6
		c0.3-0.8,0.9-1.4,1.7-1.7c0.4-0.2,0.9-0.3,1.4-0.3c1.1,0,1.6,0.3,1.6,0.8c0,0.3-0.2,0.6-0.5,0.8c-0.1,0.1-0.3,0.1-0.4,0.1l-0.6-0.1
		c-1.7,0-2.5,1.7-2.5,5l0,1.8l0,0c-0.1,0.2-0.2,0.5-0.4,0.6S86.3,49,86.1,49c-0.3,0-0.5-0.2-0.6-0.7C85.4,47.8,85.4,47.2,85.4,46.4z
		"/>
	<path d="M97.9,48.3l0-1c0-0.2,0-0.4,0-0.6s0-0.6,0-0.9s0-0.7,0-1c0-0.3-0.1-0.7-0.1-1c-0.1-0.6-0.2-1.1-0.5-1.5s-0.5-0.6-0.9-0.6
		c-0.3,0-0.6,0.1-0.9,0.2c-0.2,0.1-0.4,0.3-0.5,0.6c-0.3,0.5-0.5,1.1-0.5,1.7c-0.1,0.6-0.1,1.2-0.1,1.9l-0.1,2.2
		c0,0.3-0.1,0.5-0.3,0.6c-0.2,0.2-0.4,0.2-0.7,0.2c-0.3,0-0.5-0.2-0.5-0.6c0-1.1,0-2.5-0.1-4.1c-0.1-1.6-0.1-3-0.1-4
		c0.1-0.2,0.2-0.4,0.3-0.6s0.3-0.3,0.4-0.3s0.3,0,0.3,0c0.1,0,0.1,0.1,0.2,0.1c0,0.1,0.1,0.1,0.1,0.2c0,0,0.1,0.1,0.1,0.2
		s0,0.2,0,0.3c0,0.1,0,0.2,0,0.4s0,0.3,0,0.4c0.7-0.9,1.6-1.4,2.7-1.4c0.7,0,1.3,0.3,1.6,1c0.5,1,0.8,2.6,0.8,4.6l0,1.9
		c0,0.5,0,0.8-0.1,1c-0.1,0.2-0.1,0.3-0.2,0.4c-0.1,0.3-0.4,0.4-0.7,0.4C98.1,48.9,97.9,48.7,97.9,48.3z"/>
	<path d="M108.1,41.5l0,1.4c0,0.5-0.1,1.2-0.1,2c0.1,1.4,0.2,2.7,0.4,3.8c0,0.1-0.1,0.3-0.3,0.3c-0.2,0.1-0.4,0.1-0.6,0.1
		c-0.2,0-0.4,0-0.5-0.1c-0.1-0.1-0.2-0.1-0.2-0.3c0-0.1-0.1-0.2-0.1-0.3s0-0.2,0-0.3c0-0.1,0-0.2,0-0.2c-0.6,0.7-1.4,1-2.4,1
		c-1,0-1.7-0.4-2.1-1.2c-0.4-0.8-0.6-1.8-0.6-3.2c0-2.4,0.7-3.9,2.1-4.6c0.4-0.2,0.9-0.3,1.4-0.3c0.5,0,1.1,0.1,1.6,0.3
		c0.2-0.2,0.4-0.4,0.7-0.4c0.6,0,0.8,0.4,0.8,1.3C108.1,41.1,108.1,41.3,108.1,41.5z M106.1,46.2c0.3-0.7,0.4-1.5,0.4-2.4
		c0-0.8-0.1-1.5-0.3-1.9c-0.2-0.4-0.5-0.6-1-0.6c-0.2,0-0.5,0-0.8,0.1c-0.3,0-0.7,0.3-0.9,0.9s-0.4,1-0.4,1.4l0,0.8
		c0,1.4,0.3,2.3,0.8,2.7c0.2,0.1,0.4,0.2,0.7,0.2c0.3,0,0.6-0.1,0.9-0.4C105.7,46.9,106,46.6,106.1,46.2z"/>
	<path d="M115.3,45.4l0-1.1c0-0.9,0-1.4-0.1-1.7c-0.1-0.3-0.2-0.5-0.3-0.7c-0.2-0.4-0.6-0.6-1.2-0.6c-0.6,0-1,0.2-1.2,0.6
		s-0.3,0.9-0.3,1.7l0.1,3.7c0,1.1-0.3,1.7-0.9,1.7c-0.3,0-0.5-0.2-0.6-0.6c0-2.7-0.1-5.1-0.4-7.2c0-0.3,0.1-0.5,0.3-0.7
		s0.4-0.3,0.7-0.3c0.2,0,0.4,0.1,0.5,0.4c0.5-0.7,1.1-1,2-1c1,0,1.8,0.5,2.4,1.5c0.7-1,1.5-1.4,2.7-1.4c0.5,0,1,0.1,1.4,0.4
		c0.4,0.2,0.8,0.6,1,1c0.6,1,1,2.7,1,5.1l0,0.9c0,0.8-0.1,1.4-0.2,1.6c-0.1,0.1-0.1,0.2-0.2,0.3s-0.3,0.2-0.6,0.2
		c-0.3,0-0.5-0.2-0.5-0.7l0.1-2.5c0-1.7-0.2-2.8-0.5-3.3c-0.2-0.3-0.5-0.6-0.8-0.8c-0.3-0.2-0.7-0.3-1-0.3c-0.3,0-0.6,0.1-0.7,0.2
		c-0.2,0.1-0.3,0.3-0.4,0.6c-0.2,0.5-0.3,1.6-0.3,3.2l0,2.9h-0.1c-0.1,0.2-0.2,0.4-0.4,0.5c-0.2,0.1-0.4,0.2-0.6,0.2
		c-0.3,0-0.5-0.2-0.5-0.6h-0.1L115.3,45.4z"/>
	<path d="M129,40.4c0.7,0.4,1,0.9,1,1.5c0,0.6-0.3,1.2-0.9,1.8c-0.6,0.6-1.3,0.9-2.2,1.1c-0.1,0-0.1,0-0.2,0c0,0-0.1,0-0.2,0
		c-0.1,0-0.1,0-0.2,0c0,0-0.1,0-0.2,0c-0.1,0-0.1,0-0.2,0c0,0-0.1,0-0.2,0c-0.1,0-0.2,0-0.2,0c0.1,1,0.3,1.7,0.6,2.1
		c0.4,0.3,0.7,0.5,1,0.5c0.7,0,1.3-0.3,1.8-0.8c0.6-0.6,1-0.8,1.2-0.8c0.1,0,0.2,0.1,0.5,0.3c0.2,0.2,0.3,0.4,0.3,0.6
		c0,0.2-0.1,0.4-0.4,0.7c-0.2,0.3-0.5,0.5-0.9,0.8c-0.4,0.3-0.8,0.5-1.3,0.7c-0.5,0.2-1,0.3-1.5,0.3s-0.8-0.1-1.2-0.3
		c-0.6-0.4-1.1-1-1.4-2c-0.3-0.9-0.5-1.9-0.5-2.9c0-1,0.2-1.9,0.7-2.8c0.5-0.9,1.3-1.4,2.5-1.4C127.7,39.8,128.4,40,129,40.4z
		 M128.3,42c0-0.6-0.4-0.8-1.1-0.8c-0.5,0-0.9,0.3-1.3,0.9c-0.1,0.2-0.2,0.4-0.3,0.6c0,0.2-0.1,0.5-0.1,0.7
		C127.3,43.4,128.3,42.9,128.3,42z"/>
	<path d="M36.7,60.8c0.5-0.3,1-0.4,1.7-0.4c0.6,0,1.2,0.3,1.7,0.8c0.9,1,1.4,2.3,1.4,4.1c0,0.9-0.3,1.9-0.8,2.8
		c-0.3,0.5-0.6,0.9-1,1.2s-0.9,0.5-1.4,0.5s-1.1-0.2-1.6-0.5s-0.9-0.7-1.3-1.2c-0.7-1-1-2-1-2.8c0-1.2,0.4-2.3,1.1-3.3
		C35.8,61.4,36.2,61.1,36.7,60.8z M38.7,68.3c0.4-0.2,0.7-0.5,0.9-1c0.2-0.5,0.3-0.9,0.3-1.4c0-0.5,0-0.9-0.1-1.3
		c-0.1-0.4-0.2-0.8-0.3-1.1c-0.1-0.4-0.3-0.7-0.6-0.9c-0.3-0.3-0.6-0.4-0.9-0.5c-0.6,0.1-1.1,0.4-1.5,1c-0.4,0.6-0.6,1.2-0.6,1.7
		c0,0.6,0.2,1.3,0.7,2.1c0.2,0.4,0.5,0.7,0.9,1C37.9,68.1,38.3,68.3,38.7,68.3z"/>
	<path d="M43.5,67.2l0-0.6c0-0.8-0.1-1.7-0.2-2.7c-0.1-1-0.3-1.7-0.4-2.2c-0.1-0.5-0.2-0.8-0.2-0.9c0-0.1,0.1-0.3,0.3-0.4
		c0.2-0.1,0.4-0.2,0.6-0.2s0.4,0.1,0.5,0.3c0.1,0.2,0.2,0.4,0.2,0.5c0,0.2,0.1,0.4,0.1,0.7c0,0.3,0,0.5,0.1,0.6
		c0.3-0.8,0.9-1.4,1.7-1.7c0.4-0.2,0.9-0.3,1.4-0.3c1.1,0,1.6,0.3,1.6,0.8c0,0.3-0.2,0.6-0.5,0.8c-0.1,0.1-0.3,0.1-0.4,0.1l-0.6-0.1
		c-1.7,0-2.5,1.7-2.5,5l0,1.8l0,0c-0.1,0.2-0.2,0.5-0.4,0.6s-0.4,0.3-0.6,0.3c-0.3,0-0.5-0.2-0.6-0.7C43.6,68.6,43.5,68,43.5,67.2z"
		/>
	<path d="M56.4,69.1l0,6c-0.1,0.3-0.2,0.5-0.4,0.7c-0.2,0.2-0.4,0.3-0.6,0.3c-0.3,0-0.5-0.2-0.5-0.7l0.1-6.9l0-7.1
		c0.1-0.3,0.1-0.6,0.2-0.7c0.1-0.2,0.3-0.2,0.5-0.2c0.2,0,0.4,0.1,0.5,0.2c0.1,0.1,0.2,0.4,0.3,0.9c0.1-0.2,0.3-0.5,0.6-0.7
		s0.9-0.4,1.5-0.4c0.7,0,1.3,0.1,1.8,0.4c0.5,0.3,0.9,0.7,1.2,1.1c0.5,0.9,0.8,2.1,0.8,3.4c0,1.3-0.4,2.4-1.2,3.2
		c-0.8,0.8-1.8,1.2-3.2,1.2c-0.5,0-0.9-0.2-1.2-0.5C56.5,69.1,56.4,69.1,56.4,69.1z M58.2,62c-0.5,0.1-0.9,0.3-1.3,0.7
		c-0.3,0.4-0.5,0.7-0.5,1.1l0,3.7c0,0,0.1,0.1,0.3,0.2c0.4,0.3,0.8,0.5,1.2,0.5c1.8,0,2.7-0.9,2.7-2.8c0-1.6-0.4-2.6-1.2-3.1
		C59.1,62.1,58.7,62,58.2,62z"/>
	<path d="M70.3,62.3l0,1.4c0,0.5-0.1,1.2-0.1,2c0.1,1.4,0.2,2.7,0.4,3.8c0,0.1-0.1,0.3-0.3,0.3C70.1,70,69.9,70,69.7,70
		s-0.4,0-0.5-0.1c-0.1-0.1-0.2-0.1-0.2-0.3c0-0.1-0.1-0.2-0.1-0.3c0-0.1,0-0.2,0-0.3c0-0.1,0-0.2,0-0.2c-0.6,0.7-1.4,1-2.4,1
		c-1,0-1.7-0.4-2.1-1.2c-0.4-0.8-0.6-1.8-0.6-3.2c0-2.4,0.7-3.9,2.1-4.6c0.4-0.2,0.9-0.3,1.4-0.3c0.5,0,1.1,0.1,1.6,0.3
		c0.2-0.2,0.4-0.4,0.7-0.4c0.6,0,0.8,0.4,0.8,1.3C70.3,62,70.3,62.2,70.3,62.3z M68.3,67.1c0.3-0.7,0.4-1.5,0.4-2.4
		c0-0.8-0.1-1.5-0.3-1.9c-0.2-0.4-0.5-0.6-1-0.6c-0.2,0-0.5,0-0.8,0.1c-0.3,0-0.7,0.3-0.9,0.9c-0.3,0.6-0.4,1-0.4,1.4l0,0.8
		c0,1.4,0.3,2.3,0.8,2.7c0.2,0.1,0.4,0.2,0.7,0.2c0.3,0,0.6-0.1,0.9-0.4S68.2,67.4,68.3,67.1z"/>
	<path d="M75.7,60.5c0.5,0,1,0.1,1.5,0.2c1,0.3,1.4,0.7,1.4,1.2c0,0.2-0.1,0.4-0.3,0.5c-0.2,0.1-0.4,0.2-0.7,0.2
		c-0.1,0-0.3-0.1-0.9-0.4c-0.5-0.2-1-0.4-1.3-0.4c-0.3,0-0.6,0.1-0.9,0.3c-0.3,0.2-0.4,0.4-0.4,0.7c0,0.3,0.1,0.6,0.2,0.8
		s0.4,0.4,0.6,0.5c0.3,0.1,0.6,0.2,0.9,0.2c0.9,0.2,1.5,0.3,1.8,0.5c0.6,0.3,0.9,0.8,0.9,1.7c0,0.8-0.3,1.6-1,2.2
		c-0.6,0.6-1.3,0.9-2,0.9s-1.3-0.1-1.7-0.2c-0.8-0.3-1.2-0.7-1.2-1.2c0-0.5,0.3-0.7,0.8-0.7c0.3,0,0.6,0.1,1.1,0.4s0.9,0.4,1.2,0.4
		c0.3,0,0.6-0.2,0.9-0.6c0.3-0.4,0.4-0.8,0.4-1.1c0-0.1,0-0.2,0-0.3c-0.4-0.3-1.1-0.6-2.1-0.8c-0.4-0.1-0.7-0.2-1.1-0.3
		c-0.8-0.3-1.2-1-1.2-2.1c0-0.8,0.3-1.4,0.9-1.9C74.1,60.7,74.8,60.5,75.7,60.5z"/>
	<path d="M83.3,60.5c0.5,0,1,0.1,1.5,0.2c1,0.3,1.4,0.7,1.4,1.2c0,0.2-0.1,0.4-0.3,0.5c-0.2,0.1-0.4,0.2-0.7,0.2
		c-0.1,0-0.3-0.1-0.9-0.4c-0.5-0.2-1-0.4-1.3-0.4c-0.3,0-0.6,0.1-0.9,0.3c-0.3,0.2-0.4,0.4-0.4,0.7c0,0.3,0.1,0.6,0.2,0.8
		s0.4,0.4,0.6,0.5c0.3,0.1,0.6,0.2,0.9,0.2c0.9,0.2,1.5,0.3,1.8,0.5c0.6,0.3,0.9,0.8,0.9,1.7c0,0.8-0.3,1.6-1,2.2
		c-0.6,0.6-1.3,0.9-2,0.9s-1.3-0.1-1.7-0.2c-0.8-0.3-1.2-0.7-1.2-1.2c0-0.5,0.3-0.7,0.8-0.7c0.3,0,0.6,0.1,1.1,0.4s0.9,0.4,1.2,0.4
		c0.3,0,0.6-0.2,0.9-0.6c0.3-0.4,0.4-0.8,0.4-1.1c0-0.1,0-0.2,0-0.3c-0.4-0.3-1.1-0.6-2.1-0.8c-0.4-0.1-0.7-0.2-1.1-0.3
		c-0.8-0.3-1.2-1-1.2-2.1c0-0.8,0.3-1.4,0.9-1.9C81.8,60.7,82.5,60.5,83.3,60.5z"/>
	<path d="M94.2,64.3l-0.1-3c0.1-0.2,0.2-0.4,0.4-0.5c0.2-0.1,0.3-0.2,0.5-0.2c0.4,0,0.6,0.8,0.6,2.3l0,1.1c0,1.8-0.3,3.4-0.8,4.8
		c-0.3,0.8-0.7,1.2-1.1,1.2c-0.3,0-0.5-0.2-0.7-0.5c-0.2-0.3-0.5-0.8-0.7-1.4s-0.4-1-0.6-1.2c-0.1,0.3-0.3,0.7-0.6,1.2
		c-0.3,0.5-0.4,0.8-0.5,0.9c-0.4,0.7-0.8,1-1.2,1c-0.1,0-0.4-0.4-0.7-1.1c-0.8-2.4-1.2-4.9-1.2-7.5c0.1-0.3,0.3-0.5,0.6-0.7
		c0.1,0,0.2-0.1,0.3-0.1c0.3,0,0.4,0.2,0.5,0.5c0,2.1,0.3,4.1,1,6c0.1-0.2,0.3-0.5,0.5-0.9c0.2-0.4,0.3-0.6,0.4-0.8
		c0.3-0.5,0.6-0.7,0.9-0.7c0.4,0,0.7,0.3,1.1,1c0.3,0.5,0.5,0.9,0.6,1.2c0.2,0.3,0.2,0.5,0.3,0.5C94,66.3,94.2,65.3,94.2,64.3z"/>
	<path d="M98.9,61c0.5-0.3,1-0.4,1.7-0.4c0.6,0,1.2,0.3,1.7,0.8c0.9,1,1.4,2.3,1.4,4.1c0,0.9-0.3,1.9-0.8,2.8
		c-0.3,0.5-0.6,0.9-1,1.2c-0.4,0.3-0.9,0.5-1.4,0.5c-0.5,0-1.1-0.2-1.6-0.5c-0.5-0.3-0.9-0.7-1.3-1.2c-0.7-1-1-2-1-2.8
		c0-1.2,0.4-2.3,1.1-3.3C98,61.7,98.4,61.3,98.9,61z M100.8,68.5c0.4-0.2,0.7-0.5,0.9-1c0.2-0.5,0.3-0.9,0.3-1.4
		c0-0.5,0-0.9-0.1-1.3c-0.1-0.4-0.2-0.8-0.3-1.1c-0.1-0.4-0.3-0.7-0.6-0.9c-0.3-0.3-0.6-0.4-0.9-0.5c-0.6,0.1-1.1,0.4-1.5,1
		c-0.4,0.6-0.6,1.2-0.6,1.7c0,0.6,0.2,1.3,0.7,2.1c0.2,0.4,0.5,0.7,0.9,1C100,68.4,100.4,68.5,100.8,68.5z"/>
	<path d="M105.7,67.5l0-0.6c0-0.8-0.1-1.7-0.2-2.7c-0.1-1-0.3-1.7-0.4-2.2c-0.1-0.5-0.2-0.8-0.2-0.9c0-0.1,0.1-0.3,0.3-0.4
		c0.2-0.1,0.4-0.2,0.6-0.2s0.4,0.1,0.5,0.3c0.1,0.2,0.2,0.4,0.2,0.5c0,0.2,0.1,0.4,0.1,0.7c0,0.3,0,0.5,0.1,0.6
		c0.3-0.8,0.9-1.4,1.7-1.7c0.4-0.2,0.9-0.3,1.4-0.3c1.1,0,1.6,0.3,1.6,0.8c0,0.3-0.2,0.6-0.5,0.8c-0.1,0.1-0.3,0.1-0.4,0.1l-0.6-0.1
		c-1.7,0-2.5,1.6-2.5,5l0,1.8l0,0c-0.1,0.2-0.2,0.5-0.4,0.6s-0.4,0.3-0.6,0.3c-0.3,0-0.5-0.2-0.6-0.7
		C105.7,68.9,105.7,68.2,105.7,67.5z"/>
	<path d="M117.4,56.8c0-0.7,0.2-1.1,0.7-1.1c0.2,0,0.4,0,0.5,0.1c0.1,0.1,0.2,0.2,0.2,0.4c0.1,0.2,0.1,0.7,0.1,1.3
		c0,0.7,0,1.5,0,2.6c0,1,0.1,1.8,0.1,2.4s0.1,1.5,0.1,2.8c0.1,1.3,0.1,2.3,0.1,3.1l0,1.1c0,0.3-0.1,0.4-0.3,0.5
		c-0.1,0.1-0.4,0.1-0.6,0.1s-0.4-0.2-0.5-0.5l-0.1-0.3c-0.6,0.5-1.2,0.7-2,0.7c-1,0-1.8-0.4-2.4-1.2c-0.6-0.8-0.9-1.7-0.9-2.7
		s0.2-2,0.7-3s1.1-1.7,2.1-2.2c0.5-0.2,1.1-0.4,1.7-0.4c0.2,0,0.4,0,0.6,0l0-1.6l0-1.3L117.4,56.8z M117.5,67.7
		c0.1-0.2,0.1-0.5,0.1-1.1s0-0.8,0-0.9l0-0.4c0-0.7-0.1-1.4-0.2-2s-0.4-0.9-0.6-0.9c-0.4,0-0.8,0-1.2,0.1c-0.4,0.1-0.7,0.2-0.9,0.4
		c-0.4,0.6-0.7,1.5-0.7,2.8c0,0.9,0.3,1.6,0.9,2.1c0.3,0.3,0.7,0.4,1.1,0.4c0.4,0,0.7-0.1,1-0.2C117.2,68,117.4,67.9,117.5,67.7z"/>
	<path d="M34.5,77.6c0.2-0.2,0.3-0.2,0.4-0.3c0.1,0,0.2,0,0.2,0c0.6,0.1,1,0.3,1,0.6c0.1,0.1,0.1,0.4,0.1,0.6c0,0.3-0.1,0.6-0.3,0.9
		c-0.2,0.3-0.5,0.4-0.7,0.4c-0.3,0-0.5-0.1-0.7-0.4c-0.2-0.3-0.3-0.6-0.3-1C34.2,78.1,34.3,77.8,34.5,77.6z M36.1,82.8l0,1.3
		L36,88.5c0,0.6,0,1.1,0,1.4c0,0.3-0.1,0.5-0.3,0.6c-0.2,0.2-0.4,0.3-0.6,0.3s-0.4-0.2-0.5-0.5c0-0.3,0-0.8-0.1-1.5
		c0-0.6-0.1-1.4-0.1-2.3s-0.1-1.8,0-2.6c0-0.9,0-1.7,0.1-2.3c0-0.2,0.2-0.4,0.5-0.4C35.7,81.2,36.1,81.7,36.1,82.8z"/>
	<path d="M41.7,81.3c0.5,0,1,0.1,1.5,0.2c1,0.3,1.4,0.7,1.4,1.2c0,0.2-0.1,0.4-0.3,0.5c-0.2,0.1-0.4,0.2-0.7,0.2
		c-0.1,0-0.3-0.1-0.9-0.4s-1-0.4-1.3-0.4c-0.3,0-0.6,0.1-0.9,0.3c-0.3,0.2-0.4,0.4-0.4,0.7c0,0.3,0.1,0.6,0.2,0.8
		c0.2,0.2,0.4,0.4,0.6,0.5c0.3,0.1,0.6,0.2,0.9,0.2c0.9,0.2,1.5,0.3,1.8,0.5c0.6,0.3,0.9,0.8,0.9,1.7c0,0.8-0.3,1.6-1,2.2
		s-1.3,0.9-2,0.9c-0.7,0-1.3-0.1-1.7-0.2c-0.8-0.3-1.2-0.7-1.2-1.2c0-0.5,0.3-0.7,0.8-0.7c0.3,0,0.6,0.1,1.1,0.4s0.9,0.4,1.2,0.4
		s0.6-0.2,0.9-0.6c0.3-0.4,0.4-0.8,0.4-1.1c0-0.1,0-0.2,0-0.3c-0.4-0.3-1.1-0.6-2.1-0.8c-0.4-0.1-0.7-0.2-1.1-0.3
		c-0.8-0.3-1.2-1-1.2-2.1c0-0.8,0.3-1.4,0.9-1.9C40.1,81.5,40.8,81.3,41.7,81.3z"/>
	<path d="M51.4,77.7c0.2-0.2,0.3-0.2,0.4-0.3c0.1,0,0.2,0,0.2,0c0.6,0.1,1,0.3,1,0.6c0.1,0.1,0.1,0.4,0.1,0.6c0,0.3-0.1,0.6-0.3,0.9
		c-0.2,0.3-0.5,0.4-0.7,0.4c-0.3,0-0.5-0.1-0.7-0.4c-0.2-0.3-0.3-0.6-0.3-1C51.1,78.1,51.2,77.8,51.4,77.7z M53,82.8l0,1.3l-0.1,4.5
		c0,0.6,0,1.1,0,1.4c0,0.3-0.1,0.5-0.3,0.6c-0.2,0.2-0.4,0.3-0.6,0.3s-0.4-0.2-0.5-0.5c0-0.3,0-0.8-0.1-1.5c0-0.6-0.1-1.4-0.1-2.3
		c0-0.9-0.1-1.8,0-2.6c0-0.9,0-1.7,0.1-2.3c0-0.2,0.2-0.4,0.5-0.4C52.6,81.3,53,81.8,53,82.8z"/>
	<path d="M61.1,90.1l0-1c0-0.2,0-0.4,0-0.6c0-0.3,0-0.6,0-0.9c0-0.3,0-0.7,0-1c0-0.3-0.1-0.7-0.1-1c-0.1-0.6-0.2-1.1-0.5-1.5
		s-0.5-0.6-0.9-0.6s-0.6,0.1-0.9,0.2c-0.2,0.1-0.4,0.3-0.5,0.6c-0.3,0.5-0.5,1.1-0.5,1.7c-0.1,0.6-0.1,1.2-0.1,1.9l-0.1,2.2
		c0,0.3-0.1,0.5-0.3,0.6c-0.2,0.2-0.4,0.2-0.7,0.2c-0.3,0-0.5-0.2-0.5-0.6c0-1.1,0-2.5-0.1-4.1s-0.1-3-0.1-4
		c0.1-0.2,0.2-0.4,0.3-0.6s0.3-0.3,0.4-0.3c0.1,0,0.3,0,0.3,0c0.1,0,0.1,0.1,0.2,0.1c0,0.1,0.1,0.1,0.1,0.2c0,0,0.1,0.1,0.1,0.2
		c0,0.1,0,0.2,0,0.3c0,0.1,0,0.2,0,0.4s0,0.3,0,0.4c0.7-0.9,1.6-1.4,2.7-1.4c0.7,0,1.3,0.3,1.6,1c0.5,1,0.8,2.6,0.8,4.6l0,1.9
		c0,0.5,0,0.8-0.1,1c-0.1,0.2-0.1,0.3-0.2,0.4c-0.1,0.3-0.4,0.4-0.7,0.4C61.2,90.8,61.1,90.6,61.1,90.1z"/>
	<path d="M70.6,81.8c0.2,0.1,0.3,0.2,0.3,0.4c0,0.3-0.1,0.6-0.2,0.9s-0.4,0.5-0.6,0.5c-0.1,0-0.4-0.1-0.8-0.2
		c-0.4-0.2-0.7-0.2-0.8-0.2c-0.7,0-1.4,0.3-1.9,0.8c-0.6,0.6-0.8,1.3-0.8,2.2c0,0.9,0.1,1.6,0.4,2.1c0.3,0.5,0.8,0.7,1.6,0.7
		c0.4,0,0.9-0.2,1.6-0.5c0.6-0.3,1-0.5,1.2-0.5s0.3,0.1,0.4,0.2c0.1,0.1,0.2,0.2,0.2,0.4c0,0.3-0.2,0.7-0.6,1
		c-0.4,0.4-0.9,0.6-1.5,0.9c-0.6,0.2-1.1,0.3-1.6,0.3c-1.1,0-1.9-0.4-2.5-1.3c-0.6-0.8-0.9-2-0.9-3.4c0-0.9,0.2-1.7,0.7-2.5
		s1.1-1.3,1.8-1.6c0.7-0.4,1.5-0.5,2.3-0.5C69.6,81.5,70.2,81.6,70.6,81.8z"/>
	<path d="M74,81.9c0.5-0.3,1-0.4,1.7-0.4c0.6,0,1.2,0.3,1.7,0.8c0.9,1,1.4,2.3,1.4,4.1c0,0.9-0.3,1.9-0.8,2.8
		c-0.3,0.5-0.6,0.9-1,1.2c-0.4,0.3-0.9,0.5-1.4,0.5c-0.5,0-1.1-0.2-1.6-0.5s-0.9-0.7-1.3-1.2c-0.7-1-1-2-1-2.8
		c0-1.2,0.4-2.3,1.1-3.3C73.1,82.6,73.5,82.2,74,81.9z M75.9,89.4c0.4-0.2,0.7-0.5,0.9-1s0.3-0.9,0.3-1.4c0-0.5,0-0.9-0.1-1.3
		c-0.1-0.4-0.2-0.8-0.3-1.1c-0.1-0.4-0.3-0.7-0.6-0.9c-0.3-0.3-0.6-0.4-0.9-0.5c-0.6,0.1-1.1,0.4-1.5,1c-0.4,0.6-0.6,1.2-0.6,1.7
		c0,0.6,0.2,1.3,0.7,2.1c0.2,0.4,0.5,0.7,0.9,1C75.1,89.3,75.5,89.4,75.9,89.4z"/>
	<path d="M80.8,88.4l0-0.6c0-0.8-0.1-1.7-0.2-2.7c-0.1-1-0.3-1.7-0.4-2.2C80.1,82.4,80,82.1,80,82c0-0.1,0.1-0.3,0.3-0.4
		c0.2-0.1,0.4-0.2,0.6-0.2s0.4,0.1,0.5,0.3c0.1,0.2,0.2,0.4,0.2,0.5c0,0.2,0.1,0.4,0.1,0.7s0,0.5,0.1,0.6c0.3-0.8,0.9-1.4,1.7-1.7
		c0.4-0.2,0.9-0.3,1.4-0.3c1.1,0,1.6,0.3,1.6,0.8c0,0.3-0.2,0.6-0.5,0.8c-0.1,0.1-0.3,0.1-0.4,0.1L85,83.2c-1.7,0-2.5,1.7-2.5,5
		l0,1.8l0,0c-0.1,0.2-0.2,0.5-0.4,0.6c-0.2,0.2-0.4,0.3-0.6,0.3c-0.3,0-0.5-0.2-0.6-0.7S80.8,89.1,80.8,88.4z"/>
	<path d="M88.4,88.4l0-0.6c0-0.8-0.1-1.7-0.2-2.7c-0.1-1-0.3-1.7-0.4-2.2c-0.1-0.5-0.2-0.8-0.2-0.9c0-0.1,0.1-0.3,0.3-0.4
		c0.2-0.1,0.4-0.2,0.6-0.2s0.4,0.1,0.5,0.3c0.1,0.2,0.2,0.4,0.2,0.5c0,0.2,0.1,0.4,0.1,0.7s0,0.5,0.1,0.6c0.3-0.8,0.9-1.4,1.7-1.7
		c0.4-0.2,0.9-0.3,1.4-0.3c1.1,0,1.6,0.3,1.6,0.8c0,0.3-0.2,0.6-0.5,0.8c-0.1,0.1-0.3,0.1-0.4,0.1l-0.6-0.1c-1.7,0-2.5,1.7-2.5,5
		l0,1.8l0,0c-0.1,0.2-0.2,0.5-0.4,0.6S89.3,91,89.1,91c-0.3,0-0.5-0.2-0.6-0.7S88.4,89.2,88.4,88.4z"/>
	<path d="M100.6,82.3c0.7,0.4,1,0.9,1,1.5c0,0.6-0.3,1.2-0.9,1.8s-1.3,0.9-2.2,1.1c-0.1,0-0.1,0-0.2,0c0,0-0.1,0-0.2,0s-0.1,0-0.2,0
		c0,0-0.1,0-0.2,0c-0.1,0-0.1,0-0.2,0c0,0-0.1,0-0.2,0c-0.1,0-0.2,0-0.2,0c0.1,1,0.3,1.7,0.6,2.1c0.4,0.3,0.7,0.5,1,0.5
		c0.7,0,1.3-0.3,1.8-0.8c0.6-0.6,1-0.8,1.2-0.8c0.1,0,0.2,0.1,0.5,0.3c0.2,0.2,0.3,0.4,0.3,0.6s-0.1,0.4-0.4,0.7
		c-0.2,0.3-0.5,0.5-0.9,0.8s-0.8,0.5-1.3,0.7c-0.5,0.2-1,0.3-1.5,0.3c-0.4,0-0.8-0.1-1.2-0.3c-0.6-0.4-1.1-1-1.4-2
		c-0.3-0.9-0.5-1.9-0.5-2.9c0-1,0.2-1.9,0.7-2.8c0.5-0.9,1.3-1.4,2.5-1.4C99.3,81.7,99.9,81.9,100.6,82.3z M99.8,83.9
		c0-0.6-0.4-0.8-1.1-0.8c-0.5,0-0.9,0.3-1.3,0.9c-0.1,0.2-0.2,0.4-0.2,0.6c0,0.2-0.1,0.5-0.1,0.7C98.9,85.3,99.8,84.8,99.8,83.9z"/>
	<path d="M109.5,82c0.2,0.1,0.3,0.2,0.3,0.4c0,0.3-0.1,0.6-0.2,0.9c-0.1,0.3-0.4,0.5-0.6,0.5c-0.1,0-0.4-0.1-0.8-0.2
		c-0.4-0.2-0.7-0.2-0.8-0.2c-0.7,0-1.4,0.3-1.9,0.8c-0.6,0.6-0.8,1.3-0.8,2.2c0,0.9,0.1,1.6,0.4,2.1s0.8,0.7,1.6,0.7
		c0.4,0,0.9-0.2,1.6-0.5c0.6-0.3,1-0.5,1.2-0.5c0.2,0,0.3,0.1,0.4,0.2c0.1,0.1,0.2,0.2,0.2,0.4c0,0.3-0.2,0.7-0.6,1
		c-0.4,0.4-0.9,0.6-1.5,0.9c-0.6,0.2-1.1,0.3-1.6,0.3c-1.1,0-1.9-0.4-2.5-1.3s-0.9-2-0.9-3.4c0-0.9,0.2-1.7,0.7-2.5s1.1-1.3,1.8-1.6
		c0.7-0.4,1.5-0.5,2.3-0.5C108.5,81.6,109.1,81.8,109.5,82z"/>
	<path d="M114.2,77.3l-0.1,2.4c0,0.2,0,0.8,0.1,1.9c0.8,0,1.6,0,2.3-0.1c0.4,0.1,0.6,0.3,0.6,0.7c0,0.4-0.1,0.6-0.4,0.8
		c-0.3,0.2-0.5,0.2-0.8,0.3c-0.3,0-0.5,0-0.6,0c-0.1,0-0.3,0-0.6,0c-0.2,0-0.4,0-0.5,0c0,0.1,0,0.5,0.1,1.1c0,0.6,0,1,0.1,1.2
		c0.1,1.8,0.2,3.3,0.4,4.4c-0.1,0.3-0.2,0.5-0.4,0.7c-0.2,0.2-0.4,0.3-0.6,0.3c-0.2,0-0.4-0.2-0.5-0.5c-0.2-1.2-0.3-2.6-0.4-4.2
		c-0.1-1.6-0.1-2.6-0.1-3c-0.2,0-0.5,0-1,0c-0.5,0-0.8,0-1.1-0.1c-0.3-0.1-0.5-0.3-0.5-0.6c0-0.7,0.4-1,1.2-1l1,0c0.2,0,0.3,0,0.4,0
		c0-1.3-0.1-2-0.1-2.1c0-0.1,0-0.3,0-0.6c0-0.3,0-0.8,0.1-1.4c0.1-0.2,0.2-0.4,0.4-0.6c0.2-0.2,0.4-0.2,0.6-0.2
		C113.9,76.7,114.1,76.9,114.2,77.3z"/>
	<path d="M120.1,89.8c0,0.3-0.1,0.6-0.3,0.8c-0.2,0.2-0.5,0.4-0.7,0.4c-0.3,0-0.5-0.1-0.8-0.2c-0.2-0.1-0.4-0.4-0.4-0.7
		s0.1-0.6,0.3-1c0.2-0.3,0.5-0.5,0.8-0.5c0.2,0,0.4,0.1,0.6,0.3C119.9,89.1,120,89.4,120.1,89.8z"/>
</g>
<g>
	<g>
		<ellipse class="st1" cx="158.5" cy="264" rx="75.1" ry="14.7"/>
		<ellipse class="st3" cx="158.5" cy="264" rx="73.9" ry="14.5"/>
		<ellipse class="st4" cx="158.5" cy="264" rx="72.8" ry="14.3"/>
		<ellipse class="st5" cx="158.5" cy="264" rx="71.6" ry="14.1"/>
		<ellipse class="st6" cx="158.5" cy="264" rx="70.4" ry="13.8"/>
		<ellipse class="st7" cx="158.5" cy="264" rx="69.3" ry="13.6"/>
		<ellipse class="st8" cx="158.5" cy="264" rx="68.1" ry="13.4"/>
		<ellipse class="st9" cx="158.5" cy="264" rx="66.9" ry="13.1"/>
		<ellipse class="st10" cx="158.5" cy="264" rx="65.8" ry="12.9"/>
		<ellipse class="st11" cx="158.5" cy="264" rx="64.6" ry="12.7"/>
		<ellipse class="st12" cx="158.5" cy="264" rx="63.5" ry="12.5"/>
		<ellipse class="st13" cx="158.5" cy="264" rx="62.3" ry="12.2"/>
		<ellipse class="st14" cx="158.5" cy="264" rx="61.1" ry="12"/>
		<ellipse class="st15" cx="158.5" cy="264" rx="60" ry="11.8"/>
		<ellipse class="st16" cx="158.5" cy="264" rx="58.8" ry="11.5"/>
		<ellipse class="st17" cx="158.5" cy="264" rx="57.6" ry="11.3"/>
		<ellipse class="st18" cx="158.5" cy="264" rx="56.5" ry="11.1"/>
		<ellipse class="st19" cx="158.5" cy="264" rx="55.3" ry="10.9"/>
		<ellipse class="st20" cx="158.5" cy="264" rx="54.1" ry="10.6"/>
		<ellipse class="st21" cx="158.5" cy="264" rx="53" ry="10.4"/>
		<ellipse class="st22" cx="158.5" cy="264" rx="51.8" ry="10.2"/>
		<ellipse class="st23" cx="158.5" cy="264" rx="50.6" ry="9.9"/>
		<ellipse class="st24" cx="158.5" cy="264" rx="49.5" ry="9.7"/>
		<ellipse class="st25" cx="158.5" cy="264" rx="48.3" ry="9.5"/>
		<ellipse class="st26" cx="158.5" cy="264" rx="47.1" ry="9.3"/>
		<ellipse class="st27" cx="158.5" cy="264" rx="46" ry="9"/>
		<ellipse class="st28" cx="158.5" cy="264" rx="44.8" ry="8.8"/>
		<ellipse class="st29" cx="158.5" cy="264" rx="43.7" ry="8.6"/>
		<ellipse class="st30" cx="158.5" cy="264" rx="42.5" ry="8.3"/>
		<ellipse class="st31" cx="158.5" cy="264" rx="41.3" ry="8.1"/>
		<ellipse class="st32" cx="158.5" cy="264" rx="40.2" ry="7.9"/>
		<ellipse class="st33" cx="158.5" cy="264" rx="39" ry="7.7"/>
		<ellipse class="st34" cx="158.5" cy="264" rx="37.8" ry="7.4"/>
		<ellipse class="st35" cx="158.5" cy="264" rx="36.7" ry="7.2"/>
		<ellipse class="st36" cx="158.5" cy="264" rx="35.5" ry="7"/>
		<ellipse class="st37" cx="158.5" cy="264" rx="34.3" ry="6.7"/>
		<ellipse class="st38" cx="158.5" cy="264" rx="33.2" ry="6.5"/>
		<ellipse class="st39" cx="158.5" cy="264" rx="32" ry="6.3"/>
		<ellipse class="st40" cx="158.5" cy="264" rx="30.8" ry="6.1"/>
		<ellipse class="st41" cx="158.5" cy="264" rx="29.7" ry="5.8"/>
		<ellipse class="st42" cx="158.5" cy="264" rx="28.5" ry="5.6"/>
		<ellipse class="st43" cx="158.5" cy="264" rx="27.3" ry="5.4"/>
		<ellipse class="st44" cx="158.5" cy="264" rx="26.2" ry="5.1"/>
		<ellipse class="st45" cx="158.5" cy="264" rx="25" ry="4.9"/>
		<ellipse class="st46" cx="158.5" cy="264" rx="23.8" ry="4.7"/>
		<ellipse class="st47" cx="158.5" cy="264" rx="22.7" ry="4.5"/>
		<ellipse class="st48" cx="158.5" cy="264" rx="21.5" ry="4.2"/>
		<ellipse class="st49" cx="158.5" cy="264" rx="20.4" ry="4"/>
		<ellipse class="st50" cx="158.5" cy="264" rx="19.2" ry="3.8"/>
		<ellipse class="st51" cx="158.5" cy="264" rx="18" ry="3.5"/>
		<ellipse class="st52" cx="158.5" cy="264" rx="16.9" ry="3.3"/>
		<ellipse class="st53" cx="158.5" cy="264" rx="15.7" ry="3.1"/>
	</g>
	<path class="st54" d="M190.3,192.8c0,0,17.5,14.2,19.1,14.9c3.2,1.5,5.8-4.3,8.8-2.5c2.1,1.3,4.2,5.5,2.4,7.2
		c-2.2,2.1-7.8-1.5-8.3,1c-0.5,2.6,6,0.9,7.7,3.5c1.5,2.3-1.6,7.4-4.9,6.1c-3.3-1.3-3.9-7.4-5.3-7.1c-1.4,0.3,1.2,5.4,0.1,7.2
		c-1.4,2.3-4.7,3.4-7.2-0.2c-2.8-3.9,3.3-8,1.9-9.9c-1.3-1.9-15.7-16.9-15.7-16.9L190.3,192.8z"/>
	<path class="st54" d="M131.8,228.9c0,0,1.1,9.7,0.3,15.5c-0.8,5.8-3.6,12.5-3.9,14.9c-0.2,1.9,0.6,5.1,3.6,5.5
		c3.7,0.5,6.8-2.4,6.8-2.4s1.8,3.1,5.4,3.1c2.4,0,3-2.9,3-2.9s1,2.6,4.3,2.6c3.2,0,3.6-2.5,3.6-2.5s1.4,1.8,3.8,0.5
		c2.3-1.3,2.5-6,0.3-10.1c-2.2-4-6.2-6.1-10.2-5.2c-4.6,1.1-6.9,7.5-10.4,6.9c-1.5-0.2,0.3-7.3,0.3-10.7c0-3.4-1.4-13.6-1.4-13.6
		L131.8,228.9z"/>
	<path class="st55" d="M151.2,252.8c0,0,3.3,2.5,4.1,5.6c0.7,2.6,0,4.8,0,4.8l-0.4-0.4c0,0,0.6-3.1-0.3-5.1
		C153.6,255.6,151.2,252.8,151.2,252.8z"/>
	<path class="st55" d="M147.3,263.3c0,0,0.2-2.9-0.3-4.4c-0.5-1.5-2.6-2.8-2.6-2.8s1.5,1.9,1.9,3.2c0.4,1.3,0.5,3.3,0.5,3.3
		L147.3,263.3z"/>
	<path class="st54" d="M168.6,228.4c0,0,1.3,11.2,0.6,16.7c-0.7,5.5-2.6,8.7-2.9,11c-0.2,1.8-1.3,4.6,1.5,5c3.5,0.5,7.3-0.9,7.3-0.9
		s1.7,3,5.1,3c2.3,0,2.8-2.7,2.8-2.7s1,2.5,4.1,2.5c3.1,0,3.4-2.4,3.4-2.4s1.3,1.7,3.6,0.5c2.2-1.2,3-4.4,0.9-8.2
		c-2.1-3.8-5.6-6.4-9.4-5.6c-4.4,1-7.5,6.4-10.8,5.9c-1.5-0.2,0.3-6.7,0.3-9.9c0-3.2-1.4-13.2-1.4-13.2L168.6,228.4z"/>
	<path class="st55" d="M188.2,252c0,0,2,1.4,2.8,4.3c0.6,2.5,0,4.6,0,4.6l-0.4-0.4c0,0,0.5-2.9-0.3-4.9
		C189.3,253.7,188.2,252,188.2,252z"/>
	<path class="st55" d="M183.4,261.1c0,0,0.2-2.8-0.3-4.2c-0.5-1.4-1.7-2.7-1.7-2.7s0.7,1.8,1.1,3.1c0.4,1.3,0.5,3.1,0.5,3.1
		L183.4,261.1z"/>
	<path class="st56" d="M196.8,114.7c0,0,8.6-8.5,14.9-7c7.1,1.7,4.9,9.9,4.9,9.9l-20.2,5.2L196.8,114.7z"/>
	<path class="st57" d="M197.7,184.8c0,0-3.4,4.7-3.3,10.2c0.1,5.4,4.6,17.8-4.7,29.8c-8.4,10.9-31.5,18.6-49.3,11.8
		c-17.8-6.8-27.6-15.8-29.3-30.5c-1.6-14.7,30.9-56.7,30.8-58.8c-0.1-2.2-7.1-0.5-11.4,1.9c-0.8,0.5,0.5-5.5,5.6-9.3
		c4.6-3.4,10.1-3,10.1-4.1c0-2.5-8.6-1-15.5,1c-1.2,0.3,2.5-7.1,9.9-9.5c8.2-2.7,13.4,1.3,13.7,0.3c0.7-2-5.8-8.2-13.9-8.3
		c-1.4,0,7-6.1,16.7-3c5.5,1.8,7.8,8.3,8.5,8.3c0.7,0,11.1-16.2,22.6-16.9c12.5-0.7,10.3,11.8,10.3,11.8l16.6,15.2l1,4.6
		c0,0,4.2,4.8,7.7,6.8c4.3,2.5,12.6,3.4,12.6,3.4l1.8,26c0,0-7.9,13.7-22.4,15.1C204.3,191.7,197.7,184.8,197.7,184.8z"/>
	<path d="M185.5,111.1c0,0-1.2-26.5,1.5-29.3c2.7-2.8,29.1-6.2,29.3,3.2c0.3,9.4-2.7,11.6-4.8,11.5c-2.1-0.1-18.6-9.3-19.5-8.3
		c-0.9,1-4.3,22.9-4.3,22.9H185.5z"/>
	<path class="st58" d="M168,123.3c0,0-12.6-25.8-12-29.6c0.5-3.8,20-16.1,22.7-13c2.7,3.1,4.4,9.2,2.3,12
		c-2.1,2.8-16.7,0.7-17.2,2.9c-0.5,2.2,5.7,26.1,5.7,26.1L168,123.3z"/>
	<ellipse class="st59" cx="210.9" cy="125.9" rx="11.2" ry="11.1"/>
	<ellipse cx="212.7" cy="130.2" rx="2.5" ry="2.5"/>
	<ellipse class="st1" cx="189.4" cy="131.1" rx="14.8" ry="14.7"/>
	<ellipse cx="198.5" cy="133.2" rx="3.7" ry="3.7"/>
	<path class="st57" d="M188.8,149.3c0,0,0.2-4.3,3-7.8c4.4-5.4,20.3-10.1,22.9-8.3c2,1.4,2,5.7,1.5,6.4
		C215.8,140.4,188.8,149.3,188.8,149.3z"/>
	<ellipse cx="241.7" cy="163.9" rx="18.6" ry="19.6"/>
	<path class="st58" d="M246.1,150.9c1.1,2.1-1.4,5.6-5.6,7.9c-4.2,2.2-8.5,2.3-9.7,0.2c-1.1-2.1,1.4-5.6,5.6-7.9
		C240.6,148.8,244.9,148.8,246.1,150.9z"/>
	<g>
		<path d="M186.5,177.2c-0.3,0-0.6-0.1-0.8-0.3c0,0-3-3.1-7-5.9c-3.2-2.2-7.8-4.2-7.8-4.3c-0.6-0.2-0.8-0.9-0.6-1.4
			c0.2-0.6,0.9-0.8,1.4-0.6c0.2,0.1,4.8,2.3,8,4.9C183.9,172.8,186.8,177.2,186.5,177.2L186.5,177.2z"/>
	</g>
	<path class="st54" d="M137.3,173.4c0,0-6.5,9.8-6.8,16c-0.3,5.7,1.9,10.2,1.4,11.8c-0.5,1.6-5.9-0.3-8.3,2.3c-2,2.1-2.2,8.2,1.9,8
		c4.3-0.2,5.3-6.5,7.4-5.3c2.1,1.2-2.1,5.1-1.5,8c0.8,3.8,5.5,5.9,7.7,2c1.7-3-2.1-7.5-1-8c1.1-0.5,3.3,4.6,6.3,5.7
		c3.4,1.2,5.6-2.1,4.5-6.2c-1.1-4.1-7-1.9-9.3-5.1c-2.2-3.1-3.2-7.4-2.3-13.8c1-6.9,4.8-13.8,4.8-13.8L137.3,173.4z"/>
	<ellipse class="st55" cx="169.3" cy="229.8" rx="2.1" ry="2"/>
	<path class="st60" d="M118,216l-1.3-5.4c0,0-15.7,6.3-29.9,2.4c-12.4-3.4-20.5-16.4-23.3-16.3c-2.9,0.1-7,12.9,0,21.8
		c7,8.9,19.2,6.3,19.4,7.2c0.3,1-8.2,5.2-7.5,6.3c0.7,1.1,7.8,1.4,12.8-1c5.9-2.8,8.5-7.4,9.5-6.7c1,0.7-6,8.5-4.8,9.4
		c1.2,0.9,6.6-1.4,9-4.3c3-3.5,4.2-7.5,4.8-7.5c0.5,0-0.1,4.9,0.7,5c0.8,0.1,4.1-1.8,7.9-5.8C117.3,219.1,118,216,118,216z"/>
</g>
</svg>
