<?xml version="1.0" encoding="utf-8"?>
<!-- Generator: Adobe Illustrator 21.0.0, SVG Export Plug-In . SVG Version: 6.00 Build 0)  -->
<svg version="1.1" id="dog-forgotpass" xmlns="http://www.w3.org/2000/svg" xmlns:xlink="http://www.w3.org/1999/xlink" x="0px"
	 y="0px" viewBox="0 0 649.3 681.3" style="enable-background:new 0 0 649.3 681.3;" xml:space="preserve">
<g id="shadow">
	<ellipse style="fill:#FFFFFF;" cx="222.9" cy="639.1" rx="214.3" ry="42.2"/>
	<ellipse style="fill:#FDFDFD;" cx="222.9" cy="639.1" rx="210.9" ry="41.7"/>
	<ellipse style="fill:#FBFBFB;" cx="222.9" cy="639.1" rx="207.8" ry="40.8"/>
	<ellipse style="fill:#F9F9F9;" cx="222.9" cy="639.1" rx="204.4" ry="40.2"/>
	<ellipse style="fill:#F7F7F7;" cx="222.9" cy="639.1" rx="200.9" ry="39.7"/>
	<ellipse style="fill:#F5F5F5;" cx="222.9" cy="639.1" rx="197.8" ry="39.1"/>
	<ellipse style="fill:#F3F3F3;" cx="222.9" cy="639.1" rx="194.4" ry="38.2"/>
	<ellipse style="fill:#F1F1F1;" cx="222.9" cy="639.1" rx="190.9" ry="37.7"/>
	<ellipse style="fill:#EFEFEF;" cx="222.9" cy="639.1" rx="187.8" ry="37.1"/>
	<ellipse style="fill:#EDEDED;" cx="222.9" cy="639.1" rx="184.4" ry="36.2"/>
	<ellipse style="fill:#EBEBEB;" cx="222.9" cy="639.1" rx="181.2" ry="35.7"/>
	<ellipse style="fill:#E9E9E9;" cx="222.9" cy="639.1" rx="177.8" ry="35.1"/>
	<ellipse style="fill:#E7E7E7;" cx="222.9" cy="639.1" rx="174.4" ry="34.5"/>
	<ellipse style="fill:#E5E5E4;" cx="222.9" cy="639.1" rx="171.2" ry="33.7"/>
	<ellipse style="fill:#E3E3E2;" cx="222.9" cy="639.1" rx="167.8" ry="33.1"/>
	<ellipse style="fill:#E1E1E0;" cx="222.9" cy="639.1" rx="164.4" ry="32.5"/>
	<ellipse style="fill:#DFDFDE;" cx="222.9" cy="639.1" rx="161.3" ry="31.7"/>
	<ellipse style="fill:#DDDDDC;" cx="222.9" cy="639.1" rx="157.8" ry="31.1"/>
	<ellipse style="fill:#DBDBDA;" cx="222.9" cy="639.1" rx="154.4" ry="30.5"/>
	<ellipse style="fill:#D9D9D8;" cx="222.9" cy="639.1" rx="151.3" ry="29.7"/>
	<ellipse style="fill:#D7D7D6;" cx="222.9" cy="639.1" rx="147.8" ry="29.1"/>
	<ellipse style="fill:#D5D5D4;" cx="222.9" cy="639.1" rx="144.4" ry="28.5"/>
	<ellipse style="fill:#D3D3D2;" cx="222.9" cy="639.1" rx="141.3" ry="28"/>
	<ellipse style="fill:#D1D1D0;" cx="222.9" cy="639.1" rx="137.9" ry="27.1"/>
	<ellipse style="fill:#CFCFCE;" cx="222.9" cy="639.1" rx="134.4" ry="26.5"/>
	<ellipse style="fill:#CDCDCC;" cx="222.9" cy="639.1" rx="131.3" ry="26"/>
	<ellipse style="fill:#CACACA;" cx="222.9" cy="639.1" rx="127.9" ry="25.1"/>
	<ellipse style="fill:#C8C8C8;" cx="222.9" cy="639.1" rx="124.7" ry="24.5"/>
	<ellipse style="fill:#C6C6C6;" cx="222.9" cy="639.1" rx="121.3" ry="24"/>
	<ellipse style="fill:#C4C4C4;" cx="222.9" cy="639.1" rx="117.9" ry="23.1"/>
	<ellipse style="fill:#C2C2C2;" cx="222.9" cy="639.1" rx="114.7" ry="22.5"/>
	<ellipse style="fill:#C0C0C0;" cx="222.9" cy="639.1" rx="111.3" ry="22"/>
	<ellipse style="fill:#BEBEBE;" cx="222.9" cy="639.1" rx="107.9" ry="21.4"/>
	<ellipse style="fill:#BCBCBC;" cx="222.9" cy="639.1" rx="104.7" ry="20.5"/>
	<ellipse style="fill:#BABABA;" cx="222.9" cy="639.1" rx="101.3" ry="20"/>
	<ellipse style="fill:#B8B8B8;" cx="222.9" cy="639.1" rx="97.9" ry="19.4"/>
	<ellipse style="fill:#B6B6B6;" cx="222.9" cy="639.1" rx="94.8" ry="18.6"/>
	<ellipse style="fill:#B4B4B4;" cx="222.9" cy="639.1" rx="91.3" ry="18"/>
	<ellipse style="fill:#B2B2B2;" cx="222.9" cy="639.1" rx="87.9" ry="17.4"/>
	<ellipse style="fill:#B0B0AF;" cx="222.9" cy="639.1" rx="84.8" ry="16.8"/>
	<ellipse style="fill:#AEAEAD;" cx="222.9" cy="639.1" rx="81.3" ry="16"/>
	<ellipse style="fill:#ACACAB;" cx="222.9" cy="639.1" rx="77.9" ry="15.4"/>
	<ellipse style="fill:#AAAAA9;" cx="222.9" cy="639.1" rx="74.8" ry="14.8"/>
	<ellipse style="fill:#A8A8A7;" cx="222.9" cy="639.1" rx="71.4" ry="14"/>
	<ellipse style="fill:#A6A6A5;" cx="222.9" cy="639.1" rx="67.9" ry="13.4"/>
	<ellipse style="fill:#A4A4A3;" cx="222.9" cy="639.1" rx="64.8" ry="12.8"/>
	<ellipse style="fill:#A2A2A1;" cx="222.9" cy="639.1" rx="61.4" ry="12"/>
	<ellipse style="fill:#A0A09F;" cx="222.9" cy="639.1" rx="58.2" ry="11.4"/>
	<ellipse style="fill:#9E9E9D;" cx="222.9" cy="639.1" rx="54.8" ry="10.8"/>
	<ellipse style="fill:#9C9C9B;" cx="222.9" cy="639.1" rx="51.4" ry="10.3"/>
	<ellipse style="fill:#9A9A99;" cx="222.9" cy="639.1" rx="48.2" ry="9.4"/>
	<ellipse style="fill:#989897;" cx="222.9" cy="639.1" rx="44.8" ry="8.8"/>
</g>
<g id="text">
	<g>
		<g>
			<path style="fill:#A7A8AC;" d="M629.6,48.3c-8-32-25.7-37.1-48.5-40.2c-35.4-4.9-193.2-8.3-218.3-5.7c-20,2-32.8,16-40.8,41.7
				c-6.6,21.1-22,55.9-24,71.6c-2.6,20.5,2.3,51.9,33.4,61.4c27.7,8.3,55.7,10.6,109.6,16.3c34.2,3.7,49.9,6.6,41.4,16.3
				c-11.4,13.4-60.2,33.7-49.4,35.1c34.5,4.6,73.4,0,98.2-6.8c17.4-4.6,34.5-13.4,45.7-25.1c26.3,4,24.5,5.1,32,5.1
				c24.3,0.3,36.8-14.6,40-36.5C652.7,156.7,634.5,67.7,629.6,48.3z"/>
			<path style="fill:#FFFFFF;" d="M631.6,47.1c-8-31.4-27.4-38-49.7-40.8c-34.8-4.6-189.5-8-214.1-5.4c-19.7,2-32.3,15.7-40.2,41.1
				c-6.6,20.8-21.4,54.2-23.4,70.2c-2.6,20.3,2.3,51.4,32.8,60.5c27.1,8,54.8,10.6,107.6,16c33.4,3.4,48.8,6.3,40.8,16.3
				c-11.1,13.4-59.1,33.7-48.5,34.8c31.1,2.9,73.9-0.6,98.2-8c17.4-5.1,32.3-12,43.1-23.7c26,3.7,23.7,5.1,30.8,5.1
				c23.7,0.3,34-15.7,37.4-37.1C651.3,149,636.5,66.5,631.6,47.1z"/>
		</g>
		<path style="fill:#FFFFFF;stroke:#B8D432;stroke-width:1.5;stroke-miterlimit:10;" d="M621.3,53.1c-7.4-29.7-25.7-35.7-46.5-38.5
			C542.3,10.3,398.1,7.2,375,9.7c-18.3,2-30.3,14.8-37.7,38.5c-6.3,19.7-19.7,47.9-21.4,62.8c-2.3,19.1,2,48.2,30.8,56.8
			c25.4,7.7,73.9,12.6,123.6,18c31.4,3.4,38.2,7.1,30.5,16.3c-10.6,12.6-53.7,32-40.2,31.4c23.4-1.4,47.7-3.7,72.8-11.7
			c13.7-4.3,30.3-11.4,40.5-22.5c24.3,3.7,20.8,4.6,27.7,4.9c22.3,0.3,31.7-12.8,34.8-33.1C640.2,145.9,625.9,71.1,621.3,53.1z"/>
	</g>
	<g>
		<path d="M380.5,49.7l-0.9,18.6c0,0.6-0.6,1.1-0.9,1.7c-0.6,0.3-1.1,0.6-1.7,0.6c-0.9,0-1.4-0.6-1.1-1.7l0.6-17.1
			c0.3-4,0.6-8.3,1.1-12.3c-3.1,0-6,0-8.8,0c-1.1,0-1.7-0.6-1.7-1.4c0-0.6,0.3-1.1,0.9-1.4c0.6-0.6,1.1-0.9,1.7-0.9
			c2.6,0.3,6.3,0.3,10.8,0.3s8.3,0,10.8,0.3c1.1,0.3,1.4,0.9,1.4,1.7c0,0.6-0.3,0.9-0.9,1.4c-0.6,0.6-0.9,0.6-1.7,0.9
			c-2.6-0.3-5.7-0.3-8.8-0.3C381,42.3,380.7,46,380.5,49.7z"/>
		<path d="M407.9,48.5c1.7,1.1,2.6,2.6,2.3,4c0,1.7-0.9,3.1-2.6,4.6c-1.7,1.4-3.7,2.3-6,2.6c-0.3,0-0.3,0-0.6,0c0,0-0.3,0-0.6,0
			c-0.3,0-0.3,0-0.6,0c0,0-0.3,0-0.6,0c-0.3,0-0.3,0-0.6,0c-0.3,0-0.3,0-0.6,0c-0.3,0-0.6,0-0.6,0c0.3,2.9,0.6,4.6,1.4,5.4
			c0.9,0.9,1.7,1.4,2.6,1.4c1.7,0,3.4-0.6,5.1-2s2.9-2,3.4-2c0.3,0,0.6,0.3,1.1,0.9c0.6,0.6,0.9,1.1,0.9,1.4s-0.3,1.1-1.1,1.7
			c-0.6,0.6-1.4,1.4-2.6,2c-1.1,0.6-2.3,1.4-3.7,1.7c-1.4,0.6-2.9,0.6-4,0.6s-2.3-0.3-3.1-1.1c-1.7-1.1-2.9-2.9-3.4-5.4
			c-0.9-2.6-1.1-5.1-0.9-7.7c0.3-2.9,0.9-5.1,2.3-7.1c1.4-2.3,3.7-3.4,7.1-3.4C404.4,46.8,406.1,47.4,407.9,48.5z M405.6,52.8
			c0-1.4-0.9-2.3-2.9-2.3c-1.4,0-2.6,0.6-3.7,2c-0.3,0.6-0.6,0.9-0.9,1.7c-0.3,0.6-0.3,1.1-0.6,2C402.7,56.5,405.3,55.4,405.6,52.8z
			"/>
		<path d="M418.7,53.1c-0.6,8.6,0.3,13.7,2.3,15.1l0,0c1.1-0.3,2.3-0.6,3.4-1.4c1.1-0.6,1.7-1.4,2-2c-0.6-3.1-0.6-7.7-0.3-13.7
			c0.3-6,1.1-10.6,2-14.6c0.3-0.9,0.9-1.4,1.7-1.7c0.3-0.3,0.6-0.3,1.1-0.3c0.9,0,1.4,0.6,1.7,1.7c-0.9,5.1-1.7,8.8-1.7,10.6
			c-0.3,2-0.6,4-0.6,6.6s-0.3,4.6-0.3,6s0.3,3.1,0.6,5.1c0.3,1.7,0.9,3.1,1.7,3.7h0.3c0.6,0,1.1-0.6,1.7-1.1
			c0.6-0.6,1.1-1.1,1.7-1.7s1.1-0.9,1.4-0.9c1.1,0,1.7,1.1,1.4,3.1c0,1.1-0.9,2.3-2.3,3.1c-1.4,1.1-2.9,1.4-4.6,1.4
			c-2,0-3.4-1.1-4.3-3.4c-0.6,0.9-1.7,1.4-3.1,2s-2.6,0.9-3.4,0.9c-0.9,0-1.7-0.3-2.3-0.3c-0.6-0.3-0.9-0.6-1.1-0.6
			c-0.3-0.3-0.6-0.6-0.9-1.1c-0.6-0.9-0.9-1.7-1.1-2.6c-0.6-2.9-1.1-5.7-1.1-8.3s0-6.3,0.3-10.8s0.9-8.8,2-12.3
			c0-0.6,0.6-1.1,1.1-1.4c0.6-0.3,1.1-0.6,1.7-0.6c0.9,0,1.4,0.6,1.7,1.7c-0.9,4.9-1.4,8.6-1.7,10.3C419,48.5,418.7,50.8,418.7,53.1
			z"/>
		<path d="M464.4,65.4l0.3-2.9c0-2.3,0-3.7-0.3-4.6s-0.6-1.4-0.9-2c-0.6-1.1-1.4-1.7-3.1-1.7s-2.9,0.3-3.4,1.4
			c-0.6,0.9-1.1,2.6-1.1,4.6l-0.3,10c-0.3,3.1-1.1,4.6-2.9,4.6c-0.9,0-1.4-0.6-1.4-1.7c0.3-7.1,0.3-13.7-0.3-19.1
			c0-0.6,0.3-1.4,0.9-2s1.1-0.9,1.7-0.9s1.1,0.6,1.4,1.1c1.4-1.7,3.1-2.6,5.4-2.3c2.9,0.3,4.9,1.7,6.3,4.3c2-2.6,4.3-3.7,7.4-3.4
			c1.4,0,2.6,0.6,3.7,1.1c1.1,0.9,2,1.7,2.6,2.6c1.7,2.9,2.3,7.4,1.7,13.7v2.3c0,2.3-0.3,3.7-0.9,4.3c-0.3,0.3-0.3,0.6-0.6,0.6
			c-0.3,0.3-0.9,0.3-1.4,0.3c-0.9,0-1.4-0.6-1.4-1.7l0.6-6.6c0.3-4.3,0-7.4-0.9-8.8c-0.6-0.9-1.1-1.7-2-2.3s-1.7-1.1-2.6-1.1
			s-1.4,0-2,0.3s-0.9,0.9-1.1,1.7c-0.6,1.4-1.1,4.3-1.4,8.6l-0.3,7.7h-0.3c-0.3,0.6-0.6,1.1-1.1,1.4c-0.6,0.3-1.1,0.6-1.7,0.6
			c-0.9,0-1.1-0.6-1.1-1.7h-0.3L464.4,65.4z"/>
		<path d="M502,54c1.7,1.1,2.6,2.6,2.3,4c0,1.7-0.9,3.1-2.6,4.6c-1.7,1.4-3.7,2.3-6,2.6c-0.3,0-0.3,0-0.6,0c0,0-0.3,0-0.6,0
			c-0.3,0-0.3,0-0.6,0c0,0-0.3,0-0.6,0c-0.3,0-0.3,0-0.6,0c-0.3,0-0.3,0-0.6,0c-0.3,0-0.6,0-0.6,0c0.3,2.9,0.6,4.6,1.4,5.4
			c0.9,0.9,1.7,1.4,2.6,1.4c1.7,0,3.4-0.6,5.1-2s2.9-2,3.4-2c0.3,0,0.6,0.3,1.1,0.9c0.6,0.6,0.9,1.1,0.9,1.4s-0.3,1.1-1.1,1.7
			c-0.6,0.6-1.4,1.4-2.6,2c-0.9,0.6-2.3,1.4-3.7,1.7c-1.4,0.3-2.9,0.6-4,0.6s-2.3-0.3-3.1-1.1c-1.7-1.1-2.9-2.9-3.4-5.4
			c-0.9-2.6-1.1-5.1-0.9-7.7c0.3-2.6,0.9-5.1,2.3-7.1c1.4-2.3,3.7-3.4,7.1-3.4C498.6,52.3,500.3,52.8,502,54z M499.8,58
			c0-1.4-0.9-2.3-2.9-2.3c-1.4,0-2.6,0.6-3.7,2c-0.3,0.6-0.6,0.9-0.9,1.7c-0.3,0.6-0.3,1.1-0.6,2C496.9,61.7,499.5,60.5,499.8,58z"
			/>
		<path d="M519.2,55.7c0-0.6,0.3-1.1,0.6-1.7c0.3-0.6,0.9-0.6,1.7-0.6c0.6,0,1.1,0.6,1.7,1.1c0.6,2.9,1.4,5.4,2.3,7.7
			c0.9,2.3,1.7,4.3,2.3,6.3s1.1,3.4,1.4,4.3c0.9-2.3,1.7-5.1,2.9-9.1s2-6.8,2.6-8.6c0.3-0.9,1.1-1.1,2.3-1.1c0.6,0,0.9,0.3,1.4,0.6
			c0.3,0.3,0.6,0.6,0.6,1.1c0,0.3,0,0.9-0.3,1.1c-6,17.7-10.6,29.7-13.1,36.2c-0.3,0.9-0.9,1.4-1.7,1.4c-0.6,0-0.9-0.3-1.4-0.9
			c-0.3-0.6-0.6-1.1-0.6-2s0.3-2,0.9-3.7c0.6-1.7,1.4-3.4,2-5.4c0.9-2,1.4-3.4,1.7-4.3c-0.9-1.4-2-4.9-3.7-9.7
			C521.4,63.7,520.3,59.4,519.2,55.7z"/>
		<path d="M548.8,56c1.4-0.6,2.9-1.1,4.6-0.9s3.1,0.9,4.3,2.3c2.3,2.9,3.4,6.3,3.1,11.1c0,2.3-0.9,4.9-2.6,7.4
			c-0.9,1.1-1.7,2.3-2.9,2.9c-1.1,0.6-2.6,1.1-4,1.1s-2.9-0.6-4.3-1.4c-1.4-0.9-2.3-2-3.1-3.4c-1.7-2.9-2.6-5.4-2.3-7.7
			c0.3-3.1,1.4-6,3.4-8.6C546.3,57.4,547.4,56.5,548.8,56z M552.8,75.9c1.1-0.6,2-1.4,2.6-2.6s0.9-2.6,1.1-3.7c0-1.4,0-2.6,0-3.4
			c0-1.1-0.3-2-0.6-3.1c-0.3-0.9-0.9-1.7-1.4-2.6c-0.6-0.6-1.4-1.1-2.3-1.4c-1.7,0.3-2.9,0.9-4,2.6c-1.1,1.4-1.7,2.9-1.7,4.6
			c0,1.4,0.6,3.4,1.7,5.7c0.6,1.1,1.4,2,2.3,2.9C550.8,75.7,552,75.9,552.8,75.9z"/>
		<path d="M577.1,77.4c-2.6,2.6-5.1,3.7-7.7,3.4c-1.1,0-2.3-0.6-3.1-1.4c-0.9-0.9-1.4-2.3-2-3.7c-0.9-2.9-1.1-5.7-0.9-8.6
			c0.3-2.9,0.6-6,0.9-9.4c0.3-0.6,0.6-1.1,0.9-1.4c0.6-0.3,0.9-0.6,1.4-0.6c0.9,0,1.4,0.6,1.7,1.7c-0.3,2.3-0.6,4.9-0.6,7.1
			c0,2.3-0.3,4-0.3,4.9c0,2.6,0.6,5.1,2,7.7c1.4-0.3,2.9-0.9,4-1.7c1.1-0.9,2.3-2,2.9-3.1c-0.3-5.1,0-9.4,0-13.1
			c0-0.9,0.3-1.4,0.9-2c0.6-0.6,1.1-0.9,1.7-0.6c0.6,0,1.1,0.6,1.4,1.4c0,1.7-0.3,5.7-0.3,12.3c0,0.9,0.3,2.6,0.3,4.9
			c0.3,2.6,0.3,4,0.3,4.6s-0.3,1.1-0.9,1.7s-1.1,0.9-1.7,0.9c-0.6,0-1.1-0.6-1.4-1.4L577.1,77.4z"/>
		<path d="M587.4,75.1v-1.7c0-2.3,0-4.6,0-7.1c-0.3-2.6-0.6-4.6-0.9-5.7c-0.3-1.4-0.6-2-0.6-2.6s0.3-0.6,0.9-1.1
			c0.6-0.3,1.1-0.6,1.7-0.6s1.1,0.3,1.4,0.9c0.3,0.6,0.6,0.9,0.6,1.4s0,1.1,0,2s0,1.4,0,1.7c1.1-2.3,2.6-3.7,4.9-4.3
			c1.1-0.3,2.3-0.6,3.7-0.6c2.9,0.3,4.3,0.9,4.3,2.6c0,0.9-0.6,1.7-1.4,2c-0.3,0.3-0.9,0.3-1.1,0.3l-1.4-0.3
			c-4.6-0.3-6.8,4-7.4,12.8l-0.3,4.9l0,0c-0.3,0.6-0.6,1.1-1.1,1.7c-0.6,0.6-1.1,0.6-1.7,0.6c-0.9,0-1.1-0.6-1.4-2
			C587.4,78.8,587.4,77.1,587.4,75.1z"/>
		<path d="M401.9,131.6c-2.6,2.6-5.1,3.7-7.7,3.4c-1.1,0-2.3-0.6-3.1-1.4c-0.9-0.9-1.4-2.3-2-3.7c-0.9-2.9-1.1-5.7-0.9-8.6
			c0.3-2.9,0.6-6,0.9-9.4c0.3-0.6,0.6-1.1,0.9-1.4c0.6-0.3,0.9-0.6,1.4-0.6c0.9,0,1.4,0.6,1.7,1.7c-0.3,2.3-0.6,4.9-0.6,7.1
			s-0.3,4-0.3,4.9c0,2.6,0.6,5.1,2,8c1.4-0.3,2.9-0.9,4-1.7c1.1-0.9,2.3-2,2.9-3.1c0-5.1,0-9.4,0-13.1c0-0.9,0.3-1.4,0.9-2
			s1.1-0.9,1.7-0.6c0.6,0,1.1,0.6,1.4,1.4c0,1.7-0.3,5.7-0.3,12.3c0,0.9,0.3,2.6,0.3,4.9c0.3,2.6,0.3,4,0.3,4.6s-0.3,1.1-0.9,1.7
			c-0.6,0.6-1.1,0.9-1.7,0.9s-1.1-0.6-1.4-1.4L401.9,131.6z"/>
		<path d="M419.6,111.3c1.4,0,2.6,0.3,4,0.9c2.6,0.9,3.7,2.3,3.7,3.4c0,0.6-0.3,1.1-0.9,1.4s-1.1,0.6-1.7,0.6c0,0-0.9-0.3-2.3-1.1
			c-1.4-0.9-2.6-1.1-3.4-1.1c-0.9,0-1.7,0.3-2.6,0.6c-0.9,0.6-1.1,1.1-1.1,2s0,1.4,0.6,2s0.9,1.1,1.7,1.4c0.6,0.3,1.4,0.6,2.3,0.9
			c2.3,0.6,4,1.1,4.9,1.7c1.4,0.9,2.3,2.3,2.3,4.6c0,2.3-1.1,4-2.9,5.7c-1.7,1.7-3.7,2.3-5.4,2.3c-2,0-3.4-0.3-4.6-0.9
			c-2.3-0.9-3.1-2-3.1-3.4c0-1.1,0.9-1.7,2.3-1.7c0.6,0,1.7,0.3,2.9,1.1c1.1,0.6,2.3,1.1,3.1,1.1s1.7-0.6,2.6-1.4
			c0.9-1.1,1.1-2,1.1-2.9c0-0.3,0-0.6,0-0.9c-0.9-0.9-2.9-1.7-5.4-2.3c-0.9-0.3-2-0.6-2.9-0.9c-2-0.9-2.9-2.9-2.9-6
			c0-2,0.9-3.7,2.6-4.9C415.3,111.9,417.3,111.3,419.6,111.3z"/>
		<path d="M445.5,114.8c1.7,1.1,2.6,2.6,2.3,4c0,1.7-0.9,3.1-2.6,4.6c-1.7,1.4-3.7,2.3-6,2.6c-0.3,0-0.3,0-0.6,0c0,0-0.3,0-0.6,0
			c-0.3,0-0.3,0-0.6,0c0,0-0.3,0-0.6,0c-0.3,0-0.3,0-0.6,0c-0.3,0-0.3,0-0.6,0c-0.3,0-0.6,0-0.6,0c0.3,2.9,0.6,4.6,1.4,5.4
			c0.9,0.9,1.7,1.4,2.6,1.4c1.7,0,3.4-0.6,5.1-2s2.9-2,3.4-2c0.3,0,0.6,0.3,1.1,0.9c0.6,0.6,0.9,1.1,0.9,1.4c0,0.6-0.3,1.1-1.1,1.7
			c-0.6,0.6-1.4,1.4-2.6,2c-1.1,0.6-2.3,1.4-3.7,1.7c-1.4,0.6-2.9,0.6-4,0.6s-2.3-0.3-3.1-1.1c-1.7-1.1-2.9-2.9-3.4-5.4
			c-0.9-2.6-1.1-5.1-0.9-7.7c0.3-2.9,0.9-5.1,2.3-7.1c1.4-2.3,3.7-3.4,7.1-3.4C442.1,113,443.8,113.6,445.5,114.8z M443.2,119
			c0-1.4-0.9-2.3-2.9-2.3c-1.4,0-2.6,0.6-3.7,2c-0.3,0.6-0.6,0.9-0.9,1.7c-0.3,0.6-0.3,1.1-0.6,2C440.7,122.5,443.2,121.3,443.2,119
			z"/>
		<path d="M453.8,131.6v-1.7c0-2.3,0-4.6,0-7.1c-0.3-2.6-0.6-4.6-0.9-6s-0.6-2-0.6-2.6c0-0.3,0.3-0.6,0.9-0.9s1.1-0.6,1.7-0.6
			s1.1,0.3,1.4,0.9s0.6,0.9,0.6,1.4s0,1.1,0,2s0,1.4,0,1.7c1.1-2.3,2.6-3.7,4.9-4.3c1.1-0.3,2.3-0.6,3.7-0.6
			c2.9,0.3,4.3,0.9,4.3,2.6c0,0.9-0.6,1.7-1.4,2c-0.3,0.3-0.9,0.3-1.1,0.3l-1.4-0.3c-4.6-0.3-6.8,4-7.4,12.8l-0.3,4.9l0,0
			c-0.3,0.6-0.6,1.1-1.1,1.7c-0.6,0.6-1.1,0.6-1.7,0.6c-0.9,0-1.1-0.6-1.4-2C453.5,135.3,453.5,133.6,453.8,131.6z"/>
		<path d="M487.2,138.5l0.3-2.9c0-0.3,0-0.9,0-1.7c0-0.6,0-1.4,0-2.3c0-0.9,0-1.7,0-2.9c0-0.9,0-1.7-0.3-2.6c0-1.7-0.6-3.1-1.1-4.3
			s-1.4-1.7-2.3-1.7s-1.7,0-2.3,0.3c-0.6,0.3-1.1,0.9-1.4,1.4c-0.9,1.4-1.4,2.9-1.7,4.3c-0.3,1.7-0.3,3.4-0.6,5.1l-0.6,5.7
			c0,0.9-0.3,1.4-0.9,1.7s-1.1,0.6-2,0.6s-1.4-0.6-1.1-1.7c0.3-2.9,0.3-6.6,0.3-10.8c0-4.3,0.3-8,0.3-10.8c0.3-0.6,0.6-1.1,0.9-1.4
			c0.6-0.6,0.9-0.6,1.1-0.6c0.3,0,0.6,0,0.9,0s0.3,0.3,0.6,0.3c0.3,0,0.3,0.3,0.3,0.3s0,0.3,0.3,0.6c0,0.3,0,0.6,0,0.9s0,0.6,0,1.1
			s0,0.9,0,1.1c2-2.3,4.6-3.4,7.4-3.4c2,0,3.4,1.1,4.3,2.9c1.4,2.9,1.7,6.8,1.4,12.6l-0.3,5.1c0,1.4-0.3,2.3-0.3,2.6
			c-0.3,0.6-0.3,0.9-0.6,1.1c-0.3,0.6-1.1,0.9-2,0.9C487.5,140.2,486.9,139.6,487.2,138.5z"/>
		<path d="M515.5,121.6l-0.3,3.7c0,1.4-0.3,3.1-0.6,5.4c0,3.7,0.3,7.1,0.6,10.3c0,0.3-0.6,0.6-0.9,0.9c-0.6,0.3-0.9,0.3-1.4,0.3
			s-0.9,0-1.1-0.3c-0.3-0.3-0.6-0.3-0.6-0.6s-0.3-0.6-0.3-0.9s0-0.6,0-0.9c0-0.3,0-0.6,0-0.6c-1.7,1.7-4,2.3-6.6,2.3
			c-2.6-0.3-4.6-1.1-5.7-3.4c-1.1-2-1.4-4.9-1.1-8.6c0.3-6.3,2.3-10.3,6.3-12c1.1-0.6,2.6-0.6,4-0.6s2.9,0.3,4.3,0.9
			c0.6-0.6,1.1-0.9,2-0.9c1.4,0,2.3,1.1,2,3.4C515.5,120.8,515.5,121.3,515.5,121.6z M509.5,134.2c0.9-2,1.1-4,1.4-6.3
			c0-2.3,0-4-0.6-4.9c-0.6-1.1-1.4-1.7-2.9-1.7c-0.6,0-1.4,0-2.3,0s-1.7,0.9-2.6,2.3s-1.4,2.6-1.4,3.7v2c-0.3,3.7,0.3,6.3,2,7.1
			c0.6,0.3,1.1,0.6,1.7,0.6c0.9,0,1.7-0.3,2.6-0.9C508.3,135.6,508.9,135,509.5,134.2z"/>
		<path d="M534,133l0.3-2.9c0-2.3,0-3.7-0.3-4.6s-0.6-1.4-0.9-2c-0.6-1.1-1.4-1.7-3.1-1.7c-1.7,0-2.9,0.3-3.4,1.4
			c-0.6,0.9-1.1,2.6-1.1,4.6l-0.3,10c-0.3,3.1-1.1,4.6-2.9,4.6c-0.9,0-1.4-0.6-1.4-1.7c0.3-7.1,0.3-13.7-0.3-19.1
			c0-0.6,0.3-1.4,0.9-2s1.1-0.9,1.7-0.9s1.1,0.6,1.4,1.1c1.4-1.7,3.1-2.6,5.4-2.3c2.9,0.3,4.9,1.7,6.3,4.3c2-2.6,4.3-3.7,7.4-3.4
			c1.4,0,2.6,0.6,3.7,1.1c1.1,0.9,2,1.7,2.6,2.6c1.7,2.9,2.3,7.4,1.7,13.7v2.3c0,2.3-0.3,3.7-0.9,4.3c-0.3,0.3-0.3,0.6-0.6,0.6
			c-0.3,0.3-0.9,0.3-1.4,0.3c-0.9,0-1.4-0.6-1.4-1.7l0.6-6.6c0.3-4.3,0-7.4-0.9-8.8c-0.6-0.9-1.1-1.7-2-2.3s-1.7-1.1-2.6-1.1
			c-0.9,0-1.4,0-2,0.3s-0.9,0.9-1.1,1.7c-0.6,1.4-1.1,4.3-1.4,8.6l-0.3,7.7h-0.3c-0.3,0.6-0.6,1.1-1.1,1.4c-0.6,0.3-1.1,0.6-1.7,0.6
			c-0.9,0-1.1-0.6-1.1-1.7h-0.3L534,133z"/>
		<path d="M571.7,121.6c1.7,1.1,2.6,2.6,2.3,4c0,1.7-0.9,3.1-2.6,4.6c-1.7,1.4-3.7,2.3-6,2.6c-0.3,0-0.3,0-0.6,0c0,0-0.3,0-0.6,0
			s-0.3,0-0.6,0c0,0-0.3,0-0.6,0s-0.3,0-0.6,0c0,0-0.3,0-0.6,0s-0.6,0-0.6,0c0.3,2.9,0.6,4.6,1.4,5.4c0.9,0.9,1.7,1.4,2.6,1.4
			c1.7,0,3.4-0.6,5.1-2c1.7-1.4,2.9-2,3.4-2c0.3,0,0.6,0.3,1.1,0.9c0.6,0.6,0.9,1.1,0.9,1.4c0,0.6-0.3,1.1-1.1,1.7
			c-0.9,0.6-1.4,1.4-2.6,2c-1.1,0.6-2.3,1.4-3.7,1.7c-1.4,0.6-2.9,0.6-4,0.6s-2.3-0.3-3.1-1.1c-1.7-1.1-2.9-2.9-3.4-5.4
			c-0.9-2.6-1.1-5.1-0.9-7.7c0.3-2.6,0.9-5.1,2.3-7.1c1.4-2.3,3.7-3.4,7.1-3.4C568.3,119.9,570,120.5,571.7,121.6z M569.4,125.9
			c0-1.4-0.9-2.3-2.9-2.3c-1.4,0-2.6,0.6-3.7,2c-0.3,0.6-0.6,0.9-0.9,1.7c-0.3,0.6-0.3,1.1-0.6,2
			C566.8,129.6,569.4,128.5,569.4,125.9z"/>
	</g>
</g>
<g id="dog">
	<path id="ear2" d="M276.3,212.1c0,0,9.1-83.3,18.3-87.6c8.8-4.3,67.9,1.1,65.1,28.3c-1.4,15.1-13.1,21.1-23.7,16.8
		c-10-4-26.5-30-31.4-28.3c-6,2-20.8,70.8-20.8,70.8H276.3z"/>
	<path id="ear1" d="M219.2,265.7c0,0-45.1-82.8-41.7-94.2c3.1-11.4,67.1-46.2,74.8-29.7c7.7,16.6,3.4,28.5-5.4,32.5
		c-8.6,3.7-51.4-6.6-53.1-0.3c-1.7,6,30.8,88.5,30.8,88.5L219.2,265.7z"/>
	<g id="leg2">
		<path style="fill:#B56F29;" d="M154.4,548c0,0,0,37.1-2,52.5c-2,15.7-6.8,23.4-7.4,29.7c-0.6,5.1,1.7,14,9.7,14.8
			c10,1.4,18.6-6.6,18.6-6.6s4.9,8.6,14.6,8.6c6.6,0,8-7.7,8-7.7s2.9,7.1,11.7,7.1s9.7-6.8,9.7-6.8s3.7,4.9,10.3,1.4
			c6.3-3.4,6.8-16.3,0.9-27.4c-6-10.8-16.8-16.6-27.7-14c-12.3,2.9-18.8,20.3-28.3,18.8c-4.3-0.6-5.1-18.8-5.1-28c0-9.1,2-38,2-38
			L154.4,548z"/>
		<path style="fill:#754D24;" d="M206.9,612.8c0,0,8.8,6.6,11.1,15.1c1.7,7.1,0,13.1,0,13.1l-1.1-1.1c0,0,1.4-8.3-0.9-14
			C213.2,620.2,206.9,612.8,206.9,612.8z"/>
		<path style="fill:#754D24;" d="M196.4,641.4c0,0,0.6-8-0.9-12c-1.4-4-6.8-7.7-6.8-7.7s4,5.1,5.1,8.8s1.4,8.8,1.4,8.8L196.4,641.4z
			"/>
		<path style="fill:#754D24;" d="M174.4,627.9c0,0,0.9,3.7,0.6,7.1c0,2.3-0.9,6-0.9,6l-1.4-2c0,0,0.9-2.3,1.1-4.6
			S174.4,627.9,174.4,627.9z"/>
	</g>
	<g id="leg1">
		<path style="fill:#B56F29;" d="M253.7,546.6c0,0,0,35.1-2,49.9c-2,14.8-6.3,22.3-7.1,28.3c-0.6,4.9,1.4,13.1,9.1,14.3
			c9.4,1.1,17.4-6.3,17.4-6.3s4.6,8,13.7,8c6.3,0,7.7-7.4,7.7-7.4s2.6,6.8,11.1,6.8c8.3,0,9.4-6.6,9.4-6.6s3.4,4.9,9.7,1.4
			c6-3.1,6.6-15.7,0.9-26s-16-15.7-26.3-13.4c-11.7,2.9-17.7,19.1-26.8,17.7c-4-0.6-4.9-17.7-4.9-26.5c0-8.6,2-36,2-36L253.7,546.6z
			"/>
		<path style="fill:#754D24;" d="M303.7,608c0,0,8.6,6.3,10.6,14.3c1.7,6.8,0,12.3,0,12.3l-1.1-1.1c0,0,1.4-8-0.9-13.1
			C309.7,615.4,303.7,608,303.7,608z"/>
		<path style="fill:#754D24;" d="M293.7,635.4c0,0,0.6-7.4-0.9-11.4c-1.4-3.7-6.6-7.4-6.6-7.4s4,4.9,4.9,8.3s1.4,8.6,1.4,8.6
			L293.7,635.4z"/>
		<path style="fill:#754D24;" d="M272.9,622.5c0,0,0.9,3.4,0.6,6.8c0,2.3-0.9,5.7-0.9,5.7l-1.4-2c0,0,0.9-2.3,1.1-4.3
			C272.6,626.8,272.9,622.5,272.9,622.5z"/>
	</g>
	<path id="tail" style="fill:#1A1A1A;" d="M120.2,518.6c0,0-13.7,14.3-37.1,8c-33.7-8.8-31.7-42.5-13.1-45.7
		c10.8-2,18.8,8.6,18.8,8.6s12-22-1.7-39.4C73.3,432.7,39.7,440.7,28,461c-13.7,23.1-1.1,40.8-2.3,44c-1.1,3.1-18.3-11.4-23.4-19.4
		c-2-3.1-7.4,20.3,11.4,39.1c14.3,14.3,31.7,16.8,31.1,20c-0.9,3.1-22.8,3.1-34.2-1.4c-2.6-1.1,10,22.5,37.4,23.1
		c24.3,0.6,42.2-19.7,43.7-16.8s-2.9,12.6-6.6,16c-4.6,4.3,9.7,1.1,20-9.4c14.6-14.8,18-32.5,18-32.5L120.2,518.6z"/>
	<g id="body">
		<path style="fill:#D18029;" d="M300.5,221.2c0,0,31.1-23.1,40.8-15.7c9.7,7.4,4.6,21.4,4.6,21.4l-44.5,11.7L300.5,221.2z"/>
		<path id="path" style="fill:#F69220;" d="M385,417.3c32.8-4.9,69.1-66.5,69.1-66.5L413.8,290c0,0-26.5,4.6-41.4,0
			c-14.8-4.6-23.1-18.8-23.1-18.8l-42.2-36.8c0,0,2.6-18.8-6-23.4c-8.6-4.6-28.5-7.1-50.5,11.7c-20,17.1-25.7,32.5-35.7,36.8
			c-5.7,2.6-25.1-8.8-53.9-4c-25.7,4.6-43.1,18.6-34.8,20.3c22,4.3,43.4,12,40.5,16.8c-2.9,4.6-19.4,1.7-41.4,12.8
			c-21.4,10.8-32,27.7-26.3,25.7c17.1-6,37.4-3.4,37.4,1.4c0,4.9-11.4,4.9-23.1,18.3c-10.8,12.6-17.4,29.7-14.6,27.4
			c15.4-12,36.5-20,38.8-12.3s-38,60.5-29.7,115.6s42.5,78.5,93.6,84.5c56.8,6.3,105.3-1.4,125.3-53.9c13.7-36-7.7-64.2-5.4-71.1
			c2.3-6.6,16.3,5.7,20.8-7.4c2.6-7.4-20.3-11.7-14-19.4C335.1,406.5,357.6,421.3,385,417.3z"/>
	</g>
	<g id="eyesopen">
		<circle style="fill:#CBCBCA;" cx="331.9" cy="246.9" r="27.7"/>
		<circle cx="343.1" cy="246.3" r="7.4"/>
		<circle style="fill:#FFFFFF;" cx="291.1" cy="271.7" r="40.8"/>
		<circle cx="306.2" cy="262.3" r="9.4"/>
		<path style="fill:#F69220;" d="M356.2,271.7c-3.7-2.9-7.7-2.9-7.7-2.9s-29.4,4-40,11.1c-16.3,11.1-14.6,29.7-13.4,32.3
			c1.1,2.9,27.7,10.8,34,0c8.6-14.3,31.7-29.1,31.7-29.1S361.3,276,356.2,271.7z"/>
		<path style="fill:#F69220;" d="M239.2,315.7c0,0,4-11.4,15.1-16.6c9.7-4.3,38.5,8.8,40.5,13.4
			C297.1,318.3,239.2,315.7,239.2,315.7z"/>
	</g>
	<path id="mounth" d="M262.6,358.2c0,0,13.7,27.1,28.5,38.5c15.7,12.3,36.8,20,36.8,20l1.7-3.4c0,0-22.3-7.1-36.5-18.8
		C276.3,380.5,262.6,358.2,262.6,358.2z"/>
	<path id="hand" style="fill:#B56F29;" d="M167.5,414.2c0,0-24.8,59.4-28,63.4c-6,8-20.5-3.1-25.7,5.4c-3.4,6-3.1,19.4,3.7,21.4
		c8.3,2.3,17.7-14.3,22.3-8.6c4.6,6-14,10.3-14.6,19.1c-0.6,7.7,14,16.6,20.5,8.8s-0.3-24,3.7-25.1s4.3,15.4,9.4,18.3
		c6.6,4,16.3,2.3,18-10.3c1.7-13.7-19.1-16-18.3-22.5c0.9-6.6,16.8-63.6,16.8-63.6L167.5,414.2z"/>
	<g id="nose">
		<circle cx="453.2" cy="305.7" r="49.7"/>
		
			<ellipse transform="matrix(0.9686 -0.2486 0.2486 0.9686 -55.1408 119.5591)" style="fill:#343433;" cx="445.8" cy="278.1" rx="28" ry="12.6"/>
	</g>
	<ellipse id="belly" style="fill:#754D24;" cx="290" cy="524.6" rx="6" ry="5.7"/>
</g>
<g id="eyesclosed">
	<g>
		<circle style="fill:#D18029;" cx="331.9" cy="246.9" r="27.7"/>
		<path style="fill:#603A17;" d="M354.5,231.8l2.3,2.6c0,0-12.8,2.9-25.1,8.8c-9.1,4.6-17.7,11.7-21.4,18.6l-1.7-2.3
			C308.5,259.8,316.5,238.1,354.5,231.8z"/>
		<circle style="fill:#E48525;" cx="289.4" cy="271.5" r="40.8"/>
		<path style="fill:#603A17;" d="M321.1,246.6l3.7,3.7c0,0-19.1,5.1-37.1,15.4c-13.4,7.7-26,18.8-30.8,29.7L254,292
			C254,292,264.9,258.6,321.1,246.6z"/>
		<path style="fill:#F69220;" d="M356.2,271.7c-3.7-2.9-7.7-2.9-7.7-2.9s-29.4,4-40,11.1c-16.3,11.1-14.6,29.7-13.4,32.3
			c1.1,2.9,27.7,10.8,34,0c8.6-14.3,31.7-29.1,31.7-29.1S361.3,276,356.2,271.7z"/>
		<path style="fill:#F69220;" d="M237.7,315.4c0,0,4-11.4,15.1-16.6c9.7-4.3,38.5,8.8,40.5,13.4C295.7,318,237.7,315.4,237.7,315.4z
			"/>
	</g>
</g>
</svg>
