<?xml version="1.0" encoding="utf-8"?>
<!-- Generator: Adobe Illustrator 21.0.0, SVG Export Plug-In . SVG Version: 6.00 Build 0)  -->
<svg version="1.1" id="dog-createuser" xmlns="http://www.w3.org/2000/svg" xmlns:xlink="http://www.w3.org/1999/xlink" x="0px"
	 y="0px" viewBox="0 0 516.3 678.8" style="enable-background:new 0 0 516.3 678.8;" xml:space="preserve">
<g id="shadow">
	<g>
		<ellipse style="fill:#FFFFFF;" cx="209.4" cy="653" rx="152.5" ry="25.8"/>
		<ellipse style="fill:#FDFDFD;" cx="209.4" cy="653" rx="150.1" ry="25.4"/>
		<ellipse style="fill:#FBFBFB;" cx="209.4" cy="653" rx="147.7" ry="25"/>
		<ellipse style="fill:#F9F9F9;" cx="209.4" cy="653" rx="145.4" ry="24.6"/>
		<ellipse style="fill:#F7F7F7;" cx="209.4" cy="653" rx="143" ry="24.2"/>
		<ellipse style="fill:#F5F5F5;" cx="209.4" cy="653" rx="140.6" ry="23.8"/>
		<ellipse style="fill:#F3F3F3;" cx="209.4" cy="653" rx="138.3" ry="23.4"/>
		<ellipse style="fill:#F1F1F1;" cx="209.4" cy="653" rx="135.9" ry="23"/>
		<ellipse style="fill:#EFEFEF;" cx="209.4" cy="653" rx="133.5" ry="22.6"/>
		<ellipse style="fill:#EDEDED;" cx="209.4" cy="653" rx="131.2" ry="22.2"/>
		<ellipse style="fill:#EBEBEB;" cx="209.4" cy="653" rx="128.8" ry="21.8"/>
		<ellipse style="fill:#E9E9E9;" cx="209.4" cy="653" rx="126.4" ry="21.4"/>
		<ellipse style="fill:#E7E7E7;" cx="209.4" cy="653" rx="124.1" ry="21"/>
		<ellipse style="fill:#E5E5E4;" cx="209.4" cy="653" rx="121.7" ry="20.6"/>
		<ellipse style="fill:#E3E3E2;" cx="209.4" cy="653" rx="119.3" ry="20.2"/>
		<ellipse style="fill:#E1E1E0;" cx="209.4" cy="653" rx="117" ry="19.8"/>
		<ellipse style="fill:#DFDFDE;" cx="209.4" cy="653" rx="114.6" ry="19.4"/>
		<ellipse style="fill:#DDDDDC;" cx="209.4" cy="653" rx="112.3" ry="19"/>
		<ellipse style="fill:#DBDBDA;" cx="209.4" cy="653" rx="109.9" ry="18.6"/>
		<ellipse style="fill:#D9D9D8;" cx="209.4" cy="653" rx="107.5" ry="18.2"/>
		<ellipse style="fill:#D7D7D6;" cx="209.4" cy="653" rx="105.2" ry="17.8"/>
		<ellipse style="fill:#D5D5D4;" cx="209.4" cy="653" rx="102.8" ry="17.4"/>
		<ellipse style="fill:#D3D3D2;" cx="209.4" cy="653" rx="100.4" ry="17"/>
		<ellipse style="fill:#D1D1D0;" cx="209.4" cy="653" rx="98.1" ry="16.6"/>
		<ellipse style="fill:#CFCFCE;" cx="209.4" cy="653" rx="95.7" ry="16.2"/>
		<ellipse style="fill:#CDCDCC;" cx="209.4" cy="653" rx="93.3" ry="15.8"/>
		<ellipse style="fill:#CACACA;" cx="209.4" cy="653" rx="91" ry="15.4"/>
		<ellipse style="fill:#C8C8C8;" cx="209.4" cy="653" rx="88.6" ry="15"/>
		<ellipse style="fill:#C6C6C6;" cx="209.4" cy="653" rx="86.2" ry="14.6"/>
		<ellipse style="fill:#C4C4C4;" cx="209.4" cy="653" rx="83.9" ry="14.2"/>
		<ellipse style="fill:#C2C2C2;" cx="209.4" cy="653" rx="81.5" ry="13.8"/>
		<ellipse style="fill:#C0C0C0;" cx="209.4" cy="653" rx="79.1" ry="13.4"/>
		<ellipse style="fill:#BEBEBE;" cx="209.4" cy="653" rx="76.8" ry="13"/>
		<ellipse style="fill:#BCBCBC;" cx="209.4" cy="653" rx="74.4" ry="12.6"/>
		<ellipse style="fill:#BABABA;" cx="209.4" cy="653" rx="72.1" ry="12.2"/>
		<ellipse style="fill:#B8B8B8;" cx="209.4" cy="653" rx="69.7" ry="11.8"/>
		<ellipse style="fill:#B6B6B6;" cx="209.4" cy="653" rx="67.3" ry="11.4"/>
		<ellipse style="fill:#B4B4B4;" cx="209.4" cy="653" rx="65" ry="11"/>
		<ellipse style="fill:#B2B2B2;" cx="209.4" cy="653" rx="62.6" ry="10.6"/>
		<ellipse style="fill:#B0B0AF;" cx="209.4" cy="653" rx="60.2" ry="10.2"/>
		<ellipse style="fill:#AEAEAD;" cx="209.4" cy="653" rx="57.9" ry="9.8"/>
		<ellipse style="fill:#ACACAB;" cx="209.4" cy="653" rx="55.5" ry="9.4"/>
		<ellipse style="fill:#AAAAA9;" cx="209.4" cy="653" rx="53.1" ry="9"/>
		<ellipse style="fill:#A8A8A7;" cx="209.4" cy="653" rx="50.8" ry="8.6"/>
		<ellipse style="fill:#A6A6A5;" cx="209.4" cy="653" rx="48.4" ry="8.2"/>
		<ellipse style="fill:#A4A4A3;" cx="209.4" cy="653" rx="46" ry="7.8"/>
		<ellipse style="fill:#A2A2A1;" cx="209.4" cy="653" rx="43.7" ry="7.4"/>
		<ellipse style="fill:#A0A09F;" cx="209.4" cy="653" rx="41.3" ry="7"/>
		<ellipse style="fill:#9E9E9D;" cx="209.4" cy="653" rx="38.9" ry="6.6"/>
		<ellipse style="fill:#9C9C9B;" cx="209.4" cy="653" rx="36.6" ry="6.2"/>
		<ellipse style="fill:#9A9A99;" cx="209.4" cy="653" rx="34.2" ry="5.8"/>
		<ellipse style="fill:#989897;" cx="209.4" cy="653" rx="31.9" ry="5.4"/>
	</g>
</g>
<g id="text">
	<g id="baloon2">
		<path style="fill:#A7A8AC;" d="M257.1,27.3c8.5-23,22-25.5,39.1-26c26.5-0.7,143.8,8.9,162.2,12.9c14.6,3.1,23,14.3,27,34
			c3.3,16.3,11.9,43.1,12.1,55c0.3,15.5-5.8,38.3-29.5,42.8c-21.1,3.9-42.1,3.6-82.5,3.5c-25.6,0-37.4,0.9-32,8.9
			c7.4,10.9,41.9,29.7,33.8,29.9c-25.9,0.6-54.3-5.8-72.2-12.7c-12.5-4.8-24.6-12.6-31.9-22.2c-19.8,0.8-18.5,1.9-24.1,1.4
			c-17.9-1.7-26.1-13.7-26.8-30.1C231.5,105.8,251.9,41.4,257.1,27.3z"/>
		<path style="fill:#FFFFFF;" d="M255.6,26.4C264,3.7,278.8,0.5,295.6,0c26.1-0.7,141,8.8,159,12.7c14.3,3.1,22.6,14.1,26.5,33.6
			c3.2,16,11.7,41.9,11.9,53.7c0.2,15.3-5.7,37.8-29,42.2c-20.7,3.9-41.4,3.5-81,3.5c-25.1,0-36.7,0.9-31.4,8.8
			c7.2,10.7,41.2,29.6,33.1,29.5c-23.3-0.3-54.8-6.3-72.2-13.6c-12.5-5.3-22.9-11.3-30.1-20.8c-19.5,0.8-17.9,1.9-23.3,1.4
			c-17.6-1.7-23.9-14.3-24.8-30.4C233.1,100.3,250.5,40.3,255.6,26.4z"/>
	</g>
	<g id="baloon1">
		<path style="fill:#A7A8AC;" d="M494.7,198.5c-8.1-27-23.3-30.7-42.8-32.5c-30.3-2.7-165.1,0-186.3,3.2
			c-16.9,2.5-27.3,14.7-33.3,37c-4.9,18.4-16.7,48.4-17.8,62c-1.4,17.7,3.9,44.2,30.7,51c23.9,6,47.9,7.1,94.1,9.9
			c29.2,1.8,42.7,3.7,35.9,12.5c-9.2,11.9-50,30.9-40.7,31.8c29.5,2.6,62.4-2.7,83.5-9.4c14.7-4.6,29-12.6,38.1-23.2
			c22.6,2.4,21.1,3.5,27.4,3.3c20.6-0.7,30.8-13.8,32.7-32.5C518.3,290.1,499.6,214.9,494.7,198.5z"/>
		<path style="fill:#FFFFFF;" d="M496.4,197.6c-7.9-26.6-24.7-31.3-43.8-33c-29.7-2.7-161.8,0.1-182.7,3.3
			c-16.6,2.5-26.8,14.6-32.7,36.5c-4.8,18.1-16.3,47.1-17.4,60.6c-1.4,17.4,3.8,43.6,30.2,50.3c23.4,5.9,47.1,7,92.4,9.7
			c28.7,1.8,41.9,3.6,35.3,12.3c-9,11.8-49.2,30.9-40,31.3c26.7,1.3,63.1-3.3,83.5-10.4c14.6-5.1,27-11.3,35.9-21.7
			c22.2,2.3,20.3,3.4,26.6,3.2c20.3-0.7,28.3-14.6,30.5-33C516.9,283.7,501.2,213.8,496.4,197.6z"/>
	</g>
	<path id="greenline" style="fill:#FFFFFF;stroke:#B8D432;stroke-width:1.5;stroke-miterlimit:10;" d="M364.6,141.7
		c37.3,0,73.4,0.1,92.9-3.6c21.9-4.1,27.5-25.3,27.2-39.7c-0.2-11.1-8-33.1-11.1-48.2c-3.7-18.3-11.5-28.6-24.9-31.5
		C431.7,15,324.8,6.1,300.3,6.8c-15.8,0.4-29.7,3.4-37.6,24.8c-4.8,13-21.3,67.2-20.2,86.1c0.9,15.2,6.7,25.6,23.3,27.2
		c5.1,0.5,2.6-0.6,20.9-1.3c6.8,9,11.7,14.6,21.1,20c6.7,3.9,10.3,6.6,18.5,8.7c-32.6,2.1-42.2,1.5-50.4,2.7
		c-15.6,2.4-25.2,13.7-30.7,34.3c-4.6,17-15.1,41.6-16,54.3c-1.3,16.4,3.6,41,28.3,47.3c22,5.6,63.4,8.1,106,10.7
		c27,1.7,32.8,4.6,26.6,12.7c-8.5,11-44.5,29.3-33.1,28.1c19.9-2.1,40.5-4.9,61.5-12.6c11.6-4.3,25.3-10.8,33.7-20.6
		c20.9,2.2,18,3.2,23.8,3c19-0.6,26.5-12.2,28.5-29.5c2.6-21.6-12.4-84.6-16.9-99.8c-7.4-25-23.2-29.4-41.2-31
		c-13.3-1.2-51.6-0.7-86.4-0.1c-7.4-5.8-15.5-14.7-19.4-20.5C335.8,144,341,141.7,364.6,141.7z"/>
	<g id="text-and">
		<path d="M342.8,220.8l-0.2,3c-0.1,1.1-0.2,2.6-0.5,4.3c0,3,0.2,5.8,0.6,8.2c-0.1,0.3-0.3,0.5-0.7,0.7c-0.4,0.2-0.8,0.2-1.2,0.2
			c-0.4,0-0.8-0.1-1-0.2c-0.2-0.1-0.4-0.3-0.5-0.6c-0.1-0.2-0.1-0.5-0.2-0.6c0-0.2,0-0.4,0-0.7s0-0.5,0-0.5
			c-1.4,1.3-3.1,1.9-5.3,1.8c-2.1-0.1-3.6-1-4.4-2.6c-0.8-1.7-1.2-4-1.1-6.9c0.2-5.1,1.8-8.3,4.8-9.6c0.9-0.4,2-0.5,3.1-0.5
			c1.2,0.1,2.3,0.3,3.3,0.7c0.4-0.5,0.9-0.7,1.6-0.7c1.2,0.1,1.7,1,1.7,2.8C342.8,220.1,342.8,220.5,342.8,220.8z M338.2,230.8
			c0.6-1.5,0.9-3.2,1-5s-0.1-3.1-0.5-4s-1.1-1.3-2.2-1.4c-0.5,0-1,0-1.8,0c-0.7,0.1-1.4,0.7-2.1,1.8c-0.7,1.2-1,2.2-1.1,3l-0.1,1.7
			c-0.1,3,0.4,4.9,1.6,5.8c0.4,0.3,0.8,0.4,1.4,0.4s1.3-0.2,2-0.7C337.3,232.1,337.8,231.5,338.2,230.8z"/>
		<path d="M358.9,236.2l0.1-2.2c0-0.3,0-0.8,0-1.3s0-1.2,0-1.9s0-1.4,0-2.2c0-0.7-0.1-1.4-0.2-2.1c-0.1-1.3-0.4-2.4-0.8-3.3
			c-0.5-0.9-1-1.4-1.8-1.4c-0.7,0-1.3,0.1-1.8,0.3s-0.9,0.6-1.2,1.1c-0.7,1.1-1.1,2.2-1.3,3.5c-0.2,1.3-0.3,2.6-0.4,4.1l-0.3,4.6
			c0,0.6-0.3,1-0.7,1.4c-0.5,0.3-1,0.4-1.5,0.4c-0.7,0-1-0.5-1-1.4c0.1-2.4,0.2-5.2,0.2-8.7c0-3.4,0.1-6.3,0.2-8.6
			c0.2-0.5,0.4-0.9,0.8-1.2c0.3-0.4,0.7-0.5,1-0.5s0.5,0,0.7,0.1s0.3,0.1,0.4,0.3c0.1,0.1,0.2,0.2,0.2,0.3c0.1,0.1,0.1,0.3,0.1,0.5
			c0,0.3,0,0.5,0.1,0.6s0,0.4,0,0.8c0,0.4,0,0.7,0,0.9c1.6-1.9,3.6-2.9,5.8-2.8c1.6,0.1,2.7,0.8,3.4,2.3c1.1,2.2,1.5,5.5,1.3,9.9
			l-0.1,4c0,1.1-0.1,1.8-0.3,2.1c-0.1,0.3-0.3,0.6-0.5,0.9c-0.3,0.5-0.8,0.8-1.6,0.7C359.2,237.5,358.9,237.1,358.9,236.2z"/>
		<path d="M377.3,210.2c0.1-1.5,0.6-2.3,1.5-2.2c0.5,0,0.9,0.1,1.1,0.3s0.4,0.5,0.4,1c0.1,0.5,0.1,1.4,0,2.9s-0.1,3.3-0.1,5.4
			c0,2.2,0,3.9-0.1,5.1c0,1.2,0,3.2,0,5.9c0.1,2.7,0.1,4.9,0,6.6l-0.2,2.4c-0.1,0.5-0.3,0.9-0.6,1c-0.3,0.1-0.8,0.2-1.3,0.2
			c-0.6,0-0.9-0.4-1.1-1.2l-0.1-0.7c-1.3,0.9-2.7,1.3-4.4,1.2c-2.2-0.1-3.9-1-5.1-2.7s-1.7-3.6-1.6-5.8s0.7-4.3,1.7-6.3
			c1.1-2.1,2.6-3.5,4.6-4.4c1.1-0.5,2.3-0.7,3.7-0.6c0.5,0,0.9,0.1,1.2,0.1l0.1-3.4l0.2-2.7L377.3,210.2z M376.6,233.3
			c0.2-0.4,0.3-1.2,0.3-2.3c0.1-1.1,0.1-1.8,0.1-1.9v-0.8c0.1-1.5,0-2.9-0.3-4.2s-0.7-1.9-1.3-2c-0.8,0-1.7,0-2.6,0.1
			c-1,0.1-1.6,0.4-1.9,0.8c-1,1.2-1.5,3.1-1.7,5.9c-0.1,2,0.5,3.5,1.6,4.6c0.7,0.7,1.4,1,2.3,1c0.8,0,1.6-0.1,2.2-0.3
			C376,234.1,376.4,233.7,376.6,233.3z"/>
		<path d="M408.9,223.8l-0.2,3c-0.1,1.1-0.2,2.6-0.5,4.3c0,3,0.2,5.8,0.6,8.2c-0.1,0.3-0.3,0.5-0.7,0.7c-0.4,0.2-0.8,0.2-1.2,0.2
			c-0.4,0-0.8-0.1-1-0.2c-0.2-0.1-0.4-0.3-0.5-0.6c-0.1-0.2-0.1-0.5-0.2-0.6c0-0.2,0-0.4,0-0.7s0-0.5,0-0.5
			c-1.4,1.3-3.1,1.9-5.3,1.8c-2.1-0.1-3.6-1-4.4-2.6c-0.8-1.7-1.2-4-1.1-6.9c0.2-5.1,1.8-8.3,4.8-9.6c0.9-0.4,2-0.5,3.1-0.5
			c1.2,0.1,2.3,0.3,3.3,0.7c0.4-0.5,0.9-0.7,1.6-0.7c1.2,0.1,1.7,1,1.7,2.8C408.9,223.1,408.9,223.5,408.9,223.8z M404.2,233.8
			c0.6-1.5,0.9-3.2,1-5s-0.1-3.1-0.5-4s-1.1-1.3-2.2-1.4c-0.5,0-1,0-1.8,0c-0.7,0.1-1.4,0.7-2.1,1.8c-0.7,1.2-1,2.2-1.1,3l-0.1,1.7
			c-0.1,3,0.4,4.9,1.6,5.8c0.4,0.3,0.8,0.4,1.4,0.4s1.3-0.2,2-0.7C403.4,235.1,403.9,234.5,404.2,233.8z"/>
		<path d="M295.7,277.8l-0.6,12.7c-0.2,0.6-0.5,1-0.9,1.4s-0.9,0.5-1.4,0.5c-0.7,0-1.1-0.5-1-1.5l0.7-14.6l0.7-15
			c0.1-0.7,0.3-1.2,0.6-1.5c0.2-0.3,0.6-0.5,1.2-0.5c0.5,0,0.9,0.2,1,0.4c0.2,0.3,0.3,0.9,0.5,2c0.1-0.5,0.6-1,1.3-1.4
			c0.8-0.5,1.8-0.7,3.3-0.6c1.4,0.1,2.7,0.4,3.7,1.1c1,0.6,1.8,1.5,2.4,2.5c1,2,1.5,4.5,1.4,7.3s-1,5.1-2.8,6.6
			c-1.7,1.6-4,2.3-6.9,2.2c-1,0-1.9-0.4-2.6-1.1C295.9,278,295.8,277.9,295.7,277.8z M300.2,263c-1.1,0.1-2,0.5-2.8,1.3
			c-0.7,0.8-1.1,1.5-1.2,2.2l-0.4,7.9c0.1,0,0.3,0.2,0.6,0.5c0.8,0.8,1.7,1.2,2.6,1.2c3.9,0.2,5.9-1.7,6.1-5.8
			c0.2-3.5-0.6-5.7-2.3-6.6C302.1,263.3,301.3,263.1,300.2,263z"/>
		<path d="M325.9,264.7l-0.2,3c-0.1,1.1-0.2,2.6-0.5,4.3c0,3,0.2,5.8,0.6,8.2c-0.1,0.3-0.3,0.5-0.7,0.7c-0.4,0.2-0.8,0.2-1.2,0.2
			c-0.4,0-0.8-0.1-1-0.2s-0.4-0.3-0.5-0.6c-0.1-0.2-0.1-0.5-0.2-0.6c0-0.2,0-0.4,0-0.7s0-0.5,0-0.5c-1.4,1.3-3.1,1.9-5.3,1.8
			c-2.1-0.1-3.6-1-4.4-2.6c-0.8-1.7-1.2-4-1.1-6.9c0.2-5.1,1.8-8.3,4.8-9.6c0.9-0.4,2-0.5,3.1-0.5c1.2,0.1,2.3,0.3,3.4,0.7
			c0.4-0.5,0.9-0.7,1.6-0.7c1.2,0.1,1.7,1,1.7,2.8C326,264,326,264.4,325.9,264.7z M321.3,274.7c0.6-1.5,0.9-3.2,1-5s-0.1-3.1-0.5-4
			s-1.1-1.3-2.2-1.4c-0.5,0-1,0-1.8,0c-0.7,0.1-1.4,0.7-2.1,1.8c-0.7,1.2-1,2.2-1.1,3l-0.1,1.7c-0.1,3,0.4,4.9,1.6,5.8
			c0.4,0.3,0.8,0.4,1.4,0.4s1.3-0.2,2-0.7C320.5,276,321,275.4,321.3,274.7z"/>
		<path d="M337.6,261.3c1,0,2.1,0.3,3.1,0.7c2,0.8,3,1.7,3,2.7c0,0.5-0.2,0.9-0.7,1.1c-0.4,0.3-0.9,0.4-1.4,0.4
			c-0.1,0-0.7-0.3-1.8-0.9c-1.1-0.6-2-0.9-2.7-0.9s-1.3,0.1-1.9,0.5s-0.9,0.9-1,1.5c0,0.6,0.1,1.2,0.5,1.7s0.8,0.8,1.3,1
			c0.6,0.2,1.2,0.4,1.8,0.6c1.8,0.5,3.1,0.9,3.8,1.2c1.2,0.7,1.8,1.9,1.7,3.6c-0.1,1.8-0.8,3.3-2.2,4.6c-1.4,1.3-2.8,1.9-4.3,1.8
			s-2.7-0.3-3.7-0.7c-1.7-0.7-2.5-1.6-2.5-2.7c0-1,0.7-1.5,1.8-1.4c0.6,0,1.3,0.3,2.3,0.9c1,0.5,1.8,0.8,2.5,0.9s1.3-0.4,1.9-1.2
			c0.6-0.8,0.9-1.6,1-2.4c0-0.2,0-0.4-0.1-0.7c-0.7-0.8-2.2-1.4-4.4-1.9c-0.8-0.2-1.5-0.4-2.3-0.7c-1.6-0.7-2.4-2.2-2.3-4.7
			c0.1-1.7,0.7-3,2-3.9C334.3,261.6,335.8,261.2,337.6,261.3z"/>
		<path d="M353.8,262c1,0,2.1,0.3,3.1,0.7c2,0.8,3,1.7,3,2.7c0,0.5-0.2,0.9-0.7,1.1c-0.4,0.3-0.9,0.4-1.4,0.4
			c-0.1,0-0.7-0.3-1.8-0.9c-1.1-0.6-2-0.9-2.7-0.9s-1.3,0.1-1.9,0.5s-0.9,0.9-1,1.5c0,0.6,0.1,1.2,0.5,1.7c0.3,0.5,0.8,0.8,1.3,1
			c0.6,0.2,1.2,0.4,1.8,0.6c1.8,0.5,3.1,0.9,3.8,1.2c1.2,0.7,1.8,1.9,1.7,3.6c-0.1,1.8-0.8,3.3-2.2,4.6c-1.4,1.3-2.8,1.9-4.3,1.8
			s-2.7-0.3-3.7-0.7c-1.7-0.7-2.5-1.6-2.5-2.7c0-1,0.7-1.5,1.8-1.4c0.6,0,1.3,0.3,2.3,0.9c1,0.5,1.8,0.8,2.5,0.9s1.3-0.4,1.9-1.2
			c0.6-0.8,0.9-1.6,1-2.4c0-0.2,0-0.4-0.1-0.7c-0.7-0.8-2.2-1.4-4.4-1.9c-0.8-0.2-1.5-0.4-2.3-0.7c-1.6-0.7-2.4-2.2-2.3-4.7
			c0.1-1.7,0.7-3,2-3.9C350.5,262.4,352,261.9,353.8,262z"/>
		<path d="M376.6,271.1v-6.5c0.2-0.4,0.4-0.7,0.8-1s0.7-0.4,1.1-0.4c0.8,0,1.2,1.7,1,4.9l-0.1,2.3c-0.2,3.8-0.9,7.2-2.2,10.1
			c-0.7,1.7-1.5,2.5-2.4,2.4c-0.5,0-1-0.4-1.5-1.2c-0.4-0.8-0.9-1.8-1.4-3c-0.5-1.3-0.9-2.1-1.2-2.6c-0.3,0.6-0.8,1.4-1.4,2.5
			s-1,1.7-1.1,1.8c-1,1.4-1.9,2.1-2.6,2.1c-0.3,0-0.8-0.8-1.5-2.4c-1.5-5.1-2.1-10.5-1.8-16.1c0.2-0.6,0.6-1.1,1.3-1.3
			c0.2-0.1,0.4-0.1,0.6-0.1c0.6,0,0.9,0.4,1,1.2c-0.2,4.4,0.3,8.7,1.7,12.8c0.3-0.5,0.7-1.1,1.1-1.8c0.4-0.7,0.7-1.3,0.9-1.7
			c0.6-0.9,1.3-1.4,2-1.4c0.8,0,1.6,0.8,2.3,2.1c0.5,1,0.9,1.9,1.2,2.6c0.3,0.7,0.5,1.1,0.5,1.2C376,275.3,376.5,273.1,376.6,271.1z
			"/>
		<path d="M386.9,264.5c1.1-0.6,2.3-0.8,3.6-0.8s2.5,0.7,3.5,1.8c1.9,2.2,2.8,5.1,2.6,8.8c-0.1,1.9-0.7,3.9-1.9,6
			c-0.6,1-1.3,1.8-2.2,2.4c-0.9,0.6-1.9,0.9-3.1,0.9c-1.2-0.1-2.3-0.4-3.3-1.2c-1.1-0.7-1.9-1.6-2.6-2.6c-1.4-2.2-2-4.3-1.9-6.1
			c0.1-2.5,1-4.8,2.6-6.9C384.9,265.9,385.8,265.1,386.9,264.5z M390.4,280.6c0.8-0.4,1.5-1.1,2-2c0.5-1,0.7-2,0.8-3
			c0-1,0-2-0.1-2.8s-0.3-1.6-0.5-2.4c-0.3-0.8-0.7-1.4-1.2-2s-1.2-0.9-1.9-1.1c-1.2,0.1-2.3,0.8-3.2,2c-0.9,1.2-1.3,2.4-1.4,3.6
			s0.4,2.8,1.4,4.6c0.4,0.8,1,1.6,1.8,2.2C388.8,280.3,389.6,280.6,390.4,280.6z"/>
		<path d="M400.8,278.8l0.1-1.3c0.1-1.8,0-3.7-0.1-5.8c-0.2-2.1-0.4-3.6-0.7-4.7c-0.3-1-0.4-1.7-0.4-2s0.2-0.5,0.6-0.8
			s0.8-0.4,1.3-0.4s0.8,0.2,1.1,0.6c0.3,0.4,0.4,0.8,0.5,1.1c0.1,0.4,0.1,0.9,0.1,1.5s0,1.1,0.1,1.3c0.8-1.7,2.1-2.9,3.8-3.5
			c0.9-0.3,1.9-0.5,2.9-0.4c2.3,0.1,3.4,0.8,3.4,1.9c0,0.7-0.4,1.3-1.2,1.6c-0.3,0.1-0.6,0.2-0.9,0.2l-1.2-0.2
			c-3.5-0.2-5.5,3.3-5.8,10.3l-0.1,3.9v0.1c-0.1,0.5-0.4,0.9-0.8,1.3s-0.8,0.6-1.3,0.5c-0.6,0-1-0.6-1.2-1.6
			C400.8,281.8,400.8,280.5,400.8,278.8z"/>
		<path d="M426.7,257.2c0.1-1.5,0.6-2.3,1.5-2.2c0.5,0,0.9,0.1,1.1,0.3s0.4,0.5,0.4,1c0.1,0.5,0.1,1.4,0,2.9
			c-0.1,1.4-0.1,3.3-0.1,5.4c0,2.2,0,3.9-0.1,5.1c0,1.2,0,3.2,0,5.9c0.1,2.7,0.1,4.9,0,6.6l-0.2,2.4c-0.1,0.5-0.3,0.9-0.6,1
			c-0.3,0.1-0.8,0.2-1.3,0.2c-0.6,0-0.9-0.4-1.1-1.2l-0.1-0.7c-1.3,0.9-2.7,1.3-4.4,1.2c-2.2-0.1-3.9-1-5.1-2.7s-1.7-3.6-1.6-5.8
			c0.1-2.2,0.7-4.3,1.7-6.3s2.6-3.5,4.6-4.4c1.1-0.5,2.3-0.7,3.7-0.6c0.5,0,0.9,0.1,1.2,0.1l0.1-3.4l0.2-2.7L426.7,257.2z
			 M426,280.3c0.2-0.4,0.3-1.2,0.3-2.3c0.1-1.1,0.1-1.8,0.1-1.9v-0.8c0.1-1.5,0-2.9-0.3-4.2c-0.3-1.3-0.7-1.9-1.3-2
			c-0.8,0-1.7,0-2.6,0.1c-1,0.1-1.6,0.4-1.9,0.8c-1,1.2-1.5,3.1-1.7,5.9c-0.1,2,0.5,3.5,1.6,4.6c0.7,0.7,1.4,1,2.3,1
			c0.8,0,1.6-0.1,2.2-0.3C425.4,281,425.8,280.7,426,280.3z"/>
		<path d="M435,282.1c0-0.5,0.2-0.9,0.6-1.3s0.9-0.6,1.6-0.6s1.1,0.2,1.5,0.4c0.3,0.3,0.4,0.8,0.4,1.7c0,0.9-0.3,1.5-0.7,1.8
			s-0.8,0.4-1.3,0.4c-0.6,0-1.2-0.3-1.5-0.9C435.1,283,434.9,282.5,435,282.1z M439.7,256.6l-1,14.5c-0.1,1.3-0.1,2.4-0.1,3.1
			c-0.1,0.4-0.4,0.7-0.7,0.9c-0.3,0.3-0.7,0.4-1.1,0.4s-0.7-0.3-0.9-1c-0.1-7.2,0-13.2,0.2-18c0.2-0.4,0.5-0.7,0.9-0.8
			c0.5-0.1,0.9-0.2,1.2-0.2C439,255.5,439.6,255.9,439.7,256.6z"/>
	</g>
	<g id="text-lets">
		<path d="M275.5,72.1l-2.3,0.1c-0.4,0-0.9,0-1.5-0.1s-1-0.3-1.2-0.8c-0.3-2.6-0.4-5.4-0.4-8.4l0.2-17.8c0-0.3,0.2-0.6,0.5-0.8
			c0.4-0.2,0.8-0.3,1.4-0.3c0.5,0,1,0.1,1.4,0.4s0.6,0.7,0.6,1.2c-0.1,0.9-0.3,3.3-0.6,7.2c-0.3,3.9-0.5,7.1-0.5,9.5
			c0,2.5,0.1,4.7,0.4,6.7c0.1,0,0.4,0,0.8,0s1.6-0.1,3.5-0.4c1.9-0.2,3.1-0.4,3.6-0.4c1.3,0,2,0.5,2,1.4c0,0.8-0.4,1.4-1.1,1.7
			c-0.8,0.3-1.6,0.5-2.4,0.6c-0.8,0-1.4,0.1-1.9,0.1L275.5,72.1z"/>
		<path d="M297.6,53.5c1.4,0.8,2.1,1.9,2.1,3.1s-0.6,2.5-1.9,3.8s-2.8,2-4.7,2.3c-0.2,0-0.3,0.1-0.4,0.1s-0.2,0-0.4,0
			c-0.2,0-0.3,0-0.4,0s-0.2,0-0.4,0c-0.2,0-0.3,0-0.4,0s-0.2,0-0.5,0c-0.2,0-0.4,0-0.5,0c0.3,2.2,0.8,3.7,1.3,4.4
			c0.8,0.6,1.5,1,2.1,1c1.4,0,2.7-0.6,3.9-1.8c1.2-1.2,2.1-1.8,2.6-1.8c0.2,0,0.5,0.2,1,0.6s0.7,0.8,0.7,1.2s-0.2,0.9-0.7,1.5
			s-1.1,1.2-1.9,1.8s-1.7,1.2-2.8,1.6c-1.1,0.5-2.1,0.7-3.1,0.7s-1.8-0.2-2.5-0.7c-1.3-0.8-2.3-2.2-3-4.1s-1.1-4-1.1-6.2
			s0.4-4.1,1.4-5.9c1-2,2.8-3,5.4-3C294.8,52.2,296.2,52.6,297.6,53.5z M296.1,56.9c0-1.2-0.8-1.8-2.4-1.8c-1.1,0-2,0.6-2.7,1.9
			c-0.2,0.4-0.4,0.8-0.5,1.3s-0.2,1-0.3,1.6C294.1,59.9,296.1,58.9,296.1,56.9z"/>
		<path d="M310.1,42.7l-0.2,5.1c0,0.3,0.1,1.7,0.2,4c1.7,0,3.3-0.1,4.9-0.2c0.8,0.2,1.3,0.7,1.3,1.5s-0.3,1.4-0.8,1.7
			c-0.6,0.3-1.1,0.5-1.7,0.6c-0.6,0-1,0.1-1.3,0.1s-0.7,0-1.2,0s-0.8,0-1.1,0c0,0.3,0.1,1,0.2,2.4c0.1,1.3,0.1,2.2,0.2,2.6
			c0.3,3.9,0.6,7,1.1,9.4c-0.1,0.5-0.4,1-0.8,1.4s-0.9,0.6-1.3,0.6c-0.5,0-0.9-0.3-1.1-1c-0.4-2.5-0.8-5.5-1-9s-0.3-5.6-0.3-6.3
			c-0.4,0-1.1,0.1-2.1,0.1s-1.8-0.1-2.4-0.2c-0.7-0.1-1-0.5-1-1.2c0-1.4,0.8-2.1,2.4-2.2h2c0.3,0,0.6,0,0.8-0.1
			c-0.1-2.9-0.2-4.3-0.2-4.4c0-0.2,0-0.6,0-1.3s0.1-1.7,0.1-3c0.1-0.5,0.4-0.9,0.8-1.2s0.8-0.5,1.3-0.5
			C309.5,41.5,309.9,41.9,310.1,42.7z"/>
		<path d="M319.1,40.7c0.1-0.4,0.3-0.8,0.5-1c0.3-0.2,0.6-0.4,0.9-0.4c0.6,0,1.1,0.4,1.5,1.2c0,1.3-0.1,2.5-0.4,3.7
			c-0.5,2.2-1.4,3.3-2.5,3.3c-0.9,0-1.4-0.5-1.4-1.4c0-0.3,0-0.6,0.2-0.9c0.5-0.6,0.9-1.2,1-1.9C319,42.6,319.1,41.7,319.1,40.7z"/>
		<path d="M333.7,51.6c1,0,2.1,0.1,3.2,0.5c2.1,0.7,3.1,1.5,3.1,2.6c0,0.5-0.2,0.9-0.6,1.2s-0.9,0.4-1.4,0.4c-0.1,0-0.7-0.3-1.9-0.8
			c-1.1-0.5-2.1-0.8-2.7-0.8c-0.7,0-1.3,0.2-1.9,0.6c-0.6,0.4-0.9,0.9-0.9,1.6s0.2,1.2,0.5,1.6c0.4,0.4,0.8,0.8,1.4,1
			s1.2,0.4,1.9,0.5c1.8,0.3,3.1,0.7,3.8,1c1.3,0.6,1.9,1.8,1.9,3.5c0,1.8-0.6,3.3-2,4.7c-1.3,1.4-2.7,2-4.2,2.1
			c-1.5,0-2.7-0.1-3.7-0.5c-1.7-0.6-2.6-1.5-2.6-2.5s0.6-1.5,1.8-1.5c0.6,0,1.4,0.2,2.4,0.7s1.9,0.7,2.5,0.7c0.7,0,1.3-0.4,1.8-1.3
			c0.6-0.8,0.8-1.6,0.8-2.4c0-0.2,0-0.4-0.1-0.7c-0.8-0.7-2.3-1.3-4.5-1.6c-0.8-0.1-1.6-0.3-2.3-0.6c-1.7-0.6-2.5-2.1-2.5-4.5
			c0-1.7,0.6-3,1.8-4S331.9,51.6,333.7,51.6z"/>
		<path d="M366.1,52.1c0.4,0.2,0.6,0.5,0.6,0.8c0,0.6-0.1,1.2-0.4,1.9s-0.7,1.1-1.3,1.1c-0.3,0-0.8-0.2-1.6-0.5
			c-0.8-0.3-1.4-0.5-1.7-0.5c-1.6,0-2.9,0.6-4.1,1.8s-1.7,2.8-1.7,4.7c0,2,0.3,3.5,1,4.5c0.6,1,1.7,1.5,3.3,1.5c0.9,0,2-0.4,3.3-1.1
			s2.2-1.1,2.6-1.1s0.7,0.1,1,0.3c0.2,0.2,0.3,0.5,0.3,0.8c0,0.7-0.4,1.4-1.3,2.2c-0.9,0.8-1.9,1.4-3.1,1.9s-2.4,0.7-3.4,0.8
			c-2.3,0-4.1-0.9-5.3-2.6c-1.3-1.8-1.9-4.2-2-7.3c0-2,0.5-3.7,1.5-5.3s2.3-2.7,3.8-3.5s3.1-1.2,4.9-1.2
			C364,51.3,365.3,51.6,366.1,52.1z"/>
		<path d="M370.9,65.8v-1.3c0-1.8-0.2-3.7-0.5-5.7c-0.3-2.1-0.6-3.6-0.9-4.6s-0.5-1.7-0.5-1.9c0-0.3,0.2-0.5,0.5-0.8
			c0.4-0.3,0.8-0.4,1.3-0.4s0.9,0.2,1.1,0.5c0.3,0.4,0.5,0.7,0.5,1.1c0.1,0.4,0.1,0.9,0.2,1.5s0.1,1.1,0.1,1.3
			c0.7-1.8,1.9-3,3.6-3.7c0.9-0.4,1.8-0.6,2.9-0.6c2.3,0,3.5,0.6,3.5,1.7c0,0.7-0.4,1.3-1.1,1.7c-0.3,0.1-0.6,0.2-0.9,0.3l-1.2-0.1
			c-3.5,0-5.3,3.6-5.2,10.6l0.1,3.9v0.1c-0.1,0.5-0.4,1-0.8,1.4s-0.8,0.6-1.2,0.6c-0.6,0-1-0.5-1.2-1.5
			C371.1,68.8,371,67.5,370.9,65.8z"/>
		<path d="M396.6,52.4c1.4,0.8,2.1,1.9,2.1,3.1s-0.6,2.5-1.9,3.8s-2.8,2-4.7,2.3c-0.2,0-0.3,0.1-0.4,0.1s-0.2,0-0.4,0
			c-0.2,0-0.3,0-0.4,0s-0.2,0-0.4,0c-0.2,0-0.3,0-0.4,0s-0.2,0-0.5,0s-0.4,0-0.5,0c0.3,2.2,0.8,3.7,1.3,4.4c0.8,0.6,1.5,1,2.1,1
			c1.4,0,2.7-0.6,3.9-1.8c1.2-1.2,2.1-1.8,2.6-1.8c0.2,0,0.5,0.2,1,0.6s0.7,0.8,0.7,1.2s-0.2,0.9-0.7,1.5s-1.1,1.2-1.9,1.8
			c-0.8,0.6-1.7,1.2-2.8,1.6c-1.1,0.5-2.1,0.7-3.1,0.7s-1.8-0.2-2.5-0.7c-1.3-0.8-2.3-2.2-3-4.1s-1.1-4-1.1-6.2s0.4-4.1,1.4-5.9
			c1-2,2.8-3,5.4-3C393.8,51.2,395.2,51.6,396.6,52.4z M395,55.9c0-1.2-0.8-1.8-2.4-1.8c-1.1,0-2,0.6-2.7,1.9
			c-0.2,0.4-0.4,0.8-0.5,1.3s-0.2,1-0.3,1.6C393.1,58.8,395,57.8,395,55.9z"/>
		<path d="M416.9,54.7v3c0,1.1-0.1,2.6-0.2,4.3c0.2,3,0.5,5.7,1.1,8.1c-0.1,0.3-0.3,0.6-0.7,0.8c-0.4,0.2-0.8,0.3-1.2,0.3
			c-0.4,0-0.8,0-1-0.2c-0.3-0.1-0.4-0.3-0.5-0.5s-0.2-0.4-0.2-0.6s-0.1-0.4-0.1-0.7c0-0.3,0-0.5,0-0.5c-1.3,1.4-3,2.1-5.1,2.1
			s-3.6-0.8-4.6-2.4c-0.9-1.6-1.4-3.9-1.4-6.8c-0.1-5.1,1.4-8.4,4.2-9.8c0.9-0.4,1.9-0.7,3.1-0.7s2.3,0.2,3.4,0.6
			c0.4-0.5,0.9-0.8,1.5-0.8c1.2,0,1.8,0.9,1.8,2.7C416.9,53.9,416.9,54.3,416.9,54.7z M412.8,64.9c0.5-1.6,0.8-3.2,0.7-5
			c0-1.8-0.2-3.1-0.7-3.9c-0.4-0.8-1.2-1.2-2.2-1.2c-0.4,0-1,0.1-1.7,0.1c-0.7,0.1-1.4,0.7-2,1.9s-0.9,2.2-0.9,3v1.7
			c0,3,0.7,4.9,1.9,5.7c0.4,0.3,0.9,0.4,1.5,0.4s1.3-0.3,2-0.8C412.1,66.2,412.5,65.6,412.8,64.9z"/>
		<path d="M428.4,41.4l-0.2,5.1c0,0.3,0.1,1.7,0.2,4c1.7,0,3.3-0.1,4.9-0.2c0.8,0.2,1.3,0.7,1.3,1.5s-0.3,1.4-0.8,1.7
			c-0.6,0.3-1.1,0.5-1.7,0.6c-0.6,0-1,0.1-1.3,0.1s-0.7,0-1.2,0s-0.8,0-1.1,0c0,0.3,0.1,1,0.2,2.4c0.1,1.3,0.1,2.2,0.2,2.6
			c0.3,3.9,0.6,7,1.1,9.4c-0.1,0.5-0.4,1-0.8,1.4s-0.9,0.6-1.3,0.6c-0.5,0-0.9-0.3-1.1-1c-0.4-2.5-0.8-5.5-1-9s-0.3-5.6-0.3-6.3
			c-0.4,0-1.1,0.1-2.1,0.1s-1.8-0.1-2.4-0.2c-0.7-0.1-1-0.5-1-1.2c0-1.4,0.8-2.1,2.4-2.2h2c0.3,0,0.6,0,0.8-0.1
			c-0.1-2.9-0.2-4.3-0.2-4.4c0-0.2,0-0.6,0-1.3s0.1-1.7,0.1-3c0.1-0.5,0.4-0.9,0.8-1.2s0.8-0.5,1.3-0.5
			C427.8,40.2,428.2,40.6,428.4,41.4z"/>
		<path d="M447.3,51.9c1.4,0.8,2.1,1.9,2.1,3.1s-0.6,2.5-1.9,3.8s-2.8,2-4.7,2.3c-0.2,0-0.3,0.1-0.4,0.1s-0.2,0-0.4,0
			c-0.2,0-0.3,0-0.4,0s-0.2,0-0.4,0c-0.2,0-0.3,0-0.4,0s-0.2,0-0.5,0s-0.4,0-0.5,0c0.3,2.2,0.8,3.7,1.3,4.4c0.8,0.6,1.5,1,2.1,1
			c1.4,0,2.7-0.6,3.9-1.8c1.2-1.2,2.1-1.8,2.6-1.8c0.2,0,0.5,0.2,1,0.6s0.7,0.8,0.7,1.2s-0.2,0.9-0.7,1.5s-1.1,1.2-1.9,1.8
			c-0.8,0.6-1.7,1.2-2.8,1.6c-1.1,0.5-2.1,0.7-3.1,0.7s-1.8-0.2-2.5-0.7c-1.3-0.8-2.3-2.2-3-4.1s-1.1-4-1.1-6.2s0.4-4.1,1.4-5.9
			c1-2,2.8-3,5.4-3C444.5,50.6,445.9,51.1,447.3,51.9z M445.7,55.4c0-1.2-0.8-1.8-2.4-1.8c-1.1,0-2,0.6-2.7,1.9
			c-0.2,0.4-0.4,0.8-0.5,1.3s-0.2,1-0.3,1.6C443.7,58.3,445.7,57.3,445.7,55.4z"/>
		<path d="M287.5,100.7v3c0,1.1-0.1,2.6-0.2,4.3c0.2,3,0.5,5.7,1.1,8.1c-0.1,0.3-0.3,0.6-0.7,0.8c-0.4,0.2-0.8,0.3-1.2,0.3
			s-0.8,0-1-0.2c-0.3-0.1-0.4-0.3-0.5-0.5s-0.2-0.4-0.2-0.6s-0.1-0.4-0.1-0.7c0-0.3,0-0.5,0-0.5c-1.3,1.4-3,2.1-5.1,2.1
			s-3.6-0.8-4.6-2.4c-0.9-1.6-1.4-3.9-1.4-6.8c-0.1-5.1,1.4-8.4,4.2-9.8c0.9-0.4,1.9-0.7,3.1-0.7s2.3,0.2,3.4,0.6
			c0.4-0.5,0.9-0.8,1.5-0.8c1.2,0,1.8,0.9,1.8,2.7C287.5,100,287.5,100.4,287.5,100.7z M283.5,110.9c0.5-1.6,0.8-3.2,0.7-5
			c0-1.8-0.2-3.1-0.7-3.9c-0.4-0.8-1.2-1.2-2.2-1.2c-0.5,0-1,0.1-1.7,0.1c-0.7,0.1-1.4,0.7-2,1.9c-0.6,1.2-0.9,2.2-0.9,3v1.7
			c0,3,0.7,4.9,1.9,5.7c0.4,0.3,0.9,0.4,1.5,0.4s1.3-0.3,2-0.8C282.7,112.2,283.2,111.6,283.5,110.9z"/>
		<path d="M312.5,113.3c-2,2.1-3.9,3.1-5.9,3.2c-1,0-1.8-0.3-2.5-1.1c-0.7-0.7-1.3-1.7-1.7-2.9c-0.8-2.3-1.1-4.5-1.2-6.7
			c0-2.2,0.1-4.7,0.3-7.5c0.1-0.5,0.3-0.9,0.7-1.2c0.4-0.3,0.7-0.5,1.1-0.5c0.8,0,1.3,0.4,1.4,1.2c-0.1,1.9-0.2,3.8-0.2,5.6
			c0,1.8,0.1,3.1,0.1,3.9c0.1,2,0.8,4.1,2.1,6.1c1.1-0.3,2.2-0.8,3.1-1.6c0.9-0.8,1.7-1.7,2.2-2.6c-0.4-4.1-0.6-7.6-0.6-10.5
			c0-0.6,0.2-1.1,0.6-1.5s0.8-0.6,1.4-0.7c0.5,0,1,0.4,1.3,1.1c0,1.4,0.2,4.6,0.4,9.7c0.1,0.7,0.3,2,0.6,3.9
			c0.3,1.9,0.5,3.1,0.5,3.5s-0.2,0.9-0.6,1.3c-0.4,0.5-0.9,0.7-1.4,0.7s-0.9-0.3-1.1-1L312.5,113.3z"/>
		<path d="M325.4,96.3c1,0,2.1,0.1,3.2,0.5c2.1,0.7,3.1,1.5,3.1,2.6c0,0.5-0.2,0.9-0.6,1.2c-0.4,0.3-0.9,0.4-1.4,0.4
			c-0.1,0-0.7-0.3-1.9-0.8c-1.1-0.5-2.1-0.8-2.7-0.8c-0.7,0-1.3,0.2-1.9,0.6s-0.9,0.9-0.9,1.6c0,0.6,0.2,1.2,0.5,1.6
			c0.4,0.4,0.8,0.8,1.4,1s1.2,0.4,1.9,0.5c1.8,0.3,3.1,0.7,3.8,1c1.3,0.6,1.9,1.8,1.9,3.5c0,1.8-0.6,3.3-2,4.7s-2.7,2-4.2,2.1
			c-1.5,0-2.7-0.1-3.7-0.5c-1.7-0.6-2.6-1.5-2.6-2.5s0.6-1.5,1.8-1.5c0.6,0,1.4,0.2,2.4,0.7s1.9,0.7,2.5,0.7c0.7,0,1.3-0.4,1.8-1.3
			c0.6-0.8,0.8-1.6,0.8-2.4c0-0.2,0-0.4-0.1-0.7c-0.8-0.7-2.3-1.3-4.5-1.6c-0.8-0.1-1.6-0.3-2.3-0.6c-1.7-0.6-2.5-2.1-2.5-4.5
			c0-1.7,0.6-3,1.8-4C322.1,96.8,323.6,96.3,325.4,96.3z"/>
		<path d="M346.1,97.6c1.4,0.8,2.1,1.9,2.1,3.1c0,1.3-0.6,2.5-1.9,3.8s-2.8,2-4.7,2.3c-0.2,0-0.3,0.1-0.4,0.1s-0.2,0-0.4,0
			c-0.2,0-0.3,0-0.4,0s-0.2,0-0.4,0c-0.2,0-0.3,0-0.4,0s-0.2,0-0.5,0c-0.2,0-0.4,0-0.5,0c0.3,2.2,0.8,3.7,1.3,4.4
			c0.8,0.6,1.5,1,2.1,1c1.4,0,2.7-0.6,3.9-1.8c1.2-1.2,2.1-1.8,2.6-1.8c0.2,0,0.5,0.2,1,0.6s0.7,0.8,0.7,1.2s-0.2,0.9-0.7,1.5
			s-1.1,1.2-1.9,1.8c-0.8,0.6-1.7,1.2-2.8,1.6c-1.1,0.5-2.1,0.7-3.1,0.7s-1.8-0.2-2.5-0.7c-1.3-0.8-2.3-2.2-3-4.1s-1.1-4-1.1-6.2
			s0.4-4.1,1.4-5.9c1-2,2.8-3,5.4-3C343.3,96.4,344.7,96.8,346.1,97.6z M344.5,101.1c0-1.2-0.8-1.8-2.4-1.8c-1.1,0-2,0.6-2.7,1.9
			c-0.2,0.4-0.4,0.8-0.5,1.3s-0.2,1-0.3,1.6C342.6,104,344.5,103,344.5,101.1z"/>
		<path d="M353.4,110.7v-1.3c0-1.8-0.2-3.7-0.5-5.7c-0.3-2.1-0.6-3.6-0.9-4.6s-0.5-1.7-0.5-1.9c0-0.3,0.2-0.5,0.5-0.8
			c0.4-0.3,0.8-0.4,1.3-0.4s0.9,0.2,1.1,0.5c0.3,0.4,0.5,0.7,0.5,1.1c0.1,0.4,0.1,0.9,0.2,1.5s0.1,1.1,0.1,1.3
			c0.7-1.8,1.9-3,3.6-3.7c0.9-0.4,1.8-0.6,2.9-0.6c2.3,0,3.5,0.6,3.5,1.7c0,0.7-0.4,1.3-1.1,1.7c-0.3,0.1-0.6,0.2-0.9,0.3l-1.2-0.1
			c-3.5,0-5.3,3.6-5.2,10.6l0.1,3.9v0.1c-0.1,0.5-0.4,1-0.8,1.4s-0.8,0.6-1.2,0.6c-0.6,0-1-0.5-1.2-1.5
			C353.6,113.6,353.5,112.3,353.4,110.7z"/>
		<path d="M380.2,114.3v-2.2c0-0.3,0-0.8,0-1.3c0-0.6,0-1.2-0.1-1.9c0-0.7-0.1-1.4-0.1-2.2c-0.1-0.7-0.2-1.4-0.3-2.1
			c-0.2-1.3-0.5-2.4-1-3.3s-1.1-1.3-1.8-1.3c-0.7,0-1.3,0.1-1.8,0.4s-0.8,0.7-1.1,1.2c-0.6,1.1-1,2.3-1.1,3.6
			c-0.1,1.3-0.1,2.6-0.1,4.1l-0.1,4.6c0,0.6-0.2,1.1-0.6,1.4s-0.9,0.5-1.5,0.5c-0.7,0-1.1-0.4-1.1-1.3c0-2.4-0.1-5.2-0.3-8.7
			c-0.2-3.4-0.3-6.3-0.3-8.6c0.1-0.5,0.4-0.9,0.7-1.3c0.3-0.4,0.6-0.6,0.9-0.6s0.5,0,0.7,0.1c0.2,0,0.3,0.1,0.4,0.2s0.2,0.2,0.3,0.3
			c0.1,0.1,0.1,0.3,0.2,0.5c0,0.3,0.1,0.5,0.1,0.6c0,0.2,0,0.4,0.1,0.8c0,0.4,0,0.7,0.1,0.9c1.5-2,3.4-3.1,5.7-3.1
			c1.6,0,2.7,0.7,3.5,2.1c1.2,2.1,1.8,5.4,1.8,9.8l0.1,4c0,1.1,0,1.8-0.1,2.1c-0.1,0.4-0.2,0.7-0.4,0.9c-0.3,0.5-0.8,0.8-1.6,0.8
			C380.5,115.7,380.2,115.2,380.2,114.3z"/>
		<path d="M401.6,99.5v3c0,1.1-0.1,2.6-0.2,4.3c0.2,3,0.5,5.7,1.1,8.1c-0.1,0.3-0.3,0.6-0.7,0.8c-0.4,0.2-0.8,0.3-1.2,0.3
			c-0.4,0-0.8,0-1-0.2c-0.3-0.1-0.4-0.3-0.5-0.5s-0.2-0.4-0.2-0.6s-0.1-0.4-0.1-0.7c0-0.3,0-0.5,0-0.5c-1.3,1.4-3,2.1-5.1,2.1
			s-3.6-0.8-4.6-2.4c-0.9-1.6-1.4-3.9-1.4-6.8c-0.1-5.1,1.4-8.4,4.2-9.8c0.9-0.4,1.9-0.7,3.1-0.7s2.3,0.2,3.4,0.6
			c0.4-0.5,0.9-0.8,1.5-0.8c1.2,0,1.8,0.9,1.8,2.7C401.6,98.8,401.6,99.2,401.6,99.5z M397.5,109.7c0.5-1.6,0.8-3.2,0.7-5
			c0-1.8-0.2-3.1-0.7-3.9c-0.4-0.8-1.2-1.2-2.2-1.2c-0.4,0-1,0.1-1.7,0.1c-0.7,0.1-1.4,0.7-2,1.9c-0.6,1.2-0.9,2.2-0.9,3v1.7
			c0,3,0.7,4.9,1.9,5.7c0.4,0.3,0.9,0.4,1.5,0.4s1.3-0.3,2-0.8C396.7,111,397.2,110.4,397.5,109.7z"/>
		<path d="M417,107.6v-2.3c0-1.8-0.1-3-0.4-3.6c-0.2-0.6-0.4-1.1-0.7-1.5c-0.5-0.8-1.3-1.3-2.6-1.2s-2.1,0.4-2.6,1.2
			c-0.5,0.8-0.7,2-0.7,3.7l0.3,7.9c0,2.4-0.6,3.7-1.9,3.7c-0.7,0-1.2-0.4-1.3-1.2c-0.1-5.8-0.5-10.9-1.2-15.3c0-0.6,0.2-1.1,0.6-1.5
			c0.4-0.5,0.9-0.7,1.4-0.7s0.9,0.3,1.2,0.9c1-1.4,2.4-2.1,4.1-2.1c2.2,0,3.9,1,5.2,3.2c1.4-2.1,3.2-3.1,5.6-3.1
			c1.1,0,2.1,0.2,3,0.8c0.9,0.5,1.6,1.2,2.1,2c1.4,2.2,2.1,5.8,2.2,10.8v1.8c0,1.8-0.1,2.9-0.5,3.4c-0.1,0.2-0.3,0.4-0.5,0.6
			s-0.6,0.3-1.2,0.4c-0.7,0-1.1-0.5-1.1-1.4l0.1-5.3c0-3.5-0.4-5.9-1.2-7c-0.5-0.7-1.1-1.3-1.8-1.8c-0.7-0.5-1.4-0.7-2.1-0.7
			s-1.2,0.1-1.5,0.4c-0.4,0.2-0.7,0.7-0.9,1.3c-0.4,1.1-0.6,3.4-0.6,6.8l0.2,6.2h-0.1c-0.1,0.5-0.4,0.8-0.8,1.2
			c-0.4,0.3-0.8,0.5-1.2,0.5c-0.7,0-1-0.4-1.1-1.2h-0.1L417,107.6z"/>
		<path d="M446.1,96.6c1.4,0.8,2.1,1.9,2.1,3.1c0,1.3-0.6,2.5-1.9,3.8s-2.8,2-4.7,2.3c-0.2,0-0.3,0.1-0.4,0.1s-0.2,0-0.4,0
			c-0.2,0-0.3,0-0.4,0s-0.2,0-0.4,0c-0.2,0-0.3,0-0.4,0s-0.2,0-0.5,0s-0.4,0-0.5,0c0.3,2.2,0.8,3.7,1.3,4.4c0.8,0.6,1.5,1,2.1,1
			c1.4,0,2.7-0.6,3.9-1.8c1.2-1.2,2.1-1.8,2.6-1.8c0.2,0,0.5,0.2,1,0.6s0.7,0.8,0.7,1.2s-0.2,0.9-0.7,1.5s-1.1,1.2-1.9,1.8
			c-0.8,0.6-1.7,1.2-2.8,1.6s-2.1,0.7-3.1,0.7s-1.8-0.2-2.5-0.7c-1.3-0.8-2.3-2.2-3-4.1s-1.1-4-1.1-6.2s0.4-4.1,1.4-5.9
			c1-2,2.8-3,5.4-3C443.3,95.3,444.7,95.7,446.1,96.6z M444.5,100c0-1.2-0.8-1.8-2.4-1.8c-1.1,0-2,0.6-2.7,1.9
			c-0.2,0.4-0.4,0.8-0.5,1.3s-0.2,1-0.3,1.6C442.6,103,444.5,102,444.5,100z"/>
	</g>
</g>
<g id="dog">
	<path id="leg4" style="fill:#754D24;" d="M172.8,562.6c0,0-3.1,23.5-7,32.5c-4,9.1-12.8,19.6-13.3,23.5c-0.4,3.2-0.3,8.5,4.7,9.2
		c6.2,0.8,11.5-4.1,11.5-4.1s3,5.3,9,5.3c4.1,0,5-4.9,5-4.9s1.7,4.4,7.2,4.5c5.4,0,6.1-4.3,6.1-4.3s2.3,3.1,6.4,0.9
		c3.9-2.1,4.2-10.2,0.5-17s-10.5-10.3-17.2-8.8c-7.7,1.8-11.7,12.6-17.5,11.7c-2.6-0.4,8.2-15.2,10.1-21.3
		c1.7-5.4,3.9-24.8,3.9-24.8L172.8,562.6z"/>
	<path id="leg3" style="fill:#754D24;" d="M248.5,563.1c0,0,1.5,19.7-1.5,30.5c-2.8,10-9,16.9-11.7,21.6c-1.7,3-2.5,8.7,2.8,9.4
		c6.6,0.9,13.6-1.7,13.6-1.7s3.2,5.6,9.5,5.6c4.3,0,5.3-5.1,5.3-5.1s1.8,4.7,7.6,4.7c5.7,0,6.4-4.5,6.4-4.5s2.4,3.3,6.8,0.9
		c4.1-2.3,5.6-8.3,1.7-15.5s-10.5-12.1-17.6-10.5c-8.2,1.9-14.1,12-20.2,11.1c-2.7-0.4,5.1-11.2,6.8-19.6c1.2-5.9,0.1-23.8,0.1-23.8
		L248.5,563.1z"/>
	<g id="leg2">
		<path style="fill:#B56F29;" d="M134.6,577.3c0,0-3.7,28.3-8.5,39.2c-4.8,11-15.5,23.6-16.1,28.4c-0.5,3.9-0.4,10.3,5.6,11.1
			c7.5,1,13.9-4.9,13.9-4.9s3.7,6.4,10.9,6.4c4.9,0,6-5.9,6-5.9s2.1,5.3,8.7,5.4c6.6,0,7.4-5.2,7.4-5.2s2.8,3.7,7.7,1.1
			c4.7-2.6,5.1-12.3,0.6-20.6c-4.5-8.2-12.7-12.4-20.8-10.6c-9.3,2.2-14.1,15.2-21.2,14.1c-3.1-0.5,9.9-18.3,12.2-25.7
			c2-6.5,4.7-29.9,4.7-29.9L134.6,577.3z"/>
		<path style="fill:#754D24;" d="M155.2,631.5c0,0,6.7,5,8.3,11.4c1.3,5.3,0,9.8,0,9.8l-0.9-0.8c0,0,1.1-6.3-0.7-10.5
			S155.2,631.5,155.2,631.5z"/>
		<path style="fill:#754D24;" d="M147.4,653c0,0,0.5-6-0.6-9s-5.2-5.8-5.2-5.8s3.1,3.8,3.9,6.6c0.8,2.7,1.1,6.8,1.1,6.8L147.4,653z"
			/>
		<path style="fill:#754D24;" d="M130.8,642.9c0,0,0.6,2.8,0.5,5.4c-0.1,1.8-0.6,4.4-0.6,4.4l-1.1-1.6c0,0,0.7-1.8,0.9-3.3
			C130.6,646.2,130.8,642.9,130.8,642.9z"/>
	</g>
	<path id="openmouth" style="fill:#89181B;" d="M330.3,545.3c0,0,1-2.6-4.5-6.9c-4.9-3.9-13.5-11-17.6-16.3c-5-6.5-12-25.6-12-25.6
		L274,490l-2.2,45.2l53.2,15.5L330.3,545.3z"/>
	<g id="leg1">
		<path style="fill:#B56F29;" d="M216,578.5c0,0,1.8,23.8-1.8,36.8c-3.3,12.1-10.9,20.4-14.1,26.1c-2,3.6-3,10.5,3.3,11.4
			c8,1,16.5-2,16.5-2s3.9,6.7,11.5,6.7c5.2,0,6.4-6.2,6.4-6.2s2.2,5.7,9.2,5.7c6.9,0,7.8-5.5,7.8-5.5s3,4,8.2,1.1
			c5-2.7,6.8-10,2-18.7s-12.7-14.6-21.3-12.7c-9.9,2.3-17,14.5-24.5,13.4c-3.3-0.5,6.2-13.5,8.2-23.6c1.4-7.1,0.1-28.7,0.1-28.7
			L216,578.5z"/>
		<path style="fill:#754D24;" d="M249.5,632.2c0,0,4.6,3.1,6.3,9.8c1.4,5.6,0,10.4,0,10.4l-0.9-0.9c0,0,1.2-6.6-0.8-11
			C252.1,636,249.5,632.2,249.5,632.2z"/>
		<path style="fill:#754D24;" d="M238.7,652.7c0,0,0.5-6.3-0.6-9.5s-3.9-6.1-3.9-6.1s1.7,4.1,2.5,7c0.8,2.8,1.2,7.1,1.2,7.1
			L238.7,652.7z"/>
		<path style="fill:#754D24;" d="M221.2,642c0,0,0.7,3,0.5,5.7c-0.1,1.9-0.6,4.7-0.6,4.7l-1.2-1.7c0,0,0.8-1.9,0.9-3.5
			C221,645.6,221.2,642,221.2,642z"/>
	</g>
	<path id="tail" style="fill:#1A1A1A;" d="M89.7,475.7c0,0-21.7-16.5-41.9-49.2c-16.8-27.1-22.9-61.2-28.7-61.2
		s-27.4,31.2-15.7,64.4c7.9,22.1,40.4,21.3,40.9,25c0.4,3.7-17.1,4.1-29.7,0.8c-4.8-1.3,5.4,15.6,22.3,15.9
		c10.2,0.2,21.5-4.5,23.1-2.6c1.7,1.9-24.4,10.8-22.3,14.1c2.1,3.3,8.7,5.5,23.5,4.5c16.7-1,25.2-6.8,25.2-6.8L89.7,475.7z"/>
	<path id="ear2" d="M253.9,373.4c0,0,13.3-59.1,20.6-62.8c7.3-3.7,41.7,9.3,41.7,17s-7.8,17.3-12.1,17.3c-4.3,0-21.4-23.8-25.7-22.3
		c-4.3,1.5-21.4,50.7-21.4,50.7L253.9,373.4L253.9,373.4z"/>
	<path id="ear1" d="M218.3,409.7c0,0-28-56.3-27-66.9c1-10.5,35.8-31.3,42.6-27.2c6.7,4,10.1,16.4,5.8,21s-35.3,3.1-36.8,7.4
		s18.3,60,18.3,60L218.3,409.7z"/>
	<g id="body">
		<path id="eyebrow" style="fill:#D18029;" d="M268.5,382.5c0,0,18.6-23.8,26.9-17.3c8.4,6.5,2.2,25.1,2.2,25.1L273.1,402l-7.7-11.1
			L268.5,382.5z"/>
		<path id="bodyshape" style="fill:#F69220;" d="M310.3,430.2c0,0,11.6,0.8,21.9-2.5s23.1-9.9,23.1-9.9l31.8,28.1
			c0,0-23.9,67.3-52,69.8s-54.5-19.8-54.5-19.8s-5.4,26.4,11.6,39.6c11.2,8.8,22.7,10.8,29.8,11c4.3,0.2,8.3-1.2,8.3-1.2
			c-1,9.4-15.3,16.3-27.2,18.8c-12,2.5-24.3-0.8-26,0s-14,27.2-57.8,31c-43.8,3.7-83-8.5-107.7-35.7c-21-23.1-34-80.5-30.3-87.5
			s22.5-5.6,46-13.4s39-16.3,39.2-18.8s-11.6-6.6-24.1-10.1c-3-0.8,5.2-6.4,17.1-4.7c9,1.2,19.4,7.4,20.8,6
			c1.4-1.4-13-12.4-25.2-22.5c-0.6-0.5,11.3-3.7,24.1,2.5c6.8,3.3,14.4,10.6,16.5,10c5.2-1.4-9.7-21.6-22.5-31.7
			c-2.6-2.1,10.1-4.8,24.8,4.1c8.8,5.4,12.4,15.9,15.2,15.9c2.9,0,26-40.3,43-41.6c17.7-1.4,16.3,27.5,16.3,27.5L310.3,430.2z"/>
		<path id="mouthopen-body" style="fill:#B56F29;" d="M271.2,479.3c0,0-13.8,4.7-17.8,15.3c-6.2,16.6-0.5,23.1,1.7,23.1
			c2.2,0-3.1-10.8,0.7-22C260,483.8,271.2,479.3,271.2,479.3z"/>
	</g>
	<g id="eyesopen">
		<ellipse style="fill:#CBCBCA;" cx="293.6" cy="408.8" rx="24.5" ry="24.5"/>
		<ellipse cx="305.4" cy="405.4" rx="5.6" ry="5.6"/>
		<circle style="fill:#FFFFFF;" cx="264.3" cy="423.2" r="29.3"/>
		<ellipse cx="278.4" cy="419.1" rx="6.7" ry="6.7"/>
		<path style="fill:#F69220;" d="M260.4,459.8c0,0-2.1-8.2,8.8-19.6c10.8-11.5,42.7-22.8,47-21.1c4.3,1.7,1.7,11.1,1.7,11.1
			L260.4,459.8z"/>
	</g>
	<g id="nose">
		<path d="M412.9,433.4c-7.7,19-29.9,28.1-49.5,20.1c-19.6-7.9-29.2-29.8-21.5-48.9s29.9-28.1,49.5-20.1
			C411,392.4,420.6,414.3,412.9,433.4z"/>
		<path style="fill:#343433;" d="M402,407.7c-1.9,4.6-11.1,5.1-20.6,1.3c-9.5-3.8-15.7-10.7-13.9-15.2c1.8-4.6,11.1-5.2,20.6-1.3
			C397.7,396.3,403.9,403.2,402,407.7z"/>
	</g>
	<path id="mouthmove3" style="fill:#86AABD;" d="M350,526.8c0,0,31.8-13.2,35.5-6.6C389.2,526.8,350,526.8,350,526.8z"/>
	<path id="mouthmove2" style="fill:#86AABD;" d="M344.6,538.8c0,0,44.4,12.4,41.1,20.2C382.4,566.8,344.6,538.8,344.6,538.8z"/>
	<path id="mouthmove1" style="fill:#86AABD;" d="M336.8,551.2c0,0,27.2,23.5,20.2,29.7C350,587.1,336.8,551.2,336.8,551.2z"/>
	<path id="tailmove2" style="fill:#676767;" d="M63.6,418.1c0,0-18.6-29.2-12-32.1S63.6,418.1,63.6,418.1z"/>
	<path id="tailmove1" style="fill:#676767;" d="M74.7,418.3c0,0-2.9-26.9,3.7-25.8C85.1,393.6,74.7,418.3,74.7,418.3z"/>
	<g id="eyesclosed">
		<circle style="fill:#D18029;" cx="293.1" cy="408.8" r="24.8"/>
		<path style="fill:#603A17;" d="M313.4,395.2l2,2.4c0,0-11.6,2.5-22.5,8c-8.3,4.2-16,10.4-19.1,16.8l-1.6-2.1
			C272.1,420.2,279.4,400.6,313.4,395.2z"/>
		<ellipse style="fill:#E48525;" cx="264.6" cy="422.8" rx="30.4" ry="30.4"/>
		<path style="fill:#603A17;" d="M288.2,404.3l2.7,2.8c0,0-14.3,3.8-27.6,11.4c-10.1,5.7-19.3,14-22.9,22.1l-2.1-2.6
			C238.3,438,246.2,413.1,288.2,404.3z"/>
		<path style="fill:#F69220;" d="M226,455.5c0,0,3-8.6,11.3-12.4c7.2-3.3,28.7,6.5,30.3,10.1C269.3,457.3,226,455.5,226,455.5z"/>
		<path style="fill:#F69220;" d="M260.4,459.8c0,0-2.1-8.2,8.8-19.6c10.8-11.5,42.7-22.8,47-21.1c4.3,1.7,1.7,11.1,1.7,11.1
			L260.4,459.8z"/>
	</g>
</g>
</svg>
