<?xml version="1.0" encoding="utf-8"?>
<!-- Generator: Adobe Illustrator 21.0.0, SVG Export Plug-In . SVG Version: 6.00 Build 0)  -->
<svg version="1.1" id="Layer_1" xmlns="http://www.w3.org/2000/svg" xmlns:xlink="http://www.w3.org/1999/xlink" x="0px" y="0px"
	 viewBox="0 0 960 560" style="enable-background:new 0 0 960 560;" xml:space="preserve">
<style type="text/css">
	.st0{fill:#F59121;}
	.st1{fill:#1A1A1A;}
	.st2{fill:#B56F29;}
	.st3{fill:#754D24;}
	.st4{fill:#D18029;}
	.st5{fill:#F69220;}
	.st6{fill:#343433;}
	.st7{fill:#C49A6C;}
	.st8{fill:#62C4B6;}
	.st9{fill:#B3B2B3;}
	.st10{fill:#CDCCCB;}
	.st11{fill:#E5E5E5;}
	.st12{fill:#989897;}
	.st13{fill:#FFFFFF;}
	.st14{fill:#DC2626;}
	.st15{fill:#B22025;}
</style>
<g>
	<path d="M578.8,466.2c-0.3,0-0.6,0-0.8,0c-9.1-0.4-14-8.4-14-16v-81.5c-0.4-6.5-2-35.9-2-39.1c0-5.3,3.2-10.3,9.5-14.7
		c2.3-1.6,5.3-2.4,9.6-2.4c4.1,0,8.6,0.7,10.2,0.9c2.7,0.2,7.7,1.5,10,8.1c15.5-6.9,26.4-10.2,34-10.2h8.2
		c23.9,0,40.6,18.1,42.7,46.2c0,0.1,0,0.2,0,0.3c1.4,41.9-17.2,84-46.2,104.8c-1.1,0.8-5.1,3.5-10.7,3.5c-2.5,0-5-0.6-7.2-1.7
		c-4.4-2.1-6.3-5.4-7.1-7.8c-1.7-5.1,0.5-9.6,0.9-10.4c0.1-0.2,0.3-0.5,0.4-0.7c22.2-33.4,33.4-59.5,33.4-77.3
		c0-9-7.2-18.6-18.9-18.6c-0.4,0-0.8,0-1.2,0c-14.9,0.8-25.4,8.2-26.9,14.8c-1.9,8.3-3,41.6-3.6,61.6c-0.3,10.2-0.6,17.6-0.8,20.6
		c0,0.5-0.1,0.9-0.2,1.3C595.1,459.2,587.7,466.2,578.8,466.2z"/>
	<path class="st0" d="M635.3,319.3h8.2c17.9,0,32.8,12.9,34.7,38.8c1.2,36.7-14.3,77.6-42.9,98.1c0,0-4.7,3.5-9.7,1.1
		c-5.1-2.5-2.5-7.2-2.5-7.2c23.2-34.9,34.7-62.2,34.7-81.7c0-13.8-11.5-27.5-28.6-26.6c-17.1,1-31.7,9.7-34.2,21.1
		c-2.9,13.1-3.8,74.3-4.6,83.2c-1.6,6.2-5.6,12.5-12,12.2c-6.4-0.3-6.4-8.1-6.4-8.1v-40.9v-22.5v-18.4c0,0-2-35.7-2-38.8
		c0-3.2,3.2-6.1,6.1-8.2c2.9-2,14.3,0,14.3,0c2.7,0,4.1,2.7,4.1,8.2l2,2h2C615.8,323.4,628.1,319.3,635.3,319.3z"/>
	<path d="M331.1,249.2c-1.6,0-3.2-0.2-4.8-0.6c-6.5-1.6-9.2-7.7-9.7-9c-0.3-0.8-0.5-1.6-0.5-2.4c0-0.3-1.9-30.4-3.5-60.4
		c-3.5-62.8-3.1-63.6-1.8-66.2c2-4,6-7,11.4-8.3l0.5-0.1c1-0.3,2.3-0.6,3.8-0.6c1.7,0,3.4,0.4,5.2,1.2c1.7,0.8,3,2.1,4.7,3.7
		c0.2,0.2,0.4,0.3,0.6,0.5c4-2.2,10.9-5.8,21.8-8.8c2.6-0.7,5.2-1.1,7.8-1.1c17.6,0,33,16.5,33,35.4v24.5c0,10-6.2,21.8-16.5,24.2
		c-3.1,0.7-5.6,1.2-8.1,1.2c-2.7,0-5.1-0.6-7.6-1.9c-0.9-0.4-8.5-4.5-10.2-10.3c-0.7-2.4-0.4-4.9,0.8-6.9c0.4-0.7,0.9-1.3,1.4-1.8
		c7.1-6.7,7.7-8.7,7.7-19.7c-0.9-3.1-1.7-4.9-2.6-5.8c-1.4-1.3-4.8-1.5-7.4-1.5l-0.3,0c-7.4,0.1-12.4,11.6-12.5,22.4
		c0.2,2.5,1.4,20.6,2.4,38.7c2.4,41.1,2,42.2,1,44.4c-2.3,5.3-7.9,8-12,8.8l-0.1,0C334.5,248.9,333,249.2,331.1,249.2z"/>
	<path class="st0" d="M360.8,106c16.1-4.5,30.6,11,30.6,26.6v24.5c0,7.4-4.5,15.1-10.2,16.3s-7.7,1.3-10.2,0
		c-2.5-1.3-6.9-4.7-6.1-6.1c9.3-8.8,10.2-13.1,10.2-26.6c-2.5-9.5-5.7-14.4-18.4-14.3c-12.7,0.1-20.4,15.1-20.4,30.6
		c0,0,5.2,77.2,4.1,79.7c-1.1,2.5-4.6,3.8-6.1,4.1c-1.6,0.3-3.4,0.7-6.1,0c-2.8-0.7-4.1-4.1-4.1-4.1s-7.4-120.1-6.1-122.6
		c1.2-2.5,4.3-3.6,6.1-4.1c1.9-0.5,2.5-0.8,4.1,0s6.1,6.2,8.2,6.1S344.7,110.5,360.8,106z"/>
	<path d="M428,309.8c-2,0-3.8-0.1-3.9-0.1c-0.2,0-0.4,0-0.6-0.1c-14.5-2-38.7-9.4-38.8-35.8c-0.1-1.6-0.6-11.1,0-20.2
		c1.3-21.4,13.3-36.1,23.2-42.3c1.6-1.1,3.4-1.6,5.6-1.6c0.9,0,1.8,0.1,2.6,0.2c0.3,0,0.7,0.1,1,0.1c0,0,0.1,0,0.1,0
		c-9.1-5.6-18-17.9-18.9-44.9c-0.2-5.9-1.3-57.8,18.8-67.5c0.1-0.1,0.2-0.1,0.3-0.1c1.2-0.5,2.5-0.8,3.9-0.8
		c2.8,0,11.9,1.5,16.1,6.5c3.2,3.8,5.1,10.6,4.6,15.9c-0.3,2.8-1.2,4.9-2.3,6.3c-5.9,14.7-5.4,24.4-5.1,30.8
		c0.1,1.7,0.2,3.2,0.1,4.7c0,0.1,0,0.1,0,0.2c-0.6,12.2,5.2,15.9,6.4,16.1h2c9.9,0,20.5-10.8,20.6-30.9c0-0.1,0-0.2,0-0.3
		c0.2-4-0.4-11.5-0.8-17.6c-0.7-9.5-0.9-12.8-0.4-15.2c1.8-7.8,11-11.5,16.9-12.1c0.7-0.1,1.3-0.1,2-0.1c5.7,0,12.9,2.4,16.2,7.7
		c1.6,2.6,2.1,3.5,1.4,55.6c-0.3,23.9-0.8,47.9-0.9,49.5c0,53-27.4,92.4-66.6,95.7C430.4,309.8,429.3,309.8,428,309.8z M428.1,271.4
		c0.2,0,0.4,0,0.6,0c4,0,9.1-2.9,14-8c10-10.3,17.1-26.8,16.8-39.1c0-0.1,0-14.7,0-14.7c-4.8,1-11.2,2.4-19,4
		c-2.6,0.5-5.1,0.8-7.6,0.8c-2,0-4.6-0.2-7.4-0.9c4.5,3.6,7.1,9.4,7.1,14.7c0,1.9-0.6,3.7-1.8,5.1c-9.5,11.5-11.2,25.6-10.5,30.6
		C420.7,267.4,425,270.4,428.1,271.4z"/>
	<path class="st0" d="M420.5,104.8c1.3-0.5,8.7,1.1,10.7,3.5c2.4,2.8,4.1,10.8,1.5,12.8c-8.7,20.8-5.9,33.1-6.1,39.6
		c-0.8,16.8,8.4,24.5,14.3,24.5h2c13.6,0,28.4-13.4,28.6-38.8c0.4-8.6-2-28.4-1.4-31.3c0.7-2.9,5.7-5.5,9.9-5.9
		c4.2-0.4,9.1,1.4,10.6,3.8c1.5,2.4-0.7,100.8-0.7,100.8c0,49.2-24.7,84.9-59.3,87.9c-2.5,0.2-6.1,0-6.1,0
		c-20.4-2.9-31.9-11.9-31.9-28.2c0,0-0.6-10,0-19.5c1.3-20.7,13.7-32.5,19.7-36.1c0.6-0.5,2.3-0.1,4.1,0c5.3,0.7,8.2,6.2,8.2,10.2
		c-10.7,12.9-13.3,29.2-12.3,36.8c1,7.5,8.5,12.8,14.3,14.3c18.9,2.6,41.5-30.6,40.9-55.2c0-4.1,0-24.5,0-24.5s-10.7,2.5-28.6,6.1
		c-18,3.6-31.6-8.2-32.7-40.9C405.4,141.9,409.5,110.1,420.5,104.8z"/>
	<path d="M229.9,460.3c-11,0-21.4-3.9-29.2-11.1c-8-7.3-12.4-17.1-12.4-27.6v-1.8c0-0.3,0-0.7,0.1-1c2.9-22,8.6-37.6,17.7-47.8
		c9.2-10.4,21.6-15.5,38-15.5c0.5,0,2.2-0.1,3.8-0.1c0.9,0,1.6,0,2.2,0.1c-3.2-3-7.4-5.1-13.4-5.4c-0.6,0-1.2-0.1-1.8-0.1
		c-4.3,0-12.4,0.9-18.8,6.7c-7.9,9.2-14.7,10.2-17.3,10.2c-2.8,0-5.4-0.9-7.5-2.6c-4.9-3.9-7.4-8.2-7.5-12.9
		c-0.1-4.1,1.7-7.4,3.6-9.4c22.8-25.6,40.4-28.6,51.6-28.6c1.6,0,2.9,0.1,4.2,0.1c0.8,0,1.6,0.1,2.2,0.1c9.5,0,22.7,3.8,32.2,21.6
		c6.7,12.7,10.8,30.8,12.6,55.3c0,0.1,0,0.2,0,0.4c1.3,52.2,0.2,54.2-1,56.4c-2.1,3.8-5.8,6.9-8.4,8.2c-1.8,0.9-3.9,1.3-6.2,1.3
		c-1.7,0-3.6-0.2-5.6-0.7c-2.8-0.6-5.2-2.3-7.1-4.3c-10.7,5.1-18.5,8.2-30.3,8.6C231,460.3,230.5,460.3,229.9,460.3z M234.6,426.8
		c1,0.2,1.6,0.2,2,0.2c0,0,0,0,0,0c0.7,0,1.5-0.1,2.6-0.2c6.9-2,16.2-13.1,16.2-27.4c0-0.7-0.1-1.6-0.2-2.2
		c-1.2-1.5-4.2-4.4-5.5-5.2c-1.3-0.4-2.8-0.7-4-0.7c-0.6,0-1.1,0-1.6,0.1c-13.8,3.2-18.9,6.9-20.2,21.3
		C224,417.4,226.3,425.2,234.6,426.8z"/>
	<path class="st0" d="M245.3,321.5c21.3,0,33.5,23.2,36.8,69.5c0,0,1.3,50,0,52.3c-1.3,2.3-3.7,4.3-4.9,4.9c-1.2,0.6-3.4,0.7-6.5,0
		c-3.1-0.7-6.5-6.5-6.5-6.5c-14.4,7.1-21.1,10.2-32.9,10.6c-19.3,0.7-34.9-13.3-34.9-30.6v-1.8c5.3-41,20.6-56.4,47.9-56.4
		c0,0,4.1-0.2,5.9,0c1.8,0.2,14.8,1.6,14.8,1.6c-5.7-15.4-15-22.3-27.8-23.1c-7-0.4-18.3,0.9-26.9,9.1c0,0-9.1,10.8-14,6.9
		c-7.8-6.3-3.2-10.5-3.2-10.5C219.7,317.5,237.2,321.5,245.3,321.5z M215.9,412.4c0,9.5,5.6,20,17.3,22.2c3.2,0.5,4.7,0.3,7.5,0
		c10.9-2.6,22.7-17.6,22.7-35.4c0,0-0.1-3.8-1-5.7s-7.1-8-9.7-9s-6.4-1.7-10.2-1C226.4,387.3,217.5,393.2,215.9,412.4z"/>
	<path d="M451.8,460.3c-11,0-21.4-3.9-29.2-11.1c-8-7.3-12.4-17.1-12.4-27.6v-1.8c0-0.3,0-0.7,0.1-1c2.9-22,8.6-37.6,17.7-47.8
		c9.2-10.4,21.6-15.5,38-15.5c0.5,0,2.2-0.1,3.8-0.1c0.9,0,1.6,0,2.2,0.1c-3.2-3-7.4-5.1-13.4-5.4c-0.6,0-1.2-0.1-1.8-0.1
		c-4.3,0-12.4,0.9-18.8,6.7c-7.9,9.2-14.7,10.2-17.3,10.2c-2.8,0-5.4-0.9-7.5-2.6c-4.9-3.9-7.4-8.2-7.5-12.9
		c-0.1-4.1,1.7-7.4,3.6-9.4c22.8-25.6,40.4-28.6,51.6-28.6c1.6,0,2.9,0.1,4.2,0.1c0.8,0,1.6,0.1,2.2,0.1c9.5,0,22.7,3.8,32.2,21.6
		c6.7,12.7,10.8,30.8,12.6,55.3c0,0.1,0,0.2,0,0.4c1.3,52.2,0.2,54.2-1,56.4c-2.1,3.8-5.8,6.9-8.4,8.2c-1.8,0.9-3.9,1.3-6.2,1.3
		c-1.7,0-3.6-0.2-5.6-0.7c-2.8-0.6-5.2-2.3-7.1-4.3c-10.6,5.1-18.5,8.2-30.3,8.6C452.8,460.3,452.3,460.3,451.8,460.3z M456.5,426.8
		c1,0.2,1.6,0.2,2,0.2h0c0.7,0,1.5-0.1,2.6-0.2c6.9-2,16.2-13.1,16.2-27.4c0-0.7-0.1-1.6-0.2-2.2c-1.2-1.5-4.2-4.4-5.5-5.2
		c-1.3-0.4-2.8-0.7-4-0.7c-0.6,0-1.1,0-1.6,0.1c-13.8,3.2-18.9,6.9-20.2,21.3C445.8,417.4,448.2,425.2,456.5,426.8z"/>
	<path class="st0" d="M467.2,321.5c21.3,0,33.5,23.2,36.8,69.5c0,0,1.3,50,0,52.3s-3.7,4.3-4.9,4.9c-1.2,0.6-3.4,0.7-6.5,0
		c-3.1-0.7-6.5-6.5-6.5-6.5c-14.4,7.1-21.1,10.2-32.9,10.6c-19.3,0.7-34.9-13.3-34.9-30.6v-1.8c5.3-41,20.6-56.4,47.9-56.4
		c0,0,4.1-0.2,5.9,0s14.8,1.6,14.8,1.6c-5.7-15.4-15-22.3-27.8-23.1c-7-0.4-18.3,0.9-26.9,9.1c0,0-9.1,10.8-14,6.9
		c-7.8-6.3-3.2-10.5-3.2-10.5C441.5,317.5,459.1,321.5,467.2,321.5z M437.7,412.4c0,9.5,5.6,20,17.3,22.2c3.2,0.5,4.7,0.3,7.5,0
		c10.9-2.6,22.7-17.6,22.7-35.4c0,0-0.1-3.8-1-5.7s-7.1-8-9.7-9c-2.7-1-6.4-1.7-10.2-1C448.2,387.3,439.4,393.2,437.7,412.4z"/>
	<path d="M535.9,465.8c-2.1,0-4.3-0.3-7-1.1c-9.3-2.5-11.9-9.8-12-13.6c0-0.1,0-32.8,0-32.8l-2-73.4c0-0.1,0-6.4,0-6.4
		c0-13.9,7-20.1,13.9-20.3c0.3,0,1.2,0,2.4-0.1c-1.1-0.2-2.3-0.5-3.2-0.8c-3.4-1.4-10.9-7.8-12.9-12.4c-1.9-4.3-1.9-8.5-1.9-14.7
		v-0.4c0-9.1,6.2-17.3,16.6-22c0.7-0.3,1.4-0.5,2.1-0.6c0.3,0,3.2-0.5,6.7-0.5c2.2,0,4.3,0.2,6.2,0.5c9,1.7,17,13.2,18.6,20.4
		c0.3,1.2,0.3,2.8,0.2,4.6c0,0.1,0,0.2,0,0.4c-2,13.8-4.6,20.8-19.7,25.4c-0.2,0-0.3,0.1-0.6,0.2c0.7,0.1,1.2,0.1,1.6,0.2l0.5,0.1
		c5.3,1,7.9,3.2,10.1,8.7c0.7,1.9,1.6,4,1.1,62.2c-0.1,9.5-0.5,57-1.3,61.1c-1.3,6.5-4.5,10.6-10.4,13.2
		C542.3,464.8,539.5,465.8,535.9,465.8z"/>
	<path class="st0" d="M533.1,275.2c0,0,5.6-0.9,10.2,0s11.1,8.9,12.3,14.3c0.1,0.6,0,2,0,2c-1.8,12.3-3.2,15.6-14.1,18.8
		c-2.2,0.6-8.7,0.2-10.4-0.5s-7.6-5.7-8.6-8.2c-1.3-2.9-1.2-5.9-1.2-11.9C521.2,283.5,526.3,278.3,533.1,275.2z M529,326.3
		c0,0,11.7-0.5,14.3,0c2.6,0.5,3.2,0.3,4.7,3.9s0.2,114.6-0.6,118.7s-2.4,6-5.9,7.5s-5.7,2-10.5,0.7c-6-1.7-6.1-6.1-6.1-6.1v-32.7
		l-2-73.6c0,0,0-2.9,0-6.1C522.9,330.5,525.8,326.3,529,326.3z"/>
	<path d="M705.6,465.2c-2.2-0.2-4.3-0.6-6.1-1.2c-8.7-2.6-15.5-14.9-16.4-22.2c-0.1-1.3,0-2.8,0.3-4.5c0-0.1,0.1-0.2,0.1-0.4
		c3.4-13.6,6.7-20.3,22.2-23.2c0.2,0,0.4-0.1,0.6-0.1c-0.7-0.1-1.2-0.3-1.6-0.4l-0.5-0.1c-5.1-1.5-7.5-4-9.1-9.7
		c-0.6-2-1.2-4.1,7-78.1c1.3-12.1,8.1-72.8,9.3-76.7c2-6.3,5.6-10.1,11.7-12.1c2.6-0.8,5.5-1.6,9.1-1.2c2.1,0.2,4.2,0.8,6.8,1.8
		c9,3.5,10.8,11,10.5,14.8c0,0.1-6.7,64.8-6.7,64.8l-5.6,73.3c0,0.1-0.7,6.3-0.7,6.3c-1.4,13.8-9,19.3-15.9,18.7
		c-0.3,0-1.2-0.1-2.4-0.2c1.1,0.3,2.2,0.7,3.1,1.2c3.3,1.8,10.1,8.9,11.6,13.7c1.4,4.5,1,8.6,0.4,14.8l0,0.4
		c-0.9,9-8,16.6-18.8,20.1c-0.7,0.2-1.4,0.4-2.1,0.4C712,465.4,709.1,465.6,705.6,465.2z"/>
	<path class="st0" d="M712,457.4c0,0-5.7,0.3-10.2-1.1c-4.5-1.3-10.1-10-10.7-15.5c-0.1-0.6,0.2-2,0.2-2c3-12,4.8-15.2,16-17.3
		c2.2-0.4,8.7,0.7,10.3,1.5c1.6,0.9,6.9,6.5,7.7,9c1,3,0.6,6,0,11.9C724.6,450.4,719,455.1,712,457.4z M721.3,407.1
		c0,0-11.6-0.7-14.2-1.5s-3.2-0.7-4.3-4.4c-1.1-3.7,15-146.2,16.2-150.2c1.3-4,3-5.7,6.6-6.9s5.9-1.4,10.5,0.4
		c5.8,2.3,5.5,6.7,5.5,6.7l-6.7,64.7l-5.6,73.4c0,0-0.3,2.8-0.6,6.1C727.8,403.5,724.5,407.4,721.3,407.1z"/>
	<path d="M270.3,263.4c-9.3-0.1-15.9-4.9-17.5-12.8c0-0.1-0.1-0.3-0.1-0.4c-0.1-0.4-0.6-4.2,0-8.5c0.4-3,1.2-13.8,1.2-17.4
		c0-4.3-0.7-16.9-1.1-18.9c-0.2-1.1-0.4-2.6-0.4-4.2l-12.3-0.5c-0.2,0-0.3,0-0.5,0c-2.5-0.2-5.9-1-8.3-3c-3.5-2.9-3.8-7.5-3.4-11
		c0.2-9.8,4.9-15.3,8.9-18.2c4-2.9,9-4.6,15.3-5.3c0.2-1.2,0.4-2.1,0.4-2.6V51.6c0-8.8,12.7-14.2,18.3-14.2
		c6.8,0,16.6,7.9,18.1,14.5c0.1,0.6,0.2,1.1,0.2,1.7v34.9c0,0.2,0,0.3,0,0.5c-0.1,0.8-1.2,19-2.1,25.3c-0.5,3.3-0.3,24.7,0.1,43.6
		c0.2,2,0.5,3.4,0.8,4.4c4.7-0.7,12-1.7,15-1.7c1.1,0,2.5,0.1,3.9,0.7c5.5,2.3,8.5,10.2,8.8,11.7c0.6,2.5,1.1,5.2,0.1,11.3
		c-0.8,5.4-5.2,9.2-12.9,11.3c-4,1.1-9.1,1.7-13.7,1.7c-0.4,0-0.8,0-1.2,0c-0.9,2.3-0.8,8.4-0.8,11.5c0,0.9,0,1.7,0,2.5
		c1.9,23.9,2.4,37.9,1.3,41.7c-1.7,6.1-10.7,10.2-18,10.2L270.3,263.4z"/>
	<path class="st0" d="M270.9,45.5c3.4,0,9.7,5.4,10.3,8.2v34.9c0,0-1.2,18.6-2.1,24.7c-0.8,6,0,45.2,0,45.2
		c0.9,8.2,2.9,12.3,6.2,12.3c0,0,17.1-2.6,18.5-2.1c1.4,0.6,3.7,4.5,4.1,6.2s0.7,3.3,0,8.2c-0.7,4.9-14.3,6.6-20.5,6.2
		c-9.1,0.5-8,13.2-8,22.5c0,0,2.8,34.8,1.6,39.2c-0.3,1.2-4.8,4.5-10.5,4.4c-5.6-0.1-8.9-2.5-9.8-6.5c0,0-0.4-2.9,0-6.2
		c0.4-3.2,1.3-14.4,1.3-18.5c0-4.1-0.7-17.9-1.3-20.5c-0.6-2.7,0-10.3,0-10.3l-20.2-0.7c0,0-2.9-0.3-3.9-1.1c-1-0.8-0.5-4.3-0.5-4.3
		c0-11,7.5-16.4,22.6-16.4c0,0,2.1-7,2.1-10.3s0-108.9,0-108.9C260.7,49.3,267.6,45.5,270.9,45.5z"/>
	<path d="M342.8,527.5c-0.1,0-0.2,0-0.3,0c-27.7-1.3-57.1-24.3-57.1-64.3c0-11.2,7.1-39.6,23.7-39.9c0,0,0.1,0,0.1,0
		c0.3,0,0.6,0,0.9,0.1c9,1,16.1,8.1,15.9,15.7c-0.1,2.8-1.3,5-2.5,7.4c-2.1,4-5,9.4-3.7,19.7c2.2,11.2,10.7,23,19.9,23h1.9
		c15.8-0.8,20.2-4.4,22.3-7.6c3.3-4.9,3.9-13.5,3.9-26.7l0.3-32.1c-6.3,2.1-14.5,4.1-22.5,4.1c0,0,0,0,0,0c-0.7,0-1.4,0-2.1,0
		c-19.6-0.9-49.9-21.9-49.9-48.2v-4.1c0-32.8,23.4-57.5,54.3-57.5c2.5,0,5,0.2,7.5,0.5c4.4,0.6,9.2,1.4,13,2c1.2-3,3.3-6.1,9.2-7.4
		c2.7-0.6,6-0.9,9.2-0.9c3.3,0,6.2,0.3,8.6,1c9.7,2.7,11,14.6,11,60.2V455c0,19.7-3.3,34.8-10.1,46.4c-7.1,12-18.2,20.1-33,24.3
		c-0.3,0.1-0.7,0.2-1,0.2c-0.5,0.1-11.7,1.7-19.2,1.7L342.8,527.5z M325.3,378.3c2,5.5,13.4,13.1,27.7,13.1
		c13.5,0,17.4-15.8,18.9-22.3l0.4-3.8c-0.3-7.2-8.5-15.2-23.6-16.1c-4.9,0.1-12.3,2.6-17.3,8C326.8,362.3,324.7,369.4,325.3,378.3z"
		/>
	<path class="st0" d="M379.3,320c3.5-0.8,9.8-1.2,14,0c4.2,1.2,5.2,17.5,5.2,52.5V455c0,36.1-11.7,55.7-37.3,62.9
		c0,0-11.3,1.7-18.3,1.6c-25.4-1.2-49.5-22.3-49.5-56.4c0-11.5,7.1-31.8,15.9-31.9c4.8,0.5,8.9,4,8.8,7.5
		c-0.1,3.5-8.4,10.6-6.1,28.6c2.9,14.9,14.1,29.8,27.8,29.8h2.1c31.3-1.5,34-14.1,34-42.2l0.4-43.9c0,0-17.2,8.5-32.3,7.8
		c-15.1-0.7-42.2-18.3-42.2-40.2v-4.1c0-31,23.6-52.8,52.8-49.1c8.6,1.1,19.3,3.3,19.3,3.3s0.5-2.6,1.5-4.7
		C376.2,322,375.8,320.8,379.3,320z M317.4,379.8c2.7,10.2,18.3,19.6,35.6,19.6c13.4,0,22.4-9.7,26.8-29l0.5-4.8
		c0-11.3-11.2-23.4-31.4-24.5C337.6,341.1,314.8,350.3,317.4,379.8z"/>
	<g>
		<path class="st1" d="M559.5,240.4l-1.7-8.3c0,0-23.8,8.7-45,2.1c-18.4-5.7-29.9-25.8-34.2-25.7c-4.3,0.1-11.1,19.2-1.1,32.9
			c10,13.7,28.4,10.4,28.8,11.9c0.4,1.5-12.6,7.4-11.6,9.1c1,1.7,11.6,2.5,19.3-0.8c9-3.9,13.2-10.7,14.6-9.6
			c1.4,1.1-9.5,12.5-7.7,14c1.8,1.4,9.9-1.8,13.8-6c4.7-5.1,6.7-11.1,7.6-11.1c0.8,0-0.5,7.4,0.8,7.6c1.2,0.2,6.3-2.5,12.1-8.3
			C558.3,245,559.5,240.4,559.5,240.4z"/>
		<path class="st2" d="M579.6,260.5c0,0,1.1,14.7-0.3,23.4c-1.4,8.6-6,18.7-6.6,22.3c-0.5,2.9,0.6,7.8,5.1,8.5
			c5.5,0.9,10.4-3.3,10.4-3.3s2.6,4.8,7.9,5c3.6,0.1,4.6-4.2,4.6-4.2s1.4,4,6.3,4.2c4.8,0.2,5.6-3.6,5.6-3.6s2,2.8,5.7,1
			c3.5-1.8,4.1-9,0.9-15.2c-3.1-6.2-9.1-9.5-15.1-8.3c-7,1.4-10.8,10.9-16,9.9c-2.3-0.4,0.8-11.1,1-16.1c0.2-5.1-1.5-20.6-1.5-20.6
			L579.6,260.5z"/>
		<path class="st3" d="M607.6,297.5c0,0,4.8,3.9,5.9,8.6c0.9,4-0.2,7.2-0.2,7.2l-0.6-0.6c0,0,1-4.6-0.3-7.7
			C611.1,301.8,607.6,297.5,607.6,297.5z"/>
		<path class="st3" d="M601.3,313.2c0,0,0.5-4.4-0.2-6.7c-0.7-2.3-3.7-4.4-3.7-4.4s2.2,2.9,2.7,5c0.5,2,0.7,5,0.7,5L601.3,313.2z"/>
		<path class="st2" d="M634.9,261.6c0,0,1.5,17,0.1,25.2c-1.4,8.2-4.3,13.1-4.9,16.4c-0.4,2.7-2.2,6.9,2,7.6c5.3,0.9,11-1,11-1
			s2.4,4.6,7.5,4.7c3.5,0.1,4.4-4,4.4-4s1.3,3.8,6,4c4.6,0.2,5.3-3.5,5.3-3.5s1.9,2.7,5.4,0.9c3.4-1.7,4.7-6.5,1.8-12.4
			c-3-5.9-8.1-10-13.8-8.9c-6.6,1.3-11.6,9.3-16.5,8.3c-2.2-0.4,0.7-10.1,0.9-14.9c0.2-4.8-1.4-19.9-1.4-19.9L634.9,261.6z"/>
		<path class="st3" d="M663.1,298.2c0,0,3,2.2,3.9,6.7c0.8,3.8-0.2,6.9-0.2,6.9l-0.6-0.6c0,0,0.9-4.4-0.3-7.3
			C664.8,300.8,663.1,298.2,663.1,298.2z"/>
		<path class="st3" d="M655.5,311.6c0,0,0.5-4.2-0.2-6.3c-0.7-2.1-2.4-4.1-2.4-4.1s1,2.7,1.5,4.7c0.5,1.9,0.6,4.8,0.6,4.8
			L655.5,311.6z"/>
		<path class="st4" d="M682.9,91.6c0,0,13.3-12.4,22.7-9.9c10.6,2.9,6.9,15.1,6.9,15.1l-30.6,6.8L682.9,91.6z"/>
		<path class="st5" d="M680.8,197.3c0,0-5.4,6.9-5.5,15.2c-0.1,8.2,6,27.1-8.5,44.7c-13.1,16-48.2,26.5-74.5,15.4
			c-26.4-11.2-40.7-25.2-42.4-47.5c-1.7-22.3,49.3-83.9,49.2-87.2c-0.1-3.3-10.7-1.1-17.2,2.3c-1.3,0.7,1.1-8.3,8.9-13.7
			c7.1-4.9,15.3-4,15.3-5.7c0.1-3.7-12.8-2-23.4,0.8c-1.8,0.5,4.1-10.6,15.4-13.9c12.4-3.6,20,2.7,20.6,1.2
			c1.2-3-8.3-12.6-20.5-13.2c-2.1-0.1,10.8-8.9,25.2-3.7c8.1,2.9,11.3,12.9,12.3,13c1,0,17.4-23.9,34.7-24.4
			c18.9-0.5,14.9,18.2,14.9,18.2l24.1,23.8l1.2,7c0,0,6,7.5,11.2,10.7c6.3,3.9,18.7,5.8,18.7,5.8l1.4,39.3c0,0-12.6,20.3-34.4,21.6
			C690.4,208,680.8,197.3,680.8,197.3z"/>
		<path d="M666.1,85.5c0,0-0.4-40.1,3.7-44.2c4.1-4.1,43.9-7.9,43.8,6.3c-0.1,14.2-4.7,17.4-7.8,17.1c-3.1-0.3-27.5-14.9-28.9-13.5
			c-1.4,1.4-7.5,34.3-7.5,34.3L666.1,85.5z"/>
		<path class="st6" d="M639.2,103c0,0-17.6-39.5-16.6-45.2c1-5.7,30.8-23.3,34.8-18.5c4,4.8,6.1,14.1,2.9,18.2
			c-3.2,4.1-25.1,0.3-25.9,3.6c-0.8,3.3,7.2,39.6,7.2,39.6L639.2,103z"/>
		<g>
			<path class="st7" d="M714.9,299.8c6.8-1.3,9.9-5.2,8.9-12.8L700,258.6l-20,28.8L714.9,299.8z"/>
			<path class="st8" d="M566.9,208.8l113.9,78.9c12.3-0.6,23.7-17,20-28.8l-113.9-78.9C590.5,191.8,579.1,208.2,566.9,208.8z"/>
			<path d="M714.9,299.8l24.6,8.7c0,0,1.3,0.1,1.5-0.1c0.2-0.2-0.4-1.4-0.4-1.4l-16.8-20C724.3,293.5,721.2,298.2,714.9,299.8z"/>
			<path class="st9" d="M547.8,195.6c3.2,2.2,6.5,4.5,9.7,6.7l20.3,14.1c12.3-0.6,23.7-17,20-28.8l-20.3-14.1
				c-3.2-2.3-6.5-4.5-9.7-6.7C571.5,178.6,560.1,195,547.8,195.6z"/>
			<path class="st10" d="M555.8,201.2l1.6,1.1c12.3-0.6,23.7-17,20-28.8l-1.6-1.1C579.5,184.1,568.1,200.6,555.8,201.2z"/>
			<path class="st10" d="M552.7,199l1.6,1.1c12.3-0.6,23.7-17,20-28.8l-1.6-1.1C576.5,182,565.1,198.5,552.7,199z"/>
			<path class="st10" d="M573.2,213.2l1.6,1.1c12.3-0.6,23.7-17,20-28.7l-1.6-1.1C596.9,196.2,585.5,212.7,573.2,213.2z"/>
			<path class="st10" d="M570.2,211.1l1.6,1.1c12.3-0.6,23.7-17,20-28.8l-1.6-1.1C593.9,194.1,582.5,210.6,570.2,211.1z"/>
			<path class="st10" d="M529,182.5c3.2,2.2,6.5,4.5,9.7,6.7l9.3,6.5c12.3-0.6,23.7-17,20-28.7l-9.3-6.5c-3.2-2.2-6.5-4.5-9.7-6.7
				C552.7,165.5,541.3,182,529,182.5z"/>
			<path class="st11" d="M530.7,162.4c-5.5,7.9-6.7,16.6-2.7,19.4c4,2.8,11.7-1.4,17.2-9.3c5.5-7.9,6.7-16.6,2.7-19.4
				C543.9,150.3,536.2,154.5,530.7,162.4z"/>
			<path class="st12" d="M574.5,174.8c0.5-0.7,2-0.6,3.3,0.3c1.3,0.9,2,2.3,1.5,3c-0.5,0.7-2,0.6-3.3-0.3
				C574.6,176.9,574,175.5,574.5,174.8z"/>
			<path class="st12" d="M588.7,187.4c0.5-0.7,2-0.6,3.3,0.3c1.3,0.9,2,2.3,1.5,3c-0.5,0.7-2,0.6-3.3-0.3
				C588.9,189.5,588.2,188.2,588.7,187.4z"/>
			
				<ellipse transform="matrix(0.5703 -0.8214 0.8214 0.5703 74.4611 562.1817)" class="st12" cx="574.6" cy="209.9" rx="1.6" ry="2.9"/>
			
				<ellipse transform="matrix(0.5702 -0.8215 0.8215 0.5702 77.0964 545.0891)" class="st12" cx="559.5" cy="198.9" rx="1.6" ry="2.9"/>
			
				<ellipse transform="matrix(0.5702 -0.8215 0.8215 0.5702 87.7961 548.4612)" class="st12" cx="568" cy="190.3" rx="2.2" ry="2.9"/>
			
				<ellipse transform="matrix(0.5695 -0.822 0.822 0.5695 85.5712 569.1148)" class="st12" cx="586.1" cy="202.9" rx="2.2" ry="2.9"/>
		</g>
		
			<ellipse transform="matrix(3.313836e-02 -0.9995 0.9995 3.313836e-02 571.244 808.5781)" class="st10" cx="703.5" cy="109" rx="16.8" ry="16.8"/>
		
			<ellipse transform="matrix(3.313513e-02 -0.9995 0.9995 3.313513e-02 567.0255 817.5397)" cx="706.1" cy="115.7" rx="3.7" ry="3.7"/>
		
			<ellipse transform="matrix(3.313809e-02 -0.9995 0.9995 3.313809e-02 532.9672 782.5533)" class="st13" cx="670.9" cy="115.8" rx="22.2" ry="22.2"/>
		
			<ellipse transform="matrix(3.314300e-02 -0.9995 0.9995 3.314300e-02 542.4044 799.7313)" cx="684.5" cy="119.5" rx="5.5" ry="5.5"/>
		<path class="st5" d="M669.2,143.3c0,0,0.5-6.4,4.9-11.6c6.8-7.9,31-14.2,34.8-11.4c3,2.2,2.7,8.6,1.9,9.8
			C710.2,131.3,669.2,143.3,669.2,143.3z"/>
		
			<ellipse transform="matrix(3.313750e-02 -0.9995 0.9995 3.313750e-02 555.343 909.8416)" cx="747.9" cy="167.9" rx="29.6" ry="28"/>
		
			<ellipse transform="matrix(0.8989 -0.4381 0.4381 0.8989 7.5841 341.283)" class="st6" cx="743.4" cy="154.2" rx="12.9" ry="6.6"/>
		<g>
			<path class="st14" d="M647.2,168.8c0,0-7.3,0.7-14.8,7.2c-7.1,6.1-11.9,17.4-5.6,23.1c7.7,7,15.7,0.6,17.7-2.8
				c6-10.1,14.8-17.5,14.8-17.5L647.2,168.8z"/>
			<path class="st15" d="M653.1,174.1c0,0-4.9,0.5-10,4.4c-3.8,3-7.4,7.4-6.1,8.9c1.3,1.4,4-4.5,7.7-7.4c4.7-3.6,9.8-5,9.8-5
				L653.1,174.1z"/>
			<path d="M664.4,185.3c-0.4,0-0.9-0.2-1.2-0.5c0,0-4.4-4.9-10.3-9.3c-4.7-3.5-11.4-6.8-11.5-6.8c-0.8-0.4-1.2-1.4-0.8-2.2
				c0.4-0.8,1.4-1.2,2.2-0.8c0.3,0.1,7,3.7,11.7,7.7C660.7,178.6,664.8,185.3,664.4,185.3L664.4,185.3z"/>
		</g>
		<path class="st2" d="M590.7,177.1c0,0-10.3,14.4-11.1,23.8c-0.7,8.5,2.4,15.5,1.5,17.9c-0.9,2.4-8.8-0.8-12.6,3.1
			c-3.1,3.1-3.7,12.2,2.5,12.1c6.4-0.1,8.3-9.5,11.4-7.6c3,2-3.4,7.5-2.7,12c1,5.7,8,9.1,11.5,3.5c2.7-4.4-2.8-11.4-1.1-12.2
			c1.7-0.8,4.7,7.1,9.2,8.9c5.1,2,8.5-2.9,7-9.1c-1.4-6.2-10.4-3.1-13.8-8.2c-3.2-4.7-4.5-11.3-2.7-20.9c1.9-10.4,7.8-20.5,7.8-20.5
			L590.7,177.1z"/>
		
			<ellipse transform="matrix(3.313268e-02 -0.9995 0.9995 3.313268e-02 351.1883 890.4356)" class="st3" cx="635.8" cy="263.7" rx="2.9" ry="3.1"/>
		<ellipse transform="matrix(0.7047 -0.7095 0.7095 0.7047 4.912 552.9951)" class="st2" cx="666.7" cy="270.6" rx="9.5" ry="6.5"/>
		<ellipse transform="matrix(0.7764 -0.6303 0.6303 0.7764 -24.6267 488.144)" class="st2" cx="675.6" cy="278.8" rx="9.5" ry="6"/>
		<ellipse transform="matrix(0.7764 -0.6303 0.6303 0.7764 -27.962 495.1029)" class="st2" cx="683.7" cy="287" rx="9.5" ry="5.5"/>
	</g>
</g>
</svg>
