<?xml version="1.0" encoding="utf-8"?>
<!-- Generator: Adobe Illustrator 21.0.0, SVG Export Plug-In . SVG Version: 6.00 Build 0)  -->
<svg version="1.1" id="Layer_1" xmlns="http://www.w3.org/2000/svg" xmlns:xlink="http://www.w3.org/1999/xlink" x="0px" y="0px"
	 viewBox="0 0 434.1 270.1" style="enable-background:new 0 0 434.1 270.1;" xml:space="preserve">
<g id="dog">
	<g id="shadow">
		<ellipse style="fill:#FFFFFF;" cx="239.3" cy="244.3" rx="153" ry="25.8"/>
		<ellipse style="fill:#FDFDFD;" cx="239.3" cy="244.3" rx="150.6" ry="25.4"/>
		<ellipse style="fill:#FBFBFB;" cx="239.3" cy="244.3" rx="148.3" ry="25"/>
		<ellipse style="fill:#F9F9F9;" cx="239.3" cy="244.3" rx="145.9" ry="24.7"/>
		<ellipse style="fill:#F7F7F7;" cx="239.3" cy="244.3" rx="143.6" ry="24.3"/>
		<ellipse style="fill:#F5F5F5;" cx="239.3" cy="244.3" rx="141.2" ry="23.9"/>
		<ellipse style="fill:#F3F3F3;" cx="239.3" cy="244.3" rx="138.7" ry="23.5"/>
		<ellipse style="fill:#F1F1F1;" cx="239.3" cy="244.3" rx="136.3" ry="23"/>
		<ellipse style="fill:#EFEFEF;" cx="239.3" cy="244.3" rx="134" ry="22.6"/>
		<ellipse style="fill:#EDEDED;" cx="239.3" cy="244.3" rx="131.6" ry="22.2"/>
		<ellipse style="fill:#EBEBEB;" cx="239.3" cy="244.3" rx="129.3" ry="21.8"/>
		<ellipse style="fill:#E9E9E9;" cx="239.3" cy="244.3" rx="127" ry="21.5"/>
		<ellipse style="fill:#E7E7E7;" cx="239.3" cy="244.3" rx="124.6" ry="21.1"/>
		<ellipse style="fill:#E5E5E4;" cx="239.3" cy="244.3" rx="122.3" ry="20.7"/>
		<ellipse style="fill:#E3E3E2;" cx="239.3" cy="244.3" rx="119.7" ry="20.3"/>
		<ellipse style="fill:#E1E1E0;" cx="239.3" cy="244.3" rx="117.3" ry="19.8"/>
		<ellipse style="fill:#DFDFDE;" cx="239.3" cy="244.3" rx="115" ry="19.4"/>
		<ellipse style="fill:#DDDDDC;" cx="239.3" cy="244.3" rx="112.7" ry="19"/>
		<ellipse style="fill:#DBDBDA;" cx="239.3" cy="244.3" rx="110.3" ry="18.6"/>
		<ellipse style="fill:#D9D9D8;" cx="239.3" cy="244.3" rx="108" ry="18.1"/>
		<ellipse style="fill:#D7D7D6;" cx="239.3" cy="244.3" rx="105.6" ry="17.9"/>
		<ellipse style="fill:#D5D5D4;" cx="239.3" cy="244.3" rx="103.3" ry="17.5"/>
		<ellipse style="fill:#D3D3D2;" cx="239.3" cy="244.3" rx="100.7" ry="17.1"/>
		<ellipse style="fill:#D1D1D0;" cx="239.3" cy="244.3" rx="98.4" ry="16.6"/>
		<ellipse style="fill:#CFCFCE;" cx="239.3" cy="244.3" rx="96" ry="16.2"/>
		<ellipse style="fill:#CDCDCC;" cx="239.3" cy="244.3" rx="93.7" ry="15.8"/>
		<ellipse style="fill:#CACACA;" cx="239.3" cy="244.3" rx="91.3" ry="15.4"/>
		<ellipse style="fill:#C8C8C8;" cx="239.3" cy="244.3" rx="89" ry="14.9"/>
		<ellipse style="fill:#C6C6C6;" cx="239.3" cy="244.3" rx="86.6" ry="14.7"/>
		<ellipse style="fill:#C4C4C4;" cx="239.3" cy="244.3" rx="84.3" ry="14.3"/>
		<ellipse style="fill:#C2C2C2;" cx="239.3" cy="244.3" rx="81.7" ry="13.9"/>
		<ellipse style="fill:#C0C0C0;" cx="239.3" cy="244.3" rx="79.4" ry="13.4"/>
		<ellipse style="fill:#BEBEBE;" cx="239.3" cy="244.3" rx="77" ry="13"/>
		<ellipse style="fill:#BCBCBC;" cx="239.3" cy="244.3" rx="74.7" ry="12.6"/>
		<ellipse style="fill:#BABABA;" cx="239.3" cy="244.3" rx="72.3" ry="12.2"/>
		<ellipse style="fill:#B8B8B8;" cx="239.3" cy="244.3" rx="70" ry="11.7"/>
		<ellipse style="fill:#B6B6B6;" cx="239.3" cy="244.3" rx="67.6" ry="11.5"/>
		<ellipse style="fill:#B4B4B4;" cx="239.3" cy="244.3" rx="65.3" ry="11.1"/>
		<ellipse style="fill:#B2B2B2;" cx="239.3" cy="244.3" rx="62.7" ry="10.7"/>
		<ellipse style="fill:#B0B0AF;" cx="239.3" cy="244.3" rx="60.4" ry="10.2"/>
		<ellipse style="fill:#AEAEAD;" cx="239.3" cy="244.3" rx="58" ry="9.8"/>
		<ellipse style="fill:#ACACAB;" cx="239.3" cy="244.3" rx="55.7" ry="9.4"/>
		<ellipse style="fill:#AAAAA9;" cx="239.3" cy="244.3" rx="53.3" ry="9"/>
		<ellipse style="fill:#A8A8A7;" cx="239.3" cy="244.3" rx="51" ry="8.5"/>
		<ellipse style="fill:#A6A6A5;" cx="239.3" cy="244.3" rx="48.6" ry="8.1"/>
		<ellipse style="fill:#A4A4A3;" cx="239.3" cy="244.3" rx="46.3" ry="7.9"/>
		<ellipse style="fill:#A2A2A1;" cx="239.3" cy="244.3" rx="43.7" ry="7.5"/>
		<ellipse style="fill:#A0A09F;" cx="239.3" cy="244.3" rx="41.4" ry="7"/>
		<ellipse style="fill:#9E9E9D;" cx="239.3" cy="244.3" rx="39" ry="6.6"/>
		<ellipse style="fill:#9C9C9B;" cx="239.3" cy="244.3" rx="36.7" ry="6.2"/>
		<ellipse style="fill:#9A9A99;" cx="239.3" cy="244.3" rx="34.4" ry="5.8"/>
		<ellipse style="fill:#989897;" cx="239.3" cy="244.3" rx="32" ry="5.3"/>
	</g>
	<path id="legBB" style="fill:#754D24;" d="M162.9,146c0,0-0.9,27.7-2.6,37.3c-2.3,11.7-9.6,23.9-10,28c-0.4,3.2,1.1,8.5,5.8,9.2
		c6.2,0.9,11.3-4.1,11.3-4.1s3,5.1,8.7,5.1c4.1,0,4.9-4.7,4.9-4.7s1.7,4.3,7,4.3s6-4.3,6-4.3s2.3,3,6.2,0.9c3.8-2.1,4.1-10,0.4-16.6
		c-3.6-6.6-10.2-10-16.9-8.5c-7.5,1.7-11.3,12.4-17.1,11.3c-2.6-0.4,4.1-15.8,5.1-25.2c1.3-11.3-2.1-31.6-2.1-31.6L162.9,146z"/>
	<path id="legBF" style="fill:#754D24;" d="M227.1,157.3c0,0,9.2,21.1,7.9,31.2c-1.3,10-4.5,18.6-6.6,22.4c-1.5,3-1.9,7.7,1.3,7.9
		c6.4,0.6,10.9-0.9,10.9-0.9s3.2,5.3,9.4,5.3c4.3,0,5.1-5.1,5.1-5.1s1.7,4.5,7.5,4.7c5.5,0,6.4-4.5,6.4-4.5s2.3,3.2,6.6,0.9
		c4.1-2.1,5.5-8.1,1.7-15.1s-10.2-11.7-17.3-10.2c-7.9,1.9-12.4,11.7-18.3,10.9c-2.8-0.4,0-13.9,0-19.6s-6.2-28-6.2-28h-8.3
		L227.1,157.3L227.1,157.3z"/>
	<g id="legFB">
		<path style="fill:#B56F29;" d="M138.4,160.9c0,0-0.9,32.9-3.2,44.2c-2.8,13.9-11.3,28.4-11.9,32.9c-0.4,3.8,1.1,10,6.8,10.7
			c7.3,0.9,13.2-4.7,13.2-4.7s3.4,6.2,10.5,6.2c4.7,0,5.8-5.5,5.8-5.5s1.9,5.1,8.3,5.1c6.2,0,7-4.9,7-4.9s2.8,3.6,7.5,1.1
			c4.5-2.6,4.9-11.7,0.6-19.6c-4.3-7.9-12.2-11.9-19.8-10c-9,2.1-13.4,14.5-20.3,13.4c-3-0.4,4.9-18.6,6-29.7
			c1.5-13.2-2.3-37.3-2.3-37.3L138.4,160.9z"/>
		<path style="fill:#754D24;" d="M168.2,225.1c0,0,6.4,4.9,7.9,10.9c1.3,5.1,0,9.4,0,9.4l-0.9-0.9c0,0,1.1-6-0.6-10
			C172.7,230.7,168.2,225.1,168.2,225.1z"/>
		<path style="fill:#754D24;" d="M160.6,245.8c0,0,0.4-5.8-0.6-8.5c-1.1-3-4.9-5.5-4.9-5.5s3,3.6,3.6,6.4c0.6,2.6,1.1,6.4,1.1,6.4
			L160.6,245.8z"/>
		<path style="fill:#754D24;" d="M144.8,236c0,0,0.6,2.8,0.4,5.1c0,1.7-0.6,4.3-0.6,4.3l-1.1-1.5c0,0,0.6-1.7,0.9-3.2
			C144.6,239.2,144.8,236,144.8,236z"/>
	</g>
	<g id="legFF">
		<path style="fill:#B56F29;" d="M213.7,171.8c0,0,12.4,26,10.7,38c-1.5,11.9-9.4,20.9-11.9,25.6c-1.9,3.6-0.9,8.7,1.7,10.2
			c6.6,4.1,15.8-1.9,15.8-1.9s3.6,6.4,11.1,6.4c4.9,0,6.2-6,6.2-6s2.1,5.3,8.7,5.5c6.6,0,7.5-5.3,7.5-5.3s2.8,3.8,7.9,1.1
			c4.7-2.6,6.4-9.6,1.9-17.9s-12.2-14.1-20.3-12.2c-9.4,2.1-16.2,13.9-23.5,12.8c-3.2-0.4,7.7-18.3,7.7-25.2
			c0-6.8-13.2-31.2-13.2-31.2L213.7,171.8L213.7,171.8z"/>
		<path style="fill:#754D24;" d="M258.3,226c0,0,4.5,3,6,9.4c1.3,5.3,0,9.8,0,9.8l-0.9-0.9c0,0,1.1-6.4-0.6-10.7
			C260.8,229.6,258.3,226,258.3,226z"/>
		<path style="fill:#754D24;" d="M247.8,245.6c0,0,0.4-6-0.6-9.2c-1.1-3-3.6-5.8-3.6-5.8s1.7,3.8,2.3,6.6c0.9,2.8,1.1,6.8,1.1,6.8
			L247.8,245.6z"/>
		<path style="fill:#754D24;" d="M231.2,235.4c0,0,0.6,2.8,0.4,5.3c0,1.7-0.6,4.5-0.6,4.5l-1.1-1.5c0,0,0.6-1.9,0.9-3.4
			C231,238.8,231.2,235.4,231.2,235.4z"/>
	</g>
	<path id="earF" d="M322.5,47.8c0,0,52.1-30.1,62.3-27.1c10.5,2.8,38,35.4,30.9,45c-7,9.6-18.1,10-23.3,6.4
		c-5.1-3.6-9.8-33.9-13.4-37.1s-54.6,19.6-54.6,19.6L322.5,47.8z"/>
	<path id="earB" style="fill:#343433;" d="M376.5,90.9c0,0,48-3,52.3,1.9s9.4,64-0.2,71.5c-8.7,6.8-22.4,1.7-25.4-11.1
		c-2.3-10.5,15.6-42.5,15.1-48.2c-0.4-5.8-39.9-9.4-39.9-9.4L376.5,90.9z"/>
	<path id="tail" style="fill:#1A1A1A;" d="M126.6,35c0,0-27.5,4.9-63.8-1.1C33,29.2,4.4,12.4,0.7,16.4C-2.9,20.7,6.2,55.9,37.6,68
		c20.9,8.1,40.5-16,43.5-14.1s-7.7,14.9-17.9,22c-3.8,2.8,14.7,5.8,25.4-6.2c6.4-7.3,10.2-18.3,12.6-18.3c2.3,0-7.5,24.3-3.6,25
		c3.6,0.6,9.4-3,17.9-14.3c9.6-12.6,10.7-22.2,10.7-22.2L126.6,35z"/>
	<path id="eyebrow" style="fill:#D18029;" d="M378.4,95.6c0,0,13.9,7,16.2,17.1c2.3,10-2.3,13.7-5.1,14.1c-2.6,0.4-7.5-1.9-7.5-1.9
		l-14.9-15.6L378.4,95.6z"/>
	<path id="body" style="fill:#F69220;" d="M374.8,174.1l-12.4-32l12.8-39c0,0,6,0.2,7.7-10c1.5-10.2-11.5-22.6-22.2-24.3
		c-10.5-1.9-33.7-1.9-33.7-1.9s5.3-15.1-1.7-30.9S291.8-2.4,289.7,0.2c-2.1,2.6,15.6,41.6,13.9,42.9S291,25.6,282.5,18.6
		c-8.7-7-27.1-17.9-28.2-15.4c-1.3,2.6,21.5,35.6,21.5,35.6s-13.7-11.1-22-15.1c-8.5-4.1-22.2-8.1-22.8-6
		c-0.6,1.9,16.4,22.6,15.1,23S129.4,32,126.8,35.4c-2.3,3.2-12.2,65.1-6.6,92.4c4.1,19.6,17.3,45.2,58.7,51.4
		c41.4,6.2,42.2-0.2,55.5-2.3c9.4-1.5,21.1,6.2,21.1,6.2s11.9,13.2,37.8,23.7c25.2,10.2,46.5,12.8,46.5,12.8L374.8,174.1z"/>
	
		<ellipse id="eyeB" transform="matrix(0.1195 -0.9928 0.9928 0.1195 203.1995 468.8246)" style="fill:#CBCBCA;" cx="365.9" cy="119.8" rx="20.9" ry="20.9"/>
	
		<ellipse id="eyeballB" transform="matrix(0.1196 -0.9928 0.9928 0.1196 199.7126 489.3784)" cx="375.8" cy="132.1" rx="4.3" ry="4.3"/>
	
		<ellipse id="eyeF" transform="matrix(0.1196 -0.9928 0.9928 0.1196 199.5639 434.2774)" style="fill:#FFFFFF;" cx="344.6" cy="104.6" rx="26" ry="26"/>
	
		<ellipse id="eyeballF" transform="matrix(0.1196 -0.9928 0.9928 0.1196 198.0419 459.6363)" cx="358.2" cy="118.2" rx="4.9" ry="4.9"/>
	<path style="fill:#F69220;" d="M308.4,112.2c0,0,7.5-2.6,16.6,0c12.8,3.6,43.5,21.5,44.2,28.2c0.4,4.5-5.3,3.8-6.4,3.6
		c-0.9-0.2-11.5-1.7-29-10.7C316.3,124.2,308.4,112.2,308.4,112.2z"/>
	<path id="mounth" d="M255.5,182.4c0,0-10-21.1-6.4-41.8c3.6-20.5,20.5-39.3,20.5-39.3s-16.9,14.5-22,36.1
		c-4.9,20.7,4.5,43.1,4.5,43.1L255.5,182.4z"/>
	<g id="nose">
		<ellipse transform="matrix(0.1195 -0.9928 0.9928 0.1195 114.8592 539.2781)" cx="361.5" cy="204.9" rx="42.7" ry="40.3"/>
		
			<ellipse transform="matrix(0.57 -0.8216 0.8216 0.57 6.2893 385.0242)" style="fill:#343433;" cx="371" cy="186.5" rx="9.4" ry="18.6"/>
	</g>
</g>
<g id="eyeclose">
	<g id="eyeBclose">
		
			<ellipse transform="matrix(0.8729 -0.4878 0.4878 0.8729 -11.7948 194.1461)" style="fill:#D18029;" cx="366.8" cy="119.7" rx="21.1" ry="21.1"/>
		<path style="fill:#603A17;" d="M381.6,132.9l-0.9,2.6c0,0-6.6-7.7-15.4-13.4c-6.6-4.5-14.3-7.5-20.5-7.3l0.9-2.1
			C346,112.7,363.5,110.1,381.6,132.9z"/>
	</g>
	<g id="eyeFclose">
		
			<ellipse transform="matrix(0.8729 -0.4878 0.4878 0.8729 -7.108 181.3598)" style="fill:#E48525;" cx="344.6" cy="104.3" rx="25.8" ry="25.8"/>
		<path style="fill:#603A17;" d="M364.5,118l-1.1,3.2c0,0-8.7-9-19.8-15.8c-8.5-5.1-18.3-8.5-25.8-7.9l1.1-2.6
			C318.7,95,340.4,90.5,364.5,118z"/>
	</g>
	<g id="bodyClose">
		<path style="fill:#F69220;" d="M304.4,89.4c0,0,7.7-1.3,13.9,3.2c5.3,4.1,7,24.1,5.1,26.7C321,122.3,304.4,89.4,304.4,89.4z"/>
		<path style="fill:#F69220;" d="M308.4,112.2c0,0,7.5-2.6,16.6,0c12.8,3.6,43.5,21.5,44.2,28.2c0.4,4.5-5.3,3.8-6.4,3.6
			c-0.9-0.2-11.5-1.7-29-10.7C316.3,124.2,308.4,112.2,308.4,112.2z"/>
	</g>
</g>
</svg>
