<?xml version="1.0" encoding="utf-8"?>
<!-- Generator: Adobe Illustrator 21.0.0, SVG Export Plug-In . SVG Version: 6.00 Build 0)  -->
<svg version="1.1" id="Layer_1" xmlns="http://www.w3.org/2000/svg" xmlns:xlink="http://www.w3.org/1999/xlink" x="0px" y="0px"
	 viewBox="0 0 960 560" style="enable-background:new 0 0 960 560;" xml:space="preserve">
<style type="text/css">
	.st0{fill:#A7A8AC;}
	.st1{fill:#FFFFFF;}
	.st2{fill:#FFFFFF;stroke:#B8D432;stroke-width:1.5;stroke-miterlimit:10;}
	.st3{fill:#FDFDFD;}
	.st4{fill:#FBFBFB;}
	.st5{fill:#F9F9F9;}
	.st6{fill:#F7F7F7;}
	.st7{fill:#F5F5F5;}
	.st8{fill:#F3F3F3;}
	.st9{fill:#F1F1F1;}
	.st10{fill:#EFEFEF;}
	.st11{fill:#EDEDED;}
	.st12{fill:#EBEBEB;}
	.st13{fill:#E9E9E9;}
	.st14{fill:#E7E7E7;}
	.st15{fill:#E5E5E4;}
	.st16{fill:#E3E3E2;}
	.st17{fill:#E1E1E0;}
	.st18{fill:#DFDFDE;}
	.st19{fill:#DDDDDC;}
	.st20{fill:#DBDBDA;}
	.st21{fill:#D9D9D8;}
	.st22{fill:#D7D7D6;}
	.st23{fill:#D5D5D4;}
	.st24{fill:#D3D3D2;}
	.st25{fill:#D1D1D0;}
	.st26{fill:#CFCFCE;}
	.st27{fill:#CDCDCC;}
	.st28{fill:#CACACA;}
	.st29{fill:#C8C8C8;}
	.st30{fill:#C6C6C6;}
	.st31{fill:#C4C4C4;}
	.st32{fill:#C2C2C2;}
	.st33{fill:#C0C0C0;}
	.st34{fill:#BEBEBE;}
	.st35{fill:#BCBCBC;}
	.st36{fill:#BABABA;}
	.st37{fill:#B8B8B8;}
	.st38{fill:#B6B6B6;}
	.st39{fill:#B4B4B4;}
	.st40{fill:#B2B2B2;}
	.st41{fill:#B0B0AF;}
	.st42{fill:#AEAEAD;}
	.st43{fill:#ACACAB;}
	.st44{fill:#AAAAA9;}
	.st45{fill:#A8A8A7;}
	.st46{fill:#A6A6A5;}
	.st47{fill:#A4A4A3;}
	.st48{fill:#A2A2A1;}
	.st49{fill:#A0A09F;}
	.st50{fill:#9E9E9D;}
	.st51{fill:#9C9C9B;}
	.st52{fill:#9A9A99;}
	.st53{fill:#989897;}
	.st54{fill:#754D24;}
	.st55{fill:#B56F29;}
	.st56{fill:#89181B;}
	.st57{fill:#D18029;}
	.st58{fill:#1A1A1A;}
	.st59{fill:#F69220;}
	.st60{fill:#CBCBCA;}
	.st61{fill:#343433;}
	.st62{fill:#86AABD;}
	.st63{fill:#676767;}
	.st64{fill:#603A17;}
	.st65{fill:#E48525;}
</style>
<g>
	<g>
		<path class="st0" d="M632.8,184.3c-3.5-14.1-11.7-16.2-22.2-17.4c-16.4-1.8-89.9-1.9-101.6-0.4c-9.3,1.1-15.4,7.3-19.4,18.8
			c-3.3,9.5-10.8,24.9-11.8,32c-1.4,9.2,0.6,23,15,26.8c12.8,3.4,25.9,4.2,50.9,6.2c15.9,1.3,23.1,2.4,19.1,6.9
			c-5.4,6.1-28.3,15.5-23.3,16c16,1.7,34.1-0.7,45.8-3.9c8.1-2.2,16.2-6.2,21.5-11.6c12.2,1.5,11.3,2.1,14.8,2
			c11.3-0.1,17.2-6.8,18.9-16.5C642.5,232.1,634.9,192.9,632.8,184.3z"/>
		<path class="st1" d="M633.7,183.9c-3.4-13.9-12.4-16.5-22.7-17.6c-16.1-1.7-88.1-1.8-99.6-0.4c-9.1,1.1-15.1,7.2-19.1,18.6
			c-3.3,9.3-10.5,24.3-11.6,31.2c-1.3,9,0.6,22.7,14.7,26.4c12.6,3.3,25.4,4.1,50,6.1c15.6,1.2,22.7,2.4,18.8,6.8
			c-5.3,6-27.8,15.5-22.9,15.8c14.5,1,34.5-1,45.8-4.5c8.1-2.5,15.1-5.6,20.3-10.9c12,1.5,11,2,14.4,2c11.1-0.1,15.9-7.3,17.8-16.8
			C641.9,228.8,635.8,192.4,633.7,183.9z"/>
	</g>
	<path class="st2" d="M628.9,186.6c-3.2-13.1-11.6-15.5-21.4-16.6c-15.1-1.6-82.2-1.7-93-0.3c-8.6,1.1-14.2,6.8-17.9,17.4
		c-3.1,8.8-9.6,21.4-10.6,28c-1.3,8.5,0.5,21.3,13.8,24.9c11.8,3.1,34.2,4.9,57.3,6.8c14.6,1.2,17.7,2.8,14.1,6.9
		c-5,5.6-25.2,14.7-19,14.2c10.9-0.8,22.2-2.1,33.9-5.8c6.5-2.1,14.1-5.3,19.1-10.3c11.3,1.4,9.7,1.9,12.9,1.8
		c10.4-0.1,14.8-6,16.6-15C636.8,227.5,630.8,194.6,628.9,186.6z"/>
</g>
<g>
	<path d="M515.4,196.3l-1.2,0c-0.2,0-0.5,0-0.8-0.1c-0.3,0-0.5-0.2-0.6-0.4c0-1.4,0-2.9,0.1-4.5l0.7-9.5c0-0.2,0.1-0.3,0.3-0.4
		c0.2-0.1,0.5-0.1,0.8-0.1c0.3,0,0.5,0.1,0.8,0.3c0.2,0.2,0.3,0.4,0.3,0.6c-0.1,0.5-0.3,1.8-0.6,3.8s-0.5,3.8-0.6,5.1
		c-0.1,1.3-0.1,2.5,0,3.6c0,0,0.2,0,0.4,0c0.2,0,0.9,0,1.9-0.1c1-0.1,1.7-0.1,2-0.1c0.7,0,1.1,0.3,1,0.8c0,0.4-0.2,0.7-0.7,0.9
		c-0.5,0.2-0.9,0.2-1.3,0.2c-0.4,0-0.8,0-1,0L515.4,196.3z"/>
	<path d="M528.1,187.2c0.7,0.5,1.1,1.1,1,1.8c0,0.7-0.4,1.3-1.2,2c-0.7,0.6-1.6,1-2.6,1.1c-0.1,0-0.2,0-0.2,0c-0.1,0-0.1,0-0.2,0
		c-0.1,0-0.2,0-0.2,0s-0.1,0-0.2,0c-0.1,0-0.2,0-0.2,0c0,0-0.1,0-0.3,0c-0.1,0-0.2,0-0.2,0c0.1,1.2,0.3,2,0.6,2.4
		c0.4,0.4,0.8,0.6,1.1,0.6c0.8,0,1.5-0.2,2.2-0.8c0.7-0.6,1.2-0.9,1.5-0.9c0.1,0,0.3,0.1,0.5,0.4c0.2,0.2,0.4,0.5,0.3,0.7
		c0,0.2-0.2,0.5-0.5,0.8c-0.3,0.3-0.6,0.6-1.1,0.9c-0.4,0.3-0.9,0.6-1.6,0.8c-0.6,0.2-1.2,0.3-1.7,0.3c-0.5,0-1-0.2-1.3-0.4
		c-0.7-0.5-1.2-1.3-1.5-2.3c-0.3-1.1-0.4-2.2-0.4-3.3c0.1-1.2,0.4-2.2,0.9-3.1c0.6-1,1.6-1.5,3-1.4
		C526.6,186.4,527.3,186.7,528.1,187.2z M527.1,188.9c0-0.6-0.4-1-1.2-1c-0.6,0-1.1,0.3-1.5,0.9c-0.1,0.2-0.3,0.4-0.3,0.7
		c-0.1,0.3-0.1,0.5-0.2,0.8C525.9,190.5,527,190,527.1,188.9z"/>
	<path d="M535.2,181.8l-0.3,2.8c0,0.2,0,0.9,0,2.2c0.9,0.1,1.8,0.1,2.7,0.1c0.5,0.1,0.7,0.4,0.6,0.8c0,0.4-0.2,0.7-0.5,0.9
		c-0.3,0.2-0.6,0.2-0.9,0.2c-0.3,0-0.5,0-0.7,0s-0.4,0-0.6,0c-0.3,0-0.4,0-0.6,0c0,0.1,0,0.6,0,1.3c0,0.7,0,1.2,0,1.4
		c0,2.1,0.1,3.8,0.2,5.1c-0.1,0.3-0.2,0.5-0.5,0.7c-0.2,0.2-0.5,0.3-0.7,0.3c-0.3,0-0.5-0.2-0.6-0.6c-0.2-1.4-0.2-3-0.2-4.9
		c0-1.9,0-3,0-3.4c-0.2,0-0.6,0-1.1,0c-0.5,0-1-0.1-1.3-0.2c-0.4-0.1-0.5-0.3-0.5-0.7c0-0.8,0.5-1.1,1.4-1.1l1.1,0.1
		c0.2,0,0.3,0,0.4,0c0-1.5,0-2.3,0-2.4c0-0.1,0-0.3,0.1-0.7c0-0.4,0.1-0.9,0.2-1.6c0.1-0.3,0.2-0.5,0.5-0.6c0.2-0.2,0.5-0.2,0.7-0.2
		C534.9,181.1,535.1,181.4,535.2,181.8z"/>
	<path d="M540.1,181.1c0.1-0.2,0.2-0.4,0.3-0.5c0.2-0.1,0.3-0.2,0.5-0.2c0.3,0,0.6,0.3,0.8,0.7c0,0.7-0.2,1.3-0.4,1.9
		c-0.4,1.2-0.9,1.7-1.5,1.7c-0.5,0-0.7-0.3-0.7-0.8c0-0.2,0-0.3,0.1-0.5c0.3-0.3,0.5-0.6,0.6-1C540,182.1,540.1,181.6,540.1,181.1z"
		/>
	<path d="M547.6,187.4c0.6,0,1.1,0.2,1.7,0.4c1.1,0.4,1.6,0.9,1.6,1.5c0,0.3-0.1,0.5-0.4,0.6c-0.2,0.1-0.5,0.2-0.8,0.2
		c-0.1,0-0.4-0.2-1-0.5c-0.6-0.3-1.1-0.5-1.5-0.5c-0.4,0-0.7,0.1-1.1,0.3c-0.3,0.2-0.5,0.5-0.5,0.8c0,0.3,0.1,0.6,0.2,0.9
		c0.2,0.3,0.4,0.4,0.7,0.6c0.3,0.1,0.6,0.2,1,0.3c1,0.3,1.7,0.5,2,0.7c0.7,0.4,1,1,0.9,2c-0.1,0.9-0.5,1.8-1.2,2.4
		c-0.8,0.7-1.5,1-2.3,1c-0.8,0-1.5-0.2-2-0.4c-0.9-0.4-1.4-0.9-1.3-1.4c0-0.5,0.4-0.8,1-0.7c0.3,0,0.7,0.2,1.3,0.5
		c0.5,0.3,1,0.5,1.3,0.5c0.4,0,0.7-0.2,1-0.6c0.3-0.4,0.5-0.9,0.5-1.3c0-0.1,0-0.2,0-0.4c-0.4-0.4-1.2-0.8-2.4-1
		c-0.4-0.1-0.8-0.2-1.2-0.4c-0.9-0.4-1.3-1.2-1.2-2.5c0.1-0.9,0.4-1.6,1.1-2.1C545.8,187.6,546.7,187.4,547.6,187.4z"/>
	<path d="M561.6,188.2c0.6,0,1.1,0.2,1.7,0.4c1.1,0.4,1.6,0.9,1.6,1.5c0,0.3-0.1,0.5-0.4,0.6c-0.2,0.1-0.5,0.2-0.8,0.2
		c-0.1,0-0.4-0.2-1-0.5c-0.6-0.3-1.1-0.5-1.5-0.5c-0.4,0-0.7,0.1-1.1,0.3c-0.3,0.2-0.5,0.5-0.5,0.8c0,0.3,0.1,0.6,0.2,0.9
		c0.2,0.3,0.4,0.4,0.7,0.6c0.3,0.1,0.6,0.2,1,0.3c1,0.3,1.7,0.5,2,0.7c0.7,0.4,1,1,0.9,2c-0.1,0.9-0.5,1.8-1.2,2.4
		c-0.8,0.7-1.5,1-2.3,1c-0.8,0-1.5-0.2-2-0.4c-0.9-0.4-1.4-0.9-1.3-1.4c0-0.5,0.4-0.8,1-0.7c0.3,0,0.7,0.2,1.3,0.5
		c0.5,0.3,1,0.5,1.3,0.5c0.4,0,0.7-0.2,1-0.6c0.3-0.4,0.5-0.9,0.5-1.3c0-0.1,0-0.2,0-0.4c-0.4-0.4-1.2-0.8-2.4-1
		c-0.4-0.1-0.8-0.2-1.2-0.4c-0.9-0.4-1.3-1.2-1.2-2.5c0.1-0.9,0.4-1.6,1.1-2.1C559.8,188.4,560.6,188.1,561.6,188.2z"/>
	<path d="M567.9,198.5l-0.4,6.8c-0.1,0.3-0.3,0.5-0.5,0.7c-0.2,0.2-0.5,0.3-0.7,0.3c-0.4,0-0.6-0.3-0.5-0.8l0.5-7.8l0.4-8
		c0.1-0.4,0.2-0.6,0.3-0.8c0.1-0.2,0.3-0.3,0.6-0.2c0.3,0,0.5,0.1,0.6,0.2c0.1,0.1,0.2,0.5,0.2,1.1c0.1-0.3,0.3-0.5,0.7-0.8
		c0.4-0.3,1-0.4,1.8-0.3c0.8,0,1.4,0.2,2,0.6c0.6,0.4,1,0.8,1.3,1.4c0.5,1.1,0.8,2.4,0.7,3.9c-0.1,1.5-0.6,2.7-1.5,3.5
		c-0.9,0.8-2.2,1.2-3.7,1.1c-0.5,0-1-0.2-1.4-0.6C568,198.6,567.9,198.5,567.9,198.5z M570.4,190.5c-0.6,0-1.1,0.3-1.5,0.7
		c-0.4,0.4-0.6,0.8-0.6,1.2l-0.2,4.2c0,0,0.1,0.1,0.3,0.2c0.4,0.4,0.9,0.6,1.4,0.7c2.1,0.1,3.2-0.9,3.3-3.1c0.1-1.9-0.3-3-1.2-3.6
		C571.4,190.7,570.9,190.6,570.4,190.5z"/>
	<path d="M582.5,190.2c0.7,0.5,1.1,1.1,1,1.8c0,0.7-0.4,1.3-1.2,2c-0.7,0.6-1.6,1-2.6,1.1c-0.1,0-0.2,0-0.2,0c-0.1,0-0.1,0-0.2,0
		c-0.1,0-0.2,0-0.2,0c-0.1,0-0.1,0-0.2,0c-0.1,0-0.2,0-0.2,0c0,0-0.1,0-0.3,0c-0.1,0-0.2,0-0.2,0c0.1,1.2,0.3,2,0.6,2.4
		c0.4,0.4,0.8,0.6,1.1,0.6c0.8,0,1.5-0.2,2.2-0.8c0.7-0.6,1.2-0.9,1.5-0.9c0.1,0,0.3,0.1,0.5,0.4s0.4,0.5,0.3,0.7
		c0,0.2-0.2,0.5-0.5,0.8c-0.3,0.3-0.6,0.6-1.1,0.9c-0.4,0.3-0.9,0.6-1.6,0.8c-0.6,0.2-1.2,0.3-1.7,0.3c-0.5,0-1-0.2-1.3-0.4
		c-0.7-0.5-1.2-1.3-1.5-2.3c-0.3-1.1-0.4-2.2-0.4-3.3c0.1-1.2,0.4-2.2,0.9-3.1c0.6-1,1.6-1.5,3-1.4
		C581,189.4,581.8,189.7,582.5,190.2z M581.5,192c0-0.6-0.4-1-1.2-1c-0.6,0-1.1,0.3-1.5,0.9c-0.1,0.2-0.3,0.4-0.3,0.7
		c-0.1,0.3-0.1,0.5-0.2,0.8C580.4,193.5,581.4,193,581.5,192z"/>
	<path d="M587.1,192.1c-0.2,3.7,0.1,5.9,0.9,6.5l0,0c0.5-0.1,1-0.3,1.5-0.6c0.5-0.3,0.8-0.6,0.9-0.8c-0.2-1.4-0.2-3.3-0.1-5.8
		c0.1-2.5,0.4-4.6,0.9-6.2c0.1-0.3,0.3-0.6,0.7-0.7c0.1-0.1,0.3-0.1,0.4-0.1c0.4,0,0.7,0.3,0.7,0.8c-0.4,2.2-0.7,3.8-0.8,4.6
		s-0.2,1.8-0.3,2.8s-0.1,1.9-0.1,2.6s0.1,1.4,0.3,2.2s0.4,1.3,0.7,1.6l0.1,0c0.2,0,0.5-0.2,0.7-0.5c0.2-0.3,0.5-0.5,0.7-0.7
		c0.2-0.2,0.4-0.3,0.6-0.3c0.5,0,0.7,0.5,0.6,1.3c0,0.5-0.3,0.9-0.9,1.4c-0.6,0.5-1.3,0.7-2,0.6c-0.9,0-1.5-0.5-1.8-1.5
		c-0.3,0.4-0.7,0.6-1.3,0.9c-0.6,0.2-1.1,0.3-1.5,0.3c-0.4,0-0.7-0.1-0.9-0.2c-0.2-0.1-0.4-0.2-0.5-0.3c-0.1-0.1-0.3-0.3-0.4-0.5
		c-0.2-0.4-0.4-0.8-0.5-1.1c-0.3-1.2-0.4-2.4-0.4-3.5c0-1.1,0-2.7,0.1-4.7s0.4-3.7,0.8-5.3c0.1-0.2,0.2-0.4,0.4-0.6
		c0.2-0.2,0.5-0.2,0.7-0.2c0.4,0,0.6,0.3,0.7,0.8c-0.4,2.1-0.6,3.6-0.8,4.5C587.3,190.1,587.2,191.1,587.1,192.1z"/>
	<path d="M604,192.2l-0.1,1.5l-0.3,5.1c0,0.7-0.1,1.2-0.1,1.6c-0.1,0.3-0.2,0.5-0.4,0.7c-0.2,0.2-0.4,0.3-0.7,0.3
		c-0.3,0-0.5-0.2-0.6-0.6c0-0.4,0-1,0-1.7c0-0.7,0-1.6,0-2.6c0-1,0-2,0.1-3c0.1-1,0.1-1.9,0.2-2.6c0-0.3,0.2-0.4,0.6-0.4
		C603.6,190.4,604,191,604,192.2z M602.4,186.3c0.2-0.2,0.4-0.3,0.5-0.3c0.1,0,0.2,0,0.3,0c0.7,0.2,1.1,0.4,1.2,0.8
		c0.1,0.2,0.1,0.4,0.1,0.7s-0.2,0.6-0.4,1s-0.6,0.5-0.9,0.5c-0.3,0-0.6-0.2-0.8-0.5c-0.2-0.3-0.3-0.7-0.3-1.2
		C602.1,186.7,602.2,186.4,602.4,186.3z"/>
	<path d="M612.8,201l0.1-1.2c0-0.2,0-0.4,0-0.7c0-0.3,0-0.6,0-1s0-0.8,0-1.2c0-0.4,0-0.8-0.1-1.1c-0.1-0.7-0.2-1.3-0.4-1.8
		c-0.2-0.5-0.6-0.7-1-0.8c-0.4,0-0.7,0-1,0.2c-0.3,0.1-0.5,0.3-0.6,0.6c-0.4,0.6-0.6,1.2-0.7,1.9c-0.1,0.7-0.2,1.4-0.2,2.2l-0.2,2.5
		c0,0.3-0.1,0.6-0.4,0.7c-0.2,0.2-0.5,0.2-0.8,0.2c-0.4,0-0.6-0.3-0.5-0.8c0.1-1.3,0.1-2.8,0.1-4.7c0-1.8,0.1-3.4,0.1-4.6
		c0.1-0.3,0.2-0.5,0.4-0.7c0.2-0.2,0.4-0.3,0.5-0.3c0.2,0,0.3,0,0.4,0.1c0.1,0,0.2,0.1,0.2,0.1c0.1,0.1,0.1,0.1,0.1,0.2
		c0,0.1,0.1,0.2,0.1,0.3c0,0.1,0,0.3,0,0.3c0,0.1,0,0.2,0,0.4s0,0.4,0,0.5c0.9-1,1.9-1.5,3.2-1.4c0.9,0,1.5,0.5,1.8,1.3
		c0.6,1.2,0.8,3,0.6,5.3l-0.1,2.1c0,0.6-0.1,1-0.2,1.1c-0.1,0.2-0.2,0.3-0.3,0.5c-0.2,0.3-0.5,0.4-0.9,0.4
		C612.9,201.8,612.8,201.5,612.8,201z"/>
	<path d="M500.3,212.8c0.6-0.3,1.2-0.4,1.9-0.4c0.7,0,1.3,0.4,1.9,1c1,1.2,1.5,2.7,1.4,4.7c-0.1,1-0.4,2.1-1,3.2
		c-0.3,0.5-0.7,0.9-1.2,1.3c-0.5,0.3-1,0.5-1.7,0.4s-1.2-0.2-1.8-0.6c-0.6-0.4-1-0.9-1.4-1.4c-0.7-1.2-1.1-2.3-1-3.3
		c0.1-1.4,0.6-2.6,1.4-3.7C499.2,213.5,499.7,213.1,500.3,212.8z M502.1,221.4c0.5-0.2,0.8-0.6,1.1-1.1c0.3-0.5,0.4-1.1,0.4-1.6
		c0-0.6,0-1.1,0-1.5c-0.1-0.4-0.1-0.9-0.3-1.3c-0.1-0.4-0.4-0.8-0.6-1.1c-0.3-0.3-0.6-0.5-1-0.6c-0.7,0.1-1.3,0.4-1.7,1.1
		c-0.5,0.6-0.7,1.3-0.8,1.9c0,0.7,0.2,1.5,0.7,2.5c0.2,0.5,0.6,0.8,1,1.2C501.2,221.2,501.6,221.4,502.1,221.4z"/>
	<path d="M511.3,207.9l-0.3,2.8c0,0.2,0,0.9,0,2.2c0.9,0.1,1.8,0.1,2.7,0.1c0.4,0.1,0.7,0.4,0.6,0.8c0,0.4-0.2,0.7-0.5,0.9
		c-0.3,0.2-0.6,0.2-0.9,0.2c-0.3,0-0.5,0-0.7,0c-0.2,0-0.4,0-0.6,0s-0.4,0-0.6,0c0,0.1,0,0.6,0,1.3s0,1.2,0,1.4
		c0,2.1,0.1,3.8,0.2,5.1c-0.1,0.3-0.2,0.5-0.5,0.7c-0.2,0.2-0.5,0.3-0.7,0.3c-0.3,0-0.5-0.2-0.6-0.6c-0.2-1.4-0.2-3-0.2-4.9
		c0-1.9,0-3,0-3.4c-0.2,0-0.6,0-1.1,0c-0.5,0-1-0.1-1.3-0.2c-0.4-0.1-0.5-0.3-0.5-0.7c0-0.8,0.5-1.1,1.4-1.1l1.1,0.1
		c0.2,0,0.3,0,0.4,0c0-1.5,0-2.3,0-2.4c0-0.1,0-0.3,0.1-0.7c0-0.4,0.1-0.9,0.2-1.6c0.1-0.3,0.2-0.5,0.5-0.6c0.2-0.2,0.5-0.2,0.7-0.2
		C511.1,207.2,511.3,207.5,511.3,207.9z"/>
	<path d="M522.9,218.6c-0.1,0.9-0.1,1.9-0.3,2.8c-0.1,0.9-0.2,1.5-0.3,1.8c0,0.3-0.2,0.5-0.5,0.7c-0.3,0.2-0.5,0.3-0.7,0.2
		c-0.4,0-0.6-0.2-0.6-0.6l0-0.1l0.4-4l0.1-1.2c0.1-1.4-0.2-2.3-0.8-2.7c-0.3-0.2-0.6-0.3-1-0.3c-1.2-0.1-1.9,0.4-1.9,1.4
		c-0.1,1.1-0.1,2.1-0.1,2.9s0,1.5,0,2c0,0.6-0.1,1.1-0.1,1.6L517,223c-0.1,0.2-0.2,0.4-0.5,0.6c-0.2,0.2-0.5,0.2-0.7,0.2
		c-0.4,0-0.6-0.2-0.7-0.6l-0.1,0c0.1-2.3,0.2-4.8,0.1-7.5c0-2.7,0-5.2,0.1-7.4c0.1-0.3,0.3-0.6,0.7-0.8c0.1-0.1,0.3-0.1,0.5-0.1
		c0.2,0,0.3,0.1,0.5,0.3c0.1,0.2,0.2,0.5,0.2,0.9c0,0.4,0,0.9,0,1.3c0,0.4,0,1-0.1,1.8c0,0.7,0,1.4,0,2c0.8-0.4,1.5-0.5,2.3-0.5
		c0.7,0,1.3,0.2,1.7,0.4c0.8,0.4,1.3,1.1,1.5,2.1C522.8,216.7,522.9,217.7,522.9,218.6z"/>
	<path d="M530.7,214.7c0.7,0.5,1.1,1.1,1,1.8c0,0.7-0.4,1.3-1.2,2c-0.7,0.6-1.6,1-2.6,1.1c-0.1,0-0.2,0-0.2,0c-0.1,0-0.1,0-0.2,0
		c-0.1,0-0.2,0-0.2,0c-0.1,0-0.1,0-0.2,0c-0.1,0-0.2,0-0.2,0c0,0-0.1,0-0.2,0c-0.1,0-0.2,0-0.3,0c0.1,1.2,0.3,2,0.6,2.4
		c0.4,0.4,0.8,0.6,1.1,0.6c0.8,0,1.5-0.2,2.2-0.8c0.7-0.6,1.2-0.9,1.5-0.9c0.1,0,0.3,0.1,0.5,0.4c0.2,0.2,0.4,0.5,0.3,0.7
		c0,0.2-0.2,0.5-0.5,0.8c-0.3,0.3-0.7,0.6-1.1,0.9c-0.4,0.3-0.9,0.6-1.6,0.8c-0.6,0.2-1.2,0.3-1.7,0.3c-0.5,0-1-0.2-1.3-0.4
		c-0.7-0.5-1.2-1.3-1.5-2.3c-0.3-1.1-0.4-2.2-0.4-3.3c0.1-1.2,0.4-2.2,0.9-3.1c0.6-1,1.6-1.5,3-1.4C529.2,214,530,214.2,530.7,214.7
		z M529.7,216.5c0-0.6-0.4-1-1.2-1c-0.6,0-1.1,0.3-1.5,0.9c-0.1,0.2-0.3,0.4-0.3,0.7c-0.1,0.3-0.1,0.5-0.2,0.8
		C528.6,218,529.7,217.6,529.7,216.5z"/>
	<path d="M534.2,222l0.1-0.7c0.1-0.9,0-2,0-3.1c-0.1-1.1-0.2-2-0.3-2.5c-0.1-0.6-0.2-0.9-0.2-1.1c0-0.1,0.1-0.3,0.3-0.4
		c0.2-0.1,0.4-0.2,0.7-0.2c0.3,0,0.5,0.1,0.6,0.3c0.1,0.2,0.2,0.4,0.3,0.6c0,0.2,0,0.5,0.1,0.8c0,0.3,0,0.6,0,0.7
		c0.4-0.9,1.1-1.5,2.1-1.9c0.5-0.2,1-0.2,1.6-0.2c1.2,0.1,1.9,0.4,1.8,1.1c0,0.4-0.2,0.7-0.7,0.9c-0.2,0.1-0.3,0.1-0.5,0.1l-0.7-0.1
		c-1.9-0.1-3,1.7-3.2,5.5l-0.1,2.1l0,0c-0.1,0.3-0.2,0.5-0.5,0.7c-0.2,0.2-0.5,0.3-0.7,0.3c-0.3,0-0.5-0.3-0.6-0.9
		S534.2,222.8,534.2,222z"/>
	<path d="M548,219.9c0-0.8,0.1-1.5,0.1-2.1c0-0.6,0-1.1,0-1.4c0-0.4,0.1-1.3,0.1-2.9c0.1-1.6,0.2-2.6,0.2-3c0-0.4,0.1-0.7,0.3-0.8
		c0.2-0.2,0.4-0.3,0.8-0.2c0.5,0,0.8,0.3,0.9,0.8c-0.2,1.4-0.4,4.1-0.7,8.1c-0.2,3,0.1,4.8,0.7,5.4c0.2,0,0.4-0.2,0.6-0.4
		c0.2-0.2,0.4-0.5,0.6-0.7s0.4-0.3,0.6-0.3s0.4,0.1,0.6,0.4c0.1,0.2,0.2,0.6,0.2,1c0,0.5-0.3,0.9-0.8,1.4c-0.5,0.5-1.1,0.7-1.8,0.6
		c-1.3-0.1-2-1.2-2.3-3.5C548,221.5,548,220.7,548,219.9z"/>
	<path d="M562,217.8l-0.1,1.6c0,0.6-0.1,1.4-0.3,2.3c0,1.6,0.1,3.1,0.3,4.4c-0.1,0.2-0.2,0.3-0.4,0.4c-0.2,0.1-0.4,0.1-0.6,0.1
		s-0.4-0.1-0.5-0.1c-0.1-0.1-0.2-0.2-0.3-0.3c0-0.1-0.1-0.2-0.1-0.3c0-0.1,0-0.2,0-0.4c0-0.2,0-0.3,0-0.3c-0.8,0.7-1.7,1-2.9,1
		c-1.1-0.1-1.9-0.5-2.4-1.4s-0.6-2.1-0.5-3.7c0.2-2.7,1-4.4,2.6-5.1c0.5-0.2,1.1-0.3,1.7-0.2c0.6,0,1.2,0.2,1.8,0.4
		c0.2-0.3,0.5-0.4,0.8-0.4c0.6,0,0.9,0.5,0.9,1.5C562,217.4,562,217.6,562,217.8z M559.5,223.1c0.3-0.8,0.5-1.7,0.6-2.7
		c0.1-1,0-1.7-0.2-2.1c-0.2-0.5-0.6-0.7-1.2-0.7c-0.2,0-0.6,0-0.9,0c-0.4,0-0.8,0.3-1.1,1c-0.4,0.6-0.6,1.1-0.6,1.6l-0.1,0.9
		c-0.1,1.6,0.2,2.6,0.8,3.1c0.2,0.1,0.4,0.2,0.8,0.2c0.3,0,0.7-0.1,1.1-0.4C559,223.8,559.3,223.5,559.5,223.1z"/>
	<path d="M570.7,226.1l0.1-1.2c0-0.2,0-0.4,0-0.7c0-0.3,0-0.6,0-1c0-0.4,0-0.8,0-1.2c0-0.4,0-0.8-0.1-1.1c-0.1-0.7-0.2-1.3-0.4-1.8
		c-0.2-0.5-0.6-0.7-1-0.8c-0.4,0-0.7,0-1,0.2c-0.3,0.1-0.5,0.3-0.7,0.6c-0.4,0.6-0.6,1.2-0.7,1.9c-0.1,0.7-0.2,1.4-0.2,2.2l-0.2,2.5
		c0,0.3-0.1,0.6-0.4,0.7c-0.2,0.2-0.5,0.2-0.8,0.2c-0.4,0-0.6-0.3-0.5-0.8c0.1-1.3,0.1-2.8,0.1-4.7c0-1.8,0.1-3.4,0.1-4.6
		c0.1-0.3,0.2-0.5,0.4-0.7c0.2-0.2,0.4-0.3,0.5-0.3c0.2,0,0.3,0,0.4,0.1c0.1,0,0.2,0.1,0.2,0.1c0.1,0.1,0.1,0.1,0.1,0.2
		c0,0.1,0.1,0.2,0.1,0.3c0,0.1,0,0.3,0,0.3c0,0.1,0,0.2,0,0.4c0,0.2,0,0.4,0,0.5c0.9-1,1.9-1.5,3.2-1.4c0.8,0,1.5,0.5,1.8,1.3
		c0.6,1.2,0.8,3,0.6,5.3l-0.1,2.1c0,0.6-0.1,1-0.2,1.1c-0.1,0.2-0.2,0.3-0.3,0.5c-0.2,0.3-0.5,0.4-0.9,0.4
		C570.8,226.8,570.6,226.6,570.7,226.1z"/>
	<path d="M582.5,228.9l-0.1,1.8c0,0.8-0.1,1.3-0.3,1.7c-0.4,0.8-0.8,1.3-1.3,1.6c-0.7,0.4-1.5,0.5-2.6,0.5s-2-0.4-2.9-1
		c-0.5-0.3-0.7-0.6-0.7-0.9c0-0.3,0.1-0.6,0.3-0.7c0.2-0.1,0.4-0.2,0.7-0.2c0.3,0,0.7,0.2,1.4,0.6c0.7,0.4,1.3,0.6,1.8,0.6
		c1.1,0.1,1.7-0.8,1.8-2.5c0.1-1.7,0.1-3,0.1-3.8c-0.6,0.6-1.3,0.9-2.1,0.8s-1.5-0.3-2.1-0.9c-1.2-1-1.8-2.6-1.7-4.6
		c0.1-2,0.9-3.5,2.4-4.4c0.8-0.5,1.6-0.7,2.6-0.6c1.3,0.1,2.1,0.7,2.5,2c0.3,1,0.4,2.3,0.4,3.8c0,0.3,0,0.8-0.1,1.5
		c0,0.7-0.1,1.4-0.1,2c0,0.7,0,1.2,0,1.7C582.6,228.3,582.6,228.7,582.5,228.9z M581,222.9c0.2-2.9-0.5-4.3-1.9-4.4
		c-0.7,0-1.2,0.3-1.7,0.9c-0.5,0.6-0.7,1.4-0.8,2.4c-0.1,1,0.1,1.7,0.5,2.4s1,1,1.8,1c0.9,0,1.4-0.1,1.6-0.5
		C580.8,224.2,580.9,223.7,581,222.9z"/>
	<path d="M590.3,226.3c-1.1,1-2.2,1.5-3.3,1.5c-0.5,0-1-0.2-1.3-0.7c-0.4-0.4-0.6-0.9-0.8-1.6c-0.3-1.3-0.5-2.5-0.4-3.6
		s0.2-2.5,0.4-4c0.1-0.3,0.2-0.5,0.4-0.6c0.2-0.2,0.4-0.2,0.6-0.2c0.4,0,0.7,0.3,0.7,0.7c-0.1,1-0.2,2-0.3,3c-0.1,1-0.1,1.7-0.1,2.1
		c0,1.1,0.3,2.2,0.9,3.4c0.6-0.1,1.2-0.3,1.7-0.7c0.5-0.4,1-0.8,1.3-1.3c-0.1-2.2,0-4.1,0-5.6c0-0.3,0.1-0.6,0.4-0.8
		c0.2-0.2,0.5-0.3,0.8-0.3c0.3,0,0.5,0.2,0.7,0.7c0,0.7-0.1,2.5-0.1,5.2c0,0.4,0.1,1.1,0.2,2.1c0.1,1,0.2,1.7,0.1,1.9
		c0,0.2-0.1,0.5-0.4,0.7c-0.2,0.2-0.5,0.3-0.8,0.3c-0.3,0-0.5-0.2-0.6-0.6L590.3,226.3z"/>
	<path d="M602,220l-0.1,1.6c0,0.6-0.1,1.4-0.3,2.3c0,1.6,0.1,3.1,0.3,4.4c-0.1,0.2-0.2,0.3-0.4,0.4c-0.2,0.1-0.4,0.1-0.6,0.1
		c-0.2,0-0.4-0.1-0.5-0.1c-0.1-0.1-0.2-0.2-0.3-0.3c0-0.1-0.1-0.2-0.1-0.3c0-0.1,0-0.2,0-0.4c0-0.2,0-0.3,0-0.3
		c-0.8,0.7-1.7,1-2.9,1s-1.9-0.5-2.4-1.4c-0.4-0.9-0.6-2.1-0.5-3.7c0.2-2.7,1-4.4,2.6-5.1c0.5-0.2,1.1-0.3,1.7-0.2
		c0.6,0,1.2,0.2,1.8,0.4c0.2-0.3,0.5-0.4,0.8-0.4c0.6,0,0.9,0.5,0.9,1.5C602,219.6,602,219.8,602,220z M599.4,225.3
		c0.3-0.8,0.5-1.7,0.6-2.7c0.1-1,0-1.7-0.2-2.1c-0.2-0.5-0.6-0.7-1.2-0.7c-0.2,0-0.6,0-0.9,0c-0.4,0-0.8,0.3-1.1,1
		c-0.4,0.6-0.6,1.1-0.6,1.6l-0.1,0.9c-0.1,1.6,0.2,2.6,0.8,3.1c0.2,0.1,0.4,0.2,0.8,0.2c0.3,0,0.7-0.1,1.1-0.4
		C599,226,599.3,225.7,599.4,225.3z"/>
	<path d="M612.2,230.6l-0.1,1.8c0,0.8-0.1,1.3-0.3,1.7c-0.4,0.8-0.8,1.3-1.3,1.6c-0.7,0.4-1.5,0.5-2.6,0.5s-2-0.4-2.9-1
		c-0.5-0.3-0.7-0.6-0.7-0.9c0-0.3,0.1-0.6,0.3-0.7s0.4-0.2,0.7-0.2c0.3,0,0.7,0.2,1.4,0.6c0.7,0.4,1.3,0.6,1.8,0.6
		c1.1,0.1,1.7-0.8,1.8-2.5c0.1-1.7,0.1-3,0.1-3.8c-0.6,0.6-1.3,0.9-2.1,0.8s-1.5-0.3-2.1-0.9c-1.2-1-1.8-2.6-1.7-4.6
		c0.1-2,0.9-3.5,2.4-4.4c0.8-0.5,1.6-0.7,2.6-0.6c1.3,0.1,2.1,0.7,2.5,2c0.3,1,0.4,2.3,0.4,3.8c0,0.3,0,0.8-0.1,1.5
		c0,0.7-0.1,1.4-0.1,2c0,0.7,0,1.2,0,1.7C612.3,229.9,612.3,230.3,612.2,230.6z M610.7,224.6c0.2-2.9-0.5-4.3-1.9-4.4
		c-0.7,0-1.2,0.3-1.7,0.9c-0.5,0.6-0.7,1.4-0.8,2.4c-0.1,1,0.1,1.7,0.5,2.4s1,1,1.8,1c0.9,0,1.4-0.1,1.6-0.5
		C610.5,225.9,610.6,225.3,610.7,224.6z"/>
	<path d="M620.8,219.7c0.7,0.5,1.1,1.1,1,1.8c0,0.7-0.4,1.3-1.2,2c-0.7,0.6-1.6,1-2.6,1.1c-0.1,0-0.2,0-0.2,0c-0.1,0-0.1,0-0.2,0
		c-0.1,0-0.2,0-0.2,0s-0.1,0-0.2,0c-0.1,0-0.2,0-0.2,0c0,0-0.1,0-0.3,0c-0.1,0-0.2,0-0.2,0c0.1,1.2,0.3,2,0.6,2.4
		c0.4,0.4,0.8,0.6,1.1,0.6c0.8,0,1.5-0.2,2.2-0.8c0.7-0.6,1.2-0.9,1.5-0.9c0.1,0,0.3,0.1,0.5,0.4c0.2,0.2,0.4,0.5,0.3,0.7
		c0,0.2-0.2,0.5-0.5,0.8c-0.3,0.3-0.7,0.6-1.1,0.9c-0.4,0.3-0.9,0.6-1.6,0.8c-0.6,0.2-1.2,0.3-1.7,0.3c-0.5,0-1-0.2-1.3-0.4
		c-0.7-0.5-1.2-1.3-1.5-2.3c-0.3-1.1-0.4-2.2-0.4-3.3c0.1-1.2,0.4-2.2,0.9-3.1c0.6-1,1.6-1.5,3-1.4
		C619.3,219,620.1,219.2,620.8,219.7z M619.8,221.5c0-0.6-0.4-1-1.2-1c-0.6,0-1.1,0.3-1.5,0.9c-0.1,0.2-0.3,0.4-0.3,0.7
		c-0.1,0.3-0.1,0.5-0.2,0.8C618.7,223,619.8,222.6,619.8,221.5z"/>
	<path d="M624.2,227.9c0-0.2,0.1-0.5,0.3-0.7c0.2-0.2,0.5-0.3,0.9-0.3c0.4,0,0.6,0.1,0.8,0.2c0.2,0.1,0.2,0.4,0.2,0.9
		c0,0.5-0.2,0.8-0.4,0.9c-0.2,0.1-0.5,0.2-0.7,0.2c-0.3,0-0.6-0.2-0.8-0.5C624.3,228.4,624.2,228.1,624.2,227.9z M626.9,214.2
		l-0.6,7.8c0,0.7-0.1,1.3-0.1,1.6c-0.1,0.2-0.2,0.4-0.4,0.5c-0.2,0.1-0.4,0.2-0.6,0.2c-0.2,0-0.4-0.2-0.5-0.5c0-3.8,0-7.1,0.2-9.7
		c0.1-0.2,0.3-0.3,0.5-0.4c0.3-0.1,0.5-0.1,0.6-0.1C626.6,213.6,626.8,213.8,626.9,214.2z"/>
</g>
<g>
	<g>
		<ellipse class="st1" cx="420.5" cy="384.2" rx="71.7" ry="12.1"/>
		<ellipse class="st3" cx="420.5" cy="384.2" rx="70.6" ry="11.9"/>
		<ellipse class="st4" cx="420.5" cy="384.2" rx="69.5" ry="11.7"/>
		<ellipse class="st5" cx="420.5" cy="384.2" rx="68.4" ry="11.6"/>
		<ellipse class="st6" cx="420.5" cy="384.2" rx="67.3" ry="11.4"/>
		<ellipse class="st7" cx="420.5" cy="384.2" rx="66.2" ry="11.2"/>
		<ellipse class="st8" cx="420.5" cy="384.2" rx="65" ry="11"/>
		<ellipse class="st9" cx="420.5" cy="384.2" rx="63.9" ry="10.8"/>
		<ellipse class="st10" cx="420.5" cy="384.2" rx="62.8" ry="10.6"/>
		<ellipse class="st11" cx="420.5" cy="384.2" rx="61.7" ry="10.4"/>
		<ellipse class="st12" cx="420.5" cy="384.2" rx="60.6" ry="10.2"/>
		<ellipse class="st13" cx="420.5" cy="384.2" rx="59.5" ry="10.1"/>
		<ellipse class="st14" cx="420.5" cy="384.2" rx="58.4" ry="9.9"/>
		<ellipse class="st15" cx="420.5" cy="384.2" rx="57.3" ry="9.7"/>
		<ellipse class="st16" cx="420.5" cy="384.2" rx="56.1" ry="9.5"/>
		<ellipse class="st17" cx="420.5" cy="384.2" rx="55" ry="9.3"/>
		<ellipse class="st18" cx="420.5" cy="384.2" rx="53.9" ry="9.1"/>
		<ellipse class="st19" cx="420.5" cy="384.2" rx="52.8" ry="8.9"/>
		<ellipse class="st20" cx="420.5" cy="384.2" rx="51.7" ry="8.7"/>
		<ellipse class="st21" cx="420.5" cy="384.2" rx="50.6" ry="8.5"/>
		<ellipse class="st22" cx="420.5" cy="384.2" rx="49.5" ry="8.4"/>
		<ellipse class="st23" cx="420.5" cy="384.2" rx="48.4" ry="8.2"/>
		<ellipse class="st24" cx="420.5" cy="384.2" rx="47.2" ry="8"/>
		<ellipse class="st25" cx="420.5" cy="384.2" rx="46.1" ry="7.8"/>
		<ellipse class="st26" cx="420.5" cy="384.2" rx="45" ry="7.6"/>
		<ellipse class="st27" cx="420.5" cy="384.2" rx="43.9" ry="7.4"/>
		<ellipse class="st28" cx="420.5" cy="384.2" rx="42.8" ry="7.2"/>
		<ellipse class="st29" cx="420.5" cy="384.2" rx="41.7" ry="7"/>
		<ellipse class="st30" cx="420.5" cy="384.2" rx="40.6" ry="6.9"/>
		<ellipse class="st31" cx="420.5" cy="384.2" rx="39.5" ry="6.7"/>
		<ellipse class="st32" cx="420.5" cy="384.2" rx="38.3" ry="6.5"/>
		<ellipse class="st33" cx="420.5" cy="384.2" rx="37.2" ry="6.3"/>
		<ellipse class="st34" cx="420.5" cy="384.2" rx="36.1" ry="6.1"/>
		<ellipse class="st35" cx="420.5" cy="384.2" rx="35" ry="5.9"/>
		<ellipse class="st36" cx="420.5" cy="384.2" rx="33.9" ry="5.7"/>
		<ellipse class="st37" cx="420.5" cy="384.2" rx="32.8" ry="5.5"/>
		<ellipse class="st38" cx="420.5" cy="384.2" rx="31.7" ry="5.4"/>
		<ellipse class="st39" cx="420.5" cy="384.2" rx="30.6" ry="5.2"/>
		<ellipse class="st40" cx="420.5" cy="384.2" rx="29.4" ry="5"/>
		<ellipse class="st41" cx="420.5" cy="384.2" rx="28.3" ry="4.8"/>
		<ellipse class="st42" cx="420.5" cy="384.2" rx="27.2" ry="4.6"/>
		<ellipse class="st43" cx="420.5" cy="384.2" rx="26.1" ry="4.4"/>
		<ellipse class="st44" cx="420.5" cy="384.2" rx="25" ry="4.2"/>
		<ellipse class="st45" cx="420.5" cy="384.2" rx="23.9" ry="4"/>
		<ellipse class="st46" cx="420.5" cy="384.2" rx="22.8" ry="3.8"/>
		<ellipse class="st47" cx="420.5" cy="384.2" rx="21.7" ry="3.7"/>
		<ellipse class="st48" cx="420.5" cy="384.2" rx="20.5" ry="3.5"/>
		<ellipse class="st49" cx="420.5" cy="384.2" rx="19.4" ry="3.3"/>
		<ellipse class="st50" cx="420.5" cy="384.2" rx="18.3" ry="3.1"/>
		<ellipse class="st51" cx="420.5" cy="384.2" rx="17.2" ry="2.9"/>
		<ellipse class="st52" cx="420.5" cy="384.2" rx="16.1" ry="2.7"/>
		<ellipse class="st53" cx="420.5" cy="384.2" rx="15" ry="2.5"/>
	</g>
	<g>
		<path class="st54" d="M403.2,341.6c0,0-1.4,11-3.3,15.3c-1.9,4.3-6,9.2-6.3,11.1c-0.2,1.5-0.2,4,2.2,4.3c2.9,0.4,5.4-1.9,5.4-1.9
			s1.4,2.5,4.3,2.5c1.9,0,2.3-2.3,2.3-2.3s0.8,2.1,3.4,2.1c2.6,0,2.9-2,2.9-2s1.1,1.5,3,0.4c1.8-1,2-4.8,0.2-8
			c-1.8-3.2-4.9-4.8-8.1-4.1c-3.6,0.8-5.5,5.9-8.2,5.5c-1.2-0.2,3.9-7.1,4.8-10c0.8-2.5,1.8-11.7,1.8-11.7L403.2,341.6z"/>
		<path class="st54" d="M438.9,341.9c0,0,0.7,9.3-0.7,14.3c-1.3,4.7-4.3,7.9-5.5,10.2c-0.8,1.4-1.2,4.1,1.3,4.4
			c3.1,0.4,6.4-0.8,6.4-0.8s1.5,2.6,4.5,2.6c2,0,2.5-2.4,2.5-2.4s0.8,2.2,3.6,2.2c2.7,0,3-2.1,3-2.1s1.2,1.5,3.2,0.4
			c1.9-1.1,2.6-3.9,0.8-7.3c-1.9-3.4-4.9-5.7-8.3-4.9c-3.8,0.9-6.6,5.7-9.5,5.2c-1.3-0.2,2.4-5.3,3.2-9.2c0.5-2.8,0-11.2,0-11.2
			L438.9,341.9z"/>
		<path class="st55" d="M385.3,348.6c0,0-1.7,13.3-4,18.4c-2.3,5.2-7.3,11.1-7.6,13.4c-0.2,1.8-0.2,4.8,2.6,5.2
			c3.5,0.5,6.5-2.3,6.5-2.3s1.7,3,5.1,3c2.3,0,2.8-2.8,2.8-2.8s1,2.5,4.1,2.5c3.1,0,3.5-2.4,3.5-2.4s1.3,1.8,3.6,0.5
			c2.2-1.2,2.4-5.8,0.3-9.7c-2.1-3.9-6-5.9-9.8-5c-4.4,1-6.6,7.2-10,6.6c-1.5-0.2,4.7-8.6,5.7-12.1c1-3.1,2.2-14.1,2.2-14.1
			L385.3,348.6z"/>
		<path class="st54" d="M395,374.1c0,0,3.2,2.4,3.9,5.4c0.6,2.5,0,4.6,0,4.6l-0.4-0.4c0,0,0.5-2.9-0.3-4.9
			C397.3,376.7,395,374.1,395,374.1z"/>
		<path class="st54" d="M391.3,384.2c0,0,0.2-2.8-0.3-4.2c-0.5-1.4-2.4-2.7-2.4-2.7s1.5,1.8,1.8,3.1c0.4,1.3,0.5,3.2,0.5,3.2
			L391.3,384.2z"/>
		<path class="st54" d="M383.5,379.4c0,0,0.3,1.3,0.2,2.5c0,0.8-0.3,2.1-0.3,2.1l-0.5-0.7c0,0,0.3-0.9,0.4-1.6
			C383.4,381,383.5,379.4,383.5,379.4z"/>
		<path class="st56" d="M477.3,333.5c0,0,0.5-1.2-2.1-3.3c-2.3-1.8-6.4-5.2-8.3-7.6c-2.4-3.1-5.6-12-5.6-12l-10.5-3.1l-1,21.2
			l25,7.3L477.3,333.5z"/>
		<path class="st55" d="M423.5,349.1c0,0,0.8,11.2-0.8,17.3c-1.6,5.7-5.1,9.6-6.6,12.3c-0.9,1.7-1.4,4.9,1.6,5.3
			c3.8,0.5,7.7-0.9,7.7-0.9s1.8,3.2,5.4,3.2c2.4,0,3-2.9,3-2.9s1,2.7,4.3,2.7c3.3,0,3.7-2.6,3.7-2.6s1.4,1.9,3.8,0.5
			c2.3-1.3,3.2-4.7,1-8.8c-2.2-4.1-6-6.9-10-6c-4.6,1.1-8,6.8-11.5,6.3c-1.6-0.2,2.9-6.4,3.9-11.1c0.7-3.3,0-13.5,0-13.5
			L423.5,349.1z"/>
		<path class="st54" d="M439.3,374.4c0,0,2.2,1.5,2.9,4.6c0.7,2.7,0,4.9,0,4.9l-0.4-0.4c0,0,0.6-3.1-0.4-5.2
			C440.5,376.2,439.3,374.4,439.3,374.4z"/>
		<path class="st54" d="M434.2,384.1c0,0,0.2-3-0.3-4.5c-0.5-1.5-1.8-2.9-1.8-2.9s0.8,1.9,1.2,3.3c0.4,1.3,0.5,3.4,0.5,3.4
			L434.2,384.1z"/>
		<path class="st54" d="M426,379c0,0,0.3,1.4,0.3,2.7c0,0.9-0.3,2.2-0.3,2.2l-0.6-0.8c0,0,0.4-0.9,0.4-1.7
			C425.9,380.7,426,379,426,379z"/>
		<path class="st57" d="M448.2,256.9c0,0,8.7-11.2,12.7-8.2c3.9,3.1,1,11.8,1,11.8l-11.5,5.5l-3.6-5.2L448.2,256.9z"/>
		<path class="st58" d="M364.1,300.8c0,0-10.2-7.8-19.7-23.1c-7.9-12.7-10.8-28.8-13.5-28.8c-2.7,0-12.9,14.7-7.4,30.3
			c3.7,10.4,19,10,19.2,11.7c0.2,1.7-8.1,1.9-14,0.4c-2.3-0.6,2.5,7.3,10.5,7.5c4.8,0.1,10.1-2.1,10.9-1.2
			c0.8,0.9-11.5,5.1-10.5,6.6c1,1.6,4.1,2.6,11.1,2.1c7.9-0.5,11.8-3.2,11.8-3.2L364.1,300.8z"/>
		<path class="st59" d="M467.9,279.4c0,0,5.4,0.4,10.3-1.2c4.9-1.6,10.9-4.7,10.9-4.7l14.9,13.2c0,0-11.3,31.6-24.5,32.8
			c-13.2,1.2-25.6-9.3-25.6-9.3s-2.5,12.4,5.4,18.6c5.3,4.1,10.7,5.1,14,5.2c2,0.1,3.9-0.6,3.9-0.6c-0.5,4.4-7.2,7.7-12.8,8.8
			c-5.6,1.2-11.5-0.4-12.2,0c-0.8,0.4-6.6,12.8-27.2,14.6c-20.6,1.7-39-4-50.7-16.8c-9.9-10.9-16-37.9-14.3-41.2
			c1.7-3.3,10.6-2.6,21.6-6.3c11.1-3.7,18.3-7.7,18.4-8.8c0.1-1.2-5.4-3.1-11.4-4.8c-1.4-0.4,2.4-3,8.1-2.2c4.2,0.6,9.1,3.5,9.8,2.8
			c0.7-0.7-6.1-5.8-11.8-10.6c-0.3-0.2,5.3-1.7,11.4,1.2c3.2,1.6,6.8,5,7.8,4.7c2.4-0.7-4.6-10.2-10.6-14.9c-1.2-1,4.8-2.3,11.7,1.9
			c4.2,2.5,5.8,7.5,7.2,7.5c1.4,0,12.2-18.9,20.2-19.5c8.3-0.6,7.7,12.9,7.7,12.9L467.9,279.4z"/>
		<circle class="st60" cx="460.1" cy="269.3" r="11.5"/>
		<circle cx="465.6" cy="267.7" r="2.6"/>
		<circle class="st1" cx="446.3" cy="276.1" r="13.8"/>
		<circle cx="452.9" cy="274.2" r="3.1"/>
		<path class="st59" d="M444.4,293.3c0,0-1-3.9,4.1-9.2c5.1-5.4,20.1-10.7,22.1-9.9c2,0.8,0.8,5.2,0.8,5.2L444.4,293.3z"/>
		<path class="st55" d="M449.5,302.5c0,0-6.5,2.2-8.3,7.2c-2.9,7.8-0.2,10.9,0.8,10.9c1,0-1.5-5.1,0.3-10.3
			C444.2,304.6,449.5,302.5,449.5,302.5z"/>
		<path class="st61" d="M424.6,269.7c0,0-13.1-26.5-12.7-31.5c0.5-4.9,16.9-14.7,20-12.8c3.2,1.9,4.8,7.7,2.7,9.9
			c-2,2.2-16.6,1.5-17.3,3.5c-0.7,2,8.6,28.2,8.6,28.2L424.6,269.7z"/>
		<path d="M441.4,252.7c0,0,6.3-27.8,9.7-29.5c3.4-1.7,19.6,4.4,19.6,8c0,3.6-3.7,8.2-5.7,8.2c-2,0-10-11.2-12.1-10.5
			c-2,0.7-10,23.9-10,23.9H441.4z"/>
		<ellipse transform="matrix(0.3755 -0.9268 0.9268 0.3755 57.8645 634.0834)" cx="499.5" cy="274.1" rx="17.5" ry="18"/>
		
			<ellipse transform="matrix(0.3756 -0.9268 0.9268 0.3756 67.9648 631.9398)" class="st61" cx="502.9" cy="265.5" rx="4.2" ry="8.7"/>
		<path class="st62" d="M486.6,324.8c0,0,14.9-6.2,16.7-3.1C505,324.8,486.6,324.8,486.6,324.8z"/>
		<path class="st62" d="M484,330.4c0,0,20.9,5.8,19.3,9.5C501.8,343.6,484,330.4,484,330.4z"/>
		<path class="st62" d="M480.4,336.3c0,0,12.8,11.1,9.5,14C486.6,353.2,480.4,336.3,480.4,336.3z"/>
		<path class="st63" d="M351.9,273.7c0,0-8.7-13.8-5.6-15.1C349.3,257.2,351.9,273.7,351.9,273.7z"/>
		<path class="st63" d="M357.1,273.8c0,0-1.4-12.6,1.7-12.1C362,262.1,357.1,273.8,357.1,273.8z"/>
	</g>
	<g>
		<circle class="st57" cx="459.8" cy="269.3" r="11.7"/>
		<path class="st64" d="M469.3,262.9l1,1.1c0,0-5.5,1.2-10.6,3.8c-3.9,2-7.5,4.9-9,7.9l-0.8-1C449.9,274.7,453.4,265.5,469.3,262.9z
			"/>
		<circle class="st65" cx="446.4" cy="275.9" r="14.3"/>
		<path class="st64" d="M457.5,267.2l1.3,1.3c0,0-6.7,1.8-13,5.4c-4.7,2.7-9.1,6.6-10.8,10.4l-1-1.2
			C434,283,437.7,271.4,457.5,267.2z"/>
		<path class="st59" d="M470.7,274.6c-1.3-1-2.7-1-2.7-1s-10.3,1.4-14,3.9c-5.7,3.9-5.1,10.4-4.7,11.3c0.4,1,9.7,3.8,11.9,0
			c3-5,11.1-10.2,11.1-10.2S472.6,276.1,470.7,274.6z"/>
		<path class="st59" d="M428.3,291.3c0,0,1.4-4,5.3-5.8c3.4-1.5,13.5,3.1,14.2,4.7C448.6,292.1,428.3,291.3,428.3,291.3z"/>
	</g>
</g>
</svg>
