<?xml version="1.0" encoding="utf-8"?>
<!-- Generator: Adobe Illustrator 21.0.0, SVG Export Plug-In . SVG Version: 6.00 Build 0)  -->
<svg version="1.1" id="dog-usertaken" xmlns="http://www.w3.org/2000/svg" xmlns:xlink="http://www.w3.org/1999/xlink" x="0px"
	 y="0px" viewBox="0 0 604.3 642.9" style="enable-background:new 0 0 604.3 642.9;" xml:space="preserve">
<g id="shadow">
	<g>
		<ellipse style="fill:#FFFFFF;" cx="342.6" cy="610.2" rx="165.5" ry="32.6"/>
		<ellipse style="fill:#FDFDFD;" cx="342.6" cy="610.2" rx="163" ry="32.1"/>
		<ellipse style="fill:#FBFBFB;" cx="342.6" cy="610.2" rx="160.4" ry="31.6"/>
		<ellipse style="fill:#F9F9F9;" cx="342.6" cy="610.2" rx="157.8" ry="31.1"/>
		<ellipse style="fill:#F7F7F7;" cx="342.6" cy="610.2" rx="155.3" ry="30.6"/>
		<ellipse style="fill:#F5F5F5;" cx="342.6" cy="610.2" rx="152.7" ry="30.1"/>
		<ellipse style="fill:#F3F3F3;" cx="342.6" cy="610.2" rx="150.1" ry="29.6"/>
		<ellipse style="fill:#F1F1F1;" cx="342.6" cy="610.2" rx="147.6" ry="29.1"/>
		<ellipse style="fill:#EFEFEF;" cx="342.6" cy="610.2" rx="145" ry="28.6"/>
		<ellipse style="fill:#EDEDED;" cx="342.6" cy="610.2" rx="142.4" ry="28.1"/>
		<ellipse style="fill:#EBEBEB;" cx="342.6" cy="610.2" rx="139.9" ry="27.6"/>
		<ellipse style="fill:#E9E9E9;" cx="342.6" cy="610.2" rx="137.3" ry="27.1"/>
		<ellipse style="fill:#E7E7E7;" cx="342.6" cy="610.2" rx="134.7" ry="26.6"/>
		<ellipse style="fill:#E5E5E4;" cx="342.6" cy="610.2" rx="132.2" ry="26.1"/>
		<ellipse style="fill:#E3E3E2;" cx="342.6" cy="610.2" rx="129.6" ry="25.6"/>
		<ellipse style="fill:#E1E1E0;" cx="342.6" cy="610.2" rx="127" ry="25"/>
		<ellipse style="fill:#DFDFDE;" cx="342.6" cy="610.2" rx="124.5" ry="24.5"/>
		<ellipse style="fill:#DDDDDC;" cx="342.6" cy="610.2" rx="121.9" ry="24"/>
		<ellipse style="fill:#DBDBDA;" cx="342.6" cy="610.2" rx="119.3" ry="23.5"/>
		<ellipse style="fill:#D9D9D8;" cx="342.6" cy="610.2" rx="116.8" ry="23"/>
		<ellipse style="fill:#D7D7D6;" cx="342.6" cy="610.2" rx="114.2" ry="22.5"/>
		<ellipse style="fill:#D5D5D4;" cx="342.6" cy="610.2" rx="111.6" ry="22"/>
		<ellipse style="fill:#D3D3D2;" cx="342.6" cy="610.2" rx="109" ry="21.5"/>
		<ellipse style="fill:#D1D1D0;" cx="342.6" cy="610.2" rx="106.5" ry="21"/>
		<ellipse style="fill:#CFCFCE;" cx="342.6" cy="610.2" rx="103.9" ry="20.5"/>
		<ellipse style="fill:#CDCDCC;" cx="342.6" cy="610.2" rx="101.3" ry="20"/>
		<ellipse style="fill:#CACACA;" cx="342.6" cy="610.2" rx="98.8" ry="19.5"/>
		<ellipse style="fill:#C8C8C8;" cx="342.6" cy="610.2" rx="96.2" ry="19"/>
		<ellipse style="fill:#C6C6C6;" cx="342.6" cy="610.2" rx="93.6" ry="18.5"/>
		<ellipse style="fill:#C4C4C4;" cx="342.6" cy="610.2" rx="91.1" ry="18"/>
		<ellipse style="fill:#C2C2C2;" cx="342.6" cy="610.2" rx="88.5" ry="17.5"/>
		<ellipse style="fill:#C0C0C0;" cx="342.6" cy="610.2" rx="85.9" ry="16.9"/>
		<ellipse style="fill:#BEBEBE;" cx="342.6" cy="610.2" rx="83.4" ry="16.4"/>
		<ellipse style="fill:#BCBCBC;" cx="342.6" cy="610.2" rx="80.8" ry="15.9"/>
		<ellipse style="fill:#BABABA;" cx="342.6" cy="610.2" rx="78.2" ry="15.4"/>
		<ellipse style="fill:#B8B8B8;" cx="342.6" cy="610.2" rx="75.7" ry="14.9"/>
		<ellipse style="fill:#B6B6B6;" cx="342.6" cy="610.2" rx="73.1" ry="14.4"/>
		<ellipse style="fill:#B4B4B4;" cx="342.6" cy="610.2" rx="70.5" ry="13.9"/>
		<ellipse style="fill:#B2B2B2;" cx="342.6" cy="610.2" rx="68" ry="13.4"/>
		<ellipse style="fill:#B0B0AF;" cx="342.6" cy="610.2" rx="65.4" ry="12.9"/>
		<ellipse style="fill:#AEAEAD;" cx="342.6" cy="610.2" rx="62.8" ry="12.4"/>
		<ellipse style="fill:#ACACAB;" cx="342.6" cy="610.2" rx="60.3" ry="11.9"/>
		<ellipse style="fill:#AAAAA9;" cx="342.6" cy="610.2" rx="57.7" ry="11.4"/>
		<ellipse style="fill:#A8A8A7;" cx="342.6" cy="610.2" rx="55.1" ry="10.9"/>
		<ellipse style="fill:#A6A6A5;" cx="342.6" cy="610.2" rx="52.6" ry="10.4"/>
		<ellipse style="fill:#A4A4A3;" cx="342.6" cy="610.2" rx="50" ry="9.9"/>
		<ellipse style="fill:#A2A2A1;" cx="342.6" cy="610.2" rx="47.4" ry="9.4"/>
		<ellipse style="fill:#A0A09F;" cx="342.6" cy="610.2" rx="44.9" ry="8.8"/>
		<ellipse style="fill:#9E9E9D;" cx="342.6" cy="610.2" rx="42.3" ry="8.3"/>
		<ellipse style="fill:#9C9C9B;" cx="342.6" cy="610.2" rx="39.7" ry="7.8"/>
		<ellipse style="fill:#9A9A99;" cx="342.6" cy="610.2" rx="37.2" ry="7.3"/>
		<ellipse style="fill:#989897;" cx="342.6" cy="610.2" rx="34.6" ry="6.8"/>
	</g>
</g>
<g id="text">
	<g>
		<path style="fill:#A7A8AC;" d="M564,23.7C551.8,0.7,537.2,0.1,519.2,2c-28,3-149.9,30.1-168.7,36.9c-14.9,5.4-22.1,18.4-23.5,39.6
			c-0.3,5.1-41.8,18.7-42.6,25.1c-0.9,7.8-2,16-2.6,23.4c-0.7,7.4,39.8,6.6,40.3,11c2,16.3,11.6,39.5,37.2,40.7
			c22.8,1.1,44.8-2.3,87.3-8.1c26.9-3.7,127.9-11.3,133.7-12.7c18.6-4.4,25.4-18.2,23.8-35.5C602.2,102.6,571.5,37.8,564,23.7z"/>
		<path style="fill:#FFFFFF;" d="M565.4,22.6c-12-22.7-28.1-23.9-45.8-22c-27.5,3-146.9,29.6-165.3,36.2
			c-14.6,5.4-21.7,18.2-23,39.2c-0.4,6-42,20.8-43,28.4c-0.9,7.1-1.7,14.4-2.3,20.9c-0.6,6.5,40,4.9,40.5,8.9
			c1.9,16.1,11.4,38.9,36.5,40.2c22.4,1.1,44-2.3,85.7-8c26.4-3.6,125.3-11.1,131-12.4c18.3-4.3,23.1-18.4,21.7-35.5
			C599.7,97.1,572.8,36.5,565.4,22.6z"/>
		<path style="fill:#FFFFFF;stroke:#B8D432;stroke-width:1.5;stroke-miterlimit:10;" d="M558.6,29.1c-11.3-21.3-26.4-22.5-43-20.7
			c-25.8,2.8-137,27.6-154.3,33.9c-13.7,5-20.4,17-21.7,36.7c-0.3,5.4-41.9,19-42.8,25.4c-0.8,5.8-1.6,11.7-2.2,17.2
			c-0.7,6.7,39.7,5.3,40.2,9.6c1.8,15.1,10.7,36.6,34.3,37.8c21,1,59-4.2,98.2-9.6c24.8-3.4,98.9-9.6,104.2-10.8
			c17.2-4,21.8-15.9,20.6-32C590.6,96.6,565.5,42.1,558.6,29.1z"/>
	</g>
	
		<text transform="matrix(0.9828 -0.1845 0.1845 0.9828 375.9966 92.2655)" style="font-family:'PatrickHand-Regular'; font-size:44.0812px;">How about </text>
	
		<text transform="matrix(0.9828 -0.1845 0.1845 0.9828 363.4089 141.7352)" style="font-family:'PatrickHand-Regular'; font-size:44.0812px;">one of these?</text>
	<g>
		<path style="fill:#A7A8AC;" d="M14.7,75.5C22.4,50.6,26,38.6,44,37.1c28.1-2.3,217.7,39,237.2,45c15.1,4.6,25.3,14.9,30.7,35.5
			c4.4,17,17.6,69.4,18.5,82.1c1.2,16.4,14.4,50.3-10.6,55.7c-9.5,2.1-35.5,4.9-40.5,5.2c-27.1,1.4-32.2,1.5-26,9.7
			c8.4,11.1,46.1,29,37.5,29.7c-27.4,2.2-57.8-3-77.2-9.3c-13.5-4.4-26.8-11.9-35.1-21.7c-21,2-142.4-2.7-148.2-2.9
			c-19.1-0.8-28.4-13-30.1-30.3C-1.7,215.8,10.1,90.7,14.7,75.5z"/>
		<path style="fill:#FFFFFF;" d="M13.1,73.7c7.5-24.6,12.5-37.4,30.2-38.9c27.6-2.3,215,39.2,233.8,45c14.9,4.5,24.9,14.8,30.1,35.1
			c4.4,16.8,17.3,68.3,18.2,80.7c1.1,16.1,14.4,49.4-10,55.1c-5.9,1.4-27.5,4.4-38.9,5c-26.6,1.3-31.5,1.5-25.4,9.5
			c8.3,10.9,45.3,28.9,36.8,29.3c-24.7,1-58.4-3.5-77.2-10.3c-13.5-4.9-24.9-10.7-33.1-20.3c-20.6,2-141.7-2.7-147.5-3
			c-18.7-0.8-26.1-13.7-28-30.8C-0.4,209,8.5,88.7,13.1,73.7z"/>
		<path style="fill:#FFFFFF;stroke:#B8D432;stroke-width:1.5;stroke-miterlimit:10;" d="M21,78.8c7.1-23.1,11-35.7,27.7-37.1
			c25.9-2.1,205.2,39.4,222.5,44.7c14,4.3,23.4,13.9,28.3,33.1c4.1,15.8,16.1,63.2,17,74.9c1.1,15.2,14.6,46.7-8.3,52.3
			c-6.2,1.5-23.5,4-51.5,5.8c-25,1.6-23.1,2.4-17.4,10c7.8,10.3,41,27.4,30.4,26.3c-18.4-2-37.5-4.9-56.8-12.1
			c-10.7-4-23.3-10.2-31-19.3c-19.3,1.9-139.5-2.9-144.9-3.1c-17.6-0.7-24.4-11.4-26.2-27.5C8.5,206.8,16.7,92.9,21,78.8z"/>
	</g>
	
		<text transform="matrix(0.991 3.924566e-03 -3.960008e-03 1 42.3046 124.7071)" style="font-family:'PatrickHand-Regular'; font-size:44.0828px;">This username </text>
	
		<text transform="matrix(0.991 3.924566e-03 -3.960008e-03 1 70.8597 171.1212)" style="font-family:'PatrickHand-Regular'; font-size:44.0828px;">is taken by </text>
	
		<text transform="matrix(0.991 3.924566e-03 -3.960008e-03 1 52.1448 217.3476)" style="font-family:'PatrickHand-Regular'; font-size:44.0828px;">someone else!</text>
</g>
<g id="dog">
	<path id="hand2" style="fill:#B56F29;" d="M412.5,452.5c0,0,38.5,31.3,42,33c7,3.3,12.9-9.6,19.5-5.6c4.6,2.8,9.2,12.1,5.3,15.9
		c-4.8,4.6-17.3-3.4-18.3,2.3c-1,5.7,13.2,2,16.9,7.7c3.2,5.1-3.4,16.4-10.8,13.4c-7.3-2.9-8.6-16.4-11.7-15.8s2.7,12,0.3,15.9
		c-3.1,5.1-10.3,7.5-15.9-0.4c-6.2-8.7,7.2-17.7,4.2-22c-2.9-4.2-34.7-37.3-34.7-37.3L412.5,452.5z"/>
	<g id="leg2">
		<path style="fill:#B56F29;" d="M283.6,532.4c0,0,2.4,21.6,0.7,34.3s-7.9,27.8-8.6,33c-0.5,4.3,1.3,11.4,7.9,12.2
			c8.2,1.1,15.1-5.3,15.1-5.3s4,6.9,11.8,6.9c5.3,0,6.5-6.4,6.5-6.4s2.2,5.8,9.5,5.9c7.1,0,8-5.6,8-5.6s3,4.1,8.4,1.1
			c5.1-2.8,5.5-13.4,0.6-22.3c-4.9-8.9-13.7-13.5-22.5-11.5c-10.1,2.3-15.3,16.5-23,15.3c-3.4-0.5,0.6-16.2,0.6-23.7
			c0-7.4-3.2-30.1-3.2-30.1L283.6,532.4z"/>
		<path style="fill:#754D24;" d="M326.5,585.3c0,0,7.3,5.5,9,12.4c1.5,5.8,0,10.6,0,10.6l-1-0.9c0,0,1.2-6.8-0.8-11.3
			C331.8,591.5,326.5,585.3,326.5,585.3z"/>
		<path style="fill:#754D24;" d="M317.9,608.7c0,0,0.5-6.5-0.7-9.8s-5.6-6.3-5.6-6.3s3.4,4.2,4.2,7.2c0.8,2.9,1.2,7.3,1.2,7.3
			L317.9,608.7z"/>
	</g>
	<g id="leg1">
		<path style="fill:#B56F29;" d="M364.7,531.4c0,0,3,24.9,1.4,37s-5.7,19.4-6.3,24.3c-0.5,4-3,10.3,3.3,11.1c7.8,1,16-2,16-2
			s3.8,6.6,11.2,6.6c5.1,0,6.2-6,6.2-6s2.1,5.5,9,5.6c6.8,0,7.6-5.3,7.6-5.3s2.9,3.9,8,1.1c4.8-2.6,6.6-9.8,2-18.3
			s-12.4-14.3-20.7-12.3c-9.6,2.2-16.6,14.2-23.8,13c-3.2-0.5,0.6-14.8,0.6-21.9c0-7.1-3-29.2-3-29.2L364.7,531.4z"/>
		<path style="fill:#754D24;" d="M407.9,583.7c0,0,4.5,3,6.1,9.6c1.4,5.5,0,10.1,0,10.1l-0.9-0.9c0,0,1.2-6.5-0.7-10.8
			C410.5,587.4,407.9,583.7,407.9,583.7z"/>
		<path style="fill:#754D24;" d="M397.3,603.7c0,0,0.5-6.2-0.6-9.3s-3.8-5.9-3.8-5.9s1.6,4,2.4,6.8s1.1,7,1.1,7L397.3,603.7z"/>
	</g>
	<path id="ear2" d="M401.9,271.5c0,0-2.5-58.7,3.3-64.9c5.9-6.2,64-13.7,64.6,7.1s-6,25.8-10.6,25.5s-41-20.5-43-18.3
		s-9.4,50.7-9.4,50.7h-4.9V271.5z"/>
	<path id="ear1" d="M363.3,298.5c0,0-27.7-57.1-26.5-65.5s44-35.6,50.1-28.8c6,6.8,9.6,20.4,5.1,26.6c-4.5,6.2-36.8,1.6-37.9,6.5
		s12.5,57.7,12.5,57.7L363.3,298.5z"/>
	<path id="tail" style="fill:#1A1A1A;" d="M253.2,503.9l-2.9-12.1c0,0-34.5,13.9-65.9,5.3c-27.3-7.5-45.1-36.3-51.4-36
		c-6.3,0.3-15.4,28.7,0,48.3s42.2,13.9,42.8,16s-18.1,11.5-16.6,13.9s17.1,3.2,28.3-2.1c13.1-6.2,18.8-16.3,20.9-14.8
		c2.1,1.5-13.3,18.8-10.6,20.9c2.7,2,14.5-3.1,19.9-9.4c6.6-7.7,9.4-16.6,10.6-16.6c1.2,0-0.3,10.9,1.5,11.2s9.1-4,17.3-12.8
		C251.6,510.7,253.2,503.9,253.2,503.9z"/>
	<g id="body">
		<path style="fill:#D18029;" d="M426.8,279.6c0,0,18.9-18.9,32.8-15.6c15.7,3.7,10.8,21.8,10.8,21.8l-44.6,11.5L426.8,279.6z"/>
		<path style="fill:#F69220;" d="M428.9,434.9c0,0-7.6,10.4-7.3,22.5c0.3,12.1,10.1,39.4-10.3,66c-18.5,24.1-69.4,41.2-108.6,26.1
			c-39.2-15.1-60.9-35-64.5-67.6s68.2-125.5,67.9-130.3c-0.3-4.8-15.7-1.1-25.1,4.2c-1.9,1,1.2-12.2,12.4-20.5
			c10.2-7.6,22.2-6.6,22.2-9c0-5.4-18.9-2.3-34.2,2.3c-2.6,0.8,5.4-15.7,21.9-21.1c18-5.9,29.5,3,30.3,0.8
			c1.5-4.5-12.8-18.1-30.7-18.4c-3-0.1,15.4-13.6,36.8-6.6c12.1,3.9,17.2,18.4,18.7,18.4s24.4-36,49.7-37.4
			c27.6-1.6,22.7,26,22.7,26l36.5,33.7l2.1,10.3c0,0,9.2,10.6,16.9,15.1c9.4,5.4,27.8,7.5,27.8,7.5l3.9,57.6
			c0,0-17.5,30.3-49.4,33.4C443.5,450.1,428.9,434.9,428.9,434.9z"/>
	</g>
	<g id="eyesopen">
		<circle style="fill:#CBCBCA;" cx="458" cy="304.3" r="24.6"/>
		<circle cx="462" cy="313.9" r="5.4"/>
		<path style="fill:#FFFFFF;" d="M443.1,315.8c0,18-14.6,32.6-32.6,32.6s-32.6-14.6-32.6-32.6s14.6-32.6,32.6-32.6
			C428.5,283.2,443.1,297.8,443.1,315.8z"/>
		<circle cx="430.7" cy="320.6" r="8.1"/>
		<path style="fill:#F69220;" d="M409.3,356.3c0,0,0.4-9.4,6.7-17.3c9.6-12,44.7-22.3,50.5-18.4c4.4,3,4.3,12.5,3.3,14.3
			C468.8,336.6,409.3,356.3,409.3,356.3z"/>
	</g>
	<g id="eyesclosed" style="display:none;">
		<circle style="display:inline;fill:#E48525;" cx="458" cy="304.3" r="24.6"/>
		<path style="display:inline;fill:#603A17;" d="M482.4,307.8l-0.6,3c0,0-9-1.4-21.5,1.4c-9.4,2.1-19.1,7.4-24,13l-1.1-2.6
			C435.2,322.5,446.7,304.5,482.4,307.8z"/>
		<path style="display:inline;fill:#E48525;" d="M443.1,315.8c0,18-14.6,32.6-32.6,32.6s-32.6-14.6-32.6-32.6s14.6-32.6,32.6-32.6
			C428.5,283.2,443.1,297.8,443.1,315.8z"/>
		<path style="display:inline;fill:#603A17;" d="M443.1,315.6c0,0,0.2,2.4,0.2,1.7c0.1-0.7-0.4,1.6-0.4,1.6s-14.3-1.1-29.7,3
			c-11.7,3.1-21.6,7.9-27.3,15.2l-2.1-2.6C383.9,334.5,398.7,312.4,443.1,315.6z"/>
		<path style="display:inline;fill:#F69220;" d="M409.3,356.3c0,0,0.4-9.4,6.7-17.3c9.6-12,44.7-22.3,50.5-18.4
			c4.4,3,4.3,12.5,3.3,14.3C468.8,336.6,409.3,356.3,409.3,356.3z"/>
	</g>
	<g id="nose">
		<ellipse cx="526" cy="388.4" rx="41" ry="43.4"/>
		<path style="fill:#343433;" d="M535.5,359.7c2.5,4.7-3,12.5-12.3,17.4s-18.8,5.1-21.3,0.4s3-12.5,12.3-17.4
			C523.4,355.1,533,355,535.5,359.7z"/>
	</g>
	<g>
		<path d="M404.3,418c-0.6,0-1.3-0.2-1.7-0.7c-0.1-0.1-6.7-7-15.5-13.2c-7-5-17.1-9.4-17.2-9.4c-1.2-0.5-1.8-2-1.2-3.2
			c0.5-1.2,2-1.8,3.2-1.2c0.4,0.2,10.5,5.1,17.6,10.8C398.6,408.3,404.9,418,404.3,418L404.3,418z"/>
	</g>
	<path id="hand2_1_" style="fill:#B56F29;" d="M295.8,409.6c0,0-14.4,21.6-15.1,35.5c-0.6,12.5,4.2,22.6,3,26.2s-13-0.7-18.4,5.1
		c-4.4,4.7-4.8,18.1,4.2,17.7c9.4-0.4,11.8-14.4,16.3-11.7c4.5,2.7-4.7,11.2-3.3,17.8c1.7,8.3,12.2,13,17.1,4.5
		c3.8-6.6-4.7-16.6-2.3-17.8c2.4-1.2,7.2,10.2,13.9,12.7c7.5,2.7,12.3-4.6,9.9-13.7c-2.4-9-15.4-4.1-20.6-11.4
		c-4.9-6.8-7.1-16.3-5-30.6c2.2-15.3,10.5-30.5,10.5-30.5L295.8,409.6z"/>
	<ellipse id="belly" style="fill:#754D24;" cx="366.2" cy="534.4" rx="4.6" ry="4.3"/>
	<path style="fill:#F69220;" d="M378,349.9c0,0,3.2-9,11.7-12.9c7.5-3.4,30,6.8,31.6,10.5C423.1,351.9,378,349.9,378,349.9z"/>
</g>
</svg>
