<?xml version="1.0" encoding="utf-8"?>
<!-- Generator: Adobe Illustrator 21.0.0, SVG Export Plug-In . SVG Version: 6.00 Build 0)  -->
<svg version="1.1" xmlns="http://www.w3.org/2000/svg" xmlns:xlink="http://www.w3.org/1999/xlink" x="0px" y="0px"
	 viewBox="0 0 592.1 490.1" style="enable-background:new 0 0 592.1 490.1;" xml:space="preserve">
<style type="text/css">
	.Drop_x0020_Shadow{fill:none;}
	.Outer_x0020_Glow_x0020_5_x0020_pt{fill:none;}
	.Blue_x0020_Neon{fill:none;stroke:#8AACDA;stroke-width:7;stroke-linecap:round;stroke-linejoin:round;}
	.Chrome_x0020_Highlight{fill:url(#SVGID_1_);stroke:#FFFFFF;stroke-width:0.3629;stroke-miterlimit:1;}
	.Jive_GS{fill:#FFDD00;}
	.Alyssa_GS{fill:#A6D0E4;}
	.st0{fill:#F69220;}
	.st1{fill:#1A1A1A;}
	.st2{fill:#B56F29;}
	.st3{fill:#754D24;}
	.st4{fill:#D18029;}
	.st5{fill:#C49A6C;}
	.st6{fill:#62C4B6;}
	.st7{fill:#B3B2B3;}
	.st8{fill:#CDCCCB;}
	.st9{fill:#E5E5E5;}
	.st10{fill:#989897;}
	.st11{fill:#FFFFFF;}
	.st12{fill:#603A17;}
	.st13{fill:#343433;}
	.st14{fill:#DC2626;}
	.st15{fill:#B22025;}
</style>
<linearGradient id="SVGID_1_" gradientUnits="userSpaceOnUse" x1="-68.9391" y1="-194.7905" x2="-68.9391" y2="-195.7905">
	<stop  offset="0" style="stop-color:#656565"/>
	<stop  offset="0.618" style="stop-color:#1B1B1B"/>
	<stop  offset="0.6292" style="stop-color:#545454"/>
	<stop  offset="0.9831" style="stop-color:#3E3E3E"/>
</linearGradient>
<g id="svg-text-tryagain">
	<path d="M395.1,428.7c-0.3,0-0.6,0-0.8,0c-9.1-0.4-14-8.4-14-16v-81.5c-0.4-6.5-2-35.9-2-39.1c0-5.3,3.2-10.3,9.5-14.7
		c2.3-1.6,5.3-2.4,9.6-2.4c4.1,0,8.6,0.7,10.2,0.9c2.7,0.2,7.7,1.5,10,8.1c15.5-6.9,26.4-10.2,34-10.2h8.2
		c23.9,0,40.6,18.1,42.7,46.2c0,0.1,0,0.2,0,0.3c1.4,41.9-17.2,84-46.2,104.8c-1.1,0.8-5.1,3.5-10.7,3.5c-2.5,0-5-0.6-7.2-1.7
		c-4.4-2.1-6.3-5.4-7.1-7.8c-1.7-5.1,0.5-9.6,0.9-10.4c0.1-0.2,0.3-0.5,0.4-0.7c22.2-33.4,33.4-59.5,33.4-77.3
		c0-9-7.2-18.6-18.9-18.6c-0.4,0-0.8,0-1.2,0c-14.9,0.8-25.4,8.2-26.9,14.8c-1.9,8.3-3,41.6-3.6,61.6c-0.3,10.2-0.6,17.6-0.8,20.6
		c0,0.5-0.1,0.9-0.2,1.3C411.4,421.7,404,428.7,395.1,428.7z"/>
	<path d="M147.3,211.7c-1.6,0-3.2-0.2-4.8-0.6c-6.5-1.6-9.2-7.7-9.7-9c-0.3-0.8-0.5-1.6-0.5-2.4c0-0.3-1.9-30.4-3.5-60.4
		c-3.5-62.8-3.1-63.6-1.8-66.2c2-4,6-7,11.4-8.3l0.5-0.1c1-0.3,2.3-0.6,3.8-0.6c1.7,0,3.4,0.4,5.2,1.2c1.7,0.8,3,2.1,4.7,3.7
		c0.2,0.2,0.4,0.3,0.6,0.5c4-2.2,10.9-5.8,21.8-8.8c2.6-0.7,5.2-1.1,7.8-1.1c17.6,0,33,16.5,33,35.4v24.5c0,10-6.2,21.8-16.5,24.2
		c-3.1,0.7-5.6,1.2-8.1,1.2c-2.7,0-5.1-0.6-7.6-1.9c-0.9-0.4-8.5-4.5-10.2-10.3c-0.7-2.4-0.4-4.9,0.8-6.9c0.4-0.7,0.9-1.3,1.4-1.8
		c7.1-6.7,7.7-8.7,7.7-19.7c-0.9-3.1-1.7-4.9-2.6-5.8c-1.4-1.3-4.8-1.5-7.4-1.5l-0.3,0c-7.4,0.1-12.4,11.6-12.5,22.4
		c0.2,2.5,1.4,20.6,2.4,38.7c2.4,41.1,2,42.2,1,44.4c-2.3,5.3-7.9,8-12,8.8l-0.1,0C150.7,211.5,149.2,211.7,147.3,211.7z"/>
	<path d="M244.3,272.3c-2,0-3.8-0.1-3.9-0.1c-0.2,0-0.4,0-0.6-0.1c-14.5-2-38.7-9.4-38.8-35.8c-0.1-1.6-0.6-11.1,0-20.2
		c1.3-21.4,13.3-36.1,23.2-42.3c1.6-1.1,3.4-1.6,5.6-1.6c0.9,0,1.8,0.1,2.6,0.2c0.3,0,0.7,0.1,1,0.1c0,0,0.1,0,0.1,0
		c-9.1-5.6-18-17.9-18.9-44.9c-0.2-5.9-1.3-57.8,18.8-67.5c0.1-0.1,0.2-0.1,0.3-0.1c1.2-0.5,2.5-0.8,3.9-0.8
		c2.8,0,11.9,1.5,16.1,6.5c3.2,3.8,5.1,10.6,4.6,15.9c-0.3,2.8-1.2,4.9-2.3,6.3c-5.9,14.7-5.4,24.4-5.1,30.8
		c0.1,1.7,0.2,3.2,0.1,4.7c0,0.1,0,0.1,0,0.2c-0.6,12.2,5.2,15.9,6.4,16.1h2c9.9,0,20.5-10.8,20.6-30.9c0-0.1,0-0.2,0-0.3
		c0.2-4-0.4-11.5-0.8-17.6c-0.7-9.5-0.9-12.8-0.4-15.2c1.8-7.8,11-11.5,16.9-12.1c0.7-0.1,1.3-0.1,2-0.1c5.7,0,12.9,2.4,16.2,7.7
		c1.6,2.6,2.1,3.5,1.4,55.6c-0.3,23.9-0.8,47.9-0.9,49.5c0,53-27.4,92.4-66.6,95.7C246.7,272.3,245.6,272.3,244.3,272.3z
		 M244.4,233.9c0.2,0,0.4,0,0.6,0c4,0,9.1-2.9,14-8c10-10.3,17.1-26.8,16.8-39.1c0-0.1,0-14.7,0-14.7c-4.8,1-11.2,2.4-19,4
		c-2.6,0.5-5.1,0.8-7.6,0.8c-2,0-4.6-0.2-7.4-0.9c4.5,3.6,7.1,9.4,7.1,14.7c0,1.9-0.6,3.7-1.8,5.1c-9.5,11.5-11.2,25.6-10.5,30.6
		C237,229.9,241.2,232.9,244.4,233.9z"/>
	<path d="M46.2,422.8c-11,0-21.4-3.9-29.2-11.1c-8-7.3-12.4-17.1-12.4-27.6v-1.8c0-0.3,0-0.7,0.1-1c2.9-22,8.6-37.6,17.7-47.8
		c9.2-10.4,21.6-15.5,38-15.5c0.5,0,2.2-0.1,3.8-0.1c0.9,0,1.6,0,2.2,0.1c-3.2-3-7.4-5.1-13.4-5.4c-0.6,0-1.2-0.1-1.8-0.1
		c-4.3,0-12.4,0.9-18.8,6.7c-7.9,9.2-14.7,10.2-17.3,10.2c-2.8,0-5.4-0.9-7.5-2.6c-4.9-3.9-7.4-8.2-7.5-12.9
		c-0.1-4.1,1.7-7.4,3.6-9.4c22.8-25.6,40.4-28.6,51.6-28.6c1.6,0,2.9,0.1,4.2,0.1c0.8,0,1.6,0.1,2.2,0.1c9.5,0,22.7,3.8,32.2,21.6
		c6.7,12.7,10.8,30.8,12.6,55.3c0,0.1,0,0.2,0,0.4c1.3,52.2,0.2,54.2-1,56.4c-2.1,3.8-5.8,6.9-8.4,8.2c-1.8,0.9-3.9,1.3-6.2,1.3
		c-1.7,0-3.6-0.2-5.6-0.7c-2.8-0.6-5.2-2.3-7.1-4.3c-10.7,5.1-18.5,8.2-30.3,8.6C47.2,422.8,46.7,422.8,46.2,422.8z M50.9,389.3
		c1,0.2,1.6,0.2,2,0.2c0,0,0,0,0,0c0.7,0,1.5-0.1,2.6-0.2c6.9-2,16.2-13.1,16.2-27.4c0-0.7-0.1-1.6-0.2-2.2
		c-1.2-1.5-4.2-4.4-5.5-5.2c-1.3-0.4-2.8-0.7-4-0.7c-0.6,0-1.1,0-1.6,0.1c-13.8,3.2-18.9,6.9-20.2,21.3
		C40.2,379.9,42.6,387.7,50.9,389.3z"/>
	<path d="M268,422.8c-11,0-21.4-3.9-29.2-11.1c-8-7.3-12.4-17.1-12.4-27.6v-1.8c0-0.3,0-0.7,0.1-1c2.9-22,8.6-37.6,17.7-47.8
		c9.2-10.4,21.6-15.5,38-15.5c0.5,0,2.2-0.1,3.8-0.1c0.9,0,1.6,0,2.2,0.1c-3.2-3-7.4-5.1-13.4-5.4c-0.6,0-1.2-0.1-1.8-0.1
		c-4.3,0-12.4,0.9-18.8,6.7c-7.9,9.2-14.7,10.2-17.3,10.2c-2.8,0-5.4-0.9-7.5-2.6c-4.9-3.9-7.4-8.2-7.5-12.9
		c-0.1-4.1,1.7-7.4,3.6-9.4c22.8-25.6,40.4-28.6,51.6-28.6c1.6,0,2.9,0.1,4.2,0.1c0.8,0,1.6,0.1,2.2,0.1c9.5,0,22.7,3.8,32.2,21.6
		c6.7,12.7,10.8,30.8,12.6,55.3c0,0.1,0,0.2,0,0.4c1.3,52.2,0.2,54.2-1,56.4c-2.1,3.8-5.8,6.9-8.4,8.2c-1.8,0.9-3.9,1.3-6.2,1.3
		c-1.7,0-3.6-0.2-5.6-0.7c-2.8-0.6-5.2-2.3-7.1-4.3c-10.6,5.1-18.5,8.2-30.3,8.6C269.1,422.8,268.5,422.8,268,422.8z M272.7,389.3
		c1,0.2,1.6,0.2,2,0.2h0c0.7,0,1.5-0.1,2.6-0.2c6.9-2,16.2-13.1,16.2-27.4c0-0.7-0.1-1.6-0.2-2.2c-1.2-1.5-4.2-4.4-5.5-5.2
		c-1.3-0.4-2.8-0.7-4-0.7c-0.6,0-1.1,0-1.6,0.1c-13.8,3.2-18.9,6.9-20.2,21.3C262.1,379.9,264.4,387.7,272.7,389.3z"/>
	<path d="M352.1,428.4c-2.1,0-4.3-0.3-7-1.1c-9.3-2.5-11.9-9.8-12-13.6c0-0.1,0-32.8,0-32.8l-2-73.4c0-0.1,0-6.4,0-6.4
		c0-13.9,7-20.1,13.9-20.3c0.3,0,1.2,0,2.4-0.1c-1.1-0.2-2.3-0.5-3.2-0.8c-3.4-1.4-10.9-7.8-12.9-12.4c-1.9-4.3-1.9-8.5-1.9-14.7
		v-0.4c0-9.1,6.2-17.3,16.6-22c0.7-0.3,1.4-0.5,2.1-0.6c0.3,0,3.2-0.5,6.7-0.5c2.2,0,4.3,0.2,6.2,0.5c9,1.7,17,13.2,18.6,20.4
		c0.3,1.2,0.3,2.8,0.2,4.6c0,0.1,0,0.2,0,0.4c-2,13.8-4.6,20.8-19.7,25.4c-0.2,0-0.3,0.1-0.6,0.2c0.7,0.1,1.2,0.1,1.6,0.2l0.5,0.1
		c5.3,1,7.9,3.2,10.1,8.7c0.7,1.9,1.6,4,1.1,62.2c-0.1,9.5-0.5,57-1.3,61.1c-1.3,6.5-4.5,10.6-10.4,13.2
		C358.6,427.3,355.8,428.4,352.1,428.4z"/>
	<path d="M521.8,427.7c-2.2-0.2-4.3-0.6-6.1-1.2c-8.7-2.6-15.5-14.9-16.4-22.2c-0.1-1.3,0-2.8,0.3-4.5c0-0.1,0.1-0.2,0.1-0.4
		c3.4-13.6,6.7-20.3,22.2-23.2c0.2,0,0.4-0.1,0.6-0.1c-0.7-0.1-1.2-0.3-1.6-0.4l-0.5-0.1c-5.1-1.5-7.5-4-9.1-9.7
		c-0.6-2-1.2-4.1,7-78.1c1.3-12.1,8.1-72.8,9.3-76.7c2-6.3,5.6-10.1,11.7-12.1c2.6-0.8,5.5-1.6,9.1-1.2c2.1,0.2,4.2,0.8,6.8,1.8
		c9,3.5,10.8,11,10.5,14.8c0,0.1-6.7,64.8-6.7,64.8l-5.6,73.3c0,0.1-0.7,6.3-0.7,6.3c-1.4,13.8-9,19.3-15.9,18.7
		c-0.3,0-1.2-0.1-2.4-0.2c1.1,0.3,2.2,0.7,3.1,1.2c3.3,1.8,10.1,8.9,11.6,13.7c1.4,4.5,1,8.6,0.4,14.8l0,0.4
		c-0.9,9-8,16.6-18.8,20.1c-0.7,0.2-1.4,0.4-2.1,0.4C528.3,428,525.4,428.1,521.8,427.7z"/>
	<path d="M86.6,225.9c-9.3-0.1-15.9-4.9-17.5-12.8c0-0.1-0.1-0.3-0.1-0.4c-0.1-0.4-0.6-4.2,0-8.5c0.4-3,1.2-13.8,1.2-17.4
		c0-4.3-0.7-16.9-1.1-18.9c-0.2-1.1-0.4-2.6-0.4-4.2l-12.3-0.5c-0.2,0-0.3,0-0.5,0c-2.5-0.2-5.9-1-8.3-3c-3.5-2.9-3.8-7.5-3.4-11
		c0.2-9.8,4.9-15.3,8.9-18.2c4-2.9,9-4.6,15.3-5.3c0.2-1.2,0.4-2.1,0.4-2.6V14.2C68.9,5.4,81.6,0,87.2,0c6.8,0,16.6,7.9,18.1,14.5
		c0.1,0.6,0.2,1.1,0.2,1.7v34.9c0,0.2,0,0.3,0,0.5c-0.1,0.8-1.2,19-2.1,25.3c-0.5,3.3-0.3,24.7,0.1,43.6c0.2,2,0.5,3.4,0.8,4.4
		c4.7-0.7,12-1.7,15-1.7c1.1,0,2.5,0.1,3.9,0.7c5.5,2.3,8.5,10.2,8.8,11.7c0.6,2.5,1.1,5.2,0.1,11.3c-0.8,5.4-5.2,9.2-12.9,11.3
		c-4,1.1-9.1,1.7-13.7,1.7c-0.4,0-0.8,0-1.2,0c-0.9,2.3-0.8,8.4-0.8,11.5c0,0.9,0,1.7,0,2.5c1.9,23.9,2.4,37.9,1.3,41.7
		c-1.7,6.1-10.7,10.2-18,10.2L86.6,225.9z"/>
	<path d="M159,490.1c-0.1,0-0.2,0-0.3,0c-27.7-1.3-57.1-24.3-57.1-64.3c0-11.2,7.1-39.6,23.7-39.9c0,0,0.1,0,0.1,0
		c0.3,0,0.6,0,0.9,0.1c9,1,16.1,8.1,15.9,15.7c-0.1,2.8-1.3,5-2.5,7.4c-2.1,4-5,9.4-3.7,19.7c2.2,11.2,10.7,23,19.9,23h1.9
		c15.8-0.8,20.2-4.4,22.3-7.6c3.3-4.9,3.9-13.5,3.9-26.7l0.3-32.1c-6.3,2.1-14.5,4.1-22.5,4.1c0,0,0,0,0,0c-0.7,0-1.4,0-2.1,0
		c-19.6-0.9-49.9-21.9-49.9-48.2v-4.1c0-32.8,23.4-57.5,54.3-57.5c2.5,0,5,0.2,7.5,0.5c4.4,0.6,9.2,1.4,13,2c1.2-3,3.3-6.1,9.2-7.4
		c2.7-0.6,6-0.9,9.2-0.9c3.3,0,6.2,0.3,8.6,1c9.7,2.7,11,14.6,11,60.2v82.4c0,19.7-3.3,34.8-10.1,46.4c-7.1,12-18.2,20.1-33,24.3
		c-0.3,0.1-0.7,0.2-1,0.2c-0.5,0.1-11.7,1.7-19.2,1.7L159,490.1z M141.5,340.8c2,5.5,13.4,13.1,27.7,13.1
		c13.5,0,17.4-15.8,18.9-22.3l0.4-3.8c-0.3-7.2-8.5-15.2-23.6-16.1c-4.9,0.1-12.3,2.6-17.3,8C143,324.8,140.9,331.9,141.5,340.8z"/>
	<path class="st0" d="M451.5,281.8h8.2c17.9,0,32.8,12.9,34.7,38.8c1.2,36.7-14.3,77.6-42.9,98.1c0,0-4.7,3.5-9.7,1.1
		c-5.1-2.5-2.5-7.2-2.5-7.2c23.2-34.9,34.7-62.2,34.7-81.7c0-13.8-11.5-27.5-28.6-26.6c-17.1,1-31.7,9.7-34.2,21.1
		c-2.9,13.1-3.8,74.3-4.6,83.2c-1.6,6.2-5.6,12.5-12,12.2c-6.4-0.3-6.4-8.1-6.4-8.1v-40.9v-22.5v-18.4c0,0-2-35.7-2-38.8
		s3.2-6.1,6.1-8.2c2.9-2,14.3,0,14.3,0c2.7,0,4.1,2.7,4.1,8.2l2,2h2C432.1,285.9,444.3,281.8,451.5,281.8z"/>
	<path class="st0" d="M177,68.5c16.1-4.5,30.6,11,30.6,26.6v24.5c0,7.4-4.5,15.1-10.2,16.3c-5.7,1.3-7.7,1.3-10.2,0
		c-2.5-1.3-6.9-4.7-6.1-6.1c9.3-8.8,10.2-13.1,10.2-26.6c-2.5-9.5-5.7-14.4-18.4-14.3c-12.7,0.1-20.4,15.1-20.4,30.6
		c0,0,5.2,77.2,4.1,79.7c-1.1,2.5-4.6,3.8-6.1,4.1c-1.6,0.3-3.4,0.7-6.1,0c-2.8-0.7-4.1-4.1-4.1-4.1s-7.4-120.1-6.1-122.6
		c1.2-2.5,4.3-3.6,6.1-4.1c1.9-0.5,2.5-0.8,4.1,0c1.6,0.8,6.1,6.2,8.2,6.1C154.6,78.6,160.9,73,177,68.5z"/>
	<path class="st0" d="M236.7,67.3c1.3-0.5,8.7,1.1,10.7,3.5c2.4,2.8,4.1,10.8,1.5,12.8c-8.7,20.8-5.9,33.1-6.1,39.6
		c-0.8,16.8,8.4,24.5,14.3,24.5h2c13.6,0,28.4-13.4,28.6-38.8c0.4-8.6-2-28.4-1.4-31.3c0.7-2.9,5.7-5.5,9.9-5.9
		c4.2-0.4,9.1,1.4,10.6,3.8c1.5,2.4-0.7,100.8-0.7,100.8c0,49.2-24.7,84.9-59.3,87.9c-2.5,0.2-6.1,0-6.1,0
		c-20.4-2.9-31.9-11.9-31.9-28.2c0,0-0.6-10,0-19.5c1.3-20.7,13.7-32.5,19.7-36.1c0.6-0.5,2.3-0.1,4.1,0c5.3,0.7,8.2,6.2,8.2,10.2
		c-10.7,12.9-13.3,29.2-12.3,36.8c1,7.5,8.5,12.8,14.3,14.3c18.9,2.6,41.5-30.6,40.9-55.2c0-4.1,0-24.5,0-24.5s-10.7,2.5-28.6,6.1
		c-18,3.6-31.6-8.2-32.7-40.9C221.7,104.4,225.8,72.6,236.7,67.3z"/>
	<path class="st0" d="M61.6,284c21.3,0,33.5,23.2,36.8,69.5c0,0,1.3,50,0,52.3c-1.3,2.3-3.7,4.3-4.9,4.9c-1.2,0.6-3.4,0.7-6.5,0
		s-6.5-6.5-6.5-6.5c-14.4,7.1-21.1,10.2-32.9,10.6c-19.3,0.7-34.9-13.3-34.9-30.6v-1.8c5.3-41,20.6-56.4,47.9-56.4
		c0,0,4.1-0.2,5.9,0c1.8,0.2,14.8,1.6,14.8,1.6c-5.7-15.4-15-22.3-27.8-23.1c-7-0.4-18.3,0.9-26.9,9.1c0,0-9.1,10.8-14,6.9
		c-7.8-6.3-3.2-10.5-3.2-10.5C35.9,280,53.5,284,61.6,284z M32.1,375c0,9.5,5.6,20,17.3,22.2c3.2,0.5,4.7,0.3,7.5,0
		c10.9-2.6,22.7-17.6,22.7-35.4c0,0-0.1-3.8-1-5.7c-0.9-1.8-7.1-8-9.7-9c-2.7-1-6.4-1.7-10.2-1C42.6,349.8,33.8,355.7,32.1,375z"/>
	<path class="st0" d="M283.4,284c21.3,0,33.5,23.2,36.8,69.5c0,0,1.3,50,0,52.3c-1.3,2.3-3.7,4.3-4.9,4.9s-3.4,0.7-6.5,0
		s-6.5-6.5-6.5-6.5c-14.4,7.1-21.1,10.2-32.9,10.6c-19.3,0.7-34.9-13.3-34.9-30.6v-1.8c5.3-41,20.6-56.4,47.9-56.4
		c0,0,4.1-0.2,5.9,0c1.8,0.2,14.8,1.6,14.8,1.6c-5.7-15.4-15-22.3-27.8-23.1c-7-0.4-18.3,0.9-26.9,9.1c0,0-9.1,10.8-14,6.9
		c-7.8-6.3-3.2-10.5-3.2-10.5C257.8,280,275.3,284,283.4,284z M254,375c0,9.5,5.6,20,17.3,22.2c3.2,0.5,4.7,0.3,7.5,0
		c10.9-2.6,22.7-17.6,22.7-35.4c0,0-0.1-3.8-1-5.7c-0.9-1.8-7.1-8-9.7-9c-2.7-1-6.4-1.7-10.2-1C264.5,349.8,255.6,355.7,254,375z"/>
	<path class="st0" d="M349.3,237.7c0,0,5.6-0.9,10.2,0c4.6,0.9,11.1,8.9,12.3,14.3c0.1,0.6,0,2,0,2c-1.8,12.3-3.2,15.6-14.1,18.8
		c-2.2,0.6-8.7,0.2-10.4-0.5c-1.7-0.7-7.6-5.7-8.6-8.2c-1.3-2.9-1.2-5.9-1.2-11.9C337.4,246,342.5,240.8,349.3,237.7z M345.2,288.8
		c0,0,11.7-0.5,14.3,0c2.6,0.5,3.2,0.3,4.7,3.9c1.4,3.6,0.2,114.6-0.6,118.7c-0.8,4.1-2.4,6-5.9,7.5c-3.5,1.6-5.7,2-10.5,0.7
		c-6-1.7-6.1-6.1-6.1-6.1v-32.7l-2-73.6c0,0,0-2.9,0-6.1C339.1,293,342,288.8,345.2,288.8z"/>
	<path class="st0" d="M528.2,420c0,0-5.7,0.3-10.2-1.1c-4.5-1.3-10.1-10-10.7-15.5c-0.1-0.6,0.2-2,0.2-2c3-12,4.8-15.2,16-17.3
		c2.2-0.4,8.7,0.7,10.3,1.5c1.6,0.9,6.9,6.5,7.7,9c1,3,0.6,6,0,11.9C540.9,412.9,535.3,417.6,528.2,420z M537.5,369.6
		c0,0-11.6-0.7-14.2-1.5c-2.6-0.8-3.2-0.7-4.3-4.4c-1.1-3.7,15-146.2,16.2-150.2c1.3-4,3-5.7,6.6-6.9c3.6-1.2,5.9-1.4,10.5,0.4
		c5.8,2.3,5.5,6.7,5.5,6.7l-6.7,64.7l-5.6,73.4c0,0-0.3,2.8-0.6,6.1C544.1,366,540.7,369.9,537.5,369.6z"/>
	<path class="st0" d="M87.2,8c3.4,0,9.7,5.4,10.3,8.2v34.9c0,0-1.2,18.6-2.1,24.7c-0.8,6,0,45.2,0,45.2c0.9,8.2,2.9,12.3,6.2,12.3
		c0,0,17.1-2.6,18.5-2.1c1.4,0.6,3.7,4.5,4.1,6.2c0.4,1.6,0.7,3.3,0,8.2c-0.7,4.9-14.3,6.6-20.5,6.2c-9.1,0.5-8,13.2-8,22.5
		c0,0,2.8,34.8,1.6,39.2c-0.3,1.2-4.8,4.5-10.5,4.4c-5.6-0.1-8.9-2.5-9.8-6.5c0,0-0.4-2.9,0-6.2c0.4-3.2,1.3-14.4,1.3-18.5
		c0-4.1-0.7-17.9-1.3-20.5c-0.6-2.7,0-10.3,0-10.3l-20.2-0.7c0,0-2.9-0.3-3.9-1.1s-0.5-4.3-0.5-4.3c0-11,7.5-16.4,22.6-16.4
		c0,0,2.1-7,2.1-10.3c0-3.3,0-108.9,0-108.9C76.9,11.8,83.8,8,87.2,8z"/>
	<path class="st0" d="M195.5,282.5c3.5-0.8,9.8-1.2,14,0c4.2,1.2,5.2,17.5,5.2,52.5v82.4c0,36.1-11.7,55.7-37.3,62.9
		c0,0-11.3,1.7-18.3,1.6c-25.4-1.2-49.5-22.3-49.5-56.4c0-11.5,7.1-31.8,15.9-31.9c4.8,0.5,8.9,4,8.8,7.5
		c-0.1,3.5-8.4,10.6-6.1,28.6c2.9,14.9,14.1,29.8,27.8,29.8h2.1c31.3-1.5,34-14.1,34-42.2l0.4-43.9c0,0-17.2,8.5-32.3,7.8
		c-15.1-0.7-42.2-18.3-42.2-40.2v-4.1c0-31,23.6-52.8,52.8-49.1c8.6,1.1,19.3,3.3,19.3,3.3s0.5-2.6,1.5-4.7
		C192.4,284.5,192,283.3,195.5,282.5z M133.6,342.3c2.7,10.2,18.3,19.6,35.6,19.6c13.4,0,22.4-9.7,26.8-29l0.5-4.8
		c0-11.3-11.2-23.4-31.4-24.5C153.8,303.6,131.1,312.9,133.6,342.3z"/>
</g>
<g id="svg-dog">
	<path id="tail" class="st1" d="M375.7,202.9l-1.7-8.3c0,0-23.8,8.7-45,2.1c-18.4-5.7-29.9-25.8-34.2-25.7
		c-4.3,0.1-11.1,19.2-1.1,32.9c10,13.7,28.4,10.4,28.8,11.9c0.4,1.5-12.6,7.4-11.6,9.1c1,1.7,11.6,2.5,19.3-0.8
		c9-3.9,13.2-10.7,14.6-9.6c1.4,1.1-9.5,12.5-7.7,14c1.8,1.4,9.9-1.8,13.8-6c4.7-5.1,6.7-11.1,7.6-11.1c0.8,0-0.5,7.4,0.8,7.6
		c1.2,0.2,6.3-2.5,12.1-8.3C374.6,207.5,375.7,202.9,375.7,202.9z"/>
	<g id="legL">
		<path class="st2" d="M395.8,223c0,0,1.1,14.7-0.3,23.4c-1.4,8.6-6,18.7-6.6,22.3c-0.5,2.9,0.6,7.8,5.1,8.5
			c5.5,0.9,10.4-3.3,10.4-3.3s2.6,4.8,7.9,5c3.6,0.1,4.6-4.2,4.6-4.2s1.4,4,6.3,4.2c4.8,0.2,5.6-3.6,5.6-3.6s2,2.8,5.7,1
			c3.5-1.8,4.1-9,0.9-15.2c-3.1-6.2-9.1-9.5-15.1-8.3c-7,1.4-10.8,10.9-16,9.9c-2.3-0.4,0.8-11.1,1-16.1c0.2-5.1-1.5-20.6-1.5-20.6
			L395.8,223z"/>
		<path class="st3" d="M423.8,260c0,0,4.8,3.9,5.9,8.6c0.9,4-0.2,7.2-0.2,7.2l-0.6-0.6c0,0,1-4.6-0.3-7.7
			C427.3,264.4,423.8,260,423.8,260z"/>
		<path class="st3" d="M417.5,275.7c0,0,0.5-4.4-0.2-6.7c-0.7-2.3-3.7-4.4-3.7-4.4s2.2,2.9,2.7,5c0.5,2,0.7,5,0.7,5L417.5,275.7z"/>
	</g>
	<g id="legR">
		<path class="st2" d="M451.1,224.1c0,0,1.5,17,0.1,25.2c-1.4,8.2-4.3,13.1-4.9,16.4c-0.4,2.7-2.2,6.9,2,7.6c5.3,0.9,11-1,11-1
			s2.4,4.6,7.5,4.7c3.5,0.1,4.4-4,4.4-4s1.3,3.8,6,4c4.6,0.2,5.3-3.5,5.3-3.5s1.9,2.7,5.4,0.9c3.4-1.7,4.7-6.5,1.8-12.4
			c-3-5.9-8.1-10-13.8-8.9c-6.6,1.3-11.6,9.3-16.5,8.3c-2.2-0.4,0.7-10.1,0.9-14.9c0.2-4.8-1.4-19.9-1.4-19.9L451.1,224.1z"/>
		<path class="st3" d="M479.3,260.7c0,0,3,2.2,3.9,6.7c0.8,3.8-0.2,6.9-0.2,6.9l-0.6-0.6c0,0,0.9-4.4-0.3-7.3
			C481,263.3,479.3,260.7,479.3,260.7z"/>
		<path class="st3" d="M471.7,274.1c0,0,0.5-4.2-0.2-6.3c-0.7-2.1-2.4-4.1-2.4-4.1s1,2.7,1.5,4.7c0.5,1.9,0.6,4.8,0.6,4.8
			L471.7,274.1z"/>
	</g>
	<g id="body_1_">
		<path class="st4" d="M499.1,54.1c0,0,13.3-12.4,22.7-9.9c10.6,2.9,6.9,15.1,6.9,15.1L498,66.1L499.1,54.1z"/>
		<path id="body" class="st0" d="M497,159.9c0,0-5.4,6.9-5.5,15.2c-0.1,8.2,6,27.1-8.5,44.7c-13.1,16-48.2,26.5-74.5,15.4
			c-26.4-11.2-40.7-25.2-42.4-47.5c-1.7-22.3,49.3-83.9,49.2-87.2c-0.1-3.3-10.7-1.1-17.2,2.3c-1.3,0.7,1.1-8.3,8.9-13.7
			c7.1-4.9,15.3-4,15.3-5.7c0.1-3.7-12.8-2-23.4,0.8c-1.8,0.5,4.1-10.6,15.4-13.9c12.4-3.6,20,2.7,20.6,1.2
			c1.2-3-8.3-12.6-20.5-13.2c-2.1-0.1,10.8-8.9,25.2-3.7c8.1,2.9,11.3,12.9,12.3,13c1,0,17.4-23.9,34.7-24.4
			c18.9-0.5,14.9,18.2,14.9,18.2l24.1,23.8l1.2,7c0,0,6,7.5,11.2,10.7c6.3,3.9,18.7,5.8,18.7,5.8l1.4,39.3c0,0-12.6,20.3-34.4,21.6
			C506.6,170.6,497,159.9,497,159.9z"/>
	</g>
	<path id="earR" d="M482.3,48c0,0-0.4-40.1,3.7-44.2c4.1-4.1,43.9-7.9,43.8,6.3c-0.1,14.2-4.7,17.4-7.8,17.1
		c-3.1-0.3-27.5-14.9-28.9-13.5c-1.4,1.4-7.5,34.3-7.5,34.3L482.3,48z"/>
	<path id="earL" d="M455.4,65.5c0,0-17.6-39.5-16.6-45.2c1-5.7,30.8-23.3,34.8-18.5c4,4.8,6.1,14.1,2.9,18.2
		c-3.2,4.1-25.1,0.3-25.9,3.6c-0.8,3.3,7.2,39.6,7.2,39.6L455.4,65.5z"/>
	<g id="pencil">
		<path class="st5" d="M531.2,262.3c6.8-1.3,9.9-5.2,8.9-12.8l-23.8-28.4l-20,28.8L531.2,262.3z"/>
		<path class="st6" d="M383.1,171.3L497,250.2c12.3-0.6,23.7-17,20-28.8L403,142.6C406.8,154.3,395.4,170.8,383.1,171.3z"/>
		<path d="M531.2,262.3l24.6,8.7c0,0,1.3,0.1,1.5-0.1c0.2-0.2-0.4-1.4-0.4-1.4l-16.8-20C540.5,256,537.4,260.7,531.2,262.3z"/>
		<path class="st7" d="M364,158.1c3.2,2.2,6.5,4.5,9.7,6.7l20.3,14.1c12.3-0.6,23.7-17,20-28.8l-20.3-14.1c-3.2-2.3-6.5-4.5-9.7-6.7
			C387.7,141.1,376.3,157.5,364,158.1z"/>
		<path class="st8" d="M372,163.7l1.6,1.1c12.3-0.6,23.7-17,20-28.8l-1.6-1.1C395.8,146.7,384.4,163.1,372,163.7z"/>
		<path class="st8" d="M369,161.6l1.6,1.1c12.3-0.6,23.7-17,20-28.8l-1.6-1.1C392.7,144.5,381.3,161,369,161.6z"/>
		<path class="st8" d="M389.4,175.8l1.6,1.1c12.3-0.6,23.7-17,20-28.7l-1.6-1.1C413.2,158.8,401.8,175.2,389.4,175.8z"/>
		<path class="st8" d="M386.4,173.6l1.6,1.1c12.3-0.6,23.7-17,20-28.8l-1.6-1.1C410.1,156.6,398.7,173.1,386.4,173.6z"/>
		<path class="st8" d="M345.2,145.1c3.2,2.2,6.5,4.5,9.7,6.7l9.3,6.5c12.3-0.6,23.7-17,20-28.7l-9.3-6.5c-3.2-2.2-6.5-4.5-9.7-6.7
			C369,128.1,357.6,144.5,345.2,145.1z"/>
		<path class="st9" d="M346.9,125c-5.5,7.9-6.7,16.6-2.7,19.4c4,2.8,11.7-1.4,17.2-9.3c5.5-7.9,6.7-16.6,2.7-19.4
			C360.2,112.8,352.4,117,346.9,125z"/>
		<path class="st10" d="M390.7,137.3c0.5-0.7,2-0.6,3.3,0.3c1.3,0.9,2,2.3,1.5,3c-0.5,0.7-2,0.6-3.3-0.3
			C390.9,139.4,390.2,138,390.7,137.3z"/>
		<path class="st10" d="M404.9,149.9c0.5-0.7,2-0.6,3.3,0.3c1.3,0.9,2,2.3,1.5,3c-0.5,0.7-2,0.6-3.3-0.3
			C405.1,152,404.4,150.7,404.9,149.9z"/>
		
			<ellipse transform="matrix(0.5703 -0.8214 0.8214 0.5703 26.2872 395.129)" class="st10" cx="390.8" cy="172.4" rx="1.6" ry="2.9"/>
		
			<ellipse transform="matrix(0.5702 -0.8215 0.8215 0.5702 28.9045 378.0161)" class="st10" cx="375.7" cy="161.4" rx="1.6" ry="2.9"/>
		
			<ellipse transform="matrix(0.5702 -0.8215 0.8215 0.5702 39.6017 381.3869)" class="st10" cx="384.3" cy="152.8" rx="2.2" ry="2.9"/>
		<ellipse transform="matrix(0.5695 -0.822 0.822 0.5695 37.2639 401.921)" class="st10" cx="402.3" cy="165.4" rx="2.2" ry="2.9"/>
	</g>
	<g id="eyes-open">
		
			<ellipse transform="matrix(3.313830e-02 -0.9995 0.9995 3.313830e-02 431.0334 588.6794)" class="st8" cx="519.8" cy="71.6" rx="16.8" ry="16.8"/>
		
			<ellipse transform="matrix(3.312493e-02 -0.9995 0.9995 3.312493e-02 426.8196 597.6419)" cx="522.3" cy="78.2" rx="3.7" ry="3.7"/>
		
			<ellipse transform="matrix(3.313678e-02 -0.9995 0.9995 3.313678e-02 392.7572 562.6549)" class="st11" cx="487.2" cy="78.3" rx="22.2" ry="22.2"/>
		<ellipse transform="matrix(3.313694e-02 -0.9995 0.9995 3.313694e-02 402.1977 579.8335)" cx="500.8" cy="82" rx="5.5" ry="5.5"/>
		<path class="st0" d="M485.5,105.9c0,0,0.5-6.4,4.9-11.6c6.8-7.9,31-14.2,34.8-11.4c3,2.2,2.7,8.6,1.9,9.8
			C526.4,93.8,485.5,105.9,485.5,105.9z"/>
	</g>
	<g id="eyes-closed">
		
			<ellipse transform="matrix(3.313830e-02 -0.9995 0.9995 3.313830e-02 431.0334 588.6794)" class="st4" cx="519.8" cy="71.6" rx="16.8" ry="16.8"/>
		<path class="st12" d="M536.1,68l0.4,1.9c0,0-7.6,0.8-15.1,3.7c-5.7,2.2-11.1,5.7-13.6,9.6l-0.9-1.5
			C506.8,81.6,513.6,69.2,536.1,68z"/>
		
			<ellipse transform="matrix(3.313678e-02 -0.9995 0.9995 3.313678e-02 392.7572 562.6549)" class="st4" cx="487.2" cy="78.3" rx="22.2" ry="22.2"/>
		<path class="st12" d="M509.1,74.9l0.3,2.1c0,0-10.2,2.2-17.7,7c-6.1,4-11.8,9.2-14.1,14.3l-2.1-1.1
			C475.5,97.2,482.1,80.7,509.1,74.9z"/>
		<path class="st0" d="M485.5,105.9c0,0,0.5-6.4,4.9-11.6c6.8-7.9,31-14.2,34.8-11.4c3,2.2,2.7,8.6,1.9,9.8
			C526.4,93.8,485.5,105.9,485.5,105.9z"/>
	</g>
	<g id="nose">
		
			<ellipse transform="matrix(3.313711e-02 -0.9995 0.9995 3.313711e-02 415.1325 689.9431)" cx="564.2" cy="130.4" rx="29.6" ry="28"/>
		
			<ellipse transform="matrix(0.8989 -0.4381 0.4381 0.8989 5.431 256.9882)" class="st13" cx="559.7" cy="116.7" rx="12.9" ry="6.6"/>
	</g>
	<g id="tongue">
		<path class="st14" d="M463.4,131.3c0,0-7.3,0.7-14.8,7.2c-7.1,6.1-11.9,17.4-5.6,23.1c7.7,7,15.7,0.6,17.7-2.8
			c6-10.1,14.8-17.5,14.8-17.5L463.4,131.3z"/>
		<path class="st15" d="M469.3,136.6c0,0-4.9,0.5-10,4.4c-3.8,3-7.4,7.4-6.1,8.9c1.3,1.4,4-4.5,7.7-7.4c4.7-3.6,9.8-5,9.8-5
			L469.3,136.6z"/>
		<path d="M480.6,147.8c-0.4,0-0.9-0.2-1.2-0.5c0,0-4.4-4.9-10.3-9.3c-4.7-3.5-11.4-6.8-11.5-6.8c-0.8-0.4-1.2-1.4-0.8-2.2
			c0.4-0.8,1.4-1.2,2.2-0.8c0.3,0.1,7,3.7,11.7,7.7C476.9,141.1,481,147.8,480.6,147.8L480.6,147.8z"/>
	</g>
	<path id="handL" class="st2" d="M406.9,139.7c0,0-10.3,14.4-11.1,23.8c-0.7,8.5,2.4,15.5,1.5,17.9c-0.9,2.4-8.8-0.8-12.6,3.1
		c-3.1,3.1-3.7,12.2,2.5,12.1c6.4-0.1,8.3-9.5,11.4-7.6c3,2-3.4,7.5-2.7,12c1,5.7,8,9.1,11.5,3.5c2.7-4.4-2.8-11.4-1.1-12.2
		c1.7-0.8,4.7,7.1,9.2,8.9c5.1,2,8.5-2.9,7-9.1c-1.4-6.2-10.4-3.1-13.8-8.2c-3.2-4.7-4.5-11.3-2.7-20.9c1.9-10.4,7.8-20.5,7.8-20.5
		L406.9,139.7z"/>
	
		<ellipse id="bellybutton" transform="matrix(3.314149e-02 -0.9995 0.9995 3.314149e-02 210.9728 670.5347)" class="st3" cx="452.1" cy="226.2" rx="2.9" ry="3.1"/>
	<g id="hand-R">
		
			<ellipse transform="matrix(0.7047 -0.7095 0.7095 0.7047 -22.7651 411.5391)" class="st2" cx="483" cy="233.1" rx="9.5" ry="6.5"/>
		
			<ellipse transform="matrix(0.7764 -0.6303 0.6303 0.7764 -42.0995 363.9386)" class="st2" cx="491.8" cy="241.3" rx="9.5" ry="6"/>
		
			<ellipse transform="matrix(0.7764 -0.6303 0.6303 0.7764 -45.4352 370.8958)" class="st2" cx="499.9" cy="249.5" rx="9.5" ry="5.5"/>
	</g>
</g>
</svg>
