<?xml version="1.0" encoding="utf-8"?>
<!-- Generator: Adobe Illustrator 21.0.0, SVG Export Plug-In . SVG Version: 6.00 Build 0)  -->
<svg version="1.1" id="Layer_1" xmlns="http://www.w3.org/2000/svg" xmlns:xlink="http://www.w3.org/1999/xlink" x="0px" y="0px"
	 viewBox="0 0 305 283" style="enable-background:new 0 0 305 283;" xml:space="preserve">
<style type="text/css">
	.st0{fill:#A7A8AC;}
	.st1{fill:#FFFFFF;}
	.st2{fill:#FFFFFF;stroke:#B8D432;stroke-width:1.5;stroke-miterlimit:10;}
	.st3{fill:#FDFDFD;}
	.st4{fill:#FBFBFB;}
	.st5{fill:#F9F9F9;}
	.st6{fill:#F7F7F7;}
	.st7{fill:#F5F5F5;}
	.st8{fill:#F3F3F3;}
	.st9{fill:#F1F1F1;}
	.st10{fill:#EFEFEF;}
	.st11{fill:#EDEDED;}
	.st12{fill:#EBEBEB;}
	.st13{fill:#E9E9E9;}
	.st14{fill:#E7E7E7;}
	.st15{fill:#E5E5E4;}
	.st16{fill:#E3E3E2;}
	.st17{fill:#E1E1E0;}
	.st18{fill:#DFDFDE;}
	.st19{fill:#DDDDDC;}
	.st20{fill:#DBDBDA;}
	.st21{fill:#D9D9D8;}
	.st22{fill:#D7D7D6;}
	.st23{fill:#D5D5D4;}
	.st24{fill:#D3D3D2;}
	.st25{fill:#D1D1D0;}
	.st26{fill:#CFCFCE;}
	.st27{fill:#CDCDCC;}
	.st28{fill:#CACACA;}
	.st29{fill:#C8C8C8;}
	.st30{fill:#C6C6C6;}
	.st31{fill:#C4C4C4;}
	.st32{fill:#C2C2C2;}
	.st33{fill:#C0C0C0;}
	.st34{fill:#BEBEBE;}
	.st35{fill:#BCBCBC;}
	.st36{fill:#BABABA;}
	.st37{fill:#B8B8B8;}
	.st38{fill:#B6B6B6;}
	.st39{fill:#B4B4B4;}
	.st40{fill:#B2B2B2;}
	.st41{fill:#B0B0AF;}
	.st42{fill:#AEAEAD;}
	.st43{fill:#ACACAB;}
	.st44{fill:#AAAAA9;}
	.st45{fill:#A8A8A7;}
	.st46{fill:#A6A6A5;}
	.st47{fill:#A4A4A3;}
	.st48{fill:#A2A2A1;}
	.st49{fill:#A0A09F;}
	.st50{fill:#9E9E9D;}
	.st51{fill:#9C9C9B;}
	.st52{fill:#9A9A99;}
	.st53{fill:#989897;}
	.st54{fill:#B56F29;}
	.st55{fill:#343433;}
	.st56{fill:#F69220;}
	.st57{fill:#754D24;}
</style>
<g>
	<g>
		<path class="st0" d="M274.2,35.6c-3.5-13.7-11.1-15.9-20.8-17.2c-15.2-2-82.9-3.6-93.6-2.4c-8.5,0.9-14,6.8-17.5,17.8
			c-2.9,9.1-9.4,23.9-10.3,30.8c-1.1,8.8,1,22.3,14.3,26.3c11.9,3.5,23.9,4.6,47,7c14.6,1.5,21.4,2.8,17.8,7
			c-4.9,5.8-25.8,14.5-21.1,15.1c14.8,1.9,31.4,0,42.1-2.9c7.5-2,14.8-5.7,19.6-10.8c11.3,1.7,10.5,2.2,13.7,2.2
			c10.4,0.1,15.8-6.3,17.1-15.6C284.1,82.1,276.3,44,274.2,35.6z"/>
		<path class="st1" d="M275.1,35.2c-3.4-13.5-11.7-16.2-21.3-17.5c-14.9-2-81.2-3.4-91.8-2.3c-8.4,0.9-13.8,6.7-17.2,17.6
			c-2.8,9-9.2,23.3-10,30c-1.1,8.7,1,22,14.1,25.9c11.6,3.5,23.5,4.5,46.2,6.9c14.4,1.5,21,2.7,17.5,6.9
			c-4.8,5.7-25.4,14.4-20.8,14.9c13.4,1.2,31.7-0.3,42.1-3.4c7.5-2.3,13.8-5.1,18.5-10.1c11.1,1.6,10.1,2.2,13.3,2.2
			c10.2,0.1,14.5-6.7,16-15.9C283.5,78.9,277.1,43.4,275.1,35.2z"/>
	</g>
	<path class="st2" d="M270.6,37.7c-3.2-12.7-11-15.3-20-16.5c-14-1.9-75.7-3.2-85.7-2.1c-7.9,0.9-13,6.3-16.2,16.6
		c-2.7,8.5-8.5,20.6-9.2,26.9c-1,8.2,0.9,20.7,13.2,24.3c10.9,3.3,31.6,5.4,53,7.7c13.5,1.4,16.4,3,13.1,7
		c-4.5,5.4-23,13.7-17.2,13.4c10-0.6,20.5-1.6,31.1-5c5.9-1.9,12.9-4.9,17.4-9.6c10.4,1.5,9,2,11.9,2c9.6,0.1,13.6-5.5,15-14.2
		C278.7,77.5,272.6,45.5,270.6,37.7z"/>
</g>
<g>
	<path d="M197.7,36.5l0.1-1.8c0.1-1.3,0.3-2,0.6-2.2c0.2-0.1,0.4-0.1,0.6-0.1c0.2,0,0.5,0.1,0.6,0.3c0.2,0.2,0.3,0.5,0.3,0.7l-0.2,2
		l-0.3,7c0,0.6,0,1.3,0,2.1c0,0.8,0,1.3,0,1.6c0,0.3-0.1,0.6-0.3,0.9c-0.2,0.3-0.4,0.4-0.7,0.4c-0.6,0-1-0.2-1.2-0.6
		c-0.2-0.4-0.5-1-0.9-2c-0.7-1.6-1.5-3.2-2.2-4.6c-0.7-1.5-1.5-2.8-2.4-4.1l0,0.5c-0.3,4.6-0.6,7.8-1,9.7c-0.1,0.4-0.4,0.5-0.9,0.5
		c-0.2,0-0.4-0.1-0.6-0.2c-0.2-0.1-0.2-0.3-0.2-0.5c0-0.2,0.1-0.8,0.2-1.9c0.1-1.1,0.2-1.9,0.2-2.4c0.2-1,0.3-1.7,0.3-2.2
		c0-0.4,0.1-1.2,0.2-2.4l0.1-2.1c0.1-1,0.2-1.6,0.4-1.9c0.1-0.1,0.2-0.2,0.4-0.3c0.3,0,0.6,0.1,1,0.3c0.6,0.7,1.1,1.4,1.6,2.2
		c0.5,0.8,0.8,1.4,1.1,1.9c0.3,0.4,0.6,1,0.9,1.8c0.4,0.7,0.6,1.3,0.8,1.6c0.2,0.4,0.5,0.9,0.8,1.7c0.4,0.8,0.6,1.3,0.7,1.5l0.1-6.8
		c0-0.1,0-0.2,0-0.3L197.7,36.5z"/>
	<path d="M204.3,38.8l-0.1,1.5l-0.3,5.1c0,0.7-0.1,1.2-0.1,1.6c-0.1,0.3-0.2,0.5-0.4,0.7c-0.2,0.2-0.4,0.3-0.7,0.3
		c-0.3,0-0.5-0.2-0.6-0.6c0-0.4,0-1,0-1.7c0-0.7,0-1.6,0-2.6c0-1,0-2,0.1-3c0.1-1,0.1-1.9,0.2-2.6c0-0.3,0.2-0.4,0.6-0.4
		C203.9,37,204.3,37.6,204.3,38.8z M202.7,32.8c0.2-0.2,0.4-0.3,0.5-0.3c0.1,0,0.2,0,0.3,0c0.7,0.2,1.1,0.4,1.2,0.8
		c0.1,0.2,0.1,0.4,0.1,0.7s-0.2,0.6-0.4,1c-0.3,0.3-0.6,0.5-0.9,0.5c-0.3,0-0.6-0.2-0.8-0.5c-0.2-0.3-0.3-0.7-0.3-1.2
		C202.4,33.3,202.5,33,202.7,32.8z"/>
	<path d="M214.3,38.1c0.2,0.1,0.3,0.3,0.3,0.4c0,0.3-0.1,0.6-0.3,1c-0.2,0.4-0.4,0.5-0.7,0.5c-0.1,0-0.4-0.1-0.9-0.3
		c-0.4-0.2-0.7-0.3-0.9-0.3c-0.8,0-1.6,0.2-2.3,0.8c-0.7,0.6-1,1.4-1.1,2.5c-0.1,1.1,0.1,1.9,0.4,2.4c0.3,0.6,0.9,0.9,1.7,0.9
		c0.5,0,1.1-0.1,1.8-0.5c0.7-0.3,1.2-0.5,1.4-0.5c0.2,0,0.4,0.1,0.5,0.2c0.1,0.1,0.2,0.3,0.2,0.5c0,0.4-0.3,0.8-0.8,1.1
		s-1.1,0.7-1.8,0.9c-0.7,0.2-1.3,0.3-1.9,0.3c-1.2-0.1-2.2-0.6-2.8-1.6c-0.6-1-0.9-2.3-0.8-4c0.1-1,0.4-2,1-2.8
		c0.6-0.8,1.3-1.4,2.2-1.7c0.8-0.4,1.7-0.5,2.7-0.5S213.9,37.8,214.3,38.1z"/>
	<path d="M222,38.9c0.7,0.5,1.1,1.1,1,1.8c0,0.7-0.4,1.3-1.2,2c-0.7,0.6-1.6,1-2.6,1.1c-0.1,0-0.2,0-0.2,0c-0.1,0-0.1,0-0.2,0
		c-0.1,0-0.2,0-0.2,0s-0.1,0-0.2,0c-0.1,0-0.2,0-0.2,0c0,0-0.1,0-0.3,0c-0.1,0-0.2,0-0.2,0c0.1,1.2,0.3,2,0.6,2.4
		c0.4,0.4,0.8,0.6,1.1,0.6c0.8,0,1.5-0.2,2.2-0.8c0.7-0.6,1.2-0.9,1.5-0.9c0.1,0,0.3,0.1,0.5,0.4c0.2,0.2,0.4,0.5,0.3,0.7
		c0,0.2-0.2,0.5-0.5,0.8c-0.3,0.3-0.6,0.6-1.1,0.9c-0.4,0.3-0.9,0.6-1.6,0.8c-0.6,0.2-1.2,0.3-1.7,0.3c-0.5,0-1-0.2-1.3-0.4
		c-0.7-0.5-1.2-1.3-1.5-2.3c-0.3-1.1-0.4-2.2-0.4-3.3c0.1-1.2,0.4-2.2,0.9-3.1c0.6-1,1.6-1.5,3-1.4C220.5,38.1,221.2,38.4,222,38.9z
		 M221,40.7c0-0.6-0.4-1-1.2-1c-0.6,0-1.1,0.3-1.5,0.9c-0.1,0.2-0.3,0.4-0.3,0.7c-0.1,0.3-0.1,0.5-0.2,0.8
		C219.8,42.2,220.9,41.8,221,40.7z"/>
	<path d="M184.8,65.6l-0.1,1.6c0,0.6-0.1,1.4-0.3,2.3c0,1.6,0.1,3.1,0.3,4.4c-0.1,0.2-0.2,0.3-0.4,0.4c-0.2,0.1-0.4,0.1-0.6,0.1
		c-0.2,0-0.4-0.1-0.5-0.1c-0.1-0.1-0.2-0.2-0.3-0.3c0-0.1-0.1-0.2-0.1-0.3c0-0.1,0-0.2,0-0.4c0-0.2,0-0.3,0-0.3
		c-0.8,0.7-1.7,1-2.9,1c-1.1-0.1-1.9-0.5-2.4-1.4c-0.4-0.9-0.6-2.1-0.5-3.7c0.2-2.7,1-4.4,2.6-5.1c0.5-0.2,1.1-0.3,1.7-0.2
		c0.6,0,1.2,0.2,1.8,0.4c0.2-0.3,0.5-0.4,0.8-0.4c0.6,0,0.9,0.5,0.9,1.5C184.8,65.2,184.8,65.4,184.8,65.6z M182.2,70.9
		c0.3-0.8,0.5-1.7,0.6-2.7c0.1-1,0-1.7-0.2-2.1c-0.2-0.5-0.6-0.7-1.2-0.7c-0.2,0-0.6,0-1,0c-0.4,0-0.8,0.3-1.1,1
		c-0.4,0.6-0.6,1.1-0.6,1.6l0,0.9c-0.1,1.6,0.2,2.6,0.8,3.1c0.2,0.1,0.4,0.2,0.8,0.2c0.3,0,0.7-0.1,1.1-0.4
		C181.8,71.6,182.1,71.3,182.2,70.9z"/>
	<path d="M195.3,64.6l0,0.2c-0.8,1.8-1.5,3.4-1.9,4.7s-0.9,2.8-1.4,4.3c-0.1,0.2-0.3,0.4-0.5,0.5c-0.2,0.1-0.4,0.2-0.7,0.2
		c-0.3,0-0.4-0.2-0.5-0.5c-0.4-1.6-1-3.3-1.8-5.1c-0.8-1.8-1.3-3-1.4-3.4c-0.2-0.4-0.2-0.7-0.2-0.9c0-0.2,0.1-0.4,0.3-0.6
		s0.5-0.3,0.7-0.3c0.3,0,0.5,0.2,0.6,0.4c0.2,0.4,0.6,1.4,1.3,2.9c0.7,1.5,1.2,2.7,1.4,3.7c0.1-0.3,0.2-0.7,0.4-1.3
		c0.7-2.1,1.4-3.7,2-4.9c0.3-0.4,0.6-0.6,1-0.6c0.2,0,0.4,0.1,0.5,0.3C195.2,64.4,195.3,64.5,195.3,64.6z"/>
	<path d="M204.4,66.7l-0.1,1.6c0,0.6-0.1,1.4-0.3,2.3c0,1.6,0.1,3.1,0.3,4.4c-0.1,0.2-0.2,0.3-0.4,0.4c-0.2,0.1-0.4,0.1-0.6,0.1
		c-0.2,0-0.4-0.1-0.5-0.1c-0.1-0.1-0.2-0.2-0.3-0.3c0-0.1-0.1-0.2-0.1-0.3c0-0.1,0-0.2,0-0.4c0-0.2,0-0.3,0-0.3
		c-0.8,0.7-1.7,1-2.9,1c-1.1-0.1-1.9-0.5-2.4-1.4c-0.4-0.9-0.6-2.1-0.5-3.7c0.2-2.7,1-4.4,2.6-5.1c0.5-0.2,1.1-0.3,1.7-0.2
		c0.6,0,1.2,0.2,1.8,0.4c0.2-0.3,0.5-0.4,0.8-0.4c0.6,0,0.9,0.5,0.9,1.5C204.4,66.3,204.4,66.5,204.4,66.7z M201.8,72
		c0.3-0.8,0.5-1.7,0.6-2.7c0.1-1,0-1.7-0.2-2.1c-0.2-0.5-0.6-0.7-1.2-0.7c-0.2,0-0.6,0-1,0c-0.4,0-0.8,0.3-1.1,1
		c-0.4,0.6-0.6,1.1-0.6,1.6l0,0.9c-0.1,1.6,0.2,2.6,0.8,3.1c0.2,0.1,0.4,0.2,0.8,0.2c0.3,0,0.7-0.1,1.1-0.4
		C201.4,72.7,201.6,72.4,201.8,72z"/>
	<path d="M211,60l-0.3,2.8c0,0.2,0,0.9,0,2.2c0.9,0.1,1.8,0.1,2.7,0.1c0.5,0.1,0.7,0.4,0.6,0.8c0,0.4-0.2,0.7-0.5,0.9
		c-0.3,0.2-0.6,0.2-0.9,0.2c-0.3,0-0.5,0-0.7,0s-0.4,0-0.6,0c-0.3,0-0.4,0-0.6,0c0,0.1,0,0.6,0,1.3c0,0.7,0,1.2,0,1.4
		c0,2.1,0.1,3.8,0.2,5.1c-0.1,0.3-0.2,0.5-0.5,0.7c-0.2,0.2-0.5,0.3-0.7,0.3s-0.5-0.2-0.6-0.6c-0.2-1.4-0.2-3-0.2-4.9
		c0-1.9,0-3,0-3.4c-0.2,0-0.6,0-1.1,0c-0.5,0-1-0.1-1.3-0.2c-0.4-0.1-0.5-0.3-0.5-0.7c0-0.8,0.5-1.1,1.4-1.1l1.1,0.1
		c0.2,0,0.3,0,0.4,0c0-1.5,0-2.3,0-2.4c0-0.1,0-0.3,0.1-0.7c0-0.4,0.1-0.9,0.2-1.6c0.1-0.3,0.2-0.5,0.5-0.6c0.2-0.2,0.5-0.2,0.7-0.2
		C210.8,59.3,211,59.5,211,60z"/>
	<path d="M222.7,67.7l-0.1,1.6c0,0.6-0.1,1.4-0.3,2.3c0,1.6,0.1,3.1,0.3,4.4c-0.1,0.2-0.2,0.3-0.4,0.4c-0.2,0.1-0.4,0.1-0.6,0.1
		c-0.2,0-0.4-0.1-0.5-0.1c-0.1-0.1-0.2-0.2-0.3-0.3c0-0.1-0.1-0.2-0.1-0.3c0-0.1,0-0.2,0-0.4c0-0.2,0-0.3,0-0.3
		c-0.8,0.7-1.7,1-2.9,1c-1.1-0.1-1.9-0.5-2.4-1.4c-0.4-0.9-0.6-2.1-0.5-3.7c0.2-2.7,1-4.4,2.6-5.1c0.5-0.2,1.1-0.3,1.7-0.2
		c0.6,0,1.2,0.2,1.8,0.4c0.2-0.3,0.5-0.4,0.8-0.4c0.6,0,0.9,0.5,0.9,1.5C222.7,67.3,222.7,67.5,222.7,67.7z M220.1,73
		c0.3-0.8,0.5-1.7,0.6-2.7c0.1-1,0-1.7-0.2-2.1c-0.2-0.5-0.6-0.7-1.2-0.7c-0.2,0-0.6,0-0.9,0c-0.4,0-0.8,0.3-1.1,1
		c-0.4,0.6-0.6,1.1-0.6,1.6l-0.1,0.9c-0.1,1.6,0.2,2.6,0.8,3.1c0.2,0.1,0.4,0.2,0.8,0.2c0.3,0,0.7-0.1,1.1-0.4
		C219.6,73.7,219.9,73.4,220.1,73z"/>
	<path d="M225.8,73.6l0.1-0.7c0.1-0.9,0-2,0-3.1c-0.1-1.1-0.2-2-0.3-2.5c-0.1-0.6-0.2-0.9-0.2-1.1c0-0.1,0.1-0.3,0.3-0.4
		c0.2-0.1,0.4-0.2,0.7-0.2c0.3,0,0.5,0.1,0.6,0.3c0.1,0.2,0.2,0.4,0.3,0.6s0,0.5,0.1,0.8c0,0.3,0,0.6,0,0.7c0.4-0.9,1.1-1.5,2.1-1.9
		c0.5-0.2,1-0.2,1.6-0.2c1.2,0.1,1.9,0.4,1.8,1.1c0,0.4-0.2,0.7-0.7,0.9c-0.2,0.1-0.3,0.1-0.5,0.1l-0.7-0.1c-1.9-0.1-3,1.7-3.2,5.5
		l-0.1,2.1l0,0c-0.1,0.3-0.2,0.5-0.5,0.7c-0.2,0.2-0.5,0.3-0.7,0.3c-0.3,0-0.5-0.3-0.6-0.9S225.7,74.5,225.8,73.6z"/>
	<path d="M234.4,75c0-0.2,0.1-0.5,0.3-0.7c0.2-0.2,0.5-0.3,0.9-0.3c0.4,0,0.6,0.1,0.8,0.2c0.2,0.1,0.2,0.4,0.2,0.9
		c0,0.5-0.2,0.8-0.4,0.9c-0.2,0.1-0.5,0.2-0.7,0.2c-0.3,0-0.6-0.2-0.8-0.5C234.5,75.5,234.4,75.2,234.4,75z M237.1,61.3l-0.6,7.8
		c0,0.7-0.1,1.3-0.1,1.6c-0.1,0.2-0.2,0.4-0.4,0.5c-0.2,0.1-0.4,0.2-0.6,0.2c-0.2,0-0.4-0.2-0.5-0.5c0-3.8,0-7.1,0.2-9.7
		c0.1-0.2,0.3-0.3,0.5-0.4c0.3-0.1,0.5-0.1,0.6-0.1C236.8,60.8,237,61,237.1,61.3z"/>
</g>
<g>
	<g>
		<ellipse class="st1" cx="107" cy="251.6" rx="71.7" ry="12.1"/>
		<ellipse class="st3" cx="107" cy="251.6" rx="70.6" ry="11.9"/>
		<ellipse class="st4" cx="107" cy="251.6" rx="69.5" ry="11.7"/>
		<ellipse class="st5" cx="107" cy="251.6" rx="68.4" ry="11.6"/>
		<ellipse class="st6" cx="107" cy="251.6" rx="67.3" ry="11.4"/>
		<ellipse class="st7" cx="107" cy="251.6" rx="66.2" ry="11.2"/>
		<ellipse class="st8" cx="107" cy="251.6" rx="65" ry="11"/>
		<ellipse class="st9" cx="107" cy="251.6" rx="63.9" ry="10.8"/>
		<ellipse class="st10" cx="107" cy="251.6" rx="62.8" ry="10.6"/>
		<ellipse class="st11" cx="107" cy="251.6" rx="61.7" ry="10.4"/>
		<ellipse class="st12" cx="107" cy="251.6" rx="60.6" ry="10.2"/>
		<ellipse class="st13" cx="107" cy="251.6" rx="59.5" ry="10.1"/>
		<ellipse class="st14" cx="107" cy="251.6" rx="58.4" ry="9.9"/>
		<ellipse class="st15" cx="107" cy="251.6" rx="57.3" ry="9.7"/>
		<ellipse class="st16" cx="107" cy="251.6" rx="56.1" ry="9.5"/>
		<ellipse class="st17" cx="107" cy="251.6" rx="55" ry="9.3"/>
		<ellipse class="st18" cx="107" cy="251.6" rx="53.9" ry="9.1"/>
		<ellipse class="st19" cx="107" cy="251.6" rx="52.8" ry="8.9"/>
		<ellipse class="st20" cx="107" cy="251.6" rx="51.7" ry="8.7"/>
		<ellipse class="st21" cx="107" cy="251.6" rx="50.6" ry="8.5"/>
		<ellipse class="st22" cx="107" cy="251.6" rx="49.5" ry="8.4"/>
		<ellipse class="st23" cx="107" cy="251.6" rx="48.4" ry="8.2"/>
		<ellipse class="st24" cx="107" cy="251.6" rx="47.2" ry="8"/>
		<ellipse class="st25" cx="107" cy="251.6" rx="46.1" ry="7.8"/>
		<ellipse class="st26" cx="107" cy="251.6" rx="45" ry="7.6"/>
		<ellipse class="st27" cx="107" cy="251.6" rx="43.9" ry="7.4"/>
		<ellipse class="st28" cx="107" cy="251.6" rx="42.8" ry="7.2"/>
		<ellipse class="st29" cx="107" cy="251.6" rx="41.7" ry="7"/>
		<ellipse class="st30" cx="107" cy="251.6" rx="40.6" ry="6.9"/>
		<ellipse class="st31" cx="107" cy="251.6" rx="39.5" ry="6.7"/>
		<ellipse class="st32" cx="107" cy="251.6" rx="38.3" ry="6.5"/>
		<ellipse class="st33" cx="107" cy="251.6" rx="37.2" ry="6.3"/>
		<ellipse class="st34" cx="107" cy="251.6" rx="36.1" ry="6.1"/>
		<ellipse class="st35" cx="107" cy="251.6" rx="35" ry="5.9"/>
		<ellipse class="st36" cx="107" cy="251.6" rx="33.9" ry="5.7"/>
		<ellipse class="st37" cx="107" cy="251.6" rx="32.8" ry="5.5"/>
		<ellipse class="st38" cx="107" cy="251.6" rx="31.7" ry="5.4"/>
		<ellipse class="st39" cx="107" cy="251.6" rx="30.6" ry="5.2"/>
		<ellipse class="st40" cx="107" cy="251.6" rx="29.4" ry="5"/>
		<ellipse class="st41" cx="107" cy="251.6" rx="28.3" ry="4.8"/>
		<ellipse class="st42" cx="107" cy="251.6" rx="27.2" ry="4.6"/>
		<ellipse class="st43" cx="107" cy="251.6" rx="26.1" ry="4.4"/>
		<ellipse class="st44" cx="107" cy="251.6" rx="25" ry="4.2"/>
		<ellipse class="st45" cx="107" cy="251.6" rx="23.9" ry="4"/>
		<ellipse class="st46" cx="107" cy="251.6" rx="22.8" ry="3.8"/>
		<ellipse class="st47" cx="107" cy="251.6" rx="21.7" ry="3.7"/>
		<ellipse class="st48" cx="107" cy="251.6" rx="20.5" ry="3.5"/>
		<ellipse class="st49" cx="107" cy="251.6" rx="19.4" ry="3.3"/>
		<ellipse class="st50" cx="107" cy="251.6" rx="18.3" ry="3.1"/>
		<ellipse class="st51" cx="107" cy="251.6" rx="17.2" ry="2.9"/>
		<ellipse class="st52" cx="107" cy="251.6" rx="16.1" ry="2.7"/>
		<ellipse class="st53" cx="107" cy="251.6" rx="15" ry="2.5"/>
	</g>
	<g>
		<path d="M129.7,114.9c0,0,30.5-17.2,33.1-16.4c2.5,0.7,22,24.4,17.7,30.7c-4.3,6.4-11.1,5-13.2,1.1c-2.1-3.9-5.9-21.1-7.5-21.6
			c-1.6-0.5-26.9,8.9-26.9,8.9L129.7,114.9z"/>
		<path class="st54" d="M65.2,173c0,0-16.4,6.5-19.4,4.1c-3-2.4-6.5-12.9-5.2-14.7c1.3-1.8,7.6-3.2,8.6-6.9c1-3.7-3-9.5-6.6-8.7
			c-3.6,0.8-6.2,11.4-7.7,11.8c-1.5,0.3-1.7-10.7-5.6-10.8c-3.9-0.2-9.9,6.4-7.6,10.6c2.4,4.2,9.2,1.4,9.1,4.9
			c-0.2,3.6-9.6-0.9-11.6,2.5c-2,3.3-0.9,11.1,4.5,11c5.4-0.1,9.1-9.3,10.7-7.6c1.5,1.7-0.9,14.6,3.7,17.3
			c4.6,2.8,25.2-8.5,25.2-8.5L65.2,173z"/>
		<path class="st54" d="M142.2,239.1c0,0,18.4-0.6,22.4-2.6c4-1.9,6.1-16.4,5.8-17.5c-0.3-1.1-3.4,0.5-6.8-4.1
			c-3.9-5.2-0.5-11.5,4.5-11.5c6.5,0,4.9,10.3,7.9,11c2.1,0.5-0.4-8.1,4.6-9.2c4.6-1.1,7.8,3.4,7,6.2c-0.8,2.6-6.6,5.9-5.9,7.4
			c0.6,1.6,4.7-2.8,6.6,0c1.9,2.9,1,6.8-2.4,7.2c-3.3,0.3-3.2-3.6-5.6-2.2c-2.4,1.4-6.9,19.3-9.1,20.3c-2.2,1-31.2-1.1-31.2-1.1
			L142.2,239.1z"/>
		<path class="st54" d="M67,239.1c0,0-21,2.1-23.1,0c-2.1-2.1-4.6-13.3-4-15.9c0.6-2.5,4.7-4,6-8.3c1.4-4.5-1.3-8.1-6.8-7.3
			c-5.5,0.8-2.9,9.8-5.1,10.7c-2.4,1-0.8-4.8-4.8-5.7c-4.5-1-7.5,3.9-6.3,7.2c0.8,2.3,8.2,2,6.8,5.4c-0.7,1.6-6.4-2.5-7.8-1.1
			c-2.2,2.1-0.9,6.3,1.3,6.9c2.9,0.7,5.8-3,6.9-1c1.1,2.1,3.4,17.5,6.3,18.1c2.9,0.6,33.7-5.7,33.7-5.7L67,239.1z"/>
		<path class="st55" d="M77.9,118.7c0,0-14.5-24.9-18.9-25.1c-4.3-0.2-21.7,19.7-20.1,26.2c1.6,6.5,5.7,8.1,10.8,4.5
			c5.1-3.6,9-17.3,11.1-17.9c2.1-0.6,16.3,15.8,16.3,15.8L77.9,118.7z"/>
		<path class="st56" d="M79.8,132.6c0,0-1.3,13.8-8.9,27.1c-7.6,13.4-15.3,22.2-16.5,41.7c-1.3,19.5,5.7,41.6,20.1,44.1
			c14.4,2.5,54.7,4.2,64.2,0c9.5-4.2,21-22,17-46.7c-4-24.7-16.1-40.2-20.1-51.2c-4-11-3.4-19.5-3.4-19.5s4.2-5.9,2.8-9.6
			c-1.5-3.7-10.7-12.2-15.7-10.3c-5,1.9-11.8,10.2-13.9,10.3c-2,0.1-7.8-8.7-13.7-9c-5.9-0.2-14,5.5-15.3,9
			C75.2,122,79.8,132.6,79.8,132.6z"/>
		<ellipse class="st54" cx="105.4" cy="163.8" rx="26.4" ry="28.5"/>
		<ellipse cx="105.4" cy="163.8" rx="19.6" ry="19.1"/>
		<ellipse class="st55" cx="105.4" cy="154.5" rx="8.9" ry="5.5"/>
		<circle class="st1" cx="120.3" cy="131.6" r="14.8"/>
		<circle cx="120.3" cy="131.6" r="3.8"/>
		<circle class="st1" cx="90.6" cy="131.6" r="14.8"/>
		<circle cx="90.6" cy="131.6" r="3.8"/>
		<path class="st54" d="M151.4,188.3c0,0,24.4-11.9,26.8-9.8c2.4,2.1,2.3,6,6.7,6.6c4.4,0.6,8.3-4.7,7.4-8.4c-1-3.8-7.2,0.4-7.5-2.8
			c-0.4-3.2,8.7-2.8,9-7c0.3-4.2-5.5-8.8-7.9-8.2c-2.4,0.6-3.2,7.6-6.2,7.2c-3-0.5,2-5.9,0.4-8.5c-1.6-2.5-7.8-3.5-10.2,1.1
			c-2.3,4.7,2.2,10.2,1,12.1c-1.2,1.9-21.2,13.6-21.2,13.6L151.4,188.3z"/>
		<ellipse class="st57" cx="103.8" cy="239.1" rx="2.4" ry="2.3"/>
		<path d="M95.8,199.7c0,0-0.1,0-0.1,0c-0.3,0-8-0.9-15.5-5.7c-8.7-5.6-12.1-12.3-12.2-12.6c-0.3-0.6-0.1-1.4,0.6-1.7
			c0.6-0.3,1.4-0.1,1.7,0.6c0,0.1,3.3,6.4,11.3,11.6c7,4.5,14.3,5.3,14.4,5.3c0.7,0.1,1.2,0.7,1.1,1.4
			C97,199.2,96.5,199.7,95.8,199.7L95.8,199.7z"/>
	</g>
</g>
</svg>
