<?xml version="1.0" encoding="utf-8"?>
<!-- Generator: Adobe Illustrator 20.1.0, SVG Export Plug-In . SVG Version: 6.00 Build 0)  -->
<svg version="1.1" id="Layer_1" xmlns="http://www.w3.org/2000/svg" xmlns:xlink="http://www.w3.org/1999/xlink" x="0px" y="0px"
	 viewBox="0 0 556 171" style="enable-background:new 0 0 556 171;" xml:space="preserve">
<style type="text/css">
	.st0{fill:#A7A8AC;}
	.st1{fill:#62C4B6;}
	.st2{fill:#FFFFFF;}
	.st3{enable-background:new    ;}
	.st4{display:none;}
	.st5{display:inline;}
	.st6{fill:#B8D432;}
	.st7{font-family:'PatrickHand-Regular';}
	.st8{font-size:80px;}
	.st9{letter-spacing:-2;}
</style>
<g id="Layer_2">
	<g>
		<g>
			<g>
				<path class="st0" d="M493.2,145.3c-21.5,14.1-395.2,13.3-417.6,0S52.8,54.6,66.9,34.5c14.1-20,399.6-15.3,425.8-1.1
					C513.5,44.6,514.7,131.2,493.2,145.3z"/>
				<path class="st1" d="M487.2,141.3c-21.5,14.1-395.2,13.3-417.6,0S46.8,50.6,60.9,30.5c14.1-20,399.6-15.3,425.8-1.1
					C507.5,40.6,508.7,127.2,487.2,141.3z"/>
			</g>
			<path class="st2" d="M148.8,126.1c-1.3,0-2-0.9-2.6-1.8c-0.1-0.2-0.1-0.3-0.1-0.5V123c0-0.1,0-0.2,0-0.3l0.7-2.6
				c0.5-1.8,1.1-3.7,1.6-5.5l1.7-5.9c1-3.5,2-7,3-10.5c0.2-0.6,0.5-1,0.8-1.4l0.1-0.2c0.2-0.2,0.4-0.4,0.6-0.6
				c0.1-0.1,0.1-0.1,0.2-0.2c0,0,34.5-34.5,48.4-48.4c2.3-2.3,4.9-3.8,7.9-4.5c1.1-0.3,2.2-0.4,3.3-0.4c7.4,0,13.9,5.4,15,12.6
				c0.8,4.7-0.4,8.9-3.4,12.5c-0.7,0.9-1.4,1.6-2.1,2.3l-12.7,12.7c-11.5,11.5-23,23-34.5,34.5c-1.3,1.3-2.6,2-4.3,2.5
				c-5.4,1.5-10.9,3-16.2,4.5l-6.1,1.7C149.7,126,149.2,126.1,148.8,126.1z M155.2,111.6c2.1,2.1,3.8,3.8,5.5,5.5
				c2.7-0.7,5.4-1.5,8.2-2.3l0.9-0.3c-1.3-2.7-2.6-5.4-3.9-8c0-0.1-0.1-0.1-0.1-0.1c-2.4-1.2-4.9-2.4-7.4-3.6l-0.6-0.3
				C156.9,105.5,156,108.6,155.2,111.6z M171.2,105.1c0.8,1.6,1.7,3.3,2.5,5l0.7,1.5l42.3-42.3l-4.9-4.9
				c-9.5,9.5-32.8,32.8-32.8,32.8c-2.6,2.6-5.1,5.2-7.7,7.7C171.2,105,171.2,105,171.2,105.1C171.2,105,171.2,105,171.2,105.1z
				 M167.1,101l40.6-40.6l-4.7-4.7l-42.2,42.2L167.1,101z M220.8,65.3c2.9-2.8,3.9-5.9,3.1-9.5c-0.9-4.1-3.5-6.6-7.7-7.5
				c-0.7-0.2-1.4-0.2-2.1-0.2c-2.6,0-5,1.1-7.2,3.4L220.8,65.3z"/>
			<g class="st3">
				<path class="st2" d="M277.5,64.7h-5.2c-1.3,0-4.1-0.2-8.4-0.6c0,6.4,0.1,11,0.3,13.8c4.3,0.1,9.7,0.1,16.3,0.1
					c1.9,0.4,2.9,1.3,2.9,2.6c0,1.4-0.8,2.4-2.3,3.1c-0.3,0.2-0.6,0.3-0.9,0.3l-13.8-0.2c-1,0-1.7,0.1-2.1,0.2l0.3,13.8
					c0,3.1-0.1,5.3-0.2,6.6l18.6-0.2c1.7,0.2,2.6,0.9,2.6,2.2c0,0.8-0.4,1.6-1.1,2.4s-1.6,1.3-2.5,1.5l-20.5,0.3
					c-1.2,0-2.1-0.2-2.6-0.7s-0.7-1.2-0.7-2.3c0.2-1.7,0.3-4.1,0.3-7.2v-5.6l-0.3-11.8c-0.7-0.5-1.1-1.2-1.1-2.1
					c0-0.9,0.3-1.7,0.9-2.4c-0.2-6-0.3-11.7-0.3-16.9c0.3-1.3,0.8-2.2,1.5-2.8c0.7-0.6,1.6-1,2.9-1.1c7,0.3,14.7,0.5,22.9,0.5
					c2,0.4,3,1.3,3,2.7c0,1.4-0.7,2.3-2.2,2.9c-1.5,0.6-2.9,0.9-4.3,1C279.6,64.7,278.3,64.7,277.5,64.7z"/>
				<path class="st2" d="M318.5,80.5l-0.1,5.6c0,2.1-0.2,4.8-0.6,8.1c0.3,5.7,0.9,10.8,1.8,15.3c-0.2,0.6-0.6,1.1-1.3,1.4
					c-0.7,0.3-1.4,0.5-2.2,0.5s-1.4-0.1-1.9-0.3c-0.5-0.2-0.8-0.5-1-1c-0.2-0.5-0.3-0.8-0.4-1.2c-0.1-0.3-0.1-0.8-0.1-1.3
					c0-0.6,0-0.9-0.1-1c-2.5,2.6-5.8,3.9-9.8,3.9c-4,0-6.9-1.5-8.6-4.6c-1.7-3.1-2.6-7.3-2.6-12.8c0-9.6,2.7-15.7,8.2-18.4
					c1.7-0.8,3.7-1.2,5.8-1.2c2.2,0,4.3,0.4,6.4,1.1c0.7-1,1.7-1.4,2.9-1.4c2.2,0,3.4,1.7,3.4,5.1C318.5,79.1,318.5,79.8,318.5,80.5
					z M310.6,99.6c1-2.9,1.5-6.1,1.5-9.4c0-3.4-0.4-5.8-1.2-7.4c-0.8-1.6-2.2-2.4-4.2-2.4c-0.9,0-2,0.1-3.3,0.2s-2.6,1.4-3.8,3.6
					c-1.2,2.2-1.8,4.1-1.8,5.7v3.2c0,5.6,1.1,9.2,3.4,10.7c0.7,0.5,1.6,0.7,2.8,0.7c1.1,0,2.4-0.5,3.8-1.5
					C309.1,102.1,310,100.9,310.6,99.6z"/>
				<path class="st2" d="M338.2,72.9c2,0,4,0.3,6,1c3.9,1.3,5.8,2.9,5.8,4.9c0,0.9-0.4,1.6-1.2,2.2c-0.8,0.5-1.7,0.8-2.7,0.8
					c-0.2,0-1.4-0.5-3.6-1.5c-2.2-1-3.9-1.5-5.2-1.5c-1.3,0-2.5,0.4-3.6,1.2s-1.7,1.8-1.7,3c0,1.2,0.3,2.2,1,3.1
					c0.7,0.9,1.5,1.5,2.6,1.8c1.1,0.4,2.2,0.7,3.5,1c3.5,0.7,5.9,1.4,7.3,2c2.4,1.1,3.6,3.3,3.6,6.7c0,3.3-1.3,6.3-3.8,8.8
					c-2.5,2.5-5.2,3.8-8,3.8c-2.8,0-5.2-0.3-7-1c-3.3-1.2-5-2.8-5-4.8c0-1.9,1.1-2.8,3.4-2.8c1.1,0,2.6,0.5,4.5,1.4
					c1.9,0.9,3.5,1.4,4.8,1.4c1.3,0,2.5-0.8,3.5-2.4c1.1-1.6,1.6-3.1,1.6-4.5c0-0.3-0.1-0.7-0.2-1.3c-1.4-1.4-4.3-2.4-8.5-3.1
					c-1.5-0.3-3-0.7-4.4-1.2c-3.1-1.1-4.7-4-4.7-8.6c0-3.2,1.1-5.7,3.4-7.6C332,73.9,334.8,72.9,338.2,72.9z"/>
				<path class="st2" d="M351.5,76.9c0-1,0.3-1.9,0.9-2.6c0.6-0.7,1.4-1.1,2.3-1.1c0.9,0,1.8,0.6,2.5,1.7c1.3,4.2,2.6,7.9,4,11.3
					c1.4,3.4,2.7,6.5,4,9.3c1.2,2.8,2.1,5,2.7,6.5c1-3.3,2.2-8,3.7-14.1c1.5-6.1,2.6-10.4,3.3-12.9c0.3-1.2,1.4-1.8,3.5-1.8
					c0.7,0,1.4,0.2,2,0.7c0.7,0.5,1,1,1,1.6c0,0.6-0.1,1.1-0.2,1.7c-7.6,26.9-13.2,45.4-16.7,55.4c-0.5,1.4-1.3,2.2-2.6,2.2
					c-0.8,0-1.5-0.3-2.1-1c-0.6-0.7-0.9-1.6-0.9-2.8c0-1.1,0.4-3,1.2-5.6c0.8-2.6,1.7-5.4,2.7-8.5c1-3.1,1.7-5.2,2-6.4
					c-1.3-2.1-3.4-6.9-6.4-14.4C355.7,88.7,353.3,82.3,351.5,76.9z"/>
			</g>
		</g>
		<path class="st2" d="M470.2,138.4c0,0,18.7,1.5,20.5-15.3C490.7,123,485.3,138.2,470.2,138.4z"/>
		<path class="st2" d="M82.5,30.3c0,0-18.7-1.5-20.5,15.3C62,45.6,67.4,30.5,82.5,30.3z"/>
	</g>
</g>
<g id="Layer_3" class="st4">
	<g class="st5">
		<g>
			<g>
				<path class="st0" d="M520.7,145.3c-21.5,14.1-450.3,13.3-472.7,0C25.6,132,25.2,54.6,39.3,34.5c14.1-20,454.7-15.3,480.9-1.1
					C541,44.6,542.2,131.2,520.7,145.3z"/>
				<path class="st6" d="M514.7,141.3c-21.5,14.1-450.3,13.3-472.7,0C19.6,128,19.2,50.6,33.3,30.5c14.1-20,454.7-15.3,480.9-1.1
					C535,40.6,536.2,127.2,514.7,141.3z"/>
			</g>
			<path class="st2" d="M176.4,120.4c-1.3,0-2-0.9-2.6-1.8c-0.1-0.2-0.1-0.3-0.1-0.5v-0.8c0-0.1,0-0.2,0-0.3l0.7-2.6
				c0.5-1.8,1.1-3.7,1.6-5.5l1.7-5.9c1-3.5,2-7,3-10.5c0.2-0.6,0.5-1,0.8-1.4l0.1-0.2c0.2-0.2,0.4-0.4,0.6-0.6
				c0.1-0.1,0.1-0.1,0.2-0.2c0,0,34.5-34.5,48.4-48.4c2.3-2.3,4.9-3.8,7.9-4.5c1.1-0.3,2.2-0.4,3.3-0.4c7.4,0,13.9,5.4,15,12.6
				c0.8,4.7-0.4,8.9-3.4,12.5c-0.7,0.9-1.4,1.6-2.1,2.3l-12.7,12.7c-11.5,11.5-23,23-34.5,34.5c-1.3,1.3-2.6,2-4.3,2.5
				c-5.4,1.5-10.9,3-16.2,4.5l-6.1,1.7C177.2,120.3,176.8,120.4,176.4,120.4z M182.7,105.9c2.1,2.1,3.8,3.8,5.5,5.5
				c2.7-0.7,5.4-1.5,8.2-2.3l0.9-0.3c-1.3-2.7-2.6-5.4-3.9-8c0-0.1-0.1-0.1-0.1-0.1c-2.4-1.2-4.9-2.4-7.4-3.6l-0.6-0.3
				C184.4,99.8,183.6,102.9,182.7,105.9z M198.7,99.4c0.8,1.6,1.7,3.3,2.5,5l0.7,1.5l42.3-42.3l-4.9-4.9
				c-9.5,9.5-32.8,32.8-32.8,32.8c-2.6,2.6-5.1,5.2-7.7,7.7C198.7,99.3,198.7,99.3,198.7,99.4C198.7,99.3,198.7,99.3,198.7,99.4z
				 M194.6,95.3l40.6-40.6l-4.7-4.7l-42.2,42.2L194.6,95.3z M248.3,59.6c2.9-2.8,3.9-5.9,3.1-9.5c-0.9-4.1-3.5-6.6-7.7-7.5
				c-0.7-0.2-1.4-0.2-2.1-0.2c-2.6,0-5,1.1-7.2,3.4L248.3,59.6z"/>
			<path class="st2" d="M87.7,120.4c-1.3,0-2-0.9-2.6-1.8c-0.1-0.2-0.1-0.3-0.1-0.5v-0.8c0-0.1,0-0.2,0-0.3l0.7-2.6
				c0.5-1.8,1.1-3.7,1.6-5.5L89,103c1-3.5,2-7,3-10.5c0.2-0.6,0.5-1,0.8-1.4l0.1-0.2c0.2-0.2,0.4-0.4,0.6-0.6
				c0.1-0.1,0.1-0.1,0.2-0.2c0,0,34.5-34.5,48.4-48.4c2.3-2.3,4.9-3.8,7.9-4.5c1.1-0.3,2.2-0.4,3.3-0.4c7.4,0,13.9,5.4,15,12.6
				c0.8,4.7-0.4,8.9-3.4,12.5c-0.7,0.9-1.4,1.6-2.1,2.3l-12.7,12.7c-11.5,11.5-23,23-34.5,34.5c-1.3,1.3-2.6,2-4.3,2.5
				c-5.4,1.5-10.9,3-16.2,4.5l-6.1,1.7C88.5,120.3,88.1,120.4,87.7,120.4z M94.1,105.9c2.1,2.1,3.8,3.8,5.5,5.5
				c2.7-0.7,5.4-1.5,8.2-2.3l0.9-0.3c-1.3-2.7-2.6-5.4-3.9-8c0-0.1-0.1-0.1-0.1-0.1c-2.4-1.2-4.9-2.4-7.4-3.6l-0.6-0.3
				C95.8,99.8,94.9,102.9,94.1,105.9z M110.1,99.4c0.8,1.6,1.7,3.3,2.5,5l0.7,1.5l42.3-42.3l-4.9-4.9c-9.5,9.5-32.8,32.8-32.8,32.8
				c-2.6,2.6-5.1,5.2-7.7,7.7C110.1,99.3,110,99.3,110.1,99.4C110,99.3,110,99.3,110.1,99.4z M105.9,95.3l40.6-40.6l-4.7-4.7
				L99.7,92.2L105.9,95.3z M159.7,59.6c2.9-2.8,3.9-5.9,3.1-9.5c-0.9-4.1-3.5-6.6-7.7-7.5c-0.7-0.2-1.4-0.2-2.1-0.2
				c-2.6,0-5,1.1-7.2,3.4L159.7,59.6z"/>
			<text transform="matrix(1 0 0 1 274.3681 110.4692)" class="st2 st7 st8 st9">Medium</text>
		</g>
		<path class="st2" d="M54.5,29.2c0,0-18.7-1.5-20.5,15.3C34,44.5,39.4,29.4,54.5,29.2z"/>
		<path class="st2" d="M498.2,139.3c0,0,18.7,1.5,20.5-15.3C518.7,123.9,513.3,139.1,498.2,139.3z"/>
	</g>
</g>
<g id="Layer_1_1_" class="st4">
</g>
</svg>
