<?xml version="1.0" encoding="utf-8"?>
<!-- Generator: Adobe Illustrator 20.1.0, SVG Export Plug-In . SVG Version: 6.00 Build 0)  -->
<svg version="1.1" id="Layer_1" xmlns="http://www.w3.org/2000/svg" xmlns:xlink="http://www.w3.org/1999/xlink" x="0px" y="0px"
	 viewBox="0 0 50 50" style="enable-background:new 0 0 50 50;" xml:space="preserve">
<style type="text/css">
	.st0{fill:#343433;}
	.st1{clip-path:url(#SVGID_2_);fill:#F6921E;}
	.st2{fill:#CDCCCB;}
	.st3{fill:#FFFFFF;}
	.st4{fill:#F69220;}
	.st5{fill:#B56F29;}
</style>
<path class="st0" d="M35.6,17.8c0,0,6.1-9,5.4-10.8c-0.7-1.8-4.1,1-5.8-0.6c-1.7-1.6-1.6-3.8,0.6-4.3c2.2-0.5,8.8,3.1,8.8,4.1
	c0,1-8.1,11.6-8.1,11.6H35.6z"/>
<path d="M29.5,12.7c0,0,4.4-9.6,3.6-10.7c-0.8-1.1-8-1.1-8.5,0.9c-0.5,2,0.6,2.8,1.9,3c1.3,0.2,4-1.9,4.5-1.4
	c0.5,0.5-2.1,8.2-2.1,8.2H29.5z"/>
<g>
	<defs>
		<path id="SVGID_1_" d="M12.2,17c0,0,2.8,1.3,4.6,1.6c1.8,0.3,4.5-0.5,4.5-0.5l1.4-5.6c0,0,1.4-3.3,2.6-2.7
			c1.2,0.6,1.3,2.1,2.2,2.5c1.3,0.5,2.7-1.9,4.8-0.9c2.1,1,2,6.1,2.7,6.4c0.7,0.3,2-2,5.5-2.7c3.6-0.7,7,0.8,6.3,1
			c-2.6,0.6-5.1,2.2-4.8,2.8c0.2,0.5,2.7-0.1,4.8,0.8c2.1,0.9,2.6,2.7,2.1,2.5c-2.1-0.9-4.8-0.4-4.9,0c-0.1,0.4,2.2,0.8,3.5,2.5
			c0.9,1.1,1.2,3.4,1.1,3.3c-1.7-1.5-4.4-2.2-4.4-1.8c0,0.3,5.2,6.1,6.5,13.6c1.4,7.5,1.3,12.9,0,14.8c-1.3,1.8-15.5,6.6-21.5,5.1
			c-6-1.6-8.8-7.6-8-12.4c0.8-4.9,2.6-5.2,2.5-6.9c-0.1-1.8-2.3-3.1-2.3-3.1s-4,0.3-8.5-3.3c-2.9-2.4-6.5-9.8-6.5-9.8L12.2,17z"/>
	</defs>
	<clipPath id="SVGID_2_">
		<use xlink:href="#SVGID_1_"  style="overflow:visible;"/>
	</clipPath>
	<path class="st1" d="M52.7,54.4c-12.1,7.9-38.2,9.2-50.8,1.7C-10.7,48.6-11.9,15.4-4,4.1C4-7.2,36.7-6.2,51.5,1.8
		C63.2,8.2,64.8,46.5,52.7,54.4z"/>
</g>
<ellipse class="st2" cx="24.5" cy="15.6" rx="3.6" ry="3.6"/>
<ellipse transform="matrix(0.7646 -0.6446 0.6446 0.7646 -3.7883 18.3465)" cx="23.2" cy="14.4" rx="1" ry="0.6"/>
<ellipse class="st3" cx="28.3" cy="18.5" rx="4.6" ry="4.6"/>
<ellipse transform="matrix(0.7646 -0.6445 0.6445 0.7646 -4.4008 20.621)" cx="26" cy="16.3" rx="1.3" ry="0.7"/>
<path class="st4" d="M20.1,18.4c0,0-0.4-1.7,0.4-2c0.8-0.3,3.2,0.5,5.3,2.9c2.2,2.3,2.3,5.5,2.3,5.5L20.1,18.4z"/>
<path class="st4" d="M28,23.6c0,0,0.5-0.9,2-1.5c1.5-0.6,4.4,0.4,4.4,0.4L28,23.6z"/>
<path d="M21.6,37.2c0,0,6.7-0.2,10.2-2.1c4.7-2.5,5.6-5.1,5.2-6.6c-0.3-1.2-1.2-1.9-1.2-1.9s1.4,0.6,1.6,2.1c0.2,1.2-0.5,4.8-6,7.3
	c-3.8,1.7-9.1,1.9-9.1,1.9L21.6,37.2z"/>
<ellipse transform="matrix(0.7827 -0.6224 0.6224 0.7827 -11.2302 9.387)" cx="7.8" cy="20.8" rx="7.2" ry="6.5"/>
<path class="st5" d="M40.2,44.2c0,0-6.3,5-6.8,5.2c-1.1,0.5-2.1-1.6-3.1-0.9c-0.7,0.4-1.5,1.9-0.9,2.5c0.8,0.8,2.8-0.5,2.9,0.4
	c0.1,0.9-2.1,0.3-2.7,1.2c-0.5,0.8,0.5,2.6,1.7,2.2c1.2-0.5,1.4-2.6,1.9-2.5c0.5,0.1-0.5,1.9-0.1,2.6c0.5,0.8,1.6,1.2,2.6,0
	c1-1.4-1.1-2.9-0.6-3.6c0.5-0.7,5.7-5.9,5.7-5.9L40.2,44.2z"/>
<path class="st5" d="M21.6,44.9c0.1-0.4,0.5-0.3,0.5-0.3s2.4,3.5,3.1,3.4c0.7-0.1,1.2-1,2.2-0.6c1,0.4,1.2,2,0.5,2.7
	c-0.6,0.7-1.4-1-1.9-0.3c-0.5,0.6,1.5,1.7,1,2.6c-0.4,0.9-2.2,1.2-2.6,0.7c-0.4-0.4,0.2-2-0.5-2.3c-0.7-0.3-0.3,1.5-0.9,1.9
	c-0.6,0.3-2-0.2-2-1.5c0.1-1.3,1.6-1.9,1.6-2.5c0-0.6-1.1-2.5-1.1-2.5S21.4,45.3,21.6,44.9z"/>
<ellipse transform="matrix(0.7827 -0.6224 0.6224 0.7827 -10.0469 7.5546)" class="st0" cx="5.8" cy="18.2" rx="3.3" ry="1.9"/>
</svg>
