<?xml version="1.0" encoding="utf-8"?>
<!-- Generator: Adobe Illustrator 21.0.0, SVG Export Plug-In . SVG Version: 6.00 Build 0)  -->
<svg version="1.1" id="Layer_1" xmlns="http://www.w3.org/2000/svg" xmlns:xlink="http://www.w3.org/1999/xlink" x="0px" y="0px"
	 viewBox="0 0 138 132.4" style="enable-background:new 0 0 138 132.4;" xml:space="preserve">
<style type="text/css">
	.st0{fill:#808080;}
	.st1{fill:#FFFAFC;}
	.st2{fill:none;}
	.st3{fill:#ED2131;}
	.st4{fill:#29367C;}
	.st5{fill:#F9FCF8;}
</style>
<circle class="st0" cx="69.8" cy="63" r="61"/>
<circle class="st1" cx="66.8" cy="61" r="61"/>
<g>
	<path class="st2" d="M66.9,8.6C66.8,8.6,66.8,8.6,66.9,8.6c-0.1,0-0.1,0-0.1,0H66.9z"/>
	<path class="st3" d="M94.7,16.7c-8-5-17.3-8-27.4-8v8H94.7z"/>
	<path class="st1" d="M67.3,24.7h37.3c-2.9-3.1-6.3-5.8-9.9-8.1H67.3L67.3,24.7L67.3,24.7z"/>
	<path class="st3" d="M67.3,32.8h43.6c-1.9-2.9-4-5.6-6.3-8.1H67.3L67.3,32.8L67.3,32.8z"/>
	<path class="st1" d="M67.3,40.8h47.9c-1.2-2.8-2.6-5.5-4.2-8.1H67.4v8.1H67.3z"/>
	<path class="st3" d="M67.3,48.9h50.5c-0.7-2.8-1.5-5.5-2.6-8.1H67.3L67.3,48.9L67.3,48.9z"/>
	<path class="st1" d="M67.3,56.9H119c-0.2-2.8-0.6-5.4-1.2-8.1H67.3V56.9z"/>
	<path class="st3" d="M67.3,65H119c0.1-1.3,0.2-2.7,0.2-4c0-1.4-0.1-2.7-0.2-4H67.3V65z"/>
	<path class="st3" d="M18.5,81.1h96.7c1.1-2.6,1.9-5.3,2.6-8.1H15.9C16.5,75.8,17.4,78.5,18.5,81.1z"/>
	<path class="st1" d="M14.6,65c0.2,2.8,0.6,5.4,1.2,8.1h101.9c0.6-2.6,1-5.3,1.2-8.1H67.2H14.6z"/>
	<path class="st3" d="M29,97.2h75.5c2.4-2.5,4.5-5.2,6.3-8.1H22.6C24.5,92,26.7,94.7,29,97.2z"/>
	<path class="st1" d="M22.7,89.1h88.2c1.6-2.5,3.1-5.2,4.2-8.1H18.4C19.6,83.9,21.1,86.6,22.7,89.1z"/>
	<path class="st3" d="M66.8,113.3c10.3,0,19.8-3,27.9-8.1H38.9C47,110.4,56.5,113.3,66.8,113.3z"/>
	<path class="st1" d="M38.9,105.3h55.8c3.6-2.3,6.9-5,9.9-8.1H29C32,100.3,35.3,103,38.9,105.3z"/>
	<path class="st4" d="M40.5,15.7l0.4,1.3l-1.1-0.9c-1.5,0.9-3,1.9-4.4,3h0.8l-1.7,1.4l0.6,2.2l-1.7-1.4l-1.7,1.4l0.2-0.8
		c-1.1,0.9-2.1,1.9-3.1,3h1.6l-1.7,1.4l0.6,2.2l-1.7-1.4l-1.7,1.4l0.2-0.5c-0.7,0.9-1.4,1.8-2,2.7h0.6l-1.4,1.1
		c-0.1,0.1-0.2,0.3-0.3,0.4l0.6,2.1l-1.3-1c-2.5,4-4.5,8.3-5.9,13l0.4,1.5h2.1l-1.7,1.4l0.6,2.2L16.1,50l-0.9,0.8
		c-0.6,2.7-0.9,5.5-1,8.4h1.3l0.6-2.2l0.6,2.2h2.1l-1.7,1.4l0.6,2.2L16,61.4l-1.7,1.4l0.6-2.2L14,59.9c0,0.5,0,1,0,1.5
		c0,1.4,0.1,2.7,0.2,4h52.7v-8.1v-8.1v-8.1V33v-8.1v-8.1v-8c-0.1,0-0.3,0-0.4,0h-0.1C57.2,8.6,48.2,11.2,40.5,15.7z M61.4,13.4
		l0.6-2.2l0.6,2.2h2.1L63,14.8l0.6,2.2l-1.7-1.4L60.2,17l0.6-2.2l-1.7-1.4H61.4z M51.3,24.8h2.1l-1.7,1.4l0.6,2.2L50.6,27l-1.7,1.4
		l0.6-2.2l-1.7-1.4h2.1l0.6-2.2L51.3,24.8z M58,56.7l-1.7-1.4l-1.7,1.4l0.6-2.2l-1.7-1.4h2.1l0.6-2.2l0.6,2.2h2.1l-1.7,1.4L58,56.7z
		 M52.3,51l-1.7-1.4L48.9,51l0.6-2.2l-1.7-1.4h2.1l0.6-2.2l0.6,2.2h2.1l-1.7,1.4L52.3,51z M29.5,39.7l-1.7-1.4l-1.7,1.4l0.6-2.2
		L25,36.1h2.1l0.6-2.2l0.6,2.2h2.1l-1.7,1.4L29.5,39.7z M32.9,41.8l0.6-2.2l0.6,2.2h2.1l-1.7,1.4l0.6,2.2L33.4,44l-1.7,1.4l0.6-2.2
		l-1.7-1.4H32.9z M38.6,36.1l0.6-2.2l0.6,2.2h2.1l-1.7,1.4l0.6,2.2l-1.7-1.4l-1.7,1.4l0.6-2.2l-1.7-1.4H38.6z M32.9,53.2l0.6-2.2
		l0.6,2.2h2.1l-1.7,1.4l0.6,2.2l-1.7-1.4l-1.7,1.4l0.6-2.2l-1.7-1.4H32.9z M38.2,48.8l-1.7-1.4h2.1l0.6-2.2l0.6,2.2h2.1l-1.7,1.4
		l0.6,2.2l-1.7-1.4L37.4,51L38.2,48.8z M46.6,56.7l-1.7-1.4l-1.7,1.4l0.6-2.2l-1.7-1.4h2.1l0.6-2.2l0.6,2.2h2.1l-1.7,1.4L46.6,56.7z
		 M45.6,41.8h2.1L46,43.2l0.6,2.2L44.9,44l-1.7,1.4l0.6-2.2l-1.7-1.4h2.1l0.6-2.2L45.6,41.8z M52.3,39.7l-1.7-1.4l-1.7,1.4l0.6-2.2
		l-1.7-1.4h2.1l0.6-2.2l0.6,2.2h2.1l-1.7,1.4L52.3,39.7z M46.6,34l-1.7-1.4L43.2,34l0.6-2.2l-1.7-1.4h2.1l0.6-2.2l0.6,2.2h2.1
		l-1.7,1.4L46.6,34z M46.6,22.6l-1.7-1.4l-1.7,1.4l0.6-2.2L42.1,19h2.1l0.6-2.2l0.6,2.2h2.1L46,20.4L46.6,22.6z M55.7,19l0.6-2.2
		l0.6,2.2H59l-1.7,1.4l0.6,2.2l-1.7-1.4l-1.7,1.4l0.6-2.2L53.4,19H55.7z M47.9,13.4H50l0.6-2.2l0.6,2.2h2.1l-1.7,1.4l0.6,2.2
		l-1.7-1.4L48.8,17l0.6-2.2L47.9,13.4z M39.2,22.6l0.6,2.2h2.1l-1.7,1.4l0.6,2.2L39.1,27l-1.7,1.4l0.6-2.2l-1.7-1.4h2.1L39.2,22.6z
		 M30.8,30.4h2.1l0.6-2.2l0.6,2.2h2.1l-1.7,1.4l0.6,2.2l-1.7-1.4L31.7,34l0.6-2.2L30.8,30.4z M22.1,39.6l0.6,2.2h2.1l-1.7,1.4
		l0.6,2.2L22,44l-1.7,1.4l0.6-2.2l-1.7-1.4h2.1L22.1,39.6z M25.1,47.5h2.1l0.6-2.2l0.6,2.2h2.1l-1.7,1.4l0.6,2.2l-1.7-1.4L26,51.1
		l0.6-2.2L25.1,47.5z M23.8,56.7l-1.7-1.4l-1.7,1.4l0.6-2.2l-1.7-1.4h2.1l0.6-2.2l0.6,2.2h2.1L23,54.5L23.8,56.7z M29.5,62.4
		L27.8,61l-1.7,1.4l0.6-2.2L25,58.8h2.1l0.6-2.2l0.6,2.2h2.1l-1.7,1.4L29.5,62.4z M40.9,62.4L39.2,61l-1.7,1.4l0.6-2.2l-1.7-1.4h2.1
		l0.6-2.2l0.6,2.2h2.1l-1.7,1.4L40.9,62.4z M52.3,62.4L50.6,61l-1.7,1.4l0.6-2.2l-1.7-1.4h2.1l0.6-2.2l0.6,2.2h2.1l-1.7,1.4
		L52.3,62.4z M62.7,58.8h2.1l-1.7,1.4l0.6,2.2L62,61l-1.7,1.4l0.6-2.2l-1.7-1.4h2.1l0.6-2.2L62.7,58.8z M63.7,51L62,49.6L60.3,51
		l0.6-2.2l-1.7-1.4h2.1l0.6-2.2l0.6,2.2h2.1l-1.7,1.4L63.7,51z M57,41.8h2.1l-1.7,1.4l0.6,2.2L56.3,44l-1.7,1.4l0.6-2.2l-1.7-1.4
		h2.1l0.6-2.2L57,41.8z M63.7,39.7L62,38.3l-1.7,1.4l0.6-2.2l-1.7-1.4h2.1l0.6-2.2l0.6,2.2h2.1l-1.7,1.4L63.7,39.7z M58,34l-1.7-1.4
		L54.6,34l0.6-2.2l-1.7-1.4h2.1l0.6-2.2l0.6,2.2h2.1l-1.7,1.4L58,34z M62.7,24.8h2.1l-1.7,1.4l0.6,2.2L62,27l-1.7,1.4l0.6-2.2
		l-1.7-1.4h2.1l0.6-2.2L62.7,24.8z"/>
	<polygon class="st5" points="60.3,16.9 62,15.6 63.7,16.9 63.1,14.7 64.8,13.4 62.7,13.4 62,11.2 61.4,13.4 59.3,13.4 61,14.7 	"/>
	<polygon class="st5" points="48.9,16.9 50.6,15.6 52.3,16.9 51.7,14.7 53.4,13.4 51.3,13.4 50.6,11.2 50,13.4 47.9,13.4 49.6,14.7 
			"/>
	<path class="st5" d="M40.9,16.9l-0.4-1.3c-0.2,0.1-0.5,0.3-0.7,0.4L40.9,16.9z"/>
	<polygon class="st5" points="54.6,22.6 56.3,21.2 58,22.6 57.4,20.4 59.1,19 57,19 56.3,16.8 55.7,19 53.6,19 55.3,20.4 	"/>
	<polygon class="st5" points="45.6,19 44.9,16.8 44.3,19 42.2,19 43.9,20.4 43.3,22.6 44.9,21.2 46.6,22.6 46,20.4 47.7,19 	"/>
	<path class="st5" d="M33.5,21.2l1.7,1.4l-0.6-2.2l1.7-1.4h-0.8c-1.2,0.9-2.3,1.8-3.4,2.8l-0.2,0.8L33.5,21.2z"/>
	<polygon class="st5" points="61.4,24.8 59.3,24.8 61,26.1 60.3,28.3 62,26.9 63.7,28.3 63.1,26.1 64.8,24.8 62.7,24.8 62,22.6 	"/>
	<polygon class="st5" points="50,24.8 47.9,24.8 49.6,26.1 48.9,28.3 50.6,26.9 52.3,28.3 51.7,26.1 53.4,24.8 51.3,24.8 50.6,22.6 
			"/>
	<polygon class="st5" points="36.5,24.8 38.2,26.1 37.6,28.3 39.2,26.9 40.9,28.3 40.3,26.1 42,24.8 39.9,24.8 39.2,22.6 38.6,24.8 
			"/>
	<path class="st5" d="M27.8,26.9l1.7,1.4l-0.6-2.2l1.7-1.4H29c-0.9,1-1.8,2-2.7,3l-0.2,0.5L27.8,26.9z"/>
	<polygon class="st5" points="59.1,30.4 57,30.4 56.3,28.2 55.7,30.4 53.6,30.4 55.3,31.8 54.6,34 56.3,32.6 58,34 57.4,31.8 	"/>
	<polygon class="st5" points="47.7,30.4 45.6,30.4 44.9,28.2 44.3,30.4 42.2,30.4 43.9,31.8 43.3,34 44.9,32.6 46.6,34 46,31.8 	"/>
	<polygon class="st5" points="31.9,34 33.5,32.6 35.2,34 34.6,31.8 36.3,30.4 34.2,30.4 33.5,28.2 32.9,30.4 30.8,30.4 32.5,31.8 	
		"/>
	<path class="st5" d="M24.3,30.4c-0.3,0.4-0.5,0.7-0.8,1.1l1.4-1.1H24.3z"/>
	<path class="st5" d="M23.2,31.9c-0.2,0.3-0.4,0.7-0.7,1l1.3,1L23.2,31.9z"/>
	<polygon class="st5" points="62.7,36.1 62,33.9 61.4,36.1 59.3,36.1 61,37.5 60.3,39.7 62,38.3 63.7,39.7 63.1,37.5 64.8,36.1 	"/>
	<polygon class="st5" points="51.3,36.1 50.6,33.9 50,36.1 47.9,36.1 49.6,37.5 48.9,39.7 50.6,38.3 52.3,39.7 51.7,37.5 53.4,36.1 
			"/>
	<polygon class="st5" points="37.6,39.7 39.2,38.3 40.9,39.7 40.3,37.5 42,36.1 39.9,36.1 39.2,33.9 38.6,36.1 36.5,36.1 38.2,37.5 
			"/>
	<polygon class="st5" points="28.5,36.1 27.8,33.9 27.2,36.1 25.1,36.1 26.8,37.5 26.2,39.7 27.8,38.3 29.5,39.7 28.9,37.5 
		30.6,36.1 	"/>
	<polygon class="st5" points="55.7,41.8 53.6,41.8 55.3,43.1 54.6,45.3 56.3,43.9 58,45.3 57.4,43.1 59.1,41.8 57,41.8 56.3,39.6 	
		"/>
	<polygon class="st5" points="44.3,41.8 42.2,41.8 43.9,43.1 43.3,45.3 44.9,43.9 46.6,45.3 46,43.1 47.7,41.8 45.6,41.8 44.9,39.6 
			"/>
	<polygon class="st5" points="31.9,45.3 33.5,43.9 35.2,45.3 34.6,43.1 36.3,41.8 34.2,41.8 33.5,39.6 32.9,41.8 30.8,41.8 
		32.5,43.1 	"/>
	<polygon class="st5" points="19.4,41.8 21.1,43.1 20.5,45.3 22.1,43.9 23.8,45.3 23.2,43.1 24.9,41.8 22.8,41.8 22.1,39.6 
		21.5,41.8 	"/>
	<polygon class="st5" points="64.8,47.5 62.7,47.5 62,45.3 61.4,47.5 59.3,47.5 61,48.8 60.3,51 62,49.7 63.7,51 63.1,48.8 	"/>
	<polygon class="st5" points="51.3,47.5 50.6,45.3 50,47.5 47.9,47.5 49.6,48.8 48.9,51 50.6,49.7 52.3,51 51.7,48.8 53.4,47.5 	"/>
	<polygon class="st5" points="40.9,51 40.3,48.8 42,47.5 39.9,47.5 39.2,45.3 38.6,47.5 36.5,47.5 38.2,48.8 37.6,51 39.2,49.7 	"/>
	<polygon class="st5" points="26.2,51 27.8,49.7 29.5,51 28.9,48.8 30.6,47.5 28.5,47.5 27.8,45.3 27.2,47.5 25.1,47.5 26.8,48.8 	
		"/>
	<path class="st5" d="M18.1,51l-0.6-2.2l1.7-1.4h-2.1l-0.4-1.5c-0.4,1.5-0.8,3-1.1,4.5l0.9-0.8L18.1,51z"/>
	<polygon class="st5" points="61.4,58.8 59.3,58.8 61,60.2 60.3,62.4 62,61 63.7,62.4 63.1,60.2 64.8,58.8 62.7,58.8 62,56.7 	"/>
	<polygon class="st5" points="51.3,58.8 50.6,56.7 50,58.8 47.9,58.8 49.6,60.2 48.9,62.4 50.6,61 52.3,62.4 51.7,60.2 53.4,58.8 	
		"/>
	<polygon class="st5" points="39.9,58.8 39.2,56.7 38.6,58.8 36.5,58.8 38.2,60.2 37.6,62.4 39.2,61 40.9,62.4 40.3,60.2 42,58.8 	
		"/>
	<polygon class="st5" points="28.5,58.8 27.8,56.7 27.2,58.8 25.1,58.8 26.8,60.2 26.2,62.4 27.8,61 29.5,62.4 28.9,60.2 30.6,58.8 
			"/>
	<path class="st5" d="M14.8,62.4l1.7-1.4l1.7,1.4l-0.6-2.2l1.7-1.4h-2.1l-0.6-2.2L16,58.8h-1.3c0,0.2,0,0.4,0,0.6l0.9,0.7L14.8,62.4
		z"/>
	<polygon class="st5" points="57,53.2 56.3,51 55.7,53.2 53.6,53.2 55.3,54.5 54.6,56.7 56.3,55.4 58,56.7 57.4,54.5 59.1,53.2 	"/>
	<polygon class="st5" points="45.6,53.2 44.9,51 44.3,53.2 42.2,53.2 43.9,54.5 43.3,56.7 44.9,55.4 46.6,56.7 46,54.5 47.7,53.2 	
		"/>
	<polygon class="st5" points="31.9,56.7 33.5,55.4 35.2,56.7 34.6,54.5 36.3,53.2 34.2,53.2 33.5,51 32.9,53.2 30.8,53.2 32.5,54.5 
			"/>
	<polygon class="st5" points="22.8,53.2 22.1,51 21.5,53.2 19.4,53.2 21.1,54.5 20.5,56.7 22.1,55.4 23.8,56.7 23.2,54.5 24.9,53.2 
			"/>
</g>
</svg>
