<?xml version="1.0" encoding="utf-8"?>
<!-- Generator: Adobe Illustrator 21.0.0, SVG Export Plug-In . SVG Version: 6.00 Build 0)  -->
<svg version="1.1" id="Layer_1" xmlns="http://www.w3.org/2000/svg" xmlns:xlink="http://www.w3.org/1999/xlink" x="0px" y="0px"
	 viewBox="0 0 621 85" style="enable-background:new 0 0 621 85;" xml:space="preserve">
<style type="text/css">
	.st0{fill:#113B64;}
	.st1{fill:none;stroke:#113B63;stroke-width:1.5;stroke-miterlimit:10;}
	.st2{fill:none;stroke:#113B63;stroke-width:2.75;stroke-miterlimit:10;}
	.st3{fill:#113B63;}
	.st4{fill:none;stroke:#113B64;stroke-width:1.5;stroke-miterlimit:10;}
</style>
<g>
	<g>
		<path class="st0" d="M112.5,19.1h-5.3v-3.6h14.6v3.6h-5.3v14.8h-4.1V19.1z"/>
		<path class="st0" d="M122.9,24.7c0-1.5,0.2-2.8,0.7-4c0.5-1.2,1.2-2.2,2.1-3.1c0.9-0.8,1.9-1.5,3.1-1.9c1.2-0.5,2.5-0.7,4-0.7
			c1.4,0,2.8,0.2,4,0.7c1.2,0.5,2.3,1.1,3.1,1.9c0.9,0.8,1.6,1.9,2.1,3.1c0.5,1.2,0.7,2.5,0.7,4s-0.2,2.8-0.7,4s-1.2,2.2-2.1,3.1
			c-0.9,0.8-1.9,1.5-3.1,1.9c-1.2,0.5-2.5,0.7-4,0.7c-1.4,0-2.8-0.2-4-0.7c-1.2-0.5-2.3-1.1-3.1-1.9c-0.9-0.8-1.6-1.9-2.1-3.1
			S122.9,26.2,122.9,24.7z M127.1,24.7c0,0.9,0.1,1.7,0.4,2.4c0.3,0.7,0.7,1.3,1.2,1.9c0.5,0.5,1.1,0.9,1.8,1.2s1.5,0.4,2.4,0.4
			c0.9,0,1.7-0.1,2.4-0.4s1.3-0.7,1.8-1.2c0.5-0.5,0.9-1.2,1.2-1.9c0.3-0.7,0.4-1.5,0.4-2.4c0-0.8-0.1-1.6-0.4-2.4
			c-0.3-0.7-0.7-1.4-1.2-1.9s-1.1-0.9-1.8-1.2c-0.7-0.3-1.5-0.4-2.4-0.4c-0.9,0-1.7,0.1-2.4,0.4c-0.7,0.3-1.3,0.7-1.8,1.2
			c-0.5,0.5-0.9,1.2-1.2,1.9C127.3,23.1,127.1,23.8,127.1,24.7z"/>
		<path class="st0" d="M161.1,26.8c0,1.1-0.2,2.1-0.5,3c-0.3,0.9-0.8,1.7-1.5,2.4c-0.6,0.7-1.5,1.2-2.4,1.6c-1,0.4-2.1,0.6-3.4,0.6
			c-1.3,0-2.4-0.2-3.4-0.6c-1-0.4-1.8-0.9-2.4-1.6s-1.1-1.5-1.5-2.4c-0.3-0.9-0.5-1.9-0.5-3V15.5h4.1v11.2c0,0.6,0.1,1.1,0.3,1.6
			c0.2,0.5,0.4,0.9,0.8,1.3s0.7,0.6,1.2,0.8c0.5,0.2,1,0.3,1.5,0.3c0.5,0,1-0.1,1.5-0.3c0.5-0.2,0.8-0.5,1.2-0.8s0.6-0.8,0.8-1.3
			c0.2-0.5,0.3-1,0.3-1.6V15.5h4.1V26.8z"/>
		<path class="st0" d="M164.3,15.5h7.1c0.9,0,1.8,0.1,2.7,0.3c0.8,0.2,1.6,0.5,2.2,0.9c0.6,0.4,1.1,1,1.5,1.7
			c0.4,0.7,0.6,1.6,0.6,2.7c0,1.3-0.3,2.4-1,3.3s-1.7,1.5-3,1.7l4.7,7.8h-4.9l-3.8-7.4h-2v7.4h-4.1V15.5z M168.3,23.1h2.4
			c0.4,0,0.7,0,1.2,0c0.4,0,0.8-0.1,1.1-0.2s0.6-0.3,0.8-0.6c0.2-0.3,0.3-0.7,0.3-1.2c0-0.5-0.1-0.8-0.3-1.1
			c-0.2-0.3-0.4-0.5-0.7-0.6c-0.3-0.1-0.6-0.2-1-0.3c-0.4-0.1-0.8-0.1-1.1-0.1h-2.7V23.1z"/>
		<path class="st0" d="M180.1,24.7c0-1.5,0.2-2.8,0.7-4c0.5-1.2,1.2-2.2,2.1-3.1c0.9-0.8,1.9-1.5,3.1-1.9c1.2-0.5,2.5-0.7,4-0.7
			c1.4,0,2.8,0.2,4,0.7c1.2,0.5,2.3,1.1,3.1,1.9c0.9,0.8,1.6,1.9,2.1,3.1c0.5,1.2,0.7,2.5,0.7,4s-0.2,2.8-0.7,4s-1.2,2.2-2.1,3.1
			c-0.9,0.8-1.9,1.5-3.1,1.9c-1.2,0.5-2.5,0.7-4,0.7c-1.4,0-2.8-0.2-4-0.7c-1.2-0.5-2.3-1.1-3.1-1.9c-0.9-0.8-1.6-1.9-2.1-3.1
			S180.1,26.2,180.1,24.7z M184.4,24.7c0,0.9,0.1,1.7,0.4,2.4c0.3,0.7,0.7,1.3,1.2,1.9c0.5,0.5,1.1,0.9,1.8,1.2s1.5,0.4,2.4,0.4
			c0.9,0,1.7-0.1,2.4-0.4s1.3-0.7,1.8-1.2c0.5-0.5,0.9-1.2,1.2-1.9c0.3-0.7,0.4-1.5,0.4-2.4c0-0.8-0.1-1.6-0.4-2.4
			c-0.3-0.7-0.7-1.4-1.2-1.9s-1.1-0.9-1.8-1.2c-0.7-0.3-1.5-0.4-2.4-0.4c-0.9,0-1.7,0.1-2.4,0.4c-0.7,0.3-1.3,0.7-1.8,1.2
			c-0.5,0.5-0.9,1.2-1.2,1.9C184.5,23.1,184.4,23.8,184.4,24.7z"/>
		<path class="st0" d="M223.5,20.3c-0.4-0.5-0.9-0.9-1.5-1.1c-0.6-0.3-1.3-0.4-2-0.4s-1.5,0.1-2.1,0.4c-0.6,0.3-1.2,0.7-1.7,1.2
			c-0.5,0.5-0.8,1.2-1.1,1.9c-0.3,0.7-0.4,1.5-0.4,2.4c0,0.9,0.1,1.7,0.4,2.4c0.3,0.7,0.6,1.3,1.1,1.9c0.5,0.5,1,0.9,1.7,1.2
			s1.3,0.4,2,0.4c0.8,0,1.6-0.2,2.2-0.5s1.2-0.8,1.6-1.5l3.4,2.5c-0.8,1.1-1.8,1.9-3,2.4c-1.2,0.5-2.4,0.8-3.7,0.8
			c-1.4,0-2.8-0.2-4-0.7c-1.2-0.5-2.3-1.1-3.1-1.9c-0.9-0.8-1.6-1.9-2.1-3.1s-0.7-2.5-0.7-4s0.2-2.8,0.7-4c0.5-1.2,1.2-2.2,2.1-3.1
			c0.9-0.8,1.9-1.5,3.1-1.9c1.2-0.5,2.5-0.7,4-0.7c0.5,0,1.1,0,1.6,0.1c0.6,0.1,1.1,0.2,1.7,0.5c0.5,0.2,1.1,0.5,1.6,0.8
			s1,0.8,1.4,1.3L223.5,20.3z"/>
		<path class="st0" d="M228.3,24.7c0-1.5,0.2-2.8,0.7-4c0.5-1.2,1.2-2.2,2.1-3.1c0.9-0.8,1.9-1.5,3.1-1.9c1.2-0.5,2.5-0.7,4-0.7
			c1.4,0,2.8,0.2,4,0.7c1.2,0.5,2.3,1.1,3.1,1.9c0.9,0.8,1.6,1.9,2.1,3.1c0.5,1.2,0.7,2.5,0.7,4s-0.2,2.8-0.7,4s-1.2,2.2-2.1,3.1
			c-0.9,0.8-1.9,1.5-3.1,1.9c-1.2,0.5-2.5,0.7-4,0.7c-1.4,0-2.8-0.2-4-0.7c-1.2-0.5-2.3-1.1-3.1-1.9c-0.9-0.8-1.6-1.9-2.1-3.1
			S228.3,26.2,228.3,24.7z M232.5,24.7c0,0.9,0.1,1.7,0.4,2.4c0.3,0.7,0.7,1.3,1.2,1.9c0.5,0.5,1.1,0.9,1.8,1.2s1.5,0.4,2.4,0.4
			c0.9,0,1.7-0.1,2.4-0.4s1.3-0.7,1.8-1.2c0.5-0.5,0.9-1.2,1.2-1.9c0.3-0.7,0.4-1.5,0.4-2.4c0-0.8-0.1-1.6-0.4-2.4
			c-0.3-0.7-0.7-1.4-1.2-1.9s-1.1-0.9-1.8-1.2c-0.7-0.3-1.5-0.4-2.4-0.4c-0.9,0-1.7,0.1-2.4,0.4c-0.7,0.3-1.3,0.7-1.8,1.2
			c-0.5,0.5-0.9,1.2-1.2,1.9C232.7,23.1,232.5,23.8,232.5,24.7z"/>
		<path class="st0" d="M251.1,15.5h4.1v14.7h7.5v3.7h-11.6V15.5z"/>
		<path class="st0" d="M265.6,15.5h4.1v14.7h7.5v3.7h-11.6V15.5z"/>
		<path class="st0" d="M280.1,15.5h12.5v3.7h-8.4v3.4h8v3.7h-8v3.7h8.9v3.7h-13V15.5z"/>
		<path class="st0" d="M313,32.6c-1.2,0.6-2.4,1.1-3.7,1.4c-1.3,0.3-2.6,0.4-4,0.4c-1.4,0-2.8-0.2-4-0.7c-1.2-0.5-2.3-1.1-3.1-1.9
			c-0.9-0.8-1.6-1.9-2.1-3.1s-0.7-2.5-0.7-4s0.2-2.8,0.7-4c0.5-1.2,1.2-2.2,2.1-3.1c0.9-0.8,1.9-1.5,3.1-1.9c1.2-0.5,2.5-0.7,4-0.7
			c1.5,0,2.8,0.2,4.1,0.5c1.2,0.4,2.3,1,3.3,1.8l-2.9,3.1c-0.6-0.6-1.2-1-1.9-1.3c-0.7-0.3-1.6-0.4-2.6-0.4c-0.9,0-1.7,0.1-2.4,0.4
			c-0.7,0.3-1.3,0.7-1.8,1.2c-0.5,0.5-0.9,1.2-1.2,1.9c-0.3,0.7-0.4,1.5-0.4,2.4c0,0.9,0.1,1.7,0.4,2.4c0.3,0.7,0.7,1.3,1.2,1.9
			c0.5,0.5,1.1,0.9,1.8,1.2c0.7,0.3,1.5,0.4,2.4,0.4c0.9,0,1.6-0.1,2.3-0.3s1.2-0.4,1.5-0.6v-3h-3.3V23h7.2V32.6z"/>
		<path class="st0" d="M316.1,15.5h12.5v3.7h-8.5v3.4h8v3.7h-8v3.7h8.9v3.7h-13V15.5z"/>
		<path class="st0" d="M125.6,65.8c-1.2,0.6-2.4,1.1-3.7,1.4c-1.3,0.3-2.6,0.4-4,0.4c-1.4,0-2.8-0.2-4-0.7s-2.3-1.1-3.1-1.9
			c-0.9-0.8-1.6-1.9-2.1-3.1s-0.7-2.5-0.7-4c0-1.5,0.2-2.8,0.7-4s1.2-2.2,2.1-3.1c0.9-0.8,1.9-1.5,3.1-1.9c1.2-0.5,2.5-0.7,4-0.7
			c1.5,0,2.8,0.2,4.1,0.5s2.3,1,3.3,1.8l-2.9,3.1c-0.6-0.6-1.2-1-1.9-1.3c-0.7-0.3-1.6-0.4-2.6-0.4c-0.9,0-1.7,0.1-2.4,0.4
			c-0.7,0.3-1.3,0.7-1.8,1.2c-0.5,0.5-0.9,1.2-1.2,1.9c-0.3,0.7-0.4,1.5-0.4,2.4c0,0.9,0.1,1.7,0.4,2.4c0.3,0.7,0.7,1.3,1.2,1.9
			c0.5,0.5,1.1,0.9,1.8,1.2s1.5,0.4,2.4,0.4c0.9,0,1.6-0.1,2.3-0.3c0.6-0.2,1.2-0.4,1.5-0.6v-3h-3.3v-3.7h7.2V65.8z"/>
		<path class="st0" d="M129.7,48.7h7.1c0.9,0,1.8,0.1,2.7,0.3c0.8,0.2,1.6,0.5,2.2,0.9s1.1,1,1.5,1.7s0.6,1.6,0.6,2.7
			c0,1.3-0.3,2.4-1,3.3s-1.7,1.5-3,1.7l4.7,7.8h-4.9l-3.8-7.4h-2v7.4h-4.1V48.7z M133.8,56.3h2.4c0.4,0,0.7,0,1.2,0s0.8-0.1,1.1-0.2
			c0.3-0.1,0.6-0.3,0.8-0.6c0.2-0.3,0.3-0.7,0.3-1.2c0-0.5-0.1-0.8-0.3-1.1c-0.2-0.3-0.4-0.5-0.7-0.6s-0.6-0.2-1-0.3
			c-0.4-0.1-0.8-0.1-1.1-0.1h-2.7V56.3z"/>
		<path class="st0" d="M153.2,48.7h3.4l8,18.4h-4.6l-1.6-3.9h-7.1l-1.5,3.9h-4.5L153.2,48.7z M154.7,54l-2.2,5.7h4.5L154.7,54z"/>
		<path class="st0" d="M166.9,48.7h6.1c1.5,0,2.9,0.2,4.2,0.5s2.5,0.9,3.5,1.6c1,0.7,1.8,1.7,2.4,2.9c0.6,1.2,0.9,2.6,0.9,4.3
			c0,1.5-0.3,2.8-0.8,3.9c-0.6,1.1-1.3,2.1-2.3,2.9c-1,0.8-2.1,1.4-3.3,1.8s-2.6,0.6-3.9,0.6h-6.6V48.7z M170.9,63.4h2.1
			c0.9,0,1.8-0.1,2.6-0.3c0.8-0.2,1.5-0.5,2.1-0.9c0.6-0.4,1.1-1,1.4-1.7c0.3-0.7,0.5-1.6,0.5-2.6c0-0.9-0.2-1.7-0.5-2.4
			s-0.8-1.2-1.4-1.7c-0.6-0.4-1.2-0.8-2-1s-1.6-0.3-2.4-0.3h-2.4V63.4z"/>
		<path class="st0" d="M202.1,60c0,1.1-0.2,2.1-0.5,3c-0.3,0.9-0.8,1.7-1.5,2.4c-0.6,0.7-1.5,1.2-2.4,1.6c-1,0.4-2.1,0.6-3.4,0.6
			c-1.3,0-2.4-0.2-3.4-0.6c-1-0.4-1.8-0.9-2.4-1.6c-0.7-0.7-1.1-1.5-1.5-2.4c-0.3-0.9-0.5-1.9-0.5-3V48.7h4.1v11.2
			c0,0.6,0.1,1.1,0.3,1.6c0.2,0.5,0.4,0.9,0.8,1.3c0.3,0.4,0.7,0.6,1.2,0.8c0.5,0.2,1,0.3,1.5,0.3c0.5,0,1-0.1,1.5-0.3
			c0.5-0.2,0.8-0.5,1.2-0.8c0.3-0.4,0.6-0.8,0.8-1.3c0.2-0.5,0.3-1,0.3-1.6V48.7h4.1V60z"/>
		<path class="st0" d="M210.9,48.7h3.4l8,18.4h-4.6l-1.6-3.9H209l-1.5,3.9h-4.5L210.9,48.7z M212.5,54l-2.2,5.7h4.5L212.5,54z"/>
		<path class="st0" d="M226.8,52.3h-5.3v-3.6h14.6v3.6h-5.3v14.8h-4.1V52.3z"/>
		<path class="st0" d="M238.9,48.7h12.5v3.7h-8.5v3.4h8v3.7h-8v3.7h8.9v3.7h-13V48.7z"/>
		<path class="st0" d="M272.9,53.2c-0.3-0.4-0.8-0.7-1.3-0.9S270.5,52,270,52c-0.3,0-0.6,0-0.9,0.1c-0.3,0.1-0.6,0.2-0.9,0.3
			c-0.3,0.1-0.5,0.3-0.7,0.6c-0.2,0.2-0.3,0.5-0.3,0.9c0,0.6,0.2,1,0.6,1.3s0.9,0.5,1.6,0.8s1.3,0.4,2,0.6s1.4,0.5,2,0.9
			c0.6,0.4,1.2,0.9,1.6,1.5c0.4,0.6,0.6,1.5,0.6,2.6c0,1-0.2,1.9-0.6,2.7c-0.4,0.8-0.9,1.4-1.5,1.9c-0.7,0.5-1.4,0.9-2.3,1.1
			c-0.9,0.2-1.8,0.4-2.7,0.4c-1.2,0-2.3-0.2-3.3-0.5c-1-0.4-2-1-2.9-1.8l2.9-3.2c0.4,0.6,0.9,1,1.6,1.3c0.6,0.3,1.3,0.5,2,0.5
			c0.3,0,0.7,0,1-0.1c0.3-0.1,0.6-0.2,0.9-0.4c0.3-0.2,0.5-0.4,0.6-0.6c0.2-0.2,0.2-0.5,0.2-0.9c0-0.6-0.2-1-0.6-1.3
			c-0.4-0.3-1-0.6-1.6-0.8c-0.6-0.2-1.3-0.5-2.1-0.7c-0.7-0.2-1.4-0.5-2.1-0.9c-0.6-0.4-1.2-0.9-1.6-1.5s-0.6-1.4-0.6-2.5
			c0-1,0.2-1.9,0.6-2.6c0.4-0.7,0.9-1.4,1.6-1.9c0.6-0.5,1.4-0.9,2.2-1.1c0.8-0.3,1.7-0.4,2.6-0.4c1,0,2,0.1,3,0.4s1.8,0.8,2.6,1.5
			L272.9,53.2z"/>
		<path class="st0" d="M290.8,53.5c-0.4-0.5-0.9-0.9-1.5-1.1s-1.3-0.4-2-0.4c-0.8,0-1.5,0.1-2.1,0.4c-0.6,0.3-1.2,0.7-1.7,1.2
			c-0.5,0.5-0.8,1.2-1.1,1.9c-0.3,0.7-0.4,1.5-0.4,2.4c0,0.9,0.1,1.7,0.4,2.4c0.3,0.7,0.6,1.3,1.1,1.9c0.5,0.5,1,0.9,1.7,1.2
			s1.3,0.4,2,0.4c0.8,0,1.6-0.2,2.2-0.5c0.6-0.3,1.2-0.8,1.6-1.5l3.4,2.5c-0.8,1.1-1.8,1.9-3,2.4c-1.2,0.5-2.4,0.8-3.7,0.8
			c-1.4,0-2.8-0.2-4-0.7s-2.3-1.1-3.1-1.9c-0.9-0.8-1.6-1.9-2.1-3.1s-0.7-2.5-0.7-4c0-1.5,0.2-2.8,0.7-4s1.2-2.2,2.1-3.1
			c0.9-0.8,1.9-1.5,3.1-1.9c1.2-0.5,2.5-0.7,4-0.7c0.5,0,1.1,0,1.6,0.1c0.6,0.1,1.1,0.2,1.7,0.5s1.1,0.5,1.6,0.8
			c0.5,0.3,1,0.8,1.4,1.3L290.8,53.5z"/>
		<path class="st0" d="M297.1,48.7h4.1v6.9h7.9v-6.9h4.1v18.4H309v-8h-7.9v8h-4.1V48.7z"/>
		<path class="st0" d="M316.4,57.9c0-1.5,0.2-2.8,0.7-4s1.2-2.2,2.1-3.1c0.9-0.8,1.9-1.5,3.1-1.9c1.2-0.5,2.5-0.7,4-0.7
			s2.8,0.2,4,0.7c1.2,0.5,2.3,1.1,3.1,1.9c0.9,0.8,1.6,1.9,2.1,3.1s0.7,2.5,0.7,4c0,1.5-0.2,2.8-0.7,4s-1.2,2.2-2.1,3.1
			c-0.9,0.8-1.9,1.5-3.1,1.9c-1.2,0.5-2.5,0.7-4,0.7s-2.8-0.2-4-0.7s-2.3-1.1-3.1-1.9c-0.9-0.8-1.6-1.9-2.1-3.1
			S316.4,59.4,316.4,57.9z M320.6,57.9c0,0.9,0.1,1.7,0.4,2.4c0.3,0.7,0.7,1.3,1.2,1.9c0.5,0.5,1.1,0.9,1.8,1.2
			c0.7,0.3,1.5,0.4,2.4,0.4s1.7-0.1,2.4-0.4c0.7-0.3,1.3-0.7,1.8-1.2c0.5-0.5,0.9-1.2,1.2-1.9c0.3-0.7,0.4-1.5,0.4-2.4
			c0-0.8-0.1-1.6-0.4-2.4c-0.3-0.7-0.7-1.4-1.2-1.9c-0.5-0.5-1.1-0.9-1.8-1.2c-0.7-0.3-1.5-0.4-2.4-0.4s-1.7,0.1-2.4,0.4
			c-0.7,0.3-1.3,0.7-1.8,1.2c-0.5,0.5-0.9,1.2-1.2,1.9C320.7,56.3,320.6,57,320.6,57.9z"/>
		<path class="st0" d="M338.5,57.9c0-1.5,0.2-2.8,0.7-4s1.2-2.2,2.1-3.1s1.9-1.5,3.1-1.9c1.2-0.5,2.5-0.7,4-0.7c1.4,0,2.8,0.2,4,0.7
			c1.2,0.5,2.3,1.1,3.1,1.9s1.6,1.9,2.1,3.1s0.7,2.5,0.7,4c0,1.5-0.2,2.8-0.7,4s-1.2,2.2-2.1,3.1s-1.9,1.5-3.1,1.9s-2.5,0.7-4,0.7
			c-1.4,0-2.8-0.2-4-0.7s-2.3-1.1-3.1-1.9s-1.6-1.9-2.1-3.1S338.5,59.4,338.5,57.9z M342.7,57.9c0,0.9,0.1,1.7,0.4,2.4
			c0.3,0.7,0.7,1.3,1.2,1.9c0.5,0.5,1.1,0.9,1.8,1.2c0.7,0.3,1.5,0.4,2.4,0.4c0.9,0,1.7-0.1,2.4-0.4c0.7-0.3,1.3-0.7,1.8-1.2
			c0.5-0.5,0.9-1.2,1.2-1.9c0.3-0.7,0.4-1.5,0.4-2.4c0-0.8-0.1-1.6-0.4-2.4c-0.3-0.7-0.7-1.4-1.2-1.9c-0.5-0.5-1.1-0.9-1.8-1.2
			c-0.7-0.3-1.5-0.4-2.4-0.4c-0.9,0-1.7,0.1-2.4,0.4c-0.7,0.3-1.3,0.7-1.8,1.2c-0.5,0.5-0.9,1.2-1.2,1.9
			C342.9,56.3,342.7,57,342.7,57.9z"/>
		<path class="st0" d="M361.8,48.7h4.1v14.7h7.5v3.7h-11.6V48.7z"/>
		<path class="st0" d="M383.4,57.9c0-1.5,0.2-2.8,0.7-4s1.2-2.2,2.1-3.1c0.9-0.8,1.9-1.5,3.1-1.9c1.2-0.5,2.5-0.7,4-0.7
			s2.8,0.2,4,0.7c1.2,0.5,2.3,1.1,3.1,1.9c0.9,0.8,1.6,1.9,2.1,3.1s0.7,2.5,0.7,4c0,1.5-0.2,2.8-0.7,4s-1.2,2.2-2.1,3.1
			c-0.9,0.8-1.9,1.5-3.1,1.9c-1.2,0.5-2.5,0.7-4,0.7s-2.8-0.2-4-0.7s-2.3-1.1-3.1-1.9c-0.9-0.8-1.6-1.9-2.1-3.1
			S383.4,59.4,383.4,57.9z M387.6,57.9c0,0.9,0.1,1.7,0.4,2.4c0.3,0.7,0.7,1.3,1.2,1.9c0.5,0.5,1.1,0.9,1.8,1.2
			c0.7,0.3,1.5,0.4,2.4,0.4s1.7-0.1,2.4-0.4c0.7-0.3,1.3-0.7,1.8-1.2c0.5-0.5,0.9-1.2,1.2-1.9c0.3-0.7,0.4-1.5,0.4-2.4
			c0-0.8-0.1-1.6-0.4-2.4c-0.3-0.7-0.7-1.4-1.2-1.9c-0.5-0.5-1.1-0.9-1.8-1.2c-0.7-0.3-1.5-0.4-2.4-0.4s-1.7,0.1-2.4,0.4
			c-0.7,0.3-1.3,0.7-1.8,1.2c-0.5,0.5-0.9,1.2-1.2,1.9C387.7,56.3,387.6,57,387.6,57.9z"/>
		<path class="st0" d="M406.7,48.7H419v3.7h-8.3v3.7h7.7v3.7h-7.7v7.2h-4.1V48.7z"/>
		<path class="st0" d="M434.2,52.3H429v-3.6h14.6v3.6h-5.3v14.8h-4.1V52.3z"/>
		<path class="st0" d="M446.3,48.7h12.5v3.7h-8.4v3.4h8v3.7h-8v3.7h8.9v3.7h-13V48.7z"/>
		<path class="st0" d="M474.5,53.5c-0.4-0.5-0.9-0.9-1.5-1.1s-1.3-0.4-2-0.4c-0.8,0-1.5,0.1-2.1,0.4c-0.6,0.3-1.2,0.7-1.7,1.2
			c-0.5,0.5-0.8,1.2-1.1,1.9c-0.3,0.7-0.4,1.5-0.4,2.4c0,0.9,0.1,1.7,0.4,2.4c0.3,0.7,0.6,1.3,1.1,1.9c0.5,0.5,1,0.9,1.7,1.2
			s1.3,0.4,2,0.4c0.8,0,1.6-0.2,2.2-0.5c0.6-0.3,1.2-0.8,1.6-1.5l3.4,2.5c-0.8,1.1-1.8,1.9-3,2.4c-1.2,0.5-2.4,0.8-3.7,0.8
			c-1.4,0-2.8-0.2-4-0.7s-2.3-1.1-3.1-1.9c-0.9-0.8-1.6-1.9-2.1-3.1s-0.7-2.5-0.7-4c0-1.5,0.2-2.8,0.7-4s1.2-2.2,2.1-3.1
			c0.9-0.8,1.9-1.5,3.1-1.9c1.2-0.5,2.5-0.7,4-0.7c0.5,0,1.1,0,1.6,0.1c0.6,0.1,1.1,0.2,1.7,0.5s1.1,0.5,1.6,0.8
			c0.5,0.3,1,0.8,1.4,1.3L474.5,53.5z"/>
		<path class="st0" d="M480.8,48.7h4.1v6.9h7.9v-6.9h4.1v18.4h-4.1v-8h-7.9v8h-4.1V48.7z"/>
		<path class="st0" d="M501.1,48.7h5.5l7.8,12.8h0.1V48.7h4.1v18.4h-5.3l-8-13.1h-0.1v13.1h-4.1V48.7z"/>
		<path class="st0" d="M521.8,57.9c0-1.5,0.2-2.8,0.7-4s1.2-2.2,2.1-3.1c0.9-0.8,1.9-1.5,3.1-1.9c1.2-0.5,2.5-0.7,4-0.7
			s2.8,0.2,4,0.7c1.2,0.5,2.3,1.1,3.1,1.9c0.9,0.8,1.6,1.9,2.1,3.1s0.7,2.5,0.7,4c0,1.5-0.2,2.8-0.7,4s-1.2,2.2-2.1,3.1
			c-0.9,0.8-1.9,1.5-3.1,1.9c-1.2,0.5-2.5,0.7-4,0.7s-2.8-0.2-4-0.7s-2.3-1.1-3.1-1.9c-0.9-0.8-1.6-1.9-2.1-3.1
			S521.8,59.4,521.8,57.9z M526,57.9c0,0.9,0.1,1.7,0.4,2.4c0.3,0.7,0.7,1.3,1.2,1.9c0.5,0.5,1.1,0.9,1.8,1.2
			c0.7,0.3,1.5,0.4,2.4,0.4s1.7-0.1,2.4-0.4c0.7-0.3,1.3-0.7,1.8-1.2c0.5-0.5,0.9-1.2,1.2-1.9c0.3-0.7,0.4-1.5,0.4-2.4
			c0-0.8-0.1-1.6-0.4-2.4c-0.3-0.7-0.7-1.4-1.2-1.9c-0.5-0.5-1.1-0.9-1.8-1.2c-0.7-0.3-1.5-0.4-2.4-0.4s-1.7,0.1-2.4,0.4
			c-0.7,0.3-1.3,0.7-1.8,1.2c-0.5,0.5-0.9,1.2-1.2,1.9C526.1,56.3,526,57,526,57.9z"/>
		<path class="st0" d="M545.1,48.7h4.1v14.7h7.5v3.7h-11.6V48.7z"/>
		<path class="st0" d="M558.4,57.9c0-1.5,0.2-2.8,0.7-4s1.2-2.2,2.1-3.1s1.9-1.5,3.1-1.9c1.2-0.5,2.5-0.7,4-0.7c1.4,0,2.8,0.2,4,0.7
			c1.2,0.5,2.3,1.1,3.1,1.9s1.6,1.9,2.1,3.1s0.7,2.5,0.7,4c0,1.5-0.2,2.8-0.7,4s-1.2,2.2-2.1,3.1s-1.9,1.5-3.1,1.9s-2.5,0.7-4,0.7
			c-1.4,0-2.8-0.2-4-0.7s-2.3-1.1-3.1-1.9s-1.6-1.9-2.1-3.1S558.4,59.4,558.4,57.9z M562.6,57.9c0,0.9,0.1,1.7,0.4,2.4
			c0.3,0.7,0.7,1.3,1.2,1.9c0.5,0.5,1.1,0.9,1.8,1.2c0.7,0.3,1.5,0.4,2.4,0.4c0.9,0,1.7-0.1,2.4-0.4c0.7-0.3,1.3-0.7,1.8-1.2
			c0.5-0.5,0.9-1.2,1.2-1.9c0.3-0.7,0.4-1.5,0.4-2.4c0-0.8-0.1-1.6-0.4-2.4c-0.3-0.7-0.7-1.4-1.2-1.9c-0.5-0.5-1.1-0.9-1.8-1.2
			c-0.7-0.3-1.5-0.4-2.4-0.4c-0.9,0-1.7,0.1-2.4,0.4c-0.7,0.3-1.3,0.7-1.8,1.2c-0.5,0.5-0.9,1.2-1.2,1.9
			C562.8,56.3,562.6,57,562.6,57.9z"/>
		<path class="st0" d="M598.2,65.8c-1.2,0.6-2.4,1.1-3.7,1.4c-1.3,0.3-2.6,0.4-4,0.4c-1.4,0-2.8-0.2-4-0.7s-2.3-1.1-3.1-1.9
			c-0.9-0.8-1.6-1.9-2.1-3.1s-0.7-2.5-0.7-4c0-1.5,0.2-2.8,0.7-4s1.2-2.2,2.1-3.1c0.9-0.8,1.9-1.5,3.1-1.9c1.2-0.5,2.5-0.7,4-0.7
			c1.5,0,2.8,0.2,4.1,0.5c1.2,0.4,2.3,1,3.3,1.8l-2.9,3.1c-0.6-0.6-1.2-1-1.9-1.3c-0.7-0.3-1.6-0.4-2.6-0.4c-0.9,0-1.7,0.1-2.4,0.4
			c-0.7,0.3-1.3,0.7-1.8,1.2c-0.5,0.5-0.9,1.2-1.2,1.9c-0.3,0.7-0.4,1.5-0.4,2.4c0,0.9,0.1,1.7,0.4,2.4c0.3,0.7,0.7,1.3,1.2,1.9
			c0.5,0.5,1.1,0.9,1.8,1.2c0.7,0.3,1.5,0.4,2.4,0.4c0.9,0,1.6-0.1,2.3-0.3c0.6-0.2,1.2-0.4,1.5-0.6v-3H591v-3.7h7.2V65.8z"/>
		<path class="st0" d="M606.8,59.2l-6.9-10.6h5l3.9,6.9l4.1-6.9h4.8l-6.9,10.6v7.9h-4.1V59.2z"/>
	</g>
	<g>
		<path class="st1" d="M39.3,43.3c0-1.1,2-4.8,2-4.8s2,3.7,2,4.8c0,1.1-0.9,2.1-2,2.1C40.2,45.3,39.3,44.4,39.3,43.3z"/>
		<circle class="st2" cx="42.1" cy="41.7" r="39.3"/>
		<path class="st3" d="M67,25.1v-9.6H51.7v0h-8.5v20c2.7,0.8,4.7,3.3,4.7,6.3c0,3-2,5.5-4.7,6.4v19.3h9.6v0h14.1V58H52.8V25.1H67z"
			/>
		<path class="st3" d="M39.4,35.5v-20h-8v0H17.2v9.6h12.6v42.5h9.5V48.2c-2.7-0.8-4.6-3.4-4.6-6.3C34.8,38.9,36.7,36.4,39.4,35.5z"
			/>
	</g>
	<line class="st4" x1="94.7" y1="5.2" x2="94.7" y2="78.1"/>
</g>
</svg>
