<?xml version="1.0" encoding="utf-8"?>
<!-- Generator: Adobe Illustrator 20.1.0, SVG Export Plug-In . SVG Version: 6.00 Build 0)  -->
<svg version="1.1" xmlns="http://www.w3.org/2000/svg" xmlns:xlink="http://www.w3.org/1999/xlink" x="0px" y="0px"
	 viewBox="0 0 556 171" style="enable-background:new 0 0 556 171;" xml:space="preserve">
<style type="text/css">
	.st0{display:none;}
	.st1{display:inline;}
	.st2{fill:#A7A8AC;}
	.st3{fill:#B8D432;}
	.st4{fill:#FFFFFF;}
	.st5{font-family:'PatrickHand-Regular';}
	.st6{font-size:80px;}
	.st7{letter-spacing:-2;}
	.st8{fill:#62C4B6;}
	.st9{fill:#955AA3;}
</style>
<g id="Layer_3" class="st0">
	<g class="st1">
		<g>
			<g>
				<path class="st2" d="M520.7,145.3c-21.5,14.1-450.3,13.3-472.7,0c-22.4-13.3-22.8-90.7-8.7-110.8c14.1-20,454.7-15.3,480.9-1.1
					C541,44.6,542.2,131.2,520.7,145.3z"/>
				<path class="st3" d="M514.7,141.3c-21.5,14.1-450.3,13.3-472.7,0c-22.4-13.3-22.8-90.7-8.7-110.8c14.1-20,454.7-15.3,480.9-1.1
					C535,40.6,536.2,127.2,514.7,141.3z"/>
			</g>
			<path class="st4" d="M176.4,120.4c-1.3,0-2-0.9-2.6-1.8c-0.1-0.2-0.1-0.3-0.1-0.5v-0.8c0-0.1,0-0.2,0-0.3l0.7-2.6
				c0.5-1.8,1.1-3.7,1.6-5.5l1.7-5.9c1-3.5,2-7,3-10.5c0.2-0.6,0.5-1,0.8-1.4l0.1-0.2c0.2-0.2,0.4-0.4,0.6-0.6
				c0.1-0.1,0.1-0.1,0.2-0.2c0,0,34.5-34.5,48.4-48.4c2.3-2.3,4.9-3.8,7.9-4.5c1.1-0.3,2.2-0.4,3.3-0.4c7.4,0,13.9,5.4,15,12.6
				c0.8,4.7-0.4,8.9-3.4,12.5c-0.7,0.9-1.4,1.6-2.1,2.3l-12.7,12.7c-11.5,11.5-23,23-34.5,34.5c-1.3,1.3-2.6,2-4.3,2.5
				c-5.4,1.5-10.9,3-16.2,4.5l-6.1,1.7C177.2,120.3,176.8,120.4,176.4,120.4z M182.7,105.9c2.1,2.1,3.8,3.8,5.5,5.5
				c2.7-0.7,5.4-1.5,8.2-2.3l0.9-0.3c-1.3-2.7-2.6-5.4-3.9-8c0-0.1-0.1-0.1-0.1-0.1c-2.4-1.2-4.9-2.4-7.4-3.6l-0.6-0.3
				C184.4,99.8,183.6,102.9,182.7,105.9z M198.7,99.4c0.8,1.6,1.7,3.3,2.5,5l0.7,1.5l42.3-42.3l-4.9-4.9
				c-9.5,9.5-32.8,32.8-32.8,32.8c-2.6,2.6-5.1,5.2-7.7,7.7C198.7,99.3,198.7,99.3,198.7,99.4C198.7,99.3,198.7,99.3,198.7,99.4z
				 M194.6,95.3l40.6-40.6l-4.7-4.7l-42.2,42.2L194.6,95.3z M248.3,59.6c2.9-2.8,3.9-5.9,3.1-9.5c-0.9-4.1-3.5-6.6-7.7-7.5
				c-0.7-0.2-1.4-0.2-2.1-0.2c-2.6,0-5,1.1-7.2,3.4L248.3,59.6z"/>
			<path class="st4" d="M87.7,120.4c-1.3,0-2-0.9-2.6-1.8c-0.1-0.2-0.1-0.3-0.1-0.5v-0.8c0-0.1,0-0.2,0-0.3l0.7-2.6
				c0.5-1.8,1.1-3.7,1.6-5.5L89,103c1-3.5,2-7,3-10.5c0.2-0.6,0.5-1,0.8-1.4l0.1-0.2c0.2-0.2,0.4-0.4,0.6-0.6
				c0.1-0.1,0.1-0.1,0.2-0.2c0,0,34.5-34.5,48.4-48.4c2.3-2.3,4.9-3.8,7.9-4.5c1.1-0.3,2.2-0.4,3.3-0.4c7.4,0,13.9,5.4,15,12.6
				c0.8,4.7-0.4,8.9-3.4,12.5c-0.7,0.9-1.4,1.6-2.1,2.3l-12.7,12.7c-11.5,11.5-23,23-34.5,34.5c-1.3,1.3-2.6,2-4.3,2.5
				c-5.4,1.5-10.9,3-16.2,4.5l-6.1,1.7C88.5,120.3,88.1,120.4,87.7,120.4z M94.1,105.9c2.1,2.1,3.8,3.8,5.5,5.5
				c2.7-0.7,5.4-1.5,8.2-2.3l0.9-0.3c-1.3-2.7-2.6-5.4-3.9-8c0-0.1-0.1-0.1-0.1-0.1c-2.4-1.2-4.9-2.4-7.4-3.6l-0.6-0.3
				C95.8,99.8,94.9,102.9,94.1,105.9z M110.1,99.4c0.8,1.6,1.7,3.3,2.5,5l0.7,1.5l42.3-42.3l-4.9-4.9c-9.5,9.5-32.8,32.8-32.8,32.8
				c-2.6,2.6-5.1,5.2-7.7,7.7C110.1,99.3,110,99.3,110.1,99.4C110,99.3,110,99.3,110.1,99.4z M105.9,95.3l40.6-40.6l-4.7-4.7
				L99.7,92.2L105.9,95.3z M159.7,59.6c2.9-2.8,3.9-5.9,3.1-9.5c-0.9-4.1-3.5-6.6-7.7-7.5c-0.7-0.2-1.4-0.2-2.1-0.2
				c-2.6,0-5,1.1-7.2,3.4L159.7,59.6z"/>
			<text transform="matrix(1 0 0 1 274.3681 110.4692)" class="st4 st5 st6 st7">Medium</text>
		</g>
		<path class="st4" d="M54.5,29.2c0,0-18.7-1.5-20.5,15.3C34,44.5,39.4,29.4,54.5,29.2z"/>
		<path class="st4" d="M498.2,139.3c0,0,18.7,1.5,20.5-15.3C518.7,123.9,513.3,139.1,498.2,139.3z"/>
	</g>
</g>
<g id="Layer_2" class="st0">
	<g class="st1">
		<g>
			<g>
				<path class="st2" d="M493.2,145.3c-21.5,14.1-395.2,13.3-417.6,0c-22.4-13.3-22.8-90.7-8.7-110.8c14.1-20,399.6-15.3,425.8-1.1
					C513.5,44.6,514.7,131.2,493.2,145.3z"/>
				<path class="st8" d="M487.2,141.3c-21.5,14.1-395.2,13.3-417.6,0c-22.4-13.3-22.8-90.7-8.7-110.8c14.1-20,399.6-15.3,425.8-1.1
					C507.5,40.6,508.7,127.2,487.2,141.3z"/>
			</g>
			<path class="st4" d="M148.8,126.1c-1.3,0-2-0.9-2.6-1.8c-0.1-0.2-0.1-0.3-0.1-0.5v-0.8c0-0.1,0-0.2,0-0.3l0.7-2.6
				c0.5-1.8,1.1-3.7,1.6-5.5l1.7-5.9c1-3.5,2-7,3-10.5c0.2-0.6,0.5-1,0.8-1.4l0.1-0.2c0.2-0.2,0.4-0.4,0.6-0.6
				c0.1-0.1,0.1-0.1,0.2-0.2c0,0,34.5-34.5,48.4-48.4c2.3-2.3,4.9-3.8,7.9-4.5c1.1-0.3,2.2-0.4,3.3-0.4c7.4,0,13.9,5.4,15,12.6
				c0.8,4.7-0.4,8.9-3.4,12.5c-0.7,0.9-1.4,1.6-2.1,2.3l-12.7,12.7c-11.5,11.5-23,23-34.5,34.5c-1.3,1.3-2.6,2-4.3,2.5
				c-5.4,1.5-10.9,3-16.2,4.5l-6.1,1.7C149.7,126,149.2,126.1,148.8,126.1z M155.2,111.6c2.1,2.1,3.8,3.8,5.5,5.5
				c2.7-0.7,5.4-1.5,8.2-2.3l0.9-0.3c-1.3-2.7-2.6-5.4-3.9-8c0-0.1-0.1-0.1-0.1-0.1c-2.4-1.2-4.9-2.4-7.4-3.6l-0.6-0.3
				C156.9,105.5,156,108.6,155.2,111.6z M171.2,105.1c0.8,1.6,1.7,3.3,2.5,5l0.7,1.5l42.3-42.3l-4.9-4.9
				c-9.5,9.5-32.8,32.8-32.8,32.8c-2.6,2.6-5.1,5.2-7.7,7.7C171.2,105,171.2,105,171.2,105.1C171.2,105,171.2,105,171.2,105.1z
				 M167.1,101l40.6-40.6l-4.7-4.7l-42.2,42.2L167.1,101z M220.8,65.3c2.9-2.8,3.9-5.9,3.1-9.5c-0.9-4.1-3.5-6.6-7.7-7.5
				c-0.7-0.2-1.4-0.2-2.1-0.2c-2.6,0-5,1.1-7.2,3.4L220.8,65.3z"/>
			<text transform="matrix(1 0 0 1 253.7664 110.4691)" class="st4 st5 st6 st7">Easy</text>
		</g>
		<path class="st4" d="M470.2,138.4c0,0,18.7,1.5,20.5-15.3C490.7,123,485.3,138.2,470.2,138.4z"/>
		<path class="st4" d="M82.5,30.3c0,0-18.7-1.5-20.5,15.3C62,45.6,67.4,30.5,82.5,30.3z"/>
	</g>
</g>
<g id="Layer_1">
	<g>
		<g>
			<g>
				<path class="st2" d="M532.7,145.1c-21.5,14.1-474.2,13.6-496.6,0.3c-22.4-13.3-22.8-90.7-8.7-110.8
					c14.1-20,478.6-15.6,504.8-1.4C553,44.5,554.2,131,532.7,145.1z"/>
				<path class="st9" d="M526.7,141.1c-21.5,14.1-474.2,13.6-496.6,0.3C7.7,128.1,7.3,50.7,21.4,30.7c14.1-20,478.6-15.6,504.8-1.4
					C547,40.5,548.2,127,526.7,141.1z"/>
			</g>
			<text transform="matrix(1 0 0 1 335.9785 110.6286)" class="st4 st5 st6 st7">Hard</text>
			<path class="st4" d="M231.2,124c-1.3,0-2-0.9-2.6-1.8c-0.1-0.2-0.1-0.3-0.1-0.5v-0.8c0-0.1,0-0.2,0-0.3l0.7-2.6
				c0.5-1.8,1.1-3.7,1.6-5.5l1.7-5.9c1-3.5,2-7,3-10.5c0.2-0.6,0.5-1,0.8-1.4l0.1-0.2c0.2-0.2,0.4-0.4,0.6-0.6
				c0.1-0.1,0.1-0.1,0.2-0.2c0,0,34.5-34.5,48.4-48.4c2.3-2.3,4.9-3.8,7.9-4.5c1.1-0.3,2.2-0.4,3.3-0.4c7.4,0,13.9,5.4,15,12.6
				c0.8,4.7-0.4,8.9-3.4,12.5c-0.7,0.9-1.4,1.6-2.1,2.3l-12.7,12.7c-11.5,11.5-23,23-34.5,34.5c-1.3,1.3-2.6,2-4.3,2.5
				c-5.4,1.5-10.9,3-16.2,4.5l-6.1,1.7C232,123.9,231.6,124,231.2,124z M237.5,109.4c2.1,2.1,3.8,3.8,5.5,5.5
				c2.7-0.7,5.4-1.5,8.2-2.3l0.9-0.3c-1.3-2.7-2.6-5.4-3.9-8c0-0.1-0.1-0.1-0.1-0.1c-2.4-1.2-4.9-2.4-7.4-3.6l-0.6-0.3
				C239.2,103.4,238.4,106.4,237.5,109.4z M253.5,102.9c0.8,1.6,1.7,3.3,2.5,5l0.7,1.5L299,67.1l-4.9-4.9
				c-9.5,9.5-32.8,32.8-32.8,32.8c-2.6,2.6-5.1,5.2-7.7,7.7C253.5,102.8,253.5,102.8,253.5,102.9
				C253.5,102.9,253.5,102.9,253.5,102.9z M249.4,98.8L290,58.2l-4.7-4.7l-42.2,42.2L249.4,98.8z M303.1,63.2
				c2.9-2.8,3.9-5.9,3.1-9.5c-0.9-4.1-3.5-6.6-7.7-7.5c-0.7-0.2-1.4-0.2-2.1-0.2c-2.6,0-5,1.1-7.2,3.4L303.1,63.2z"/>
			<path class="st4" d="M142.5,124c-1.3,0-2-0.9-2.6-1.8c-0.1-0.2-0.1-0.3-0.1-0.5v-0.8c0-0.1,0-0.2,0-0.3l0.7-2.6
				c0.5-1.8,1.1-3.7,1.6-5.5l1.7-5.9c1-3.5,2-7,3-10.5c0.2-0.6,0.5-1,0.8-1.4l0.1-0.2c0.2-0.2,0.4-0.4,0.6-0.6
				c0.1-0.1,0.1-0.1,0.2-0.2c0,0,34.5-34.5,48.4-48.4c2.3-2.3,4.9-3.8,7.9-4.5c1.1-0.3,2.2-0.4,3.3-0.4c7.4,0,13.9,5.4,15,12.6
				c0.8,4.7-0.4,8.9-3.4,12.5c-0.7,0.9-1.4,1.6-2.1,2.3L205,80.5c-11.5,11.5-23,23-34.5,34.5c-1.3,1.3-2.6,2-4.3,2.5
				c-5.4,1.5-10.9,3-16.2,4.5l-6.1,1.7C143.4,123.9,142.9,124,142.5,124z M148.9,109.4c2.1,2.1,3.8,3.8,5.5,5.5
				c2.7-0.7,5.4-1.5,8.2-2.3l0.9-0.3c-1.3-2.7-2.6-5.4-3.9-8c0-0.1-0.1-0.1-0.1-0.1c-2.4-1.2-4.9-2.4-7.4-3.6l-0.6-0.3
				C150.6,103.4,149.7,106.4,148.9,109.4z M164.9,102.9c0.8,1.6,1.7,3.3,2.5,5l0.7,1.5l42.3-42.3l-4.9-4.9
				c-9.5,9.5-32.8,32.8-32.8,32.8c-2.6,2.6-5.1,5.2-7.7,7.7C164.9,102.8,164.8,102.8,164.9,102.9
				C164.8,102.9,164.8,102.9,164.9,102.9z M160.8,98.8l40.6-40.6l-4.7-4.7l-42.2,42.2L160.8,98.8z M214.5,63.2
				c2.9-2.8,3.9-5.9,3.1-9.5c-0.9-4.1-3.5-6.6-7.7-7.5c-0.7-0.2-1.4-0.2-2.1-0.2c-2.6,0-5,1.1-7.2,3.4L214.5,63.2z"/>
			<path class="st4" d="M53.9,124c-1.3,0-2-0.9-2.6-1.8c-0.1-0.2-0.1-0.3-0.1-0.5v-0.8c0-0.1,0-0.2,0-0.3l0.7-2.6
				c0.5-1.8,1.1-3.7,1.6-5.5l1.7-5.9c1-3.5,2-7,3-10.5c0.2-0.6,0.5-1,0.8-1.4l0.1-0.2c0.2-0.2,0.4-0.4,0.6-0.6
				c0.1-0.1,0.1-0.1,0.2-0.2c0,0,34.5-34.5,48.4-48.4c2.3-2.3,4.9-3.8,7.9-4.5c1.1-0.3,2.2-0.4,3.3-0.4c7.4,0,13.9,5.4,15,12.6
				c0.8,4.7-0.4,8.9-3.4,12.5c-0.7,0.9-1.4,1.6-2.1,2.3l-12.7,12.7c-11.5,11.5-23,23-34.5,34.5c-1.3,1.3-2.6,2-4.3,2.5
				c-5.4,1.5-10.9,3-16.2,4.5l-6.1,1.7C54.7,123.9,54.3,124,53.9,124z M60.2,109.4c2.1,2.1,3.8,3.8,5.5,5.5c2.7-0.7,5.4-1.5,8.2-2.3
				l0.9-0.3c-1.3-2.7-2.6-5.4-3.9-8c0-0.1-0.1-0.1-0.1-0.1c-2.4-1.2-4.9-2.4-7.4-3.6l-0.6-0.3C61.9,103.4,61.1,106.4,60.2,109.4z
				 M76.2,102.9c0.8,1.6,1.7,3.3,2.5,5l0.7,1.5l42.3-42.3l-4.9-4.9C107.3,71.7,84,95.1,84,95.1c-2.6,2.6-5.1,5.2-7.7,7.7
				C76.2,102.8,76.2,102.8,76.2,102.9C76.2,102.9,76.2,102.9,76.2,102.9z M72.1,98.8l40.6-40.6l-4.7-4.7L65.8,95.8L72.1,98.8z
				 M125.8,63.2c2.9-2.8,3.9-5.9,3.1-9.5c-0.9-4.1-3.5-6.6-7.7-7.5c-0.7-0.2-1.4-0.2-2.1-0.2c-2.6,0-5,1.1-7.2,3.4L125.8,63.2z"/>
		</g>
		<path class="st4" d="M41.5,30.2c0,0-18.7-1.5-20.5,15.3C21,45.5,26.4,30.4,41.5,30.2z"/>
		<path class="st4" d="M508.2,139.3c0,0,18.7,1.5,20.5-15.3C528.7,124,523.3,139.1,508.2,139.3z"/>
	</g>
</g>
</svg>
