<?xml version="1.0" encoding="utf-8"?>
<!-- Generator: Adobe Illustrator 21.0.0, SVG Export Plug-In . SVG Version: 6.00 Build 0)  -->
<svg version="1.1" id="Layer_1" xmlns="http://www.w3.org/2000/svg" xmlns:xlink="http://www.w3.org/1999/xlink" x="0px" y="0px"
	 viewBox="0 0 560 104" style="enable-background:new 0 0 560 104;" xml:space="preserve">
<style type="text/css">
	.st0{fill:#A7A8AC;}
	.st1{fill:#ED4A94;}
	.st2{fill:#FFFFFF;}
	.st3{fill:#3CA7C2;}
	.st4{fill:#B8D432;}
	.st5{fill:#62C4B6;}
	.st6{fill:#955AA3;}
	.st7{fill:#ECC91A;}
	.st8{fill:#F6921E;}
	.st9{opacity:0.3;}
</style>
<g>
	<path class="st0" d="M62.7,18.1c-0.7-3.7-1.4-7.7-2.6-10.9c-2-5.3-5-5.8-9-5.9c-6.1-0.2-36.7,2.3-40.9,3.2C6.9,5.2,5,7.8,4.1,12.3
		C3.4,16,1,31.2,0.9,33.9c0,3.6,1.3,8.8,6.8,9.8c4.9,0.9,9.7,0.8,18.9,0.8c5.8,0,16.6,0.7,23.5,0.8c4.6,0.2,8,0.3,9.2,0.2
		c4.1-0.4,6-3.2,6.1-6.9C65.6,34.2,63.4,21.6,62.7,18.1z"/>
	<path class="st1" d="M61.5,17.7C60.9,14,60.2,10,59,6.8c-2-5.3-5-5.8-9-5.9C43.9,0.6,13.3,3.1,9.1,4c-3.3,0.7-5.3,3.3-6.2,7.8
		c-0.8,3.7-3.2,18.9-3.2,21.6c0,3.6,1.3,8.8,6.8,9.8c4.9,0.9,9.7,0.8,18.9,0.8c5.8,0,16.6,0.7,23.5,0.8c4.6,0.2,8,0.3,9.2,0.2
		c4.1-0.4,6-3.2,6.1-6.9C64.4,33.8,62.2,21.2,61.5,17.7z"/>
	<path class="st2" d="M14.4,5c0,0-8.3-0.7-9.1,6.8C5.2,11.8,7.6,5.1,14.4,5z"/>
	<path class="st2" d="M53.7,44.1c0,0,8.3,1.1,9.5-6.4C63.2,37.8,60.5,44.4,53.7,44.1z"/>
</g>
<path class="st0" d="M485.4,17.8c-0.7-3.7-1.4-7.7-2.6-10.9c-2-5.3-5-5.8-9-5.9c-6.1-0.2-36.7,2.3-40.9,3.2
	c-3.3,0.7-5.3,3.3-6.2,7.8c-0.8,3.7-3.2,18.9-3.2,21.6c0,3.6,1.3,8.8,6.8,9.8c4.9,0.9,9.7,0.8,18.9,0.8c5.8,0,16.6,0.7,23.5,0.8
	c4.6,0.2,8,0.3,9.2,0.2c4.1-0.4,6-3.2,6.1-6.9C488.3,33.9,486,21.3,485.4,17.8z"/>
<path class="st3" d="M484.2,17.4c-0.7-3.7-1.4-7.7-2.6-10.9c-2-5.3-5-5.8-9-5.9c-6.1-0.2-36.7,2.3-40.9,3.2
	c-3.3,0.7-5.3,3.3-6.2,7.8c-0.8,3.7-3.2,18.9-3.2,21.6c0,3.6,1.3,8.8,6.8,9.8c4.9,0.9,9.7,0.8,18.9,0.8c5.8,0,16.6,0.7,23.5,0.8
	c4.6,0.2,8,0.3,9.2,0.2c4.1-0.4,6-3.2,6.1-6.9C487.1,33.4,484.8,20.9,484.2,17.4z"/>
<path class="st2" d="M438.4,4.7c0,0-8.3-0.7-9.1,6.8C429.2,11.5,431.6,4.7,438.4,4.7z"/>
<path class="st2" d="M476.4,43.8c0,0,8.3,1.1,9.5-6.4C485.9,37.5,483.2,44.1,476.4,43.8z"/>
<g>
	<path class="st0" d="M73.5,29.6c0.7,3.7,1.4,7.7,2.6,11c2,5.3,5,5.8,9,5.9c6.1,0.2,36.7-2.3,40.9-3.2c3.3-0.7,5.3-3.3,6.2-7.8
		c0.8-3.7,3.2-18.9,3.2-21.6c0-3.6-1.3-8.8-6.8-9.8c-4.9-0.9-9.7-0.8-18.9-0.8c-5.8,0-16.6-0.7-23.5-0.8c-4.6-0.2-8-0.3-9.2-0.2
		c-4.1,0.4-6,3.2-6.1,6.9C70.6,13.5,72.9,26.1,73.5,29.6z"/>
	<path class="st4" d="M72.5,28.7c0.7,3.7,1.4,7.7,2.6,11c2,5.3,5,5.8,9,5.9c6.1,0.2,36.7-2.3,40.9-3.2c3.3-0.7,5.3-3.3,6.2-7.8
		c0.8-3.7,3.2-18.9,3.2-21.6c0-3.6-1.3-8.8-6.8-9.8c-4.9-0.9-9.7-0.8-18.9-0.8c-5.8,0-16.6-0.7-23.5-0.8c-4.6-0.2-8-0.3-9.2-0.2
		c-4.1,0.4-6,3.2-6.1,6.9C69.6,12.6,71.9,25.2,72.5,28.7z"/>
	<path class="st2" d="M119.7,41.4c0,0,8.3,0.7,9.1-6.8C128.8,34.6,126.4,41.3,119.7,41.4z"/>
	<path class="st2" d="M80.3,2.3c0,0-8.3-1.1-9.5,6.4C70.8,8.6,73.5,2,80.3,2.3z"/>
</g>
<g>
	<path class="st0" d="M213.8,29.9c0.7,3.7,1.4,7.7,2.6,10.9c2,5.3,5,5.8,9,5.9c6.1,0.2,36.7-2.3,40.9-3.2c3.3-0.7,5.3-3.3,6.2-7.8
		c0.8-3.7,3.2-18.9,3.2-21.6c0-3.6-1.3-8.8-6.8-9.8c-4.9-0.9-9.7-0.8-18.9-0.8c-5.8,0-16.6-0.7-23.5-0.8c-4.6-0.1-8-0.2-9.2-0.1
		c-4.1,0.4-6,3.2-6.1,6.9C210.9,13.8,213.2,26.3,213.8,29.9z"/>
	<path class="st5" d="M212.8,29c0.7,3.7,1.4,7.7,2.6,10.9c2,5.3,5,5.8,9,5.9c6.1,0.2,36.7-2.3,40.9-3.2c3.3-0.7,5.3-3.3,6.2-7.8
		c0.8-3.7,3.2-18.9,3.2-21.6c0-3.6-1.3-8.8-6.8-9.8c-4.9-0.9-9.7-0.8-18.9-0.8c-5.8,0-16.6-0.7-23.5-0.8c-4.6-0.1-8-0.2-9.2-0.1
		c-4.1,0.4-6,3.2-6.1,6.9C209.9,12.9,212.1,25.5,212.8,29z"/>
	<path class="st2" d="M259.9,41.6c0,0,8.3,0.7,9.1-6.8C269.1,34.8,266.7,41.6,259.9,41.6z"/>
	<path class="st2" d="M220.6,2.5c0,0-8.3-1.1-9.5,6.4C211.1,8.9,213.8,2.3,220.6,2.5z"/>
</g>
<g>
	<path class="st0" d="M202.3,19.8c-0.7-3.7-1.4-7.7-2.6-11c-1.9-5.2-5-5.8-9-5.9c-6.1-0.2-36.7,2.3-40.9,3.2
		c-3.3,0.7-5.3,3.3-6.2,7.8c-0.8,3.7-3.2,18.9-3.2,21.6c0,3.6,1.3,8.8,6.8,9.8c4.9,0.9,9.7,0.8,18.9,0.8c5.8,0,16.6,0.7,23.5,0.8
		c4.6,0.2,8,0.3,9.2,0.2c4.1-0.4,6-3.2,6.1-6.9C205.2,35.9,203,23.3,202.3,19.8z"/>
	<path class="st6" d="M201.1,18.9c-0.7-3.7-1.4-7.7-2.6-11c-2-5.3-5-5.8-9-5.9c-6.1-0.2-36.7,2.3-40.9,3.2c-3.3,0.7-5.3,3.3-6.2,7.8
		c-0.8,3.7-3.2,18.9-3.2,21.6c0,3.6,1.3,8.8,6.8,9.8c4.9,0.9,9.7,0.8,18.9,0.8c5.8,0,16.6,0.7,23.5,0.8c4.6,0.2,8,0.3,9.2,0.2
		c4.1-0.4,6-3.2,6.1-6.9C204,35,201.8,22.4,201.1,18.9z"/>
	<path class="st2" d="M154,6.2c0,0-8.3-0.7-9.1,6.8C144.9,13,147.2,6.3,154,6.2z"/>
	<path class="st2" d="M193.4,45.4c0,0,8.3,1.1,9.5-6.4C202.9,39,200.1,45.6,193.4,45.4z"/>
</g>
<g>
	<path class="st0" d="M341.4,17.8c-0.7-3.7-1.4-7.7-2.6-10.9c-2-5.3-5-5.8-9-5.9c-6.1-0.2-36.7,2.3-40.9,3.2
		c-3.3,0.7-5.3,3.3-6.2,7.8c-0.8,3.7-3.2,18.9-3.2,21.6c0,3.6,1.3,8.8,6.8,9.8c4.9,0.9,9.7,0.8,18.9,0.8c5.8,0,16.6,0.7,23.5,0.8
		c4.6,0.2,8,0.3,9.2,0.2c4.1-0.4,6-3.2,6.1-6.9C344.3,33.9,342.1,21.3,341.4,17.8z"/>
	<path class="st7" d="M340.2,17.4c-0.7-3.7-1.4-7.7-2.6-10.9c-2-5.3-5-5.8-9-5.9c-6.1-0.2-36.7,2.3-40.9,3.2
		c-3.3,0.7-5.3,3.3-6.2,7.8c-0.8,3.7-3.2,18.9-3.2,21.6c0,3.6,1.3,8.8,6.8,9.8c4.9,0.9,9.7,0.8,18.9,0.8c5.8,0,16.6,0.7,23.5,0.8
		c4.6,0.2,8,0.3,9.2,0.2c4.1-0.4,6-3.2,6.1-6.9C343.1,33.4,340.9,20.9,340.2,17.4z"/>
	<path class="st2" d="M293.1,4.7c0,0-8.3-0.7-9.1,6.8C283.9,11.5,286.3,4.7,293.1,4.7z"/>
	<path class="st2" d="M332.4,43.8c0,0,8.3,1.1,9.5-6.4C341.9,37.5,339.2,44.1,332.4,43.8z"/>
</g>
<g>
	<path class="st0" d="M353.4,29c0.7,3.7,1.4,7.7,2.6,11c2,5.3,5,5.8,9,5.9c6.1,0.2,36.7-2.3,40.9-3.2c3.3-0.7,5.3-3.3,6.2-7.8
		c0.8-3.7,3.2-18.9,3.2-21.6c0-3.6-1.3-8.8-6.8-9.8c-4.9-0.9-9.7-0.8-18.9-0.8c-5.8,0-16.6-0.7-23.5-0.8c-4.6-0.2-8-0.3-9.2-0.2
		c-4.1,0.4-6,3.2-6.1,6.9C350.5,12.9,352.8,25.5,353.4,29z"/>
	<path class="st8" d="M352.4,28.1c0.7,3.7,1.4,7.7,2.6,11c2,5.3,5,5.8,9,5.9c6.1,0.2,36.7-2.3,40.9-3.2c3.3-0.7,5.3-3.3,6.2-7.8
		c0.8-3.7,3.2-18.9,3.2-21.6c0-3.6-1.3-8.8-6.8-9.8c-4.9-0.9-9.7-0.8-18.9-0.8c-5.8,0-16.6-0.7-23.5-0.8c-4.6-0.2-8-0.3-9.3-0.2
		c-4.1,0.4-6,3.2-6.1,6.9C349.5,12,351.7,24.6,352.4,28.1z"/>
	<path class="st2" d="M399.5,40.8c0,0,8.3,0.7,9.1-6.8C408.7,33.9,406.3,40.7,399.5,40.8z"/>
	<path class="st2" d="M360.1,1.6c0,0-8.3-1.1-9.5,6.4C350.7,8,353.4,1.4,360.1,1.6z"/>
</g>
<g>
	<path class="st2" d="M117.6,11c-0.3-1.3-1.5-2.4-2.9-2.6c-0.1,0-0.5-0.1-0.8-0.1c-0.2,0-1.3,0.2-2,0.3c-2.2,0.3-4.4,0.6-6.6,0.9
		c-2.1,0.3-4.3,0.6-6.5,0.9c-1.1,0.1-2.3,0.3-3.4,0.5c-1.4,0.2-2.5,1.7-2.5,3.3c0,2.4,0,13.3,0,16.5c0,0.1,0,0.2,0,0.3
		c-3-0.3-5.3,1-7.1,3.3c-0.6,0.8-1,1.8-1.1,2.8c-0.1,2.1,1.1,3.7,3.2,4.1c0.4,0.1,1.3,0.1,1.8,0c0.5-0.1,1-0.2,1.6-0.4
		c2.1-0.8,3.8-2.3,4.6-4.5c0.2-0.5,0.3-1.1,0.3-1.7c0-4.5,0-13.8,0-14c6-0.8,12-1.6,18-2.4c0,3.7,0,7.4,0,11c-2.2-0.2-4.1,0.5-5.8,2
		c-1.2,1-2.1,2.3-2.4,3.9c-0.4,2.2,1.1,4.2,3.3,4.5c2.7,0.3,4.8-0.8,6.5-2.7c0.9-1,1.5-2.2,1.6-3.6c0,0,0-0.1,0-0.2
		c0-0.1,0-18.3,0-19.9c0-0.5,0-1,0-1.6C117.6,11.4,117.6,11.2,117.6,11z M94.5,35.7c-0.6,1.6-1.8,2.8-3.7,3.6
		c-0.4,0.1-0.8,0.3-1.3,0.4c0,0-0.1,0-0.3,0c-0.3,0-0.7,0-0.9-0.1c-1.2-0.2-2-1.2-1.9-2.4c0-0.7,0.3-1.4,0.8-2c1.4-1.9,3-2.8,5-2.8
		c0.2,0,0.4,0,0.7,0c0,0,0.1,0,0.1,0c0.5,0,0.7,0,1-0.4c0.6-0.6,0.7,2.5,0.7,2.5C94.7,35,94.6,35.4,94.5,35.7z M116.1,32.8
		c0,0.1,0,0.2,0,0.4c0,0.9-0.4,1.8-1.2,2.6c-1.4,1.5-2.9,2.3-4.6,2.3c-0.2,0-0.4,0-0.6,0c-0.6,0-1.2-0.4-1.5-0.8
		c-0.4-0.5-0.5-1.1-0.4-1.8c0.2-1.1,0.8-2.1,1.8-2.9c1.3-1.1,2.6-1.6,4-1.6c0.2,0,0.4,0,0.6,0c0,0,0.1,0,0.2,0
		c0.4,0,0.7-0.3,1.1-0.4C116.2,30,116.1,32.8,116.1,32.8z"/>
</g>
<g>
	<path class="st2" d="M32.3,11.4c-0.1-0.4-0.5-0.7-1-0.4c-0.3,0.1-0.5,0.3-0.8,0.5c-3.3,2.7-6.6,5.5-9.9,8.2
		c-0.1,0.1-0.4,0.2-0.5,0.2c-1.5,0-3,0-4.5,0c-0.2,0-0.4,0-0.5,0c-0.7,0.2-1,0.6-1.2,1.2c0,2.4,0,4.8,0,7.2c0.3,0.9,1,1.3,2,1.3
		c1.4,0,2.8,0,4.1,0c0.2,0,0.4,0.1,0.6,0.2c3.3,2.8,6.6,5.5,10,8.3c0.2,0.2,0.4,0.3,0.7,0.4c0.4,0.2,0.8,0,1-0.4
		c0.1-0.2,0.1-0.5,0.1-0.7c0-8.4,0-16.9,0-25.3C32.4,11.8,32.3,11.6,32.3,11.4z M29.8,34.1c-0.5-0.4-1-0.8-1.6-1.3
		c-1.9-1.6-3.9-3.3-5.9-4.9c-0.3-0.3-0.7-0.5-1.1-0.6c-0.7-0.2-0.8-4.8,0-5c0.4-0.1,0.8-0.3,1.1-0.6c1.9-1.6,3.7-3.1,5.6-4.6
		c0.6-0.5,1.3-1.1,1.9-1.6C29.8,21.8,29.8,28,29.8,34.1z"/>
	<path class="st2" d="M48.4,22.3c-0.4-2.8-1.3-5.4-2.8-7.7c-1.1-1.7-2.3-3.1-3.9-4.3c-0.6-0.5-1.5-0.3-1.9,0.3s-0.3,1.4,0.3,1.9
		c1.9,1.5,3.3,3.4,4.3,5.6c1.6,3.6,1.9,7.3,1,11.2c-0.8,3.2-2.5,5.8-5.3,7.7c-0.6,0.4-0.8,1.2-0.4,1.8c0.4,0.6,1.2,0.8,1.8,0.5
		c0.3-0.1,0.5-0.3,0.8-0.5c3.6-2.7,5.5-6.3,6.2-10.7c0.1-0.6,0.1-1.1,0.2-1.7c0-0.8,0-1.7,0-2.6C48.6,23.3,48.5,22.8,48.4,22.3z"/>
	<path class="st2" d="M40.6,18.8c-0.8-1.2-1.7-2.3-2.9-3.2c-0.7-0.5-1.5-0.4-2,0.3c-0.4,0.6-0.3,1.4,0.4,1.9
		c0.2,0.1,0.4,0.3,0.5,0.4c2.4,2.3,3.3,5.2,2.7,8.4c-0.4,2.1-1.4,3.7-3.3,4.9c-0.6,0.4-0.8,1.2-0.4,1.8c0.4,0.6,1.2,0.8,1.8,0.5
		c0.4-0.2,0.7-0.4,1-0.7c2.6-2.1,3.7-5,3.7-7.2C42.3,22.8,41.7,20.7,40.6,18.8z"/>
</g>
<path class="st2" d="M186.1,24.6c-1.4-1.2-15.6-14.2-16.2-14.2c-0.6,0-10.6,9.3-15.8,13.8c-0.4,0.4-0.8,0.7-1,1.2c0,0.2,0,0.4,0,0.7
	c0,0.1,0.1,0.2,0.1,0.2c0.4,1,1.7,1.3,2.5,0.6c0.1-0.1,0.2-0.2,0.4-0.3c0,0,0.1-0.1,0.1-0.1c0,3.9,0,7.8,0,11.7c0,0.1,0,0.2,0,0.4
	c2.7,0,5.4,0,8,0c0-2.1,0-4.2,0-6.3c0-2.9,2.3-5.3,5.1-5.5c3-0.2,5.5,1.7,6.1,4.6c0.1,0.5,0.1,1,0.1,1.5c0,1.9,0,3.8,0,5.8
	c2.7,0,5.4,0,8,0c0-4,0-8,0-12c0.2,0.1,0.4,0.3,0.5,0.4c0.8,0.8,2.1,0.4,2.5-0.6c0-0.1,0-0.1,0.1-0.2c0-0.2,0-0.4,0-0.7
	C186.4,25.1,186.3,24.7,186.1,24.6z M181.6,35.8v0.8h-4.2c0-1.3,0-2.6,0-3.9c0-0.6,0-1.2-0.1-1.8c-0.7-3.6-3.7-6.2-7.5-6.2
	c-0.2,0-0.4,0-0.6,0c-3.8,0.3-6.8,3.5-6.8,7.4c0,1.5,0,2.9,0,4.4v0h-4.2c0-3.4,0-6.7,0-10.1c0.6-0.9,10-9.3,11.8-11.2
	c1.7,1.7,11.7,11.2,11.7,11.2S181.6,32.6,181.6,35.8z"/>
<g>
	<path class="st2" d="M391.5,20.3c-0.6-1.2-1.2-2.2-2.3-3.1c-1.4-1.2-2.9-1.9-4.7-2.2c-0.3,0-0.5-0.1-0.8-0.1c-0.5,0-0.9,0-1.4,0
		c-0.4,0-0.8,0.1-1.2,0.2c-1.3,0.3-2.5,0.8-3.7,1.6c-1,0.7-1.7,1.6-2.4,2.6c-0.7,1.2-1.1,2.4-1.2,3.7c0,0,0,0.1,0,0.2
		c0,0.5,0,1,0,1.5c0.1,0.4,0.1,0.8,0.2,1.2c0.1,0.8,0.5,1.5,0.9,2.2c0.6,1.1,1.2,2.3,1.7,3.4c0.1,0.2,0.2,0.5,0.4,0.6
		c1,0.8,1.8,0.5,2.1,0.8c0,0.1,0.1,0.2,0.1,0.3c0,0.2,0,0.4,0,0.6c0,0.8,0,4.1,0,4.4c0,0.6,0.4,1,1,1c1.3,0,4.6,0,6,0
		c0.6,0,1-0.4,1-1c0-0.3,0-3.5,0-4c0-0.3,0-0.6,0-0.9c0-0.1,0-0.2,0.1-0.3c0.3,0,1.2-0.1,1.8-1.1c0.7-1.3,1.3-2.7,2-4
		c0.4-0.8,0.7-1.6,0.8-2.5c0-0.3,0.1-0.5,0.1-0.8c0-0.5,0-0.9,0-1.4c-0.1-0.4-0.1-0.9-0.2-1.4C391.8,21.3,391.7,20.8,391.5,20.3z
		 M389.8,26.1c-0.2,0.6-0.5,1.2-0.8,1.7c-0.2,0.4-0.4,0.9-0.7,1.3c-0.3,0.5-0.5,1-0.8,1.6c-0.1,0.2-0.2,0.2-0.4,0.2
		c-0.4,0-0.8,0-1.1,0v-3c0-1.7-1.3-3-3-3c-1.7,0-3,1.3-3,3V31c-0.4,0-0.8,0-1.1,0c-0.2,0-0.3,0-0.4-0.2c-0.3-0.6-0.6-1.2-0.9-1.8
		c-0.3-0.6-0.7-1.3-1-1.9c-0.6-1.1-0.8-2.3-0.7-3.6c0.1-1.3,0.5-2.5,1.3-3.6c1.2-1.5,2.7-2.5,4.6-2.8c1.7-0.3,3.3,0,4.8,0.8
		c1,0.5,1.7,1.2,2.4,2.1C390.3,21.9,390.5,23.9,389.8,26.1z"/>
	<path class="st2" d="M396.8,11.5c-0.4-0.5-1.2-0.5-1.7-0.1l-3.2,2.9c-0.5,0.4-0.5,1.2-0.1,1.7l0,0c0.4,0.5,1.2,0.5,1.7,0.1l3.2-2.9
		C397.2,12.8,397.2,12,396.8,11.5z"/>
	<path class="st2" d="M400.7,23.6h-4.3c-0.7,0-1.2,0.5-1.2,1.2c0,0.7,0.5,1.2,1.2,1.2h4.3c0.7,0,1.2-0.5,1.2-1.2
		C401.9,24.2,401.3,23.6,400.7,23.6z"/>
	<path class="st2" d="M370,11.4c-0.5-0.4-1.2-0.4-1.7,0.1l0,0c-0.4,0.5-0.4,1.2,0.1,1.7l3.2,2.9c0.5,0.4,1.2,0.4,1.7-0.1l0,0
		c0.4-0.5,0.4-1.2-0.1-1.7L370,11.4z"/>
	<path class="st2" d="M369.6,23.6h-4.3c-0.7,0-1.2,0.5-1.2,1.2c0,0.7,0.5,1.2,1.2,1.2h4.3c0.7,0,1.2-0.5,1.2-1.2
		C370.8,24.2,370.3,23.6,369.6,23.6z"/>
	<path class="st2" d="M383,13c0.7,0,1.2-0.5,1.2-1.2V7.5c0-0.7-0.5-1.2-1.2-1.2c-0.7,0-1.2,0.5-1.2,1.2v4.3
		C381.8,12.5,382.4,13,383,13z"/>
</g>
<g>
	<path class="st2" d="M330,14.4c-0.8-3.4-2.6-5.9-5.9-7.2c-2-0.8-4.1-1-6.2-0.7c-2.9,0.4-5.1,1.9-6.6,4.4c-1.2,2-1.8,4.1-1.8,6.3
		c0,0.7,0,1.4,0.2,2.1c0.1,0.4,0.4,0.8,0.9,0.9c0.4,0.1,0.8-0.1,1.1-0.4c0.3-0.4,0.4-0.8,0.5-1.2c0.2-1.2,0.3-2.4,0.5-3.6
		c0.4-2.5,1.7-4.2,4-5.4c1.1-0.5,2.2-0.8,3.3-0.9c3-0.4,5.7,1.4,6.5,4.3c0.6,2.1,0.7,4.3,0.3,6.5c-0.6,3.3-2.1,6.1-4.7,8.2
		c-1.9,1.5-3.3,3.3-3.8,5.8c-0.1,0.6-0.4,1.2-0.7,1.7c-0.8,1.5-1.9,2-3.5,1.7c-1.5-0.3-2.3-1.3-2.2-2.8c0.1-0.8,0.3-1.5,0.5-2.2
		c0.2-0.7,0.3-1.4,0.1-2.1c-0.2-0.8-0.8-1.1-1.6-0.9c-0.6,0.2-1.2,0.5-1.6,1c-1,1.3-1.2,2.8-0.7,4.3c0.6,2.3,1.8,4.1,4.1,5.1
		c2.5,1,5.8,0,7-2.7c0.4-1,0.9-2,1.4-3c0.5-1.1,1.3-2,2.2-2.7c0.9-0.7,1.8-1.6,2.5-2.5c1.1-1.3,1.8-2.9,2.5-4.4
		c1-2.3,1.8-4.6,1.8-7.5C330.2,15.9,330.2,15.1,330,14.4z"/>
	<path class="st2" d="M315.9,23.4c-0.3,0.2-0.6,0.3-0.8,0.6c-0.9,1.2-1.3,2.5-1,3.9c0.4,1.7,2.1,2.7,3.7,2c0.8-0.3,1.3-1,1.7-1.7
		c0.6-1,1-2.1,1.3-3.2c0.4-1.5,0.3-2.9-0.7-4.3c-0.4-0.5-0.8-0.9-1.2-1.4c-0.7-0.8-1.3-1.5-1.7-2.5c-0.3-1.1,0-2.2,0.8-2.9
		c0.8-0.7,2.1-0.8,3-0.3c0.8,0.4,1.2,1.2,1.5,2.1c0.4,1.6,0.2,3.1-0.1,4.7c-0.1,0.5-0.2,0.9-0.2,1.4c0,0.3,0.1,0.5,0.4,0.6
		c0.3,0.1,0.4-0.1,0.6-0.3c0.3-0.4,0.4-0.8,0.6-1.1c0.8-1.7,1.2-3.6,0.8-5.5c-0.5-2.9-2.6-4.6-5.4-4.6c-0.6,0-1.2,0.1-1.9,0.4
		c-2,1.1-3,2.8-3.2,5c-0.1,1.2,0.4,2.3,1,3.4c0.4,0.8,0.9,1.7,1.1,2.5C316.5,22.9,316.4,23.1,315.9,23.4z"/>
</g>
<path class="st2" d="M293.6,32.9c-0.3,0-0.6-0.2-0.7-0.4l-3.4-7h-1.9c-0.4,0-0.8-0.4-0.8-0.8s0.4-0.8,0.8-0.8l0,0l2.4,0
	c0.3,0,0.6,0.2,0.7,0.4l2.5,5.1l2.1-14.3c0-0.4,0.4-0.7,0.8-0.7c0.4,0,0.7,0.2,0.8,0.6l2.5,10.4l1.7-4c0.1-0.3,0.4-0.5,0.7-0.5l0,0
	c0.3,0,0.6,0.2,0.7,0.4l2.2,4.8l1-1.7c0.1-0.2,0.4-0.4,0.7-0.4l0,0c2.1,0,4.5,0,4.8,0c0.4-0.1,0.8,0.1,0.9,0.5
	c0.1,0.4-0.1,0.8-0.5,1c-0.1,0-0.4,0.1-4.8,0l-1.5,2.5c-0.1,0.3-0.4,0.4-0.7,0.4c-0.3,0-0.5-0.2-0.7-0.4l-2.1-4.5l-2,4.6
	c-0.1,0.3-0.4,0.5-0.8,0.5c-0.4,0-0.6-0.3-0.7-0.6l-2.1-8.7l-1.8,12.8c0,0.4-0.3,0.6-0.7,0.7C293.7,32.9,293.7,32.9,293.6,32.9z
	 M311.1,24.3L311.1,24.3L311.1,24.3z M311.1,24.3L311.1,24.3L311.1,24.3z"/>
<path class="st2" d="M465.8,23.5c-0.1,0-0.3,0-0.5-0.1c-1-0.3-0.8-1.5-0.7-2.1c0-0.1,0-0.1,0-0.2c0.2-1,0.4-2,0.6-3
	c0-0.1,0-0.2,0-0.3c-0.1,0-0.2,0-0.4,0c-2,0.2-3.9,0.5-5.8,0.8c-2.8,0.4-5.5,0.7-8.3,1c-0.7,0.1-1.2,0.1-1.6,0.1c-1.7,0-1.8-1.2-2-3
	v-0.1c-0.1-1.2-0.3-2.4-0.5-3.5c-0.1-0.5-0.2-1.1-0.2-1.6c0,0,0-0.1,0-0.1c0,0,0-0.1,0-0.1c0-0.2-0.1-0.6,0.1-0.9
	c0.3-0.6,1.2-0.6,1.7-0.6c0,0,0.1,0,0.2,0c2.3,0.1,4.6,0.3,6.8,0.4c1.1,0.1,2.1,0.1,3.2,0.2c1.7,0.1,3.3,0.2,5,0.3l1.2,0.1v0
	c-0.4-1.1-0.8-2.1-1.1-3.1c-0.3-0.8-0.2-1.3,0.2-1.7c0.1-0.1,0.4-0.2,0.7-0.2c0.4,0,0.7,0.2,1,0.4l0.1,0c0.3,0.1,0.5,0.4,0.7,0.5
	c0,0,0.1,0.1,0.2,0.2c0,0,6.6,5.4,6.6,5.4l0.1,0.1c1.6,1.3,1.8,1.7,1.8,2.2c0,0.4-0.2,0.9-1.3,2l-7.1,6.8c-0.1,0.1-0.2,0.2-0.4,0.2
	C466,23.4,465.9,23.5,465.8,23.5z M449.7,17.2l1.7-0.2c1.7-0.2,3.4-0.4,5.1-0.6c3.2-0.4,6.4-0.8,9.5-1.2c0.1-0.3,0.3-1,0-1.5
	c-0.1-0.3-0.3-0.4-0.4-0.4c-2.6-0.2-5.4-0.4-7.9-0.6c-1.2-0.1-2.4-0.1-3.6-0.2c-1.3-0.1-2.6-0.2-3.9-0.3l-1.1-0.1L449.7,17.2z"/>
<path class="st2" d="M443.4,19.4c0.1,0,0.3,0,0.5,0.1c1,0.3,0.8,1.5,0.7,2.1c0,0.1,0,0.1,0,0.2c-0.2,1-0.4,2-0.6,3
	c0,0.1,0,0.2,0,0.3c0.1,0,0.2,0,0.4,0c2-0.2,3.9-0.5,5.8-0.8c2.8-0.4,5.5-0.7,8.3-1c0.7-0.1,1.2-0.1,1.6-0.1c1.7,0,1.8,1.2,2,3v0.1
	c0.1,1.2,0.3,2.4,0.5,3.5c0.1,0.5,0.2,1.1,0.2,1.6c0,0,0,0.1,0,0.1c0,0,0,0.1,0,0.1c0,0.2,0.1,0.6-0.1,0.9c-0.3,0.6-1.2,0.6-1.7,0.6
	c0,0-0.1,0-0.2,0c-2.3-0.1-4.6-0.3-6.8-0.4c-1.1-0.1-2.1-0.1-3.2-0.2c-1.7-0.1-3.3-0.2-5-0.3l-1.2-0.1v0c0.4,1.1,0.8,2.1,1.1,3.1
	c0.3,0.8,0.2,1.3-0.2,1.7c-0.1,0.1-0.4,0.2-0.7,0.2c-0.4,0-0.7-0.2-1-0.4l-0.1,0c-0.3-0.1-0.5-0.4-0.7-0.5c0,0-0.1-0.1-0.2-0.2
	c0,0-6.6-5.4-6.6-5.4l-0.1-0.1c-1.6-1.3-1.8-1.7-1.8-2.2c0-0.4,0.2-0.9,1.3-2l7-6.8c0.1-0.1,0.2-0.2,0.4-0.2
	C443.2,19.4,443.3,19.4,443.4,19.4z M459.5,25.6l-1.7,0.2c-1.7,0.2-3.4,0.4-5.1,0.6c-3.2,0.4-6.4,0.8-9.5,1.2c-0.1,0.3-0.3,1,0,1.5
	c0.1,0.3,0.3,0.4,0.4,0.4c2.6,0.2,5.4,0.4,7.9,0.6c1.2,0.1,2.4,0.1,3.6,0.2c1.3,0.1,2.6,0.2,3.9,0.3l1.1,0.1L459.5,25.6z"/>
<g>
	<path class="st2" d="M234.8,16.1c0.8-0.7,1.5-1.3,2.3-1.9c1.1-0.8,2.4-1.4,3.7-1.8c3.7-1.1,7.2-0.8,10.5,1.1c1,0.6,2,1.3,2.8,2.2
		c1.8,2,2.8,4.2,3.1,6.8c0.4,3.6-0.5,6.9-2.9,9.6c-2.1,2.5-4.7,4-7.9,4.4c-3.7,0.5-7.1-0.5-10.1-2.8c-0.8-0.6-1.5-1.2-2.1-2
		c-0.3-0.4-0.3-0.7,0.1-1c0.4-0.4,0.9-0.8,1.4-1.2c0.4-0.3,0.7-0.6,1.1-0.9c0.4-0.4,0.8-0.3,1.1,0.1c0.8,0.9,1.8,1.8,2.9,2.5
		c2.7,1.5,5.3,1.4,7.9-0.1c3.2-1.9,4.3-5.3,3.7-8.5c-0.3-1.6-1-3-2.2-4.1c-0.9-0.9-2.1-1.5-3.4-1.8c-2.4-0.5-4.6,0-6.6,1.4
		c-0.6,0.4-1.2,0.9-1.7,1.4c-0.7,0.6-1.4,1.2-2.1,1.8c-0.2,0.2-0.2,0.3,0,0.4c0.4,0.5,0.9,1,1.3,1.5c0.4,0.5,0.2,1-0.4,1.1
		c-1.7,0.3-3.4,0.6-5.1,0.8c-1.2,0.2-2.3,0.4-3.5,0.6c-0.3,0-0.5,0.1-0.8-0.1c-0.3-0.2-0.3-0.5-0.2-0.8c0.6-1.7,1.2-3.5,1.7-5.2
		c0.4-1,0.7-2.1,1-3.1c0.1-0.3,0.2-0.5,0.5-0.6s0.5,0.1,0.7,0.4c0.4,0.4,0.8,0.9,1.1,1.3c0.1,0.2,0.2,0.1,0.4,0
		C233.6,17.1,234.2,16.6,234.8,16.1z"/>
</g>
<g>
	<g>
		<path class="st0" d="M557,19.8c-0.7-3.7-1.4-7.7-2.6-11c-2-5.3-5-5.8-9-5.9c-6.1-0.2-36.7,2.3-40.9,3.2c-3.3,0.7-5.3,3.3-6.2,7.8
			c-0.8,3.7-3.2,18.9-3.2,21.6c0,3.6,1.3,8.8,6.8,9.8c4.9,0.9,9.7,0.8,18.9,0.8c5.8,0,16.6,0.7,23.5,0.8c4.6,0.2,8,0.3,9.2,0.2
			c4.1-0.4,6-3.2,6.1-6.9C559.9,35.9,557.7,23.3,557,19.8z"/>
		<path class="st6" d="M555.8,18.9c-0.7-3.7-1.4-7.7-2.6-11c-2-5.3-5-5.8-9-5.9c-6.1-0.2-36.7,2.3-40.9,3.2
			c-3.3,0.7-5.3,3.3-6.2,7.8c-0.8,3.7-3.2,18.9-3.2,21.6c0,3.6,1.3,8.8,6.8,9.8c4.9,0.9,9.7,0.8,18.9,0.8c5.8,0,16.6,0.7,23.5,0.8
			c4.6,0.2,8,0.3,9.2,0.2c4.1-0.4,6-3.2,6.1-6.9C558.7,35,556.5,22.4,555.8,18.9z"/>
		<path class="st2" d="M508.7,6.2c0,0-8.3-0.7-9.1,6.8C499.5,13,501.9,6.3,508.7,6.2z"/>
		<path class="st2" d="M548,45.4c0,0,8.3,1.1,9.5-6.4C557.5,39,554.8,45.6,548,45.4z"/>
	</g>
	<g>
		<path class="st2" d="M527.5,40.8c-0.8,0-1.5,0-2.3-0.2c-4-0.6-7.2-2.4-9.8-5.3c-2.8-3.3-4-7-3.5-11.3c0.4-3.7,2-7,4.9-9.5
			c2.2-2.1,5-3.3,8-3.9c0.4,0,0.8-0.1,1.2-0.2c0.2,0,0.5-0.1,0.5-0.1h2h0c0.1,0,0.2,0,0.3,0c0.1,0,0.1,0,0.2,0
			c3.8,0.4,7.1,2,9.8,4.7c2.1,2.2,3.5,4.8,4,7.8c0.1,0.4,0.1,0.8,0.2,1.1c0,0.2,0,0.4,0.1,0.5l0,0v2c0,0,0,0.3,0,0.4
			c0,0.3-0.1,0.6-0.1,0.9c-0.5,3.3-2,6.1-4.4,8.4c-1.3,1.3-2.9,2.3-4.6,3.1C531.8,40.4,529.7,40.8,527.5,40.8L527.5,40.8z
			 M527.5,12.8c-7.3,0-13.3,5.8-13.3,12.8c0,3.4,1.4,6.6,3.9,9.1c2.5,2.5,5.8,3.8,9.3,3.8c7.3,0,13.3-5.8,13.3-12.8
			C540.7,18.6,534.7,12.8,527.5,12.8v-0.3V12.8z"/>
		<path class="st2" d="M529.4,23.8c0-0.8-0.5-1.6-1.3-1.8c-1.2-0.4-2.5,0.4-2.5,1.8c0,1.6,0,3.1,0,4.7s0,3.1,0,4.7
			c0,0.8,0.5,1.6,1.3,1.8c1.2,0.4,2.5-0.5,2.5-1.8c0-1.3,0-2.7,0-4.1C529.4,27.3,529.4,25.5,529.4,23.8z"/>
		<path class="st2" d="M527.4,20.1c1.1,0,1.9-0.8,1.9-1.9c0-1-0.8-1.9-1.9-1.9c-1.1,0-2,0.8-2,1.8C525.5,19.2,526.4,20,527.4,20.1z"
			/>
	</g>
</g>
<g>
	<path class="st0" d="M62.7,73.9c-0.7-3.7-1.4-7.7-2.6-10.9c-2-5.3-5-5.8-9-5.9c-6.1-0.2-36.7,2.3-40.9,3.2C6.9,61,5,63.6,4.1,68.1
		C3.4,71.8,1,87,0.9,89.7c0,3.6,1.3,8.8,6.8,9.8c4.9,0.9,9.7,0.8,18.9,0.8c5.8,0,16.6,0.7,23.5,0.8c4.6,0.2,8,0.3,9.2,0.2
		c4.1-0.4,6-3.2,6.1-6.9C65.6,90,63.4,77.4,62.7,73.9z"/>
	<path class="st1" d="M61.5,73.5c-0.7-3.7-1.4-7.7-2.6-10.9c-2-5.3-5-5.8-9-5.9c-6.1-0.2-36.7,2.3-40.9,3.2
		c-3.3,0.7-5.3,3.3-6.2,7.8c-0.8,3.7-3.2,18.9-3.2,21.6c0,3.6,1.3,8.8,6.8,9.8c4.9,0.9,9.7,0.8,18.9,0.8c5.8,0,16.6,0.7,23.5,0.8
		c4.6,0.2,8,0.3,9.2,0.2c4.1-0.4,6-3.2,6.1-6.9C64.4,89.5,62.2,76.9,61.5,73.5z"/>
	<path class="st2" d="M14.4,60.7c0,0-8.3-0.7-9.1,6.8C5.2,67.6,7.6,60.9,14.4,60.7z"/>
	<path class="st2" d="M53.7,99.9c0,0,8.3,1.1,9.5-6.4C63.2,93.5,60.5,100.2,53.7,99.9z"/>
</g>
<g>
	<path class="st0" d="M73.5,85.4c0.7,3.7,1.4,7.7,2.6,11c2,5.3,5,5.8,9,5.9c6.1,0.2,36.7-2.3,40.9-3.2c3.3-0.7,5.3-3.3,6.2-7.8
		c0.8-3.7,3.2-18.9,3.2-21.6c0-3.6-1.3-8.8-6.8-9.8c-4.9-0.9-9.7-0.8-18.9-0.8c-5.8,0-16.6-0.7-23.5-0.8c-4.6-0.2-8-0.3-9.2-0.2
		c-4.1,0.4-6,3.2-6.1,6.9C70.6,69.3,72.9,81.9,73.5,85.4z"/>
	<path class="st4" d="M72.5,84.5c0.7,3.7,1.4,7.7,2.6,11c2,5.3,5,5.8,9,5.9c6.1,0.2,36.7-2.3,40.9-3.2c3.3-0.7,5.3-3.3,6.2-7.8
		c0.8-3.7,3.2-18.9,3.2-21.6c0-3.6-1.3-8.8-6.8-9.8c-4.9-0.9-9.7-0.8-18.9-0.8c-5.8,0-16.6-0.7-23.5-0.8c-4.6-0.2-8-0.3-9.2-0.2
		c-4.1,0.4-6,3.2-6.1,6.9C69.6,68.4,71.9,81,72.5,84.5z"/>
	<path class="st2" d="M119.7,97.2c0,0,8.3,0.7,9.1-6.8C128.8,90.3,126.4,97.1,119.7,97.2z"/>
	<path class="st2" d="M80.3,58c0,0-8.3-1.1-9.5,6.4C70.8,64.4,73.5,57.8,80.3,58z"/>
</g>
<g class="st9">
	<path class="st2" d="M117.6,66.8c-0.3-1.3-1.5-2.4-2.9-2.6c-0.1,0-0.5-0.1-0.8-0.1c-0.2,0-1.3,0.2-2,0.3c-2.2,0.3-4.4,0.6-6.6,0.9
		c-2.1,0.3-4.3,0.6-6.5,0.9c-1.1,0.1-2.3,0.3-3.4,0.5c-1.4,0.2-2.5,1.7-2.5,3.3c0,2.4,0,13.3,0,16.5c0,0.1,0,0.2,0,0.3
		c-3-0.3-5.3,1-7.1,3.3c-0.6,0.8-1,1.8-1.1,2.8C84.7,95,85.9,96.6,88,97c0.4,0.1,1.3,0.1,1.8,0c0.5-0.1,1-0.2,1.6-0.4
		c2.1-0.8,3.8-2.3,4.6-4.5c0.2-0.5,0.3-1.1,0.3-1.7c0-4.5,0-13.8,0-14c6-0.8,12-1.6,18-2.4c0,3.7,0,7.4,0,11c-2.2-0.2-4.1,0.5-5.8,2
		c-1.2,1-2.1,2.3-2.4,3.9c-0.4,2.2,1.1,4.2,3.3,4.5c2.7,0.3,4.8-0.8,6.5-2.7c0.9-1,1.5-2.2,1.6-3.6c0,0,0-0.1,0-0.2
		c0-0.1,0-18.3,0-19.9c0-0.5,0-1,0-1.6C117.6,67.2,117.6,67,117.6,66.8z M94.5,91.5c-0.6,1.6-1.8,2.8-3.7,3.6
		c-0.4,0.1-0.8,0.3-1.3,0.4c0,0-0.1,0-0.3,0c-0.3,0-0.7,0-0.9-0.1c-1.2-0.2-2-1.2-1.9-2.4c0-0.7,0.3-1.4,0.8-2c1.4-1.9,3-2.8,5-2.8
		c0.2,0,0.4,0,0.7,0c0,0,0.1,0,0.1,0c0.5,0,0.7,0,1-0.4c0.6-0.6,0.7,2.5,0.7,2.5C94.7,90.8,94.6,91.2,94.5,91.5z M116.1,88.5
		c0,0.1,0,0.2,0,0.4c0,0.9-0.4,1.8-1.2,2.6c-1.4,1.5-2.9,2.3-4.6,2.3c-0.2,0-0.4,0-0.6,0c-0.6,0-1.2-0.4-1.5-0.8
		c-0.4-0.5-0.5-1.1-0.4-1.8c0.2-1.1,0.8-2.1,1.8-2.9c1.3-1.1,2.6-1.6,4-1.6c0.2,0,0.4,0,0.6,0c0,0,0.1,0,0.2,0
		c0.4,0,0.7-0.3,1.1-0.4C116.2,85.8,116.1,88.5,116.1,88.5z"/>
</g>
<g class="st9">
	<path class="st2" d="M32.3,67.2c-0.1-0.4-0.5-0.7-1-0.4c-0.3,0.1-0.5,0.3-0.8,0.5c-3.3,2.7-6.6,5.5-9.9,8.2
		c-0.1,0.1-0.4,0.2-0.5,0.2c-1.5,0-3,0-4.5,0c-0.2,0-0.4,0-0.5,0c-0.7,0.2-1,0.6-1.2,1.2c0,2.4,0,4.8,0,7.2c0.3,0.9,1,1.3,2,1.3
		c1.4,0,2.8,0,4.1,0c0.2,0,0.4,0.1,0.6,0.2c3.3,2.8,6.6,5.5,10,8.3c0.2,0.2,0.4,0.3,0.7,0.4c0.4,0.2,0.8,0,1-0.4
		c0.1-0.2,0.1-0.5,0.1-0.7c0-8.4,0-16.9,0-25.3C32.4,67.6,32.3,67.4,32.3,67.2z M29.8,89.8c-0.5-0.4-1-0.8-1.6-1.3
		c-1.9-1.6-3.9-3.3-5.9-4.9c-0.3-0.3-0.7-0.5-1.1-0.6c-0.7-0.2-0.8-4.8,0-5c0.4-0.1,0.8-0.3,1.1-0.6c1.9-1.6,3.7-3.1,5.6-4.6
		c0.6-0.5,1.3-1.1,1.9-1.6C29.8,77.6,29.8,83.8,29.8,89.8z"/>
	<path class="st2" d="M48.4,78.1c-0.4-2.8-1.3-5.4-2.8-7.7c-1.1-1.7-2.3-3.1-3.9-4.3c-0.6-0.5-1.5-0.3-1.9,0.3
		c-0.4,0.6-0.3,1.4,0.3,1.9c1.9,1.5,3.3,3.4,4.3,5.6c1.6,3.6,1.9,7.3,1,11.2c-0.8,3.2-2.5,5.8-5.3,7.7c-0.6,0.4-0.8,1.2-0.4,1.8
		c0.4,0.6,1.2,0.8,1.8,0.5c0.3-0.1,0.5-0.3,0.8-0.5c3.6-2.7,5.5-6.3,6.2-10.7c0.1-0.6,0.1-1.1,0.2-1.7c0-0.8,0-1.7,0-2.6
		C48.6,79.1,48.5,78.6,48.4,78.1z"/>
	<path class="st2" d="M40.6,74.6c-0.8-1.2-1.7-2.3-2.9-3.2c-0.7-0.5-1.5-0.4-2,0.3c-0.4,0.6-0.3,1.4,0.4,1.9
		c0.2,0.1,0.4,0.3,0.5,0.4c2.4,2.3,3.3,5.2,2.7,8.4c-0.4,2.1-1.4,3.7-3.3,4.9c-0.6,0.4-0.8,1.2-0.4,1.8c0.4,0.6,1.2,0.8,1.8,0.5
		c0.4-0.2,0.7-0.4,1-0.7c2.6-2.1,3.7-5,3.7-7.2C42.3,78.6,41.7,76.5,40.6,74.6z"/>
</g>
</svg>
