<?xml version="1.0" encoding="utf-8"?>
<!-- Generator: Adobe Illustrator 21.0.0, SVG Export Plug-In . SVG Version: 6.00 Build 0)  -->
<svg version="1.1" id="Layer_1" xmlns="http://www.w3.org/2000/svg" xmlns:xlink="http://www.w3.org/1999/xlink" x="0px" y="0px"
	 viewBox="0 0 1289 153" style="enable-background:new 0 0 1289 153;" xml:space="preserve">
<style type="text/css">
	.st0{fill:#FAADFF;}
	.st1{fill:#A7A8AC;}
	.st2{fill:#955AA3;}
	.st3{fill:#3CA7C2;}
	.st4{fill:#F6921E;}
	.st5{fill:#ECC91A;}
	.st6{fill:#62C4B6;}
	.st7{fill:#ED4A94;}
	.st8{fill:#FFFFFF;}
	.st9{fill:#B8D432;}
</style>
<rect x="28.5" y="24.9" class="st0" width="148.9" height="101.9"/>
<path class="st1" d="M1278,67.4c-1.5-8.2-3.1-17.3-5.8-24.6c-2.1-5.7-4.9-9-8.1-10.8c2.1,2,3.9,4.8,5.4,8.8
	c2.7,7.3,4.3,16.4,5.8,24.6c1.5,7.9,6.5,36.1,6,45.8c-0.3,8.4-4.5,14.6-13.7,15.5c-2.8,0.2-10.5,0-20.7-0.4
	c-15.3-0.4-39.5-1.9-52.6-1.9c-20.7,0.1-31.5,0.3-42.4-1.7c-2.2-0.4-4.2-1.2-5.8-2.1c2.2,2,4.9,3.5,8.5,4.1
	c10.9,2,21.7,1.8,42.4,1.7c13.1,0,37.3,1.5,52.6,1.9c10.2,0.4,17.9,0.6,20.7,0.4c9.2-0.9,13.4-7.1,13.7-15.5
	C1284.5,103.5,1279.5,75.3,1278,67.4z"/>
<path class="st2" d="M1139.4,102.7c0.1-6.1,5.5-40.1,7.2-48.5c2-10.1,6.3-15.9,13.8-17.5c9.4-2.1,78-7.6,91.7-7.2
	c4.5,0.1,8.6,0.5,12,2.5c-4-3.7-8.9-4.3-14.7-4.5c-13.7-0.4-82.3,5.1-91.7,7.2c-7.5,1.6-11.8,7.4-13.8,17.5
	c-1.7,8.4-7.1,42.4-7.2,48.5c-0.1,6.5,2,15.5,9.4,19.9C1140.9,115.8,1139.4,108.3,1139.4,102.7z"/>
<path class="st2" d="M1211.7,109.3c16.4,0,29.7-12.9,29.7-28.7c0-15.9-13.3-28.8-29.6-28.8c-16.4,0-29.7,12.9-29.7,28.7
	c0,7.7,3.1,14.9,8.7,20.3C1196.4,106.3,1203.8,109.3,1211.7,109.3z M1216.1,88.3c0,3,0,6.1,0,9.1c0,2.9-2.8,4.8-5.6,4
	c-1.8-0.5-3-2.1-3-4c0-3.5,0-7,0-10.5s0-7,0-10.5c0-3,2.9-4.9,5.7-4c1.7,0.5,2.9,2.1,2.9,4C1216.1,80.3,1216.1,84.3,1216.1,88.3z
	 M1211.7,59.6c2.4,0,4.3,1.9,4.3,4.2s-1.9,4.2-4.3,4.2c-2.4-0.1-4.3-2-4.4-4.3C1207.3,61.4,1209.3,59.6,1211.7,59.6z"/>
<path class="st2" d="M1194.3,124.4c13.1,0,37.3,1.5,52.6,1.9c10.2,0.4,17.9,0.6,20.7,0.4c9.2-0.9,13.4-7.1,13.7-15.5
	c0.5-9.7-4.5-37.9-6-45.8c-1.5-8.2-3.1-17.3-5.8-24.6c-1.5-4.1-3.3-6.9-5.4-8.8c-3.4-2-7.5-2.4-12-2.5c-13.7-0.4-82.3,5.1-91.7,7.2
	c-7.5,1.6-11.8,7.4-13.8,17.5c-1.7,8.4-7.1,42.4-7.2,48.5c-0.1,5.7,1.5,13.1,6.7,17.9c1.7,1,3.6,1.7,5.8,2.1
	C1162.8,124.7,1173.6,124.5,1194.3,124.4z M1177,77c0.9-8.4,4.5-15.6,11-21.4c5-4.6,11.1-7.5,17.9-8.7c0.9-0.1,1.7-0.3,2.6-0.4
	c0.4,0,1.2-0.2,1.2-0.2h4.5h0.1c0.2,0.1,0.4,0.1,0.7,0.1c0.2,0,0.3,0,0.5,0c8.6,1,16,4.5,21.9,10.6c4.8,4.9,7.8,10.8,9,17.5
	c0.2,0.8,0.3,1.7,0.4,2.5c0.1,0.4,0.1,0.8,0.2,1.2v4.5c0,0-0.1,0.7-0.1,1c-0.1,0.7-0.2,1.4-0.3,2.1c-1.2,7.3-4.5,13.6-9.9,18.9
	c-2.9,2.9-6.4,5.2-10.3,6.9c-4.8,2-9.6,3-14.5,3c-1.7,0-3.4-0.1-5.1-0.4c-8.9-1.3-16.2-5.3-21.9-11.9C1178.7,95,1176,86.5,1177,77z"
	/>
<path class="st1" d="M1117.5,63c-1.5-8.2-3.1-17.3-5.8-24.5c-2.9-7.8-6.9-11-11.7-12.3c3.7,1.8,6.7,5.1,9,11.3
	c2.7,7.2,4.3,16.3,5.8,24.5c1.4,7.8,6.5,36,6,45.9c-0.3,8.4-4.5,14.6-13.7,15.5c-2.8,0.2-10.5,0-20.7-0.4
	c-15.3-0.4-39.5-1.9-52.6-1.9c-20.7,0.1-31.5,0.3-42.4-1.7c-0.6-0.1-1.2-0.3-1.8-0.4c1.3,0.6,2.8,1.1,4.5,1.4
	c10.9,2,21.7,1.8,42.4,1.7c13.1,0,37.3,1.5,52.6,1.9c10.2,0.4,17.9,0.6,20.7,0.4c9.2-0.9,13.4-7.1,13.7-15.5
	C1124,99,1118.9,70.8,1117.5,63z"/>
<path class="st3" d="M978.9,98.4c0.1-6.1,5.5-40.1,7.2-48.5c2-10.1,6.3-15.9,13.8-17.5c9.4-2.1,78-7.6,91.7-7.2c3,0.1,5.8,0.3,8.4,1
	c-3.2-1.5-6.9-1.9-11.1-2c-13.7-0.4-82.3,5.1-91.7,7.2c-7.5,1.6-11.8,7.4-13.8,17.5c-1.7,8.4-7.1,42.4-7.2,48.5
	c-0.1,7.6,2.7,18.5,13.4,21.6C981.2,115,978.9,105.3,978.9,98.4z"/>
<path class="st3" d="M1023.6,89.4c5.9,0.5,12,0.9,17.8,1.3c2.7,0.2,5.4,0.3,8.1,0.5c2.9,0.2,5.8,0.4,8.8,0.6l2.5,0.2l-1.4-11.5
	l-3.8,0.5c-3.9,0.5-7.7,0.9-11.5,1.4c-7.1,0.9-14.3,1.8-21.4,2.7c-0.3,0.6-0.6,2.2-0.1,3.4C1022.9,89.2,1023.3,89.3,1023.6,89.4z"/>
<path class="st3" d="M1041.4,61.2c3.9-0.5,7.7-0.9,11.5-1.4c7.1-0.9,14.3-1.8,21.4-2.7c0.3-0.6,0.6-2.2,0.1-3.4
	c-0.3-0.7-0.7-0.8-1-0.9c-5.9-0.5-12-0.9-17.8-1.3c-2.7-0.2-5.4-0.3-8.1-0.5c-2.9-0.2-5.8-0.4-8.8-0.6l-2.5-0.2l1.4,11.5
	L1041.4,61.2z"/>
<path class="st3" d="M1033.8,121.1c13.1,0,37.3,1.5,52.6,1.9c10.2,0.4,17.9,0.6,20.7,0.4c9.2-0.9,13.4-7.1,13.7-15.5
	c0.5-9.9-4.6-38.1-6-45.9c-1.5-8.2-3.1-17.3-5.8-24.5c-2.3-6.3-5.4-9.6-9-11.3c-2.5-0.7-5.3-0.9-8.4-1c-13.7-0.4-82.3,5.1-91.7,7.2
	c-7.5,1.6-11.8,7.4-13.8,17.5c-1.7,8.4-7.1,42.4-7.2,48.5c-0.1,6.9,2.2,16.6,10.7,20.6c0.6,0.2,1.1,0.3,1.8,0.4
	C1002.3,121.4,1013.1,121.2,1033.8,121.1z M1030.4,46.3c0.7-1.3,2.6-1.4,3.7-1.4c0.1,0,0.2,0,0.4,0c5.1,0.3,10.2,0.6,15.2,1
	c2.4,0.2,4.8,0.3,7.2,0.5c3.7,0.2,7.3,0.5,11.1,0.7l2.8,0.2v-0.1c-0.9-2.4-1.7-4.7-2.4-7c-0.6-1.7-0.4-3,0.5-3.7
	c0.3-0.2,0.8-0.5,1.5-0.5c0.8,0,1.6,0.4,2.3,0.8l0.2,0.1c0.6,0.3,1.1,0.8,1.5,1.1c0.1,0.1,0.3,0.3,0.4,0.4c0,0,14.7,12.1,14.7,12.2
	l0.2,0.2c3.5,3,4.1,3.9,4.1,4.9c0,0.9-0.5,2-2.9,4.4l-15.8,15.2c-0.2,0.2-0.5,0.4-0.8,0.4c-0.2-0.1-0.5,0-0.8,0s-0.6-0.1-1.1-0.2
	c-2.3-0.7-1.8-3.4-1.5-4.7c0-0.2,0.1-0.3,0.1-0.5c0.4-2.2,0.8-4.4,1.3-6.7c0-0.2,0.1-0.4,0.1-0.6c-0.3,0-0.5,0-0.8,0.1
	c-4.4,0.5-8.7,1.1-13.1,1.7c-6.2,0.8-12.4,1.6-18.6,2.3c-1.6,0.2-2.7,0.3-3.6,0.3c-3.9,0-4.1-2.7-4.5-6.7v-0.3
	c-0.3-2.6-0.7-5.3-1.1-7.9c-0.2-1.2-0.4-2.4-0.5-3.6c0-0.1,0-0.2,0-0.2c0-0.1,0-0.2,0-0.3C1030.1,47.9,1030,47.1,1030.4,46.3z
	 M1006.1,82.2l15.8-15.2c0.2-0.2,0.5-0.4,0.8-0.4c0.2,0,0.5,0,0.8,0s0.6,0.1,1.1,0.2c2.3,0.7,1.8,3.4,1.5,4.7c0,0.2-0.1,0.3-0.1,0.5
	c-0.4,2.2-0.8,4.4-1.3,6.7c0,0.2-0.1,0.4-0.1,0.6c0.3,0,0.5,0,0.8-0.1c4.4-0.5,8.7-1.1,13.1-1.7c6.2-0.8,12.4-1.6,18.6-2.3
	c1.6-0.2,2.7-0.3,3.6-0.3c3.9,0,4.1,2.7,4.5,6.7v0.3c0.3,2.6,0.7,5.3,1.1,7.9c0.2,1.2,0.4,2.4,0.5,3.6c0,0.1,0,0.2,0,0.2
	c0,0.1,0,0.2,0,0.3c0.1,0.5,0.2,1.3-0.2,2.1c-0.7,1.3-2.6,1.4-3.7,1.4c-0.1,0-0.2,0-0.4,0c-5.1-0.3-10.2-0.6-15.2-1
	c-2.4-0.2-4.8-0.3-7.2-0.5c-3.7-0.2-7.3-0.5-11.1-0.7l-2.8-0.2v0.1c0.9,2.4,1.7,4.7,2.4,7c0.6,1.7,0.4,3-0.5,3.7
	c-0.3,0.2-0.8,0.5-1.5,0.5c-0.8,0-1.6-0.4-2.3-0.8l-0.2-0.1c-0.6-0.3-1.1-0.8-1.5-1.1c-0.1-0.1-0.3-0.3-0.4-0.4
	c0,0-14.7-12.1-14.7-12.2l-0.2-0.2c-3.5-3-4.1-3.9-4.1-4.9C1003.2,85.7,1003.7,84.6,1006.1,82.2z"/>
<path class="st1" d="M952.2,33.7c4.5,4.7,5.9,11.7,5.8,17c-0.1,6.1-5.5,40.1-7.2,48.5c-2,10.1-6.3,15.9-13.8,17.5
	c-9.4,2.1-78,7.6-91.7,7.2c-5-0.1-9.4-0.6-13.1-3.2c4.1,4.3,9.3,5,15.4,5.2c13.7,0.4,82.3-5.1,91.7-7.2c7.5-1.6,11.8-7.4,13.8-17.5
	c1.7-8.4,7.1-42.4,7.2-48.5C960.4,46.6,958.6,38.2,952.2,33.7z"/>
<path class="st4" d="M821.7,88c-1.4-7.9-6.5-36.1-6-45.8c0.3-8.4,4.5-14.6,13.7-15.5c2.8-0.2,10.5,0,20.7,0.4
	c15.3,0.4,39.5,1.9,52.6,1.9c20.7-0.1,31.5-0.3,42.4,1.7c2.8,0.5,5.1,1.6,7.1,3c-2.3-2.4-5.3-4.2-9.4-5c-10.9-2-21.7-1.8-42.4-1.7
	c-13.1,0-37.3-1.5-52.6-1.9c-10.3-0.4-17.9-0.6-20.8-0.4c-9.2,0.9-13.4,7.1-13.7,15.5c-0.4,9.7,4.6,37.9,6.1,45.8
	c1.5,8.2,3.1,17.3,5.8,24.6c1.9,5.1,4.3,8.2,7,10.1c-1.8-1.9-3.4-4.5-4.7-8.1C824.8,105.3,823.2,96.2,821.7,88z"/>
<path class="st4" d="M875.9,88c0.7,1.3,1.4,2.7,2,4c0.2,0.4,0.4,0.5,0.9,0.5c0.8,0,1.7,0,2.5,0v-6.9c0-3.8,3.1-6.8,6.8-6.8
	c3.8,0,6.8,3.1,6.8,6.8v6.8c0.8,0,1.7,0,2.5,0c0.4,0,0.6-0.1,0.8-0.5c0.5-1.2,1.1-2.3,1.7-3.5c0.5-1,1-2,1.5-3
	c0.7-1.2,1.5-2.5,1.9-3.8c1.5-4.9,1-9.5-2-13.6c-1.4-2-3.1-3.6-5.3-4.8c-3.4-1.9-7-2.4-10.8-1.8c-4.2,0.7-7.6,2.9-10.2,6.3
	c-1.8,2.4-2.7,5.1-2.9,8c-0.2,2.9,0.2,5.6,1.6,8.1C874.4,85.1,875.2,86.6,875.9,88z"/>
<path class="st4" d="M937,116.7c7.5-1.6,11.8-7.4,13.8-17.5c1.7-8.4,7.1-42.4,7.2-48.5c0.1-5.3-1.3-12.3-5.8-17
	c-1.9-1.4-4.2-2.4-7.1-3c-10.9-2-21.7-1.8-42.4-1.7c-13.1,0-37.3-1.5-52.6-1.9c-10.2-0.4-17.9-0.6-20.7-0.4
	c-9.2,0.9-13.4,7.1-13.7,15.5c-0.5,9.7,4.6,37.9,6,45.8c1.5,8.2,3.1,17.3,5.8,24.6c1.3,3.6,2.9,6.2,4.7,8.1c3.7,2.6,8.1,3,13.1,3.2
	C859,124.3,927.6,118.8,937,116.7z M930.3,78.7c0,1.5-1.2,2.7-2.7,2.7h-9.7c-1.5,0-2.7-1.2-2.7-2.7s1.2-2.7,2.7-2.7h9.7
	C929.1,76,930.3,77.2,930.3,78.7z M907.9,55.1l7.2-6.5c1.1-1,2.8-0.9,3.8,0.2c1,1.1,0.9,2.9-0.2,3.8l-7.2,6.5
	c-1.1,1-2.8,0.9-3.8-0.2C906.7,57.8,906.8,56.1,907.9,55.1z M885.4,39.9c0-1.5,1.2-2.7,2.7-2.7s2.7,1.2,2.7,2.7v9.7
	c0,1.5-1.2,2.7-2.7,2.7s-2.7-1.3-2.7-2.7V39.9z M867.4,75.2c0-0.2,0.1-0.3,0.1-0.4c0.3-2.9,1.2-5.7,2.8-8.3c1.4-2.3,3.1-4.3,5.3-5.9
	c2.5-1.8,5.2-3,8.2-3.6c0.8-0.2,1.7-0.3,2.6-0.4c1.1,0,2.1,0,3.2,0c0.6,0,1.1,0.1,1.7,0.2c4,0.6,7.5,2.3,10.6,4.9
	c2.3,1.9,3.8,4.3,5.1,6.9c0.5,1.1,0.8,2.3,1,3.4c0.2,1,0.3,2.1,0.5,3.1c0,1.1,0,2.1,0,3.2c-0.1,0.5-0.2,1.1-0.3,1.7
	c-0.3,2-0.9,3.8-1.9,5.5c-1.6,3-3,6-4.5,9c-1.3,2.1-3.4,2.4-4,2.4c-0.3,0.2-0.3,0.3-0.3,0.6c0,0.7,0,1.3,0,2c0,1.2,0,8.3,0,9
	c0,1.3-0.8,2.2-2.2,2.2c-3.1,0-10.4,0.1-13.4,0.1c-1.5,0-2.3-0.9-2.3-2.3c0-0.7-0.1-8-0.1-9.8c0-0.4,0-0.9,0-1.3
	c0-0.2-0.2-0.4-0.3-0.6c-0.5-0.5-2.4,0.1-4.6-1.7c-0.4-0.3-0.6-0.9-0.8-1.4c-1.3-2.5-2.6-5.1-3.9-7.6c-0.9-1.5-1.7-3.1-2-4.9
	c-0.2-0.9-0.3-1.8-0.5-2.7C867.4,77.4,867.4,76.3,867.4,75.2z M855.2,48.8c1-1.1,2.7-1.2,3.8-0.2l7.2,6.5c1.1,1,1.2,2.7,0.2,3.8
	c-1,1.1-2.7,1.2-3.8,0.2l-7.2-6.5C854.3,51.6,854.2,49.9,855.2,48.8z M848.3,75.9h9.7c1.5,0,2.7,1.3,2.7,2.7c0,1.5-1.2,2.7-2.7,2.7
	h-9.7c-1.5,0-2.7-1.2-2.7-2.7S846.8,75.9,848.3,75.9z"/>
<path class="st1" d="M794.9,63c-1.5-8.2-3.1-17.3-5.8-24.5c-2.9-7.8-6.9-11-11.7-12.3c3.7,1.8,6.7,5.1,9,11.3
	c2.7,7.2,4.3,16.3,5.8,24.5c1.4,7.8,6.4,36,6,45.9c-0.3,8.4-4.5,14.6-13.7,15.5c-2.8,0.2-10.5,0-20.7-0.4
	c-15.3-0.4-39.5-1.9-52.6-1.9c-20.7,0.1-31.5,0.3-42.4-1.7c-0.6-0.1-1.2-0.3-1.8-0.4c1.3,0.6,2.8,1.1,4.5,1.4
	c10.9,2,21.7,1.8,42.4,1.7c13.1,0,37.3,1.5,52.6,1.9c10.2,0.4,17.9,0.6,20.7,0.4c9.2-0.9,13.4-7.1,13.7-15.5
	C801.3,99,796.3,70.8,794.9,63z"/>
<path class="st5" d="M656.3,98.4c0.1-6.1,5.5-40.1,7.2-48.5c2-10.1,6.3-15.9,13.8-17.5c9.4-2.1,78-7.6,91.7-7.2c3,0.1,5.8,0.3,8.4,1
	c-3.2-1.5-6.9-1.9-11.1-2c-13.7-0.4-82.3,5.1-91.7,7.2c-7.5,1.6-11.8,7.4-13.8,17.5c-1.7,8.4-7.1,42.4-7.2,48.5
	c-0.1,7.6,2.7,18.5,13.4,21.6C658.6,115,656.3,105.3,656.3,98.4z"/>
<path class="st5" d="M711.2,121.1c13.1,0,37.3,1.5,52.6,1.9c10.2,0.4,17.9,0.6,20.7,0.4c9.2-0.9,13.4-7.1,13.7-15.5
	c0.4-9.9-4.6-38.1-6-45.9c-1.5-8.2-3.1-17.3-5.8-24.5c-2.3-6.3-5.4-9.6-9-11.3c-2.5-0.7-5.3-0.9-8.4-1c-13.7-0.4-82.3,5.1-91.7,7.2
	c-7.5,1.6-11.8,7.4-13.8,17.5c-1.7,8.4-7.1,42.4-7.2,48.5c-0.1,6.9,2.2,16.6,10.7,20.6c0.6,0.2,1.1,0.3,1.8,0.4
	C679.7,121.4,690.5,121.2,711.2,121.1z M727.1,47.5c3.4-5.6,8.5-8.8,14.9-9.8c4.8-0.8,9.5-0.3,14,1.5c7.4,2.9,11.5,8.5,13.3,16.1
	c0.4,1.7,0.5,3.4,0.4,4.6c0.1,6.3-1.7,11.5-4,16.7c-1.5,3.5-3.1,6.9-5.6,9.9c-1.7,2-3.6,3.9-5.7,5.5c-2.1,1.7-3.8,3.7-5,6.1
	c-1.1,2.2-2.3,4.4-3.2,6.7c-2.5,6.1-10.1,8.4-15.6,6.1c-5.2-2.1-7.9-6.2-9.3-11.4c-1-3.4-0.6-6.7,1.6-9.6c0.9-1.2,2.1-1.9,3.5-2.3
	c1.8-0.5,3.1,0.2,3.6,2c0.4,1.6,0.3,3.2-0.2,4.8c-0.5,1.6-1,3.2-1.2,4.9c-0.3,3.4,1.5,5.7,4.9,6.3c3.7,0.6,6.1-0.5,7.9-3.8
	c0.7-1.2,1.2-2.5,1.5-3.9c1.2-5.5,4.3-9.6,8.5-13c5.9-4.8,9.2-11,10.5-18.4c0.9-4.9,0.7-9.7-0.7-14.5c-1.9-6.5-7.9-10.4-14.6-9.6
	c-2.6,0.3-5.1,0.9-7.5,2.1c-5.1,2.5-8.1,6.4-8.9,12c-0.4,2.7-0.7,5.3-1.1,8c-0.1,1-0.4,2-1.1,2.8c-0.7,0.7-1.5,1.2-2.5,1
	c-1.1-0.2-1.7-1-2-2c-0.4-1.5-0.5-3.1-0.5-4.6C723.1,56.6,724.4,51.9,727.1,47.5z M738.6,73.1c-0.5-2-1.5-3.9-2.5-5.7
	c-1.3-2.4-2.6-4.8-2.3-7.6c0.5-4.9,2.7-8.8,7.2-11.2c1.4-0.7,2.8-1,4.2-0.9c6.2,0,10.8,4,12,10.4c0.8,4.3-0.1,8.4-1.9,12.3
	c-0.4,0.8-0.7,1.7-1.3,2.5c-0.3,0.4-0.7,0.9-1.3,0.7c-0.7-0.2-0.9-0.8-0.9-1.4c0-1.1,0.3-2.1,0.5-3.2c0.7-3.5,1.2-7,0.2-10.5
	c-0.6-1.9-1.5-3.6-3.3-4.6c-2.1-1.1-4.8-0.9-6.7,0.6c-1.8,1.5-2.5,4-1.8,6.4c0.7,2.3,2.2,4,3.7,5.7c0.9,1,1.8,2,2.6,3.1
	c2.1,3,2.5,6.2,1.5,9.6c-0.8,2.5-1.7,4.9-3,7.2c-0.9,1.6-2.1,3.1-3.9,3.8c-3.5,1.5-7.4-0.7-8.2-4.5c-0.7-3.3,0.3-6.2,2.3-8.8
	c0.5-0.7,1.2-1,1.9-1.4C738.7,74.8,738.9,74.3,738.6,73.1z M674.3,76.5l5.3,0.1c0.7,0,1.3,0.4,1.6,1l5.6,11.5l4.6-32.1
	c0.1-0.8,0.8-1.5,1.7-1.5s1.6,0.5,1.8,1.4l5.6,23.4l3.9-9c0.3-0.6,0.9-1.1,1.6-1.1c0.7,0,1.3,0.4,1.6,1l5,10.8l2.2-3.7
	c0.3-0.5,0.9-0.9,1.5-0.9c4.7,0.1,10,0.1,10.8,0c0.9-0.2,1.7,0.3,2,1.2s-0.2,1.9-1.1,2.2c-0.3,0.1-0.8,0.3-10.7,0.1l-3.4,5.6
	c-0.3,0.6-1,0.9-1.6,0.9c-0.7,0-1.2-0.4-1.5-1L706,76.3l-4.4,10.2c-0.3,0.7-1,1.1-1.8,1.1c-0.8-0.1-1.4-0.6-1.6-1.4l-4.6-19.5
	l-4.1,28.7c-0.1,0.8-0.7,1.4-1.5,1.5c-0.1,0-0.2,0-0.3,0c-0.7,0-1.3-0.4-1.6-1l-7.6-15.8h-4.2c-1,0-1.8-0.8-1.8-1.8
	S673.3,76.5,674.3,76.5z"/>
<path class="st1" d="M639.3,35.6c4.5,4.7,5.9,11.7,5.8,17c-0.1,6.1-5.5,40.1-7.2,48.5c-2,10.1-6.3,15.9-13.8,17.5
	c-9.4,2.1-78,7.6-91.7,7.2c-5-0.1-9.4-0.6-13.1-3.2c4.1,4.3,9.3,5,15.4,5.2c13.7,0.4,82.3-5.1,91.7-7.2c7.5-1.6,11.8-7.4,13.8-17.5
	c1.7-8.4,7.1-42.4,7.2-48.5C647.5,48.5,645.7,40.1,639.3,35.6z"/>
<path class="st6" d="M508.8,90c-1.4-7.9-6.4-36.1-6-45.8c0.3-8.4,4.5-14.6,13.7-15.5c2.8-0.2,10.5,0,20.7,0.3
	c15.3,0.4,39.5,1.9,52.6,1.9c20.7-0.1,31.5-0.3,42.4,1.7c2.8,0.5,5.1,1.6,7.1,3c-2.3-2.4-5.3-4.2-9.4-5c-10.9-2-21.7-1.8-42.4-1.7
	c-13.1,0-37.3-1.5-52.6-1.9c-10.2-0.3-17.9-0.5-20.7-0.3c-9.2,0.9-13.4,7.1-13.7,15.5c-0.4,9.7,4.6,37.9,6,45.8
	c1.5,8.2,3.1,17.3,5.8,24.5c1.9,5.1,4.3,8.2,7,10.1c-1.8-1.9-3.4-4.5-4.7-8.1C511.9,107.3,510.3,98.2,508.8,90z"/>
<path class="st6" d="M624.1,118.6c7.5-1.6,11.8-7.4,13.8-17.5c1.7-8.4,7.1-42.4,7.2-48.5c0.1-5.3-1.3-12.3-5.8-17
	c-1.9-1.4-4.2-2.4-7.1-3c-10.9-2-21.7-1.8-42.4-1.7c-13.1,0-37.3-1.5-52.6-1.9c-10.2-0.3-17.9-0.5-20.7-0.3
	c-9.2,0.9-13.4,7.1-13.7,15.5c-0.4,9.7,4.6,37.9,6,45.8c1.5,8.2,3.1,17.3,5.8,24.5c1.3,3.6,2.9,6.2,4.7,8.1c3.7,2.6,8.1,3,13.1,3.2
	C546.1,126.2,614.7,120.7,624.1,118.6z M539.7,78.8c1.3-3.9,2.6-7.8,3.8-11.7c0.8-2.3,1.5-4.6,2.3-6.9c0.2-0.6,0.5-1.1,1.2-1.3
	c0.7-0.2,1.2,0.3,1.6,0.8c0.9,1,1.7,2,2.5,3c0.3,0.4,0.5,0.3,0.9,0c1.2-1.4,2.5-2.5,3.8-3.6c1.7-1.5,3.4-3,5.2-4.3
	c2.5-1.8,5.3-3.2,8.2-4.1c8.2-2.5,16.1-1.8,23.6,2.4c2.3,1.3,4.4,3,6.2,5c4,4.4,6.3,9.5,7,15.3c0.9,8.1-1.2,15.4-6.5,21.6
	c-4.7,5.5-10.6,8.9-17.8,9.9c-8.4,1.1-15.9-1.1-22.7-6.2c-1.7-1.3-3.3-2.8-4.6-4.4c-0.7-0.8-0.6-1.5,0.2-2.2c1-0.9,2.1-1.8,3.1-2.7
	c0.8-0.7,1.6-1.4,2.4-2.1c0.9-0.8,1.7-0.7,2.5,0.2c1.9,2.1,4,4.1,6.5,5.5c6,3.4,11.9,3.2,17.8-0.2c7.2-4.2,9.6-11.9,8.3-19
	c-0.7-3.6-2.3-6.7-4.9-9.3c-2.1-2.1-4.7-3.4-7.7-4c-5.4-1.1-10.3,0.1-14.8,3.1c-1.4,0.9-2.6,2.1-3.9,3.2c-1.5,1.4-3.1,2.7-4.7,4
	c-0.4,0.4-0.4,0.6-0.1,1c1,1.1,2,2.2,2.9,3.3c0.9,1.1,0.5,2.2-0.9,2.5c-3.8,0.6-7.6,1.3-11.4,1.9c-2.6,0.4-5.2,0.9-7.9,1.3
	c-0.6,0.1-1.2,0.2-1.7-0.2C539.5,80.1,539.5,79.5,539.7,78.8z"/>
<g>
	<path class="st1" d="M170.3,63.7c-1.5-8.2-3.1-17.3-5.8-24.5c-2.9-7.8-6.9-11-11.7-12.3c3.7,1.8,6.7,5.1,9,11.3
		c2.7,7.2,4.3,16.3,5.8,24.5c1.4,7.8,6.4,36,6,45.8c-0.3,8.4-4.5,14.6-13.7,15.5c-2.8,0.2-10.5,0-20.7-0.4
		c-15.3-0.4-39.5-1.9-52.6-1.9c-20.7,0.1-31.5,0.3-42.4-1.7c-0.7-0.1-1.5-0.3-2.1-0.5c1.4,0.7,3,1.3,4.8,1.6
		c10.9,2,21.7,1.8,42.4,1.7c13.1,0,37.3,1.5,52.6,1.9c10.2,0.4,17.9,0.6,20.7,0.4c9.2-0.9,13.4-7.1,13.7-15.5
		C176.7,99.7,171.7,71.5,170.3,63.7z"/>
	<path class="st7" d="M31.7,99.1c0.1-6.1,5.5-40.1,7.2-48.5c2-10.1,6.3-15.9,13.8-17.5c9.4-2.1,78-7.6,91.7-7.2c3,0.1,5.8,0.3,8.4,1
		c-3.2-1.5-6.9-1.9-11.1-2C128,24.5,59.4,30,50,32c-7.5,1.6-11.8,7.4-13.8,17.5C34.5,57.9,29.1,91.9,29,98
		c-0.1,7.5,2.6,18.3,13.1,21.5C33.9,115.4,31.7,105.9,31.7,99.1z"/>
	<path class="st7" d="M77.1,84.1c0.9,0.3,1.8,0.8,2.5,1.4c4.5,3.6,9,7.4,13.3,11c1.2,1,2.3,1.9,3.5,2.9c0-13.5,0-27.4-0.2-41.9
		c-1.4,1.2-2.9,2.4-4.3,3.6c-4.1,3.4-8.3,6.9-12.5,10.4c-0.7,0.6-1.5,1-2.4,1.3C75.3,73.3,75.6,83.6,77.1,84.1z"/>
	<path class="st7" d="M86.6,121.7c13.1,0,37.3,1.5,52.6,1.9c10.2,0.4,17.9,0.6,20.7,0.4c9.2-0.9,13.4-7.1,13.7-15.5
		c0.4-9.8-4.6-38-6-45.8c-1.5-8.2-3.1-17.3-5.8-24.5c-2.3-6.3-5.4-9.6-9-11.3c-2.5-0.7-5.3-0.9-8.4-1c-13.7-0.4-82.3,5.1-91.7,7.2
		c-7.5,1.6-11.8,7.4-13.8,17.5C37.2,59,31.8,93,31.7,99.1c-0.1,6.8,2.2,16.3,10.4,20.4c0.7,0.2,1.4,0.4,2.1,0.5
		C55.1,122,65.9,121.8,86.6,121.7z M118.9,46.9c1-1.4,2.9-1.8,4.3-0.7c3.5,2.6,6.3,5.9,8.7,9.6c3.4,5.2,5.5,11,6.3,17.2
		c0.2,1.2,0.3,2.3,0.5,3.7c0,1.9,0,3.9,0,5.8c-0.2,1.3-0.3,2.5-0.5,3.8c-1.5,9.8-5.8,17.9-13.8,23.9c-0.5,0.4-1.1,0.8-1.7,1.1
		c-1.4,0.7-3.2,0.2-4-1.2s-0.4-3.2,1-4.1c6.3-4.1,10.1-10,11.8-17.2c2.1-8.6,1.4-16.9-2.2-25c-2.2-5-5.4-9.3-9.7-12.6
		C118.2,50.1,117.9,48.3,118.9,46.9z M111.7,63.9c-0.3-0.3-0.7-0.6-1.1-0.9c-1.5-1.1-1.8-2.9-0.8-4.3c1-1.4,2.9-1.7,4.4-0.6
		c2.7,1.9,4.7,4.3,6.4,7.1c2.6,4.3,3.8,8.9,3.6,16.2c0,5.1-2.6,11.4-8.4,16.2c-0.7,0.6-1.4,1.1-2.2,1.5c-1.4,0.7-3.2,0.2-4-1.2
		c-0.9-1.4-0.5-3.2,0.9-4.1c4.1-2.6,6.5-6.3,7.3-11C119.1,75.5,117.1,69.1,111.7,63.9z M61.1,70.5c0.4-1.4,1.2-2.4,2.7-2.8
		c0.3-0.1,0.7-0.1,1.1-0.1c3.3,0,6.7,0,10,0c0.3,0,0.8-0.2,1.1-0.4c7.3-6.1,14.7-12.3,22.1-18.4c0.5-0.4,1.1-0.8,1.7-1.1
		c1-0.5,1.9,0,2.2,1c0.1,0.4,0.2,0.9,0.4,1.4c0,18.9,0,37.8,0,56.7c0,0.5,0,1.1-0.2,1.6c-0.4,1-1.2,1.4-2.2,1
		c-0.5-0.2-1.1-0.5-1.5-0.9C91,102.3,83.6,96.2,76.2,90c-0.3-0.3-0.8-0.5-1.3-0.5c-3.1,0-6.2-0.1-9.3,0c-2.3,0.1-3.8-0.8-4.5-2.9
		C61.1,81.2,61.1,75.9,61.1,70.5z"/>
</g>
<path class="st8" d="M61.9,34.2c0,0-18.7-1.5-20.5,15.3C41.4,49.6,46.8,34.5,61.9,34.2z"/>
<path class="st8" d="M150.1,122c0,0,18.6,2.4,21.3-14.3C171.4,107.7,165.2,122.6,150.1,122z"/>
<path class="st8" d="M1012.1,33.5c0,0-18.7-1.5-20.5,15.3C991.6,48.9,997,33.7,1012.1,33.5z"/>
<path class="st8" d="M1097.3,121.3c0,0,18.6,2.4,21.3-14.3C1118.6,107,1112.5,121.8,1097.3,121.3z"/>
<path class="st8" d="M612.2,116.4c0,0,18.7,1.5,20.5-15.3C632.7,101.1,627.3,116.2,612.2,116.4z"/>
<path class="st8" d="M524,28.7c0,0-18.6-2.4-21.3,14.3C502.7,42.9,508.8,28.1,524,28.7z"/>
<path class="st8" d="M686.5,33.5c0,0-18.7-1.5-20.5,15.3C666,48.9,671.4,33.7,686.5,33.5z"/>
<path class="st8" d="M774.7,121.3c0,0,18.6,2.4,21.3-14.3C796,107,789.8,121.8,774.7,121.3z"/>
<path class="st8" d="M925.1,114.4c0,0,18.7,1.5,20.5-15.3C945.6,99.1,940.2,114.2,925.1,114.4z"/>
<path class="st8" d="M836.8,26.7c0,0-18.6-2.4-21.3,14.3C815.6,40.9,821.7,26.1,836.8,26.7z"/>
<path class="st1" d="M325,35.1c4.5,4.7,5.9,11.7,5.8,17c-0.1,6.1-5.5,40.1-7.2,48.5c-2,10.1-6.3,15.9-13.8,17.5
	c-9.4,2.1-78,7.6-91.7,7.2c-5-0.1-9.4-0.6-13.1-3.2c4.1,4.3,9.3,5,15.4,5.2c13.7,0.4,82.3-5.1,91.7-7.2c7.5-1.6,11.8-7.4,13.8-17.5
	c1.7-8.4,7.1-42.4,7.2-48.5C333.2,48,331.4,39.6,325,35.1z"/>
<path class="st9" d="M194.5,89.4c-1.5-7.8-6.5-36-6-45.8c0.3-8.4,4.5-14.6,13.7-15.5c2.8-0.2,10.5,0,20.7,0.4
	c15.3,0.4,39.5,1.9,52.6,1.9c20.7-0.1,31.5-0.3,42.4,1.7c2.8,0.5,5.1,1.6,7.1,3c-2.3-2.4-5.3-4.2-9.4-5c-10.9-2-21.7-1.8-42.4-1.7
	c-13.1,0-37.3-1.5-52.6-1.9c-10.2-0.4-17.9-0.6-20.7-0.4c-9.2,0.9-13.4,7.1-13.7,15.5c-0.5,9.8,4.5,38,6,45.8
	c1.5,8.2,3.1,17.3,5.8,24.6c1.9,5.1,4.3,8.2,7,10.1c-1.8-1.9-3.4-4.5-4.7-8.1C197.6,106.7,196,97.6,194.5,89.4z"/>
<path class="st9" d="M285.5,92.2c-0.4-0.1-0.9-0.1-1.3-0.1c-3.1,0-6,1.2-8.9,3.6c-2.3,1.9-3.7,4.1-4.1,6.6c-0.2,1.5,0.1,2.9,0.9,4
	s2,1.8,3.4,1.9c0.5,0.1,0.9,0.1,1.4,0.1c3.7,0,7-1.7,10.2-5.1c1.6-1.8,2.5-3.8,2.6-5.9c0-0.3,0-0.6,0.1-0.8c0,0,0.4-6.2-1.5-5.2
	c-0.8,0.3-1.5,0.9-2.4,0.9C285.7,92.2,285.6,92.2,285.5,92.2z"/>
<path class="st9" d="M227.5,111.7c0.5,0.1,1.3,0.2,2,0.2c0.5,0,0.7,0,0.7,0c1.2-0.2,2.1-0.5,2.9-0.8c4.2-1.7,7-4.4,8.3-8
	c0.3-0.7,0.4-1.6,0.4-2.7c0,0-0.1-6.8-1.5-5.5c-0.8,0.9-1.2,1-2.3,0.9c-0.1,0-0.2,0-0.3,0c-0.5-0.1-1-0.1-1.5-0.1
	c-4.5,0-8,2-11.2,6.2c-1,1.3-1.6,2.8-1.7,4.4C223.1,109.1,224.7,111.2,227.5,111.7z"/>
<path class="st9" d="M309.8,118.1c7.5-1.6,11.8-7.4,13.8-17.5c1.7-8.4,7.1-42.4,7.2-48.5c0.1-5.3-1.3-12.3-5.8-17
	c-1.9-1.4-4.2-2.4-7.1-3c-10.9-2-21.7-1.8-42.4-1.7c-13.1,0-37.3-1.5-52.6-1.9c-10.2-0.4-17.9-0.6-20.7-0.4
	c-9.2,0.9-13.4,7.1-13.7,15.5c-0.5,9.8,4.5,38,6,45.8c1.5,8.2,3.1,17.3,5.8,24.6c1.3,3.6,2.9,6.2,4.7,8.1c3.7,2.6,8.1,3,13.1,3.2
	C231.8,125.7,300.4,120.2,309.8,118.1z M219.7,106.3c0.2-2.3,1-4.4,2.4-6.3c4-5.2,9.1-8.1,15.9-7.5c0-0.3,0-0.5,0-0.7
	c0-7.1,0-31.7,0-37c0.1-3.6,2.5-6.8,5.7-7.3c2.5-0.5,5.1-0.8,7.6-1.1c4.8-0.7,9.7-1.3,14.5-2c4.9-0.7,9.8-1.3,14.7-2
	c1.5-0.2,4-0.7,4.5-0.7c0.6,0,1.6,0.2,1.8,0.2c3.1,0.4,5.7,2.8,6.4,5.8c0.1,0.5,0.1,0.9,0.3,1.5c0,1.2,0,2.3,0,3.5
	c0,3.5,0,44.2,0,44.5c0,0.1-0.1,0.3-0.1,0.4c-0.2,3.2-1.5,5.8-3.6,8.1c-3.9,4.2-8.6,6.7-14.6,6.1c-5.1-0.6-8.4-5.1-7.5-10.1
	c0.7-3.6,2.6-6.4,5.3-8.7c3.7-3.2,7.9-4.9,12.9-4.4c0-8.2,0-16.4,0-24.7c-13.5,1.8-26.9,3.6-40.4,5.4c0,0.4,0.1,21.3,0,31.4
	c0,1.3-0.3,2.6-0.7,3.8c-1.9,5-5.6,8.2-10.4,10.1c-1.2,0.5-2.4,0.8-3.5,1c-1.1,0.2-3,0.1-4-0.1C222.2,114.6,219.4,111,219.7,106.3z"
	/>
<path class="st1" d="M483.1,67.4c-1.5-8.2-3.1-17.3-5.8-24.6c-2.1-5.6-4.7-8.8-7.9-10.7c2,1.9,3.8,4.7,5.2,8.7
	c2.7,7.3,4.3,16.4,5.8,24.6c1.5,7.9,6.5,36.1,6,45.8c-0.3,8.4-4.5,14.6-13.7,15.5c-2.8,0.2-10.5,0-20.7-0.4
	c-15.3-0.4-39.5-1.9-52.6-1.9c-20.7,0.1-31.5,0.3-42.4-1.7c-2.2-0.4-4.2-1.2-5.8-2.1c2.2,2,4.9,3.5,8.5,4.1
	c10.9,2,21.7,1.8,42.4,1.7c13.1,0,37.3,1.5,52.6,1.9c10.2,0.4,17.9,0.6,20.7,0.4c9.2-0.9,13.4-7.1,13.7-15.5
	C489.6,103.5,484.6,75.3,483.1,67.4z"/>
<path class="st2" d="M344.5,102.7c0.1-6.1,5.5-40.1,7.2-48.5c2-10.1,6.3-15.9,13.8-17.5c9.5-2,78.1-7.5,91.7-7.1
	c4.6,0.1,8.7,0.5,12.2,2.5c-4-3.9-9-4.5-14.9-4.6c-13.7-0.4-82.3,5.1-91.7,7.2c-7.5,1.6-11.8,7.4-13.8,17.5
	c-1.7,8.4-7.1,42.4-7.2,48.5c-0.1,6.5,2,15.5,9.4,19.9C346,115.9,344.5,108.4,344.5,102.7z"/>
<path class="st2" d="M393.5,104.8c0-3.2,0-6.5,0-9.8c0.1-8.7,6.8-15.9,15.3-16.6c0.5-0.1,0.9-0.1,1.4-0.1c8.3,0,15.2,5.7,16.7,13.8
	c0.3,1.5,0.3,2.8,0.3,4.1c0,2.9,0,5.8,0,8.7h9.5v-1.7c0-7,0-21,0-21s-22.6-21.3-26.3-25c-4.1,4.1-25.1,23-26.4,25
	c0,7.6,0,15.1,0,22.7L393.5,104.8L393.5,104.8z"/>
<path class="st2" d="M399.4,124.4c13.1,0,37.3,1.5,52.6,1.9c10.2,0.4,17.9,0.6,20.7,0.4c9.2-0.9,13.4-7.1,13.7-15.5
	c0.5-9.7-4.5-37.9-6-45.8c-1.5-8.2-3.1-17.3-5.8-24.6c-1.5-4-3.2-6.7-5.2-8.7c-3.5-2-7.6-2.4-12.2-2.5c-13.6-0.4-82.2,5.1-91.7,7.1
	c-7.5,1.6-11.8,7.4-13.8,17.5c-1.7,8.4-7.1,42.4-7.2,48.5c-0.1,5.7,1.5,13.1,6.7,17.9c1.7,1,3.6,1.7,5.8,2.1
	C367.9,124.7,378.7,124.5,399.4,124.4z M484.3,110.4c-2.7,16.7-21.3,14.3-21.3,14.3C478.1,125.3,484.3,110.5,484.3,110.4z
	 M410.4,46.2c1.3,0,33.2,29.1,36.3,31.9c0.5,0.4,0.8,1.2,1,1.8c0,0.5,0,1,0,1.5c-0.1,0.2-0.1,0.3-0.2,0.5c-0.9,2.3-3.7,3.1-5.6,1.4
	c-0.3-0.3-0.7-0.7-1.1-1c0,9,0,17.9,0,26.9c-6,0-12,0-18,0c0-4.3,0-8.6,0-12.9c0-1.1,0-2.2-0.2-3.3c-1.2-6.5-6.9-10.8-13.6-10.3
	c-6.3,0.5-11.3,5.9-11.4,12.4c-0.1,4.7,0,9.4,0,14.1c-6,0-12,0-18,0c0-0.3,0-0.5,0-0.8c0-8.7,0-17.5,0-26.2
	c-0.1,0.1-0.2,0.2-0.3,0.3c-0.3,0.2-0.5,0.5-0.8,0.7c-1.8,1.7-4.7,1-5.6-1.3c0-0.1-0.1-0.3-0.2-0.5c0-0.5,0-1,0-1.5
	c0.5-1.2,1.4-2,2.3-2.8C386.6,67,409.1,46.2,410.4,46.2z M374.8,37c-15.2,0.2-20.5,15.3-20.5,15.3C356.1,35.5,374.8,37,374.8,37z"/>
<path class="st8" d="M374.8,37c0,0-18.7-1.5-20.5,15.3C354.3,52.3,359.6,37.2,374.8,37z"/>
<path class="st8" d="M484.3,110.4c0,0.1-6.2,14.9-21.3,14.3C463,124.7,481.6,127.1,484.3,110.4z"/>
<path class="st8" d="M1169.7,37c0,0-18.7-1.5-20.5,15.3C1149.1,52.3,1154.5,37.2,1169.7,37z"/>
<path class="st8" d="M1257.9,124.7c0,0,18.6,2.4,21.3-14.3C1279.2,110.5,1273,125.3,1257.9,124.7z"/>
<path class="st8" d="M297.9,115.9c0,0,18.7,1.5,20.5-15.3C318.4,100.5,313,115.7,297.9,115.9z"/>
<path class="st8" d="M209.6,28.1c0,0-18.6-2.4-21.3,14.3C188.4,42.4,194.5,27.5,209.6,28.1z"/>
</svg>
