<?xml version="1.0" encoding="utf-8"?>
<!-- Generator: Adobe Illustrator 20.1.0, SVG Export Plug-In . SVG Version: 6.00 Build 0)  -->
<svg version="1.1" id="Layer_1" xmlns="http://www.w3.org/2000/svg" xmlns:xlink="http://www.w3.org/1999/xlink" x="0px" y="0px"
	 viewBox="0 0 1289 152" style="enable-background:new 0 0 1289 152;" xml:space="preserve">
<style type="text/css">
	.st0{fill:#A7A8AC;}
	.st1{fill:#ED4A94;}
	.st2{fill:#FFFFFF;}
	.st3{fill:#3CA7C2;}
	.st4{fill:#B8D432;}
	.st5{fill:#62C4B6;}
	.st6{fill:#955AA3;}
	.st7{fill:#ECC91A;}
	.st8{fill:#F6921E;}
	.st9{fill-rule:evenodd;clip-rule:evenodd;fill:#FFFFFF;}
</style>
<g>
	<path class="st0" d="M154.3,65c-1.5-8.2-3.1-17.3-5.8-24.5c-4.4-11.8-11.3-13.1-20.1-13.3c-13.7-0.4-82.3,5.1-91.7,7.2
		c-7.5,1.6-11.8,7.4-13.8,17.5c-1.7,8.4-7.1,42.4-7.2,48.5c-0.1,8,3,19.7,15.2,22c10.9,2,21.7,1.8,42.4,1.7
		c13.1,0,37.3,1.5,52.6,1.9c10.2,0.4,17.9,0.6,20.7,0.4c9.2-0.9,13.4-7.1,13.7-15.5C160.7,101,155.7,72.8,154.3,65z"/>
	<path class="st1" d="M151.6,64c-1.5-8.2-3.1-17.3-5.8-24.5c-4.4-11.8-11.3-13.1-20.1-13.3C112,25.8,43.4,31.3,34,33.3
		c-7.5,1.6-11.8,7.4-13.8,17.5c-1.7,8.4-7.1,42.4-7.2,48.5c-0.1,8,3,19.7,15.2,22c10.9,2,21.7,1.8,42.4,1.7
		c13.1,0,37.3,1.5,52.6,1.9c10.2,0.4,17.9,0.6,20.7,0.4c9.2-0.9,13.4-7.1,13.7-15.5C158,100,153,71.8,151.6,64z"/>
	<path class="st2" d="M45.9,35.5c0,0-18.7-1.5-20.5,15.3C25.4,50.9,30.8,35.8,45.9,35.5z"/>
	<path class="st2" d="M134.1,123.3c0,0,18.6,2.4,21.3-14.3C155.4,109,149.2,123.9,134.1,123.3z"/>
</g>
<path class="st0" d="M1101.5,64.3c-1.5-8.2-3.1-17.3-5.8-24.5c-4.4-11.8-11.3-13.1-20.1-13.3c-13.7-0.4-82.3,5.1-91.7,7.2
	c-7.5,1.6-11.8,7.4-13.8,17.5c-1.7,8.4-7.1,42.4-7.2,48.5c-0.1,8,3,19.7,15.2,22c10.9,2,21.7,1.8,42.4,1.7c13.1,0,37.3,1.5,52.6,1.9
	c10.2,0.4,17.9,0.6,20.7,0.4c9.2-0.9,13.4-7.1,13.7-15.5C1108,100.3,1102.9,72.1,1101.5,64.3z"/>
<path class="st3" d="M1098.8,63.3c-1.5-8.2-3.1-17.3-5.8-24.5c-4.4-11.8-11.3-13.1-20.1-13.3c-13.7-0.4-82.3,5.1-91.7,7.2
	c-7.5,1.6-11.8,7.4-13.8,17.5c-1.7,8.4-7.1,42.4-7.2,48.5c-0.1,8,3,19.7,15.2,22c10.9,2,21.7,1.8,42.4,1.7c13.1,0,37.3,1.5,52.6,1.9
	c10.2,0.4,17.9,0.6,20.7,0.4c9.2-0.9,13.4-7.1,13.7-15.5C1105.3,99.3,1100.2,71.1,1098.8,63.3z"/>
<path class="st2" d="M996.1,34.8c0,0-18.7-1.5-20.5,15.3C975.6,50.2,981,35,996.1,34.8z"/>
<path class="st2" d="M1081.3,122.6c0,0,18.6,2.4,21.3-14.3C1102.6,108.3,1096.5,123.1,1081.3,122.6z"/>
<g>
	<path class="st0" d="M178.5,90.7c1.5,8.2,3.1,17.3,5.8,24.6c4.4,11.8,11.3,13.1,20.1,13.3c13.7,0.4,82.3-5.1,91.7-7.2
		c7.5-1.6,11.8-7.4,13.8-17.5c1.7-8.4,7.1-42.4,7.2-48.5c0.1-8-3-19.7-15.2-22c-10.9-2-21.7-1.8-42.4-1.7c-13.1,0-37.3-1.5-52.6-1.9
		c-10.2-0.4-17.9-0.6-20.7-0.4c-9.2,0.9-13.4,7.1-13.7,15.5C172,54.7,177,82.9,178.5,90.7z"/>
	<path class="st4" d="M176.2,88.7c1.5,8.2,3.1,17.3,5.8,24.6c4.4,11.8,11.3,13.1,20.1,13.3c13.7,0.4,82.3-5.1,91.7-7.2
		c7.5-1.6,11.8-7.4,13.8-17.5c1.7-8.4,7.1-42.4,7.2-48.5c0.1-8-3-19.7-15.2-22c-10.9-2-21.7-1.8-42.4-1.7c-13.1,0-37.3-1.5-52.6-1.9
		c-10.2-0.4-17.9-0.6-20.7-0.4c-9.2,0.9-13.4,7.1-13.7,15.5C169.7,52.7,174.7,80.9,176.2,88.7z"/>
	<path class="st2" d="M281.9,117.2c0,0,18.7,1.5,20.5-15.3C302.4,101.8,297,117,281.9,117.2z"/>
	<path class="st2" d="M193.6,29.4c0,0-18.6-2.4-21.3,14.3C172.4,43.7,178.5,28.8,193.6,29.4z"/>
</g>
<g>
	<path class="st0" d="M492.8,91.3c1.5,8.2,3.1,17.3,5.8,24.5c4.4,11.8,11.3,13.1,20.1,13.3c13.7,0.4,82.3-5.1,91.7-7.2
		c7.5-1.6,11.8-7.4,13.8-17.5c1.7-8.4,7.1-42.4,7.2-48.5c0.1-8-3-19.7-15.2-22c-10.9-2-21.7-1.8-42.4-1.7c-13.1,0-37.3-1.5-52.6-1.9
		C511,30,503.3,29.8,500.5,30c-9.2,0.9-13.4,7.1-13.7,15.5C486.4,55.2,491.4,83.4,492.8,91.3z"/>
	<path class="st5" d="M490.5,89.3c1.5,8.2,3.1,17.3,5.8,24.5c4.4,11.8,11.3,13.1,20.1,13.3c13.7,0.4,82.3-5.1,91.7-7.2
		c7.5-1.6,11.8-7.4,13.8-17.5c1.7-8.4,7.1-42.4,7.2-48.5c0.1-8-3-19.7-15.2-22c-10.9-2-21.7-1.8-42.4-1.7c-13.1,0-37.3-1.5-52.6-1.9
		C508.7,28,501,27.8,498.2,28c-9.2,0.9-13.4,7.1-13.7,15.5C484.1,53.2,489.1,81.4,490.5,89.3z"/>
	<path class="st2" d="M596.2,117.7c0,0,18.7,1.5,20.5-15.3C616.7,102.4,611.3,117.5,596.2,117.7z"/>
	<path class="st2" d="M508,30c0,0-18.6-2.4-21.3,14.3C486.7,44.2,492.8,29.4,508,30z"/>
</g>
<g>
	<path class="st0" d="M467.1,68.7c-1.5-8.2-3.1-17.3-5.8-24.6C457,32.4,450,31.1,441.2,30.9C427.6,30.5,359,36,349.5,38
		c-7.5,1.6-11.8,7.4-13.8,17.5c-1.7,8.4-7.1,42.4-7.2,48.5c-0.1,8,3,19.7,15.2,22c10.9,2,21.7,1.8,42.4,1.7
		c13.1,0,37.3,1.5,52.6,1.9c10.2,0.4,17.9,0.6,20.7,0.4c9.2-0.9,13.4-7.1,13.7-15.5C473.6,104.8,468.6,76.6,467.1,68.7z"/>
	<path class="st6" d="M464.4,66.7c-1.5-8.2-3.1-17.3-5.8-24.6c-4.4-11.8-11.3-13.1-20.1-13.3c-13.7-0.4-82.3,5.1-91.7,7.2
		c-7.5,1.6-11.8,7.4-13.8,17.5c-1.7,8.4-7.1,42.4-7.2,48.5c-0.1,8,3,19.7,15.2,22c10.9,2,21.7,1.8,42.4,1.7
		c13.1,0,37.3,1.5,52.6,1.9c10.2,0.4,17.9,0.6,20.7,0.4c9.2-0.9,13.4-7.1,13.7-15.5C470.9,102.8,465.9,74.6,464.4,66.7z"/>
	<path class="st2" d="M358.8,38.3c0,0-18.7-1.5-20.5,15.3C338.3,53.6,343.6,38.5,358.8,38.3z"/>
	<path class="st2" d="M447,126c0,0,18.6,2.4,21.3-14.3C468.3,111.8,462.1,126.6,447,126z"/>
</g>
<g>
	<path class="st0" d="M778.9,64.3c-1.5-8.2-3.1-17.3-5.8-24.5c-4.4-11.8-11.3-13.1-20.1-13.3c-13.7-0.4-82.3,5.1-91.7,7.2
		c-7.5,1.6-11.8,7.4-13.8,17.5c-1.7,8.4-7.1,42.4-7.2,48.5c-0.1,8,3,19.7,15.2,22c10.9,2,21.7,1.8,42.4,1.7
		c13.1,0,37.3,1.5,52.6,1.9c10.2,0.4,17.9,0.6,20.7,0.4c9.2-0.9,13.4-7.1,13.7-15.5C785.3,100.3,780.3,72.1,778.9,64.3z"/>
	<path class="st7" d="M776.2,63.3c-1.5-8.2-3.1-17.3-5.8-24.5c-4.4-11.8-11.3-13.1-20.1-13.3c-13.7-0.4-82.3,5.1-91.7,7.2
		c-7.5,1.6-11.8,7.4-13.8,17.5c-1.7,8.4-7.1,42.4-7.2,48.5c-0.1,8,3,19.7,15.2,22c10.9,2,21.7,1.8,42.4,1.7
		c13.1,0,37.3,1.5,52.6,1.9c10.2,0.4,17.9,0.6,20.7,0.4c9.2-0.9,13.4-7.1,13.7-15.5C782.6,99.3,777.6,71.1,776.2,63.3z"/>
	<path class="st2" d="M670.5,34.8c0,0-18.7-1.5-20.5,15.3C650,50.2,655.4,35,670.5,34.8z"/>
	<path class="st2" d="M758.7,122.6c0,0,18.6,2.4,21.3-14.3C780,108.3,773.8,123.1,758.7,122.6z"/>
</g>
<g>
	<path class="st0" d="M805.7,89.3c1.5,8.2,3.1,17.3,5.8,24.6c4.4,11.8,11.3,13.1,20.1,13.3c13.7,0.4,82.3-5.1,91.7-7.2
		c7.5-1.6,11.8-7.4,13.8-17.5c1.7-8.4,7.1-42.4,7.2-48.5c0.1-8-3-19.7-15.2-22c-10.9-2-21.7-1.8-42.4-1.7c-13.1,0-37.3-1.5-52.6-1.9
		c-10.2-0.4-17.9-0.6-20.7-0.4c-9.2,0.9-13.4,7.1-13.7,15.5C799.2,53.2,804.3,81.4,805.7,89.3z"/>
	<path class="st8" d="M803.4,87.3c1.5,8.2,3.1,17.3,5.8,24.6c4.4,11.8,11.3,13.1,20.1,13.3c13.7,0.4,82.3-5.1,91.7-7.2
		c7.5-1.6,11.8-7.4,13.8-17.5c1.7-8.4,7.1-42.4,7.2-48.5c0.1-8-3-19.7-15.2-22c-10.9-2-21.7-1.8-42.4-1.7c-13.1,0-37.3-1.5-52.6-1.9
		C821.5,26,813.9,25.8,811,26c-9.2,0.9-13.4,7.1-13.7,15.5C796.9,51.2,801.9,79.4,803.4,87.3z"/>
	<path class="st2" d="M909.1,115.7c0,0,18.7,1.5,20.5-15.3C929.6,100.4,924.2,115.5,909.1,115.7z"/>
	<path class="st2" d="M820.8,28c0,0-18.6-2.4-21.3,14.3C799.6,42.2,805.7,27.4,820.8,28z"/>
</g>
<g>
	<path class="st2" d="M277.2,49c-0.7-3-3.3-5.4-6.4-5.8c-0.2,0-1.2-0.2-1.8-0.2c-0.5,0-3,0.5-4.5,0.7c-4.9,0.7-9.8,1.3-14.7,2
		c-4.8,0.7-9.7,1.3-14.5,2c-2.5,0.3-5.1,0.6-7.6,1.1c-3.2,0.5-5.6,3.7-5.7,7.3c0,5.3,0,29.9,0,37c0,0.2,0,0.4,0,0.7
		c-6.8-0.6-11.9,2.3-15.9,7.5c-1.4,1.9-2.2,4-2.4,6.3c-0.3,4.7,2.5,8.3,7.2,9.2c1,0.2,2.9,0.3,4,0.1c1.1-0.2,2.3-0.5,3.5-1
		c4.8-1.9,8.5-5.1,10.4-10.1c0.4-1.2,0.7-2.5,0.7-3.8c0.1-10.1,0-31,0-31.4c13.5-1.8,26.9-3.6,40.4-5.4c0,8.3,0,16.5,0,24.7
		c-5-0.5-9.2,1.2-12.9,4.4c-2.7,2.3-4.6,5.1-5.3,8.7c-0.9,5,2.4,9.5,7.5,10.1c6,0.6,10.7-1.9,14.6-6.1c2.1-2.3,3.4-4.9,3.6-8.1
		c0-0.1,0.1-0.3,0.1-0.4c0-0.3,0-41,0-44.5c0-1.2,0-2.3,0-3.5C277.3,49.9,277.3,49.5,277.2,49z M225.4,104.4c-1.3,3.6-4.1,6.3-8.3,8
		c-0.8,0.3-1.7,0.6-2.9,0.8c0,0-0.2,0-0.7,0c-0.7,0-1.5-0.1-2-0.2c-2.8-0.5-4.4-2.6-4.2-5.4c0.1-1.6,0.7-3.1,1.7-4.4
		c3.2-4.2,6.7-6.2,11.2-6.2c0.5,0,1,0,1.5,0.1c0.1,0,0.2,0,0.3,0c1.1,0.1,1.5,0,2.3-0.9c1.4-1.3,1.5,5.5,1.5,5.5
		C225.8,102.8,225.7,103.7,225.4,104.4z M273.8,97.8c-0.1,0.2-0.1,0.5-0.1,0.8c-0.1,2.1-1,4.1-2.6,5.9c-3.2,3.4-6.5,5.1-10.2,5.1
		c-0.5,0-0.9,0-1.4-0.1c-1.4-0.1-2.6-0.8-3.4-1.9c-0.8-1.1-1.1-2.5-0.9-4c0.4-2.5,1.8-4.7,4.1-6.6c2.9-2.4,5.8-3.6,8.9-3.6
		c0.4,0,0.9,0,1.3,0.1c0.1,0,0.2,0,0.4,0c0.9,0,1.6-0.6,2.4-0.9C274.2,91.6,273.8,97.8,273.8,97.8z"/>
</g>
<g>
	<path class="st2" d="M86,50c-0.3-1-1.2-1.5-2.2-1c-0.6,0.3-1.2,0.7-1.7,1.1c-7.4,6.1-14.8,12.3-22.1,18.4c-0.3,0.2-0.8,0.4-1.1,0.4
		c-3.3,0-6.7,0-10,0c-0.4,0-0.8,0-1.1,0.1c-1.5,0.4-2.3,1.4-2.7,2.8c0,5.4,0,10.7,0,16.1c0.7,2.1,2.2,3,4.5,2.9c3.1-0.1,6.2,0,9.3,0
		c0.5,0,1,0.2,1.3,0.5c7.4,6.2,14.8,12.3,22.3,18.5c0.4,0.4,1,0.7,1.5,0.9c1,0.4,1.8,0,2.2-1c0.2-0.5,0.2-1.1,0.2-1.6
		c0-18.9,0-37.8,0-56.7C86.2,50.9,86.1,50.4,86,50z M80.4,100.7c-1.2-1-2.3-1.9-3.5-2.9c-4.3-3.6-8.8-7.4-13.3-11
		c-0.7-0.6-1.6-1.1-2.5-1.4c-1.5-0.5-1.8-10.8-0.1-11.3c0.9-0.3,1.7-0.7,2.4-1.3c4.2-3.5,8.4-7,12.5-10.4c1.4-1.2,2.9-2.4,4.3-3.6
		C80.4,73.3,80.4,87.2,80.4,100.7z"/>
	<path class="st2" d="M122.2,74.3c-0.8-6.2-2.9-12-6.3-17.2c-2.4-3.7-5.2-7-8.7-9.6c-1.4-1.1-3.3-0.7-4.3,0.7
		c-1,1.4-0.7,3.2,0.7,4.3c4.3,3.3,7.5,7.6,9.7,12.6c3.6,8.1,4.3,16.4,2.2,25c-1.7,7.2-5.5,13.1-11.8,17.2c-1.4,0.9-1.8,2.7-1,4.1
		c0.8,1.4,2.6,1.9,4,1.2c0.6-0.3,1.2-0.7,1.7-1.1c8-6,12.3-14.1,13.8-23.9c0.2-1.3,0.3-2.5,0.5-3.8c0-1.9,0-3.9,0-5.8
		C122.5,76.6,122.4,75.5,122.2,74.3z"/>
	<path class="st2" d="M104.6,66.5c-1.7-2.8-3.7-5.2-6.4-7.1c-1.5-1.1-3.4-0.8-4.4,0.6c-1,1.4-0.7,3.2,0.8,4.3
		c0.4,0.3,0.8,0.6,1.1,0.9c5.4,5.2,7.4,11.6,6.1,18.9c-0.8,4.7-3.2,8.4-7.3,11c-1.4,0.9-1.8,2.7-0.9,4.1c0.8,1.4,2.6,1.9,4,1.2
		c0.8-0.4,1.5-0.9,2.2-1.5c5.8-4.8,8.4-11.1,8.4-16.2C108.4,75.4,107.2,70.8,104.6,66.5z"/>
</g>
<path class="st2" d="M430.7,79.4c-3.1-2.8-35-31.9-36.3-31.9c-1.3,0-23.8,20.8-35.4,30.9c-0.9,0.8-1.8,1.6-2.3,2.8c0,0.5,0,1,0,1.5
	c0.1,0.2,0.2,0.4,0.2,0.5c0.9,2.3,3.8,3,5.6,1.3c0.3-0.2,0.5-0.5,0.8-0.7c0.1-0.1,0.2-0.2,0.3-0.3c0,8.7,0,17.5,0,26.2
	c0,0.3,0,0.5,0,0.8c6,0,12,0,18,0c0-4.7-0.1-9.4,0-14.1c0.1-6.5,5.1-11.9,11.4-12.4c6.7-0.5,12.4,3.8,13.6,10.3
	c0.2,1.1,0.2,2.2,0.2,3.3c0,4.3,0,8.6,0,12.9c6,0,12,0,18,0c0-9,0-17.9,0-26.9c0.4,0.3,0.8,0.7,1.1,1c1.9,1.7,4.7,0.9,5.6-1.4
	c0.1-0.2,0.1-0.3,0.2-0.5c0-0.5,0-1,0-1.5C431.5,80.6,431.2,79.8,430.7,79.4z M420.7,104.5v1.7h-9.5c0-2.9,0-5.8,0-8.7
	c0-1.3,0-2.6-0.3-4.1c-1.5-8.1-8.4-13.8-16.7-13.8c-0.5,0-0.9,0-1.4,0.1c-8.5,0.7-15.2,7.9-15.3,16.6c0,3.3,0,6.6,0,9.8
	c0,0,0,0.1,0,0.1H368c0-7.6,0-15.1,0-22.7c1.3-2,22.3-20.9,26.4-25c3.7,3.7,26.3,25,26.3,25S420.7,97.5,420.7,104.5z"/>
<g>
	<path class="st2" d="M891,69.9c-1.3-2.6-2.8-5-5.1-6.9c-3.1-2.6-6.6-4.3-10.6-4.9c-0.6-0.1-1.1-0.2-1.7-0.2c-1.1,0-2.1,0-3.2,0
		c-0.9,0.1-1.8,0.2-2.6,0.4c-3,0.6-5.7,1.8-8.2,3.6c-2.2,1.6-3.9,3.6-5.3,5.9c-1.6,2.6-2.5,5.4-2.8,8.3c0,0.1-0.1,0.2-0.1,0.4
		c0,1.1,0,2.2,0,3.3c0.2,0.9,0.3,1.8,0.5,2.7c0.3,1.8,1.1,3.4,2,4.9c1.3,2.5,2.6,5.1,3.9,7.6c0.2,0.5,0.4,1.1,0.8,1.4
		c2.2,1.8,4.1,1.2,4.6,1.7c0.1,0.2,0.3,0.4,0.3,0.6c0,0.4,0,0.9,0,1.3c0,1.8,0.1,9.1,0.1,9.8c0,1.4,0.8,2.3,2.3,2.3
		c3,0,10.3-0.1,13.4-0.1c1.4,0,2.2-0.9,2.2-2.2c0-0.7,0-7.8,0-9c0-0.7,0-1.3,0-2c0-0.3,0-0.4,0.3-0.6c0.6,0,2.7-0.3,4-2.4
		c1.5-3,2.9-6,4.5-9c1-1.7,1.6-3.5,1.9-5.5c0.1-0.6,0.2-1.2,0.3-1.7c0-1.1,0-2.1,0-3.2c-0.2-1-0.3-2.1-0.5-3.1
		C891.8,72.2,891.5,71,891,69.9z M887.3,82.9c-0.4,1.3-1.2,2.6-1.9,3.8c-0.5,1-1,2-1.5,3c-0.6,1.2-1.2,2.3-1.7,3.5
		c-0.2,0.4-0.4,0.5-0.8,0.5c-0.8,0-1.7,0-2.5,0v-6.8c0-3.7-3-6.8-6.8-6.8c-3.7,0-6.8,3-6.8,6.8v6.9c-0.8,0-1.7,0-2.5,0
		c-0.5,0-0.7-0.1-0.9-0.5c-0.6-1.3-1.3-2.7-2-4c-0.7-1.4-1.5-2.9-2.2-4.2c-1.4-2.5-1.8-5.2-1.6-8.1c0.2-2.9,1.1-5.6,2.9-8
		c2.6-3.4,6-5.6,10.2-6.3c3.8-0.6,7.4-0.1,10.8,1.8c2.2,1.2,3.9,2.8,5.3,4.8C888.3,73.4,888.8,78,887.3,82.9z"/>
	<path class="st2" d="M902.9,50.1c-1-1.1-2.7-1.2-3.8-0.2l-7.2,6.5c-1.1,1-1.2,2.7-0.2,3.8h0c1,1.1,2.7,1.2,3.8,0.2l7.2-6.5
		C903.8,53,903.9,51.2,902.9,50.1z"/>
	<path class="st2" d="M911.6,77.3h-9.7c-1.5,0-2.7,1.2-2.7,2.7c0,1.5,1.2,2.7,2.7,2.7h9.7c1.5,0,2.7-1.2,2.7-2.7
		C914.3,78.5,913.1,77.3,911.6,77.3z"/>
	<path class="st2" d="M843,49.9c-1.1-1-2.8-0.9-3.8,0.2l0,0c-1,1.1-0.9,2.8,0.2,3.8l7.2,6.5c1.1,1,2.8,0.9,3.8-0.2v0
		c1-1.1,0.9-2.8-0.2-3.8L843,49.9z"/>
	<path class="st2" d="M842,77.2h-9.7c-1.5,0-2.7,1.2-2.7,2.7c0,1.5,1.2,2.7,2.7,2.7h9.7c1.5,0,2.7-1.2,2.7-2.7
		C844.7,78.5,843.5,77.2,842,77.2z"/>
	<path class="st2" d="M872.1,53.6c1.5,0,2.7-1.2,2.7-2.7v-9.7c0-1.5-1.2-2.7-2.7-2.7c-1.5,0-2.7,1.2-2.7,2.7v9.7
		C869.4,52.3,870.6,53.6,872.1,53.6z"/>
</g>
<g>
	<path class="st2" d="M753.3,56.6c-1.8-7.6-5.9-13.2-13.3-16.1c-4.5-1.8-9.2-2.3-14-1.5c-6.4,1-11.5,4.2-14.9,9.8
		c-2.7,4.4-4,9.1-4.1,14.2c0,1.5,0.1,3.1,0.5,4.6c0.3,1,0.9,1.8,2,2c1,0.2,1.8-0.3,2.5-1c0.7-0.8,1-1.8,1.1-2.8
		c0.4-2.7,0.7-5.3,1.1-8c0.8-5.6,3.8-9.5,8.9-12c2.4-1.2,4.9-1.8,7.5-2.1c6.7-0.8,12.7,3.1,14.6,9.6c1.4,4.8,1.6,9.6,0.7,14.5
		c-1.3,7.4-4.6,13.6-10.5,18.4c-4.2,3.4-7.3,7.5-8.5,13c-0.3,1.4-0.8,2.7-1.5,3.9c-1.8,3.3-4.2,4.4-7.9,3.8
		c-3.4-0.6-5.2-2.9-4.9-6.3c0.2-1.7,0.7-3.3,1.2-4.9c0.5-1.6,0.6-3.2,0.2-4.8c-0.5-1.8-1.8-2.5-3.6-2c-1.4,0.4-2.6,1.1-3.5,2.3
		c-2.2,2.9-2.6,6.2-1.6,9.6c1.4,5.2,4.1,9.3,9.3,11.4c5.5,2.3,13.1,0,15.6-6.1c0.9-2.3,2.1-4.5,3.2-6.7c1.2-2.4,2.9-4.4,5-6.1
		c2.1-1.6,4-3.5,5.7-5.5c2.5-3,4.1-6.4,5.6-9.9c2.3-5.2,4.1-10.4,4-16.7C753.8,60,753.7,58.3,753.3,56.6z"/>
	<path class="st2" d="M721.6,76.9c-0.7,0.4-1.4,0.7-1.9,1.4c-2,2.6-3,5.5-2.3,8.8c0.8,3.8,4.7,6,8.2,4.5c1.8-0.7,3-2.2,3.9-3.8
		c1.3-2.3,2.2-4.7,3-7.2c1-3.4,0.6-6.6-1.5-9.6c-0.8-1.1-1.7-2.1-2.6-3.1c-1.5-1.7-3-3.4-3.7-5.7c-0.7-2.4,0-4.9,1.8-6.4
		c1.9-1.5,4.6-1.7,6.7-0.6c1.8,1,2.7,2.7,3.3,4.6c1,3.5,0.5,7-0.2,10.5c-0.2,1.1-0.5,2.1-0.5,3.2c0,0.6,0.2,1.2,0.9,1.4
		c0.6,0.2,1-0.3,1.3-0.7c0.6-0.8,0.9-1.7,1.3-2.5c1.8-3.9,2.7-8,1.9-12.3c-1.2-6.4-5.8-10.4-12-10.4c-1.4-0.1-2.8,0.2-4.2,0.9
		c-4.5,2.4-6.7,6.3-7.2,11.2c-0.3,2.8,1,5.2,2.3,7.6c1,1.8,2,3.7,2.5,5.7C722.9,75.6,722.7,76.1,721.6,76.9z"/>
</g>
<path class="st2" d="M671.7,98.2c-0.7,0-1.3-0.4-1.6-1l-7.6-15.8l-4.2,0c-1,0-1.8-0.8-1.8-1.8c0-1,0.8-1.8,1.8-1.8c0,0,0,0,0,0
	l5.3,0.1c0.7,0,1.3,0.4,1.6,1l5.6,11.5l4.6-32.1c0.1-0.8,0.8-1.5,1.7-1.5c0.9,0,1.6,0.5,1.8,1.4l5.6,23.4l3.9-9
	c0.3-0.6,0.9-1.1,1.6-1.1c0,0,0,0,0,0c0.7,0,1.3,0.4,1.6,1l5,10.8l2.2-3.7c0.3-0.5,0.9-0.9,1.5-0.9c0,0,0,0,0,0
	c4.7,0.1,10,0.1,10.8,0c0.9-0.2,1.7,0.3,2,1.2c0.3,0.9-0.2,1.9-1.1,2.2c-0.3,0.1-0.8,0.3-10.7,0.1l-3.4,5.6c-0.3,0.6-1,0.9-1.6,0.9
	c-0.7,0-1.2-0.4-1.5-1L690,77.6l-4.4,10.2c-0.3,0.7-1,1.1-1.8,1.1c-0.8-0.1-1.4-0.6-1.6-1.4L677.6,68l-4.1,28.7
	c-0.1,0.8-0.7,1.4-1.5,1.5C671.9,98.2,671.8,98.2,671.7,98.2z M710.9,78.9C710.9,78.9,710.9,78.9,710.9,78.9
	C710.9,78.9,710.9,78.9,710.9,78.9z M710.9,78.9C710.9,78.9,710.9,78.9,710.9,78.9C710.9,78.9,710.9,78.9,710.9,78.9z"/>
<path class="st9" d="M1057.5,77c-0.3,0-0.6-0.1-1.1-0.2c-2.3-0.7-1.8-3.4-1.5-4.7c0-0.2,0.1-0.3,0.1-0.5c0.4-2.2,0.8-4.4,1.3-6.7
	c0-0.2,0.1-0.4,0.1-0.6c-0.3,0-0.5,0-0.8,0.1c-4.4,0.5-8.7,1.1-13.1,1.7c-6.2,0.8-12.4,1.6-18.6,2.3c-1.6,0.2-2.7,0.3-3.6,0.3
	c-3.9,0-4.1-2.7-4.5-6.7l0-0.3c-0.3-2.6-0.7-5.3-1.1-7.9c-0.2-1.2-0.4-2.4-0.5-3.6c0-0.1,0-0.2,0-0.2c0-0.1,0-0.2,0-0.3
	c-0.1-0.5-0.2-1.3,0.2-2.1c0.7-1.3,2.6-1.4,3.7-1.4c0.1,0,0.2,0,0.4,0c5.1,0.3,10.2,0.6,15.2,1c2.4,0.2,4.8,0.3,7.2,0.5
	c3.7,0.2,7.3,0.5,11.1,0.7l2.8,0.2l0-0.1c-0.9-2.4-1.7-4.7-2.4-7c-0.6-1.7-0.4-3,0.5-3.7c0.3-0.2,0.8-0.5,1.5-0.5
	c0.8,0,1.6,0.4,2.3,0.8l0.2,0.1c0.6,0.3,1.1,0.8,1.5,1.1c0.1,0.1,0.3,0.3,0.4,0.4c0,0,14.7,12.1,14.7,12.2l0.2,0.2
	c3.5,3,4.1,3.9,4.1,4.9c0,0.9-0.5,2-2.9,4.4l-15.8,15.2c-0.2,0.2-0.5,0.4-0.8,0.4C1058.1,76.9,1057.8,77,1057.5,77z M1021.6,63
	l3.8-0.5c3.9-0.5,7.7-0.9,11.5-1.4c7.1-0.9,14.3-1.8,21.4-2.7c0.3-0.6,0.6-2.2,0.1-3.4c-0.3-0.7-0.7-0.8-1-0.9
	c-5.9-0.5-12-0.9-17.8-1.3c-2.7-0.2-5.4-0.3-8.1-0.5c-2.9-0.2-5.8-0.4-8.8-0.6l-2.5-0.2L1021.6,63z"/>
<path class="st9" d="M1007.5,67.9c0.3,0,0.6,0.1,1.1,0.2c2.3,0.7,1.8,3.4,1.5,4.7c0,0.2-0.1,0.3-0.1,0.5c-0.4,2.2-0.8,4.4-1.3,6.7
	c0,0.2-0.1,0.4-0.1,0.6c0.3,0,0.5,0,0.8-0.1c4.4-0.5,8.7-1.1,13.1-1.7c6.2-0.8,12.4-1.6,18.6-2.3c1.6-0.2,2.7-0.3,3.6-0.3
	c3.9,0,4.1,2.7,4.5,6.7l0,0.3c0.3,2.6,0.7,5.3,1.1,7.9c0.2,1.2,0.4,2.4,0.5,3.6c0,0.1,0,0.2,0,0.2c0,0.1,0,0.2,0,0.3
	c0.1,0.5,0.2,1.3-0.2,2.1c-0.7,1.3-2.6,1.4-3.7,1.4c-0.1,0-0.2,0-0.4,0c-5.1-0.3-10.2-0.6-15.2-1c-2.4-0.2-4.8-0.3-7.2-0.5
	c-3.7-0.2-7.3-0.5-11.1-0.7l-2.8-0.2l0,0.1c0.9,2.4,1.7,4.7,2.4,7c0.6,1.7,0.4,3-0.5,3.7c-0.3,0.2-0.8,0.5-1.5,0.5
	c-0.8,0-1.6-0.4-2.3-0.8l-0.2-0.1c-0.6-0.3-1.1-0.8-1.5-1.1c-0.1-0.1-0.3-0.3-0.4-0.4c0,0-14.7-12.1-14.7-12.2l-0.2-0.2
	c-3.5-3-4.1-3.9-4.1-4.9c0-0.9,0.5-2,2.9-4.4l15.8-15.2c0.2-0.2,0.5-0.4,0.8-0.4C1006.9,67.9,1007.2,67.9,1007.5,67.9z M1043.4,81.8
	l-3.8,0.5c-3.9,0.5-7.7,0.9-11.5,1.4c-7.1,0.9-14.3,1.8-21.4,2.7c-0.3,0.6-0.6,2.2-0.1,3.4c0.3,0.7,0.7,0.8,1,0.9
	c5.9,0.5,12,0.9,17.8,1.3c2.7,0.2,5.4,0.3,8.1,0.5c2.9,0.2,5.8,0.4,8.8,0.6l2.5,0.2L1043.4,81.8z"/>
<g>
	<path class="st2" d="M539.8,60.4c1.7-1.5,3.4-3,5.2-4.3c2.5-1.8,5.3-3.2,8.2-4.1c8.2-2.5,16.1-1.8,23.6,2.4c2.3,1.3,4.4,3,6.2,5
		c4,4.4,6.3,9.5,7,15.3c0.9,8.1-1.2,15.4-6.5,21.6c-4.7,5.5-10.6,8.9-17.8,9.9c-8.4,1.1-15.9-1.1-22.7-6.2c-1.7-1.3-3.3-2.8-4.6-4.4
		c-0.7-0.8-0.6-1.5,0.2-2.2c1-0.9,2.1-1.8,3.1-2.7c0.8-0.7,1.6-1.4,2.4-2.1c0.9-0.8,1.7-0.7,2.5,0.2c1.9,2.1,4,4.1,6.5,5.5
		c6,3.4,11.9,3.2,17.8-0.2c7.2-4.2,9.6-11.9,8.3-19c-0.7-3.6-2.3-6.7-4.9-9.3c-2.1-2.1-4.7-3.4-7.7-4c-5.4-1.1-10.3,0.1-14.8,3.1
		c-1.4,0.9-2.6,2.1-3.9,3.2c-1.5,1.4-3.1,2.7-4.7,4c-0.4,0.4-0.4,0.6-0.1,1c1,1.1,2,2.2,2.9,3.3c0.9,1.1,0.5,2.2-0.9,2.5
		c-3.8,0.6-7.6,1.3-11.4,1.9c-2.6,0.4-5.2,0.9-7.9,1.3c-0.6,0.1-1.2,0.2-1.7-0.2c-0.6-0.5-0.6-1.1-0.4-1.8c1.3-3.9,2.6-7.8,3.8-11.7
		c0.8-2.3,1.5-4.6,2.3-6.9c0.2-0.6,0.5-1.1,1.2-1.3c0.7-0.2,1.2,0.3,1.6,0.8c0.9,1,1.7,2,2.5,3c0.3,0.4,0.5,0.3,0.9,0
		C537.2,62.6,538.5,61.5,539.8,60.4z"/>
</g>
<g>
	<g>
		<path class="st0" d="M1262,68.7c-1.5-8.2-3.1-17.3-5.8-24.6c-4.4-11.8-11.3-13.1-20.1-13.3c-13.7-0.4-82.3,5.1-91.7,7.2
			c-7.5,1.6-11.8,7.4-13.8,17.5c-1.7,8.4-7.1,42.4-7.2,48.5c-0.1,8,3,19.7,15.2,22c10.9,2,21.7,1.8,42.4,1.7
			c13.1,0,37.3,1.5,52.6,1.9c10.2,0.4,17.9,0.6,20.7,0.4c9.2-0.9,13.4-7.1,13.7-15.5C1268.5,104.8,1263.5,76.6,1262,68.7z"/>
		<path class="st6" d="M1259.3,66.7c-1.5-8.2-3.1-17.3-5.8-24.6c-4.4-11.8-11.3-13.1-20.1-13.3c-13.7-0.4-82.3,5.1-91.7,7.2
			c-7.5,1.6-11.8,7.4-13.8,17.5c-1.7,8.4-7.1,42.4-7.2,48.5c-0.1,8,3,19.7,15.2,22c10.9,2,21.7,1.8,42.4,1.7
			c13.1,0,37.3,1.5,52.6,1.9c10.2,0.4,17.9,0.6,20.7,0.4c9.2-0.9,13.4-7.1,13.7-15.5C1265.8,102.8,1260.8,74.6,1259.3,66.7z"/>
		<path class="st2" d="M1153.7,38.3c0,0-18.7-1.5-20.5,15.3C1133.1,53.6,1138.5,38.5,1153.7,38.3z"/>
		<path class="st2" d="M1241.9,126c0,0,18.6,2.4,21.3-14.3C1263.2,111.8,1257,126.6,1241.9,126z"/>
	</g>
	<g>
		<path class="st2" d="M1195.9,115.9c-1.7,0-3.4-0.1-5.1-0.4c-8.9-1.3-16.2-5.3-21.9-11.9c-6.2-7.3-8.9-15.8-7.9-25.3
			c0.9-8.4,4.5-15.6,11-21.4c5-4.6,11.1-7.5,17.9-8.7c0.9-0.1,1.7-0.3,2.6-0.4c0.4,0,1.2-0.2,1.2-0.2h4.5l0.1,0
			c0.2,0.1,0.4,0.1,0.7,0.1c0.2,0,0.3,0,0.5,0c8.6,1,16,4.5,21.9,10.6c4.8,4.9,7.8,10.8,9,17.5c0.2,0.8,0.3,1.7,0.4,2.5
			c0.1,0.4,0.1,0.8,0.2,1.2l0,0V84c0,0-0.1,0.7-0.1,1c-0.1,0.7-0.2,1.4-0.3,2.1c-1.2,7.3-4.5,13.6-9.9,18.9
			c-2.9,2.9-6.4,5.2-10.3,6.9C1205.6,114.9,1200.8,115.9,1195.9,115.9C1195.9,115.9,1195.9,115.9,1195.9,115.9z M1195.8,53.1
			c-16.4,0-29.7,12.9-29.7,28.7c0,7.7,3.1,14.9,8.7,20.3c5.6,5.5,13,8.5,20.9,8.5c16.4,0,29.7-12.9,29.7-28.7
			C1225.4,66,1212.1,53.1,1195.8,53.1v-0.6V53.1z"/>
		<path class="st2" d="M1200.1,77.7c0-1.9-1.2-3.5-2.9-4c-2.8-0.9-5.7,1-5.7,4c0,3.5,0,7,0,10.5c0,3.5,0,7,0,10.5c0,1.9,1.2,3.5,3,4
			c2.8,0.8,5.6-1.1,5.6-4c0-3,0-6.1,0-9.1C1200.1,85.6,1200.1,81.6,1200.1,77.7z"/>
		<path class="st2" d="M1195.7,69.3c2.4,0,4.3-1.9,4.3-4.2c0-2.3-1.9-4.2-4.3-4.2c-2.4,0-4.4,1.8-4.4,4.1
			C1191.4,67.3,1193.3,69.2,1195.7,69.3z"/>
	</g>
</g>
</svg>
