<?xml version="1.0" encoding="utf-8"?>
<!-- Generator: Adobe Illustrator 21.0.0, SVG Export Plug-In . SVG Version: 6.00 Build 0)  -->
<svg version="1.1" id="Layer_1" xmlns="http://www.w3.org/2000/svg" xmlns:xlink="http://www.w3.org/1999/xlink" x="0px" y="0px"
	 viewBox="0 0 629.6 101.7" style="enable-background:new 0 0 629.6 101.7;" xml:space="preserve">
<style type="text/css">
	.st0{fill:#A7A8AC;}
	.st1{fill:#ED4A94;}
	.st2{fill:#FFFFFF;}
	.st3{fill:#3CA7C2;}
	.st4{fill:#B8D432;}
	.st5{fill:#62C4B6;}
	.st6{fill:#955AA3;}
	.st7{fill:#ECC91A;}
	.st8{fill:#F6921E;}
	.st9{opacity:0.3;}
</style>
<g>
	<path class="st0" d="M63.1,17.5c-0.7-3.7-1.4-7.7-2.6-10.9c-2-5.3-5-5.8-9-5.9C45.4,0.5,14.8,3,10.6,3.9c-3.3,0.7-5.2,3.3-6.1,7.8
		c-0.7,3.7-3.1,18.9-3.2,21.6c0,3.6,1.3,8.8,6.8,9.8C13,44,17.8,43.9,27,43.9c5.8,0,16.6,0.7,23.5,0.8c4.6,0.2,8,0.3,9.2,0.2
		c4.1-0.4,6-3.2,6.1-6.9C66,33.6,63.8,21,63.1,17.5z"/>
	<path class="st1" d="M61.9,17.1c-0.6-3.7-1.3-7.7-2.5-10.9c-2-5.3-5-5.8-9-5.9C44.3,0,13.7,2.5,9.5,3.4c-3.3,0.7-5.3,3.3-6.2,7.8
		c-0.8,3.7-3.2,18.9-3.2,21.6c0,3.6,1.3,8.8,6.8,9.8c4.9,0.9,9.7,0.8,18.9,0.8c5.8,0,16.6,0.7,23.5,0.8c4.6,0.2,8,0.3,9.2,0.2
		c4.1-0.4,6-3.2,6.1-6.9C64.8,33.2,62.6,20.6,61.9,17.1z"/>
	<path class="st2" d="M14.8,4.4c0,0-8.3-0.7-9.1,6.8C5.6,11.2,8,4.5,14.8,4.4z"/>
	<path class="st2" d="M54.1,43.5c0,0,8.3,1.1,9.5-6.4C63.6,37.2,60.9,43.8,54.1,43.5z"/>
</g>
<path class="st0" d="M485.8,17.2c-0.7-3.7-1.4-7.7-2.6-10.9c-2-5.3-5-5.8-9-5.9c-6.1-0.2-36.7,2.3-40.9,3.2
	c-3.3,0.7-5.3,3.3-6.2,7.8c-0.8,3.7-3.2,18.9-3.2,21.6c0,3.6,1.3,8.8,6.8,9.8c4.9,0.9,9.7,0.8,18.9,0.8c5.8,0,16.6,0.7,23.5,0.8
	c4.6,0.2,8,0.3,9.2,0.2c4.1-0.4,6-3.2,6.1-6.9C488.7,33.3,486.4,20.7,485.8,17.2z"/>
<path class="st3" d="M484.6,16.8c-0.7-3.7-1.4-7.7-2.6-10.9c-2-5.3-5-5.8-9-5.9c-6.1-0.2-36.7,2.3-40.9,3.2
	c-3.3,0.7-5.3,3.3-6.2,7.8c-0.8,3.7-3.2,18.9-3.2,21.6c0,3.6,1.3,8.8,6.8,9.8c4.9,0.9,9.7,0.8,18.9,0.8c5.8,0,16.6,0.7,23.5,0.8
	c4.6,0.2,8,0.3,9.2,0.2c4.1-0.4,6-3.2,6.1-6.9C487.5,32.8,485.2,20.3,484.6,16.8z"/>
<path class="st2" d="M438.8,4.1c0,0-8.3-0.7-9.1,6.8C429.6,10.9,432,4.1,438.8,4.1z"/>
<path class="st2" d="M476.8,43.2c0,0,8.3,1.1,9.5-6.4C486.3,36.9,483.6,43.5,476.8,43.2z"/>
<g>
	<path class="st0" d="M73.9,29c0.7,3.7,1.4,7.7,2.6,11c2,5.3,5,5.8,9,5.9c6.1,0.2,36.7-2.3,40.9-3.2c3.3-0.7,5.3-3.3,6.2-7.8
		c0.8-3.7,3.2-18.9,3.2-21.6c0-3.6-1.3-8.8-6.8-9.8c-4.9-0.9-9.7-0.8-18.9-0.8c-5.8,0-16.6-0.7-23.5-0.8c-4.6-0.2-8-0.3-9.2-0.2
		c-4.1,0.4-6,3.2-6.1,6.9C71,12.9,73.3,25.5,73.9,29z"/>
	<path class="st4" d="M72.9,28.1c0.7,3.7,1.4,7.7,2.6,11c2,5.3,5,5.8,9,5.9c6.1,0.2,36.7-2.3,40.9-3.2c3.3-0.7,5.3-3.3,6.2-7.8
		c0.8-3.7,3.2-18.9,3.2-21.6c0-3.6-1.3-8.8-6.8-9.8c-4.9-0.9-9.7-0.8-18.9-0.8c-5.8,0-16.6-0.7-23.5-0.8c-4.6-0.2-8-0.3-9.2-0.2
		c-4.1,0.4-6,3.2-6.1,6.9C70,12,72.3,24.6,72.9,28.1z"/>
	<path class="st2" d="M120.1,40.8c0,0,8.3,0.7,9.1-6.8C129.2,34,126.8,40.7,120.1,40.8z"/>
	<path class="st2" d="M80.7,1.7c0,0-8.3-1.1-9.5,6.4C71.2,8,73.9,1.4,80.7,1.7z"/>
</g>
<g>
	<path class="st0" d="M214.2,29.3c0.7,3.7,1.4,7.7,2.6,10.9c2,5.3,5,5.8,9,5.9c6.1,0.2,36.7-2.3,40.9-3.2c3.3-0.7,5.3-3.3,6.2-7.8
		c0.8-3.7,3.2-18.9,3.2-21.6c0-3.6-1.3-8.8-6.8-9.8c-4.9-0.9-9.7-0.8-18.9-0.8c-5.8,0-16.6-0.7-23.5-0.8c-4.6-0.1-8-0.2-9.2-0.1
		c-4.1,0.4-6,3.2-6.1,6.9C211.3,13.2,213.6,25.7,214.2,29.3z"/>
	<path class="st5" d="M213.2,28.4c0.7,3.7,1.4,7.7,2.6,10.9c2,5.3,5,5.8,9,5.9c6.1,0.2,36.7-2.3,40.9-3.2c3.3-0.7,5.3-3.3,6.2-7.8
		c0.8-3.7,3.2-18.9,3.2-21.6c0-3.6-1.3-8.8-6.8-9.8c-4.9-0.9-9.7-0.8-18.9-0.8c-5.8,0-16.6-0.7-23.5-0.8c-4.6-0.1-8-0.2-9.2-0.1
		c-4.1,0.4-6,3.2-6.1,6.9C210.3,12.3,212.5,24.9,213.2,28.4z"/>
	<path class="st2" d="M260.3,41c0,0,8.3,0.7,9.1-6.8C269.5,34.2,267.1,41,260.3,41z"/>
	<path class="st2" d="M221,1.9c0,0-8.3-1.1-9.5,6.4C211.5,8.3,214.2,1.7,221,1.9z"/>
</g>
<g>
	<path class="st0" d="M202.7,19.2c-0.7-3.7-1.4-7.7-2.6-11c-1.9-5.2-5-5.8-9-5.9c-6.1-0.2-36.7,2.3-40.9,3.2
		c-3.3,0.7-5.3,3.3-6.2,7.8c-0.8,3.7-3.2,18.9-3.2,21.6c0,3.6,1.3,8.8,6.8,9.8c4.9,0.9,9.7,0.8,18.9,0.8c5.8,0,16.6,0.7,23.5,0.8
		c4.6,0.2,8,0.3,9.2,0.2c4.1-0.4,6-3.2,6.1-6.9C205.6,35.3,203.4,22.7,202.7,19.2z"/>
	<path class="st6" d="M201.5,18.3c-0.7-3.7-1.4-7.7-2.6-11c-2-5.3-5-5.8-9-5.9c-6.1-0.2-36.7,2.3-40.9,3.2c-3.3,0.7-5.3,3.3-6.2,7.8
		c-0.8,3.7-3.2,18.9-3.2,21.6c0,3.6,1.3,8.8,6.8,9.8c4.9,0.9,9.7,0.8,18.9,0.8c5.8,0,16.6,0.7,23.5,0.8c4.6,0.2,8,0.3,9.2,0.2
		c4.1-0.4,6-3.2,6.1-6.9C204.4,34.4,202.2,21.8,201.5,18.3z"/>
	<path class="st2" d="M154.4,5.6c0,0-8.3-0.7-9.1,6.8C145.3,12.4,147.6,5.7,154.4,5.6z"/>
	<path class="st2" d="M193.8,44.8c0,0,8.3,1.1,9.5-6.4C203.3,38.4,200.5,45,193.8,44.8z"/>
</g>
<g>
	<path class="st0" d="M341.8,17.2c-0.7-3.7-1.4-7.7-2.6-10.9c-2-5.3-5-5.8-9-5.9c-6.1-0.2-36.7,2.3-40.9,3.2
		c-3.3,0.7-5.3,3.3-6.2,7.8c-0.8,3.7-3.2,18.9-3.2,21.6c0,3.6,1.3,8.8,6.8,9.8c4.9,0.9,9.7,0.8,18.9,0.8c5.8,0,16.6,0.7,23.5,0.8
		c4.6,0.2,8,0.3,9.2,0.2c4.1-0.4,6-3.2,6.1-6.9C344.7,33.3,342.5,20.7,341.8,17.2z"/>
	<path class="st7" d="M340.6,16.8c-0.7-3.7-1.4-7.7-2.6-10.9c-2-5.3-5-5.8-9-5.9c-6.1-0.2-36.7,2.3-40.9,3.2
		c-3.3,0.7-5.3,3.3-6.2,7.8c-0.8,3.7-3.2,18.9-3.2,21.6c0,3.6,1.3,8.8,6.8,9.8c4.9,0.9,9.7,0.8,18.9,0.8c5.8,0,16.6,0.7,23.5,0.8
		c4.6,0.2,8,0.3,9.2,0.2c4.1-0.4,6-3.2,6.1-6.9C343.5,32.8,341.3,20.3,340.6,16.8z"/>
	<path class="st2" d="M293.5,4.1c0,0-8.3-0.7-9.1,6.8C284.3,10.9,286.7,4.1,293.5,4.1z"/>
	<path class="st2" d="M332.8,43.2c0,0,8.3,1.1,9.5-6.4C342.3,36.9,339.6,43.5,332.8,43.2z"/>
</g>
<g>
	<path class="st0" d="M353.8,28.4c0.7,3.7,1.4,7.7,2.6,11c2,5.3,5,5.8,9,5.9c6.1,0.2,36.7-2.3,40.9-3.2c3.3-0.7,5.3-3.3,6.2-7.8
		c0.8-3.7,3.2-18.9,3.2-21.6c0-3.6-1.3-8.8-6.8-9.8C404,2,399.2,2.1,390,2.1c-5.8,0-16.6-0.7-23.5-0.8c-4.6-0.2-8-0.3-9.2-0.2
		c-4.1,0.4-6,3.2-6.1,6.9C350.9,12.3,353.2,24.9,353.8,28.4z"/>
	<path class="st8" d="M352.8,27.5c0.7,3.7,1.4,7.7,2.6,11c2,5.3,5,5.8,9,5.9c6.1,0.2,36.7-2.3,40.9-3.2c3.3-0.7,5.3-3.3,6.2-7.8
		c0.8-3.7,3.2-18.9,3.2-21.6c0-3.6-1.3-8.8-6.8-9.8c-4.9-0.9-9.7-0.8-18.9-0.8c-5.8,0-16.6-0.7-23.5-0.8c-4.6-0.2-8-0.3-9.3-0.2
		c-4.1,0.4-6,3.2-6.1,6.9C349.9,11.4,352.1,24,352.8,27.5z"/>
	<path class="st2" d="M399.9,40.2c0,0,8.3,0.7,9.1-6.8C409.1,33.3,406.7,40.1,399.9,40.2z"/>
	<path class="st2" d="M360.5,1c0,0-8.3-1.1-9.5,6.4C351.1,7.4,353.8,0.8,360.5,1z"/>
</g>
<g>
	<path class="st2" d="M118,10.4c-0.3-1.3-1.5-2.4-2.9-2.6c-0.1,0-0.5-0.1-0.8-0.1c-0.2,0-1.3,0.2-2,0.3c-2.2,0.3-4.4,0.6-6.6,0.9
		c-2.1,0.3-4.3,0.6-6.5,0.9c-1.1,0.1-2.3,0.3-3.4,0.5c-1.4,0.2-2.5,1.7-2.5,3.3c0,2.4,0,13.3,0,16.5c0,0.1,0,0.2,0,0.3
		c-3-0.3-5.3,1-7.1,3.3c-0.6,0.8-1,1.8-1.1,2.8c-0.1,2.1,1.1,3.7,3.2,4.1c0.4,0.1,1.3,0.1,1.8,0s1-0.2,1.6-0.4
		c2.1-0.8,3.8-2.3,4.6-4.5c0.2-0.5,0.3-1.1,0.3-1.7c0-4.5,0-13.8,0-14c6-0.8,12-1.6,18-2.4c0,3.7,0,7.4,0,11c-2.2-0.2-4.1,0.5-5.8,2
		c-1.2,1-2.1,2.3-2.4,3.9c-0.4,2.2,1.1,4.2,3.3,4.5c2.7,0.3,4.8-0.8,6.5-2.7c0.9-1,1.5-2.2,1.6-3.6c0,0,0-0.1,0-0.2
		c0-0.1,0-18.3,0-19.9c0-0.5,0-1,0-1.6C118,10.8,118,10.6,118,10.4z M94.9,35.1c-0.6,1.6-1.8,2.8-3.7,3.6c-0.4,0.1-0.8,0.3-1.3,0.4
		c0,0-0.1,0-0.3,0c-0.3,0-0.7,0-0.9-0.1c-1.2-0.2-2-1.2-1.9-2.4c0-0.7,0.3-1.4,0.8-2c1.4-1.9,3-2.8,5-2.8c0.2,0,0.4,0,0.7,0h0.1
		c0.5,0,0.7,0,1-0.4c0.6-0.6,0.7,2.5,0.7,2.5C95.1,34.4,95,34.8,94.9,35.1z M116.5,32.2c0,0.1,0,0.2,0,0.4c0,0.9-0.4,1.8-1.2,2.6
		c-1.4,1.5-2.9,2.3-4.6,2.3c-0.2,0-0.4,0-0.6,0c-0.6,0-1.2-0.4-1.5-0.8c-0.4-0.5-0.5-1.1-0.4-1.8c0.2-1.1,0.8-2.1,1.8-2.9
		c1.3-1.1,2.6-1.6,4-1.6c0.2,0,0.4,0,0.6,0c0,0,0.1,0,0.2,0c0.4,0,0.7-0.3,1.1-0.4C116.6,29.4,116.5,32.2,116.5,32.2z"/>
</g>
<g>
	<path class="st2" d="M32.7,10.8c-0.1-0.4-0.5-0.7-1-0.4c-0.3,0.1-0.5,0.3-0.8,0.5c-3.3,2.7-6.6,5.5-9.9,8.2
		c-0.1,0.1-0.4,0.2-0.5,0.2c-1.5,0-3,0-4.5,0c-0.2,0-0.4,0-0.5,0c-0.7,0.2-1,0.6-1.2,1.2c0,2.4,0,4.8,0,7.2c0.3,0.9,1,1.3,2,1.3
		c1.4,0,2.8,0,4.1,0c0.2,0,0.4,0.1,0.6,0.2c3.3,2.8,6.6,5.5,10,8.3c0.2,0.2,0.4,0.3,0.7,0.4c0.4,0.2,0.8,0,1-0.4
		c0.1-0.2,0.1-0.5,0.1-0.7c0-8.4,0-16.9,0-25.3C32.8,11.2,32.7,11,32.7,10.8z M30.2,33.5c-0.5-0.4-1-0.8-1.6-1.3
		c-1.9-1.6-3.9-3.3-5.9-4.9c-0.3-0.3-0.7-0.5-1.1-0.6c-0.7-0.2-0.8-4.8,0-5c0.4-0.1,0.8-0.3,1.1-0.6c1.9-1.6,3.7-3.1,5.6-4.6
		c0.6-0.5,1.3-1.1,1.9-1.6C30.2,21.2,30.2,27.4,30.2,33.5z"/>
	<path class="st2" d="M48.8,21.7c-0.4-2.8-1.3-5.4-2.8-7.7c-1.1-1.7-2.3-3.1-3.9-4.3c-0.6-0.5-1.5-0.3-1.9,0.3s-0.3,1.4,0.3,1.9
		c1.9,1.5,3.3,3.4,4.3,5.6c1.6,3.6,1.9,7.3,1,11.2c-0.8,3.2-2.5,5.8-5.3,7.7c-0.6,0.4-0.8,1.2-0.4,1.8c0.4,0.6,1.2,0.8,1.8,0.5
		c0.3-0.1,0.5-0.3,0.8-0.5c3.6-2.7,5.5-6.3,6.2-10.7c0.1-0.6,0.1-1.1,0.2-1.7c0-0.8,0-1.7,0-2.6C49,22.7,48.9,22.2,48.8,21.7z"/>
	<path class="st2" d="M41,18.2c-0.8-1.2-1.7-2.3-2.9-3.2c-0.7-0.5-1.5-0.4-2,0.3c-0.4,0.6-0.3,1.4,0.4,1.9c0.2,0.1,0.4,0.3,0.5,0.4
		c2.4,2.3,3.3,5.2,2.7,8.4c-0.4,2.1-1.4,3.7-3.3,4.9c-0.6,0.4-0.8,1.2-0.4,1.8c0.4,0.6,1.2,0.8,1.8,0.5c0.4-0.2,0.7-0.4,1-0.7
		c2.6-2.1,3.7-5,3.7-7.2C42.7,22.2,42.1,20.1,41,18.2z"/>
</g>
<path class="st2" d="M186.5,24c-1.4-1.2-15.6-14.2-16.2-14.2c-0.6,0-10.6,9.3-15.8,13.8c-0.4,0.4-0.8,0.7-1,1.2c0,0.2,0,0.4,0,0.7
	c0,0.1,0.1,0.2,0.1,0.2c0.4,1,1.7,1.3,2.5,0.6c0.1-0.1,0.2-0.2,0.4-0.3l0.1-0.1c0,3.9,0,7.8,0,11.7c0,0.1,0,0.2,0,0.4
	c2.7,0,5.4,0,8,0c0-2.1,0-4.2,0-6.3c0-2.9,2.3-5.3,5.1-5.5c3-0.2,5.5,1.7,6.1,4.6c0.1,0.5,0.1,1,0.1,1.5c0,1.9,0,3.8,0,5.8
	c2.7,0,5.4,0,8,0c0-4,0-8,0-12c0.2,0.1,0.4,0.3,0.5,0.4c0.8,0.8,2.1,0.4,2.5-0.6c0-0.1,0-0.1,0.1-0.2c0-0.2,0-0.4,0-0.7
	C186.8,24.5,186.7,24.1,186.5,24z M182,35.2V36h-4.2c0-1.3,0-2.6,0-3.9c0-0.6,0-1.2-0.1-1.8c-0.7-3.6-3.7-6.2-7.5-6.2
	c-0.2,0-0.4,0-0.6,0c-3.8,0.3-6.8,3.5-6.8,7.4c0,1.5,0,2.9,0,4.4l0,0h-4.2c0-3.4,0-6.7,0-10.1c0.6-0.9,10-9.3,11.8-11.2
	c1.7,1.7,11.7,11.2,11.7,11.2S182,32,182,35.2z"/>
<g>
	<path class="st2" d="M391.9,19.7c-0.6-1.2-1.2-2.2-2.3-3.1c-1.4-1.2-2.9-1.9-4.7-2.2c-0.3,0-0.5-0.1-0.8-0.1c-0.5,0-0.9,0-1.4,0
		c-0.4,0-0.8,0.1-1.2,0.2c-1.3,0.3-2.5,0.8-3.7,1.6c-1,0.7-1.7,1.6-2.4,2.6c-0.7,1.2-1.1,2.4-1.2,3.7c0,0,0,0.1,0,0.2
		c0,0.5,0,1,0,1.5c0.1,0.4,0.1,0.8,0.2,1.2c0.1,0.8,0.5,1.5,0.9,2.2c0.6,1.1,1.2,2.3,1.7,3.4c0.1,0.2,0.2,0.5,0.4,0.6
		c1,0.8,1.8,0.5,2.1,0.8c0,0.1,0.1,0.2,0.1,0.3c0,0.2,0,0.4,0,0.6c0,0.8,0,4.1,0,4.4c0,0.6,0.4,1,1,1c1.3,0,4.6,0,6,0
		c0.6,0,1-0.4,1-1c0-0.3,0-3.5,0-4c0-0.3,0-0.6,0-0.9c0-0.1,0-0.2,0.1-0.3c0.3,0,1.2-0.1,1.8-1.1c0.7-1.3,1.3-2.7,2-4
		c0.4-0.8,0.7-1.6,0.8-2.5c0-0.3,0.1-0.5,0.1-0.8c0-0.5,0-0.9,0-1.4c-0.1-0.4-0.1-0.9-0.2-1.4C392.2,20.7,392.1,20.2,391.9,19.7z
		 M390.2,25.5c-0.2,0.6-0.5,1.2-0.8,1.7c-0.2,0.4-0.4,0.9-0.7,1.3c-0.3,0.5-0.5,1-0.8,1.6c-0.1,0.2-0.2,0.2-0.4,0.2
		c-0.4,0-0.8,0-1.1,0v-3c0-1.7-1.3-3-3-3s-3,1.3-3,3v3.1c-0.4,0-0.8,0-1.1,0c-0.2,0-0.3,0-0.4-0.2c-0.3-0.6-0.6-1.2-0.9-1.8
		c-0.3-0.6-0.7-1.3-1-1.9c-0.6-1.1-0.8-2.3-0.7-3.6c0.1-1.3,0.5-2.5,1.3-3.6c1.2-1.5,2.7-2.5,4.6-2.8c1.7-0.3,3.3,0,4.8,0.8
		c1,0.5,1.7,1.2,2.4,2.1C390.7,21.3,390.9,23.3,390.2,25.5z"/>
	<path class="st2" d="M397.2,10.9c-0.4-0.5-1.2-0.5-1.7-0.1l-3.2,2.9c-0.5,0.4-0.5,1.2-0.1,1.7l0,0c0.4,0.5,1.2,0.5,1.7,0.1l3.2-2.9
		C397.6,12.2,397.6,11.4,397.2,10.9z"/>
	<path class="st2" d="M401.1,23h-4.3c-0.7,0-1.2,0.5-1.2,1.2s0.5,1.2,1.2,1.2h4.3c0.7,0,1.2-0.5,1.2-1.2
		C402.3,23.6,401.7,23,401.1,23z"/>
	<path class="st2" d="M370.4,10.8c-0.5-0.4-1.2-0.4-1.7,0.1l0,0c-0.4,0.5-0.4,1.2,0.1,1.7l3.2,2.9c0.5,0.4,1.2,0.4,1.7-0.1l0,0
		c0.4-0.5,0.4-1.2-0.1-1.7L370.4,10.8z"/>
	<path class="st2" d="M370,23h-4.3c-0.7,0-1.2,0.5-1.2,1.2s0.5,1.2,1.2,1.2h4.3c0.7,0,1.2-0.5,1.2-1.2C371.2,23.6,370.7,23,370,23z"
		/>
	<path class="st2" d="M383.4,12.4c0.7,0,1.2-0.5,1.2-1.2V6.9c0-0.7-0.5-1.2-1.2-1.2s-1.2,0.5-1.2,1.2v4.3
		C382.2,11.9,382.8,12.4,383.4,12.4z"/>
</g>
<g>
	<path class="st2" d="M330.4,13.8c-0.8-3.4-2.6-5.9-5.9-7.2c-2-0.8-4.1-1-6.2-0.7c-2.9,0.4-5.1,1.9-6.6,4.4c-1.2,2-1.8,4.1-1.8,6.3
		c0,0.7,0,1.4,0.2,2.1c0.1,0.4,0.4,0.8,0.9,0.9c0.4,0.1,0.8-0.1,1.1-0.4c0.3-0.4,0.4-0.8,0.5-1.2c0.2-1.2,0.3-2.4,0.5-3.6
		c0.4-2.5,1.7-4.2,4-5.4c1.1-0.5,2.2-0.8,3.3-0.9c3-0.4,5.7,1.4,6.5,4.3c0.6,2.1,0.7,4.3,0.3,6.5c-0.6,3.3-2.1,6.1-4.7,8.2
		c-1.9,1.5-3.3,3.3-3.8,5.8c-0.1,0.6-0.4,1.2-0.7,1.7c-0.8,1.5-1.9,2-3.5,1.7c-1.5-0.3-2.3-1.3-2.2-2.8c0.1-0.8,0.3-1.5,0.5-2.2
		s0.3-1.4,0.1-2.1c-0.2-0.8-0.8-1.1-1.6-0.9c-0.6,0.2-1.2,0.5-1.6,1c-1,1.3-1.2,2.8-0.7,4.3c0.6,2.3,1.8,4.1,4.1,5.1
		c2.5,1,5.8,0,7-2.7c0.4-1,0.9-2,1.4-3c0.5-1.1,1.3-2,2.2-2.7c0.9-0.7,1.8-1.6,2.5-2.5c1.1-1.3,1.8-2.9,2.5-4.4
		c1-2.3,1.8-4.6,1.8-7.5C330.6,15.3,330.6,14.5,330.4,13.8z"/>
	<path class="st2" d="M316.3,22.8c-0.3,0.2-0.6,0.3-0.8,0.6c-0.9,1.2-1.3,2.5-1,3.9c0.4,1.7,2.1,2.7,3.7,2c0.8-0.3,1.3-1,1.7-1.7
		c0.6-1,1-2.1,1.3-3.2c0.4-1.5,0.3-2.9-0.7-4.3c-0.4-0.5-0.8-0.9-1.2-1.4c-0.7-0.8-1.3-1.5-1.7-2.5c-0.3-1.1,0-2.2,0.8-2.9
		s2.1-0.8,3-0.3c0.8,0.4,1.2,1.2,1.5,2.1c0.4,1.6,0.2,3.1-0.1,4.7c-0.1,0.5-0.2,0.9-0.2,1.4c0,0.3,0.1,0.5,0.4,0.6s0.4-0.1,0.6-0.3
		c0.3-0.4,0.4-0.8,0.6-1.1c0.8-1.7,1.2-3.6,0.8-5.5c-0.5-2.9-2.6-4.6-5.4-4.6c-0.6,0-1.2,0.1-1.9,0.4c-2,1.1-3,2.8-3.2,5
		c-0.1,1.2,0.4,2.3,1,3.4c0.4,0.8,0.9,1.7,1.1,2.5C316.9,22.3,316.8,22.5,316.3,22.8z"/>
</g>
<path class="st2" d="M294,32.3c-0.3,0-0.6-0.2-0.7-0.4l-3.4-7H288c-0.4,0-0.8-0.4-0.8-0.8s0.4-0.8,0.8-0.8l0,0h2.4
	c0.3,0,0.6,0.2,0.7,0.4l2.5,5.1l2.1-14.3c0-0.4,0.4-0.7,0.8-0.7s0.7,0.2,0.8,0.6l2.5,10.4l1.7-4c0.1-0.3,0.4-0.5,0.7-0.5l0,0
	c0.3,0,0.6,0.2,0.7,0.4l2.2,4.8l1-1.7c0.1-0.2,0.4-0.4,0.7-0.4l0,0c2.1,0,4.5,0,4.8,0c0.4-0.1,0.8,0.1,0.9,0.5s-0.1,0.8-0.5,1
	c-0.1,0-0.4,0.1-4.8,0l-1.5,2.5c-0.1,0.3-0.4,0.4-0.7,0.4c-0.3,0-0.5-0.2-0.7-0.4l-2.1-4.5l-2,4.6c-0.1,0.3-0.4,0.5-0.8,0.5
	s-0.6-0.3-0.7-0.6l-2.1-8.7l-1.8,12.8c0,0.4-0.3,0.6-0.7,0.7C294.1,32.3,294.1,32.3,294,32.3z M311.5,23.7L311.5,23.7L311.5,23.7z
	 M311.5,23.7L311.5,23.7L311.5,23.7z"/>
<path class="st2" d="M466.2,22.9c-0.1,0-0.3,0-0.5-0.1c-1-0.3-0.8-1.5-0.7-2.1c0-0.1,0-0.1,0-0.2c0.2-1,0.4-2,0.6-3
	c0-0.1,0-0.2,0-0.3c-0.1,0-0.2,0-0.4,0c-2,0.2-3.9,0.5-5.8,0.8c-2.8,0.4-5.5,0.7-8.3,1c-0.7,0.1-1.2,0.1-1.6,0.1c-1.7,0-1.8-1.2-2-3
	V16c-0.1-1.2-0.3-2.4-0.5-3.5c-0.1-0.5-0.2-1.1-0.2-1.6v-0.1v-0.1c0-0.2-0.1-0.6,0.1-0.9c0.3-0.6,1.2-0.6,1.7-0.6c0,0,0.1,0,0.2,0
	c2.3,0.1,4.6,0.3,6.8,0.4c1.1,0.1,2.1,0.1,3.2,0.2c1.7,0.1,3.3,0.2,5,0.3l1.2,0.1l0,0c-0.4-1.1-0.8-2.1-1.1-3.1
	c-0.3-0.8-0.2-1.3,0.2-1.7c0.1-0.1,0.4-0.2,0.7-0.2c0.4,0,0.7,0.2,1,0.4h0.1c0.3,0.1,0.5,0.4,0.7,0.5c0,0,0.1,0.1,0.2,0.2l6.6,5.4
	l0.1,0.1c1.6,1.3,1.8,1.7,1.8,2.2c0,0.4-0.2,0.9-1.3,2l-7.1,6.8c-0.1,0.1-0.2,0.2-0.4,0.2C466.4,22.8,466.3,22.9,466.2,22.9z
	 M450.1,16.6l1.7-0.2c1.7-0.2,3.4-0.4,5.1-0.6c3.2-0.4,6.4-0.8,9.5-1.2c0.1-0.3,0.3-1,0-1.5c-0.1-0.3-0.3-0.4-0.4-0.4
	c-2.6-0.2-5.4-0.4-7.9-0.6c-1.2-0.1-2.4-0.1-3.6-0.2c-1.3-0.1-2.6-0.2-3.9-0.3l-1.1-0.1L450.1,16.6z"/>
<path class="st2" d="M443.8,18.8c0.1,0,0.3,0,0.5,0.1c1,0.3,0.8,1.5,0.7,2.1c0,0.1,0,0.1,0,0.2c-0.2,1-0.4,2-0.6,3
	c0,0.1,0,0.2,0,0.3c0.1,0,0.2,0,0.4,0c2-0.2,3.9-0.5,5.8-0.8c2.8-0.4,5.5-0.7,8.3-1c0.7-0.1,1.2-0.1,1.6-0.1c1.7,0,1.8,1.2,2,3v0.1
	c0.1,1.2,0.3,2.4,0.5,3.5c0.1,0.5,0.2,1.1,0.2,1.6v0.1V31c0,0.2,0.1,0.6-0.1,0.9c-0.3,0.6-1.2,0.6-1.7,0.6c0,0-0.1,0-0.2,0
	c-2.3-0.1-4.6-0.3-6.8-0.4c-1.1-0.1-2.1-0.1-3.2-0.2c-1.7-0.1-3.3-0.2-5-0.3l-1.2-0.1l0,0c0.4,1.1,0.8,2.1,1.1,3.1
	c0.3,0.8,0.2,1.3-0.2,1.7c-0.1,0.1-0.4,0.2-0.7,0.2c-0.4,0-0.7-0.2-1-0.4h-0.1c-0.3-0.1-0.5-0.4-0.7-0.5c0,0-0.1-0.1-0.2-0.2
	l-6.6-5.4l-0.1-0.1c-1.6-1.3-1.8-1.7-1.8-2.2c0-0.4,0.2-0.9,1.3-2l7-6.8c0.1-0.1,0.2-0.2,0.4-0.2C443.6,18.8,443.7,18.8,443.8,18.8z
	 M459.9,25l-1.7,0.2c-1.7,0.2-3.4,0.4-5.1,0.6c-3.2,0.4-6.4,0.8-9.5,1.2c-0.1,0.3-0.3,1,0,1.5c0.1,0.3,0.3,0.4,0.4,0.4
	c2.6,0.2,5.4,0.4,7.9,0.6c1.2,0.1,2.4,0.1,3.6,0.2c1.3,0.1,2.6,0.2,3.9,0.3l1.1,0.1L459.9,25z"/>
<path class="st0" d="M627,19.2c-0.7-3.7-1.4-7.7-2.6-10.9c-2-5.3-5-5.8-9-5.9c-6.1-0.2-36.7,2.3-40.9,3.2c-3.3,0.7-5.3,3.3-6.2,7.8
	c-0.8,3.7-3.2,18.9-3.2,21.6c0,3.6,1.3,8.8,6.8,9.8c4.9,0.9,9.7,0.8,18.9,0.8c5.8,0,16.6,0.7,23.5,0.8c4.6,0.2,8,0.3,9.2,0.2
	c4.1-0.4,6-3.2,6.1-6.9C629.9,35.3,627.6,22.7,627,19.2z"/>
<path class="st4" d="M625.8,18.8c-0.7-3.7-1.4-7.7-2.6-10.9c-2-5.3-5-5.8-9-5.9c-6.1-0.2-36.7,2.3-40.9,3.2
	c-3.3,0.7-5.3,3.3-6.2,7.8c-0.8,3.7-3.2,18.9-3.2,21.6c0,3.6,1.3,8.8,6.8,9.8c4.9,0.9,9.7,0.8,18.9,0.8c5.8,0,16.6,0.7,23.5,0.8
	c4.6,0.2,8,0.3,9.2,0.2c4.1-0.4,6-3.2,6.1-6.9C628.7,34.8,626.4,22.3,625.8,18.8z"/>
<path class="st2" d="M580,6.1c0,0-8.3-0.7-9.1,6.8C570.8,12.9,573.2,6.1,580,6.1z"/>
<path class="st2" d="M618,45.2c0,0,8.3,1.1,9.5-6.4C627.5,38.9,624.8,45.5,618,45.2z"/>
<path class="st2" d="M606.8,37.9c-0.2,0-0.5,0-0.8-0.2c-1.5-0.5-1.2-2.3-1.1-3.2c0-0.2,0-0.2,0-0.3c0.3-1.5,0.6-3.1,0.9-4.6
	c0-0.2,0-0.3,0-0.5c-0.2,0-0.3,0-0.6,0c-3.1,0.3-6,0.8-8.9,1.2c-4.3,0.6-8.4,1.1-12.7,1.5c-1.1,0.2-1.8,0.2-2.4,0.2
	c-2.6,0-2.8-1.8-3.1-4.6v-0.2c-0.2-1.8-0.5-3.7-0.8-5.4c-0.2-0.8-0.3-1.7-0.3-2.4v-0.2V19c0-0.3-0.2-0.9,0.2-1.4
	c0.5-0.9,1.8-0.9,2.6-0.9c0,0,0.2,0,0.3,0c3.5,0.2,7,0.5,10.4,0.6c1.7,0.2,3.2,0.2,4.9,0.3c2.6,0.2,5.1,0.3,7.7,0.5l1.8,0.2l0,0
	c-0.6-1.7-1.2-3.2-1.7-4.7c-0.5-1.2-0.3-2,0.3-2.6c0.2-0.2,0.6-0.3,1.1-0.3c0.6,0,1.1,0.3,1.5,0.6h0.2c0.5,0.2,0.8,0.6,1.1,0.8
	c0,0,0.2,0.2,0.3,0.3l10.1,8.3l0.2,0.2c2.4,2,2.8,2.6,2.8,3.4c0,0.6-0.3,1.4-2,3.1l-10.9,10.4c-0.2,0.2-0.3,0.3-0.6,0.3
	C607.1,37.7,607,37.9,606.8,37.9z M582.2,28.3l2.6-0.3c2.6-0.3,5.2-0.6,7.8-0.9c4.9-0.6,9.8-1.2,14.5-1.8c0.2-0.5,0.5-1.5,0-2.3
	c-0.2-0.5-0.5-0.6-0.6-0.6c-4-0.3-8.3-0.6-12.1-0.9c-1.8-0.2-3.7-0.2-5.5-0.3c-2-0.2-4-0.3-6-0.5l-1.7-0.2L582.2,28.3z"/>
<g>
	<path class="st2" d="M235.2,15.5c0.8-0.7,1.5-1.3,2.3-1.9c1.1-0.8,2.4-1.4,3.7-1.8c3.7-1.1,7.2-0.8,10.5,1.1c1,0.6,2,1.3,2.8,2.2
		c1.8,2,2.8,4.2,3.1,6.8c0.4,3.6-0.5,6.9-2.9,9.6c-2.1,2.5-4.7,4-7.9,4.4c-3.7,0.5-7.1-0.5-10.1-2.8c-0.8-0.6-1.5-1.2-2.1-2
		c-0.3-0.4-0.3-0.7,0.1-1c0.4-0.4,0.9-0.8,1.4-1.2c0.4-0.3,0.7-0.6,1.1-0.9c0.4-0.4,0.8-0.3,1.1,0.1c0.8,0.9,1.8,1.8,2.9,2.5
		c2.7,1.5,5.3,1.4,7.9-0.1c3.2-1.9,4.3-5.3,3.7-8.5c-0.3-1.6-1-3-2.2-4.1c-0.9-0.9-2.1-1.5-3.4-1.8c-2.4-0.5-4.6,0-6.6,1.4
		c-0.6,0.4-1.2,0.9-1.7,1.4c-0.7,0.6-1.4,1.2-2.1,1.8c-0.2,0.2-0.2,0.3,0,0.4c0.4,0.5,0.9,1,1.3,1.5c0.4,0.5,0.2,1-0.4,1.1
		c-1.7,0.3-3.4,0.6-5.1,0.8c-1.2,0.2-2.3,0.4-3.5,0.6c-0.3,0-0.5,0.1-0.8-0.1s-0.3-0.5-0.2-0.8c0.6-1.7,1.2-3.5,1.7-5.2
		c0.4-1,0.7-2.1,1-3.1c0.1-0.3,0.2-0.5,0.5-0.6s0.5,0.1,0.7,0.4c0.4,0.4,0.8,0.9,1.1,1.3c0.1,0.2,0.2,0.1,0.4,0
		C234,16.5,234.6,16,235.2,15.5z"/>
</g>
<g>
	<g>
		<path class="st0" d="M557.4,19.2c-0.7-3.7-1.4-7.7-2.6-11c-2-5.3-5-5.8-9-5.9c-6.1-0.2-36.7,2.3-40.9,3.2
			c-3.3,0.7-5.3,3.3-6.2,7.8c-0.8,3.7-3.2,18.9-3.2,21.6c0,3.6,1.3,8.8,6.8,9.8c4.9,0.9,9.7,0.8,18.9,0.8c5.8,0,16.6,0.7,23.5,0.8
			c4.6,0.2,8,0.3,9.2,0.2c4.1-0.4,6-3.2,6.1-6.9C560.3,35.3,558.1,22.7,557.4,19.2z"/>
		<path class="st6" d="M556.2,18.3c-0.7-3.7-1.4-7.7-2.6-11c-2-5.3-5-5.8-9-5.9c-6.1-0.2-36.7,2.3-40.9,3.2
			c-3.3,0.7-5.3,3.3-6.2,7.8c-0.8,3.7-3.2,18.9-3.2,21.6c0,3.6,1.3,8.8,6.8,9.8c4.9,0.9,9.7,0.8,18.9,0.8c5.8,0,16.6,0.7,23.5,0.8
			c4.6,0.2,8,0.3,9.2,0.2c4.1-0.4,6-3.2,6.1-6.9C559.1,34.4,556.9,21.8,556.2,18.3z"/>
		<path class="st2" d="M509.1,5.6c0,0-8.3-0.7-9.1,6.8C499.9,12.4,502.3,5.7,509.1,5.6z"/>
		<path class="st2" d="M548.4,44.8c0,0,8.3,1.1,9.5-6.4C557.9,38.4,555.2,45,548.4,44.8z"/>
	</g>
	<g>
		<path class="st2" d="M527.9,40.2c-0.8,0-1.5,0-2.3-0.2c-4-0.6-7.2-2.4-9.8-5.3c-2.8-3.3-4-7-3.5-11.3c0.4-3.7,2-7,4.9-9.5
			c2.2-2.1,5-3.3,8-3.9c0.4,0,0.8-0.1,1.2-0.2c0.2,0,0.5-0.1,0.5-0.1h2l0,0c0.1,0,0.2,0,0.3,0s0.1,0,0.2,0c3.8,0.4,7.1,2,9.8,4.7
			c2.1,2.2,3.5,4.8,4,7.8c0.1,0.4,0.1,0.8,0.2,1.1c0,0.2,0,0.4,0.1,0.5l0,0v2c0,0,0,0.3,0,0.4c0,0.3-0.1,0.6-0.1,0.9
			c-0.5,3.3-2,6.1-4.4,8.4c-1.3,1.3-2.9,2.3-4.6,3.1C532.2,39.8,530.1,40.2,527.9,40.2L527.9,40.2z M527.9,12.2
			c-7.3,0-13.3,5.8-13.3,12.8c0,3.4,1.4,6.6,3.9,9.1s5.8,3.8,9.3,3.8c7.3,0,13.3-5.8,13.3-12.8C541.1,18,535.1,12.2,527.9,12.2v-0.3
			V12.2z"/>
		<path class="st2" d="M529.8,23.2c0-0.8-0.5-1.6-1.3-1.8c-1.2-0.4-2.5,0.4-2.5,1.8c0,1.6,0,3.1,0,4.7s0,3.1,0,4.7
			c0,0.8,0.5,1.6,1.3,1.8c1.2,0.4,2.5-0.5,2.5-1.8s0-2.7,0-4.1C529.8,26.7,529.8,24.9,529.8,23.2z"/>
		<path class="st2" d="M527.8,19.5c1.1,0,1.9-0.8,1.9-1.9c0-1-0.8-1.9-1.9-1.9c-1.1,0-2,0.8-2,1.8C525.9,18.6,526.8,19.4,527.8,19.5
			z"/>
	</g>
</g>
<g>
	<path class="st0" d="M63.1,73.3c-0.7-3.7-1.4-7.7-2.6-10.9c-2-5.3-5-5.8-9-5.9c-6.1-0.2-36.7,2.3-40.9,3.2
		c-3.3,0.7-5.2,3.3-6.1,7.8c-0.7,3.7-3.1,18.9-3.2,21.6c0,3.6,1.3,8.8,6.8,9.8c4.9,0.9,9.7,0.8,18.9,0.8c5.8,0,16.6,0.7,23.5,0.8
		c4.6,0.2,8,0.3,9.2,0.2c4.1-0.4,6-3.2,6.1-6.9C66,89.4,63.8,76.8,63.1,73.3z"/>
	<path class="st1" d="M61.9,72.9c-0.7-3.7-1.4-7.7-2.6-10.9c-2-5.3-5-5.8-9-5.9c-6.1-0.2-36.7,2.3-40.9,3.2
		c-3.3,0.7-5.3,3.3-6.2,7.8C2.4,70.8,0,86,0,88.7c0,3.6,1.3,8.8,6.8,9.8c4.9,0.9,9.7,0.8,18.9,0.8c5.8,0,16.6,0.7,23.5,0.8
		c4.6,0.2,8,0.3,9.2,0.2c4.1-0.4,6-3.2,6.1-6.9C64.8,88.9,62.6,76.3,61.9,72.9z"/>
	<path class="st2" d="M14.8,60.1c0,0-8.3-0.7-9.1,6.8C5.6,67,8,60.3,14.8,60.1z"/>
	<path class="st2" d="M54.1,99.3c0,0,8.3,1.1,9.5-6.4C63.6,92.9,60.9,99.6,54.1,99.3z"/>
</g>
<g>
	<path class="st0" d="M73.9,84.8c0.7,3.7,1.4,7.7,2.6,11c2,5.3,5,5.8,9,5.9c6.1,0.2,36.7-2.3,40.9-3.2c3.3-0.7,5.3-3.3,6.2-7.8
		c0.8-3.7,3.2-18.9,3.2-21.6c0-3.6-1.3-8.8-6.8-9.8c-4.9-0.9-9.7-0.8-18.9-0.8c-5.8,0-16.6-0.7-23.5-0.8c-4.6-0.2-8-0.3-9.2-0.2
		c-4.1,0.4-6,3.2-6.1,6.9C71,68.7,73.3,81.3,73.9,84.8z"/>
	<path class="st4" d="M72.9,83.9c0.7,3.7,1.4,7.7,2.6,11c2,5.3,5,5.8,9,5.9c6.1,0.2,36.7-2.3,40.9-3.2c3.3-0.7,5.3-3.3,6.2-7.8
		c0.8-3.7,3.2-18.9,3.2-21.6c0-3.6-1.3-8.8-6.8-9.8c-4.9-0.9-9.7-0.8-18.9-0.8c-5.8,0-16.6-0.7-23.5-0.8c-4.6-0.2-8-0.3-9.2-0.2
		c-4.1,0.4-6,3.2-6.1,6.9C70,67.8,72.3,80.4,72.9,83.9z"/>
	<path class="st2" d="M120.1,96.6c0,0,8.3,0.7,9.1-6.8C129.2,89.7,126.8,96.5,120.1,96.6z"/>
	<path class="st2" d="M80.7,57.4c0,0-8.3-1.1-9.5,6.4C71.2,63.8,73.9,57.2,80.7,57.4z"/>
</g>
<g class="st9">
	<path class="st2" d="M118,66.2c-0.3-1.3-1.5-2.4-2.9-2.6c-0.1,0-0.5-0.1-0.8-0.1c-0.2,0-1.3,0.2-2,0.3c-2.2,0.3-4.4,0.6-6.6,0.9
		c-2.1,0.3-4.3,0.6-6.5,0.9c-1.1,0.1-2.3,0.3-3.4,0.5c-1.4,0.2-2.5,1.7-2.5,3.3c0,2.4,0,13.3,0,16.5c0,0.1,0,0.2,0,0.3
		c-3-0.3-5.3,1-7.1,3.3c-0.6,0.8-1,1.8-1.1,2.8c0,2.1,1.2,3.7,3.3,4.1c0.4,0.1,1.3,0.1,1.8,0s1-0.2,1.6-0.4c2.1-0.8,3.8-2.3,4.6-4.5
		c0.2-0.5,0.3-1.1,0.3-1.7c0-4.5,0-13.8,0-14c6-0.8,12-1.6,18-2.4c0,3.7,0,7.4,0,11c-2.2-0.2-4.1,0.5-5.8,2c-1.2,1-2.1,2.3-2.4,3.9
		c-0.4,2.2,1.1,4.2,3.3,4.5c2.7,0.3,4.8-0.8,6.5-2.7c0.9-1,1.5-2.2,1.6-3.6c0,0,0-0.1,0-0.2s0-18.3,0-19.9c0-0.5,0-1,0-1.6
		C118,66.6,118,66.4,118,66.2z M94.9,90.9c-0.6,1.6-1.8,2.8-3.7,3.6c-0.4,0.1-0.8,0.3-1.3,0.4c0,0-0.1,0-0.3,0c-0.3,0-0.7,0-0.9-0.1
		c-1.2-0.2-2-1.2-1.9-2.4c0-0.7,0.3-1.4,0.8-2c1.4-1.9,3-2.8,5-2.8c0.2,0,0.4,0,0.7,0h0.1c0.5,0,0.7,0,1-0.4
		c0.6-0.6,0.7,2.5,0.7,2.5C95.1,90.2,95,90.6,94.9,90.9z M116.5,87.9c0,0.1,0,0.2,0,0.4c0,0.9-0.4,1.8-1.2,2.6
		c-1.4,1.5-2.9,2.3-4.6,2.3c-0.2,0-0.4,0-0.6,0c-0.6,0-1.2-0.4-1.5-0.8c-0.4-0.5-0.5-1.1-0.4-1.8c0.2-1.1,0.8-2.1,1.8-2.9
		c1.3-1.1,2.6-1.6,4-1.6c0.2,0,0.4,0,0.6,0c0,0,0.1,0,0.2,0c0.4,0,0.7-0.3,1.1-0.4C116.6,85.2,116.5,87.9,116.5,87.9z"/>
</g>
<g class="st9">
	<path class="st2" d="M32.7,66.6c-0.1-0.4-0.5-0.7-1-0.4c-0.3,0.1-0.5,0.3-0.8,0.5c-3.3,2.7-6.6,5.5-9.9,8.2
		c-0.1,0.1-0.4,0.2-0.5,0.2c-1.5,0-3,0-4.5,0c-0.2,0-0.4,0-0.5,0c-0.7,0.2-1,0.6-1.2,1.2c0,2.4,0,4.8,0,7.2c0.3,0.9,1,1.3,2,1.3
		c1.4,0,2.8,0,4.1,0c0.2,0,0.4,0.1,0.6,0.2c3.3,2.8,6.6,5.5,10,8.3c0.2,0.2,0.4,0.3,0.7,0.4c0.4,0.2,0.8,0,1-0.4
		c0.1-0.2,0.1-0.5,0.1-0.7c0-8.4,0-16.9,0-25.3C32.8,67,32.7,66.8,32.7,66.6z M30.2,89.2c-0.5-0.4-1-0.8-1.6-1.3
		c-1.9-1.6-3.9-3.3-5.9-4.9c-0.3-0.3-0.7-0.5-1.1-0.6c-0.7-0.2-0.8-4.8,0-5c0.4-0.1,0.8-0.3,1.1-0.6c1.9-1.6,3.7-3.1,5.6-4.6
		c0.6-0.5,1.3-1.1,1.9-1.6C30.2,77,30.2,83.2,30.2,89.2z"/>
	<path class="st2" d="M48.8,77.5c-0.4-2.8-1.3-5.4-2.8-7.7c-1.1-1.7-2.3-3.1-3.9-4.3c-0.6-0.5-1.5-0.3-1.9,0.3
		c-0.4,0.6-0.3,1.4,0.3,1.9c1.9,1.5,3.3,3.4,4.3,5.6c1.6,3.6,1.9,7.3,1,11.2c-0.8,3.2-2.5,5.8-5.3,7.7c-0.6,0.4-0.8,1.2-0.4,1.8
		c0.4,0.6,1.2,0.8,1.8,0.5c0.3-0.1,0.5-0.3,0.8-0.5c3.6-2.7,5.5-6.3,6.2-10.7c0.1-0.6,0.1-1.1,0.2-1.7c0-0.8,0-1.7,0-2.6
		C49,78.5,48.9,78,48.8,77.5z"/>
	<path class="st2" d="M41,74c-0.8-1.2-1.7-2.3-2.9-3.2c-0.7-0.5-1.5-0.4-2,0.3c-0.4,0.6-0.3,1.4,0.4,1.9c0.2,0.1,0.4,0.3,0.5,0.4
		c2.4,2.3,3.3,5.2,2.7,8.4c-0.4,2.1-1.4,3.7-3.3,4.9c-0.6,0.4-0.8,1.2-0.4,1.8c0.4,0.6,1.2,0.8,1.8,0.5c0.4-0.2,0.7-0.4,1-0.7
		c2.6-2.1,3.7-5,3.7-7.2C42.7,78,42.1,75.9,41,74z"/>
</g>
</svg>
