<?xml version="1.0" encoding="utf-8"?>
<!-- Generator: Adobe Illustrator 21.0.0, SVG Export Plug-In . SVG Version: 6.00 Build 0)  -->
<svg version="1.1" id="Layer_1" xmlns="http://www.w3.org/2000/svg" xmlns:xlink="http://www.w3.org/1999/xlink" x="0px" y="0px"
	 viewBox="0 0 573.3 138.4" style="enable-background:new 0 0 573.3 138.4;" xml:space="preserve">
<style type="text/css">
	.st0{fill:#A7A8AC;}
	.st1{fill:#B8D432;}
	.st2{fill:#FFFFFF;}
</style>
<path class="st0" d="M557.7,128.2c-21.5,14.1-517,13.3-539.4,0C-4.1,114.8-4.6,37.4,9.5,17.4C23.6-2.6,531,2.1,557.1,16.3
	C577.9,27.5,579.1,114.1,557.7,128.2z"/>
<path class="st1" d="M557.7,124.2c-21.5,14.1-517,13.3-539.4,0C-4.1,110.8-4.6,33.4,9.5,13.4C23.6-6.6,531-1.9,557.1,12.3
	C577.9,23.5,579.1,110.1,557.7,124.2z"/>
<path class="st2" d="M29.4,17.5c0,0-18.7-1.5-20.5,15.3C8.9,32.8,14.3,17.7,29.4,17.5z"/>
<path class="st2" d="M538.6,122.5c0,0,18.7,1.5,20.5-15.3C559.1,107.2,553.7,122.3,538.6,122.5z"/>
<g id="y6e4m0.tif_1_">
	<g>
		<path class="st2" d="M119.4,48.4C97.7,64,91.5,78.8,77.5,93.9c-2.7,2.9-4.3,3.3-6.6-0.5c-5-8.2-10.5-16.2-15.7-24.3
			c-1.1-1.6-2.6-3.5-0.9-5.4c1.7-2,3.7-0.6,5.4,0.3c3.7,1.9,12.8,15.6,15.1,15.7c3.6,0.1,30.4-33.3,43.1-33.3
			C119.9,46.3,119.3,47.4,119.4,48.4z"/>
	</g>
</g>
<g>
	<path class="st2" d="M157.5,87.4l-3.6,0.1c-0.6,0-1.4,0-2.3-0.1c-1-0.1-1.6-0.5-1.9-1.2c-0.4-4.1-0.5-8.5-0.5-13.2l0.6-28
		c0-0.5,0.3-1,0.9-1.3c0.6-0.3,1.3-0.5,2.2-0.5c0.9,0,1.6,0.2,2.3,0.6c0.6,0.4,1,1,1,1.8c-0.1,1.4-0.5,5.2-1.1,11.3
		c-0.6,6.1-0.9,11.1-0.9,15c0,3.9,0.2,7.4,0.5,10.6c0.1,0,0.6,0,1.3,0c0.7,0,2.6-0.2,5.6-0.5s4.9-0.5,5.8-0.5c2.1,0,3.1,0.8,3.1,2.3
		c0,1.3-0.6,2.2-1.8,2.7c-1.3,0.5-2.6,0.8-3.8,0.9c-1.3,0-2.3,0.1-3,0.1L157.5,87.4z"/>
	<path class="st2" d="M193,58.5c2.2,1.3,3.3,3,3.3,5c0,2-1,4-3.1,6c-2.1,2-4.5,3.2-7.4,3.6c-0.3,0-0.5,0.1-0.6,0.1
		c-0.2,0-0.4,0-0.6,0.1s-0.5,0-0.6,0c-0.2,0-0.4,0-0.7,0c-0.3,0-0.5,0-0.6,0c-0.1,0-0.4,0-0.7,0c-0.4,0-0.6,0-0.7,0
		c0.5,3.5,1.2,5.8,2,6.9c1.3,1,2.4,1.5,3.3,1.7c2.2,0,4.3-0.9,6.2-2.8c1.9-1.9,3.3-2.8,4.2-2.8c0.3,0,0.8,0.3,1.6,1
		c0.7,0.6,1.1,1.3,1.1,1.9c0,0.6-0.4,1.4-1.2,2.3c-0.8,0.9-1.8,1.8-3,2.8c-1.2,1-2.7,1.8-4.5,2.5c-1.8,0.7-3.4,1.1-4.9,1.1
		c-1.5,0-2.9-0.4-4-1.1c-2.1-1.3-3.6-3.5-4.7-6.6s-1.6-6.3-1.6-9.7c0-3.4,0.8-6.5,2.3-9.3c1.7-3.1,4.5-4.6,8.6-4.6
		C188.6,56.4,190.8,57.1,193,58.5z M190.4,63.9c0-1.9-1.3-2.8-3.8-2.8c-1.7,0-3.1,1-4.4,2.9c-0.4,0.6-0.7,1.3-0.8,2.1
		c-0.2,0.8-0.3,1.6-0.4,2.5C187.3,68.5,190.4,67,190.4,63.9z"/>
	<path class="st2" d="M225.2,62.3l-0.1,4.7c0,1.8-0.2,4-0.5,6.8c0.2,4.8,0.7,9,1.5,12.8c-0.1,0.5-0.5,0.9-1.1,1.2
		c-0.6,0.3-1.2,0.4-1.9,0.4c-0.7,0-1.2-0.1-1.6-0.3c-0.4-0.2-0.7-0.5-0.8-0.8c-0.2-0.4-0.3-0.7-0.3-1c-0.1-0.3-0.1-0.6-0.1-1.1
		s0-0.7-0.1-0.8c-2.1,2.2-4.8,3.3-8.2,3.3s-5.8-1.3-7.2-3.8c-1.5-2.6-2.2-6.2-2.2-10.8c0-8,2.3-13.2,6.9-15.4c1.4-0.7,3.1-1,4.9-1
		c1.8,0,3.6,0.3,5.4,0.9c0.6-0.8,1.4-1.2,2.4-1.2c1.9,0,2.8,1.4,2.9,4.3C225.2,61.2,225.2,61.8,225.2,62.3z M218.6,78.3
		c0.8-2.5,1.3-5.1,1.3-7.9c0-2.8-0.3-4.9-1-6.2c-0.7-1.3-1.9-2-3.5-2c-0.7,0-1.6,0.1-2.8,0.2c-1.1,0.1-2.2,1.1-3.2,3
		c-1,1.9-1.5,3.5-1.5,4.8v2.7c0,4.7,1,7.7,2.9,9c0.6,0.4,1.3,0.6,2.3,0.6s2-0.4,3.1-1.2C217.3,80.4,218.1,79.5,218.6,78.3z"/>
	<path class="st2" d="M255.7,57.8l-0.1,0.7c-2.1,5.4-3.8,10.1-4.8,14.1c-1.1,4-2.2,8.2-3.4,12.7c-0.3,0.6-0.7,1.2-1.3,1.6
		c-0.6,0.4-1.3,0.7-2,0.7c-0.8,0-1.3-0.5-1.6-1.5c-1.4-4.5-3.4-9.4-6.1-14.7c-2.6-5.3-4.2-8.5-4.7-9.7c-0.5-1.2-0.8-2.1-0.8-2.7
		c0-0.6,0.3-1.3,0.9-1.9c0.6-0.6,1.3-1,2-1c0.8,0,1.4,0.4,1.9,1.2c0.6,1.3,2,4,4.2,8.3c2.2,4.3,3.8,7.8,4.8,10.5
		c0.2-0.8,0.6-2.1,1.1-3.8c1.8-6.2,3.4-11.1,5-14.8c0.8-1.2,1.7-1.8,2.9-1.8c0.7,0,1.2,0.2,1.5,0.7S255.7,57.4,255.7,57.8z"/>
	<path class="st2" d="M277.3,58.5c2.2,1.3,3.3,3,3.3,5c0,2-1,4-3.1,6c-2.1,2-4.5,3.2-7.4,3.6c-0.3,0-0.5,0.1-0.6,0.1
		c-0.2,0-0.4,0-0.6,0.1s-0.5,0-0.6,0c-0.2,0-0.4,0-0.7,0c-0.3,0-0.5,0-0.6,0c-0.1,0-0.4,0-0.7,0c-0.4,0-0.6,0-0.7,0
		c0.5,3.5,1.2,5.8,2,6.9c1.3,1,2.4,1.5,3.3,1.7c2.2,0,4.3-0.9,6.2-2.8c1.9-1.9,3.3-2.8,4.2-2.8c0.3,0,0.8,0.3,1.6,1
		c0.7,0.6,1.1,1.3,1.1,1.9c0,0.6-0.4,1.4-1.2,2.3c-0.8,0.9-1.8,1.8-3,2.8c-1.2,1-2.7,1.8-4.5,2.5c-1.8,0.7-3.4,1.1-4.9,1.1
		c-1.5,0-2.9-0.4-4-1.1c-2.1-1.3-3.6-3.5-4.7-6.6s-1.6-6.3-1.6-9.7c0-3.4,0.8-6.5,2.3-9.3c1.7-3.1,4.5-4.6,8.6-4.6
		C272.8,56.4,275,57.1,277.3,58.5z M274.7,63.9c0-1.9-1.3-2.8-3.8-2.8c-1.7,0-3.1,1-4.4,2.9c-0.4,0.6-0.7,1.3-0.8,2.1
		c-0.2,0.8-0.3,1.6-0.4,2.5C271.5,68.5,274.7,67,274.7,63.9z"/>
	<path class="st2" d="M324.7,62.3l-0.1,4.7c0,1.8-0.2,4-0.5,6.8c0.2,4.8,0.7,9,1.5,12.8c-0.1,0.5-0.5,0.9-1.1,1.2
		c-0.6,0.3-1.2,0.4-1.9,0.4c-0.7,0-1.2-0.1-1.6-0.3c-0.4-0.2-0.7-0.5-0.8-0.8c-0.2-0.4-0.3-0.7-0.3-1c-0.1-0.3-0.1-0.6-0.1-1.1
		s0-0.7-0.1-0.8c-2.1,2.2-4.8,3.3-8.2,3.3s-5.8-1.3-7.2-3.8c-1.5-2.6-2.2-6.2-2.2-10.8c0-8,2.3-13.2,6.9-15.4c1.4-0.7,3.1-1,4.9-1
		c1.8,0,3.6,0.3,5.4,0.9c0.6-0.8,1.4-1.2,2.4-1.2c1.9,0,2.8,1.4,2.9,4.3C324.7,61.2,324.7,61.8,324.7,62.3z M318.1,78.3
		c0.8-2.5,1.3-5.1,1.3-7.9c0-2.8-0.3-4.9-1-6.2c-0.7-1.3-1.9-2-3.5-2c-0.7,0-1.6,0.1-2.8,0.2c-1.1,0.1-2.2,1.1-3.2,3
		c-1,1.9-1.5,3.5-1.5,4.8v2.7c0,4.7,1,7.7,2.9,9c0.6,0.4,1.3,0.6,2.3,0.6s2-0.4,3.1-1.2C316.8,80.4,317.6,79.5,318.1,78.3z"/>
	<path class="st2" d="M350,79.1l0.1-2c0-2.8-0.2-5.8-0.6-9c-0.4-3.3-0.9-5.7-1.4-7.3c-0.5-1.6-0.7-2.6-0.7-3c0-0.4,0.3-0.9,0.9-1.3
		c0.6-0.4,1.2-0.7,2-0.7c0.8,0,1.4,0.3,1.8,0.9c0.4,0.6,0.7,1.2,0.8,1.8c0.1,0.6,0.2,1.4,0.3,2.4c0.1,1,0.2,1.7,0.2,2
		c1.2-2.8,3.1-4.7,5.8-5.8c1.4-0.6,2.9-0.9,4.6-0.9c3.7,0,5.5,0.9,5.5,2.8c0,1.2-0.6,2.1-1.8,2.7c-0.5,0.2-1,0.4-1.4,0.4l-1.9-0.2
		c-5.6,0-8.4,5.6-8.4,16.7l0.1,6.1l-0.1,0.1c-0.2,0.8-0.6,1.5-1.2,2.1c-0.6,0.6-1.3,0.9-2,0.9c-1,0-1.6-0.8-1.9-2.4
		C350.2,83.8,350,81.7,350,79.1z"/>
	<path class="st2" d="M391,58.5c2.2,1.3,3.3,3,3.3,5c0,2-1,4-3.1,6c-2.1,2-4.5,3.2-7.4,3.6c-0.3,0-0.5,0.1-0.6,0.1
		c-0.2,0-0.4,0-0.6,0.1s-0.5,0-0.6,0c-0.2,0-0.4,0-0.7,0c-0.3,0-0.5,0-0.6,0c-0.1,0-0.4,0-0.7,0c-0.4,0-0.6,0-0.7,0
		c0.5,3.5,1.2,5.8,2,6.9c1.3,1,2.4,1.5,3.3,1.7c2.2,0,4.3-0.9,6.2-2.8c1.9-1.9,3.3-2.8,4.2-2.8c0.3,0,0.8,0.3,1.6,1
		c0.7,0.6,1.1,1.3,1.1,1.9c0,0.6-0.4,1.4-1.2,2.3c-0.8,0.9-1.8,1.8-3,2.8c-1.2,1-2.7,1.8-4.5,2.5c-1.8,0.7-3.4,1.1-4.9,1.1
		c-1.5,0-2.9-0.4-4-1.1c-2.1-1.3-3.6-3.5-4.7-6.6s-1.6-6.3-1.6-9.7c0-3.4,0.8-6.5,2.3-9.3c1.7-3.1,4.5-4.6,8.6-4.6
		C386.6,56.4,388.8,57.1,391,58.5z M388.5,63.9c0-1.9-1.3-2.8-3.8-2.8c-1.7,0-3.1,1-4.4,2.9c-0.4,0.6-0.7,1.3-0.8,2.1
		c-0.2,0.8-0.3,1.6-0.4,2.5C385.3,68.5,388.5,67,388.5,63.9z"/>
	<path class="st2" d="M423,57.8l-0.1,0.7c-2.1,5.4-3.8,10.1-4.8,14.1c-1.1,4-2.2,8.2-3.4,12.7c-0.3,0.6-0.7,1.2-1.3,1.6
		c-0.6,0.4-1.3,0.7-2,0.7c-0.8,0-1.3-0.5-1.6-1.5c-1.4-4.5-3.4-9.4-6.1-14.7c-2.6-5.3-4.2-8.5-4.7-9.7c-0.5-1.2-0.8-2.1-0.8-2.7
		c0-0.6,0.3-1.3,0.9-1.9c0.6-0.6,1.3-1,2-1c0.8,0,1.4,0.4,1.9,1.2c0.6,1.3,2,4,4.2,8.3c2.2,4.3,3.8,7.8,4.8,10.5
		c0.2-0.8,0.6-2.1,1.1-3.8c1.8-6.2,3.4-11.1,5-14.8c0.8-1.2,1.7-1.8,2.9-1.8c0.7,0,1.2,0.2,1.5,0.7S423,57.4,423,57.8z"/>
	<path class="st2" d="M429.3,43.8c0.6-0.5,1.1-0.8,1.5-0.9c0.4-0.1,0.6-0.1,0.7-0.1c2.1,0.4,3.2,1,3.5,2c0.2,0.5,0.3,1.2,0.3,2.1
		c0,0.9-0.4,1.9-1.1,2.9c-0.8,1-1.6,1.5-2.5,1.5s-1.7-0.4-2.4-1.3s-1-2-1-3.4C428.3,45.2,428.6,44.3,429.3,43.8z M434.7,60.9
		l-0.1,4.3l-0.1,15c0,2.1,0,3.6,0.1,4.6c-0.1,0.8-0.5,1.6-1.1,2.2c-0.6,0.6-1.3,0.9-2,0.9c-0.8,0-1.4-0.6-1.8-1.7
		c0-1.2-0.1-2.8-0.2-4.9c-0.1-2.1-0.2-4.7-0.4-7.6c-0.1-3-0.2-5.9-0.2-8.8c0-2.9,0.1-5.5,0.2-7.8c0.1-0.8,0.6-1.2,1.6-1.2
		C433.4,55.8,434.7,57.5,434.7,60.9z"/>
	<path class="st2" d="M460.7,58.5c2.2,1.3,3.3,3,3.3,5c0,2-1,4-3.1,6c-2.1,2-4.5,3.2-7.4,3.6c-0.3,0-0.5,0.1-0.6,0.1
		c-0.2,0-0.4,0-0.6,0.1s-0.5,0-0.6,0c-0.2,0-0.4,0-0.7,0c-0.3,0-0.5,0-0.6,0c-0.1,0-0.4,0-0.7,0c-0.4,0-0.6,0-0.7,0
		c0.5,3.5,1.2,5.8,2,6.9c1.3,1,2.4,1.5,3.3,1.7c2.2,0,4.3-0.9,6.2-2.8c1.9-1.9,3.3-2.8,4.2-2.8c0.3,0,0.8,0.3,1.6,1
		c0.7,0.6,1.1,1.3,1.1,1.9c0,0.6-0.4,1.4-1.2,2.3c-0.8,0.9-1.8,1.8-3,2.8c-1.2,1-2.7,1.8-4.5,2.5c-1.8,0.7-3.4,1.1-4.9,1.1
		c-1.5,0-2.9-0.4-4-1.1c-2.1-1.3-3.6-3.5-4.7-6.6s-1.6-6.3-1.6-9.7c0-3.4,0.8-6.5,2.3-9.3c1.7-3.1,4.5-4.6,8.6-4.6
		C456.2,56.4,458.5,57.1,460.7,58.5z M458.1,63.9c0-1.9-1.3-2.8-3.8-2.8c-1.7,0-3.1,1-4.4,2.9c-0.4,0.6-0.7,1.3-0.8,2.1
		c-0.2,0.8-0.3,1.6-0.4,2.5C455,68.5,458.1,67,458.1,63.9z"/>
	<path class="st2" d="M491.2,68.7l-0.4-10.2c0.2-0.6,0.6-1.2,1.2-1.7c0.6-0.5,1.1-0.7,1.7-0.7c1.3,0,1.9,2.5,1.9,7.6v3.7
		c0,6-0.9,11.4-2.7,16c-1,2.7-2.3,4-3.7,4c-0.8,0-1.7-0.6-2.4-1.7c-0.8-1.2-1.6-2.7-2.4-4.7c-0.8-1.9-1.5-3.3-2-4.1
		c-0.5,0.9-1.2,2.3-2,4c-0.9,1.7-1.4,2.7-1.6,3c-1.5,2.3-2.8,3.5-4,3.5c-0.4,0-1.3-1.2-2.5-3.6c-2.7-8-4-16.4-4-25.2
		c0.3-1,0.9-1.7,2-2.2c0.3-0.1,0.6-0.2,0.9-0.2c0.9,0,1.5,0.6,1.7,1.8c0,7,1.2,13.7,3.5,20.1c0.5-0.8,1-1.8,1.6-3
		c0.6-1.2,1.1-2.1,1.4-2.7c0.8-1.5,1.9-2.3,3.1-2.3c1.2,0,2.5,1.1,3.8,3.2c0.9,1.6,1.6,2.9,2.1,4c0.5,1.1,0.8,1.7,0.9,1.8
		C490.6,75.4,491.2,71.9,491.2,68.7z"/>
</g>
</svg>
