<?xml version="1.0" encoding="utf-8"?>
<!-- Generator: Adobe Illustrator 21.0.0, SVG Export Plug-In . SVG Version: 6.00 Build 0)  -->
<svg version="1.1" id="Layer_1" xmlns="http://www.w3.org/2000/svg" xmlns:xlink="http://www.w3.org/1999/xlink" x="0px" y="0px"
	 viewBox="0 0 343.5 146.5" style="enable-background:new 0 0 343.5 146.5;" xml:space="preserve">
<style type="text/css">
	.st0{fill:#A7A8AC;}
	.st1{fill:#F6921E;}
	.st2{fill:#FFFFFF;}
</style>
<path class="st0" d="M340,30.8c-3.6-16.6-14.4-22.2-29.7-24.6c-9.3-1.5-16.7-1.6-32.7-1.8c-59.7-0.7-212,14.1-239.9,26
	C26.9,35,18.2,38.4,11.9,50.5c-5,9.7-3.2,23,0.5,35.1c6.1,20.7,20.3,48.2,39.2,48.7c10.4,0.2,76.8-13,106.4-12.8
	c36.7,0.3,100.1,25,121.2,25c15.3,0,22.8-7,28.8-16.7c6.8-10.8,20.9-46.7,20.9-46.7S343.4,46.6,340,30.8z"/>
<path class="st1" d="M334.1,26.5c-3.6-16.6-14.4-22.2-29.7-24.6c-9.3-1.5-16.7-1.6-32.7-1.8c-59.7-0.7-212,14.1-239.9,26
	C21.1,30.6,12.4,34,6.1,46.1c-5,9.7-3.2,23,0.5,35.1c6.1,20.7,20.3,48.2,39.2,48.7c10.4,0.2,76.8-13,106.4-12.8
	c36.7,0.3,100.1,25,121.2,25c15.3,0,22.8-7,28.8-16.7c6.8-10.8,20.9-46.7,20.9-46.7S337.5,42.2,334.1,26.5z"/>
<path class="st2" d="M263.8,137.3c0,0,26.7,6.2,33.1-17.7C296.9,119.6,285.8,140.3,263.8,137.3z"/>
<g>
	<path class="st2" d="M61.6,84.9L58.1,85c-0.6,0-1.3,0-2.3-0.1c-0.9-0.1-1.6-0.5-1.8-1.2c-0.3-3.9-0.5-8.2-0.5-12.7l0.6-27
		c0-0.5,0.3-0.9,0.8-1.2c0.6-0.3,1.3-0.5,2.1-0.5s1.6,0.2,2.2,0.6c0.6,0.4,0.9,1,0.9,1.8c-0.1,1.4-0.5,5-1.1,10.9
		c-0.6,5.9-0.9,10.7-0.9,14.4c0,3.7,0.2,7.1,0.5,10.2c0.1,0,0.5,0,1.2,0c0.7,0,2.5-0.2,5.4-0.5s4.8-0.5,5.6-0.5c2,0,3,0.7,3,2.2
		c0,1.2-0.6,2.1-1.7,2.6c-1.3,0.5-2.5,0.8-3.7,0.8c-1.2,0-2.2,0.1-2.9,0.1L61.6,84.9z"/>
	<path class="st2" d="M95.8,57c2.1,1.3,3.2,2.9,3.2,4.8c0,1.9-1,3.8-3,5.8c-2,1.9-4.4,3.1-7.2,3.5c-0.3,0-0.5,0.1-0.6,0.1
		c-0.2,0-0.4,0-0.6,0.1c-0.3,0-0.5,0-0.6,0c-0.2,0-0.4,0-0.6,0c-0.3,0-0.5,0-0.6,0c-0.1,0-0.4,0-0.7,0c-0.3,0-0.6,0-0.7,0
		c0.5,3.4,1.1,5.6,1.9,6.7c1.2,0.9,2.3,1.5,3.2,1.6c2.2,0,4.1-0.9,6-2.7c1.8-1.8,3.2-2.7,4-2.7c0.3,0,0.8,0.3,1.5,0.9
		c0.7,0.6,1.1,1.2,1.1,1.8c0,0.6-0.4,1.3-1.2,2.2c-0.8,0.9-1.7,1.8-2.9,2.7s-2.6,1.7-4.3,2.4c-1.7,0.7-3.3,1-4.8,1
		c-1.5,0-2.8-0.3-3.9-1c-2-1.2-3.5-3.4-4.6-6.3c-1.1-3-1.6-6.1-1.6-9.4c0-3.3,0.7-6.3,2.2-9c1.6-3,4.4-4.5,8.3-4.5
		C91.5,55.1,93.7,55.7,95.8,57z M93.3,62.2c0-1.8-1.2-2.7-3.6-2.7c-1.6,0-3,0.9-4.2,2.8c-0.4,0.6-0.7,1.2-0.8,2
		c-0.2,0.8-0.3,1.6-0.4,2.4C90.3,66.7,93.3,65.2,93.3,62.2z"/>
	<path class="st2" d="M115.1,40.8l-0.3,7.8c0,0.5,0.1,2.6,0.3,6.1c2.6,0,5.1-0.1,7.6-0.3c1.3,0.3,1.9,1.1,1.9,2.3
		c0,1.2-0.4,2.1-1.3,2.6c-0.9,0.5-1.7,0.8-2.6,0.8c-0.9,0-1.5,0.1-2,0.1c-0.5,0-1.1,0-1.8,0c-0.7,0-1.3,0-1.6,0
		c0,0.4,0.1,1.6,0.2,3.6c0.1,2,0.2,3.3,0.2,3.9c0.3,5.9,0.8,10.6,1.5,14.3c-0.2,0.8-0.6,1.5-1.2,2.2c-0.6,0.6-1.3,0.9-2.1,0.9
		c-0.8,0-1.3-0.5-1.7-1.6c-0.6-3.8-1.1-8.4-1.3-13.7c-0.2-5.3-0.4-8.5-0.4-9.6c-0.6,0-1.7,0.1-3.2,0.1c-1.5,0-2.7-0.1-3.6-0.4
		c-1-0.2-1.6-0.8-1.6-1.9c0-2.2,1.2-3.2,3.7-3.2l3.1,0.1c0.5,0,0.9,0,1.2-0.1c-0.2-4.4-0.3-6.6-0.3-6.7c0-0.3,0-1,0.1-2
		c0-1,0.1-2.6,0.2-4.6c0.2-0.7,0.6-1.4,1.2-1.9s1.3-0.8,1.9-0.8C114.2,38.9,114.8,39.5,115.1,40.8z"/>
	<path class="st2" d="M128.9,37.9c0.1-0.6,0.4-1.2,0.8-1.5c0.4-0.4,0.9-0.5,1.4-0.5c1,0,1.7,0.6,2.3,1.9c0,1.9-0.2,3.8-0.7,5.6
		c-0.9,3.3-2.2,5-3.9,5c-1.4,0-2.1-0.7-2.1-2.2c0-0.4,0.1-0.9,0.3-1.4c0.8-0.9,1.4-1.8,1.6-2.9C128.8,40.7,128.9,39.5,128.9,37.9z"
		/>
	<path class="st2" d="M151.2,54.7c1.6,0,3.2,0.3,4.8,0.8c3.1,1,4.7,2.3,4.7,3.9c0,0.7-0.3,1.3-0.9,1.7c-0.6,0.4-1.3,0.6-2.2,0.6
		c-0.2,0-1.1-0.4-2.9-1.2c-1.7-0.8-3.1-1.2-4.2-1.2c-1.1,0-2,0.3-2.9,0.9c-0.9,0.6-1.4,1.4-1.4,2.4s0.3,1.8,0.8,2.5
		c0.5,0.7,1.2,1.2,2.1,1.5c0.9,0.3,1.8,0.6,2.8,0.8c2.8,0.6,4.8,1.1,5.9,1.6c1.9,0.9,2.9,2.7,2.9,5.4c0,2.7-1,5.1-3.1,7.1
		c-2,2-4.2,3.1-6.5,3.1c-2.3,0-4.2-0.3-5.7-0.8c-2.7-1-4-2.3-4-3.9c0-1.5,0.9-2.3,2.7-2.3c0.9,0,2.1,0.4,3.6,1.1
		c1.6,0.8,2.8,1.1,3.9,1.1s2-0.6,2.8-1.9c0.9-1.3,1.3-2.5,1.3-3.7c0-0.3,0-0.6-0.1-1c-1.2-1.1-3.4-2-6.9-2.5c-1.2-0.2-2.4-0.5-3.6-1
		c-2.5-0.9-3.8-3.2-3.8-6.9c0-2.6,0.9-4.6,2.8-6.1C146.2,55.4,148.5,54.7,151.2,54.7z"/>
	<path class="st2" d="M185.4,82.7l-0.1,19.4c-0.2,0.9-0.6,1.6-1.3,2.2c-0.6,0.6-1.3,0.9-2.1,0.9c-1.1,0-1.7-0.8-1.7-2.3l0.1-22.2
		V57.9c0.2-1,0.4-1.8,0.8-2.3c0.3-0.5,0.9-0.8,1.7-0.8c0.8,0,1.4,0.2,1.6,0.6s0.5,1.4,0.8,3c0.2-0.7,0.8-1.5,1.9-2.3
		c1.1-0.8,2.8-1.2,5-1.2s4.1,0.5,5.8,1.4c1.6,0.9,2.9,2.1,3.8,3.7c1.7,3,2.6,6.7,2.6,11c0,4.3-1.2,7.8-3.7,10.3
		c-2.5,2.5-6,3.8-10.4,3.8c-1.5,0-2.9-0.5-4.1-1.5C185.7,83,185.4,82.8,185.4,82.7z M191.1,59.9c-1.7,0.2-3.1,0.9-4.1,2.2
		s-1.6,2.4-1.6,3.5v12c0.1,0,0.4,0.3,0.9,0.6c1.2,1.1,2.6,1.7,4.1,1.7c5.9,0,8.9-3.1,8.9-9.2c0-5.3-1.3-8.6-4-9.9
		C194.1,60.2,192.8,59.9,191.1,59.9z"/>
	<path class="st2" d="M209.7,68.9c0-2.2-0.1-4.2-0.1-5.8c0-1.7-0.1-3-0.1-4c0-1-0.1-3.8-0.1-8.3c0-4.5,0-7.3,0.1-8.4
		c0.1-1.1,0.3-1.9,0.7-2.4s1.1-0.8,2.2-0.8c1.5,0,2.4,0.8,2.7,2.3c-0.4,4-0.6,11.7-0.6,22.9c0,8.6,0.9,13.7,2.8,15.2
		c0.5-0.1,1-0.5,1.6-1.3c0.5-0.7,1-1.4,1.6-2c0.5-0.6,1.1-1,1.7-1s1.2,0.3,1.6,0.9c0.4,0.6,0.6,1.6,0.6,2.9c0,1.3-0.7,2.7-2.2,4
		c-1.4,1.4-3.1,2.1-4.9,2.1c-3.7,0-6-3.1-6.9-9.4C209.9,73.5,209.7,71.2,209.7,68.9z"/>
	<path class="st2" d="M249,60.8l-0.1,4.5c0,1.7-0.2,3.9-0.5,6.5c0.2,4.6,0.7,8.7,1.5,12.3c-0.1,0.5-0.5,0.8-1,1.1
		c-0.6,0.3-1.2,0.4-1.8,0.4s-1.2-0.1-1.6-0.3c-0.4-0.2-0.7-0.4-0.8-0.8c-0.2-0.4-0.3-0.7-0.3-0.9s-0.1-0.6-0.1-1.1s0-0.7-0.1-0.8
		c-2,2.1-4.7,3.2-7.9,3.2c-3.3,0-5.6-1.2-7-3.7c-1.4-2.5-2.1-5.9-2.1-10.4c0-7.8,2.2-12.7,6.7-14.9c1.4-0.6,3-1,4.7-1
		c1.8,0,3.5,0.3,5.2,0.9c0.6-0.8,1.3-1.2,2.3-1.2c1.8,0,2.7,1.4,2.8,4.1C249,59.6,249,60.2,249,60.8z M242.6,76.2
		c0.8-2.4,1.2-4.9,1.2-7.6s-0.3-4.7-1-6c-0.6-1.3-1.8-1.9-3.4-1.9c-0.7,0-1.6,0.1-2.7,0.2c-1.1,0.1-2.1,1.1-3.1,2.9
		c-0.9,1.8-1.4,3.3-1.4,4.6V71c0,4.5,0.9,7.4,2.8,8.7c0.6,0.4,1.3,0.6,2.2,0.6c0.9,0,1.9-0.4,3-1.2
		C241.4,78.2,242.1,77.3,242.6,76.2z"/>
	<path class="st2" d="M254,57.9c0-0.8,0.2-1.5,0.7-2.1c0.5-0.6,1.1-0.9,1.9-0.9c0.8,0,1.4,0.5,2,1.4c1,3.4,2.1,6.4,3.3,9.1
		c1.1,2.7,2.2,5.2,3.2,7.5c1,2.3,1.7,4,2.2,5.2c0.8-2.7,1.8-6.5,3-11.4c1.2-4.9,2.1-8.4,2.6-10.4c0.2-0.9,1.2-1.4,2.8-1.4
		c0.6,0,1.1,0.2,1.6,0.6c0.5,0.4,0.8,0.8,0.8,1.3c0,0.5,0,0.9-0.1,1.4c-6.2,21.8-10.7,36.7-13.5,44.8c-0.4,1.2-1.1,1.7-2.1,1.7
		c-0.6,0-1.2-0.3-1.7-0.8c-0.5-0.6-0.7-1.3-0.7-2.2c0-0.9,0.3-2.4,0.9-4.5c0.6-2.1,1.4-4.4,2.2-6.9c0.8-2.5,1.4-4.2,1.6-5.1
		c-1-1.7-2.8-5.6-5.2-11.6C257.4,67.5,255.4,62.3,254,57.9z"/>
	<path class="st2" d="M291.3,40.5l-0.6,22c0,2,0,3.6,0.1,4.7c-0.2,0.6-0.5,1.1-1,1.5c-0.5,0.4-1,0.6-1.6,0.6c-0.6,0-1.1-0.5-1.5-1.4
		c-0.6-10.9-1-20-1-27.4c0.2-0.6,0.7-1,1.4-1.3c0.7-0.2,1.3-0.4,1.8-0.4C290.2,38.9,291,39.5,291.3,40.5z M285.8,79.6
		c0-0.7,0.3-1.4,0.8-2.1c0.6-0.7,1.3-1,2.4-1s1.8,0.2,2.3,0.5c0.5,0.4,0.7,1.2,0.7,2.6s-0.3,2.3-0.9,2.7c-0.6,0.5-1.3,0.7-1.9,0.7
		c-1,0-1.8-0.4-2.4-1.2C286.1,81,285.8,80.3,285.8,79.6z"/>
</g>
</svg>
