<?xml version="1.0" encoding="utf-8"?>
<!-- Generator: Adobe Illustrator 21.0.0, SVG Export Plug-In . SVG Version: 6.00 Build 0)  -->
<svg version="1.1" id="Layer_1" xmlns="http://www.w3.org/2000/svg" xmlns:xlink="http://www.w3.org/1999/xlink" x="0px" y="0px"
	 viewBox="0 0 128.8 120.7" style="enable-background:new 0 0 128.8 120.7;" xml:space="preserve">
<style type="text/css">
	.st0{fill:#A7A8AC;}
	.st1{fill:#3CA7C2;}
	.st2{display:none;}
	.st3{display:inline;fill:#A7A8AC;}
	.st4{display:inline;fill:#4DB867;}
	.st5{display:inline;fill:#EA4E4F;}
</style>
<g>
	<path class="st0" d="M113.3,108.1c-21.5,14.1-67.6,16.3-90,3s-24.5-72-10.4-92s72-18.3,98.2-4.1C131.9,26.3,134.8,94.1,113.3,108.1
		z"/>
	<path class="st1" d="M110.3,105.1c-21.5,14.1-67.6,16.3-90,3s-24.5-72-10.4-92s72-18.3,98.2-4.1C128.9,23.3,131.8,91.1,110.3,105.1
		z"/>
</g>
<g class="st2">
	<path class="st3" d="M113.3,108.1c-21.5,14.1-67.6,16.3-90,3s-24.5-72-10.4-92s72-18.3,98.2-4.1C131.9,26.3,134.8,94.1,113.3,108.1
		z"/>
	<path class="st4" d="M110.3,105.1c-21.5,14.1-67.6,16.3-90,3s-24.5-72-10.4-92s72-18.3,98.2-4.1C128.9,23.3,131.8,91.1,110.3,105.1
		z"/>
</g>
<g class="st2">
	<path class="st3" d="M113.3,108.1c-21.5,14.1-67.6,16.3-90,3s-24.5-72-10.4-92s72-18.3,98.2-4.1C131.9,26.3,134.8,94.1,113.3,108.1
		z"/>
	<path class="st5" d="M110.3,105.1c-21.5,14.1-67.6,16.3-90,3s-24.5-72-10.4-92s72-18.3,98.2-4.1C128.9,23.3,131.8,91.1,110.3,105.1
		z"/>
</g>
<g class="st2">
	<path class="st3" d="M110.3,105.1c-21.5,14.1-67.6,16.3-90,3s-24.5-72-10.4-92s72-18.3,98.2-4.1C128.9,23.3,131.8,91.1,110.3,105.1
		z"/>
</g>
</svg>
