<?xml version="1.0" encoding="utf-8"?>
<!-- Generator: Adobe Illustrator 21.0.0, SVG Export Plug-In . SVG Version: 6.00 Build 0)  -->
<svg version="1.1" id="Layer_1" xmlns="http://www.w3.org/2000/svg" xmlns:xlink="http://www.w3.org/1999/xlink" x="0px" y="0px"
	 viewBox="0 0 124.1 115.8" style="enable-background:new 0 0 124.1 115.8;" xml:space="preserve">
<style type="text/css">
	.st0{display:none;}
	.st1{display:inline;fill:#A7A8AC;}
	.st2{display:inline;fill:#3CA7C2;}
	.st3{display:inline;fill:#4DB867;}
	.st4{display:inline;fill:#EA4E4F;}
	.st5{fill:#A7A8AC;}
</style>
<g class="st0">
	<path class="st1" d="M112.3,106.9c-21.5,14.1-67.6,16.3-90,3s-24.5-72-10.4-92s72-18.3,98.2-4.1C130.9,25.1,133.8,92.9,112.3,106.9
		z"/>
	<path class="st2" d="M109.3,103.9c-21.5,14.1-67.6,16.3-90,3s-24.5-72-10.4-92s72-18.3,98.2-4.1C127.9,22.1,130.8,89.9,109.3,103.9
		z"/>
</g>
<g class="st0">
	<path class="st1" d="M112.3,106.9c-21.5,14.1-67.6,16.3-90,3s-24.5-72-10.4-92s72-18.3,98.2-4.1C130.9,25.1,133.8,92.9,112.3,106.9
		z"/>
	<path class="st3" d="M109.3,103.9c-21.5,14.1-67.6,16.3-90,3s-24.5-72-10.4-92s72-18.3,98.2-4.1C127.9,22.1,130.8,89.9,109.3,103.9
		z"/>
</g>
<g class="st0">
	<path class="st1" d="M112.3,106.9c-21.5,14.1-67.6,16.3-90,3s-24.5-72-10.4-92s72-18.3,98.2-4.1C130.9,25.1,133.8,92.9,112.3,106.9
		z"/>
	<path class="st4" d="M109.3,103.9c-21.5,14.1-67.6,16.3-90,3s-24.5-72-10.4-92s72-18.3,98.2-4.1C127.9,22.1,130.8,89.9,109.3,103.9
		z"/>
</g>
<g>
	<path class="st5" d="M109.3,103.9c-21.5,14.1-67.6,16.3-90,3s-24.5-72-10.4-92s72-18.3,98.2-4.1C127.9,22.1,130.8,89.9,109.3,103.9
		z"/>
</g>
</svg>
