<?xml version="1.0" encoding="utf-8"?>
<!-- Generator: Adobe Illustrator 21.0.0, SVG Export Plug-In . SVG Version: 6.00 Build 0)  -->
<svg version="1.1" id="Layer_1" xmlns="http://www.w3.org/2000/svg" xmlns:xlink="http://www.w3.org/1999/xlink" x="0px" y="0px"
	 viewBox="0 0 130.2 121" style="enable-background:new 0 0 130.2 121;" xml:space="preserve">
<style type="text/css">
	.st0{display:none;}
	.st1{display:inline;fill:#A7A8AC;}
	.st2{display:inline;fill:#3CA7C2;}
	.st3{fill:#A7A8AC;}
	.st4{fill:#4DB867;}
	.st5{display:inline;fill:#EA4E4F;}
</style>
<g class="st0">
	<path class="st1" d="M114,108.1c-21.5,14.1-67.6,16.3-90,3s-24.5-72-10.4-92s72-18.3,98.2-4.1C132.6,26.3,135.5,94.1,114,108.1z"/>
	<path class="st2" d="M111,105.1c-21.5,14.1-67.6,16.3-90,3s-24.5-72-10.4-92s72-18.3,98.2-4.1C129.6,23.3,132.5,91.1,111,105.1z"/>
</g>
<g>
	<path class="st3" d="M114,108.1c-21.5,14.1-67.6,16.3-90,3s-24.5-72-10.4-92s72-18.3,98.2-4.1C132.6,26.3,135.5,94.1,114,108.1z"/>
	<path class="st4" d="M111,105.1c-21.5,14.1-67.6,16.3-90,3s-24.5-72-10.4-92s72-18.3,98.2-4.1C129.6,23.3,132.5,91.1,111,105.1z"/>
</g>
<g class="st0">
	<path class="st1" d="M114,108.1c-21.5,14.1-67.6,16.3-90,3s-24.5-72-10.4-92s72-18.3,98.2-4.1C132.6,26.3,135.5,94.1,114,108.1z"/>
	<path class="st5" d="M111,105.1c-21.5,14.1-67.6,16.3-90,3s-24.5-72-10.4-92s72-18.3,98.2-4.1C129.6,23.3,132.5,91.1,111,105.1z"/>
</g>
<g class="st0">
	<path class="st1" d="M111,105.1c-21.5,14.1-67.6,16.3-90,3s-24.5-72-10.4-92s72-18.3,98.2-4.1C129.6,23.3,132.5,91.1,111,105.1z"/>
</g>
</svg>
