<?xml version="1.0" encoding="utf-8"?>
<!-- Generator: Adobe Illustrator 21.0.0, SVG Export Plug-In . SVG Version: 6.00 Build 0)  -->
<svg version="1.1" id="Layer_1" xmlns="http://www.w3.org/2000/svg" xmlns:xlink="http://www.w3.org/1999/xlink" x="0px" y="0px"
	 viewBox="0 0 1440 856" style="enable-background:new 0 0 1440 856;" xml:space="preserve">
<style type="text/css">
	.st0{fill:#FFFFFF;}
	.st1{fill:#FDFDFD;}
	.st2{fill:#FBFBFB;}
	.st3{fill:#F9F9F9;}
	.st4{fill:#F7F7F7;}
	.st5{fill:#F5F5F5;}
	.st6{fill:#F3F3F3;}
	.st7{fill:#F1F1F1;}
	.st8{fill:#EFEFEF;}
	.st9{fill:#EDEDED;}
	.st10{fill:#EBEBEB;}
	.st11{fill:#E9E9E9;}
	.st12{fill:#E7E7E7;}
	.st13{fill:#E5E5E4;}
	.st14{fill:#E3E3E2;}
	.st15{fill:#E1E1E0;}
	.st16{fill:#DFDFDE;}
	.st17{fill:#DDDDDC;}
	.st18{fill:#DBDBDA;}
	.st19{fill:#D9D9D8;}
	.st20{fill:#D7D7D6;}
	.st21{fill:#D5D5D4;}
	.st22{fill:#D3D3D2;}
	.st23{fill:#D1D1D0;}
	.st24{fill:#CFCFCE;}
	.st25{fill:#CDCDCC;}
	.st26{fill:#CACACA;}
	.st27{fill:#C8C8C8;}
	.st28{fill:#C6C6C6;}
	.st29{fill:#C4C4C4;}
	.st30{fill:#C2C2C2;}
	.st31{fill:#C0C0C0;}
	.st32{fill:#BEBEBE;}
	.st33{fill:#BCBCBC;}
	.st34{fill:#BABABA;}
	.st35{fill:#B8B8B8;}
	.st36{fill:#B6B6B6;}
	.st37{fill:#B4B4B4;}
	.st38{fill:#B2B2B2;}
	.st39{fill:#B0B0AF;}
	.st40{fill:#AEAEAD;}
	.st41{fill:#ACACAB;}
	.st42{fill:#AAAAA9;}
	.st43{fill:#A8A8A7;}
	.st44{fill:#A6A6A5;}
	.st45{fill:#A4A4A3;}
	.st46{fill:#A2A2A1;}
	.st47{fill:#A0A09F;}
	.st48{fill:#9E9E9D;}
	.st49{fill:#9C9C9B;}
	.st50{fill:#9A9A99;}
	.st51{fill:#989897;}
	.st52{fill:#343433;}
	.st53{fill:#B56F29;}
	.st54{fill:#754D24;}
	.st55{fill:#CBCBCA;}
	.st56{fill:#1A1A1A;}
	.st57{fill:#F69220;}
	.st58{fill:#B8D432;}
</style>
<g>
	<g>
		<path class="st0" d="M19,670.1c0,45.4,133.2,82.2,297.6,82.2s297.6-36.8,297.6-82.2c0-45.4-133.2-82.3-297.6-82.3
			S19,624.7,19,670.1z"/>
		<path class="st1" d="M23.6,670.1c0,44.7,131.2,81,293,81s293-36.3,293-81c0-44.7-131.2-81-293-81S23.6,625.4,23.6,670.1z"/>
		<path class="st2" d="M28.2,670.1c0,44,129.1,79.7,288.4,79.7c159.3,0,288.4-35.7,288.4-79.7c0-44-129.1-79.7-288.4-79.7
			C157.3,590.4,28.2,626.1,28.2,670.1z"/>
		<path class="st3" d="M32.8,670.1c0,43.3,127,78.4,283.8,78.4c156.7,0,283.8-35.1,283.8-78.4c0-43.3-127-78.4-283.8-78.4
			C159.9,591.7,32.8,626.8,32.8,670.1z"/>
		<path class="st4" d="M37.5,670.1c0,42.6,125,77.1,279.1,77.1c154.2,0,279.1-34.5,279.1-77.1c0-42.6-125-77.2-279.1-77.2
			C162.4,593,37.5,627.5,37.5,670.1z"/>
		<path class="st5" d="M42.1,670.1C42.1,712,165,746,316.6,746c151.6,0,274.5-34,274.5-75.9c0-41.9-122.9-75.9-274.5-75.9
			C165,594.2,42.1,628.2,42.1,670.1z"/>
		<ellipse class="st6" cx="316.6" cy="670.1" rx="269.9" ry="74.6"/>
		<ellipse class="st7" cx="316.6" cy="670.1" rx="265.3" ry="73.3"/>
		<ellipse class="st8" cx="316.6" cy="670.1" rx="260.7" ry="72"/>
		<ellipse class="st9" cx="316.6" cy="670.1" rx="256.1" ry="70.8"/>
		<ellipse class="st10" cx="316.6" cy="670.1" rx="251.5" ry="69.5"/>
		<ellipse class="st11" cx="316.6" cy="670.1" rx="246.8" ry="68.2"/>
		<ellipse class="st12" cx="316.6" cy="670.1" rx="242.2" ry="66.9"/>
		<ellipse class="st13" cx="316.6" cy="670.1" rx="237.6" ry="65.7"/>
		<ellipse class="st14" cx="316.6" cy="670.1" rx="233" ry="64.4"/>
		<ellipse class="st15" cx="316.6" cy="670.1" rx="228.4" ry="63.1"/>
		<ellipse class="st16" cx="316.6" cy="670.1" rx="223.8" ry="61.8"/>
		<ellipse class="st17" cx="316.6" cy="670.1" rx="219.1" ry="60.6"/>
		<ellipse class="st18" cx="316.6" cy="670.1" rx="214.5" ry="59.3"/>
		<ellipse class="st19" cx="316.6" cy="670.1" rx="209.9" ry="58"/>
		<ellipse class="st20" cx="316.6" cy="670.1" rx="205.3" ry="56.7"/>
		<ellipse class="st21" cx="316.6" cy="670.1" rx="200.7" ry="55.5"/>
		<ellipse class="st22" cx="316.6" cy="670.1" rx="196.1" ry="54.2"/>
		<ellipse class="st23" cx="316.6" cy="670.1" rx="191.4" ry="52.9"/>
		<ellipse class="st24" cx="316.6" cy="670.1" rx="186.8" ry="51.6"/>
		<ellipse class="st25" cx="316.6" cy="670.1" rx="182.2" ry="50.4"/>
		<ellipse class="st26" cx="316.6" cy="670.1" rx="177.6" ry="49.1"/>
		<ellipse class="st27" cx="316.6" cy="670.1" rx="173" ry="47.8"/>
		<ellipse class="st28" cx="316.6" cy="670.1" rx="168.4" ry="46.5"/>
		<ellipse class="st29" cx="316.6" cy="670.1" rx="163.7" ry="45.3"/>
		<ellipse class="st30" cx="316.6" cy="670.1" rx="159.1" ry="44"/>
		<ellipse class="st31" cx="316.6" cy="670.1" rx="154.5" ry="42.7"/>
		<ellipse class="st32" cx="316.6" cy="670.1" rx="149.9" ry="41.4"/>
		<ellipse class="st33" cx="316.6" cy="670.1" rx="145.3" ry="40.2"/>
		<ellipse class="st34" cx="316.6" cy="670.1" rx="140.7" ry="38.9"/>
		<ellipse class="st35" cx="316.6" cy="670.1" rx="136" ry="37.6"/>
		<path class="st36" d="M185.2,670.1c0,20.1,58.9,36.3,131.4,36.3c72.6,0,131.4-16.3,131.4-36.3c0-20.1-58.8-36.3-131.4-36.3
			C244,633.8,185.2,650.1,185.2,670.1z"/>
		<path class="st37" d="M189.8,670.1c0,19.4,56.8,35.1,126.8,35.1c70,0,126.8-15.7,126.8-35.1c0-19.3-56.8-35-126.8-35
			C246.6,635.1,189.8,650.8,189.8,670.1z"/>
		<path class="st38" d="M194.4,670.1c0,18.7,54.7,33.8,122.2,33.8c67.5,0,122.2-15.1,122.2-33.8c0-18.6-54.7-33.8-122.2-33.8
			C249.1,636.3,194.4,651.5,194.4,670.1z"/>
		<path class="st39" d="M199,670.1c0,17.9,52.7,32.5,117.6,32.5c64.9,0,117.6-14.6,117.6-32.5c0-17.9-52.6-32.5-117.6-32.5
			C251.7,637.6,199,652.2,199,670.1z"/>
		<path class="st40" d="M203.6,670.1c0,17.2,50.6,31.2,113,31.2c62.4,0,113-14,113-31.2c0-17.2-50.6-31.2-113-31.2
			C254.2,638.9,203.6,652.9,203.6,670.1z"/>
		<path class="st41" d="M208.3,670.1c0,16.5,48.5,29.9,108.4,29.9c59.8,0,108.3-13.4,108.3-29.9c0-16.5-48.5-29.9-108.3-29.9
			C256.8,640.2,208.3,653.6,208.3,670.1z"/>
		<path class="st42" d="M212.9,670.1c0,15.8,46.5,28.7,103.7,28.7c57.3,0,103.7-12.8,103.7-28.7c0-15.8-46.4-28.7-103.7-28.7
			C259.3,641.4,212.9,654.3,212.9,670.1z"/>
		<path class="st43" d="M217.5,670.1c0,15.1,44.4,27.4,99.1,27.4c54.7,0,99.1-12.3,99.1-27.4c0-15.1-44.4-27.4-99.1-27.4
			C261.9,642.7,217.5,655,217.5,670.1z"/>
		<path class="st44" d="M222.1,670.1c0,14.4,42.3,26.1,94.5,26.1c52.2,0,94.5-11.7,94.5-26.1c0-14.4-42.3-26.1-94.5-26.1
			C264.4,644,222.1,655.7,222.1,670.1z"/>
		<path class="st45" d="M226.7,670.1c0,13.7,40.3,24.8,89.9,24.8c49.6,0,89.9-11.1,89.9-24.8c0-13.7-40.2-24.8-89.9-24.8
			C267,645.3,226.7,656.4,226.7,670.1z"/>
		<path class="st46" d="M231.3,670.1c0,13,38.2,23.6,85.3,23.6c47.1,0,85.3-10.6,85.3-23.6c0-13-38.2-23.6-85.3-23.6
			C269.5,646.5,231.3,657.1,231.3,670.1z"/>
		<path class="st47" d="M236,670.1c0,12.3,36.1,22.3,80.7,22.3c44.5,0,80.6-10,80.6-22.3c0-12.3-36.1-22.3-80.6-22.3
			C272.1,647.8,236,657.8,236,670.1z"/>
		<path class="st48" d="M240.6,670.1c0,11.6,34.1,21,76,21c42,0,76-9.4,76-21c0-11.6-34-21-76-21
			C274.6,649.1,240.6,658.5,240.6,670.1z"/>
		<path class="st49" d="M245.2,670.1c0,10.9,32,19.7,71.4,19.7c39.4,0,71.4-8.8,71.4-19.7c0-10.9-32-19.7-71.4-19.7
			C277.2,650.4,245.2,659.2,245.2,670.1z"/>
		<path class="st50" d="M249.8,670.1c0,10.2,29.9,18.5,66.8,18.5c36.9,0,66.8-8.3,66.8-18.5c0-10.2-29.9-18.5-66.8-18.5
			C279.7,651.6,249.8,659.9,249.8,670.1z"/>
		<path class="st51" d="M254.4,670.1c0,9.5,27.9,17.2,62.2,17.2c34.3,0,62.2-7.7,62.2-17.2c0-9.5-27.8-17.2-62.2-17.2
			C282.3,652.9,254.4,660.6,254.4,670.1z"/>
	</g>
	<g>
		<g>
			<path class="st52" d="M345.4,201.2c0,0-68.6-101.7-60.6-122.1c8-20.4,46,11,65-6.6c19-17.5,17.5-43.1-7.3-48.9
				c-24.8-5.8-99.3,35-99.3,46.7c0,11.7,91.3,130.9,91.3,130.9H345.4z"/>
			<path d="M414,143.3c0,0-49.7-107.7-40.9-120.3c8.8-12.6,90.5-12.6,95.6,10.1c5.1,22.6-6.6,31.4-21.2,33.6
				c-14.6,2.2-45.3-21.9-50.4-16.1c-5.1,5.8,23.8,92.7,23.8,92.7H414z"/>
			<path class="st53" d="M412.2,637.6c0,0,90.1,66.1,92.4,71.8c2.4,5.7,12.4,29.8,42.2,27.3c36.7-3.1,19.7-51.2,22.2-55.5
				c2.5-4.3,5.8-6.9,5.8-6.9s4.3,4,13.3,4.3c9,0.2,18-11.3,18-24.2c0-16.8-5.1-37.4-18.6-37.4c-8.6,0-10.7,6.4-10.7,6.4
				s-3.9-7.3-13.9-7.3c-7.8,0-10.2,8.4-10.2,8.4s-2.5-7.1-13.7-7c-11.9,0.1-18.7,10.9-22.9,24.7c-2.8,9.1-4.1,23.8-4.1,23.8
				l-82.4-44L412.2,637.6z"/>
			<path class="st54" d="M512.1,665.9c0,0-0.5,7.5-0.6,13.1c-0.1,5.7,0.3,15.4,0.3,15.4s-1.4-9.2-1.6-15.6c-0.2-6.4,0-13.9,0-13.9
				L512.1,665.9z"/>
			<path class="st54" d="M553,623.6c0,0,5.3,7.9,5.3,21.8c0,12.3-3.3,28.9-14,30.7c-9.1,1.5-16.9-13.7-16.9-13.7s9.8,13.2,15.5,12.1
				c9.1-1.8,14.2-17.2,13.5-29.2c-0.7-11.4-5.9-24.1-5.9-24.1L553,623.6z"/>
			<path class="st54" d="M577.6,621.9c0,0,5.4,10,6.3,22.9c0.7,11.7-1.6,26.6-9.5,29.9c-11,4.7-22-4.2-22-4.2s14.1,5.6,20.7,2.1
				c6.6-3.5,9.9-16.5,8.9-27.4c-1.1-10.9-5.2-22.3-5.2-22.3L577.6,621.9z"/>
			<path class="st55" d="M559.9,705.8c0,10-6.4,18.1-14.2,18.1s-14.2-8.1-14.2-18.1c0-10,6.4-18.1,14.2-18.1
				S559.9,695.7,559.9,705.8z"/>
			<path class="st56" d="M169,572.5c0,0-31.7-9.4-62.4,4.5c-30.7,13.9-44.5,55.5-39.4,57.7c5.1,2.2,7.3-9.1,17.5-17.2
				c8.7-6.9,18.3-7.7,18.3-7.7s-21.2,13.5-20.8,38.3c0.4,24.8,17.9,48.6,21.5,47.8c3.7-0.7-1.5-2.2,1.8-21.9
				c3.3-19.7,12.1-24.1,12.1-24.1s-1.7,28.7,16.8,48.2c17.6,18.6,38,15.3,41.3,13.1c3.3-2.2-12.9-8.9-17.9-18.8
				c-5.7-11.3-5.7-19.4-5.7-19.4s14.4,18.6,40.1,7.8c20.6-8.6,21-29.9,19.2-31c-1.8-1.1-43.8,5.8-58-4.4
				c-14.2-10.2-13.5-23-9.9-30.3s31-19.3,31-19.3L169,572.5z"/>
			<path class="st57" d="M609,191.9c0,0-31.4,15-51.8,17.9c-20.4,2.9-51.1-5.1-51.1-5.1l-16.1-62.5c0,0-16.1-37.1-29.2-30
				c-13.1,7.1-14.9,23.4-25.3,27.8c-14.4,6.1-30.1-21.4-53.9-9.8c-23.7,11.7-22.7,69-30.3,72.3c-7.7,3.3-22.2-22.3-62-29.9
				c-40.7-7.8-78.7,9.3-70.8,11c29.4,6.3,57.3,25.2,54.6,31.2c-2.7,6-30.8-1.4-54.6,9.3c-23.7,10.7-28.8,30.5-23.7,28.5
				c23.5-9.6,53.7-4.4,54.8,0c1.1,4.4-24.4,9.2-39.7,27.9c-10.6,12.9-13.5,37.8-12.3,36.7c18.9-17.2,49.3-24.6,49.8-20.8
				c0.5,3.8-58,69-73.4,153.3c-15.3,84.3-14.2,145.7,0,166.5c14.2,20.8,174.1,74.5,242,56.9c67.9-17.5,98.6-85.4,89.8-140.2
				c-8.8-54.8-29.6-58-28.5-77.8c1.1-19.7,26.3-35,26.3-35s45.5,3.8,95.3-36.7c32.7-26.6,72.8-110.1,72.8-110.1L609,191.9z"/>
			<ellipse class="st55" cx="470" cy="176.9" rx="40.2" ry="40.1"/>
			<path d="M491.9,159.7c-3.2,1.2-4,7-1.8,13.1c2.2,6,6.6,10,9.9,8.8c3.2-1.2,4-7,1.8-13.1C499.6,162.5,495.1,158.5,491.9,159.7z"/>
			<ellipse class="st0" cx="427.1" cy="208.7" rx="51.9" ry="51.8"/>
			<path d="M450.8,174.7c-4,1.8-4.5,9.5-1,17.1c3.4,7.6,9.5,12.2,13.5,10.4c4-1.8,4.5-9.5,1.1-17
				C460.9,177.5,454.8,172.8,450.8,174.7z"/>
			<path class="st57" d="M519.8,207.6c0,0,4.3-18.9-4.3-22.8c-8.6-3.9-35.6,6-60.2,32.2c-24.7,26.2-25.5,61.8-25.5,61.8L519.8,207.6
				z"/>
			<path class="st57" d="M431.3,266.3c0,0-5.6-10.5-22-16.7c-16.4-6.2-49.3,4.4-49.3,4.4L431.3,266.3z"/>
			<path d="M503.5,420c0,0-75.3-2.7-115.4-24.1c-53.3-28.5-62.6-57.2-58.8-74.8c2.9-13.2,13.1-21.5,13.1-21.5s-15.3,6.9-18.2,24.1
				c-2.2,13.1,6.1,54.4,68,82.1c42.7,19.2,102.3,20.9,102.3,20.9L503.5,420z"/>
			<ellipse transform="matrix(0.6224 -0.7827 0.7827 0.6224 64.7117 603.7303)" cx="658.1" cy="234.8" rx="73.2" ry="81.5"/>
			<path class="st53" d="M294,498.9c0,0,70.7,55.9,77.1,58.7c12.9,5.7,23.1-17.8,35.2-10.6c8.4,5,17,21.8,10.1,28.7
				c-8.6,8.5-31.4-5.7-33.1,4.6c-1.7,10.3,24.1,3.3,30.8,13.6c6,9.2-5.8,29.8-19.2,24.7c-13.4-5.1-16.1-29.6-21.6-28.4
				c-5.6,1.2,5.2,21.7,1,28.9c-5.5,9.3-18.5,13.9-28.9-0.3c-11.4-15.6,12.6-32.4,7.1-40c-5.5-7.6-63.9-66.9-63.9-66.9L294,498.9z"/>
			<path class="st53" d="M250.9,651.8c0,0,66.5,114.6,96.9,116.4c30.3,1.8,35.8-52,35.8-52s1.9,5,10.3,5.8c8.4,0.8,20-4.8,26.9-16.8
				c6.8-11.7,9-24.5,1.4-31.4c-6.7-6-15-0.7-15-0.7s-2.1-15.5-15-20c-15.4-5.3-20.6,2.2-20.6,2.2s-5.1-11.9-19.7-13.7
				c-12.9-1.6-22.4,4.1-25.7,13.3c-3.3,9.2,2.3,56.1-0.8,58.8c-3.1,2.7-51.6-55.5-51.6-55.5L250.9,651.8z"/>
			<path class="st54" d="M339,679.8c0,0-0.8,20.6,9.6,24.8c11.8,4.7,21.9-3.9,26.2-11.8c7.3-13.1-2.2-38.7-2.2-38.7l-1.1,1.1
				c0,0,7.8,26.5,1.6,37.3c-4.2,7.3-16.3,14-23.7,10.5C343.1,700,339,679.8,339,679.8z"/>
			<path class="st54" d="M407.2,673.1c0,0-0.9,17.4-6,24.9c-3.9,5.7-8.4,14.7-18.9,14.8c-7.5,0-17.5-9.4-17.5-9.4
				s4.6,11.3,16.7,11.8c10.3,0.4,18-9.1,22-17.2c5.6-11.5,5.2-25.6,5.2-25.6L407.2,673.1z"/>
			<path class="st55" d="M368.4,737.9c-0.4,9.2-7.3,16.4-15.6,16.1c-8.2-0.3-14.6-7.9-14.3-17.1c0.4-9.2,7.3-16.4,15.6-16.1
				C362.3,721,368.7,728.7,368.4,737.9z"/>
			<path class="st53" d="M503.2,506c-1.5-4.1-5.1-3.8-5.1-3.8s-26.6,39.4-34.9,37.9c-8.3-1.5-13.2-11.1-24.3-6.4
				c-11.1,4.7-13.3,23.1-6.1,30.7c7.2,7.7,16.3-11,21.4-3.9c5.1,7.1-16.5,19.2-11.8,29.7c4.7,10.5,24.5,13.2,29.2,8.4
				c4.8-4.8-2.5-22.9,5.1-26.1c7.6-3.2,3.1,17.1,10.3,20.9c7.2,3.8,23-2.7,22.3-17.2c-0.7-14.5-18.5-21.5-18.3-27.8
				c0.2-6.3,12.3-28.2,12.3-28.2S505,510.6,503.2,506z"/>
			<path class="st52" d="M652.1,182.5c7.4-9.3,26.4-6.7,42.3,6c15.9,12.7,22.8,30.5,15.4,39.8c-7.4,9.3-26.4,6.7-42.3-6
				C651.6,209.7,644.7,191.8,652.1,182.5z"/>
		</g>
	</g>
</g>
<path d="M678.8,669.7c-19.6,0-29.4-10.4-34.3-19.2c-6-10.8-3-28,3-39.4c4.8-9,11.5-14.4,18.8-15.1c0.8-0.1,1.7-0.1,2.7-0.1
	c7.8,0,19,2.8,29.9,5.6c7.1,1.8,16,4.1,19.2,4.1l0.1,0c3.5-0.2,6.2-3.5,9.1-7.4c0,0,0-0.1,0.1-0.1c0.1-1-0.2-2.4-0.5-3.2
	c-20.8-2.3-46.2-25.3-53.6-32.4c-28.7-27.5-36.2-49.2-38.1-57.2l-0.2-0.7l-2.2-24.3c-6.1-63,13.2-84.8,61.6-112.6
	c12.3-7,28.6-10.9,44.7-10.9c7.9,0,15.4,0.9,22.3,2.8c24.6,6.6,41.6,29.4,45.5,61.1c3.4,27.9,0.7,49.8-8.2,66.9
	c-9.3,17.8-24.3,28.4-36.3,35.6c-3.3,2-7.5,3-12.2,3c-11,0-23.9-6-28-19.4c-5.3-17.3,4.8-31.3,17.3-37.6c4.5-2.3,9.1-8,11.7-14.6
	c1.6-4,1.2-9.8,1-11.2l-0.1-0.5l0-0.5c-0.8-18.5-5.8-23.6-23-23.6c-3.2,0-7,0.2-11.1,0.7c-8.5,1.1-28.6,15-30.4,34l0,0.3l0,0.3
	c-0.6,3.9,1.2,13.8,2.6,19.2l0.2,0.6l0.1,0.6c1.7,13.6,10.6,29.8,24,43.3c11,11.1,29.8,25.6,57.5,31.6l0.3,0.1l0.3,0.1
	c19.3,5.6,22.1,30.8,23.1,39.1c3.2,26.5-8.8,47.9-34.7,61.7c-21.5,11.5-48.2,15.8-66.5,18l-7.8,1C684,669.5,681.3,669.7,678.8,669.7
	z"/>
<path class="st58" d="M758.9,368.9c18.8,5,34.7,23.1,38.3,52.8c6.8,55.6-12.6,76.6-39.8,92.9c-6.3,3.8-22,1.4-25.8-10.9
	c-4.8-15.5,8.4-24,12.3-25.9c7.7-3.9,13.5-12.4,16.4-19.7c2.9-7.3,1.6-16.2,1.6-16.2c-1.2-26.5-12.2-35.8-45-32.2
	c-13.2,1.6-36.8,19.1-39,42.9c-1.1,7.7,2.8,23.1,2.8,23.1c3.8,30.7,37.8,72.2,89.1,83.3c11.3,3.3,14.7,18.4,16.1,30.8
	c6.2,51.4-54.2,64.1-92.6,68.8l-7.8,1c-15.5,1.9-26.2-2.4-32.4-13.7c-6.2-11.3,2.6-38.9,14.1-40c11.5-1.1,42.6,10.2,51.7,9.6
	c9-0.6,14.1-8.4,17.1-12.3c2.7-3.5,1.7-17.3-7.8-17.9c-24.7-2.5-75.6-49.3-83.4-82.1l-2.1-23.6c-5.6-58.5,10.8-76.9,56.7-103.2
	C715.7,366.8,740,363.9,758.9,368.9z"/>
<path d="M844.1,784c-6.1,0-12-3.4-16.6-9.6c-3.6-4.9-5.8-10.7-5.9-15.7c-6-81.6-11-172.5-13.5-219.4c-1.5-29.5-2.9-58.1-3.9-80.6
	c-1.5-33.7-1.4-33.9-0.5-36.3c1-2.6,3.1-6.1,8.1-8.6c1.3-0.6,3.2-1.6,12.7-1.6c7.6,0,9.8,0.8,10.9,1.2c7.1,2.6,12.9,10.8,12.9,18.3
	v7c8.1-2.1,17.4-4.5,18.9-4.8c3.8-0.9,14.9-1.6,19.5-1.9l0.3,0h0.3c22.2,0,37.1,7,52.6,17.6l0.3,0.2l0.3,0.2
	c17.3,13.6,26.1,33.4,26.1,58.8c0,22-7.3,39.8-21.6,52.9c-13.7,12.5-34.1,20.6-60.5,23.9l-0.6,0.1h-0.6c-23.5,0-25.2,7.6-25.3,11.7
	c10.6,56.8,18.5,131.6,18.5,160.8v0.7l-0.1,0.7c-3.2,22.7-15.6,24.4-19.3,24.4H844.1z M854.6,523.9c2.4,11.4,10.6,13.5,31.7,13.5
	c7.8,0,14.6-2.7,19.2-7.6c4.9-5.3,7-13.3,6.2-23c-3.5-25.3-13.8-30.2-30.4-30.2c-0.1,0-0.3,0-0.4,0c-17.7,3.1-21.6,10.5-22.9,12.9
	c-3.4,6.4-3.4,15-3.4,22.6V523.9z"/>
<path class="st58" d="M832,422.6c3.2,1.1,6.4,5.7,6.4,9.1s0,19.6,0,19.6s28.5-7.3,30.9-7.9c3.3-0.8,17.8-1.6,17.8-1.6
	c18.4,0,31.4,5.2,47.1,15.9c14.9,11.7,22.4,28.7,22.4,51.1c0,38.5-24.5,60.9-73.4,67.1c-23.4,0-35.1,7.5-35.1,22.4
	c10.6,56.7,18.5,131.5,18.5,160c-1.5,10.6-5.6,16-9.6,16c-4,0-6.4,0-12.8,0c-6.3,0-12.8-9.8-12.8-16
	c-10.6-143.8-19.1-330.8-18.5-332.4c0.6-1.6,1.9-2.6,3.2-3.2S829.5,421.7,832,422.6z M844.8,512v12.8c3.9,21.8,23.1,22.4,41.5,22.4
	c19.6,0,37.6-13.4,35.1-41.5c-3.8-27.8-16.3-39.3-41.4-38.9C845.1,472.4,844.8,494.3,844.8,512z"/>
<path d="M1043.4,607.9c-38.9,0-67-21.3-79.3-60l-0.2-0.7l-0.1-0.7c-0.1-0.7-2.9-18-2.9-29.6c0-23.3,10.2-49.4,27.3-69.7
	c19.1-22.7,43.7-35.2,69.2-35.2c18,0,32.6,6.9,43.4,20.5c10.1,12.7,16.5,30.8,19.5,55.2l0.1,0.6v17.4c0,26.3-21.2,43.4-54,43.4
	l-1.1,0l-0.5-0.1c-0.2,0-24.1-2.7-37.3-2.7l-0.7,0c-4,0-6.4,0.2-7.8,0.4c0,0,0,0,0,0c0.1,3.8,3.2,8.4,7.9,12
	c5.9,4.6,13.6,7.1,21.5,7.1c0.2,0,0.4,0,0.6,0c11.5-0.2,20.8-8.1,21.2-8.4c2.9-2.5,6.4-2.8,8.8-2.8c0.8,0,1.4,0,1.6,0.1l0.2,0l0.2,0
	c10.3,1.2,16.9,11.4,17.1,26.1c0.1,0.9,0.1,2.3,0,4.1c-0.8,9-7.8,20.3-36.9,22.9l-0.4,0H1043.4z M1016.9,498.1
	c0.7,5.1,8.9,8.7,21.2,9.1c2,0.1,4,0.1,5.9,0.1c0,0,0,0,0,0c21,0,27.3-4,28.7-5.2v-9.8c-2.1-20.9-10.8-29.8-29.3-29.8h-2.8
	C1033.7,462.5,1021.6,473.8,1016.9,498.1z"/>
<path class="st58" d="M1057.4,421.9c29.9,0,47.6,22.4,53.1,67.1v2.8v2.8v8.4v2.8c0,20.3-16.4,33.7-44.7,33.6c0,0-25.4-2.9-39.2-2.8
	c-13.8,0.1-17.8,1.5-17.5,10.6c0.5,13.8,18,28.9,39.9,28.6c15.2-0.2,26.8-10.2,27.5-10.8c0.7-0.6,3.3-0.4,3.3-0.4
	c5.1,0.6,8.4,7.5,8.4,16.8c0,0,0.1,1.2,0,2.8c-0.8,9.3-15.1,12.8-28,14h-16.8c-30.1,0-57.6-14.2-69.9-53.1c0,0-2.8-17-2.8-28
	C970.7,474.8,1008.4,421.9,1057.4,421.9z M1007,497.4c0,10.6,10.1,18.9,30.8,19.6c31.6,1.1,44.7-5.9,44.7-14v-11.2
	c-2.4-26.1-15.5-39.2-39.2-39.2h-2.8C1027.8,452.7,1012.3,468.5,1007,497.4z"/>
<path d="M1072.4,763.3c-21.6,0-37.3-11.8-44.1-33.2l-0.2-0.7l-0.1-0.7c-0.2-0.9-1.5-9.4-1.5-15.5c0-26.4,23.1-57,52.9-57
	c10.4,0,19.2,4.2,25.4,12.1c5.6,7.1,9.1,16.8,10.7,29.9l0.1,0.6v8.9c0,10.9-6,19.3-15.9,23.5c3.2,3.5,4.7,8.6,4.8,13.6
	c0,0.6,0.1,1.6,0,2.7c-1.1,12.1-14.7,15.1-22.8,15.9l-0.4,0H1072.4z M1064.6,702.5c0.9,0.4,2.6,0.8,5.4,0.9c1,0,1.9,0,2.8,0
	c4.7,0,7.6-0.5,9.3-0.9v-1.4c-0.6-5.8-1.8-10.1-9.6-10.1h-1.1C1070,691.6,1066.5,695,1064.6,702.5z"/>
<path class="st57" d="M1079.4,666c14.9,0,23.7,11.1,26.4,33.3v1.4v1.4v4.2v1.4c0,10.1-8.2,16.8-22.2,16.7c0,0-12.6-1.4-19.4-1.4
	c-6.8,0.1-8.9,0.7-8.7,5.3c0.3,6.8,8.9,14.3,19.8,14.2c7.6-0.1,13.3-5.1,13.7-5.4c0.3-0.3,1.6-0.2,1.6-0.2c2.5,0.3,4.2,3.7,4.2,8.3
	c0,0,0.1,0.6,0,1.4c-0.4,4.6-7.5,6.4-13.9,6.9h-8.3c-15,0-28.6-7-34.7-26.4c0,0-1.4-8.5-1.4-13.9
	C1036.3,692.2,1055.1,666,1079.4,666z M1054.4,703.5c0,5.3,5,9.4,15.3,9.7c15.7,0.5,22.2-2.9,22.2-6.9v-5.6
	c-1.2-13-7.7-19.4-19.4-19.4h-1.4C1064.7,681.3,1057,689.1,1054.4,703.5z"/>
<path d="M1167.3,601.5c-6.4,0-14.7-0.2-15.8-0.2c-14.8-0.2-17.7-21.4-19.1-31.6c-2.2-15.8-3.3-39.6-3.3-70.8V284.9
	c0-16.5,23.5-20.7,33.6-22.4c0.6-0.1,2-0.3,3.6-0.3c1.8,0,3.4,0.3,4.9,0.9c3.7,1.4,10.6,8.3,12,12c1.1,2.7,1,5.6,0.7,7.6v139.4
	l6.4,118.2v3.4c0.6,42,0.2,43-0.7,45.1c-1.1,2.8-6.6,10.6-13.1,12.3C1175.1,601.3,1173.3,601.5,1167.3,601.5z"/>
<path class="st58" d="M1164.5,272.1c0,0,2.1-0.4,3.2,0c1.1,0.4,5.9,5.2,6.4,6.4c0.4,1.2,0,3.2,0,3.2v6.4v51.1v35.1v47.9l6.4,118.2
	v3.2c0,0,0.5,40.2,0,41.5c-0.5,1.4-4.3,5.8-6.4,6.4c-2.1,0.6-22.4,0-22.4,0c-8.5,0-12.8-30.9-12.8-92.6V284.9
	C1139,279.3,1147.5,275.1,1164.5,272.1z"/>
<path d="M1228.6,601.5c-6.4,0-14.7-0.2-15.8-0.2c-14.8-0.2-17.7-21.4-19.1-31.6c-2.2-15.8-3.3-39.6-3.3-70.8V284.9
	c0-16.5,23.5-20.7,33.6-22.4c0.6-0.1,2-0.3,3.6-0.3c1.8,0,3.4,0.3,4.9,0.9c3.7,1.4,10.6,8.3,12,12c1.1,2.7,1,5.6,0.7,7.6v139.4
	l6.4,118.2v3.4c0.6,42,0.2,43-0.7,45.1c-1.1,2.8-6.6,10.6-13.1,12.3C1236.4,601.3,1234.6,601.5,1228.6,601.5z"/>
<path class="st58" d="M1225.8,272.1c0,0,2.1-0.4,3.2,0c1.1,0.4,5.9,5.2,6.4,6.4c0.4,1.2,0,3.2,0,3.2v6.4v51.1v35.1v47.9l6.4,118.2
	v3.2c0,0,0.5,40.2,0,41.5c-0.5,1.4-4.3,5.8-6.4,6.4c-2.1,0.6-22.4,0-22.4,0c-8.5,0-12.8-30.9-12.8-92.6V284.9
	C1200.3,279.3,1208.8,275.1,1225.8,272.1z"/>
<path d="M914.3,767.4c-10-0.1-14.9-6.4-16.1-12.2l-0.1-0.3l0-0.3c-0.1-0.6-0.5-3.6,0-7c0.2-1.7,0.8-8.8,0.8-11.2
	c0-2.3-0.4-8.9-0.6-11.3l-4.8-0.2l-0.3,0c-3.3-0.3-6-1.3-8-3c-3-2.5-4.4-6.4-3.8-11.1c0.2-4.8,2.1-16.2,16.7-19.4v-71.6
	c0-9,11.1-14,16.8-14c6.7,0,15.1,6.7,16.5,13.3l0.2,1v25l0,0.3c-0.1,1.3-0.9,13.1-1.5,17.4c-0.3,2.3-0.2,15.3,0,26.8
	c2.5-0.3,4.9-0.6,6.3-0.6c1,0,2.6,0.1,4.4,0.8c5.4,2.2,8,8.8,8.6,10.9c0.6,2.5,0.8,4.9,0.2,9.3c-1.5,9.7-12.8,12-19.2,12.4
	c0,1.2,0,2.5,0,3.5c0,0.5,0,1.1,0,1.6c2,24.9,1.1,28.1,0.7,29.6c-1.8,6.3-9.7,10.1-16.4,10.1L914.3,767.4z"/>
<path class="st57" d="M914.8,615.7c2.3,0,6.5,3.7,6.9,5.6v23.6c0,0-0.8,12.6-1.4,16.7c-0.6,4.1,0,30.6,0,30.6c0.6,5.6,2,8.3,4.2,8.3
	c0,0,11.5-1.8,12.5-1.4c1,0.4,2.5,3.1,2.8,4.2c0.3,1.1,0.5,2.3,0,5.6c-0.5,3.3-9.7,4.4-13.9,4.2c-6.2,0.3-5.4,8.9-5.4,15.2
	c0,0,1.9,23.5,1.1,26.5c-0.2,0.8-3.3,3-7.1,3c-3.8,0-6-1.7-6.6-4.4c0,0-0.3-2,0-4.2c0.3-2.2,0.9-9.7,0.9-12.5s-0.5-12.1-0.9-13.9
	c-0.4-1.8,0-6.9,0-6.9l-13.7-0.5c0,0-2-0.2-2.7-0.8c-0.7-0.6-0.3-2.9-0.3-2.9c0-7.4,5.1-11.1,15.3-11.1c0,0,1.4-4.7,1.4-6.9
	s0-73.6,0-73.6C907.8,618.3,912.5,615.7,914.8,615.7z"/>
<path d="M1000,761.4c-1.6,0-5.6-0.1-8.3-0.9c-5.1-1.4-8-5.5-9-8.8c-0.6-1.7-1.2-4.9,0.1-8.6c0.2-0.5,0.4-1,0.9-2.2
	c1.8-4.2,6.6-15.4,10-27.8c1.9-6.8-0.3-12.9-2.7-16.1c-1.5-1.9-3-2.8-3.8-2.8c-1.2,0-3.2,0-5.5,4.3c-1.8,3.5-4.1,10.5-4.8,24.3v13.6
	c0,11.2-3.5,17.9-10.4,19.8c-1.1,0.4-2.8,0.8-4.8,0.8c-1.7,0-3.5-0.3-5.1-0.8c-4.2-1.4-9.3-5-11.1-9.7c-0.7-1.9-1-2.7-1.4-32
	l-0.6-98.8l0-2.8c0-11.5,14.2-14.6,22.7-14.6c6.2,0,11.4,4.8,12.2,11.2c0.2,1.1,0.4,3.8-0.1,6.5c-0.3,1.5-0.8,2.6-1.2,3.5
	c0.2,5.4,0.9,24.1,1,26.5l0,0.2l0.2,15.8c0.7-0.2,1.2-0.3,1.5-0.4c7.7-2.1,13.7-2.3,14.4-2.3l0.2,0c18.3,0,35.5,17.3,35.5,35.6
	c0,8.4-3.2,23.5-6.2,35c-6.7,25.4-10.6,28.7-15,30.4l-0.3,0.1C1007.3,760.7,1005.1,761.4,1000,761.4z"/>
<path class="st57" d="M966,608.1c2.2,0,2.4,2.6,2.4,2.6s0.3,1.9,0,3.4s-1.5,2.4-1.4,4.5c0.1,2.1,1,27.7,1,27.7l0.4,28.6
	c0,0,11.8-3.3,13.7-3.8c6.7-1.8,11.9-1.9,11.9-1.9c12.2,0,25.7,12.5,25.7,25.8s-10.7,54.6-14.9,56.2c-2.2,0.8-8.6,0.5-10.5,0
	c-1.9-0.5-2.4-2.4-2.4-2.4s-0.4-1,0-2.3c0.4-1.3,6.8-15,11.1-30.6s-5.3-31.3-16-31.3c-12.2,0-18.9,12.7-20.1,38.2v13.9
	c0,6.4-1.2,9.9-3.5,10.4c0,0-1.6,0.8-3.9,0s-4.6-2.6-5.1-3.9c-0.4-1.1-0.7-28.6-0.7-28.6l-0.6-98.7v-2.8
	C953.1,609.2,963.8,608.1,966,608.1z"/>
<path d="M1213.5,753.7c-2.4,0-4.4-0.4-5.3-0.6c-2-0.4-4.9-1.6-7.1-4.8c-6.2,3.3-13.4,5-21.5,5c-18.7,0-32.4-8.4-39.6-24.4l-0.1-0.3
	l-0.1-0.3c-0.4-1-2.4-6.3-3.1-9.6c-0.7-3.5-1.3-11.2-0.1-18.5l0-0.3l0.1-0.3c5.5-23.2,23.9-39.5,45.1-39.8c1-0.1,2.8-0.2,5-0.2
	c1.9,0,3.7,0.1,5.5,0.3c1.8,0.2,3.6,0.5,5.3,1c0-21.3,0-50.1,0-51.7c-0.1-7.1,5.4-11.6,10.8-13l1.2-0.3h10.2l1.5,0.5
	c3,0.9,9.9,4.4,9.9,16.3l0,36.1l-1.4,90.3l0,0.5c-0.5,4.8-3.6,11.2-10.6,13.1C1217.3,753.4,1215.4,753.7,1213.5,753.7z
	 M1179.6,718.4c7.6,0,13.8-9.1,13.8-16.6c0-3.8-0.9-6.7-2.5-8.3c-0.8-0.8-1.8-1.3-3-1.3c-5.4,0-11.5,1.6-15.7,13.8l-0.1,0.2
	l-0.1,0.2c0,0,0,0,0,0s-0.6,1.6-0.8,3.6c-0.1,1.1-0.3,2.1-0.5,2.9c-0.2,0.9-0.3,1.4-0.3,1.7c1.2,1.1,4.4,3.2,8.5,4H1179.6z"/>
<path class="st57" d="M1210.7,606h7.5c2,0.6,3.1,3,3.1,6.9v15.4v20.6l-1.4,89.9c0,0-0.4,3.9-3.5,4.7c-3,0.9-6.3,0-6.3,0
	c-1.3,0-2.3-3.2-2.9-9.7h-3.2c-6.1,6.5-14.3,9.7-24.4,9.7c-14.9,0-25.1-6.2-30.7-18.6c0,0-2.1-5.4-2.6-8.1c-0.6-2.6-1-9,0-14.7
	c4.5-19.3,19.4-32.2,36.1-32.2c0,0,4.1-0.5,8.8,0c4.7,0.5,10.1,2.3,16.2,6.9c0,0,0-65,0-67.5C1207.4,606.8,1210.7,606,1210.7,606z
	 M1161.6,708.6c-0.4,3.3-1.7,6.1,0,10.1c1.2,2.8,8.1,8.2,16.7,9.4h1.4c11.9,0,23.6-11.9,23.6-26.4c0-12.9-7.4-19.4-15.3-19.4
	c-12,0-20.3,6.8-25,20.4C1163,702.8,1162,705.3,1161.6,708.6z"/>
<path d="M1270.1,751.9c-23.5,0-36.4-9.9-41.7-32.1c-0.2-0.8-1.2-5.2-0.9-9.5c1.4-26.1,14.3-38.3,37.6-51.6l0.2-0.1l0.2-0.1
	c5.4-2.7,12.1-4,20.7-4c20.2,0,37.7,13,39.2,29.2c1.4,8.1,0.7,16.5,0,22.1c-3.1,26.2-34,42.1-34.3,42.3c-5.7,2.7-15.3,3.6-18.1,3.8
	l-0.2,0l-0.2,0C1271.7,751.9,1270.9,751.9,1270.1,751.9z M1286.7,688.4c-23.1,6.3-25.1,16.2-25.1,25.9c0,1.4,0,4.5,9,6.8
	c7.4-1,21-13.5,22.1-24.7c0.1-1.3,0.1-4.2,0-6.1c-0.2-1.3-0.5-2-0.7-2.4c0,0,0,0-0.1,0L1286.7,688.4z"/>
<path class="st57" d="M1286.2,664.3c14.7,0,28.6,9,29.5,20.6c1.3,7.4,0.5,15.5,0,19.7c-2.2,18.6-24.3,32.4-28.8,34.6
	c-4.5,2.2-14.6,2.9-14.6,2.9c-21.4,0.5-30.1-6.7-34.3-24.5c0,0-0.9-3.6-0.7-6.7c1.1-21.5,10.8-31.2,32.6-43.6
	C1273.8,665.3,1279.3,664.3,1286.2,664.3z M1251.8,714.3c0,8.5,6,14,17.9,16.7c12.9,0,31.2-17.7,32.8-33.5c0.3-2.8,0-8.1,0-8.1
	c-1.1-7.5-4.7-11.2-10.8-11.2l-6.6,0.4C1260.2,685.1,1251.8,696.7,1251.8,714.3z"/>
<path d="M1368.7,843.4l-0.2,0c-14.2-0.7-27.4-6.8-37.4-17.3c-10.7-11.3-16.3-26.1-16.3-43.1c0-11.2,6.9-38.1,23.9-38.4l0.6,0
	l0.6,0.1c9.6,1.1,16.8,8.5,16.6,16.8c-0.1,3.1-1.4,5.6-2.5,7.7c-1.8,3.4-4.1,7.7-3,16c2,9.9,9.1,18.4,15.2,18.4h1.6
	c13-0.6,16.4-3.5,17.8-5.6c2.5-3.8,3.1-11.4,3.1-22.4l0.2-25.2c-5.2,1.5-11.4,2.7-17.5,2.7c-0.7,0-1.3,0-2,0
	c-9.2-0.4-20.6-5.4-29.9-13.1c-11.2-9.3-17.4-20.9-17.4-32.7v-3.7c0-30.9,22.1-54.2,51.3-54.2c2.3,0,4.7,0.2,7,0.5
	c3.2,0.4,6.7,1,9.8,1.5c1.4-2.5,4-5.2,9.2-6.3c2.6-0.6,5.8-0.9,8.8-0.9c3.2,0,6,0.3,8.4,1c9.2,2.6,10.2,14,10.8,20.7
	c0.7,7.4,0.9,18.1,0.9,35.8v73.9c0,36.6-13.3,58.2-40.6,65.9l-0.6,0.2l-0.6,0.1c-0.4,0.1-10.7,1.6-17.6,1.6L1368.7,843.4z
	 M1355.8,706.5c1.7,3.7,10.6,9.7,22.3,9.7c2.8,0,10.1,0,14.3-17.8l0.3-3c-0.3-4.6-6.1-11-18.5-11.7c-2.9,0.1-9,1.5-13.5,6.3
	C1357,693.8,1355.4,699.4,1355.8,706.5z"/>
<path class="st57" d="M1401.6,654.8c3.1-0.7,8.8-1.1,12.6,0s4.6,15.7,4.6,47.1v73.9c0,32.3-10.4,50-33.4,56.4c0,0-10.2,1.5-16.4,1.5
	c-22.8-1.1-44.4-20-44.4-50.5c0-10.3,6.3-28.5,14.2-28.6c4.3,0.5,7.9,3.6,7.8,6.7c-0.1,3.1-7.6,9.5-5.4,25.7
	c2.6,13.4,12.7,26.7,24.9,26.7h1.8c28.1-1.3,30.5-12.6,30.5-37.8l0.4-39.3c0,0-15.4,7.6-29,7s-37.8-16.4-37.8-36v-3.7
	c0-27.8,21.2-47.4,47.3-44c7.7,1,17.3,2.9,17.3,2.9s0.5-2.3,1.3-4.2C1398.8,656.5,1398.4,655.5,1401.6,654.8z M1346.1,708.4
	c2.4,9.1,16.4,17.6,31.9,17.6c12,0,20.1-8.7,24-26l0.4-4.3c0-10.2-10-20.9-28.1-21.9C1364.2,673.7,1343.8,682,1346.1,708.4z"/>
<path d="M1252.4,628.1c-2.3,0-4.6-0.7-6.6-1.9c-4.8-3-6.1-8.8-6.6-12.9c-1.2-8.7-0.1-14.9,3.1-18.3l0.2-0.3l0.3-0.2
	c5.7-5.4,4.5-8.2,3.3-11.2l-3.3-7.9l7.4-4.4c1.2-0.7,5.4-3,10.1-3c2.3,0,4.5,0.5,6.4,1.6c3.5,1.9,6.5,4.4,8.4,5.9
	c4.1,3.4,5,9.5,5,14c0,3.3-0.5,9.6-4.1,14.7c0,0-11.7,16.5-11.8,16.7C1262.6,623.1,1259.1,628.1,1252.4,628.1z"/>
<path class="st58" d="M1251,617.9c-2.5-1.6-3-14.5-1.5-16.2c9.4-8.7,8.1-16.2,5.6-22.2c0,0,4.4-2.6,6.9-1.2c2.6,1.4,5.1,3.5,6.7,4.8
	s2.6,10.6-0.9,15.5l-11.4,16.1C1255.1,616.6,1253.5,619.4,1251,617.9z"/>
</svg>
