<?xml version="1.0" encoding="utf-8"?>
<!-- Generator: Adobe Illustrator 21.0.0, SVG Export Plug-In . SVG Version: 6.00 Build 0)  -->
<svg version="1.1" id="Layer_1" xmlns="http://www.w3.org/2000/svg" xmlns:xlink="http://www.w3.org/1999/xlink" x="0px" y="0px"
	 viewBox="0 0 362.4 105" style="enable-background:new 0 0 362.4 105;" xml:space="preserve">
<style type="text/css">
	.st0{fill:#A7A8AC;}
	.st1{fill:#3CA7C2;}
	.st2{fill:#FFFFFF;}
</style>
<g>
	<g>
		<path class="st0" d="M8.6,40.8c1.5-8.2,3.1-17.3,5.8-24.5C18.7,4.4,25.7,3.1,34.5,2.9c13.7-0.4,292,4.6,301.5,6.7
			c7.5,1.6,11.8,7.4,13.8,17.5c1.7,8.4,7.1,42.4,7.2,48.5c0.1,8-3,19.7-15.2,22c-10.9,2-21.7,1.8-42.4,1.7c-13.1,0-247,2-262.4,2.3
			C26.7,102,19,102.3,16.2,102C7,101.1,2.8,94.9,2.5,86.5C2.1,76.8,7.1,48.6,8.6,40.8z"/>
		<path class="st1" d="M11.3,41.8c1.5-8.2,3.1-17.3,5.8-24.5C21.4,5.4,28.4,4.1,37.2,3.9c13.7-0.4,292,4.6,301.5,6.7
			c7.5,1.6,11.8,7.4,13.8,17.5c1.7,8.4,7.1,42.4,7.2,48.5c0.1,8-3,19.7-15.2,22c-10.9,2-21.7,1.8-42.4,1.7c-13.1,0-247,2-262.4,2.3
			c-10.2,0.4-17.9,0.6-20.7,0.4c-9.2-0.9-13.4-7.1-13.7-15.5C4.8,77.8,9.8,49.6,11.3,41.8z"/>
		<path class="st2" d="M326.7,12.8c0,0,18.7-1.5,20.5,15.3C347.2,28.1,341.8,13,326.7,12.8z"/>
		<path class="st2" d="M28.7,101.1c0,0-18.6,2.4-21.3-14.3C7.4,86.8,13.6,101.6,28.7,101.1z"/>
	</g>
	<g>
		<path class="st2" d="M124.9,71.4l-3.2,0.1c-0.5,0-1.2,0-2.1-0.1c-0.9-0.1-1.4-0.4-1.7-1.1c-0.3-3.6-0.5-7.6-0.5-11.8l0.5-25.1
			c0-0.5,0.3-0.9,0.8-1.1c0.5-0.3,1.2-0.4,2-0.4s1.5,0.2,2,0.6c0.6,0.4,0.9,0.9,0.9,1.6c-0.1,1.3-0.5,4.7-1,10.1
			c-0.5,5.5-0.8,10-0.8,13.4s0.1,6.6,0.4,9.5c0.1,0,0.5,0,1.1,0c0.6,0,2.3-0.2,5-0.5c2.7-0.3,4.4-0.5,5.2-0.5c1.9,0,2.8,0.7,2.8,2
			c0,1.2-0.5,2-1.6,2.4c-1.2,0.5-2.3,0.7-3.4,0.8c-1.2,0-2.1,0.1-2.7,0.1L124.9,71.4z"/>
		<path class="st2" d="M146.5,44.8c1.5-0.9,3.2-1.3,5-1.3c1.9,0,3.5,0.8,5.1,2.3c2.8,2.9,4.3,7,4.3,12.2c0,2.7-0.8,5.6-2.3,8.5
			c-0.8,1.4-1.8,2.6-3,3.5c-1.2,0.9-2.7,1.4-4.3,1.4c-1.6,0-3.2-0.5-4.8-1.4c-1.5-0.9-2.8-2.1-3.8-3.5c-2.1-3-3.1-5.9-3.1-8.5
			c0-3.6,1.1-6.9,3.2-9.9C143.8,46.8,145,45.7,146.5,44.8z M152.5,67.2c1.2-0.6,2-1.6,2.6-3c0.6-1.4,0.9-2.8,0.9-4.3
			c0-1.5-0.1-2.8-0.3-4c-0.2-1.2-0.5-2.3-0.9-3.4c-0.4-1.1-1-2-1.8-2.8c-0.8-0.8-1.7-1.2-2.8-1.4c-1.8,0.3-3.2,1.3-4.4,3
			c-1.2,1.7-1.7,3.5-1.7,5.2c0,1.7,0.7,3.9,2.2,6.4c0.7,1.2,1.6,2.2,2.7,3C150.2,66.8,151.3,67.2,152.5,67.2z"/>
		<path class="st2" d="M186.7,75.2l0.1,4.7c0,2-0.2,3.5-0.5,4.4c-0.8,2.1-1.9,3.5-3.1,4.3c-1.7,1-4,1.6-6.7,1.6s-5.3-0.7-7.7-2.1
			c-1.2-0.6-1.9-1.4-1.9-2.2c0-0.9,0.2-1.6,0.7-2c0.5-0.4,1-0.6,1.7-0.6s1.9,0.4,3.7,1.3c1.8,0.9,3.4,1.3,4.7,1.3
			c2.9,0,4.3-2.3,4.3-6.9c0-4.6-0.1-7.9-0.2-10c-1.4,1.6-3.2,2.5-5.4,2.5c-2.2,0-4.1-0.7-5.8-2c-3.4-2.6-5-6.5-5-11.9
			s1.9-9.4,5.6-12c1.9-1.3,4.1-2,6.7-2c3.3,0,5.6,1.6,6.8,4.8c1,2.6,1.5,5.9,1.6,10c0,0.8,0,2.2,0,4c0,1.8,0,3.6,0.2,5.4
			c0.1,1.7,0.2,3.2,0.3,4.5S186.7,74.5,186.7,75.2z M181.7,59.7c0-7.5-1.8-11.3-5.5-11.3c-1.7,0-3.1,0.8-4.3,2.5
			c-1.1,1.7-1.7,3.8-1.7,6.3c0,2.5,0.5,4.6,1.5,6.1c1,1.6,2.7,2.4,5,2.4s3.7-0.5,4.2-1.6C181.4,63.2,181.7,61.7,181.7,59.7z"/>
		<path class="st2" d="M197.4,44.8c1.5-0.9,3.2-1.3,5-1.3c1.9,0,3.5,0.8,5.1,2.3c2.8,2.9,4.3,7,4.3,12.2c0,2.7-0.8,5.6-2.3,8.5
			c-0.8,1.4-1.8,2.6-3,3.5c-1.2,0.9-2.7,1.4-4.3,1.4c-1.6,0-3.2-0.5-4.8-1.4c-1.5-0.9-2.8-2.1-3.8-3.5c-2.1-3-3.1-5.9-3.1-8.5
			c0-3.6,1.1-6.9,3.2-9.9C194.7,46.8,195.9,45.7,197.4,44.8z M203.4,67.2c1.2-0.6,2-1.6,2.6-3c0.6-1.4,0.9-2.8,0.9-4.3
			c0-1.5-0.1-2.8-0.3-4c-0.2-1.2-0.5-2.3-0.9-3.4c-0.4-1.1-1-2-1.8-2.8c-0.8-0.8-1.7-1.2-2.8-1.4c-1.8,0.3-3.2,1.3-4.4,3
			c-1.2,1.7-1.7,3.5-1.7,5.2c0,1.7,0.7,3.9,2.2,6.4c0.7,1.2,1.6,2.2,2.7,3C201,66.8,202.2,67.2,203.4,67.2z"/>
		<path class="st2" d="M230.8,67.2c-2.8,2.9-5.7,4.4-8.5,4.4c-1.4,0-2.6-0.5-3.6-1.5c-1-1-1.8-2.4-2.4-4c-1-3.2-1.6-6.4-1.6-9.5
			c0-3.1,0.2-6.6,0.5-10.6c0.2-0.7,0.5-1.3,1-1.7c0.5-0.4,1-0.7,1.6-0.7c1.1,0,1.8,0.6,2,1.7c-0.2,2.7-0.4,5.4-0.4,7.9
			c0,2.6,0,4.4,0.1,5.5c0.2,2.9,1.1,5.8,2.9,8.7c1.6-0.4,3.1-1.1,4.4-2.2c1.4-1.1,2.4-2.3,3.1-3.7c-0.5-5.8-0.7-10.7-0.7-14.8
			c0-0.8,0.3-1.6,0.8-2.2c0.5-0.6,1.2-0.9,1.9-0.9s1.4,0.5,1.9,1.6c0,1.9,0.2,6.5,0.5,13.7c0.1,1,0.3,2.9,0.8,5.6
			c0.4,2.7,0.7,4.4,0.7,5s-0.3,1.3-0.9,1.9c-0.6,0.6-1.3,1-2,1s-1.3-0.5-1.6-1.4L230.8,67.2z"/>
		<path class="st2" d="M249.7,30.5l-0.3,7.3c0,0.5,0.1,2.4,0.2,5.7c2.4,0,4.7-0.1,7-0.2c1.2,0.3,1.8,1,1.8,2.1s-0.4,1.9-1.2,2.4
			c-0.8,0.5-1.6,0.7-2.4,0.8c-0.8,0-1.4,0.1-1.9,0.1c-0.4,0-1,0-1.7,0c-0.7,0-1.2,0-1.5,0c0,0.4,0.1,1.5,0.2,3.3s0.1,3.1,0.2,3.6
			c0.3,5.4,0.8,9.9,1.4,13.3c-0.2,0.8-0.5,1.4-1.1,2c-0.6,0.6-1.2,0.9-1.9,0.9c-0.7,0-1.2-0.5-1.6-1.4c-0.6-3.6-1-7.8-1.2-12.7
			s-0.4-7.9-0.4-8.9c-0.6,0-1.5,0.1-2.9,0.1s-2.5-0.1-3.4-0.4c-1-0.2-1.4-0.8-1.4-1.7c0-2,1.2-3,3.5-3l2.9,0.1c0.5,0,0.9,0,1.1-0.1
			c-0.2-4-0.2-6.1-0.2-6.2c0-0.3,0-0.9,0.1-1.9c0-1,0.1-2.4,0.2-4.3c0.2-0.7,0.5-1.3,1.1-1.7c0.6-0.5,1.2-0.7,1.8-0.7
			C248.9,28.7,249.5,29.3,249.7,30.5z"/>
	</g>
</g>
</svg>
