<?xml version="1.0" encoding="utf-8"?>
<!-- Generator: Adobe Illustrator 21.0.0, SVG Export Plug-In . SVG Version: 6.00 Build 0)  -->
<svg version="1.1" id="Layer_1" xmlns="http://www.w3.org/2000/svg" xmlns:xlink="http://www.w3.org/1999/xlink" x="0px" y="0px"
	 viewBox="0 0 731.2 812.1" style="enable-background:new 0 0 731.2 812.1;" xml:space="preserve">
<style type="text/css">
	.st0{fill:#A7A8AC;}
	.st1{fill:#B8D432;}
	.st2{fill:#F1F1F2;}
	.st3{fill:#343433;}
	.st4{fill:#B56F29;}
	.st5{clip-path:url(#SVGID_2_);fill:#F69220;}
	.st6{fill:#FFFFFF;}
</style>
<g>
	<g>
		<path class="st0" d="M619.8,601.1c-111.9,73.3-352.7,85.2-469.4,15.7C33.7,547.3,22.7,241.3,96.1,136.9
			c73.4-104.4,375.7-95.4,512.2-21.5C716.8,174,731.7,527.8,619.8,601.1z"/>
		<path class="st1" d="M604.2,585.4c-111.9,73.3-352.7,85.2-469.4,15.7C18,531.7,7.1,225.6,80.5,121.2
			c73.4-104.4,375.7-95.4,512.2-21.5C701.1,158.4,716.1,512.1,604.2,585.4z"/>
		<path class="st2" d="M586,567.7c-103.7,67.9-326.7,78.9-434.8,14.6C43.1,517.9,32.9,234.5,100.9,137.7c68-96.7,348-88.4,474.5-20
			C675.8,172.2,689.7,499.8,586,567.7z"/>
		<path class="st2" d="M586,567.7c-103.7,67.9-326.7,78.9-434.8,14.6C43.1,517.9,32.9,234.5,100.9,137.7c68-96.7,348-88.4,474.5-20
			C675.8,172.2,689.7,499.8,586,567.7z"/>
	</g>
	<g>
		<path d="M464.4,88.8c0,0,127.2-71.5,137.8-68.4c10.6,3.1,91.8,101.6,73.7,128c-18.1,26.5-46.4,20.8-55.2,4.4
			c-8.8-16.3-24.7-87.9-31.4-90.1c-6.6-2.2-112.2,37.1-112.2,37.1L464.4,88.8z"/>
		<path class="st3" d="M248.5,104.6c0,0-60.6-103.7-78.7-104.6C151.8-0.9,79.3,82.1,86,109.1c6.6,26.9,23.8,33.6,45,18.5
			c21.2-15,37.5-72,46.4-74.6c8.8-2.6,68,65.8,68,65.8L248.5,104.6z"/>
		<path class="st4" d="M195.9,330.8c0,0-68.2,27.1-80.8,17.2c-12.6-9.9-27.2-53.9-21.9-61.4c5.3-7.5,31.8-13.5,35.8-28.7
			c4-15.2-12.6-39.7-27.5-36.4c-14.9,3.3-25.8,47.7-32.1,49c-6.3,1.3-7.3-44.4-23.5-45c-16.2-0.7-41.4,26.5-31.5,44.1
			c9.9,17.6,38.4,5.6,37.8,20.5c-0.7,14.9-40.1-3.6-48.4,10.3c-8.3,13.9-3.6,46,18.9,45.7c22.5-0.3,38.1-38.8,44.4-31.5
			c6.3,7.3-3.6,60.6,15.6,72.2c19.2,11.6,105-35.4,105-35.4L195.9,330.8z"/>
		<path class="st4" d="M554.8,394.4c0,0,101.7-49.5,111.7-40.9c10,8.6,9.5,24.9,27.8,27.6c18.3,2.7,34.7-19.5,30.7-35.1
			c-4-15.7-29.8,1.5-31.4-11.8c-1.6-13.3,36.1-11.9,37.5-29.3c1.4-17.4-23-36.5-32.9-34.1c-9.9,2.4-13.4,31.8-25.9,29.9
			c-12.5-1.9,8.4-24.7,1.5-35.3c-6.9-10.6-32.7-14.7-42.4,4.8c-9.7,19.5,9,42.5,4,50.6c-4.9,8-88.4,56.8-88.4,56.8L554.8,394.4z"/>
		<g>
			<defs>
				<path id="SVGID_1_" d="M586.9,567.2c-103.7,67.9-326.7,78.9-434.8,14.6C44,517.4,33.8,233.9,101.8,137.2
					c68-96.7,348-88.4,474.5-20C676.7,171.6,690.6,499.3,586.9,567.2z"/>
			</defs>
			<clipPath id="SVGID_2_">
				<use xlink:href="#SVGID_1_"  style="overflow:visible;"/>
			</clipPath>
			<path class="st5" d="M256.9,162.5c0,0-5.3,57.4-37.1,113c-31.8,55.6-63.6,92.4-68.9,173.8c-5.3,81.4,23.8,173.2,83.9,183.8
				c60,10.6,227.8,17.7,267.6,0c39.7-17.7,87.4-91.6,70.7-194.6c-16.8-103-67.1-167.5-83.9-213.4C472.3,179.3,475,144,475,144
				s17.7-24.7,11.5-40.2c-6.2-15.5-44.6-50.8-65.4-42.9c-20.7,7.9-49.3,42.4-57.7,42.9c-8.5,0.4-32.3-36.4-57.1-37.4
				c-24.7-1-58.3,22.9-63.6,37.4C237.4,118.3,256.9,162.5,256.9,162.5z"/>
		</g>
		<ellipse class="st4" cx="363.4" cy="292.5" rx="110" ry="118.6"/>
		<ellipse cx="363.4" cy="292.5" rx="81.6" ry="79.6"/>
		<path class="st3" d="M400.4,253.5c0,12.7-16.6,22.9-37,22.9c-20.4,0-37-10.3-37-22.9c0-12.7,16.6-23,37-23
			C383.8,230.5,400.4,240.8,400.4,253.5z"/>
		<path class="st6" d="M487,158.1c0,34.1-27.7,61.8-61.8,61.8c-34.1,0-61.8-27.7-61.8-61.8c0-34.1,27.7-61.8,61.8-61.8
			C459.3,96.3,487,124,487,158.1z"/>
		<path d="M441,158.1c0,8.7-7.1,15.8-15.8,15.8c-8.7,0-15.8-7.1-15.8-15.8c0-8.7,7.1-15.8,15.8-15.8
			C433.9,142.3,441,149.4,441,158.1z"/>
		<path class="st6" d="M239.7,158.1c0,34.1,27.7,61.8,61.8,61.8c34.1,0,61.8-27.7,61.8-61.8c0-34.1-27.7-61.8-61.8-61.8
			C267.4,96.3,239.7,124,239.7,158.1z"/>
		<path d="M285.7,158.1c0,8.7,7.1,15.8,15.8,15.8c8.7,0,15.8-7.1,15.8-15.8c0-8.7-7.1-15.8-15.8-15.8
			C292.8,142.3,285.7,149.4,285.7,158.1z"/>
		<path d="M323.4,442c-0.2,0-0.4,0-0.6,0c-1.4-0.1-33.4-3.7-64.6-23.7c-36.2-23.2-50.3-51.3-50.9-52.4c-1.3-2.6-0.2-5.8,2.4-7.1
			c2.6-1.3,5.8-0.2,7.1,2.4c0.1,0.3,13.6,26.7,47.1,48.2c29,18.6,59.6,22,60,22c2.9,0.3,5,2.9,4.7,5.8
			C328.4,440,326.1,442,323.4,442L323.4,442z"/>
	</g>
</g>
<path d="M76.4,727.9c-20.2,0-30.4-10.8-35.3-19.8c-6.2-11.2-3.1-28.9,3.1-40.6c4.9-9.3,11.8-14.9,19.4-15.6c0.9-0.1,1.8-0.1,2.8-0.1
	c8,0,19.6,2.9,30.9,5.8c7.4,1.9,16.5,4.2,19.8,4.2l0.1,0c3.6-0.2,6.4-3.6,9.4-7.7c0,0,0-0.1,0.1-0.1c0.1-1-0.2-2.5-0.5-3.3
	c-21.5-2.4-47.7-26.1-55.2-33.4c-29.6-28.4-37.3-50.7-39.3-59l-0.2-0.7l-2.3-25.1c-6.3-65,13.6-87.4,63.5-116.1
	c12.7-7.2,29.5-11.3,46.1-11.3c8.1,0,15.9,1,23,2.9c25.4,6.8,42.9,30.3,46.9,63c3.5,28.8,0.8,51.3-8.4,69
	c-9.5,18.4-25,29.3-37.4,36.7c-3.4,2-7.8,3.1-12.5,3.1c-11.3,0-24.6-6.2-28.9-20c-5.5-17.8,5-32.3,17.8-38.8
	c4.6-2.3,9.4-8.2,12.1-15c1.7-4.1,1.2-10.1,1-11.5l-0.1-0.5l0-0.5c-0.9-19.1-6-24.3-23.7-24.3c-3.3,0-7.2,0.2-11.4,0.7
	c-8.7,1.1-29.5,15.4-31.3,35.1l0,0.3l0,0.3c-0.6,4,1.3,14.2,2.7,19.8l0.2,0.6l0.1,0.6c1.7,14,10.9,30.7,24.7,44.7
	c11.3,11.5,30.8,26.4,59.3,32.6l0.3,0.1l0.3,0.1c19.9,5.7,22.8,31.8,23.8,40.3c3.3,27.4-9.1,49.4-35.8,63.6
	c-22.2,11.8-49.7,16.3-68.5,18.6l-8.1,1C81.7,727.7,79,727.9,76.4,727.9z"/>
<path class="st1" d="M159,417.7c19.4,5.2,35.7,23.8,39.5,54.4c7,57.4-13,79-41,95.8c-6.5,3.9-22.7,1.5-26.6-11.2
	c-4.9-16,8.7-24.7,12.7-26.7c8-4,13.9-12.8,16.9-20.3c3-7.5,1.6-16.8,1.6-16.8c-1.2-27.3-12.6-36.9-46.4-33.2
	c-13.6,1.7-38,19.7-40.2,44.2c-1.1,7.9,2.9,23.8,2.9,23.8c3.9,31.7,38.9,74.4,91.9,85.9c11.7,3.4,15.1,19,16.6,31.7
	c6.4,53-55.9,66.1-95.5,71l-8.1,1c-16,2-27-2.4-33.4-14.1s2.7-40.1,14.6-41.3c11.9-1.1,43.9,10.5,53.3,9.8
	c9.3-0.6,14.5-8.6,17.6-12.7c2.8-3.7,1.7-17.8-8-18.5c-25.5-2.6-77.9-50.8-86-84.7l-2.2-24.3c-5.8-60.3,11.2-79.3,58.4-106.5
	C114.5,415.6,139.6,412.5,159,417.7z"/>
<path d="M243.6,812.1c-6.3,0-12.4-3.5-17.1-9.9c-3.7-5-6-11-6.1-16.2c-6.2-84.1-8.1-119.9-10.6-168.3c-1.6-30.4-3-59.9-4-83.1
	c-1.5-34.8-1.5-34.9-0.5-37.4c1-2.7,3.2-6.3,8.3-8.8c1.3-0.7,3.3-1.6,13.1-1.6c7.9,0,10.1,0.8,11.2,1.2c7.3,2.6,13.3,11.1,13.3,18.9
	v7.2c8.4-2.1,18-4.6,19.4-4.9c3.9-0.9,15.3-1.6,20.1-1.9l0.3,0h0.3c22.9,0,38.3,7.2,54.2,18.1l0.3,0.2l0.3,0.2
	c17.9,14,26.9,34.4,26.9,60.6c0,22.7-7.5,41.1-22.2,54.6c-14.1,12.9-35.1,21.2-62.4,24.6l-0.6,0.1h-0.6c-24.3,0-26,7.8-26.1,12
	c10.9,58.6,15.8,77.7,15.8,107.8v0.7l-0.1,0.7c-3.3,23.4-16.1,25.2-19.9,25.2H243.6z M257.7,601.9c2.4,11.8,10.9,13.9,32.7,13.9
	c8.1,0,15.1-2.8,19.8-7.9c5-5.5,7.2-13.7,6.4-23.7c-3.6-26.1-14.3-31.2-31.3-31.2c-0.1,0-0.3,0-0.4,0c-18.2,3.2-22.3,10.8-23.6,13.3
	c-3.5,6.6-3.5,15.5-3.5,23.3V601.9z"/>
<path class="st1" d="M234.4,497.5c3.3,1.2,6.6,5.9,6.6,9.4s0,20.2,0,20.2s29.4-7.6,31.8-8.1c3.4-0.8,18.4-1.7,18.4-1.7
	c19,0,32.4,5.4,48.6,16.4c15.4,12.1,23,29.6,23,52.7c0,39.7-25.2,62.8-75.7,69.1c-24.1,0-36.2,7.7-36.2,23
	c11,58.5,15.8,77.6,15.8,106.9c-1.5,11-5.8,16.5-9.9,16.5c-4.1,0-6.6,0-13.2,0s-13.2-10.1-13.2-16.5
	c-11-148.3-16.4-283.1-15.8-284.7c0.6-1.7,1.9-2.6,3.3-3.3C219.3,496.9,231.8,496.6,234.4,497.5z M247.6,589.7v13.2
	c4,22.4,23.8,23,42.8,23c20.2,0,38.7-13.8,36.2-42.8c-3.9-28.6-16.8-40.6-42.7-40.1C247.9,548.9,247.6,571.4,247.6,589.7z"/>
<path d="M456.4,704.6c-40.1,0-69.1-22-81.7-61.9l-0.2-0.7l-0.1-0.7c-0.1-0.8-3-18.5-3-30.5c0-24.1,10.5-50.9,28.1-71.9
	c19.7-23.4,45-36.3,71.4-36.3c18.6,0,33.7,7.1,44.8,21.1c10.4,13.1,17,31.8,20.1,57l0.1,0.6v17.9c0,27.2-21.9,44.7-55.7,44.7l-1.2,0
	l-0.5-0.1c-0.2,0-24.8-2.8-38.5-2.8l-0.7,0c-4.1,0-6.6,0.2-8,0.4c0,0,0,0,0,0c0.2,3.9,3.3,8.6,8.2,12.4c6.1,4.7,14,7.3,22.1,7.3
	c0.2,0,0.4,0,0.6,0c11.9-0.2,21.5-8.3,21.9-8.7c3-2.6,6.6-2.9,9.1-2.9c0.8,0,1.5,0,1.6,0.1l0.2,0l0.2,0
	c10.6,1.2,17.5,11.8,17.6,26.9c0.1,0.9,0.1,2.4,0,4.2c-0.8,9.3-8.1,21-38,23.6l-0.4,0H456.4z M429.1,591.4c0.7,5.3,9.1,8.9,21.9,9.4
	c2.1,0.1,4.1,0.1,6.1,0.1c0,0,0,0,0,0c21.6,0,28.2-4.2,29.6-5.3v-10.1c-2.1-21.5-11.2-30.7-30.3-30.7h-2.9
	C446.5,554.6,433.9,566.3,429.1,591.4z"/>
<path class="st1" d="M470.8,512.8c30.9,0,49.1,23.1,54.8,69.2v2.9v2.9v8.7v2.9c0,21-16.9,34.8-46.1,34.6c0,0-26.2-3-40.4-2.9
	c-14.2,0.1-18.4,1.5-18,10.9c0.6,14.2,18.6,29.8,41.1,29.4c15.7-0.2,27.7-10.5,28.3-11.1c0.7-0.6,3.4-0.4,3.4-0.4
	c5.2,0.6,8.7,7.7,8.7,17.3c0,0,0.1,1.3,0,2.9c-0.8,9.6-15.6,13.2-28.8,14.4h-17.3c-31.1,0-59.4-14.6-72.1-54.8
	c0,0-2.9-17.6-2.9-28.8C381.4,567.3,420.4,512.8,470.8,512.8z M418.9,590.7c0,11,10.4,19.5,31.7,20.2c32.6,1.1,46.1-6.1,46.1-14.4
	v-11.5c-2.5-26.9-16-40.4-40.4-40.4h-2.9C440.4,544.5,424.3,560.8,418.9,590.7z"/>
<path d="M579.4,738.5c-6.6,0-15.2-0.2-16.3-0.3c-15.3-0.2-18.3-22.1-19.7-32.6c-2.2-16.3-3.4-40.9-3.4-73V412
	c0-17,24.2-21.3,34.6-23.1c0.6-0.1,2.1-0.4,3.8-0.4c1.8,0,3.5,0.3,5,0.9c3.8,1.5,10.9,8.5,12.4,12.4c1.1,2.8,1,5.8,0.7,7.8v143.7
	l6.6,121.8v3.5c0.6,43.3,0.2,44.3-0.7,46.5c-1.1,2.9-6.8,11-13.5,12.7C587.4,738.3,585.6,738.5,579.4,738.5z"/>
<path class="st1" d="M576.5,398.9c0,0,2.2-0.4,3.3,0c1.1,0.4,6.1,5.4,6.6,6.6c0.5,1.2,0,3.3,0,3.3v6.6V468v36.2v49.4l6.6,121.8v3.3
	c0,0,0.5,41.4,0,42.8c-0.5,1.4-4.4,6-6.6,6.6c-2.2,0.6-23,0-23,0c-8.8,0-13.2-31.8-13.2-95.5V412
	C550.1,406.3,558.9,401.9,576.5,398.9z"/>
<path d="M647.7,738.5c-6.6,0-15.2-0.2-16.3-0.3c-15.3-0.2-18.3-22.1-19.7-32.6c-2.2-16.3-3.4-40.9-3.4-73V412
	c0-17,24.2-21.3,34.6-23.1c0.6-0.1,2.1-0.4,3.8-0.4c1.8,0,3.5,0.3,5,0.9c3.8,1.5,10.9,8.5,12.4,12.4c1.1,2.8,1,5.8,0.7,7.8v143.7
	l6.6,121.8v3.5c0.6,43.3,0.2,44.3-0.7,46.5c-1.1,2.9-6.8,11-13.5,12.7C655.7,738.3,653.9,738.5,647.7,738.5z"/>
<path class="st1" d="M644.7,398.9c0,0,2.2-0.4,3.3,0c1.1,0.4,6.1,5.4,6.6,6.6c0.5,1.2,0,3.3,0,3.3v6.6V468v36.2v49.4l6.6,121.8v3.3
	c0,0,0.5,41.4,0,42.8c-0.5,1.4-4.4,6-6.6,6.6c-2.2,0.6-23,0-23,0c-8.8,0-13.2-31.8-13.2-95.5V412
	C618.4,406.3,627.2,401.9,644.7,398.9z"/>
</svg>
