<?xml version="1.0" encoding="utf-8"?>
<!-- Generator: Adobe Illustrator 20.1.0, SVG Export Plug-In . SVG Version: 6.00 Build 0)  -->
<svg version="1.1" id="Layer_1" xmlns="http://www.w3.org/2000/svg" xmlns:xlink="http://www.w3.org/1999/xlink" x="0px" y="0px"
	 viewBox="0 0 912 969" style="enable-background:new 0 0 912 969;" xml:space="preserve">
<style type="text/css">
	.st0{fill:#231F20;}
	.st1{fill:#F69220;}
	.st2{fill:#A7A8AC;}
	.st3{fill:#B8D432;}
	.st4{fill:#F1F1F2;}
	.st5{fill:#343433;}
	.st6{fill:#B56F29;}
	.st7{clip-path:url(#SVGID_2_);fill:#F69220;}
	.st8{fill:#FFFFFF;}
</style>
<path class="st0" d="M349.9,934.2c-13.1,0-23.5-3.4-30.8-10c-7.6-6.9-11.5-16.6-11.5-29V856c0-11.9,3.6-21.4,10.8-28.3
	c7.1-6.8,16.9-10.3,29-10.3h23.7c0.1,0,0.2,0,0.3,0c1.5,0,5.1,0.5,7.7,3.6c2,2.4,2.7,5.8,1.9,9.1l-4.7,23c-0.3,2.7-1.9,5.2-4.3,6.8
	c-0.6,0.4-1.1,0.7-1.7,0.9c1.4,1.6,2.1,3.4,2.4,4.7c0.2,0.7,0.2,1.3,0.3,2l0.1,17.2c0.1,2.3-0.3,5.3-2.6,7.7
	c-0.1,0.1-0.1,0.1-0.2,0.2c1.6,1.2,2.8,2.9,3.7,5.2c0.1,0.2,0.1,0.4,0.2,0.6l6.4,21.9c0.5,1.8,1.2,5.4-0.6,8.7c-1,1.9-3.7,5-9.9,5
	H349.9z"/>
<path class="st0" d="M170.8,933.3c-3,0-5-1.2-6.2-2.1c-2.4-1.9-3.6-4.9-3.5-8.3v-60c0,0-8.9,0-8.9,0c-1.7,0-4.3-0.4-6.5-2.1
	c-3-2.3-3.7-5.5-3.8-6.8l-3-24.8c-0.5-3,0.2-6.9,3.4-9.5c1.8-1.4,4-2.2,6.4-2.2c0.2,0,0.5,0,0.7,0c0,0,69.4,0,69.4,0
	c3,0,5.5,0.8,7.4,2.2c3.1,2.4,4.4,6.4,3.5,10.3l-3.1,23.2c-0.2,1.5-0.8,4.2-3.2,6.5c-2,2-4.8,3.1-7.5,3.1c0,0-8.2,0-8.2,0v54.7
	c0.1,2.3-0.3,5.3-2.7,7.8c-0.5,0.6-2.2,2.3-6.2,3.1c0,0-25.8,4.8-25.8,4.8C172.5,933.2,171.7,933.3,170.8,933.3z"/>
<path class="st0" d="M233.2,929.5c-3,0-5-1.2-6.1-2.2c-2.1-1.9-3.2-4.5-3.1-7.9v-92.3c0-2.5,0.6-4.6,2-6.3c1.7-2.2,4.4-3.4,7.2-3.4
	c0.8,0,1.5,0.1,2.1,0.2l27.1,4.4c0.1,0,0.2,0,0.3,0.1c1.3,0.3,3.7,1,5.5,3.2c0.2,0.3,0.5,0.6,0.7,0.9c1.5-1.8,3.6-3.1,6-3.4
	l27.2-5.1c0.5-0.1,1.2-0.2,2-0.2c2.4,0,4.7,0.9,6.4,2.5c1.9,1.8,2.9,4.2,2.8,6.7v92.5c0.1,3.4-0.9,6.1-3,8c-1.2,1.1-3.2,2.3-6.3,2.3
	c-1,0-1.9-0.1-2.4-0.2l-26.5-5.4c-2.7-0.4-4.9-1.7-6.3-3.6c-0.1,0.1-0.2,0.3-0.3,0.4c-1.4,1.8-3.4,3-6.1,3.7c-0.1,0-0.3,0.1-0.4,0.1
	c0,0-26.2,4.8-26.2,4.8C235.3,929.4,234.3,929.5,233.2,929.5z"/>
<path class="st0" d="M491.5,934.2c-1.3,0-28.7-0.1-39.4-0.2c-2.8,0-3.7-0.1-4.1-0.1c-4.5-0.2-8.1-3.9-8.1-8.4v-99.5
	c0-4.7,3.8-8.5,8.5-8.5h38.5c18.8,0,33.9,4.5,44.9,13.3c13.4,10.8,20.2,25.6,20.2,43.9c0,17.3-5.7,31.7-17.1,42.8
	C523.6,928.6,509,934.2,491.5,934.2z M487.5,887.8c16,0,17.4-6.8,17.4-13.1c0-4.4,0-11.8-16.9-11.8h-1.5v25H487.5z"/>
<path class="st0" d="M604,936.1c-16.7,0-31.1-6-42.8-17.7c-11.8-11.8-17.7-26.2-17.7-42.8c0-16.8,6-31.3,17.9-43
	c11.8-11.6,26.5-17.6,43.6-17.6c16.3,0,30.5,6,42.2,17.9c11.6,11.8,17.5,26.2,17.5,42.6c0,16.7-5.9,31.2-17.7,42.9
	C635.2,930.1,620.8,936.1,604,936.1z M604,861.1c-3.7,0-6.7,1.3-9.4,4.1c-2.8,2.9-4.1,6.2-4.1,10.3c0,4.1,1.3,7.4,4.1,10.3
	c2.7,2.8,5.7,4.1,9.4,4.1c3.8,0,6.8-1.3,9.4-4c2.7-2.9,4-6.1,4-10.3c0-4.2-1.3-7.5-4-10.3C610.8,862.4,607.8,861.1,604,861.1z"/>
<path class="st0" d="M711.9,936.1c-15.9,0-29.5-6.1-40.5-18.1c-10.8-11.8-16.3-26.3-16.3-43.1c0-17,5.6-31.3,16.8-42.7
	c11-11.2,24.4-17.1,41-18c1.5-0.1,4-0.2,7.1-0.2c7.6,0,18.8,0.6,28.3,3.5c3.4,1,5.8,3.1,7.2,6.2c1.6,3.5,0.9,6.8,0.6,8.1
	c0,0.1-6.1,21-6.1,21c-0.5,1.9-2,5.9-6,7.6c-0.8,0.3-1.6,0.6-2.4,0.7h3.5c0.2,0,0.4,0,0.6,0c2.7,0,5.1,0.6,7,1.8
	c2.2,1.4,4.7,4.1,4.6,9.4l0,0.2c0,3.8,0,6.9,0,9.9c0,3.5,0,6.8,0,10.9c0,12.1-4.5,22.4-13.4,30.6C735.2,932,724.4,936.1,711.9,936.1
	z M723.8,858.6c-1.7,0-3.6,0.1-5.7,0.3c-4.1,0.4-8.1,2.5-11.9,6.2c-2.8,2.7-4.1,6.1-4.1,10.8c0,4.8,1.2,8.3,3.7,10.8
	c0.1,0.1,0.2,0.2,0.4,0.3c-0.2-0.8-0.2-1.6-0.2-2.3v-12c-0.2-2.7,0.6-6.1,3.6-8.7c2.2-1.9,4.9-3,7.9-3c0.2,0,0.3,0,0.5,0h20.4
	c-1-0.1-1.7-0.4-2.1-0.5l-0.1,0C731.1,859.1,727.7,858.6,723.8,858.6z"/>
<path class="st1" d="M363.9,866.4c0.4,0.3,0.6,1.2,0.6,1.2l0.1,17.5c0,0,0.1,1.2-0.2,1.6c-0.3,0.4-1.9,0.3-1.9,0.3H352
	c-2.6,0-4.5,0.4-5.6,1.2c-1.1,0.8-2.4,3.1-2.4,4.9c0,2.1,1.3,4.6,2.4,5.2c1.1,0.7,3.4,1,6.9,1h9.9c0,0,1.7,0,2.1,0.2
	c0.4,0.3,0.8,1.4,0.8,1.4l6.4,21.9c0,0,0.5,1.5,0.1,2.3c-0.4,0.6-2.5,0.6-2.5,0.6h-20c-11,0-19.4-2.6-25.2-7.9
	c-5.8-5.2-8.7-12.8-8.7-22.7V856c0-9.6,2.7-17,8.2-22.2c5.5-5.3,13.2-7.9,23.2-7.9h23.7c0,0,1.1,0,1.5,0.6c0.5,0.5,0.1,1.7,0.1,1.7
	l-4.9,23.7c0,0,0.1,0.5-0.6,1c-0.5,0.3-1.2,0.3-1.2,0.3h-11.9c-5.1,0-8.3,3-8.4,6.3c-0.1,2.7,1.3,4.5,2.5,5.2
	c1.2,0.8,3.4,1.1,6.5,1.1h7.7C362.7,865.9,363.6,866,363.9,866.4z"/>
<path class="st1" d="M150.9,854.1c0.4,0.3,1.4,0.3,1.4,0.3h15.6c0,0,0.6-0.1,1.2,0.1c0.7,0.2,0.5,1.2,0.5,1.2V923
	c0,0-0.1,1.2,0.4,1.6c0.4,0.4,1.4,0.2,1.4,0.2L197,920c0,0,1.4-0.3,1.7-0.7c0.4-0.4,0.3-1.6,0.3-1.6v-62.3c0,0-0.1-0.4,0.4-0.8
	c0.5-0.4,1.4-0.2,1.4-0.2h14.8c0,0,0.9,0,1.7-0.7c0.7-0.6,0.7-1.5,0.7-1.5l3.2-23.8c0,0,0.4-1.4-0.4-2.1c-0.6-0.5-2.3-0.4-2.3-0.4
	h-69.7c0,0-0.8-0.1-1.3,0.3c-0.7,0.5-0.4,1.7-0.4,1.7l3.1,25C150.2,852.9,150.3,853.7,150.9,854.1z"/>
<path class="st1" d="M275,859.5c-0.4,0.5-1.6,0.4-1.6,0.4H264c0,0-1.3,0.1-1.7-0.2c-0.4-0.3-0.3-1.4-0.3-1.4v-26.8
	c0,0,0-0.4-0.2-0.7c-0.3-0.3-0.8-0.4-0.8-0.4l-27.3-4.5c0,0-0.8-0.2-1.1,0.1c-0.2,0.2-0.2,1.1-0.2,1.1v92.5c0,0,0,1.2,0.2,1.4
	c0.3,0.2,1.6,0,1.6,0l26-4.8c0,0,1.1-0.3,1.4-0.6c0.3-0.4,0.3-1.2,0.3-1.2V887c0,0-0.1-1.3,0.2-1.7c0.3-0.3,1.7-0.2,1.7-0.2h9.6
	c0,0,1.1-0.1,1.5,0.2c0.4,0.3,0.3,1.4,0.3,1.4v26.9c0,0-0.1,1.2,0.1,1.5c0.2,0.3,1.2,0.5,1.2,0.5l26.7,5.4c0,0,1,0.2,1.3-0.1
	c0.3-0.3,0.2-1.6,0.2-1.6v-92.9c0,0,0-0.2-0.2-0.4c-0.3-0.3-0.9-0.2-0.9-0.2l-27.5,5.2c0,0-0.6,0.1-0.8,0.4
	c-0.2,0.4-0.2,0.8-0.2,0.8v25.6C275.2,857.9,275.4,859,275,859.5z"/>
<path class="st1" d="M526.5,837.4c-9.5-7.7-22.8-11.5-39.6-11.5h-35.1h-3.4v3.8v66.6v25.6v3.3v0.3c0.6,0,2,0.1,3.8,0.1
	c10.6,0.1,37.8,0.2,39.3,0.2c15.3,0,27.7-4.7,37.4-14.3c9.7-9.5,14.5-21.8,14.5-36.8C543.5,859,537.8,846.5,526.5,837.4z
	 M487.5,896.3h-6.7h-2.8v-2.8v-36.7v-2.4h2.9h7.1c16.9,0,25.4,6.8,25.4,20.3C513.3,889.1,504.7,896.3,487.5,896.3z"/>
<path class="st1" d="M604.9,823.4c14.1,0,26.1,5.1,36.2,15.3c10.1,10.2,15.1,22.5,15.1,36.7c0,14.5-5.1,26.8-15.2,36.9
	c-10.1,10.1-22.4,15.2-36.9,15.2c-14.4,0-26.7-5.1-36.9-15.3c-10.2-10.2-15.3-22.5-15.3-36.9c0-14.5,5.1-26.9,15.4-36.9
	C577.5,828.5,590.1,823.4,604.9,823.4z M604,852.6c-6.1,0-11.2,2.2-15.5,6.7c-4.3,4.5-6.4,9.8-6.4,16.1c0,6.3,2.1,11.7,6.4,16.1
	c4.3,4.5,9.4,6.7,15.5,6.7c6.1,0,11.3-2.2,15.5-6.7c4.2-4.4,6.4-9.8,6.4-16.2c0-6.3-2.1-11.7-6.4-16.2
	C615.3,854.9,610.1,852.6,604,852.6z"/>
<path class="st1" d="M715.2,870.3c1.1-1,2.4-0.8,2.4-0.8h27.5c0,0,1.9-0.1,2.9,0.5c0.8,0.5,0.7,1.5,0.7,2.5c0,8.2,0,13.3,0,20.8
	c0,9.7-3.6,17.8-10.7,24.4c-7.1,6.6-15.8,9.9-26.2,9.9c-13.5,0-24.9-5.1-34.3-15.3c-9.4-10.2-14.1-22.7-14.1-37.4
	c0-14.7,4.8-27,14.4-36.8c9.6-9.8,21.1-14.7,35.4-15.4c4.4-0.2,20.2-0.8,32.6,3c1,0.3,1.5,0.7,1.9,1.5c0.5,1.1,0.1,2.5,0.1,2.5
	l-6.1,21c0,0-0.4,1.6-1.1,1.9c-0.9,0.4-1.4,0-2.2-0.2c-7.2-2-12.7-2.8-21.3-1.9c-6.9,0.7-12.5,4.3-16.9,8.6
	c-4.4,4.3-6.6,9.9-6.6,16.8c0,7,2,12.6,6.1,16.7c4.1,4.1,9.6,6.2,16.5,6.2c4.4,0,6.4-3.1,6.4-5.7c0-1.9-1.2-5.1-4.1-5.1
	c0,0-1.7,0-2.8-0.7c-1.4-1-1.3-2.4-1.3-2.4v-12.6C714.5,872.3,714.2,871.3,715.2,870.3z"/>
<g>
	<g>
		<path class="st2" d="M751.1,729.8c-132.8,87-418.4,101.1-556.9,18.6C55.8,666.1,42.8,303,129.9,179.1
			c87.1-123.9,445.7-113.2,607.6-25.6C866.2,223.2,883.9,642.9,751.1,729.8z"/>
		<path class="st3" d="M732.6,711.3c-132.8,87-418.4,101.1-556.9,18.6C37.2,647.5,24.2,284.4,111.3,160.6
			C198.4,36.7,557,47.4,718.9,135C847.6,204.6,865.4,624.3,732.6,711.3z"/>
		<path class="st4" d="M711,690.3c-123,80.6-387.6,93.6-515.9,17.3C66.9,631.2,54.9,294.9,135.5,180.2
			c80.7-114.7,412.9-104.9,562.9-23.7C817.6,221,834,609.7,711,690.3z"/>
		<path class="st4" d="M711,690.3c-123,80.6-387.6,93.6-515.9,17.3C66.9,631.2,54.9,294.9,135.5,180.2
			c80.7-114.7,412.9-104.9,562.9-23.7C817.6,221,834,609.7,711,690.3z"/>
	</g>
	<g>
		<path d="M566.7,122c0,0,150.9-84.9,163.4-81.2c12.6,3.7,109,120.5,87.5,151.9c-21.5,31.4-55,24.6-65.5,5.2
			C741.7,178.6,722.8,93.8,715,91.1c-7.9-2.6-133.1,44-133.1,44L566.7,122z"/>
		<path class="st5" d="M310.7,140.8c0,0-71.9-123-93.3-124c-21.5-1-107.4,97.4-99.5,129.4c7.9,32,28.3,39.8,53.4,22
			c25.1-17.8,44.5-85.4,55-88.5c10.5-3.1,80.7,78.1,80.7,78.1L310.7,140.8z"/>
		<path class="st6" d="M248.2,409.2c0,0-80.9,32.2-95.9,20.4c-14.9-11.8-32.2-63.9-25.9-72.8c6.3-8.9,37.7-16,42.4-34
			c4.7-18.1-14.9-47.1-32.6-43.2c-17.7,3.9-30.6,56.6-38.1,58.1c-7.5,1.6-8.6-52.6-27.9-53.4c-19.3-0.8-49.1,31.4-37.3,52.3
			c11.8,20.8,45.6,6.7,44.8,24.4c-0.8,17.7-47.5-4.3-57.4,12.2c-9.8,16.5-4.3,54.6,22.4,54.2c26.7-0.4,45.2-46,52.6-37.3
			c7.5,8.6-4.3,71.9,18.5,85.6c22.8,13.8,124.5-42,124.5-42L248.2,409.2z"/>
		<path class="st6" d="M674,484.7c0,0,120.7-58.7,132.5-48.5c11.8,10.2,11.2,29.5,33,32.7c21.8,3.2,41.2-23.1,36.4-41.7
			c-4.8-18.6-35.4,1.8-37.2-14.1c-1.9-15.8,42.8-14.1,44.5-34.7c1.6-20.7-27.3-43.3-39-40.5c-11.7,2.9-15.9,37.7-30.7,35.4
			c-14.8-2.2,9.9-29.3,1.8-41.9c-8.1-12.6-38.8-17.4-50.3,5.7c-11.5,23.1,10.6,50.5,4.8,60c-5.8,9.5-104.9,67.4-104.9,67.4
			L674,484.7z"/>
		<g>
			<defs>
				<path id="SVGID_1_" d="M712.1,689.6c-123,80.6-387.6,93.6-515.9,17.3C68,630.5,56,294.2,136.6,179.5
					c80.7-114.7,412.9-104.9,562.9-23.7C818.7,220.3,835.1,609,712.1,689.6z"/>
			</defs>
			<clipPath id="SVGID_2_">
				<use xlink:href="#SVGID_1_"  style="overflow:visible;"/>
			</clipPath>
			<path class="st7" d="M320.5,209.5c0,0-6.3,68.1-44,134.1c-37.7,66-75.4,109.7-81.7,206.2c-6.3,96.6,28.3,205.5,99.5,218.1
				c71.2,12.6,270.3,21,317.5,0c47.1-20.9,103.7-108.7,83.8-230.9c-19.9-122.2-79.6-198.7-99.5-253.2
				c-19.9-54.5-16.8-96.4-16.8-96.4s21-29.3,13.6-47.6c-7.3-18.4-52.9-60.3-77.5-50.8c-24.6,9.4-58.4,50.3-68.5,50.8
				c-10.1,0.5-38.4-43.2-67.7-44.4c-29.3-1.2-69.1,27.1-75.4,44.4C297.5,157.2,320.5,209.5,320.5,209.5z"/>
		</g>
		<ellipse class="st6" cx="446.9" cy="363.7" rx="130.6" ry="140.7"/>
		<ellipse cx="446.9" cy="363.7" rx="96.8" ry="94.4"/>
		<path class="st5" d="M490.8,317.5c0,15-19.7,27.2-43.9,27.2c-24.2,0-43.9-12.2-43.9-27.2c0-15.1,19.7-27.2,43.9-27.2
			C471.1,290.2,490.8,302.4,490.8,317.5z"/>
		<path class="st8" d="M593.6,204.3c0,40.5-32.8,73.3-73.3,73.3c-40.5,0-73.3-32.8-73.3-73.3c0-40.5,32.8-73.3,73.3-73.3
			C560.7,131,593.6,163.8,593.6,204.3z"/>
		<path d="M539,204.3c0,10.3-8.4,18.7-18.8,18.7c-10.4,0-18.8-8.4-18.8-18.7c0-10.4,8.4-18.7,18.8-18.7
			C530.6,185.5,539,193.9,539,204.3z"/>
		<path class="st8" d="M300.2,204.3c0,40.5,32.8,73.3,73.3,73.3c40.5,0,73.3-32.8,73.3-73.3c0-40.5-32.8-73.3-73.3-73.3
			C333.1,131,300.2,163.8,300.2,204.3z"/>
		<path d="M354.8,204.3c0,10.3,8.4,18.7,18.8,18.7c10.4,0,18.8-8.4,18.8-18.7c0-10.4-8.4-18.7-18.8-18.7
			C363.2,185.5,354.8,193.9,354.8,204.3z"/>
		<path d="M399.5,541.1c-0.2,0-0.4,0-0.7,0c-1.6-0.2-39.6-4.4-76.6-28.1c-42.9-27.5-59.7-60.8-60.4-62.2c-1.5-3.1-0.3-6.9,2.8-8.4
			c3.1-1.5,6.9-0.3,8.4,2.8c0.2,0.3,16.1,31.7,55.9,57.2c34.4,22,70.8,26.1,71.1,26.1c3.4,0.4,6,3.5,5.6,6.9
			C405.4,538.7,402.7,541.1,399.5,541.1L399.5,541.1z"/>
	</g>
</g>
<path d="M198.5,804.3c-1.8,0-3.7-0.1-5.6-0.2c-24.2-2-36.5-8.9-44.7-13.4c-1-0.6-2-1.1-3-1.6c-5.2-2.7-7-7.1-7.6-9.4
	c-1.1-4.4,0.3-8.2,1.3-10.2l18.3-38c0.1-0.1,0.1-0.3,0.2-0.4c2.1-4.1,5.7-6.9,9.8-7.8c1.1-0.2,2.1-0.3,3.2-0.3
	c2.7,0,5.4,0.8,7.9,2.2c4.2,2.5,6.8,3.4,7.6,3.6c1.6-0.1,2.4-0.5,2.8-0.8c-1-1.7-2.4-4-3.5-5.9c-1.7-2.8-3.6-5.9-5.4-9.1
	c-9-15.9-13.6-32.2-13.6-48.4c0-20.3,7.3-38.1,21.8-52.7c14.5-14.7,32.1-22.2,52.3-22.2c8.7,0,29.1,0,42.4,10.7
	c2.7,2.2,4.4,4.8,5.2,7.8c1.1,4.3-0.1,7.5-1.2,9.9c-6.3,13.4-17.5,36.8-22.1,43.2l-0.2,0.2c-0.9,1.3-3.1,4.4-7.6,5.7
	c-1.2,0.3-2.4,0.5-3.7,0.5c-2.3,0-4.1-0.6-5.2-1c0,0.1-0.1,0.2-0.1,0.4c0.8,1.9,3,5.7,4.3,7.8c0.6,1.1,1.3,2.1,1.8,3.2l4.1,7.1
	c8.5,14.7,12.8,29.4,12.8,43.5c0,20.9-7.6,38.9-22.5,53.5C233.5,796.9,216.7,804.3,198.5,804.3z"/>
<path d="M286.4,800.4c-4.5,0-8.6-2-11.3-5.4c-2.8-3.6-3.1-7.5-3-9.8V673.3c0-13.3,1.4-24.1,4.2-33c2.9-9.2,7.9-17.9,14.8-25.8
	c7.7-8.7,17.4-15.6,28.7-20.5c11.3-4.9,23.1-7.4,35.1-7.4c22.1,0,40.9,7.6,56,22.5c15.2,15,22.8,33.8,22.8,55.8
	c0,21.5-7,39.3-20.9,53c-12.8,12.7-31.7,19.1-56.1,19.1l-4.8,0c0,0,0,39.4,0,39.5c0,1.5-0.4,5.3-3.2,8.9c-2.4,3.2-5.9,4.7-8.3,5.4
	c-0.4,0.1-0.8,0.2-1.2,0.3l-49.7,8.9C288.7,800.2,287.7,800.4,286.4,800.4z M350.4,660.8c-0.3,1.3-0.6,3.4-0.6,6.6v7.8
	c2.9-0.1,6-0.3,7.8-0.7c0.5-1.6,1.4-5.5,1.3-13.1C357.3,661.1,354.7,660.8,350.4,660.8C350.5,660.8,350.4,660.8,350.4,660.8z"/>
<path d="M502.9,802.5c-23.4,0-41.8-6-54.9-17.8c-13.4-12.1-20.2-29.3-20.2-51.2v-72.3c0-21.1,6.4-38,19-50.1
	c12.5-12,29.8-18.1,51.4-18.1h43.8c0.1,0,0.3,0,0.4,0c2.3,0.1,8,0.8,12,5.5c3.1,3.7,4.2,9,2.9,14.2l-8.8,42.6
	c-0.5,4.2-2.8,8.1-6.5,10.5c-3.5,2.3-7.2,2.7-8.7,2.7c1.3,0.6,2.5,1.3,3.7,2.3c3.2,2.8,4.5,6.6,5,8.6c0.2,1,0.4,2,0.4,3l0.1,31.9
	c0.2,3.6-0.3,8.3-3.9,12c-1.3,1.4-2.8,2.3-4.2,3c1.4,0.4,2.8,1.1,4.1,2c2.5,1.8,4.5,4.6,5.8,8.3c0.1,0.3,0.2,0.6,0.3,0.8l11.8,40.4
	c0.9,3,1.9,8.6-0.9,13.8c-1.9,3.5-6.2,7.7-15.6,7.7H502.9z"/>
<path d="M621.6,809.8c-23.5,0-42.2-7.2-55.8-21.4c-13.4-14-20.2-33.3-20.2-57.2V616.5c-0.2-2.5,0.1-6.8,3.1-10.6
	c2.8-3.6,7.1-5.5,12.4-5.5c0,0,48.8,0,48.8,0c0.1,0,0.3,0,0.4,0c4.2,0,8,1.5,10.7,4.1c3,3,4.6,7.1,4.4,11.3v106.7
	c0,4.5,0.5,7,0.8,8.1c1.1,0.3,3.2,0.7,7.1,0.7h1.4c1.5,0,4.4,0.2,7.3,1.7c4.6,2.3,6.6,6.3,7.3,8.3l17.1,47.4
	c2.8,7.3,1,12.3-1.1,15.2c-2.8,3.9-7.4,6-12.9,6C652.4,809.8,621.6,809.8,621.6,809.8z"/>
<path d="M717.4,809.8c-23.5,0-42.2-7.2-55.8-21.4c-13.4-14-20.2-33.3-20.2-57.2V616.5c-0.2-2.5,0.1-6.8,3.1-10.6
	c2.8-3.6,7.1-5.5,12.4-5.5c0,0,48.8,0,48.8,0c0.1,0,0.3,0,0.4,0c4.2,0,8,1.5,10.7,4.1c3,3,4.6,7.1,4.4,11.3v106.7
	c0,4.5,0.5,7,0.8,8.1c1.1,0.3,3.2,0.7,7.1,0.7h1.4c1.5,0,4.4,0.2,7.3,1.7c4.6,2.3,6.6,6.3,7.3,8.3l17.1,47.4
	c2.9,7.3,1,12.3-1.1,15.2c-2.8,3.9-7.4,6-12.9,6C748.2,809.8,717.4,809.8,717.4,809.8z"/>
<path class="st0" d="M779.6,834.3c-2.4,0-4.2-0.9-5.4-1.7l-12-7.9c-2.2-1.4-3.7-3.5-4.2-5.9c-0.5-2.5,0-5.2,1.5-7.3l5.5-8.3l2.3-3.8
	c-0.5-0.5-1.1-1.2-1.5-1.9c-1-1.6-1.4-3.6-1.2-5.4l0.4-13.9c0-1.4,0.3-2.7,0.8-3.9c1.3-3.3,3.8-4.7,5.2-5.2c1-0.4,2.1-0.6,3.2-0.6
	c2,0,3.6,0.6,4.8,1.3l10.4,5c0.3,0.2,0.7,0.4,1,0.6c6.9,4.6,11.1,10.5,12.4,17.6c1.3,6.9-0.4,14-5.1,21l-10.1,15.7
	c-1.2,2-3,3.5-5.1,4.2C781.5,834.1,780.5,834.3,779.6,834.3z"/>
<path class="st3" d="M275.8,611.3c0.1,0.4,0.1,0.5-0.4,1.5c-3.3,7-16.7,35.2-21,41.4c-0.6,0.8-0.7,1-1,1.1c-0.6,0.2-1.3-0.3-1.9-0.5
	c-5.7-1.7-9.3-0.3-11.9,2.4c-2.9,3-4.4,6.6-4.4,10.8c0,3.6,4.7,10.8,7.9,16.4l4.1,7.1c7.4,12.9,11.1,25.3,11.1,37.3
	c0,17.5-6.2,32.4-18.7,44.5c-12.5,12.2-27.8,19.7-45.7,18.2c-24.7-2.1-34.8-9.4-42.9-13.6c-0.6-0.3-1.1-0.7-1.3-1.4
	c-0.2-0.6,0.4-1.6,0.4-1.6l18.4-38.1c0,0,0.6-1.2,1.4-1.4c0.7-0.2,1.3,0,2.1,0.4c4.7,2.8,10.2,5.4,13.6,5.4c4.7,0,8.6-1.3,11.7-4
	c3.1-2.7,4.7-6.1,4.7-10.1c0-2.6-6.2-11.4-11.2-20.3c-8-14.1-12-28.2-12-42.3c0-17,6.1-31.7,18.2-43.9
	c12.1-12.3,26.6-18.4,43.4-18.4c7.1,0,24.7,0,34.5,7.9C275.4,610.5,275.7,610.9,275.8,611.3z"/>
<path class="st3" d="M402.1,618.1c-12.7-12.6-28.5-18.9-47.2-18.9c-10.4,0-20.4,2.1-30.1,6.4c-9.7,4.2-17.8,10-24.3,17.3
	c-5.8,6.6-9.8,13.7-12.2,21.3c-2.4,7.6-3.6,17.4-3.6,29.3v112.2c0,0-0.1,1,0.3,1.7c0.7,0.9,2.2,0.5,2.2,0.5l50-8.9
	c0,0,1.4-0.4,1.8-1c0.6-0.7,0.6-1.6,0.6-1.6v-48.5c0,0,0-0.7,0-1.8c0-1.7,2.9-1.5,2.9-1.5l14.4,0c21.1,0,36.8-5.2,47.3-15.5
	c11.4-11.3,17.2-25.9,17.2-44.1C421.3,646.3,414.9,630.7,402.1,618.1z M350.2,684.3c-0.3,0-3.5,0.1-7,0.1c-1,0-2,0.1-3-0.6
	c-0.8-0.6-0.8-1.6-0.8-1.6v-14.5c0-10.6,4.3-15.9,12.8-15.9c8.5,0,16.6,1.8,16.9,12.2C369.6,683.8,360.4,683.9,350.2,684.3z"/>
<path class="st3" d="M528.8,680.3c0.7,0.6,1.1,2.2,1.1,2.2l0.1,32.4c0,0,0.2,2.3-0.4,2.9c-0.6,0.7-3.4,0.6-3.4,0.6h-19.5
	c-4.9,0-8.3,0.7-10.3,2.2c-2,1.4-4.4,5.7-4.4,9.1c0,3.9,2.4,8.4,4.5,9.7c2.1,1.2,6.3,1.8,12.7,1.8h18.2c0,0,3.2-0.1,3.9,0.5
	c0.7,0.5,1.4,2.5,1.4,2.5l11.8,40.5c0,0,0.9,2.9,0.1,4.3c-0.6,1.2-4.6,1.2-4.6,1.2h-37c-20.3,0-35.8-4.8-46.5-14.5
	c-10.7-9.7-16.1-23.7-16.1-42v-72.3c0-17.7,5.1-31.4,15.2-41.1c10.1-9.7,24.4-14.6,42.8-14.6h43.8c0,0,2,0.1,2.8,1.1
	c0.9,1,0.2,3.2,0.2,3.2l-9,43.8c0,0,0.1,1-1,1.8c-0.9,0.6-2.1,0.6-2.1,0.6h-21.9c-9.5,0-15.3,5.5-15.6,11.6c-0.2,5,2.4,8.3,4.7,9.7
	c2.3,1.4,6.3,2.1,12,2.1h14.3C526.5,679.4,528.1,679.7,528.8,680.3z"/>
<path class="st3" d="M558.5,613.5c0.5-0.7,2.5-0.6,2.5-0.6h49c0,0,1.5-0.1,2.2,0.6c0.8,0.8,0.7,1.8,0.7,1.8v34.8v72.4
	c0,8.6,1.4,14.3,4.1,17.1c2.7,2.8,8.2,4.3,16.3,4.3h1.4c0,0,1.1,0,1.8,0.4s1,1.3,1,1.3l17.2,47.7c0,0,1.1,2.6,0.5,3.5
	c-0.6,0.8-2.9,0.8-2.9,0.8h-30.7c-20,0-35.6-5.8-46.8-17.5c-11.2-11.7-16.8-27.9-16.8-48.6V615.9
	C558.1,615.9,557.9,614.4,558.5,613.5z"/>
<path class="st3" d="M654.4,613.5c0.5-0.7,2.5-0.6,2.5-0.6h49c0,0,1.5-0.1,2.2,0.6c0.8,0.8,0.7,1.8,0.7,1.8v34.8v72.4
	c0,8.6,1.4,14.3,4.1,17.1c2.7,2.8,8.2,4.3,16.3,4.3h1.4c0,0,1.1,0,1.8,0.4c0.7,0.4,1,1.3,1,1.3l17.2,47.7c0,0,1.1,2.6,0.5,3.5
	c-0.6,0.8-2.9,0.8-2.9,0.8h-30.7c-20,0-35.6-5.8-46.8-17.5c-11.2-11.7-16.8-27.9-16.8-48.6V615.9
	C653.9,615.9,653.7,614.4,654.4,613.5z"/>
<path class="st3" d="M779.7,825.8c-0.2,0.1-0.7-0.3-0.7-0.3l-12.2-8c0,0-0.4-0.2-0.5-0.5c-0.1-0.3,0.1-0.6,0.1-0.6l5.7-8.6l3.2-5.3
	c1.4-2.1,2-3.8,1.8-4.9c-0.2-1.2-1.3-2.4-3.3-3.7l-0.4-0.2c0,0-0.3-0.2-0.4-0.4c-0.1-0.2,0-0.5,0-0.5l0.4-14.5c0-0.3,0-0.6,0.2-0.9
	c0.1-0.2,0.2-0.4,0.3-0.4c0.3-0.1,0.8,0.3,0.8,0.3l10.8,5.2c5,3.3,7.9,7.3,8.7,12c0.9,4.7-0.4,9.7-3.8,14.8l-10.3,16
	C780.2,825.2,780,825.7,779.7,825.8z"/>
</svg>
