<?xml version="1.0" encoding="utf-8"?>
<!-- Generator: Adobe Illustrator 20.1.0, SVG Export Plug-In . SVG Version: 6.00 Build 0)  -->
<svg version="1.1" id="Layer_1" xmlns="http://www.w3.org/2000/svg" xmlns:xlink="http://www.w3.org/1999/xlink" x="0px" y="0px"
	 viewBox="0 0 207 133" style="enable-background:new 0 0 207 133;" xml:space="preserve">
<style type="text/css">
	.st0{fill:#A7A8AC;}
	.st1{fill:#ECC91A;}
	.st2{fill:#FFFFFF;}
	.st3{fill-rule:evenodd;clip-rule:evenodd;fill:#FFFFFF;}
</style>
<g>
	<path class="st0" d="M193.4,34.1c-2.5-11.3-9.8-15.1-20.3-16.8c-6.3-1-11.4-1.1-22.3-1.2C110,15.6,57.4,18.2,38.3,26.4
		c-7.3,3.1-13.2,5.4-17.5,13.7c-3.4,6.6-2.2,15.7,0.3,24C25.3,78.2,35,97,47.9,97.3c7.1,0.2,26.8-4.1,46.9-4
		c25.1,0.2,42.6,19.7,57,19.7c10.5,0,15.6-4.8,19.7-11.4c4.6-7.4,14.2-31.9,14.2-31.9S195.7,44.9,193.4,34.1z"/>
	<path class="st1" d="M189.4,31.1c-2.5-11.3-9.8-15.1-20.3-16.8c-6.3-1-11.4-1.1-22.3-1.2C106,12.6,53.4,15.2,34.3,23.4
		c-7.3,3.1-13.2,5.4-17.5,13.7c-3.4,6.6-2.2,15.7,0.3,24C21.3,75.2,31,94,43.9,94.3c7.1,0.2,26.8-4.1,46.9-4
		c25.1,0.2,42.6,19.7,57,19.7c10.5,0,15.6-4.8,19.7-11.4c4.6-7.4,14.2-31.9,14.2-31.9S191.7,41.9,189.4,31.1z"/>
	<path class="st2" d="M40.4,30.4c0,0-18.7-1.5-20.5,15.3C19.9,45.8,25.3,30.6,40.4,30.4z"/>
	<path class="st2" d="M164.5,95.8c0,0-10.6,15.4-24.8,6.3C139.6,102.1,154.8,107.5,164.5,95.8z"/>
	<path class="st3" d="M128.4,85.6c-0.4,0-0.9-0.1-1.6-0.3c-3.3-1-2.5-4.9-2.1-6.8c0.1-0.3,0.1-0.5,0.1-0.7c0.5-3.2,1.2-6.4,1.9-9.7
		c0.1-0.3,0.1-0.6,0.2-0.9c-0.4,0-0.8,0.1-1.1,0.1c-6.3,0.8-12.6,1.6-18.9,2.4C98,70.9,89.1,72,80.1,73.1c-2.3,0.3-3.8,0.5-5.1,0.5
		c-5.6,0-6-3.8-6.5-9.7l0-0.4c-0.4-3.8-1-7.7-1.5-11.4c-0.3-1.7-0.5-3.5-0.8-5.2c0-0.1,0-0.2,0-0.3c0-0.1,0-0.3-0.1-0.5
		c-0.1-0.8-0.3-1.9,0.4-3c1-1.8,3.8-2.1,5.4-2.1c0.2,0,0.4,0,0.5,0c7.3,0.4,14.8,0.9,22,1.4c3.5,0.2,7,0.5,10.4,0.7
		c5.3,0.3,10.6,0.7,16,1l4.1,0.3l-0.1-0.2c-1.2-3.5-2.4-6.7-3.5-10c-0.8-2.5-0.6-4.3,0.7-5.4c0.4-0.4,1.1-0.8,2.1-0.8
		c1.2,0,2.4,0.6,3.3,1.1l0.3,0.2c0.9,0.5,1.6,1.1,2.2,1.6c0.2,0.2,0.4,0.4,0.6,0.5c0,0,21.2,17.5,21.2,17.5l0.3,0.2
		c5.1,4.4,5.9,5.7,5.9,7.1c0,1.3-0.7,2.9-4.2,6.4l-22.8,22c-0.3,0.3-0.7,0.5-1.2,0.6C129.3,85.5,128.9,85.6,128.4,85.6z M76.7,65.5
		l5.4-0.7c5.6-0.7,11.2-1.3,16.7-2c10.3-1.3,20.6-2.6,30.9-3.9c0.5-0.9,0.9-3.2,0.2-5c-0.4-1-1-1.2-1.5-1.2
		c-8.5-0.7-17.2-1.3-25.7-1.8c-3.9-0.2-7.8-0.5-11.7-0.8c-4.2-0.3-8.3-0.6-12.7-0.8l-3.5-0.2L76.7,65.5z"/>
</g>
</svg>
