<?xml version="1.0" encoding="utf-8"?>
<!-- Generator: Adobe Illustrator 21.0.0, SVG Export Plug-In . SVG Version: 6.00 Build 0)  -->
<svg version="1.1" id="Layer_1" xmlns="http://www.w3.org/2000/svg" xmlns:xlink="http://www.w3.org/1999/xlink" x="0px" y="0px"
	 viewBox="0 0 180.5 102" style="enable-background:new 0 0 180.5 102;" xml:space="preserve">
<style type="text/css">
	.st0{fill:#A7A8AC;}
	.st1{fill:#B9D532;}
	.st2{fill:#FFFFFF;}
</style>
<g>
	<path class="st0" d="M180.1,23.1c-2.5-11.3-9.8-15.1-20.3-16.8c-6.3-1-11.4-1.1-22.3-1.2C96.8,4.6,44.2,7.2,25,15.4
		c-7.3,3.1-13.2,5.4-17.5,13.7c-3.4,6.6-2.2,15.7,0.3,24C12,67.2,21.8,86,34.7,86.3c7.1,0.2,26.8-4.1,46.9-4
		c25.1,0.2,42.6,19.7,57,19.7c10.5,0,15.6-4.8,19.7-11.4c4.6-7.4,14.2-31.9,14.2-31.9S182.4,33.9,180.1,23.1z"/>
	<path class="st1" d="M176.1,20.1C173.6,8.8,166.3,5,155.8,3.3c-6.3-1-11.4-1.1-22.3-1.2C92.8,1.6,40.2,4.2,21,12.4
		c-7.3,3.1-13.2,5.4-17.5,13.7c-3.4,6.6-2.2,15.7,0.3,24C8,64.2,17.8,83,30.7,83.3c7.1,0.2,26.8-4.1,46.9-4
		c25.1,0.2,42.6,19.7,57,19.7c10.5,0,15.6-4.8,19.7-11.4c4.6-7.4,14.2-31.9,14.2-31.9S178.4,30.9,176.1,20.1z"/>
	<path class="st2" d="M27.2,19.4c0,0-18.7-1.5-20.5,15.3C6.6,34.8,12,19.6,27.2,19.4z"/>
	<path class="st2" d="M151.2,84.8c0,0-10.6,15.4-24.8,6.3C126.4,91.1,141.6,96.5,151.2,84.8z"/>
	<path class="st2" d="M115.1,74.6c-0.4,0-0.9-0.1-1.6-0.3c-3.3-1-2.5-4.9-2.1-6.8c0.1-0.3,0.1-0.5,0.1-0.7c0.5-3.2,1.2-6.4,1.9-9.7
		c0.1-0.3,0.1-0.6,0.2-0.9c-0.4,0-0.8,0.1-1.1,0.1c-6.3,0.8-12.6,1.6-18.9,2.4c-8.9,1.2-17.8,2.3-26.8,3.4c-2.3,0.3-3.8,0.5-5.1,0.5
		c-5.6,0-6-3.8-6.5-9.7v-0.4c-0.4-3.8-1-7.7-1.5-11.4c-0.3-1.7-0.5-3.5-0.8-5.2c0-0.1,0-0.2,0-0.3s0-0.3-0.1-0.5
		c-0.1-0.8-0.3-1.9,0.4-3c1-1.8,3.8-2.1,5.4-2.1c0.2,0,0.4,0,0.5,0c7.3,0.4,14.8,0.9,22,1.4c3.5,0.2,7,0.5,10.4,0.7
		c5.3,0.3,10.6,0.7,16,1l4.1,0.3l-0.1-0.2c-1.2-3.5-2.4-6.7-3.5-10c-0.8-2.5-0.6-4.3,0.7-5.4c0.4-0.4,1.1-0.8,2.1-0.8
		c1.2,0,2.4,0.6,3.3,1.1l0.3,0.2c0.9,0.5,1.6,1.1,2.2,1.6c0.2,0.2,0.4,0.4,0.6,0.5l21.2,17.5l0.3,0.2c5.1,4.4,5.9,5.7,5.9,7.1
		c0,1.3-0.7,2.9-4.2,6.4l-22.8,22c-0.3,0.3-0.7,0.5-1.2,0.6C116.1,74.5,115.6,74.6,115.1,74.6z M63.4,54.5l5.4-0.7
		c5.6-0.7,11.2-1.3,16.7-2c10.3-1.3,20.6-2.6,30.9-3.9c0.5-0.9,0.9-3.2,0.2-5c-0.4-1-1-1.2-1.5-1.2c-8.5-0.7-17.2-1.3-25.7-1.8
		c-3.9-0.2-7.8-0.5-11.7-0.8c-4.2-0.3-8.3-0.6-12.7-0.8l-3.5-0.2L63.4,54.5z"/>
</g>
</svg>
