<?xml version="1.0" encoding="utf-8"?>
<!-- Generator: Adobe Illustrator 21.0.0, SVG Export Plug-In . SVG Version: 6.00 Build 0)  -->
<svg version="1.1" id="Layer_1" xmlns="http://www.w3.org/2000/svg" xmlns:xlink="http://www.w3.org/1999/xlink" x="0px" y="0px"
	 viewBox="0 0 581.9 142.8" style="enable-background:new 0 0 581.9 142.8;" xml:space="preserve">
<style type="text/css">
	.st0{fill:#A7A8AC;}
	.st1{fill:#FFFFFF;}
	.st2{fill:#D0D2D3;}
</style>
<path class="st0" d="M564.5,128.2c-21.5,14.1-517,13.3-539.4,0C2.7,114.9,2.2,37.5,16.3,17.5c14.1-20,521.5-15.3,547.6-1.1
	C584.7,27.6,585.9,114.2,564.5,128.2z"/>
<path class="st1" d="M558.5,124.2c-21.5,14.1-517,13.3-539.4,0C-3.3,110.9-3.8,33.5,10.3,13.4c14.1-20,521.5-15.3,547.6-1.1
	C578.7,23.6,579.9,110.2,558.5,124.2z"/>
<path class="st2" d="M33.2,15.6c0,0-18.7-1.5-20.5,15.3C12.7,31,18.1,15.8,33.2,15.6z"/>
<path class="st2" d="M542.4,123.8c0,0,18.7,1.5,20.5-15.3C562.9,108.4,557.5,123.6,542.4,123.8z"/>
</svg>
