<?xml version="1.0" encoding="utf-8"?>
<!-- Generator: Adobe Illustrator 21.0.0, SVG Export Plug-In . SVG Version: 6.00 Build 0)  -->
<svg version="1.1" id="Layer_1" xmlns="http://www.w3.org/2000/svg" xmlns:xlink="http://www.w3.org/1999/xlink" x="0px" y="0px"
	 viewBox="0 0 581.9 142.8" style="enable-background:new 0 0 581.9 142.8;" xml:space="preserve">
<style type="text/css">
	.st0{fill:#A7A8AC;}
	.st1{fill:#62C4B6;}
	.st2{fill:#FFFFFF;}
</style>
<path class="st0" d="M565.4,130.7c-21.5,14.1-517,13.3-539.4,0C3.6,117.3,3.1,39.9,17.2,19.9c14.1-20,521.5-15.3,547.6-1.1
	C585.6,30,586.8,116.6,565.4,130.7z"/>
<path class="st1" d="M559.4,126.7c-21.5,14.1-517,13.3-539.4,0C-2.4,113.3-2.9,35.9,11.2,15.9c14.1-20,521.5-15.3,547.6-1.1
	C579.6,26,580.8,112.6,559.4,126.7z"/>
<g>
	<path class="st2" d="M175.2,88.8c-0.2,0.8-0.9,1.1-2.2,1.1c-0.6,0-1.1-0.2-1.5-0.5c-0.4-0.3-0.6-0.7-0.6-1.3c0-1.6,0.4-4.4,1.3-8.4
		c0.9-4,1.9-8.2,3.2-12.6c1.3-4.4,2.9-8.3,4.7-11.7s3.5-5.1,5.2-5.1c0.8,0,2.3,2.6,4.3,7.7s3.9,10.8,5.3,17c1.5,6.2,2.5,10.4,3,12.6
		c0,0.7-0.2,1.3-0.6,1.7c-0.4,0.4-1,0.6-1.7,0.6c-0.7,0-1.3-0.2-1.8-0.5c-0.5-0.3-0.8-0.8-1-1.4l-2.9-12.8c-5.1,0-9-0.4-11.7-1.1
		C176.6,80.4,175.7,85.2,175.2,88.8z M184.3,57.1c-2,3.8-3.6,7.9-4.9,12.4c2.5,0.9,5.6,1.3,9.4,1.3
		C187.2,64.9,185.7,60.3,184.3,57.1z"/>
	<path class="st2" d="M215.3,50.3c0-2.2,0.7-3.2,2-3.2c0.7,0,1.2,0.1,1.5,0.3c0.3,0.2,0.5,0.7,0.7,1.3c0.2,0.7,0.2,2,0.2,4
		s0.1,4.6,0.2,7.7c0.1,3.1,0.2,5.5,0.2,7.2c0,1.8,0.2,4.5,0.4,8.3c0.3,3.8,0.4,6.9,0.4,9.3l-0.1,3.4c-0.1,0.8-0.4,1.3-0.8,1.5
		c-0.4,0.2-1.1,0.3-1.9,0.3c-0.8,0-1.3-0.5-1.6-1.6l-0.2-1c-1.7,1.4-3.8,2-6.1,2c-3.1,0-5.6-1.1-7.4-3.5c-1.8-2.3-2.7-5-2.7-8
		s0.7-6.1,2.1-9.1s3.5-5.2,6.2-6.5c1.6-0.7,3.3-1.1,5.2-1.1c0.7,0,1.3,0,1.7,0.1l-0.1-4.8l0.1-3.8L215.3,50.3z M215.7,83
		c0.2-0.6,0.3-1.6,0.3-3.2c0-1.6,0-2.5,0-2.7v-1.1c0-2.2-0.2-4.1-0.7-5.9s-1.1-2.7-1.9-2.7c-1.1,0-2.4,0.1-3.7,0.4
		c-1.4,0.2-2.3,0.7-2.7,1.3c-1.3,1.7-2,4.5-2,8.4c0,2.8,0.9,4.9,2.6,6.4c1,0.9,2.1,1.3,3.3,1.3c1.2,0,2.2-0.2,3.1-0.6
		C215,84,215.5,83.5,215.7,83z"/>
	<path class="st2" d="M240.3,50.3c0-2.2,0.7-3.2,2-3.2c0.7,0,1.2,0.1,1.5,0.3c0.3,0.2,0.5,0.7,0.7,1.3c0.2,0.7,0.2,2,0.2,4
		s0.1,4.6,0.2,7.7c0.1,3.1,0.2,5.5,0.2,7.2c0,1.8,0.2,4.5,0.4,8.3c0.3,3.8,0.4,6.9,0.4,9.3l-0.1,3.4c-0.1,0.8-0.4,1.3-0.8,1.5
		c-0.4,0.2-1.1,0.3-1.9,0.3c-0.8,0-1.3-0.5-1.6-1.6l-0.2-1c-1.7,1.4-3.8,2-6.1,2c-3.1,0-5.6-1.1-7.4-3.5c-1.8-2.3-2.7-5-2.7-8
		s0.7-6.1,2.1-9.1s3.5-5.2,6.2-6.5c1.6-0.7,3.3-1.1,5.2-1.1c0.7,0,1.3,0,1.7,0.1l-0.1-4.8l0.1-3.8L240.3,50.3z M240.8,83
		c0.2-0.6,0.3-1.6,0.3-3.2c0-1.6,0-2.5,0-2.7v-1.1c0-2.2-0.2-4.1-0.7-5.9s-1.1-2.7-1.9-2.7c-1.1,0-2.4,0.1-3.7,0.4
		c-1.4,0.2-2.3,0.7-2.7,1.3c-1.3,1.7-2,4.5-2,8.4c0,2.8,0.9,4.9,2.6,6.4c1,0.9,2.1,1.3,3.3,1.3c1.2,0,2.2-0.2,3.1-0.6
		C240.1,84,240.6,83.5,240.8,83z"/>
	<path class="st2" d="M281.2,88.1l0.1-3.1c0-0.5,0-1.1,0-1.9c0-0.8,0-1.7-0.1-2.7c0-1-0.1-2-0.1-3.1c-0.1-1-0.2-2-0.4-2.9
		c-0.2-1.8-0.7-3.4-1.4-4.6c-0.7-1.2-1.6-1.9-2.6-1.9c-1,0-1.9,0.2-2.6,0.5c-0.7,0.4-1.2,0.9-1.6,1.7c-0.9,1.6-1.4,3.2-1.6,5
		c-0.2,1.8-0.2,3.7-0.2,5.8l-0.2,6.5c0,0.8-0.3,1.5-0.9,2c-0.6,0.5-1.3,0.7-2.1,0.7c-1,0-1.5-0.6-1.5-1.9c0-3.3-0.1-7.4-0.3-12.2
		c-0.2-4.8-0.3-8.9-0.3-12.1c0.2-0.7,0.5-1.3,1-1.8c0.5-0.5,0.9-0.8,1.4-0.8c0.4,0,0.8,0,1,0.1c0.2,0.1,0.4,0.2,0.6,0.3
		c0.1,0.2,0.3,0.3,0.4,0.5c0.1,0.1,0.2,0.4,0.2,0.8c0.1,0.4,0.1,0.7,0.1,0.9c0,0.2,0,0.6,0.1,1.2c0,0.5,0,1,0.1,1.3
		c2.2-2.8,4.9-4.3,8.1-4.3c2.2,0,3.9,1,5,3.1c1.6,3,2.5,7.7,2.5,13.9l0.1,5.6c0,1.5-0.1,2.5-0.2,3c-0.2,0.5-0.4,0.9-0.6,1.3
		c-0.4,0.8-1.1,1.1-2.2,1.1C281.7,90,281.2,89.3,281.2,88.1z"/>
	<path class="st2" d="M306.4,64c2,1.2,3,2.7,3,4.5c0,1.8-0.9,3.6-2.8,5.3c-1.8,1.8-4.1,2.8-6.7,3.2c-0.2,0-0.4,0.1-0.6,0.1
		c-0.1,0-0.3,0-0.6,0.1s-0.4,0-0.6,0c-0.1,0-0.3,0-0.6,0c-0.3,0-0.5,0-0.6,0c-0.1,0-0.3,0-0.7,0c-0.3,0-0.5,0-0.7,0
		c0.4,3.1,1,5.2,1.8,6.2c1.2,0.9,2.1,1.4,2.9,1.5c2,0,3.8-0.8,5.5-2.5c1.7-1.7,2.9-2.5,3.8-2.5c0.3,0,0.8,0.3,1.4,0.9
		c0.7,0.6,1,1.2,1,1.7c0,0.6-0.4,1.2-1.1,2c-0.7,0.8-1.6,1.6-2.7,2.5s-2.4,1.6-4,2.2c-1.6,0.6-3.1,1-4.4,1c-1.4,0-2.6-0.3-3.6-1
		c-1.8-1.2-3.3-3.1-4.2-5.9c-1-2.8-1.5-5.7-1.5-8.7c0-3.1,0.7-5.8,2-8.3c1.5-2.8,4-4.1,7.7-4.1C302.5,62.2,304.4,62.8,306.4,64z
		 M304.1,68.9c0-1.7-1.1-2.5-3.4-2.5c-1.5,0-2.8,0.9-3.9,2.6c-0.4,0.5-0.6,1.1-0.8,1.9c-0.1,0.7-0.3,1.5-0.4,2.2
		C301.3,73,304.1,71.6,304.1,68.9z"/>
	<path class="st2" d="M333.2,73.2l-0.4-9.1c0.2-0.6,0.6-1.1,1.1-1.5c0.5-0.4,1-0.7,1.5-0.7c1.2,0,1.7,2.3,1.7,6.8V72
		c0,5.4-0.8,10.2-2.5,14.3c-0.9,2.4-2,3.6-3.3,3.6c-0.8,0-1.5-0.5-2.2-1.6c-0.7-1-1.4-2.4-2.2-4.2s-1.4-2.9-1.8-3.6
		c-0.4,0.8-1,2-1.8,3.6c-0.8,1.5-1.2,2.4-1.4,2.7c-1.3,2.1-2.5,3.1-3.6,3.1c-0.4,0-1.1-1.1-2.2-3.2c-2.4-7.2-3.6-14.7-3.6-22.6
		c0.2-0.9,0.8-1.5,1.8-2c0.3-0.1,0.5-0.2,0.8-0.2c0.8,0,1.3,0.5,1.5,1.6c0,6.3,1.1,12.3,3.2,18c0.4-0.7,0.9-1.6,1.5-2.7
		c0.5-1.1,0.9-1.9,1.2-2.4c0.8-1.4,1.7-2,2.8-2c1.1,0,2.3,1,3.4,2.9c0.8,1.4,1.4,2.6,1.9,3.6c0.5,1,0.8,1.5,0.8,1.6
		C332.6,79.2,333.2,76.1,333.2,73.2z"/>
	<path class="st2" d="M358.6,87.9l-0.1,18c-0.2,0.8-0.6,1.5-1.2,2c-0.6,0.5-1.2,0.8-1.9,0.8c-1,0-1.6-0.7-1.6-2.1L354,86V64.8
		c0.2-1,0.4-1.7,0.7-2.2c0.3-0.5,0.9-0.7,1.6-0.7s1.3,0.2,1.5,0.5c0.2,0.4,0.5,1.3,0.8,2.8c0.2-0.7,0.8-1.4,1.8-2.1
		c1-0.7,2.6-1.1,4.6-1.1s3.8,0.4,5.3,1.3c1.5,0.8,2.7,2,3.5,3.4c1.6,2.8,2.4,6.2,2.4,10.2c0,4-1.2,7.2-3.5,9.5
		c-2.3,2.3-5.5,3.5-9.7,3.5c-1.4,0-2.7-0.5-3.8-1.4C358.9,88.1,358.6,87.9,358.6,87.9z M363.9,66.7c-1.6,0.2-2.8,0.9-3.8,2
		c-1,1.1-1.5,2.2-1.5,3.2v11.2c0.1,0,0.4,0.2,0.8,0.6c1.2,1,2.4,1.6,3.8,1.6c5.5,0,8.3-2.8,8.3-8.5c0-4.9-1.2-7.9-3.7-9.2
		C366.7,67,365.4,66.7,363.9,66.7z"/>
	<path class="st2" d="M380.5,75.1c0-2.1-0.1-3.9-0.1-5.4c0-1.5-0.1-2.8-0.1-3.7c0-0.9-0.1-3.5-0.1-7.7s0-6.8,0.1-7.8
		c0.1-1,0.3-1.7,0.7-2.2c0.4-0.5,1-0.7,2-0.7c1.4,0,2.2,0.7,2.5,2.1c-0.4,3.7-0.5,10.8-0.5,21.3c0,8,0.9,12.7,2.6,14.1
		c0.5-0.1,1-0.5,1.4-1.2c0.5-0.7,1-1.3,1.4-1.9c0.5-0.6,1-0.9,1.6-0.9c0.6,0,1.1,0.3,1.5,0.9c0.4,0.6,0.6,1.5,0.6,2.7
		c0,1.2-0.7,2.5-2,3.8c-1.3,1.3-2.9,1.9-4.6,1.9c-3.4,0-5.5-2.9-6.4-8.8C380.8,79.3,380.6,77.1,380.5,75.1z"/>
	<path class="st2" d="M416.4,67.5l-0.1,4.2c0,1.6-0.1,3.6-0.4,6.1c0.2,4.3,0.7,8.1,1.4,11.5c-0.1,0.4-0.4,0.8-1,1
		c-0.5,0.3-1.1,0.4-1.7,0.4s-1.1-0.1-1.4-0.2c-0.4-0.2-0.6-0.4-0.8-0.8c-0.1-0.3-0.2-0.6-0.3-0.9c-0.1-0.2-0.1-0.6-0.1-1
		c0-0.4,0-0.7-0.1-0.8c-1.9,2-4.3,2.9-7.4,2.9c-3,0-5.2-1.1-6.5-3.5c-1.3-2.3-2-5.5-2-9.6c0-7.2,2.1-11.8,6.2-13.8
		c1.3-0.6,2.7-0.9,4.4-0.9c1.6,0,3.2,0.3,4.8,0.8c0.5-0.7,1.2-1.1,2.2-1.1c1.7,0,2.5,1.3,2.6,3.8C416.4,66.4,416.4,67,416.4,67.5z
		 M410.5,81.8c0.8-2.2,1.1-4.6,1.1-7.1c0-2.5-0.3-4.4-0.9-5.5c-0.6-1.2-1.7-1.8-3.2-1.8c-0.6,0-1.5,0.1-2.5,0.2c-1,0.1-2,1-2.9,2.7
		c-0.9,1.7-1.3,3.1-1.3,4.3V77c0,4.2,0.9,6.9,2.6,8c0.5,0.4,1.2,0.5,2.1,0.5s1.8-0.4,2.8-1.1C409.4,83.7,410.1,82.8,410.5,81.8z"/>
	<path class="st2" d="M420.5,64.8c0-0.8,0.2-1.4,0.7-2c0.5-0.6,1-0.8,1.7-0.8c0.7,0,1.3,0.4,1.9,1.3c1,3.1,2,5.9,3,8.5
		c1.1,2.5,2,4.8,3,7c0.9,2.1,1.6,3.7,2,4.9c0.7-2.5,1.6-6,2.8-10.6c1.1-4.6,1.9-7.8,2.5-9.7c0.2-0.9,1.1-1.3,2.6-1.3
		c0.5,0,1,0.2,1.5,0.5c0.5,0.4,0.8,0.8,0.8,1.2s0,0.9-0.1,1.3c-5.7,20.2-9.9,34.1-12.5,41.6c-0.4,1.1-1,1.6-1.9,1.6
		c-0.6,0-1.1-0.3-1.6-0.8c-0.4-0.5-0.7-1.2-0.7-2.1s0.3-2.3,0.9-4.2c0.6-1.9,1.3-4.1,2-6.4c0.8-2.3,1.3-3.9,1.5-4.8
		c-1-1.6-2.6-5.2-4.8-10.8C423.6,73.7,421.8,68.9,420.5,64.8z"/>
	<path class="st2" d="M463.3,64c2,1.2,3,2.7,3,4.5c0,1.8-0.9,3.6-2.8,5.3c-1.8,1.8-4.1,2.8-6.7,3.2c-0.2,0-0.4,0.1-0.6,0.1
		c-0.1,0-0.3,0-0.6,0.1c-0.2,0-0.4,0-0.6,0c-0.1,0-0.3,0-0.6,0c-0.3,0-0.5,0-0.6,0s-0.3,0-0.7,0c-0.3,0-0.5,0-0.7,0
		c0.4,3.1,1,5.2,1.8,6.2c1.2,0.9,2.1,1.4,2.9,1.5c2,0,3.8-0.8,5.5-2.5c1.7-1.7,2.9-2.5,3.8-2.5c0.3,0,0.8,0.3,1.4,0.9
		c0.7,0.6,1,1.2,1,1.7c0,0.6-0.4,1.2-1.1,2c-0.7,0.8-1.6,1.6-2.7,2.5s-2.4,1.6-4,2.2s-3,1-4.4,1c-1.4,0-2.6-0.3-3.6-1
		c-1.8-1.2-3.2-3.1-4.2-5.9c-1-2.8-1.5-5.7-1.5-8.7c0-3.1,0.7-5.8,2-8.3c1.5-2.8,4-4.1,7.7-4.1C459.3,62.2,461.3,62.8,463.3,64z
		 M460.9,68.9c0-1.7-1.1-2.5-3.4-2.5c-1.5,0-2.8,0.9-3.9,2.6c-0.4,0.5-0.6,1.1-0.8,1.9c-0.1,0.7-0.3,1.5-0.4,2.2
		C458.1,73,460.9,71.6,460.9,68.9z"/>
	<path class="st2" d="M472.9,82.5l0.1-1.8c0-2.5-0.2-5.2-0.6-8.1c-0.4-2.9-0.8-5.1-1.2-6.5c-0.4-1.4-0.7-2.3-0.7-2.7
		c0-0.4,0.3-0.8,0.8-1.2c0.5-0.4,1.1-0.6,1.8-0.6c0.7,0,1.2,0.3,1.6,0.8c0.4,0.5,0.6,1,0.8,1.6c0.1,0.5,0.2,1.3,0.3,2.2
		c0.1,0.9,0.1,1.5,0.2,1.8c1-2.5,2.8-4.2,5.2-5.2c1.2-0.5,2.6-0.8,4.1-0.8c3.3,0,4.9,0.8,4.9,2.5c0,1-0.5,1.8-1.6,2.4
		c-0.4,0.2-0.9,0.3-1.3,0.4l-1.7-0.2c-5,0-7.6,5-7.6,14.9l0.1,5.5l-0.1,0.1c-0.2,0.7-0.5,1.4-1.1,1.9c-0.6,0.6-1.2,0.8-1.8,0.8
		c-0.9,0-1.5-0.7-1.7-2.2C473.1,86.7,472.9,84.8,472.9,82.5z"/>
</g>
<path class="st2" d="M34.1,21.2c0,0-18.7-1.5-20.5,15.3C13.6,36.5,19,21.4,34.1,21.2z"/>
<path class="st2" d="M543.3,126.2c0,0,18.7,1.5,20.5-15.3C563.8,110.9,558.4,126,543.3,126.2z"/>
<g id="BfQPDl.tif_1_">
	<g>
		<path class="st2" d="M112.9,38.4c1.8,0,3.6,0,5.4,0c1.4,0.2,2.8,0.4,4.2,0.7c17.6,4,28.5,22,23.1,39.7
			c-4.7,15.7-20.3,25-36.3,21.7c-11.9-2.5-19.8-9.9-23.7-21.5c-0.7-2.1-1-4.3-1.3-6.5c0-1.8,0-3.6,0-5.4c0.1-1,0.2-2,0.4-3
			c2.7-12.6,10.2-20.8,22.5-24.6C109.1,38.8,111,38.6,112.9,38.4z M115.7,95.5c13.9,0.1,26-11.2,25.9-26c0-14.3-11.5-25.9-26-25.9
			c-14.8,0-25.9,12.1-25.9,26C89.7,83.9,101.4,95.6,115.7,95.5z"/>
		<path class="st2" d="M108.3,66.8c1.3,0,2.5,0,3.8,0c0.6,0,0.7-0.2,0.7-0.8c0-2.3,0-4.6,0-7c0-0.4,0-0.8,0.1-1.2
			c0.2-0.9,0.8-1.4,1.7-1.4c0.6,0,1.2,0,1.8,0c1.5,0,2.1,0.6,2.1,2.1c0,2.3,0,4.6,0,6.9c0,1.4-0.1,1.3,1.3,1.3c2.2,0,4.4,0,6.6,0
			c0.4,0,0.8,0,1.2,0.2c0.7,0.2,1.1,0.8,1.2,1.5c0,0.8,0,1.5,0,2.3c0,0.8-0.5,1.4-1.3,1.6c-0.4,0.1-0.8,0.1-1.2,0.1
			c-2.4,0-4.7,0-7.1,0c-0.8,0-0.8,0-0.8,0.8c0,2.4,0,4.8,0,7.2c0,0.4,0,0.8-0.1,1.2c-0.2,0.7-0.7,1.1-1.4,1.1c-0.9,0-1.8,0-2.7,0
			c-0.9,0-1.5-0.7-1.5-1.8c0-1.7,0-3.4,0-5.1c0-0.9,0-1.8,0-2.7c0-0.5-0.2-0.7-0.7-0.7c-2.4,0-4.9,0-7.3,0c-0.4,0-0.7,0-1.1-0.1
			c-0.7-0.2-1.1-0.7-1.1-1.4c0-0.9,0-1.8,0-2.6c0-0.7,0.5-1.3,1.2-1.4c0.9-0.2,1.8-0.1,2.7-0.1C107,66.8,107.6,66.8,108.3,66.8z"/>
	</g>
</g>
</svg>
