<?xml version="1.0" encoding="utf-8"?>
<!-- Generator: Adobe Illustrator 21.0.0, SVG Export Plug-In . SVG Version: 6.00 Build 0)  -->
<svg version="1.1" id="Layer_1" xmlns="http://www.w3.org/2000/svg" xmlns:xlink="http://www.w3.org/1999/xlink" x="0px" y="0px"
	 viewBox="0 0 581.9 142.8" style="enable-background:new 0 0 581.9 142.8;" xml:space="preserve">
<style type="text/css">
	.st0{fill:#A7A8AC;}
	.st1{fill:#62C4B6;}
	.st2{fill:#FFFFFF;}
</style>
<path class="st0" d="M564.7,130.2c-21.5,14.1-517,13.3-539.4,0C2.9,116.8,2.4,39.4,16.5,19.4C30.6-0.6,538,4.1,564.1,18.3
	C584.9,29.5,586.1,116.1,564.7,130.2z"/>
<path class="st1" d="M558.7,126.2c-21.5,14.1-517,13.3-539.4,0C-3.1,112.8-3.6,35.4,10.5,15.4C24.6-4.6,532,0.1,558.1,14.3
	C578.9,25.5,580.1,112.1,558.7,126.2z"/>
<g>
	<path class="st2" d="M142.9,51.8c0.7,0.5,1.1,1.1,1.1,1.8c0,0.7-0.3,1.3-1,1.8c-0.7,0.5-1.4,0.8-2.2,0.8c-2.1-0.6-4.1-0.8-6.1-0.8
		c-4.3,0-7.6,1.3-9.8,3.8c-2.3,2.5-3.4,6.4-3.4,11.4c0,5.1,1.3,9,4,11.8c1.4,1.5,3,2.2,4.9,2.2c1.9,0,4.9-1,8.9-3
		c1.4-0.7,2.4-1,2.9-1c1,0,1.6,0.5,1.6,1.6s-0.5,2-1.5,2.7c-1.7,0.9-3,1.6-4,2.1s-2.4,1-4.2,1.6c-1.8,0.6-3.4,0.9-4.8,0.9
		c-1.4,0-2.8-0.3-4.1-0.9c-1.3-0.6-2.4-1.4-3.3-2.3c-1.9-2.1-3.3-4.6-4.2-7.6c-0.9-3-1.3-6-1.3-9.1c0-3.1,0.5-5.9,1.4-8.4
		c0.9-2.5,2.2-4.6,3.9-6.2c3.4-3.2,7.5-4.8,12.4-4.8C136.8,50.2,139.7,50.8,142.9,51.8z"/>
	<path class="st2" d="M151.2,82l0.1-1.8c0-2.5-0.2-5.2-0.6-8.1c-0.4-2.9-0.8-5.1-1.2-6.5c-0.4-1.4-0.7-2.3-0.7-2.7
		c0-0.4,0.3-0.8,0.8-1.2c0.5-0.4,1.1-0.6,1.8-0.6c0.7,0,1.2,0.3,1.6,0.8c0.4,0.5,0.6,1,0.8,1.6c0.1,0.5,0.2,1.3,0.3,2.2
		c0.1,0.9,0.1,1.5,0.2,1.8c1-2.5,2.8-4.2,5.2-5.2c1.2-0.5,2.6-0.8,4.1-0.8c3.3,0,4.9,0.8,4.9,2.5c0,1-0.5,1.8-1.6,2.4
		c-0.4,0.2-0.9,0.3-1.3,0.4l-1.7-0.2c-5,0-7.6,5-7.6,14.9l0.1,5.5l-0.1,0.1c-0.2,0.7-0.5,1.4-1.1,1.9c-0.6,0.6-1.2,0.8-1.8,0.8
		c-0.9,0-1.5-0.7-1.7-2.2C151.3,86.2,151.2,84.3,151.2,82z"/>
	<path class="st2" d="M187.3,63.5c2,1.2,3,2.7,3,4.5c0,1.8-0.9,3.6-2.8,5.3c-1.8,1.8-4.1,2.8-6.7,3.2c-0.2,0-0.4,0.1-0.6,0.1
		c-0.1,0-0.3,0-0.6,0.1c-0.2,0-0.4,0-0.6,0c-0.1,0-0.3,0-0.6,0c-0.3,0-0.5,0-0.6,0c-0.1,0-0.3,0-0.7,0c-0.3,0-0.5,0-0.7,0
		c0.4,3.1,1,5.2,1.8,6.2c1.2,0.9,2.1,1.4,2.9,1.5c2,0,3.8-0.8,5.5-2.5c1.7-1.7,2.9-2.5,3.8-2.5c0.3,0,0.8,0.3,1.4,0.9
		c0.7,0.6,1,1.2,1,1.7c0,0.6-0.4,1.2-1.1,2c-0.7,0.8-1.6,1.6-2.7,2.5s-2.4,1.6-4,2.2c-1.6,0.6-3.1,1-4.4,1c-1.4,0-2.6-0.3-3.6-1
		c-1.8-1.2-3.3-3.1-4.2-5.9c-1-2.8-1.5-5.7-1.5-8.7c0-3.1,0.7-5.8,2-8.3c1.5-2.8,4-4.1,7.7-4.1C183.3,61.7,185.3,62.3,187.3,63.5z
		 M185,68.4c0-1.7-1.1-2.5-3.4-2.5c-1.5,0-2.8,0.9-3.9,2.6c-0.4,0.5-0.6,1.1-0.8,1.9c-0.1,0.7-0.3,1.5-0.4,2.2
		C182.2,72.5,185,71.1,185,68.4z"/>
	<path class="st2" d="M215.5,67l-0.1,4.2c0,1.6-0.1,3.6-0.4,6.1c0.2,4.3,0.7,8.1,1.4,11.5c-0.1,0.4-0.4,0.8-1,1
		c-0.5,0.3-1.1,0.4-1.7,0.4c-0.6,0-1.1-0.1-1.4-0.2c-0.4-0.2-0.6-0.4-0.8-0.8c-0.1-0.3-0.2-0.6-0.3-0.9s-0.1-0.6-0.1-1
		c0-0.4,0-0.7-0.1-0.8c-1.9,2-4.3,2.9-7.4,2.9c-3,0-5.2-1.1-6.5-3.5c-1.3-2.3-2-5.5-2-9.6c0-7.2,2.1-11.8,6.2-13.8
		c1.3-0.6,2.7-0.9,4.4-0.9c1.6,0,3.2,0.3,4.8,0.8c0.5-0.7,1.2-1.1,2.2-1.1c1.7,0,2.5,1.3,2.6,3.8C215.5,65.9,215.5,66.5,215.5,67z
		 M209.6,81.3c0.8-2.2,1.1-4.6,1.1-7.1c0-2.5-0.3-4.4-0.9-5.5c-0.6-1.2-1.7-1.8-3.2-1.8c-0.6,0-1.5,0.1-2.5,0.2s-2,1-2.9,2.7
		c-0.9,1.7-1.3,3.1-1.3,4.3v2.4c0,4.2,0.9,6.9,2.6,8c0.5,0.4,1.2,0.5,2.1,0.5c0.9,0,1.8-0.4,2.8-1.1S209.2,82.3,209.6,81.3z"/>
	<path class="st2" d="M231.5,48.4l-0.3,7.3c0,0.5,0.1,2.4,0.2,5.7c2.4,0,4.7-0.1,7-0.2c1.2,0.3,1.8,1,1.8,2.1s-0.4,1.9-1.2,2.4
		c-0.8,0.5-1.6,0.7-2.4,0.8c-0.8,0-1.4,0.1-1.9,0.1c-0.4,0-1,0-1.7,0c-0.7,0-1.2,0-1.5,0c0,0.4,0.1,1.5,0.2,3.3
		c0.1,1.9,0.1,3.1,0.2,3.6c0.3,5.4,0.8,9.9,1.4,13.3c-0.2,0.8-0.5,1.4-1.1,2c-0.6,0.6-1.2,0.9-1.9,0.9c-0.7,0-1.2-0.5-1.6-1.4
		c-0.6-3.6-1-7.8-1.2-12.7c-0.2-4.9-0.4-7.9-0.4-8.9c-0.6,0-1.5,0.1-2.9,0.1c-1.4,0-2.5-0.1-3.4-0.4c-1-0.2-1.4-0.8-1.4-1.7
		c0-2,1.2-3,3.5-3l2.9,0.1c0.5,0,0.9,0,1.1-0.1c-0.2-4-0.2-6.1-0.2-6.2c0-0.3,0-0.9,0.1-1.9c0-1,0.1-2.4,0.2-4.3
		c0.2-0.7,0.5-1.3,1.1-1.7c0.6-0.5,1.2-0.7,1.8-0.7C230.7,46.7,231.3,47.3,231.5,48.4z"/>
	<path class="st2" d="M257.6,63.5c2,1.2,3,2.7,3,4.5c0,1.8-0.9,3.6-2.8,5.3c-1.8,1.8-4.1,2.8-6.7,3.2c-0.2,0-0.4,0.1-0.6,0.1
		c-0.1,0-0.3,0-0.6,0.1c-0.2,0-0.4,0-0.6,0c-0.1,0-0.3,0-0.6,0c-0.3,0-0.5,0-0.6,0c-0.1,0-0.3,0-0.7,0c-0.3,0-0.5,0-0.7,0
		c0.4,3.1,1,5.2,1.8,6.2c1.2,0.9,2.1,1.4,2.9,1.5c2,0,3.8-0.8,5.5-2.5c1.7-1.7,2.9-2.5,3.8-2.5c0.3,0,0.8,0.3,1.4,0.9
		c0.7,0.6,1,1.2,1,1.7c0,0.6-0.4,1.2-1.1,2c-0.7,0.8-1.6,1.6-2.7,2.5s-2.4,1.6-4,2.2c-1.6,0.6-3.1,1-4.4,1c-1.4,0-2.6-0.3-3.6-1
		c-1.8-1.2-3.3-3.1-4.2-5.9c-1-2.8-1.5-5.7-1.5-8.7c0-3.1,0.7-5.8,2-8.3c1.5-2.8,4-4.1,7.7-4.1C253.7,61.7,255.6,62.3,257.6,63.5z
		 M255.3,68.4c0-1.7-1.1-2.5-3.4-2.5c-1.5,0-2.8,0.9-3.9,2.6c-0.4,0.5-0.6,1.1-0.8,1.9c-0.1,0.7-0.3,1.5-0.4,2.2
		C252.5,72.5,255.3,71.1,255.3,68.4z"/>
	<path class="st2" d="M298.9,67l-0.1,4.2c0,1.6-0.1,3.6-0.4,6.1c0.2,4.3,0.7,8.1,1.4,11.5c-0.1,0.4-0.4,0.8-1,1
		c-0.5,0.3-1.1,0.4-1.7,0.4c-0.6,0-1.1-0.1-1.4-0.2c-0.4-0.2-0.6-0.4-0.8-0.8c-0.1-0.3-0.2-0.6-0.3-0.9c-0.1-0.2-0.1-0.6-0.1-1
		c0-0.4,0-0.7-0.1-0.8c-1.9,2-4.3,2.9-7.4,2.9c-3,0-5.2-1.1-6.5-3.5c-1.3-2.3-2-5.5-2-9.6c0-7.2,2.1-11.8,6.2-13.8
		c1.3-0.6,2.7-0.9,4.4-0.9c1.6,0,3.2,0.3,4.8,0.8c0.5-0.7,1.2-1.1,2.2-1.1c1.7,0,2.5,1.3,2.6,3.8C298.9,65.9,298.9,66.5,298.9,67z
		 M293,81.3c0.8-2.2,1.1-4.6,1.1-7.1c0-2.5-0.3-4.4-0.9-5.5c-0.6-1.2-1.7-1.8-3.2-1.8c-0.6,0-1.5,0.1-2.5,0.2s-2,1-2.9,2.7
		c-0.9,1.7-1.3,3.1-1.3,4.3v2.4c0,4.2,0.9,6.9,2.6,8c0.5,0.4,1.2,0.5,2.1,0.5c0.9,0,1.8-0.4,2.8-1.1S292.6,82.3,293,81.3z"/>
	<path class="st2" d="M335.3,87.6l0.1-3.1c0-0.5,0-1.1,0-1.9c0-0.8,0-1.7-0.1-2.7c0-1-0.1-2-0.1-3.1c-0.1-1-0.2-2-0.4-2.9
		c-0.2-1.8-0.7-3.4-1.4-4.6c-0.7-1.2-1.6-1.9-2.6-1.9c-1,0-1.9,0.2-2.6,0.5c-0.7,0.4-1.2,0.9-1.6,1.7c-0.9,1.6-1.4,3.2-1.6,5
		c-0.2,1.8-0.2,3.7-0.2,5.8l-0.2,6.5c0,0.8-0.3,1.5-0.9,2s-1.3,0.7-2.1,0.7c-1,0-1.5-0.6-1.5-1.9c0-3.3-0.1-7.4-0.3-12.2
		c-0.2-4.8-0.3-8.9-0.3-12.1c0.2-0.7,0.5-1.3,1-1.8c0.5-0.5,0.9-0.8,1.3-0.8c0.4,0,0.8,0,1,0.1c0.2,0.1,0.4,0.2,0.6,0.3
		c0.1,0.2,0.3,0.3,0.4,0.5c0.1,0.1,0.2,0.4,0.2,0.8c0.1,0.4,0.1,0.7,0.1,0.9c0,0.2,0,0.6,0.1,1.2s0,1,0.1,1.3
		c2.2-2.8,4.9-4.3,8.1-4.3c2.2,0,3.9,1,5,3.1c1.6,3,2.5,7.7,2.5,13.9l0.1,5.6c0,1.5-0.1,2.5-0.2,3c-0.2,0.5-0.4,0.9-0.6,1.3
		c-0.4,0.8-1.1,1.1-2.2,1.1C335.8,89.5,335.3,88.8,335.3,87.6z"/>
	<path class="st2" d="M360.5,63.5c2,1.2,3,2.7,3,4.5c0,1.8-0.9,3.6-2.8,5.3c-1.8,1.8-4.1,2.8-6.7,3.2c-0.2,0-0.4,0.1-0.6,0.1
		c-0.1,0-0.3,0-0.6,0.1s-0.4,0-0.6,0s-0.3,0-0.6,0c-0.3,0-0.5,0-0.6,0c-0.1,0-0.3,0-0.7,0s-0.5,0-0.7,0c0.4,3.1,1,5.2,1.8,6.2
		c1.2,0.9,2.1,1.4,2.9,1.5c2,0,3.8-0.8,5.6-2.5c1.7-1.7,2.9-2.5,3.8-2.5c0.3,0,0.8,0.3,1.4,0.9c0.7,0.6,1,1.2,1,1.7
		c0,0.6-0.4,1.2-1.1,2c-0.7,0.8-1.6,1.6-2.7,2.5s-2.4,1.6-4,2.2s-3,1-4.4,1c-1.4,0-2.6-0.3-3.6-1c-1.8-1.2-3.2-3.1-4.2-5.9
		c-1-2.8-1.5-5.7-1.5-8.7c0-3.1,0.7-5.8,2-8.3c1.5-2.8,4-4.1,7.7-4.1C356.6,61.7,358.5,62.3,360.5,63.5z M358.2,68.4
		c0-1.7-1.1-2.5-3.4-2.5c-1.5,0-2.8,0.9-3.9,2.6c-0.4,0.5-0.6,1.1-0.8,1.9c-0.1,0.7-0.3,1.5-0.4,2.2
		C355.4,72.5,358.2,71.1,358.2,68.4z"/>
	<path class="st2" d="M387.3,72.7l-0.4-9.1c0.2-0.6,0.6-1.1,1.1-1.5c0.5-0.4,1-0.7,1.5-0.7c1.2,0,1.7,2.3,1.7,6.8v3.3
		c0,5.4-0.8,10.2-2.5,14.3c-0.9,2.4-2,3.6-3.3,3.6c-0.8,0-1.5-0.5-2.2-1.6c-0.7-1-1.4-2.4-2.2-4.2c-0.8-1.7-1.4-2.9-1.8-3.6
		c-0.4,0.8-1,2-1.8,3.6c-0.8,1.5-1.2,2.4-1.4,2.7c-1.3,2.1-2.5,3.1-3.6,3.1c-0.4,0-1.1-1.1-2.2-3.2c-2.4-7.2-3.6-14.7-3.6-22.6
		c0.2-0.9,0.8-1.5,1.8-2c0.3-0.1,0.5-0.2,0.8-0.2c0.8,0,1.3,0.5,1.5,1.6c0,6.3,1.1,12.3,3.2,18c0.4-0.7,0.9-1.6,1.5-2.7
		c0.5-1.1,0.9-1.9,1.2-2.4c0.8-1.4,1.7-2,2.8-2c1.1,0,2.3,1,3.4,2.9c0.8,1.4,1.4,2.6,1.9,3.6c0.5,1,0.8,1.5,0.8,1.6
		C386.7,78.7,387.3,75.6,387.3,72.7z"/>
	<path class="st2" d="M412.7,87.4l-0.1,18c-0.2,0.8-0.6,1.5-1.2,2c-0.6,0.5-1.2,0.8-1.9,0.8c-1,0-1.6-0.7-1.6-2.1l0.1-20.6V64.3
		c0.2-1,0.4-1.7,0.7-2.2c0.3-0.5,0.9-0.7,1.6-0.7s1.3,0.2,1.5,0.5s0.5,1.3,0.8,2.8c0.2-0.7,0.8-1.4,1.8-2.1c1-0.7,2.6-1.1,4.6-1.1
		s3.8,0.4,5.3,1.3c1.5,0.8,2.7,2,3.5,3.4c1.6,2.8,2.4,6.2,2.4,10.2c0,4-1.2,7.2-3.5,9.5c-2.3,2.3-5.5,3.5-9.7,3.5
		c-1.4,0-2.7-0.5-3.8-1.4C413,87.6,412.7,87.4,412.7,87.4z M418,66.2c-1.6,0.2-2.8,0.9-3.8,2c-1,1.1-1.5,2.2-1.5,3.2v11.2
		c0.1,0,0.4,0.2,0.8,0.6c1.2,1,2.4,1.6,3.8,1.6c5.5,0,8.3-2.8,8.3-8.5c0-4.9-1.2-7.9-3.7-9.2C420.8,66.5,419.6,66.2,418,66.2z"/>
	<path class="st2" d="M434.7,74.6c0-2.1-0.1-3.9-0.1-5.4c0-1.5-0.1-2.8-0.1-3.7c0-0.9-0.1-3.5-0.1-7.7s0-6.8,0.1-7.8
		c0.1-1,0.3-1.7,0.7-2.2c0.4-0.5,1-0.7,2-0.7c1.4,0,2.2,0.7,2.5,2.1c-0.4,3.7-0.5,10.8-0.5,21.3c0,8,0.9,12.7,2.6,14.1
		c0.5-0.1,1-0.5,1.4-1.2c0.5-0.7,1-1.3,1.4-1.9s1-0.9,1.6-0.9s1.1,0.3,1.5,0.9c0.4,0.6,0.6,1.5,0.6,2.7c0,1.2-0.7,2.5-2,3.8
		c-1.3,1.3-2.9,1.9-4.6,1.9c-3.4,0-5.5-2.9-6.4-8.8C434.9,78.8,434.7,76.6,434.7,74.6z"/>
	<path class="st2" d="M470.5,67l-0.1,4.2c0,1.6-0.1,3.6-0.4,6.1c0.2,4.3,0.7,8.1,1.4,11.5c-0.1,0.4-0.4,0.8-1,1
		c-0.5,0.3-1.1,0.4-1.7,0.4c-0.6,0-1.1-0.1-1.4-0.2c-0.4-0.2-0.6-0.4-0.8-0.8c-0.1-0.3-0.2-0.6-0.3-0.9s-0.1-0.6-0.1-1
		c0-0.4,0-0.7-0.1-0.8c-1.9,2-4.3,2.9-7.4,2.9c-3,0-5.2-1.1-6.5-3.5c-1.3-2.3-2-5.5-2-9.6c0-7.2,2.1-11.8,6.2-13.8
		c1.3-0.6,2.7-0.9,4.4-0.9c1.6,0,3.2,0.3,4.8,0.8c0.5-0.7,1.2-1.1,2.2-1.1c1.7,0,2.5,1.3,2.6,3.8C470.5,65.9,470.5,66.5,470.5,67z
		 M464.6,81.3c0.8-2.2,1.1-4.6,1.1-7.1c0-2.5-0.3-4.4-0.9-5.5c-0.6-1.2-1.7-1.8-3.2-1.8c-0.6,0-1.5,0.1-2.5,0.2c-1,0.1-2,1-2.9,2.7
		c-0.9,1.7-1.3,3.1-1.3,4.3v2.4c0,4.2,0.9,6.9,2.6,8c0.5,0.4,1.2,0.5,2.1,0.5s1.8-0.4,2.8-1.1S464.2,82.3,464.6,81.3z"/>
	<path class="st2" d="M474.6,64.3c0-0.8,0.2-1.4,0.7-2c0.5-0.6,1-0.8,1.7-0.8c0.7,0,1.3,0.4,1.9,1.3c1,3.1,2,5.9,3,8.5
		c1.1,2.5,2.1,4.8,3,7c0.9,2.1,1.6,3.7,2,4.9c0.7-2.5,1.6-6,2.8-10.6c1.1-4.6,1.9-7.8,2.5-9.7c0.2-0.9,1.1-1.3,2.6-1.3
		c0.5,0,1,0.2,1.5,0.5s0.8,0.8,0.8,1.2s0,0.9-0.1,1.3c-5.7,20.2-9.9,34.1-12.5,41.6c-0.4,1.1-1,1.6-1.9,1.6c-0.6,0-1.1-0.3-1.6-0.8
		c-0.4-0.5-0.7-1.2-0.7-2.1s0.3-2.3,0.9-4.2c0.6-1.9,1.3-4.1,2-6.4c0.8-2.3,1.3-3.9,1.5-4.8c-1-1.6-2.6-5.2-4.8-10.8
		S475.9,68.4,474.6,64.3z"/>
	<path class="st2" d="M517.4,63.5c2,1.2,3,2.7,3,4.5c0,1.8-0.9,3.6-2.8,5.3c-1.8,1.8-4.1,2.8-6.7,3.2c-0.2,0-0.4,0.1-0.6,0.1
		c-0.1,0-0.3,0-0.6,0.1c-0.2,0-0.4,0-0.6,0c-0.1,0-0.3,0-0.6,0c-0.3,0-0.5,0-0.6,0c-0.1,0-0.3,0-0.7,0c-0.3,0-0.5,0-0.7,0
		c0.4,3.1,1,5.2,1.8,6.2c1.2,0.9,2.1,1.4,2.9,1.5c2,0,3.8-0.8,5.5-2.5c1.7-1.7,3-2.5,3.7-2.5c0.3,0,0.8,0.3,1.4,0.9
		c0.7,0.6,1,1.2,1,1.7c0,0.6-0.4,1.2-1.1,2c-0.7,0.8-1.6,1.6-2.7,2.5s-2.4,1.6-4,2.2s-3.1,1-4.4,1c-1.4,0-2.6-0.3-3.6-1
		c-1.8-1.2-3.2-3.1-4.2-5.9c-1-2.8-1.5-5.7-1.5-8.7c0-3.1,0.7-5.8,2-8.3c1.5-2.8,4-4.1,7.7-4.1C513.4,61.7,515.4,62.3,517.4,63.5z
		 M515.1,68.4c0-1.7-1.1-2.5-3.4-2.5c-1.5,0-2.8,0.9-3.9,2.6c-0.4,0.5-0.6,1.1-0.8,1.9c-0.1,0.7-0.3,1.5-0.4,2.2
		C512.3,72.5,515.1,71.1,515.1,68.4z"/>
	<path class="st2" d="M527.1,82l0.1-1.8c0-2.5-0.2-5.2-0.6-8.1c-0.4-2.9-0.8-5.1-1.2-6.5c-0.4-1.4-0.7-2.3-0.7-2.7
		c0-0.4,0.3-0.8,0.8-1.2c0.5-0.4,1.1-0.6,1.8-0.6c0.7,0,1.2,0.3,1.6,0.8s0.7,1,0.8,1.6s0.2,1.3,0.3,2.2c0.1,0.9,0.1,1.5,0.2,1.8
		c1-2.5,2.8-4.2,5.2-5.2c1.2-0.5,2.6-0.8,4.1-0.8c3.3,0,4.9,0.8,4.9,2.5c0,1-0.5,1.8-1.6,2.4c-0.4,0.2-0.9,0.3-1.3,0.4l-1.7-0.2
		c-5,0-7.6,5-7.6,14.9l0.1,5.5l-0.1,0.1c-0.2,0.7-0.5,1.4-1.1,1.9c-0.6,0.6-1.2,0.8-1.8,0.8c-0.9,0-1.5-0.7-1.7-2.2
		C527.2,86.2,527.1,84.3,527.1,82z"/>
</g>
<path class="st2" d="M33.4,20.7c0,0-18.7-1.5-20.5,15.3C12.9,36,18.3,20.9,33.4,20.7z"/>
<path class="st2" d="M542.6,125.7c0,0,18.7,1.5,20.5-15.3C563.1,110.4,557.7,125.5,542.6,125.7z"/>
<g id="BfQPDl.tif">
	<g>
		<path class="st2" d="M72.2,37.9c1.8,0,3.6,0,5.4,0c1.4,0.2,2.8,0.4,4.2,0.7c17.6,4,28.5,22,23.1,39.7c-4.7,15.7-20.3,25-36.3,21.7
			c-11.9-2.5-19.8-9.9-23.7-21.5c-0.7-2.1-1-4.3-1.3-6.5c0-1.8,0-3.6,0-5.4c0.1-1,0.2-2,0.4-3C46.8,51,54.3,42.8,66.5,38.9
			C68.4,38.4,70.3,38.1,72.2,37.9z M75,95c13.9,0.1,26-11.2,25.9-26c0-14.3-11.5-25.9-26-25.9c-14.8,0-25.9,12.1-25.9,26
			C49,83.4,60.7,95.1,75,95z"/>
		<path class="st2" d="M67.6,66.3c1.3,0,2.5,0,3.8,0c0.6,0,0.7-0.2,0.7-0.8c0-2.3,0-4.6,0-7c0-0.4,0-0.8,0.1-1.2
			c0.2-0.9,0.8-1.4,1.7-1.4c0.6,0,1.2,0,1.8,0c1.5,0,2.1,0.6,2.1,2.1c0,2.3,0,4.6,0,6.9c0,1.4-0.1,1.3,1.3,1.3c2.2,0,4.4,0,6.6,0
			c0.4,0,0.8,0,1.2,0.2c0.7,0.2,1.1,0.8,1.2,1.5c0,0.8,0,1.5,0,2.3c0,0.8-0.5,1.4-1.3,1.6C86.4,72,86,72,85.6,72c-2.4,0-4.7,0-7.1,0
			c-0.8,0-0.8,0-0.8,0.8c0,2.4,0,4.8,0,7.2c0,0.4,0,0.8-0.1,1.2c-0.2,0.7-0.7,1.1-1.4,1.1c-0.9,0-1.8,0-2.7,0
			c-0.9,0-1.5-0.7-1.5-1.8c0-1.7,0-3.4,0-5.1c0-0.9,0-1.8,0-2.7c0-0.5-0.2-0.7-0.7-0.7c-2.4,0-4.9,0-7.3,0c-0.4,0-0.7,0-1.1-0.1
			c-0.7-0.2-1.1-0.7-1.1-1.4c0-0.9,0-1.8,0-2.6c0-0.7,0.5-1.3,1.2-1.4c0.9-0.2,1.8-0.1,2.7-0.1C66.3,66.3,66.9,66.3,67.6,66.3z"/>
	</g>
</g>
</svg>
