<?xml version="1.0" encoding="utf-8"?>
<!-- Generator: Adobe Illustrator 21.0.0, SVG Export Plug-In . SVG Version: 6.00 Build 0)  -->
<svg version="1.1" id="Layer_1" xmlns="http://www.w3.org/2000/svg" xmlns:xlink="http://www.w3.org/1999/xlink" x="0px" y="0px"
	 viewBox="0 0 581.9 142.8" style="enable-background:new 0 0 581.9 142.8;" xml:space="preserve">
<style type="text/css">
	.st0{fill:#A7A8AC;}
	.st1{fill:#62C4B6;}
	.st2{fill:#FFFFFF;}
</style>
<path class="st0" d="M565.4,130.7c-21.5,14.1-517,13.3-539.4,0C3.6,117.3,3.1,39.9,17.2,19.9c14.1-20,521.5-15.3,547.6-1.1
	C585.6,30,586.8,116.6,565.4,130.7z"/>
<path class="st1" d="M559.4,126.7c-21.5,14.1-517,13.3-539.4,0C-2.4,113.3-2.9,35.9,11.2,15.9c14.1-20,521.5-15.3,547.6-1.1
	C579.6,26,580.8,112.6,559.4,126.7z"/>
<path class="st2" d="M34.1,21.2c0,0-18.7-1.5-20.5,15.3C13.6,36.5,19,21.4,34.1,21.2z"/>
<path class="st2" d="M543.3,126.2c0,0,18.7,1.5,20.5-15.3C563.8,110.9,558.4,126,543.3,126.2z"/>
</svg>
