<?xml version="1.0" encoding="utf-8"?>
<!-- Generator: Adobe Illustrator 21.0.0, SVG Export Plug-In . SVG Version: 6.00 Build 0)  -->
<svg version="1.1" id="Layer_1" xmlns="http://www.w3.org/2000/svg" xmlns:xlink="http://www.w3.org/1999/xlink" x="0px" y="0px"
	 viewBox="0 0 960 560" style="enable-background:new 0 0 960 560;" xml:space="preserve">
<style type="text/css">
	.st0{fill:#A7A8AC;}
	.st1{fill:#FFFFFF;}
	.st2{fill:#3CA7C2;}
</style>
<path class="st0" d="M527.9,322.1c-21.5,14.1-67.6,16.3-90,3c-22.4-13.3-24.5-72-10.4-92c14.1-20,72-18.3,98.2-4.1
	C546.5,240.2,549.4,308,527.9,322.1z"/>
<path class="st1" d="M524.9,319.1c-21.5,14.1-67.6,16.3-90,3c-22.4-13.3-24.5-72-10.4-92c14.1-20,72-18.3,98.2-4.1
	C543.5,237.2,546.4,305,524.9,319.1z"/>
<g>
	<path class="st2" d="M511.4,303.7c0,1.6-0.7,2.9-2.1,3.9c-1.4,1-2.9,1.5-4.6,1.5c-5.9,0-15.4-9.9-28.4-29.9
		c-0.6,1.1-1.5,2.6-2.7,4.8c-2.2,3.6-5.5,9.2-9.9,16.7c-0.9,1.9-2.3,4.7-4.2,8.4c-1.2,2.1-3,3.2-5.2,3.2c-5.7,0-8.5-1.2-8.5-3.7
		c0-1.8,1.8-4.7,5.4-8.7c1.1-1.2,4.7-6.3,10.6-15.2c5.9-8.9,8.9-13.6,8.9-14.1c0-0.7-3.3-5.6-10-14.6c-6.7-9.1-10-14.7-10-16.8
		c0-1.7,0.6-3.1,1.8-4.2c1.2-1.1,2.7-1.6,4.5-1.6c3.6,0,6.6,1.8,9.2,5.5c1.7,2.3,3.7,6.2,5.8,11.6c2.2,5.5,3.8,9,4.8,10.5
		c5.7-8.4,10.1-15.5,13.2-21.4c2.6-5,5.3-7.5,8.3-7.5c1.5,0,2.8,0.6,3.7,1.8c1,1.2,1.5,2.6,1.7,4.2l-21.2,32.3
		c2.9,5,6.5,10.6,10.8,16.9c6.1,8.9,10.1,13.4,11.8,13.4c0.5,0,1.1-0.1,1.8-0.2c0.8-0.1,1.3-0.2,1.7-0.2
		C510.5,300.2,511.4,301.4,511.4,303.7z"/>
</g>
</svg>
