<?xml version="1.0" encoding="utf-8"?>
<!-- Generator: Adobe Illustrator 21.0.0, SVG Export Plug-In . SVG Version: 6.00 Build 0)  -->
<svg version="1.1" id="Layer_1" xmlns="http://www.w3.org/2000/svg" xmlns:xlink="http://www.w3.org/1999/xlink" x="0px" y="0px"
	 viewBox="0 0 960 560" style="enable-background:new 0 0 960 560;" xml:space="preserve">
<style type="text/css">
	.st0{fill:#A7A7AB;}
	.st1{fill:#3CA7C2;}
	.st2{fill:#FFFFFF;}
</style>
<path class="st0" d="M264.9,44.5c38.3-25.1,401.5-22,441.5,1.8c40,23.8,33,429.2,7.9,464.9c-25.1,35.7-409.4,25.5-456.1,0.2
	C221,491.3,226.5,69.6,264.9,44.5z"/>
<path class="st1" d="M257.6,37.6c38.3-25.1,401.5-22,441.5,1.8c40,23.8,33,429.2,7.9,464.9c-25.1,35.7-409.4,25.5-456.1,0.2
	C213.7,484.5,219.3,62.7,257.6,37.6z"/>
<path class="st2" d="M509.5,517c-98.6,0-217.8-7.7-244.3-22.1c-6.6-3.6-14.1-12.8-19.5-53.9c-3.3-24.8-5.4-58.1-6.3-99
	c-1.2-52.6-0.2-116.3,2.6-170.5c4.6-89,8-82.1,12.4-84.8c2.7-1.6,164.7-5.4,220.2-5.4c57.5,0,207.9,6.8,215.7,7.5
	c9.6,0.9,20.6,0.6,22.6,57.5c1.3,38.6,1.4,86.2,1,130.6c-0.5,53.3-2,100.1-4.5,135.3c-4.1,59-9.6,73.6-14,79.9
	c-4.5,6.5-16.2,14.5-66.6,19.9C597.9,515.2,556.6,517,509.5,517z"/>
</svg>
