<?xml version="1.0" encoding="utf-8"?>
<!-- Generator: Adobe Illustrator 21.0.0, SVG Export Plug-In . SVG Version: 6.00 Build 0)  -->
<svg version="1.1" id="Layer_1" xmlns="http://www.w3.org/2000/svg" xmlns:xlink="http://www.w3.org/1999/xlink" x="0px" y="0px"
	 viewBox="0 0 443.9 280.7" style="enable-background:new 0 0 443.9 280.7;" xml:space="preserve">
<style type="text/css">
	.st0{fill:#F3E22F;}
	.st1{fill:#00A69C;}
	.st2{fill:#25A9E0;}
	.st3{fill:#EB008B;}
</style>
<path d="M181.8,217.2c-17.1,0-31.1-13.9-31.1-31.1c0-17.1,13.9-31.1,31.1-31.1h31.1v31.1C212.9,203.3,199,217.2,181.8,217.2z"/>
<path class="st0" d="M181.8,166.4c-10.9,0-19.7,8.9-19.7,19.7c0,10.9,8.9,19.7,19.7,19.7c10.9,0,19.7-8.8,19.7-19.7v-19.7H181.8z"/>
<path d="M227.9,186.2v-31.1H259c17.1,0,31.1,13.9,31.1,31.1c0,17.1-13.9,31.1-31.1,31.1C241.8,217.2,227.9,203.3,227.9,186.2z"/>
<path class="st1" d="M239.3,166.4v19.7c0,10.9,8.9,19.7,19.7,19.7c10.9,0,19.7-8.8,19.7-19.7c0-10.9-8.9-19.7-19.7-19.7H239.3z"/>
<path d="M172,57.9c-23.1,0-41.9,18.7-41.9,41.9c0,23.1,18.7,41.9,41.9,41.9h41.9V99.8C213.9,76.6,195.2,57.9,172,57.9z"/>
<path class="st2" d="M200.7,128.4H172c-15.8,0-28.6-12.8-28.6-28.6c0-15.8,12.8-28.6,28.6-28.6c15.8,0,28.6,12.8,28.6,28.6V128.4z"
	/>
<path d="M269.5,57.9c-23.1,0-41.9,18.7-41.9,41.9v41.9h41.9c23.1,0,41.9-18.7,41.9-41.9C311.4,76.6,292.6,57.9,269.5,57.9z"/>
<path class="st3" d="M269.5,128.4h-28.6V99.8c0-15.8,12.8-28.6,28.6-28.6c15.8,0,28.6,12.8,28.6,28.6
	C298.1,115.6,285.3,128.4,269.5,128.4z"/>
<path d="M230.3,57.8c-0.4-0.2-1.1-0.6-1.5-1.5c-0.5-1.1-0.9-4.1-0.9-18c-0.1-13.4,1.2-25.1,3.8-34.9l0.4-1.5L245,4.2l-1.2,2.1
	c-6.4,11.3-10,27.5-10.8,48.2c-0.1,1.4-0.3,2.8-1.5,3.3l-0.6,0.3L230.3,57.8z"/>
<path d="M211.5,57.7c0.4-0.2,1.1-0.6,1.5-1.5c0.5-1.1,0.9-4.1,0.9-18c0.1-13.4-1.2-25.1-3.8-34.9l-0.4-1.5l-12.9,2.3l1.2,2.1
	c6.4,11.3,10,27.5,10.8,48.2c0.1,1.4,0.3,2.8,1.5,3.3l0.6,0.3L211.5,57.7z"/>
<g>
	<path d="M27.4,277.7l-13.7-18.8h-3.1v18.8h-7v-38.5h13.8c2.6,0,5,1,6.9,2.9s2.9,4.3,2.9,6.9c0,3.8-2.3,7.3-5.6,8.9L36,277.7H27.4z
		 M17.4,251.8c1.5,0,2.8-1.2,2.8-2.8s-1.3-2.8-2.8-2.8h-6.8v5.6H17.4z"/>
	<path d="M41.4,277.7v-38.5h25.4v7H48.6v5.7h15.8v7.2H48.6v11.5h17.6v7.1H41.4z"/>
	<path d="M100.8,277.7l-17.1-25.3v25.3h-7.2v-38.5h7l17,25.2v-25.2h7.2v38.5H100.8z"/>
	<path d="M143,277.7l-3.9-10.4h-12.8l-4,10.4h-7.7l14.8-38.5h6.5l14.9,38.5H143z M136.3,260.2l-3.6-9.4l-3.6,9.4H136.3z"/>
	<path d="M162.1,277.7v-31.4h-9.5v-7.1h26.2v7.1h-9.5v31.4H162.1z"/>
	<path d="M210.2,277.7l-3.9-10.4h-12.8l-4,10.4h-7.7l14.8-38.5h6.5l14.9,38.5H210.2z M203.5,260.2l-3.6-9.4l-3.6,9.4H203.5z"/>
	<path d="M264.3,277.7l-13.7-18.8h-3.1v18.8h-7v-38.5h13.8c2.6,0,5,1,6.9,2.9s2.9,4.3,2.9,6.9c0,3.8-2.3,7.3-5.6,8.9l14.3,19.7
		H264.3z M254.3,251.8c1.5,0,2.8-1.2,2.8-2.8s-1.3-2.8-2.8-2.8h-6.8v5.6H254.3z"/>
	<path d="M274.6,258.1c0-11.1,9-20.2,20.1-20.2c11.1,0,20.2,9,20.2,20.2c0,11.1-9,20.1-20.2,20.1
		C283.6,278.2,274.6,269.2,274.6,258.1z M281.9,258.1c0,7.1,5.8,12.9,12.9,12.9c7.1,0,12.9-5.8,12.9-12.9c0-7.2-5.8-13-12.9-13
		C287.6,245.2,281.9,251,281.9,258.1z"/>
	<path d="M333.6,276.7c-2.4-1-4.5-2.5-6.4-4.3c-1.9-1.8-3.4-4-4.3-6.4c-1.1-2.5-1.6-5.1-1.6-7.8c0-11.1,9.1-20.1,20.2-20.1
		c3.1,0,6.3,0.8,9,2.2c2.8,1.4,5.2,3.5,7.1,6l0.9,1.1l-5.8,4.3l-0.8-1.1c-2.4-3.3-6.2-5.2-10.4-5.2c-7.1,0-13,5.8-13,12.9
		c0,7.2,5.8,13,13,13c4.1,0,7.9-1.9,10.4-5.2l0.8-1l5.7,4.2l-0.9,1.1c-1.9,2.5-4.3,4.5-7.1,6c-2.8,1.4-5.8,2.1-9,2.1
		C338.8,278.3,336.1,277.7,333.6,276.7z"/>
	<path d="M390.1,277.7V259h-15.6v18.7h-7.2v-38.5h7.2v12.8h15.6v-12.8h7.2v38.5H390.1z"/>
	<path d="M433.1,277.7l-3.9-10.4h-12.8l-4,10.4h-7.7l14.8-38.5h6.5l14.9,38.5H433.1z M426.4,260.2l-3.6-9.4l-3.6,9.4H426.4z"/>
</g>
</svg>
