<?xml version="1.0" encoding="utf-8"?>
<!-- Generator: Adobe Illustrator 21.0.0, SVG Export Plug-In . SVG Version: 6.00 Build 0)  -->
<svg version="1.1" xmlns="http://www.w3.org/2000/svg" xmlns:xlink="http://www.w3.org/1999/xlink" x="0px" y="0px"
	 viewBox="0 0 140.7 131.5" style="enable-background:new 0 0 140.7 131.5;" xml:space="preserve">
<style type="text/css">
	.Drop_x0020_Shadow{fill:none;}
	.Outer_x0020_Glow_x0020_5_x0020_pt{fill:none;}
	.Blue_x0020_Neon{fill:none;stroke:#8AACDA;stroke-width:7;stroke-linecap:round;stroke-linejoin:round;}
	.Chrome_x0020_Highlight{fill:url(#SVGID_1_);stroke:#FFFFFF;stroke-width:0.3629;stroke-miterlimit:1;}
	.Jive_GS{fill:#FFDD00;}
	.Alyssa_GS{fill:#A6D0E4;}
	.st0{fill:#A7A8AC;}
	.st1{fill:#FFFFFF;stroke:#A7A8AC;stroke-miterlimit:10;}
	.st2{fill:#BDB9BA;}
	.st3{fill:#FFC0D2;}
	.st4{fill:#FFFFFF;}
	.st5{fill:#E5E1E1;}
	.st6{fill:#E70217;}
</style>
<linearGradient id="SVGID_1_" gradientUnits="userSpaceOnUse" x1="-328.616" y1="-334.5967" x2="-328.616" y2="-335.5967">
	<stop  offset="0" style="stop-color:#656565"/>
	<stop  offset="0.618" style="stop-color:#1B1B1B"/>
	<stop  offset="0.6292" style="stop-color:#545454"/>
	<stop  offset="0.9831" style="stop-color:#3E3E3E"/>
</linearGradient>
<g id="bg">
	<path class="st0" d="M124.3,118.3c-23.8,15.6-74.9,18.1-99.6,3.3C-0.1,106.9-2.4,42,13.1,19.8C28.7-2.3,92.9-0.4,121.9,15.2
		C144.9,27.7,148.1,102.8,124.3,118.3z"/>
	<path class="st1" d="M121,115c-23.8,15.6-74.9,18.1-99.6,3.3C-3.4,103.6-5.8,38.7,9.8,16.5C25.4-5.7,89.6-3.8,118.5,11.9
		C141.6,24.4,144.7,99.5,121,115z"/>
</g>
<g id="animal">
	<g>
		<path class="st2" d="M48.2,88.1c-3.4,7.6,6.3,16.3,6.3,16.3s-12.1,0.1-14.8,2.9c-2.7,2.7,0.7,5.8,5.2,4.8
			c4.5-1.1,18.5-3.8,20.4-3.3c1.9,0.5,0.3-4.2-1.6-6.1c-1.9-1.9-5.8-20.7-5.8-20.7S51.6,80.4,48.2,88.1z"/>
		<path class="st2" d="M88.9,88.1c3.4,7.6-6.3,16.3-6.3,16.3s12.1,0.1,14.8,2.9c2.7,2.7-0.7,5.8-5.2,4.8c-4.5-1.1-18.5-3.8-20.4-3.3
			c-1.9,0.5-0.3-4.2,1.6-6.1c1.9-1.9,5.8-20.7,5.8-20.7S85.5,80.4,88.9,88.1z"/>
		<path class="st2" d="M70.9,37.5c0-0.4,3.1-12.8,5.2-13.5c2-0.7,14.4,4.2,12.8,6.7c-1.6,2.4-9.5-1.5-10.5,0c-1,1.5-3.1,7.5-4.8,7.6
			C72,38.4,70.9,39.5,70.9,37.5z"/>
		<path class="st2" d="M60.2,40.3c0,0-6.1-3.5-10.1-10.2c-3.9-6.7-3.9-17-1.6-16.9c2.3,0.1,13.1,19.3,14.4,24.6
			c1.4,5.3-2.4,2.2-2.4,2.2L60.2,40.3z"/>
		<path class="st3" d="M60,38c0,0-10.1-10.6-8.3-14.1c1.8-3.5,9.5,12.9,9.5,12.9L60,38z"/>
		<path class="st3" d="M79.1,30.4c-2.6-3.7-6.8,7.3-6.4,7.3c0,0,0,0.4,0.1,0.8c0.3-0.1,0.6-0.1,0.9-0.2c1.6-0.1,3.8-6.1,4.8-7.6
			C78.5,30.5,78.8,30.4,79.1,30.4z"/>
		<path class="st2" d="M83.3,85.4c0,11.2-1.8,20.3-14.4,20.3c-13.2,0-14.4-9.1-14.4-20.3c0-11.2,10.2-20.3,14.4-20.3
			C74,65.1,83.3,74.2,83.3,85.4z"/>
		<path class="st3" d="M69,76c-6.8,0-12.4,6.8-12.4,15.1c0,6.6,3.4,12.2,8.3,14.3c1.2,0.2,2.6,0.4,4.1,0.4c1.7,0,3.1-0.2,4.4-0.5
			c4.7-2.2,8-7.7,8-14.2C81.4,82.7,75.9,76,69,76z"/>
		<path class="st2" d="M62.5,65c0,0-3.2,0.1-5.3,3.4c-2.1,3.3-2.3,8.2,0.4,10.8c2.8,2.6,7.3,8.9,7.4,10.6c0.1,1.6,3.8,2.5,3.6-4.1
			c-0.2-6.6-1.2-5.9-2.8-8.2c-1.5-2.3-3.5-5.2-3.5-6.1C62.3,70.4,62.5,65,62.5,65z"/>
		<path class="st2" d="M76.2,65c0,0,3.2,0.1,5.3,3.4c2.1,3.3,2.3,8.2-0.4,10.8c-2.8,2.6-7.3,8.9-7.4,10.6c-0.1,1.6-3.8,2.5-3.6-4.1
			c0.2-6.6,1.2-5.9,2.8-8.2c1.5-2.3,3.5-5.2,3.5-6.1C76.3,70.4,76.2,65,76.2,65z"/>
		<path class="st4" d="M67.7,64.6c0,0-3.4-1.7-6.2,1.2l1,0.4c0,0-3,1.6-3.7,4.4l1.7-0.7c0,0-2.1,1.8-1.7,4.2l1.9-1.6
			c0,0-0.3,3.2,1.1,5.6l0.8-1.4c0,0,2.1,4.5,5.6,5.7c0,0,5.1-1.1,6.2-5.4c0,0,0.3,1-0.1,2.1C74,80.2,74.8,79,74.8,79
			s2.1-3.1,1.3-5.8c0,0,1.1,0.9,1.4,1.5c0,0,0.8-3.1-0.8-5.8c0,0,0.7-0.4,1.1,0.4c0,0-0.1-3.1-3.2-3.5c0,0,0.8-1.7,1.9-1.9
			c0,0-4.5-1-5.7,0.3c0,0-2.4-1.2-3.5-0.9L67.7,64.6z"/>
		<path class="st2" d="M82.9,50.2c1.9,8.7-6.7,15.1-15,15.1c-8.3,0-16.6-6.5-15-15.1c1.5-8.2,6.7-15.1,15-15.1
			C76.1,35.1,81.1,42,82.9,50.2z"/>
		<circle class="st4" cx="60.4" cy="46.5" r="4.6"/>
		<g>
			<circle class="st4" cx="76.1" cy="46.5" r="4.6"/>
		</g>
		<path class="st5" d="M84.9,56.6c0,6.1-7,11-16.8,11c-9.7,0-16-4.9-16-11c0-6.1,6.5-9,16.2-9C78.1,47.6,84.9,50.5,84.9,56.6z"/>
		<path d="M68.2,64.4c-2.1-0.1-2.5-1-2.5-1l-0.3,0.4c0,0,1.1,1.1,2.7,1.2l0.2,2.5c0.2,0,0.4,0,0.6,0l-0.2-2.6c0,0,2.3-0.2,3.1-1.5
			L71.3,63C71.3,63,70.4,64.5,68.2,64.4z"/>
		<ellipse class="st6" cx="68.5" cy="49.3" rx="4.7" ry="2.9"/>
		<ellipse cx="76.1" cy="44.8" rx="2.8" ry="2.8"/>
		<ellipse cx="60.5" cy="44.8" rx="2.8" ry="2.8"/>
	</g>
</g>
</svg>
