<?xml version="1.0" encoding="utf-8"?>
<!-- Generator: Adobe Illustrator 21.0.0, SVG Export Plug-In . SVG Version: 6.00 Build 0)  -->
<svg version="1.1" xmlns="http://www.w3.org/2000/svg" xmlns:xlink="http://www.w3.org/1999/xlink" x="0px" y="0px"
	 viewBox="0 0 140.7 131.5" style="enable-background:new 0 0 140.7 131.5;" xml:space="preserve">
<style type="text/css">
	.Drop_x0020_Shadow{fill:none;}
	.Outer_x0020_Glow_x0020_5_x0020_pt{fill:none;}
	.Blue_x0020_Neon{fill:none;stroke:#8AACDA;stroke-width:7;stroke-linecap:round;stroke-linejoin:round;}
	.Chrome_x0020_Highlight{fill:url(#SVGID_1_);stroke:#FFFFFF;stroke-width:0.3629;stroke-miterlimit:1;}
	.Jive_GS{fill:#FFDD00;}
	.Alyssa_GS{fill:#A6D0E4;}
	.st0{fill:#A7A8AC;}
	.st1{fill:#FFFFFF;stroke:#A7A8AC;stroke-miterlimit:10;}
	.st2{fill:#EF7726;}
	.st3{fill:#F7931E;}
	.st4{fill:#FFFFFF;}
	.st5{fill:#AC401A;}
	.st6{fill:#FBB03B;}
</style>
<linearGradient id="SVGID_1_" gradientUnits="userSpaceOnUse" x1="-328.616" y1="-334.5967" x2="-328.616" y2="-335.5967">
	<stop  offset="0" style="stop-color:#656565"/>
	<stop  offset="0.618" style="stop-color:#1B1B1B"/>
	<stop  offset="0.6292" style="stop-color:#545454"/>
	<stop  offset="0.9831" style="stop-color:#3E3E3E"/>
</linearGradient>
<g id="bg">
	<path class="st0" d="M124.3,118.3c-23.8,15.6-74.9,18.1-99.6,3.3C-0.1,106.9-2.4,42,13.1,19.8C28.7-2.3,92.9-0.4,121.9,15.2
		C144.9,27.7,148.1,102.8,124.3,118.3z"/>
	<path class="st1" d="M121,115c-23.8,15.6-74.9,18.1-99.6,3.3C-3.4,103.6-5.8,38.7,9.8,16.5C25.4-5.7,89.6-3.8,118.5,11.9
		C141.6,24.4,144.7,99.5,121,115z"/>
</g>
<g id="animal">
	<g>
		<path class="st2" d="M89.9,36.4c0.8-2.1,0-4.7-3.9-6.7c-12.9-6.3-24.1-1.3-19.8,8L89.9,36.4z"/>
		<path class="st2" d="M61,39.8c-1.5-1.5-3.5-1.9-6.4-1.5c-4,0.5-11.1,8.2-5.3,11.2C55,52.6,61,39.8,61,39.8z"/>
		<path class="st2" d="M72.9,86.3c-0.3,2.1-1.6,3.7-4.1,5.2c-3.5,2-13.8,0.5-11.1-5.5C60.3,80,72.9,86.3,72.9,86.3z"/>
		<path class="st3" d="M78.3,34.9c17.3,0,43.2,11.5,43.2,31.5c0,4.2-4.5,6-4.5,6s-3.4,19.3-31.7,18.4c-3.2,5.1-4.7,7.8-8.2,7.8
			c-3.5,0-6.2-4.2,1.3-8.3c-4,0-18.5-5.9-27.6-5.9c-9.1,0-18.4,12.3-24.4,13c-6.2,1.2-17.2-23.2-6.8-25.9c10.3-2.7,11.9-3.9,16-6.6
			C43.7,59.6,53.5,34.9,78.3,34.9z"/>
		<circle class="st4" cx="101.5" cy="58.5" r="8.8"/>
		<circle cx="99.3" cy="58.5" r="5"/>
		<path class="st3" d="M77.2,98.6c3.5,0,5-2.7,8.2-7.8c28.3,0.9,31.7-18.4,31.7-18.4c-7.4,16.9-21.7,17.4-34.3,16.4
			c-8-0.6-26.4-8.9-38.3-4.3c-3.8,1.5-13.3,10.9-18.3,11.1c-1.9,0.1-4.3-1-5.1-1.8l0,0c1.8,2.4,3.8,3.9,5.4,3.6
			c6-0.7,15.3-13,24.4-13c9.1,0,23.6,5.9,27.6,5.9C71,94.4,73.8,98.6,77.2,98.6z"/>
		<path d="M83.5,46.6c2.1-3.6,4.8-6.9,8-9.8c-0.3-0.1-0.6-0.1-0.8-0.2c-3.1,2.9-5.7,6.1-7.8,9.7c-3.3,5.8-5.1,12.5-5.1,19.4
			c0,8.3,2.5,16.9,7.7,25.2c0.3,0,0.6,0,0.9,0c-5.3-8.3-7.9-16.9-7.9-25.2C78.5,58.8,80.2,52.3,83.5,46.6z M91.1,50.9
			c2.3-4.1,5.7-7.7,10-10.7c-0.3-0.1-0.5-0.2-0.8-0.4c-4.3,3-7.6,6.6-9.9,10.7c-2.6,4.5-4,9.6-4,15c0,7.7,2.8,16.2,9.2,24.5
			c0.3,0,0.5-0.1,0.8-0.2c-6.5-8.3-9.3-16.7-9.3-24.4C87.2,60.3,88.5,55.4,91.1,50.9z M56.2,42.9c-0.4,0.4-0.9,0.7-1.3,1.1
			c-2.4,5.8-5,12.1-5,18.6c0,7.4,3,15,6.3,22.3c0.3,0,0.6,0.1,0.9,0.2c-3.4-7.3-6.5-15-6.5-22.4C50.7,55.7,53.4,49,56.2,42.9z
			 M66.7,45.8c-2.6,5-3.9,10.7-3.9,16.7c0,8.7,2.8,17.9,9.1,26.2c0.4,0.1,0.8,0.2,1.2,0.3c-6.6-8.5-9.6-17.8-9.6-26.6
			c0-5.9,1.3-11.5,3.8-16.4c2.3-4.4,5.5-8.3,9.5-11.2c-0.5,0-0.9,0-1.4,0.1C71.8,38,68.8,41.6,66.7,45.8z M37.6,63.3
			c-0.2,0.2-0.5,0.4-0.7,0.7c0.2,5,1.6,10,4.5,14.9c1.3,2.2,2.9,4.4,4.8,6.5c0.2-0.1,0.5-0.2,0.7-0.3c-2-2.1-3.6-4.4-4.9-6.6
			C39.1,73.6,37.7,68.4,37.6,63.3z M29.3,68.5c-0.2,0.1-0.5,0.2-0.7,0.3c0.8,5,2.5,9.8,5.2,14.5c1.3,2.3,2.9,4.5,4.7,6.7
			c0.2-0.1,0.4-0.3,0.6-0.4c-1.8-2.1-3.4-4.3-4.7-6.6C31.8,78.3,30,73.5,29.3,68.5z"/>
		<path class="st4" d="M90.4,50.6c2.3-4.1,5.6-7.7,9.9-10.7c-2.9-1.3-5.7-2.6-8.9-3.2c-3.2,2.9-5.9,6.2-8,9.8c-3.3,5.7-5,12.2-5,19
			c0,8.3,2.6,16.9,7.9,25.2c3.3,0.3,6.4,0.1,9.3-0.7c-6.4-8.4-9.2-16.8-9.2-24.5C86.5,60.2,87.9,55.1,90.4,50.6z M50.7,62.6
			c0,7.4,3,15.1,6.5,22.4c5.2,1.2,10.5,2.6,14.8,3.8c-6.3-8.4-9.1-17.6-9.1-26.2c0-6,1.4-11.7,3.9-16.7c2.1-4.2,5.1-7.9,8.8-10.8
			c-7.4,0.3-14.1,3.5-19.3,7.9C53.4,49,50.7,55.7,50.7,62.6z M36.9,64c-0.4,0.4-0.8,0.7-1.2,0.9c-2.2,1.5-3.8,2.4-6.4,3.6
			c0.7,4.9,2.5,9.8,5.1,14.4c1.3,2.3,2.9,4.5,4.7,6.6c2.3-1.6,4.6-3,7-4.1c-1.9-2.1-3.5-4.3-4.8-6.5C38.5,74,37.1,69,36.9,64z"/>
		<path class="st5" d="M102.2,74c-1-2.7,7.4,4,14.9-1.6C111.4,79.1,102.6,75.2,102.2,74z"/>
		<path class="st6" d="M116.9,27"/>
		<path class="st2" d="M74.9,61.4c-10.1-4.6-18.3-1.4-17.4,7.2c0.8,7,7,12.1,18.7,7.2C74,72,73.5,65.2,74.9,61.4z"/>
	</g>
</g>
</svg>
