<?xml version="1.0" encoding="utf-8"?>
<!-- Generator: Adobe Illustrator 21.0.0, SVG Export Plug-In . SVG Version: 6.00 Build 0)  -->
<svg version="1.1" xmlns="http://www.w3.org/2000/svg" xmlns:xlink="http://www.w3.org/1999/xlink" x="0px" y="0px"
	 viewBox="0 0 140.7 131.5" style="enable-background:new 0 0 140.7 131.5;" xml:space="preserve">
<style type="text/css">
	.Drop_x0020_Shadow{fill:none;}
	.Outer_x0020_Glow_x0020_5_x0020_pt{fill:none;}
	.Blue_x0020_Neon{fill:none;stroke:#8AACDA;stroke-width:7;stroke-linecap:round;stroke-linejoin:round;}
	.Chrome_x0020_Highlight{fill:url(#SVGID_1_);stroke:#FFFFFF;stroke-width:0.3629;stroke-miterlimit:1;}
	.Jive_GS{fill:#FFDD00;}
	.Alyssa_GS{fill:#A6D0E4;}
	.st0{fill:#A7A8AC;}
	.st1{fill:#FFFFFF;stroke:#A7A8AC;stroke-miterlimit:10;}
	.st2{fill:#D39B57;}
	.st3{fill:#F3BB70;}
	.st4{fill:#A2572D;}
	.st5{fill:#DD9E58;}
	.st6{fill:#FFFFFF;}
</style>
<linearGradient id="SVGID_1_" gradientUnits="userSpaceOnUse" x1="-328.616" y1="-334.5967" x2="-328.616" y2="-335.5967">
	<stop  offset="0" style="stop-color:#656565"/>
	<stop  offset="0.618" style="stop-color:#1B1B1B"/>
	<stop  offset="0.6292" style="stop-color:#545454"/>
	<stop  offset="0.9831" style="stop-color:#3E3E3E"/>
</linearGradient>
<g id="bg">
	<path class="st0" d="M124.3,118.3c-23.8,15.6-74.9,18.1-99.6,3.3C-0.1,106.9-2.4,42,13.1,19.8C28.7-2.3,92.9-0.4,121.9,15.2
		C144.9,27.7,148.1,102.8,124.3,118.3z"/>
	<path class="st1" d="M121,115c-23.8,15.6-74.9,18.1-99.6,3.3C-3.4,103.6-5.8,38.7,9.8,16.5C25.4-5.7,89.6-3.8,118.5,11.9
		C141.6,24.4,144.7,99.5,121,115z"/>
</g>
<g id="animal">
	<g>
		<path class="st2" d="M56.9,76c0,0,3.5,18.7,0.9,20c-2.6,1.3-8.6,4.9-6.8,8.2c1.8,3.3,8.1,4.8,10.8,0.6c2.7-4.2,4.2-19,4.2-19
			L63.1,76H56.9z"/>
		<path class="st2" d="M87.5,91.4c0,0,6.6,3.3,5.3,5.5c-1.3,2.2-7.3,5.1-5.9,8.1c1.5,2.9,8.2,2.2,10.3-1.1c2-3.3,2-13.2,1.3-13.2
			C97.7,90.7,87.5,91.4,87.5,91.4z"/>
		<path class="st3" d="M60,76.2c0,0,2.2,21.4,1.1,23.1c-1.1,1.6-7.9,3.5-8.2,6.2c-0.4,2.7,2.9,4.9,7.9,4.4c4.9-0.6,9.7,0.2,10.3-3.5
			c0.5-3.7-1.6-6-1.8-8.6c-0.2-2.6,0-5.3,0-5.3s6.2,1.6,11,1.6c4.8,0,10.6-1.5,10.6-1.5s4.6,1.3,4.6,3.5c0,2.2-4.9,6.1-6.2,7.9
			c-1.6,2.2-1.3,5.3,3.8,4.9c5.1-0.4,15.7,0.4,15.2-4c-0.6-4.4-6.4-7.1-5.9-11.2c0.6-4,5.7-13.7-0.9-21.4c-6.6-7.7-19-2-22.5-7.7
			C75.4,59,60,76.2,60,76.2z"/>
		<g>
			<path class="st3" d="M98.2,74.1l0.2,0.5c0.4-0.2,10.1-3.7,15.4,5.4l0.5-0.3C108.7,70.3,98.3,74.1,98.2,74.1z"/>
		</g>
		<path class="st4" d="M119.4,81.1c0,0-5-6.9-6.6-2.2C111.1,83.6,116.3,85.8,119.4,81.1z"/>
		<path class="st4" d="M92.8,50.4c2-1.3,3.3-3.5,3.3-6c0-1.8-0.7-3.5-1.8-4.7c0.8-1.2,1.2-2.6,1.2-4.2c0-4.1-3.2-7.4-7.3-7.6
			c-0.5-2.2-2.5-3.9-4.9-3.9c-0.1,0-0.2,0-0.3,0c-1.1-2.7-3.8-4.6-6.9-4.6c-0.2,0-0.4,0-0.6,0c-0.6-1-1.7-1.7-3-1.7
			c-0.7,0-1.4,0.2-2,0.6c-1.7-1.8-4.1-3-6.9-3c-2.1,0-4,0.7-5.6,1.9c-1.1-0.6-2.4-0.9-3.7-0.9c-2.4,0-4.6,1.1-6.1,2.9
			c-1.2-0.7-2.5-1-4-1c-2.4,0-4.6,1.1-6.1,2.8c-0.1,0-0.2,0-0.4,0c-3,0-5.6,2-6.4,4.8c-0.3,0-0.7-0.1-1-0.1c-4.5,0-8.1,3.6-8.1,8.1
			c0,1,0.2,2,0.6,3c-1.7,1.5-2.8,3.7-2.8,6.1c0,1.3,0.3,2.4,0.8,3.5c-1.9,1.4-3.2,3.6-3.2,6.1c0,2.8,1.6,5.3,3.9,6.6
			c-0.3,0.8-0.4,1.7-0.4,2.6c0,3.1,1.8,5.8,4.4,7.2c0,0.1,0,0.2,0,0.3c0,4.5,3.5,8.2,7.9,8.6c1.3,3.6,4.8,6.3,8.9,6.3
			c1.9,0,3.6-0.5,5.1-1.5c1.2,1.2,2.8,2,4.6,2c1.1,0,2.1-0.3,3-0.7c1.7,1.2,3.7,1.8,5.9,1.8c3.9,0,7.3-2.2,9.1-5.4
			c1,0.4,2.1,0.6,3.2,0.6c4.2,0,7.7-2.8,8.7-6.6c0.3,0,0.6,0,0.9,0c4.8,0,8.6-3.9,8.6-8.6c0-1.2-0.3-2.4-0.7-3.5
			c2.8-0.7,5-3.3,5-6.3C95.7,53.6,94.5,51.6,92.8,50.4z"/>
		<circle class="st3" cx="40.3" cy="36.5" r="8.5"/>
		<circle class="st5" cx="40.3" cy="36.5" r="5.6"/>
		<circle class="st3" cx="75.2" cy="37.7" r="8.9"/>
		<circle class="st5" cx="75.2" cy="37.7" r="5.2"/>
		<path class="st3" d="M38.5,49.7c0,0-5.2-17.1,13.7-19.4C81,26.9,77.5,48.6,77.5,48.6s6,8.1,2.4,17c-3.7,9-16.3,12.1-27.5,10.8
			c-10.7-1.2-18.5-4-19.6-13C31.8,54.5,36.3,51.6,38.5,49.7z"/>
		<path class="st5" d="M58.4,60.2c-10.4,0-19.5,2.2-25.1,5.5c2,7.2,9.3,9.7,19.2,10.8c11.2,1.3,23.8-1.8,27.5-10.8
			c0.2-0.5,0.4-1,0.5-1.5C74.9,61.7,67,60.2,58.4,60.2z"/>
		<path class="st4" d="M53.4,60.5l-0.6-0.7c0,0,0.7-12.8,4.8-12.9c4.1-0.1,5.5,12.4,5.4,13.7C62.9,62,53.4,60.5,53.4,60.5z"/>
		<g>
			<circle class="st6" cx="69.9" cy="45" r="6.7"/>
			<circle cx="69.9" cy="46.6" r="4.7"/>
		</g>
		<g>
			<circle class="st6" cx="46.3" cy="45" r="6.7"/>
			<circle cx="47.5" cy="46.9" r="4.7"/>
		</g>
		<path d="M52.7,60.7c0-0.4,0-0.7,0.1-1c0,0,8.8-2.1,10.3,0.1c1.5,2.2-3.4,7.2-6,6.2C54.4,65.1,52.8,62.4,52.7,60.7z"/>
		<path d="M58.3,66.3l0.1,3.9c0,0-3.2,0.2-3.8-1.9l-0.5,0.4c0,0,2.4,2.7,4.8,2.1c2.4-0.5,3.1-2.3,3.1-2.3l-0.4-0.3
			c0,0-1.1,1.7-2.8,1.9l0-3.8L58.3,66.3z"/>
	</g>
</g>
</svg>
