<?xml version="1.0" encoding="utf-8"?>
<!-- Generator: Adobe Illustrator 21.0.0, SVG Export Plug-In . SVG Version: 6.00 Build 0)  -->
<svg version="1.1" xmlns="http://www.w3.org/2000/svg" xmlns:xlink="http://www.w3.org/1999/xlink" x="0px" y="0px"
	 viewBox="0 0 140.7 131.5" style="enable-background:new 0 0 140.7 131.5;" xml:space="preserve">
<style type="text/css">
	.Drop_x0020_Shadow{fill:none;}
	.Outer_x0020_Glow_x0020_5_x0020_pt{fill:none;}
	.Blue_x0020_Neon{fill:none;stroke:#8AACDA;stroke-width:7;stroke-linecap:round;stroke-linejoin:round;}
	.Chrome_x0020_Highlight{fill:url(#SVGID_1_);stroke:#FFFFFF;stroke-width:0.3629;stroke-miterlimit:1;}
	.Jive_GS{fill:#FFDD00;}
	.Alyssa_GS{fill:#A6D0E4;}
	.st0{fill:#A7A8AC;}
	.st1{fill:#FFFFFF;stroke:#A7A8AC;stroke-miterlimit:10;}
	.st2{fill:#FFBDBD;}
	.st3{fill:#FFFFFF;}
	.st4{fill:#FFFEFE;}
</style>
<linearGradient id="SVGID_1_" gradientUnits="userSpaceOnUse" x1="-328.616" y1="-334.5967" x2="-328.616" y2="-335.5967">
	<stop  offset="0" style="stop-color:#656565"/>
	<stop  offset="0.618" style="stop-color:#1B1B1B"/>
	<stop  offset="0.6292" style="stop-color:#545454"/>
	<stop  offset="0.9831" style="stop-color:#3E3E3E"/>
</linearGradient>
<g id="bg">
	<path class="st0" d="M124.3,118.3c-23.8,15.6-74.9,18.1-99.6,3.3C-0.1,106.9-2.4,42,13.1,19.8C28.7-2.3,92.9-0.4,121.9,15.2
		C144.9,27.7,148.1,102.8,124.3,118.3z"/>
	<path class="st1" d="M121,115c-23.8,15.6-74.9,18.1-99.6,3.3C-3.4,103.6-5.8,38.7,9.8,16.5C25.4-5.7,89.6-3.8,118.5,11.9
		C141.6,24.4,144.7,99.5,121,115z"/>
</g>
<g id="animal">
	<g>
		<path d="M79.8,106.2c0,0,1.3,3.2,5.5,2.3c4.2-0.8,6-2.8,5.5-4.9c-0.5-2-4.7-3.2-5.4-2.8C84.8,101.2,79.8,106.2,79.8,106.2z"/>
		<g>
			<path d="M44.3,71.6c-2.9,1-5.2,3.3-6.3,6.6c-2,5.9-0.5,14.1,4,20.9c7.4,11.2,23.6,8.3,24.3,8.1c1.4-0.3,2.3-1.6,2-2.9
				c-0.3-1.4-1.6-2.3-2.9-2c-0.1,0-13.7,2.4-19.2-6c-4.2-6.3-4.7-12.8-3.5-16.5c0.6-1.9,1.7-3,3.2-3.5c2.4-0.8,5-0.2,6.4,1.6
				c1.2,1.5,1.1,3.6-0.4,5.8c-0.7,1.2-0.4,2.7,0.8,3.5c1.2,0.8,2.7,0.4,3.5-0.8c2.6-4,2.6-8.3,0.1-11.6
				C53.6,71.5,48.8,70.2,44.3,71.6z"/>
		</g>
		<path d="M61.6,105.3c0,0-4.7,2.5-2.5,4.2c2.2,1.7,10.4,2.3,10.5-2.2C69.8,102.7,61.6,105.3,61.6,105.3z"/>
		<path d="M78.2,25.8c0,0,9.3-13.1,10.8-12.3c1.5,0.8,0.3,21.3,0.3,21.3L78.2,25.8z"/>
		<path class="st2" d="M83.5,29.1c0,0,0.4,0.8,1,1.9l4.8,3.9c0,0,0.7-11.8,0.4-17.9C86.3,18.9,83.5,29.1,83.5,29.1z"/>
		<path d="M52.1,32.8c0,0-15.3-4.7-16.1-3.2c-0.7,1.5,12.8,17.1,12.8,17.1L52.1,32.8z"/>
		<path class="st2" d="M49.9,38.6c0,0,0.2,0.8,0.3,2.1l-1.4,6c0,0-7.7-8.9-11.2-13.9C41.5,32.2,49.9,38.6,49.9,38.6z"/>
		<path d="M65.1,62.5c0,0,0.3,17.6-3.5,22.4c-3.8,4.8-7,10.8-4.3,15.8c2.8,5,6.8,9.5,14.3,8.3c7.5-1.3,18.1-3,18.1-12.3
			c0-9.3-7.5-29.9-6.8-37.7C83.7,51.2,65.1,62.5,65.1,62.5z"/>
		<path class="st3" d="M71.7,108.9c6.2-1,14.4-2.4,17.2-8c-1.4-7-4.6-30.5-12.7-28.9c-10.7,2-12.7,29.5-12.7,35.7
			C65.7,108.9,68.3,109.5,71.7,108.9z"/>
		<ellipse transform="matrix(0.9979 -6.434924e-02 6.434924e-02 0.9979 -2.6974 4.5337)" cx="69" cy="44.1" rx="24" ry="22"/>
		<path d="M69.9,84.9c0,0-2-0.5-2.7,2.7c-0.7,3.2-3.4,22.4-1.2,23.1c2.2,0.7,2.3-0.5,2.3-0.5s0.3,1.8,1.7,1.5
			c1.3-0.3,1.3-1.3,1.3-1.3s1.5,2.5,2.8,1.3c1.3-1.2-0.2-22.6-1.2-25.1C72.1,84.1,69.9,84.9,69.9,84.9z"/>
		<path d="M82.1,84.6c0,0-2-0.5-2.7,2.7c-0.7,3.2-3.3,22.4-1.2,23.1c2.2,0.7,2.3-0.5,2.3-0.5s0.3,1.8,1.7,1.5
			c1.3-0.3,1.3-1.3,1.3-1.3s1.7,1.2,3,0c1.3-1.2-0.3-21.3-1.3-23.8C84.3,83.7,82.1,84.6,82.1,84.6z"/>
		<ellipse transform="matrix(0.9337 -0.3581 0.3581 0.9337 -13.5247 29.139)" class="st3" cx="71.9" cy="51.1" rx="9.4" ry="6.9"/>
		<path d="M70.8,48l1.8,3.6c0,0-2.8,1.5-4.4-0.2L68,52c0,0,3.3,1.4,5.4-0.1c2-1.5,1.9-3.4,1.9-3.4l-0.5-0.1c0,0-0.3,2-1.8,2.9
			l-1.7-3.5L70.8,48z"/>
		<ellipse transform="matrix(0.9467 -0.322 0.322 0.9467 -11.2001 25.1741)" class="st2" cx="70.5" cy="46.4" rx="3.9" ry="2.4"/>
		<g>
			<circle class="st4" cx="57.4" cy="43.8" r="5.8"/>
		</g>
		<g>
			<circle cx="57.1" cy="42" r="4.1"/>
		</g>
		<g>
			<circle class="st4" cx="75.9" cy="34.1" r="4.8"/>
		</g>
		<g>
			<circle cx="75.6" cy="32.6" r="3.4"/>
		</g>
	</g>
</g>
</svg>
