<?xml version="1.0" encoding="utf-8"?>
<!-- Generator: Adobe Illustrator 21.0.0, SVG Export Plug-In . SVG Version: 6.00 Build 0)  -->
<svg version="1.1" xmlns="http://www.w3.org/2000/svg" xmlns:xlink="http://www.w3.org/1999/xlink" x="0px" y="0px"
	 viewBox="0 0 140.7 131.5" style="enable-background:new 0 0 140.7 131.5;" xml:space="preserve">
<style type="text/css">
	.Drop_x0020_Shadow{fill:none;}
	.Outer_x0020_Glow_x0020_5_x0020_pt{fill:none;}
	.Blue_x0020_Neon{fill:none;stroke:#8AACDA;stroke-width:7;stroke-linecap:round;stroke-linejoin:round;}
	.Chrome_x0020_Highlight{fill:url(#SVGID_1_);stroke:#FFFFFF;stroke-width:0.3629;stroke-miterlimit:1;}
	.Jive_GS{fill:#FFDD00;}
	.Alyssa_GS{fill:#A6D0E4;}
	.st0{fill:#A7A8AC;}
	.st1{fill:#FFFFFF;stroke:#A7A8AC;stroke-miterlimit:10;}
	.st2{fill:#FFC0D2;}
	.st3{fill:#E8E8E6;}
	.st4{fill:#FFFFFF;}
</style>
<linearGradient id="SVGID_1_" gradientUnits="userSpaceOnUse" x1="-328.616" y1="-334.5967" x2="-328.616" y2="-335.5967">
	<stop  offset="0" style="stop-color:#656565"/>
	<stop  offset="0.618" style="stop-color:#1B1B1B"/>
	<stop  offset="0.6292" style="stop-color:#545454"/>
	<stop  offset="0.9831" style="stop-color:#3E3E3E"/>
</linearGradient>
<g id="bg">
	<path class="st0" d="M124.3,118.3c-23.8,15.6-74.9,18.1-99.6,3.3C-0.1,106.9-2.4,42,13.1,19.8C28.7-2.3,92.9-0.4,121.9,15.2
		C144.9,27.7,148.1,102.8,124.3,118.3z"/>
	<path class="st1" d="M121,115c-23.8,15.6-74.9,18.1-99.6,3.3C-3.4,103.6-5.8,38.7,9.8,16.5C25.4-5.7,89.6-3.8,118.5,11.9
		C141.6,24.4,144.7,99.5,121,115z"/>
</g>
<g id="animal">
	<g>
		<path d="M53.7,85.9c0.9,0.3,1.6,0.6,2,1c2.9,3.2,5.2,10.5-0.1,12.5c-8.1,3.1-22.3,6.8-23.6-1.6c-1-6.1-4-14.8,1.2-17.4
			c8.1-4.3,11.2,4.3,11.2,4.3C44.4,84.7,49.7,84.7,53.7,85.9z"/>
		<ellipse transform="matrix(0.9905 -0.1375 0.1375 0.9905 -12.4884 5.9646)" class="st2" cx="36.9" cy="93.4" rx="3.8" ry="5.4"/>
		<ellipse class="st2" cx="39.8" cy="85" rx="1.5" ry="2.2"/>
		<ellipse class="st2" cx="35.8" cy="85.3" rx="1.5" ry="2.2"/>
		<ellipse class="st2" cx="32.5" cy="86.6" rx="1.5" ry="2.2"/>
		<path class="st3" d="M54,60.8c0,0-23.6,35.7,10.9,39.9c34.5,4.3,29.5-25.6,19.8-42.3C74.9,41.8,54,60.8,54,60.8z"/>
		
			<ellipse transform="matrix(9.866361e-02 -0.9951 0.9951 9.866361e-02 -12.1753 134.8303)" class="st4" cx="68.3" cy="74.1" rx="16.9" ry="13.2"/>
		<path d="M84.2,59.2c0,0-2.6,0.9-3.4,3.4c-0.9,2.6-1.3,10.2-4.7,11.9c-3.4,1.7-17.5,10.7-8.1,15.4c9.4,4.7,23,2.6,23.5-11.9
			C91.9,63.4,88,58.3,84.2,59.2z"/>
		<path d="M50.7,58.4c0,0-3.5,6.1-9.6,7.7c-6.1,1.6-19,9.4-12.2,15.4c6.8,6,12.2,3.5,13.4-0.3c1.3-3.8,11.2-8,13.8-13.4
			C58.7,62.3,54.9,57.2,50.7,58.4z"/>
		<path d="M85.5,29.5c0,0,0.5-7.8,7.8-7.7c7.4,0.2,12.5,15.2-0.8,16C80.2,38.5,85.5,29.5,85.5,29.5z"/>
		<path class="st2" d="M87.2,30.9c0,0,0.3-4.3,4.3-4.2c4.1,0.1,6.9,8.4-0.4,8.8C84.3,35.9,87.2,30.9,87.2,30.9z"/>
		<path d="M54,29.5c0,0-0.5-7.8-7.8-7.7C38.8,22,33.7,37,47,37.8C59.3,38.5,54,29.5,54,29.5z"/>
		<path class="st2" d="M52.3,30.9c0,0-0.3-4.3-4.3-4.2c-4.1,0.1-6.9,8.4,0.4,8.8C55.2,35.9,52.3,30.9,52.3,30.9z"/>
		<ellipse class="st3" cx="70.2" cy="44.4" rx="24.8" ry="22.8"/>
		<circle cx="58.9" cy="39" r="10.8"/>
		<circle cx="81.3" cy="38.7" r="11.2"/>
		<path d="M86.5,86.7c-0.9,0.3-1.6,0.6-2,1c-2.9,3.2-5.2,10.5,0.1,12.5c8.1,3.1,22.3,6.8,23.6-1.6c1-6.1,4-14.8-1.2-17.4
			C99,77,95.9,85.6,95.9,85.6C95.9,85.5,90.6,85.6,86.5,86.7z"/>
		
			<ellipse transform="matrix(0.1375 -0.9905 0.9905 0.1375 -4.2277 183.6377)" class="st2" cx="103.3" cy="94.2" rx="5.4" ry="3.8"/>
		<ellipse class="st2" cx="100.4" cy="85.8" rx="1.5" ry="2.2"/>
		<ellipse class="st2" cx="104.5" cy="86.1" rx="1.5" ry="2.2"/>
		<ellipse class="st2" cx="107.8" cy="87.5" rx="1.5" ry="2.2"/>
		<g>
			<g>
				<circle class="st4" cx="81.3" cy="38.7" r="6.6"/>
				<circle cx="81.3" cy="40.4" r="4.6"/>
			</g>
			<g>
				<circle class="st4" cx="58.1" cy="38.7" r="6.6"/>
				<circle cx="59" cy="40.4" r="4.6"/>
			</g>
			<path d="M65.4,52.5c0-0.4,0-0.7,0.1-1c0,0,8.6-2,10.1,0.1c1.5,2.2-3.4,7-5.9,6.1C67,56.7,65.5,54.1,65.4,52.5z"/>
			<path d="M70.8,57.9l0.1,3.9c0,0-3.1,0.2-3.8-1.9l-0.5,0.4c0,0,2.4,2.6,4.7,2.1c2.4-0.5,3.1-2.2,3.1-2.2l-0.4-0.3
				c0,0-1.1,1.6-2.7,1.9l0-3.8L70.8,57.9z"/>
		</g>
	</g>
</g>
</svg>
