<?xml version="1.0" encoding="utf-8"?>
<!-- Generator: Adobe Illustrator 21.0.0, SVG Export Plug-In . SVG Version: 6.00 Build 0)  -->
<svg version="1.1" xmlns="http://www.w3.org/2000/svg" xmlns:xlink="http://www.w3.org/1999/xlink" x="0px" y="0px"
	 viewBox="0 0 140.7 131.5" style="enable-background:new 0 0 140.7 131.5;" xml:space="preserve">
<style type="text/css">
	.Drop_x0020_Shadow{fill:none;}
	.Outer_x0020_Glow_x0020_5_x0020_pt{fill:none;}
	.Blue_x0020_Neon{fill:none;stroke:#8AACDA;stroke-width:7;stroke-linecap:round;stroke-linejoin:round;}
	.Chrome_x0020_Highlight{fill:url(#SVGID_1_);stroke:#FFFFFF;stroke-width:0.3629;stroke-miterlimit:1;}
	.Jive_GS{fill:#FFDD00;}
	.Alyssa_GS{fill:#A6D0E4;}
	.st0{fill:#A7A8AC;}
	.st1{fill:#FFFFFF;stroke:#A7A8AC;stroke-miterlimit:10;}
	.st2{fill:#A2572D;}
	.st3{fill:#B26B30;}
	.st4{fill:#BF7A37;}
	.st5{fill:#472203;}
	.st6{fill:#FF7F9F;}
	.st7{fill:none;stroke:#000000;stroke-width:0.293;stroke-linecap:round;stroke-linejoin:round;}
	.st8{fill:#F9FAF7;}
	.st9{fill:#050702;}
	.st10{fill:#491F0D;}
	.st11{fill:#662B0E;}
	.st12{fill:#F3BB70;}
</style>
<linearGradient id="SVGID_1_" gradientUnits="userSpaceOnUse" x1="-328.616" y1="-334.5967" x2="-328.616" y2="-335.5967">
	<stop  offset="0" style="stop-color:#656565"/>
	<stop  offset="0.618" style="stop-color:#1B1B1B"/>
	<stop  offset="0.6292" style="stop-color:#545454"/>
	<stop  offset="0.9831" style="stop-color:#3E3E3E"/>
</linearGradient>
<g id="bg">
	<path class="st0" d="M124.3,118.3c-23.8,15.6-74.9,18.1-99.6,3.3C-0.1,106.9-2.4,42,13.1,19.8C28.7-2.3,92.9-0.4,121.9,15.2
		C144.9,27.7,148.1,102.8,124.3,118.3z"/>
	<path class="st1" d="M121,115c-23.8,15.6-74.9,18.1-99.6,3.3C-3.4,103.6-5.8,38.7,9.8,16.5C25.4-5.7,89.6-3.8,118.5,11.9
		C141.6,24.4,144.7,99.5,121,115z"/>
</g>
<g id="animal">
	<g>
		<path class="st2" d="M46.2,59.9c0,0-10.9,0.3-11.7,4.9c-0.8,4.6,10,4.7,10,4.7L46.2,59.9z"/>
		<g>
			<path class="st3" d="M46.7,29.3c0,0,1.6-5.9,3.3-5.4c1.7,0.5,1.1,6.9,0.7,7.2C50.5,31.3,46.7,29.3,46.7,29.3z"/>
			<path class="st2" d="M45.8,98.3c0,0-1.5-1.7-3.1-1.1c-1.6,0.6-1.2,2.2-1.2,2.2s-1.5,2.2-0.1,2.6c1.4,0.4,1.6-0.1,1.6-0.1
				s-0.7,2.2,1.4,1.5c2.1-0.7,2.6-3.8,2.6-3.8L45.8,98.3z"/>
			<path class="st3" d="M46.6,83c0,0-5.1,2.4-4.2,7.3c0.9,4.9,3.7,7.8,3.7,7.8s-3.5,0.4-1.9,2.8c1.2,1.9,7.5,1.2,8.5-0.4
				C53.8,98.9,46.6,83,46.6,83z"/>
			<path class="st4" d="M54,30.1c0,0-12.6-5.9-21.5,4.5c-7.5,8.8,1.5,19.1,6.9,20.6c5.4,1.5,4.1,5,3.7,9.5
				c-0.4,4.5-0.2,35.6,13.2,38c13.4,2.4,28.4,0,24.7-18.6C77.2,65.5,63.3,65,61.8,54C60.3,43.1,61,32.7,54,30.1z"/>
			<path class="st5" d="M31,41.6c0,0-2.6-0.2-2.6,1.9c0,2,3,6.5,3.5,3.3C32.5,43.7,31,41.6,31,41.6z"/>
			<path class="st4" d="M72.9,100.2c0,0,15.4,1.5,23-12.1c7.6-13.5,9.3-27.6,4.3-37.1c-5-9.5,3-13.4,6.1-10.4
				c3.2,3,11.1,5.2,11.9,3.4c3.5-7.8-5.2-23.7-19.5-25.1c-18.4-1.9-32.8,20.2-19.3,36.5s8.9,37.5-1.1,39
				C68.3,96,72.9,100.2,72.9,100.2z"/>
			<path class="st4" d="M51.4,30c0,0,0-0.1,0.1-0.2c0.3-1,2.4-6.7,4.5-5.4c2.4,1.4,2,9.9,1.6,10.1C57.3,34.9,51.4,30,51.4,30z"/>
			<path class="st6" d="M53.9,29.9c0,0,0.2-3.6,1.2-3.1c1,0.5,0.9,4.5,0.9,4.5L53.9,29.9z"/>
			<path class="st7" d="M33.6,51.1c0,0,3.4,1.5,7.2,0.5c3.7-1,3.5-2.3,3.3-2.6C44,48.5,43,48.4,43,48.4"/>
			<g>
				<circle class="st8" cx="39.8" cy="37.8" r="5"/>
				<circle class="st9" cx="38.6" cy="37.8" r="3.7"/>
			</g>
			<g>
				<path class="st10" d="M40.8,69.3c2.5-5.4-3.9-7.1-3.9-7.1c-3.6-0.8-5.9,0.6-7.7,4.1c0,0.1-0.1,0.2-0.1,0.3
					c0.7-0.1,1.3-0.1,2-0.1C34.9,66.5,38.3,67.6,40.8,69.3z"/>
				<path class="st11" d="M30.9,75.6c2.6,0.4,7-2,8.6-4.1c0.6-0.8,1-1.5,1.3-2.1c-2.5-1.7-5.9-2.8-9.7-2.8c-0.7,0-1.4,0-2,0.1
					C27.8,69.6,27.2,75,30.9,75.6z"/>
			</g>
			<path class="st2" d="M37.3,65.8c0,0-3-1.9-4.1,0c-1.1,1.9-2.8,6.9,0.4,6.7c3.2-0.2,4.3-2.1,4.3-2.1L37.3,65.8z"/>
			<path class="st12" d="M67.2,103.3c-0.7-1.4-2-2.7-4-3.3c-7.2-2-13-26.2-17.1-29.6c-1.1-0.9-2.2-0.9-3.1-0.4
				c0.3,10.4,2.6,30.6,13.2,32.5C59.9,103.3,63.7,103.6,67.2,103.3z"/>
			<path class="st2" d="M49.7,103.4c0,0-1.5-1.7-3.1-1.1c-1.6,0.6-1.2,2.2-1.2,2.2s-1.5,2.2-0.1,2.6c1.4,0.4,1.6-0.1,1.6-0.1
				s-0.7,2.2,1.4,1.5c2.1-0.7,2.6-3.8,2.6-3.8L49.7,103.4z"/>
			<path class="st4" d="M54.3,82.7c-0.4,0.2-9.9,6.2-8,12.7c1.9,6.6,4.6,6.9,4.6,6.9s-2.9,1-1.7,3.3c1.2,2.5,19,2.3,21.4-1.6
				c2.4-3.9-2-11.5-2-11.5L54.3,82.7z"/>
			<path class="st4" d="M49.1,64c-0.5,0.3-7.8,3.8-10.4,1.9c-2.5-1.9-4.9,3.6-2.5,5.2c2.4,1.6,7.7,4.1,14,1.4
				c6.3-2.7-0.6-8.6-0.6-8.6L49.1,64z"/>
		</g>
	</g>
</g>
</svg>
