<?xml version="1.0" encoding="utf-8"?>
<!-- Generator: Adobe Illustrator 21.0.0, SVG Export Plug-In . SVG Version: 6.00 Build 0)  -->
<svg version="1.1" id="Layer_1" xmlns="http://www.w3.org/2000/svg" xmlns:xlink="http://www.w3.org/1999/xlink" x="0px" y="0px"
	 viewBox="0 0 140.7 131.5" style="enable-background:new 0 0 140.7 131.5;" xml:space="preserve">
<style type="text/css">
	.st0{fill:#A7A8AC;}
	.st1{fill:#FFFFFF;stroke:#A7A8AC;stroke-miterlimit:10;}
	.st2{fill:#ED4A94;}
</style>
<g id="bg">
	<path class="st0" d="M124.3,118.3c-23.8,15.6-74.9,18.1-99.6,3.3C-0.1,106.9-2.4,42,13.1,19.8C28.7-2.3,92.9-0.4,121.9,15.2
		C144.9,27.7,148.1,102.8,124.3,118.3z"/>
	<path class="st1" d="M121,115c-23.8,15.6-74.9,18.1-99.6,3.3C-3.4,103.6-5.8,38.7,9.8,16.5s79.8-20.3,108.7-4.6
		C141.6,24.4,144.7,99.5,121,115z"/>
</g>
<g id="color">
	<g>
		<g id="LGtzVZ.tif_8_">
			<g>
				<path class="st0" d="M110.3,46.2c0.3,5.1-2.6,7.8-6.5,9.7c-3.3,1.6-6.8,2.5-10.3,3.5c-4.4,1.3-8.7,2.8-12.5,5.6
					c-0.2,0.1-0.4,0.3-0.6,0.4c-0.2,0.2-0.5,0.4-0.3,0.7c0.1,0.3,0.5,0.3,0.7,0.2c1.4-0.2,2.7-0.9,3.9-1.5c1.3-0.7,2.7-1,4.2-0.8
					c1.9,0.2,3,1.5,2.8,3.3c0,0.6,0.1,1.3,0,1.9c-0.4,2.4-2.6,3.8-5.6,3.7c-2-0.1-3.9-0.6-5.8-0.9c-1-0.1-1.9-0.1-2.9,0.2
					c-0.7,0.2-0.8,0.6-0.4,1.1c0.2,0.2,0.4,0.5,0.6,0.7c1.2,1.3,1,2.9,0.9,4.4c0,0.9-1,1.3-2,1c-0.9-0.3-1.6-0.9-2.3-1.6
					c-1.1-1-2.2-1.2-3.2-0.5c-1.4,1-1.6,2-0.8,3.4c0.8,1.4,1.8,2.8,2.7,4.1c1.4,2,1.2,4.3,0.9,6.5c-0.3,1.8-2.2,3-4.1,2.8
					c-2-0.2-3.5-1.8-3.6-4c-0.1-1.7,0-3.4,0.3-5c0.2-0.9,0-1.6-0.4-2.4c-0.8-1.5-2.2-2-3.6-1c-1.9,1.2-3.3,2.9-4.5,4.7
					c-1.9,2.8-3.5,5.8-5.7,8.4c-1.8,2.1-3.8,3.9-6.7,4.2c-3.4,0.4-5.3-1.6-5.4-5.1c-0.1-3.5,1.6-5.7,4.1-7.6c4-3.1,8.1-6,12.3-8.8
					c0.6-0.4,1.6-0.7,1.3-1.5s-1.4-0.8-2.2-0.7c-1.2,0-2.3,0.5-3.5,0.4c-1.8-0.1-2.4-0.8-2.6-2.6c-0.2-2.3,0.6-4,2.5-5.3
					c0.3-0.2,0.6-0.4,0.8-0.7c1.6-1.4,1.8-2.8,0.6-4.6C52.6,61,50.9,60,49,59.2c-3.2-1.4-6.6-2-9.8-3.4c-3-1.3-5.6-3-6.8-6.3
					c-0.7-2-0.6-4.1-0.2-6.1c0.7-3.3,4.4-5.1,8.1-4.1c3.1,0.8,5.3,2.9,7.1,5.5c1.6,2.5,3.2,5,4.8,7.6c0.7,1.2,1.7,2.2,2.8,3
					c1.3,0.9,3,1,4.2,0.2c0.8-0.5,1.1-1.1,0.4-1.9c-0.3-0.4-0.6-0.9-0.9-1.2c-1.5-1.6-1.6-3.6-1.4-5.6c0.1-1.4,1.4-2,2.7-1.5
					c0.9,0.4,1.6,1.2,2,2.1c0.5,1.1,0.9,2.2,1.5,3.2c0.8,1.6,1.8,3.1,3.9,2.9c2-0.2,2.6-1.9,3.1-3.6c0.5-2,1-3.9,2.4-5.6
					c1.8-2.1,4.8-2.6,7-1.1c0.8,0.6,1.3,1.3,1.5,2.3c0.5,3.4-0.3,6.3-3.2,8.4C77,54.8,76,55.7,75,56.7c-0.3,0.2-0.7,0.5-0.5,1
					c0.2,0.4,0.6,0.6,1,0.7c1.3,0.2,2.5-0.2,3.6-0.9c2.7-1.7,4.8-4.1,6.7-6.6c2.2-2.8,4.1-5.8,6.8-8.3c2.3-2.2,5-3.7,8.2-4.2
					C106.1,37.6,110.3,41.1,110.3,46.2z"/>
				<path class="st0" d="M45.3,67.3c0.1,2.8-0.9,4.3-3,4.8c-1.4,0.3-2.6-0.1-3.7-1.1c-1.4-1.2-1.5-6.1,0.2-7.4
					c1.2-0.9,2.8-1.3,4.2-0.6c1.5,0.7,2.3,1.9,2.3,3.5C45.3,66.7,45.3,67,45.3,67.3z"/>
				<path class="st0" d="M70.1,37.6c0,1.2,0.1,2.2-0.4,3.1c-0.5,1.1-1.3,1.9-2.6,2c-1.2,0.1-2.2-0.5-2.7-1.6c-1.1-2.3-1.2-4.7,0-7
					c1-2,3.5-2,4.8-0.1C70.1,35.1,70.1,36.4,70.1,37.6z"/>
				<path class="st0" d="M90,79.4c0,0.4,0,0.7,0,1.1c-0.1,1.1-0.9,1.8-2.1,1.7c-2.1-0.2-3.7-2.1-3.6-4.2c0-0.2,0-0.3,0-0.5
					c-0.1-2.3,1.3-3.2,3.4-2.2C89.4,75.9,90,77.2,90,79.4z"/>
			</g>
		</g>
		<g id="LGtzVZ.tif_7_">
			<g>
				<path class="st2" d="M109.7,45.1c0.3,5.1-2.6,7.8-6.5,9.7c-3.3,1.6-6.8,2.5-10.3,3.5c-4.4,1.3-8.7,2.8-12.5,5.6
					c-0.2,0.1-0.4,0.3-0.6,0.4c-0.2,0.2-0.5,0.4-0.3,0.7c0.1,0.3,0.5,0.3,0.7,0.2c1.4-0.2,2.7-0.9,3.9-1.5c1.3-0.7,2.7-1,4.2-0.8
					c1.9,0.2,3,1.5,2.8,3.3c0,0.6,0.1,1.3,0,1.9c-0.4,2.4-2.6,3.8-5.6,3.7c-2-0.1-3.9-0.6-5.8-0.9c-1-0.1-1.9-0.1-2.9,0.2
					c-0.7,0.2-0.8,0.6-0.4,1.1c0.2,0.2,0.4,0.5,0.6,0.7c1.2,1.3,1,2.9,0.9,4.4c0,0.9-1,1.3-2,1c-0.9-0.3-1.6-0.9-2.3-1.6
					c-1.1-1-2.2-1.2-3.2-0.5c-1.4,1-1.6,2-0.8,3.4c0.8,1.4,1.8,2.8,2.7,4.1c1.4,2,1.2,4.3,0.9,6.5c-0.3,1.8-2.2,3-4.1,2.8
					c-2-0.2-3.5-1.8-3.6-4c-0.1-1.7,0-3.4,0.3-5c0.2-0.9,0-1.6-0.4-2.4c-0.8-1.5-2.2-2-3.6-1c-1.9,1.2-3.3,2.9-4.5,4.7
					c-1.9,2.8-3.5,5.8-5.7,8.4c-1.8,2.1-3.8,3.9-6.7,4.2c-3.4,0.4-5.3-1.6-5.4-5.1c-0.1-3.5,1.6-5.7,4.1-7.6c4-3.1,8.1-6,12.3-8.8
					c0.6-0.4,1.6-0.7,1.3-1.5s-1.4-0.8-2.2-0.7c-1.2,0-2.3,0.5-3.5,0.4c-1.8-0.1-2.4-0.8-2.6-2.6c-0.2-2.3,0.6-4,2.5-5.3
					c0.3-0.2,0.6-0.4,0.8-0.7c1.6-1.4,1.8-2.8,0.6-4.6c-1.1-1.8-2.8-2.8-4.7-3.6c-3.2-1.4-6.6-2-9.8-3.4c-3-1.3-5.6-3-6.8-6.3
					c-0.7-2-0.6-4.1-0.2-6.1c0.7-3.3,4.4-5.1,8.1-4.1c3.1,0.8,5.3,2.9,7.1,5.5c1.6,2.5,3.2,5,4.8,7.6c0.7,1.2,1.7,2.2,2.8,3
					c1.3,0.9,3,1,4.2,0.2c0.8-0.5,1.1-1.1,0.4-1.9c-0.3-0.4-0.6-0.9-0.9-1.2c-1.5-1.6-1.6-3.6-1.4-5.6c0.1-1.4,1.4-2,2.7-1.5
					c0.9,0.4,1.6,1.2,2,2.1c0.5,1.1,0.9,2.2,1.5,3.2c0.8,1.6,1.8,3.1,3.9,2.9c2-0.2,2.6-1.9,3.1-3.6c0.5-2,1-3.9,2.4-5.6
					c1.8-2.1,4.8-2.6,7-1.1c0.8,0.6,1.3,1.3,1.5,2.3c0.5,3.4-0.3,6.3-3.2,8.4c-1.1,0.9-2.1,1.8-3.2,2.8c-0.3,0.2-0.7,0.5-0.5,1
					c0.2,0.4,0.6,0.6,1,0.7c1.3,0.2,2.5-0.2,3.6-0.9c2.7-1.7,4.8-4.1,6.7-6.6c2.2-2.8,4.1-5.8,6.8-8.3c2.3-2.2,5-3.7,8.2-4.2
					C105.6,36.5,109.7,40,109.7,45.1z"/>
				<path class="st2" d="M44.7,66.2c0.1,2.8-0.9,4.3-3,4.8c-1.4,0.3-2.6-0.1-3.7-1.1c-1.4-1.2-1.5-6.1,0.2-7.4
					c1.2-0.9,2.8-1.3,4.2-0.6c1.5,0.7,2.3,1.9,2.3,3.5C44.8,65.6,44.8,66,44.7,66.2z"/>
				<path class="st2" d="M69.5,36.5c0,1.2,0.1,2.2-0.4,3.1c-0.5,1.1-1.3,1.9-2.6,2c-1.2,0.1-2.2-0.5-2.7-1.6c-1.1-2.3-1.2-4.7,0-7
					c1-2,3.5-2,4.8-0.1C69.5,34,69.6,35.3,69.5,36.5z"/>
				<path class="st2" d="M89.5,78.3c0,0.4,0,0.7,0,1.1c-0.1,1.1-0.9,1.8-2.1,1.7c-2.1-0.2-3.7-2.1-3.6-4.2c0-0.2,0-0.3,0-0.5
					c-0.1-2.3,1.3-3.2,3.4-2.2C88.8,74.8,89.5,76.1,89.5,78.3z"/>
			</g>
		</g>
	</g>
</g>
</svg>
