<?xml version="1.0" encoding="utf-8"?>
<!-- Generator: Adobe Illustrator 21.0.0, SVG Export Plug-In . SVG Version: 6.00 Build 0)  -->
<svg version="1.1" xmlns="http://www.w3.org/2000/svg" xmlns:xlink="http://www.w3.org/1999/xlink" x="0px" y="0px"
	 viewBox="0 0 140.7 131.5" style="enable-background:new 0 0 140.7 131.5;" xml:space="preserve">
<style type="text/css">
	.Drop_x0020_Shadow{fill:none;}
	.Outer_x0020_Glow_x0020_5_x0020_pt{fill:none;}
	.Blue_x0020_Neon{fill:none;stroke:#8AACDA;stroke-width:7;stroke-linecap:round;stroke-linejoin:round;}
	.Chrome_x0020_Highlight{fill:url(#SVGID_1_);stroke:#FFFFFF;stroke-width:0.3629;stroke-miterlimit:1;}
	.Jive_GS{fill:#FFDD00;}
	.Alyssa_GS{fill:#A6D0E4;}
	.st0{fill:#A7A8AC;}
	.st1{fill:#FFFFFF;stroke:#A7A8AC;stroke-miterlimit:10;}
	.st2{fill:#A33693;}
	.st3{fill:#007732;}
</style>
<linearGradient id="SVGID_1_" gradientUnits="userSpaceOnUse" x1="-328.616" y1="-334.5967" x2="-328.616" y2="-335.5967">
	<stop  offset="0" style="stop-color:#656565"/>
	<stop  offset="0.618" style="stop-color:#1B1B1B"/>
	<stop  offset="0.6292" style="stop-color:#545454"/>
	<stop  offset="0.9831" style="stop-color:#3E3E3E"/>
</linearGradient>
<g id="bg">
	<path class="st0" d="M124.3,118.3c-23.8,15.6-74.9,18.1-99.6,3.3C-0.1,106.9-2.4,42,13.1,19.8C28.7-2.3,92.9-0.4,121.9,15.2
		C144.9,27.7,148.1,102.8,124.3,118.3z"/>
	<path class="st1" d="M121,115c-23.8,15.6-74.9,18.1-99.6,3.3C-3.4,103.6-5.8,38.7,9.8,16.5C25.4-5.7,89.6-3.8,118.5,11.9
		C141.6,24.4,144.7,99.5,121,115z"/>
</g>
<g id="fuit">
	<g>
		<circle class="st2" cx="86.4" cy="63.3" r="10.5"/>
		<circle class="st2" cx="65.2" cy="63.3" r="10.5"/>
		<circle class="st2" cx="44.1" cy="63.3" r="10.5"/>
		<g>
			<circle class="st2" cx="76.1" cy="83.7" r="10.8"/>
			<circle class="st2" cx="54.4" cy="83.7" r="10.8"/>
		</g>
		<g>
			<circle class="st2" cx="74.8" cy="44" r="9.5"/>
			<circle class="st2" cx="55.7" cy="44" r="9.5"/>
		</g>
		<circle class="st2" cx="65.2" cy="104.8" r="9.4"/>
		<g>
			
				<rect id="XMLID_4_" x="63.7" y="23.2" transform="matrix(-1 -1.224647e-16 1.224647e-16 -1 130.4967 61.124)" class="st3" width="3.2" height="14.7"/>
			<g id="XMLID_1_">
				<path id="XMLID_3_" class="st3" d="M80.4,16.7c-8,3.7-13.1,10-12.4,14.8l31.7-14.8C96.5,13.1,88.3,13,80.4,16.7z"/>
				<path id="XMLID_2_" class="st3" d="M87.2,31.4c-8,3.7-16.1,3.6-19.3,0.1l31.7-14.8C100.3,21.4,95.2,27.7,87.2,31.4z"/>
			</g>
		</g>
	</g>
</g>
</svg>
