<?xml version="1.0" encoding="utf-8"?>
<!-- Generator: Adobe Illustrator 21.0.0, SVG Export Plug-In . SVG Version: 6.00 Build 0)  -->
<svg version="1.1" xmlns="http://www.w3.org/2000/svg" xmlns:xlink="http://www.w3.org/1999/xlink" x="0px" y="0px"
	 viewBox="0 0 140.7 131.5" style="enable-background:new 0 0 140.7 131.5;" xml:space="preserve">
<style type="text/css">
	.Drop_x0020_Shadow{fill:none;}
	.Outer_x0020_Glow_x0020_5_x0020_pt{fill:none;}
	.Blue_x0020_Neon{fill:none;stroke:#8AACDA;stroke-width:7;stroke-linecap:round;stroke-linejoin:round;}
	.Chrome_x0020_Highlight{fill:url(#SVGID_1_);stroke:#FFFFFF;stroke-width:0.3629;stroke-miterlimit:1;}
	.Jive_GS{fill:#FFDD00;}
	.Alyssa_GS{fill:#A6D0E4;}
	.st0{fill:#A7A8AC;}
	.st1{fill:#FFFFFF;stroke:#A7A8AC;stroke-miterlimit:10;}
	.st2{fill:#E5641C;}
	.st3{fill:#007732;}
	.st4{fill:#F18421;}
	.st5{fill:#FBC90B;}
</style>
<linearGradient id="SVGID_1_" gradientUnits="userSpaceOnUse" x1="-328.616" y1="-334.5967" x2="-328.616" y2="-335.5967">
	<stop  offset="0" style="stop-color:#656565"/>
	<stop  offset="0.618" style="stop-color:#1B1B1B"/>
	<stop  offset="0.6292" style="stop-color:#545454"/>
	<stop  offset="0.9831" style="stop-color:#3E3E3E"/>
</linearGradient>
<g id="bg">
	<path class="st0" d="M124.3,118.3c-23.8,15.6-74.9,18.1-99.6,3.3C-0.1,106.9-2.4,42,13.1,19.8C28.7-2.3,92.9-0.4,121.9,15.2
		C144.9,27.7,148.1,102.8,124.3,118.3z"/>
	<path class="st1" d="M121,115c-23.8,15.6-74.9,18.1-99.6,3.3C-3.4,103.6-5.8,38.7,9.8,16.5C25.4-5.7,89.6-3.8,118.5,11.9
		C141.6,24.4,144.7,99.5,121,115z"/>
</g>
<g id="fuit">
	<g>
		<g>
			<path class="st2" d="M96,67.8c0,16.9-14.6,30.6-32.7,30.6S30.7,84.7,30.7,67.8c0-16.9,14.6-30.6,32.7-30.6S96,50.8,96,67.8z"/>
			<g>
				<rect id="XMLID_8_" x="61.9" y="27.4" class="st3" width="3" height="13.9"/>
				<g id="XMLID_5_">
					<path id="XMLID_7_" class="st3" d="M49,21.3c7.6,3.5,12.4,9.5,11.8,14L30.7,21.2C33.8,17.8,41.5,17.7,49,21.3z"/>
					<path id="XMLID_6_" class="st3" d="M42.5,35.2c7.6,3.5,15.3,3.5,18.3,0.1L30.7,21.2C30.1,25.7,35,31.7,42.5,35.2z"/>
				</g>
			</g>
		</g>
		<g>
			<path class="st4" d="M125.7,69.7c0,15.1-10.9,28.4-26.3,31c-17.2,2.9-33.4-8.6-36.4-25.8c-0.3-1.8-0.4-3.5-0.4-5.2H125.7z"/>
			<path class="st5" d="M94,96.9c-2.3,0-5.1-0.5-5.9-1.5C88,95.2,87.9,95,88,94.8c0.3-1.7,3.1-10.3,5.2-16.4c0.3-0.9,1.6-0.9,1.9,0
				c2,6.2,4.7,14.8,5,16.5c0,0.3,0,0.5-0.2,0.7C99.1,96.4,96.4,96.9,94,96.9L94,96.9z"/>
			<path class="st5" d="M103.8,94.4c-0.6,0-0.8-0.2-1-0.5c-0.7-1.5-3.5-10.2-5.5-16.3c-0.3-0.9,0.8-1.7,1.6-1.1
				c5.2,3.8,12.5,9.2,13.7,10.4c0.2,0.2,0.3,0.4,0.2,0.6c-0.1,1.3-2,3.3-3.9,4.6C107.4,93.3,105.2,94.4,103.8,94.4L103.8,94.4z"/>
			<path class="st5" d="M114.8,84.7c-0.1,0-0.2,0-0.4-0.1c-1.5-0.8-8.8-6.1-14-10c-0.8-0.6-0.4-1.8,0.6-1.8c5.3,0,15.8,0.2,17.2,0.3
				c0.3,0,0.4,0.1,0.6,0.4c0.7,1.1,0.3,3.8-0.4,6l0,0.1C117.3,82.5,115.7,84.7,114.8,84.7L114.8,84.7z"/>
			<path class="st5" d="M73.4,84.4c-1,0-2.5-2.3-3.4-5.1v0l-0.1-0.2c-0.7-2.1-1-4.9-0.3-6c0.1-0.2,0.3-0.3,0.6-0.4
				c0.7-0.1,3-0.2,10.3-0.2c2.5,0,5,0,6.9,0c1,0,1.4,1.3,0.6,1.8c-5.2,3.8-12.7,9-14.1,9.8C73.6,84.4,73.5,84.4,73.4,84.4z"/>
			<path class="st5" d="M84.3,94.3c-1.4,0-3.6-1.1-5.1-2.3L79.1,92l-0.1,0c-1.8-1.4-3.7-3.4-3.8-4.6c0-0.3,0.1-0.5,0.3-0.6
				c1.2-1.1,8.6-6.5,13.8-10.2c0.8-0.6,1.8,0.2,1.5,1.1c-2,6.1-4.9,14.7-5.7,16.3C85.1,94.1,84.9,94.3,84.3,94.3L84.3,94.3z"/>
		</g>
	</g>
</g>
</svg>
