<?xml version="1.0" encoding="utf-8"?>
<!-- Generator: Adobe Illustrator 21.0.0, SVG Export Plug-In . SVG Version: 6.00 Build 0)  -->
<svg version="1.1" xmlns="http://www.w3.org/2000/svg" xmlns:xlink="http://www.w3.org/1999/xlink" x="0px" y="0px"
	 viewBox="0 0 140.7 131.5" style="enable-background:new 0 0 140.7 131.5;" xml:space="preserve">
<style type="text/css">
	.Drop_x0020_Shadow{fill:none;}
	.Outer_x0020_Glow_x0020_5_x0020_pt{fill:none;}
	.Blue_x0020_Neon{fill:none;stroke:#8AACDA;stroke-width:7;stroke-linecap:round;stroke-linejoin:round;}
	.Chrome_x0020_Highlight{fill:url(#SVGID_1_);stroke:#FFFFFF;stroke-width:0.3629;stroke-miterlimit:1;}
	.Jive_GS{fill:#FFDD00;}
	.Alyssa_GS{fill:#A6D0E4;}
	.st0{fill:#A7A8AC;}
	.st1{fill:#FFFFFF;stroke:#A7A8AC;stroke-miterlimit:10;}
	.st2{fill:#FFC830;}
	.st3{fill:#76A641;}
	.st4{fill:#F9A11B;}
</style>
<linearGradient id="SVGID_1_" gradientUnits="userSpaceOnUse" x1="-328.616" y1="-334.5967" x2="-328.616" y2="-335.5967">
	<stop  offset="0" style="stop-color:#656565"/>
	<stop  offset="0.618" style="stop-color:#1B1B1B"/>
	<stop  offset="0.6292" style="stop-color:#545454"/>
	<stop  offset="0.9831" style="stop-color:#3E3E3E"/>
</linearGradient>
<g id="bg">
	<path class="st0" d="M124.3,118.3c-23.8,15.6-74.9,18.1-99.6,3.3C-0.1,106.9-2.4,42,13.1,19.8C28.7-2.3,92.9-0.4,121.9,15.2
		C144.9,27.7,148.1,102.8,124.3,118.3z"/>
	<path class="st1" d="M121,115c-23.8,15.6-74.9,18.1-99.6,3.3C-3.4,103.6-5.8,38.7,9.8,16.5C25.4-5.7,89.6-3.8,118.5,11.9
		C141.6,24.4,144.7,99.5,121,115z"/>
</g>
<g id="fuit">
	<g>
		<g>
			<path class="st2" d="M41.5,35c-0.9-1.2-1.9-2.5-2.7-3.8c-1.1-1.6-0.9-3.9,0.3-5c1.2-1.1,3-0.7,4,0.8c0.8,1.2,1.7,2.4,2.6,3.6
				c1.1,1.4,1.1,3.5,0,4.8C44.5,36.6,42.6,36.5,41.5,35z"/>
			<g>
				<path class="st3" d="M121,58.8c-1.7,0.5-3.4,0.9-5.1,1.2c-2.1,0.4-3.9-0.3-4-1.5c-0.1-1.2,1.3-2.4,3.3-2.8
					c1.6-0.3,3.2-0.7,4.8-1.2c1.9-0.5,3.8-0.2,4.1,1C124.5,56.7,123.1,58.2,121,58.8z"/>
			</g>
			<g>
				<path class="st3" d="M117.1,57c-0.4-3.6-2.5-6-4.6-5.5c-2.1,0.5-3.7,3.7-3.7,7.4c0.1,3.7,2.1,6.3,4.6,5.7
					C115.8,64.1,117.5,60.6,117.1,57z"/>
			</g>
			<g>
				<path class="st4" d="M113.7,57.9c-0.2-2.9-1.6-5.3-3.5-6.8c-1.9-1.6-4.4-2.4-7-2.2c-18.4,1.5-36-5.4-48.8-19.5
					c-3.7-4-9.5-4.7-13.7-0.8c-2.1,2-3.2,5-3.2,8.2c0,3.2,1.2,6.7,3.6,9.3c16.1,17.7,38.1,26.4,61.2,24.4
					C109.1,70,114.3,63.7,113.7,57.9z"/>
			</g>
			<path class="st2" d="M113.7,57.9c-0.2-2.9-1.6-5.3-3.5-6.8c-1.9-1.6-4.4-2.4-7-2.2c-18.4,1.5-36-5.4-48.8-19.5
				c-3.7-4-9.5-4.7-13.7-0.8C57.4,54,85.3,64.9,113.7,57.9z"/>
		</g>
		<g>
			<path class="st2" d="M33.2,61.4c-1.3-0.9-2.6-1.9-3.9-2.9c-1.6-1.2-2.1-3.5-1.3-5c0.9-1.5,2.7-1.6,4.2-0.5c1.2,1,2.4,1.9,3.7,2.8
				c1.5,1.1,2.2,3.1,1.5,4.7C36.7,62.1,34.8,62.5,33.2,61.4z"/>
			<g>
				<path class="st3" d="M119.5,59.9c-1.5,1-3.1,2-4.7,2.8c-1.9,1.1-3.9,0.9-4.4-0.2c-0.5-1.1,0.6-2.8,2.4-3.8
					c1.5-0.8,3-1.7,4.4-2.7c1.7-1.1,3.7-1.3,4.4-0.3C122.2,56.7,121.3,58.6,119.5,59.9z"/>
			</g>
			<g>
				<path class="st3" d="M115,59.4c-1.6-3.4-4.3-5.1-6.2-4c-1.9,1.1-2.5,4.9-1.3,8.5c1.2,3.6,4.1,5.6,6.3,4.2
					C116,66.7,116.5,62.7,115,59.4z"/>
			</g>
			<g>
				<path class="st4" d="M111.9,61.3c-1.2-2.8-3.3-4.7-5.7-5.7c-2.4-0.9-5.1-1-7.6,0.1c-17.8,7.3-37.3,6-54.4-3.9
					c-4.9-2.8-10.9-1.7-13.9,3.5c-1.4,2.6-1.6,5.9-0.5,9.1c1,3.2,3.3,6.2,6.5,8c21.5,12.5,46,14.1,68.3,4.9
					C111.2,74.7,114.3,66.9,111.9,61.3z"/>
			</g>
			<path class="st2" d="M111.9,61.3c-1.2-2.8-3.3-4.7-5.7-5.7c-2.4-0.9-5.1-1-7.6,0.1c-17.8,7.3-37.3,6-54.4-3.9
				c-4.9-2.8-10.9-1.7-13.9,3.5C54.9,75.2,86,77.1,111.9,61.3z"/>
		</g>
		<g>
			<path class="st2" d="M39.6,90.9c-1.6-0.4-3.1-0.9-4.7-1.4c-1.9-0.6-3.2-2.6-2.9-4.3c0.3-1.7,2-2.5,3.7-1.9
				c1.5,0.5,2.9,0.9,4.4,1.4c1.8,0.5,3.1,2.2,3,3.9C43.1,90.4,41.5,91.4,39.6,90.9z"/>
			<g>
				<path class="st3" d="M120.4,60.5c-1.1,1.5-2.2,2.9-3.4,4.2c-1.4,1.7-3.4,2.2-4.2,1.3c-0.9-0.9-0.4-2.8,1-4.4
					c1.1-1.3,2.2-2.6,3.2-4c1.3-1.7,3-2.5,4-1.8C121.9,56.6,121.7,58.7,120.4,60.5z"/>
			</g>
			<g>
				<path class="st3" d="M116,61.5c-2.6-2.7-5.8-3.4-7.2-1.6c-1.4,1.7-0.7,5.4,1.6,8.4c2.3,3,5.7,3.9,7.4,1.9
					C119.4,68.1,118.6,64.2,116,61.5z"/>
			</g>
			<g>
				<path class="st4" d="M113.8,64.4c-2-2.3-4.7-3.3-7.2-3.4c-2.6-0.1-5.1,0.8-7.2,2.6C85.1,76.5,66.2,81.8,46.8,78.2
					c-5.5-1-10.9,2.1-11.9,8c-0.4,3,0.5,6.1,2.6,8.8c2.1,2.6,5.2,4.7,8.8,5.4c24.4,4.5,48.1-2.2,66-18.4
					C117.5,77.2,117.9,68.8,113.8,64.4z"/>
			</g>
			<path class="st2" d="M113.8,64.4c-2-2.3-4.7-3.3-7.2-3.4c-2.6-0.1-5.1,0.8-7.2,2.6C85.1,76.5,66.2,81.8,46.8,78.2
				c-5.5-1-10.9,2.1-11.9,8C64.7,96.6,94.7,88,113.8,64.4z"/>
		</g>
	</g>
</g>
</svg>
