<?xml version="1.0" encoding="utf-8"?>
<!-- Generator: Adobe Illustrator 21.0.0, SVG Export Plug-In . SVG Version: 6.00 Build 0)  -->
<svg version="1.1" xmlns="http://www.w3.org/2000/svg" xmlns:xlink="http://www.w3.org/1999/xlink" x="0px" y="0px"
	 viewBox="0 0 140.7 131.5" style="enable-background:new 0 0 140.7 131.5;" xml:space="preserve">
<style type="text/css">
	.Drop_x0020_Shadow{fill:none;}
	.Outer_x0020_Glow_x0020_5_x0020_pt{fill:none;}
	.Blue_x0020_Neon{fill:none;stroke:#8AACDA;stroke-width:7;stroke-linecap:round;stroke-linejoin:round;}
	.Chrome_x0020_Highlight{fill:url(#SVGID_1_);stroke:#FFFFFF;stroke-width:0.3629;stroke-miterlimit:1;}
	.Jive_GS{fill:#FFDD00;}
	.Alyssa_GS{fill:#A6D0E4;}
	.st0{fill:#A7A8AC;}
	.st1{fill:#FFFFFF;stroke:#A7A8AC;stroke-miterlimit:10;}
	.st2{fill:#6BA03F;}
	.st3{fill:#EE3D31;}
</style>
<linearGradient id="SVGID_1_" gradientUnits="userSpaceOnUse" x1="-328.616" y1="-334.5967" x2="-328.616" y2="-335.5967">
	<stop  offset="0" style="stop-color:#656565"/>
	<stop  offset="0.618" style="stop-color:#1B1B1B"/>
	<stop  offset="0.6292" style="stop-color:#545454"/>
	<stop  offset="0.9831" style="stop-color:#3E3E3E"/>
</linearGradient>
<g id="bg">
	<path class="st0" d="M124.3,118.3c-23.8,15.6-74.9,18.1-99.6,3.3C-0.1,106.9-2.4,42,13.1,19.8C28.7-2.3,92.9-0.4,121.9,15.2
		C144.9,27.7,148.1,102.8,124.3,118.3z"/>
	<path class="st1" d="M121,115c-23.8,15.6-74.9,18.1-99.6,3.3C-3.4,103.6-5.8,38.7,9.8,16.5C25.4-5.7,89.6-3.8,118.5,11.9
		C141.6,24.4,144.7,99.5,121,115z"/>
</g>
<g id="fuit">
	<g>
		<path class="st2" d="M65.5,38.5c1.7,0,3-1.4,3-3V19.7c0-1.7-1.4-3-3-3c-1.7,0-3,1.4-3,3v15.7C62.4,37.2,63.8,38.5,65.5,38.5z"/>
		<path class="st3" d="M104,61.4c0-0.5-0.1-1-0.2-1.5c0-0.1,0-0.1,0-0.2c-1.2-7.7-5-13.9-11.1-16.3c-3.1-1.2-6.5-2-9.9-2
			c-1.7,0-3.5,0.2-5.2,0.6c-1,0.3-2,0.5-3,0.7c-1.5,0.3-3,0.5-4.5,0.7c-1.5,0.1-3,0.2-4.5,0.2c-1.5,0-3-0.1-4.5-0.2
			c-1.5-0.2-3-0.4-4.5-0.7c-1-0.2-2-0.4-3-0.7c-1.7-0.4-3.5-0.6-5.2-0.6c-3.4,0-6.8,0.8-9.9,2c-5.8,2.3-9.6,8-10.9,15.1
			c0,0.1,0,0.1,0,0.2c-0.1,0.5-0.2,1-0.3,1.5c-0.7,5.2-0.2,11.1,1.7,17.1c0.1,0.3,0.2,0.6,0.3,0.9c0.1,0.3,0.2,0.6,0.3,0.9
			c0.2,0.4,0.3,0.9,0.5,1.3c3,7.6,7.7,13.7,13,17.6c0.6,0.4,1.2,0.8,1.8,1.2c0.9,0.6,1.8,1.1,2.7,1.5c0.6,0.3,1.2,0.5,1.8,0.8
			c2.2,0.8,4.4,1.2,6.5,1.2c1.9,0,3.9-0.3,5.7-1.1c0.2-0.1,0.5-0.2,0.7-0.3c0.1-0.1,0.3-0.1,0.4-0.2c0.4-0.2,0.8-0.3,1.2-0.4
			c0.5-0.1,1.1-0.2,1.6-0.2c0.5,0,1.1,0.1,1.6,0.2c0.4,0.1,0.8,0.2,1.2,0.4c0.1,0,0.3,0.1,0.4,0.2c0.2,0.1,0.5,0.2,0.7,0.3
			c0.2,0.1,0.5,0.2,0.7,0.3c0.5,0.2,0.9,0.3,1.4,0.4c0.2,0.1,0.5,0.1,0.7,0.2c0.5,0.1,1,0.2,1.4,0.2c0.5,0,1,0.1,1.5,0.1
			c2.2,0,4.3-0.4,6.5-1.2c0.6-0.2,1.2-0.5,1.8-0.8c0.9-0.4,1.8-0.9,2.7-1.5c0.6-0.4,1.2-0.8,1.8-1.2c5.3-3.9,10-10,13-17.6
			c0-0.1,0.1-0.1,0.1-0.2c0.1-0.3,0.2-0.6,0.3-0.9c0.1-0.3,0.2-0.6,0.3-0.9C103.8,72.5,104.5,66.6,104,61.4z"/>
		<g>
			<path class="st2" d="M91.4,18L73.2,36.2c-1.9-3.7-0.2-9.5,4.2-13.9C81.9,17.8,87.7,16.2,91.4,18z"/>
			<path class="st2" d="M91.4,18L73.2,36.2c3.7,1.9,9.5,0.2,13.9-4.2C91.6,27.5,93.2,21.7,91.4,18z"/>
		</g>
	</g>
</g>
</svg>
