<?xml version="1.0" encoding="utf-8"?>
<!-- Generator: Adobe Illustrator 21.0.0, SVG Export Plug-In . SVG Version: 6.00 Build 0)  -->
<svg version="1.1" xmlns="http://www.w3.org/2000/svg" xmlns:xlink="http://www.w3.org/1999/xlink" x="0px" y="0px"
	 viewBox="0 0 140.7 131.5" style="enable-background:new 0 0 140.7 131.5;" xml:space="preserve">
<style type="text/css">
	.Drop_x0020_Shadow{fill:none;}
	.Outer_x0020_Glow_x0020_5_x0020_pt{fill:none;}
	.Blue_x0020_Neon{fill:none;stroke:#8AACDA;stroke-width:7;stroke-linecap:round;stroke-linejoin:round;}
	.Chrome_x0020_Highlight{fill:url(#SVGID_1_);stroke:#FFFFFF;stroke-width:0.3629;stroke-miterlimit:1;}
	.Jive_GS{fill:#FFDD00;}
	.Alyssa_GS{fill:#A6D0E4;}
	.st0{fill:#A7A8AC;}
	.st1{fill:#FFFFFF;stroke:#A7A8AC;stroke-miterlimit:10;}
	.st2{fill:#009348;}
	.st3{fill:#EE3D31;}
	.st4{fill:#FFD364;}
</style>
<linearGradient id="SVGID_1_" gradientUnits="userSpaceOnUse" x1="-328.616" y1="-334.5967" x2="-328.616" y2="-335.5967">
	<stop  offset="0" style="stop-color:#656565"/>
	<stop  offset="0.618" style="stop-color:#1B1B1B"/>
	<stop  offset="0.6292" style="stop-color:#545454"/>
	<stop  offset="0.9831" style="stop-color:#3E3E3E"/>
</linearGradient>
<g id="bg">
	<path class="st0" d="M124.3,118.3c-23.8,15.6-74.9,18.1-99.6,3.3C-0.1,106.9-2.4,42,13.1,19.8C28.7-2.3,92.9-0.4,121.9,15.2
		C144.9,27.7,148.1,102.8,124.3,118.3z"/>
	<path class="st1" d="M121,115c-23.8,15.6-74.9,18.1-99.6,3.3C-3.4,103.6-5.8,38.7,9.8,16.5C25.4-5.7,89.6-3.8,118.5,11.9
		C141.6,24.4,144.7,99.5,121,115z"/>
</g>
<g id="fuit">
	<g>
		<g>
			<g>
				<path class="st2" d="M68,23.5c-2.4,1.6-4.1,6.4-4.1,12.1c0,5.7,1.7,10.5,4.1,12.1c2.4-1.6,4.1-6.4,4.1-12.1
					C72.1,29.9,70.4,25.1,68,23.5z"/>
				<path class="st2" d="M92,26.3c-0.5,0.2-0.8,1.8-2.3,4c-1.4,2.2-4,5.2-7.5,7.5c-3.5,2.4-7.2,3.6-9.8,4.1
					c-2.7,0.5-4.2,0.2-4.6,0.6c1.7,1.6,4.4,3.5,7.9,4.3c3.4,0.8,7.6,0.2,11.1-2.2c3.6-2.3,5.6-6,6.2-9.4
					C93.6,31.7,92.8,28.4,92,26.3z"/>
				<path class="st2" d="M80,23.6c-1.8,0.5-3.2,5.1-6.4,10.3c-3,5.2-6.4,8.7-6,10.5c3.6,0.5,9.9-1.2,13-6.4
					C83.8,32.9,82.2,26.5,80,23.6z"/>
			</g>
			<g>
				<path class="st2" d="M44.1,26.3c0.5,0.2,0.8,1.8,2.3,4c1.4,2.2,4,5.2,7.5,7.5c3.5,2.4,7.2,3.6,9.8,4.1c2.7,0.5,4.2,0.2,4.6,0.6
					c-1.7,1.6-4.4,3.5-7.9,4.3c-3.4,0.8-7.6,0.2-11.1-2.2c-3.6-2.3-5.6-6-6.2-9.4C42.5,31.7,43.3,28.4,44.1,26.3z"/>
				<path class="st2" d="M56,23.6c1.8,0.5,3.2,5.1,6.4,10.3c3,5.2,6.4,8.7,6,10.5c-3.6,0.5-9.9-1.2-13-6.4
					C52.3,32.9,53.8,26.5,56,23.6z"/>
			</g>
		</g>
		<g>
			<path class="st3" d="M82.4,99.7c-4.2,4.2-9.3,4.6-14.4,4.7c-5.1-0.2-10.2-0.5-14.4-4.7c-4.3-4.6-8.4-11.3-11.6-17.9
				c-3.4-7.1-5.5-13.9-6.9-19.3c-0.9-4.2-1.6-10.3,0.7-14.7c2.1-4.5,7.4-7.3,13.1-6.9c6.3,0,12.6,0,19,0c6.3,0,12.6,0,19,0
				c5.8-0.4,11,2.4,13.1,6.9c2.4,4.4,1.6,10.5,0.7,14.7c-1.5,5.4-3.5,12.2-6.9,19.3C90.8,88.4,86.7,95.2,82.4,99.7z"/>
			<g>
				<g>
					<path class="st4" d="M55.5,59.1c-0.3,0.4-0.7,0.5-1.1,0.5c-0.4,0-0.8,0-1.1-0.5c-0.3-0.5-0.6-1.1-0.9-1.8
						c-0.3-0.7-0.4-1.4-0.5-1.9c-0.1-0.4-0.1-1,0.1-1.5c0.2-0.4,0.6-0.7,1-0.7c0.5,0,1,0,1.5,0c0.5,0,1,0,1.5,0c0.4,0,0.8,0.2,1,0.7
						c0.2,0.4,0.1,1,0.1,1.5c-0.1,0.5-0.3,1.2-0.5,1.9C56.1,58,55.8,58.7,55.5,59.1z"/>
					<path class="st4" d="M69.1,59.1c-0.3,0.4-0.7,0.5-1.1,0.5c-0.4,0-0.8,0-1.1-0.5c-0.3-0.5-0.6-1.1-0.9-1.8
						c-0.3-0.7-0.4-1.4-0.5-1.9c-0.1-0.4-0.1-1,0.1-1.5c0.2-0.4,0.6-0.7,1-0.7c0.5,0,1,0,1.5,0c0.5,0,1,0,1.5,0c0.4,0,0.8,0.2,1,0.7
						c0.2,0.4,0.1,1,0.1,1.5c-0.1,0.5-0.3,1.2-0.5,1.9C69.8,58,69.5,58.7,69.1,59.1z"/>
					<path class="st4" d="M82.8,59.1c-0.3,0.4-0.7,0.5-1.1,0.5c-0.4,0-0.8,0-1.1-0.5c-0.3-0.5-0.6-1.1-0.9-1.8
						c-0.3-0.7-0.4-1.4-0.5-1.9c-0.1-0.4-0.1-1,0.1-1.5c0.2-0.4,0.6-0.7,1-0.7c0.5,0,1,0,1.5,0c0.5,0,1,0,1.5,0c0.4,0,0.8,0.2,1,0.7
						c0.2,0.4,0.1,1,0.1,1.5c-0.1,0.5-0.3,1.2-0.5,1.9C83.5,58,83.1,58.7,82.8,59.1z"/>
				</g>
				<g>
					<path class="st4" d="M62.3,70c-0.3,0.4-0.7,0.5-1.1,0.5c-0.4,0-0.8,0-1.1-0.5c-0.3-0.5-0.6-1.1-0.9-1.8
						c-0.3-0.7-0.4-1.4-0.5-1.9c-0.1-0.4-0.1-1,0.1-1.5c0.2-0.4,0.6-0.7,1-0.7c0.5,0,1,0,1.5,0c0.5,0,1,0,1.5,0c0.4,0,0.8,0.2,1,0.7
						c0.2,0.4,0.1,1,0.1,1.5c-0.1,0.5-0.3,1.2-0.5,1.9C63,68.8,62.6,69.5,62.3,70z"/>
					<path class="st4" d="M76,70c-0.3,0.4-0.7,0.5-1.1,0.5c-0.4,0-0.8,0-1.1-0.5c-0.3-0.5-0.6-1.1-0.9-1.8c-0.3-0.7-0.4-1.4-0.5-1.9
						c-0.1-0.4-0.1-1,0.1-1.5c0.2-0.4,0.6-0.7,1-0.7c0.5,0,1,0,1.5,0c0.5,0,1,0,1.5,0c0.4,0,0.8,0.2,1,0.7c0.2,0.4,0.1,1,0.1,1.5
						c-0.1,0.5-0.3,1.2-0.5,1.9C76.6,68.8,76.3,69.5,76,70z"/>
				</g>
				<g>
					<path class="st4" d="M48.6,70c-0.3,0.4-0.7,0.5-1.1,0.5c-0.4,0-0.8,0-1.1-0.5c-0.3-0.5-0.6-1.1-0.9-1.8
						c-0.3-0.7-0.4-1.4-0.5-1.9c-0.1-0.4-0.1-1,0.1-1.5c0.2-0.4,0.6-0.7,1-0.7c0.5,0,1,0,1.5,0c0.5,0,1,0,1.5,0c0.4,0,0.8,0.2,1,0.7
						c0.2,0.4,0.1,1,0.1,1.5c-0.1,0.5-0.3,1.2-0.5,1.9C49.3,68.8,49,69.5,48.6,70z"/>
				</g>
				<g>
					<path class="st4" d="M89.6,70c-0.3,0.4-0.7,0.5-1.1,0.5c-0.4,0-0.8,0-1.1-0.5c-0.3-0.5-0.6-1.1-0.9-1.8
						c-0.3-0.7-0.4-1.4-0.5-1.9c-0.1-0.4-0.1-1,0.1-1.5c0.2-0.4,0.6-0.7,1-0.7c0.5,0,1,0,1.5,0c0.5,0,1,0,1.5,0c0.4,0,0.8,0.2,1,0.7
						c0.2,0.4,0.1,1,0.1,1.5c-0.1,0.5-0.3,1.2-0.5,1.9C90.3,68.8,90,69.5,89.6,70z"/>
				</g>
				<g>
					<path class="st4" d="M55.5,80.8c-0.3,0.4-0.7,0.5-1.1,0.5c-0.4,0-0.8,0-1.1-0.5c-0.3-0.5-0.6-1.1-0.9-1.8
						c-0.3-0.7-0.4-1.4-0.5-1.9c-0.1-0.4-0.1-1,0.1-1.5c0.2-0.4,0.6-0.7,1-0.7c0.5,0,1,0,1.5,0c0.5,0,1,0,1.5,0c0.4,0,0.8,0.2,1,0.7
						c0.2,0.4,0.1,1,0.1,1.5c-0.1,0.5-0.3,1.2-0.5,1.9C56.1,79.7,55.8,80.3,55.5,80.8z"/>
					<path class="st4" d="M69.1,80.8c-0.3,0.4-0.7,0.5-1.1,0.5c-0.4,0-0.8,0-1.1-0.5c-0.3-0.5-0.6-1.1-0.9-1.8
						c-0.3-0.7-0.4-1.4-0.5-1.9c-0.1-0.4-0.1-1,0.1-1.5c0.2-0.4,0.6-0.7,1-0.7c0.5,0,1,0,1.5,0c0.5,0,1,0,1.5,0c0.4,0,0.8,0.2,1,0.7
						c0.2,0.4,0.1,1,0.1,1.5c-0.1,0.5-0.3,1.2-0.5,1.9C69.8,79.7,69.5,80.3,69.1,80.8z"/>
					<path class="st4" d="M82.8,80.8c-0.3,0.4-0.7,0.5-1.1,0.5c-0.4,0-0.8,0-1.1-0.5c-0.3-0.5-0.6-1.1-0.9-1.8
						c-0.3-0.7-0.4-1.4-0.5-1.9c-0.1-0.4-0.1-1,0.1-1.5c0.2-0.4,0.6-0.7,1-0.7c0.5,0,1,0,1.5,0c0.5,0,1,0,1.5,0c0.4,0,0.8,0.2,1,0.7
						c0.2,0.4,0.1,1,0.1,1.5c-0.1,0.5-0.3,1.2-0.5,1.9C83.5,79.7,83.1,80.3,82.8,80.8z"/>
				</g>
				<g>
					<path class="st4" d="M62.3,91.6C62,92,61.6,92,61.2,92.1c-0.4,0-0.8,0-1.1-0.5c-0.3-0.5-0.6-1.1-0.9-1.8
						c-0.3-0.7-0.4-1.4-0.5-1.9c-0.1-0.4-0.1-1,0.1-1.5c0.2-0.4,0.6-0.7,1-0.7c0.5,0,1,0,1.5,0c0.5,0,1,0,1.5,0c0.4,0,0.8,0.2,1,0.7
						c0.2,0.4,0.1,1,0.1,1.5c-0.1,0.5-0.3,1.2-0.5,1.9C63,90.5,62.6,91.1,62.3,91.6z"/>
					<path class="st4" d="M76,91.6c-0.3,0.4-0.7,0.5-1.1,0.5c-0.4,0-0.8,0-1.1-0.5c-0.3-0.5-0.6-1.1-0.9-1.8
						c-0.3-0.7-0.4-1.4-0.5-1.9c-0.1-0.4-0.1-1,0.1-1.5c0.2-0.4,0.6-0.7,1-0.7c0.5,0,1,0,1.5,0c0.5,0,1,0,1.5,0c0.4,0,0.8,0.2,1,0.7
						c0.2,0.4,0.1,1,0.1,1.5c-0.1,0.5-0.3,1.2-0.5,1.9C76.6,90.5,76.3,91.1,76,91.6z"/>
				</g>
			</g>
		</g>
	</g>
</g>
</svg>
