<?xml version="1.0" encoding="utf-8"?>
<!-- Generator: Adobe Illustrator 21.0.0, SVG Export Plug-In . SVG Version: 6.00 Build 0)  -->
<svg version="1.1" xmlns="http://www.w3.org/2000/svg" xmlns:xlink="http://www.w3.org/1999/xlink" x="0px" y="0px"
	 viewBox="0 0 140.7 131.5" style="enable-background:new 0 0 140.7 131.5;" xml:space="preserve">
<style type="text/css">
	.Drop_x0020_Shadow{fill:none;}
	.Outer_x0020_Glow_x0020_5_x0020_pt{fill:none;}
	.Blue_x0020_Neon{fill:none;stroke:#8AACDA;stroke-width:7;stroke-linecap:round;stroke-linejoin:round;}
	.Chrome_x0020_Highlight{fill:url(#SVGID_1_);stroke:#FFFFFF;stroke-width:0.3629;stroke-miterlimit:1;}
	.Jive_GS{fill:#FFDD00;}
	.Alyssa_GS{fill:#A6D0E4;}
	.st0{fill:#A7A8AC;}
	.st1{fill:#FFFFFF;stroke:#A7A8AC;stroke-miterlimit:10;}
	.st2{fill:#007732;}
	.st3{fill:#FFC830;}
	.st4{fill:#F9A11B;}
</style>
<linearGradient id="SVGID_1_" gradientUnits="userSpaceOnUse" x1="-328.616" y1="-334.5967" x2="-328.616" y2="-335.5967">
	<stop  offset="0" style="stop-color:#656565"/>
	<stop  offset="0.618" style="stop-color:#1B1B1B"/>
	<stop  offset="0.6292" style="stop-color:#545454"/>
	<stop  offset="0.9831" style="stop-color:#3E3E3E"/>
</linearGradient>
<g id="bg">
	<path class="st0" d="M124.3,118.3c-23.8,15.6-74.9,18.1-99.6,3.3C-0.1,106.9-2.4,42,13.1,19.8C28.7-2.3,92.9-0.4,121.9,15.2
		C144.9,27.7,148.1,102.8,124.3,118.3z"/>
	<path class="st1" d="M121,115c-23.8,15.6-74.9,18.1-99.6,3.3C-3.4,103.6-5.8,38.7,9.8,16.5C25.4-5.7,89.6-3.8,118.5,11.9
		C141.6,24.4,144.7,99.5,121,115z"/>
</g>
<g id="fuit">
	<g>
		<g>
			<path class="st2" d="M86.4,10.7c-3.9,2.9-7.2,6.7-9.7,11.1c-2.5,4.4-4.2,9.5-4.9,14.9c-1.2-0.9-2.4-1.9-3.6-2.8
				c-1.2-0.9-2.4-1.9-3.6-2.8c1.9-4.5,4.8-8.6,8.5-12.1S81.3,12.7,86.4,10.7z"/>
			<path class="st2" d="M102.6,37.3c-6.2-3.9-13-3.4-18.3,0.3c-5.3,3.7-9,10.6-8.9,19.7c-0.9-1.8-1.8-3.7-2.7-5.5s-4.7-9.7-5.6-11.5
				c4.7-6.3,7.7-7.6,13.8-9.5C89.1,28.9,95.6,31.6,102.6,37.3z"/>
			<path class="st2" d="M68.6,6.4c1,0.8,2.7,9,3.7,16c1.2,7.5,1.2,11.3,2,16c-1.9,0-3.8,0-5.7,0s-3.8,0-5.7,0c0.8-4.7,0.8-8.5,2-16
				C65.9,15.4,67.6,7.2,68.6,6.4z"/>
			<path class="st2" d="M95.6,23.2c-5.1-0.2-9.9,1.5-13.9,4.8c-4,3.2-7.1,8-8.7,14c-0.9-1.5-1.7-3-2.6-4.5c-0.9-1.5-1.7-3-2.6-4.5
				c2.5-4.4,6.4-7.7,11.3-9.5C84,21.8,89.7,21.6,95.6,23.2z"/>
			<path class="st2" d="M51,10.7c3.9,2.9,7.2,6.7,9.7,11.1c2.5,4.4,4.2,9.5,4.9,14.9c1.2-0.9,2.4-1.9,3.6-2.8
				c1.2-0.9,2.4-1.9,3.6-2.8c-1.9-4.5-4.8-8.6-8.5-12.1S56.1,12.7,51,10.7z"/>
			<path class="st2" d="M34.7,37.3c6.2-3.9,13-3.4,18.3,0.3c5.3,3.7,9,10.6,8.9,19.7c0.9-1.8,1.8-3.7,2.7-5.5
				c0.9-1.8,4.7-9.7,5.6-11.5c-4.7-6.3-7.7-7.6-13.8-9.5C48.3,28.9,41.8,31.6,34.7,37.3z"/>
			<path class="st2" d="M41.7,23.2c5.1-0.2,9.9,1.5,13.9,4.8c4,3.2,7.1,8,8.7,14c0.9-1.5,1.7-3,2.6-4.5c0.9-1.5,1.7-3,2.6-4.5
				c-2.5-4.4-6.4-7.7-11.3-9.5C53.4,21.8,47.7,21.6,41.7,23.2z"/>
		</g>
		<g>
			<path class="st3" d="M101.3,79.5c0,1.4,0,2.8-0.2,4.1c-0.1,0.9-0.2,1.9-0.4,2.8c-0.2,1.3-0.5,2.5-0.8,3.7v0
				c-0.2,0.6-0.4,1.2-0.6,1.8c-1,2.9-2.3,5.6-3.9,8.1c-0.3,0.5-0.6,1-1,1.4c-1.7,2.3-3.6,4.4-5.8,6.2c-0.4,0.4-0.9,0.7-1.3,1.1
				c-2.3,1.8-4.9,3.2-7.6,4.3c-0.6,0.2-1.2,0.4-1.8,0.6c-1.8,0.6-3.8,1.1-5.8,1.3l0,0c-0.9,0.1-1.7,0.2-2.6,0.2c-0.3,0-0.7,0-1,0
				c-0.3,0-0.7,0-1,0c-0.9,0-1.8-0.1-2.6-0.2c-2-0.3-3.9-0.7-5.8-1.3c-0.6-0.2-1.2-0.4-1.7-0.6c-2.8-1.1-5.3-2.6-7.6-4.3
				c-0.4-0.3-0.9-0.7-1.3-1.1c-2.2-1.8-4.1-3.9-5.8-6.2c-0.3-0.5-0.7-0.9-1-1.4c-1.6-2.5-2.9-5.2-3.9-8c-0.2-0.6-0.4-1.2-0.6-1.8
				c-0.3-1.2-0.6-2.5-0.8-3.7c-0.2-0.9-0.3-1.8-0.4-2.8c-0.1-1.4-0.2-2.7-0.2-4.1c0-0.8,0.1-1.7,0.1-2.5c0-0.5,0.1-1.1,0.2-1.7
				c0.1-1,0.3-2,0.5-3.1c0.1-0.7,0.3-1.3,0.4-2c0.7-3.2,1.7-6.2,2.9-9.1c0-0.1,0-0.1,0.1-0.2c0.2-0.5,0.4-1,0.6-1.5c0.5-1,1-2,1.5-3
				c0.9-1.6,1.8-3.2,2.8-4.6c0.3-0.5,0.7-0.9,1-1.4c1.8-2.3,3.7-4.4,5.8-6.2c0.4-0.4,0.9-0.7,1.3-1.1c1.7-1.3,3.6-2.4,5.5-3.3l0,0
				c0.8-0.3,1.5-0.6,2.3-0.9c0.5-0.2,0.9-0.3,1.4-0.4c0.1,0,0.3-0.1,0.4-0.1c1.9-0.5,3.8-0.7,5.8-0.7c2,0,3.9,0.2,5.8,0.7
				c0.1,0,0.3,0.1,0.4,0.1c0.5,0.1,0.9,0.3,1.4,0.4c0.8,0.3,1.5,0.6,2.3,0.9l0,0c1.9,0.8,3.8,1.9,5.5,3.3c0.4,0.3,0.9,0.7,1.3,1
				c2.1,1.8,4.1,3.8,5.8,6.2c0.3,0.4,0.7,0.9,1,1.4c1,1.5,2,3,2.8,4.6c0.5,1,1,2,1.5,3c0.2,0.5,0.4,1,0.6,1.5c0,0.1,0,0.1,0.1,0.2
				c1.2,2.9,2.1,5.9,2.9,9.1c0.1,0.7,0.3,1.3,0.4,2c0.2,1,0.4,2,0.5,3.1c0.1,0.5,0.1,1.1,0.2,1.7C101.3,77.9,101.3,78.7,101.3,79.5z
				"/>
			<g>
				<path class="st4" d="M62.3,38.7l-0.9,0.9l-6,6l-1.2,1.2l-6,6L47.1,54L40,61c0.2-0.5,0.4-1,0.6-1.5c0.5-1,1-2,1.5-3l3.7-3.7
					l1.2-1.2l6-6l1.2-1.2l4.4-4.4l0,0c0.8-0.3,1.5-0.6,2.3-0.9C61.4,38.9,61.9,38.8,62.3,38.7z"/>
				<path class="st4" d="M76.3,39.1l-0.5,0.5l-6,6l-1.2,1.2l-6,6L61.4,54l-6,6l-1.2,1.2l-6,6l-1.2,1.2l-6,6l-1.2,1.2l-4,4
					c0-0.8,0.1-1.7,0.1-2.5l2.7-2.7l1.2-1.2l6-6l1.2-1.2l6-6l1.2-1.2l6-6l1.2-1.2l6-6l1.2-1.2l5.8-5.8l0.2-0.2l0.3,0.3
					C75.3,38.8,75.8,38.9,76.3,39.1z"/>
				<path class="st4" d="M85.4,44.3l-1.3,1.3L83,46.8l-6,6L75.8,54l-6,6l-1.2,1.2l-6,6l-1.2,1.2l-6,6l-1.2,1.2l-6,6l-1.2,1.2l-6,6
					l-1.2,1.2l-2.1,2.1c-0.2-0.6-0.4-1.2-0.6-1.8l1.4-1.4l1.2-1.2l6-6l1.2-1.2l6-6l1.2-1.2l6-6l1.2-1.2l6-6l1.2-1.2l6-6l1.2-1.2l6-6
					l1.2-1.2l1.1-1.1C84.5,43.6,85,43.9,85.4,44.3z"/>
				<path class="st4" d="M92.3,51.9l-0.9,0.9L90.2,54l-6,6L83,61.2l-6,6l-1.2,1.2l-6,6l-1.2,1.2L55.4,88.7l-1.2,1.2l-6,6l-1.2,1.2
					l-4.3,4.3c-0.3-0.5-0.7-0.9-1-1.4l4.1-4.1l1.2-1.2l6-6l1.2-1.2l6-6l1.2-1.2l6-6l1.2-1.2l6-6l1.2-1.2l6-6l1.2-1.2l6-6l1.2-1.2
					l1.1-1.1C91.6,50.9,91.9,51.4,92.3,51.9z"/>
				<path class="st4" d="M97.3,61.1L97.3,61.1l-6,6l-1.2,1.2l-6,6L83,75.5l-6,6l-1.2,1.2L62.6,95.9l-1.2,1.2l-6,6l-1.2,1.2l-4.4,4.4
					c-0.4-0.3-0.9-0.7-1.3-1.1l4.6-4.6l1.2-1.2l6-6l1.2-1.2l13.2-13.2l1.2-1.2l6-6l1.2-1.2l6-6l1.2-1.2l6-6l0.4-0.4
					c0.2,0.5,0.4,1,0.6,1.5L97.3,61.1z"/>
				<path class="st4" d="M100.5,72.3l-2,2l-1.2,1.2l-6,6l-1.2,1.2l-6,6L83,89.9l-13.2,13.2l-1.2,1.2l-6,6l-1.2,1.2l-2.2,2.2
					c-0.6-0.2-1.2-0.4-1.7-0.6l2.8-2.8l1.2-1.2l6-6l1.2-1.2l13.2-13.2l1.2-1.2l6-6l1.2-1.2l6-6l1.2-1.2l2.8-2.8
					C100.3,71,100.4,71.6,100.5,72.3z"/>
				<path class="st4" d="M101.2,83.6c-0.1,0.9-0.2,1.9-0.4,2.8l-9.5,9.5l-1.2,1.2L77,110.2l-1.2,1.2l-3.6,3.6l0,0
					c-0.9,0.1-1.7,0.2-2.6,0.2l5-5l1.2-1.2l6-6l7.2-7.2l1.2-1.2l6-6l1.2-1.2L101.2,83.6z"/>
				<path class="st4" d="M97.2,61L74.9,38.7c0.5,0.1,0.9,0.3,1.4,0.4c0.8,0.3,1.5,0.6,2.3,0.9l0,0l4.4,4.4l12.1,12.1
					c0.5,1,1,2,1.5,3C96.8,60,97,60.5,97.2,61z"/>
				<path class="st4" d="M101.3,79.5l-4-4l-1.2-1.2l-6-6L89,67.1l-6-6L61.4,39.6l-0.5-0.5c0.5-0.2,0.9-0.3,1.4-0.4l0.3-0.3
					l27.5,27.5l1.2,1.2l6,6l1.2,1.2l2.7,2.7C101.3,77.9,101.3,78.7,101.3,79.5z"/>
				<path class="st4" d="M100,90.1L100,90.1c-0.2,0.6-0.4,1.2-0.6,1.8l-2.1-2.1l-1.2-1.2l-6-6L89,81.5l-6-6l-1.2-1.2l-6-6l-1.2-1.2
					l-6-6l-8.4-8.4l-6-6L53,45.6l-1.3-1.3c0.4-0.4,0.9-0.7,1.3-1.1l1.1,1.1l1.2,1.2l13.2,13.2l1.2,1.2l6,6l1.2,1.2l6,6l1.2,1.2l6,6
					l1.2,1.2l6,6l1.2,1.2L100,90.1z"/>
				<path class="st4" d="M95.5,100c-0.3,0.5-0.6,1-1,1.4l-4.3-4.3L89,95.9l-6-6l-1.2-1.2l-6-6l-1.2-1.2l-6-6l-1.2-1.2L54.2,61.1
					L53,60l-6-6l-1.2-1.2L45,51.9c0.3-0.5,0.7-0.9,1-1.4l1.1,1.1l1.2,1.2l6,6l1.2,1.2l6,6l1.2,1.2l6,6l1.2,1.2l6,6l1.2,1.2l6,6
					l1.2,1.2l6,6l1.2,1.2L95.5,100z"/>
				<path class="st4" d="M88.7,107.6c-0.4,0.4-0.9,0.7-1.3,1.1l-4.4-4.4l-1.2-1.2l-6-6l-1.2-1.2l-6-6l-1.2-1.2l-6-6l-1.2-1.2
					L45.9,67.1l-5.9-5.9l0,0L40,61c0.2-0.5,0.4-1,0.6-1.5l0.4,0.4l6,6l15.6,15.6l6,6l1.2,1.2l6,6l1.2,1.2l6,6l1.2,1.2L88.7,107.6z"
					/>
				<path class="st4" d="M79.8,113c-0.6,0.2-1.2,0.4-1.8,0.6l-2.2-2.2l-1.2-1.2l-6-6l-1.2-1.2l-6-6l-1.2-1.2L38.7,74.3l-2-2
					c0.1-0.7,0.3-1.3,0.4-2l18.4,18.4l6,6l1.2,1.2l6,6l1.2,1.2L79.8,113z"/>
				<path class="st4" d="M67.6,115.2c-0.9,0-1.8-0.1-2.6-0.2l-3.6-3.6L45.9,95.9l-6-6l-1.2-1.2l-2.3-2.3c-0.2-0.9-0.3-1.8-0.4-2.8
					l12.2,12.2l6,6l1.2,1.2L67.6,115.2z"/>
			</g>
		</g>
	</g>
</g>
</svg>
