<?xml version="1.0" encoding="utf-8"?>
<!-- Generator: Adobe Illustrator 21.0.0, SVG Export Plug-In . SVG Version: 6.00 Build 0)  -->
<svg version="1.1" id="Layer_1" xmlns="http://www.w3.org/2000/svg" xmlns:xlink="http://www.w3.org/1999/xlink" x="0px" y="0px"
	 viewBox="0 0 345.3 138.4" style="enable-background:new 0 0 345.3 138.4;" xml:space="preserve">
<style type="text/css">
	.st0{fill:#A7A8AC;}
	.st1{fill:#4DB867;}
	.st2{fill:#FFFFFF;}
</style>
<path class="st0" d="M329.7,128.2c-21.5,14.1-289,13.3-311.4,0C-4.1,114.8-4.6,37.4,9.5,17.4C23.6-2.6,303,2.1,329.1,16.3
	C349.9,27.5,351.1,114.1,329.7,128.2z"/>
<path class="st1" d="M329.7,124.2c-21.5,14.1-289,13.3-311.4,0C-4.1,110.8-4.6,33.4,9.5,13.4C23.6-6.6,303-1.9,329.1,12.3
	C349.9,23.5,351.1,110.1,329.7,124.2z"/>
<path class="st2" d="M29.4,17.5c0,0-18.7-1.5-20.5,15.3C8.9,32.8,14.3,17.7,29.4,17.5z"/>
<path class="st2" d="M308.6,122.5c0,0,18.7,1.5,20.5-15.3C329.1,107.2,323.7,122.3,308.6,122.5z"/>
<g>
	<path class="st2" d="M153.1,78.1l0.7,0.1c4.3,2.5,7.8,3.7,10.6,3.7c1.8,0,3.5-0.7,4.9-2c1.5-1.4,2.2-3.5,2.2-6.6s-1.1-5-3.4-6
		c-2.3-1-4.4-1.7-6.5-2c-3.6-0.6-6.5-1.7-8.7-3.3c-2.2-1.6-3.3-4.3-3.3-8.2c0-2.3,0.8-4.3,2.4-6c3-3.1,7.4-4.6,13.1-4.6
		c2.2,0,4.1,0.3,5.9,0.8c1.7,0.5,2.9,1.3,3.6,2.2c0.7,0.9,1,1.7,1,2.2c0,0.6-0.1,1-0.3,1.3c-0.4,0.8-1,1.1-1.8,1.1s-1.5-0.2-2.4-0.7
		c-2.6-1.5-4.9-2.3-7-2.3s-4.1,0.5-6,1.6c-1.9,1.1-2.9,2.5-2.9,4.2c0,2.3,1.1,3.9,3.3,4.8s4.3,1.5,6.4,1.8c3.5,0.7,6.3,1.9,8.5,3.7
		c2.2,1.7,3.3,4.6,3.3,8.6c0,2.6-0.6,5-1.8,7.3c-1.2,2.3-3,4.1-5.2,5.5c-2.3,1.4-4.7,2.1-7.5,2.1c-1.7,0-3.1-0.3-4.3-0.8
		c-1.2-0.5-2-0.9-2.5-1.1c-0.5-0.2-1.3-0.7-2.5-1.3c-1.1-0.6-2-1.1-2.4-1.3c-0.6-0.5-0.9-1.1-0.9-1.7s0.2-1.2,0.5-1.6
		C150.8,78.6,151.8,78.1,153.1,78.1z"/>
	<path class="st2" d="M204.6,71.2c0,2.8-0.1,5.5-0.4,8.1c-0.2,2.6-0.4,4.4-0.5,5.2c-0.1,0.8-0.5,1.6-1.2,2.1
		c-0.7,0.6-1.4,0.8-2.1,0.8c-1.2,0-1.9-0.6-1.9-1.7v-0.4l0.4-11.9V70c0-4.2-0.9-6.8-2.7-7.8c-0.8-0.5-1.8-0.7-3.1-0.7
		c-3.7,0-5.5,1.4-5.5,4.3c0,3.3,0.1,6.2,0.2,8.5c0.2,2.3,0.2,4.3,0.2,5.9s0,3.2-0.1,4.6L188,85c-0.2,0.7-0.7,1.3-1.3,1.8
		c-0.6,0.5-1.3,0.8-1.9,0.8c-1.2,0-1.9-0.6-2-1.7h-0.2c0-6.7-0.3-14-0.9-21.9c-0.6-8-0.9-15.2-1-21.7c0.2-1,0.8-1.8,1.9-2.4
		c0.4-0.2,0.8-0.3,1.3-0.3c0.5,0,1,0.3,1.4,0.8c0.4,0.6,0.7,1.5,0.9,2.7c0.2,1.3,0.2,2.5,0.3,3.8c0,1.3,0.1,3,0.1,5.2
		c0,2.2,0.1,4.1,0.3,5.8c2.2-1.2,4.4-1.7,6.5-1.7c2.2,0,3.9,0.3,5.2,0.9c2.4,1.2,4,3.1,4.8,5.9C204.2,65.6,204.6,68.4,204.6,71.2z"
		/>
	<path class="st2" d="M232.4,62.3l-0.1,4.7c0,1.8-0.2,4-0.5,6.8c0.2,4.8,0.7,9,1.5,12.8c-0.1,0.5-0.5,0.9-1.1,1.2
		c-0.6,0.3-1.2,0.4-1.9,0.4c-0.7,0-1.2-0.1-1.6-0.3c-0.4-0.2-0.7-0.5-0.8-0.8c-0.2-0.4-0.3-0.7-0.3-1c-0.1-0.3-0.1-0.6-0.1-1.1
		s0-0.7-0.1-0.8c-2.1,2.2-4.8,3.3-8.2,3.3s-5.8-1.3-7.2-3.9c-1.5-2.6-2.2-6.2-2.2-10.7c0-8,2.3-13.2,6.9-15.4c1.4-0.7,3.1-1,4.9-1
		c1.8,0,3.6,0.3,5.4,0.9c0.6-0.8,1.4-1.2,2.4-1.2c1.9,0,2.8,1.4,2.9,4.3C232.4,61.2,232.4,61.8,232.4,62.3z M225.8,78.3
		c0.8-2.5,1.3-5.1,1.3-7.9c0-2.8-0.3-4.9-1-6.2c-0.7-1.3-1.9-2-3.5-2c-0.7,0-1.6,0.1-2.8,0.2c-1.1,0.1-2.2,1.1-3.2,3
		c-1,1.9-1.5,3.5-1.5,4.8v2.7c0,4.7,1,7.7,2.9,9c0.6,0.4,1.3,0.6,2.3,0.6s2-0.4,3.1-1.2C224.5,80.4,225.3,79.5,225.8,78.3z"/>
	<path class="st2" d="M242.5,79.1l0.1-2c0-2.8-0.2-5.8-0.6-9c-0.4-3.3-0.9-5.7-1.4-7.3c-0.5-1.6-0.7-2.6-0.7-3
		c0-0.4,0.3-0.9,0.9-1.3c0.6-0.4,1.2-0.7,2-0.7c0.8,0,1.4,0.3,1.8,0.9c0.4,0.6,0.7,1.2,0.8,1.8c0.1,0.6,0.2,1.4,0.3,2.4
		c0.1,1,0.2,1.7,0.2,2c1.2-2.8,3.1-4.7,5.8-5.8c1.4-0.6,2.9-0.9,4.6-0.9c3.7,0,5.5,0.9,5.5,2.8c0,1.2-0.6,2.1-1.8,2.7
		c-0.5,0.2-1,0.4-1.4,0.4l-1.9-0.2c-5.6,0-8.4,5.6-8.4,16.7l0.1,6.1l-0.1,0.1c-0.2,0.8-0.6,1.5-1.2,2.1c-0.6,0.6-1.3,0.9-2,0.9
		c-1,0-1.6-0.8-1.9-2.4C242.6,83.8,242.5,81.7,242.5,79.1z"/>
	<path class="st2" d="M283.5,58.5c2.2,1.3,3.3,3,3.3,5c0,2-1,4-3.1,6c-2.1,2-4.5,3.2-7.4,3.6c-0.3,0-0.5,0.1-0.6,0.1
		c-0.2,0-0.4,0-0.6,0.1s-0.5,0-0.6,0c-0.2,0-0.4,0-0.7,0c-0.3,0-0.5,0-0.6,0c-0.1,0-0.4,0-0.7,0c-0.4,0-0.6,0-0.7,0
		c0.5,3.5,1.2,5.8,2,6.9c1.3,1,2.4,1.5,3.3,1.7c2.2,0,4.3-0.9,6.2-2.8c1.9-1.9,3.3-2.8,4.2-2.8c0.3,0,0.8,0.3,1.6,1
		c0.7,0.6,1.1,1.3,1.1,1.9s-0.4,1.4-1.2,2.3c-0.8,0.9-1.8,1.8-3,2.8c-1.2,1-2.7,1.8-4.5,2.5c-1.8,0.7-3.4,1.1-4.9,1.1
		c-1.5,0-2.9-0.4-4-1.1c-2.1-1.3-3.6-3.5-4.7-6.6c-1.1-3.1-1.6-6.3-1.6-9.7c0-3.4,0.8-6.5,2.3-9.3c1.7-3.1,4.5-4.6,8.6-4.6
		C279,56.4,281.3,57.1,283.5,58.5z M280.9,63.9c0-1.9-1.3-2.8-3.8-2.8c-1.7,0-3.1,1-4.4,2.9c-0.4,0.6-0.7,1.3-0.8,2.1
		c-0.2,0.8-0.3,1.6-0.4,2.5C277.8,68.5,280.9,67,280.9,63.9z"/>
</g>
<g id="sChz9z.tif">
	<g>
		<path class="st2" d="M111.3,90.3c0,1.5,0,3,0,4.5c-0.1,0.4-0.3,0.9-0.4,1.3c-1.8,5.1-7,8.3-12.2,7.3c-5.5-1.1-9.2-5.7-8.9-11.3
			c0-0.9-0.3-1.4-1-1.8c-5.5-3.3-11-6.6-16.4-9.9c-0.7-0.4-1.2-0.4-1.9,0c-2.8,1.7-5.8,2.1-9,1.1c-4-1.3-6.3-4.2-7.4-8.1
			c0-1.5,0-3,0-4.5c0.1-0.2,0.1-0.4,0.2-0.6C56.3,61,64.6,58,70.6,61.9c0.7,0.4,1.2,0.2,1.7-0.1c5.5-3.3,11-6.6,16.4-9.9
			c0.7-0.4,1.1-0.9,1-1.8c-0.1-1,0-1.9,0.2-2.9c1.1-4.5,4.1-7.2,8.5-8.4c1.4,0,2.9,0,4.3,0c4.5,1.2,7.4,4.1,8.6,8.6c0,1.5,0,3,0,4.5
			c-0.1,0.3-0.2,0.5-0.3,0.8c-2.6,7.1-9.6,9.7-16.2,6c-0.7-0.4-1.2-0.2-1.8,0.2c-5.4,3.3-10.8,6.5-16.2,9.8c-1.7,1-1.7,3.8,0,4.8
			c5.4,3.2,10.7,6.4,16.1,9.7c0.8,0.5,1.4,0.5,2.3,0c4.3-2.5,9.5-1.8,13,1.6C109.7,86.4,110.6,88.3,111.3,90.3z"/>
	</g>
</g>
</svg>
