<?xml version="1.0" encoding="utf-8"?>
<!-- Generator: Adobe Illustrator 21.0.0, SVG Export Plug-In . SVG Version: 6.00 Build 0)  -->
<svg version="1.1" id="Layer_1" xmlns="http://www.w3.org/2000/svg" xmlns:xlink="http://www.w3.org/1999/xlink" x="0px" y="0px"
	 viewBox="0 0 81.7 80.7" style="enable-background:new 0 0 81.7 80.7;" xml:space="preserve">
<style type="text/css">
	.st0{fill:#B8D432;}
</style>
<path class="st0" d="M79.2,28.5c-0.9-1.8-2.4-2.8-4.4-2.8c-6.9,0-13.9,0-20.8,0c-0.7,0-1.1-0.2-1.3-0.9c-2.3-6.6-4.7-13.1-7-19.7
	c-0.6-1.8-1.7-3-3.6-3.6c-0.8,0-1.6,0-2.4,0c-1.9,0.6-3,1.9-3.7,3.8c-2.3,6.6-4.7,13.1-7,19.6c-0.2,0.6-0.6,0.7-1.1,0.7
	c-6.7,0-13.4,0.1-20.1,0c-2.8,0-4.7,1.1-5.6,3.7c0,0.8,0,1.6,0,2.4c0.5,1.7,1.7,2.9,3.1,3.9c4.9,3.7,9.9,7.5,14.9,11.2
	c0.7,0.5,0.8,0.9,0.5,1.7c-2.8,7.6-5.4,15.3-8.3,22.9c-0.5,1.2-0.8,2.5-0.5,3.8c0.8,3.2,4.3,4.8,7.2,3.2c1.1-0.6,2.2-1.3,3.2-2.1
	c5.9-4.5,11.9-8.9,17.8-13.4c0.6-0.5,1-0.4,1.6,0c6,4.6,12.1,9.1,18.2,13.7c0.9,0.6,1.8,1.3,2.7,1.8c1.9,1,3.8,1,5.5-0.3
	c1.7-1.3,2.4-3.2,1.8-5.2c-0.8-2.8-1.9-5.5-2.9-8.2C65,59.3,63.2,54,61.2,48.6c-0.3-0.7-0.2-1.2,0.5-1.6c4.8-3.6,9.6-7.2,14.4-10.9
	c0.9-0.7,1.9-1.5,2.6-2.4C79.9,32.1,80.1,30.3,79.2,28.5z"/>
</svg>
