<?xml version="1.0" encoding="utf-8"?>
<!-- Generator: Adobe Illustrator 20.1.0, SVG Export Plug-In . SVG Version: 6.00 Build 0)  -->
<svg version="1.1" id="Layer_1" xmlns="http://www.w3.org/2000/svg" xmlns:xlink="http://www.w3.org/1999/xlink" x="0px" y="0px"
	 viewBox="0 0 1206 1260" style="enable-background:new 0 0 1206 1260;" xml:space="preserve">
<style type="text/css">
	.st0{fill:#A7A7AB;}
	.st1{fill:#3DA7C3;}
	.st2{fill:#FFFFFF;}
	.st3{enable-background:new    ;}
	.st4{fill:#9B8165;}
	.st5{fill:#BA5400;}
	.st6{fill:#B17E11;}
	.st7{fill:#E6E6E6;}
	.st8{fill:#42210B;}
	.st9{fill:#F7AD1E;}
	.st10{fill:url(#SVGID_1_);}
	.st11{fill:url(#SVGID_2_);}
	.st12{fill:#CF6603;}
	.st13{fill:url(#SVGID_3_);}
	.st14{fill:url(#SVGID_4_);}
	.st15{fill:url(#SVGID_5_);}
	.st16{fill:#F7AE1E;}
	.st17{fill:#F7AF1E;}
	.st18{fill:#F7AF1D;}
	.st19{fill:#F7B01D;}
	.st20{fill:#F7B11D;}
	.st21{fill:#F7B21D;}
	.st22{fill:#F7B21C;}
	.st23{fill:#F7B31C;}
	.st24{fill:#F7B41C;}
	.st25{fill:#F8B41C;}
	.st26{fill:#F8B51C;}
	.st27{fill:#F8B61C;}
	.st28{fill:#F8B61B;}
	.st29{fill:#F8B71B;}
	.st30{fill:#F8B81B;}
	.st31{fill:#F8B91B;}
	.st32{fill:#F8B91A;}
	.st33{fill:#F8BA1A;}
	.st34{fill:#F8BB1A;}
	.st35{fill:url(#SVGID_6_);}
	.st36{fill:url(#SVGID_7_);}
	.st37{fill:#F15A24;}
	.st38{fill:url(#SVGID_8_);}
	.st39{fill:#91BE4A;}
	.st40{fill:#009D4F;}
	.st41{fill:#231F20;}
	.st42{fill:#00954A;}
	.st43{fill:#267F55;}
</style>
<g>
	<path class="st0" d="M1104.3,1192.6c-90.5,59.2-890.8,50-985.1-6.2C24.9,1130.2,41.3,173.2,100.6,88.8
		C160,4.5,1010,30.6,1120.3,90.3C1207.9,137.7,1194.7,1133.3,1104.3,1192.6z"/>
	<path class="st1" d="M1077.8,1175.9c-90.5,59.2-890.8,50-985.1-6.2C-1.6,1113.6,14.8,156.5,74.2,72.2
		c59.3-84.4,909.4-58.2,1019.6,1.5C1181.4,121.1,1168.2,1116.7,1077.8,1175.9z"/>
	<path class="st2" d="M1020.8,1175.1c0,0,56.3,7.3,64.6-43.3C1085.4,1131.8,1066.7,1176.8,1020.8,1175.1z"/>
	<path class="st2" d="M135,57.9c0,0-56.7,2.8-55.9,54.1C79.1,112,89.5,64.3,135,57.9z"/>
	<path class="st2" d="M1071.8,938c-26.2,9.3-961.1,0.7-980.7-3.4c-19.6-4-26.4-744.6,28.2-822.1c54.5-77.6,831.4-53.4,932.8,1.5
		C1132.6,157.6,1098,928.7,1071.8,938z"/>
	<g class="st3">
		<path class="st2" d="M361.6,1119.4c-0.5,2.2-2.6,3.3-6.3,3.3c-1.8,0-3.2-0.4-4.5-1.3s-1.8-2.1-1.8-3.8c0-4.6,1.2-12.7,3.7-24.4
			c2.5-11.7,5.6-24,9.4-36.9c3.8-12.8,8.3-24.2,13.6-34.1c5.3-9.9,10.3-14.8,15.1-14.8c2.4,0,6.6,7.5,12.6,22.5
			c6.1,15,11.3,31.6,15.6,49.8c4.3,18.2,7.3,30.5,8.8,36.8c0,2.2-0.6,3.8-1.9,4.9c-1.3,1.1-2.9,1.6-5,1.6s-3.8-0.5-5.4-1.5
			c-1.5-1-2.4-2.4-2.8-4.1l-8.5-37.3c-15,0-26.3-1.1-34.2-3.3C365.9,1094.8,363,1109,361.6,1119.4z M388.2,1026.9
			c-5.8,11-10.6,23.1-14.2,36.3c7.2,2.6,16.4,3.9,27.3,3.9C396.6,1049.6,392.2,1036.3,388.2,1026.9z"/>
		<path class="st2" d="M484.4,1117.3l0.2-9.1c0-1.4,0-3.2-0.1-5.5c-0.1-2.3-0.1-4.9-0.2-7.9c-0.1-3-0.2-6-0.4-8.9
			c-0.2-3-0.6-5.8-1.1-8.5c-0.7-5.4-2.1-9.9-4.1-13.5c-2-3.6-4.6-5.4-7.6-5.4c-3,0-5.6,0.5-7.5,1.6c-2,1.1-3.6,2.7-4.7,4.9
			c-2.6,4.6-4.1,9.5-4.6,14.7c-0.5,5.3-0.7,10.9-0.7,16.8l-0.5,18.9c0,2.5-0.9,4.4-2.7,5.7c-1.8,1.3-3.9,2-6.2,2
			c-2.9,0-4.4-1.9-4.4-5.6c0-9.7-0.3-21.6-1-35.7c-0.6-14.1-1-25.9-1-35.4c0.6-2,1.5-3.7,2.9-5.3c1.3-1.5,2.7-2.3,3.9-2.3
			c1.3,0,2.3,0.1,3,0.3c0.7,0.2,1.3,0.5,1.7,1c0.4,0.5,0.8,0.9,1.1,1.3c0.3,0.4,0.5,1.1,0.7,2.2c0.2,1.1,0.3,1.9,0.4,2.6
			c0.1,0.7,0.1,1.8,0.2,3.4c0.1,1.6,0.1,2.8,0.3,3.8c6.3-8.3,14.2-12.4,23.7-12.4c6.5,0,11.4,3,14.5,8.9c4.8,8.9,7.2,22.4,7.2,40.7
			l0.4,16.5c0,4.4-0.2,7.4-0.7,8.8c-0.5,1.5-1.1,2.7-1.8,3.8c-1.2,2.2-3.3,3.3-6.5,3.3C485.8,1122.9,484.4,1121.1,484.4,1117.3z"/>
		<path class="st2" d="M516.1,1008.7c1.5-1.4,2.8-2.2,3.9-2.4c1.1-0.2,1.7-0.3,1.9-0.3c5.4,0.9,8.5,2.7,9.3,5.3
			c0.5,1.3,0.7,3.1,0.7,5.5c0,2.4-1,4.9-3,7.5c-2,2.6-4.2,3.9-6.6,3.9c-2.4,0-4.5-1.1-6.2-3.4s-2.6-5.2-2.6-8.8
			C513.5,1012.4,514.4,1010,516.1,1008.7z M530.3,1053.5l-0.4,11.2l-0.4,39.3c0,5.5,0.1,9.5,0.2,11.9c-0.4,2.2-1.3,4.1-2.8,5.7
			c-1.5,1.6-3.3,2.4-5.3,2.4c-2,0-3.6-1.5-4.7-4.4c-0.1-3-0.3-7.3-0.6-12.9c-0.3-5.5-0.6-12.2-1-20c-0.4-7.8-0.5-15.5-0.5-23.1
			c0-7.7,0.2-14.5,0.5-20.4c0.2-2.1,1.6-3.2,4.2-3.2C526.8,1040,530.3,1044.5,530.3,1053.5z"/>
		<path class="st2" d="M592.2,1091.4l0.2-9.6c0-7.5-0.4-12.4-1.3-14.7c-0.9-2.3-1.8-4.4-2.7-6.3c-1.9-3.5-5.5-5.3-10.8-5.3
			c-5.3,0-8.9,1.6-10.9,4.9c-1.9,3.3-2.9,8.3-2.9,15.1l1.1,32.6c0,10-2.7,15.1-8.2,15.1c-3,0-4.8-1.7-5.4-5.1
			c0-23.7-1.4-44.7-4.2-63.1c0-2.3,0.8-4.4,2.5-6.3c1.7-1.9,3.6-2.8,5.8-2.8c2.2,0,3.8,1.2,4.8,3.7c4.3-5.7,10.1-8.6,17.3-8.6
			c9.1,0,16.2,4.4,21.4,13.3c5.7-8.4,13.6-12.6,23.5-12.6c4.7,0,8.9,1.1,12.6,3.2c3.7,2.2,6.7,4.9,8.8,8.3c5.7,9,8.6,23.9,8.6,44.7
			v7.5c0,7.2-0.7,11.9-2.1,13.8c-0.5,0.7-1.1,1.5-2,2.5c-0.9,0.9-2.5,1.4-5,1.4c-3,0-4.6-1.9-4.6-5.8l0.5-21.9
			c0-14.5-1.5-24.2-4.6-29.1c-1.9-2.9-4.3-5.4-7.4-7.4c-3-2-5.9-3-8.7-3c-2.7,0-4.9,0.5-6.4,1.5c-1.5,1-2.8,2.8-3.9,5.5
			c-1.9,4.7-2.8,14-2.8,28l0.4,25.4h-0.5c-0.6,1.9-1.7,3.4-3.4,4.7c-1.7,1.3-3.4,1.9-5.2,1.9c-2.8,0-4.3-1.7-4.4-5.1h-0.5
			L592.2,1091.4z"/>
		<path class="st2" d="M724,1057.2l-0.2,12.3c0,4.7-0.4,10.6-1.2,17.7c0.6,12.5,1.9,23.7,4,33.5c-0.4,1.3-1.3,2.3-2.8,3.1
			c-1.5,0.8-3.2,1.1-4.9,1.1s-3.2-0.2-4.2-0.7c-1.1-0.5-1.8-1.2-2.2-2.2c-0.4-1-0.7-1.8-0.9-2.5c-0.2-0.7-0.3-1.7-0.3-2.9
			c0-1.2-0.1-2-0.2-2.2c-5.5,5.7-12.6,8.6-21.5,8.6c-8.8,0-15.1-3.4-18.9-10.1c-3.8-6.7-5.7-16.1-5.7-28.1c0-21,6-34.5,18-40.3
			c3.7-1.8,8-2.6,12.8-2.6c4.8,0,9.5,0.8,14,2.5c1.5-2.1,3.6-3.2,6.3-3.2c4.9,0,7.4,3.7,7.5,11.2
			C723.9,1054.2,724,1055.8,724,1057.2z M706.6,1099.1c2.2-6.4,3.3-13.3,3.3-20.7c0-7.4-0.9-12.8-2.6-16.2c-1.8-3.4-4.8-5.2-9.3-5.2
			c-1.9,0-4.3,0.2-7.3,0.5c-3,0.4-5.8,3-8.3,7.9c-2.6,4.9-3.9,9.1-3.9,12.4v7c0,12.3,2.5,20.1,7.5,23.5c1.5,1.1,3.5,1.6,6,1.6
			c2.5,0,5.3-1.1,8.2-3.2C703.4,1104.6,705.5,1102,706.6,1099.1z"/>
		<path class="st2" d="M743.8,1079.4c-0.1-6-0.2-11.3-0.3-15.8c-0.1-4.5-0.1-8.1-0.3-10.9c-0.1-2.7-0.2-10.3-0.2-22.5
			s0.1-19.9,0.3-22.8c0.2-2.9,0.8-5.1,1.9-6.5c1.1-1.4,3.1-2.1,5.9-2.1c4.1,0,6.5,2,7.2,6.1c-1.1,10.9-1.6,31.6-1.6,62.2
			c0,23.4,2.5,37.1,7.5,41.2c1.4-0.4,2.8-1.5,4.2-3.4c1.4-1.9,2.8-3.8,4.2-5.5c1.4-1.8,3-2.6,4.7-2.6c1.8,0,3.2,0.8,4.4,2.5
			c1.2,1.7,1.8,4.3,1.8,7.9c0,3.6-2,7.2-5.9,11c-3.9,3.7-8.4,5.6-13.4,5.6c-9.9,0-16.2-8.5-18.8-25.6
			C744.5,1091.7,743.9,1085.4,743.8,1079.4z"/>
		<path class="st2" d="M813.5,1040.7c4.3,0,8.7,0.7,13.1,2.1c8.5,2.8,12.8,6.4,12.8,10.7c0,2-0.8,3.6-2.5,4.7
			c-1.7,1.2-3.7,1.8-5.9,1.8c-0.5,0-3.1-1.1-7.8-3.2c-4.7-2.2-8.5-3.2-11.4-3.2c-2.9,0-5.5,0.8-8,2.5c-2.5,1.7-3.7,3.9-3.7,6.5
			c0,2.6,0.7,4.9,2.2,6.7c1.5,1.9,3.4,3.2,5.7,4c2.3,0.8,4.9,1.5,7.7,2.1c7.6,1.5,12.9,3,15.9,4.4c5.3,2.5,7.9,7.3,7.9,14.6
			c0,7.3-2.8,13.7-8.3,19.3c-5.5,5.6-11.4,8.3-17.6,8.3c-6.2,0-11.3-0.7-15.4-2.1c-7.2-2.7-10.9-6.2-10.9-10.5
			c0-4.1,2.5-6.1,7.4-6.1c2.3,0,5.6,1,9.8,3.1c4.2,2,7.7,3.1,10.5,3.1s5.4-1.7,7.7-5.2c2.3-3.4,3.5-6.7,3.5-9.9
			c0-0.7-0.1-1.6-0.3-2.8c-3.2-3-9.3-5.3-18.6-6.8c-3.3-0.6-6.5-1.5-9.6-2.6c-6.9-2.5-10.3-8.7-10.3-18.8c0-7,2.5-12.5,7.5-16.6
			C800,1042.8,806.2,1040.7,813.5,1040.7z"/>
	</g>
</g>
<g>
	<path class="st4" d="M921.6,161.7c-20.9,3.8-44.5,64.8-44.5,64.8l5.7-0.1c0,0,0.1-0.2,0.3-0.5l0.9,0.4c0,0,34.6-20.7,45.2-35.4
		c1.6-2.2,2.6-5.1,3.1-8.2l0,0C934.3,172.7,931.4,160,921.6,161.7z"/>
	<path class="st5" d="M851.8,207.2v-29.6c0,0,45.6-14.2,69.6,56.9c24.4,72.2,18.2,147.9,10.9,211.6c-7.5,65.2-28.1,153.3-28.1,153.3
		l-34.8,3.2L851.8,207.2z"/>
	<g>
		<path class="st6" d="M765.8,675.4c0,0,2.2,8.7,0,27.3s-4.5,26.9-5.9,28.3c-1.4,1.4-8.3,4.2-7.5,12c0.8,7.7,4.5,8.9,4.5,8.9
			l-0.4,3.8c-0.6,5.6-2.3,16.5-5.9,27.8c-5.1,16.2-14.9,23.1-14.8,26c0,0.6,0.2,1.2,0.5,1.8c-2.2,1.9-5.6,5.2-8.1,9.2
			c-4,6.2-5.1,13.8-5.1,13.8s4.7,4.1,17.9,4.4c13.3,0.4,20.9-4.5,20.9-4.5s0.6-7-1.1-12.4c-0.3-1.1-0.7-2.1-1.1-3.2
			c3.8-0.2,6.1-0.7,6.1-0.7s15.4-48.2,14.3-58.5c-1.1-10.3-7.1-16.3-7.1-16.3s6.1-2.8,8.7-8.1c2.6-5.3,0-59.7,0-59.7h-15.9V675.4z"
			/>
		<path class="st6" d="M868.2,757.7c-2.1-10.1-8.2-15.5-8.2-15.5s5.2-3.4,6.9-8.9c1.7-5.6-6.4-57.8-6.4-57.8h-13
			c0,0,1.3,8.5,1.5,27.2c0.1,18.7-1.1,27.2-2.2,28.7c-1.1,1.5-7,5-5.4,12.6s5.1,8.4,5.1,8.4l0.1,3.8c0,5.6-0.2,16.6-2.1,28.2
			c-2.8,16.6-10.8,24.5-10.4,27.3c0,0,0,0,0,0.1c-2,1.9-4.8,5-6.9,8.7c-3.6,6.2-4.7,13.8-4.7,13.8s4.2,4.1,16.3,4.4
			c12.1,0.4,19.1-4.5,19.1-4.5s0.6-7-1-12.4c-0.3-1.1-0.7-2.2-1-3.3c3.7-0.5,6-1.4,6-1.4S870.3,767.8,868.2,757.7z"/>
	</g>
	<path class="st4" d="M839.6,209.4c0,0,0.5-12.5-0.6-19.3c-1.4-8.5-4.8-10.3-4.8-10.3l3.5-2.7c0,0,3.8,4.5,6.3,12
		c2.2,6.8,3.1,19.1,3.1,19.1s-1.4,2.3-3.9,2.5C840.9,211.1,839.6,209.4,839.6,209.4z"/>
	<path class="st4" d="M835.7,165.8c4.5,2.7,6.1,8.2,3.7,12.3c-2.5,4.1-8.1,5.3-12.5,2.6c-4.5-2.7-6.1-8.2-3.7-12.3
		S831.2,163.1,835.7,165.8z"/>
	<path class="st7" d="M811.7,231.1c0,7.7-6.3,14-14,14s-14-6.3-14-14s6.3-14,14-14S811.7,223.3,811.7,231.1z"/>
	<ellipse class="st8" cx="791" cy="234.8" rx="5" ry="5"/>
	<path class="st9" d="M893.4,590.3c0,0,23.9-4.5,31.7,11.5c7.9,16,6,78.4-40.4,99.5c-34.4,15.7-87.9,15.9-115.4-3.9
		c-21.2-15.2-36.7-42.7-28.2-90.5S784.2,528.3,803,458c18.8-70.3,27.5-115.2,15.2-131.6c-12.3-16.4-48.4-13.5-62.4-4.8
		c-16,10-25.6,34.8-41.6,41.3c-13.7,5.6-30.6-5-32-20.4S691,327,691,327s-10.6-10.1-9.4-15.2c1.2-5.1,5.3-3.4,6.2-4.7
		c0.8-1.4,7.3-40.8,26.8-42.7c18.2-1.8,17.5-0.1,21.3-0.1c4,0,6.6,0.8,12.5-1.4c5.8-2.1,16.7-5.1,30.4-13
		c13.7-7.8,56-48.3,77.6-46.6c21.7,1.7,45.2,40.4,58.2,129.8C927.5,422.7,893.4,590.3,893.4,590.3z"/>
	<path class="st8" d="M759.5,840c0,0-7.2,5.3-11.7,12.5s-5.9,15.9-5.9,15.9s5.3,4.7,20.6,5.1c15.2,0.5,24.1-5.2,24.1-5.2
		s0.7-8-1.2-14.3c-2.3-7.4-5.6-14.1-5.6-14.1L759.5,840L759.5,840z"/>
	
		<linearGradient id="SVGID_1_" gradientUnits="userSpaceOnUse" x1="783.5664" y1="409.4555" x2="783.5664" y2="574.3" gradientTransform="matrix(1 0 0 -1 0 1260)">
		<stop  offset="0" style="stop-color:#CCAC83"/>
		<stop  offset="1" style="stop-color:#F7AD1E"/>
	</linearGradient>
	<path class="st10" d="M791,685.7c0,0,2.5,10,0,31.4s-5.2,30.9-6.8,32.5s-9.6,4.9-8.6,13.8c0.9,8.9,5.2,10.2,5.2,10.2
		s-1.3,17.7-7.2,36.4s-17.2,26.6-17.1,29.9c0.1,3.3,4,7.9,15.1,9.8c11.1,1.9,19.4,0,19.4,0s17.7-55.4,16.5-67.2s-8.2-18.8-8.2-18.8
		s7.1-3.2,10-9.3c3-6.1,0-68.7,0-68.7L791,685.7L791,685.7z"/>
	<path class="st5" d="M780.3,778l0.4-4.4c0,0,1.6,0.6,3.4,0.6c0.8,0,1.5-0.1,2.2-0.2c2.5-0.6,6.2-2.7,6.3-2.7c0,0,0,3.5-5.2,5.8
		C784.7,778.2,780.4,778,780.3,778z"/>
	<path class="st8" d="M872.2,840c0,0-6.5,5.3-10.7,12.5c-4.1,7.2-5.4,15.9-5.4,15.9s4.9,4.7,18.7,5.1c13.9,0.5,21.9-5.2,21.9-5.2
		s0.6-8-1.1-14.3c-2.1-7.4-5.1-14.1-5.1-14.1L872.2,840L872.2,840z"/>
	
		<linearGradient id="SVGID_2_" gradientUnits="userSpaceOnUse" x1="889.3311" y1="409.1518" x2="889.3311" y2="574.3" gradientTransform="matrix(1 0 0 -1 0 1260)">
		<stop  offset="0" style="stop-color:#CCAC83"/>
		<stop  offset="1" style="stop-color:#F7AD1E"/>
	</linearGradient>
	<path class="st11" d="M885,685.7c0,0,1.5,9.8,1.7,31.3c0.1,21.5-1.2,31.3-2.5,33c-1.2,1.7-8,5.8-6.2,14.5s5.8,9.7,5.8,9.7
		s0.8,17.8-2.4,36.9c-3.2,19.1-12.4,28.2-11.9,31.4c0.5,3.3,4.4,7.4,14.6,8.2c10.2,0.8,17.4-1.9,17.4-1.9s9.7-56.8,7.3-68.5
		c-2.4-11.6-9.4-17.8-9.4-17.8s6-3.9,7.9-10.3c2-6.4-7.3-66.5-7.3-66.5L885,685.7L885,685.7z"/>
	<path class="st5" d="M883.8,778.6l-0.1-4.4c0,0,1.8,1,5.1,0.1c3.4-0.9,5.8-3.6,5.8-3.6s0,3.7-4,6.3
		C888.3,778.4,883.8,778.6,883.8,778.6z"/>
	<path class="st9" d="M920,599.9c0,0,8.7-15.2,22.5-8.4c11.2,5.5,8.1,65.8,4.1,92.1c-2.7,17.6-10.4,66.1-10.4,66.1l-4.8,0.6
		c0,0,6.9-50.8,8.9-67.8c4.2-36.9,5.8-80.8,0-86.2s-15.5,9.3-15.5,9.3L920,599.9z"/>
	<path class="st5" d="M921.8,756.4c1.5-3.5,8.8-13.4,15.9-6.1c7.1,7.3-2.3,26.8-0.9,36.3c2.8,19.3,12.7,21.8,12.7,21.8
		s-4.7,2.5-8.3-0.3c-2.3-1.8-6.1-8-6.1-8s2.1,7.5,1.4,11.4c-1.1,6.1-5.2,15.3-5.2,15.3s0.7-10.1-0.1-17.6
		c-0.5-4.7-3.4-10.5-3.4-10.5s-1.8,3-3.7,8.2c-1.2,3.4-1.3,11.6-1.3,11.6s-4.4-7.9-2-16.3c2.5-8.4,3.3-9.7,3.2-14.1
		c-0.2-6.2-0.8-9.8-0.8-9.8s-2.2,1.9-3.3,6.1c-0.8,3-1.4,11.7-1.4,11.7s-2.6-6.5-2.6-14.6C916,773.9,918.7,763.7,921.8,756.4z"/>
	<path class="st12" d="M813.5,601.7c2.7-4.7,35-17.1,40-17.3s28.4,34.4,28.9,38.7S859,649,855.6,649.7c-3.4,0.7-31.6-4.8-33.2-7.5
		S811.7,604.9,813.5,601.7z"/>
	<path class="st12" d="M790.8,560.3c-2.1-2.5-3.8-38.2-2.3-41.9c1.4-3.6,36-25.5,39.2-25s31.4,32.1,31.4,35.7
		c0,3.6-21.4,35.9-23,36.6C834.5,566.4,794.2,564.4,790.8,560.3z"/>
	<path class="st12" d="M877,326c-1.4,3,10,34.9,13.4,37.3c2.7,1.8,18.6-0.3,26.6-1.5c-0.4-10.1-1.3-19.7-2.5-28.5
		c-2.1-14.3-4.4-27.3-7-39.1C900.9,300.3,879.8,320,877,326z"/>
	<path class="st12" d="M881.6,435.2c-5.2,2.3-24.3,33.9-23.9,38.2c0.5,4.3,21.4,28.7,28.2,29.3c4.3,0.4,15.4-3.9,22.9-7.2
		c1.5-11.4,2.9-23.3,4.1-35.5C905.2,452.3,885.7,433.4,881.6,435.2z"/>
	<path class="st12" d="M898.8,631.7c-4.8,2.3-10.7,25.7-9.6,29.1c1.2,3.4,23.9,15.7,24.1,15.8c8.2-12.3,12.6-26.5,14.3-39.4
		C919.3,634.8,902.4,630,898.8,631.7z"/>
	<path class="st12" d="M880.6,670c-1.4-1.8-35-8.2-38.4-7.1c-3.4,1.1-18.2,23.9-18.4,27.8c-0.2,2.7,7.8,14.6,12.7,21.8
		c13.5-0.8,26.9-3.3,38.8-7.4C877.6,693.1,881.6,671.3,880.6,670z"/>
	<path class="st12" d="M788.3,641.8c-1.1-2-25.9-20.9-28-20.9c-1.2,0-12.5,10-21.3,18c1.2,20.4,8,35.5,17.5,46.7
		c10.8-1.9,24.9-4.6,25.9-5.4C784,678.8,789.4,643.8,788.3,641.8z"/>
	<path class="st12" d="M834.2,451.1c2.5-0.7,31.8-32.3,31.8-35s-21.4-40-24.6-40.9c-1.6-0.5-11.7,4.6-21.2,9.6
		c-2.5,14.2-6.3,30.6-10.9,49.1C817,439.8,832.4,451.6,834.2,451.1z"/>
	<path class="st12" d="M780.6,586.7c0.5-1.9-10.4-23.7-17.1-36.9c-10.1,18.9-18.7,36.5-22.4,57.2c-0.7,4.1-1.2,8-1.6,11.7
		C749.3,611.6,780,589,780.6,586.7z"/>
	<path class="st12" d="M839.5,356.5c2.7-1.4,10.7-32.3,10.5-34.1c-0.2-1.8-22.8-16.8-26.2-15.7c-2.2,0.7-9.1,7.8-13.9,12.9
		c3.4,1.8,6.3,4,8.5,6.9c4.5,5.9,6.1,15.7,5.6,29C830.8,356.4,838.1,357.2,839.5,356.5z"/>
	<path class="st5" d="M707.6,333.9c-10.7,0-17.2-5.5-17.5-5.8c-0.6-0.5-0.6-1.4-0.1-1.9c0.5-0.6,1.4-0.6,1.9-0.1
		c0.1,0.1,6.5,5.5,16.7,5.1c3.7-0.1,7.2-1.5,10.9-2.9c2.3-0.9,4.7-1.8,7.2-2.4c7.3-1.8,15.9-2.9,16-2.9c0.8-0.1,1.4,0.4,1.5,1.2
		c0.1,0.7-0.4,1.4-1.2,1.5c-0.1,0-8.6,1-15.6,2.8c-2.3,0.6-4.6,1.4-6.9,2.3c-3.8,1.4-7.7,2.9-11.8,3
		C708.4,333.9,708,333.9,707.6,333.9L707.6,333.9z"/>
	<path class="st2" d="M852.1,233.4c0,11.7-9.5,21.2-21.2,21.2s-21.2-9.5-21.2-21.2s9.5-21.2,21.2-21.2S852.1,221.7,852.1,233.4z"/>
	<circle class="st8" cx="819.2" cy="237.5" r="7.5"/>
	<path class="st12" d="M832.4,263.3c-0.3,1-2,1.3-3.9,0.9c-1.9-0.5-3.2-1.7-3-2.6c0.3-1,2-1.3,3.9-0.9
		C831.3,261.1,832.7,262.3,832.4,263.3z"/>
	
		<ellipse transform="matrix(0.9596 -0.2813 0.2813 0.9596 -38.86 248.3728)" class="st12" cx="845.7" cy="259.5" rx="3.6" ry="2.2"/>
	<path class="st12" d="M867.7,255.9c0.4,1.2-1,2.7-3.1,3.4c-2.1,0.7-4.1,0.2-4.5-1s1-2.7,3.1-3.4S867.3,254.7,867.7,255.9z"/>
	<path class="st12" d="M865.9,266c0,0.9-0.7,1.7-1.5,1.7s-1.5-0.7-1.5-1.7c0-0.9,0.7-1.6,1.5-1.6C865.2,264.3,865.9,265.1,865.9,266
		z"/>
	<path class="st12" d="M848.7,270.7c0.2,1.3-2,2.7-5,3.3c-3,0.5-5.6-0.1-5.8-1.3c-0.2-1.3,2-2.7,5-3.3
		C845.9,268.8,848.5,269.4,848.7,270.7z"/>
	<ellipse class="st12" cx="851.5" cy="279.5" rx="1.5" ry="1.2"/>
	<path class="st12" d="M829.9,274.9c0,0.5-0.6,0.9-1.5,0.9c-0.8,0-1.5-0.4-1.5-0.9s0.7-0.9,1.5-0.9S829.9,274.4,829.9,274.9z"/>
	<path class="st12" d="M819.1,269.3c-0.4,1.7-3.1,2.4-6,1.7c-2.9-0.7-4.8-2.7-4.4-4.4c0.4-1.7,3.1-2.4,6-1.7
		C817.6,265.7,819.6,267.6,819.1,269.3z"/>
	<path class="st12" d="M811.3,254.8c0,1.4-1.4,2.6-3.1,2.6c-1.7,0-3.1-1.1-3.1-2.6c0-1.4,1.4-2.6,3.1-2.6
		C809.9,252.3,811.3,253.4,811.3,254.8z"/>
	<ellipse class="st12" cx="861.4" cy="244.2" rx="2" ry="2.4"/>
	
		<linearGradient id="SVGID_3_" gradientUnits="userSpaceOnUse" x1="879.5" y1="1046.6393" x2="969.0081" y2="1046.6393" gradientTransform="matrix(1 0 0 -1 0 1260)">
		<stop  offset="0" style="stop-color:#42210B"/>
		<stop  offset="1" style="stop-color:#F7AD1E"/>
	</linearGradient>
	<path class="st13" d="M879.5,231.1c0,0,59.3-53.5,82.9-39.6c14.5,8.5,2.4,35.2-10.1,40.5c-21.1,9-70.4,4.3-70.4,4.3L879.5,231.1z"
		/>
	<path class="st9" d="M948.5,206.3c9.5,2.2,12.1,12.3,12.8,18.2c9-10.9,15.1-29.5,4.1-36c-23.6-13.8-90.6,41.7-90.6,41.7l5.8,4.9
		l0,0C880.7,235.3,935,203.2,948.5,206.3z"/>
	
		<linearGradient id="SVGID_4_" gradientUnits="userSpaceOnUse" x1="881.3336" y1="1039.8" x2="881.3336" y2="1068.6" gradientTransform="matrix(1 0 0 -1 0 1260)">
		<stop  offset="0" style="stop-color:#CCAC83"/>
		<stop  offset="1" style="stop-color:#EBB299"/>
	</linearGradient>
	<path class="st14" d="M865.2,213.5c0,0,13.4-6.7,19.8-11.6c8.1-6.3,7.8-10.5,7.8-10.5l5,1.9c0,0-2.3,6.2-8.7,12.9
		c-5.7,6-18.1,14-18.1,14s-3.3,0-5.1-2.3C864.1,215.6,865.2,213.5,865.2,213.5z"/>
	
		<linearGradient id="SVGID_5_" gradientUnits="userSpaceOnUse" x1="897.7" y1="1064.7" x2="897.7" y2="1085.859" gradientTransform="matrix(1 0 0 -1 0 1260)">
		<stop  offset="0" style="stop-color:#CCAC83"/>
		<stop  offset="1" style="stop-color:#EBB299"/>
	</linearGradient>
	<path class="st15" d="M908.3,184.7c0,5.8-4.7,10.6-10.6,10.6c-5.8,0-10.6-4.7-10.6-10.6c0-5.8,4.7-10.6,10.6-10.6
		C903.6,174.1,908.3,178.9,908.3,184.7z"/>
	<path class="st12" d="M895.3,697.1c0,1.5-1.3,2.7-3,2.7s-3-1.2-3-2.7s1.3-2.7,3-2.7C893.9,694.4,895.3,695.6,895.3,697.1z"/>
	<ellipse class="st12" cx="796.4" cy="705.6" rx="3" ry="2.7"/>
	<path class="st12" d="M892.5,722.6c0,1.2-1.1,2.1-2.4,2.1c-1.3,0-2.4-1-2.4-2.1c0-1.2,1.1-2.1,2.4-2.1
		C891.5,720.4,892.5,721.4,892.5,722.6z"/>
	<path class="st12" d="M798.2,731.7c0,1.2-1.1,2.2-2.4,2.2s-2.4-1-2.4-2.2s1.1-2.1,2.4-2.1S798.2,730.5,798.2,731.7z"/>
	<ellipse class="st12" cx="793.4" cy="720.4" rx="2.4" ry="2.1"/>
	<path class="st12" d="M900.8,700.3c0,0.8-0.5,1.4-1.1,1.4s-1.1-0.6-1.1-1.4c0-0.8,0.5-1.4,1.1-1.4
		C900.3,698.9,900.8,699.5,900.8,700.3z"/>
	<path class="st12" d="M806.2,726.8c0,0.8-0.5,1.4-1.1,1.4s-1.1-0.6-1.1-1.4c0-0.8,0.5-1.4,1.1-1.4
		C805.7,725.4,806.2,726.1,806.2,726.8z"/>
	<ellipse class="st12" cx="892" cy="704.5" rx="1.7" ry="2"/>
	<ellipse class="st12" cx="805.1" cy="714.4" rx="1.7" ry="2"/>
	<path class="st12" d="M901,707.6c0,1.5-1,2.7-2.2,2.7s-2.2-1.2-2.2-2.7s1-2.7,2.2-2.7C900.1,704.9,901,706.1,901,707.6z"/>
	<path class="st12" d="M902.2,712.7c0,0.8-0.5,1.5-1.2,1.5c-0.6,0-1.2-0.7-1.2-1.5s0.5-1.5,1.2-1.5S902.2,711.8,902.2,712.7z"/>
	<path class="st12" d="M894.9,716.8c0,1.3-0.7,2.4-1.5,2.4s-1.5-1.1-1.5-2.4c0-1.3,0.7-2.4,1.5-2.4
		C894.3,714.4,894.9,715.5,894.9,716.8z"/>
	<path class="st12" d="M899.2,714.4c0,1.4-0.7,2.5-1.6,2.5c-0.9,0-1.6-1.1-1.6-2.5s0.7-2.5,1.6-2.5S899.2,713,899.2,714.4z"/>
	<ellipse class="st12" cx="890.2" cy="711" rx="2.3" ry="2.2"/>
	<path class="st12" d="M799.7,714.4c0,1.2-1,2.2-2.3,2.2s-2.3-1-2.3-2.2s1-2.2,2.3-2.2S799.7,713.2,799.7,714.4z"/>
	<ellipse class="st12" cx="899.1" cy="695.2" rx="1.5" ry="0.8"/>
	<path class="st12" d="M892.2,687.5c0,1.8-2,3.3-4.4,3.3s-4.4-1.5-4.4-3.3s2-3.3,4.4-3.3C890.3,684.2,892.2,685.6,892.2,687.5z"/>
	<path class="st12" d="M803.9,692.6c0,1.8-2,3.3-4.4,3.3s-4.4-1.5-4.4-3.3s2-3.3,4.4-3.3S803.9,690.8,803.9,692.6z"/>
	<ellipse class="st12" cx="896.7" cy="687.5" rx="3" ry="3.1"/>
	<ellipse class="st12" cx="805.1" cy="702.5" rx="3" ry="3.1"/>
	<path class="st12" d="M900.1,720.4c0,0.9-0.4,1.6-0.9,1.6s-0.9-0.7-0.9-1.6c0-0.9,0.4-1.6,0.9-1.6
		C899.7,718.8,900.1,719.5,900.1,720.4z"/>
	<ellipse class="st12" cx="804" cy="722" rx="0.9" ry="1.6"/>
	<g>
		<path class="st9" d="M737,293.2c-1.1,14.8-11.2,26.2-22.7,25.3c-11.5-0.8-19.9-13.5-18.8-28.3c1.1-14.8,11.2-26.2,22.7-25.3
			C729.6,265.7,738,278.3,737,293.2z"/>
		<path class="st9" d="M736.8,292.8c-1.1,14.6-11.1,25.8-22.5,25c-11.3-0.8-19.7-13.3-18.6-27.9c1.1-14.6,11.1-25.8,22.5-25
			C729.5,265.6,737.8,278.2,736.8,292.8z"/>
		<path class="st16" d="M736.6,292.4c-1,14.4-11,25.4-22.2,24.6s-19.5-13.1-18.5-27.5s11-25.4,22.2-24.6
			C729.4,265.6,737.7,278,736.6,292.4z"/>
		<path class="st16" d="M736.4,292c-1,14.2-10.9,25-22,24.2s-19.3-13-18.3-27.1c1-14.2,10.9-25,22-24.2
			C729.3,265.6,737.5,277.8,736.4,292z"/>
		<path class="st16" d="M736.3,291.6c-1,14-10.8,24.7-21.8,23.9c-11-0.8-19.1-12.8-18.1-26.7c1-14,10.7-24.7,21.8-23.9
			C729.2,265.6,737.3,277.6,736.3,291.6z"/>
		<path class="st16" d="M736.1,291.2c-1,13.8-10.6,24.3-21.5,23.5s-18.9-12.6-17.9-26.3c1-13.8,10.6-24.3,21.5-23.5
			C729,265.6,737.1,277.4,736.1,291.2z"/>
		<path class="st17" d="M735.9,290.8c-1,13.5-10.5,23.9-21.3,23.1s-18.7-12.4-17.8-25.9c1-13.6,10.5-23.9,21.3-23.1
			C728.9,265.6,736.9,277.2,735.9,290.8z"/>
		<path class="st18" d="M735.7,290.4c-1,13.3-10.4,23.5-21.1,22.8c-10.7-0.8-18.5-12.2-17.6-25.5c1-13.3,10.4-23.5,21.1-22.8
			S736.7,277,735.7,290.4z"/>
		<path class="st18" d="M735.5,290c-0.9,13.1-10.3,23.1-20.8,22.4c-10.6-0.8-18.3-12-17.4-25.1c0.9-13.1,10.3-23.2,20.8-22.4
			C728.7,265.6,736.5,276.8,735.5,290z"/>
		<path class="st18" d="M735.4,289.6c-0.9,12.9-10.2,22.8-20.6,22c-10.4-0.8-18.1-11.8-17.2-24.8c0.9-12.9,10.2-22.8,20.6-22
			S736.3,276.7,735.4,289.6z"/>
		<path class="st19" d="M735.2,289.2c-0.9,12.7-10,22.4-20.4,21.6c-10.3-0.7-18-11.7-17-24.4c0.9-12.7,10-22.4,20.4-21.6
			C728.5,265.6,736.1,276.5,735.2,289.2z"/>
		<path class="st19" d="M735,288.8c-0.9,12.5-9.9,22-20.1,21.3c-10.2-0.7-17.8-11.5-16.9-24c0.9-12.5,9.9-22,20.1-21.3
			C728.4,265.6,735.9,276.3,735,288.8z"/>
		<path class="st19" d="M734.8,288.4c-0.9,12.3-9.8,21.6-19.9,20.9c-10.1-0.7-17.6-11.3-16.7-23.6c0.9-12.3,9.8-21.6,19.9-20.9
			C728.3,265.6,735.7,276.1,734.8,288.4z"/>
		<path class="st20" d="M734.7,288c-0.9,12.1-9.7,21.3-19.7,20.5c-10-0.7-17.4-11.1-16.5-23.2s9.7-21.3,19.7-20.5
			C728.1,265.5,735.5,275.9,734.7,288z"/>
		<path class="st20" d="M734.5,287.6c-0.9,11.9-9.6,20.9-19.4,20.2c-9.9-0.7-17.2-10.9-16.3-22.8s9.6-20.9,19.4-20.2
			C728,265.5,735.3,275.7,734.5,287.6z"/>
		<path class="st20" d="M734.3,287.2c-0.8,11.6-9.4,20.5-19.2,19.8s-17-10.7-16.2-22.4c0.8-11.6,9.4-20.5,19.2-19.8
			C727.9,265.5,735.1,275.5,734.3,287.2z"/>
		<path class="st20" d="M734.1,286.8c-0.8,11.4-9.3,20.1-19,19.4c-9.6-0.7-16.8-10.5-16-22c0.8-11.4,9.3-20.1,19-19.4
			S734.9,275.4,734.1,286.8z"/>
		<path class="st21" d="M733.9,286.4c-0.8,11.2-9.2,19.8-18.7,19.1c-9.5-0.7-16.6-10.3-15.8-21.6c0.8-11.2,9.2-19.8,18.7-19.1
			C727.7,265.5,734.8,275.2,733.9,286.4z"/>
		<path class="st21" d="M733.8,286c-0.8,11-9.1,19.4-18.5,18.7c-9.4-0.7-16.4-10.2-15.6-21.2c0.8-11,9.1-19.4,18.5-18.7
			C727.6,265.5,734.6,275,733.8,286z"/>
		<path class="st21" d="M733.6,285.6c-0.8,10.8-9,19-18.3,18.3s-16.2-10-15.4-20.8s9-19,18.3-18.3
			C727.5,265.5,734.4,274.8,733.6,285.6z"/>
		<path class="st22" d="M733.4,285.2c-0.8,10.6-8.8,18.6-18,18c-9.2-0.7-16-9.8-15.3-20.4c0.8-10.6,8.8-18.6,18-18
			C727.3,265.5,734.2,274.6,733.4,285.2z"/>
		<path class="st23" d="M733.2,284.8c-0.7,10.4-8.7,18.2-17.8,17.6c-9.1-0.7-15.8-9.6-15.1-20s8.7-18.3,17.8-17.6
			C727.2,265.5,734,274.4,733.2,284.8z"/>
		<path class="st23" d="M733.1,284.4c-0.7,10.2-8.6,17.9-17.6,17.2c-9-0.6-15.6-9.4-14.9-19.6c0.7-10.2,8.6-17.9,17.6-17.2
			C727.1,265.5,733.8,274.2,733.1,284.4z"/>
		<path class="st23" d="M732.9,284c-0.7,9.9-8.5,17.5-17.3,16.9s-15.4-9.2-14.7-19.2s8.5-17.5,17.3-16.9
			C727,265.5,733.6,274,732.9,284z"/>
		<path class="st24" d="M732.7,283.6c-0.7,9.7-8.4,17.1-17.1,16.5c-8.7-0.6-15.2-9-14.5-18.8c0.7-9.7,8.4-17.1,17.1-16.5
			C726.9,265.5,733.4,273.9,732.7,283.6z"/>
		<path class="st24" d="M732.5,283.2c-0.7,9.5-8.2,16.7-16.9,16.1c-8.6-0.6-15.1-8.9-14.4-18.4c0.7-9.5,8.2-16.7,16.9-16.1
			C726.8,265.4,733.2,273.7,732.5,283.2z"/>
		<path class="st25" d="M732.3,282.8c-0.7,9.3-8.1,16.4-16.6,15.8s-14.9-8.7-14.2-18s8.1-16.4,16.6-15.8
			C726.7,265.4,733,273.5,732.3,282.8z"/>
		<path class="st25" d="M732.2,282.4c-0.7,9.1-8,16-16.4,15.4s-14.7-8.5-14-17.6s8-16,16.4-15.4
			C726.5,265.4,732.8,273.3,732.2,282.4z"/>
		<path class="st26" d="M732,282c-0.6,8.9-7.9,15.6-16.2,15s-14.5-8.3-13.8-17.2c0.6-8.9,7.9-15.6,16.2-15
			C726.4,265.4,732.6,273.1,732,282z"/>
		<path class="st26" d="M731.8,281.6c-0.6,8.7-7.8,15.2-15.9,14.6c-8.2-0.6-14.3-8.1-13.7-16.8c0.6-8.7,7.8-15.2,15.9-14.6
			C726.3,265.4,732.4,272.9,731.8,281.6z"/>
		<path class="st26" d="M731.6,281.2c-0.6,8.5-7.6,14.9-15.7,14.3c-8.1-0.6-14.1-7.9-13.5-16.4s7.6-14.9,15.7-14.3
			C726.2,265.4,732.2,272.7,731.6,281.2z"/>
		<path class="st27" d="M731.5,280.8c-0.6,8.3-7.5,14.5-15.5,13.9c-7.9-0.6-13.9-7.7-13.3-16c0.6-8.3,7.5-14.5,15.5-13.9
			C726.1,265.4,732,272.6,731.5,280.8z"/>
		<path class="st28" d="M731.3,280.4c-0.6,8-7.4,14.1-15.2,13.5s-13.7-7.5-13.1-15.6c0.6-8,7.4-14.1,15.2-13.5
			S731.9,272.4,731.3,280.4z"/>
		<path class="st28" d="M731.1,280c-0.6,7.8-7.3,13.7-15,13.2c-7.7-0.6-13.5-7.4-12.9-15.2c0.6-7.8,7.3-13.7,15-13.2
			C725.9,265.4,731.7,272.2,731.1,280z"/>
		<path class="st28" d="M730.9,279.6c-0.5,7.6-7.2,13.3-14.8,12.8c-7.6-0.6-13.3-7.2-12.8-14.8c0.5-7.6,7.2-13.4,14.8-12.8
			C725.8,265.4,731.5,272,730.9,279.6z"/>
		<path class="st29" d="M730.7,279.2c-0.5,7.4-7,13-14.5,12.4c-7.5-0.5-13.1-7-12.6-14.4s7-13,14.5-12.4
			C725.6,265.4,731.3,271.8,730.7,279.2z"/>
		<path class="st29" d="M730.6,278.8c-0.5,7.2-6.9,12.6-14.3,12.1c-7.4-0.5-12.9-6.8-12.4-14s6.9-12.6,14.3-12.1
			C725.5,265.4,731.1,271.6,730.6,278.8z"/>
		<path class="st29" d="M730.4,278.4c-0.5,7-6.8,12.2-14.1,11.7s-12.7-6.6-12.2-13.6s6.8-12.2,14.1-11.7
			C725.4,265.4,730.9,271.4,730.4,278.4z"/>
		<path class="st29" d="M730.2,278c-0.5,6.8-6.7,11.8-13.8,11.3s-12.5-6.4-12.1-13.2c0.5-6.8,6.7-11.8,13.8-11.3
			C725.3,265.3,730.7,271.2,730.2,278z"/>
		<path class="st30" d="M730,277.6c-0.5,6.6-6.6,11.5-13.6,11s-12.4-6.2-11.9-12.8c0.5-6.6,6.6-11.5,13.6-11
			C725.2,265.3,730.5,271.1,730,277.6z"/>
		<path class="st30" d="M729.8,277.2c-0.5,6.3-6.4,11.1-13.4,10.6c-6.9-0.5-12.2-6.1-11.7-12.4s6.4-11.1,13.4-10.6
			C725.1,265.3,730.3,270.9,729.8,277.2z"/>
		<path class="st30" d="M729.7,276.8c-0.4,6.1-6.3,10.7-13.1,10.2s-12-5.9-11.5-12c0.4-6.1,6.3-10.7,13.1-10.2
			S730.1,270.7,729.7,276.8z"/>
		<path class="st31" d="M729.5,276.4c-0.4,5.9-6.2,10.3-12.9,9.9c-6.7-0.5-11.8-5.7-11.3-11.6c0.4-5.9,6.2-10.3,12.9-9.9
			C724.8,265.3,729.9,270.5,729.5,276.4z"/>
		<path class="st31" d="M729.3,276c-0.4,5.7-6.1,10-12.7,9.5c-6.6-0.5-11.6-5.5-11.2-11.2c0.4-5.7,6.1-10,12.7-9.5
			S729.7,270.3,729.3,276z"/>
		<path class="st31" d="M729.1,275.6c-0.4,5.5-6,9.6-12.4,9.1c-6.5-0.5-11.4-5.3-11-10.8s6-9.6,12.4-9.1
			C724.6,265.3,729.5,270.1,729.1,275.6z"/>
		<path class="st32" d="M729,275.2c-0.4,5.3-5.8,9.2-12.2,8.7s-11.2-5.1-10.8-10.4s5.8-9.2,12.2-8.7
			C724.5,265.3,729.3,269.9,729,275.2z"/>
		<path class="st33" d="M728.8,274.8c-0.4,5.1-5.7,8.8-12,8.4c-6.2-0.5-11-4.9-10.6-10s5.7-8.8,12-8.4
			C724.4,265.3,729.1,269.8,728.8,274.8z"/>
		<path class="st33" d="M728.6,274.4c-0.3,4.9-5.6,8.4-11.7,8c-6.1-0.4-10.8-4.7-10.5-9.6s5.6-8.5,11.7-8
			C724.3,265.3,729,269.6,728.6,274.4z"/>
		<path class="st33" d="M728.4,274c-0.3,4.7-5.5,8.1-11.5,7.6c-6-0.4-10.6-4.6-10.3-9.2c0.3-4.7,5.5-8.1,11.5-7.6
			C724.2,265.3,728.8,269.4,728.4,274z"/>
		<path class="st33" d="M728.2,273.6c-0.3,4.4-5.4,7.7-11.3,7.3c-5.9-0.4-10.4-4.4-10.1-8.8c0.3-4.4,5.4-7.7,11.3-7.3
			C724,265.3,728.6,269.2,728.2,273.6z"/>
		<path class="st34" d="M728.1,273.2c-0.3,4.2-5.2,7.3-11,6.9s-10.2-4.2-9.9-8.4c0.3-4.2,5.2-7.3,11-6.9
			C723.9,265.2,728.4,269,728.1,273.2z"/>
		<path class="st34" d="M727.9,272.8c-0.3,4-5.1,6.9-10.8,6.5s-10-4-9.7-8s5.1-6.9,10.8-6.5C723.8,265.2,728.2,268.8,727.9,272.8z"
			/>
	</g>
	
		<linearGradient id="SVGID_6_" gradientUnits="userSpaceOnUse" x1="709.2522" y1="960.8" x2="721.6667" y2="960.8" gradientTransform="matrix(1 0 0 -1 0 1260)">
		<stop  offset="0" style="stop-color:#BE8715"/>
		<stop  offset="0.3603" style="stop-color:#A36B0E"/>
		<stop  offset="1" style="stop-color:#6A3100"/>
	</linearGradient>
	<path class="st35" d="M721.6,299.9c-0.4,4-3.6,6.9-7,6.5s-5.8-3.9-5.4-7.9c0.4-4,3.5-6.9,6.9-6.5
		C719.7,292.3,722,295.9,721.6,299.9z"/>
	
		<linearGradient id="SVGID_7_" gradientUnits="userSpaceOnUse" x1="695.34" y1="965.3" x2="705.4196" y2="965.3" gradientTransform="matrix(1 0 0 -1 0 1260)">
		<stop  offset="0" style="stop-color:#BE8715"/>
		<stop  offset="0.3603" style="stop-color:#A36B0E"/>
		<stop  offset="1" style="stop-color:#6A3100"/>
	</linearGradient>
	<path class="st36" d="M705.4,295.3c-0.4,3.6-3,6.2-5.7,5.9c-2.8-0.3-4.6-3.5-4.2-7.1c0.4-3.6,3-6.2,5.7-5.9
		S705.8,291.7,705.4,295.3z"/>
</g>
<g>
	<path class="st37" d="M327.8,841.8l-44.3,18.5c0,0,15.6-3.4,19,0c3.3,3.4-2.2,10.9-2.2,10.9s10.5-5.1,17-2.3s8.1,13.3,8.1,13.3
		l19.5-30L327.8,841.8z"/>
	<path class="st37" d="M432.4,855.8l30,29.4c0,0-1.2-9.2,5.3-12.7c6.6-3.5,17,1.5,17,1.5s-5.6-9.8-2.7-15.3c2.6-5,12.6-5.8,12.6-5.8
		L457,842.7L432.4,855.8z"/>
	
		<radialGradient id="SVGID_8_" cx="546.7322" cy="411.2421" r="65.2146" gradientTransform="matrix(1.8997 0 0 -1.8997 -648.9973 1509.7866)" gradientUnits="userSpaceOnUse">
		<stop  offset="0" style="stop-color:#4D4D4D"/>
		<stop  offset="0.253" style="stop-color:#4A4A4A"/>
		<stop  offset="0.4712" style="stop-color:#3F3F3F"/>
		<stop  offset="0.6765" style="stop-color:#2D2D2D"/>
		<stop  offset="0.8728" style="stop-color:#141414"/>
		<stop  offset="1" style="stop-color:#000000"/>
	</radialGradient>
	<path class="st38" d="M490.3,709.5c-20.5-82.6-63.4-117.6-100.7-117.6s-80.2,35-100.7,117.6c-17.1,69.3-8.3,100.3,15.2,124.8
		c20.1,20.9,56.6,30.9,85.4,30.9c28.9,0,65.3-10,85.4-30.9C498.7,809.8,507.5,778.7,490.3,709.5z"/>
	<path class="st2" d="M389.7,671.9c-47.5,1-101,39-101,104.8c0,52.5,53.1,81.7,101,81.7s101-29.2,101-81.7
		C490.6,711,437.1,672.9,389.7,671.9z"/>
	<path d="M534.6,725c0,0-10.9,1.9-20-0.7c-8.6-2.5-23.6-12.2-23.6-12.2s4.1,30.9,24.3,34.2C533.3,749.1,534.6,725,534.6,725z"/>
	<path d="M244.7,725c0,0,10.9,1.9,20-0.7c8.6-2.5,23.6-12.2,23.6-12.2s-4.1,30.9-24.3,34.2C246,749.1,244.7,725,244.7,725z"/>
	<path class="st37" d="M389.7,640.6c-10.3,0-23.3,7.2-24.1,12.3c-0.8,5.1,24.1,19,24.1,19s24.9-13.9,24.1-19
		C412.9,647.9,400,640.6,389.7,640.6z"/>
	<path class="st2" d="M421.3,623.3c1.3,8.3-4.4,16.2-12.7,17.5c-8.3,1.3-16.2-4.4-17.5-12.7s4.4-16.2,12.7-17.5
		C412.1,609.2,420,614.9,421.3,623.3z"/>
	<path d="M412,624.8c0.5,3.2-1.7,6.2-4.9,6.7c-3.2,0.5-6.2-1.7-6.7-4.9s1.7-6.2,4.9-6.7C408.5,619.3,411.5,621.5,412,624.8z"/>
	<path class="st2" d="M356.8,623.3c-1.3,8.3,4.4,16.2,12.7,17.5c8.3,1.3,16.2-4.4,17.5-12.7s-4.4-16.2-12.7-17.5
		C366,609.2,358.1,614.9,356.8,623.3z"/>
	<ellipse transform="matrix(0.1562 -0.9877 0.9877 0.1562 -304.1864 895.3265)" cx="371.9" cy="625.7" rx="5.9" ry="5.9"/>
</g>
<g>
	<path class="st39" d="M302.1,465.3c-8.4,12.8-59.5,78.8-48.3,85.2C303.6,578.4,344,497.3,302.1,465.3z"/>
	<path class="st39" d="M660.8,269.8c2-5.1,2.9-11,2.1-17.8c-4-36.7-28.2-62.8-65.4-67.1c-40.9-4.8-63.9,22.6-81.5,54l19.2,52.1
		c2.6,7.2,48.3,9.1,54.5,9.2c68.3,1-6.5-11.8,6.1-15.6C610.9,280.2,655.6,283.1,660.8,269.8z"/>
	<path class="st39" d="M379.6,119.9c0,0,39.6-24.5,76.3,10.7c0,0,30.1,34.4,3.1,83.3C459,213.9,390.1,157.9,379.6,119.9z"/>
	<path class="st39" d="M200.8,341.4c0,0,22.1-71.7,82.2-18C283,323.4,242.1,342.4,200.8,341.4z"/>
	<path class="st39" d="M226,448.9c-0.4-3.6-38.8-20.8-45.1-27.8C164.4,469,227.8,465.6,226,448.9z"/>
	<path class="st39" d="M467.2,397c-11.1,18.9-64.1,114.3-50.9,124.2C509.9,591,516.2,382.9,467.2,397z"/>
	<path class="st40" d="M490,213.3c0,0-94.8-43.5-187.6,65.9c0,0-87.7,116.5-81.6,179.6c0,0,2.6,48.2,164.5-2.8
		c0,0,82.2-28.3,123.1-97.1C508.4,358.9,576.2,265.7,490,213.3z"/>
	<g>
		<g>
			<path class="st2" d="M610.6,208.9c12.7,18.1,8.3,43-9.8,55.6c-18.1,12.7-43,8.3-55.6-9.8c-12.7-18.1-8.3-43,9.8-55.6
				C573.1,186.5,598,190.9,610.6,208.9z"/>
			<path class="st41" d="M607.1,219.1c7.9,11.2,5.2,26.7-6.1,34.6c-11.2,7.9-26.7,5.1-34.6-6.1c-7.9-11.2-5.2-26.7,6.1-34.6
				C583.7,205.2,599.2,207.9,607.1,219.1z"/>
		</g>
	</g>
	
		<ellipse transform="matrix(0.7693 -0.6389 0.6389 0.7693 -107.0819 288.0324)" class="st42" cx="345.3" cy="292.3" rx="83.9" ry="32.4"/>
	<g>
		<path class="st43" d="M378.6,317.3c0,0,29.4,28,40.7,53.4c0,0-76.5,51.5-119.4,53.9l3-61.3C302.9,363.3,361,345.9,378.6,317.3z"/>
		<path class="st43" d="M280.8,345.9c-6.3-7.5-3.2-21.5,6.8-37.5c0.3,0.2,0.6,0.4,0.8,0.6c27,16.7,63.4,8,80.1-19
			c9.9-16,10.9-35.4,4.4-51.9c17-6.4,30.8-6.7,37,0.7c11.4,13.8-8.2,48.9-43.8,78.5C330.3,346.8,292.2,359.7,280.8,345.9z"/>
		<polygon class="st43" points="263.3,432.1 231.2,436.8 225.6,452.3 228,468.8 240.4,469.3 258.3,474.9 265,464 		"/>
		<path class="st43" d="M361.8,409.1l16.7,45.4c0,0-92.2,22.9-107.8,21.2l-4.1-40.2C266.7,435.4,339.7,427.9,361.8,409.1z"/>
		<path class="st43" d="M463.5,336.8l35.8,27.3c0,0-39.8,58.8-116.4,87.8L366,408.2C365.9,408.1,427.8,387.5,463.5,336.8z"/>
		<path class="st43" d="M489.9,217.2c0,0,32.7,39.4-23.1,115.5l37.6,25.8C504.4,358.5,569.8,268.2,489.9,217.2z"/>
		<path class="st43" d="M380.4,221.7c0,0,40.5,2.3,36.1,20.3c0,0,40-9.5,77.6,15c-0.9-0.6,0.1-16.5-0.2-18.3
			c-2-10.5-7.7-22.3-17.8-27c-15.7-7.2-38.8-2.5-55.6-0.8c-8.5,0.8-16.9,1.9-25.2,4c-3.2,0.8-6.6,1.5-9.6,3.1
			C384.8,218.3,381,221.7,380.4,221.7z"/>
		<path class="st43" d="M418.6,246c0,0,49.8-9.4,74.2,16.2c0,0-5.1,59.4-68.7,104.9c0,0-27.2-47.7-43.6-51.9
			C380.5,315.2,420.7,265,418.6,246z"/>
		<path class="st43" d="M270.6,336.8c0,0,0.8,30.7,26.9,27.8l-1.3,59.7l-64.5,4.3C231.7,428.5,240.6,368.3,270.6,336.8z"/>
		<path class="st43" d="M313.6,300.2c2.8,3.1,12.6-1.1,22-9.5s14.7-17.7,11.9-20.8c-2.8-3.1-12.6,1.1-22,9.5
			C316.1,287.8,310.8,297.1,313.6,300.2z"/>
	</g>
</g>
</svg>
