<?xml version="1.0" encoding="utf-8"?>
<!-- Generator: Adobe Illustrator 20.1.0, SVG Export Plug-In . SVG Version: 6.00 Build 0)  -->
<svg version="1.1" id="Layer_1" xmlns="http://www.w3.org/2000/svg" xmlns:xlink="http://www.w3.org/1999/xlink" x="0px" y="0px"
	 viewBox="0 0 1206 1260" style="enable-background:new 0 0 1206 1260;" xml:space="preserve">
<style type="text/css">
	.st0{fill:#A7A7AB;}
	.st1{fill:#3DA7C3;}
	.st2{fill:#FFFFFF;}
	.st3{enable-background:new    ;}
	.st4{fill:#446183;}
	.st5{fill:none;stroke:#30445D;stroke-width:0.2962;}
	.st6{fill:#FFC900;}
	.st7{fill:#30445D;}
	.st8{fill:#55586B;}
	.st9{fill:#659BEA;}
	.st10{fill:#FF1F78;}
	.st11{fill:#7FAEFF;}
	.st12{fill:#E0D8D5;}
	.st13{fill:#F4E9E4;}
	.st14{fill:#D82A47;}
	.st15{fill:#FFF8F5;}
	.st16{fill:#1B1464;}
	.st17{fill:#0071BC;}
	.st18{fill:#F1EAE3;}
	.st19{fill:#29ABE2;}
	.st20{fill:#C3D4D8;}
</style>
<g>
	<path class="st0" d="M1103.7,1192.6c-90.5,59.2-890.8,50-985.1-6.2C24.3,1130.3,40.8,173.3,100.1,88.9s909.4-58.2,1019.6,1.5
		C1207.4,137.8,1194.2,1133.4,1103.7,1192.6z"/>
	<path class="st1" d="M1077.2,1176c-90.5,59.2-890.8,50-985.1-6.2C-2.1,1113.7,14.3,156.6,73.6,72.2C132.9-12.1,983,14,1093.2,73.7
		C1180.9,121.1,1167.7,1116.7,1077.2,1176z"/>
	<path class="st2" d="M1020.2,1175.2c0,0,56.3,7.3,64.6-43.3C1084.8,1131.8,1066.1,1176.9,1020.2,1175.2z"/>
	<path class="st2" d="M134.4,57.9c0,0-56.7,2.8-55.9,54.1C78.6,112,89,64.4,134.4,57.9z"/>
	<path class="st2" d="M1071.2,938c-26.2,9.3-961.1,0.7-980.7-3.4c-19.6-4-26.4-744.6,28.2-822.1c54.5-77.6,831.4-53.4,932.8,1.5
		C1132,157.7,1097.4,928.7,1071.2,938z"/>
	<g class="st3">
		<path class="st2" d="M447,1012.9c2.1,1.5,3.2,3.3,3.2,5.3c0,2-1,3.7-2.9,5.2c-1.9,1.5-4.1,2.2-6.6,2.2c-6.1-1.6-12-2.5-17.7-2.5
			c-12.5,0-22.1,3.7-28.7,11.1c-6.6,7.4-9.9,18.5-9.9,33.4c0,14.8,3.9,26.3,11.6,34.5c4.1,4.3,8.9,6.5,14.4,6.5
			c5.5,0,14.2-2.9,26.1-8.8c4.1-2,6.9-3,8.4-3c3,0,4.6,1.6,4.6,4.7c0,3.2-1.5,5.8-4.4,7.9c-4.9,2.6-8.8,4.6-11.8,6
			c-3,1.5-7.1,3-12.3,4.7c-5.2,1.7-9.9,2.5-14,2.5c-4.1,0-8.1-0.8-11.8-2.5c-3.7-1.7-7-3.9-9.6-6.7c-5.6-6.1-9.7-13.4-12.2-22.1
			c-2.5-8.6-3.8-17.5-3.8-26.5c0-9,1.4-17.2,4.1-24.6c2.7-7.4,6.5-13.4,11.3-18c9.8-9.3,21.8-14,36.1-14
			C429,1008.4,437.6,1009.9,447,1012.9z"/>
		<path class="st2" d="M466.3,1079.5c-0.1-6-0.2-11.3-0.3-15.8c-0.1-4.5-0.1-8.1-0.3-10.9c-0.1-2.7-0.2-10.3-0.2-22.5
			s0.1-19.9,0.3-22.8c0.2-2.9,0.8-5.1,1.9-6.5c1.1-1.4,3.1-2.1,5.9-2.1c4.1,0,6.5,2,7.2,6.1c-1.1,10.9-1.6,31.6-1.6,62.2
			c0,23.4,2.5,37.1,7.5,41.2c1.4-0.4,2.8-1.5,4.2-3.4c1.4-1.9,2.8-3.8,4.2-5.5c1.4-1.8,3-2.6,4.7-2.6s3.2,0.8,4.4,2.5
			c1.2,1.7,1.8,4.3,1.8,7.9c0,3.6-2,7.2-5.9,11c-3.9,3.7-8.4,5.6-13.4,5.6c-9.9,0-16.2-8.5-18.8-25.6
			C467,1091.7,466.4,1085.5,466.3,1079.5z"/>
		<path class="st2" d="M525,1045c4.3-2.6,9.2-3.9,14.6-3.9s10.4,2.3,14.8,6.8c8.3,8.5,12.4,20.4,12.4,35.7c0,7.9-2.2,16.2-6.7,24.9
			c-2.2,4.1-5.1,7.5-8.8,10.3c-3.6,2.7-7.8,4.1-12.6,4.1c-4.8,0-9.4-1.4-13.9-4.1c-4.5-2.7-8.2-6.2-11.1-10.3
			c-6.1-8.9-9.1-17.2-9.1-24.9c0-10.5,3.2-20.2,9.5-28.9C517,1050.9,520.6,1047.6,525,1045z M542.5,1110.6c3.4-1.8,6-4.7,7.7-8.8
			c1.8-4.1,2.6-8.3,2.6-12.6c0-4.3-0.3-8.2-0.9-11.6c-0.6-3.4-1.5-6.7-2.7-9.8s-3-5.8-5.3-8.1c-2.3-2.2-5-3.6-8.1-4.2
			c-5.1,0.8-9.4,3.8-12.8,8.8c-3.4,5.1-5.1,10.2-5.1,15.2s2.2,11.3,6.5,18.7c2,3.4,4.6,6.3,7.9,8.7
			C535.6,1109.4,539,1110.6,542.5,1110.6z"/>
		<path class="st2" d="M603.6,1003.1l-0.9,21.2c0,1.4,0.2,7,0.7,16.6c7,0,13.8-0.2,20.5-0.7c3.5,0.8,5.3,2.9,5.3,6.1
			c0,3.3-1.2,5.6-3.5,7c-2.3,1.4-4.7,2.2-7,2.3c-2.3,0.1-4.1,0.2-5.4,0.2c-1.3,0-2.9,0-4.9-0.1c-2-0.1-3.4-0.1-4.4-0.1
			c0.1,1.1,0.3,4.3,0.5,9.7c0.2,5.4,0.4,9,0.5,10.6c0.9,15.9,2.3,28.8,4,38.7c-0.5,2.2-1.5,4.2-3.2,5.9c-1.7,1.7-3.6,2.5-5.6,2.5
			c-2,0-3.6-1.4-4.6-4.2c-1.8-10.4-3-22.8-3.6-37.1c-0.6-14.4-1-23-1.1-25.9c-1.6,0.1-4.5,0.2-8.6,0.2c-4.1,0-7.4-0.3-9.8-1.1
			c-2.8-0.6-4.2-2.3-4.2-5.1c0-5.8,3.4-8.8,10.2-8.8l8.4,0.2c1.4,0,2.5-0.1,3.3-0.2c-0.5-11.8-0.7-17.8-0.7-18
			c0-0.8,0.1-2.6,0.2-5.4c0.1-2.8,0.3-6.9,0.5-12.4c0.5-2,1.6-3.7,3.3-5.1c1.8-1.4,3.5-2.1,5.3-2.1
			C601.4,998.1,603.1,999.7,603.6,1003.1z"/>
		<path class="st2" d="M693,1080.4c0,7.2-0.3,14.3-1,21.2c-0.6,6.9-1.1,11.5-1.2,13.7c-0.2,2.2-1.2,4.1-3.2,5.5
			c-1.9,1.5-3.8,2.2-5.5,2.2c-3.3,0-4.9-1.5-4.9-4.6v-1.1l1.1-31v-8.9c0-11-2.3-17.8-7-20.5c-2.1-1.3-4.8-1.9-8.1-1.9
			c-9.6,0-14.4,3.7-14.4,11.2c0,8.8,0.2,16.2,0.6,22.2c0.4,6,0.6,11.2,0.6,15.4c0,4.3-0.1,8.3-0.2,12l-0.3,0.7
			c-0.6,1.8-1.7,3.3-3.4,4.6c-1.7,1.3-3.4,2-5,2c-3.3,0-5-1.5-5.3-4.6h-0.5c0-17.4-0.8-36.5-2.3-57.4c-1.5-20.9-2.4-39.7-2.6-56.7
			c0.6-2.7,2.2-4.8,4.9-6.3c0.9-0.5,2.1-0.7,3.5-0.7c1.4,0,2.7,0.7,3.8,2.2c1.1,1.5,1.9,3.8,2.3,7.1c0.4,3.3,0.6,6.6,0.7,9.9
			c0.1,3.3,0.1,7.9,0.3,13.6c0.1,5.7,0.4,10.7,0.7,15.1c5.7-3,11.4-4.6,17.1-4.6c5.7,0,10.2,0.8,13.6,2.5c6.2,3,10.4,8.2,12.5,15.4
			C691.9,1065.9,693,1073.2,693,1080.4z"/>
		<path class="st2" d="M747.6,1047.1c5.8,3.5,8.7,7.9,8.7,13.1c0,5.2-2.7,10.4-8.1,15.6c-5.4,5.2-11.9,8.3-19.5,9.4
			c-0.7,0.1-1.3,0.2-1.7,0.3c-0.4,0.1-1,0.1-1.7,0.2c-0.7,0.1-1.3,0.1-1.7,0.1c-0.4,0-1,0-1.8,0.1c-0.8,0.1-1.3,0.1-1.7,0.1
			s-1,0-1.9,0c-0.9,0-1.6,0-1.9,0c1.3,9.1,3,15.1,5.3,18c3.4,2.6,6.2,4,8.6,4.4c5.8,0,11.2-2.5,16.2-7.4c5-4.9,8.6-7.4,11-7.4
			c0.8,0,2.2,0.8,4.1,2.5c1.9,1.7,2.9,3.4,2.9,5c0,1.6-1.1,3.6-3.2,6c-2.1,2.3-4.7,4.8-7.9,7.3c-3.2,2.5-7,4.7-11.7,6.6
			c-4.6,1.9-8.9,2.8-12.9,2.8c-4,0-7.5-0.9-10.5-2.8c-5.4-3.4-9.5-9.1-12.4-17.2c-2.9-8.1-4.3-16.6-4.3-25.5c0-8.9,2-17,6-24.3
			c4.3-8.1,11.8-12.1,22.4-12.1C736,1041.9,741.8,1043.6,747.6,1047.1z M740.9,1061.3c0-4.9-3.3-7.4-9.8-7.4
			c-4.4,0-8.2,2.5-11.4,7.5c-1.1,1.5-1.8,3.3-2.2,5.4c-0.4,2.1-0.8,4.3-1.1,6.5C732.7,1073.4,740.9,1069.4,740.9,1061.3z"/>
		<path class="st2" d="M795,1040.8c4.3,0,8.7,0.7,13.1,2.1c8.5,2.8,12.8,6.4,12.8,10.7c0,2-0.8,3.6-2.5,4.7
			c-1.7,1.2-3.7,1.8-5.9,1.8c-0.5,0-3.1-1.1-7.8-3.2c-4.7-2.2-8.5-3.2-11.4-3.2c-2.9,0-5.5,0.8-8,2.5c-2.5,1.7-3.7,3.9-3.7,6.5
			c0,2.6,0.7,4.9,2.2,6.7c1.5,1.9,3.4,3.2,5.7,4c2.3,0.8,4.9,1.5,7.7,2.1c7.6,1.5,12.9,3,15.9,4.4c5.3,2.5,7.9,7.3,7.9,14.6
			c0,7.3-2.8,13.7-8.3,19.3c-5.5,5.6-11.4,8.3-17.6,8.3c-6.2,0-11.3-0.7-15.4-2.1c-7.2-2.7-10.9-6.2-10.9-10.5
			c0-4.1,2.5-6.1,7.4-6.1c2.3,0,5.6,1,9.8,3.1c4.2,2,7.7,3.1,10.5,3.1s5.4-1.7,7.7-5.2c2.3-3.4,3.5-6.7,3.5-9.9
			c0-0.7-0.1-1.6-0.4-2.8c-3.2-3-9.3-5.3-18.6-6.8c-3.3-0.6-6.5-1.5-9.6-2.6c-6.9-2.5-10.3-8.7-10.3-18.8c0-7,2.5-12.5,7.5-16.6
			C781.4,1042.8,787.6,1040.8,795,1040.8z"/>
	</g>
</g>
<g>
	<path class="st4" d="M827.5,642.5c0,0-26.3,38.1-36.1,61.2c-9.8,23.1-28,72.7-35.5,84.9c-7.6,12.2-38.6,72.6-38.6,72.6
		s3.9,9.4,11.3,13.2c7.4,3.8,22.8,10.4,22.8,10.4s25.2-40,36.3-56.4s42.3-64.1,42.3-64.1s15.2,4.4,13.2,13.5
		c-2,9-33.1,104.9-36.1,112.1c-3,7.2-5.8,21.8-5.8,21.8s18.3,8.7,25.2,10.9s11.2,0.4,11.2,0.4s31.7-69.5,39.8-86.7
		c8.2-17.2,63-131.8,63-131.8s-56.5-27-80.1-41.1C836.8,649.2,827.5,642.5,827.5,642.5z"/>
	<path class="st5" d="M846.3,674.7c0,0-12.8,15.4-22.5,13.4s-17.9-9.5-17.9-9.5"/>
	<path class="st5" d="M804.7,680.3c0,0,11.6,9.3,21.6,9.4c10,0.1,22.1-13.4,22.1-13.4"/>
	<path class="st5" d="M807.7,679.2l10.8-11.2c0,0,10.3,11,22,12.3"/>
	<path class="st5" d="M901.5,705.2c0,0-6.3,16.9,4.5,25.8c10.8,8.9,17.1,9.8,17.1,9.8"/>
	<path class="st5" d="M905.2,706.5c0,0-6.8,13.3,1.2,21.7c8,8.5,18,10.6,18,10.6"/>
	
		<ellipse transform="matrix(0.4563 -0.8898 0.8898 0.4563 -142.6398 1122.9619)" class="st6" cx="847.6" cy="678.2" rx="1.9" ry="1.9"/>
	
		<ellipse transform="matrix(0.4569 -0.8895 0.8895 0.4569 -140.3793 1182.9087)" class="st6" cx="898.5" cy="706.4" rx="1.9" ry="1.9"/>
	<path class="st7" d="M839.6,918.7c-3.7-0.3-9.9-1.1-15.7-3c-7.2-2.4-17.2-7.4-21.5-9.7c-0.1,0.4-0.2,0.8-0.3,1.2
		c4.5,2.3,14.3,7.2,21.3,9.6c5.7,1.9,11.7,2.7,15.6,3.1C839.3,919.5,839.4,919.1,839.6,918.7z M741.9,873.2
		c-11.3-6.2-18.7-12.9-22.3-16.6c-0.2,0.4-0.4,0.8-0.6,1.1c3.8,3.8,11.2,10.4,22.3,16.5c5.4,3,9.4,5.1,12.5,6.6
		c0.2-0.3,0.4-0.7,0.6-1C751.5,878.4,747.4,876.2,741.9,873.2z M934,717.9c0.2-0.4,0.4-0.7,0.5-1.1c-11.4-4-28.4-10.5-45.7-18.6
		c0.1-0.3,0.3-0.5,0.4-0.8c17.3,8,34.3,14.5,45.7,18.6c0.2-0.4,0.3-0.7,0.5-1.1c-11.4-4.1-28.4-10.5-45.7-18.6
		c2.9-5.7,5.3-10.9,6.7-13.7c-0.4-0.2-0.7-0.4-1.1-0.5c-1.4,2.8-3.8,8-6.7,13.8h-0.1c-3.7-1.8-7.6-3.8-11.6-5.9
		c2.4-6.1,4.5-11.4,5.6-14.4c-0.4-0.2-0.7-0.4-1.1-0.6c-1.1,2.9-3.2,8.2-5.6,14.4c-0.1-0.1-0.2-0.1-0.3-0.2
		c2.4-6.2,4.5-11.5,5.6-14.3c-0.4-0.2-0.7-0.4-1.1-0.6c-1.1,2.8-3.1,8.1-5.6,14.3c-21.5-12-44.6-28.4-54.2-35.4
		c-0.2,0.3-0.4,0.7-0.7,1c9.6,7,32.8,23.5,54.4,35.5c-0.1,0.3-0.2,0.6-0.3,0.8c-21.7-12.1-45-28.7-54.5-35.6c-0.2,0.3-0.4,0.7-0.7,1
		c9.6,7,33,23.6,54.7,35.7c-4.9,12.3-10.7,26.7-13.2,31.5c-3.8,7.4-20,33.8-25.7,42.9c0.3,0.2,0.7,0.3,1.1,0.5
		c5.7-9.2,21.9-35.5,25.7-42.9c2.5-4.8,8.3-19.2,13.2-31.5c0.1,0.1,0.2,0.1,0.3,0.2c-4.8,12.2-10.6,26.4-13,31.2
		c-3.8,7.4-20.3,34.3-25.9,43.2c0.3,0.2,0.7,0.4,1,0.6c4.3-7,15.4-24.9,21.8-35.9l-0.1,0.6c0.4,0,10,0.8,15.9-7.4
		c3-4.1,8.7-15.2,13.8-25.3C905.5,707.4,922.5,713.9,934,717.9z M874.8,691.2c0.1-0.3,0.2-0.6,0.3-0.8c0.1,0.1,0.2,0.1,0.3,0.2
		c-0.1,0.3-0.2,0.6-0.3,0.8C875,691.3,874.9,691.2,874.8,691.2z M876.5,691.1c4,2.2,7.8,4.2,11.6,5.9c0,0,0,0,0.1,0
		c-0.1,0.3-0.3,0.5-0.4,0.8h-0.1c-3.7-1.7-7.5-3.7-11.4-5.8C876.2,691.6,876.3,691.3,876.5,691.1z M873.5,723.9
		c-5,7-13.1,7-14.6,6.9c1.6-2.8,3-5.2,3.8-6.7c2.5-4.8,8.2-18.9,13-31.1c3.9,2.1,7.7,4.1,11.4,5.8h0.1
		C882.1,708.9,876.4,719.9,873.5,723.9z"/>
</g>
<g>
	<path class="st8" d="M282,331c0,0-43.7,53.6-45.9,81.2c0,0,61.4,38.4,247.6,21.6c67.2-6,101.9-24.2,101.9-24.2s-20.2-63.1-56-78.6
		c-35.9-15.6-218.5-6.9-218.5-6.9L282,331z"/>
	<path class="st9" d="M344.8,110.7c0,0,13.4,24.9,48.5,25.1c50,0.3,62.4-24.2,62.4-24.2s13.4,12.4,9,20.7
		c-4.5,8.4-21.7,41.8-31.7,43.8c-10.1,2-67.2,5.2-75.1,1.7c-7.8-3.5-20.9-12.4-23.5-18.1c-2.6-5.8,5.2-36.9,5.6-38
		C340.3,120.5,344.8,110.7,344.8,110.7z"/>
	<path class="st10" d="M459.8,116c-2.2-2.7-4.1-4.4-4.1-4.4s-12.3,24.5-62.4,24.2c-35.1-0.2-48.5-25.1-48.5-25.1s-3,6.6-4.3,9.6
		c7.4,6.9,31.5,26,65.9,22.7C434.7,140.2,451.7,125.3,459.8,116z"/>
	<path class="st10" d="M479.2,116.7c0,0,78.6,100.8,91.6,144.6s13,43.8,13,43.8l-39,22.7l-46.3-46.3l-60.9-112.9L479.2,116.7z"/>
	<path class="st11" d="M344.8,110.7l-26.9,7.8c0,0,20.2,35.4,6.7,57c-13.4,21.6-33.6,26.8-33.6,26.8s2.2,53.6-1.1,77.8
		c-3.4,24.2,3.4,41.5-7.8,51c0,0,54.9,7.8,97.5,9.5s117.6,0.9,154.6-8.6c0,0-14.6-29.4-17.9-55.3c-3.4-25.9-5.6-73.4-5.6-73.4
		s-37,6-37-29.4s5.6-57,5.6-57l-23.5-5.2c0,0,9,53.6-47.1,54.4C352.6,166.8,348.1,134.9,344.8,110.7z"/>
	<path class="st10" d="M317.9,118.4c0,0-73.5,103.9-73.5,120.2c0,16.2,66.8,85.5,66.8,85.5l38.8-36.8l-59-85c0,0,56.7-0.1,31-85"/>
	<polygon class="st10" points="417.6,203.1 466.9,197.1 475.9,238.6 447.8,252.4 418.7,241.1 	"/>
	<path class="st10" d="M317.9,118.4c0,0,20.2,35.4,6.7,57C311.2,197,291,202.2,291,202.2s0.1,1.6,0.2,4.4
		c7.3-2.8,32.3-13.6,38.7-29.8c6.8-17.2,1.6-45.3-7.8-59.7L317.9,118.4z M455.7,111.5c0,0,9,53.6-47.1,54.4
		c-56,0.9-60.5-31.1-63.9-55.3l-6.1,1.8c0.5,16.7,6.8,60.6,60.6,59c57-1.7,65.9-37.9,63.3-58.4L455.7,111.5z M510.6,203.1
		c0,0-37,6-37-29.4s5.6-57,5.6-57l-7-1.5c-1.9,15.3-6.9,59-3.8,68.9c3,9.8,22.2,26,42.5,25.2C510.7,205.5,510.6,203.1,510.6,203.1z"
		/>
</g>
<g>
	<polygon class="st12" points="396.1,560.9 397.5,562.8 407.3,575.6 432,580.4 448.6,548.5 422.7,528.2 399.7,539.4 	"/>
	<polygon class="st12" points="263.7,729.2 265.9,730.1 280.7,736.6 291.1,759.5 264,783.1 238.2,762.8 243.7,737.8 	"/>
	<polygon class="st12" points="479.6,878.5 515.3,895.9 543.7,848.9 519.8,822 	"/>
	<polygon class="st12" points="550.1,783.4 551.6,784.5 577.1,804 618.6,758.5 591.3,734.1 	"/>
	<path class="st13" d="M139.2,572.4c0,0,23.2-7.8,48.5-43.6s28.6-54.5,28.6-54.5s24.4,26.9,22.8,37.4c-1.6,10.5-37.8,69.8-41.4,71.9
		c-3.5,2.1-34.7,7.9-34.7,7.9L139.2,572.4z"/>
	<path class="st13" d="M317.9,531.8c-36.2-30-53.8-69.3-53.8-69.3c-11.4,0-47.8,11.9-47.8,11.9s6,12.2,4.6,32.1
		c-1.4,19.9-11,30.3-11,30.3l-9.2,11.7c0,0-8.5,12.6-28.2,19.6s-33.3,4.3-33.3,4.3s-4.4,39.9-2,51.4c0,0,43.2,6.7,80.9,34.8
		s127.6,114.8,158.4,139.1c30.8,24.2,100.7,85.7,107.9,80.1c7.2-5.6,41.5-50.9,35.3-55.8c-6.2-4.8-68.7-55.7-80.6-71.4
		c-7.8-10.4-4.9-18.6-2-23l0.1,0.1c0,0,0.4-0.8,1.2-1.9c0.9-1.1,1.6-1.7,1.6-1.7l-0.1-0.1c3.5-3.5,10.4-7.6,22-2.4
		c17.9,8.1,82,57,88.1,61.8c6.2,4.8,39.8-36.1,43.2-44c3.3-7.9-72.6-61.6-103.4-85.8C459,629.3,354.1,561.8,317.9,531.8z"/>
	<path class="st13" d="M259.9,479.2l4.2-16.7c0,0,26.1,2.4,44.7,10.2c18.6,7.8,64.3,23.3,80.9,32.4c16.6,9.1,35,25.6,35,25.6
		s-25.5,28.8-17.3,45c0,0-31.8-5.5-58.9-18C321.2,545,259.9,479.2,259.9,479.2z"/>
	<path class="st13" d="M152.3,616.1l-15.1,7.7c0,0,8.3,25,20.3,41.2c11.9,16.2,37.7,57,50.5,71s33.1,28,33.1,28s22-31.5,39.6-27.4
		c0,0-12.8-29.6-31.4-53C230.6,660.2,152.3,616.1,152.3,616.1z"/>
	<path class="st14" d="M389.6,505.1c-3.5-1.9-8.3-4.1-13.8-6.5c-8.1,11.3-6.2,26.8,4.5,35.3c11,8.7,27.2,6.5,36.1-4.8
		c0.9-1.1,1.6-2.3,2.3-3.5C411.9,520,400.4,511,389.6,505.1z M324.3,478.8c-6.1-2.3-11.5-4.4-15.5-6.1c-10.4-4.4-23.2-7-32.4-8.6
		c-1.3,8.8,1.9,17.8,9.2,23.5c11,8.7,27.2,6.5,36.1-4.8C322.7,481.6,323.5,480.2,324.3,478.8z"/>
	<path class="st14" d="M350.3,509.3c11,8.7,12.7,24.9,3.8,36.2c-8.9,11.3-25.1,13.5-36.1,4.8s-12.7-24.9-3.8-36.2
		S339.3,500.6,350.3,509.3z"/>
	
		<ellipse transform="matrix(0.6183 -0.786 0.786 0.6183 -309.9829 404.2252)" class="st14" cx="261.2" cy="521.2" rx="26.1" ry="25.4"/>
	<path class="st14" d="M222.5,583.6c11,8.7,12.7,24.9,3.8,36.2s-25.1,13.5-36.1,4.8c-11-8.7-12.7-24.9-3.8-36.2
		C195.3,577,211.5,574.9,222.5,583.6z"/>
	
		<ellipse transform="matrix(0.6183 -0.786 0.786 0.6183 -359.0353 443.5995)" class="st14" cx="277.2" cy="591.4" rx="26.1" ry="25.4"/>
	<path class="st14" d="M368.3,578.1c11,8.7,12.7,24.9,3.8,36.2c-8.9,11.3-25.1,13.5-36.1,4.8s-12.7-24.9-3.8-36.2
		S357.3,569.5,368.3,578.1z"/>
	<path class="st14" d="M315,649.5c11,8.7,12.7,24.9,3.8,36.2c-8.9,11.3-25.1,13.5-36.1,4.8s-12.7-24.9-3.8-36.2
		C287.8,643,304,640.8,315,649.5z"/>
	<path class="st14" d="M196.6,721.7c4.3,5.9,8.2,10.9,11.4,14.4c7.4,8.1,17.3,16.2,24.4,21.6c1-0.9,2-1.9,2.8-3
		c8.9-11.3,7.2-27.5-3.8-36.2C220.8,710.2,205.7,711.7,196.6,721.7z M140.1,631.8c3.4,8.7,9.6,22.8,17.3,33.2
		c1.8,2.4,3.9,5.4,6.2,8.8c0.3-0.4,0.7-0.7,1-1.1c8.9-11.3,7.2-27.5-3.8-36.2C154.8,631.8,147.2,630.4,140.1,631.8z"/>
	
		<ellipse transform="matrix(0.6183 -0.786 0.786 0.6183 -437.1385 439.9551)" class="st14" cx="234.4" cy="670" rx="26.1" ry="25.4"/>
	<path class="st14" d="M389.1,648.2c11,8.7,12.7,24.9,3.8,36.2c-8.9,11.3-25.1,13.5-36.1,4.8s-12.7-24.9-3.8-36.2
		C361.9,641.7,378.1,639.6,389.1,648.2z"/>
	<path class="st14" d="M459.7,644.2c11,8.7,12.7,24.9,3.8,36.2c-8.9,11.3-25.1,13.5-36.1,4.8s-12.7-24.9-3.8-36.2
		C432.5,637.7,448.7,635.5,459.7,644.2z"/>
	
		<ellipse transform="matrix(0.6182 -0.786 0.786 0.6182 -433.6909 584.869)" class="st14" cx="385.2" cy="738.9" rx="26.1" ry="25.4"/>
	
		<ellipse transform="matrix(0.6183 -0.7859 0.7859 0.6183 -460.8251 671.6288)" class="st14" cx="461.1" cy="810.3" rx="26.1" ry="25.4"/>
	<path class="st14" d="M546.4,708.5c11,8.7,12.7,24.9,3.8,36.2s-25.1,13.5-36.1,4.8s-12.7-24.9-3.8-36.2
		C519.2,702,535.4,699.8,546.4,708.5z"/>
	<path class="st14" d="M443.8,620.7c-12.9-8.9-27.1-18.5-41.2-28.2c-4.9,10.6-2.3,23.5,7.1,30.8
		C419.9,631.4,434.6,630.1,443.8,620.7z M571,724.9c-8.9,11.3-7.2,27.5,3.8,36.2c0.5,0.4,1,0.7,1.5,1.1c8.2-9.5,15.5-19.3,17-22.7
		c1.1-2.5-6.1-9.8-17.3-19.4C574.1,721.4,572.4,723,571,724.9z M496.5,681.9c9.1,7.2,21.8,6.9,30.9,0.2
		c-14.4-10.8-28.1-21.1-37.6-28.5c-0.3-0.3-0.8-0.6-1.1-0.9C484.8,663,487.6,674.9,496.5,681.9z M459.8,864.6
		c12.7,9.3,22.3,15,24.7,13.2c2-1.5,6-6.1,10.7-12c-0.8-0.9-1.7-1.7-2.7-2.5C482.7,855.6,469,856.5,459.8,864.6z M300.9,730.4
		c12.8,11.6,25.4,23.1,36.9,33.5c6.8-11.1,4.6-25.6-5.6-33.6C322.9,723.1,310,723.4,300.9,730.4z M375.1,796.5
		c0.5,0.4,0.9,0.8,1.4,1.1c9.8,7.7,23.4,19.1,37.8,30.9c8.1-11.3,6.2-26.8-4.5-35.2C399.3,785.2,384.3,786.7,375.1,796.5z"/>
	<path class="st15" d="M231.1,469.8c-8.3,2.4-14.8,4.5-14.8,4.5s6,12.2,4.6,32.1s-11,30.3-11,30.3l-9.2,11.7c0,0-8.5,12.6-28.2,19.6
		s-33.3,4.3-33.3,4.3s-0.6,5.2-1.2,12.4c14.6,2.3,50.9,1,76.8-33.7C239.5,518,235.7,487.9,231.1,469.8z"/>
	<path class="st14" d="M439,761.1c1.8,1.4,2.1,4.1,0.6,6s-4.1,2.2-6,0.8c-1.8-1.4-2.1-4.1-0.6-6C434.5,760,437.2,759.6,439,761.1z"
		/>
	
		<ellipse transform="matrix(0.6186 -0.7857 0.7857 0.6186 -442.1175 667.4207)" class="st14" cx="466.4" cy="789.1" rx="4.3" ry="4.2"/>
	<path class="st14" d="M503.8,814c1.8,1.4,2.1,4.1,0.6,6s-4.2,2.2-6,0.8s-2.1-4.1-0.6-6C499.3,812.9,501.9,812.5,503.8,814z"/>
	<path class="st14" d="M530.5,842.8c1.8,1.4,2.1,4.1,0.6,6s-4.1,2.2-6,0.8c-1.8-1.4-2.1-4.1-0.6-6
		C526,841.7,528.6,841.4,530.5,842.8z"/>
	<path class="st14" d="M576.5,789.1c1.8,1.4,2.1,4.1,0.6,6s-4.1,2.2-6,0.8c-1.8-1.4-2.1-4.1-0.6-6
		C572,788.1,574.6,787.7,576.5,789.1z"/>
	<path class="st14" d="M543.1,763.9c1.8,1.4,2.1,4.1,0.6,6s-4.1,2.2-6,0.8c-1.8-1.4-2.1-4.1-0.6-6S541.3,762.5,543.1,763.9z"/>
	<path class="st14" d="M506.6,739.1c1.8,1.4,2.1,4.1,0.6,6s-4.1,2.2-6,0.8c-1.8-1.4-2.1-4.1-0.6-6
		C502.1,738,504.8,737.6,506.6,739.1z"/>
	<path class="st14" d="M470.7,709.9c1.8,1.4,2.1,4.1,0.6,6s-4.2,2.2-6,0.8s-2.1-4.1-0.6-6S468.9,708.4,470.7,709.9z"/>
	<path class="st14" d="M434.1,714.2c1.8,1.4,2.1,4.1,0.6,6s-4.1,2.2-6,0.8c-1.8-1.4-2.1-4.1-0.6-6S432.2,712.8,434.1,714.2z"/>
	<path class="st14" d="M228.1,475.1c1.8,1.4,2.1,4.1,0.6,6s-4.1,2.2-6,0.8c-1.8-1.4-2.1-4.1-0.6-6S226.3,473.6,228.1,475.1z"/>
	<path class="st14" d="M242.7,470.9c1.8,1.4,2.1,4.1,0.6,6s-4.1,2.2-6,0.8c-1.8-1.4-2.1-4.1-0.6-6
		C238.2,469.9,240.9,469.5,242.7,470.9z"/>
</g>
<g>
	<path class="st16" d="M724.9,566.2l-4.4,4.9c0,0,13.1,39.5,12,46.5s46.7,3.5,80.6,2.4c34-1.2,159-8.3,161.1-12.3
		s-0.8-54.2-0.8-54.2L724.9,566.2z"/>
	<path class="st17" d="M621.1,537.4c0,0-8.2,46.9-5.8,48.3c2.4,1.4,58.6,22.2,63.7,17.3c5.1-4.9,16.1-42.7,16.1-42.7L621.1,537.4z"
		/>
	<path class="st17" d="M1010.8,542.9c0,0,21.7,40.6,27.8,40.2c6.2-0.4,56.7-24.2,55.6-30.3s-19.5-43.8-19.5-43.8L1010.8,542.9z"/>
	<path class="st16" d="M754.7,288.2c0,0-43,20.3-52.2,34c-9.3,13.7-78.8,192.6-82.1,202.1s-5.7,22,4.5,24.5s67.4,27.1,74.7,19.7
		c7.3-7.4,44.6-141.1,44.6-141.1l57.2-96.2L754.7,288.2z"/>
	<path class="st16" d="M914.7,284.4c0,0,33.4,1.2,42.7,15.4c9.3,14.2,115.7,182.3,119.4,192.1c3.7,9.9,7.4,20.5-5.4,26.6
		c-12.8,6.2-55.8,38.8-64,32.3c-8.1-6.5-56-98.2-56-98.2L870.7,314L914.7,284.4z"/>
	<path class="st18" d="M763.5,320.9c0,0-38,65.7-40.8,85.2s-4.7,148.1-3.5,155.8s-3.9,13.4,13.2,14c17.1,0.6,117.7,1,150.8-3.2
		c33-4.2,93.5-3.8,93.7-13.9c0.2-10.1-13.2-148.7-28.4-185.7c-15.3-37.1-53-73.6-53-73.6L763.5,320.9z"/>
	<path class="st16" d="M799.4,339c0,0-26.4-0.8-51.3-18c-25-17.2-54.1-52.6-54.5-72.7s25.1-48.7,47.4-78.6
		c22.3-29.9,57.7-59.8,70.9-59s71.3,28.4,90.2,46.7s57,62.5,56.5,81.1s-48.1,65.5-83.9,90S810.6,345.3,799.4,339z"/>
	<path class="st17" d="M881.4,230.6c-58.9-0.5-136.2,14-162.4,16.3c-12.6,1.1-19.4,6.9-23,12.6c7.5,20.2,31.2,47.3,52.1,61.6
		c25,17.1,51.3,18,51.3,18c11.2,6.3,39.5,14,75.3-10.5c23.9-16.4,53-42.7,69.9-63.9C952.1,242,935.3,231,881.4,230.6z"/>
	<path class="st19" d="M881.2,226.7c-58.9-0.5-136.2,14-162.4,16.3c-12.6,1.1-19.4,6.9-23,12.6c7.5,20.3,31.2,47.3,52.1,61.6
		c25,17.2,51.4,18,51.4,18c0.7,0.4,1.5,0.8,2.4,1.2c7.5,6.4,17.2,16.7,21.8,29.9c8.3,23.5,20.4,112.6,19.5,138.2
		s5.7,113.5,5.7,113.5l15.4-1.7c0,0-15.4-174.1-19.1-211.8c-2.8-28.4-0.6-53.5,8.7-68.7c6.6-2.6,13.5-6.2,20.8-11.2
		c23.9-16.4,53-42.6,69.9-63.9C951.9,238.2,935.1,227.2,881.2,226.7z"/>
	<path class="st17" d="M719,246.8c-3,0.3-5.6,0.8-8,1.5c-1.6,4.1-2.1,9.2,1.2,14.6c8,13.5,59.5,56,75.8,62.2
		c16.4,6.3,32.5,17.7,33.7,20.8c1.2,3,13.3,25.6,13.3,25.6l2.5-0.7c0,0,3.4-30.6,16.8-40.2c13.4-9.5,71.9-51.1,77.5-61.7
		c3.4-6.5-5.1-23.1-12.2-35.2c-9.8-2-22.4-3-38.3-3.2C822.6,230.1,745.2,244.6,719,246.8z"/>
	<polygon class="st20" points="829.4,369.8 829.6,370.9 830.5,375.2 840.5,373.4 839.8,369.2 	"/>
	<polygon class="st20" points="832.6,371.2 832.9,382.8 840.6,381.9 837.6,370.9 	"/>
	<polygon class="st20" points="835.7,378.7 835.8,386.5 830.3,386 834.5,417.5 842.5,416.3 841.1,385 837.7,386.4 838.1,379.4 	"/>
</g>
</svg>
