<?xml version="1.0" encoding="utf-8"?>
<!-- Generator: Adobe Illustrator 20.1.0, SVG Export Plug-In . SVG Version: 6.00 Build 0)  -->
<svg version="1.1" id="Layer_1" xmlns="http://www.w3.org/2000/svg" xmlns:xlink="http://www.w3.org/1999/xlink" x="0px" y="0px"
	 viewBox="0 0 1206 1260" style="enable-background:new 0 0 1206 1260;" xml:space="preserve">
<style type="text/css">
	.st0{fill:#A7A7AB;}
	.st1{fill:#62C4B6;}
	.st2{fill:#FFFFFF;}
	.st3{font-family:'PatrickHand-Regular';}
	.st4{font-size:175.2329px;}
	.st5{letter-spacing:-4;}
	.st6{fill:#C6B899;}
	.st7{fill:url(#SVGID_1_);}
	.st8{fill:url(#SVGID_2_);}
	.st9{fill:#FADCC0;}
	.st10{fill:url(#SVGID_3_);}
	.st11{fill:#ED8EDB;}
	.st12{fill:#F4A4E9;}
	.st13{fill:#E56AD4;}
	.st14{fill:#F7F7F7;}
	.st15{fill:#EBEBEB;}
	.st16{fill:url(#SVGID_4_);}
	.st17{fill:#F7D33C;}
	.st18{fill:#D2D2D2;}
	.st19{fill:url(#SVGID_5_);}
	.st20{fill:url(#SVGID_6_);}
	.st21{fill:#3B281A;}
	.st22{fill:url(#SVGID_7_);}
	.st23{fill:#D10000;}
	.st24{fill:#668E06;}
	.st25{fill:url(#SVGID_8_);}
	.st26{fill:#EDDCC3;}
	.st27{fill:#E0B785;}
	.st28{fill:#ED1C24;}
	.st29{fill:#C1272D;}
	.st30{fill:#4A2C0E;}
	.st31{fill:#95BB00;}
</style>
<g>
	<path class="st0" d="M1103,1192c-90.5,59.2-890.8,50-985.1-6.2C23.6,1129.7,40,172.6,99.3,88.2C158.6,3.9,1008.7,30,1119,89.7
		C1206.6,137.2,1193.4,1132.8,1103,1192z"/>
	<path class="st1" d="M1076.5,1175.3c-90.5,59.2-890.8,50-985.1-6.2C-2.9,1113,13.5,156,72.8,71.6c59.3-84.4,909.4-58.2,1019.6,1.5
		C1180.1,120.5,1166.9,1116.1,1076.5,1175.3z"/>
	<path class="st2" d="M1019.5,1174.5c0,0,56.3,7.3,64.6-43.3C1084.1,1131.2,1065.4,1176.2,1019.5,1174.5z"/>
	<path class="st2" d="M133.7,57.3c0,0-56.7,2.8-55.9,54.1C77.8,111.4,88.2,63.8,133.7,57.3z"/>
	<path class="st2" d="M1070.5,937.4c-26.2,9.3-961.1,0.7-980.7-3.4c-19.6-4-26.4-744.6,28.2-822.1c54.5-77.6,831.4-53.4,932.8,1.5
		C1131.3,157,1096.7,928.1,1070.5,937.4z"/>
	<text transform="matrix(1 0 0 1 457.71 1122.3612)" class="st2 st3 st4 st5">Food</text>
</g>
<g>
	<g>
		<g>
			<g>
				<g>
					<g>
						<g>
							<path class="st6" d="M491,717.8c9.6-6.2,23.2-12.8,34.7-10.5c7.1,1.4,10.3,10.6,11.3,17.8c1.1,7.5-0.7,13.4-4.3,17.8
								c-13.1,16.1-41.2,20.2-61.9,20.7c-14.2,0.3-13.4,22.4,0.9,22.1c28.8-0.7,68.5-8.6,83-36.5c10.9-20.8,2.5-55.1-21.4-62.7
								c-17.8-5.6-39,2.9-54,12.5C467.4,706.7,479.1,725.5,491,717.8z"/>
						</g>
						<g>
							<linearGradient id="SVGID_1_" gradientUnits="userSpaceOnUse" x1="3.5954" y1="779.5715" x2="-488.5519" y2="776.1537">
								<stop  offset="1.117320e-02" style="stop-color:#D4CDBB"/>
								<stop  offset="0.5196" style="stop-color:#F5F4F0"/>
								<stop  offset="1" style="stop-color:#D4CDBB"/>
							</linearGradient>
							<path class="st7" d="M447.8,736.8c-10.6,4-30.4,9-63.7,13.4c-2.6,0.3-19.9,2.3-48.2,2.8c-28.4,0.5-48-2.8-51.6-3.3
								c-31.9-4.4-43.1-7-64.5-14.6c-14.7-5.3-31.3-15.3-39.7-25.2c-0.2,5.3-0.2,11.2-0.2,17.7c0,70.2,69.8,127,155.9,127
								c86.1,0,155.8-56.9,155.8-127c0-6.5-0.1-12.3-0.3-17.6C482,720.3,462.5,731.3,447.8,736.8z"/>
						</g>
						<g>
							<linearGradient id="SVGID_2_" gradientUnits="userSpaceOnUse" x1="4.2766" y1="681.5839" x2="-487.8657" y2="678.1661">
								<stop  offset="1.117320e-02" style="stop-color:#C6B899"/>
								<stop  offset="0.1848" style="stop-color:#C8BB9D"/>
								<stop  offset="0.3681" style="stop-color:#CDC2AA"/>
								<stop  offset="0.5251" style="stop-color:#D4CDBB"/>
								<stop  offset="0.6744" style="stop-color:#CCC2A8"/>
								<stop  offset="0.8315" style="stop-color:#C8BA9D"/>
								<stop  offset="0.9944" style="stop-color:#C6B899"/>
							</linearGradient>
							<path class="st8" d="M503,659.3c0-29.2-74.8-52.9-167.2-52.9c-92.3,0-167.2,23.7-167.2,52.9c0,1.1,0.1,2.2,0.3,3.4
								c0.3,8.1,2,40.7,7.6,50.7c6.4,11.3,26,23.9,43.2,30.1c21.3,7.7,32.6,10.3,64.5,14.6c3.6,0.5,23.3,3.8,51.6,3.3
								c28.3-0.5,45.6-2.5,48.2-2.8c33.3-4.4,53.1-9.4,63.7-13.4c17.1-6.4,40.8-20.4,47.2-31.7c5.5-9.7,7.2-41.2,7.6-50.1
								C502.9,661.9,503,660.6,503,659.3z"/>
							<path class="st9" d="M503,659.3c0,29.2-76.1,60.6-168.4,60.6c-92.3,0-165.9-31.3-165.9-60.6c0-29.2,74.8-52.9,167.2-52.9
								C428.2,606.4,503,630.1,503,659.3z"/>
							<path class="st2" d="M492.3,659.3c0,27-70,48.8-156.4,48.8c-86.4,0-156.4-21.8-156.4-48.8c0-26.9,70-48.8,156.4-48.8
								C422.2,610.5,492.3,632.4,492.3,659.3z"/>
						</g>
					</g>
					<g>
						<linearGradient id="SVGID_3_" gradientUnits="userSpaceOnUse" x1="4.3881" y1="666.0377" x2="-487.7534" y2="662.6198">
							<stop  offset="1.117320e-02" style="stop-color:#3F1C00"/>
							<stop  offset="7.984370e-02" style="stop-color:#451F02"/>
							<stop  offset="0.3885" style="stop-color:#592B07"/>
							<stop  offset="0.6963" style="stop-color:#65320B"/>
							<stop  offset="1" style="stop-color:#69340C"/>
						</linearGradient>
						<path class="st10" d="M186.4,673.7c19.7,19.9,79.2,34.4,149.5,34.4c71.2,0,131.2-14.8,150.2-35.1
							c-5.1-24.8-70.2-44.4-149.8-44.4C255.9,628.6,190.3,648.6,186.4,673.7z"/>
					</g>
				</g>
			</g>
		</g>
	</g>
</g>
<g>
	<g>
		<circle class="st11" cx="817.3" cy="708.9" r="200.7"/>
		<circle class="st12" cx="817.3" cy="708.9" r="152.6"/>
		<circle class="st11" cx="817.3" cy="708.9" r="143.6"/>
		<path class="st13" d="M951.6,658c3.7,12.7,5.7,26.2,5.7,40.1c0,79.3-64.3,143.6-143.6,143.6c-61.4,0-113.8-38.5-134.3-92.7
			c17.4,59.8,72.5,103.5,137.9,103.5c79.3,0,143.6-64.3,143.6-143.6C960.9,691,957.6,673.8,951.6,658z"/>
	</g>
	<g>
		<g>
			<g>
				
					<ellipse transform="matrix(0.9854 -0.1705 0.1705 0.9854 -99.1141 139.0681)" class="st14" cx="760.3" cy="646.7" rx="89.5" ry="89.5"/>
				<path class="st15" d="M833.6,595.3c4.5,8.3,7.7,17.4,9.4,27.2c8.4,48.7-24.2,95-73,103.5c-35.3,6.1-69.3-9.3-88.6-36.8
					c17.8,33,55.1,52.5,94.1,45.8c48.7-8.4,81.4-54.8,72.9-103.5C846.1,618,840.9,605.8,833.6,595.3z"/>
				<g>
					<g>
						
							<linearGradient id="SVGID_4_" gradientUnits="userSpaceOnUse" x1="710.8994" y1="650.122" x2="798.713" y2="650.122" gradientTransform="matrix(0.9605 0.2784 -0.2784 0.9605 198.1806 -208.8067)">
							<stop  offset="0" style="stop-color:#F7BA14"/>
							<stop  offset="1" style="stop-color:#F4D01A"/>
						</linearGradient>
						<path class="st16" d="M777.8,651.4c-14.2,19.7-41.6,24.1-61.3,9.9c-19.7-14.2-24.1-41.6-9.9-61.3
							c14.2-19.7,41.6-24.1,61.3-9.9C787.5,604.4,792,631.8,777.8,651.4z"/>
						<path class="st17" d="M763.7,593.4c-0.6-0.4-1.2-0.8-1.8-1.2c16.2,13.1,19.6,36.8,7.3,53.9c-12.4,17.1-35.9,21.4-53.4,10.1
							c0.6,0.5,1.1,0.9,1.7,1.4c17.7,12.8,42.5,8.8,55.3-9C785.5,630.9,781.5,606.2,763.7,593.4z"/>
					</g>
				</g>
			</g>
			
				<ellipse transform="matrix(0.9853 -0.1706 0.1706 0.9853 -109.8421 133.5175)" class="st18" cx="722.1" cy="706" rx="5.2" ry="5.2"/>
			
				<ellipse transform="matrix(0.9854 -0.1704 0.1704 0.9854 -88.7431 145.3901)" class="st18" cx="802.7" cy="589.7" rx="5.2" ry="5.2"/>
			
				<ellipse transform="matrix(0.9853 -0.1705 0.1705 0.9853 -102.7851 127.5719)" class="st18" cx="691.1" cy="662" rx="5.2" ry="5.2"/>
		</g>
		<g>
			<g>
				<path class="st14" d="M957.4,800.7c3-42.3,6-159.2-52.3-158.9c-62.2,0.3-59.2,78.2-59.2,78.2s-77.1-3.3-67.7,67.3
					c7.7,57.9,123.6,38.8,164.9,30.2c5.3-1.1,13.3-4.3,13.3-4.3C956.6,810.7,957,806.4,957.4,800.7z"/>
				<g>
					<g>
						<path class="st15" d="M905.1,641.8c-10.3,0-18.8,2.2-25.8,5.8c5.3-1.7,11.3-2.6,18.1-2.7c58.3-0.3,55.3,116.6,52.3,158.9
							c-0.4,5.3-0.8,9.5-1,12c4-1.3,7.7-2.7,7.7-2.7c0.3-2.5,0.7-6.9,1.1-12.5C960.4,758.4,963.3,641.6,905.1,641.8z"/>
					</g>
				</g>
				
					<ellipse transform="matrix(0.6574 -0.7535 0.7535 0.6574 -305.4725 872.359)" class="st18" cx="806.6" cy="772.1" rx="5.3" ry="5.3"/>
				<path class="st18" d="M912.9,674.9c2.2,1.9,2.4,5.2,0.5,7.4c-1.9,2.2-5.2,2.4-7.4,0.5c-2.2-1.9-2.4-5.2-0.5-7.4
					C907.3,673.2,910.7,673,912.9,674.9z"/>
				<path class="st18" d="M865.1,804.8c2.2,1.9,2.4,5.2,0.5,7.4c-1.9,2.2-5.2,2.4-7.4,0.5c-2.2-1.9-2.4-5.2-0.5-7.4
					C859.5,803.1,862.9,802.9,865.1,804.8z"/>
			</g>
			<g>
				<g>
					
						<linearGradient id="SVGID_5_" gradientUnits="userSpaceOnUse" x1="848.2663" y1="751.3488" x2="933.4272" y2="751.3488" gradientTransform="matrix(0.9996 2.650000e-02 -2.650000e-02 0.9996 17.8071 -24.6464)">
						<stop  offset="0" style="stop-color:#F7BA14"/>
						<stop  offset="1" style="stop-color:#F4D01A"/>
					</linearGradient>
					<path class="st19" d="M928.1,765.4c-8.5,21.9-33.1,32.8-55.1,24.3c-21.9-8.5-32.8-33.1-24.3-55.1c8.5-21.9,33.1-32.8,55.1-24.3
						C925.7,718.8,936.6,743.4,928.1,765.4z"/>
					<path class="st17" d="M900.7,714.4c-0.7-0.3-1.3-0.4-2-0.7c18.5,8.3,27.4,29.7,20,48.8c-7.4,19.1-28.4,28.9-47.7,22.6
						c0.6,0.3,1.3,0.6,1.9,0.9c19.8,7.6,42-2.2,49.6-21.9C930.3,744.2,920.5,722,900.7,714.4z"/>
				</g>
			</g>
		</g>
	</g>
</g>
<g>
	<g>
		<g>
			<g>
				
					<radialGradient id="SVGID_6_" cx="363.0555" cy="401.185" r="158.5033" gradientTransform="matrix(1 0 0 1.3472 0 -143.8837)" gradientUnits="userSpaceOnUse">
					<stop  offset="2.234640e-02" style="stop-color:#EFB156"/>
					<stop  offset="1" style="stop-color:#D1932F"/>
				</radialGradient>
				<path class="st20" d="M576.2,400.6c0,53.8-100.2,89.5-217.9,89.5c-117.7,0-208.4-35.7-208.4-89.5c0-53.8,95.4-97.4,213.1-97.4
					C480.8,303.1,576.2,346.8,576.2,400.6z"/>
				<ellipse class="st21" cx="363.1" cy="378.3" rx="213.1" ry="72.3"/>
				<linearGradient id="SVGID_7_" gradientUnits="userSpaceOnUse" x1="149.9062" y1="352.3649" x2="576.2048" y2="352.3649">
					<stop  offset="0" style="stop-color:#D38C0D"/>
					<stop  offset="1" style="stop-color:#FFD632"/>
				</linearGradient>
				<path class="st22" d="M576.2,350.1c0,39.9-95.4,72.3-213.2,72.3c-43.6,0-84.1-4.4-117.8-12c-1.7-0.4-23,25.5-19.8,13.3
					c3.2-12.2-6.2-20.2-9.5-21.3c-40.7-13.2-66-31.8-66-52.3c0-39.9,95.4-72.3,213.1-72.3C480.8,277.8,576.2,310.2,576.2,350.1z"/>
			</g>
			<ellipse class="st21" cx="363.1" cy="339.9" rx="213.1" ry="72.3"/>
			<path class="st23" d="M576.2,311.7c0,40-95.4,72.3-213.2,72.3c-117.7,0-213.1-32.4-213.1-72.3c0-39.9,95.4-72.3,213.1-72.3
				C480.8,239.4,576.2,271.8,576.2,311.7z"/>
			<path class="st24" d="M576.2,301.5c0,22.5-30.3,42.6-77.9,55.9c-6.2,1.7-10.7,23.3-17.5,24.8c-5.7,1.3-13.6-17.5-19.7-16.4
				c-21,3.7-44.1,6.3-68.5,7.4c-9.7,0.5-11.1,9.1-21.1,9.1c-3.6,0-15.6-8.5-19.2-8.5c-25.6-0.4-49.9-2.4-72.3-5.6
				c-6.7-1-9.3,5.4-15.6,4.2c-4.6-0.9-10.9-5.7-15.2-6.6c-4.3-1-13.1,2.4-17.2,1.3c-3.9-1-5.2-9.9-8.9-11
				c-44.8-13.3-73.2-32.8-73.2-54.6c0-39.9,95.4-72.3,213.1-72.3C480.8,229.1,576.2,261.5,576.2,301.5z"/>
		</g>
		<g>
			<radialGradient id="SVGID_8_" cx="363.0526" cy="277.4356" r="164.2634" gradientUnits="userSpaceOnUse">
				<stop  offset="2.234640e-02" style="stop-color:#EFB156"/>
				<stop  offset="1" style="stop-color:#D1932F"/>
			</radialGradient>
			<path class="st25" d="M577.1,289.9c0,43-95.8,77.9-214,77.9c-118.2,0-214-34.9-214-77.9c0-43,96.5-102.9,214.6-102.9
				C481.9,187.1,577.1,246.9,577.1,289.9z"/>
			<g>
				<g>
					<path class="st26" d="M368.8,332.5c0,2.8-2.3,5.1-5.1,5.1c-2.8,0-5.1-2.3-5.1-5.1c0-2.8,2.3-5.1,5.1-5.1
						C366.5,327.4,368.8,329.7,368.8,332.5z"/>
					<path class="st27" d="M366.3,328.1c0.3,0.6,0.4,1.3,0.4,2.1c0,2.9-2.4,5.3-5.3,5.3c-0.7,0-1.4-0.1-2.1-0.4
						c0.9,1.5,2.5,2.5,4.4,2.5c2.8,0,5.1-2.3,5.1-5.1C368.8,330.6,367.8,329,366.3,328.1z"/>
				</g>
				<g>
					<path class="st26" d="M308,292.8c0,2.8-2.3,5.1-5.1,5.1c-2.8,0-5.1-2.3-5.1-5.1c0-2.8,2.3-5.1,5.1-5.1
						C305.7,287.7,308,290,308,292.8z"/>
					<path class="st27" d="M305.5,288.4c0.3,0.6,0.4,1.3,0.4,2.1c0,2.9-2.4,5.3-5.3,5.3c-0.7,0-1.4-0.1-2.1-0.4
						c0.9,1.5,2.5,2.5,4.4,2.5c2.8,0,5.1-2.3,5.1-5.1C308,290.9,307,289.3,305.5,288.4z"/>
				</g>
				<g>
					<path class="st26" d="M430.6,293.1c0,2.8-2.3,5.1-5.1,5.1c-2.8,0-5.1-2.3-5.1-5.1c0-2.8,2.3-5.1,5.1-5.1
						C428.3,288,430.6,290.3,430.6,293.1z"/>
					<path class="st27" d="M428,288.7c0.3,0.6,0.4,1.3,0.4,2.1c0,2.9-2.4,5.3-5.3,5.3c-0.7,0-1.4-0.1-2.1-0.4
						c0.9,1.5,2.5,2.5,4.4,2.5c2.8,0,5.1-2.3,5.1-5.1C430.6,291.2,429.6,289.6,428,288.7z"/>
				</g>
				<g>
					<ellipse class="st26" cx="281.1" cy="221.8" rx="5.1" ry="5.1"/>
					<path class="st27" d="M283.7,217.4c0.3,0.6,0.4,1.3,0.4,2.1c0,2.9-2.4,5.3-5.3,5.3c-0.7,0-1.4-0.1-2.1-0.4
						c0.9,1.5,2.5,2.5,4.4,2.5c2.8,0,5.1-2.3,5.1-5.1C286.2,219.9,285.2,218.2,283.7,217.4z"/>
				</g>
				<g>
					<ellipse class="st26" cx="446.3" cy="221.8" rx="5.1" ry="5.1"/>
					<path class="st27" d="M448.8,217.4c0.3,0.6,0.4,1.3,0.4,2.1c0,2.9-2.4,5.3-5.3,5.3c-0.7,0-1.4-0.1-2.1-0.4
						c0.9,1.5,2.5,2.5,4.4,2.5c2.8,0,5.1-2.3,5.1-5.1C451.4,219.9,450.4,218.2,448.8,217.4z"/>
				</g>
				<g>
					<ellipse class="st26" cx="221.3" cy="259.8" rx="5.1" ry="5.1"/>
					<path class="st27" d="M223.8,255.4c0.3,0.6,0.4,1.3,0.4,2.1c0,3-2.4,5.3-5.3,5.3c-0.7,0-1.4-0.1-2.1-0.4
						c0.9,1.5,2.5,2.5,4.4,2.5c2.8,0,5.1-2.3,5.1-5.1C226.4,258,225.4,256.3,223.8,255.4z"/>
				</g>
				<g>
					<path class="st26" d="M512.5,259.8c0,2.8-2.3,5.1-5.1,5.1c-2.8,0-5.1-2.3-5.1-5.1c0-2.8,2.3-5.1,5.1-5.1
						C510.2,254.7,512.5,257,512.5,259.8z"/>
					<path class="st27" d="M510,255.4c0.3,0.6,0.4,1.3,0.4,2.1c0,3-2.4,5.3-5.3,5.3c-0.7,0-1.4-0.1-2.1-0.4c0.9,1.5,2.5,2.5,4.4,2.5
						c2.8,0,5.1-2.3,5.1-5.1C512.5,258,511.5,256.3,510,255.4z"/>
				</g>
				<g>
					<path class="st26" d="M368.8,243c0,2.8-2.3,5.1-5.1,5.1c-2.8,0-5.1-2.3-5.1-5.1c0-2.8,2.3-5.1,5.1-5.1
						C366.5,237.9,368.8,240.2,368.8,243z"/>
					<path class="st27" d="M366.3,238.6c0.3,0.6,0.4,1.3,0.4,2.1c0,3-2.4,5.3-5.3,5.3c-0.7,0-1.4-0.1-2.1-0.4
						c0.9,1.5,2.5,2.5,4.4,2.5c2.8,0,5.1-2.3,5.1-5.1C368.8,241.2,367.8,239.5,366.3,238.6z"/>
				</g>
				<g>
					<path class="st26" d="M249.4,319.7c0,2.8-2.3,5.1-5.1,5.1c-2.8,0-5.1-2.3-5.1-5.1c0-2.8,2.3-5.1,5.1-5.1
						C247.1,314.6,249.4,316.9,249.4,319.7z"/>
					<path class="st27" d="M246.9,315.3c0.3,0.6,0.4,1.3,0.4,2.1c0,2.9-2.4,5.3-5.3,5.3c-0.7,0-1.4-0.2-2.1-0.4
						c0.9,1.5,2.5,2.5,4.4,2.5c2.8,0,5.1-2.3,5.1-5.1C249.4,317.8,248.4,316.2,246.9,315.3z"/>
				</g>
				<g>
					<circle class="st26" cx="484" cy="320" r="5.1"/>
					<path class="st27" d="M486.6,315.6c0.3,0.6,0.4,1.3,0.4,2.1c0,2.9-2.4,5.3-5.3,5.3c-0.7,0-1.4-0.2-2.1-0.4
						c0.9,1.5,2.5,2.5,4.4,2.5c2.8,0,5.1-2.3,5.1-5.1C489.1,318.1,488.1,316.5,486.6,315.6z"/>
				</g>
			</g>
		</g>
	</g>
</g>
<g>
	<g>
		<g>
			<g>
				<path class="st28" d="M975.2,214.5c-51.3-49.1-96.1-17.3-108.3-9.3c-12.3-8-57.1-39.9-108.3,9.3
					c-89.7,85.9,42.5,230.4,71.8,227.6c7.7-0.8,13.9-2.8,18.8-5.5c5.3,4.7,11.2,7.4,17.6,7.4c6.4,0,12.4-2.7,17.8-7.5
					c4.9,2.7,11.1,4.8,19,5.6C932.7,444.9,1064.9,300.4,975.2,214.5z"/>
			</g>
		</g>
		<path class="st29" d="M958.7,229.9c-5.6-5.4-11.1-9.6-16.5-12.8c45.7,65.9,1.5,158.9-35,203.2C942.7,402,1027.5,295.7,958.7,229.9
			z"/>
		<g>
			<path class="st30" d="M867.3,204.5c-9.6,6.7,14.4-74.8,19.2-81.6c4.8-6.7,30.7-10.6,32.6-1.9C921,129.6,876.9,197.8,867.3,204.5z
				"/>
			<g>
				<g>
					<path class="st31" d="M867.2,191.9c0,0-41.6,4.3-54.5-28.9c-12.9-33.2-7.1-52.1-7.1-52.1s45.2,7.6,59.2,25.1
						C878.8,153.4,867.2,191.9,867.2,191.9z"/>
				</g>
			</g>
		</g>
	</g>
</g>
</svg>
