<?xml version="1.0" encoding="utf-8"?>
<!-- Generator: Adobe Illustrator 21.0.0, SVG Export Plug-In . SVG Version: 6.00 Build 0)  -->
<svg version="1.1" id="Layer_1" xmlns="http://www.w3.org/2000/svg" xmlns:xlink="http://www.w3.org/1999/xlink" x="0px" y="0px"
	 viewBox="0 0 1153.7 1214.5" style="enable-background:new 0 0 1153.7 1214.5;" xml:space="preserve">
<style type="text/css">
	.st0{opacity:0.7;fill:#FFFFFF;enable-background:new    ;}
	.st1{fill:#A7A8AC;}
	.st2{fill:#F6921E;}
	.st3{fill:#FFFFFF;}
	.st4{fill:none;}
</style>
<path id="bg" class="st0" d="M1076.1,83.8c-4.3-2.3-9.9-4.7-16.5-6.9c-3-4.4-6.2-7.5-9.4-9.3c-107.8-58.4-939-84-997-1.5
	c-58.1,82.4-74.1,1018.3,18.1,1073.2c4.1,2.4,9.7,4.8,16.4,7.1c3,4.1,6.2,7.2,9.5,9.2c92.2,55,874.8,64,963.3,6.1
	C1148.9,1103.7,1161.8,130.1,1076.1,83.8z"/>
<g id="locker">
	<g>
		<path class="st1" d="M935.7,815.9c-40.6,26.6-661.2,31.2-703.6,6s-43.2-364.6-16.6-402.5s669.6-34.9,719.1-8.1
			C974,432.6,976.3,789.3,935.7,815.9z"/>
		<path class="st2" d="M924.3,808.4c-40.6,26.6-661.2,31.2-703.6,6s-43.2-364.6-16.6-402.5s669.6-34.9,719.1-8.1
			C962.6,425,964.9,781.7,924.3,808.4z"/>
	</g>
	<g>
		<path class="st3" d="M512,582.6l-8.2,0.2c-1.3,0-3.1-0.1-5.3-0.3c-2.2-0.2-3.6-1.1-4.2-2.7c-0.8-9.2-1.2-19.1-1.2-29.8l1.4-63.3
			c0-1.2,0.7-2.2,2-2.9c1.3-0.7,3-1.1,4.9-1.1s3.7,0.5,5.1,1.4c1.5,1,2.2,2.3,2.2,4.2c-0.3,3.2-1.1,11.8-2.5,25.6
			c-1.4,13.8-2,25.1-2,33.9c0,8.7,0.4,16.7,1.1,24c0.3,0,1.3,0,2.9,0s5.8-0.4,12.6-1.1c6.8-0.8,11.2-1.1,13.1-1.1
			c4.7,0,7.1,1.7,7.1,5.1c0,2.9-1.4,4.9-4.1,6.1c-2.9,1.2-5.8,1.9-8.6,2c-2.9,0.1-5.2,0.2-6.8,0.2L512,582.6z"/>
		<path class="st3" d="M562.7,515.4c3.7-2.2,8-3.3,12.6-3.3c4.7,0,9,2,12.8,5.9c7.2,7.4,10.8,17.7,10.8,30.9c0,6.9-1.9,14-5.8,21.5
			c-1.9,3.5-4.4,6.5-7.6,8.9c-3.1,2.4-6.8,3.6-10.9,3.6c-4.1,0-8.2-1.2-12-3.6c-3.9-2.4-7.1-5.3-9.6-8.9c-5.3-7.7-7.9-14.8-7.9-21.5
			c0-9.1,2.7-17.4,8.2-25C555.8,520.4,559,517.6,562.7,515.4z M577.8,572c2.9-1.5,5.2-4,6.7-7.6c1.5-3.5,2.3-7.2,2.3-10.9
			s-0.3-7.1-0.8-10s-1.3-5.8-2.3-8.5c-1.1-2.7-2.6-5-4.6-7c-2-1.9-4.3-3.1-7-3.6c-4.4,0.7-8.1,3.3-11.1,7.6
			c-2.9,4.4-4.4,8.8-4.4,13.2s1.9,9.8,5.6,16.1c1.7,2.9,4,5.4,6.8,7.5C571.9,571,574.8,572,577.8,572z"/>
		<path class="st3" d="M653.1,514.8c1.3,0.8,2,1.8,2,2.9c0,2-0.6,4.3-1.7,6.8c-1.1,2.5-2.7,3.8-4.7,3.8c-0.9,0-2.8-0.6-5.8-1.7
			c-2.9-1.2-5-1.7-6.2-1.7c-5.7,0-10.6,2.1-14.8,6.3s-6.4,9.8-6.4,16.8s1.1,12.3,3.3,16c2.2,3.6,6.1,5.5,11.9,5.5
			c3.1,0,7.1-1.3,11.9-3.9c4.8-2.6,7.9-3.9,9.4-3.9s2.6,0.4,3.4,1.2c0.8,0.8,1.2,1.8,1.2,3c0,2.5-1.6,5.1-4.7,7.8
			c-3.1,2.7-6.9,4.9-11.4,6.6c-4.4,1.7-8.5,2.6-12.3,2.6c-8.2,0-14.5-3.2-19.1-9.6c-4.5-6.4-6.8-15.1-6.8-26c0-7,1.8-13.2,5.5-18.7
			s8.3-9.6,13.7-12.3c5.5-2.7,11.4-4.1,17.7-4.1C645.7,512,650.3,512.9,653.1,514.8z"/>
		<path class="st3" d="M673.6,561l0.2,15.1c-0.2,1.8-1.1,3.4-2.7,4.8c-1.6,1.4-3.1,2-4.4,2c-2.7,0-4.1-1.7-4.1-5
			c0-10.7-0.4-25.6-1.2-44.8s-1.2-29.9-1.2-32.3v-19.7c0.4-1.6,1.4-3.1,2.9-4.3c1.5-1.3,3-1.9,4.4-1.9c2.3,0,3.7,1.5,4.2,4.4
			c0,14.9,0.1,25.1,0.2,30.4c0.2,5.4,0.7,16.6,1.6,33.6c0.5-0.5,1.3-1.2,2.3-2c5.1-4.2,12-11.6,20.4-22.1c1.6-1.9,3.6-3.6,5.8-5.1
			c2.3-1.5,4-2.2,5.2-2.2s2.3,0.4,3.3,1.1c1.1,0.7,1.6,1.6,1.6,2.7c0,0.2-0.7,1.5-2,3.9c-4.4,7.6-9.3,14.2-14.7,20
			c4.6,5.1,9.1,12.9,13.5,23.3c1.8,4.2,3.2,7.1,4,8.5c0.9,1.4,1.3,2.9,1.3,4.5s-0.6,3.1-1.8,4.5c-1.2,1.5-2.7,2.2-4.5,2.2
			s-4.3-4.4-7.4-13.2c-1.2-3.5-3-7.4-5.3-11.7s-4.8-7.7-7.6-10.2c-1.1,1.3-3.4,3.5-6.7,6.6C677.4,557.3,675,559.5,673.6,561z"/>
		<path class="st3" d="M759.7,517.2c5,3,7.5,6.8,7.5,11.3s-2.3,9-7,13.5c-4.6,4.5-10.2,7.2-16.8,8.1c-0.6,0.1-1.1,0.2-1.4,0.2
			c-0.4,0.1-0.8,0.1-1.4,0.2c-0.6,0.1-1.1,0.1-1.4,0.1c-0.4,0-0.9,0-1.5,0.1c-0.7,0.1-1.1,0.1-1.4,0.1s-0.9,0-1.7,0s-1.4,0-1.7,0
			c1.1,7.9,2.6,13.1,4.5,15.6c2.9,2.2,5.4,3.5,7.4,3.8c5,0,9.7-2.1,14-6.4c4.3-4.2,7.4-6.4,9.5-6.4c0.7,0,1.9,0.7,3.6,2.2
			c1.7,1.5,2.5,2.9,2.5,4.3c0,1.4-0.9,3.1-2.7,5.1s-4.1,4.1-6.8,6.3s-6.1,4.1-10.1,5.7c-4,1.6-7.7,2.4-11.1,2.4
			c-3.4,0-6.5-0.8-9.1-2.4c-4.6-2.9-8.2-7.9-10.7-14.8c-2.5-7-3.7-14.3-3.7-22s1.7-14.7,5.2-21c3.7-7,10.2-10.5,19.4-10.5
			C749.7,512.6,754.7,514.1,759.7,517.2z M753.9,529.4c0-4.2-2.8-6.4-8.5-6.4c-3.8,0-7.1,2.2-9.8,6.5c-0.9,1.3-1.5,2.9-1.9,4.7
			s-0.7,3.7-1,5.6C746.8,539.9,753.9,536.4,753.9,529.4z"/>
		<path class="st3" d="M812.6,482.6c0-5.5,1.7-8.2,5.2-8.2c1.8,0,3.1,0.3,3.9,0.8c0.8,0.6,1.3,1.7,1.7,3.3c0.4,1.7,0.6,5.1,0.6,10.2
			s0.2,11.6,0.5,19.3s0.5,13.8,0.6,18.3c0.1,4.4,0.5,11.4,1.1,20.9c0.7,9.5,1,17.3,1,23.5l-0.3,8.5c-0.3,1.9-1,3.2-2.1,3.7
			c-1.1,0.6-2.7,0.8-4.8,0.8s-3.4-1.3-4-3.9l-0.5-2.4c-4.3,3.4-9.5,5.2-15.5,5.2c-7.9,0-14.1-2.9-18.6-8.7s-6.8-12.5-6.8-20.2
			s1.7-15.3,5.2-22.9c3.5-7.6,8.7-13,15.7-16.4c3.9-1.8,8.3-2.7,13-2.7c1.8,0,3.2,0.1,4.2,0.2l-0.2-12.1l0.2-9.7L812.6,482.6z
			 M813.8,565c0.5-1.4,0.8-4.1,0.8-8.2c0-4,0.1-6.3,0.1-6.8v-2.9c0-5.5-0.6-10.5-1.8-15s-2.8-6.8-4.8-6.8c-2.8,0-6,0.3-9.4,0.9
			c-3.4,0.6-5.7,1.7-6.8,3.2c-3.3,4.3-5,11.4-5,21.2c0,7,2.2,12.4,6.7,16.2c2.5,2.2,5.3,3.3,8.3,3.3s5.6-0.5,7.9-1.5
			C811.9,567.7,813.3,566.5,813.8,565z"/>
	</g>
	<path class="st4" d="M368.5,504.3c8.5,0,17.1,0,25.6,0c8.6,0,17.2,0,25.8,0c2.1,0,2.2-0.1,2.2-2.2c0-11.1,0-22.2,0-33.2
		c0-6-2.3-11.2-6.7-15.3c-10.8-10.1-28.6-10.8-40.3-1.8c-5.4,4.2-8.7,9.7-8.8,16.6c-0.1,11.2,0,22.5,0,33.7
		C366.2,504.2,366.2,504.3,368.5,504.3z"/>
	<path class="st3" d="M458.1,516.5c0.1-7.1-4.6-12-12-12.2c-1.2,0-2.5-0.1-3.7,0c-1.6,0.1-2-0.6-2-2.1c0-9.3-0.1-18.6,0.1-27.9
		c0.6-25.4-18.1-43.9-40.3-46.6c-0.2,0-0.4-0.1-0.6-0.2c-3.6,0-7.1,0-10.7,0c-6.5,0.9-12.7,2.7-18.3,6.1
		c-12.3,7.4-19.9,18.1-22,32.5c-0.8,5.3-0.5,10.6-0.5,15.9c0,6.8,0,13.6,0,20.4c0,1.5-0.6,2-2.1,1.9c-2-0.1-3.9,0-5.8,0.4
		c-4.8,1-8,3.8-9.7,8.4c0,16,0,32,0,48c0.9,5.3,2.5,10.4,5.4,15c6.3,9.8,15.2,15.6,26.7,17.3c1.6,0.2,3.1,0.3,4.7,0.3
		c17.9,0,35.8,0,53.7,0c18.6,0,34.2-13.7,36.8-32.1c0.2-1.4,0.3-2.8,0.3-4.2C458,543.7,457.8,530.1,458.1,516.5z M366.2,468.3
		c0.1-6.9,3.3-12.4,8.8-16.6c11.7-9,29.5-8.2,40.3,1.8c4.4,4.1,6.7,9.2,6.7,15.3c0.1,11.1,0,22.2,0,33.2c0,2.1-0.1,2.2-2.2,2.2
		c-8.6,0-17.2,0-25.8,0c-8.5,0-17.1,0-25.6,0c-2.3,0-2.3,0-2.3-2.2C366.2,490.8,366.1,479.6,366.2,468.3z M445.9,556.5
		c-0.1,12.9-9.8,23.7-22.5,25c-1.6,0.2-3.3,0.2-5.5,0.2c-1.3,0-2.7,0-4-0.1c-1.4,0-2.8-0.1-4.2-0.1c-4,0-8.1,0-12.1,0s-8,0-12.1,0
		c-7.8,0-14.1-0.1-19.8-0.2c-6.5-0.1-12.3-3-17.2-8.5c-4.3-4.8-6.3-10.5-6.2-17.3c0.1-9,0.1-18,0-26.8c0-4.1,0-8.2,0-12.3l0,0
		c0.7-0.2,1.4-0.3,2-0.3c10.6,0,21.1,0,31.7,0h24.3l0,0h43.9c0.6,0,1.3,0,1.7,0.1c0,4.9,0,9.8,0,14.7v7.6v6
		C446,548.6,446,552.5,445.9,556.5z"/>
	<path class="st3" d="M389.1,570.5c-3.5,0-5.8-2.4-5.9-5.9c0-1.4,0-2.8,0-4.2v-3.5c0-1.3,0-2.7,0-4c0-0.4,0-0.6-0.5-1
		c-4.1-4.1-5.4-9.1-3.7-14.5c1.6-5.1,5.2-8.4,10.4-9.6c1-0.2,2.1-0.4,3.2-0.4c5.3,0,10.1,2.9,12.6,7.7c3,5.6,1.8,12.3-2.8,16.8
		c-0.3,0.3-0.4,0.5-0.4,1.1c0,3.6,0,7.3,0,10.9c0,4.4-2.2,6.5-6.6,6.5h-3.7C390.9,570.5,390,570.5,389.1,570.5z M395.9,545.7
		c1.8-1.1,2.5-3.5,1.6-5.8c-0.7-1.9-2.8-3.4-4.9-3.4h-0.2c-2.3,0.1-4.3,1.7-4.9,3.9c-0.6,2.4,0.3,4.5,2.5,5.9
		c1.5,0.9,0.6,5.3,2.3,5.3C394.6,551.6,393.2,547.3,395.9,545.7z"/>
	<g>
		<path class="st3" d="M435.7,739.6c-1.4-0.1-2.7-0.2-4.1-0.4c-13.1-1.9-22.6-9-27.7-21.2c-8.3-20,3.7-42.4,24.8-46.9
			c18.8-4,37.3,8.3,41,27.3s-9,37.5-28,40.6c-1.9,0.3-3.7,0.4-5.6,0.7C436,739.6,435.8,739.6,435.7,739.6z M435.9,737.9
			c18,0.1,33-14.9,33-33c-0.1-18.2-14.9-33-33.1-33c-18.1,0-32.9,14.9-32.8,33C403,723.2,417.7,737.9,435.9,737.9z"/>
		<path class="st3" d="M435.9,737.9c-18.2,0-32.9-14.6-33-32.9c-0.1-18.1,14.8-33,32.8-33c18.3,0,33.1,14.7,33.1,33
			C468.9,723,453.9,738,435.9,737.9z M438.8,688.6c0.3-1.7,0.2-3.3,0.8-4.7c1-2.3,0.6-3-1.1-4c-1.7-1.1-5.6,0.6-5.4,3.1
			c0.2,1.9-0.1,3.8,0.1,5.7c0.1,1.2-0.4,1.7-1.4,2.2c-1.9,1.1-3.9,2.2-5.5,3.8c-2.8,2.7-2.1,6.8,1.2,8.8c0.6,0.4,1.3,0.8,2,1
			c2.2,0.5,3.5,1.6,3,4.1c-0.1,0.3,0.1,0.6,0.1,1c-2.7,0.2-5.1-0.2-7.1-2.1c-1-0.9-2.2-1.4-3.6-1.2c-1.5,0.2-3,1.2-3.1,2.3
			c-0.2,1.5,0.9,2.3,2,2.8c1.9,0.8,3.9,1.5,5.9,2c1.9,0.4,3.9,0.5,5.7,0.7c0.4,2.5,0.8,5,1.4,7.5c0.4,1.8,0.5,1.8,2.3,1.7
			c1.4-0.1,2-0.6,2.1-1.9c0.1-1,0-1.9-0.1-2.9c-0.1-1.7-0.3-3.5-0.4-5.2c1-0.4,1.9-0.7,2.8-1s1.8-0.6,2.6-0.9
			c2.1-0.8,3.5-2.8,3.3-4.7c-0.1-1.9-1.5-3.2-3.8-3.8c-1.3-0.3-2.6-0.8-3.9-1c-0.9-0.2-1-0.6-0.9-1.4c0.2-1.7,0.3-3.5,0.4-5.2
			c0.1-1,0.4-1.5,1.5-1.4c2.1,0.3,4.1,0.1,6-0.9c1.7-0.9,1.8-2.7,0.2-3.7c-1.4-0.9-3-1.4-4.8-1.1
			C440.6,688.3,439.9,688.4,438.8,688.6z"/>
		<path class="st3" d="M447.8,669c1-2.5,2.7-4.4,4.8-5.9c4.6-3.3,9.9-5,15.4-6.2c5.4-1.1,10.9-1.4,16.3-1c7.2,0.4,14.1,1.9,20.5,5.3
			c3.1,1.6,5.8,3.6,7.4,6.8c1.6,3.2,1.1,6.4-1.2,9.1c-2.9,3.4-6.7,5.4-10.8,7c-4.9,1.8-10,2.8-15.2,3.2c-5.3,0.4-10.5,0.2-15.7-0.7
			c-0.4-0.1-0.8-0.5-1-0.8c-1.8-3-3.9-5.8-6.5-8.2c-3.7-3.6-8-6.3-12.9-8C448.7,669.3,448.3,669.1,447.8,669z"/>
		<path class="st3" d="M512.9,707.6c0.6,1.4,0.4,2.8-0.1,4.1c-1,3-3.1,5-5.6,6.7c-4.5,3.1-9.6,4.6-14.9,5.7
			c-5.1,1-10.2,1.3-15.3,1.1c-2.8-0.1-5.6-0.6-8.6-0.9c0.4-0.7,0.7-1.2,0.9-1.7c0.8-1.7,1.5-3.3,2.2-5c0.2-0.6,0.6-0.7,1.2-0.7
			c3.9,0.2,7.8,0.5,11.7,0.4c6.9-0.3,13.5-1.6,19.9-4.4C507.4,711.5,510.3,710,512.9,707.6z"/>
		<path class="st3" d="M513,682.3c0.8,2.7,0,4.9-1.5,7c-2.4,3.3-5.9,5.3-9.6,6.8c-5.1,2.1-10.4,3.4-15.8,3.6
			c-4.1,0.2-8.3,0.2-12.4,0.3c-0.7-3-1.4-5.6-2.1-8.2c2.2,0.1,4.6,0.3,7,0.4c2.5,0,5,0.2,7.5-0.2c3.8-0.5,7.5-1.1,11.3-2
			c5.2-1.2,10.1-3.1,14.3-6.5C511.9,683.1,512.4,682.8,513,682.3z"/>
		<path class="st3" d="M473.2,712.3c0.3-2.7,0.5-5.2,0.7-7.7c13.9,1,27.3-0.7,39-9.4c0.4,0.5,0.5,1.8,0.2,2.9
			c-0.6,2.9-2.4,5-4.6,6.7c-4.9,3.8-10.7,5.7-16.8,6.8c-4.3,0.8-8.5,1.2-12.9,1.1C477,712.6,475.1,712.4,473.2,712.3z"/>
		<path class="st3" d="M432.8,695.7c0,1.6,0,3.1,0,4.7c-0.9-0.4-2-0.6-2.2-1.7C430.4,697.1,431.5,696.4,432.8,695.7z"/>
		<path class="st3" d="M437.8,706.5c1.9,0.3,2.1,0.5,2,1.7s-0.2,1.2-2,1.3C437.8,708.5,437.8,707.5,437.8,706.5z"/>
	</g>
	<path class="st3" d="M247.9,410.8c0,0-35.3-2.7-38.9,29C209.1,439.9,219.3,411.2,247.9,410.8z"/>
	<path class="st3" d="M894.9,799.5c0,0,35.3,2.7,38.9-29C933.8,770.4,923.6,799.1,894.9,799.5z"/>
</g>
</svg>
