<?xml version="1.0" encoding="utf-8"?>
<!-- Generator: Adobe Illustrator 20.1.0, SVG Export Plug-In . SVG Version: 6.00 Build 0)  -->
<svg version="1.1" id="Layer_1" xmlns="http://www.w3.org/2000/svg" xmlns:xlink="http://www.w3.org/1999/xlink" x="0px" y="0px"
	 viewBox="0 0 1206 1260" style="enable-background:new 0 0 1206 1260;" xml:space="preserve">
<style type="text/css">
	.st0{fill:#A7A7AB;}
	.st1{fill:#3DA7C3;}
	.st2{fill:#FFFFFF;}
	.st3{enable-background:new    ;}
	.st4{fill:#C8C9CB;}
	.st5{fill:#939498;}
	.st6{fill:#D4D5D7;}
	.st7{fill:#191919;}
	.st8{fill:#757575;}
	.st9{fill:#D3AA68;}
	.st10{fill:#BA9156;}
	.st11{fill:#939496;}
	.st12{fill:#7E390F;}
	.st13{fill:#58585A;}
	.st14{fill:#B55626;}
	.st15{fill:#282618;}
	.st16{fill:#808080;}
	.st17{fill:#A2C2CC;}
	.st18{opacity:0.2;fill:#FFFFFF;enable-background:new    ;}
	.st19{fill:#B3B3B3;}
	.st20{fill:#999999;}
	.st21{fill:#CEE9F4;}
	.st22{fill:#F3FDFF;}
	.st23{fill:#CECECE;}
	.st24{fill:#A5A5A5;}
	.st25{fill:#B7B7B7;}
	.st26{fill:#020202;}
	.st27{fill:#E3F6FC;}
	.st28{fill:#FF9D00;}
	.st29{fill:#B1D3DD;}
	.st30{fill:#442E01;}
	.st31{fill:#261800;}
	.st32{fill:#A3B8C6;}
	.st33{fill:#DFEBF7;}
	.st34{fill:#8CA3AF;}
	.st35{fill:#F1F6FA;}
	.st36{fill:#FFF3BF;}
	.st37{fill:#FFDD84;}
	.st38{fill:#F2CC79;}
	.st39{fill:#FEE69E;}
	.st40{fill:#2B9FE0;}
	.st41{fill:#FFCCD3;}
	.st42{fill:#FFE3E8;}
	.st43{fill:#FFABB9;}
	.st44{fill:#FF9FB4;}
	.st45{fill:#FF7885;}
	.st46{fill:#FF5F76;}
	.st47{fill:#FF273C;}
	.st48{fill:#FF4560;}
</style>
<g>
	<path class="st0" d="M1103,1192c-90.5,59.2-890.8,50-985.1-6.2C23.6,1129.7,40,172.6,99.3,88.2C158.7,3.9,1008.7,30,1119,89.7
		C1206.6,137.2,1193.4,1132.8,1103,1192z"/>
	<path class="st1" d="M1076.5,1175.3c-90.5,59.2-890.8,50-985.1-6.2C-2.9,1113,13.5,156,72.8,71.6s909.4-58.2,1019.6,1.5
		C1180.1,120.5,1166.9,1116.1,1076.5,1175.3z"/>
	<path class="st2" d="M1019.5,1174.5c0,0,56.3,7.3,64.6-43.3C1084.1,1131.2,1065.4,1176.2,1019.5,1174.5z"/>
	<path class="st2" d="M133.7,57.3c0,0-56.7,2.8-55.9,54.1C77.8,111.4,88.2,63.8,133.7,57.3z"/>
	<path class="st2" d="M1070.5,937.4c-26.2,9.3-961.1,0.7-980.7-3.4c-19.6-4-26.4-744.6,28.2-822.1c54.5-77.6,831.4-53.4,932.8,1.5
		C1131.3,157,1096.7,928.1,1070.5,937.4z"/>
	<g class="st3">
		<path class="st2" d="M375.5,1116.1l0.2-13.7c0-13.7-0.7-29.4-2.1-47.1c-0.7-19.7-1.5-32.8-2.5-39.3c0-2.6,0.9-4.8,2.6-6.7
			c1.8-1.9,3.7-2.9,6-2.9c2.8,0,4.7,1.8,5.6,5.3c1.8,11.2,2.9,28,3.5,50.5c10.3-9.5,18.3-17.6,24.2-24.5c5.8-6.9,12-15.8,18.6-26.8
			c1.9-3.2,4.6-4.7,8.2-4.7c1.9,0,3.4,0.5,4.6,1.5s1.8,2.2,1.8,3.6c0,1.4-0.4,3-1.2,4.7c-6.5,10.9-12.1,19.2-16.6,25.1
			s-8.8,11.3-13.1,16.2c5,5,9.8,10.7,14.4,17.2c4.6,6.4,8.1,12,10.8,16.8c2.6,4.8,6.1,11.4,10.4,19.8c0.1,0.5,0.2,1.5,0.2,3.2
			c0,1.6-0.7,3.4-2.1,5.2c-1.4,1.8-3.1,2.7-5.1,2.7s-3.7-0.8-5.3-2.5c-8.1-16.1-13.7-26.5-16.8-31c-6.3-9.3-12.2-16.5-17.7-21.6
			c-6.5,6.3-11.5,10.7-14.7,13.1c0.2,3.7,0.4,7.7,0.4,11.7c0,4.1,0,7.2,0,9.4c0,2.2,0,3.8,0,5s-0.1,2.7-0.2,4.6
			c-0.2,2.7-1,5.3-2.4,7.7c-1.3,2.5-3.7,3.7-6.9,3.7C377.2,1122.2,375.5,1120.1,375.5,1116.1z"/>
		<path class="st2" d="M465.3,1008.1c1.5-1.4,2.8-2.2,3.9-2.4s1.7-0.3,1.9-0.3c5.4,0.9,8.5,2.7,9.3,5.3c0.5,1.3,0.7,3.1,0.7,5.5
			s-1,4.9-3,7.5s-4.2,3.9-6.6,3.9s-4.5-1.1-6.2-3.4s-2.6-5.2-2.6-8.8C462.6,1011.8,463.5,1009.4,465.3,1008.1z M479.5,1053
			l-0.4,11.2l-0.4,39.3c0,5.5,0.1,9.5,0.2,11.9c-0.4,2.2-1.3,4.1-2.8,5.7s-3.3,2.4-5.3,2.4s-3.6-1.5-4.7-4.4
			c-0.1-3-0.3-7.3-0.6-12.9c-0.3-5.5-0.6-12.2-1-20s-0.5-15.5-0.5-23.1c0-7.7,0.2-14.5,0.5-20.4c0.2-2.1,1.6-3.2,4.2-3.2
			C475.9,1039.5,479.5,1044,479.5,1053z"/>
		<path class="st2" d="M525.7,1002.5l-0.9,21.2c0,1.4,0.2,7,0.7,16.6c7,0,13.8-0.2,20.5-0.7c3.5,0.8,5.3,2.9,5.3,6.1
			c0,3.3-1.2,5.6-3.5,7s-4.7,2.2-7,2.3c-2.3,0.1-4.1,0.2-5.4,0.2c-1.3,0-2.9,0-4.9-0.1s-3.4-0.1-4.4-0.1c0.1,1.1,0.3,4.3,0.5,9.7
			c0.2,5.4,0.4,9,0.5,10.6c0.9,15.9,2.3,28.8,4,38.7c-0.5,2.2-1.5,4.2-3.2,5.9c-1.7,1.7-3.6,2.5-5.6,2.5s-3.6-1.4-4.6-4.2
			c-1.8-10.4-3-22.8-3.6-37.1c-0.6-14.4-1-23-1.1-25.9c-1.6,0.1-4.5,0.2-8.6,0.2s-7.4-0.3-9.8-1.1c-2.8-0.6-4.2-2.3-4.2-5.1
			c0-5.8,3.4-8.8,10.2-8.8l8.4,0.2c1.4,0,2.5-0.1,3.3-0.2c-0.5-11.8-0.7-17.8-0.7-18c0-0.8,0.1-2.6,0.2-5.4
			c0.1-2.8,0.3-6.9,0.5-12.4c0.5-2,1.6-3.7,3.3-5.1c1.8-1.4,3.5-2.1,5.3-2.1C523.5,997.4,525.1,999.1,525.7,1002.5z"/>
		<path class="st2" d="M608.6,1043.7c1.5,0.9,2.3,2,2.3,3.3c0,2.3-0.6,5-1.9,7.9c-1.3,2.9-3.1,4.4-5.4,4.4c-1.1,0-3.3-0.7-6.7-2
			s-5.8-2-7.2-2c-6.5,0-12.3,2.4-17.2,7.3c-4.9,4.8-7.4,11.3-7.4,19.5c0,8.1,1.3,14.3,3.8,18.5s7.1,6.3,13.8,6.3
			c3.6,0,8.2-1.5,13.8-4.5c5.5-3,9.2-4.5,10.9-4.5s3,0.5,3.9,1.4s1.4,2.1,1.4,3.5c0,2.9-1.8,5.9-5.4,9c-3.6,3.1-8,5.6-13.1,7.6
			s-9.9,3-14.2,3c-9.5,0-16.8-3.7-22.1-11.1s-7.9-17.4-7.9-30.1c0-8.1,2.1-15.3,6.4-21.6c4.3-6.4,9.6-11.1,15.9-14.3
			c6.3-3.2,13.1-4.7,20.5-4.7S605.3,1041.6,608.6,1043.7z"/>
		<path class="st2" d="M679.2,1079.8c0,7.2-0.3,14.3-1,21.2c-0.6,6.9-1.1,11.5-1.2,13.7c-0.2,2.2-1.2,4.1-3.2,5.5
			c-1.9,1.5-3.8,2.2-5.5,2.2c-3.3,0-4.9-1.5-4.9-4.6v-1.1l1.1-31v-8.9c0-11-2.3-17.8-7-20.5c-2.1-1.3-4.8-1.9-8.1-1.9
			c-9.6,0-14.4,3.7-14.4,11.2c0,8.8,0.2,16.2,0.6,22.2c0.4,6,0.6,11.2,0.6,15.4c0,4.3-0.1,8.3-0.2,12l-0.3,0.7
			c-0.6,1.8-1.7,3.3-3.4,4.6c-1.7,1.3-3.4,2-5,2c-3.3,0-5-1.5-5.3-4.6h-0.5c0-17.4-0.8-36.5-2.3-57.4s-2.4-39.7-2.6-56.7
			c0.6-2.7,2.2-4.8,4.9-6.3c0.9-0.5,2.1-0.7,3.5-0.7s2.7,0.7,3.8,2.2s1.9,3.8,2.3,7.1c0.4,3.3,0.6,6.6,0.7,9.9
			c0.1,3.3,0.1,7.9,0.3,13.6c0.1,5.7,0.4,10.7,0.7,15.1c5.7-3,11.4-4.6,17.1-4.6c5.7,0,10.2,0.8,13.6,2.5c6.2,3,10.4,8.2,12.5,15.4
			C678.1,1065.3,679.2,1072.5,679.2,1079.8z"/>
		<path class="st2" d="M733.8,1046.5c5.8,3.5,8.7,7.9,8.7,13.1s-2.7,10.4-8.1,15.6c-5.4,5.2-11.9,8.3-19.5,9.4
			c-0.7,0.1-1.3,0.2-1.7,0.3c-0.4,0.1-1,0.1-1.7,0.2s-1.3,0.1-1.7,0.1s-1,0-1.8,0.1s-1.3,0.1-1.7,0.1s-1,0-1.9,0s-1.6,0-1.9,0
			c1.3,9.1,3,15.1,5.3,18c3.4,2.6,6.2,4,8.6,4.4c5.8,0,11.2-2.5,16.2-7.4s8.6-7.4,11-7.4c0.8,0,2.2,0.8,4.1,2.5
			c1.9,1.7,2.9,3.4,2.9,5s-1.1,3.6-3.2,6c-2.1,2.3-4.7,4.8-7.9,7.3s-7,4.7-11.7,6.6c-4.6,1.9-8.9,2.8-12.9,2.8s-7.5-0.9-10.5-2.8
			c-5.4-3.4-9.5-9.1-12.4-17.2s-4.3-16.6-4.3-25.5s2-17,6-24.3c4.3-8.1,11.8-12.1,22.4-12.1C722.2,1041.2,728,1043,733.8,1046.5z
			 M727.1,1060.7c0-4.9-3.3-7.4-9.8-7.4c-4.4,0-8.2,2.5-11.4,7.5c-1.1,1.5-1.8,3.3-2.2,5.4s-0.8,4.3-1.1,6.5
			C718.9,1072.8,727.1,1068.7,727.1,1060.7z"/>
		<path class="st2" d="M803.5,1116.8l0.2-9.1c0-1.4,0-3.2-0.1-5.5s-0.1-4.9-0.2-7.9c-0.1-3-0.2-6-0.4-8.9c-0.2-3-0.6-5.8-1.1-8.5
			c-0.7-5.4-2.1-9.9-4.1-13.5s-4.6-5.4-7.6-5.4s-5.5,0.5-7.5,1.6s-3.6,2.7-4.7,4.9c-2.6,4.6-4.1,9.5-4.6,14.7
			c-0.5,5.3-0.7,10.9-0.7,16.8l-0.5,18.9c0,2.5-0.9,4.4-2.7,5.7c-1.8,1.3-3.9,2-6.2,2c-2.9,0-4.4-1.9-4.4-5.6c0-9.7-0.3-21.6-1-35.7
			c-0.6-14.1-1-25.9-1-35.4c0.6-2,1.5-3.7,2.9-5.3c1.3-1.5,2.7-2.3,3.9-2.3c1.3,0,2.3,0.1,3,0.3c0.7,0.2,1.3,0.5,1.7,1
			s0.8,0.9,1.1,1.3s0.5,1.1,0.7,2.2s0.3,1.9,0.4,2.6c0.1,0.7,0.1,1.8,0.2,3.4c0.1,1.6,0.1,2.8,0.3,3.8c6.3-8.3,14.2-12.4,23.7-12.4
			c6.5,0,11.4,3,14.5,8.9c4.8,8.9,7.2,22.4,7.2,40.7l0.4,16.5c0,4.4-0.2,7.4-0.7,8.8c-0.5,1.5-1.1,2.7-1.8,3.8
			c-1.2,2.2-3.3,3.3-6.5,3.3C804.9,1122.4,803.5,1120.5,803.5,1116.8z"/>
	</g>
</g>
<g>
	<path class="st4" d="M669.1,835.3c0,0-17.9-165.1,40.7-175.6c58.5-10.6,69.9,94.3,69.9,116.3s10.6,113,10.6,113L669.1,835.3z"/>
	<polygon class="st5" points="711.3,722.7 715,824.7 728,827.6 726.8,722.3 	"/>
	<path class="st6" d="M691,780c-10.4-43.3,1-91.9,8.4-116.5c-46,27.2-30.3,171.8-30.3,171.8L790.2,889c0,0-2-11.6-4.2-34
		C729.4,866.5,704.4,835.9,691,780z"/>
	<path class="st4" d="M709.7,659.7c58.5-10.6,69.9,94.3,69.9,116.3s10.6,113,10.6,113l195.1-96.8c0,0,0.8-85.4-8.9-123.6
		c-9.8-38.2-18.7-64.2-82.9-76.4L709.7,659.7z"/>
	<path class="st6" d="M985.4,785.6C847.8,837.1,821.9,828,821.9,828s-13-4.9-20.3-98.4c-4.6-58.4-40.5-74.9-66.9-79.1l-25,9.2
		c58.5-10.6,69.9,94.3,69.9,116.3s10.6,113,10.6,113l195.1-96.8C985.3,792.2,985.4,789.8,985.4,785.6z"/>
	<path class="st7" d="M789.8,884.1l0.4,19.5c0,0-114.6-45.9-120.7-48.8c-6.1-2.8-15.4-8.5-10.6-16.7c4.9-8.1,16.7-4.1,16.7-4.1
		l100,43.8L789.8,884.1z"/>
	<path class="st7" d="M789.8,884.1l0.4,19.5l208.5-92.7c0,0,0.5-13.2-13.4-19.3L789.8,884.1z"/>
	<path class="st5" d="M752.4,646.7c0,0-6.9,7.3-2.4,12.2s10.2,1.2,21.9-2.4c11.8-3.7,133.7-48.8,133.7-48.8s1.6-7.7-11.4-8.5
		L752.4,646.7z"/>
	<path class="st8" d="M771.9,656.4c10.9-3.4,115.3-42,131.5-48c-3-1-7.2-1.6-12.8-0.4c-13.8,2.8-121.6,43.1-130.1,45.1
		c-5.1,1.2-6.3-3.3-6.4-7.1l-1.7,0.6c0,0-6.9,7.3-2.4,12.2C754.4,663.8,760.1,660.1,771.9,656.4z"/>
	<path d="M790.2,903.2c-21.5-16.5-88.7-40.1-107.3-50.4c-12.2-6.8-16.4-14-17.8-19.2c-2.4,0.6-4.7,2-6.2,4.6
		c-4.9,8.1,4.5,13.8,10.6,16.7c6.1,2.8,120.7,48.8,120.7,48.8V903.2z"/>
	<path class="st9" d="M763,653.6l-20-49.2c0,0-26.4-22-15.9-41.5c10.6-19.5,40.6-49.2,81.3-58.5c40.6-9.4,72.4,11.4,77.6,21.5
		c5.3,10.2,15.4,19.9-4.9,37l8.1,47.6L763,653.6z"/>
	<path class="st10" d="M774.3,593c-4.9-21.1-11.8-10.2-19.1-30.1c-4.3-11.7,4.8-29.1,12.9-41.4c-19.9,12.7-34.3,29.1-41,41.4
		c-10.6,19.5,15.9,41.5,15.9,41.5l19.9,49.2l32.9-11.2C775.4,633.1,778.6,611.6,774.3,593z"/>
	<path class="st11" d="M708.9,703.6c0,0-18.9,7.3-14.2,15s27.8-2.2,34.6-7.5L708.9,703.6z"/>
	<path class="st12" d="M772.8,650.3L750,593.4c0,0,1.2-2.4-14.2-6.9c-8.1-2.3-9.8-12.2-9.6-21.2c-7.3,18.9,17,39,17,39l19.9,49.2
		L772.8,650.3z"/>
	<polygon class="st5" points="788.6,669.7 794.5,681.6 929,633.4 923.6,624.7 	"/>
	<path class="st13" d="M729.2,711.1c-6.7,5.3-29.9,15.2-34.6,7.5c0,0-2.2,10.6,3.5,12s21.1,2.2,32.7-5.5L729.2,711.1z"/>
	<polygon class="st14" points="841.4,557.7 843.7,560.5 852,564 851.6,561.1 	"/>
	<polygon class="st14" points="784.5,549.9 786.3,554 794.5,547.7 	"/>
	<polygon class="st14" points="802.6,584.3 803,583.3 807.1,587.9 802.6,585.3 	"/>
	<polygon class="st14" points="849.6,596.1 855.4,590.4 855.4,594.2 	"/>
	<polygon class="st14" points="800,613.1 806.9,613.1 803.8,616 	"/>
	<polygon class="st14" points="762.9,578.3 767,577.3 771.2,577.7 766.6,581.4 	"/>
	<polygon class="st14" points="813.8,552.4 820.7,555 816.2,550.7 	"/>
	<polygon class="st14" points="827,524.9 828,527 832.9,526.6 	"/>
	<polygon class="st14" points="855.4,526.4 856.3,529.4 862.8,529.8 	"/>
	<polygon class="st14" points="827.4,575.9 830.9,575.5 832.5,583.8 	"/>
	<polygon class="st14" points="803.1,518.5 805.3,518.7 806.1,523.2 	"/>
</g>
<g>
	<path class="st15" d="M920.6,479c0,3.1-2.5,5.5-5.5,5.5h-8.3c-3.1,0-5.5-2.5-5.5-5.5v-5.5c0-3.1,2.5-5.5,5.5-5.5h8.3
		c3.1,0,5.5,2.5,5.5,5.5V479z"/>
	<path class="st15" d="M1036.6,472.8c0,3.1-2.5,5.5-5.5,5.5h-8.3c-3.1,0-5.5-2.5-5.5-5.5v-5.5c0-3.1,2.5-5.5,5.5-5.5h8.3
		c3.1,0,5.5,2.5,5.5,5.5V472.8z"/>
	<path class="st16" d="M882.4,409.3c0,0,5.1-88.7,72.4-95.2c67.4-6.5,84.4,69.3,85.8,96.1c1.4,26.8,0.9,53.6,0.9,53.6
		s-82.1,32.3-157.8,3.7C883.7,467.5,881.9,432.4,882.4,409.3z"/>
	<path class="st17" d="M1010,164.1c0,0,35.2-7.6,41.4,38.7c6.2,46.3,6.2,71.8,0.7,78c-5.5,6.2-39.4,17.3-60.1,13.1l5.5-11.7
		c0,0,27.6,0,36.6-7.6s4.1-69.1-1.4-78.7c-5.5-9.7-11.1-17.3-29-6.2C985.9,200.7,989.3,160.7,1010,164.1z"/>
	<path class="st18" d="M1041.5,463.8c0,0,0.1-3.4,0.1-8.8c-142.7,22.3-130.7-4-134.8-50.3c-2.7-30.9,15.6-65.6,28.6-85.9
		c-49,19.7-53.1,90.5-53.1,90.5c-0.5,23.1,1.4,58.2,1.4,58.2C959.4,496.1,1041.5,463.8,1041.5,463.8z"/>
	<ellipse class="st19" cx="960.5" cy="399.6" rx="42" ry="42.1"/>
	<ellipse class="st20" cx="960.5" cy="399.6" rx="26.2" ry="26.2"/>
	<ellipse class="st19" cx="964.2" cy="394.2" rx="18.1" ry="17.1"/>
	
		<rect x="953.1" y="390.5" transform="matrix(0.3663 -0.9305 0.9305 0.3663 243.5843 1147.2703)" class="st20" width="22" height="8.7"/>
	<path class="st21" d="M1012.1,136.9c-3.1,19-109.5,30.4-153,2.1c0,0,18.8,14.4,16.5,32.3c-2.3,18,2.3,77.8,7.8,93.9
		s27.2,50.2,42.4,58.5c0,0,45.6,2.8,64-4.1c0,0,25.3-43.3,27.2-93.9c1.8-50.6,5.1-97.1-5-91.1L1012.1,136.9z"/>
	<path class="st22" d="M962.5,312.3c-20.9-8.5-41.4-30.6-49.7-54.9c-9.8-28.8-8.9-80.6-8-103.6c-9.5-1.3-18.7-3.3-26.9-6.1
		c4,8.1,8,19.3,7.8,31.9c-0.5,24.9-4.1,99.9,34.5,127.5C935.6,318.1,950.2,318,962.5,312.3z"/>
	<path class="st23" d="M859.1,138.9c0,0,21.4-3.8,32.1-11.4c10.7-7.6,124-9.7,120.9,9.3C1009,155.9,902.6,167.3,859.1,138.9z"/>
	<path class="st24" d="M894.7,128.2c0,0,38,21.9,94.2,1.6c0,0-7.8-13.4-13.8-15.4c0,0-21.2-5.8-64-1.2
		C911,113.3,903.7,116.3,894.7,128.2z"/>
	<ellipse class="st23" cx="940.7" cy="105.5" rx="20.8" ry="4.9"/>
	<path class="st25" d="M933,105.1c-0.9-1-0.2-2.7,0.7-4.2c-8.1,0.7-13.8,2.5-13.8,4.6c0,2.7,9.3,4.9,20.8,4.9
		c11.1,0,20.2-2.1,20.8-4.7C946.7,109.8,934.7,106.9,933,105.1z"/>
	<path class="st23" d="M961.5,105.5c0,2.7-9.3,4.9-20.8,4.9s-20.8-2.2-20.8-4.9l0.3,17.2c0,0,21.9,6.7,42-1.6L961.5,105.5z"/>
	<path class="st25" d="M962.2,121.2l-0.1-3.4c-12.3,1.9-28.1,2.7-30.2,0.6c-1.1-1.1-1.9-4.7-2.5-8.7c-5.7-0.9-9.5-2.4-9.5-4.1
		l0.3,17.2C920.3,122.7,942.2,129.4,962.2,121.2z"/>
	<path class="st26" d="M965.1,181.1c-49.6,2.6-67.2-17.9-73.1-29.5c-4.9-1.1-9.6-2.3-14.1-3.8c3.8,7.7,7.6,18.3,7.7,30.1
		C903.7,182.8,931.5,187.1,965.1,181.1z"/>
	<path class="st27" d="M997.6,266.6c4.4-22.2,6.7-94.8,11.1-124.6c-16.4,13.5-86.5,20.6-130.7,5.7c4,8.1,8,19.3,7.8,31.9
		c-0.5,24.9-4.1,99.9,34.5,127.5C958.9,334.7,992.5,292.4,997.6,266.6z"/>
	<path class="st2" d="M995.9,186.1c0,0,10.8,47.7-8.5,60.1c0,0-3-3.7-3.5-22.3s-4.6-32.9-0.7-35.7
		C987.2,185.4,993.2,182.6,995.9,186.1z"/>
	<path class="st28" d="M997.6,266.6c2-10.2,3.6-31.3,5.1-53.8c-53.5,19.4-101.5,7.7-117,2.9c1.5,32,8.2,72.7,34.5,91.5
		C958.9,334.7,992.5,292.4,997.6,266.6z"/>
	<rect x="956.9" y="189" class="st29" width="25.3" height="4.1"/>
	<rect x="956.9" y="215" class="st29" width="25.3" height="4.1"/>
	<rect x="956.9" y="239.2" class="st29" width="25.3" height="4.1"/>
	<rect x="956.9" y="262" class="st29" width="25.3" height="4.1"/>
	<path class="st24" d="M878,147.7c3.8,7.7,7.6,18.3,7.7,30.1c24.9,6.9,68.4,12.5,120.2-8.6c0.9-10.7,1.8-20.2,2.8-27.2
		C992.3,155.5,922.2,162.5,878,147.7z"/>
</g>
<g>
	<rect x="419.1" y="844.1" class="st30" width="33.2" height="28.4"/>
	<path class="st31" d="M432.3,844.1h-13.2v28.4h17.4C429.5,863,430.5,851.4,432.3,844.1z"/>
	<rect x="200.3" y="844.1" class="st30" width="33.2" height="28.4"/>
	<path class="st31" d="M213.5,844.1h-13.2v28.4h17.4C210.7,863,211.8,851.4,213.5,844.1z"/>
	<polygon class="st32" points="157.8,378 158.7,428.7 452.7,422.1 452,367.2 	"/>
	<path class="st33" d="M469.5,372.6c0.2,12.3-8.8,22.4-20.1,22.6L159.6,399c-11.3,0.1-20.6-9.7-20.7-22l-2.8-213.6
		c-0.2-12.3,8.9-22.4,20.1-22.6L446,137c11.3-0.1,20.5,9.7,20.7,22L469.5,372.6z"/>
	<path class="st33" d="M480.1,811.9c0.3,21.2-8.8,38.5-20.2,38.7l-293.7,3.8c-11.4,0.1-20.9-16.9-21.2-38.1l-4.8-367.7
		c-0.3-21.2,8.8-38.5,20.2-38.7l293.7-3.8c11.4-0.1,20.9,16.9,21.2,38.1L480.1,811.9z"/>
	<path class="st32" d="M185,569.4c0.3,8.5-4.7,15.6-11.3,15.9l0,0c-6.6,0.3-12.2-6.4-12.5-15l-4.8-122.5
		c-0.3-8.5,4.7-15.6,11.3-15.9l0,0c6.6-0.3,12.2,6.4,12.5,15L185,569.4z"/>
	<path class="st34" d="M173.7,585.3c3.2-0.1,6.1-1.9,8.1-4.7c-19.8-27.9-17-117.6-15.4-148.4c-5.9,1.1-10.3,7.7-10,15.7l4.8,122.5
		C161.5,578.8,167.1,585.5,173.7,585.3z"/>
	<path class="st33" d="M175.9,445.9c0.2,3.6-0.3,6.5-1.1,6.6c-0.8,0-1.6-2.8-1.8-6.4s0.3-6.5,1.1-6.6S175.7,442.3,175.9,445.9z"/>
	<path class="st32" d="M181.6,369.4c0.3,6.7-4.1,12.3-9.8,12.5l0,0c-5.8,0.2-10.7-5.1-11-11.8l-4.7-96.5c-0.3-6.7,4.1-12.3,9.8-12.5
		l0,0c5.8-0.2,10.7,5.1,11,11.8L181.6,369.4z"/>
	<path class="st34" d="M171.8,381.9c2.8-0.1,5.3-1.5,7.1-3.7c-17.5-22-15.5-92.7-14.2-117c-5.2,0.8-9,6-8.7,12.3l4.7,96.5
		C161.1,376.8,166.1,382.1,171.8,381.9z"/>
	<path class="st33" d="M173.1,272.1c0.2,2.8-0.3,5.1-1,5.2c-0.7,0-1.4-2.2-1.6-5.1c-0.2-2.8,0.3-5.1,1-5.2
		C172.2,267,172.9,269.3,173.1,272.1z"/>
	<path class="st35" d="M458.1,600c0.1,7.7-6,14.1-13.7,14.2l0,0c-7.7,0.1-14.1-6-14.2-13.7L427,432.9c-0.1-7.7,6-14.1,13.7-14.2l0,0
		c7.7-0.1,14.1,6,14.2,13.7L458.1,600z"/>
	<path class="st35" d="M448.5,289.7c0.1,5.6-4.3,10.2-9.9,10.3l0,0c-5.6,0.1-10.2-4.3-10.3-9.9L426,168.7
		c-0.1-5.6,4.3-10.2,9.9-10.3l0,0c5.6-0.1,10.2,4.3,10.3,9.9L448.5,289.7z"/>
	<path class="st36" d="M333.4,191.9c0,0-72.5,25.2-102.3,19.4c0,0-4,39.2,20,75.9c23.9,36.7,54.3,67.1,54.3,67.1
		s50.6-18.4,64.3-28.7l13.5-34.2c0,0-24.9-11.4-37.9-49.1C332.3,204.5,333.4,191.9,333.4,191.9z"/>
	<polygon class="st37" points="383.3,291.3 369.7,325.5 358.4,302.3 	"/>
	<path class="st38" d="M380,299.6l3.3-8.3l-17.4,7.7C368.7,300.6,373.2,301.4,380,299.6z"/>
	<path class="st39" d="M303.4,330.6c-13.7,0.2-38.9-44.1-52.5-66.3c-8.5-13.8-11-36.8-11.7-52.3c-2.9-0.1-5.6-0.3-8-0.8
		c0,0-4,39.2,20,75.9c23.9,36.7,54.3,67.1,54.3,67.1s34.9-12.7,54.6-22.9C342.8,328.9,313.1,330.5,303.4,330.6z"/>
	<g>
		<g>
			<polygon class="st38" points="269.3,270.2 325.3,249.8 326.3,252.6 270.3,272.9 			"/>
		</g>
	</g>
	<g>
		<g>
			<polygon class="st38" points="279.5,287.6 335.5,267.2 336.5,269.9 280.5,290.3 			"/>
		</g>
	</g>
	<g>
		<g>
			<polygon class="st38" points="288.5,306.7 344.6,286.3 345.6,289.1 289.5,309.4 			"/>
		</g>
	</g>
	<g>
		<g>
			<polygon class="st38" points="299.7,328.4 355.7,308.1 356.7,310.8 300.7,331.1 			"/>
		</g>
	</g>
	<g>
		<g>
			<path class="st38" d="M250,240.2c1-0.5,2.5-1,4-1.4c2.3-0.6,3.8-0.6,5.1,0.1c1,0.5,1.8,1.5,2.1,2.8c0.6,2.2-0.4,4-2,5v0.1
				c1.4,0.1,2.5,1.1,3.3,2.7c1.2,2.1,2,3.6,2.5,4.2l-2.2,0.6c-0.4-0.4-1.1-1.7-2.2-3.6c-1.1-2.1-2.2-2.8-4.2-2.3l-2,0.5l1.9,7.1
				l-2.1,0.6L250,240.2z M254.1,247.1l2.2-0.6c2.3-0.6,3.4-2.2,2.9-4.1c-0.6-2.1-2.4-2.6-4.6-2.1c-1,0.3-1.7,0.6-2,0.8L254.1,247.1z
				"/>
			<path class="st38" d="M267.2,247c0.8,2.9,3,3.6,5.2,3c1.5-0.4,2.4-0.9,3.1-1.5l0.8,1.4c-0.7,0.5-1.8,1.3-3.7,1.8
				c-3.6,1-6.5-0.9-7.4-4.4c-1-3.6,0.4-6.9,3.8-7.9c3.8-1,5.8,2.1,6.4,4.2c0.1,0.4,0.2,0.8,0.2,1L267.2,247z M273.1,243.8
				c-0.3-1.4-1.5-3.3-3.9-2.7c-2.2,0.6-2.6,2.8-2.4,4.4L273.1,243.8z"/>
			<path class="st38" d="M288,246.9c-0.5,0.4-1.6,1.2-3.2,1.6c-3.6,1-6.5-0.9-7.5-4.5s0.8-6.9,4.7-8c1.3-0.3,2.5-0.3,3.1-0.2v1.8
				c-0.6-0.2-1.5-0.2-2.6,0.1c-2.7,0.7-3.6,3.1-3,5.6c0.7,2.7,2.9,3.9,5.3,3.3c1.2-0.3,1.9-0.9,2.5-1.3L288,246.9z"/>
			<path class="st38" d="M289,230.9c0.2,0.7-0.2,1.5-1,1.7s-1.4-0.2-1.6-1s0.2-1.5,1-1.7C288.1,229.7,288.8,230.1,289,230.9z
				 M290.6,246.6l-3.2-11.8l2.1-0.6l3.2,11.8L290.6,246.6z"/>
			<path class="st38" d="M294.2,237.2c-0.4-1.5-0.8-2.7-1.1-3.8l1.9-0.5l0.6,2h0.1c0.5-1.7,1.7-2.9,3.6-3.4c2.9-0.8,5.6,1.1,6.6,4.7
				c1.1,4.2-0.9,7-3.7,7.8c-1.6,0.4-3.1,0.1-4.1-0.9l0,0l1.7,6.4l-2.1,0.6L294.2,237.2z M297.2,239.7c0.1,0.3,0.2,0.6,0.3,0.9
				c0.8,1.4,2.4,2.1,3.9,1.6c2.3-0.6,3.1-2.8,2.4-5.5c-0.6-2.4-2.4-4.1-4.7-3.4c-1.5,0.4-2.5,1.8-2.5,3.5c0,0.3,0,0.6,0.1,0.9
				L297.2,239.7z"/>
			<path class="st38" d="M309.9,235.5c0.8,2.9,3,3.6,5.2,3c1.5-0.4,2.4-0.9,3.1-1.5l0.8,1.4c-0.7,0.5-1.8,1.3-3.7,1.8
				c-3.6,1-6.5-0.9-7.4-4.4c-1-3.6,0.4-6.9,3.8-7.9c3.9-1,5.8,2.1,6.4,4.3c0.1,0.4,0.2,0.8,0.2,1L309.9,235.5z M315.8,232.3
				c-0.3-1.4-1.5-3.3-3.9-2.7c-2.2,0.6-2.6,2.8-2.4,4.4L315.8,232.3z"/>
		</g>
	</g>
	
		<ellipse transform="matrix(3.687109e-02 -0.9993 0.9993 3.687109e-02 64.5595 484.1392)" class="st40" cx="283.4" cy="208.6" rx="14.3" ry="14.3"/>
</g>
<g>
	<path class="st41" d="M715.2,310.9c-0.2-5.8-0.3-11.1-0.3-15.8c0,0,13.8,17.8,37.5,1.5s-0.5-31.6-0.5-31.6s17.8,5.4,12.8,28.6
		c-4.9,23.2-39,23.7-47.9,18.8L715.2,310.9z"/>
	<path class="st42" d="M752.4,296.6c3-2.1,5.2-4.1,6.9-6.1c-1.3,5.3-7.4,16.9-35,24c-3.1-0.4-5.7-1.2-7.4-2.1l-1.6-1.5
		c-0.2-5.8-0.3-11.1-0.3-15.8C714.9,295,728.7,312.9,752.4,296.6z"/>
	<path class="st43" d="M751.9,264.9c0,0,24.2,15.3,0.5,31.6c0,0,5.2-18-16.8-27.4s-29.1-14.6-25.7-33.6c0,0,0.5,9.9,10.6,15.1
		C730.7,255.8,751.9,264.9,751.9,264.9z"/>
	<path class="st44" d="M753.9,275.6c-8.7-6.5-29.7-17.2-35.7-26.4c0.7,0.5,1.5,1,2.3,1.4c10.1,5.2,31.4,14.3,31.4,14.3
		s19.1,12.1,6.7,26.3C758.6,284.4,757.4,278.3,753.9,275.6z"/>
	<path class="st41" d="M709.9,235.6c0,0,0.3,6.4,5.8,11.6c0,0-8.7-14.6,39.1-15.3l-9.5-8.1l5.9-5.9
		C751.2,217.8,719.3,214.4,709.9,235.6z"/>
	<path class="st42" d="M744.4,227.7l-3.2-4.6l4.2-5.5c3.5-0.1,5.8,0.2,5.8,0.2l-5.9,5.9l9.5,8.1c-24.5,0.4-34.1,4.4-37.7,8.2
		C713.5,230.8,744.4,227.7,744.4,227.7z"/>
	<path class="st45" d="M607.5,210.4l80.8-4.4c0,0-5.9,47.4,31.9,72.6c0,0,3.7,143,19.3,177.8c0,0-82.2,30.4-161.5,3
		c0,0,12.6-169.7,7.4-180.8C585.2,278.5,617.1,268.9,607.5,210.4z"/>
	<path class="st18" d="M701.8,260.7c-7.9-11.4-11.4-23.7-12.9-33.9l4.1,240.6c4.3-0.7,8.5-1.4,12.3-2.1L701.8,260.7z"/>
	<path class="st18" d="M668.2,470.1c4.2-0.3,8.4-0.7,12.3-1.1L676,206.5l-12.3,0.7L668.2,470.1z"/>
	<path class="st18" d="M655.4,470.7L650.9,208l-12.3,0.7l4.5,262C647.3,470.8,651.4,470.8,655.4,470.7z"/>
	<path class="st18" d="M627.3,209.3L615,210l4.4,258.9c4.2,0.5,8.3,0.9,12.4,1.2L627.3,209.3z"/>
	<path class="st18" d="M606.4,252.5c-3,10-7.7,16.3-12,20.2l3.3,192.3c4.1,1,8.3,1.8,12.4,2.5L606.4,252.5z"/>
	<path class="st18" d="M713,273.1l3.2,189.9c4.8-1.1,8.9-2.2,12.3-3.2l-1.1-65.5c-5.7-52.6-7.3-115.8-7.3-115.8
		C717.5,276.8,715.1,275,713,273.1z"/>
	<path class="st46" d="M586.3,311.3c44.8-1.9,114.6,10.8,135.1,1.3c0,0,0,0,0-0.1c-0.1-1.1-0.1-2.1-0.2-3.2c0-0.3,0-0.6,0-1
		c0-0.7-0.1-1.5-0.1-2.2c0-0.4,0-0.8-0.1-1.2c0-0.7-0.1-1.3-0.1-2c0-0.3,0-0.6,0-0.9c0-0.8-0.1-1.6-0.1-2.3c0-0.1,0-0.2,0-0.3
		c-15.2-5.6-46.4-5.4-55.8-0.9c-12.3,5.9-38,5.4-47.9,3.5c-9.9-2-20.7-17.3-6.9-30.6C624,258,623,235.8,623.5,223
		c0.2-5.3,2.6-10,5.4-13.8l-21.5,1.2c9.6,58.5-22.2,68.2-22.2,68.2C586.5,281.3,586.7,293.9,586.3,311.3z"/>
	<path class="st46" d="M714.2,463.4c-3.1-5.1-13.2-10.1-43-6.3c-52.6,6.7-81.5-16.3-79.3-37s7.4-92.6,16.3-104.5
		c4.4-5.8-8.1-6.8-21.9-6.3c-1.2,51.9-8.5,150.1-8.5,150.1C630.2,477.4,683.8,470.3,714.2,463.4z"/>
	<path class="st41" d="M721.5,315.2c-0.3-5.8-0.5-11.2-0.7-15.9c-74.1,17.7-117.1,7.9-134.4,1.7c0,4.8-0.2,10.1-0.3,15.8
		C643.7,338.5,705.9,320.4,721.5,315.2z"/>
	<path class="st42" d="M663,120.7c-36.3-11.1-57.8,15.6-59.3,35.6l3.7,54.1l80.8-4.4C688.2,205.9,699.3,131.8,663,120.7z
		 M675.9,206.6l-55.8,3.1c0,0-3-7.5-5.5-38.6s16.3-43.5,29.6-43.5s23.7,7.4,29.1,22.2C678.8,164.7,675.9,206.6,675.9,206.6z"/>
	<path class="st42" d="M721.3,310.7c-95.6,21.7-117.7,4-122.8-6.2c-4.9-1.2-8.9-2.5-12.1-3.6c0,4.8-0.2,10.1-0.3,15.8
		c57.6,21.7,119.8,3.6,135.4-1.6C721.5,313.7,721.4,312.2,721.3,310.7z"/>
	<path class="st41" d="M615.1,176.2c-0.1-1.6-0.3-3.4-0.4-5.1c-2.5-31.1,16.3-43.5,29.6-43.5s23.7,7.4,29.1,22.2
		c1.1,3,1.8,7.1,2.4,11.7c6.3-40.1-41.6-45.5-56.2-27C609.4,147.4,612.3,165.9,615.1,176.2z"/>
	<path class="st41" d="M615.8,357.5l86.4-1.3c0,0,16.7,53.7-42.9,53.1C599.7,408.7,615.8,357.5,615.8,357.5z"/>
	<g>
		<path class="st2" d="M659.2,362.6v8.5h-1.1v-8.5H659.2z"/>
	</g>
	<g>
		<path class="st2" d="M648.9,395.8c-0.6,0.3-1.7,0.6-3.2,0.6c-3.4,0-5.9-2.2-5.9-6.1c0-3.7,2.5-6.3,6.3-6.3c1.5,0,2.4,0.3,2.8,0.5
			l-0.4,1.3c-0.6-0.3-1.4-0.5-2.4-0.5c-2.8,0-4.7,1.8-4.7,4.9c0,2.9,1.7,4.8,4.6,4.8c0.9,0,1.9-0.2,2.5-0.5L648.9,395.8z"/>
		<path class="st2" d="M658.3,391.8c0,3.2-2.2,4.6-4.3,4.6c-2.3,0-4.1-1.7-4.1-4.4c0-2.9,1.9-4.6,4.3-4.6
			C656.7,387.3,658.3,389.1,658.3,391.8z M651.5,391.9c0,1.9,1.1,3.3,2.6,3.3s2.6-1.4,2.6-3.3c0-1.5-0.7-3.3-2.6-3.3
			C652.3,388.5,651.5,390.2,651.5,391.9z"/>
		<path class="st2" d="M668.1,391.8c0,3.2-2.2,4.6-4.3,4.6c-2.3,0-4.1-1.7-4.1-4.4c0-2.9,1.9-4.6,4.3-4.6
			C666.4,387.3,668.1,389.1,668.1,391.8z M661.3,391.9c0,1.9,1.1,3.3,2.6,3.3s2.6-1.4,2.6-3.3c0-1.5-0.7-3.3-2.6-3.3
			C662.1,388.5,661.3,390.2,661.3,391.9z"/>
		<path class="st2" d="M671.6,391.5L671.6,391.5c0.2-0.3,0.5-0.7,0.8-1l2.5-3h1.9l-3.3,3.5l3.8,5.1h-1.9l-3-4.1l-0.8,0.9v3.2h-1.5
			v-12.6h1.5V391.5z"/>
	</g>
	<path class="st47" d="M653,284.2c0,0-11.2-8.1-13.6-9.3c-2.4-1.2-15.2-9.8-12-18.2c3.1-8.4,15.4-12.9,25.5-2.7
		c0,0,6.8-7.3,16.6-5.4c9.8,1.9,15.2,14.2,0.2,24.2C654.6,282.7,653,284.2,653,284.2z"/>
	<g>
		<g>
			<path class="st48" d="M652.7,281l1.2-0.9l0.9,1.2l-1.2,0.9L652.7,281L652.7,281z M650.2,280.8l0.8-1.2c0.5,0.3,0.9,0.6,1.2,0.8
				l0,0l-0.8,1.2C651.1,281.4,650.7,281.1,650.2,280.8L650.2,280.8z M655.1,279.2l1.2-0.9l0.9,1.2l-1.2,0.9L655.1,279.2L655.1,279.2
				z M647.7,279.1l0.8-1.2c0.4,0.3,0.8,0.6,1.2,0.8l0,0L649,280C648.6,279.7,648.2,279.4,647.7,279.1L647.7,279.1z M657.5,277.5
				l1.2-0.9l0.9,1.2l-1.2,0.9L657.5,277.5L657.5,277.5z M645.3,277.5l0.8-1.2c0.4,0.3,0.8,0.6,1.2,0.8l0,0l-0.8,1.2
				C646.1,278.1,645.7,277.8,645.3,277.5L645.3,277.5z M645.3,277.5L645.3,277.5L645.3,277.5L645.3,277.5L645.3,277.5L645.3,277.5z
				 M659.9,275.7l1.2-0.9l0.9,1.2l-1.2,0.9L659.9,275.7L659.9,275.7z M642.8,275.8l0.8-1.2c0.4,0.3,0.8,0.6,1.2,0.8l0,0l-0.8,1.2
				C643.6,276.4,643.2,276.1,642.8,275.8L642.8,275.8z M662.3,274l1.2-0.9l0.9,1.2l-1.2,0.9L662.3,274L662.3,274z M640.4,274.1
				l0.9-1.2c0.4,0.3,0.8,0.6,1.2,0.9l0,0l-0.9,1.2C641.2,274.7,640.8,274.4,640.4,274.1L640.4,274.1z M664.6,272.2l1.2-0.9l0.9,1.2
				l-1.2,0.9L664.6,272.2L664.6,272.2z M638,272.3l0.9-1.2c0.4,0.3,0.8,0.6,1.2,0.9l0,0l-0.9,1.2C638.8,272.9,638.4,272.6,638,272.3
				L638,272.3z M667,270.5l1.2-0.9l0.9,1.2l-1.2,0.9L667,270.5L667,270.5z M635.6,270.5l0.9-1.2c0.4,0.3,0.8,0.6,1.2,0.9l0,0
				l-0.9,1.2C636.4,271.1,636,270.8,635.6,270.5L635.6,270.5z M669.4,268.7l1.2-0.9l0.9,1.2l-1.2,0.9L669.4,268.7L669.4,268.7z
				 M633.3,268.6l1-1.1c0.3,0.3,0.7,0.6,1.1,1l0,0l-1,1.1C634,269.2,633.7,268.9,633.3,268.6L633.3,268.6z M671.7,266.9
				c0.3-0.3,0.7-0.6,1-1l0,0l1.1,1c-0.4,0.4-0.8,0.8-1.1,1.1l0,0L671.7,266.9L671.7,266.9z M631.3,266.1L631.3,266.1l1.3-0.7
				c0.2,0.4,0.5,0.8,0.8,1.1l0,0l-1.2,0.9C631.9,267,631.6,266.5,631.3,266.1L631.3,266.1z M673.7,264.9c0.3-0.4,0.6-0.7,0.8-1.1
				l0,0l1.2,0.8c-0.3,0.4-0.6,0.9-0.9,1.2l0,0L673.7,264.9L673.7,264.9z M630.2,263.1l1.4-0.3c0.1,0.4,0.2,0.9,0.4,1.3l0,0l-1.4,0.5
				C630.4,264.1,630.3,263.6,630.2,263.1L630.2,263.1z M675.2,262.5c0.2-0.4,0.4-0.8,0.5-1.3l0,0l1.4,0.5c-0.2,0.5-0.4,1-0.6,1.5
				l0,0L675.2,262.5L675.2,262.5z M629.9,260.4c0-0.1,0-0.3,0-0.4l0,0h1.5c0,0.1,0,0.2,0,0.4l0,0c0,0.3,0,0.7,0,1l0,0l-1.5,0.1
				C629.9,261.2,629.9,260.8,629.9,260.4L629.9,260.4z M676.1,260c0-0.3,0.1-0.6,0.1-0.9l0,0c0-0.1,0-0.3,0-0.4l0,0l1.5-0.1
				c0,0.2,0,0.4,0,0.6l0,0c0,0.4,0,0.7-0.1,1.1l0,0L676.1,260L676.1,260z M630,258.4c0.1-0.5,0.2-1,0.3-1.5l0,0l1.4,0.4
				c-0.1,0.4-0.2,0.9-0.3,1.4l0,0L630,258.4L630,258.4z M652.4,257.1c0,0-0.4-0.3-1.2-0.9l0,0l0.9-1.2c0.3,0.2,0.5,0.4,0.7,0.5l0,0
				c0.1-0.1,0.3-0.2,0.4-0.3l0,0l0,0l0.9,1.2c-0.3,0.2-0.5,0.4-0.8,0.7l0,0l-0.5,0.4L652.4,257.1L652.4,257.1z M675.4,256.2l1.3-0.8
				c0.3,0.5,0.5,1,0.7,1.5l0,0l-1.4,0.5C675.8,257,675.6,256.6,675.4,256.2L675.4,256.2z M630.9,255.4c0.2-0.5,0.4-1,0.7-1.4l0,0
				l0,0l1.3,0.7c-0.2,0.4-0.4,0.8-0.6,1.2l0,0L630.9,255.4L630.9,255.4z M654.4,254.3c0.4-0.3,0.8-0.6,1.3-0.8l0,0l0.8,1.3
				c-0.4,0.2-0.8,0.5-1.2,0.8l0,0L654.4,254.3L654.4,254.3z M648.8,254.6l0.8-1.3c0.5,0.3,0.9,0.5,1.3,0.8l0,0l-0.8,1.2
				C649.6,255.1,649.2,254.9,648.8,254.6L648.8,254.6z M673.6,254.1l1-1.1c0.4,0.3,0.8,0.7,1.1,1.1l0,0l-1.1,1
				C674.3,254.7,673.9,254.4,673.6,254.1L673.6,254.1z M657,252.7c0.5-0.2,0.9-0.5,1.4-0.7l0,0l0.6,1.3c-0.4,0.2-0.9,0.4-1.3,0.6
				l0,0L657,252.7L657,252.7z M646.2,253.2l0.7-1.3c0.5,0.2,0.9,0.5,1.3,0.7l0,0l0,0l-0.7,1.3C647.1,253.6,646.7,253.4,646.2,253.2
				L646.2,253.2z M632.4,252.7c0.3-0.4,0.7-0.8,1.1-1.2l0,0l0,0l1,1.1c-0.3,0.3-0.6,0.6-0.9,1l0,0L632.4,252.7L632.4,252.7z
				 M671.3,252.6l0.6-1.3c0.5,0.2,0.9,0.5,1.4,0.8l0,0l-0.8,1.2C672.1,253,671.7,252.8,671.3,252.6L671.3,252.6z M659.8,251.4
				c0.5-0.2,1-0.3,1.5-0.5l0,0l0.4,1.4c-0.5,0.1-0.9,0.3-1.4,0.5l0,0L659.8,251.4L659.8,251.4z M643.6,252.1l0.5-1.4
				c0.5,0.2,1,0.4,1.4,0.6l0,0l0,0l-0.6,1.4C644.5,252.4,644,252.2,643.6,252.1L643.6,252.1z M668.7,251.8l0.3-1.5
				c0.5,0.1,1,0.2,1.5,0.4l0,0l-0.4,1.4C669.6,252,669.1,251.9,668.7,251.8L668.7,251.8z M662.7,250.6c0.5-0.1,1-0.2,1.5-0.3l0,0
				l0.2,1.5c-0.5,0.1-0.9,0.1-1.4,0.2l0,0L662.7,250.6L662.7,250.6z M634.9,250.5c0.5-0.3,1-0.5,1.5-0.7l0,0l0,0l0.4,1.4
				c-0.4,0.1-0.8,0.3-1.2,0.5l0,0L634.9,250.5L634.9,250.5z M666.5,251.6c-0.2,0-0.4,0-0.6,0l0,0l-0.1-1.5c0.2,0,0.4,0,0.6,0l0,0
				c0.3,0,0.6,0,0.9,0l0,0l-0.1,1.5C667,251.6,666.7,251.6,666.5,251.6L666.5,251.6z M640.9,251.3l0.3-1.5c0.5,0.1,1,0.2,1.5,0.4
				l0,0l-0.4,1.4C641.8,251.5,641.3,251.4,640.9,251.3L640.9,251.3z M638.7,251.1c-0.2,0-0.4,0-0.6,0l0,0l-0.1-1.5
				c0.2,0,0.5,0,0.7,0l0,0c0.3,0,0.6,0,0.9,0l0,0l-0.1,1.5C639.2,251.1,638.9,251.1,638.7,251.1L638.7,251.1z M642.6,250.2
				L642.6,250.2L642.6,250.2L642.6,250.2L642.6,250.2z"/>
		</g>
	</g>
	<path class="st41" d="M586.1,316.8c0.2-5.8,0.3-11.1,0.3-15.8c0,0-13.8,17.8-37.5,1.5s0.5-31.6,0.5-31.6s-17.8,5.4-12.8,28.6
		c4.9,23.2,39,23.7,47.9,18.8L586.1,316.8z"/>
	<path class="st42" d="M548.9,302.5c-3-2.1-5.2-4.1-6.9-6.1c1.3,5.3,7.4,16.9,35,24c3.1-0.4,5.7-1.2,7.4-2.1l1.6-1.5
		c0.2-5.8,0.3-11.1,0.3-15.8C586.5,301,572.6,318.8,548.9,302.5z"/>
	<path class="st44" d="M549.4,270.9c0,0-24.2,15.3-0.5,31.6c0,0-5.2-18,16.8-27.4s29.1-14.6,25.7-33.6c0,0-0.5,9.9-10.6,15.1
		C570.7,261.7,549.4,270.9,549.4,270.9z"/>
	<path class="st43" d="M547.4,281.5c8.7-6.5,29.7-17.2,35.7-26.4c-0.7,0.5-1.5,1-2.3,1.4c-10.1,5.2-31.4,14.3-31.4,14.3
		s-19.1,12.1-6.7,26.3C542.7,290.3,543.9,284.2,547.4,281.5z"/>
	<path class="st41" d="M591.4,241.5c0,0-0.3,6.4-5.8,11.6c0,0,8.7-14.6-39.1-15.3l9.5-8.2l-5.9-5.9
		C550.2,223.7,582,220.4,591.4,241.5z"/>
	<path class="st42" d="M557,233.6l3.2-4.6l-4.2-5.5c-3.5-0.1-5.8,0.2-5.8,0.2l5.9,5.9l-9.5,8.2c24.5,0.4,34.1,4.4,37.7,8.2
		C587.9,236.8,557,233.6,557,233.6z"/>
	<path class="st47" d="M658.7,383.9c0,0-2.8-2.7-3.4-3.1c-0.6-0.4-3.8-3.3-3-6c0.8-2.8,3.9-4.3,6.4-0.9c0,0,1.7-2.4,4.2-1.8
		s3.8,4.7,0,8C659.1,383.4,658.7,383.9,658.7,383.9z"/>
	<g>
		<path class="st2" d="M659,407.3c-0.8,0-1.5,0-2.2,0l0,0l0.1-1.8c0.7,0,1.4,0,2.2,0l0,0c0.3,0,0.6,0,0.8,0l0,0c0.2,0,0.4,0,0.6,0
			l0,0v1.8c-0.2,0-0.4,0-0.6,0l0,0C659.6,407.3,659.3,407.3,659,407.3L659,407.3z M664.1,405.4c1.2-0.1,2.4-0.2,3.6-0.3l0,0l0.2,1.8
			c-1.2,0.1-2.4,0.2-3.7,0.3l0,0L664.1,405.4L664.1,405.4z M649.5,406.7l0.2-1.8c1.1,0.1,2.3,0.3,3.6,0.4l0,0l-0.1,1.8
			C651.9,407,650.6,406.8,649.5,406.7L649.5,406.7z M671.2,404.7c1.2-0.2,2.4-0.4,3.5-0.7l0,0l0.4,1.7c-1.2,0.3-2.4,0.5-3.6,0.7l0,0
			L671.2,404.7L671.2,404.7z M642.2,405.3l0.5-1.7c1.1,0.3,2.3,0.5,3.5,0.8l0,0l-0.3,1.8C644.6,405.9,643.3,405.6,642.2,405.3
			L642.2,405.3z M667.7,405.1L667.7,405.1L667.7,405.1L667.7,405.1L667.7,405.1L667.7,405.1z M678.2,403.1c1.2-0.4,2.3-0.8,3.3-1.2
			l0,0l0.7,1.7c-1.1,0.5-2.3,0.9-3.5,1.3l0,0L678.2,403.1L678.2,403.1z M646.1,404.4L646.1,404.4L646.1,404.4L646.1,404.4
			L646.1,404.4z M635.2,402.9l0.7-1.6c1,0.5,2.1,0.9,3.3,1.3l0,0l-0.6,1.7C637.4,403.9,636.3,403.4,635.2,402.9L635.2,402.9z
			 M674.7,404L674.7,404L674.7,404L674.7,404L674.7,404L674.7,404z M684.7,400.3c1.1-0.6,2.1-1.2,3-1.9l0,0l1.1,1.5
			c-1,0.7-2,1.4-3.2,2l0,0L684.7,400.3L684.7,400.3z M628.7,399.2l1.1-1.4c0.9,0.7,1.9,1.3,3,1.9l0,0l-0.9,1.6
			C630.7,400.6,629.7,399.9,628.7,399.2L628.7,399.2z M690.4,396.2c0.9-0.8,1.7-1.7,2.4-2.5l0,0l1.4,1.1c-0.8,0.9-1.6,1.9-2.6,2.7
			l0,0L690.4,396.2L690.4,396.2z M623.3,394.1l1.4-1.1c0.7,0.9,1.5,1.7,2.4,2.6l0,0l0,0l-1.3,1.3C624.9,396,624.1,395,623.3,394.1
			L623.3,394.1z M694.8,390.8c0.6-1,1.2-2,1.6-3.1l0,0l1.7,0.7c-0.5,1.1-1.1,2.2-1.7,3.3l0,0L694.8,390.8L694.8,390.8z M619.5,387.8
			l1.7-0.7c0.5,1,1,2.1,1.6,3.1l0,0l-1.6,0.9C620.5,390,620,388.9,619.5,387.8L619.5,387.8z M697.6,384.5c0.4-1.1,0.6-2.3,0.9-3.4
			l0,0l1.8,0.4c-0.2,1.2-0.5,2.4-0.9,3.6l0,0L697.6,384.5L697.6,384.5z M617.3,380.7l1.8-0.3c0.2,1.1,0.5,2.3,0.8,3.4l0,0l-1.7,0.5
			C617.8,383.1,617.5,381.9,617.3,380.7L617.3,380.7z M699.1,377.6c0.1-1.2,0.2-2.4,0.2-3.5l0,0l0,0h1.8c0,1.2-0.1,2.4-0.2,3.7l0,0
			L699.1,377.6L699.1,377.6z M616.6,373.4h1.8c0,1.1,0.1,2.3,0.2,3.5l0,0l0,0l-1.8,0.2C616.7,375.8,616.6,374.6,616.6,373.4
			L616.6,373.4z M699,367l1.8-0.2c0.1,1.1,0.2,2.4,0.3,3.6l0,0l-1.8,0.1C699.2,369.3,699.1,368.1,699,367L699,367z M616.7,369.7
			c0.1-1.3,0.2-2.5,0.4-3.6l0,0l1.8,0.2c-0.2,1.1-0.3,2.3-0.4,3.5l0,0L616.7,369.7L616.7,369.7z M697.7,360.1l1.8-0.4
			c0.2,0.8,0.5,2.1,0.8,3.6l0,0l-1.8,0.3C698.2,362.1,697.9,360.9,697.7,360.1L697.7,360.1z M617.7,362.5c0.4-1.8,0.7-2.9,0.7-2.9
			l0,0l0.2-0.6l4.3-0.1v1.8h-3c-0.1,0.5-0.3,1.2-0.5,2.2l0,0L617.7,362.5L617.7,362.5z M626.6,358.8l3.6-0.1v1.8l-3.6,0.1V358.8
			L626.6,358.8z M633.9,358.7l3.6-0.1v1.8l-3.6,0.1V358.7L633.9,358.7z M641.2,358.6l3.6-0.1v1.8l-3.6,0.1V358.6L641.2,358.6z
			 M648.5,358.5l3.6-0.1v1.8l-3.6,0.1V358.5L648.5,358.5z M655.8,358.4l3.6-0.1v1.8l-3.6,0.1V358.4L655.8,358.4z M663.1,358.3
			l3.6-0.1v1.8l-3.6,0.1V358.3L663.1,358.3z M670.4,358.2l3.6-0.1v1.8l-3.6,0.1V358.2L670.4,358.2z M677.6,358.1l3.6-0.1v1.8
			l-3.6,0.1V358.1L677.6,358.1z M684.9,357.9l3.6-0.1v1.8l-3.6,0.1V357.9L684.9,357.9z M692.2,357.8l3.6-0.1v1.8l-3.6,0.1V357.8
			L692.2,357.8z"/>
	</g>
</g>
</svg>
