<?xml version="1.0" encoding="utf-8"?>
<!-- Generator: Adobe Illustrator 21.0.0, SVG Export Plug-In . SVG Version: 6.00 Build 0)  -->
<svg version="1.1" id="Layer_1" xmlns="http://www.w3.org/2000/svg" xmlns:xlink="http://www.w3.org/1999/xlink" x="0px" y="0px"
	 viewBox="0 0 357.2 100.2" style="enable-background:new 0 0 357.2 100.2;" xml:space="preserve">
<style type="text/css">
	.st0{fill:#A7A8AC;}
	.st1{fill:#3CA7C2;}
	.st2{fill:#FFFFFF;}
</style>
<g>
	<g>
		<path class="st0" d="M351.1,62.3c-1.5,8.2-3.1,17.3-5.8,24.5c-4.4,11.8-11.3,13.1-20.1,13.3c-13.7,0.4-292-4.6-301.5-6.7
			C16.2,91.9,11.9,86.1,9.9,76c-1.7-8.4-7.1-42.4-7.2-48.5c-0.1-8,3-19.7,15.2-22c10.9-2,21.7-1.8,42.4-1.7c13.1,0,247-2,262.4-2.3
			c10.2-0.4,17.9-0.6,20.7-0.4c9.2,0.9,13.4,7.1,13.7,15.5C357.6,26.3,352.5,54.5,351.1,62.3z"/>
		<path class="st1" d="M348.4,61.3c-1.5,8.2-3.1,17.3-5.8,24.5c-4.4,11.8-11.3,13.1-20.1,13.3c-13.7,0.4-292-4.6-301.5-6.7
			C13.5,90.9,9.2,85.1,7.2,75C5.5,66.7,0.1,32.6,0,26.5c-0.1-8,3-19.7,15.2-22c10.9-2,21.7-1.8,42.4-1.7c13.1,0,247-2,262.4-2.3
			c10.2-0.4,17.9-0.6,20.7-0.4c9.2,0.9,13.4,7.1,13.7,15.5C354.9,25.3,349.8,53.5,348.4,61.3z"/>
		<path class="st2" d="M33,90.3c0,0-18.7,1.5-20.5-15.3C12.5,75,17.9,90.1,33,90.3z"/>
		<path class="st2" d="M330.9,2.1c0,0,18.6-2.4,21.3,14.3C352.2,16.3,346.1,1.5,330.9,2.1z"/>
	</g>
	<g>
		<path class="st2" d="M93.5,45.3l0.3,20.9c-0.1,0.8-0.4,1.4-1,1.9s-1.2,0.8-1.8,0.8c-1,0-1.5-0.7-1.5-2l-0.4-19.4
			c0-4.6,0.2-9.2,0.6-13.9c-3.5,0.3-6.8,0.4-10.1,0.4c-1.4,0-2-0.5-2-1.6c0-0.6,0.2-1.2,0.8-1.7c0.5-0.6,1.1-0.9,1.8-1
			c2.9,0,7-0.2,12.3-0.5c5.3-0.3,9.3-0.5,12.2-0.5c1.2,0.4,1.7,0.9,1.7,1.7c0,0.6-0.2,1.1-0.7,1.6c-0.5,0.5-1.1,0.8-1.7,1
			c-3,0-6.3,0.1-10.1,0.2C93.6,37.1,93.5,41.1,93.5,45.3z"/>
		<path class="st2" d="M110.6,61.2l0.1-1.8c0-2.5-0.2-5.2-0.6-8.1c-0.4-2.9-0.8-5.1-1.2-6.5c-0.4-1.4-0.7-2.3-0.7-2.7
			c0-0.4,0.3-0.8,0.8-1.2c0.5-0.4,1.1-0.6,1.8-0.6c0.7,0,1.2,0.3,1.6,0.8c0.4,0.5,0.6,1,0.8,1.6c0.1,0.5,0.2,1.3,0.3,2.2
			c0.1,0.9,0.1,1.5,0.2,1.8c1-2.5,2.8-4.2,5.2-5.2c1.2-0.5,2.6-0.8,4.1-0.8c3.3,0,4.9,0.8,4.9,2.5c0,1-0.5,1.8-1.6,2.4
			c-0.4,0.2-0.9,0.3-1.3,0.4l-1.7-0.2c-5,0-7.6,5-7.6,14.9l0.1,5.5l-0.1,0.1c-0.2,0.7-0.5,1.4-1.1,1.9c-0.6,0.6-1.2,0.8-1.8,0.8
			c-0.9,0-1.5-0.7-1.7-2.2C110.7,65.3,110.6,63.4,110.6,61.2z"/>
		<path class="st2" d="M129.4,43.5c0-0.8,0.2-1.4,0.7-2c0.5-0.6,1-0.8,1.7-0.8c0.7,0,1.3,0.4,1.9,1.3c1,3.1,2,5.9,3,8.5
			c1.1,2.5,2,4.8,3,7c0.9,2.1,1.6,3.7,2,4.9c0.7-2.5,1.6-6,2.8-10.6c1.1-4.6,1.9-7.8,2.5-9.7c0.2-0.9,1.1-1.3,2.6-1.3
			c0.5,0,1,0.2,1.5,0.5c0.5,0.4,0.8,0.8,0.8,1.2s0,0.9-0.1,1.3c-5.7,20.2-9.9,34.1-12.5,41.6c-0.4,1.1-1,1.6-1.9,1.6
			c-0.6,0-1.1-0.3-1.6-0.8c-0.4-0.5-0.7-1.2-0.7-2.1s0.3-2.3,0.9-4.2c0.6-1.9,1.3-4.1,2-6.4c0.8-2.3,1.3-3.9,1.5-4.8
			c-1-1.6-2.6-5.2-4.8-10.8C132.5,52.3,130.7,47.5,129.4,43.5z"/>
		<path class="st2" d="M191.3,46.1l-0.1,4.2c0,1.6-0.1,3.6-0.4,6.1c0.2,4.3,0.7,8.1,1.4,11.5c-0.1,0.4-0.4,0.8-1,1
			c-0.5,0.3-1.1,0.4-1.7,0.4c-0.6,0-1.1-0.1-1.4-0.2c-0.4-0.2-0.6-0.4-0.8-0.8c-0.1-0.3-0.2-0.6-0.3-0.9s-0.1-0.6-0.1-1
			c0-0.4,0-0.7-0.1-0.8c-1.9,2-4.3,2.9-7.3,2.9c-3,0-5.2-1.1-6.5-3.5c-1.3-2.3-1.9-5.5-1.9-9.6c0-7.2,2.1-11.8,6.2-13.8
			c1.3-0.6,2.7-0.9,4.4-0.9c1.6,0,3.2,0.3,4.8,0.8c0.5-0.7,1.2-1.1,2.2-1.1c1.7,0,2.5,1.3,2.6,3.8C191.3,45.1,191.3,45.6,191.3,46.1
			z M185.3,60.4c0.8-2.2,1.1-4.6,1.1-7.1c0-2.5-0.3-4.4-0.9-5.5c-0.6-1.2-1.7-1.8-3.2-1.8c-0.6,0-1.5,0.1-2.5,0.2
			c-1,0.1-2,1-2.9,2.7c-0.9,1.7-1.3,3.1-1.3,4.3v2.4c0,4.2,0.9,6.9,2.6,8c0.5,0.4,1.2,0.5,2.1,0.5c0.9,0,1.8-0.4,2.8-1.1
			C184.2,62.3,184.9,61.4,185.3,60.4z"/>
		<path class="st2" d="M219.7,72.3l0.1,4.7c0,2-0.2,3.5-0.5,4.4c-0.8,2.1-1.9,3.5-3.1,4.3c-1.7,1-4,1.6-6.7,1.6s-5.3-0.7-7.7-2.1
			c-1.2-0.6-1.9-1.4-1.9-2.2c0-0.9,0.2-1.6,0.7-2c0.5-0.4,1-0.6,1.7-0.6s1.9,0.4,3.7,1.3c1.8,0.9,3.4,1.3,4.7,1.3
			c2.9,0,4.3-2.3,4.3-6.9c0-4.6-0.1-7.9-0.2-10c-1.4,1.6-3.2,2.5-5.4,2.5c-2.2,0-4.1-0.7-5.8-2c-3.4-2.6-5-6.5-5-11.9
			s1.9-9.4,5.6-12c1.9-1.3,4.1-2,6.7-2c3.3,0,5.6,1.6,6.8,4.8c1,2.6,1.5,5.9,1.6,10c0,0.8,0,2.2,0,4s0,3.6,0.2,5.4
			c0.1,1.7,0.2,3.2,0.3,4.5S219.7,71.6,219.7,72.3z M214.7,56.8c0-7.5-1.8-11.3-5.5-11.3c-1.7,0-3.1,0.8-4.3,2.5
			c-1.1,1.7-1.7,3.8-1.7,6.3c0,2.5,0.5,4.6,1.5,6.1c1,1.6,2.7,2.4,5,2.4s3.7-0.5,4.2-1.6C214.5,60.3,214.7,58.8,214.7,56.8z"/>
		<path class="st2" d="M245.5,46.1l-0.1,4.2c0,1.6-0.1,3.6-0.4,6.1c0.2,4.3,0.7,8.1,1.4,11.5c-0.1,0.4-0.4,0.8-1,1
			c-0.5,0.3-1.1,0.4-1.7,0.4c-0.6,0-1.1-0.1-1.4-0.2c-0.4-0.2-0.6-0.4-0.8-0.8c-0.1-0.3-0.2-0.6-0.3-0.9s-0.1-0.6-0.1-1
			c0-0.4,0-0.7-0.1-0.8c-1.9,2-4.3,2.9-7.3,2.9c-3,0-5.2-1.1-6.5-3.5c-1.3-2.3-1.9-5.5-1.9-9.6c0-7.2,2.1-11.8,6.2-13.8
			c1.3-0.6,2.7-0.9,4.4-0.9c1.6,0,3.2,0.3,4.8,0.8c0.5-0.7,1.2-1.1,2.2-1.1c1.7,0,2.5,1.3,2.6,3.8C245.5,45.1,245.5,45.6,245.5,46.1
			z M239.6,60.4c0.8-2.2,1.1-4.6,1.1-7.1c0-2.5-0.3-4.4-0.9-5.5c-0.6-1.2-1.7-1.8-3.2-1.8c-0.6,0-1.5,0.1-2.5,0.2
			c-1,0.1-2,1-2.9,2.7c-0.9,1.7-1.3,3.1-1.3,4.3v2.4c0,4.2,0.9,6.9,2.6,8c0.5,0.4,1.2,0.5,2.1,0.5c0.9,0,1.8-0.4,2.8-1.1
			C238.5,62.3,239.2,61.4,239.6,60.4z"/>
		<path class="st2" d="M254.5,29.5c0.5-0.5,1-0.8,1.3-0.8c0.4-0.1,0.6-0.1,0.7-0.1c1.8,0.3,2.9,0.9,3.2,1.8c0.2,0.4,0.2,1.1,0.2,1.9
			c0,0.8-0.3,1.7-1,2.6c-0.7,0.9-1.4,1.3-2.2,1.3c-0.8,0-1.5-0.4-2.1-1.2c-0.6-0.8-0.9-1.8-0.9-3C253.6,30.8,253.9,29.9,254.5,29.5z
			 M259.4,44.8l-0.1,3.8l-0.1,13.4c0,1.9,0,3.2,0.1,4.1c-0.1,0.8-0.4,1.4-1,2c-0.5,0.5-1.1,0.8-1.8,0.8c-0.7,0-1.2-0.5-1.6-1.5
			c0-1-0.1-2.5-0.2-4.4c-0.1-1.9-0.2-4.2-0.3-6.8s-0.2-5.3-0.2-7.9c0-2.6,0.1-5,0.2-7c0.1-0.7,0.6-1.1,1.4-1.1
			C258.2,40.2,259.4,41.8,259.4,44.8z"/>
		<path class="st2" d="M283.9,66.7l0.1-3.1c0-0.5,0-1.1,0-1.9c0-0.8,0-1.7-0.1-2.7c0-1-0.1-2-0.2-3.1c-0.1-1-0.2-2-0.4-2.9
			c-0.2-1.8-0.7-3.4-1.4-4.6c-0.7-1.2-1.6-1.9-2.6-1.9s-1.9,0.2-2.6,0.5c-0.7,0.4-1.2,0.9-1.6,1.7c-0.9,1.6-1.4,3.2-1.6,5
			c-0.2,1.8-0.2,3.7-0.2,5.8l-0.2,6.5c0,0.8-0.3,1.5-0.9,2c-0.6,0.5-1.3,0.7-2.1,0.7c-1,0-1.5-0.6-1.5-1.9c0-3.3-0.1-7.4-0.3-12.2
			c-0.2-4.8-0.3-8.9-0.3-12.1c0.2-0.7,0.5-1.3,1-1.8s0.9-0.8,1.4-0.8c0.4,0,0.8,0,1,0.1s0.4,0.2,0.6,0.3c0.1,0.2,0.3,0.3,0.4,0.5
			c0.1,0.1,0.2,0.4,0.2,0.8c0.1,0.4,0.1,0.7,0.1,0.9c0,0.2,0,0.6,0.1,1.2c0,0.5,0,1,0.1,1.3c2.2-2.8,4.9-4.3,8.1-4.3
			c2.2,0,3.9,1,5,3.1c1.6,3,2.5,7.7,2.5,13.9l0.1,5.6c0,1.5-0.1,2.5-0.2,3c-0.2,0.5-0.4,0.9-0.6,1.3c-0.4,0.8-1.1,1.1-2.2,1.1
			C284.3,68.6,283.9,68,283.9,66.7z"/>
	</g>
</g>
</svg>
