<?xml version="1.0" encoding="utf-8"?>
<!-- Generator: Adobe Illustrator 21.0.0, SVG Export Plug-In . SVG Version: 6.00 Build 0)  -->
<svg version="1.1" id="tryagain-text" xmlns="http://www.w3.org/2000/svg" xmlns:xlink="http://www.w3.org/1999/xlink" x="0px"
	 y="0px" viewBox="0 0 925.6 292.3" style="enable-background:new 0 0 925.6 292.3;" xml:space="preserve">
<style type="text/css">
	.Drop_x0020_Shadow{fill:none;}
	.Outer_x0020_Glow_x0020_5_x0020_pt{fill:none;}
	.Blue_x0020_Neon{fill:none;stroke:#8AACDA;stroke-width:7;stroke-linecap:round;stroke-linejoin:round;}
	.Chrome_x0020_Highlight{fill:url(#SVGID_1_);stroke:#FFFFFF;stroke-width:0.3629;stroke-miterlimit:1;}
	.Jive_GS{fill:#FFDD00;}
	.Alyssa_GS{fill:#A6D0E4;}
	.st0{fill:#F69220;}
</style>
<linearGradient id="SVGID_1_" gradientUnits="userSpaceOnUse" x1="62.6697" y1="-254.1839" x2="62.6697" y2="-255.1839">
	<stop  offset="0" style="stop-color:#656565"/>
	<stop  offset="0.618" style="stop-color:#1B1B1B"/>
	<stop  offset="0.6292" style="stop-color:#545454"/>
	<stop  offset="0.9831" style="stop-color:#3E3E3E"/>
</linearGradient>
<path d="M103.2,230.1c-1.6,0-3.2-0.2-4.8-0.6c-6.5-1.6-9.2-7.7-9.7-9c-0.3-0.8-0.5-1.6-0.5-2.4c0-0.3-1.9-30.4-3.5-60.4
	c-3.5-62.8-3.1-63.6-1.8-66.2c2-4,6-7,11.4-8.3l0.5-0.1c1-0.3,2.3-0.6,3.8-0.6c1.7,0,3.4,0.4,5.2,1.2c1.7,0.8,3,2.1,4.7,3.7
	c0.2,0.2,0.4,0.3,0.6,0.5c4-2.2,10.9-5.8,21.8-8.8c2.6-0.7,5.2-1.1,7.8-1.1c17.6,0,33,16.5,33,35.4v24.5c0,10-6.2,21.8-16.5,24.2
	c-3.1,0.7-5.6,1.2-8.1,1.2c-2.7,0-5.1-0.6-7.6-1.9c-0.9-0.4-8.5-4.5-10.2-10.3c-0.7-2.4-0.4-4.9,0.8-6.9c0.4-0.7,0.9-1.3,1.4-1.8
	c7.1-6.7,7.7-8.7,7.7-19.7c-0.9-3.1-1.7-4.9-2.6-5.8c-1.4-1.3-4.8-1.5-7.4-1.5l-0.3,0c-7.4,0.1-12.4,11.6-12.5,22.4
	c0.2,2.5,1.4,20.6,2.4,38.7c2.4,41.1,2,42.2,1,44.4c-2.3,5.3-7.9,8-12,8.8l-0.1,0C106.6,229.8,105.1,230.1,103.2,230.1z"/>
<path d="M200.2,290.7c-2,0-3.8-0.1-3.9-0.1c-0.2,0-0.4,0-0.6-0.1c-14.5-2-38.7-9.4-38.8-35.8c-0.1-1.6-0.6-11.1,0-20.2
	c1.3-21.4,13.3-36.1,23.2-42.3c1.6-1.1,3.4-1.6,5.6-1.6c0.9,0,1.8,0.1,2.6,0.2c0.3,0,0.7,0.1,1,0.1c0,0,0.1,0,0.1,0
	c-9.1-5.6-18-17.9-18.9-44.9c-0.2-5.9-1.3-57.8,18.8-67.5c0.1-0.1,0.2-0.1,0.3-0.1c1.2-0.5,2.5-0.8,3.9-0.8c2.8,0,11.9,1.5,16.1,6.5
	c3.2,3.8,5.1,10.6,4.6,15.9c-0.3,2.8-1.2,4.9-2.3,6.3c-5.9,14.7-5.4,24.4-5.1,30.8c0.1,1.7,0.2,3.2,0.1,4.7c0,0.1,0,0.1,0,0.2
	c-0.6,12.2,5.2,15.9,6.4,16.1h2c9.9,0,20.5-10.8,20.6-30.9c0-0.1,0-0.2,0-0.3c0.2-4-0.4-11.5-0.8-17.6c-0.7-9.5-0.9-12.8-0.4-15.2
	c1.8-7.8,11-11.5,16.9-12.1c0.7-0.1,1.3-0.1,2-0.1c5.7,0,12.9,2.4,16.2,7.7c1.6,2.6,2.1,3.5,1.4,55.6c-0.3,23.9-0.8,47.9-0.9,49.5
	c0,53-27.4,92.4-66.6,95.7C202.6,290.6,201.5,290.7,200.2,290.7z M200.3,252.2c0.2,0,0.4,0,0.6,0c4,0,9.1-2.9,14-8
	c10-10.3,17.1-26.8,16.8-39.1c0-0.1,0-14.7,0-14.7c-4.8,1-11.2,2.4-19,4c-2.6,0.5-5.1,0.8-7.6,0.8c-2,0-4.6-0.2-7.4-0.9
	c4.5,3.6,7.1,9.4,7.1,14.7c0,1.9-0.6,3.7-1.8,5.1c-9.5,11.5-11.2,25.6-10.5,30.6C192.9,248.3,197.1,251.2,200.3,252.2z"/>
<path d="M42.5,244.2c-9.3-0.1-15.9-4.9-17.5-12.8c0-0.1-0.1-0.3-0.1-0.4c-0.1-0.4-0.6-4.2,0-8.5c0.4-3,1.2-13.8,1.2-17.4
	c0-4.3-0.7-16.9-1.1-18.9c-0.2-1.1-0.4-2.6-0.4-4.2l-12.3-0.5c-0.2,0-0.3,0-0.5,0c-2.5-0.2-5.9-1-8.3-3c-3.5-2.9-3.8-7.5-3.4-11
	c0.2-9.8,4.9-15.3,8.9-18.2c4-2.9,9-4.6,15.3-5.3c0.2-1.2,0.4-2.1,0.4-2.6V32.5c0-8.8,12.7-14.2,18.3-14.2c6.8,0,16.6,7.9,18.1,14.5
	c0.1,0.6,0.2,1.1,0.2,1.7v34.9c0,0.2,0,0.3,0,0.5c-0.1,0.8-1.2,19-2.1,25.3c-0.5,3.3-0.3,24.7,0.1,43.6c0.2,2,0.5,3.4,0.8,4.4
	c4.7-0.7,12-1.7,15-1.7c1.1,0,2.5,0.1,3.9,0.7c5.5,2.3,8.5,10.2,8.8,11.7c0.6,2.5,1.1,5.2,0.1,11.3c-0.8,5.4-5.2,9.2-12.9,11.3
	c-4,1.1-9.1,1.7-13.7,1.7c-0.4,0-0.8,0-1.2,0c-0.9,2.3-0.8,8.4-0.8,11.5c0,0.9,0,1.7,0,2.5c1.9,23.9,2.4,37.9,1.3,41.7
	c-1.7,6.1-10.7,10.2-18,10.2L42.5,244.2z"/>
<path d="M754.8,230.9c-0.3,0-0.6,0-0.8,0c-9.1-0.4-14-8.4-14-16v-81.5c-0.4-6.5-2-35.9-2-39.1c0-5.3,3.2-10.3,9.5-14.7
	c2.3-1.6,5.3-2.4,9.6-2.4c4.1,0,8.6,0.7,10.2,0.9c2.7,0.2,7.7,1.5,10,8.1c15.5-6.9,26.4-10.2,34-10.2h8.2
	c23.9,0,40.6,18.1,42.7,46.2c0,0.1,0,0.2,0,0.3c1.4,41.9-17.2,84-46.2,104.8c-1.1,0.8-5.1,3.5-10.7,3.5c-2.5,0-5-0.6-7.2-1.7
	c-4.4-2.1-6.3-5.4-7.1-7.8c-1.7-5.1,0.5-9.6,0.9-10.4c0.1-0.2,0.3-0.5,0.4-0.7c22.2-33.4,33.4-59.5,33.4-77.3
	c0-9-7.2-18.6-18.9-18.6c-0.4,0-0.8,0-1.2,0c-14.9,0.8-25.4,8.2-26.9,14.8c-1.9,8.3-3,41.6-3.6,61.6c-0.3,10.2-0.6,17.6-0.8,20.6
	c0,0.5-0.1,0.9-0.2,1.3C771.1,224,763.7,230.9,754.8,230.9z"/>
<path d="M405.9,225.1c-11,0-21.4-3.9-29.2-11.1c-8-7.3-12.4-17.1-12.4-27.6v-1.8c0-0.3,0-0.7,0.1-1c2.9-22,8.6-37.6,17.7-47.8
	c9.2-10.4,21.6-15.5,38-15.5c0.5,0,2.2-0.1,3.8-0.1c0.9,0,1.6,0,2.2,0.1c-3.2-3-7.4-5.1-13.4-5.4c-0.6,0-1.2-0.1-1.8-0.1
	c-4.3,0-12.4,0.9-18.8,6.7c-7.9,9.2-14.7,10.2-17.3,10.2c-2.8,0-5.4-0.9-7.5-2.6c-4.9-3.9-7.4-8.2-7.5-12.9
	c-0.1-4.1,1.7-7.4,3.6-9.4c22.8-25.6,40.4-28.6,51.6-28.6c1.6,0,2.9,0.1,4.2,0.1c0.8,0,1.6,0.1,2.2,0.1c9.5,0,22.7,3.8,32.2,21.6
	c6.7,12.7,10.8,30.8,12.6,55.3c0,0.1,0,0.2,0,0.4c1.3,52.2,0.2,54.2-1,56.4c-2.1,3.8-5.8,6.9-8.4,8.2c-1.8,0.9-3.9,1.3-6.2,1.3
	c-1.7,0-3.6-0.2-5.6-0.7c-2.8-0.6-5.2-2.3-7.1-4.3c-10.7,5.1-18.5,8.2-30.3,8.6C407,225,406.4,225.1,405.9,225.1z M410.6,191.5
	c1,0.2,1.6,0.2,2,0.2c0,0,0,0,0,0c0.7,0,1.5-0.1,2.6-0.2c6.9-2,16.2-13.1,16.2-27.4c0-0.7-0.1-1.6-0.2-2.2c-1.2-1.5-4.2-4.4-5.5-5.2
	c-1.3-0.4-2.8-0.7-4-0.7c-0.6,0-1.1,0-1.6,0.1c-13.8,3.2-18.9,6.9-20.2,21.3C400,182.1,402.3,189.9,410.6,191.5z"/>
<path d="M627.7,225.1c-11,0-21.4-3.9-29.2-11.1c-8-7.3-12.4-17.1-12.4-27.6v-1.8c0-0.3,0-0.7,0.1-1c2.9-22,8.6-37.6,17.7-47.8
	c9.2-10.4,21.6-15.5,38-15.5c0.5,0,2.2-0.1,3.8-0.1c0.9,0,1.6,0,2.2,0.1c-3.2-3-7.4-5.1-13.4-5.4c-0.6,0-1.2-0.1-1.8-0.1
	c-4.3,0-12.4,0.9-18.8,6.7c-7.9,9.2-14.7,10.2-17.3,10.2c-2.8,0-5.4-0.9-7.5-2.6c-4.9-3.9-7.4-8.2-7.5-12.9
	c-0.1-4.1,1.7-7.4,3.6-9.4c22.8-25.6,40.4-28.6,51.6-28.6c1.6,0,2.9,0.1,4.2,0.1c0.8,0,1.6,0.1,2.2,0.1c9.5,0,22.7,3.8,32.2,21.6
	c6.7,12.7,10.8,30.8,12.6,55.3c0,0.1,0,0.2,0,0.4c1.3,52.2,0.2,54.2-1,56.4c-2.1,3.8-5.8,6.9-8.4,8.2c-1.8,0.9-3.9,1.3-6.2,1.3
	c-1.7,0-3.6-0.2-5.6-0.7c-2.8-0.6-5.2-2.3-7.1-4.3c-10.6,5.1-18.5,8.2-30.3,8.6C628.8,225,628.3,225.1,627.7,225.1z M632.4,191.5
	c1,0.2,1.6,0.2,2,0.2h0c0.7,0,1.5-0.1,2.6-0.2c6.9-2,16.2-13.1,16.2-27.4c0-0.7-0.1-1.6-0.2-2.2c-1.2-1.5-4.2-4.4-5.5-5.2
	c-1.3-0.4-2.8-0.7-4-0.7c-0.6,0-1.1,0-1.6,0.1c-13.8,3.2-18.9,6.9-20.2,21.3C621.8,182.1,624.1,189.9,632.4,191.5z"/>
<path d="M711.8,230.6c-2.1,0-4.3-0.3-7-1.1c-9.3-2.5-11.9-9.8-12-13.6c0-0.1,0-32.8,0-32.8l-2-73.4c0-0.1,0-6.4,0-6.4
	c0-13.9,7-20.1,13.9-20.3c0.3,0,1.2,0,2.4-0.1c-1.1-0.2-2.3-0.5-3.2-0.8c-3.4-1.4-10.9-7.8-12.9-12.4c-1.9-4.3-1.9-8.5-1.9-14.7
	v-0.4c0-9.1,6.2-17.3,16.6-22c0.7-0.3,1.4-0.5,2.1-0.6c0.3,0,3.2-0.5,6.7-0.5c2.2,0,4.3,0.2,6.2,0.5c9,1.7,17,13.2,18.6,20.4
	c0.3,1.2,0.3,2.8,0.2,4.6c0,0.1,0,0.2,0,0.4c-2,13.8-4.6,20.8-19.7,25.4c-0.2,0-0.3,0.1-0.6,0.2c0.7,0.1,1.2,0.1,1.6,0.2l0.5,0.1
	c5.3,1,7.9,3.2,10.1,8.7c0.7,1.9,1.6,4,1.1,62.2c-0.1,9.5-0.5,57-1.3,61.1c-1.3,6.5-4.5,10.6-10.4,13.2
	C718.3,229.6,715.5,230.6,711.8,230.6z"/>
<path d="M881.6,230c-2.2-0.2-4.3-0.6-6.1-1.2c-8.7-2.6-15.5-14.9-16.4-22.2c-0.1-1.3,0-2.8,0.3-4.5c0-0.1,0.1-0.2,0.1-0.4
	c3.4-13.6,6.7-20.3,22.2-23.2c0.2,0,0.4-0.1,0.6-0.1c-0.7-0.1-1.2-0.3-1.6-0.4l-0.5-0.1c-5.1-1.5-7.5-4-9.1-9.7
	c-0.6-2-1.2-4.1,7-78.1c1.3-12.1,8.1-72.8,9.3-76.7c2-6.3,5.6-10.1,11.7-12.1c2.6-0.8,5.5-1.6,9.1-1.2c2.1,0.2,4.2,0.8,6.8,1.8
	c9,3.5,10.8,11,10.5,14.8c0,0.1-6.7,64.8-6.7,64.8l-5.6,73.3c0,0.1-0.7,6.3-0.7,6.3c-1.4,13.8-9,19.3-15.9,18.7
	c-0.3,0-1.2-0.1-2.4-0.2c1.1,0.3,2.2,0.7,3.1,1.2c3.3,1.8,10.1,8.9,11.6,13.7c1.4,4.5,1,8.6,0.4,14.8l0,0.4c-0.9,9-8,16.6-18.8,20.1
	c-0.7,0.2-1.4,0.4-2.1,0.4C888,230.2,885.1,230.3,881.6,230z"/>
<path d="M518.8,292.3c-0.1,0-0.2,0-0.3,0c-27.7-1.3-57.1-24.3-57.1-64.3c0-11.2,7.1-39.6,23.7-39.9c0,0,0.1,0,0.1,0
	c0.3,0,0.6,0,0.9,0.1c9,1,16.1,8.1,15.9,15.7c-0.1,2.8-1.3,5-2.5,7.4c-2.1,4-5,9.4-3.7,19.7c2.2,11.2,10.7,23,19.9,23h1.9
	c15.8-0.8,20.2-4.4,22.3-7.6c3.3-4.9,3.9-13.5,3.9-26.7l0.3-32.1c-6.3,2.1-14.5,4.1-22.5,4.1c0,0,0,0,0,0c-0.7,0-1.4,0-2.1,0
	c-19.6-0.9-49.9-21.9-49.9-48.2v-4.1c0-32.8,23.4-57.5,54.3-57.5c2.5,0,5,0.2,7.5,0.5c4.4,0.6,9.2,1.4,13,2c1.2-3,3.3-6.1,9.2-7.4
	c2.7-0.6,6-0.9,9.2-0.9c3.3,0,6.2,0.3,8.6,1c9.7,2.7,11,14.6,11,60.2v82.4c0,19.7-3.3,34.8-10.1,46.4c-7.1,12-18.2,20.1-33,24.3
	c-0.3,0.1-0.7,0.2-1,0.2c-0.5,0.1-11.7,1.7-19.2,1.7L518.8,292.3z M501.3,143.1c2,5.5,13.4,13.1,27.7,13.1
	c13.5,0,17.4-15.8,18.9-22.3l0.4-3.8c-0.3-7.2-8.5-15.2-23.6-16.1c-4.9,0.1-12.3,2.6-17.3,8C502.7,127,500.7,134.2,501.3,143.1z"/>
<path class="st0" d="M132.9,86.8c16.1-4.5,30.6,11,30.6,26.6v24.5c0,7.4-4.5,15.1-10.2,16.3c-5.7,1.3-7.7,1.3-10.2,0
	c-2.5-1.3-6.9-4.7-6.1-6.1c9.3-8.8,10.2-13.1,10.2-26.6c-2.5-9.5-5.7-14.4-18.4-14.3c-12.7,0.1-20.4,15.1-20.4,30.6
	c0,0,5.2,77.2,4.1,79.7c-1.1,2.5-4.6,3.8-6.1,4.1c-1.6,0.3-3.4,0.7-6.1,0c-2.8-0.7-4.1-4.1-4.1-4.1S88.8,97.5,90,95
	c1.2-2.5,4.3-3.6,6.1-4.1c1.9-0.5,2.5-0.8,4.1,0s6.1,6.2,8.2,6.1C110.5,97,116.8,91.3,132.9,86.8z"/>
<path class="st0" d="M192.6,85.6c1.3-0.5,8.7,1.1,10.7,3.5c2.4,2.8,4.1,10.8,1.5,12.8c-8.7,20.8-5.9,33.1-6.1,39.6
	c-0.8,16.8,8.4,24.5,14.3,24.5h2c13.6,0,28.4-13.4,28.6-38.8c0.4-8.6-2-28.4-1.4-31.3c0.7-2.9,5.7-5.5,9.9-5.9
	c4.2-0.4,9.1,1.4,10.6,3.8c1.5,2.4-0.6,100.8-0.6,100.8c0,49.2-24.7,84.9-59.3,87.9c-2.5,0.2-6.1,0-6.1,0
	c-20.4-2.9-31.9-11.9-31.9-28.2c0,0-0.6-10,0-19.5c1.3-20.7,13.7-32.5,19.7-36.1c0.6-0.5,2.3-0.1,4.1,0c5.3,0.7,8.2,6.2,8.2,10.2
	c-10.7,12.9-13.3,29.2-12.3,36.8c1,7.5,8.5,12.8,14.3,14.3c18.9,2.6,41.5-30.6,40.9-55.2c0-4.1,0-24.5,0-24.5s-10.7,2.5-28.6,6.1
	c-18,3.6-31.6-8.2-32.7-40.9C177.6,122.7,181.7,90.9,192.6,85.6z"/>
<path class="st0" d="M43.1,26.3c3.4,0,9.7,5.4,10.3,8.2v34.9c0,0-1.2,18.6-2.1,24.7c-0.8,6,0,45.2,0,45.2c0.9,8.2,2.9,12.3,6.2,12.3
	c0,0,17.1-2.6,18.5-2.1c1.4,0.6,3.7,4.5,4.1,6.2c0.4,1.6,0.7,3.3,0,8.2c-0.7,4.9-14.3,6.6-20.5,6.2c-9.1,0.5-8,13.2-8,22.5
	c0,0,2.8,34.8,1.6,39.2c-0.3,1.2-4.8,4.5-10.5,4.4c-5.6-0.1-8.9-2.5-9.8-6.5c0,0-0.4-2.9,0-6.2c0.4-3.2,1.3-14.4,1.3-18.5
	c0-4.1-0.7-17.9-1.3-20.5s0-10.3,0-10.3l-20.2-0.7c0,0-2.9-0.3-3.9-1.1s-0.5-4.3-0.5-4.3c0-11,7.5-16.4,22.6-16.4
	c0,0,2.1-7,2.1-10.3c0-3.3,0-108.9,0-108.9C32.8,30.2,39.7,26.3,43.1,26.3z"/>
<path class="st0" d="M811.3,84h8.2c17.9,0,32.8,12.9,34.7,38.8c1.2,36.7-14.3,77.6-42.9,98.1c0,0-4.7,3.5-9.7,1.1
	c-5.1-2.5-2.5-7.2-2.5-7.2c23.2-34.9,34.7-62.2,34.7-81.7c0-13.8-11.5-27.5-28.6-26.6c-17.1,1-31.7,9.7-34.2,21.1
	c-2.9,13.1-3.8,74.3-4.6,83.2c-1.6,6.2-5.6,12.5-12,12.2c-6.4-0.3-6.4-8.1-6.4-8.1v-40.9v-22.5v-18.4c0,0-2-35.7-2-38.8
	c0-3.2,3.2-6.1,6.1-8.2c2.9-2,14.3,0,14.3,0c2.7,0,4.1,2.7,4.1,8.2l2,2h2C791.8,88.1,804.1,84,811.3,84z"/>
<path class="st0" d="M421.3,86.3c21.3,0,33.5,23.2,36.8,69.5c0,0,1.3,50,0,52.3c-1.3,2.3-3.7,4.3-4.9,4.9c-1.2,0.6-3.4,0.7-6.5,0
	c-3.1-0.7-6.5-6.5-6.5-6.5c-14.4,7.1-21.1,10.2-32.9,10.6c-19.3,0.7-34.9-13.3-34.9-30.6v-1.8c5.3-41,20.6-56.4,47.9-56.4
	c0,0,4.1-0.2,5.9,0c1.8,0.2,14.8,1.6,14.8,1.6c-5.7-15.4-15-22.3-27.8-23.1c-7-0.4-18.3,0.9-26.9,9.1c0,0-9.1,10.8-14,6.9
	c-7.8-6.3-3.2-10.5-3.2-10.5C395.6,82.3,413.2,86.3,421.3,86.3z M391.9,177.2c0,9.5,5.6,20,17.3,22.2c3.2,0.5,4.7,0.3,7.5,0
	c10.9-2.6,22.7-17.6,22.7-35.4c0,0-0.1-3.8-1-5.7c-0.9-1.8-7.1-8-9.7-9c-2.7-1-6.4-1.7-10.2-1C402.4,152,393.5,158,391.9,177.2z"/>
<path class="st0" d="M643.1,86.3c21.3,0,33.5,23.2,36.8,69.5c0,0,1.3,50,0,52.3c-1.3,2.3-3.7,4.3-4.9,4.9c-1.2,0.6-3.4,0.7-6.5,0
	c-3.1-0.7-6.5-6.5-6.5-6.5c-14.4,7.1-21.1,10.2-32.9,10.6c-19.3,0.7-34.9-13.3-34.9-30.6v-1.8c5.3-41,20.6-56.4,47.9-56.4
	c0,0,4.1-0.2,5.9,0c1.8,0.2,14.8,1.6,14.8,1.6c-5.7-15.4-15-22.3-27.8-23.1c-7-0.4-18.3,0.9-26.9,9.1c0,0-9.1,10.8-14,6.9
	c-7.8-6.3-3.2-10.5-3.2-10.5C617.5,82.3,635,86.3,643.1,86.3z M613.7,177.2c0,9.5,5.6,20,17.3,22.2c3.2,0.5,4.7,0.3,7.5,0
	c10.9-2.6,22.7-17.6,22.7-35.4c0,0-0.1-3.8-1-5.7c-0.9-1.8-7.1-8-9.7-9c-2.7-1-6.4-1.7-10.2-1C624.2,152,615.3,158,613.7,177.2z"/>
<path class="st0" d="M709,40c0,0,5.6-0.9,10.2,0c4.6,0.9,11.1,8.9,12.3,14.3c0.1,0.6,0,2,0,2c-1.8,12.3-3.2,15.6-14.1,18.8
	c-2.2,0.6-8.7,0.2-10.4-0.5c-1.7-0.7-7.6-5.7-8.6-8.2c-1.3-2.9-1.2-5.9-1.2-11.9C697.1,48.3,702.2,43,709,40z M705,91
	c0,0,11.7-0.5,14.3,0s3.2,0.3,4.7,3.9c1.4,3.6,0.2,114.6-0.6,118.7c-0.8,4.1-2.4,6-5.9,7.5c-3.5,1.6-5.7,2-10.5,0.7
	c-6-1.7-6.1-6.1-6.1-6.1V183l-2-73.6c0,0,0-2.9,0-6.1C698.8,95.3,701.8,91,705,91z"/>
<path class="st0" d="M887.9,222.2c0,0-5.7,0.3-10.2-1.1c-4.5-1.3-10.1-10-10.7-15.5c-0.1-0.6,0.2-2,0.2-2c3-12,4.8-15.2,16-17.3
	c2.2-0.4,8.7,0.7,10.3,1.5c1.6,0.9,6.9,6.5,7.7,9c1,3,0.6,6,0,11.9C900.6,215.2,895,219.8,887.9,222.2z M897.3,171.8
	c0,0-11.6-0.7-14.2-1.5c-2.6-0.8-3.2-0.7-4.3-4.4c-1.1-3.7,15-146.2,16.2-150.2c1.3-4,3-5.7,6.6-6.9c3.6-1.2,5.9-1.4,10.5,0.4
	c5.8,2.3,5.5,6.7,5.5,6.7l-6.7,64.7l-5.6,73.4c0,0-0.3,2.8-0.6,6.1C903.8,168.2,900.5,172.1,897.3,171.8z"/>
<path class="st0" d="M555.2,84.8c3.5-0.8,9.8-1.2,14,0c4.2,1.2,5.2,17.5,5.2,52.5v82.4c0,36.1-11.7,55.7-37.3,62.9
	c0,0-11.3,1.7-18.3,1.6c-25.4-1.2-49.5-22.3-49.5-56.4c0-11.5,7.1-31.8,15.9-31.9c4.8,0.5,8.9,4,8.8,7.5c-0.1,3.5-8.4,10.6-6.1,28.6
	c2.9,14.9,14.1,29.8,27.8,29.8h2.1c31.3-1.5,34-14.1,34-42.2l0.4-43.9c0,0-17.2,8.5-32.3,7.8c-15.1-0.7-42.2-18.3-42.2-40.2v-4.1
	c0-31,23.6-52.8,52.8-49.1c8.6,1.1,19.3,3.3,19.3,3.3s0.5-2.6,1.5-4.7C552.1,86.7,551.7,85.5,555.2,84.8z M493.4,144.6
	c2.7,10.2,18.3,19.6,35.6,19.6c13.4,0,22.4-9.7,26.8-29l0.5-4.8c0-11.3-11.2-23.4-31.4-24.5C513.5,105.9,490.8,115.1,493.4,144.6z"
	/>
</svg>
