<?xml version="1.0" encoding="utf-8"?>
<!-- Generator: Adobe Illustrator 21.0.0, SVG Export Plug-In . SVG Version: 6.00 Build 0)  -->
<svg version="1.1" id="Layer_1" xmlns="http://www.w3.org/2000/svg" xmlns:xlink="http://www.w3.org/1999/xlink" x="0px" y="0px"
	 viewBox="0 0 740.2 533.2" style="enable-background:new 0 0 740.2 533.2;" xml:space="preserve">
<style type="text/css">
	.Drop_x0020_Shadow{fill:none;}
	.Outer_x0020_Glow_x0020_5_x0020_pt{fill:none;}
	.Blue_x0020_Neon{fill:none;stroke:#8AACDA;stroke-width:7;stroke-linecap:round;stroke-linejoin:round;}
	.Chrome_x0020_Highlight{fill:url(#SVGID_1_);stroke:#FFFFFF;stroke-width:0.3629;stroke-miterlimit:1;}
	.Jive_GS{fill:#FFDD00;}
	.Alyssa_GS{fill:#A6D0E4;}
	.st0{fill:#2D4E56;}
	.st1{fill:#A7A8AC;}
	.st2{fill:#F6921E;}
	.st3{fill:#FFFFFF;}
</style>
<linearGradient id="SVGID_1_" gradientUnits="userSpaceOnUse" x1="-30.1622" y1="-101.5212" x2="-30.1622" y2="-102.5212">
	<stop  offset="0" style="stop-color:#656565"/>
	<stop  offset="0.618" style="stop-color:#1B1B1B"/>
	<stop  offset="0.6292" style="stop-color:#545454"/>
	<stop  offset="0.9831" style="stop-color:#3E3E3E"/>
</linearGradient>
<path class="st0" d="M15.1,490.8c15.8,22.2,43.5,18.7,74.6,16.9c42.2-2.5,509.7-28,568.3-43.1c12.7-3.3,28.4-5.3,44.3-22.6
	c7.6-8.2,10.2-19.4,13.3-29.9c5-17.1-12.2-256.1-16.5-276.7c-4.7-22.2-7.2-53.1-29.5-65.9c-13.9-8-31.1-6-46.5-6.6
	c-3.3-0.1-7.9-0.2-13.4-0.3c-9.8-6.8-25-19.8-42.1-28.8c-21.6-11.4-45.1-18.1-72.4-24.8c-10.2-2.5,11.8,9,25,23.3
	c17.1,18.6,16.4,28.8,17.5,31.5c-15.5,0.1-434.4,1.2-465.7,3.3c-26.6,1.8-41.1,7.6-51.9,29.7c-8.4,17.3-7.9,215.6-11,273.3
	C6.2,421.1,2.7,473.3,15.1,490.8z"/>
<path class="st1" d="M18.6,515.4c16.5,23.8,41.3,17.6,74,15.6c44.4-2.7,524.9-30.5,586.5-46.8c13.3-3.5,29.9-5.8,46.6-24.3
	c8-8.8,12-21.7,14-32.1c3.6-18.8-12.4-264.2-16.8-286.3c-4.9-23.8-7.5-56.9-30.9-70.7c-14.6-8.5-32.7-6.4-48.9-7
	c-3.5-0.1-8.3-0.2-14.1-0.3c-10.3-7.3-26.2-21.2-44.2-30.8C562,20.4,519.5,7.8,476.7,6.1c-11-0.4,11,11.1,26.2,25
	c19,17.3,23.3,34.1,24.5,37c-16.3,0.2-424.8-1.6-457.7,0.7c-28,1.9-44.9,6.8-56.2,30.6c-8.1,17-3.6,220.2-5.2,282.2
	C6.4,450.9,5.6,496.6,18.6,515.4z"/>
<path class="st2" d="M9.1,507c16.5,23.8,45.5,19.9,78,17.9c44.2-2.7,523.7-30.6,585-46.9c13.3-3.5,29.8-5.8,46.4-24.3
	c7.9-8.8,12-21.7,14-32.2c3.6-18.8-12.3-264.2-16.8-286.2c-4.8-23.8-7.4-56.9-30.8-70.7c-14.5-8.5-32.6-6.4-48.7-7
	c-3.5-0.1-5.2-0.1-11-0.2c-10.3-7.3-29.7-21-47.6-30.6C555.3,14.6,513.3,1.7,470.7,0c-11-0.4,10.9,11.1,26.1,25
	c19,17.3,21.1,30.9,22.2,33.8c-16.2,0.2-417,1.7-449.8,4c-27.9,2-43.1,8.2-54.4,32C6,113.3,6.2,315.5,2.9,377.4
	C-0.1,432.2-3.8,488.2,9.1,507z"/>
<path class="st3" d="M19.1,496C35,518.3,62.8,514.7,94,512.9c42.4-2.4,511.1-27.9,570-42.9c12.7-3.3,28.5-5.3,44.5-22.6
	c7.6-8.2,12.2-21.4,13.6-29.7c2.9-17.7-12.5-256.4-16.8-276.9c-4.7-22.2-7.2-53.1-29.7-65.9c-13.9-8-31.3-6.1-46.7-6.6
	c-3.3-0.1-8-0.2-13.5-0.3c-9.9-6.8-25.1-19.8-42.3-28.8c-21.7-11.4-46.7-20.7-73.1-25.9c-3.2-0.6,12.2,9.1,25.4,23.5
	c17.2,18.6,15.3,29.7,16.3,32.4c-15.6,0.1-434.2,1.1-465.6,3.2C49.2,74,34.7,79.8,23.8,102c-8.5,17.3-8,215.6-11,273.3
	C10.1,426.3,6.6,478.5,19.1,496z"/>
</svg>
