<?xml version="1.0" encoding="utf-8"?>
<!-- Generator: Adobe Illustrator 20.1.0, SVG Export Plug-In . SVG Version: 6.00 Build 0)  -->
<svg version="1.1" id="Layer_1" xmlns="http://www.w3.org/2000/svg" xmlns:xlink="http://www.w3.org/1999/xlink" x="0px" y="0px"
	 viewBox="0 0 381 132" style="enable-background:new 0 0 381 132;" xml:space="preserve">
<style type="text/css">
	.st0{fill:#A7A8AC;}
	.st1{fill:#ECC91A;}
	.st2{fill:#FFFFFF;}
	.st3{fill-rule:evenodd;clip-rule:evenodd;fill:#FFFFFF;}
</style>
<g>
	<g>
		<path class="st0" d="M366,53.6c-1.5-8.2-3.1-17.3-5.8-24.5c-4.4-11.8-11.3-13.1-20.1-13.3c-13.7-0.4-292,4.6-301.5,6.7
			c-7.5,1.6-11.8,7.4-13.8,17.5c-1.7,8.4-7.1,42.4-7.2,48.5c-0.1,8,3,19.7,15.2,22c10.9,2,21.7,1.8,42.4,1.7c13.1,0,247,2,262.4,2.3
			c10.2,0.4,17.9,0.6,20.7,0.4c9.2-0.9,13.4-7.1,13.7-15.5C372.4,89.6,367.4,61.4,366,53.6z"/>
		<path class="st1" d="M363.3,52.6c-1.5-8.2-3.1-17.3-5.8-24.5c-4.4-11.8-11.3-13.1-20.1-13.3c-13.7-0.4-292,4.6-301.5,6.7
			c-7.5,1.6-11.8,7.4-13.8,17.5c-1.7,8.4-7.1,42.4-7.2,48.5c-0.1,8,3,19.7,15.2,22c10.9,2,21.7,1.8,42.4,1.7c13.1,0,247,2,262.4,2.3
			c10.2,0.4,17.9,0.6,20.7,0.4c9.2-0.9,13.4-7.1,13.7-15.5C369.7,88.6,364.7,60.4,363.3,52.6z"/>
		<path class="st2" d="M47.9,23.6c0,0-18.7-1.5-20.5,15.3C27.3,39,32.7,23.8,47.9,23.6z"/>
		<path class="st2" d="M345.8,111.9c0,0,18.6,2.4,21.3-14.3C367.1,97.6,360.9,112.5,345.8,111.9z"/>
	</g>
	<g>
		<path class="st3" d="M82.9,100.4c-1.2-0.1-2.4-0.2-3.6-0.4c-11.8-1.7-20.2-8-24.8-19C47,63.1,57.8,43,76.7,39
			c16.8-3.6,33.4,7.4,36.7,24.4c3.3,17-8.1,33.6-25.1,36.4c-1.7,0.3-3.4,0.4-5,0.6C83.2,100.4,83,100.4,82.9,100.4z M83.1,98.8
			c16.1,0.1,29.6-13.3,29.5-29.5C112.6,53,99.3,39.7,82.9,39.8c-16.2,0-29.4,13.4-29.4,29.6C53.6,85.7,66.8,98.8,83.1,98.8z"/>
		<path class="st3" d="M83.1,98.8c-16.3,0-29.5-13.1-29.5-29.5c-0.1-16.2,13.2-29.6,29.4-29.6c16.4,0,29.6,13.2,29.7,29.5
			C112.7,85.5,99.2,98.9,83.1,98.8z M85.7,54.7c0.2-1.5,0.2-3,0.7-4.2c0.9-2.1,0.5-2.7-1-3.6c-1.6-1-5,0.5-4.8,2.8
			c0.2,1.7,0,3.4,0.1,5.1c0.1,1-0.4,1.5-1.2,2c-1.7,1-3.5,2-4.9,3.4c-2.5,2.5-1.9,6.1,1.1,7.9c0.6,0.3,1.2,0.7,1.8,0.9
			c2,0.5,3.2,1.4,2.7,3.7c-0.1,0.3,0.1,0.6,0.1,0.9c-2.4,0.2-4.6-0.2-6.3-1.9c-0.9-0.8-2-1.3-3.2-1.1c-1.4,0.2-2.6,1.1-2.8,2.1
			c-0.2,1.3,0.8,2.1,1.8,2.5c1.7,0.7,3.5,1.4,5.3,1.8c1.7,0.4,3.5,0.5,5.1,0.7c0.4,2.2,0.7,4.5,1.2,6.8c0.3,1.6,0.4,1.6,2.1,1.5
			c1.2-0.1,1.8-0.5,1.9-1.7c0.1-0.9,0-1.7-0.1-2.6c-0.1-1.6-0.3-3.1-0.4-4.7c0.9-0.3,1.7-0.6,2.5-0.9c0.8-0.3,1.6-0.5,2.4-0.8
			c1.9-0.7,3.1-2.5,3-4.2c-0.1-1.7-1.3-2.9-3.4-3.4c-1.2-0.3-2.3-0.7-3.5-0.9c-0.8-0.2-0.9-0.6-0.8-1.2c0.2-1.6,0.3-3.1,0.4-4.7
			c0-0.9,0.3-1.4,1.4-1.2c1.8,0.3,3.7,0.1,5.4-0.8c1.5-0.8,1.6-2.4,0.2-3.3c-1.3-0.8-2.7-1.3-4.3-1C87.3,54.5,86.7,54.5,85.7,54.7z"
			/>
		<path class="st3" d="M93.8,37.1c0.9-2.2,2.4-3.9,4.3-5.3c4.1-3,8.8-4.5,13.8-5.5c4.8-1,9.7-1.2,14.6-0.9
			c6.4,0.4,12.6,1.7,18.4,4.7c2.7,1.5,5.2,3.3,6.6,6.1c1.4,2.8,1,5.7-1,8.2c-2.6,3.1-6,4.9-9.7,6.2c-4.4,1.6-8.9,2.5-13.6,2.8
			c-4.7,0.4-9.4,0.1-14-0.7c-0.3-0.1-0.7-0.4-0.9-0.7c-1.6-2.7-3.5-5.2-5.8-7.3c-3.3-3.2-7.2-5.6-11.5-7.2
			C94.5,37.4,94.2,37.3,93.8,37.1z"/>
		<path class="st3" d="M152.1,71.7c0.5,1.3,0.3,2.5-0.1,3.7c-0.9,2.7-2.8,4.5-5,6c-4,2.7-8.6,4.1-13.3,5.1c-4.5,0.9-9.1,1.2-13.7,1
			c-2.5-0.1-5-0.5-7.7-0.8c0.4-0.7,0.6-1.1,0.8-1.5c0.7-1.5,1.4-3,2-4.5c0.2-0.6,0.5-0.6,1-0.6c3.5,0.1,7,0.5,10.5,0.3
			c6.1-0.3,12.1-1.4,17.8-4C147.1,75.2,149.7,73.8,152.1,71.7z"/>
		<path class="st3" d="M152.1,49c0.7,2.4,0,4.4-1.4,6.3c-2.2,3-5.3,4.7-8.6,6.1c-4.5,1.9-9.3,3-14.2,3.2c-3.7,0.2-7.4,0.2-11.1,0.2
			c-0.7-2.6-1.3-5-1.9-7.3c2,0.1,4.1,0.3,6.2,0.3c2.2,0,4.5,0.1,6.7-0.1c3.4-0.4,6.8-1,10.1-1.8c4.6-1.1,9-2.8,12.8-5.8
			C151.2,49.8,151.6,49.5,152.1,49z"/>
		<path class="st3" d="M116.5,75.9c0.2-2.4,0.4-4.6,0.7-6.9c12.5,0.9,24.4-0.6,34.9-8.4c0.3,0.5,0.4,1.6,0.2,2.6
			c-0.5,2.6-2.1,4.4-4.1,6c-4.4,3.4-9.6,5.1-15,6.1c-3.8,0.7-7.7,1-11.5,0.9C119.9,76.2,118.2,76,116.5,75.9z"/>
		<path class="st3" d="M80.3,61c0,1.5,0,2.8,0,4.2c-0.8-0.4-1.8-0.5-1.9-1.6C78.2,62.3,79.2,61.7,80.3,61z"/>
		<path class="st3" d="M84.8,70.7c1.7,0.3,1.9,0.4,1.8,1.5c-0.1,1-0.2,1.1-1.8,1.1C84.8,72.5,84.8,71.6,84.8,70.7z"/>
	</g>
</g>
</svg>
