<?xml version="1.0" encoding="utf-8"?>
<!-- Generator: Adobe Illustrator 21.0.0, SVG Export Plug-In . SVG Version: 6.00 Build 0)  -->
<svg version="1.1" id="welldone-text" xmlns="http://www.w3.org/2000/svg" xmlns:xlink="http://www.w3.org/1999/xlink" x="0px"
	 y="0px" viewBox="0 0 891.4 243.7" style="enable-background:new 0 0 891.4 243.7;" xml:space="preserve">
<style type="text/css">
	.Drop_x0020_Shadow{fill:none;}
	.Outer_x0020_Glow_x0020_5_x0020_pt{fill:none;}
	.Blue_x0020_Neon{fill:none;stroke:#8AACDA;stroke-width:7;stroke-linecap:round;stroke-linejoin:round;}
	.Chrome_x0020_Highlight{fill:url(#SVGID_1_);stroke:#FFFFFF;stroke-width:0.3629;stroke-miterlimit:1;}
	.Jive_GS{fill:#FFDD00;}
	.Alyssa_GS{fill:#A6D0E4;}
	.st0{fill:#B7D333;}
</style>
<linearGradient id="SVGID_1_" gradientUnits="userSpaceOnUse" x1="44.5061" y1="-277.9417" x2="44.5061" y2="-278.9417">
	<stop  offset="0" style="stop-color:#656565"/>
	<stop  offset="0.618" style="stop-color:#1B1B1B"/>
	<stop  offset="0.6292" style="stop-color:#545454"/>
	<stop  offset="0.9831" style="stop-color:#3E3E3E"/>
</linearGradient>
<path d="M82.3,225.8c-4.3,0-8.2-1.3-10.2-2c-3.3-1.1-6.1-3.8-14.9-16.8c-0.3,0.7-0.6,1.3-0.9,1.9c-3.3,6.7-4.5,9.2-5.7,10.7
	c-1.5,1.8-4.3,4-9.4,4c-2.4,0-10.3-0.5-12.8-6.4c-0.3-0.8-0.7-1.7-1.2-2.7c-4.9-11.2-14-32.2-27-110.6c-1.5-8.9,6.3-11.8,8.9-12.8
	c2.1-0.8,4-1.1,6.2-1.1c1.6,0,3,0.2,4.7,0.4c0.7,0.1,1.4,0.2,2.3,0.3c6.9,0.8,9.6,7.5,13.8,26c2.5,11.1,4.8,24.3,6.6,34
	c0.9,4.8,1.5,8.6,2,10.5c0.2,0.8,0.7,2.2,1.3,3.8c2.7-3.4,5.7-7.3,6.8-9.1c1.7-2.6,4.5-4.2,7.5-4.2c4.6,0,8.6,3.2,13.3,10.7
	c0.7,1.1,1.4,2.3,2,3.4c1-4.9,2-10.6,2.7-14.5c0.7-4.1,1.4-7.6,1.9-10c0.7-3.7,9.4-41.5,12.3-46.6c2.1-3.7,5.9-5.9,10.1-5.9
	c3.6,0,7.4,1.6,9.9,4.1c0.1,0,0.1,0.1,0.2,0.1c1.3,0.8,4,2.5,5.5,6.8c2,5.4,0.5,28.1,0.5,28.3c-0.4,5.7-3.6,16.4-7.1,27.9l-0.9,2.8
	c-0.6,1.9-1.9,8.3-3.3,15.1c-8.2,39.1-10.5,45.5-14.8,48.7C89.6,224.7,86.2,225.8,82.3,225.8z"/>
<path d="M644.8,234.7c-0.3,0-0.5,0-0.8,0c-8.8-0.4-13.5-8.2-13.5-15.6v-76.7c-0.3-6.1-1.9-33.8-1.9-36.8c0-5.2,3.1-10,9.1-14.3
	c2.3-1.6,5.1-2.3,9.2-2.3c3.8,0,8,0.6,9.5,0.9c3.9,0.3,7.3,2.6,9.1,6.4c0.2,0.3,0.3,0.7,0.5,1.1c14.2-6.4,24.2-9.4,31.3-9.4h7.6
	c22.5,0,38.3,17.3,40.2,44c0,0.1,0,0.2,0,0.3c1.3,39.6-16,79.4-43.2,99.1c-1,0.8-5,3.4-10.2,3.4c-2.4,0-4.8-0.5-7-1.6
	c-4.3-2.1-6.1-5.3-6.8-7.6c-1.6-4.9,0.3-9.1,0.9-10.2c0.1-0.2,0.3-0.5,0.4-0.7c20.5-31.4,31-55.8,31-72.5c0-8.2-6.5-17-17-17
	c-0.4,0-0.7,0-1.1,0c-10.5,0.6-22.8,5.9-24.5,13.5c-1.7,7.8-2.7,39.1-3.3,57.8c-0.3,9.6-0.5,16.6-0.8,19.4c0,0.5-0.1,0.9-0.2,1.4
	C660.4,228,653.3,234.7,644.8,234.7z"/>
<path d="M867.2,243.7c-2.1,0-4.1-0.2-5.8-0.5c-8.5-1.6-16.2-12.7-17.7-19.7c-0.3-1.2-0.3-2.7-0.2-4.5c0-0.1,0-0.2,0-0.4
	c1.8-12.7,4.1-19.4,17-23.8c-4.9-1-7.3-3.2-9.4-8.4c-0.8-2-1.5-3.8-1.1-74c0.1-16.1,0.5-69.1,1.2-72.8c1.3-6.3,4.4-10.3,10-12.8
	c2.2-1,5-2.1,8.5-2.1c2,0,4.1,0.3,6.6,1c8.9,2.5,11.5,9.6,11.6,13.4c0,0.1,0,61.3,0,61.3l1.9,69.1c0,0.1,0,6,0,6
	c0,12.7-6,18.8-12.3,19.5c3.4,1.5,10.2,7.5,12.1,11.8c1.8,4.2,1.8,8.1,1.8,14v0.4c0,8.8-5.9,16.7-15.8,21.2
	c-0.7,0.3-1.4,0.5-2.1,0.6C873.3,243.3,870.5,243.7,867.2,243.7z"/>
<path d="M166.1,223.2c-25.9,0-44.7-14.4-52.9-40.5c-0.1-0.4-0.2-0.7-0.3-1.1c-0.1-0.5-1.9-11.9-1.9-19.6c0-15.7,6.7-33.1,18.1-46.8
	c12.7-15.3,29-23.7,46-23.7c29.8,0,39.5,27.8,42.3,51.1c0,0.3,0.1,0.7,0.1,1v11c0,18.3-14.4,30.1-36.6,30.1l-0.4,0
	c-0.3,0-0.6,0-0.9-0.1c-0.2,0-15.5-1.8-24-1.8l-0.4,0c-1.3,0-2.3,0-3,0.1c1.5,3.9,7.9,9.4,17,9.4l0.3,0c6.9-0.1,12.6-5.1,12.7-5.1
	c2.6-2.2,5.7-2.2,6.7-2.2c0.6,0,1.1,0,1.1,0c0.1,0,0.3,0,0.4,0c7.5,0.9,12.4,8.2,12.5,18.7c0,0.6,0.1,1.7,0,2.9
	c-0.6,6.5-5.4,14.7-25.3,16.5c-0.2,0-0.5,0-0.7,0H166.1z M150.6,149.5c0.6,2.5,6.6,4.1,12.1,4.3c1.3,0,2.6,0.1,3.8,0.1
	c11,0,15.5-1.8,16.9-2.6v-5.5c-1.3-12.8-6.3-18-17.4-18h-1.8C161,127.8,153.6,134.4,150.6,149.5z"/>
<path d="M797,219.5c-25.9,0-44.7-14.4-52.9-40.5c-0.1-0.4-0.2-0.7-0.3-1.1c-0.1-0.5-1.9-11.9-1.9-19.6c0-15.7,6.7-33.1,18.1-46.8
	c12.7-15.3,29-23.7,46-23.7c29.8,0,39.5,27.8,42.3,51.1c0,0.3,0.1,0.7,0.1,1v11c0,18.3-14.4,30.1-36.6,30.1l-0.4,0
	c-0.3,0-0.6,0-0.9-0.1c-0.2,0-15.5-1.8-24-1.8l-0.4,0c-1.3,0-2.3,0-3,0.1c1.5,3.9,7.9,9.4,17,9.4l0.3,0c6.9-0.1,12.6-5.1,12.7-5.1
	c2.6-2.2,5.7-2.2,6.7-2.2c0.6,0,1.1,0,1.1,0c0.1,0,0.3,0,0.4,0c7.5,0.9,12.4,8.2,12.5,18.7c0,0.6,0.1,1.7,0,2.9
	c-0.6,6.5-5.4,14.7-25.3,16.5c-0.2,0-0.5,0-0.7,0H797z M781.6,145.9c0.6,2.5,6.6,4.1,12.1,4.3c1.3,0,2.6,0.1,3.8,0.1
	c11,0,15.5-1.8,16.9-2.6v-5.5c-1.3-12.8-6.3-18-17.4-18h-1.8C792,124.2,784.5,130.7,781.6,145.9z"/>
<path d="M241.3,225.8c-4.1,0-9.5-0.1-10.2-0.2c-11-0.1-13.1-15.6-14-22.2c-1.4-10.6-2.1-25.8-2.1-46.6V16.6
	c0-12.2,16.7-15.2,23.1-16.3c0.5-0.1,1.5-0.3,2.7-0.3c1.3,0,2.6,0.2,3.7,0.7c2.8,1.1,7.6,6,8.7,8.8c0.8,2.1,0.7,4.2,0.5,5.7v91.2
	l4.1,77.2c0,0.1,0,0.3,0,0.4v2c0.4,27.8,0.1,28.4-0.5,30.2c-0.8,2.1-4.7,7.8-9.6,9.1C246.5,225.7,245.4,225.8,241.3,225.8z"/>
<path d="M289.1,225.8c-4.1,0-9.5-0.1-10.2-0.2c-11-0.1-13.1-15.6-14-22.2c-1.4-10.6-2.1-25.8-2.1-46.6V16.6
	c0-12.2,16.7-15.2,23.1-16.3c0.5-0.1,1.5-0.3,2.7-0.3c1.3,0,2.6,0.2,3.7,0.7c2.8,1.1,7.6,6,8.7,8.8c0.8,2.1,0.7,4.2,0.5,5.7v91.2
	l4.1,77.2c0,0.1,0,0.3,0,0.4v2c0.4,27.8,0.1,28.4-0.5,30.2c-0.8,2.1-4.7,7.8-9.6,9.1C294.4,225.7,293.2,225.8,289.1,225.8z"/>
<path d="M492.6,223.6c-2.5,0-4.5-0.3-5.7-0.6c-5-0.5-7.6-4.6-9-9.4c-8.8,6.3-19.5,9.4-31.9,9.4c-23.4,0-40.5-10.6-49.5-30.6
	c-0.1-0.1-0.1-0.3-0.2-0.4c-0.3-0.8-3.1-8.2-4-12.4c-0.9-4.4-1.7-14.2,0-23.5c0-0.1,0.1-0.3,0.1-0.4c6.9-29.8,30.3-50.7,56.9-51
	c1.1-0.1,3.5-0.3,6.6-0.3c2.4,0,4.7,0.1,6.9,0.4c4.6,0.5,9,1.7,13.4,3.6c0-32.3,0-77.3,0-79.6c-0.1-6.8,5.3-11.2,10.6-12.6
	c0.6-0.2,1.3-0.2,1.9-0.2h10.3c0.8,0,1.6,0.1,2.4,0.4c8.5,2.7,9.8,12,9.8,17.3c0,0,0,50,0,50.1l-1.9,124.8c0,0.3,0,0.5,0,0.8
	c-0.4,4-3.1,11.4-10.6,13.5C496.9,223.3,494.8,223.6,492.6,223.6z M446.1,186.2c11.5,0,24.4-12.3,24.5-28.7c0-6.8-1.7-12.2-5-15.6
	c-2.2-2.2-5-3.4-8-3.4c-8.2,0-19.8,2.4-26.8,23c0,0.1-0.1,0.3-0.1,0.3s-1,2.7-1.4,6.3c-0.2,1.3-0.4,2.6-0.6,3.7
	c-0.6,3-0.8,4.2,0,6.1c1.2,1.9,7.8,7,16.3,8.4H446.1z"/>
<path d="M560.6,221.2c-30.1,0-45.2-11.7-52-40.4c-0.1-0.6-1.4-6.3-1.1-11.6c1.8-34.1,17.9-49.4,48.9-67.3c0.1-0.1,0.2-0.1,0.3-0.2
	c6.6-3.4,15.1-5,25.9-5c25.1,0,46.7,16,48.5,35.8c1.8,10.6,0.9,21.8,0,29.4c-3.4,29.2-35.7,50.4-44.1,54.5
	c-7.2,3.5-20.3,4.6-22.9,4.8c-0.1,0-0.3,0-0.4,0C562.8,221.2,561.7,221.2,560.6,221.2z M582.6,132.7c-32.4,8.7-39.1,23-39.1,41.7
	c0,3,0,10.9,17.4,15.1c13.2-0.8,34.6-21.5,36.3-39.4c0.2-2.3,0.1-6.9,0-9.6c-1.3-8-4.3-8.3-6.6-8.3L582.6,132.7z"/>
<path class="st0" d="M11.9,98.7c2.9-1.1,4.6-0.5,9.5,0c4.8,0.5,13.2,54.1,15.3,64.2c0.6,3,5,14.5,7.4,14.7
	c2.4,0.2,13.1-14.1,15.2-17.3c2-3.2,10.8,10.7,13.3,19.2c0.6,2.4,5.9,2.6,7.6,0c1.7-2.6,5.9-28,7.6-36.5c1.7-8.6,9.7-41.2,11.4-44.2
	c1.7-3.1,6-1.6,7.6,0c1.6,1.6,2.9,1.3,3.8,3.8c0.9,2.6,0.4,19.1,0,25c-0.4,5.9-5.4,21.5-7.6,28.8c-2.2,7.3-10.9,56.5-15.2,59.6
	c-4.3,3.1-10.4,1-13.3,0c-2.9-1-15.3-20.6-17.1-23.1c-1.3-1.5-1.9,0-1.9,0c-2.3,2.8-9.6,19.4-11.3,21.5c-1.7,2.1-8.2,0.5-8.6-0.4
	c-4-9.7-13.5-26.4-27.6-111.5C7.7,100.5,8.9,99.8,11.9,98.7z"/>
<path class="st0" d="M697.3,95.9h7.6c16.6,0,30.5,12.1,32.3,36.5c1.1,34.5-13.3,73-39.9,92.3c0,0-4.3,3.3-9,1
	c-4.7-2.3-2.4-6.8-2.4-6.8c21.5-32.9,32.3-58.5,32.3-76.9c0-13-10.7-25.9-26.6-25c-15.9,0.9-29.4,9.2-31.8,19.8
	c-2.7,12.3-3.5,70-4.3,78.3c-1.5,5.8-5.2,11.7-11.1,11.5c-5.9-0.3-5.9-7.6-5.9-7.6v-38.5v-21.2v-17.3c0,0-1.9-33.6-1.9-36.5
	c0-3,3-5.8,5.7-7.7c2.7-1.9,13.3,0,13.3,0c2.5,0,3.8,2.6,3.8,7.7l1.9,1.9h1.9C679.2,99.8,690.6,95.9,697.3,95.9z"/>
<path class="st0" d="M872.3,235.2c0,0-5.2,0.8-9.5,0c-4.3-0.8-10.3-8.4-11.4-13.5c-0.1-0.6,0-1.9,0-1.9c1.6-11.5,3-14.7,13.1-17.7
	c2-0.6,8.1-0.2,9.7,0.4c1.6,0.7,7,5.4,8,7.7c1.2,2.7,1.1,5.5,1.1,11.2C883.4,227.4,878.7,232.4,872.3,235.2z M876.1,187.2
	c0,0-10.8,0.5-13.3,0c-2.5-0.5-3-0.3-4.4-3.7c-1.3-3.4-0.2-138.3,0.6-142.2c0.8-3.9,2.2-5.6,5.4-7.1c3.2-1.5,5.3-1.9,9.8-0.6
	c5.6,1.6,5.7,5.8,5.7,5.8v61.2l1.9,69.2c0,0,0,2.7,0,5.8C881.8,183.2,879.1,187.2,876.1,187.2z"/>
<path class="st0" d="M175.1,99.6c19.4,0,30.8,14.7,34.4,44v1.8v1.8v5.5v1.8c0,13.3-10.6,22.1-29,22c0,0-16.4-1.9-25.3-1.8
	c-8.9,0.1-11.6,1-11.3,7c0.3,9,11.7,18.9,25.8,18.7c9.8-0.1,17.4-6.7,17.8-7.1c0.4-0.4,2.1-0.3,2.1-0.3c3.3,0.4,5.4,4.9,5.4,11
	c0,0,0.1,0.8,0,1.8c-0.5,6.1-9.8,8.4-18.1,9.2h-10.9c-19.5,0-37.3-9.3-45.3-34.8c0,0-1.8-11.2-1.8-18.3
	C119,134.2,143.5,99.6,175.1,99.6z M142.5,149.1c0,7,6.6,12.4,19.9,12.8c20.4,0.7,29-3.9,29-9.2v-7.3c-1.6-17.1-10-25.7-25.3-25.7
	h-1.8C156,119.7,145.9,130.1,142.5,149.1z"/>
<path class="st0" d="M805.7,95.9c19.4,0,30.8,14.7,34.4,44v1.8v1.8v5.5v1.8c0,13.3-10.6,22.1-29,22c0,0-16.4-1.9-25.3-1.8
	c-8.9,0.1-11.6,1-11.3,7c0.3,9,11.7,18.9,25.8,18.7c9.8-0.1,17.4-6.7,17.8-7.1c0.4-0.4,2.1-0.3,2.1-0.3c3.3,0.4,5.4,4.9,5.4,11
	c0,0,0.1,0.8,0,1.8c-0.5,6.1-9.8,8.4-18.1,9.2h-10.9c-19.5,0-37.3-9.3-45.3-34.8c0,0-1.8-11.2-1.8-18.3
	C749.6,130.5,774.1,95.9,805.7,95.9z M773.2,145.4c0,7,6.6,12.4,19.9,12.8c20.4,0.7,29-3.9,29-9.2v-7.3c-1.6-17.1-10-25.7-25.3-25.7
	h-1.8C786.6,116.1,776.6,126.4,773.2,145.4z"/>
<path class="st0" d="M239.4,8.2c0,0,1.4-0.3,2.1,0c0.7,0.3,3.8,3.4,4.1,4.2c0.3,0.8,0,2.1,0,2.1v4.2v33.5v23v31.4l4.1,77.5v2.1
	c0,0,0.3,26.3,0,27.2c-0.3,0.9-2.8,3.8-4.1,4.2c-1.4,0.4-14.5,0-14.5,0c-5.5,0-8.3-20.2-8.3-60.7V16.6
	C222.9,13,228.4,10.2,239.4,8.2z"/>
<path class="st0" d="M287.3,8.2c0,0,1.4-0.3,2.1,0c0.7,0.3,3.8,3.4,4.1,4.2c0.3,0.8,0,2.1,0,2.1v4.2v33.5v23v31.4l4.1,77.5v2.1
	c0,0,0.3,26.3,0,27.2c-0.3,0.9-2.8,3.8-4.1,4.2s-14.5,0-14.5,0c-5.5,0-8.3-20.2-8.3-60.7V16.6C270.8,13,276.3,10.2,287.3,8.2z"/>
<path class="st0" d="M488.9,24h10.3c2.8,0.9,4.2,4.1,4.2,9.6v21.4v28.5l-1.9,124.8c0,0-0.6,5.4-4.8,6.6c-4.2,1.2-8.6,0-8.6,0
	c-1.8,0-3.2-4.5-4-13.5h-4.4c-8.4,9-19.6,13.5-33.6,13.5c-20.4,0-34.5-8.6-42.2-25.8c0,0-2.9-7.5-3.6-11.2c-0.8-3.7-1.4-12.5,0-20.4
	c6.2-26.8,26.7-44.7,49.7-44.7c0,0,5.6-0.8,12.1,0c6.5,0.8,13.8,3.2,22.3,9.6c0,0,0-90.3,0-93.7C484.3,25.2,488.9,24,488.9,24z
	 M421.3,167c-0.6,4.6-2.4,8.5,0,14.1c1.7,3.9,11.1,11.4,22.9,13.2h1.9c16.4,0,32.4-16.6,32.5-36.7c0.1-17.9-10.1-27.1-21-27.1
	c-16.5,0-27.9,9.5-34.4,28.4C423.2,158.9,421.9,162.3,421.3,167z"/>
<path class="st0" d="M582.7,104.7c20.2,0,39.4,12.6,40.6,28.7c1.8,10.3,0.7,21.6,0,27.4c-3,25.9-33.4,45.2-39.6,48.2
	c-6.2,3-20.1,4.1-20.1,4.1c-29.4,0.8-41.3-9.3-47.2-34.2c0,0-1.2-5-0.9-9.3c1.6-29.9,14.9-43.4,44.9-60.7
	C565.8,106.1,573.3,104.7,582.7,104.7z M535.5,174.4c0,11.8,8.2,19.5,24.6,23.2c17.7,0,42.9-24.7,45.1-46.7c0.4-4,0-11.2,0-11.2
	c-1.5-10.4-6.5-15.6-14.8-15.6l-9.1,0.6C547,133.7,535.5,149.9,535.5,174.4z"/>
</svg>
