<?xml version="1.0" encoding="utf-8"?>
<!-- Generator: Adobe Illustrator 21.0.0, SVG Export Plug-In . SVG Version: 6.00 Build 0)  -->
<svg version="1.1" id="Layer_1" xmlns="http://www.w3.org/2000/svg" xmlns:xlink="http://www.w3.org/1999/xlink" x="0px" y="0px"
	 viewBox="0 0 103 77.8" style="enable-background:new 0 0 103 77.8;" xml:space="preserve">
<style type="text/css">
	.Drop_x0020_Shadow{fill:none;}
	.Outer_x0020_Glow_x0020_5_x0020_pt{fill:none;}
	.Blue_x0020_Neon{fill:none;stroke:#8AACDA;stroke-width:7;stroke-linecap:round;stroke-linejoin:round;}
	.Chrome_x0020_Highlight{fill:url(#SVGID_1_);stroke:#FFFFFF;stroke-width:0.3629;stroke-miterlimit:1;}
	.Jive_GS{fill:#FFDD00;}
	.Alyssa_GS{fill:#A6D0E4;}
	.st0{fill-rule:evenodd;clip-rule:evenodd;fill:#FFFFFF;}
</style>
<linearGradient id="SVGID_1_" gradientUnits="userSpaceOnUse" x1="-253.25" y1="-361" x2="-253.25" y2="-362">
	<stop  offset="0" style="stop-color:#656565"/>
	<stop  offset="0.618" style="stop-color:#1B1B1B"/>
	<stop  offset="0.6292" style="stop-color:#545454"/>
	<stop  offset="0.9831" style="stop-color:#3E3E3E"/>
</linearGradient>
<g>
	<path class="st0" d="M31.9,76.3c-1.2-0.1-2.4-0.2-3.6-0.4C16.5,74.2,8,67.9,3.5,57c-7.5-17.9,3.3-38,22.2-42
		c16.8-3.6,33.4,7.4,36.7,24.4c3.3,17-8.1,33.6-25.1,36.4c-1.7,0.3-3.4,0.4-5,0.6C32.2,76.3,32,76.3,31.9,76.3z M32.1,74.8
		c16.1,0.1,29.6-13.3,29.5-29.5c-0.1-16.3-13.3-29.5-29.7-29.5c-16.2,0-29.4,13.4-29.4,29.6C2.6,61.6,15.8,74.8,32.1,74.8z"/>
	<path class="st0" d="M32.1,74.8c-16.3,0-29.5-13.1-29.5-29.5C2.5,29.1,15.8,15.7,31.9,15.7c16.4,0,29.6,13.2,29.7,29.5
		C61.7,61.4,48.2,74.9,32.1,74.8z M34.7,30.6c0.2-1.5,0.2-3,0.7-4.2c0.9-2.1,0.5-2.7-1-3.6c-1.6-1-5,0.5-4.8,2.8
		c0.2,1.7,0,3.4,0.1,5.1c0.1,1-0.4,1.5-1.2,2c-1.7,1-3.5,2-4.9,3.4c-2.5,2.5-1.9,6.1,1.1,7.9c0.6,0.3,1.2,0.7,1.8,0.9
		c2,0.5,3.2,1.4,2.7,3.7c-0.1,0.3,0.1,0.6,0.1,0.9c-2.4,0.2-4.6-0.2-6.3-1.9c-0.9-0.8-2-1.3-3.2-1.1c-1.4,0.2-2.6,1.1-2.8,2.1
		c-0.2,1.3,0.8,2.1,1.8,2.5c1.7,0.7,3.5,1.4,5.3,1.8c1.7,0.4,3.5,0.5,5.1,0.7c0.4,2.2,0.7,4.5,1.2,6.8c0.3,1.6,0.4,1.6,2.1,1.5
		c1.2-0.1,1.8-0.5,1.9-1.7c0.1-0.9,0-1.7-0.1-2.6c-0.1-1.6-0.3-3.1-0.4-4.7c0.9-0.3,1.7-0.6,2.5-0.9c0.8-0.3,1.6-0.5,2.4-0.8
		c1.9-0.7,3.1-2.5,3-4.2c-0.1-1.7-1.3-2.9-3.4-3.4c-1.2-0.3-2.3-0.7-3.5-0.9c-0.8-0.2-0.9-0.6-0.8-1.2c0.2-1.6,0.3-3.1,0.4-4.7
		c0-0.9,0.3-1.4,1.4-1.2c1.8,0.3,3.7,0.1,5.4-0.8c1.5-0.8,1.6-2.4,0.2-3.3c-1.3-0.8-2.7-1.3-4.3-1C36.3,30.4,35.6,30.5,34.7,30.6z"
		/>
	<path class="st0" d="M42.7,13.1c0.9-2.2,2.4-3.9,4.3-5.3c4.1-3,8.8-4.5,13.8-5.5c4.8-1,9.7-1.2,14.6-0.9C81.9,1.7,88.1,3,93.8,6
		c2.7,1.5,5.2,3.3,6.6,6.1c1.4,2.8,1,5.7-1.1,8.2c-2.6,3.1-6,4.9-9.7,6.2c-4.4,1.6-8.9,2.5-13.6,2.8c-4.7,0.4-9.4,0.1-14-0.7
		c-0.3-0.1-0.7-0.4-0.9-0.7c-1.6-2.7-3.5-5.2-5.8-7.3c-3.3-3.2-7.2-5.6-11.5-7.2C43.5,13.4,43.2,13.2,42.7,13.1z"/>
	<path class="st0" d="M101,47.7c0.5,1.3,0.3,2.5-0.1,3.7c-0.9,2.7-2.8,4.5-5,6c-4,2.7-8.6,4.1-13.3,5.1c-4.5,0.9-9.1,1.2-13.7,1
		c-2.5-0.1-5-0.5-7.7-0.8c0.4-0.7,0.6-1.1,0.8-1.5c0.7-1.5,1.4-3,2-4.5c0.2-0.6,0.5-0.6,1-0.6c3.5,0.1,7,0.5,10.5,0.3
		c6.1-0.3,12.1-1.4,17.8-4C96,51.2,98.7,49.8,101,47.7z"/>
	<path class="st0" d="M101.1,25c0.7,2.4,0,4.4-1.4,6.3c-2.2,3-5.3,4.7-8.6,6.1c-4.5,1.9-9.3,3-14.2,3.2c-3.7,0.2-7.4,0.2-11.1,0.2
		c-0.7-2.6-1.3-5-1.9-7.3c2,0.1,4.1,0.3,6.2,0.3c2.2,0,4.5,0.1,6.7-0.1c3.4-0.4,6.8-1,10.1-1.8c4.6-1.1,9-2.8,12.8-5.8
		C100.2,25.8,100.6,25.4,101.1,25z"/>
	<path class="st0" d="M65.4,51.9c0.2-2.4,0.4-4.6,0.7-6.9c12.5,0.9,24.4-0.6,34.9-8.4c0.3,0.5,0.4,1.6,0.2,2.6
		c-0.5,2.6-2.1,4.4-4.1,6c-4.4,3.4-9.6,5.1-15,6.1c-3.8,0.7-7.7,1-11.5,0.9C68.9,52.2,67.2,52,65.4,51.9z"/>
	<path class="st0" d="M29.3,37c0,1.5,0,2.8,0,4.2c-0.8-0.4-1.8-0.5-1.9-1.6C27.2,38.3,28.2,37.7,29.3,37z"/>
	<path class="st0" d="M33.7,46.7c1.7,0.3,1.9,0.4,1.8,1.5c-0.1,1-0.2,1.1-1.8,1.1C33.7,48.4,33.7,47.6,33.7,46.7z"/>
</g>
</svg>
