<?xml version="1.0" encoding="utf-8"?>
<!-- Generator: Adobe Illustrator 21.0.0, SVG Export Plug-In . SVG Version: 6.00 Build 0)  -->
<svg version="1.1" id="Layer_1" xmlns="http://www.w3.org/2000/svg" xmlns:xlink="http://www.w3.org/1999/xlink" x="0px" y="0px"
	 viewBox="0 0 80.2 77" style="enable-background:new 0 0 80.2 77;" xml:space="preserve">
<style type="text/css">
	.Drop_x0020_Shadow{fill:none;}
	.Outer_x0020_Glow_x0020_5_x0020_pt{fill:none;}
	.Blue_x0020_Neon{fill:none;stroke:#8AACDA;stroke-width:7;stroke-linecap:round;stroke-linejoin:round;}
	.Chrome_x0020_Highlight{fill:url(#SVGID_1_);stroke:#FFFFFF;stroke-width:0.3629;stroke-miterlimit:1;}
	.Jive_GS{fill:#FFDD00;}
	.Alyssa_GS{fill:#A6D0E4;}
	.st0{fill:#B8D432;stroke:#FFFFFF;stroke-width:6;stroke-miterlimit:10;}
</style>
<linearGradient id="SVGID_1_" gradientUnits="userSpaceOnUse" x1="-253" y1="-361.25" x2="-253" y2="-362.25">
	<stop  offset="0" style="stop-color:#656565"/>
	<stop  offset="0.618" style="stop-color:#1B1B1B"/>
	<stop  offset="0.6292" style="stop-color:#545454"/>
	<stop  offset="0.9831" style="stop-color:#3E3E3E"/>
</linearGradient>
<g>
	<path class="st0" d="M22,73.2c-1,0-2,0-3.1,0c-4.6-2.3-5.4-3.8-4.5-9c0.7-3.9,1.2-7.7,2-11.6c0.6-3,0-5.4-2.4-7.5
		c-2-1.7-3.7-3.8-5.7-5.6C6,37.5,4.5,34.9,3.7,32c0-1,0-2,0-3.1c0.8-3.7,3.5-4.9,6.8-5.4c3.6-0.5,7.2-1.2,10.9-1.6
		c3.3-0.4,5.4-1.9,6.5-5c1.3-3.3,2.9-6.5,4.4-9.6c1.1-2.2,2.6-3.7,5.1-4c1.4,0,2.8,0,4.2,0c2.5,0.2,4.1,1.7,5.1,3.9
		c1.6,3.4,3.6,6.7,5,10.3c1,2.6,2.7,3.8,5.3,4.2c3.5,0.5,7,1.2,10.5,1.5c4.7,0.4,8,2,8.7,7.1c0,0.5,0,1,0,1.5
		c-2,5.3-6.5,8.6-10.4,12.3c-2.9,2.8-4,5.5-2.9,9.4c1,3.5,1.2,7.2,1.7,10.8c0.8,5.4-0.2,6.9-5.3,8.7c-0.8,0-1.5,0-2.3,0
		c-5.2-1.3-10-3.5-14.6-6.4c-1.9-1.2-3.6-1.2-5.6-0.1C32.2,69.5,27.4,72.1,22,73.2z"/>
</g>
</svg>
