<?xml version="1.0" encoding="utf-8"?>
<!-- Generator: Adobe Illustrator 21.0.0, SVG Export Plug-In . SVG Version: 6.00 Build 0)  -->
<svg version="1.1" id="Layer_1" xmlns="http://www.w3.org/2000/svg" xmlns:xlink="http://www.w3.org/1999/xlink" x="0px" y="0px"
	 viewBox="0 0 579.3 138.4" style="enable-background:new 0 0 579.3 138.4;" xml:space="preserve">
<style type="text/css">
	.Drop_x0020_Shadow{fill:none;}
	.Outer_x0020_Glow_x0020_5_x0020_pt{fill:none;}
	.Blue_x0020_Neon{fill:none;stroke:#8AACDA;stroke-width:7;stroke-linecap:round;stroke-linejoin:round;}
	.Chrome_x0020_Highlight{fill:url(#SVGID_1_);stroke:#FFFFFF;stroke-width:0.3629;stroke-miterlimit:1;}
	.Jive_GS{fill:#FFDD00;}
	.Alyssa_GS{fill:#A6D0E4;}
	.st0{fill:#A7A8AC;}
	.st1{fill:#ECC91A;}
	.st2{fill:#FFFFFF;}
</style>
<linearGradient id="SVGID_1_" gradientUnits="userSpaceOnUse" x1="-109.0992" y1="-332.6686" x2="-109.0992" y2="-333.6686">
	<stop  offset="0" style="stop-color:#656565"/>
	<stop  offset="0.618" style="stop-color:#1B1B1B"/>
	<stop  offset="0.6292" style="stop-color:#545454"/>
	<stop  offset="0.9831" style="stop-color:#3E3E3E"/>
</linearGradient>
<path class="st0" d="M563.7,128.2c-21.5,14.1-517,13.3-539.4,0C1.9,114.8,1.4,37.4,15.5,17.4C29.6-2.6,537,2.1,563.1,16.3
	C583.9,27.5,585.1,114.1,563.7,128.2z"/>
<path class="st1" d="M557.7,124.2c-21.5,14.1-517,13.3-539.4,0C-4.1,110.8-4.6,33.4,9.5,13.4C23.6-6.6,531-1.9,557.1,12.3
	C577.9,23.5,579.1,110.1,557.7,124.2z"/>
<path class="st2" d="M32.1,16.1c0,0-18.7-1.5-20.5,15.3C11.6,31.4,17,16.3,32.1,16.1z"/>
<path class="st2" d="M541.3,121.1c0,0,18.7,1.5,20.5-15.3C561.8,105.8,556.4,120.9,541.3,121.1z"/>
</svg>
